<?xml version="1.0" standalone="no"?>
<!DOCTYPE svg PUBLIC "-//W3C//DTD SVG 1.1//EN" "http://www.w3.org/Graphics/SVG/1.1/DTD/svg11.dtd" >
<svg xmlns="http://www.w3.org/2000/svg" xmlns:xlink="http://www.w3.org/1999/xlink" version="1.1">
<metadata>
Created by FontForge 20190801 at Wed Jun 24 23:11:32 2020
 By Jimmy Wärting
Copyright C 2019, 2020 Hoefler &#38; Co. http:www.typography.com
</metadata>
<defs>
<font id="Decimal-Book" horiz-adv-x="434" >
  <font-face 
    font-family="Decimal"
    font-weight="325"
    font-stretch="normal"
    units-per-em="1000"
    panose-1="2 0 5 0 0 0 0 0 0 0"
    ascent="800"
    descent="-200"
    x-height="532"
    cap-height="700"
    bbox="-181 -329 1971 1301"
    underline-thickness="0"
    underline-position="0"
    unicode-range="U+000D-1F6E1"
  />
<missing-glyph horiz-adv-x="449" 
d="M-1 -180v900h450v-900h-450zM224 324l161 351h-322zM44 -68l155 338l-155 338v-676zM404 -68v676l-155 -338zM63 -135h322l-161 351z" />
    <glyph glyph-name=".notdef" horiz-adv-x="449" 
d="M-1 -180v900h450v-900h-450zM224 324l161 351h-322zM44 -68l155 338l-155 338v-676zM404 -68v676l-155 -338zM63 -135h322l-161 351z" />
    <glyph glyph-name="NUL" horiz-adv-x="0" 
 />
    <glyph glyph-name="uni000D" unicode="&#xd;" horiz-adv-x="284" 
 />
    <glyph glyph-name="space" unicode=" " horiz-adv-x="284" 
 />
    <glyph glyph-name="A" unicode="A" horiz-adv-x="838" 
d="M47 0l282 700h181l281 -700h-109l-76 189h-376l-76 -189h-107zM396 602l-129 -321h302l-128 321h-45z" />
    <glyph glyph-name="B" unicode="B" horiz-adv-x="808" 
d="M117 0v700h383c142 0 226 -61 226 -175c0 -82 -40 -141 -136 -162c100 -29 151 -83 151 -169c0 -137 -100 -194 -259 -194h-365zM219 400h265c94 0 139 35 139 106c0 69 -48 102 -133 102h-271v-208zM219 92l266 1c106 1 152 37 152 113c0 69 -47 110 -148 110h-270v-224
z" />
    <glyph glyph-name="C" unicode="C" horiz-adv-x="796" 
d="M447 -14c-254 0 -377 161 -377 362c0 199 140 366 388 366c114 0 204 -42 262 -86v-107h-1c-73 51 -152 99 -263 99c-173 0 -279 -116 -279 -272c0 -155 99 -268 277 -268c109 0 193 42 265 97h1v-108c-56 -42 -152 -83 -273 -83z" />
    <glyph glyph-name="D" unicode="D" horiz-adv-x="865" 
d="M117 0v700h324c224 0 352 -131 352 -349c0 -217 -128 -351 -352 -351h-324zM221 94h219c158 0 246 87 246 255s-88 257 -246 257h-219v-512z" />
    <glyph glyph-name="E" unicode="E" horiz-adv-x="771" 
d="M117 0v700h567l4 -94h-468v-197h385v-94h-385v-221h485l-5 -94h-583z" />
    <glyph glyph-name="F" unicode="F" horiz-adv-x="738" 
d="M117 0v700h564l4 -94h-464v-216h393v-94h-393v-296h-104z" />
    <glyph glyph-name="G" unicode="G" horiz-adv-x="871" 
d="M446 -18c-235 0 -376 152 -376 358s147 374 393 374c105 0 206 -33 269 -84v-107h-1c-74 57 -162 97 -269 97c-178 0 -285 -116 -285 -278c0 -155 100 -266 274 -266c151 0 251 82 256 220h-289v88h393c1 -12 1 -25 1 -46c-1 -244 -167 -356 -366 -356z" />
    <glyph glyph-name="H" unicode="H" horiz-adv-x="875" 
d="M117 0v700h104v-290h433v290h105v-700h-105v314h-433v-314h-104z" />
    <glyph glyph-name="I" unicode="I" horiz-adv-x="344" 
d="M120 0v700h104v-700h-104z" />
    <glyph glyph-name="J" unicode="J" horiz-adv-x="655" 
d="M283 -15c-86 0 -166 26 -237 79v108h1c75 -63 157 -92 233 -92c94 0 162 44 162 171v449h105v-461c0 -181 -113 -254 -264 -254z" />
    <glyph glyph-name="J.alt" horiz-adv-x="720" 
d="M336 -15c-92 0 -177 24 -259 79v108h1c85 -64 175 -92 257 -92c108 0 172 49 172 162v364h-294l4 94h395v-471c0 -165 -103 -244 -276 -244z" />
    <glyph glyph-name="K" unicode="K" horiz-adv-x="812" 
d="M117 0v700h104v-295h157l262 295h122v-1l-299 -337l318 -361v-1h-128l-278 311h-154v-311h-104z" />
    <glyph glyph-name="L" unicode="L" horiz-adv-x="698" 
d="M117 0v700h104v-604h431l-4 -96h-531z" />
    <glyph glyph-name="M" unicode="M" horiz-adv-x="1021" 
d="M117 0v700h130l264 -464l261 464h132v-700h-104v540h-9l-277 -485h-10l-276 485h-9v-540h-102z" />
    <glyph glyph-name="N" unicode="N" horiz-adv-x="878" 
d="M117 0v700h125l409 -546h9v546h102v-700h-119l-416 556h-8v-556h-102z" />
    <glyph glyph-name="O" unicode="O" horiz-adv-x="905" 
d="M452 -18c-234 0 -382 144 -382 368c0 221 149 368 382 368c234 0 382 -144 382 -368c0 -221 -148 -368 -382 -368zM452 77c171 0 275 105 275 273s-102 273 -274 273c-171 0 -276 -105 -276 -273s103 -273 275 -273z" />
    <glyph glyph-name="P" unicode="P" horiz-adv-x="775" 
d="M117 0v700h342c173 0 263 -89 263 -240c0 -166 -105 -248 -272 -248h-229v-212h-104zM221 306h231c112 0 164 58 164 150c0 97 -54 150 -166 150h-229v-300z" />
    <glyph glyph-name="Q" unicode="Q" horiz-adv-x="911" 
d="M452 718c234 0 382 -144 382 -368c0 -80 -22 -154 -62 -214l88 -62v-109h-1l-147 104c-66 -56 -156 -87 -260 -87c-234 0 -382 144 -382 368c0 221 149 368 382 368zM453 623c-171 0 -276 -106 -276 -273s104 -274 276 -274c73 0 133 18 178 51l-211 144l55 75l216 -152
c25 42 38 95 38 156c0 167 -105 273 -276 273z" />
    <glyph glyph-name="R" unicode="R" horiz-adv-x="806" 
d="M117 0v700h358c172 0 257 -84 257 -230c0 -115 -57 -193 -170 -219l194 -251h-124l-174 233h-237v-233h-104zM221 325h252c111 0 153 62 153 141s-42 140 -153 140h-252v-281z" />
    <glyph glyph-name="S" unicode="S" horiz-adv-x="751" 
d="M396 -16c-130 0 -231 32 -315 77v108h1c97 -56 210 -89 315 -89c119 0 185 43 185 111c0 66 -49 88 -222 119c-155 29 -267 68 -267 193c0 114 101 213 297 213c89 0 189 -24 266 -68v-108h-1c-82 53 -182 80 -272 80c-117 0 -181 -43 -181 -107c0 -71 78 -88 220 -114
c157 -29 269 -68 269 -201c0 -96 -67 -214 -295 -214z" />
    <glyph glyph-name="T" unicode="T" horiz-adv-x="751" 
d="M323 0v604h-279l4 96h655l4 -96h-279v-604h-105z" />
    <glyph glyph-name="U" unicode="U" horiz-adv-x="863" 
d="M431 -17c-188 0 -323 80 -323 284v433h104v-427c0 -143 97 -194 220 -194s219 49 219 191v430h104v-430c0 -208 -136 -287 -324 -287z" />
    <glyph glyph-name="V" unicode="V" horiz-adv-x="812" 
d="M311 0l-264 700h113l226 -602h41l226 602h112l-264 -700h-190z" />
    <glyph glyph-name="W" unicode="W" horiz-adv-x="1242" 
d="M265 0l-205 700h110l169 -597h28l202 597h111l200 -597h28l166 597h108l-204 -700h-164l-186 555h-11l-187 -555h-165z" />
    <glyph glyph-name="X" unicode="X" horiz-adv-x="818" 
d="M166 0h-125v1l301 361l-280 337v1h126l222 -272l223 272h124v-1l-278 -336l298 -362v-1h-127l-241 296z" />
    <glyph glyph-name="Y" unicode="Y" horiz-adv-x="800" 
d="M348 0v240l-316 460h122l243 -359h7l246 359h118l-316 -458v-242h-104z" />
    <glyph glyph-name="Z" unicode="Z" horiz-adv-x="784" 
d="M80 0v99l488 507h-475l4 94h610v-90l-497 -516h497v-94h-627z" />
    <glyph glyph-name="a" unicode="a" horiz-adv-x="630" 
d="M240 -14c-114 0 -177 59 -177 143c0 41 16 76 42 102c42 42 135 80 339 90v23c0 75 -42 117 -128 117c-73 0 -148 -29 -214 -79h-1v96c72 46 151 69 228 69c142 0 214 -75 214 -206v-341h-93l-2 81c-55 -59 -122 -95 -208 -95zM262 61c74 0 138 37 182 84v110
c-151 -10 -225 -30 -261 -65c-16 -16 -22 -36 -22 -54c0 -47 40 -75 101 -75z" />
    <glyph glyph-name="b" unicode="b" horiz-adv-x="694" 
d="M195 750v-281c41 41 104 78 189 78c139 0 252 -100 252 -263c0 -178 -123 -299 -292 -299c-65 0 -126 17 -181 42h-68v723h100zM359 462c-71 0 -128 -32 -164 -69v-284c42 -24 89 -41 145 -41c109 0 196 79 196 210c0 118 -73 184 -177 184z" />
    <glyph glyph-name="c" unicode="c" horiz-adv-x="606" 
d="M350 -14c-172 0 -292 106 -292 276c0 162 124 285 296 285c74 0 136 -21 187 -58v-96h-1c-61 46 -121 67 -182 67c-119 0 -200 -82 -200 -195c0 -118 81 -192 198 -192c65 0 123 21 184 67h1v-97c-54 -37 -119 -57 -191 -57z" />
    <glyph glyph-name="d" unicode="d" horiz-adv-x="695" 
d="M600 750v-750h-97l-1 77c-41 -47 -108 -92 -197 -92c-136 0 -247 99 -247 274c0 164 122 288 285 288c67 0 115 -19 157 -46v249h100zM351 462c-117 0 -193 -84 -193 -198c0 -130 79 -194 178 -194c65 0 127 33 164 74v258c-41 37 -86 60 -149 60z" />
    <glyph glyph-name="e" unicode="e" horiz-adv-x="645" 
d="M336 547c176 0 253 -125 253 -273c0 -10 -1 -21 -2 -31h-431c7 -108 78 -173 200 -173c77 0 141 23 204 63h1v-90c-50 -31 -124 -57 -209 -57c-195 0 -294 114 -294 269c0 167 110 292 278 292zM334 465c-92 0 -157 -60 -174 -154h334c-6 84 -56 154 -160 154z" />
    <glyph glyph-name="f" unicode="f" horiz-adv-x="428" 
d="M144 0v450h-109l17 82h92v29c0 125 51 204 172 204c31 0 57 -4 84 -14v-84h-1c-23 9 -43 14 -67 14c-62 0 -89 -38 -89 -111v-38h164v-82h-164v-450h-99z" />
    <glyph glyph-name="g" unicode="g" horiz-adv-x="609" 
d="M306 175c-19 0 -38 1 -55 4l-15 -80c241 -17 356 -63 356 -156c0 -74 -87 -149 -279 -149c-177 0 -275 53 -275 135c0 46 32 93 116 129l29 138c-76 32 -111 93 -111 160c0 100 79 191 238 191c36 0 65 -5 91 -13l62 97h110v-1l-106 -128c47 -32 75 -83 75 -140
c0 -100 -80 -187 -236 -187zM307 247c82 0 141 43 141 116c0 68 -57 112 -138 112c-85 0 -143 -46 -143 -116c0 -71 57 -112 140 -112zM321 -135c108 0 179 30 179 72c0 51 -110 79 -310 89c-49 -24 -68 -49 -68 -78c0 -55 89 -83 199 -83z" />
    <glyph glyph-name="h" unicode="h" horiz-adv-x="679" 
d="M95 0v750h98v-317c54 60 118 114 212 114c112 0 185 -63 185 -199v-348h-99v328c0 97 -49 131 -119 131c-74 0 -130 -47 -177 -99v-360h-100z" />
    <glyph glyph-name="i" unicode="i" horiz-adv-x="295" 
d="M148 627c-43 0 -68 29 -68 62v1c0 33 25 61 67 61c43 0 69 -28 69 -61v-1c0 -33 -26 -62 -68 -62zM98 0v532h99v-532h-99z" />
    <glyph glyph-name="j" unicode="j" horiz-adv-x="313" 
d="M166 627c-42 0 -68 29 -68 62v1c0 33 26 61 67 61c43 0 69 -28 69 -61v-1c0 -33 -26 -62 -68 -62zM63 -205c-37 0 -70 6 -102 18v86h1c29 -14 56 -20 82 -20c49 0 72 24 72 86v567h100v-577c0 -103 -45 -160 -153 -160z" />
    <glyph glyph-name="j.alt" horiz-adv-x="295" 
d="M148 623c-43 0 -68 29 -68 62c0 34 25 62 67 62c43 0 69 -28 69 -62c0 -33 -26 -62 -68 -62zM98 -220v752h99v-713z" />
    <glyph glyph-name="k" unicode="k" horiz-adv-x="632" 
d="M95 0v750h100v-427h113l171 209h115l-203 -250l218 -281v-1h-118l-183 236h-113v-236h-100z" />
    <glyph glyph-name="l" unicode="l" horiz-adv-x="295" 
d="M98 0v750h99v-750h-99z" />
    <glyph glyph-name="m" unicode="m" horiz-adv-x="1043" 
d="M95 0v532h98v-105c52 66 114 120 204 120c83 0 146 -40 168 -125c62 76 127 125 212 125c104 0 177 -63 177 -199v-348h-99v328c0 97 -49 131 -111 131c-68 0 -123 -47 -170 -101v-10v-348h-99v328c0 97 -48 131 -111 131c-67 0 -122 -45 -169 -99v-360h-100z" />
    <glyph glyph-name="n" unicode="n" horiz-adv-x="679" 
d="M95 0v532h98v-99c54 60 118 114 212 114c112 0 185 -63 185 -199v-348h-99v328c0 97 -49 131 -119 131c-74 0 -130 -47 -177 -99v-360h-100z" />
    <glyph glyph-name="o" unicode="o" horiz-adv-x="693" 
d="M347 -15c-182 0 -289 124 -289 281s109 281 289 281c181 0 288 -124 288 -281s-108 -281 -288 -281zM347 70c115 0 188 83 188 196s-72 197 -189 197c-115 0 -188 -84 -188 -197s73 -196 189 -196z" />
    <glyph glyph-name="p" unicode="p" horiz-adv-x="695" 
d="M95 -190v722h97l1 -77c41 47 108 92 197 92c136 0 247 -98 247 -274c0 -163 -122 -288 -285 -288c-67 0 -115 19 -157 47v-222h-100zM344 70c117 0 193 84 193 198c0 131 -79 194 -178 194c-65 0 -127 -33 -164 -73v-258c41 -38 86 -61 149 -61z" />
    <glyph glyph-name="q" unicode="q" horiz-adv-x="694" 
d="M499 -190v255c-41 -42 -104 -80 -190 -80c-138 0 -251 101 -251 264c0 177 123 298 292 298c64 0 124 -17 179 -41h70v-696h-100zM335 70c71 0 128 32 164 70v283c-42 24 -90 42 -145 42c-109 0 -196 -80 -196 -210c0 -118 73 -185 177 -185z" />
    <glyph glyph-name="r" unicode="r" horiz-adv-x="414" 
d="M95 0v532h98v-117c43 84 106 130 177 130c4 0 9 0 16 -1v-99c-7 1 -13 1 -20 1c-79 0 -140 -38 -171 -108v-338h-100z" />
    <glyph glyph-name="s" unicode="s" horiz-adv-x="586" 
d="M307 -15c-80 0 -162 21 -234 63v92h1c69 -46 155 -72 236 -72c82 0 124 30 124 77c0 43 -26 61 -158 88c-136 27 -199 63 -199 152c0 90 81 162 219 162c83 0 160 -27 206 -53v-92h-1c-65 39 -147 63 -213 63c-70 0 -112 -30 -112 -73c0 -44 36 -59 163 -86
c143 -30 193 -73 193 -158c0 -76 -54 -163 -225 -163z" />
    <glyph glyph-name="t" unicode="t" horiz-adv-x="425" 
d="M158 0v450h-126l16 82h110v131l99 10v-141h143v-82h-143v-450h-99z" />
    <glyph glyph-name="u" unicode="u" horiz-adv-x="679" 
d="M584 532v-532h-98v100c-54 -61 -117 -115 -212 -115c-112 0 -185 64 -185 199v348h100v-327c0 -97 48 -132 118 -132c74 0 130 47 178 99v360h99z" />
    <glyph glyph-name="v" unicode="v" horiz-adv-x="625" 
d="M235 0l-201 532h105l163 -443h24l162 443h103l-203 -532h-153z" />
    <glyph glyph-name="w" unicode="w" horiz-adv-x="991" 
d="M210 0l-169 532h105l130 -441h23l139 438h118l141 -438h23l129 441h102l-171 -532h-149l-128 413h-14l-130 -413h-149z" />
    <glyph glyph-name="x" unicode="x" horiz-adv-x="623" 
d="M34 0v1l216 274l-205 257h118l153 -196l150 196h115l-206 -261l214 -270v-1h-118l-162 209l-160 -209h-115z" />
    <glyph glyph-name="y" unicode="y" horiz-adv-x="626" 
d="M203 -190l66 172l-234 550h106l182 -437l172 437h102l-295 -722h-99z" />
    <glyph glyph-name="z" unicode="z" horiz-adv-x="598" 
d="M66 0v78l344 371h-334l3 83h458v-73l-351 -376h351v-83h-471z" />
    <glyph glyph-name="a.sc" horiz-adv-x="748" 
d="M51 0l224 582h199l223 -582h-104l-53 140h-333l-52 -140h-104zM344 496l-106 -272h270l-105 272h-59z" />
    <glyph glyph-name="b.sc" horiz-adv-x="739" 
d="M118 0v582h334c132 0 202 -50 202 -145c0 -66 -30 -115 -117 -135c87 -26 129 -68 129 -140c0 -116 -85 -162 -230 -162h-318zM216 336h213c85 0 126 27 126 84c0 54 -38 78 -117 78h-222v-162zM216 84l222 2c92 0 129 28 129 88c0 56 -44 86 -133 86h-218v-176z" />
    <glyph glyph-name="c.sc" horiz-adv-x="711" 
d="M397 -14c-218 0 -324 135 -324 305c0 168 121 304 331 304c100 0 178 -33 230 -74v-98h-1c-67 50 -143 84 -230 84c-138 0 -227 -94 -227 -216c0 -124 75 -216 227 -216c90 0 166 35 230 83h1v-100c-46 -34 -131 -72 -237 -72z" />
    <glyph glyph-name="d.sc" horiz-adv-x="774" 
d="M118 0v582h276c197 0 307 -110 307 -290s-110 -292 -307 -292h-276zM218 87h166c145 0 214 71 214 203s-69 206 -213 206h-167v-409z" />
    <glyph glyph-name="e.sc" horiz-adv-x="697" 
d="M118 0v582h492l4 -85h-396v-160h321v-83h-321v-168h411l-4 -86h-507z" />
    <glyph glyph-name="f.sc" horiz-adv-x="664" 
d="M118 0v582h484l5 -86h-389v-169h326v-87h-326v-240h-100z" />
    <glyph glyph-name="g.sc" horiz-adv-x="772" 
d="M398 -16c-213 0 -325 132 -325 301c0 173 124 310 335 310c102 0 184 -33 236 -74v-99h-1c-60 44 -138 84 -238 84c-140 0 -229 -92 -229 -220c0 -125 77 -215 228 -215c127 0 203 70 204 172h-237v82h334c1 -11 1 -32 1 -44c0 -209 -142 -297 -308 -297z" />
    <glyph glyph-name="h.sc" horiz-adv-x="800" 
d="M118 0v582h100v-245h365v245h99v-582h-99v251h-365v-251h-100z" />
    <glyph glyph-name="i.sc" horiz-adv-x="343" 
d="M121 0v582h100v-582h-100z" />
    <glyph glyph-name="j.sc" horiz-adv-x="606" 
d="M259 -13c-81 0 -153 21 -215 66v99h1c68 -53 137 -77 208 -77c88 0 145 35 145 149v358h100v-373c0 -155 -96 -222 -239 -222z" />
    <glyph glyph-name="j.sc_alt" horiz-adv-x="652" 
d="M302 -13c-81 0 -154 20 -224 65v101h1c74 -54 152 -78 222 -78c90 0 143 39 143 128v294h-256l4 85h352v-392c0 -138 -90 -203 -242 -203z" />
    <glyph glyph-name="k.sc" horiz-adv-x="737" 
d="M118 0v582h100v-241h131l219 241h115l-255 -280l268 -301v-1h-121l-231 255h-126v-255h-100z" />
    <glyph glyph-name="l.sc" horiz-adv-x="628" 
d="M118 0v582h100v-493h366l-4 -89h-462z" />
    <glyph glyph-name="m.sc" horiz-adv-x="925" 
d="M118 0v582h123l223 -375l220 375h123v-582h-96v441h-8l-238 -398h-7l-235 396h-8v-439h-97z" />
    <glyph glyph-name="n.sc" horiz-adv-x="802" 
d="M118 0v582h120l340 -440h9v440h97v-582h-113l-347 449h-8v-449h-98z" />
    <glyph glyph-name="o.sc" horiz-adv-x="804" 
d="M401 -19c-198 0 -328 119 -328 308c0 188 132 311 330 311s328 -119 328 -308c0 -188 -132 -311 -330 -311zM402 70c135 0 226 81 226 220s-92 221 -226 221c-135 0 -226 -81 -226 -220s91 -221 226 -221z" />
    <glyph glyph-name="p.sc" horiz-adv-x="709" 
d="M118 0v582h314c146 0 220 -76 220 -201c0 -139 -90 -209 -229 -209h-205v-172h-100zM218 258h205c90 0 129 49 129 119c0 76 -41 119 -131 119h-203v-238z" />
    <glyph glyph-name="q.sc" horiz-adv-x="810" 
d="M401 -19c-198 0 -328 119 -328 308c0 188 132 311 330 311s328 -119 328 -308c0 -68 -19 -129 -52 -178l64 -47v-100h-1l-121 85c-56 -45 -132 -71 -220 -71zM402 68c59 0 108 13 145 38l-175 121l48 68l183 -129c18 33 28 74 28 124c0 139 -92 221 -229 221
c-135 0 -226 -81 -226 -220c0 -142 91 -223 226 -223z" />
    <glyph glyph-name="r.sc" horiz-adv-x="736" 
d="M118 0v582h293c160 0 243 -58 243 -190c0 -100 -53 -158 -157 -182l186 -207v-3h-125l-167 197h-173v-197h-100zM218 282h202c93 0 133 39 133 108c0 68 -40 107 -133 107h-202v-215z" />
    <glyph glyph-name="s.sc" horiz-adv-x="672" 
d="M356 -16c-98 0 -202 27 -272 66v99h1c81 -50 192 -78 271 -78c107 0 153 33 153 84c0 52 -34 68 -183 98c-149 31 -232 58 -232 166c0 100 82 177 252 177c86 0 170 -23 234 -56v-99h-1c-70 41 -155 69 -240 69c-92 0 -144 -32 -144 -83c1 -48 36 -63 182 -92
c145 -29 232 -67 232 -172c0 -80 -46 -179 -253 -179z" />
    <glyph glyph-name="t.sc" horiz-adv-x="692" 
d="M296 0v494h-242l4 88h576l4 -88h-242v-494h-100z" />
    <glyph glyph-name="u.sc" horiz-adv-x="774" 
d="M384 -14c-160 0 -276 67 -276 241v355h100v-350c0 -116 79 -158 177 -158c102 0 182 40 182 155v353h99v-352c0 -177 -120 -244 -282 -244z" />
    <glyph glyph-name="v.sc" horiz-adv-x="733" 
d="M274 0l-222 582h107l186 -491h45l185 491h106l-221 -582h-186z" />
    <glyph glyph-name="w.sc" horiz-adv-x="1072" 
d="M238 0l-178 582h108l133 -465h26l168 465h89l167 -465h24l135 465h102l-178 -582h-132l-162 449h-5l-163 -449h-134z" />
    <glyph glyph-name="x.sc" horiz-adv-x="729" 
d="M48 0v1l251 297l-239 284h118l189 -220l187 220h115l-239 -284l250 -297v-1h-118l-200 235l-199 -235h-115z" />
    <glyph glyph-name="y.sc" horiz-adv-x="711" 
d="M306 0v199l-272 383h115l206 -294h3l207 294h112l-271 -381v-201h-100z" />
    <glyph glyph-name="z.sc" horiz-adv-x="699" 
d="M80 0v92l409 404h-398l4 86h529v-83l-417 -412h417v-87h-544z" />
    <glyph glyph-name="Aacute" unicode="&#xc1;" horiz-adv-x="838" 
d="M359 798l125 164h132v-5l-163 -159h-94zM47 0l282 700h181l281 -700h-109l-76 189h-376l-76 -189h-107zM396 602l-129 -321h302l-128 321h-45z" />
    <glyph glyph-name="aacute" unicode="&#xe1;" horiz-adv-x="630" 
d="M252 645l125 164h132v-5l-163 -159h-94zM240 -14c-114 0 -177 59 -177 143c0 41 16 76 42 102c42 42 135 80 339 90v23c0 75 -42 117 -128 117c-73 0 -148 -29 -214 -79h-1v96c72 46 151 69 228 69c142 0 214 -75 214 -206v-341h-93l-2 81c-55 -59 -122 -95 -208 -95z
M262 61c74 0 138 37 182 84v110c-151 -10 -225 -30 -261 -65c-16 -16 -22 -36 -22 -54c0 -47 40 -75 101 -75z" />
    <glyph glyph-name="aacute.sc" horiz-adv-x="748" 
d="M314 680l125 164h132v-5l-163 -159h-94zM51 0l224 582h199l223 -582h-104l-53 140h-333l-52 -140h-104zM344 496l-106 -272h270l-105 272h-59z" />
    <glyph glyph-name="Abreve" unicode="&#x102;" horiz-adv-x="838" 
d="M420 790c-108 0 -181 48 -181 143c0 15 2 30 6 46h81c-3 -13 -4 -23 -4 -32c0 -65 48 -83 98 -83s97 18 97 82c0 10 -1 20 -3 33h81c3 -16 5 -32 5 -47c0 -94 -72 -142 -180 -142zM47 0l282 700h181l281 -700h-109l-76 189h-376l-76 -189h-107zM396 602l-129 -321h302
l-128 321h-45z" />
    <glyph glyph-name="abreve" unicode="&#x103;" horiz-adv-x="630" 
d="M320 637c-108 0 -181 48 -181 143c0 15 2 30 6 46h81c-3 -13 -4 -23 -4 -32c0 -65 48 -83 98 -83s97 18 97 82c0 10 -1 20 -3 33h81c3 -16 5 -32 5 -47c0 -94 -72 -142 -180 -142zM240 -14c-114 0 -177 59 -177 143c0 41 16 76 42 102c42 42 135 80 339 90v23
c0 75 -42 117 -128 117c-73 0 -148 -29 -214 -79h-1v96c72 46 151 69 228 69c142 0 214 -75 214 -206v-341h-93l-2 81c-55 -59 -122 -95 -208 -95zM262 61c74 0 138 37 182 84v110c-151 -10 -225 -30 -261 -65c-16 -16 -22 -36 -22 -54c0 -47 40 -75 101 -75z" />
    <glyph glyph-name="abreve.sc" horiz-adv-x="748" 
d="M376 672c-108 0 -181 48 -181 143c0 15 2 30 6 46h81c-3 -13 -4 -23 -4 -32c0 -65 48 -83 98 -83s97 18 97 82c0 10 -1 20 -3 33h81c3 -16 5 -32 5 -47c0 -94 -72 -142 -180 -142zM51 0l224 582h199l223 -582h-104l-53 140h-333l-52 -140h-104zM344 496l-106 -272h270
l-105 272h-59z" />
    <glyph glyph-name="Acircumflex" unicode="&#xc2;" horiz-adv-x="838" 
d="M212 798l138 174h140l138 -174h-104l-85 105h-38l-85 -105h-104zM47 0l282 700h181l281 -700h-109l-76 189h-376l-76 -189h-107zM396 602l-129 -321h302l-128 321h-45z" />
    <glyph glyph-name="acircumflex" unicode="&#xe2;" horiz-adv-x="630" 
d="M112 645l138 174h140l138 -174h-104l-85 105h-38l-85 -105h-104zM240 -14c-114 0 -177 59 -177 143c0 41 16 76 42 102c42 42 135 80 339 90v23c0 75 -42 117 -128 117c-73 0 -148 -29 -214 -79h-1v96c72 46 151 69 228 69c142 0 214 -75 214 -206v-341h-93l-2 81
c-55 -59 -122 -95 -208 -95zM262 61c74 0 138 37 182 84v110c-151 -10 -225 -30 -261 -65c-16 -16 -22 -36 -22 -54c0 -47 40 -75 101 -75z" />
    <glyph glyph-name="acircumflex.sc" horiz-adv-x="748" 
d="M168 680l138 174h140l138 -174h-104l-85 105h-38l-85 -105h-104zM51 0l224 582h199l223 -582h-104l-53 140h-333l-52 -140h-104zM344 496l-106 -272h270l-105 272h-59z" />
    <glyph glyph-name="Adieresis" unicode="&#xc4;" horiz-adv-x="838" 
d="M293 795c-40 0 -64 28 -64 59c0 32 24 59 63 59c41 0 65 -27 65 -59c0 -31 -24 -59 -64 -59zM548 795c-40 0 -64 28 -64 59c0 32 24 59 63 59c41 0 65 -27 65 -59c0 -31 -24 -59 -64 -59zM47 0l282 700h181l281 -700h-109l-76 189h-376l-76 -189h-107zM396 602l-129 -321
h302l-128 321h-45z" />
    <glyph glyph-name="adieresis" unicode="&#xe4;" horiz-adv-x="630" 
d="M191 642c-40 0 -64 28 -64 59c0 32 24 59 63 59c41 0 65 -27 65 -59c0 -31 -24 -59 -64 -59zM446 642c-40 0 -64 28 -64 59c0 32 24 59 63 59c41 0 65 -27 65 -59c0 -31 -24 -59 -64 -59zM240 -14c-114 0 -177 59 -177 143c0 41 16 76 42 102c42 42 135 80 339 90v23
c0 75 -42 117 -128 117c-73 0 -148 -29 -214 -79h-1v96c72 46 151 69 228 69c142 0 214 -75 214 -206v-341h-93l-2 81c-55 -59 -122 -95 -208 -95zM262 61c74 0 138 37 182 84v110c-151 -10 -225 -30 -261 -65c-16 -16 -22 -36 -22 -54c0 -47 40 -75 101 -75z" />
    <glyph glyph-name="adieresis.sc" horiz-adv-x="748" 
d="M249 677c-40 0 -64 28 -64 59c0 32 24 59 63 59c41 0 65 -27 65 -59c0 -31 -24 -59 -64 -59zM504 677c-40 0 -64 28 -64 59c0 32 24 59 63 59c41 0 65 -27 65 -59c0 -31 -24 -59 -64 -59zM51 0l224 582h199l223 -582h-104l-53 140h-333l-52 -140h-104zM344 496l-106 -272
h270l-105 272h-59z" />
    <glyph glyph-name="AE" unicode="&#xc6;" horiz-adv-x="1284" 
d="M630 0v189h-352l-122 -189h-122l458 700h705l4 -94h-468v-197h385v-94h-385v-221h485l-5 -94h-583zM547 602l-210 -321h293v321h-83z" />
    <glyph glyph-name="ae" unicode="&#xe6;" horiz-adv-x="1032" 
d="M947 43c-49 -31 -124 -57 -208 -57c-121 0 -204 42 -250 111c-75 -79 -154 -111 -247 -111c-118 0 -179 57 -179 143c0 43 18 78 42 101c42 42 129 79 341 90v27c0 76 -47 114 -130 114c-73 0 -148 -29 -214 -79h-1v95c72 47 150 70 225 70c97 0 165 -37 189 -106
c40 64 116 106 207 106c175 0 253 -125 253 -271c0 -10 0 -21 -1 -31h-432c6 -113 81 -175 201 -175c77 0 141 23 203 63h1v-90zM719 465c-89 0 -154 -59 -172 -151h333c-6 85 -58 151 -161 151zM161 136c0 -49 40 -75 101 -75c82 0 147 35 201 88c-12 31 -18 66 -19 104
c-158 -10 -225 -29 -260 -63c-14 -14 -23 -33 -23 -54z" />
    <glyph glyph-name="ae.sc" horiz-adv-x="1108" 
d="M529 0v146h-294l-93 -146h-110l374 582h615l4 -85h-396v-160h321v-83h-321v-168h411l-4 -86h-507zM461 498l-173 -268h241v268h-68z" />
    <glyph glyph-name="AEacute" unicode="&#x1fc;" horiz-adv-x="1284" 
d="M650 798l125 164h132v-5l-163 -159h-94zM630 0v189h-352l-122 -189h-122l458 700h705l4 -94h-468v-197h385v-94h-385v-221h485l-5 -94h-583zM547 602l-210 -321h293v321h-83z" />
    <glyph glyph-name="aeacute" unicode="&#x1fd;" horiz-adv-x="1032" 
d="M468 629l125 164h132v-5l-163 -159h-94zM947 43c-49 -31 -124 -57 -208 -57c-121 0 -204 42 -250 111c-75 -79 -154 -111 -247 -111c-118 0 -179 57 -179 143c0 43 18 78 42 101c42 42 129 79 341 90v27c0 76 -47 114 -130 114c-73 0 -148 -29 -214 -79h-1v95
c72 47 150 70 225 70c97 0 165 -37 189 -106c40 64 116 106 207 106c175 0 253 -125 253 -271c0 -10 0 -21 -1 -31h-432c6 -113 81 -175 201 -175c77 0 141 23 203 63h1v-90zM719 465c-89 0 -154 -59 -172 -151h333c-6 85 -58 151 -161 151zM161 136c0 -49 40 -75 101 -75
c82 0 147 35 201 88c-12 31 -18 66 -19 104c-158 -10 -225 -29 -260 -63c-14 -14 -23 -33 -23 -54z" />
    <glyph glyph-name="aeacute.sc" horiz-adv-x="1108" 
d="M546 680l125 164h132v-5l-163 -159h-94zM529 0v146h-294l-93 -146h-110l374 582h615l4 -85h-396v-160h321v-83h-321v-168h411l-4 -86h-507zM461 498l-173 -268h241v268h-68z" />
    <glyph glyph-name="Agrave" unicode="&#xc0;" horiz-adv-x="838" 
d="M482 798h-94l-163 159v5h132zM47 0l282 700h181l281 -700h-109l-76 189h-376l-76 -189h-107zM396 602l-129 -321h302l-128 321h-45z" />
    <glyph glyph-name="agrave" unicode="&#xe0;" horiz-adv-x="630" 
d="M392 645h-94l-163 159v5h132zM240 -14c-114 0 -177 59 -177 143c0 41 16 76 42 102c42 42 135 80 339 90v23c0 75 -42 117 -128 117c-73 0 -148 -29 -214 -79h-1v96c72 46 151 69 228 69c142 0 214 -75 214 -206v-341h-93l-2 81c-55 -59 -122 -95 -208 -95zM262 61
c74 0 138 37 182 84v110c-151 -10 -225 -30 -261 -65c-16 -16 -22 -36 -22 -54c0 -47 40 -75 101 -75z" />
    <glyph glyph-name="agrave.sc" horiz-adv-x="748" 
d="M436 680h-94l-163 159v5h132zM51 0l224 582h199l223 -582h-104l-53 140h-333l-52 -140h-104zM344 496l-106 -272h270l-105 272h-59z" />
    <glyph glyph-name="Amacron" unicode="&#x100;" horiz-adv-x="838" 
d="M236 814v77h368v-77h-368zM47 0l282 700h181l281 -700h-109l-76 189h-376l-76 -189h-107zM396 602l-129 -321h302l-128 321h-45z" />
    <glyph glyph-name="amacron" unicode="&#x101;" horiz-adv-x="630" 
d="M134 661v77h368v-77h-368zM240 -14c-114 0 -177 59 -177 143c0 41 16 76 42 102c42 42 135 80 339 90v23c0 75 -42 117 -128 117c-73 0 -148 -29 -214 -79h-1v96c72 46 151 69 228 69c142 0 214 -75 214 -206v-341h-93l-2 81c-55 -59 -122 -95 -208 -95zM262 61
c74 0 138 37 182 84v110c-151 -10 -225 -30 -261 -65c-16 -16 -22 -36 -22 -54c0 -47 40 -75 101 -75z" />
    <glyph glyph-name="amacron.sc" horiz-adv-x="748" 
d="M192 696v77h368v-77h-368zM51 0l224 582h199l223 -582h-104l-53 140h-333l-52 -140h-104zM344 496l-106 -272h270l-105 272h-59z" />
    <glyph glyph-name="Aogonek" unicode="&#x104;" horiz-adv-x="838" 
d="M47 0l282 700h181l281 -700l-56 -55c-56 -55 -76 -80 -76 -108c0 -34 29 -51 74 -51c26 0 56 7 87 23v-77c-34 -14 -65 -21 -106 -21c-112 0 -147 55 -147 109c0 53 35 99 105 162l13 12l-79 195h-376l-76 -189h-107zM397 602l-130 -321h302l-128 321h-44z" />
    <glyph glyph-name="aogonek" unicode="&#x105;" horiz-adv-x="630" 
d="M240 -14c-114 0 -177 59 -177 143c0 41 16 76 42 102c42 42 135 80 339 90v23c0 75 -42 117 -128 117c-73 0 -148 -29 -214 -79h-1v96c72 46 151 69 228 69c142 0 214 -75 214 -206v-341l-56 -55c-56 -55 -76 -80 -76 -108c0 -34 29 -51 74 -51c26 0 56 7 87 23v-77
c-34 -14 -65 -21 -106 -21c-112 0 -147 55 -147 109c0 53 35 99 105 162l26 24l-2 75c-55 -59 -122 -95 -208 -95zM262 61c74 0 138 37 182 84v110c-151 -10 -225 -30 -261 -65c-16 -16 -22 -36 -22 -54c0 -47 40 -75 101 -75z" />
    <glyph glyph-name="aogonek.sc" horiz-adv-x="748" 
d="M51 0l224 582h199l223 -582l-56 -55c-56 -55 -76 -80 -76 -108c0 -34 29 -51 74 -51c26 0 56 7 87 23v-77c-34 -14 -65 -21 -106 -21c-112 0 -147 55 -147 109c0 53 35 99 105 162l16 14l-54 144h-333l-52 -140h-104zM344 496l-106 -272h270l-105 272h-59z" />
    <glyph glyph-name="Aring" unicode="&#xc5;" horiz-adv-x="838" 
d="M419 790c-99 0 -160 52 -160 137s61 140 161 140s162 -53 162 -139c0 -84 -63 -138 -163 -138zM420 850c54 0 90 30 90 78s-37 78 -91 78c-52 0 -90 -29 -90 -78c0 -48 38 -78 91 -78zM47 0l282 700h181l281 -700h-109l-76 189h-376l-76 -189h-107zM396 602l-129 -321
h302l-128 321h-45z" />
    <glyph glyph-name="aring" unicode="&#xe5;" horiz-adv-x="630" 
d="M318 637c-99 0 -160 52 -160 137s61 140 161 140s162 -53 162 -139c0 -84 -63 -138 -163 -138zM319 697c54 0 90 30 90 78s-37 78 -91 78c-52 0 -90 -29 -90 -78c0 -48 38 -78 91 -78zM240 -14c-114 0 -177 59 -177 143c0 41 16 76 42 102c42 42 135 80 339 90v23
c0 75 -42 117 -128 117c-73 0 -148 -29 -214 -79h-1v96c72 46 151 69 228 69c142 0 214 -75 214 -206v-341h-93l-2 81c-55 -59 -122 -95 -208 -95zM262 61c74 0 138 37 182 84v110c-151 -10 -225 -30 -261 -65c-16 -16 -22 -36 -22 -54c0 -47 40 -75 101 -75z" />
    <glyph glyph-name="aring.sc" horiz-adv-x="748" 
d="M374 672c-99 0 -160 52 -160 137s61 140 161 140s162 -53 162 -139c0 -84 -63 -138 -163 -138zM375 732c54 0 90 30 90 78s-37 78 -91 78c-52 0 -90 -29 -90 -78c0 -48 38 -78 91 -78zM51 0l224 582h199l223 -582h-104l-53 140h-333l-52 -140h-104zM344 496l-106 -272
h270l-105 272h-59z" />
    <glyph glyph-name="Aringacute" unicode="&#x1fa;" horiz-adv-x="838" 
d="M374 1137l125 164h132v-5l-163 -159h-94zM419 790c-99 0 -160 52 -160 137s61 140 161 140s162 -53 162 -139c0 -84 -63 -138 -163 -138zM420 850c54 0 90 30 90 78s-37 78 -91 78c-52 0 -90 -29 -90 -78c0 -48 38 -78 91 -78zM47 0l282 700h181l281 -700h-109l-76 189
h-376l-76 -189h-107zM396 602l-129 -321h302l-128 321h-45z" />
    <glyph glyph-name="aringacute" unicode="&#x1fb;" horiz-adv-x="630" 
d="M258 984l125 164h132v-5l-163 -159h-94zM318 637c-99 0 -160 52 -160 137s61 140 161 140s162 -53 162 -139c0 -84 -63 -138 -163 -138zM319 697c54 0 90 30 90 78s-37 78 -91 78c-52 0 -90 -29 -90 -78c0 -48 38 -78 91 -78zM240 -14c-114 0 -177 59 -177 143
c0 41 16 76 42 102c42 42 135 80 339 90v23c0 75 -42 117 -128 117c-73 0 -148 -29 -214 -79h-1v96c72 46 151 69 228 69c142 0 214 -75 214 -206v-341h-93l-2 81c-55 -59 -122 -95 -208 -95zM262 61c74 0 138 37 182 84v110c-151 -10 -225 -30 -261 -65
c-16 -16 -22 -36 -22 -54c0 -47 40 -75 101 -75z" />
    <glyph glyph-name="aringacute.sc" horiz-adv-x="748" 
d="M315 1019l125 164h132v-5l-163 -159h-94zM374 672c-99 0 -160 52 -160 137s61 140 161 140s162 -53 162 -139c0 -84 -63 -138 -163 -138zM375 732c54 0 90 30 90 78s-37 78 -91 78c-52 0 -90 -29 -90 -78c0 -48 38 -78 91 -78zM51 0l224 582h199l223 -582h-104l-53 140
h-333l-52 -140h-104zM344 496l-106 -272h270l-105 272h-59z" />
    <glyph glyph-name="Atilde" unicode="&#xc3;" horiz-adv-x="838" 
d="M337 928c34 0 54 -9 97 -33c38 -21 50 -28 70 -28c33 0 59 21 98 73h1v-97c-26 -33 -59 -55 -100 -55c-34 0 -53 9 -96 33c-39 22 -51 28 -71 28c-32 0 -59 -21 -97 -73h-1v97c25 33 58 55 99 55zM47 0l282 700h181l281 -700h-109l-76 189h-376l-76 -189h-107zM396 602
l-129 -321h302l-128 321h-45z" />
    <glyph glyph-name="atilde" unicode="&#xe3;" horiz-adv-x="630" 
d="M234 775c34 0 54 -9 97 -33c38 -21 50 -28 70 -28c33 0 59 21 98 73h1v-97c-26 -33 -59 -55 -100 -55c-34 0 -53 9 -96 33c-39 22 -51 28 -71 28c-32 0 -59 -21 -97 -73h-1v97c25 33 58 55 99 55zM240 -14c-114 0 -177 59 -177 143c0 41 16 76 42 102
c42 42 135 80 339 90v23c0 75 -42 117 -128 117c-73 0 -148 -29 -214 -79h-1v96c72 46 151 69 228 69c142 0 214 -75 214 -206v-341h-93l-2 81c-55 -59 -122 -95 -208 -95zM262 61c74 0 138 37 182 84v110c-151 -10 -225 -30 -261 -65c-16 -16 -22 -36 -22 -54
c0 -47 40 -75 101 -75z" />
    <glyph glyph-name="atilde.sc" horiz-adv-x="748" 
d="M292 810c34 0 54 -9 97 -33c38 -21 50 -28 70 -28c33 0 59 21 98 73h1v-97c-26 -33 -59 -55 -100 -55c-34 0 -53 9 -96 33c-39 22 -51 28 -71 28c-32 0 -59 -21 -97 -73h-1v97c25 33 58 55 99 55zM51 0l224 582h199l223 -582h-104l-53 140h-333l-52 -140h-104zM344 496
l-106 -272h270l-105 272h-59z" />
    <glyph glyph-name="Cacute" unicode="&#x106;" horiz-adv-x="796" 
d="M374 812l125 164h132v-5l-163 -159h-94zM447 -14c-254 0 -377 161 -377 362c0 199 140 366 388 366c114 0 204 -42 262 -86v-107h-1c-73 51 -152 99 -263 99c-173 0 -279 -116 -279 -272c0 -155 99 -268 277 -268c109 0 193 42 265 97h1v-108c-56 -42 -152 -83 -273 -83z
" />
    <glyph glyph-name="cacute" unicode="&#x107;" horiz-adv-x="606" 
d="M272 644l125 164h132v-5l-163 -159h-94zM350 -14c-172 0 -292 106 -292 276c0 162 124 285 296 285c74 0 136 -21 187 -58v-96h-1c-61 46 -121 67 -182 67c-119 0 -200 -82 -200 -195c0 -118 81 -192 198 -192c65 0 123 21 184 67h1v-97c-54 -37 -119 -57 -191 -57z" />
    <glyph glyph-name="cacute.sc" horiz-adv-x="711" 
d="M322 692l125 164h132v-5l-163 -159h-94zM397 -14c-218 0 -324 135 -324 305c0 168 121 304 331 304c100 0 178 -33 230 -74v-98h-1c-67 50 -143 84 -230 84c-138 0 -227 -94 -227 -216c0 -124 75 -216 227 -216c90 0 166 35 230 83h1v-100c-46 -34 -131 -72 -237 -72z
" />
    <glyph glyph-name="Ccaron" unicode="&#x10c;" horiz-adv-x="796" 
d="M652 986l-138 -174h-140l-138 174h104l85 -106h38l85 106h104zM447 -14c-254 0 -377 161 -377 362c0 199 140 366 388 366c114 0 204 -42 262 -86v-107h-1c-73 51 -152 99 -263 99c-173 0 -279 -116 -279 -272c0 -155 99 -268 277 -268c109 0 193 42 265 97h1v-108
c-56 -42 -152 -83 -273 -83z" />
    <glyph glyph-name="ccaron" unicode="&#x10d;" horiz-adv-x="606" 
d="M550 818l-138 -174h-140l-138 174h104l85 -106h38l85 106h104zM350 -14c-172 0 -292 106 -292 276c0 162 124 285 296 285c74 0 136 -21 187 -58v-96h-1c-61 46 -121 67 -182 67c-119 0 -200 -82 -200 -195c0 -118 81 -192 198 -192c65 0 123 21 184 67h1v-97
c-54 -37 -119 -57 -191 -57z" />
    <glyph glyph-name="ccaron.sc" horiz-adv-x="711" 
d="M600 866l-138 -174h-140l-138 174h104l85 -106h38l85 106h104zM397 -14c-218 0 -324 135 -324 305c0 168 121 304 331 304c100 0 178 -33 230 -74v-98h-1c-67 50 -143 84 -230 84c-138 0 -227 -94 -227 -216c0 -124 75 -216 227 -216c90 0 166 35 230 83h1v-100
c-46 -34 -131 -72 -237 -72z" />
    <glyph glyph-name="Ccedilla" unicode="&#xc7;" horiz-adv-x="796" 
d="M258 -191v5l143 174c-223 18 -331 171 -331 360c0 199 140 366 388 366c114 0 204 -42 262 -86v-107h-1c-73 51 -152 99 -263 99c-173 0 -279 -116 -279 -272c0 -155 99 -268 277 -268c109 0 193 42 265 97h1v-108c-49 -37 -129 -73 -230 -81l-104 -179h-128z" />
    <glyph glyph-name="ccedilla" unicode="&#xe7;" horiz-adv-x="606" 
d="M159 -191v5l144 175c-146 17 -245 119 -245 273c0 162 124 285 296 285c74 0 136 -21 187 -58v-96h-1c-61 46 -121 67 -182 67c-119 0 -200 -82 -200 -195c0 -118 81 -192 198 -192c65 0 123 21 184 67h1v-97c-43 -30 -94 -48 -149 -55l-105 -179h-128z" />
    <glyph glyph-name="ccedilla.sc" horiz-adv-x="711" 
d="M220 -191v5l143 173c-195 14 -290 143 -290 304c0 168 121 304 331 304c100 0 178 -33 230 -74v-98h-1c-67 50 -143 84 -230 84c-138 0 -227 -94 -227 -216c0 -124 75 -216 227 -216c90 0 166 35 230 83h1v-100c-38 -28 -101 -58 -181 -68l-105 -181h-128z" />
    <glyph glyph-name="Cdotaccent" unicode="&#x10a;" horiz-adv-x="796" 
d="M444 809c-42 0 -68 29 -68 62v1c0 33 26 61 68 61c43 0 68 -28 68 -61v-1c0 -33 -25 -62 -68 -62zM447 -14c-254 0 -377 161 -377 362c0 199 140 366 388 366c114 0 204 -42 262 -86v-107h-1c-73 51 -152 99 -263 99c-173 0 -279 -116 -279 -272c0 -155 99 -268 277 -268
c109 0 193 42 265 97h1v-108c-56 -42 -152 -83 -273 -83z" />
    <glyph glyph-name="cdotaccent" unicode="&#x10b;" horiz-adv-x="606" 
d="M341 641c-42 0 -68 29 -68 62v1c0 33 26 61 68 61c43 0 68 -28 68 -61v-1c0 -33 -25 -62 -68 -62zM350 -14c-172 0 -292 106 -292 276c0 162 124 285 296 285c74 0 136 -21 187 -58v-96h-1c-61 46 -121 67 -182 67c-119 0 -200 -82 -200 -195c0 -118 81 -192 198 -192
c65 0 123 21 184 67h1v-97c-54 -37 -119 -57 -191 -57z" />
    <glyph glyph-name="cdotaccent.sc" horiz-adv-x="711" 
d="M392 689c-42 0 -68 29 -68 62v1c0 33 26 61 68 61c43 0 68 -28 68 -61v-1c0 -33 -25 -62 -68 -62zM397 -14c-218 0 -324 135 -324 305c0 168 121 304 331 304c100 0 178 -33 230 -74v-98h-1c-67 50 -143 84 -230 84c-138 0 -227 -94 -227 -216c0 -124 75 -216 227 -216
c90 0 166 35 230 83h1v-100c-46 -34 -131 -72 -237 -72z" />
    <glyph glyph-name="Dcaron" unicode="&#x10e;" horiz-adv-x="865" 
d="M631 972l-138 -174h-140l-138 174h104l85 -106h38l85 106h104zM117 0v700h324c224 0 352 -131 352 -349c0 -217 -128 -351 -352 -351h-324zM221 94h219c158 0 246 87 246 255s-88 257 -246 257h-219v-512z" />
    <glyph glyph-name="dcaron" unicode="&#x10f;" horiz-adv-x="695" 
d="M698 577v174h106v-10l-48 -164h-58zM600 750v-750h-97l-1 77c-41 -47 -108 -92 -197 -92c-136 0 -247 99 -247 274c0 164 122 288 285 288c67 0 115 -19 157 -46v249h100zM351 462c-117 0 -193 -84 -193 -198c0 -130 79 -194 178 -194c65 0 127 33 164 74v258
c-41 37 -86 60 -149 60z" />
    <glyph glyph-name="dcaron.sc" horiz-adv-x="774" 
d="M586 854l-138 -174h-140l-138 174h104l85 -106h38l85 106h104zM118 0v582h276c197 0 307 -110 307 -290s-110 -292 -307 -292h-276zM218 87h166c145 0 214 71 214 203s-69 206 -213 206h-167v-409z" />
    <glyph glyph-name="Dcroat" unicode="&#x110;" horiz-adv-x="893" 
d="M145 0v310h-108l7 81h101v309h325c224 0 352 -131 352 -349c0 -217 -128 -351 -352 -351h-325zM250 94h219c158 0 246 87 246 255s-88 257 -246 257h-219v-215h230v-81h-230v-216z" />
    <glyph glyph-name="dcroat" unicode="&#x111;" horiz-adv-x="704" 
d="M697 594h-97v-594h-97l-1 77c-42 -48 -107 -92 -196 -92c-143 0 -248 101 -248 256c0 158 124 275 288 275c63 0 112 -17 154 -44v122h-191v67h191v89h100v-89h93zM353 431c-118 0 -195 -78 -195 -185c0 -108 72 -176 180 -176c66 0 123 33 162 73v232
c-42 37 -91 56 -147 56z" />
    <glyph glyph-name="dcroat.sc" horiz-adv-x="802" 
d="M146 0v257h-100l7 75h93v250h276c196 0 306 -110 306 -290s-110 -292 -306 -292h-276zM246 87h166c145 0 214 71 214 203s-69 206 -214 206h-166v-164h179v-75h-179v-170z" />
    <glyph glyph-name="Eth" unicode="&#xd0;" horiz-adv-x="893" 
d="M145 0v310h-108l7 81h101v309h325c224 0 352 -131 352 -349c0 -217 -128 -351 -352 -351h-325zM250 94h219c158 0 246 87 246 255s-88 257 -246 257h-219v-215h230v-81h-230v-216z" />
    <glyph glyph-name="eth" unicode="&#xf0;" horiz-adv-x="669" 
d="M330 -15c-161 0 -275 100 -275 253c0 169 130 259 265 259c83 0 147 -35 189 -88c-22 76 -58 140 -121 201l-175 -63v66l120 44c-38 29 -83 58 -136 87v6h127c34 -18 66 -38 96 -62l173 63v-67l-121 -44c85 -87 139 -203 139 -339c0 -200 -116 -316 -281 -316zM155 241
c0 -108 78 -171 176 -171c118 0 183 92 183 222c0 11 -1 24 -2 36c-34 57 -104 91 -176 91c-94 0 -181 -57 -181 -178z" />
    <glyph glyph-name="eth.sc" horiz-adv-x="802" 
d="M146 0v257h-100l7 75h93v250h276c196 0 306 -110 306 -290s-110 -292 -306 -292h-276zM246 87h166c145 0 214 71 214 203s-69 206 -214 206h-166v-164h179v-75h-179v-170z" />
    <glyph glyph-name="Eacute" unicode="&#xc9;" horiz-adv-x="771" 
d="M337 798l125 164h132v-5l-163 -159h-94zM117 0v700h567l4 -94h-468v-197h385v-94h-385v-221h485l-5 -94h-583z" />
    <glyph glyph-name="eacute" unicode="&#xe9;" horiz-adv-x="645" 
d="M268 645l125 164h132v-5l-163 -159h-94zM336 547c176 0 253 -125 253 -273c0 -10 -1 -21 -2 -31h-431c7 -108 78 -173 200 -173c77 0 141 23 204 63h1v-90c-50 -31 -124 -57 -209 -57c-195 0 -294 114 -294 269c0 167 110 292 278 292zM334 465c-92 0 -157 -60 -174 -154
h334c-6 84 -56 154 -160 154z" />
    <glyph glyph-name="eacute.sc" horiz-adv-x="697" 
d="M298 680l125 164h132v-5l-163 -159h-94zM118 0v582h492l4 -85h-396v-160h321v-83h-321v-168h411l-4 -86h-507z" />
    <glyph glyph-name="Ebreve" unicode="&#x114;" horiz-adv-x="771" 
d="M407 790c-108 0 -181 48 -181 143c0 15 2 30 6 46h81c-3 -13 -4 -23 -4 -32c0 -65 48 -83 98 -83s97 18 97 82c0 10 -1 20 -3 33h81c3 -16 5 -32 5 -47c0 -94 -72 -142 -180 -142zM117 0v700h567l4 -94h-468v-197h385v-94h-385v-221h485l-5 -94h-583z" />
    <glyph glyph-name="ebreve" unicode="&#x115;" horiz-adv-x="645" 
d="M338 637c-108 0 -181 48 -181 143c0 15 2 30 6 46h81c-3 -13 -4 -23 -4 -32c0 -65 48 -83 98 -83s97 18 97 82c0 10 -1 20 -3 33h81c3 -16 5 -32 5 -47c0 -94 -72 -142 -180 -142zM336 547c176 0 253 -125 253 -273c0 -10 -1 -21 -2 -31h-431c7 -108 78 -173 200 -173
c77 0 141 23 204 63h1v-90c-50 -31 -124 -57 -209 -57c-195 0 -294 114 -294 269c0 167 110 292 278 292zM334 465c-92 0 -157 -60 -174 -154h334c-6 84 -56 154 -160 154z" />
    <glyph glyph-name="ebreve.sc" horiz-adv-x="697" 
d="M368 672c-108 0 -181 48 -181 143c0 15 2 30 6 46h81c-3 -13 -4 -23 -4 -32c0 -65 48 -83 98 -83s97 18 97 82c0 10 -1 20 -3 33h81c3 -16 5 -32 5 -47c0 -94 -72 -142 -180 -142zM118 0v582h492l4 -85h-396v-160h321v-83h-321v-168h411l-4 -86h-507z" />
    <glyph glyph-name="Ecaron" unicode="&#x11a;" horiz-adv-x="771" 
d="M615 972l-138 -174h-140l-138 174h104l85 -106h38l85 106h104zM117 0v700h567l4 -94h-468v-197h385v-94h-385v-221h485l-5 -94h-583z" />
    <glyph glyph-name="ecaron" unicode="&#x11b;" horiz-adv-x="645" 
d="M546 819l-138 -174h-140l-138 174h104l85 -106h38l85 106h104zM336 547c176 0 253 -125 253 -273c0 -10 -1 -21 -2 -31h-431c7 -108 78 -173 200 -173c77 0 141 23 204 63h1v-90c-50 -31 -124 -57 -209 -57c-195 0 -294 114 -294 269c0 167 110 292 278 292zM334 465
c-92 0 -157 -60 -174 -154h334c-6 84 -56 154 -160 154z" />
    <glyph glyph-name="ecaron.sc" horiz-adv-x="697" 
d="M576 854l-138 -174h-140l-138 174h104l85 -106h38l85 106h104zM118 0v582h492l4 -85h-396v-160h321v-83h-321v-168h411l-4 -86h-507z" />
    <glyph glyph-name="Ecircumflex" unicode="&#xca;" horiz-adv-x="771" 
d="M199 798l138 174h140l138 -174h-104l-85 105h-38l-85 -105h-104zM117 0v700h567l4 -94h-468v-197h385v-94h-385v-221h485l-5 -94h-583z" />
    <glyph glyph-name="ecircumflex" unicode="&#xea;" horiz-adv-x="645" 
d="M130 645l138 174h140l138 -174h-104l-85 105h-38l-85 -105h-104zM336 547c176 0 253 -125 253 -273c0 -10 -1 -21 -2 -31h-431c7 -108 78 -173 200 -173c77 0 141 23 204 63h1v-90c-50 -31 -124 -57 -209 -57c-195 0 -294 114 -294 269c0 167 110 292 278 292zM334 465
c-92 0 -157 -60 -174 -154h334c-6 84 -56 154 -160 154z" />
    <glyph glyph-name="ecircumflex.sc" horiz-adv-x="697" 
d="M160 680l138 174h140l138 -174h-104l-85 105h-38l-85 -105h-104zM118 0v582h492l4 -85h-396v-160h321v-83h-321v-168h411l-4 -86h-507z" />
    <glyph glyph-name="Edieresis" unicode="&#xcb;" horiz-adv-x="771" 
d="M280 795c-40 0 -64 28 -64 59c0 32 24 59 63 59c41 0 65 -27 65 -59c0 -31 -24 -59 -64 -59zM535 795c-40 0 -64 28 -64 59c0 32 24 59 63 59c41 0 65 -27 65 -59c0 -31 -24 -59 -64 -59zM117 0v700h567l4 -94h-468v-197h385v-94h-385v-221h485l-5 -94h-583z" />
    <glyph glyph-name="edieresis" unicode="&#xeb;" horiz-adv-x="645" 
d="M211 642c-40 0 -64 28 -64 59c0 32 24 59 63 59c41 0 65 -27 65 -59c0 -31 -24 -59 -64 -59zM466 642c-40 0 -64 28 -64 59c0 32 24 59 63 59c41 0 65 -27 65 -59c0 -31 -24 -59 -64 -59zM336 547c176 0 253 -125 253 -273c0 -10 -1 -21 -2 -31h-431
c7 -108 78 -173 200 -173c77 0 141 23 204 63h1v-90c-50 -31 -124 -57 -209 -57c-195 0 -294 114 -294 269c0 167 110 292 278 292zM334 465c-92 0 -157 -60 -174 -154h334c-6 84 -56 154 -160 154z" />
    <glyph glyph-name="edieresis.sc" horiz-adv-x="697" 
d="M241 677c-40 0 -64 28 -64 59c0 32 24 59 63 59c41 0 65 -27 65 -59c0 -31 -24 -59 -64 -59zM496 677c-40 0 -64 28 -64 59c0 32 24 59 63 59c41 0 65 -27 65 -59c0 -31 -24 -59 -64 -59zM118 0v582h492l4 -85h-396v-160h321v-83h-321v-168h411l-4 -86h-507z" />
    <glyph glyph-name="Edotaccent" unicode="&#x116;" horiz-adv-x="771" 
d="M406 795c-42 0 -68 29 -68 62v1c0 33 26 61 68 61c43 0 68 -28 68 -61v-1c0 -33 -25 -62 -68 -62zM117 0v700h567l4 -94h-468v-197h385v-94h-385v-221h485l-5 -94h-583z" />
    <glyph glyph-name="edotaccent" unicode="&#x117;" horiz-adv-x="645" 
d="M338 642c-42 0 -68 29 -68 62v1c0 33 26 61 68 61c43 0 68 -28 68 -61v-1c0 -33 -25 -62 -68 -62zM336 547c176 0 253 -125 253 -273c0 -10 -1 -21 -2 -31h-431c7 -108 78 -173 200 -173c77 0 141 23 204 63h1v-90c-50 -31 -124 -57 -209 -57c-195 0 -294 114 -294 269
c0 167 110 292 278 292zM334 465c-92 0 -157 -60 -174 -154h334c-6 84 -56 154 -160 154z" />
    <glyph glyph-name="edotaccent.sc" horiz-adv-x="697" 
d="M368 677c-42 0 -68 29 -68 62v1c0 33 26 61 68 61c43 0 68 -28 68 -61v-1c0 -33 -25 -62 -68 -62zM118 0v582h492l4 -85h-396v-160h321v-83h-321v-168h411l-4 -86h-507z" />
    <glyph glyph-name="Egrave" unicode="&#xc8;" horiz-adv-x="771" 
d="M477 798h-94l-163 159v5h132zM117 0v700h567l4 -94h-468v-197h385v-94h-385v-221h485l-5 -94h-583z" />
    <glyph glyph-name="egrave" unicode="&#xe8;" horiz-adv-x="645" 
d="M408 645h-94l-163 159v5h132zM336 547c176 0 253 -125 253 -273c0 -10 -1 -21 -2 -31h-431c7 -108 78 -173 200 -173c77 0 141 23 204 63h1v-90c-50 -31 -124 -57 -209 -57c-195 0 -294 114 -294 269c0 167 110 292 278 292zM334 465c-92 0 -157 -60 -174 -154h334
c-6 84 -56 154 -160 154z" />
    <glyph glyph-name="egrave.sc" horiz-adv-x="697" 
d="M438 680h-94l-163 159v5h132zM118 0v582h492l4 -85h-396v-160h321v-83h-321v-168h411l-4 -86h-507z" />
    <glyph glyph-name="Emacron" unicode="&#x112;" horiz-adv-x="771" 
d="M223 814v77h368v-77h-368zM117 0v700h567l4 -94h-468v-197h385v-94h-385v-221h485l-5 -94h-583z" />
    <glyph glyph-name="emacron" unicode="&#x113;" horiz-adv-x="645" 
d="M154 661v77h368v-77h-368zM336 547c176 0 253 -125 253 -273c0 -10 -1 -21 -2 -31h-431c7 -108 78 -173 200 -173c77 0 141 23 204 63h1v-90c-50 -31 -124 -57 -209 -57c-195 0 -294 114 -294 269c0 167 110 292 278 292zM334 465c-92 0 -157 -60 -174 -154h334
c-6 84 -56 154 -160 154z" />
    <glyph glyph-name="emacron.sc" horiz-adv-x="697" 
d="M184 696v77h368v-77h-368zM118 0v582h492l4 -85h-396v-160h321v-83h-321v-168h411l-4 -86h-507z" />
    <glyph glyph-name="Eogonek" unicode="&#x118;" horiz-adv-x="771" 
d="M117 0v700h567l4 -94h-468v-197h385v-94h-385v-221h485l-5 -93l1 -1l-56 -55c-56 -55 -76 -80 -76 -108c0 -34 29 -51 74 -51c26 0 56 7 87 23v-77c-34 -14 -65 -21 -106 -21c-112 0 -147 55 -147 109c0 53 35 99 105 162l20 18h-485z" />
    <glyph glyph-name="eogonek" unicode="&#x119;" horiz-adv-x="645" 
d="M352 -14c-195 0 -294 114 -294 269c0 167 110 292 278 292c176 0 253 -125 253 -273c0 -10 -1 -21 -2 -31h-431c7 -108 78 -173 200 -173c77 0 141 23 204 63h1v-90l-35 -43c-87 -93 -114 -130 -114 -173c0 -34 28 -51 74 -51c26 0 56 7 86 23v-77
c-34 -14 -64 -21 -105 -21c-113 0 -147 55 -147 109c0 64 48 116 121 186c-28 -6 -58 -10 -89 -10zM334 465c-92 0 -157 -60 -174 -154h334c-6 84 -56 154 -160 154z" />
    <glyph glyph-name="eogonek.sc" horiz-adv-x="697" 
d="M118 0v582h492l4 -85h-396v-160h321v-83h-321v-168h411l-4 -86l-56 -55c-56 -55 -76 -80 -76 -108c0 -34 29 -51 74 -51c26 0 56 7 87 23v-77c-34 -14 -65 -21 -106 -21c-112 0 -147 55 -147 109c0 53 35 99 105 162l20 18h-408z" />
    <glyph glyph-name="Gbreve" unicode="&#x11e;" horiz-adv-x="871" 
d="M438 804c-108 0 -181 48 -181 143c0 15 2 30 6 46h81c-3 -13 -4 -23 -4 -32c0 -65 48 -83 98 -83s97 18 97 82c0 10 -1 20 -3 33h81c3 -16 5 -32 5 -47c0 -94 -72 -142 -180 -142zM446 -18c-235 0 -376 152 -376 358s147 374 393 374c105 0 206 -33 269 -84v-107h-1
c-74 57 -162 97 -269 97c-178 0 -285 -116 -285 -278c0 -155 100 -266 274 -266c151 0 251 82 256 220h-289v88h393c1 -12 1 -25 1 -46c-1 -244 -167 -356 -366 -356z" />
    <glyph glyph-name="gbreve" unicode="&#x11f;" horiz-adv-x="609" 
d="M294 637c-108 0 -181 48 -181 143c0 15 2 30 6 46h81c-3 -13 -4 -23 -4 -32c0 -65 48 -83 98 -83s97 18 97 82c0 10 -1 20 -3 33h81c3 -16 5 -32 5 -47c0 -94 -72 -142 -180 -142zM306 175c-19 0 -38 1 -55 4l-15 -80c241 -17 356 -63 356 -156c0 -74 -87 -149 -279 -149
c-177 0 -275 53 -275 135c0 46 32 93 116 129l29 138c-76 32 -111 93 -111 160c0 100 79 191 238 191c36 0 66 -5 92 -14l63 93h110v-1l-108 -124c48 -31 75 -83 75 -139c0 -100 -80 -187 -236 -187zM307 247c82 0 141 43 141 116c0 68 -57 112 -138 112
c-85 0 -143 -46 -143 -116c0 -71 57 -112 140 -112zM321 -135c108 0 179 30 179 72c0 51 -110 79 -310 89c-49 -24 -68 -49 -68 -78c0 -55 89 -83 199 -83z" />
    <glyph glyph-name="gbreve.sc" horiz-adv-x="772" 
d="M388 684c-108 0 -181 48 -181 143c0 15 2 30 6 46h81c-3 -13 -4 -23 -4 -32c0 -65 48 -83 98 -83s97 18 97 82c0 10 -1 20 -3 33h81c3 -16 5 -32 5 -47c0 -94 -72 -142 -180 -142zM398 -16c-213 0 -325 132 -325 301c0 173 124 310 335 310c102 0 184 -33 236 -74v-99h-1
c-60 44 -138 84 -238 84c-140 0 -229 -92 -229 -220c0 -125 77 -215 228 -215c127 0 203 70 204 172h-237v82h334c1 -11 1 -32 1 -44c0 -209 -142 -297 -308 -297z" />
    <glyph glyph-name="uni0122" unicode="&#x122;" horiz-adv-x="871" 
d="M446 -18c-235 0 -376 152 -376 358s147 374 393 374c105 0 206 -33 269 -84v-107h-1c-74 57 -162 97 -269 97c-178 0 -285 -116 -285 -278c0 -155 100 -266 274 -266c151 0 251 82 256 220h-289v88h393c1 -12 1 -25 1 -46c-1 -244 -167 -356 -366 -356zM335 -329l69 205
h116v-9l-122 -196h-63z" />
    <glyph glyph-name="uni0123" unicode="&#x123;" horiz-adv-x="609" 
d="M421 847l-69 -205h-116v9l122 196h63zM306 175c-19 0 -38 1 -55 4l-15 -80c241 -17 356 -63 356 -156c0 -74 -87 -149 -279 -149c-177 0 -275 53 -275 135c0 46 32 93 116 129l29 138c-76 32 -111 93 -111 160c0 100 79 191 238 191c36 0 66 -5 92 -14l63 93h110v-1
l-108 -124c48 -31 75 -83 75 -139c0 -100 -80 -187 -236 -187zM307 247c82 0 141 43 141 116c0 68 -57 112 -138 112c-85 0 -143 -46 -143 -116c0 -71 57 -112 140 -112zM321 -135c108 0 179 30 179 72c0 51 -110 79 -310 89c-49 -24 -68 -49 -68 -78c0 -55 89 -83 199 -83z
" />
    <glyph glyph-name="uni0123.sc" horiz-adv-x="772" 
d="M398 -16c-213 0 -325 132 -325 301c0 173 124 310 335 310c102 0 184 -33 236 -74v-99h-1c-60 44 -138 84 -238 84c-140 0 -229 -92 -229 -220c0 -125 77 -215 228 -215c127 0 203 70 204 172h-237v82h334c1 -11 1 -32 1 -44c0 -209 -142 -297 -308 -297zM278 -327
l69 205h116v-9l-122 -196h-63z" />
    <glyph glyph-name="Gdotaccent" unicode="&#x120;" horiz-adv-x="871" 
d="M438 809c-42 0 -68 29 -68 62v1c0 33 26 61 68 61c43 0 68 -28 68 -61v-1c0 -33 -25 -62 -68 -62zM446 -18c-235 0 -376 152 -376 358s147 374 393 374c105 0 206 -33 269 -84v-107h-1c-74 57 -162 97 -269 97c-178 0 -285 -116 -285 -278c0 -155 100 -266 274 -266
c151 0 251 82 256 220h-289v88h393c1 -12 1 -25 1 -46c-1 -244 -167 -356 -366 -356z" />
    <glyph glyph-name="gdotaccent" unicode="&#x121;" horiz-adv-x="609" 
d="M294 642c-42 0 -68 29 -68 62v1c0 33 26 61 68 61c43 0 68 -28 68 -61v-1c0 -33 -25 -62 -68 -62zM306 175c-19 0 -38 1 -55 4l-15 -80c241 -17 356 -63 356 -156c0 -74 -87 -149 -279 -149c-177 0 -275 53 -275 135c0 46 32 93 116 129l29 138c-76 32 -111 93 -111 160
c0 100 79 191 238 191c36 0 66 -5 92 -14l63 93h110v-1l-108 -124c48 -31 75 -83 75 -139c0 -100 -80 -187 -236 -187zM307 247c82 0 141 43 141 116c0 68 -57 112 -138 112c-85 0 -143 -46 -143 -116c0 -71 57 -112 140 -112zM321 -135c108 0 179 30 179 72
c0 51 -110 79 -310 89c-49 -24 -68 -49 -68 -78c0 -55 89 -83 199 -83z" />
    <glyph glyph-name="gdotaccent.sc" horiz-adv-x="772" 
d="M388 689c-42 0 -68 29 -68 62v1c0 33 26 61 68 61c43 0 68 -28 68 -61v-1c0 -33 -25 -62 -68 -62zM398 -16c-213 0 -325 132 -325 301c0 173 124 310 335 310c102 0 184 -33 236 -74v-99h-1c-60 44 -138 84 -238 84c-140 0 -229 -92 -229 -220c0 -125 77 -215 228 -215
c127 0 203 70 204 172h-237v82h334c1 -11 1 -32 1 -44c0 -209 -142 -297 -308 -297z" />
    <glyph glyph-name="Hbar" unicode="&#x126;" horiz-adv-x="933" 
d="M145 0v506h-108l4 80h104v114h105v-116h433v116h104v-114h105l4 -80h-109v-506h-104v281h-433v-281h-105zM250 378h433v131h-433v-131z" />
    <glyph glyph-name="hbar" unicode="&#x127;" horiz-adv-x="688" 
d="M104 0v594h-97l4 67h93v89h98v-89h191v-67h-191v-190c54 60 118 114 212 114c112 0 185 -63 185 -199v-319h-100v298c0 98 -48 132 -118 132c-74 0 -130 -47 -178 -99v-331h-99z" />
    <glyph glyph-name="hbar.sc" horiz-adv-x="855" 
d="M146 0v415h-100l4 75h96v92h100v-96h364v96h100v-92h96l4 -75h-100v-415h-100v225h-364v-225h-100zM246 312h364v107h-364v-107z" />
    <glyph glyph-name="Iacute" unicode="&#xcd;" horiz-adv-x="344" 
d="M126 798l125 164h132v-5l-163 -159h-94zM120 0v700h104v-700h-104z" />
    <glyph glyph-name="iacute" unicode="&#xed;" horiz-adv-x="295" 
d="M102 630l125 164h132v-5l-163 -159h-94zM98 0v532h99v-532h-99z" />
    <glyph glyph-name="iacute.sc" horiz-adv-x="343" 
d="M125 680l125 164h132v-5l-163 -159h-94zM121 0v582h100v-582h-100z" />
    <glyph glyph-name="Ibreve" unicode="&#x12c;" horiz-adv-x="344" 
d="M172 790c-108 0 -181 48 -181 143c0 15 2 30 6 46h81c-3 -13 -4 -23 -4 -32c0 -65 48 -83 98 -83s97 18 97 82c0 10 -1 20 -3 33h81c3 -16 5 -32 5 -47c0 -94 -72 -142 -180 -142zM120 0v700h104v-700h-104z" />
    <glyph glyph-name="ibreve" unicode="&#x12d;" horiz-adv-x="295" 
d="M148 622c-108 0 -181 48 -181 143c0 15 2 30 6 46h81c-3 -13 -4 -23 -4 -32c0 -65 48 -83 98 -83s97 18 97 82c0 10 -1 20 -3 33h81c3 -16 5 -32 5 -47c0 -94 -72 -142 -180 -142zM98 0v532h99v-532h-99z" />
    <glyph glyph-name="ibreve.sc" horiz-adv-x="343" 
d="M171 672c-108 0 -181 48 -181 143c0 15 2 30 6 46h81c-3 -13 -4 -23 -4 -32c0 -65 48 -83 98 -83s97 18 97 82c0 10 -1 20 -3 33h81c3 -16 5 -32 5 -47c0 -94 -72 -142 -180 -142zM121 0v582h100v-582h-100z" />
    <glyph glyph-name="Icircumflex" unicode="&#xce;" horiz-adv-x="344" 
d="M-36 798l138 174h140l138 -174h-104l-85 105h-38l-85 -105h-104zM120 0v700h104v-700h-104z" />
    <glyph glyph-name="icircumflex" unicode="&#xee;" horiz-adv-x="295" 
d="M-60 630l138 174h140l138 -174h-104l-85 105h-38l-85 -105h-104zM98 0v532h99v-532h-99z" />
    <glyph glyph-name="icircumflex.sc" horiz-adv-x="343" 
d="M-37 680l138 174h140l138 -174h-104l-85 105h-38l-85 -105h-104zM121 0v582h100v-582h-100z" />
    <glyph glyph-name="Idieresis" unicode="&#xcf;" horiz-adv-x="344" 
d="M45 795c-40 0 -64 28 -64 59c0 32 24 59 63 59c41 0 65 -27 65 -59c0 -31 -24 -59 -64 -59zM300 795c-40 0 -64 28 -64 59c0 32 24 59 63 59c41 0 65 -27 65 -59c0 -31 -24 -59 -64 -59zM120 0v700h104v-700h-104z" />
    <glyph glyph-name="idieresis" unicode="&#xef;" horiz-adv-x="295" 
d="M21 627c-40 0 -64 28 -64 59c0 32 24 59 63 59c41 0 65 -27 65 -59c0 -31 -24 -59 -64 -59zM276 627c-40 0 -64 28 -64 59c0 32 24 59 63 59c41 0 65 -27 65 -59c0 -31 -24 -59 -64 -59zM98 0v532h99v-532h-99z" />
    <glyph glyph-name="idieresis.sc" horiz-adv-x="343" 
d="M44 677c-40 0 -64 28 -64 59c0 32 24 59 63 59c41 0 65 -27 65 -59c0 -31 -24 -59 -64 -59zM299 677c-40 0 -64 28 -64 59c0 32 24 59 63 59c41 0 65 -27 65 -59c0 -31 -24 -59 -64 -59zM121 0v582h100v-582h-100z" />
    <glyph glyph-name="Idotaccent" unicode="&#x130;" horiz-adv-x="344" 
d="M172 795c-42 0 -68 29 -68 62v1c0 33 26 61 68 61c43 0 68 -28 68 -61v-1c0 -33 -25 -62 -68 -62zM120 0v700h104v-700h-104z" />
    <glyph glyph-name="idotaccent.sc" horiz-adv-x="343" 
d="M171 677c-42 0 -68 29 -68 62v1c0 33 26 61 68 61c43 0 68 -28 68 -61v-1c0 -33 -25 -62 -68 -62zM121 0v582h100v-582h-100z" />
    <glyph glyph-name="dotlessi" unicode="&#x131;" horiz-adv-x="295" 
d="M98 0v532h99v-532h-99z" />
    <glyph glyph-name="dotlessi.sc" horiz-adv-x="343" 
d="M121 0v582h100v-582h-100z" />
    <glyph glyph-name="Igrave" unicode="&#xcc;" horiz-adv-x="344" 
d="M219 798h-94l-163 159v5h132zM120 0v700h104v-700h-104z" />
    <glyph glyph-name="igrave" unicode="&#xec;" horiz-adv-x="295" 
d="M195 630h-94l-163 159v5h132zM98 0v532h99v-532h-99z" />
    <glyph glyph-name="igrave.sc" horiz-adv-x="343" 
d="M218 680h-94l-163 159v5h132zM121 0v582h100v-582h-100z" />
    <glyph glyph-name="Imacron" unicode="&#x12a;" horiz-adv-x="344" 
d="M-12 814v77h368v-77h-368zM120 0v700h104v-700h-104z" />
    <glyph glyph-name="imacron" unicode="&#x12b;" horiz-adv-x="295" 
d="M-36 646v77h368v-77h-368zM98 0v532h99v-532h-99z" />
    <glyph glyph-name="imacron.sc" horiz-adv-x="343" 
d="M-13 696v77h368v-77h-368zM121 0v582h100v-582h-100z" />
    <glyph glyph-name="Iogonek" unicode="&#x12e;" horiz-adv-x="344" 
d="M253 -268c-34 -14 -65 -21 -106 -21c-112 0 -147 55 -147 109c0 53 35 99 105 162l15 14v704h104v-700l-56 -55c-56 -55 -76 -80 -76 -108c0 -34 29 -51 74 -51c26 0 56 7 87 23v-77z" />
    <glyph glyph-name="iogonek" unicode="&#x12f;" horiz-adv-x="295" 
d="M148 627c-43 0 -68 29 -68 62v1c0 33 25 61 67 61c43 0 69 -28 69 -61v-1c0 -33 -26 -62 -68 -62zM227 -268c-34 -14 -65 -21 -106 -21c-112 0 -147 55 -147 109c0 53 35 99 105 162l19 17v533h99v-531l1 -1l-56 -55c-56 -55 -76 -80 -76 -108c0 -34 29 -51 74 -51
c26 0 56 7 87 23v-77z" />
    <glyph glyph-name="iogonek.sc" horiz-adv-x="343" 
d="M251 -268c-34 -14 -65 -21 -106 -21c-112 0 -147 55 -147 109c0 53 35 99 105 162l18 17v583h100v-581l1 -1l-56 -55c-56 -55 -76 -80 -76 -108c0 -34 29 -51 74 -51c26 0 56 7 87 23v-77z" />
    <glyph glyph-name="uni0136" unicode="&#x136;" horiz-adv-x="812" 
d="M117 0v700h104v-295h157l262 295h122v-1l-299 -337l318 -361v-1h-128l-278 311h-154v-311h-104zM288 -283l69 205h116v-9l-122 -196h-63z" />
    <glyph glyph-name="uni0137" unicode="&#x137;" horiz-adv-x="632" 
d="M95 0v750h100v-427h113l171 209h115l-203 -250l218 -281v-1h-118l-183 236h-113v-236h-100zM207 -288l69 205h116v-9l-122 -196h-63z" />
    <glyph glyph-name="uni0137.sc" horiz-adv-x="737" 
d="M118 0v582h100v-241h131l219 241h115l-255 -280l268 -301v-1h-121l-231 255h-126v-255h-100zM255 -287l69 205h116v-9l-122 -196h-63z" />
    <glyph glyph-name="Lacute" unicode="&#x139;" horiz-adv-x="698" 
d="M122 798l125 164h132v-5l-163 -159h-94zM117 0v700h104v-604h431l-4 -96h-531z" />
    <glyph glyph-name="lacute" unicode="&#x13a;" horiz-adv-x="295" 
d="M102 848l125 164h132v-5l-163 -159h-94zM98 0v750h99v-750h-99z" />
    <glyph glyph-name="lacute.sc" horiz-adv-x="628" 
d="M122 680l125 164h132v-5l-163 -159h-94zM118 0v582h100v-493h366l-4 -89h-462z" />
    <glyph glyph-name="Lcaron" unicode="&#x13d;" horiz-adv-x="698" 
d="M117 0v700h104v-604h431l-4 -96h-531zM340 526v174h106v-10l-48 -164h-58z" />
    <glyph glyph-name="lcaron" unicode="&#x13e;" horiz-adv-x="295" 
d="M295 577v174h106v-10l-48 -164h-58zM98 0v750h99v-750h-99z" />
    <glyph glyph-name="lcaron.sc" horiz-adv-x="628" 
d="M118 0v582h100v-493h366l-4 -89h-462zM331 408v174h106v-10l-48 -164h-58z" />
    <glyph glyph-name="uni013B" unicode="&#x13b;" horiz-adv-x="698" 
d="M117 0v700h104v-604h431l-4 -96h-531zM264 -311l69 205h116v-9l-122 -196h-63z" />
    <glyph glyph-name="uni013C" unicode="&#x13c;" horiz-adv-x="295" 
d="M98 0v750h99v-750h-99zM19 -311l69 205h116v-9l-122 -196h-63z" />
    <glyph glyph-name="uni013C.sc" horiz-adv-x="628" 
d="M118 0v582h100v-493h366l-4 -89h-462zM230 -311l69 205h116v-9l-122 -196h-63z" />
    <glyph glyph-name="Ldot" unicode="&#x13f;" horiz-adv-x="701" 
d="M117 0v700h104v-604h431l-4 -96h-531zM519 352c-42 0 -68 29 -68 62v1c0 33 26 62 68 62c43 0 68 -29 68 -62v-1c0 -33 -25 -62 -68 -62z" />
    <glyph glyph-name="ldot" unicode="&#x140;" horiz-adv-x="448" 
d="M98 0v750h99v-750h-99zM372 318c-43 0 -69 29 -69 62v1c0 33 26 62 68 62c43 0 68 -29 68 -62v-1c0 -33 -25 -62 -67 -62z" />
    <glyph glyph-name="ldot.sc" horiz-adv-x="633" 
d="M118 0v582h100v-493h366l-4 -89h-462zM485 286c-43 0 -68 29 -68 62v1c0 33 25 62 67 62c43 0 68 -29 68 -62v-1c0 -33 -25 -62 -67 -62z" />
    <glyph glyph-name="Lslash" unicode="&#x141;" horiz-adv-x="723" 
d="M139 0v242l-103 -56v97l103 56v361h104v-305l257 141v-96l-257 -142v-202h431l-4 -96h-531z" />
    <glyph glyph-name="lslash" unicode="&#x142;" horiz-adv-x="404" 
d="M152 0v308l-124 -77v80l124 78v361h100v-300l124 77v-80l-124 -78v-369h-100z" />
    <glyph glyph-name="lslash.sc" horiz-adv-x="662" 
d="M148 0v199l-100 -51v86l100 52v296h100v-244l221 115v-86l-221 -115v-163h366l-4 -89h-462z" />
    <glyph glyph-name="Nacute" unicode="&#x143;" horiz-adv-x="878" 
d="M387 769l125 164h132v-5l-163 -159h-94zM117 0v700h125l409 -546h9v546h102v-700h-119l-416 556h-8v-556h-102z" />
    <glyph glyph-name="nacute" unicode="&#x144;" horiz-adv-x="679" 
d="M277 645l125 164h132v-5l-163 -159h-94zM95 0v532h98v-99c54 60 118 114 212 114c112 0 185 -63 185 -199v-348h-99v328c0 97 -49 131 -119 131c-74 0 -130 -47 -177 -99v-360h-100z" />
    <glyph glyph-name="nacute.sc" horiz-adv-x="802" 
d="M343 655l125 164h132v-5l-163 -159h-94zM118 0v582h120l340 -440h9v440h97v-582h-113l-347 449h-8v-449h-98z" />
    <glyph glyph-name="Ncaron" unicode="&#x147;" horiz-adv-x="878" 
d="M665 943l-138 -174h-140l-138 174h104l85 -106h38l85 106h104zM117 0v700h125l409 -546h9v546h102v-700h-119l-416 556h-8v-556h-102z" />
    <glyph glyph-name="ncaron" unicode="&#x148;" horiz-adv-x="679" 
d="M555 819l-138 -174h-140l-138 174h104l85 -106h38l85 106h104zM95 0v532h98v-99c54 60 118 114 212 114c112 0 185 -63 185 -199v-348h-99v328c0 97 -49 131 -119 131c-74 0 -130 -47 -177 -99v-360h-100z" />
    <glyph glyph-name="ncaron.sc" horiz-adv-x="802" 
d="M621 829l-138 -174h-140l-138 174h104l85 -106h38l85 106h104zM118 0v582h120l340 -440h9v440h97v-582h-113l-347 449h-8v-449h-98z" />
    <glyph glyph-name="uni0145" unicode="&#x145;" horiz-adv-x="878" 
d="M117 0v700h125l409 -546h9v546h102v-700h-119l-416 556h-8v-556h-102zM306 -283l69 205h116v-9l-122 -196h-63z" />
    <glyph glyph-name="uni0146" unicode="&#x146;" horiz-adv-x="679" 
d="M95 0v532h98v-99c54 60 118 114 212 114c112 0 185 -63 185 -199v-348h-99v328c0 97 -49 131 -119 131c-74 0 -130 -47 -177 -99v-360h-100zM226 -292l69 205h116v-9l-122 -196h-63z" />
    <glyph glyph-name="uni0146.sc" horiz-adv-x="802" 
d="M118 0v582h120l340 -440h9v440h97v-582h-113l-347 449h-8v-449h-98zM274 -286l69 205h116v-9l-122 -196h-63z" />
    <glyph glyph-name="Ntilde" unicode="&#xd1;" horiz-adv-x="878" 
d="M373 928c34 0 54 -9 97 -33c38 -21 50 -28 70 -28c33 0 59 21 98 73h1v-97c-26 -33 -59 -55 -100 -55c-34 0 -53 9 -96 33c-39 22 -51 28 -71 28c-32 0 -59 -21 -97 -73h-1v97c25 33 58 55 99 55zM117 0v700h125l409 -546h9v546h102v-700h-119l-416 556h-8v-556h-102z
" />
    <glyph glyph-name="ntilde" unicode="&#xf1;" horiz-adv-x="679" 
d="M263 775c34 0 54 -9 97 -33c38 -21 50 -28 70 -28c33 0 59 21 98 73h1v-97c-26 -33 -59 -55 -100 -55c-34 0 -53 9 -96 33c-39 22 -51 28 -71 28c-32 0 -59 -21 -97 -73h-1v97c25 33 58 55 99 55zM95 0v532h98v-99c54 60 118 114 212 114c112 0 185 -63 185 -199v-348
h-99v328c0 97 -49 131 -119 131c-74 0 -130 -47 -177 -99v-360h-100z" />
    <glyph glyph-name="ntilde.sc" horiz-adv-x="802" 
d="M330 810c34 0 54 -9 97 -33c38 -21 50 -28 70 -28c33 0 59 21 98 73h1v-97c-26 -33 -59 -55 -100 -55c-34 0 -53 9 -96 33c-39 22 -51 28 -71 28c-32 0 -59 -21 -97 -73h-1v97c25 33 58 55 99 55zM118 0v582h120l340 -440h9v440h97v-582h-113l-347 449h-8v-449h-98z" />
    <glyph glyph-name="Oacute" unicode="&#xd3;" horiz-adv-x="905" 
d="M382 815l125 164h132v-5l-163 -159h-94zM452 -18c-234 0 -382 144 -382 368c0 221 149 368 382 368c234 0 382 -144 382 -368c0 -221 -148 -368 -382 -368zM452 77c171 0 275 105 275 273s-102 273 -274 273c-171 0 -276 -105 -276 -273s103 -273 275 -273z" />
    <glyph glyph-name="oacute" unicode="&#xf3;" horiz-adv-x="693" 
d="M277 645l125 164h132v-5l-163 -159h-94zM347 -15c-182 0 -289 124 -289 281s109 281 289 281c181 0 288 -124 288 -281s-108 -281 -288 -281zM347 70c115 0 188 83 188 196s-72 197 -189 197c-115 0 -188 -84 -188 -197s73 -196 189 -196z" />
    <glyph glyph-name="oacute.sc" horiz-adv-x="804" 
d="M332 698l125 164h132v-5l-163 -159h-94zM401 -19c-198 0 -328 119 -328 308c0 188 132 311 330 311s328 -119 328 -308c0 -188 -132 -311 -330 -311zM402 70c135 0 226 81 226 220s-92 221 -226 221c-135 0 -226 -81 -226 -220s91 -221 226 -221z" />
    <glyph glyph-name="Obreve" unicode="&#x14e;" horiz-adv-x="905" 
d="M452 807c-108 0 -181 48 -181 143c0 15 2 30 6 46h81c-3 -13 -4 -23 -4 -32c0 -65 48 -83 98 -83s97 18 97 82c0 10 -1 20 -3 33h81c3 -16 5 -32 5 -47c0 -94 -72 -142 -180 -142zM452 -18c-234 0 -382 144 -382 368c0 221 149 368 382 368c234 0 382 -144 382 -368
c0 -221 -148 -368 -382 -368zM452 77c171 0 275 105 275 273s-102 273 -274 273c-171 0 -276 -105 -276 -273s103 -273 275 -273z" />
    <glyph glyph-name="obreve" unicode="&#x14f;" horiz-adv-x="693" 
d="M347 637c-108 0 -181 48 -181 143c0 15 2 30 6 46h81c-3 -13 -4 -23 -4 -32c0 -65 48 -83 98 -83s97 18 97 82c0 10 -1 20 -3 33h81c3 -16 5 -32 5 -47c0 -94 -72 -142 -180 -142zM347 -15c-182 0 -289 124 -289 281s109 281 289 281c181 0 288 -124 288 -281
s-108 -281 -288 -281zM347 70c115 0 188 83 188 196s-72 197 -189 197c-115 0 -188 -84 -188 -197s73 -196 189 -196z" />
    <glyph glyph-name="obreve.sc" horiz-adv-x="804" 
d="M402 690c-108 0 -181 48 -181 143c0 15 2 30 6 46h81c-3 -13 -4 -23 -4 -32c0 -65 48 -83 98 -83s97 18 97 82c0 10 -1 20 -3 33h81c3 -16 5 -32 5 -47c0 -94 -72 -142 -180 -142zM401 -19c-198 0 -328 119 -328 308c0 188 132 311 330 311s328 -119 328 -308
c0 -188 -132 -311 -330 -311zM402 70c135 0 226 81 226 220s-92 221 -226 221c-135 0 -226 -81 -226 -220s91 -221 226 -221z" />
    <glyph glyph-name="Ocircumflex" unicode="&#xd4;" horiz-adv-x="905" 
d="M244 815l138 174h140l138 -174h-104l-85 105h-38l-85 -105h-104zM452 -18c-234 0 -382 144 -382 368c0 221 149 368 382 368c234 0 382 -144 382 -368c0 -221 -148 -368 -382 -368zM452 77c171 0 275 105 275 273s-102 273 -274 273c-171 0 -276 -105 -276 -273
s103 -273 275 -273z" />
    <glyph glyph-name="ocircumflex" unicode="&#xf4;" horiz-adv-x="693" 
d="M139 645l138 174h140l138 -174h-104l-85 105h-38l-85 -105h-104zM347 -15c-182 0 -289 124 -289 281s109 281 289 281c181 0 288 -124 288 -281s-108 -281 -288 -281zM347 70c115 0 188 83 188 196s-72 197 -189 197c-115 0 -188 -84 -188 -197s73 -196 189 -196z" />
    <glyph glyph-name="ocircumflex.sc" horiz-adv-x="804" 
d="M194 698l138 174h140l138 -174h-104l-85 105h-38l-85 -105h-104zM401 -19c-198 0 -328 119 -328 308c0 188 132 311 330 311s328 -119 328 -308c0 -188 -132 -311 -330 -311zM402 70c135 0 226 81 226 220s-92 221 -226 221c-135 0 -226 -81 -226 -220s91 -221 226 -221z
" />
    <glyph glyph-name="Odieresis" unicode="&#xd6;" horiz-adv-x="905" 
d="M325 812c-40 0 -64 28 -64 59c0 32 24 59 63 59c41 0 65 -27 65 -59c0 -31 -24 -59 -64 -59zM580 812c-40 0 -64 28 -64 59c0 32 24 59 63 59c41 0 65 -27 65 -59c0 -31 -24 -59 -64 -59zM452 -18c-234 0 -382 144 -382 368c0 221 149 368 382 368
c234 0 382 -144 382 -368c0 -221 -148 -368 -382 -368zM452 77c171 0 275 105 275 273s-102 273 -274 273c-171 0 -276 -105 -276 -273s103 -273 275 -273z" />
    <glyph glyph-name="odieresis" unicode="&#xf6;" horiz-adv-x="693" 
d="M220 642c-40 0 -64 28 -64 59c0 32 24 59 63 59c41 0 65 -27 65 -59c0 -31 -24 -59 -64 -59zM475 642c-40 0 -64 28 -64 59c0 32 24 59 63 59c41 0 65 -27 65 -59c0 -31 -24 -59 -64 -59zM347 -15c-182 0 -289 124 -289 281s109 281 289 281c181 0 288 -124 288 -281
s-108 -281 -288 -281zM347 70c115 0 188 83 188 196s-72 197 -189 197c-115 0 -188 -84 -188 -197s73 -196 189 -196z" />
    <glyph glyph-name="odieresis.sc" horiz-adv-x="804" 
d="M275 695c-40 0 -64 28 -64 59c0 32 24 59 63 59c41 0 65 -27 65 -59c0 -31 -24 -59 -64 -59zM530 695c-40 0 -64 28 -64 59c0 32 24 59 63 59c41 0 65 -27 65 -59c0 -31 -24 -59 -64 -59zM401 -19c-198 0 -328 119 -328 308c0 188 132 311 330 311s328 -119 328 -308
c0 -188 -132 -311 -330 -311zM402 70c135 0 226 81 226 220s-92 221 -226 221c-135 0 -226 -81 -226 -220s91 -221 226 -221z" />
    <glyph glyph-name="OE" unicode="&#x152;" horiz-adv-x="1298" 
d="M71 349c0 217 128 351 352 351h788l5 -94h-468v-197h384v-94h-384v-221h484l-4 -94h-805c-224 0 -352 131 -352 349zM643 606h-219c-158 0 -246 -87 -246 -255s88 -257 246 -257h219v512z" />
    <glyph glyph-name="oe" unicode="&#x153;" horiz-adv-x="1123" 
d="M830 -14c-125 0 -207 47 -248 128c-43 -80 -122 -129 -235 -129c-182 0 -289 124 -289 281s109 281 289 281c118 0 199 -53 240 -138c41 86 119 138 225 138c177 0 254 -125 254 -273c0 -10 -1 -21 -2 -31h-431c7 -108 77 -173 200 -173c77 0 141 23 204 63h1v-90
c-49 -31 -124 -57 -208 -57zM810 465c-92 0 -156 -60 -173 -154h334c-6 84 -56 154 -161 154zM347 70c117 0 188 83 188 196s-71 197 -189 197c-115 0 -188 -84 -188 -197s73 -196 189 -196z" />
    <glyph glyph-name="oe.sc" horiz-adv-x="1135" 
d="M74 291c0 179 110 291 306 291h668l4 -85h-396v-160h321v-83h-321v-168h411l-4 -86h-683c-196 0 -306 111 -306 291zM556 496h-166c-145 0 -214 -71 -214 -204c0 -131 69 -205 214 -205h166v409z" />
    <glyph glyph-name="Ograve" unicode="&#xd2;" horiz-adv-x="905" 
d="M522 815h-94l-163 159v5h132zM452 -18c-234 0 -382 144 -382 368c0 221 149 368 382 368c234 0 382 -144 382 -368c0 -221 -148 -368 -382 -368zM452 77c171 0 275 105 275 273s-102 273 -274 273c-171 0 -276 -105 -276 -273s103 -273 275 -273z" />
    <glyph glyph-name="ograve" unicode="&#xf2;" horiz-adv-x="693" 
d="M417 645h-94l-163 159v5h132zM347 -15c-182 0 -289 124 -289 281s109 281 289 281c181 0 288 -124 288 -281s-108 -281 -288 -281zM347 70c115 0 188 83 188 196s-72 197 -189 197c-115 0 -188 -84 -188 -197s73 -196 189 -196z" />
    <glyph glyph-name="ograve.sc" horiz-adv-x="804" 
d="M472 698h-94l-163 159v5h132zM401 -19c-198 0 -328 119 -328 308c0 188 132 311 330 311s328 -119 328 -308c0 -188 -132 -311 -330 -311zM402 70c135 0 226 81 226 220s-92 221 -226 221c-135 0 -226 -81 -226 -220s91 -221 226 -221z" />
    <glyph glyph-name="Ohungarumlaut" unicode="&#x150;" horiz-adv-x="905" 
d="M518 815l116 164h116v-5l-155 -159h-77zM300 815l117 164h115v-5l-154 -159h-78zM452 -18c-234 0 -382 144 -382 368c0 221 149 368 382 368c234 0 382 -144 382 -368c0 -221 -148 -368 -382 -368zM452 77c171 0 275 105 275 273s-102 273 -274 273
c-171 0 -276 -105 -276 -273s103 -273 275 -273z" />
    <glyph glyph-name="ohungarumlaut" unicode="&#x151;" horiz-adv-x="693" 
d="M413 645l116 164h116v-5l-155 -159h-77zM195 645l117 164h115v-5l-154 -159h-78zM347 -15c-182 0 -289 124 -289 281s109 281 289 281c181 0 288 -124 288 -281s-108 -281 -288 -281zM347 70c115 0 188 83 188 196s-72 197 -189 197c-115 0 -188 -84 -188 -197
s73 -196 189 -196z" />
    <glyph glyph-name="ohungarumlaut.sc" horiz-adv-x="804" 
d="M468 698l116 164h116v-5l-155 -159h-77zM250 698l117 164h115v-5l-154 -159h-78zM401 -19c-198 0 -328 119 -328 308c0 188 132 311 330 311s328 -119 328 -308c0 -188 -132 -311 -330 -311zM402 70c135 0 226 81 226 220s-92 221 -226 221c-135 0 -226 -81 -226 -220
s91 -221 226 -221z" />
    <glyph glyph-name="Omacron" unicode="&#x14c;" horiz-adv-x="905" 
d="M268 831v77h368v-77h-368zM452 -18c-234 0 -382 144 -382 368c0 221 149 368 382 368c234 0 382 -144 382 -368c0 -221 -148 -368 -382 -368zM452 77c171 0 275 105 275 273s-102 273 -274 273c-171 0 -276 -105 -276 -273s103 -273 275 -273z" />
    <glyph glyph-name="omacron" unicode="&#x14d;" horiz-adv-x="693" 
d="M163 661v77h368v-77h-368zM347 -15c-182 0 -289 124 -289 281s109 281 289 281c181 0 288 -124 288 -281s-108 -281 -288 -281zM347 70c115 0 188 83 188 196s-72 197 -189 197c-115 0 -188 -84 -188 -197s73 -196 189 -196z" />
    <glyph glyph-name="omacron.sc" horiz-adv-x="804" 
d="M218 714v77h368v-77h-368zM401 -19c-198 0 -328 119 -328 308c0 188 132 311 330 311s328 -119 328 -308c0 -188 -132 -311 -330 -311zM402 70c135 0 226 81 226 220s-92 221 -226 221c-135 0 -226 -81 -226 -220s91 -221 226 -221z" />
    <glyph glyph-name="Oslash" unicode="&#xd8;" horiz-adv-x="905" 
d="M60 -61l115 142c-68 64 -105 156 -105 269c0 221 149 368 382 368c79 0 149 -17 206 -47l73 90h114l-115 -142c67 -64 104 -157 104 -269c0 -221 -148 -368 -382 -368c-79 0 -148 16 -205 47l-73 -90h-114zM175 350c0 -81 23 -147 67 -195l358 438c-40 21 -90 33 -147 33
c-173 0 -278 -107 -278 -276zM452 74c173 0 278 107 278 276c0 81 -24 147 -67 195l-359 -438c41 -21 90 -33 148 -33z" />
    <glyph glyph-name="oslash" unicode="&#xf8;" horiz-adv-x="693" 
d="M347 -15c-65 0 -120 16 -164 43l-63 -74h-93l101 119c-46 50 -70 118 -70 193c0 157 109 281 289 281c64 0 119 -16 163 -43l64 74h93l-102 -119c46 -50 70 -118 70 -193c0 -157 -108 -281 -288 -281zM155 266c0 -49 13 -92 38 -125l262 295c-30 19 -66 30 -109 30
c-117 0 -191 -85 -191 -200zM347 67c117 0 191 84 191 199c0 48 -13 92 -37 125l-262 -294c29 -19 66 -30 108 -30z" />
    <glyph glyph-name="oslash.sc" horiz-adv-x="804" 
d="M401 -19c-69 0 -129 14 -179 41l-67 -78h-108l110 126c-54 53 -84 128 -84 219c0 188 132 311 330 311c69 0 129 -14 179 -41l68 78h107l-109 -126c53 -53 83 -128 83 -219c0 -188 -132 -311 -330 -311zM173 291c0 -62 18 -113 51 -151l300 345c-34 19 -76 29 -122 29
c-136 0 -229 -83 -229 -223zM402 68c136 0 229 81 229 222c0 62 -19 114 -51 151l-301 -345c35 -18 76 -28 123 -28z" />
    <glyph glyph-name="Oslashacute" unicode="&#x1fe;" horiz-adv-x="905" 
d="M382 815l125 164h132v-5l-163 -159h-94zM60 -61l115 142c-68 64 -105 156 -105 269c0 221 149 368 382 368c79 0 149 -17 206 -47l73 90h114l-115 -142c67 -64 104 -157 104 -269c0 -221 -148 -368 -382 -368c-79 0 -148 16 -205 47l-73 -90h-114zM175 350
c0 -81 23 -147 67 -195l358 438c-40 21 -90 33 -147 33c-173 0 -278 -107 -278 -276zM452 74c173 0 278 107 278 276c0 81 -24 147 -67 195l-359 -438c41 -21 90 -33 148 -33z" />
    <glyph glyph-name="oslashacute" unicode="&#x1ff;" horiz-adv-x="693" 
d="M277 645l125 164h132v-5l-163 -159h-94zM347 -15c-65 0 -120 16 -164 43l-63 -74h-93l101 119c-46 50 -70 118 -70 193c0 157 109 281 289 281c64 0 119 -16 163 -43l64 74h93l-102 -119c46 -50 70 -118 70 -193c0 -157 -108 -281 -288 -281zM155 266
c0 -49 13 -92 38 -125l262 295c-30 19 -66 30 -109 30c-117 0 -191 -85 -191 -200zM347 67c117 0 191 84 191 199c0 48 -13 92 -37 125l-262 -294c29 -19 66 -30 108 -30z" />
    <glyph glyph-name="oslashacute.sc" horiz-adv-x="804" 
d="M327 695l125 164h132v-5l-163 -159h-94zM401 -19c-69 0 -129 14 -179 41l-67 -78h-108l110 126c-54 53 -84 128 -84 219c0 188 132 311 330 311c69 0 129 -14 179 -41l68 78h107l-109 -126c53 -53 83 -128 83 -219c0 -188 -132 -311 -330 -311zM173 291
c0 -62 18 -113 51 -151l300 345c-34 19 -76 29 -122 29c-136 0 -229 -83 -229 -223zM402 68c136 0 229 81 229 222c0 62 -19 114 -51 151l-301 -345c35 -18 76 -28 123 -28z" />
    <glyph glyph-name="Otilde" unicode="&#xd5;" horiz-adv-x="905" 
d="M369 945c34 0 54 -9 97 -33c38 -21 50 -28 70 -28c33 0 59 21 98 73h1v-97c-26 -33 -59 -55 -100 -55c-34 0 -53 9 -96 33c-39 22 -51 28 -71 28c-32 0 -59 -21 -97 -73h-1v97c25 33 58 55 99 55zM452 -18c-234 0 -382 144 -382 368c0 221 149 368 382 368
c234 0 382 -144 382 -368c0 -221 -148 -368 -382 -368zM452 77c171 0 275 105 275 273s-102 273 -274 273c-171 0 -276 -105 -276 -273s103 -273 275 -273z" />
    <glyph glyph-name="otilde" unicode="&#xf5;" horiz-adv-x="693" 
d="M263 775c34 0 54 -9 97 -33c38 -21 50 -28 70 -28c33 0 59 21 98 73h1v-97c-26 -33 -59 -55 -100 -55c-34 0 -53 9 -96 33c-39 22 -51 28 -71 28c-32 0 -59 -21 -97 -73h-1v97c25 33 58 55 99 55zM347 -15c-182 0 -289 124 -289 281s109 281 289 281
c181 0 288 -124 288 -281s-108 -281 -288 -281zM347 70c115 0 188 83 188 196s-72 197 -189 197c-115 0 -188 -84 -188 -197s73 -196 189 -196z" />
    <glyph glyph-name="otilde.sc" horiz-adv-x="804" 
d="M319 828c34 0 54 -9 97 -33c38 -21 50 -28 70 -28c33 0 59 21 98 73h1v-97c-26 -33 -59 -55 -100 -55c-34 0 -53 9 -96 33c-39 22 -51 28 -71 28c-32 0 -59 -21 -97 -73h-1v97c25 33 58 55 99 55zM401 -19c-198 0 -328 119 -328 308c0 188 132 311 330 311
s328 -119 328 -308c0 -188 -132 -311 -330 -311zM402 70c135 0 226 81 226 220s-92 221 -226 221c-135 0 -226 -81 -226 -220s91 -221 226 -221z" />
    <glyph glyph-name="Racute" unicode="&#x154;" horiz-adv-x="806" 
d="M334 798l125 164h132v-5l-163 -159h-94zM117 0v700h358c172 0 257 -84 257 -230c0 -115 -57 -193 -170 -219l194 -251h-124l-174 233h-237v-233h-104zM221 325h252c111 0 153 62 153 141s-42 140 -153 140h-252v-281z" />
    <glyph glyph-name="racute" unicode="&#x155;" horiz-adv-x="414" 
d="M171 642l125 164h132v-5l-163 -159h-94zM95 0v532h98v-117c43 84 106 130 177 130c4 0 9 0 16 -1v-99c-7 1 -13 1 -20 1c-79 0 -140 -38 -171 -108v-338h-100z" />
    <glyph glyph-name="racute.sc" horiz-adv-x="736" 
d="M310 680l125 164h132v-5l-163 -159h-94zM118 0v582h293c160 0 243 -58 243 -190c0 -100 -53 -158 -157 -182l186 -207v-3h-125l-167 197h-173v-197h-100zM218 282h202c93 0 133 39 133 108c0 68 -40 107 -133 107h-202v-215z" />
    <glyph glyph-name="Rcaron" unicode="&#x158;" horiz-adv-x="806" 
d="M612 972l-138 -174h-140l-138 174h104l85 -106h38l85 106h104zM117 0v700h358c172 0 257 -84 257 -230c0 -115 -57 -193 -170 -219l194 -251h-124l-174 233h-237v-233h-104zM221 325h252c111 0 153 62 153 141s-42 140 -153 140h-252v-281z" />
    <glyph glyph-name="rcaron" unicode="&#x159;" horiz-adv-x="414" 
d="M449 816l-138 -174h-140l-138 174h104l85 -106h38l85 106h104zM95 0v532h98v-117c43 84 106 130 177 130c4 0 9 0 16 -1v-99c-7 1 -13 1 -20 1c-79 0 -140 -38 -171 -108v-338h-100z" />
    <glyph glyph-name="rcaron.sc" horiz-adv-x="736" 
d="M588 854l-138 -174h-140l-138 174h104l85 -106h38l85 106h104zM118 0v582h293c160 0 243 -58 243 -190c0 -100 -53 -158 -157 -182l186 -207v-3h-125l-167 197h-173v-197h-100zM218 282h202c93 0 133 39 133 108c0 68 -40 107 -133 107h-202v-215z" />
    <glyph glyph-name="uni0156" unicode="&#x156;" horiz-adv-x="806" 
d="M117 0v700h358c172 0 257 -84 257 -230c0 -115 -57 -193 -170 -219l194 -251h-124l-174 233h-237v-233h-104zM221 325h252c111 0 153 62 153 141s-42 140 -153 140h-252v-281zM292 -283l69 205h116v-9l-122 -196h-63z" />
    <glyph glyph-name="uni0157" unicode="&#x157;" horiz-adv-x="414" 
d="M95 0v532h98v-117c43 84 106 130 177 130c4 0 9 0 16 -1v-99c-7 1 -13 1 -20 1c-79 0 -140 -38 -171 -108v-338h-100zM17 -311l69 205h116v-9l-122 -196h-63z" />
    <glyph glyph-name="uni0157.sc" horiz-adv-x="736" 
d="M118 0v582h293c160 0 243 -58 243 -190c0 -100 -53 -158 -157 -182l186 -207v-3h-125l-167 197h-173v-197h-100zM218 282h202c93 0 133 39 133 108c0 68 -40 107 -133 107h-202v-215zM240 -287l69 205h116v-9l-122 -196h-63z" />
    <glyph glyph-name="Sacute" unicode="&#x15a;" horiz-adv-x="751" 
d="M335 814l125 164h132v-5l-163 -159h-94zM396 -16c-130 0 -231 32 -315 77v108h1c97 -56 210 -89 315 -89c119 0 185 43 185 111c0 66 -49 88 -222 119c-155 29 -267 68 -267 193c0 114 101 213 297 213c89 0 189 -24 266 -68v-108h-1c-82 53 -182 80 -272 80
c-117 0 -181 -43 -181 -107c0 -71 78 -88 220 -114c157 -29 269 -68 269 -201c0 -96 -67 -214 -295 -214z" />
    <glyph glyph-name="sacute" unicode="&#x15b;" horiz-adv-x="586" 
d="M230 645l125 164h132v-5l-163 -159h-94zM307 -15c-80 0 -162 21 -234 63v92h1c69 -46 155 -72 236 -72c82 0 124 30 124 77c0 43 -26 61 -158 88c-136 27 -199 63 -199 152c0 90 81 162 219 162c83 0 160 -27 206 -53v-92h-1c-65 39 -147 63 -213 63
c-70 0 -112 -30 -112 -73c0 -44 36 -59 163 -86c143 -30 193 -73 193 -158c0 -76 -54 -163 -225 -163z" />
    <glyph glyph-name="sacute.sc" horiz-adv-x="672" 
d="M290 694l125 164h132v-5l-163 -159h-94zM356 -16c-98 0 -202 27 -272 66v99h1c81 -50 192 -78 271 -78c107 0 153 33 153 84c0 52 -34 68 -183 98c-149 31 -232 58 -232 166c0 100 82 177 252 177c86 0 170 -23 234 -56v-99h-1c-70 41 -155 69 -240 69
c-92 0 -144 -32 -144 -83c1 -48 36 -63 182 -92c145 -29 232 -67 232 -172c0 -80 -46 -179 -253 -179z" />
    <glyph glyph-name="Scaron" unicode="&#x160;" horiz-adv-x="751" 
d="M613 988l-138 -174h-140l-138 174h104l85 -106h38l85 106h104zM396 -16c-130 0 -231 32 -315 77v108h1c97 -56 210 -89 315 -89c119 0 185 43 185 111c0 66 -49 88 -222 119c-155 29 -267 68 -267 193c0 114 101 213 297 213c89 0 189 -24 266 -68v-108h-1
c-82 53 -182 80 -272 80c-117 0 -181 -43 -181 -107c0 -71 78 -88 220 -114c157 -29 269 -68 269 -201c0 -96 -67 -214 -295 -214z" />
    <glyph glyph-name="scaron" unicode="&#x161;" horiz-adv-x="586" 
d="M508 819l-138 -174h-140l-138 174h104l85 -106h38l85 106h104zM307 -15c-80 0 -162 21 -234 63v92h1c69 -46 155 -72 236 -72c82 0 124 30 124 77c0 43 -26 61 -158 88c-136 27 -199 63 -199 152c0 90 81 162 219 162c83 0 160 -27 206 -53v-92h-1
c-65 39 -147 63 -213 63c-70 0 -112 -30 -112 -73c0 -44 36 -59 163 -86c143 -30 193 -73 193 -158c0 -76 -54 -163 -225 -163z" />
    <glyph glyph-name="scaron.sc" horiz-adv-x="672" 
d="M568 868l-138 -174h-140l-138 174h104l85 -106h38l85 106h104zM356 -16c-98 0 -202 27 -272 66v99h1c81 -50 192 -78 271 -78c107 0 153 33 153 84c0 52 -34 68 -183 98c-149 31 -232 58 -232 166c0 100 82 177 252 177c86 0 170 -23 234 -56v-99h-1
c-70 41 -155 69 -240 69c-92 0 -144 -32 -144 -83c1 -48 36 -63 182 -92c145 -29 232 -67 232 -172c0 -80 -46 -179 -253 -179z" />
    <glyph glyph-name="Scedilla" unicode="&#x15e;" horiz-adv-x="751" 
d="M210 -192v5l142 172c-109 7 -197 36 -271 76v108h1c97 -56 210 -89 315 -89c119 0 185 43 185 111c0 66 -49 88 -222 119c-155 29 -267 68 -267 193c0 114 101 213 297 213c89 0 189 -24 266 -68v-108h-1c-82 53 -182 80 -272 80c-117 0 -181 -43 -181 -107
c0 -71 78 -88 220 -114c157 -29 269 -68 269 -201c0 -89 -58 -198 -249 -212l-104 -178h-128z" />
    <glyph glyph-name="scedilla" unicode="&#x15f;" horiz-adv-x="586" 
d="M138 -191v5l142 172c-72 4 -143 25 -207 62v92h1c69 -46 155 -72 236 -72c82 0 124 30 124 77c0 43 -26 61 -158 88c-136 27 -199 63 -199 152c0 90 81 162 219 162c83 0 160 -27 206 -53v-92h-1c-65 39 -147 63 -213 63c-70 0 -112 -30 -112 -73c0 -44 36 -59 163 -86
c143 -30 193 -73 193 -158c0 -65 -40 -139 -161 -158l-105 -181h-128z" />
    <glyph glyph-name="scedilla.sc" horiz-adv-x="672" 
d="M168 -192v5l142 173c-83 7 -167 31 -226 64v99h1c81 -50 192 -78 271 -78c107 0 153 33 153 84c0 52 -34 68 -183 98c-149 31 -232 58 -232 166c0 100 82 177 252 177c86 0 170 -23 234 -56v-99h-1c-70 41 -155 69 -240 69c-92 0 -144 -32 -144 -83c1 -48 36 -63 182 -92
c145 -29 232 -67 232 -172c0 -74 -39 -164 -209 -177l-104 -178h-128z" />
    <glyph glyph-name="uni0218" unicode="&#x218;" horiz-adv-x="751" 
d="M396 -16c-130 0 -231 32 -315 77v108h1c97 -56 210 -89 315 -89c119 0 185 43 185 111c0 66 -49 88 -222 119c-155 29 -267 68 -267 193c0 114 101 213 297 213c89 0 189 -24 266 -68v-108h-1c-82 53 -182 80 -272 80c-117 0 -181 -43 -181 -107c0 -71 78 -88 220 -114
c157 -29 269 -68 269 -201c0 -96 -67 -214 -295 -214zM261 -327l69 205h116v-9l-122 -196h-63z" />
    <glyph glyph-name="uni0219" unicode="&#x219;" horiz-adv-x="586" 
d="M307 -15c-80 0 -162 21 -234 63v92h1c69 -46 155 -72 236 -72c82 0 124 30 124 77c0 43 -26 61 -158 88c-136 27 -199 63 -199 152c0 90 81 162 219 162c83 0 160 -27 206 -53v-92h-1c-65 39 -147 63 -213 63c-70 0 -112 -30 -112 -73c0 -44 36 -59 163 -86
c143 -30 193 -73 193 -158c0 -76 -54 -163 -225 -163zM179 -322l69 205h116v-9l-122 -196h-63z" />
    <glyph glyph-name="uni0219.sc" horiz-adv-x="672" 
d="M356 -16c-98 0 -202 27 -272 66v99h1c81 -50 192 -78 271 -78c107 0 153 33 153 84c0 52 -34 68 -183 98c-149 31 -232 58 -232 166c0 100 82 177 252 177c86 0 170 -23 234 -56v-99h-1c-70 41 -155 69 -240 69c-92 0 -144 -32 -144 -83c1 -48 36 -63 182 -92
c145 -29 232 -67 232 -172c0 -80 -46 -179 -253 -179zM226 -327l69 205h116v-9l-122 -196h-63z" />
    <glyph glyph-name="uni1E9E" unicode="&#x1e9e;" horiz-adv-x="853" 
d="M221 0h-104v700h645v-96l-226 -208l57 -16c162 -48 205 -115 205 -201c0 -124 -89 -195 -251 -195c-83 0 -153 17 -210 40v95h1c55 -25 123 -47 212 -47c97 0 143 41 143 107s-44 99 -203 140l-66 17v70l220 204h-423v-610z" />
    <glyph glyph-name="germandbls" unicode="&#xdf;" horiz-adv-x="754" 
d="M35 450l17 82h97c25 161 128 231 266 231c121 0 210 -59 267 -166l-183 -194l41 -21c98 -51 162 -96 162 -196c0 -118 -89 -202 -218 -202c-44 0 -87 8 -138 28v88h1c46 -22 90 -34 133 -34c80 0 128 51 128 116c0 66 -42 92 -154 144l-53 24l-2 62l169 186
c-44 60 -101 82 -152 82c-86 0 -173 -46 -173 -225v-455h-99v450h-109z" />
    <glyph glyph-name="uni1E9E.sc" horiz-adv-x="791" 
d="M218 0h-100v582h577v-82l-197 -176l46 -13c157 -41 180 -99 180 -168c0 -97 -72 -158 -219 -158c-62 0 -138 14 -187 34v87h1c48 -22 118 -39 183 -39c94 0 122 38 122 81c0 46 -26 74 -161 105l-67 16v64l180 165h-358v-498z" />
    <glyph glyph-name="Tcaron" unicode="&#x164;" horiz-adv-x="751" 
d="M584 972l-138 -174h-140l-138 174h104l85 -106h38l85 106h104zM323 0v604h-279l4 96h655l4 -96h-279v-604h-105z" />
    <glyph glyph-name="tcaron" unicode="&#x165;" horiz-adv-x="425" 
d="M352 620v174h106v-10l-48 -164h-58zM158 0v450h-126l16 82h110v131l99 10v-141h143v-82h-143v-450h-99z" />
    <glyph glyph-name="tcaron.sc" horiz-adv-x="692" 
d="M554 854l-138 -174h-140l-138 174h104l85 -106h38l85 106h104zM296 0v494h-242l4 88h576l4 -88h-242v-494h-100z" />
    <glyph glyph-name="uni0162" unicode="&#x21a;" horiz-adv-x="751" 
d="M323 0v604h-279l4 96h655l4 -96h-279v-604h-105zM246 -311l69 205h116v-9l-122 -196h-63z" />
    <glyph glyph-name="uni0162" unicode="&#x162;" horiz-adv-x="751" 
d="M323 0v604h-279l4 96h655l4 -96h-279v-604h-105zM246 -311l69 205h116v-9l-122 -196h-63z" />
    <glyph glyph-name="uni0163" unicode="&#x21b;" horiz-adv-x="425" 
d="M158 0v450h-126l16 82h110v131l99 10v-141h143v-82h-143v-450h-99zM78 -311l69 205h116v-9l-122 -196h-63z" />
    <glyph glyph-name="uni0163" unicode="&#x163;" horiz-adv-x="425" 
d="M158 0v450h-126l16 82h110v131l99 10v-141h143v-82h-143v-450h-99zM78 -311l69 205h116v-9l-122 -196h-63z" />
    <glyph glyph-name="uni0163.sc" horiz-adv-x="692" 
d="M296 0v494h-242l4 88h576l4 -88h-242v-494h-100zM216 -311l69 205h116v-9l-122 -196h-63z" />
    <glyph glyph-name="Uacute" unicode="&#xda;" horiz-adv-x="863" 
d="M362 770l125 164h132v-5l-163 -159h-94zM431 -17c-188 0 -323 80 -323 284v433h104v-427c0 -143 97 -194 220 -194s219 49 219 191v430h104v-430c0 -208 -136 -287 -324 -287z" />
    <glyph glyph-name="uacute" unicode="&#xfa;" horiz-adv-x="679" 
d="M267 611l125 164h132v-5l-163 -159h-94zM584 532v-532h-98v100c-54 -61 -117 -115 -212 -115c-112 0 -185 64 -185 199v348h100v-327c0 -97 48 -132 118 -132c74 0 130 47 178 99v360h99z" />
    <glyph glyph-name="uacute.sc" horiz-adv-x="774" 
d="M317 656l125 164h132v-5l-163 -159h-94zM384 -14c-160 0 -276 67 -276 241v355h100v-350c0 -116 79 -158 177 -158c102 0 182 40 182 155v353h99v-352c0 -177 -120 -244 -282 -244z" />
    <glyph glyph-name="Ubreve" unicode="&#x16c;" horiz-adv-x="863" 
d="M432 762c-108 0 -181 48 -181 143c0 15 2 30 6 46h81c-3 -13 -4 -23 -4 -32c0 -65 48 -83 98 -83s97 18 97 82c0 10 -1 20 -3 33h81c3 -16 5 -32 5 -47c0 -94 -72 -142 -180 -142zM431 -17c-188 0 -323 80 -323 284v433h104v-427c0 -143 97 -194 220 -194s219 49 219 191
v430h104v-430c0 -208 -136 -287 -324 -287z" />
    <glyph glyph-name="ubreve" unicode="&#x16d;" horiz-adv-x="679" 
d="M337 603c-108 0 -181 48 -181 143c0 15 2 30 6 46h81c-3 -13 -4 -23 -4 -32c0 -65 48 -83 98 -83s97 18 97 82c0 10 -1 20 -3 33h81c3 -16 5 -32 5 -47c0 -94 -72 -142 -180 -142zM584 532v-532h-98v100c-54 -61 -117 -115 -212 -115c-112 0 -185 64 -185 199v348h100
v-327c0 -97 48 -132 118 -132c74 0 130 47 178 99v360h99z" />
    <glyph glyph-name="ubreve.sc" horiz-adv-x="774" 
d="M387 648c-108 0 -181 48 -181 143c0 15 2 30 6 46h81c-3 -13 -4 -23 -4 -32c0 -65 48 -83 98 -83s97 18 97 82c0 10 -1 20 -3 33h81c3 -16 5 -32 5 -47c0 -94 -72 -142 -180 -142zM384 -14c-160 0 -276 67 -276 241v355h100v-350c0 -116 79 -158 177 -158
c102 0 182 40 182 155v353h99v-352c0 -177 -120 -244 -282 -244z" />
    <glyph glyph-name="Ucircumflex" unicode="&#xdb;" horiz-adv-x="863" 
d="M224 798l138 174h140l138 -174h-104l-85 105h-38l-85 -105h-104zM431 -17c-188 0 -323 80 -323 284v433h104v-427c0 -143 97 -194 220 -194s219 49 219 191v430h104v-430c0 -208 -136 -287 -324 -287z" />
    <glyph glyph-name="ucircumflex" unicode="&#xfb;" horiz-adv-x="679" 
d="M129 630l138 174h140l138 -174h-104l-85 105h-38l-85 -105h-104zM584 532v-532h-98v100c-54 -61 -117 -115 -212 -115c-112 0 -185 64 -185 199v348h100v-327c0 -97 48 -132 118 -132c74 0 130 47 178 99v360h99z" />
    <glyph glyph-name="ucircumflex.sc" horiz-adv-x="774" 
d="M179 680l138 174h140l138 -174h-104l-85 105h-38l-85 -105h-104zM384 -14c-160 0 -276 67 -276 241v355h100v-350c0 -116 79 -158 177 -158c102 0 182 40 182 155v353h99v-352c0 -177 -120 -244 -282 -244z" />
    <glyph glyph-name="Udieresis" unicode="&#xdc;" horiz-adv-x="863" 
d="M305 795c-40 0 -64 28 -64 59c0 32 24 59 63 59c41 0 65 -27 65 -59c0 -31 -24 -59 -64 -59zM560 795c-40 0 -64 28 -64 59c0 32 24 59 63 59c41 0 65 -27 65 -59c0 -31 -24 -59 -64 -59zM431 -17c-188 0 -323 80 -323 284v433h104v-427c0 -143 97 -194 220 -194
s219 49 219 191v430h104v-430c0 -208 -136 -287 -324 -287z" />
    <glyph glyph-name="udieresis" unicode="&#xfc;" horiz-adv-x="679" 
d="M210 627c-40 0 -64 28 -64 59c0 32 24 59 63 59c41 0 65 -27 65 -59c0 -31 -24 -59 -64 -59zM465 627c-40 0 -64 28 -64 59c0 32 24 59 63 59c41 0 65 -27 65 -59c0 -31 -24 -59 -64 -59zM584 532v-532h-98v100c-54 -61 -117 -115 -212 -115c-112 0 -185 64 -185 199v348
h100v-327c0 -97 48 -132 118 -132c74 0 130 47 178 99v360h99z" />
    <glyph glyph-name="udieresis.sc" horiz-adv-x="774" 
d="M260 677c-40 0 -64 28 -64 59c0 32 24 59 63 59c41 0 65 -27 65 -59c0 -31 -24 -59 -64 -59zM515 677c-40 0 -64 28 -64 59c0 32 24 59 63 59c41 0 65 -27 65 -59c0 -31 -24 -59 -64 -59zM384 -14c-160 0 -276 67 -276 241v355h100v-350c0 -116 79 -158 177 -158
c102 0 182 40 182 155v353h99v-352c0 -177 -120 -244 -282 -244z" />
    <glyph glyph-name="Ugrave" unicode="&#xd9;" horiz-adv-x="863" 
d="M502 770h-94l-163 159v5h132zM431 -17c-188 0 -323 80 -323 284v433h104v-427c0 -143 97 -194 220 -194s219 49 219 191v430h104v-430c0 -208 -136 -287 -324 -287z" />
    <glyph glyph-name="ugrave" unicode="&#xf9;" horiz-adv-x="679" 
d="M407 611h-94l-163 159v5h132zM584 532v-532h-98v100c-54 -61 -117 -115 -212 -115c-112 0 -185 64 -185 199v348h100v-327c0 -97 48 -132 118 -132c74 0 130 47 178 99v360h99z" />
    <glyph glyph-name="ugrave.sc" horiz-adv-x="774" 
d="M457 656h-94l-163 159v5h132zM384 -14c-160 0 -276 67 -276 241v355h100v-350c0 -116 79 -158 177 -158c102 0 182 40 182 155v353h99v-352c0 -177 -120 -244 -282 -244z" />
    <glyph glyph-name="Uhungarumlaut" unicode="&#x170;" horiz-adv-x="863" 
d="M491 798l116 164h116v-5l-155 -159h-77zM273 798l117 164h115v-5l-154 -159h-78zM431 -17c-188 0 -323 80 -323 284v433h104v-427c0 -143 97 -194 220 -194s219 49 219 191v430h104v-430c0 -208 -136 -287 -324 -287z" />
    <glyph glyph-name="uhungarumlaut" unicode="&#x171;" horiz-adv-x="679" 
d="M399 630l116 164h116v-5l-155 -159h-77zM181 630l117 164h115v-5l-154 -159h-78zM584 532v-532h-98v100c-54 -61 -117 -115 -212 -115c-112 0 -185 64 -185 199v348h100v-327c0 -97 48 -132 118 -132c74 0 130 47 178 99v360h99z" />
    <glyph glyph-name="uhungarumlaut.sc" horiz-adv-x="774" 
d="M454 680l116 164h116v-5l-155 -159h-77zM236 680l117 164h115v-5l-154 -159h-78zM384 -14c-160 0 -276 67 -276 241v355h100v-350c0 -116 79 -158 177 -158c102 0 182 40 182 155v353h99v-352c0 -177 -120 -244 -282 -244z" />
    <glyph glyph-name="Umacron" unicode="&#x16a;" horiz-adv-x="863" 
d="M248 814v77h368v-77h-368zM431 -17c-188 0 -323 80 -323 284v433h104v-427c0 -143 97 -194 220 -194s219 49 219 191v430h104v-430c0 -208 -136 -287 -324 -287z" />
    <glyph glyph-name="umacron" unicode="&#x16b;" horiz-adv-x="679" 
d="M153 646v77h368v-77h-368zM584 532v-532h-98v100c-54 -61 -117 -115 -212 -115c-112 0 -185 64 -185 199v348h100v-327c0 -97 48 -132 118 -132c74 0 130 47 178 99v360h99z" />
    <glyph glyph-name="umacron.sc" horiz-adv-x="774" 
d="M203 696v77h368v-77h-368zM384 -14c-160 0 -276 67 -276 241v355h100v-350c0 -116 79 -158 177 -158c102 0 182 40 182 155v353h99v-352c0 -177 -120 -244 -282 -244z" />
    <glyph glyph-name="Uogonek" unicode="&#x172;" horiz-adv-x="863" 
d="M555 -275c-34 -14 -65 -21 -106 -21c-112 0 -147 55 -147 109c0 53 35 99 105 162l9 8c-180 4 -308 86 -308 284v433h104v-427c0 -143 97 -194 220 -194s219 49 219 191v430h104v-430c0 -172 -93 -256 -232 -280l-53 -52c-56 -55 -76 -80 -76 -108c0 -34 29 -51 74 -51
c26 0 56 7 87 23v-77z" />
    <glyph glyph-name="uogonek" unicode="&#x173;" horiz-adv-x="679" 
d="M584 532v-531l1 -1l-56 -55c-56 -55 -76 -80 -76 -108c0 -34 29 -51 74 -51c26 0 56 7 87 23v-77c-34 -14 -65 -21 -106 -21c-112 0 -147 55 -147 109c0 53 35 99 105 162l20 18v100c-54 -61 -117 -115 -212 -115c-112 0 -185 64 -185 199v348h100v-327
c0 -97 48 -132 118 -132c74 0 130 47 178 99v360h99z" />
    <glyph glyph-name="uogonek.sc" horiz-adv-x="774" 
d="M501 -272c-34 -14 -65 -21 -106 -21c-112 0 -147 55 -147 109c0 53 35 99 105 162l9 8c-148 6 -254 75 -254 241v355h100v-350c0 -116 79 -158 177 -158c102 0 182 40 182 155v353h99v-352c0 -144 -80 -215 -197 -237l-53 -52c-56 -55 -76 -80 -76 -108
c0 -34 29 -51 74 -51c26 0 56 7 87 23v-77z" />
    <glyph glyph-name="Uring" unicode="&#x16e;" horiz-adv-x="863" 
d="M430 756c-99 0 -160 52 -160 137s61 140 161 140s162 -53 162 -139c0 -84 -63 -138 -163 -138zM431 816c54 0 90 30 90 78s-37 78 -91 78c-52 0 -90 -29 -90 -78c0 -48 38 -78 91 -78zM431 -17c-188 0 -323 80 -323 284v433h104v-427c0 -143 97 -194 220 -194
s219 49 219 191v430h104v-430c0 -208 -136 -287 -324 -287z" />
    <glyph glyph-name="uring" unicode="&#x16f;" horiz-adv-x="679" 
d="M335 601c-99 0 -160 52 -160 137s61 140 161 140s162 -53 162 -139c0 -84 -63 -138 -163 -138zM336 661c54 0 90 30 90 78s-37 78 -91 78c-52 0 -90 -29 -90 -78c0 -48 38 -78 91 -78zM584 532v-532h-98v100c-54 -61 -117 -115 -212 -115c-112 0 -185 64 -185 199v348
h100v-327c0 -97 48 -132 118 -132c74 0 130 47 178 99v360h99z" />
    <glyph glyph-name="uring.sc" horiz-adv-x="774" 
d="M386 648c-99 0 -160 52 -160 137s61 140 161 140s162 -53 162 -139c0 -84 -63 -138 -163 -138zM387 708c54 0 90 30 90 78s-37 78 -91 78c-52 0 -90 -29 -90 -78c0 -48 38 -78 91 -78zM384 -14c-160 0 -276 67 -276 241v355h100v-350c0 -116 79 -158 177 -158
c102 0 182 40 182 155v353h99v-352c0 -177 -120 -244 -282 -244z" />
    <glyph glyph-name="Wacute" unicode="&#x1e82;" horiz-adv-x="1242" 
d="M579 798l125 164h132v-5l-163 -159h-94zM265 0l-205 700h110l169 -597h28l202 597h111l200 -597h28l166 597h108l-204 -700h-164l-186 555h-11l-187 -555h-165z" />
    <glyph glyph-name="wacute" unicode="&#x1e83;" horiz-adv-x="991" 
d="M451 630l125 164h132v-5l-163 -159h-94zM210 0l-169 532h105l130 -441h23l139 438h118l141 -438h23l129 441h102l-171 -532h-149l-128 413h-14l-130 -413h-149z" />
    <glyph glyph-name="wacute.sc" horiz-adv-x="1072" 
d="M493 680l125 164h132v-5l-163 -159h-94zM238 0l-178 582h108l133 -465h26l168 465h89l167 -465h24l135 465h102l-178 -582h-132l-162 449h-5l-163 -449h-134z" />
    <glyph glyph-name="Wcircumflex" unicode="&#x174;" horiz-adv-x="1242" 
d="M413 798l138 174h140l138 -174h-104l-85 105h-38l-85 -105h-104zM265 0l-205 700h110l169 -597h28l202 597h111l200 -597h28l166 597h108l-204 -700h-164l-186 555h-11l-187 -555h-165z" />
    <glyph glyph-name="wcircumflex" unicode="&#x175;" horiz-adv-x="991" 
d="M289 630l138 174h140l138 -174h-104l-85 105h-38l-85 -105h-104zM210 0l-169 532h105l130 -441h23l139 438h118l141 -438h23l129 441h102l-171 -532h-149l-128 413h-14l-130 -413h-149z" />
    <glyph glyph-name="wcircumflex.sc" horiz-adv-x="1072" 
d="M328 680l138 174h140l138 -174h-104l-85 105h-38l-85 -105h-104zM238 0l-178 582h108l133 -465h26l168 465h89l167 -465h24l135 465h102l-178 -582h-132l-162 449h-5l-163 -449h-134z" />
    <glyph glyph-name="Wdieresis" unicode="&#x1e84;" horiz-adv-x="1242" 
d="M494 795c-40 0 -64 28 -64 59c0 32 24 59 63 59c41 0 65 -27 65 -59c0 -31 -24 -59 -64 -59zM749 795c-40 0 -64 28 -64 59c0 32 24 59 63 59c41 0 65 -27 65 -59c0 -31 -24 -59 -64 -59zM265 0l-205 700h110l169 -597h28l202 597h111l200 -597h28l166 597h108l-204 -700
h-164l-186 555h-11l-187 -555h-165z" />
    <glyph glyph-name="wdieresis" unicode="&#x1e85;" horiz-adv-x="991" 
d="M370 627c-40 0 -64 28 -64 59c0 32 24 59 63 59c41 0 65 -27 65 -59c0 -31 -24 -59 -64 -59zM625 627c-40 0 -64 28 -64 59c0 32 24 59 63 59c41 0 65 -27 65 -59c0 -31 -24 -59 -64 -59zM210 0l-169 532h105l130 -441h23l139 438h118l141 -438h23l129 441h102l-171 -532
h-149l-128 413h-14l-130 -413h-149z" />
    <glyph glyph-name="wdieresis.sc" horiz-adv-x="1072" 
d="M409 677c-40 0 -64 28 -64 59c0 32 24 59 63 59c41 0 65 -27 65 -59c0 -31 -24 -59 -64 -59zM664 677c-40 0 -64 28 -64 59c0 32 24 59 63 59c41 0 65 -27 65 -59c0 -31 -24 -59 -64 -59zM238 0l-178 582h108l133 -465h26l168 465h89l167 -465h24l135 465h102l-178 -582
h-132l-162 449h-5l-163 -449h-134z" />
    <glyph glyph-name="Wgrave" unicode="&#x1e80;" horiz-adv-x="1242" 
d="M672 798h-94l-163 159v5h132zM265 0l-205 700h110l169 -597h28l202 597h111l200 -597h28l166 597h108l-204 -700h-164l-186 555h-11l-187 -555h-165z" />
    <glyph glyph-name="wgrave" unicode="&#x1e81;" horiz-adv-x="991" 
d="M544 630h-94l-163 159v5h132zM210 0l-169 532h105l130 -441h23l139 438h118l141 -438h23l129 441h102l-171 -532h-149l-128 413h-14l-130 -413h-149z" />
    <glyph glyph-name="wgrave.sc" horiz-adv-x="1072" 
d="M587 680h-94l-163 159v5h132zM238 0l-178 582h108l133 -465h26l168 465h89l167 -465h24l135 465h102l-178 -582h-132l-162 449h-5l-163 -449h-134z" />
    <glyph glyph-name="Yacute" unicode="&#xdd;" horiz-adv-x="800" 
d="M330 770l125 164h132v-5l-163 -159h-94zM348 0v240l-316 460h122l243 -359h7l246 359h118l-316 -458v-242h-104z" />
    <glyph glyph-name="yacute" unicode="&#xfd;" horiz-adv-x="626" 
d="M250 611l125 164h132v-5l-163 -159h-94zM203 -190l66 172l-234 550h106l182 -437l172 437h102l-295 -722h-99z" />
    <glyph glyph-name="yacute.sc" horiz-adv-x="711" 
d="M287 656l125 164h132v-5l-163 -159h-94zM306 0v199l-272 383h115l206 -294h3l207 294h112l-271 -381v-201h-100z" />
    <glyph glyph-name="Ycircumflex" unicode="&#x176;" horiz-adv-x="800" 
d="M192 798l138 174h140l138 -174h-104l-85 105h-38l-85 -105h-104zM348 0v240l-316 460h122l243 -359h7l246 359h118l-316 -458v-242h-104z" />
    <glyph glyph-name="ycircumflex" unicode="&#x177;" horiz-adv-x="626" 
d="M112 630l138 174h140l138 -174h-104l-85 105h-38l-85 -105h-104zM203 -190l66 172l-234 550h106l182 -437l172 437h102l-295 -722h-99z" />
    <glyph glyph-name="ycircumflex.sc" horiz-adv-x="711" 
d="M149 680l138 174h140l138 -174h-104l-85 105h-38l-85 -105h-104zM306 0v199l-272 383h115l206 -294h3l207 294h112l-271 -381v-201h-100z" />
    <glyph glyph-name="Ydieresis" unicode="&#x178;" horiz-adv-x="800" 
d="M273 795c-40 0 -64 28 -64 59c0 32 24 59 63 59c41 0 65 -27 65 -59c0 -31 -24 -59 -64 -59zM528 795c-40 0 -64 28 -64 59c0 32 24 59 63 59c41 0 65 -27 65 -59c0 -31 -24 -59 -64 -59zM348 0v240l-316 460h122l243 -359h7l246 359h118l-316 -458v-242h-104z" />
    <glyph glyph-name="ydieresis" unicode="&#xff;" horiz-adv-x="626" 
d="M193 627c-40 0 -64 28 -64 59c0 32 24 59 63 59c41 0 65 -27 65 -59c0 -31 -24 -59 -64 -59zM448 627c-40 0 -64 28 -64 59c0 32 24 59 63 59c41 0 65 -27 65 -59c0 -31 -24 -59 -64 -59zM203 -190l66 172l-234 550h106l182 -437l172 437h102l-295 -722h-99z" />
    <glyph glyph-name="ydieresis.sc" horiz-adv-x="711" 
d="M230 677c-40 0 -64 28 -64 59c0 32 24 59 63 59c41 0 65 -27 65 -59c0 -31 -24 -59 -64 -59zM485 677c-40 0 -64 28 -64 59c0 32 24 59 63 59c41 0 65 -27 65 -59c0 -31 -24 -59 -64 -59zM306 0v199l-272 383h115l206 -294h3l207 294h112l-271 -381v-201h-100z" />
    <glyph glyph-name="Ygrave" unicode="&#x1ef2;" horiz-adv-x="800" 
d="M470 770h-94l-163 159v5h132zM348 0v240l-316 460h122l243 -359h7l246 359h118l-316 -458v-242h-104z" />
    <glyph glyph-name="ygrave" unicode="&#x1ef3;" horiz-adv-x="626" 
d="M390 611h-94l-163 159v5h132zM203 -190l66 172l-234 550h106l182 -437l172 437h102l-295 -722h-99z" />
    <glyph glyph-name="ygrave.sc" horiz-adv-x="711" 
d="M427 656h-94l-163 159v5h132zM306 0v199l-272 383h115l206 -294h3l207 294h112l-271 -381v-201h-100z" />
    <glyph glyph-name="Zacute" unicode="&#x179;" horiz-adv-x="784" 
d="M329 798l125 164h132v-5l-163 -159h-94zM80 0v99l488 507h-475l4 94h610v-90l-497 -516h497v-94h-627z" />
    <glyph glyph-name="zacute" unicode="&#x17a;" horiz-adv-x="598" 
d="M241 630l125 164h132v-5l-163 -159h-94zM66 0v78l344 371h-334l3 83h458v-73l-351 -376h351v-83h-471z" />
    <glyph glyph-name="zacute.sc" horiz-adv-x="699" 
d="M289 680l125 164h132v-5l-163 -159h-94zM80 0v92l409 404h-398l4 86h529v-83l-417 -412h417v-87h-544z" />
    <glyph glyph-name="Zcaron" unicode="&#x17d;" horiz-adv-x="784" 
d="M607 972l-138 -174h-140l-138 174h104l85 -106h38l85 106h104zM80 0v99l488 507h-475l4 94h610v-90l-497 -516h497v-94h-627z" />
    <glyph glyph-name="zcaron" unicode="&#x17e;" horiz-adv-x="598" 
d="M519 804l-138 -174h-140l-138 174h104l85 -106h38l85 106h104zM66 0v78l344 371h-334l3 83h458v-73l-351 -376h351v-83h-471z" />
    <glyph glyph-name="zcaron.sc" horiz-adv-x="699" 
d="M567 854l-138 -174h-140l-138 174h104l85 -106h38l85 106h104zM80 0v92l409 404h-398l4 86h529v-83l-417 -412h417v-87h-544z" />
    <glyph glyph-name="Zdotaccent" unicode="&#x17b;" horiz-adv-x="784" 
d="M399 795c-42 0 -68 29 -68 62v1c0 33 26 61 68 61c43 0 68 -28 68 -61v-1c0 -33 -25 -62 -68 -62zM80 0v99l488 507h-475l4 94h610v-90l-497 -516h497v-94h-627z" />
    <glyph glyph-name="zdotaccent" unicode="&#x17c;" horiz-adv-x="598" 
d="M311 627c-42 0 -68 29 -68 62v1c0 33 26 61 68 61c43 0 68 -28 68 -61v-1c0 -33 -25 -62 -68 -62zM66 0v78l344 371h-334l3 83h458v-73l-351 -376h351v-83h-471z" />
    <glyph glyph-name="zdotaccent.sc" horiz-adv-x="699" 
d="M359 677c-42 0 -68 29 -68 62v1c0 33 26 61 68 61c43 0 68 -28 68 -61v-1c0 -33 -25 -62 -68 -62zM80 0v92l409 404h-398l4 86h529v-83l-417 -412h417v-87h-544z" />
    <glyph glyph-name="Thorn" unicode="&#xde;" horiz-adv-x="783" 
d="M117 0v700h104v-109h240c179 0 268 -88 268 -235c0 -161 -105 -243 -277 -243h-231v-113h-104zM221 208h232c118 0 171 57 171 145c0 92 -55 144 -172 144h-231v-289z" />
    <glyph glyph-name="thorn" unicode="&#xfe;" horiz-adv-x="695" 
d="M95 -190v940h98v-294c41 47 107 91 198 91c140 0 246 -102 246 -269c0 -172 -125 -293 -288 -293c-63 0 -114 18 -154 48v-223h-100zM342 70c116 0 195 80 195 203c0 120 -73 189 -178 189c-68 0 -126 -33 -164 -73v-262c42 -38 91 -57 147 -57z" />
    <glyph glyph-name="thorn.sc" horiz-adv-x="716" 
d="M118 0v582h100v-90h221c146 0 220 -75 220 -197c0 -135 -90 -204 -230 -204h-211v-91h-100zM218 177h212c90 0 128 48 128 115c0 71 -40 114 -130 114h-210v-229z" />
    <glyph glyph-name="uni0259" unicode="&#x259;" horiz-adv-x="645" 
d="M309 -15c-176 0 -253 125 -253 273c0 10 1 21 2 31h431c-7 108 -78 173 -200 173c-77 0 -141 -23 -204 -63h-1v90c50 31 124 57 209 57c195 0 294 -114 294 -269c0 -167 -110 -292 -278 -292zM311 67c92 0 157 60 174 154h-334c6 -84 56 -154 160 -154z" />
    <glyph glyph-name="zero" unicode="0" horiz-adv-x="774" 
d="M386 -16c-218 0 -323 155 -323 365c0 209 107 367 325 367c212 0 323 -155 323 -365c0 -209 -113 -367 -325 -367zM388 75c144 0 219 105 219 274c0 170 -76 276 -221 276c-144 0 -219 -105 -219 -274c0 -170 76 -276 221 -276z" />
    <glyph glyph-name="one" unicode="1" horiz-adv-x="454" 
d="M205 0v612h-151l14 88h237v-700h-100z" />
    <glyph glyph-name="one.alt" horiz-adv-x="399" 
d="M149 700h101v-700h-101v700z" />
    <glyph glyph-name="two" unicode="2" horiz-adv-x="682" 
d="M67 0v91l242 196c133 107 196 151 196 228c0 66 -47 110 -141 110c-91 0 -178 -36 -270 -117h-1v105c86 72 179 103 272 103c160 0 245 -81 245 -193c0 -114 -74 -171 -222 -287l-179 -145h410v-91h-552z" />
    <glyph glyph-name="two.alt" horiz-adv-x="697" 
d="M381 716c147 0 248 -70 248 -187c0 -109 -71 -151 -232 -223c-145 -65 -211 -122 -211 -215h438v-91h-551v33c0 178 85 261 270 345c139 62 180 89 180 147c0 69 -62 100 -146 100c-90 0 -189 -37 -269 -90h-1v101c87 52 179 80 274 80z" />
    <glyph glyph-name="three" unicode="3" horiz-adv-x="693" 
d="M336 -16c-94 0 -187 22 -269 57v98h1c93 -43 196 -66 264 -66c117 0 191 51 191 131c0 83 -83 124 -270 124h-36v56l258 225h-396l4 91h531v-82l-257 -218c173 -12 271 -73 271 -193c0 -137 -122 -223 -292 -223z" />
    <glyph glyph-name="three.alt" horiz-adv-x="688" 
d="M624 191c0 -129 -130 -207 -292 -207c-97 0 -187 18 -266 53v98h1c89 -43 192 -62 263 -62c108 0 188 43 188 124c0 80 -76 116 -230 116h-61v85h61c153 0 224 49 224 121s-58 108 -165 108c-81 0 -163 -22 -253 -68h-1v98c80 38 168 59 261 59c157 0 258 -70 258 -185
c0 -79 -53 -148 -167 -171v-2c132 -19 179 -89 179 -167z" />
    <glyph glyph-name="four" unicode="4" horiz-adv-x="755" 
d="M486 1v169h-429v77l278 453h248v-443h138l-4 -87h-134v-169h-97zM486 609h-101l-215 -352h316v352z" />
    <glyph glyph-name="five" unicode="5" horiz-adv-x="700" 
d="M343 -16c-76 0 -175 16 -266 50v99h1c96 -40 191 -59 262 -59c136 0 187 68 187 133c0 31 -8 54 -27 73c-33 32 -92 49 -250 49h-146l10 371h477l4 -91h-389l-6 -190h81c161 0 251 -21 307 -78c32 -34 46 -77 46 -131c0 -123 -104 -226 -291 -226z" />
    <glyph glyph-name="six" unicode="6" horiz-adv-x="712" 
d="M371 -16c-180 0 -306 115 -306 343c0 261 158 389 351 389c68 0 139 -16 205 -47v-95h-1c-74 35 -127 54 -201 54c-135 0 -246 -75 -253 -260c66 53 153 80 233 80c153 0 258 -73 258 -212c0 -158 -131 -252 -286 -252zM377 364c-71 0 -146 -25 -211 -76
c6 -150 97 -217 211 -217c91 0 178 54 178 159c0 96 -81 134 -178 134z" />
    <glyph glyph-name="seven" unicode="7" horiz-adv-x="683" 
d="M69 475v225h564v-149l-328 -551h-114l341 573v38h-369v-136h-94z" />
    <glyph glyph-name="seven.alt" horiz-adv-x="687" 
d="M209 0c62 259 175 410 327 573v38h-373v-136h-94v225h567v-161c-156 -159 -273 -307 -325 -539h-102z" />
    <glyph glyph-name="eight" unicode="8" horiz-adv-x="739" 
d="M370 -22c-200 0 -301 81 -301 199c0 89 58 146 159 175c-91 26 -142 80 -142 164c0 115 96 203 284 203c187 0 284 -89 284 -203c0 -84 -52 -138 -143 -164c101 -29 159 -86 159 -175c0 -118 -98 -199 -300 -199zM370 388c108 0 181 41 181 122c0 77 -68 126 -181 126
c-115 0 -181 -48 -181 -126c0 -81 73 -122 181 -122zM370 61c125 0 195 48 195 126c0 82 -80 127 -195 127c-116 0 -196 -43 -196 -127c0 -78 71 -126 196 -126z" />
    <glyph glyph-name="nine" unicode="9" horiz-adv-x="712" 
d="M341 716c180 0 306 -115 306 -343c0 -261 -158 -389 -351 -389c-68 0 -139 16 -205 47v95h1c74 -35 127 -54 201 -54c135 0 246 75 253 260c-66 -53 -153 -80 -233 -80c-153 0 -258 73 -258 212c0 158 131 252 286 252zM157 470c0 -96 81 -134 178 -134
c71 0 146 25 211 76c-6 150 -97 217 -211 217c-91 0 -178 -54 -178 -159z" />
    <glyph glyph-name="zero.osf" horiz-adv-x="749" 
d="M373 -18c-183 0 -307 117 -307 306c0 190 126 311 309 311c182 0 308 -117 308 -307c0 -189 -128 -310 -310 -310zM375 68c119 0 207 81 207 222c0 142 -88 223 -208 223c-121 0 -208 -80 -208 -223c0 -141 88 -222 209 -222z" />
    <glyph glyph-name="one.osf" horiz-adv-x="458" 
d="M209 0v495h-150l13 87h237v-582h-100z" />
    <glyph glyph-name="two.osf" horiz-adv-x="660" 
d="M75 0v89l227 153c153 100 174 134 174 178c0 58 -50 88 -124 88c-79 0 -168 -35 -248 -91h-1v101c78 48 155 78 257 78c133 0 218 -67 218 -168c0 -92 -63 -146 -222 -246l-144 -95h380v-87h-517z" />
    <glyph glyph-name="three.osf" horiz-adv-x="633" 
d="M292 -134c-75 0 -151 12 -224 40v93h1c83 -35 157 -47 220 -47c106 0 181 43 181 128c0 82 -91 124 -267 124h-20v57l261 234h-371l4 87h481v-95l-241 -212c167 -19 254 -82 254 -196c0 -133 -120 -213 -279 -213z" />
    <glyph glyph-name="four.osf" horiz-adv-x="708" 
d="M456 -123v174h-399v74l251 457h241v-448h131l-4 -83h-127v-174h-93zM164 134h292v360h-95z" />
    <glyph glyph-name="five.osf" horiz-adv-x="640" 
d="M303 -134c-59 0 -139 11 -224 37v92h1c92 -32 168 -42 222 -42c120 0 176 64 176 135c0 33 -8 58 -28 77c-33 33 -94 49 -240 49h-105l5 368h436l4 -87h-351l-3 -197l84 -1c202 -3 299 -69 299 -208c0 -125 -103 -223 -276 -223z" />
    <glyph glyph-name="six.osf" horiz-adv-x="697" 
d="M360 -16c-177 0 -289 114 -289 333c0 243 136 399 352 399c46 0 107 -6 167 -29v-89h-1c-65 24 -110 32 -160 32c-163 0 -247 -108 -259 -255c65 50 141 77 218 77c134 0 240 -74 240 -214c0 -153 -118 -254 -268 -254zM364 370c-65 0 -130 -23 -195 -74
c2 -160 84 -226 195 -226c88 0 166 62 166 162c0 99 -82 138 -166 138z" />
    <glyph glyph-name="seven.osf" horiz-adv-x="644" 
d="M588 582v-150l-307 -555h-111l317 570v50h-324v-134h-93v219h518z" />
    <glyph glyph-name="eight.osf" horiz-adv-x="698" 
d="M350 -22c-180 0 -280 80 -280 198c0 83 49 145 142 176c-78 29 -126 84 -126 164c0 110 90 203 264 203c172 0 262 -93 262 -203c0 -80 -48 -135 -126 -164c93 -31 143 -93 143 -176c0 -118 -98 -198 -279 -198zM350 387c97 0 163 47 163 124c0 75 -64 127 -163 127
c-102 0 -165 -50 -165 -127s66 -124 165 -124zM350 59c109 0 177 48 177 128c0 77 -72 128 -177 128c-109 0 -179 -49 -179 -128c0 -80 67 -128 179 -128z" />
    <glyph glyph-name="nine.osf" horiz-adv-x="697" 
d="M337 596c177 0 289 -114 289 -333c0 -243 -136 -399 -352 -399c-46 0 -107 6 -167 29v89h1c65 -24 110 -32 160 -32c163 0 247 108 259 255c-65 -50 -141 -77 -218 -77c-134 0 -240 74 -240 214c0 153 118 254 268 254zM167 348c0 -99 82 -138 166 -138
c65 0 130 23 195 74c-2 160 -84 226 -195 226c-88 0 -166 -62 -166 -162z" />
    <glyph glyph-name="period" unicode="." horiz-adv-x="373" 
d="M186 -12c-51 0 -78 35 -78 74v1c0 38 27 73 78 73s79 -35 79 -73v-1c0 -39 -28 -74 -79 -74z" />
    <glyph glyph-name="comma" unicode="," horiz-adv-x="340" 
d="M68 -154l54 299h137v-10l-133 -289h-58z" />
    <glyph glyph-name="colon" unicode=":" horiz-adv-x="373" 
d="M186 345c-51 0 -78 35 -78 73v1c0 39 27 73 78 73s79 -34 79 -73v-1c0 -38 -28 -73 -79 -73zM186 -12c-51 0 -78 35 -78 74v1c0 38 27 73 78 73s79 -35 79 -73v-1c0 -39 -28 -74 -79 -74z" />
    <glyph glyph-name="colon.fig" horiz-adv-x="373" 
d="M186 455c-51 0 -78 35 -78 73v1c0 39 27 73 78 73s79 -34 79 -73v-1c0 -38 -28 -73 -79 -73zM186 98c-51 0 -78 35 -78 74v1c0 38 27 73 78 73s79 -35 79 -73v-1c0 -39 -28 -74 -79 -74z" />
    <glyph glyph-name="semicolon" unicode=";" horiz-adv-x="373" 
d="M186 345c-51 0 -78 35 -78 73v1c0 39 27 73 78 73s79 -34 79 -73v-1c0 -38 -28 -73 -79 -73zM68 -154l54 299h137v-10l-133 -289h-58z" />
    <glyph glyph-name="ellipsis" unicode="&#x2026;" horiz-adv-x="1120" 
d="M186 -12c-51 0 -78 35 -78 74v1c0 38 27 73 78 73s79 -35 79 -73v-1c0 -39 -28 -74 -79 -74zM559 -12c-51 0 -78 35 -78 74v1c0 38 27 73 78 73s79 -35 79 -73v-1c0 -39 -28 -74 -79 -74zM932 -12c-51 0 -78 35 -78 74v1c0 38 27 73 78 73s79 -35 79 -73v-1
c0 -39 -28 -74 -79 -74z" />
    <glyph glyph-name="periodcentered" unicode="&#xb7;" horiz-adv-x="373" 
d="M186 225c-51 0 -78 35 -78 73v1c0 39 27 73 78 73s79 -34 79 -73v-1c0 -38 -28 -73 -79 -73z" />
    <glyph glyph-name="periodcentered.cap" horiz-adv-x="373" 
d="M186 276c-51 0 -78 35 -78 73v1c0 39 27 73 78 73s79 -34 79 -73v-1c0 -38 -28 -73 -79 -73z" />
    <glyph glyph-name="ampersand" unicode="&#x26;" horiz-adv-x="860" 
d="M276 -16c-121 0 -207 61 -207 175c0 100 77 172 221 256l26 15l-151 170v100h507l4 -87h-392l317 -360l193 179h1v-116l-141 -127l167 -189h-124l-112 125c-105 -86 -193 -141 -309 -141zM172 167c0 -59 47 -94 115 -94c73 0 143 35 244 117l-158 177l-20 -12
c-126 -75 -181 -121 -181 -188z" />
    <glyph glyph-name="ampersand.sc" horiz-adv-x="791" 
d="M252 -15c-105 0 -176 53 -176 144c0 86 57 139 178 217l27 17l-126 127v92h461l3 -80h-350l275 -281l175 145v-106l-119 -98l162 -162h-121l-107 107c-113 -86 -188 -122 -282 -122zM175 140c0 -47 36 -71 84 -71c55 0 111 18 216 99l-137 138l-23 -14
c-104 -66 -140 -104 -140 -152z" />
    <glyph glyph-name="exclam" unicode="!" horiz-adv-x="390" 
d="M156 240l-28 458v2h134v-2l-28 -458h-78zM195 -12c-51 0 -78 35 -78 74v1c0 38 27 73 78 73s78 -35 78 -73v-1c0 -39 -27 -74 -78 -74z" />
    <glyph glyph-name="exclamdown" unicode="&#xa1;" horiz-adv-x="390" 
d="M195 547c51 0 78 -35 78 -73v-1c0 -39 -27 -73 -78 -73s-78 34 -78 73v1c0 38 27 73 78 73zM234 296l28 -459v-1h-134v1l28 459h78z" />
    <glyph glyph-name="exclamdown.cap" horiz-adv-x="390" 
d="M195 712c51 0 78 -35 78 -74v-1c0 -38 -27 -73 -78 -73s-78 35 -78 73v1c0 39 27 74 78 74zM234 460l28 -458v-2h-134v2l28 458h78z" />
    <glyph glyph-name="question" unicode="?" horiz-adv-x="633" 
d="M55 639c82 45 179 77 290 77c147 0 264 -62 264 -187c0 -122 -102 -196 -375 -267h-1v89c217 63 272 113 272 175c0 68 -67 101 -166 101c-95 0 -194 -34 -283 -89h-1v101zM282 -12c-52 0 -79 35 -79 74v1c0 38 27 73 79 73c50 0 78 -35 78 -73v-1c0 -39 -28 -74 -78 -74
z" />
    <glyph glyph-name="questiondown" unicode="&#xbf;" horiz-adv-x="633" 
d="M351 547c52 0 79 -35 79 -73v-1c0 -39 -27 -73 -79 -73c-50 0 -78 34 -78 73v1c0 38 28 73 78 73zM578 -104c-82 -44 -179 -76 -290 -76c-147 0 -264 62 -264 187c0 122 102 196 375 267h1v-90c-217 -63 -272 -112 -272 -174c0 -69 67 -102 166 -102c95 0 194 34 283 90
h1v-102z" />
    <glyph glyph-name="questiondown.cap" horiz-adv-x="633" 
d="M351 712c52 0 79 -35 79 -74v-1c0 -38 -27 -73 -79 -73c-50 0 -78 35 -78 73v1c0 39 28 74 78 74zM578 61c-82 -45 -179 -77 -290 -77c-147 0 -264 62 -264 187c0 122 102 196 375 267h1v-89c-217 -63 -272 -113 -272 -175c0 -68 67 -101 166 -101c95 0 194 34 283 89h1
v-101z" />
    <glyph glyph-name="quotedblleft" unicode="&#x201c;" horiz-adv-x="588" 
d="M81 416v9l118 275h57l-51 -284h-124zM317 416v9l118 275h58l-52 -284h-124z" />
    <glyph glyph-name="quotedblright" unicode="&#x201d;" horiz-adv-x="588" 
d="M96 416l51 284h124v-9l-118 -275h-57zM332 416l51 284h124v-9l-118 -275h-57z" />
    <glyph glyph-name="quoteleft" unicode="&#x2018;" horiz-adv-x="355" 
d="M81 416v9l121 275h57l-51 -284h-127z" />
    <glyph glyph-name="quoteright" unicode="&#x2019;" horiz-adv-x="355" 
d="M96 416l51 284h127v-9l-121 -275h-57z" />
    <glyph glyph-name="quotedblbase" unicode="&#x201e;" horiz-adv-x="561" 
d="M69 -139l51 284h124v-9l-118 -275h-57zM305 -139l51 284h124v-9l-118 -275h-57z" />
    <glyph glyph-name="quotesinglbase" unicode="&#x201a;" horiz-adv-x="328" 
d="M69 -139l51 284h127v-9l-121 -275h-57z" />
    <glyph glyph-name="guillemotleft" unicode="&#xab;" horiz-adv-x="741" 
d="M370 491l-191 -225l191 -225h-112l-192 222v6l192 222h112zM665 491l-192 -225l192 -225h-113l-191 222v6l191 222h113z" />
    <glyph glyph-name="guillemotleft.cap" horiz-adv-x="741" 
d="M370 575l-191 -225l191 -225h-112l-192 222v6l192 222h112zM665 575l-192 -225l192 -225h-113l-191 222v6l191 222h113z" />
    <glyph glyph-name="guillemotright" unicode="&#xbb;" horiz-adv-x="741" 
d="M371 41l191 225l-191 225h112l192 -222v-6l-192 -222h-112zM76 41l192 225l-192 225h113l191 -222v-6l-191 -222h-113z" />
    <glyph glyph-name="guillemotright.cap" horiz-adv-x="741" 
d="M371 125l191 225l-191 225h112l192 -222v-6l-192 -222h-112zM76 125l192 225l-192 225h113l191 -222v-6l-191 -222h-113z" />
    <glyph glyph-name="guilsinglleft" unicode="&#x2039;" horiz-adv-x="449" 
d="M373 41h-115l-192 222v6l192 222h115l-192 -225z" />
    <glyph glyph-name="guilsinglleft.cap" horiz-adv-x="449" 
d="M373 125h-115l-192 222v6l192 222h115l-192 -225z" />
    <glyph glyph-name="guilsinglright" unicode="&#x203a;" horiz-adv-x="449" 
d="M76 491h115l192 -222v-6l-192 -222h-115l192 225z" />
    <glyph glyph-name="guilsinglright.cap" horiz-adv-x="449" 
d="M76 575h115l192 -222v-6l-192 -222h-115l192 225z" />
    <glyph glyph-name="hyphen" unicode="-" horiz-adv-x="439" 
d="M57 271v96h324v-96h-324z" />
    <glyph glyph-name="hyphen.cap" horiz-adv-x="439" 
d="M57 302v96h324v-96h-324z" />
    <glyph glyph-name="endash" unicode="&#x2013;" horiz-adv-x="703" 
d="M81 272v93h541v-93h-541z" />
    <glyph glyph-name="endash.cap" horiz-adv-x="703" 
d="M81 303v93h541v-93h-541z" />
    <glyph glyph-name="emdash" unicode="&#x2014;" horiz-adv-x="860" 
d="M81 272v93h698v-93h-698z" />
    <glyph glyph-name="emdash.cap" horiz-adv-x="860" 
d="M81 303v93h698v-93h-698z" />
    <glyph glyph-name="underscore" unicode="_" horiz-adv-x="716" 
d="M-4 -159v84h724v-84h-724z" />
    <glyph glyph-name="slash" unicode="/" horiz-adv-x="531" 
d="M65 -190l316 940h94l-317 -940h-93z" />
    <glyph glyph-name="slash.cap" horiz-adv-x="531" 
d="M61 -120l316 940h94l-317 -940h-93z" />
    <glyph glyph-name="bar" unicode="|" horiz-adv-x="506" 
d="M206 -190v940h93v-940h-93z" />
    <glyph glyph-name="bar.cap" horiz-adv-x="506" 
d="M206 -120v940h93v-940h-93z" />
    <glyph glyph-name="backslash" unicode="\" horiz-adv-x="531" 
d="M467 -190h-94l-317 940h94z" />
    <glyph glyph-name="backslash.cap" horiz-adv-x="531" 
d="M471 -120h-94l-317 940h94z" />
    <glyph glyph-name="parenleft" unicode="(" horiz-adv-x="438" 
d="M179 280c0 -151 56 -303 202 -470h-113c-138 158 -191 321 -191 470s55 312 191 470h113c-146 -167 -202 -319 -202 -470z" />
    <glyph glyph-name="parenleft.cap" horiz-adv-x="438" 
d="M179 350c0 -151 56 -303 202 -470h-113c-138 158 -191 321 -191 470s55 312 191 470h113c-146 -167 -202 -319 -202 -470z" />
    <glyph glyph-name="parenright" unicode=")" horiz-adv-x="438" 
d="M259 280c0 151 -56 303 -202 470h113c138 -158 191 -321 191 -470s-55 -312 -191 -470h-113c146 167 202 319 202 470z" />
    <glyph glyph-name="parenright.cap" horiz-adv-x="438" 
d="M259 350c0 151 -56 303 -202 470h113c138 -158 191 -321 191 -470s-55 -312 -191 -470h-113c146 167 202 319 202 470z" />
    <glyph glyph-name="bracketleft" unicode="[" horiz-adv-x="453" 
d="M101 -190v940h291v-79h-195v-782h195v-79h-291z" />
    <glyph glyph-name="bracketleft.cap" horiz-adv-x="453" 
d="M101 -120v940h291v-79h-195v-782h195v-79h-291z" />
    <glyph glyph-name="bracketright" unicode="]" horiz-adv-x="453" 
d="M352 750v-940h-291v79h195v782h-195v79h291z" />
    <glyph glyph-name="bracketright.cap" horiz-adv-x="453" 
d="M352 820v-940h-291v79h195v782h-195v79h291z" />
    <glyph glyph-name="braceleft" unicode="{" horiz-adv-x="534" 
d="M36 271v18l145 129c-7 47 -14 106 -14 115c-16 169 81 229 203 229c40 0 73 -5 103 -14v-85h-1c-27 9 -58 14 -87 14c-75 0 -131 -33 -121 -150c0 -11 10 -90 17 -142l-127 -105l127 -105c-7 -52 -17 -131 -17 -142c-10 -117 46 -147 121 -147c29 0 60 5 87 14h1v-88
c-30 -9 -63 -14 -103 -14c-122 0 -219 60 -203 229c0 9 7 68 14 115z" />
    <glyph glyph-name="braceleft.cap" horiz-adv-x="534" 
d="M36 341v18l145 129c-7 47 -14 106 -14 115c-16 169 81 229 203 229c40 0 73 -5 103 -14v-85h-1c-27 9 -58 14 -87 14c-75 0 -131 -33 -121 -150c0 -11 10 -90 17 -142l-127 -105l127 -105c-7 -52 -17 -131 -17 -142c-10 -117 46 -147 121 -147c29 0 60 5 87 14h1v-88
c-30 -9 -63 -14 -103 -14c-122 0 -219 60 -203 229c0 9 7 68 14 115z" />
    <glyph glyph-name="braceright" unicode="}" horiz-adv-x="534" 
d="M498 289v-18l-145 -129c7 -47 14 -106 14 -115c16 -169 -81 -229 -203 -229c-40 0 -73 5 -103 14v85h1c27 -9 58 -14 87 -14c75 0 131 33 121 150c0 11 -10 90 -17 142l127 105l-127 105c7 52 17 131 17 142c10 117 -46 147 -121 147c-29 0 -60 -5 -87 -14h-1v88
c30 9 63 14 103 14c122 0 219 -60 203 -229c0 -9 -7 -68 -14 -115z" />
    <glyph glyph-name="braceright.cap" horiz-adv-x="534" 
d="M498 359v-18l-145 -129c7 -47 14 -106 14 -115c16 -169 -81 -229 -203 -229c-40 0 -73 5 -103 14v85h1c27 -9 58 -14 87 -14c75 0 131 33 121 150c0 11 -10 90 -17 142l127 105l-127 105c7 52 17 131 17 142c10 117 -46 147 -121 147c-29 0 -60 -5 -87 -14h-1v88
c30 9 63 14 103 14c122 0 219 -60 203 -229c0 -9 -7 -68 -14 -115z" />
    <glyph glyph-name="at" unicode="@" horiz-adv-x="1095" 
d="M813 121c-65 0 -116 24 -137 80c-49 -49 -104 -78 -168 -78c-87 0 -134 46 -134 110c0 33 12 59 31 78c31 31 98 60 256 69v15c0 56 -31 84 -91 84c-59 0 -114 -22 -165 -59v77c55 36 114 53 175 53c109 0 163 -58 163 -157v-117c0 -63 28 -87 75 -87
c67 0 109 57 109 188c0 172 -106 313 -347 313s-397 -137 -397 -380c0 -230 140 -346 379 -346c116 0 207 23 296 67v-79c-76 -38 -186 -63 -296 -63c-303 0 -463 158 -463 421c1 285 197 455 481 455c280 0 426 -162 426 -387c0 -148 -58 -257 -193 -257zM526 185
c52 0 100 26 135 61v80c-112 -8 -165 -22 -190 -48c-13 -13 -16 -27 -16 -39c0 -34 27 -54 71 -54z" />
    <glyph glyph-name="at.cap" horiz-adv-x="1095" 
d="M813 144c-65 0 -116 24 -137 80c-49 -49 -104 -78 -168 -78c-87 0 -134 46 -134 110c0 33 12 59 31 78c31 31 98 60 256 69v15c0 56 -31 84 -91 84c-59 0 -114 -22 -165 -59v77c55 36 114 53 175 53c109 0 163 -58 163 -157v-117c0 -63 28 -87 75 -87
c67 0 109 57 109 188c0 172 -106 313 -347 313s-397 -137 -397 -380c0 -230 140 -346 379 -346c116 0 207 23 296 67v-79c-76 -38 -186 -63 -296 -63c-303 0 -463 158 -463 421c1 285 197 455 481 455c280 0 426 -162 426 -387c0 -148 -58 -257 -193 -257zM526 208
c52 0 100 26 135 61v80c-112 -8 -165 -22 -190 -48c-13 -13 -16 -27 -16 -39c0 -34 27 -54 71 -54z" />
    <glyph glyph-name="paragraph" unicode="&#xb6;" horiz-adv-x="842" 
d="M632 0v616h-150v-418h-84c-218 0 -335 63 -335 239c0 177 108 263 316 263h346v-700h-93z" />
    <glyph glyph-name="section" unicode="&#xa7;" horiz-adv-x="769" 
d="M339 -206c-108 0 -197 32 -248 64v95h1c61 -40 145 -73 245 -73c87 0 157 28 203 78c-179 29 -292 93 -355 160c-64 66 -100 146 -100 253c0 194 134 345 361 345c98 0 168 -24 203 -46v-95h-1c-45 29 -110 55 -200 55c-89 0 -159 -28 -206 -77c176 -29 291 -94 355 -161
c63 -66 99 -146 99 -253c0 -194 -134 -345 -357 -345zM262 175c57 -60 150 -117 321 -150c13 32 20 68 20 109c0 86 -36 151 -83 201c-57 60 -155 117 -322 150c-13 -32 -20 -68 -20 -109c0 -86 36 -150 84 -201z" />
    <glyph glyph-name="copyright" unicode="&#xa9;" horiz-adv-x="969" 
d="M484 -46c-258 0 -425 157 -425 396s167 396 425 396c259 0 425 -157 425 -396s-166 -396 -425 -396zM484 23c212 0 346 124 346 327s-134 327 -346 327c-211 0 -345 -124 -345 -327s134 -327 345 -327zM499 165c-132 0 -200 83 -200 188c0 104 76 189 204 189
c58 0 106 -18 140 -45v-71h-1c-41 30 -82 50 -133 50c-81 0 -132 -54 -132 -123c0 -72 43 -122 131 -122c57 0 95 20 134 50h1v-72c-31 -22 -79 -44 -144 -44z" />
    <glyph glyph-name="uni2117" unicode="&#x2117;" horiz-adv-x="969" 
d="M484 -46c-258 0 -425 157 -425 396s167 396 425 396c259 0 425 -157 425 -396s-166 -396 -425 -396zM484 23c212 0 346 124 346 327s-134 327 -346 327c-211 0 -345 -124 -345 -327s134 -327 345 -327zM332 171v362h205c95 0 150 -47 150 -131c0 -92 -64 -136 -155 -136
h-126v-95h-74zM406 328h125c58 0 81 30 81 71c0 45 -25 72 -82 72h-124v-143z" />
    <glyph glyph-name="registered" unicode="&#xae;" horiz-adv-x="704" 
d="M352 207c-177 0 -289 113 -289 270s113 269 289 269c178 0 290 -112 290 -269s-114 -270 -290 -270zM352 262c138 0 226 85 226 215s-88 214 -227 214c-137 0 -225 -84 -225 -214s88 -215 226 -215zM240 354v250h138c73 0 106 -33 106 -89c0 -34 -16 -66 -59 -79l66 -80
v-2h-60l-60 74h-78v-74h-53zM293 472h82c39 0 56 15 56 43c0 29 -17 43 -55 43h-83v-86z" />
    <glyph glyph-name="uni2120" unicode="&#x2120;" horiz-adv-x="1008" 
d="M249 331c-64 0 -126 17 -168 40v67c51 -30 120 -48 171 -48c62 0 90 16 90 47s-23 39 -111 58c-94 19 -144 37 -144 104c0 61 53 110 160 110c53 0 106 -13 147 -33v-67h-1c-44 24 -100 40 -151 40c-54 0 -86 -16 -86 -44s22 -37 110 -54c90 -19 146 -42 146 -110
c0 -50 -29 -110 -163 -110zM510 339v361h94l113 -212l111 212h94v-361h-67v283l-135 -247h-8l-136 249v-285h-66z" />
    <glyph glyph-name="trademark" unicode="&#x2122;" horiz-adv-x="1008" 
d="M214 338v300h-148l3 62h360l3 -62h-148v-300h-70zM511 339v361h94l112 -213l112 213h93v-361h-66v285l-136 -249h-8l-135 247v-283h-66z" />
    <glyph glyph-name="asterisk" unicode="*" horiz-adv-x="504" 
d="M355 372l-86 61l-50 -91l-25 5l-5 105l-104 -19l-11 24l80 70l-80 69l12 24l102 -18l5 105l26 6l51 -94l86 63l20 -16l-41 -97l101 -28v-27l-102 -28l42 -97z" />
    <glyph glyph-name="dagger" unicode="&#x2020;" horiz-adv-x="535" 
d="M225 198v301h-149l4 75h145v137h87v-137h146v-75h-146v-301h-87z" />
    <glyph glyph-name="daggerdbl" unicode="&#x2021;" horiz-adv-x="537" 
d="M225 152v137h-146v75h146v135h-149l4 75h145v137h87v-137h146v-75h-146v-135h149l-4 -75h-145v-137h-87z" />
    <glyph glyph-name="bullet" unicode="&#x2022;" horiz-adv-x="409" 
d="M204 203c-78 0 -121 54 -121 115v1c0 62 43 114 121 114s122 -52 122 -114v-1c0 -61 -44 -115 -122 -115z" />
    <glyph glyph-name="bullet.cap" horiz-adv-x="409" 
d="M204 235c-78 0 -121 54 -121 115v1c0 62 43 114 121 114s122 -52 122 -114v-1c0 -61 -44 -115 -122 -115z" />
    <glyph glyph-name="asciicircum" unicode="^" horiz-adv-x="707" 
d="M84 370l192 330h152l195 -330h-109l-138 237h-49l-136 -237h-107z" />
    <glyph glyph-name="asciitilde" unicode="&#x223c;" horiz-adv-x="749" 
d="M93 366c40 48 90 83 153 83c54 0 90 -19 149 -56c59 -36 77 -43 110 -43c52 0 97 38 149 108h1v-123c-40 -49 -89 -84 -152 -84c-55 0 -90 19 -150 56c-58 36 -77 44 -109 44c-52 0 -97 -39 -150 -109h-1v124z" />
    <glyph glyph-name="asciitilde" unicode="~" horiz-adv-x="749" 
d="M93 366c40 48 90 83 153 83c54 0 90 -19 149 -56c59 -36 77 -43 110 -43c52 0 97 38 149 108h1v-123c-40 -49 -89 -84 -152 -84c-55 0 -90 19 -150 56c-58 36 -77 44 -109 44c-52 0 -97 -39 -150 -109h-1v124z" />
    <glyph glyph-name="dollar" unicode="$" horiz-adv-x="716" 
d="M315 -116v130c-83 9 -158 37 -219 71v100h1c89 -55 201 -85 285 -85c102 0 159 39 159 101c0 58 -41 81 -195 114c-133 27 -240 59 -240 179c0 95 74 177 217 192v119h93v-118c65 -7 138 -28 197 -62v-101h-1c-78 51 -172 76 -246 76c-97 0 -156 -37 -156 -96
c0 -56 39 -76 194 -109c135 -28 240 -67 240 -186c0 -84 -54 -189 -236 -198v-117z" />
    <glyph glyph-name="cent" unicode="&#xa2;" horiz-adv-x="596" 
d="M281 -36v142c-123 21 -206 109 -206 240c0 126 88 226 214 248v119h91v-116c56 -5 100 -21 140 -47v-92h-1c-54 38 -112 56 -164 56c-108 0 -183 -67 -183 -168c0 -94 72 -160 182 -160c55 0 110 18 164 56h1v-92c-41 -26 -89 -43 -146 -48v-127z" />
    <glyph glyph-name="sterling" unicode="&#xa3;" horiz-adv-x="710" 
d="M70 311l14 84h124l20 69c52 178 129 252 265 252c46 0 92 -12 125 -31v-93h-1c-37 21 -77 32 -117 32c-76 0 -131 -33 -171 -167l-18 -62h278v-84h-303l-66 -221h421v-90h-549l91 311h-113z" />
    <glyph glyph-name="Euro" unicode="&#x20ac;" horiz-adv-x="795" 
d="M50 227l7 69h105c-1 15 -2 30 -2 46c0 19 1 38 4 57h-95l7 69h103c44 141 163 244 345 244c73 0 136 -16 188 -44v-95h-1c-66 35 -125 52 -189 52c-120 0 -204 -61 -242 -157h302v-69h-320c-3 -18 -4 -37 -4 -56c0 -16 1 -32 3 -47h321v-69h-304
c35 -93 117 -152 239 -152c65 0 126 15 194 48h1v-95c-54 -25 -125 -40 -202 -40c-187 0 -298 101 -335 239h-125z" />
    <glyph glyph-name="yen" unicode="&#xa5;" horiz-adv-x="803" 
d="M108 139l6 74h238v38l-36 60h-196l5 75h145l-190 314h110l210 -346h4l211 346h108l-191 -314h145l6 -75h-197l-35 -58v-40h238l5 -74h-243v-139h-99v139h-244z" />
    <glyph glyph-name="uni20B9" unicode="&#x20b9;" horiz-adv-x="749" 
d="M590 0h-149l-330 219v76h197c118 0 164 51 175 126h-372v74h372c-11 81 -62 126 -180 126h-192v79h586l-5 -79h-184c39 -27 63 -69 71 -123h102l-4 -79h-97c-14 -115 -94 -199 -251 -199h-75z" />
    <glyph glyph-name="colonmonetary" unicode="&#x20a1;" horiz-adv-x="725" 
d="M177 -109l42 155c-104 61 -155 172 -155 296c0 183 118 341 330 361l27 102h81l-27 -101c39 -3 74 -10 107 -21l32 122h81l-191 -719c42 7 82 21 126 42h1v-92c-41 -19 -93 -33 -151 -38l-28 -107h-81l28 105c-39 2 -76 8 -108 18l-34 -123h-80zM311 101
c35 -14 75 -21 117 -21l137 515c-39 14 -76 20 -117 21zM162 343c0 -85 29 -157 84 -204l127 476c-135 -25 -211 -133 -211 -272z" />
    <glyph glyph-name="uni20A6" unicode="&#x20a6;" horiz-adv-x="922" 
d="M183 0v235h-127l7 70h120v102h-109l8 70h101v223h130l132 -223h213v223h92v-223h108v-69h-108v-103h108v-69h-108v-236h-124l-139 235h-212v-235h-92zM275 571v-269h172l-159 269h-13zM645 139h13v271h-173z" />
    <glyph glyph-name="uni20B1" unicode="&#x20b1;" horiz-adv-x="857" 
d="M175 0v412h-114l13 73h101v215h304c161 0 250 -78 262 -215h83v-73h-84c-16 -143 -118 -214 -270 -214h-196v-198h-99zM274 614v-131h367c-10 88 -65 131 -168 131h-199zM274 283h200c103 0 156 47 167 131h-367v-131z" />
    <glyph glyph-name="R_p" horiz-adv-x="1469" 
d="M131 0v700h330c172 0 257 -84 257 -230c0 -114 -58 -192 -170 -218l193 -252h-119l-176 234h-215v-234h-100zM231 324h228c112 0 157 61 157 143c0 83 -45 142 -157 142h-228v-285zM863 -190v722h98l1 -76c42 47 107 91 196 91c136 0 247 -98 247 -274
c0 -163 -122 -288 -285 -288c-68 0 -115 19 -157 47v-222h-100zM1112 71c116 0 192 84 192 197c0 130 -79 194 -177 194c-65 0 -126 -34 -164 -74v-257c42 -37 86 -60 149 -60z" />
    <glyph glyph-name="uni20A8" unicode="&#x20a8;" horiz-adv-x="1357" 
d="M131 0v700h330c172 0 257 -84 257 -230c0 -114 -58 -192 -170 -218l193 -252h-119l-176 234h-215v-234h-100zM231 324h228c112 0 157 61 157 143c0 83 -45 142 -157 142h-228v-285zM1071 -15c-78 0 -160 20 -234 63v92h1c68 -46 155 -72 237 -72s123 30 123 77
c0 42 -26 60 -158 87c-136 28 -199 63 -199 153s81 162 220 162c85 0 159 -27 206 -54v-92h-1c-66 39 -145 63 -213 63c-70 0 -113 -29 -113 -72c0 -44 37 -60 164 -86c143 -30 193 -73 193 -158c0 -76 -54 -163 -226 -163z" />
    <glyph glyph-name="uni20BD" unicode="&#x20bd;" horiz-adv-x="807" 
d="M52 111l8 75h123v98h-114l9 77h105v339h313c176 0 252 -79 252 -207c0 -137 -86 -209 -261 -209h-204v-98h333v-75h-333v-111h-100v111h-131zM283 361h203c126 0 164 49 164 126c0 84 -43 127 -163 127h-204v-253z" />
    <glyph glyph-name="uni2116" unicode="&#x2116;" horiz-adv-x="1462" 
d="M1148 708c156 0 248 -98 248 -235c0 -135 -93 -236 -249 -236c-157 0 -249 99 -249 236c0 134 93 235 250 235zM139 0v700h125l364 -546h12v546h97v-700h-117l-372 556h-12v-556h-97zM1148 627c-98 0 -157 -64 -157 -155c0 -92 57 -155 156 -155c98 0 156 65 156 157
c0 91 -56 153 -155 153zM934 85h427l1 -85h-429z" />
    <glyph glyph-name="numbersign" unicode="#" horiz-adv-x="937" 
d="M162 0l38 155h-134v78h153l58 234h-149v78h168l38 155h91l-38 -155h258l38 155h92l-38 -155h133v-78h-152l-58 -234h148v-78h-167l-38 -155h-92l38 155h-258l-38 -155h-91zM310 233h258l58 234h-258z" />
    <glyph glyph-name="percent" unicode="%" horiz-adv-x="1051" 
d="M249 353c-116 0 -191 68 -191 177c0 111 77 181 192 181c116 0 192 -69 192 -180c0 -108 -78 -178 -193 -178zM162 1l313 349l315 350h99v-1l-313 -349l-314 -350h-100v1zM250 423c65 0 109 40 109 107c0 68 -45 110 -110 110c-64 0 -110 -40 -110 -109
c0 -67 46 -108 111 -108zM802 347c116 0 192 -68 192 -177c0 -110 -77 -181 -193 -181c-115 0 -191 69 -191 180c0 108 78 178 192 178zM801 277c-64 0 -109 -40 -109 -107c0 -68 46 -110 110 -110s110 40 110 109c0 67 -46 108 -111 108z" />
    <glyph glyph-name="degree" unicode="&#xb0;" horiz-adv-x="562" 
d="M281 298c-130 0 -218 81 -218 206c0 124 88 207 218 207s219 -80 219 -205s-89 -208 -219 -208zM282 374c74 0 130 50 130 131c0 82 -54 130 -131 130c-75 0 -130 -49 -130 -131s54 -130 131 -130z" />
    <glyph glyph-name="quotedbl" unicode="&#x22;" horiz-adv-x="563" 
d="M109 416v284h124v-9l-67 -275h-57zM353 416v284h124v-9l-67 -275h-57z" />
    <glyph glyph-name="quotesingle" unicode="'" horiz-adv-x="319" 
d="M109 416v284h124v-9l-67 -275h-57z" />
    <glyph glyph-name="ordfeminine" unicode="&#xaa;" horiz-adv-x="535" 
d="M203 270c-94 0 -143 47 -143 114c0 38 15 65 35 84c33 33 105 64 274 73v16c0 56 -32 84 -100 84c-58 0 -123 -23 -177 -62h-1v82c59 37 119 55 184 55c120 0 179 -60 179 -164v-270h-80l-2 68c-47 -51 -96 -80 -169 -80zM221 337c62 0 107 29 148 73v75
c-125 -9 -179 -25 -207 -52c-12 -12 -17 -25 -17 -40c0 -39 30 -56 76 -56z" />
    <glyph glyph-name="ordmasculine" unicode="&#xba;" horiz-adv-x="588" 
d="M294 269c-149 0 -237 94 -237 224c0 127 89 223 237 223c149 0 237 -94 237 -223c0 -128 -89 -224 -237 -224zM294 344c92 0 148 63 148 149s-53 149 -148 149c-92 0 -148 -63 -148 -149c0 -87 54 -149 148 -149z" />
    <glyph glyph-name="plus" unicode="+" horiz-adv-x="734" 
d="M99 306v88h221v224h94v-224h221v-88h-221v-224h-94v224h-221z" />
    <glyph glyph-name="minus" unicode="&#x2212;" horiz-adv-x="702" 
d="M103 303v94h496v-94h-496z" />
    <glyph glyph-name="equal" unicode="=" horiz-adv-x="768" 
d="M117 442v88h534v-88h-534zM117 170v88h534v-88h-534z" />
    <glyph glyph-name="divide" unicode="&#xf7;" horiz-adv-x="774" 
d="M387 634c43 0 69 -29 69 -64s-26 -64 -69 -64c-44 0 -70 29 -70 64s26 64 70 64zM103 306v88h569v-88h-569zM388 66c-44 0 -70 29 -70 64s26 64 69 64c44 0 70 -29 70 -64s-26 -64 -69 -64z" />
    <glyph glyph-name="multiply" unicode="&#xd7;" horiz-adv-x="714" 
d="M110 534l63 62l184 -183l185 183l62 -62l-184 -184l184 -183l-62 -63l-185 184l-184 -184l-63 63l185 183z" />
    <glyph glyph-name="dotmath" unicode="&#x22c5;" horiz-adv-x="360" 
d="M180 276c-51 0 -78 35 -78 73v2c0 38 27 72 78 72s78 -34 78 -72v-2c0 -38 -27 -73 -78 -73z" />
    <glyph glyph-name="plusminus" unicode="&#xb1;" horiz-adv-x="753" 
d="M132 395v89h197v197h95v-197h198v-89h-198v-198h-95v198h-197zM132 0v84h490v-84h-490z" />
    <glyph glyph-name="less" unicode="&#x3c;" horiz-adv-x="670" 
d="M542 84l-435 219v97l435 218v-100l-333 -166l333 -168v-100z" />
    <glyph glyph-name="greater" unicode="&#x3e;" horiz-adv-x="670" 
d="M128 615l435 -219v-97l-435 -218v100l333 166l-333 168v100z" />
    <glyph glyph-name="onehalf" unicode="&#xbd;" horiz-adv-x="1019" 
d="M159 297v337h-105l13 66h175v-403h-83zM168 1l496 699h85v-1l-496 -699h-85v1zM622 0v65l143 116c83 66 101 83 101 113c0 32 -27 50 -73 50c-49 0 -101 -22 -156 -65h-1v78c52 37 104 57 163 57c99 0 148 -46 148 -113c0 -66 -41 -94 -136 -169l-78 -64h216v-68h-327z
" />
    <glyph glyph-name="onethird" unicode="&#x2153;" horiz-adv-x="1029" 
d="M159 297v337h-105l13 66h175v-403h-83zM168 1l496 699h85v-1l-496 -699h-85v1zM786 -11c-57 0 -106 12 -154 31v72h1c50 -21 99 -36 144 -36c64 0 104 24 104 64c0 41 -30 60 -146 60h-16v39l143 118h-223l2 66h312v-64l-130 -109c93 -9 140 -46 140 -112
c0 -79 -71 -129 -177 -129z" />
    <glyph glyph-name="twothirds" unicode="&#x2154;" horiz-adv-x="1155" 
d="M77 297v65l143 116c83 66 101 83 101 113c0 32 -27 50 -73 50c-49 0 -101 -22 -156 -65h-1v78c52 37 104 57 163 57c99 0 148 -46 148 -113c0 -66 -41 -94 -136 -169l-78 -64h216v-68h-327zM294 1l496 699h85v-1l-496 -699h-85v1zM912 -11c-57 0 -106 12 -154 31v72h1
c50 -21 99 -36 144 -36c64 0 104 24 104 64c0 41 -30 60 -146 60h-16v39l143 118h-223l2 66h312v-64l-130 -109c93 -9 140 -46 140 -112c0 -79 -71 -129 -177 -129z" />
    <glyph glyph-name="onequarter" unicode="&#xbc;" horiz-adv-x="997" 
d="M159 297v337h-105l13 66h175v-403h-83zM168 1l496 699h85v-1l-496 -699h-85v1zM817 0v87h-248v61l129 255h194v-250h70l-3 -66h-67v-87h-75zM651 152h167v186h-71z" />
    <glyph glyph-name="threequarters" unicode="&#xbe;" horiz-adv-x="1099" 
d="M231 286c-57 0 -106 12 -154 31v72h1c50 -21 99 -36 144 -36c64 0 104 24 104 64c0 41 -30 60 -146 60h-16v39l143 118h-223l2 66h312v-64l-130 -109c93 -9 140 -46 140 -112c0 -79 -71 -129 -177 -129zM270 1l496 699h85v-1l-496 -699h-85v1zM919 0v87h-248v61l129 255
h194v-250h70l-3 -66h-67v-87h-75zM753 152h167v186h-71z" />
    <glyph glyph-name="uni2155" unicode="&#x2155;" horiz-adv-x="1016" 
d="M159 297v337h-105l13 66h175v-403h-83zM168 1l496 699h85v-1l-496 -699h-85v1zM778 -11c-62 0 -109 11 -156 29v73h1c46 -21 96 -34 154 -34c70 0 92 33 92 63c0 16 -4 27 -13 36c-18 17 -54 23 -139 23h-84l6 224h287l4 -68h-219l-2 -94h37c93 0 144 -11 175 -43
c18 -18 29 -42 29 -77c0 -79 -64 -132 -172 -132z" />
    <glyph glyph-name="uni2156" unicode="&#x2156;" horiz-adv-x="1142" 
d="M77 297v65l143 116c83 66 101 83 101 113c0 32 -27 50 -73 50c-49 0 -101 -22 -156 -65h-1v78c52 37 104 57 163 57c99 0 148 -46 148 -113c0 -66 -41 -94 -136 -169l-78 -64h216v-68h-327zM294 1l496 699h85v-1l-496 -699h-85v1zM904 -11c-62 0 -109 11 -156 29v73h1
c46 -21 96 -34 154 -34c70 0 92 33 92 63c0 16 -4 27 -13 36c-18 17 -54 23 -139 23h-84l6 224h287l4 -68h-219l-2 -94h37c93 0 144 -11 175 -43c18 -18 29 -42 29 -77c0 -79 -64 -132 -172 -132z" />
    <glyph glyph-name="uni2157" unicode="&#x2157;" horiz-adv-x="1118" 
d="M231 286c-57 0 -106 12 -154 31v72h1c50 -21 99 -36 144 -36c64 0 104 24 104 64c0 41 -30 60 -146 60h-16v39l143 118h-223l2 66h312v-64l-130 -109c93 -9 140 -46 140 -112c0 -79 -71 -129 -177 -129zM270 1l496 699h85v-1l-496 -699h-85v1zM880 -11
c-62 0 -109 11 -156 29v73h1c46 -21 96 -34 154 -34c70 0 92 33 92 63c0 16 -4 27 -13 36c-18 17 -54 23 -139 23h-84l6 224h287l4 -68h-219l-2 -94h37c93 0 144 -11 175 -43c18 -18 29 -42 29 -77c0 -79 -64 -132 -172 -132z" />
    <glyph glyph-name="uni2158" unicode="&#x2158;" horiz-adv-x="1130" 
d="M294 297v87h-248v61l129 255h194v-250h70l-3 -66h-67v-87h-75zM282 1l496 699h85v-1l-496 -699h-85v1zM128 449h167v186h-71zM892 -11c-62 0 -109 11 -156 29v73h1c46 -21 96 -34 154 -34c70 0 92 33 92 63c0 16 -4 27 -13 36c-18 17 -54 23 -139 23h-84l6 224h287l4 -68
h-219l-2 -94h37c93 0 144 -11 175 -43c18 -18 29 -42 29 -77c0 -79 -64 -132 -172 -132z" />
    <glyph glyph-name="uni2159" unicode="&#x2159;" horiz-adv-x="1002" 
d="M159 297v337h-105l13 66h175v-403h-83zM168 1l496 699h85v-1l-496 -699h-85v1zM774 -11c-113 0 -181 67 -181 200c0 146 84 224 206 224c47 0 83 -7 121 -23v-70h-1c-41 19 -75 28 -117 28c-71 0 -129 -38 -132 -130c35 24 85 37 127 37c85 0 144 -38 144 -121
c0 -95 -76 -145 -167 -145zM782 195c-39 0 -82 -13 -112 -35c4 -74 45 -107 104 -107c52 0 92 27 92 77c0 46 -35 65 -84 65z" />
    <glyph glyph-name="uni215A" unicode="&#x215a;" horiz-adv-x="1107" 
d="M236 286c-62 0 -109 11 -156 29v73h1c46 -21 96 -34 154 -34c70 0 92 33 92 63c0 16 -4 27 -13 36c-18 17 -54 23 -139 23h-84l6 224h287l4 -68h-219l-2 -94h37c93 0 144 -11 175 -43c18 -18 29 -42 29 -77c0 -79 -64 -132 -172 -132zM273 1l496 699h85v-1l-496 -699h-85
v1zM879 -11c-113 0 -181 67 -181 200c0 146 84 224 206 224c47 0 83 -7 121 -23v-70h-1c-41 19 -75 28 -117 28c-71 0 -129 -38 -132 -130c35 24 85 37 127 37c85 0 144 -38 144 -121c0 -95 -76 -145 -167 -145zM887 195c-39 0 -82 -13 -112 -35c4 -74 45 -107 104 -107
c52 0 92 27 92 77c0 46 -35 65 -84 65z" />
    <glyph glyph-name="oneeighth" unicode="&#x215b;" horiz-adv-x="1019" 
d="M159 297v337h-105l13 66h175v-403h-83zM168 1l496 699h85v-1l-496 -699h-85v1zM782 -12c-119 0 -178 45 -178 115c0 49 30 83 92 100c-56 15 -82 45 -82 93c0 69 60 117 168 117s168 -48 168 -117c0 -48 -26 -78 -82 -93c62 -17 92 -51 92 -100c0 -70 -59 -115 -178 -115
zM782 229c59 0 92 21 92 58c0 40 -32 64 -92 64s-92 -24 -92 -64c0 -37 33 -58 92 -58zM782 49c66 0 100 25 100 64s-38 63 -100 63s-100 -24 -100 -63s34 -64 100 -64z" />
    <glyph glyph-name="threeeighths" unicode="&#x215c;" horiz-adv-x="1121" 
d="M231 286c-57 0 -106 12 -154 31v72h1c50 -21 99 -36 144 -36c64 0 104 24 104 64c0 41 -30 60 -146 60h-16v39l143 118h-223l2 66h312v-64l-130 -109c93 -9 140 -46 140 -112c0 -79 -71 -129 -177 -129zM270 1l496 699h85v-1l-496 -699h-85v1zM884 -12
c-119 0 -178 45 -178 115c0 49 30 83 92 100c-56 15 -82 45 -82 93c0 69 60 117 168 117s168 -48 168 -117c0 -48 -26 -78 -82 -93c62 -17 92 -51 92 -100c0 -70 -59 -115 -178 -115zM884 229c59 0 92 21 92 58c0 40 -32 64 -92 64s-92 -24 -92 -64c0 -37 33 -58 92 -58z
M884 49c66 0 100 25 100 64s-38 63 -100 63s-100 -24 -100 -63s34 -64 100 -64z" />
    <glyph glyph-name="fiveeighths" unicode="&#x215d;" horiz-adv-x="1124" 
d="M236 286c-62 0 -109 11 -156 29v73h1c46 -21 96 -34 154 -34c70 0 92 33 92 63c0 16 -4 27 -13 36c-18 17 -54 23 -139 23h-84l6 224h287l4 -68h-219l-2 -94h37c93 0 144 -11 175 -43c18 -18 29 -42 29 -77c0 -79 -64 -132 -172 -132zM273 1l496 699h85v-1l-496 -699h-85
v1zM887 -12c-119 0 -178 45 -178 115c0 49 30 83 92 100c-56 15 -82 45 -82 93c0 69 60 117 168 117s168 -48 168 -117c0 -48 -26 -78 -82 -93c62 -17 92 -51 92 -100c0 -70 -59 -115 -178 -115zM887 229c59 0 92 21 92 58c0 40 -32 64 -92 64s-92 -24 -92 -64
c0 -37 33 -58 92 -58zM887 49c66 0 100 25 100 64s-38 63 -100 63s-100 -24 -100 -63s34 -64 100 -64z" />
    <glyph glyph-name="seveneighths" unicode="&#x215e;" horiz-adv-x="1066" 
d="M76 555v145h335v-98l-176 -305h-88l181 311v26h-179v-79h-73zM215 1l496 699h85v-1l-496 -699h-85v1zM829 -12c-119 0 -178 45 -178 115c0 49 30 83 92 100c-56 15 -82 45 -82 93c0 69 60 117 168 117s168 -48 168 -117c0 -48 -26 -78 -82 -93c62 -17 92 -51 92 -100
c0 -70 -59 -115 -178 -115zM829 229c59 0 92 21 92 58c0 40 -32 64 -92 64s-92 -24 -92 -64c0 -37 33 -58 92 -58zM829 49c66 0 100 25 100 64s-38 63 -100 63s-100 -24 -100 -63s34 -64 100 -64z" />
    <glyph glyph-name="zero.sup" unicode="&#x2070;" horiz-adv-x="474" 
d="M236 341c-126 0 -185 86 -185 211s63 213 188 213c126 0 184 -86 184 -211s-62 -213 -187 -213zM237 409c73 0 106 57 106 144s-32 145 -105 145c-74 0 -107 -58 -107 -145s32 -144 106 -144z" />
    <glyph glyph-name="one.sup" unicode="&#xb9;" horiz-adv-x="366" 
d="M159 352v337h-105l13 66h175v-403h-83z" />
    <glyph glyph-name="one.sup_alt" horiz-adv-x="474" 
d="M417 417v-65h-323v65h127v272h-129l10 66h202v-338h113z" />
    <glyph glyph-name="two.sup" unicode="&#xb2;" horiz-adv-x="474" 
d="M77 352v65l143 116c83 66 101 83 101 113c0 32 -27 50 -73 50c-49 0 -101 -22 -156 -65h-1v78c52 37 104 57 163 57c99 0 148 -46 148 -113c0 -66 -41 -94 -136 -169l-78 -64h216v-68h-327z" />
    <glyph glyph-name="three.sup" unicode="&#xb3;" horiz-adv-x="474" 
d="M231 341c-57 0 -106 12 -154 31v72h1c50 -21 99 -36 144 -36c64 0 104 24 104 64c0 41 -30 60 -146 60h-16v39l143 118h-223l2 66h312v-64l-130 -109c93 -9 140 -46 140 -112c0 -79 -71 -129 -177 -129z" />
    <glyph glyph-name="four.sup" unicode="&#x2074;" horiz-adv-x="474" 
d="M294 352v87h-248v61l129 255h194v-250h70l-3 -66h-67v-87h-75zM128 504h167v186h-71z" />
    <glyph glyph-name="five.sup" unicode="&#x2075;" horiz-adv-x="474" 
d="M236 341c-62 0 -109 11 -156 29v73h1c46 -21 96 -34 154 -34c70 0 92 33 92 63c0 16 -4 27 -13 36c-18 17 -54 23 -139 23h-84l6 224h287l4 -68h-219l-2 -94h37c93 0 144 -11 175 -43c18 -18 29 -42 29 -77c0 -79 -64 -132 -172 -132z" />
    <glyph glyph-name="six.sup" unicode="&#x2076;" horiz-adv-x="474" 
d="M246 341c-113 0 -181 67 -181 200c0 146 84 224 206 224c47 0 83 -7 121 -23v-70h-1c-41 19 -75 28 -117 28c-71 0 -129 -38 -132 -130c35 24 85 37 127 37c85 0 144 -38 144 -121c0 -95 -76 -145 -167 -145zM254 547c-39 0 -82 -13 -112 -35c4 -74 45 -107 104 -107
c52 0 92 27 92 77c0 46 -35 65 -84 65z" />
    <glyph glyph-name="seven.sup" unicode="&#x2077;" horiz-adv-x="474" 
d="M76 610v145h335v-98l-176 -305h-88l181 311v26h-179v-79h-73z" />
    <glyph glyph-name="eight.sup" unicode="&#x2078;" horiz-adv-x="474" 
d="M237 340c-119 0 -178 45 -178 115c0 49 30 83 92 100c-56 15 -82 45 -82 93c0 69 60 117 168 117s168 -48 168 -117c0 -48 -26 -78 -82 -93c62 -17 92 -51 92 -100c0 -70 -59 -115 -178 -115zM237 581c59 0 92 21 92 58c0 40 -32 64 -92 64s-92 -24 -92 -64
c0 -37 33 -58 92 -58zM237 401c66 0 100 25 100 64s-38 63 -100 63s-100 -24 -100 -63s34 -64 100 -64z" />
    <glyph glyph-name="nine.sup" unicode="&#x2079;" horiz-adv-x="474" 
d="M228 765c113 0 181 -67 181 -200c0 -146 -84 -224 -206 -224c-47 0 -83 7 -121 23v70h1c41 -19 75 -28 117 -28c71 0 129 38 132 130c-35 -24 -85 -37 -127 -37c-85 0 -144 38 -144 121c0 95 76 145 167 145zM136 624c0 -46 35 -65 84 -65c39 0 82 13 112 35
c-4 74 -45 107 -104 107c-52 0 -92 -27 -92 -77z" />
    <glyph glyph-name="zero.inf" unicode="&#x2080;" horiz-adv-x="474" 
d="M236 -201c-126 0 -185 86 -185 211s63 213 188 213c126 0 184 -86 184 -211s-62 -213 -187 -213zM237 -133c73 0 106 57 106 144s-32 145 -105 145c-74 0 -107 -58 -107 -145s32 -144 106 -144z" />
    <glyph glyph-name="one.inf" unicode="&#x2081;" horiz-adv-x="366" 
d="M159 -190v337h-105l13 66h175v-403h-83z" />
    <glyph glyph-name="one.inf_alt" horiz-adv-x="474" 
d="M417 -125v-65h-323v65h127v272h-129l10 66h202v-338h113z" />
    <glyph glyph-name="two.inf" unicode="&#x2082;" horiz-adv-x="474" 
d="M77 -190v65l143 116c83 66 101 83 101 113c0 32 -27 50 -73 50c-49 0 -101 -22 -156 -65h-1v78c52 37 104 57 163 57c99 0 148 -46 148 -113c0 -66 -41 -94 -136 -169l-78 -64h216v-68h-327z" />
    <glyph glyph-name="three.inf" unicode="&#x2083;" horiz-adv-x="474" 
d="M231 -201c-57 0 -106 12 -154 31v72h1c50 -21 99 -36 144 -36c64 0 104 24 104 64c0 41 -30 60 -146 60h-16v39l143 118h-223l2 66h312v-64l-130 -109c93 -9 140 -46 140 -112c0 -79 -71 -129 -177 -129z" />
    <glyph glyph-name="four.inf" unicode="&#x2084;" horiz-adv-x="474" 
d="M294 -190v87h-248v61l129 255h194v-250h70l-3 -66h-67v-87h-75zM128 -38h167v186h-71z" />
    <glyph glyph-name="five.inf" unicode="&#x2085;" horiz-adv-x="474" 
d="M236 -201c-62 0 -109 11 -156 29v73h1c46 -21 96 -34 154 -34c70 0 92 33 92 63c0 16 -4 27 -13 36c-18 17 -54 23 -139 23h-84l6 224h287l4 -68h-219l-2 -94h37c93 0 144 -11 175 -43c18 -18 29 -42 29 -77c0 -79 -64 -132 -172 -132z" />
    <glyph glyph-name="six.inf" unicode="&#x2086;" horiz-adv-x="474" 
d="M246 -201c-113 0 -181 67 -181 200c0 146 84 224 206 224c47 0 83 -7 121 -23v-70h-1c-41 19 -75 28 -117 28c-71 0 -129 -38 -132 -130c35 24 85 37 127 37c85 0 144 -38 144 -121c0 -95 -76 -145 -167 -145zM254 5c-39 0 -82 -13 -112 -35c4 -74 45 -107 104 -107
c52 0 92 27 92 77c0 46 -35 65 -84 65z" />
    <glyph glyph-name="seven.inf" unicode="&#x2087;" horiz-adv-x="474" 
d="M76 68v145h335v-98l-176 -305h-88l181 311v26h-179v-79h-73z" />
    <glyph glyph-name="eight.inf" unicode="&#x2088;" horiz-adv-x="474" 
d="M237 -202c-119 0 -178 45 -178 115c0 49 30 83 92 100c-56 15 -82 45 -82 93c0 69 60 117 168 117s168 -48 168 -117c0 -48 -26 -78 -82 -93c62 -17 92 -51 92 -100c0 -70 -59 -115 -178 -115zM237 39c59 0 92 21 92 58c0 40 -32 64 -92 64s-92 -24 -92 -64
c0 -37 33 -58 92 -58zM237 -141c66 0 100 25 100 64s-38 63 -100 63s-100 -24 -100 -63s34 -64 100 -64z" />
    <glyph glyph-name="nine.inf" unicode="&#x2089;" horiz-adv-x="474" 
d="M228 223c113 0 181 -67 181 -200c0 -146 -84 -224 -206 -224c-47 0 -83 7 -121 23v70h1c41 -19 75 -28 117 -28c71 0 129 38 132 130c-35 -24 -85 -37 -127 -37c-85 0 -144 38 -144 121c0 95 76 145 167 145zM136 82c0 -46 35 -65 84 -65c39 0 82 13 112 35
c-4 74 -45 107 -104 107c-52 0 -92 -27 -92 -77z" />
    <glyph glyph-name="zero.tab" horiz-adv-x="724" 
d="M361 -16c-218 0 -313 155 -313 365c0 209 97 367 315 367c212 0 313 -155 313 -365c0 -209 -103 -367 -315 -367zM363 75c144 0 209 105 209 274c0 170 -66 276 -211 276c-144 0 -209 -105 -209 -274c0 -170 66 -276 211 -276z" />
    <glyph glyph-name="one.tab" horiz-adv-x="724" 
d="M666 88v-88h-558v88h243v524h-243l13 88h330v-612h215z" />
    <glyph glyph-name="two.tab" horiz-adv-x="724" 
d="M78 0v91l250 196c144 111 204 150 204 228c0 63 -46 109 -152 109c-97 0 -185 -41 -277 -124h-1v106c86 75 180 110 280 110c171 0 255 -82 255 -193c0 -115 -70 -167 -230 -288l-185 -144h420v-91h-564z" />
    <glyph glyph-name="three.tab" horiz-adv-x="724" 
d="M363 -16c-100 0 -192 26 -274 65v98h1c92 -47 196 -74 270 -74c121 0 194 51 194 131c0 83 -81 124 -273 124h-36v55l262 226h-404l5 91h540v-82l-261 -218c175 -12 272 -73 272 -193c0 -137 -121 -223 -296 -223z" />
    <glyph glyph-name="four.tab" horiz-adv-x="724" 
d="M473 1v161h-428v77l253 461h272v-451h125l-4 -87h-121v-161h-97zM158 249h315v360h-119z" />
    <glyph glyph-name="five.tab" horiz-adv-x="724" 
d="M358 -16c-87 0 -178 20 -269 60v98h1c96 -44 183 -68 265 -68c140 0 187 68 187 133c0 31 -8 54 -27 73c-33 32 -89 49 -255 49h-148l9 371h487l4 -91h-399l-5 -190h84c168 0 255 -21 311 -78c32 -34 46 -77 46 -131c0 -123 -101 -226 -291 -226z" />
    <glyph glyph-name="six.tab" horiz-adv-x="724" 
d="M372 -16c-180 0 -305 115 -305 343c0 261 157 389 350 389c69 0 139 -16 205 -47v-95h-1c-74 35 -127 54 -202 54c-135 0 -244 -75 -252 -261c66 54 154 81 234 81c152 0 257 -73 257 -212c0 -158 -130 -252 -286 -252zM378 364c-69 0 -145 -25 -210 -75
c5 -151 96 -218 210 -218c92 0 179 54 179 159c0 96 -82 134 -179 134z" />
    <glyph glyph-name="seven.tab" horiz-adv-x="724" 
d="M78 475v225h579v-149l-343 -551h-113l355 573v38h-383v-136h-95z" />
    <glyph glyph-name="eight.tab" horiz-adv-x="724" 
d="M363 -22c-199 0 -299 81 -299 199c0 89 58 146 158 175c-90 26 -142 80 -142 164c0 115 97 203 283 203c184 0 281 -89 281 -203c0 -84 -52 -138 -142 -164c100 -29 158 -86 158 -175c0 -118 -98 -199 -297 -199zM363 388c105 0 177 41 177 122c0 77 -67 126 -177 126
c-113 0 -179 -48 -179 -126c0 -81 73 -122 179 -122zM363 61c122 0 192 48 192 126c0 82 -80 127 -192 127c-114 0 -194 -43 -194 -127c0 -78 70 -126 194 -126z" />
    <glyph glyph-name="nine.tab" horiz-adv-x="724" 
d="M352 716c180 0 305 -115 305 -343c0 -261 -157 -389 -350 -389c-69 0 -139 16 -205 47v95h1c74 -35 127 -54 202 -54c135 0 244 75 252 261c-66 -54 -154 -81 -234 -81c-152 0 -257 73 -257 212c0 158 130 252 286 252zM167 470c0 -96 82 -134 179 -134
c69 0 145 25 210 75c-5 151 -96 218 -210 218c-92 0 -179 -54 -179 -159z" />
    <glyph glyph-name="dollar.tab" horiz-adv-x="724" 
d="M321 -116v130c-83 9 -158 37 -219 71v100h1c89 -55 201 -85 284 -85c101 0 158 39 158 102c0 59 -43 83 -193 113c-136 26 -240 59 -240 179c0 94 74 177 216 192v119h93v-118c64 -7 138 -28 196 -62v-101h-1c-77 51 -172 76 -245 76c-95 0 -156 -35 -156 -99
c0 -68 75 -80 196 -106c135 -29 238 -67 238 -186c0 -84 -55 -188 -236 -198v-117z" />
    <glyph glyph-name="cent.tab" horiz-adv-x="724" 
d="M342 -36v140c-130 21 -214 109 -214 242c0 128 90 229 222 250v117h91v-114c63 -5 108 -21 147 -48v-92h-1c-53 38 -111 57 -171 57c-115 0 -190 -67 -190 -170c0 -95 71 -162 189 -162c63 0 117 18 172 57h1v-92c-43 -27 -91 -44 -154 -48v-126z" />
    <glyph glyph-name="sterling.tab" horiz-adv-x="724" 
d="M76 311l14 84h121l15 51c52 182 121 270 276 270c50 0 94 -12 126 -31v-94h-1c-35 22 -76 33 -118 33c-97 0 -143 -50 -182 -187l-12 -42h284v-84h-309l-64 -221h425v-90h-553l89 311h-111z" />
    <glyph glyph-name="Euro.tab" horiz-adv-x="724" 
d="M28 227l7 69h100c-1 15 -2 30 -2 46c0 19 1 38 3 57h-90l8 69h97c41 141 155 244 336 244c63 0 125 -14 178 -40v-95h-1c-66 34 -128 48 -182 48c-118 0 -196 -61 -230 -157h283v-69h-299c-3 -18 -4 -37 -4 -56c0 -16 1 -32 3 -47h300v-69h-285c32 -93 107 -152 227 -152
c55 0 119 13 187 44h1v-95c-55 -23 -126 -36 -192 -36c-187 0 -291 101 -326 239h-119z" />
    <glyph glyph-name="yen.tab" horiz-adv-x="724" 
d="M72 139l6 74h234v38l-35 60h-193l6 75h143l-183 314h110l199 -345h6l201 345h108l-185 -314h145l5 -75h-194l-34 -58v-40h235l5 -74h-240v-139h-99v139h-240z" />
    <glyph glyph-name="uni20B9.tab" horiz-adv-x="724" 
d="M653 419h-96c-14 -117 -99 -199 -245 -199h-61l329 -220h-149l-322 219v76h181c111 0 158 50 169 126h-350v74h350c-12 81 -62 126 -179 126h-171v79h564l-4 -79h-184c39 -27 63 -69 71 -123h101z" />
    <glyph glyph-name="period.tab" horiz-adv-x="362" 
d="M181 -12c-51 0 -78 35 -78 74v1c0 38 27 73 78 73s79 -35 79 -73v-1c0 -39 -28 -74 -79 -74z" />
    <glyph glyph-name="comma.tab" horiz-adv-x="362" 
d="M89 -154l54 299h137v-10l-133 -289h-58z" />
    <glyph glyph-name="colon.tab" horiz-adv-x="362" 
d="M181 345c-51 0 -78 35 -78 73v1c0 39 27 73 78 73s79 -34 79 -73v-1c0 -38 -28 -73 -79 -73zM181 -12c-51 0 -78 35 -78 74v1c0 38 27 73 78 73s79 -35 79 -73v-1c0 -39 -28 -74 -79 -74z" />
    <glyph glyph-name="semicolon.tab" horiz-adv-x="362" 
d="M204 345c-51 0 -78 35 -78 73v1c0 39 27 73 78 73s79 -34 79 -73v-1c0 -38 -28 -73 -79 -73zM86 -154l54 299h137v-10l-133 -289h-58z" />
    <glyph glyph-name="periodcentered.tab" horiz-adv-x="362" 
d="M181 276c-51 0 -78 35 -78 73v1c0 39 27 73 78 73s79 -34 79 -73v-1c0 -38 -28 -73 -79 -73z" />
    <glyph glyph-name="hyphen.tab" horiz-adv-x="362" 
d="M33 302v96h296v-96h-296z" />
    <glyph glyph-name="endash.tab" horiz-adv-x="724" 
d="M78 303v94h568v-94h-568z" />
    <glyph glyph-name="underscore.tab" horiz-adv-x="724" 
d="M-4 -159v84h732v-84h-732z" />
    <glyph glyph-name="slash.tab" horiz-adv-x="543" 
d="M67 -120l316 940h94l-317 -940h-93z" />
    <glyph glyph-name="bar.tab" horiz-adv-x="543" 
d="M224 -120v940h93v-940h-93z" />
    <glyph glyph-name="numbersign.tab" horiz-adv-x="724" 
d="M81 0l32 146h-105v80h122l55 248h-123v80h140l32 146h90l-32 -146h229l32 146h90l-32 -146h105v-80h-122l-55 -248h123v-80h-140l-32 -146h-90l32 146h-229l-32 -146h-90zM220 226h229l55 248h-229z" />
    <glyph glyph-name="percent.tab" horiz-adv-x="1086" 
d="M259 353c-116 0 -192 68 -192 177c0 111 77 181 192 181c116 0 192 -69 192 -180c0 -108 -78 -178 -192 -178zM168 1l323 350l322 349h101v-1l-323 -349l-323 -350h-100v1zM259 423c65 0 110 40 110 107c0 68 -45 110 -110 110s-110 -40 -110 -109
c0 -67 45 -108 110 -108zM823 347c116 0 191 -68 191 -177c0 -110 -76 -181 -192 -181c-115 0 -191 69 -191 180c0 108 78 178 192 178zM822 277c-64 0 -109 -40 -109 -107c0 -68 45 -110 110 -110c64 0 110 40 110 109c0 67 -46 108 -111 108z" />
    <glyph glyph-name="degree.tab" horiz-adv-x="634" 
d="M317 298c-130 0 -218 81 -218 206c0 124 88 207 218 207s219 -80 219 -205s-89 -208 -219 -208zM318 374c74 0 130 50 130 131c0 82 -54 130 -131 130c-75 0 -130 -49 -130 -131s54 -130 131 -130z" />
    <glyph glyph-name="quotedbl.tab" horiz-adv-x="634" 
d="M126 416v284h124v-9l-67 -275h-57zM380 416v284h124v-9l-67 -275h-57z" />
    <glyph glyph-name="quotesingle.tab" horiz-adv-x="362" 
d="M126 416v284h124v-9l-67 -275h-57z" />
    <glyph glyph-name="plus.tab" horiz-adv-x="724" 
d="M94 306v88h221v224h94v-224h221v-88h-221v-224h-94v224h-221z" />
    <glyph glyph-name="minus.tab" horiz-adv-x="724" 
d="M114 303v94h496v-94h-496z" />
    <glyph glyph-name="equal.tab" horiz-adv-x="724" 
d="M97 442v88h534v-88h-534zM97 170v88h534v-88h-534z" />
    <glyph glyph-name="divide.tab" horiz-adv-x="724" 
d="M362 634c43 0 69 -29 69 -64s-26 -64 -69 -64c-44 0 -70 29 -70 64s26 64 70 64zM78 306v88h569v-88h-569zM363 66c-44 0 -70 29 -70 64s26 64 69 64c44 0 70 -29 70 -64s-26 -64 -69 -64z" />
    <glyph glyph-name="multiply.tab" horiz-adv-x="724" 
d="M115 534l63 62l184 -183l185 183l62 -62l-184 -184l184 -183l-62 -63l-185 184l-184 -184l-63 63l185 183z" />
    <glyph glyph-name="dotmath.tab" horiz-adv-x="362" 
d="M181 276c-51 0 -78 35 -78 73v2c0 38 27 72 78 72s78 -34 78 -72v-2c0 -38 -27 -73 -78 -73z" />
    <glyph glyph-name="plusminus.tab" horiz-adv-x="724" 
d="M117 423v89h197v197h95v-197h198v-89h-198v-198h-95v198h-197zM117 28v84h490v-84h-490z" />
    <glyph glyph-name="less.tab" horiz-adv-x="724" 
d="M569 84l-435 219v97l435 218v-100l-333 -166l333 -168v-100z" />
    <glyph glyph-name="greater.tab" horiz-adv-x="724" 
d="M155 617l435 -219v-97l-435 -218v100l333 166l-333 168v100z" />
    <glyph glyph-name="asciicircum.tab" horiz-adv-x="724" 
d="M92 370l192 330h152l195 -330h-109l-138 237h-49l-136 -237h-107z" />
    <glyph glyph-name="asciitilde.tab" horiz-adv-x="724" 
d="M80 366c40 48 90 83 153 83c54 0 90 -19 149 -56c59 -36 77 -43 110 -43c52 0 97 38 149 108h1v-123c-40 -49 -89 -84 -152 -84c-55 0 -90 19 -150 56c-58 36 -77 44 -109 44c-52 0 -97 -39 -150 -109h-1v124z" />
    <glyph glyph-name="onehalf.tab" horiz-adv-x="1086" 
d="M407 362v-65h-323v65h127v272h-129l10 66h202v-338h113zM284 1l495 699h85v-1l-495 -699h-85v1zM699 0v65l143 116c83 66 101 83 101 113c0 32 -27 50 -73 50c-49 0 -101 -22 -156 -65h-1v78c52 37 104 57 163 57c99 0 148 -46 148 -113c0 -66 -41 -94 -136 -169l-78 -64
h216v-68h-327z" />
    <glyph glyph-name="onethird.tab" horiz-adv-x="1086" 
d="M407 362v-65h-323v65h127v272h-129l10 66h202v-338h113zM269 1l495 699h85v-1l-495 -699h-85v1zM853 -11c-57 0 -106 12 -154 31v72h1c50 -21 99 -36 144 -36c64 0 104 24 104 64c0 41 -30 60 -146 60h-16v39l143 118h-223l2 66h312v-64l-130 -109
c93 -9 140 -46 140 -112c0 -79 -71 -129 -177 -129z" />
    <glyph glyph-name="twothirds.tab" horiz-adv-x="1086" 
d="M67 297v65l143 116c83 66 101 83 101 113c0 32 -27 50 -73 50c-49 0 -101 -22 -156 -65h-1v78c52 37 104 57 163 57c99 0 148 -46 148 -113c0 -66 -41 -94 -136 -169l-78 -64h216v-68h-327zM266 1l495 699h85v-1l-495 -699h-85v1zM853 -11c-57 0 -106 12 -154 31v72h1
c50 -21 99 -36 144 -36c64 0 104 24 104 64c0 41 -30 60 -146 60h-16v39l143 118h-223l2 66h312v-64l-130 -109c93 -9 140 -46 140 -112c0 -79 -71 -129 -177 -129z" />
    <glyph glyph-name="onequarter.tab" horiz-adv-x="1086" 
d="M407 362v-65h-323v65h127v272h-129l10 66h202v-338h113zM287 1l495 699h85v-1l-495 -699h-85v1zM916 0v87h-248v61l129 255h194v-250h70l-3 -66h-67v-87h-75zM750 152h167v186h-71z" />
    <glyph glyph-name="threequarters.tab" horiz-adv-x="1086" 
d="M221 286c-57 0 -106 12 -154 31v72h1c50 -21 99 -36 144 -36c64 0 104 24 104 64c0 41 -30 60 -146 60h-16v39l143 118h-223l2 66h312v-64l-130 -109c93 -9 140 -46 140 -112c0 -79 -71 -129 -177 -129zM267 1l495 699h85v-1l-495 -699h-85v1zM916 0v87h-248v61l129 255
h194v-250h70l-3 -66h-67v-87h-75zM750 152h167v186h-71z" />
    <glyph glyph-name="uni2155.tab" horiz-adv-x="1086" 
d="M407 362v-65h-323v65h127v272h-129l10 66h202v-338h113zM270 1l495 699h85v-1l-495 -699h-85v1zM858 -11c-62 0 -109 11 -156 29v73h1c46 -21 96 -34 154 -34c70 0 92 33 92 63c0 16 -4 27 -13 36c-18 17 -54 23 -139 23h-84l6 224h287l4 -68h-219l-2 -94h37
c93 0 144 -11 175 -43c18 -18 29 -42 29 -77c0 -79 -64 -132 -172 -132z" />
    <glyph glyph-name="uni2156.tab" horiz-adv-x="1086" 
d="M67 297v65l143 116c83 66 101 83 101 113c0 32 -27 50 -73 50c-49 0 -101 -22 -156 -65h-1v78c52 37 104 57 163 57c99 0 148 -46 148 -113c0 -66 -41 -94 -136 -169l-78 -64h216v-68h-327zM270 1l495 699h85v-1l-495 -699h-85v1zM858 -11c-62 0 -109 11 -156 29v73h1
c46 -21 96 -34 154 -34c70 0 92 33 92 63c0 16 -4 27 -13 36c-18 17 -54 23 -139 23h-84l6 224h287l4 -68h-219l-2 -94h37c93 0 144 -11 175 -43c18 -18 29 -42 29 -77c0 -79 -64 -132 -172 -132z" />
    <glyph glyph-name="uni2157.tab" horiz-adv-x="1086" 
d="M221 286c-57 0 -106 12 -154 31v72h1c50 -21 99 -36 144 -36c64 0 104 24 104 64c0 41 -30 60 -146 60h-16v39l143 118h-223l2 66h312v-64l-130 -109c93 -9 140 -46 140 -112c0 -79 -71 -129 -177 -129zM245 1l495 699h85v-1l-495 -699h-85v1zM858 -11
c-62 0 -109 11 -156 29v73h1c46 -21 96 -34 154 -34c70 0 92 33 92 63c0 16 -4 27 -13 36c-18 17 -54 23 -139 23h-84l6 224h287l4 -68h-219l-2 -94h37c93 0 144 -11 175 -43c18 -18 29 -42 29 -77c0 -79 -64 -132 -172 -132z" />
    <glyph glyph-name="uni2158.tab" horiz-adv-x="1086" 
d="M284 297v87h-248v61l129 255h194v-250h70l-3 -66h-67v-87h-75zM263 1l495 699h85v-1l-495 -699h-85v1zM118 449h167v186h-71zM858 -11c-62 0 -109 11 -156 29v73h1c46 -21 96 -34 154 -34c70 0 92 33 92 63c0 16 -4 27 -13 36c-18 17 -54 23 -139 23h-84l6 224h287l4 -68
h-219l-2 -94h37c93 0 144 -11 175 -43c18 -18 29 -42 29 -77c0 -79 -64 -132 -172 -132z" />
    <glyph glyph-name="uni2159.tab" horiz-adv-x="1086" 
d="M407 362v-65h-323v65h127v272h-129l10 66h202v-338h113zM284 1l495 699h85v-1l-495 -699h-85v1zM868 -11c-113 0 -181 67 -181 200c0 146 84 224 206 224c47 0 83 -7 121 -23v-70h-1c-41 19 -75 28 -117 28c-71 0 -129 -38 -132 -130c35 24 85 37 127 37
c85 0 144 -38 144 -121c0 -95 -76 -145 -167 -145zM876 195c-39 0 -82 -13 -112 -35c4 -74 45 -107 104 -107c52 0 92 27 92 77c0 46 -35 65 -84 65z" />
    <glyph glyph-name="uni215A.tab" horiz-adv-x="1086" 
d="M226 286c-62 0 -109 11 -156 29v73h1c46 -21 96 -34 154 -34c70 0 92 33 92 63c0 16 -4 27 -13 36c-18 17 -54 23 -139 23h-84l6 224h287l4 -68h-219l-2 -94h37c93 0 144 -11 175 -43c18 -18 29 -42 29 -77c0 -79 -64 -132 -172 -132zM267 1l495 699h85v-1l-495 -699h-85
v1zM868 -11c-113 0 -181 67 -181 200c0 146 84 224 206 224c47 0 83 -7 121 -23v-70h-1c-41 19 -75 28 -117 28c-71 0 -129 -38 -132 -130c35 24 85 37 127 37c85 0 144 -38 144 -121c0 -95 -76 -145 -167 -145zM876 195c-39 0 -82 -13 -112 -35c4 -74 45 -107 104 -107
c52 0 92 27 92 77c0 46 -35 65 -84 65z" />
    <glyph glyph-name="oneeighth.tab" horiz-adv-x="1086" 
d="M407 362v-65h-323v65h127v272h-129l10 66h202v-338h113zM271 1l495 699h85v-1l-495 -699h-85v1zM859 -12c-119 0 -178 45 -178 115c0 49 30 83 92 100c-56 15 -82 45 -82 93c0 69 60 117 168 117s168 -48 168 -117c0 -48 -26 -78 -82 -93c62 -17 92 -51 92 -100
c0 -70 -59 -115 -178 -115zM859 229c59 0 92 21 92 58c0 40 -32 64 -92 64s-92 -24 -92 -64c0 -37 33 -58 92 -58zM859 49c66 0 100 25 100 64s-38 63 -100 63s-100 -24 -100 -63s34 -64 100 -64z" />
    <glyph glyph-name="threeeighths.tab" horiz-adv-x="1086" 
d="M221 286c-57 0 -106 12 -154 31v72h1c50 -21 99 -36 144 -36c64 0 104 24 104 64c0 41 -30 60 -146 60h-16v39l143 118h-223l2 66h312v-64l-130 -109c93 -9 140 -46 140 -112c0 -79 -71 -129 -177 -129zM254 1l495 699h85v-1l-495 -699h-85v1zM859 -12
c-119 0 -178 45 -178 115c0 49 30 83 92 100c-56 15 -82 45 -82 93c0 69 60 117 168 117s168 -48 168 -117c0 -48 -26 -78 -82 -93c62 -17 92 -51 92 -100c0 -70 -59 -115 -178 -115zM859 229c59 0 92 21 92 58c0 40 -32 64 -92 64s-92 -24 -92 -64c0 -37 33 -58 92 -58z
M859 49c66 0 100 25 100 64s-38 63 -100 63s-100 -24 -100 -63s34 -64 100 -64z" />
    <glyph glyph-name="fiveeighths.tab" horiz-adv-x="1086" 
d="M226 286c-62 0 -109 11 -156 29v73h1c46 -21 96 -34 154 -34c70 0 92 33 92 63c0 16 -4 27 -13 36c-18 17 -54 23 -139 23h-84l6 224h287l4 -68h-219l-2 -94h37c93 0 144 -11 175 -43c18 -18 29 -42 29 -77c0 -79 -64 -132 -172 -132zM255 1l495 699h85v-1l-495 -699h-85
v1zM859 -12c-119 0 -178 45 -178 115c0 49 30 83 92 100c-56 15 -82 45 -82 93c0 69 60 117 168 117s168 -48 168 -117c0 -48 -26 -78 -82 -93c62 -17 92 -51 92 -100c0 -70 -59 -115 -178 -115zM859 229c59 0 92 21 92 58c0 40 -32 64 -92 64s-92 -24 -92 -64
c0 -37 33 -58 92 -58zM859 49c66 0 100 25 100 64s-38 63 -100 63s-100 -24 -100 -63s34 -64 100 -64z" />
    <glyph glyph-name="seveneighths.tab" horiz-adv-x="1086" 
d="M66 555v145h335v-98l-176 -305h-88l181 311v26h-179v-79h-73zM215 1l495 699h85v-1l-495 -699h-85v1zM859 -12c-119 0 -178 45 -178 115c0 49 30 83 92 100c-56 15 -82 45 -82 93c0 69 60 117 168 117s168 -48 168 -117c0 -48 -26 -78 -82 -93c62 -17 92 -51 92 -100
c0 -70 -59 -115 -178 -115zM859 229c59 0 92 21 92 58c0 40 -32 64 -92 64s-92 -24 -92 -64c0 -37 33 -58 92 -58zM859 49c66 0 100 25 100 64s-38 63 -100 63s-100 -24 -100 -63s34 -64 100 -64z" />
    <glyph glyph-name="uni25A0" unicode="&#x25a0;" horiz-adv-x="1117" 
d="M172 -29v758h773v-758h-773z" />
    <glyph glyph-name="uni25E9" unicode="&#x25e9;" horiz-adv-x="1117" 
d="M172 -29v758h773v-758h-773zM267 61h580v573z" />
    <glyph glyph-name="uni25A1" unicode="&#x25a1;" horiz-adv-x="1117" 
d="M172 -29v758h773v-758h-773zM271 61h575v578h-575v-578z" />
    <glyph glyph-name="uni2611" unicode="&#x2611;" horiz-adv-x="1117" 
d="M444 247l308 639h140l-353 -639h-95zM172 -29v758h415l-44 -90h-272v-578h575v574l53 94h46v-758h-773z" />
    <glyph glyph-name="circle.solid" unicode="&#x25cf;" horiz-adv-x="1078" 
d="M539 -46c-253 0 -413 156 -413 396c0 239 160 396 413 396c254 0 413 -156 413 -396c0 -239 -160 -396 -413 -396z" />
    <glyph glyph-name="circle.half" unicode="&#x25d0;" horiz-adv-x="1078" 
d="M539 -46c-254 0 -413 156 -413 396c0 239 160 396 413 396s413 -156 413 -396c0 -239 -160 -396 -413 -396zM537 43c195 0 313 120 313 307s-118 307 -313 307v-614z" />
    <glyph glyph-name="circle.open" unicode="&#x25cb;" horiz-adv-x="1078" 
d="M539 -46c-253 0 -413 156 -413 396c0 239 160 396 413 396c254 0 413 -156 413 -396c0 -239 -160 -396 -413 -396zM539 44c194 0 311 119 311 306s-117 306 -311 306s-311 -119 -311 -306s117 -306 311 -306z" />
    <glyph glyph-name="circle.checked" unicode="&#x2299;" horiz-adv-x="1078" 
d="M539 -46c-253 0 -413 156 -413 396c0 239 160 396 413 396c254 0 413 -156 413 -396c0 -239 -160 -396 -413 -396zM539 44c194 0 311 119 311 306s-117 306 -311 306s-311 -119 -311 -306s117 -306 311 -306zM539 198c-95 0 -152 59 -152 152s57 152 152 152
c96 0 152 -59 152 -152s-56 -152 -152 -152z" />
    <glyph glyph-name="uni25AA" unicode="&#x25aa;" horiz-adv-x="808" 
d="M172 123v454h464v-454h-464z" />
    <glyph glyph-name="uni25AB" unicode="&#x25ab;" horiz-adv-x="808" 
d="M172 123v454h464v-454h-464zM267 210h274v280h-274v-280z" />
    <glyph glyph-name="uniE000" unicode="&#xe000;" horiz-adv-x="782" 
d="M390 105c-155 0 -254 97 -254 245c0 147 99 245 254 245c158 0 256 -97 256 -245c0 -147 -99 -245 -256 -245z" />
    <glyph glyph-name="uniE001" unicode="&#xe001;" horiz-adv-x="782" 
d="M390 104c-155 0 -255 98 -255 246c0 147 100 246 255 246c158 0 257 -98 257 -246c0 -147 -100 -246 -257 -246zM390 193c98 0 159 65 159 157s-61 157 -159 157c-96 0 -157 -65 -157 -157s61 -157 157 -157z" />
    <glyph glyph-name="uniE02A" unicode="&#xe02a;" horiz-adv-x="1072" 
d="M858 735l103 -98l-78 -96l80 -96l-80 -96l80 -96l-80 -96l78 -96l-103 -98l-101 78l-101 -80l-101 80l-101 -80l-101 80l-101 -78l-103 98l78 96l-80 96l80 96l-80 96l80 96l-78 96l103 98l101 -78l101 80l101 -80l101 80l101 -80z" />
    <glyph glyph-name="uni2600" unicode="&#x2600;" horiz-adv-x="1039" 
d="M933 371v-34l-159 -68l71 -162l-24 -28l-164 50l-53 -169l-34 -7l-94 144l-149 -96l-28 18l19 171l-176 21l-12 33l127 117l-123 130l12 34l175 9l-13 176l32 18l138 -103l105 142l36 -7l39 -168l171 42l23 -28l-78 -154z" />
    <glyph glyph-name="uni2735" unicode="&#x2735;" horiz-adv-x="979" 
d="M903 371v-34l-234 -42l146 -188l-24 -28l-205 118l-12 -237l-34 -7l-82 221l-161 -173l-28 18l77 220l-234 -28l-12 33l202 117l-198 130l12 34l231 -42l-69 227l32 18l149 -180l94 219l36 -7l-2 -235l212 109l23 -28l-153 -181z" />
    <glyph glyph-name="uni263C" unicode="&#x263c;" horiz-adv-x="1039" 
d="M933 371v-34l-159 -68l71 -162l-24 -28l-164 50l-53 -169l-34 -7l-94 144l-149 -96l-28 18l19 171l-176 21l-12 33l127 117l-123 130l12 34l175 9l-13 176l32 18l138 -103l105 142l36 -7l39 -168l171 42l23 -28l-78 -154zM711 362c0 98 -68 178 -184 178
s-183 -80 -183 -178s67 -178 183 -178s184 80 184 178z" />
    <glyph glyph-name="uni2605" unicode="&#x2605;" horiz-adv-x="1050" 
d="M636 491l309 10l17 -43l-256 -167l112 -292l-39 -27l-254 198l-255 -198l-38 27l112 292l-256 167l17 43l309 -10l89 294h44z" />
    <glyph glyph-name="uni272B" unicode="&#x272b;" horiz-adv-x="1050" 
d="M636 491l309 10l17 -43l-256 -167l112 -292l-39 -27l-254 198l-255 -198l-38 27l112 292l-256 167l17 43l309 -10l89 294h44zM525 226l132 127l-132 127l-132 -127z" />
    <glyph glyph-name="uniE027" unicode="&#xe027;" horiz-adv-x="1000" 
d="M500 571c-46 0 -74 29 -74 73c0 43 28 72 74 72s75 -29 75 -72c0 -44 -29 -73 -75 -73zM229 421c-46 0 -75 29 -75 72s29 73 75 73s74 -30 74 -73s-28 -72 -74 -72zM772 421c-46 0 -75 29 -75 72s29 73 75 73c45 0 74 -30 74 -73s-29 -72 -74 -72zM500 275
c-47 0 -78 31 -78 75s31 75 78 75s78 -31 78 -75s-31 -75 -78 -75zM229 134c-46 0 -75 29 -75 73c0 43 29 73 75 73s74 -30 74 -73c0 -44 -28 -73 -74 -73zM772 134c-46 0 -75 29 -75 73c0 43 29 73 75 73c45 0 74 -30 74 -73c0 -44 -29 -73 -74 -73zM500 -8
c-46 0 -74 29 -74 72s28 73 74 73s75 -30 75 -73s-29 -72 -75 -72z" />
    <glyph glyph-name="uniE002" unicode="&#xe002;" horiz-adv-x="1100" 
d="M243 561c-46 0 -75 29 -75 71c0 43 29 72 75 72c45 0 73 -29 73 -72c0 -42 -28 -71 -73 -71zM550 561c-46 0 -74 29 -74 71c0 43 28 72 74 72s74 -29 74 -72c0 -42 -28 -71 -74 -71zM858 561c-46 0 -74 29 -74 71c0 43 28 72 74 72c45 0 74 -29 74 -72
c0 -42 -29 -71 -74 -71zM243 278c-46 0 -75 29 -75 72s29 72 75 72c45 0 73 -29 73 -72s-28 -72 -73 -72zM550 278c-46 0 -74 29 -74 72s28 72 74 72s74 -29 74 -72s-28 -72 -74 -72zM858 278c-46 0 -74 29 -74 72s28 72 74 72c45 0 74 -29 74 -72s-29 -72 -74 -72zM243 -4
c-46 0 -75 29 -75 72s29 72 75 72c45 0 73 -29 73 -72s-28 -72 -73 -72zM550 -4c-46 0 -74 29 -74 72s28 72 74 72s74 -29 74 -72s-28 -72 -74 -72zM858 -4c-46 0 -74 29 -74 72s28 72 74 72c45 0 74 -29 74 -72s-29 -72 -74 -72z" />
    <glyph glyph-name="uni2795" unicode="&#x2795;" horiz-adv-x="1020" 
d="M115 306v92h346v342h98v-342h346v-92h-346v-346h-98v346h-346z" />
    <glyph glyph-name="uni2731" unicode="&#x2731;" horiz-adv-x="1020" 
d="M243 33l-67 67l218 207l-282 -1v91l282 -1l-216 205l65 67l219 -217l-1 289h98l-1 -290l220 218l66 -67l-217 -205l281 1v-91l-282 1l218 -207l-66 -67l-220 218l1 -291h-98l1 291z" />
    <glyph glyph-name="uni274C" unicode="&#x274c;" horiz-adv-x="1020" 
d="M209 -4l-67 69l302 285l-302 286l65 69l302 -293l302 293l67 -70l-303 -285l303 -286l-66 -68l-302 293z" />
    <glyph glyph-name="uni261A" unicode="&#x261a;" horiz-adv-x="1750" 
d="M1575 93l-412 91l-374 -129c-15 -6 -28 -4 -39 3l-18 11c-18 12 -20 26 -7 75l-49 -17c-16 -5 -28 -5 -37 1l-20 13c-16 9 -19 25 -4 79l-37 -16c-18 -8 -32 -6 -43 0l-23 13c-14 8 -17 21 -11 46l35 145l-258 -24c-100 -10 -155 44 -140 103v4l582 76c27 3 50 7 62 7
c13 0 35 -2 59 -5l734 -76v-400z" />
    <glyph glyph-name="uni261B" unicode="&#x261b;" horiz-adv-x="1750" 
d="M979 55l-373 128l-413 -90v400l734 76c24 3 46 5 59 5c11 0 35 -4 61 -7l583 -76v-4c15 -59 -40 -113 -140 -103l-258 25l35 -146c6 -25 3 -38 -11 -46l-23 -13c-11 -6 -25 -8 -43 0l-37 17c15 -55 13 -71 -4 -80l-20 -13c-10 -6 -22 -6 -37 -1l-50 17
c14 -49 13 -63 -6 -75l-18 -11c-11 -7 -24 -9 -39 -3z" />
    <glyph glyph-name="uni2190" unicode="&#x2190;" horiz-adv-x="1020" 
d="M296 413h583v-94h-582l279 -246h-141l-331 293l331 293h141z" />
    <glyph glyph-name="uni2192" unicode="&#x2192;" horiz-adv-x="1020" 
d="M724 317h-583v94h582l-279 246h141l331 -293l-331 -293h-141z" />
    <glyph glyph-name="uni2191" unicode="&#x2191;" horiz-adv-x="890" 
d="M395 -22v585l-253 -280v139l303 331l303 -331v-139l-253 279v-584h-100z" />
    <glyph glyph-name="uni2193" unicode="&#x2193;" horiz-adv-x="890" 
d="M445 -53l-303 331v139l253 -279v584h100v-585l253 280v-139z" />
    <glyph glyph-name="uniE003" unicode="&#xe003;" horiz-adv-x="1020" 
d="M537 23l-453 343l453 343l13 -6l-3 -225l342 4v-232l-342 4l3 -225z" />
    <glyph glyph-name="uni27A1" unicode="&#x27a1;" horiz-adv-x="1020" 
d="M483 23l-13 6l3 225l-342 -4v232l342 -4l-3 225l13 6l453 -343z" />
    <glyph glyph-name="uniE004" unicode="&#xe004;" horiz-adv-x="910" 
d="M329 -22l8 322l-229 -3l-7 13l354 443l354 -443l-7 -13l-229 3l8 -322h-252z" />
    <glyph glyph-name="uniE005" unicode="&#xe005;" horiz-adv-x="910" 
d="M455 -53l-354 443l7 13l229 -3l-8 322h252l-8 -322l229 3l7 -13z" />
    <glyph glyph-name="uni21A2" unicode="&#x21a2;" horiz-adv-x="2050" 
d="M666 138l-587 227l586 226v-8l-115 -171h674l144 99h557l-179 -146l179 -147h-557l-144 98h-674l116 -170v-8z" />
    <glyph glyph-name="uni21A3" unicode="&#x21a3;" horiz-adv-x="2050" 
d="M1385 138v8l115 170h-674l-144 -98h-557l179 146l-179 147h557l144 -99h674l-116 171v8l587 -227z" />
    <glyph glyph-name="uni25C0" unicode="&#x25c0;" horiz-adv-x="1050" 
d="M881 -34l-782 379v10l782 379v-768z" />
    <glyph glyph-name="uni25B6" unicode="&#x25b6;" horiz-adv-x="1050" 
d="M169 734l782 -379v-10l-782 -379v768z" />
    <glyph glyph-name="uni25B2" unicode="&#x25b2;" horiz-adv-x="1000" 
d="M116 -29l379 782h10l379 -782h-768z" />
    <glyph glyph-name="uni25BC" unicode="&#x25bc;" horiz-adv-x="1000" 
d="M884 729l-379 -782h-10l-379 782h768z" />
    <glyph glyph-name="uni25B4" unicode="&#x25b4;" horiz-adv-x="924" 
d="M467 793l347 -419h-704l347 419h10z" />
    <glyph glyph-name="uni25BE" unicode="&#x25be;" horiz-adv-x="924" 
d="M457 -66l-347 419h704l-347 -419h-10z" />
    <glyph glyph-name="uni25C2" unicode="&#x25c2;" horiz-adv-x="1010" 
d="M842 93l-733 267v12l733 267v-546z" />
    <glyph glyph-name="uni25B8" unicode="&#x25b8;" horiz-adv-x="1010" 
d="M168 639l733 -267v-12l-733 -267v546z" />
    <glyph glyph-name="uniE023" unicode="&#xe023;" horiz-adv-x="815" 
d="M574 -170l-447 507v5l447 508h129l-447 -509l447 -511h-129z" />
    <glyph glyph-name="uniE024" unicode="&#xe024;" horiz-adv-x="815" 
d="M112 -170l447 510l-447 510h129l447 -507v-5l-447 -508h-129z" />
    <glyph glyph-name="uniE023.open" unicode="&#x276c;" horiz-adv-x="921" 
d="M481 -170l-406 508v4l406 508h272v-1020h-272zM527 -76h128v832h-128l-331 -416z" />
    <glyph glyph-name="uniE024.open" unicode="&#x276d;" horiz-adv-x="921" 
d="M168 -170v1020h272l406 -508v-4l-406 -508h-272zM266 -76h128l331 416l-331 416h-128v-832z" />
    <glyph glyph-name="uniE023.solid" unicode="&#x2770;" horiz-adv-x="921" 
d="M749 850v-1020h-279l-396 504v12l396 504h279z" />
    <glyph glyph-name="uniE024.solid" unicode="&#x2771;" horiz-adv-x="921" 
d="M172 -170v1020h279l396 -504v-12l-396 -504h-279z" />
    <glyph glyph-name="uniE006" unicode="&#xe006;" horiz-adv-x="1487" 
d="M145 172v388h1026l206 -194l-206 -194h-1026z" />
    <glyph glyph-name="uniE007" unicode="&#xe007;" horiz-adv-x="1487" 
d="M145 172v388h1026l206 -194l-206 -194h-1026zM245 264h891l103 102l-103 102h-891v-204z" />
    <glyph glyph-name="uniE008" unicode="&#xe008;" horiz-adv-x="1487" 
d="M145 172v388h1026l206 -194l-206 -194h-1026zM245 264h861v204h-861v-204z" />
    <glyph glyph-name="uniE009" unicode="&#xe009;" horiz-adv-x="1300" 
d="M145 276v180h1010v-180h-1010z" />
    <glyph glyph-name="uniE00A" unicode="&#xe00a;" horiz-adv-x="1300" 
d="M145 447v96h1010v-96h-1010zM145 189v96h1010v-96h-1010z" />
    <glyph glyph-name="uniE00B" unicode="&#xe00b;" horiz-adv-x="1300" 
d="M145 559v90h1010v-90h-1010zM145 321v88h1010v-88h-1010zM145 81v90h1010v-90h-1010z" />
    <glyph glyph-name="uniE00C" unicode="&#xe00c;" horiz-adv-x="1098" 
d="M549 130c-234 0 -350 60 -350 129s116 128 350 128c235 0 350 -59 350 -128s-116 -129 -350 -129zM197 68v78h5c19 -45 113 -105 347 -105s328 60 347 105h5v-78c0 -69 -118 -129 -352 -129s-352 60 -352 129z" />
    <glyph glyph-name="uniE00D" unicode="&#xe00d;" horiz-adv-x="1098" 
d="M549 317c-234 0 -350 60 -350 129s116 128 350 128c235 0 350 -59 350 -128s-116 -129 -350 -129zM197 255v78h5c19 -45 113 -105 347 -105s328 60 347 105h5v-78c0 -69 -118 -129 -352 -129s-352 60 -352 129zM197 68v78h5c19 -45 113 -105 347 -105s328 60 347 105h5
v-78c0 -69 -118 -129 -352 -129s-352 60 -352 129z" />
    <glyph glyph-name="uniE00E" unicode="&#xe00e;" horiz-adv-x="1098" 
d="M549 504c-234 0 -350 60 -350 129s116 128 350 128c235 0 350 -59 350 -128s-116 -129 -350 -129zM197 442v78h5c19 -45 113 -105 347 -105s328 60 347 105h5v-78c0 -69 -118 -129 -352 -129s-352 60 -352 129zM197 255v78h5c19 -45 113 -105 347 -105s328 60 347 105h5
v-78c0 -69 -118 -129 -352 -129s-352 60 -352 129zM197 68v78h5c19 -45 113 -105 347 -105s328 60 347 105h5v-78c0 -69 -118 -129 -352 -129s-352 60 -352 129z" />
    <glyph glyph-name="uniE00F" unicode="&#xe00f;" horiz-adv-x="1098" 
d="M549 111l-394 145v18l394 145l394 -145v-18zM549 -76l-389 143v97l389 -143l389 143v-97z" />
    <glyph glyph-name="uniE010" unicode="&#xe010;" horiz-adv-x="1098" 
d="M549 292l-394 145v18l394 145l394 -145v-18zM549 105l-389 143v97l389 -143l389 143v-97zM549 -76l-389 143v97l389 -143l389 143v-97z" />
    <glyph glyph-name="uniE011" unicode="&#xe011;" horiz-adv-x="1098" 
d="M549 473l-394 145v18l394 145l394 -145v-18zM549 286l-389 143v97l389 -143l389 143v-97zM549 105l-389 143v97l389 -143l389 143v-97zM549 -76l-389 143v97l389 -143l389 143v-97z" />
    <glyph glyph-name="uni2295" unicode="&#x2295;" horiz-adv-x="1078" 
d="M539 -46c-253 0 -413 156 -413 396c0 239 160 396 413 396c254 0 413 -156 413 -396c0 -239 -160 -396 -413 -396zM310 309h184v-186h90v186h184v86h-184v186h-90v-186h-184v-86z" />
    <glyph glyph-name="uni2296" unicode="&#x2296;" horiz-adv-x="1078" 
d="M539 -46c-253 0 -413 156 -413 396c0 239 160 396 413 396c254 0 413 -156 413 -396c0 -239 -160 -396 -413 -396zM310 309h458v86h-458v-86z" />
    <glyph glyph-name="uniE012" unicode="&#xe012;" horiz-adv-x="1078" 
d="M539 -46c-253 0 -413 156 -413 396c0 239 160 396 413 396c254 0 413 -156 413 -396c0 -239 -160 -396 -413 -396zM372 536v-93h1c57 35 119 58 183 58c54 0 84 -18 84 -49c0 -30 -33 -60 -156 -91v-81h1c190 38 254 103 254 179c0 82 -78 126 -181 126
c-65 0 -136 -20 -186 -49zM528 108c38 0 61 24 61 55v1c0 30 -23 55 -61 55c-39 0 -62 -25 -62 -55v-1c0 -31 23 -55 62 -55z" />
    <glyph glyph-name="uniE013" unicode="&#xe013;" horiz-adv-x="1078" 
d="M539 -46c-253 0 -413 156 -413 396c0 239 160 396 413 396c254 0 413 -156 413 -396c0 -239 -160 -396 -413 -396zM504 293h70l28 286v4h-126v-4zM539 108c38 0 62 24 62 55v1c0 30 -24 55 -62 55s-61 -25 -61 -55v-1c0 -31 23 -55 61 -55z" />
    <glyph glyph-name="uni2297" unicode="&#x2297;" horiz-adv-x="1078" 
d="M539 -46c-253 0 -413 156 -413 396c0 239 160 396 413 396c254 0 413 -156 413 -396c0 -239 -160 -396 -413 -396zM329 205l64 -63l146 147l146 -147l64 63l-146 145l146 145l-64 63l-146 -147l-146 147l-64 -63l147 -145z" />
    <glyph glyph-name="uni2612" unicode="&#x2612;" horiz-adv-x="1117" 
d="M172 -29v758h773v-758h-773zM391 120l168 169l168 -169l64 63l-169 167l169 167l-64 63l-168 -169l-168 169l-64 -63l168 -167l-168 -167z" />
    <glyph glyph-name="uniE014" unicode="&#xe014;" horiz-adv-x="1079" 
d="M359 -36l-213 213v346l213 213h361l213 -213v-346l-213 -213h-361zM323 307h432v87h-432v-87z" />
    <glyph glyph-name="uni1F6AB" unicode="&#x1f6ab;" horiz-adv-x="1078" 
d="M539 -46c-253 0 -413 156 -413 396c0 239 160 396 413 396c254 0 413 -156 413 -396c0 -239 -160 -396 -413 -396zM228 349c0 -71 17 -132 48 -180l459 432c-50 35 -117 55 -196 55c-194 0 -311 -119 -311 -307zM539 44c194 0 311 119 311 307c0 71 -17 132 -48 180
l-459 -432c50 -35 117 -55 196 -55z" />
    <glyph glyph-name="uni260E" unicode="&#x260e;" horiz-adv-x="1158" 
d="M958 -29h-758l-28 183l139 258h-169c-19 40 -29 76 -29 111c0 135 151 223 466 223s466 -88 466 -223c0 -35 -10 -71 -29 -111h-169l139 -258zM766 579h-374l-12 -101c52 9 123 18 199 18c77 0 147 -9 199 -18zM738 250c0 64 -57 117 -159 117s-160 -53 -160 -117
c0 -65 58 -117 160 -117s159 52 159 117z" />
    <glyph glyph-name="uni1F4F1" unicode="&#x1f4f1;" horiz-adv-x="917" 
d="M311 -42c-99 0 -139 40 -139 139v506c0 99 40 139 139 139h295c99 0 139 -40 139 -139v-506c0 -99 -40 -139 -139 -139h-295zM378 68h160c27 0 43 17 43 43s-16 42 -43 42h-160c-27 0 -43 -16 -43 -42s16 -43 43 -43z" />
    <glyph glyph-name="uniE015" unicode="&#xe015;" horiz-adv-x="1034" 
d="M173 -29v758h441l277 -260v-498h-718zM272 61h521v356h-233v223h-288v-579z" />
    <glyph glyph-name="uni2709" unicode="&#x2709;" horiz-adv-x="1417" 
d="M172 -29v758h1073v-758h-1073zM708 313l360 325h-721zM268 300l-1 -165l227 250l-227 206l1 -135v-156zM1150 591l-226 -206l226 -246l-1 161v156zM709 190l-147 134l-244 -265l150 1h481l149 -1l-242 264z" />
    <glyph glyph-name="uniE015.next" unicode="&#x2398;" horiz-adv-x="1082" 
d="M276 146h-95v583h547l6 -87h-458v-496zM402 -29v555h514v-555h-514zM500 60h318v379h-318v-379z" />
    <glyph glyph-name="uniE015.previous" unicode="&#x2397;" horiz-adv-x="1082" 
d="M680 729v-555h-514v555h514zM582 640h-318v-379h318v379zM806 554h95v-583h-547l-6 87h458v496z" />
    <glyph glyph-name="uniE016" unicode="&#xe016;" horiz-adv-x="1135" 
d="M216 556c-46 0 -75 29 -75 72s29 72 75 72s74 -29 74 -72s-28 -72 -74 -72zM396 584v88h586l-13 -88h-573zM216 278c-46 0 -75 29 -75 72s29 72 75 72s74 -29 74 -72s-28 -72 -74 -72zM396 306v88h586l-13 -88h-573zM216 0c-46 0 -75 29 -75 72s29 72 75 72
s74 -29 74 -72s-28 -72 -74 -72zM396 28v88h586l-13 -88h-573z" />
    <glyph glyph-name="uni1F4C8" unicode="&#x1f4c8;" horiz-adv-x="1062" 
d="M750 -40v769h102v-769h-102zM460 -40v559h102v-559h-102zM170 -40v349h102v-349h-102z" />
    <glyph glyph-name="uni1F4C9" unicode="&#x1f4c9;" horiz-adv-x="1062" 
d="M210 -40v769h102v-769h-102zM500 -40v559h102v-559h-102zM790 -40v349h102v-349h-102z" />
    <glyph glyph-name="uniE021" unicode="&#xe021;" horiz-adv-x="1020" 
d="M406 560v92h208v-92h-208zM258 305v91h504v-91h-504zM99 50v91h822v-91h-822z" />
    <glyph glyph-name="uniE022" unicode="&#xe022;" horiz-adv-x="1020" 
d="M99 560v91h822v-91h-822zM258 305v91h504v-91h-504zM406 50v91h208v-91h-208z" />
    <glyph glyph-name="uni238C" unicode="&#x238c;" horiz-adv-x="1041" 
d="M305 265h245c171 0 261 54 262 186c3 132 -91 185 -262 185h-383l11 93h393c203 0 344 -81 345 -277c2 -196 -142 -280 -345 -280h-267l232 -190h-143l-279 237l277 236h145z" />
    <glyph glyph-name="uniE017" unicode="&#xe017;" horiz-adv-x="825" 
d="M197 85v669l11 4l502 -464v-4h-247l130 -280l-86 -40l-130 286l-176 -171h-4z" />
    <glyph glyph-name="uni1F553" unicode="&#x1f553;" horiz-adv-x="1078" 
d="M539 -46c-253 0 -413 156 -413 396c0 239 160 396 413 396c254 0 413 -156 413 -396c0 -239 -160 -396 -413 -396zM497 312l258 -168v102l-168 108v255h-90v-297z" />
    <glyph glyph-name="uniE028" unicode="&#xe028;" horiz-adv-x="796" 
d="M146 481c0 172 112 265 252 265c144 0 252 -92 252 -265v-262c0 -171 -109 -265 -252 -265c-140 0 -252 93 -252 265v262zM398 407c66 0 102 40 102 103c0 62 -36 102 -102 102c-64 0 -102 -40 -102 -102c0 -63 38 -103 102 -103z" />
    <glyph glyph-name="uniE029" unicode="&#xe029;" horiz-adv-x="796" 
d="M398 -43c-144 0 -252 91 -252 265v261c0 172 109 266 252 266c140 0 252 -93 252 -266v-261c0 -173 -112 -265 -252 -265zM398 91c64 0 102 40 102 102s-38 103 -102 103c-66 0 -102 -41 -102 -103s36 -102 102 -102z" />
    <glyph glyph-name="uniE018" unicode="&#xe018;" horiz-adv-x="960" 
d="M210 245c-67 0 -112 42 -112 106c0 63 45 106 112 106c26 0 49 -7 67 -19l311 169v7c0 59 42 105 110 105c67 0 110 -43 110 -105c0 -64 -43 -106 -110 -106c-30 0 -55 8 -73 23l-307 -166c1 -5 1 -9 1 -14s0 -10 -1 -14l306 -167c19 15 44 24 74 24
c67 0 110 -43 110 -108c0 -63 -43 -105 -110 -105c-68 0 -110 46 -110 105v7l-312 170c-17 -12 -40 -18 -66 -18z" />
    <glyph glyph-name="uni1F50D" unicode="&#x1f50d;" horiz-adv-x="919" 
d="M460 130c-191 0 -322 127 -322 309c0 180 129 307 322 307c192 0 321 -123 321 -307c0 -116 -53 -209 -141 -262l148 -251l-90 -47l-153 260c-26 -6 -55 -9 -85 -9zM461 224c130 0 216 87 216 215c0 129 -86 213 -217 213c-132 0 -218 -87 -218 -213
c0 -128 86 -215 219 -215z" />
    <glyph glyph-name="uni1F517" unicode="&#x1f517;" horiz-adv-x="1462" 
d="M395 -15c-167 80 -273 193 -273 355c0 212 165 379 424 379c267 0 419 -152 419 -336c0 -38 -5 -70 -15 -107l-102 -15c10 29 15 81 15 111c0 157 -130 254 -313 254c-197 0 -322 -126 -322 -279c0 -133 88 -225 252 -301zM920 -18c-267 0 -419 152 -419 336
c0 38 4 70 14 107l103 15c-10 -29 -15 -81 -15 -111c0 -157 129 -254 313 -254c196 0 322 126 322 279c0 131 -89 222 -253 301l85 61c168 -82 273 -195 273 -355c0 -212 -164 -379 -423 -379z" />
    <glyph glyph-name="uni1F512" unicode="&#x1f512;" horiz-adv-x="1066" 
d="M162 -29v427h110v90c0 165 101 258 261 258s261 -93 261 -258v-90h111v-427h-743zM380 474v-76h306v76c0 96 -31 176 -153 176s-153 -80 -153 -176z" />
    <glyph glyph-name="uniE019" unicode="&#xe019;" horiz-adv-x="1078" 
d="M539 -46c-253 0 -413 156 -413 396c0 239 160 396 413 396c254 0 413 -156 413 -396c0 -239 -160 -396 -413 -396zM405 135h268v8l-99 223c53 14 84 58 84 103c0 63 -46 112 -119 112c-72 0 -119 -49 -119 -112c0 -45 31 -89 84 -103l-99 -223v-8z" />
    <glyph glyph-name="uni1F5DD" unicode="&#x1f5dd;" horiz-adv-x="853" 
d="M650 239v-206l-194 4v-77h-94v428c-126 11 -228 66 -228 174c0 121 129 184 275 184c145 0 275 -62 275 -184c0 -107 -103 -163 -228 -174v-153zM409 658c-125 0 -175 -50 -175 -96c0 -45 50 -91 175 -91c124 0 175 46 175 91c0 46 -51 96 -175 96z" />
    <glyph glyph-name="uniE025" unicode="&#xe025;" horiz-adv-x="902" 
d="M207 -52v781h488v-781h-3l-241 222l-241 -222h-3z" />
    <glyph glyph-name="uni1F441" unicode="&#x1f441;" horiz-adv-x="978" 
d="M489 61c-163 0 -277 100 -411 289c134 189 248 289 411 289c164 0 277 -99 411 -289c-134 -190 -247 -289 -411 -289zM489 148c126 0 212 84 212 202c0 119 -85 202 -212 202c-125 0 -212 -84 -212 -202c0 -119 87 -202 212 -202zM489 268c-52 0 -82 31 -82 82
s30 82 82 82c53 0 82 -31 82 -82s-29 -82 -82 -82z" />
    <glyph glyph-name="uni1F4AC" unicode="&#x1f4ac;" horiz-adv-x="1098" 
d="M145 -53l-6 18c114 77 197 161 248 244c-151 37 -241 123 -241 239c0 152 160 298 413 298c254 0 413 -153 413 -296c0 -122 -55 -232 -277 -340c-124 -60 -300 -120 -550 -163z" />
    <glyph glyph-name="uniE026" unicode="&#xe026;" horiz-adv-x="1004" 
d="M502 751c144 0 225 -103 225 -247c0 -127 -81 -259 -225 -259s-225 132 -225 259c0 144 81 247 225 247zM897 -29h-790l10 117c5 60 41 83 150 104l71 15c47 -44 100 -70 164 -70c63 0 117 26 164 70l71 -15c109 -21 145 -44 150 -104z" />
    <glyph glyph-name="heart" unicode="&#x2665;" horiz-adv-x="1010" 
d="M503 601h4c32 92 97 145 186 145c97 0 193 -69 193 -224c0 -181 -175 -397 -378 -574h-6c-202 177 -378 393 -378 574c0 155 97 224 194 224c89 0 153 -53 185 -145z" />
    <glyph glyph-name="uni2302" unicode="&#x2302;" horiz-adv-x="1050" 
d="M869 -29h-688v489l344 293l344 -293v-489z" />
    <glyph glyph-name="uni1F4D5" unicode="&#x1f4d5;" horiz-adv-x="1019" 
d="M398 -29c-97 0 -151 48 -203 104c-33 36 -43 70 -43 120v357c0 59 14 111 46 143c25 25 64 35 106 35h449v-179h-1l-99 90h-358c-29 0 -43 -13 -41 -32c2 -15 17 -33 42 -55c37 -34 64 -45 108 -45h473v-538h-479z" />
    <glyph glyph-name="uni1F6D2" unicode="&#x1f6d2;" horiz-adv-x="1077" 
d="M76 640l5 89h207l37 -172h590l-48 -294l-573 -52l-87 429h-131zM334 -11c-55 0 -87 37 -87 84v1c0 47 32 83 87 83s87 -36 87 -83v-1c0 -47 -32 -84 -87 -84zM799 -11c-55 0 -87 37 -87 84v1c0 47 32 83 87 83c56 0 87 -36 87 -83v-1c0 -47 -31 -84 -87 -84z" />
    <glyph glyph-name="uni2698" unicode="&#x2698;" horiz-adv-x="1060" 
d="M740 23c-43 0 -88 28 -106 78c-39 -29 -61 -68 -74 -141h-60c-13 73 -35 112 -74 141c-17 -50 -62 -78 -106 -78c-74 0 -158 59 -222 173v6c58 30 130 49 181 49c58 0 150 -19 216 -143l-8 173c-187 56 -246 113 -254 293l-5 132l6 3c54 -27 128 -79 180 -142
c27 83 69 160 115 196h3c46 -36 87 -112 114 -196c52 64 126 115 180 142l7 -3l-6 -132c-10 -180 -66 -237 -253 -293l-9 -173c66 124 159 143 217 143c51 0 122 -19 180 -49v-6c-63 -114 -148 -173 -222 -173z" />
    <glyph glyph-name="uniE01D" unicode="&#xe01d;" horiz-adv-x="1020" 
d="M461 -40l1 208l-203 -106l-23 130l-130 82v20l135 66l-86 183l15 28l211 -55l116 247h26l116 -247l211 55l15 -28l-86 -183l135 -66v-20l-130 -82l-23 -130l-203 106l1 -208h-98z" />
    <glyph glyph-name="uniE01E" unicode="&#xe01e;" horiz-adv-x="1020" 
d="M460 -40l1 115l-375 66l-2 9l189 160l-84 40l-2 8l167 140l-63 33l-2 8l215 224h12l216 -224l-2 -8l-63 -33l167 -140l-2 -8l-84 -40l188 -160l-2 -9l-375 -66l1 -115h-100z" />
    <glyph glyph-name="uniE01A" unicode="&#xe01a;" horiz-adv-x="1116" 
d="M333 7l-2 12l51 72l-242 196l-22 51l4 46l40 44l-4 61l19 38l52 28l17 62l32 30l61 9l38 52l38 16l62 -15l56 37h50l56 -37l62 15l38 -16l38 -52l61 -9l32 -30l17 -62l52 -28l19 -38l-4 -61l40 -44l4 -46l-22 -51l-241 -195l51 -73l-3 -12h-153l-66 -53h-12l-66 53h-153z
" />
    <glyph glyph-name="uni1F514" unicode="&#x1f514;" horiz-adv-x="1034" 
d="M126 72l10 94c4 31 17 41 44 68l43 43l24 142c17 142 97 218 190 245l17 90h127l16 -90c94 -27 174 -104 191 -245l23 -142l44 -43c27 -27 40 -37 44 -68l10 -94h-333c24 -16 38 -41 38 -69v-2c0 -46 -35 -87 -97 -87s-96 41 -96 87v2c0 28 14 53 38 69h-333z" />
    <glyph glyph-name="uni1F451" unicode="&#x1f451;" horiz-adv-x="1180" 
d="M228 112l-126 443l27 13l162 -154l18 3l19 213l26 5l125 -179l20 2l79 256h25l78 -256l20 -2l126 179l26 -5l18 -213l18 -3l163 154l27 -13l-126 -443h-725z" />
    <glyph glyph-name="uniE01F" unicode="&#xe01f;" horiz-adv-x="1000" 
d="M196 -29l59 447l-104 121l15 190h133l8 -116h117l8 116h137l8 -116h117l7 116h133l16 -190l-104 -121l58 -447h-608z" />
    <glyph glyph-name="uni1F6E1" unicode="&#x1f6e1;" horiz-adv-x="1020" 
d="M505 -53c-208 123 -354 271 -354 519c0 67 10 140 32 223c100 33 201 60 327 60s227 -27 327 -60c22 -83 32 -156 32 -223c0 -248 -146 -396 -354 -519h-10z" />
    <glyph glyph-name="uniE01B" unicode="&#xe01b;" horiz-adv-x="1020" 
d="M510 -68c-176 55 -362 174 -359 326c0 104 36 147 36 230c0 42 -16 79 -45 124l118 120c41 -18 77 -30 122 -30c51 0 84 22 122 60h12c38 -38 72 -60 123 -60c45 0 81 12 122 30l117 -120c-29 -45 -45 -82 -45 -124c0 -83 36 -126 36 -230c3 -152 -182 -271 -359 -326z
" />
    <glyph glyph-name="uniE01C" unicode="&#xe01c;" horiz-adv-x="870" 
d="M587 -40v315h-481v12l174 215l-174 215v12h579v-769h-98z" />
    <glyph glyph-name="uniE020" unicode="&#xe020;" horiz-adv-x="820" 
d="M635 -40h-98v305l-501 221v12l584 256h15v-794z" />
    <glyph glyph-name="uni2691" unicode="&#x2691;" horiz-adv-x="890" 
d="M705 -40h-98v365h-481v404h579v-769z" />
    <glyph glyph-name="hcoslug" unicode="&#xe10b;" horiz-adv-x="701" 
d="M53 -100v800h594v-800h-594zM228 156c42 0 76 14 104 45c33 -34 55 -45 85 -45c43 0 78 36 80 94l-7 2c-10 -17 -22 -29 -43 -29c-20 0 -37 12 -62 41c15 20 31 33 46 42c9 -15 25 -25 43 -25c28 0 50 23 50 54s-22 52 -50 52c-25 0 -44 -14 -60 -38c-2 27 -22 38 -49 37
c6 10 9 21 9 34c0 35 -33 74 -95 74c-67 0 -109 -42 -109 -85c0 -29 10 -47 31 -69c-53 -18 -82 -49 -82 -91c0 -53 49 -93 109 -93zM288 369c-23 22 -38 36 -38 59c0 17 11 29 27 29c17 0 29 -15 29 -38c0 -17 -7 -33 -18 -50zM356 296c-13 15 -25 30 -41 46
c19 13 33 24 42 34c23 -23 18 -47 -1 -80zM264 219c-30 0 -52 23 -52 54c0 15 5 29 16 40c18 -17 46 -47 74 -82c-11 -9 -23 -12 -38 -12zM355 73h6l4 8c3 -5 7 -8 14 -8c12 0 16 12 16 21c0 12 -6 20 -15 20c-6 0 -11 -3 -13 -9v27h-18v-7h6v-52zM128 74h30v7h-10v16h4
c5 0 5 -1 6 -8h7v23h-7c-1 -7 -1 -8 -6 -8h-4v18h12c7 0 9 -2 11 -13h8v20h-51v-7h7v-41h-7v-7zM289 73c8 0 12 4 14 13l-5 2c-1 -5 -3 -7 -5 -7c-3 0 -4 2 -4 5v20h13v7h-13v11l-12 -2v-9h-7v-7h7v-20c0 -8 4 -13 12 -13zM222 74h22v7h-4v15c0 6 3 10 7 10s6 -3 6 -7v-18
h-4v-7h22v7h-6v19c0 8 -3 14 -12 14c-7 0 -11 -4 -14 -11v10h-17v-7h6v-25h-6v-7zM198 73c12 0 21 9 21 21s-9 20 -21 20s-21 -8 -21 -20c0 -13 9 -21 21 -21zM326 73c9 0 14 6 14 13c0 16 -24 10 -24 18c0 2 2 4 5 4c4 0 7 -3 10 -7h7v13h-6l-2 -5c-2 3 -6 5 -11 5
c-9 0 -14 -6 -14 -12c0 -16 24 -11 24 -19c0 -2 -2 -4 -5 -4c-5 0 -8 3 -12 9h-7v-14h7l1 4c3 -2 6 -5 13 -5zM407 59c9 0 14 6 18 16l13 31h5v7h-17v-7h5l-8 -20l-9 20h6v7h-25v-7h5s12 -23 16 -33c-1 -5 -4 -8 -8 -8c3 3 2 10 -5 10c-4 0 -7 -3 -7 -7c0 -5 4 -9 11 -9z
M198 78c-5 0 -8 4 -8 16c0 11 3 15 8 15s8 -4 8 -15c0 -12 -3 -16 -8 -16zM375 80c-6 0 -8 5 -8 13c0 7 2 13 8 13c5 0 7 -5 7 -13s-2 -13 -7 -13zM279 0h23v7h-5v25h14v-25h-5v-7h23v7h-6v52l-10 -2c-2 1 -6 2 -9 2c-10 0 -19 -6 -19 -19v-1h-7v-7h7v-25h-6v-7zM501 -1
c15 0 23 9 24 23h-8c-1 -9 -6 -16 -14 -16c-10 0 -16 7 -16 22c0 16 6 22 14 22s11 -4 15 -16h8v22h-8l-1 -6c-4 4 -9 7 -16 7c-14 0 -27 -12 -27 -30c0 -17 11 -28 29 -28zM127 0h29v7h-8v18h22v-18h-8v-7h29v7h-8v41h8v7h-29v-7h8v-16h-22v16h8v7h-29v-7h8v-41h-8v-7z
M297 39v3c0 10 3 12 6 12c2 0 3 -1 3 -1s-1 -1 -1 -3c0 -4 3 -6 6 -6v-5h-14zM428 -1c6 0 11 2 15 6c4 -5 7 -6 12 -6c8 0 11 5 13 12l-5 1c-1 -4 -2 -5 -4 -5s-4 2 -6 5c3 4 6 8 9 14h5v7h-18v-7h6c-1 -3 -4 -7 -6 -9c-4 4 -7 8 -12 13c7 3 11 6 11 12s-5 12 -14 12
c-10 0 -17 -7 -17 -14c0 -5 2 -8 6 -12c-7 -2 -13 -7 -13 -15s6 -14 18 -14zM434 33c-4 4 -6 7 -6 10s2 5 5 5c4 0 6 -3 6 -6c0 -4 -2 -7 -5 -9zM371 0h26v7h-8v16c2 5 5 9 7 9v-1c0 -4 3 -6 6 -6c4 0 7 3 7 7c0 5 -3 8 -8 8s-9 -3 -12 -11v10h-18v-7h6v-25h-6v-7zM258 -1
c11 0 16 6 18 14h-7c-1 -5 -4 -7 -9 -7c-7 0 -10 3 -10 12h26c1 13 -5 22 -19 22c-11 0 -20 -9 -20 -21s8 -20 21 -20zM351 -1c11 0 16 6 18 14h-7c-1 -5 -4 -7 -9 -7c-7 0 -10 3 -10 12h26c1 13 -5 22 -19 22c-11 0 -20 -9 -20 -21s8 -20 21 -20zM549 -1c12 0 21 9 21 21
s-9 20 -21 20s-21 -8 -21 -20c0 -13 9 -21 21 -21zM213 -1c12 0 21 9 21 21s-9 20 -21 20s-21 -8 -21 -20c0 -13 9 -21 21 -21zM343 23c0 9 3 12 7 12c5 0 7 -4 7 -12h-14zM250 23c0 9 3 12 7 12c5 0 7 -4 7 -12h-14zM549 4c-5 0 -8 4 -8 16c0 11 3 15 8 15s8 -4 8 -15
c0 -12 -3 -16 -8 -16zM213 4c-5 0 -8 4 -8 16c0 11 3 15 8 15s8 -4 8 -15c0 -12 -3 -16 -8 -16zM432 6c-6 0 -10 4 -10 10c0 4 2 7 4 9c5 -5 9 -10 14 -16c-3 -2 -6 -3 -8 -3zM579 -1c4 0 7 3 7 7s-3 7 -7 7s-7 -3 -7 -7s3 -7 7 -7z" />
    <glyph glyph-name="space.tab" horiz-adv-x="362" 
 />
    <glyph glyph-name="uni00A0" unicode="&#xa0;" horiz-adv-x="284" 
 />
    <glyph glyph-name="uni00AD" unicode="&#xad;" horiz-adv-x="0" 
 />
    <glyph glyph-name="uni2002" unicode="&#x2002;" horiz-adv-x="500" 
 />
    <glyph glyph-name="uni2003" unicode="&#x2003;" horiz-adv-x="1000" 
 />
    <glyph glyph-name="uni2004" unicode="&#x2004;" horiz-adv-x="333" 
 />
    <glyph glyph-name="uni2005" unicode="&#x2005;" horiz-adv-x="250" 
 />
    <glyph glyph-name="uni2007" unicode="&#x2007;" horiz-adv-x="452" 
 />
    <glyph glyph-name="uni2008" unicode="&#x2008;" horiz-adv-x="373" 
 />
    <glyph glyph-name="uni2009" unicode="&#x2009;" horiz-adv-x="133" 
 />
    <glyph glyph-name="uni200A" unicode="&#x200a;" horiz-adv-x="75" 
 />
    <glyph glyph-name="uni200B" unicode="&#x200b;" horiz-adv-x="0" 
 />
    <glyph glyph-name="uniFEFF" unicode="&#xfeff;" horiz-adv-x="0" 
 />
    <glyph glyph-name="uni202F" unicode="&#x202f;" horiz-adv-x="133" 
 />
    <glyph glyph-name="uni200D" unicode="&#x200d;" horiz-adv-x="0" 
 />
    <glyph glyph-name="uni200C" unicode="&#x200c;" horiz-adv-x="0" 
 />
    <glyph glyph-name="zero.small" 
d="M216 -11c-126 0 -185 86 -185 211s63 213 188 213c126 0 184 -86 184 -211s-62 -213 -187 -213zM217 57c73 0 106 57 106 144s-32 145 -105 145c-74 0 -107 -58 -107 -145s32 -144 106 -144z" />
    <glyph glyph-name="one.small" horiz-adv-x="326" 
d="M139 0v337h-105l13 66h175v-403h-83z" />
    <glyph glyph-name="one.small_alt" 
d="M397 65v-65h-323v65h127v272h-129l10 66h202v-338h113z" />
    <glyph glyph-name="two.small" 
d="M57 0v65l143 116c83 66 101 83 101 113c0 32 -27 50 -73 50c-49 0 -101 -22 -156 -65h-1v78c52 37 104 57 163 57c99 0 148 -46 148 -113c0 -66 -41 -94 -136 -169l-78 -64h216v-68h-327z" />
    <glyph glyph-name="three.small" 
d="M211 -11c-57 0 -106 12 -154 31v72h1c50 -21 99 -36 144 -36c64 0 104 24 104 64c0 41 -30 60 -146 60h-16v39l143 118h-223l2 66h312v-64l-130 -109c93 -9 140 -46 140 -112c0 -79 -71 -129 -177 -129z" />
    <glyph glyph-name="four.small" 
d="M274 0v87h-248v61l129 255h194v-250h70l-3 -66h-67v-87h-75zM108 152h167v186h-71z" />
    <glyph glyph-name="five.small" 
d="M216 -11c-62 0 -109 11 -156 29v73h1c46 -21 96 -34 154 -34c70 0 92 33 92 63c0 16 -4 27 -13 36c-18 17 -54 23 -139 23h-84l6 224h287l4 -68h-219l-2 -94h37c93 0 144 -11 175 -43c18 -18 29 -42 29 -77c0 -79 -64 -132 -172 -132z" />
    <glyph glyph-name="six.small" 
d="M226 -11c-113 0 -181 67 -181 200c0 146 84 224 206 224c47 0 83 -7 121 -23v-70h-1c-41 19 -75 28 -117 28c-71 0 -129 -38 -132 -130c35 24 85 37 127 37c85 0 144 -38 144 -121c0 -95 -76 -145 -167 -145zM234 195c-39 0 -82 -13 -112 -35c4 -74 45 -107 104 -107
c52 0 92 27 92 77c0 46 -35 65 -84 65z" />
    <glyph glyph-name="seven.small" 
d="M56 258v145h335v-98l-176 -305h-88l181 311v26h-179v-79h-73z" />
    <glyph glyph-name="eight.small" 
d="M217 -12c-119 0 -178 45 -178 115c0 49 30 83 92 100c-56 15 -82 45 -82 93c0 69 60 117 168 117s168 -48 168 -117c0 -48 -26 -78 -82 -93c62 -17 92 -51 92 -100c0 -70 -59 -115 -178 -115zM217 229c59 0 92 21 92 58c0 40 -32 64 -92 64s-92 -24 -92 -64
c0 -37 33 -58 92 -58zM217 49c66 0 100 25 100 64s-38 63 -100 63s-100 -24 -100 -63s34 -64 100 -64z" />
    <glyph glyph-name="nine.small" 
d="M208 413c113 0 181 -67 181 -200c0 -146 -84 -224 -206 -224c-47 0 -83 7 -121 23v70h1c41 -19 75 -28 117 -28c71 0 129 38 132 130c-35 -24 -85 -37 -127 -37c-85 0 -144 38 -144 121c0 95 76 145 167 145zM116 272c0 -46 35 -65 84 -65c39 0 82 13 112 35
c-4 74 -45 107 -104 107c-52 0 -92 -27 -92 -77z" />
    <glyph glyph-name="zero.num" 
d="M236 286c-126 0 -185 86 -185 211s63 213 188 213c126 0 184 -86 184 -211s-62 -213 -187 -213zM237 354c73 0 106 57 106 144s-32 145 -105 145c-74 0 -107 -58 -107 -145s32 -144 106 -144z" />
    <glyph glyph-name="one.num" horiz-adv-x="326" 
d="M159 297v337h-105l13 66h175v-403h-83z" />
    <glyph glyph-name="one.num_alt" 
d="M417 362v-65h-323v65h127v272h-129l10 66h202v-338h113z" />
    <glyph glyph-name="two.num" 
d="M77 297v65l143 116c83 66 101 83 101 113c0 32 -27 50 -73 50c-49 0 -101 -22 -156 -65h-1v78c52 37 104 57 163 57c99 0 148 -46 148 -113c0 -66 -41 -94 -136 -169l-78 -64h216v-68h-327z" />
    <glyph glyph-name="three.num" 
d="M231 286c-57 0 -106 12 -154 31v72h1c50 -21 99 -36 144 -36c64 0 104 24 104 64c0 41 -30 60 -146 60h-16v39l143 118h-223l2 66h312v-64l-130 -109c93 -9 140 -46 140 -112c0 -79 -71 -129 -177 -129z" />
    <glyph glyph-name="four.num" 
d="M294 297v87h-248v61l129 255h194v-250h70l-3 -66h-67v-87h-75zM128 449h167v186h-71z" />
    <glyph glyph-name="five.num" 
d="M236 286c-62 0 -109 11 -156 29v73h1c46 -21 96 -34 154 -34c70 0 92 33 92 63c0 16 -4 27 -13 36c-18 17 -54 23 -139 23h-84l6 224h287l4 -68h-219l-2 -94h37c93 0 144 -11 175 -43c18 -18 29 -42 29 -77c0 -79 -64 -132 -172 -132z" />
    <glyph glyph-name="six.num" 
d="M246 286c-113 0 -181 67 -181 200c0 146 84 224 206 224c47 0 83 -7 121 -23v-70h-1c-41 19 -75 28 -117 28c-71 0 -129 -38 -132 -130c35 24 85 37 127 37c85 0 144 -38 144 -121c0 -95 -76 -145 -167 -145zM254 492c-39 0 -82 -13 -112 -35c4 -74 45 -107 104 -107
c52 0 92 27 92 77c0 46 -35 65 -84 65z" />
    <glyph glyph-name="seven.num" 
d="M76 555v145h335v-98l-176 -305h-88l181 311v26h-179v-79h-73z" />
    <glyph glyph-name="eight.num" 
d="M237 285c-119 0 -178 45 -178 115c0 49 30 83 92 100c-56 15 -82 45 -82 93c0 69 60 117 168 117s168 -48 168 -117c0 -48 -26 -78 -82 -93c62 -17 92 -51 92 -100c0 -70 -59 -115 -178 -115zM237 526c59 0 92 21 92 58c0 40 -32 64 -92 64s-92 -24 -92 -64
c0 -37 33 -58 92 -58zM237 346c66 0 100 25 100 64s-38 63 -100 63s-100 -24 -100 -63s34 -64 100 -64z" />
    <glyph glyph-name="nine.num" 
d="M228 710c113 0 181 -67 181 -200c0 -146 -84 -224 -206 -224c-47 0 -83 7 -121 23v70h1c41 -19 75 -28 117 -28c71 0 129 38 132 130c-35 -24 -85 -37 -127 -37c-85 0 -144 38 -144 121c0 95 76 145 167 145zM136 569c0 -46 35 -65 84 -65c39 0 82 13 112 35
c-4 74 -45 107 -104 107c-52 0 -92 -27 -92 -77z" />
    <glyph glyph-name="fraction" unicode="&#x2044;" horiz-adv-x="266" 
d="M-158 1l496 699h85v-1l-496 -699h-85v1z" />
    <glyph glyph-name="zero.den" 
d="M196 -11c-126 0 -185 86 -185 211s63 213 188 213c126 0 184 -86 184 -211s-62 -213 -187 -213zM197 57c73 0 106 57 106 144s-32 145 -105 145c-74 0 -107 -58 -107 -145s32 -144 106 -144z" />
    <glyph glyph-name="one.den" horiz-adv-x="326" 
d="M119 0v337h-105l13 66h175v-403h-83z" />
    <glyph glyph-name="one.den_alt" 
d="M377 65v-65h-323v65h127v272h-129l10 66h202v-338h113z" />
    <glyph glyph-name="two.den" 
d="M37 0v65l143 116c83 66 101 83 101 113c0 32 -27 50 -73 50c-49 0 -101 -22 -156 -65h-1v78c52 37 104 57 163 57c99 0 148 -46 148 -113c0 -66 -41 -94 -136 -169l-78 -64h216v-68h-327z" />
    <glyph glyph-name="three.den" 
d="M191 -11c-57 0 -106 12 -154 31v72h1c50 -21 99 -36 144 -36c64 0 104 24 104 64c0 41 -30 60 -146 60h-16v39l143 118h-223l2 66h312v-64l-130 -109c93 -9 140 -46 140 -112c0 -79 -71 -129 -177 -129z" />
    <glyph glyph-name="four.den" 
d="M254 0v87h-248v61l129 255h194v-250h70l-3 -66h-67v-87h-75zM88 152h167v186h-71z" />
    <glyph glyph-name="five.den" 
d="M196 -11c-62 0 -109 11 -156 29v73h1c46 -21 96 -34 154 -34c70 0 92 33 92 63c0 16 -4 27 -13 36c-18 17 -54 23 -139 23h-84l6 224h287l4 -68h-219l-2 -94h37c93 0 144 -11 175 -43c18 -18 29 -42 29 -77c0 -79 -64 -132 -172 -132z" />
    <glyph glyph-name="six.den" 
d="M206 -11c-113 0 -181 67 -181 200c0 146 84 224 206 224c47 0 83 -7 121 -23v-70h-1c-41 19 -75 28 -117 28c-71 0 -129 -38 -132 -130c35 24 85 37 127 37c85 0 144 -38 144 -121c0 -95 -76 -145 -167 -145zM214 195c-39 0 -82 -13 -112 -35c4 -74 45 -107 104 -107
c52 0 92 27 92 77c0 46 -35 65 -84 65z" />
    <glyph glyph-name="seven.den" 
d="M36 258v145h335v-98l-176 -305h-88l181 311v26h-179v-79h-73z" />
    <glyph glyph-name="eight.den" 
d="M197 -12c-119 0 -178 45 -178 115c0 49 30 83 92 100c-56 15 -82 45 -82 93c0 69 60 117 168 117s168 -48 168 -117c0 -48 -26 -78 -82 -93c62 -17 92 -51 92 -100c0 -70 -59 -115 -178 -115zM197 229c59 0 92 21 92 58c0 40 -32 64 -92 64s-92 -24 -92 -64
c0 -37 33 -58 92 -58zM197 49c66 0 100 25 100 64s-38 63 -100 63s-100 -24 -100 -63s34 -64 100 -64z" />
    <glyph glyph-name="nine.den" 
d="M188 413c113 0 181 -67 181 -200c0 -146 -84 -224 -206 -224c-47 0 -83 7 -121 23v70h1c41 -19 75 -28 117 -28c71 0 129 38 132 130c-35 -24 -85 -37 -127 -37c-85 0 -144 38 -144 121c0 95 76 145 167 145zM96 272c0 -46 35 -65 84 -65c39 0 82 13 112 35
c-4 74 -45 107 -104 107c-52 0 -92 -27 -92 -77z" />
    <glyph glyph-name="zero.num_tab" 
d="M226 286c-126 0 -185 86 -185 211s63 213 188 213c126 0 184 -86 184 -211s-62 -213 -187 -213zM227 354c73 0 106 57 106 144s-32 145 -105 145c-74 0 -107 -58 -107 -145s32 -144 106 -144z" />
    <glyph glyph-name="one.num_tab_alt" 
d="M407 362v-65h-323v65h127v272h-129l10 66h202v-338h113z" />
    <glyph glyph-name="two.num_tab" 
d="M67 297v65l143 116c83 66 101 83 101 113c0 32 -27 50 -73 50c-49 0 -101 -22 -156 -65h-1v78c52 37 104 57 163 57c99 0 148 -46 148 -113c0 -66 -41 -94 -136 -169l-78 -64h216v-68h-327z" />
    <glyph glyph-name="three.num_tab" 
d="M221 286c-57 0 -106 12 -154 31v72h1c50 -21 99 -36 144 -36c64 0 104 24 104 64c0 41 -30 60 -146 60h-16v39l143 118h-223l2 66h312v-64l-130 -109c93 -9 140 -46 140 -112c0 -79 -71 -129 -177 -129z" />
    <glyph glyph-name="four.num_tab" 
d="M284 297v87h-248v61l129 255h194v-250h70l-3 -66h-67v-87h-75zM118 449h167v186h-71z" />
    <glyph glyph-name="five.num_tab" 
d="M226 286c-62 0 -109 11 -156 29v73h1c46 -21 96 -34 154 -34c70 0 92 33 92 63c0 16 -4 27 -13 36c-18 17 -54 23 -139 23h-84l6 224h287l4 -68h-219l-2 -94h37c93 0 144 -11 175 -43c18 -18 29 -42 29 -77c0 -79 -64 -132 -172 -132z" />
    <glyph glyph-name="six.num_tab" 
d="M236 286c-113 0 -181 67 -181 200c0 146 84 224 206 224c47 0 83 -7 121 -23v-70h-1c-41 19 -75 28 -117 28c-71 0 -129 -38 -132 -130c35 24 85 37 127 37c85 0 144 -38 144 -121c0 -95 -76 -145 -167 -145zM244 492c-39 0 -82 -13 -112 -35c4 -74 45 -107 104 -107
c52 0 92 27 92 77c0 46 -35 65 -84 65z" />
    <glyph glyph-name="seven.num_tab" 
d="M66 555v145h335v-98l-176 -305h-88l181 311v26h-179v-79h-73z" />
    <glyph glyph-name="eight.num_tab" 
d="M227 285c-119 0 -178 45 -178 115c0 49 30 83 92 100c-56 15 -82 45 -82 93c0 69 60 117 168 117s168 -48 168 -117c0 -48 -26 -78 -82 -93c62 -17 92 -51 92 -100c0 -70 -59 -115 -178 -115zM227 526c59 0 92 21 92 58c0 40 -32 64 -92 64s-92 -24 -92 -64
c0 -37 33 -58 92 -58zM227 346c66 0 100 25 100 64s-38 63 -100 63s-100 -24 -100 -63s34 -64 100 -64z" />
    <glyph glyph-name="nine.num_tab" 
d="M218 710c113 0 181 -67 181 -200c0 -146 -84 -224 -206 -224c-47 0 -83 7 -121 23v70h1c41 -19 75 -28 117 -28c71 0 129 38 132 130c-35 -24 -85 -37 -127 -37c-85 0 -144 38 -144 121c0 95 76 145 167 145zM126 569c0 -46 35 -65 84 -65c39 0 82 13 112 35
c-4 74 -45 107 -104 107c-52 0 -92 -27 -92 -77z" />
    <glyph glyph-name="fraction.tab" horiz-adv-x="218" 
d="M-181 1l495 699h85v-1l-495 -699h-85v1z" />
    <glyph glyph-name="zero.den_tab" 
d="M206 -11c-126 0 -185 86 -185 211s63 213 188 213c126 0 184 -86 184 -211s-62 -213 -187 -213zM207 57c73 0 106 57 106 144s-32 145 -105 145c-74 0 -107 -58 -107 -145s32 -144 106 -144z" />
    <glyph glyph-name="one.den_tab_alt" 
d="M387 65v-65h-323v65h127v272h-129l10 66h202v-338h113z" />
    <glyph glyph-name="two.den_tab" 
d="M47 0v65l143 116c83 66 101 83 101 113c0 32 -27 50 -73 50c-49 0 -101 -22 -156 -65h-1v78c52 37 104 57 163 57c99 0 148 -46 148 -113c0 -66 -41 -94 -136 -169l-78 -64h216v-68h-327z" />
    <glyph glyph-name="three.den_tab" 
d="M201 -11c-57 0 -106 12 -154 31v72h1c50 -21 99 -36 144 -36c64 0 104 24 104 64c0 41 -30 60 -146 60h-16v39l143 118h-223l2 66h312v-64l-130 -109c93 -9 140 -46 140 -112c0 -79 -71 -129 -177 -129z" />
    <glyph glyph-name="four.den_tab" 
d="M264 0v87h-248v61l129 255h194v-250h70l-3 -66h-67v-87h-75zM98 152h167v186h-71z" />
    <glyph glyph-name="five.den_tab" 
d="M206 -11c-62 0 -109 11 -156 29v73h1c46 -21 96 -34 154 -34c70 0 92 33 92 63c0 16 -4 27 -13 36c-18 17 -54 23 -139 23h-84l6 224h287l4 -68h-219l-2 -94h37c93 0 144 -11 175 -43c18 -18 29 -42 29 -77c0 -79 -64 -132 -172 -132z" />
    <glyph glyph-name="six.den_tab" 
d="M216 -11c-113 0 -181 67 -181 200c0 146 84 224 206 224c47 0 83 -7 121 -23v-70h-1c-41 19 -75 28 -117 28c-71 0 -129 -38 -132 -130c35 24 85 37 127 37c85 0 144 -38 144 -121c0 -95 -76 -145 -167 -145zM224 195c-39 0 -82 -13 -112 -35c4 -74 45 -107 104 -107
c52 0 92 27 92 77c0 46 -35 65 -84 65z" />
    <glyph glyph-name="seven.den_tab" 
d="M46 258v145h335v-98l-176 -305h-88l181 311v26h-179v-79h-73z" />
    <glyph glyph-name="eight.den_tab" 
d="M207 -12c-119 0 -178 45 -178 115c0 49 30 83 92 100c-56 15 -82 45 -82 93c0 69 60 117 168 117s168 -48 168 -117c0 -48 -26 -78 -82 -93c62 -17 92 -51 92 -100c0 -70 -59 -115 -178 -115zM207 229c59 0 92 21 92 58c0 40 -32 64 -92 64s-92 -24 -92 -64
c0 -37 33 -58 92 -58zM207 49c66 0 100 25 100 64s-38 63 -100 63s-100 -24 -100 -63s34 -64 100 -64z" />
    <glyph glyph-name="nine.den_tab" 
d="M198 413c113 0 181 -67 181 -200c0 -146 -84 -224 -206 -224c-47 0 -83 7 -121 23v70h1c41 -19 75 -28 117 -28c71 0 129 38 132 130c-35 -24 -85 -37 -127 -37c-85 0 -144 38 -144 121c0 95 76 145 167 145zM106 272c0 -46 35 -65 84 -65c39 0 82 13 112 35
c-4 74 -45 107 -104 107c-52 0 -92 -27 -92 -77z" />
    <glyph glyph-name="A.sc" horiz-adv-x="748" 
d="M51 0l224 582h199l223 -582h-104l-53 140h-333l-52 -140h-104zM344 496l-106 -272h270l-105 272h-59z" />
    <glyph glyph-name="B.sc" horiz-adv-x="739" 
d="M118 0v582h334c132 0 202 -50 202 -145c0 -66 -30 -115 -117 -135c87 -26 129 -68 129 -140c0 -116 -85 -162 -230 -162h-318zM216 336h213c85 0 126 27 126 84c0 54 -38 78 -117 78h-222v-162zM216 84l222 2c92 0 129 28 129 88c0 56 -44 86 -133 86h-218v-176z" />
    <glyph glyph-name="C.sc" horiz-adv-x="711" 
d="M397 -14c-218 0 -324 135 -324 305c0 168 121 304 331 304c100 0 178 -33 230 -74v-98h-1c-67 50 -143 84 -230 84c-138 0 -227 -94 -227 -216c0 -124 75 -216 227 -216c90 0 166 35 230 83h1v-100c-46 -34 -131 -72 -237 -72z" />
    <glyph glyph-name="D.sc" horiz-adv-x="774" 
d="M118 0v582h276c197 0 307 -110 307 -290s-110 -292 -307 -292h-276zM218 87h166c145 0 214 71 214 203s-69 206 -213 206h-167v-409z" />
    <glyph glyph-name="E.sc" horiz-adv-x="697" 
d="M118 0v582h492l4 -85h-396v-160h321v-83h-321v-168h411l-4 -86h-507z" />
    <glyph glyph-name="F.sc" horiz-adv-x="664" 
d="M118 0v582h484l5 -86h-389v-169h326v-87h-326v-240h-100z" />
    <glyph glyph-name="G.sc" horiz-adv-x="772" 
d="M398 -16c-213 0 -325 132 -325 301c0 173 124 310 335 310c102 0 184 -33 236 -74v-99h-1c-60 44 -138 84 -238 84c-140 0 -229 -92 -229 -220c0 -125 77 -215 228 -215c127 0 203 70 204 172h-237v82h334c1 -11 1 -32 1 -44c0 -209 -142 -297 -308 -297z" />
    <glyph glyph-name="H.sc" horiz-adv-x="800" 
d="M118 0v582h100v-245h365v245h99v-582h-99v251h-365v-251h-100z" />
    <glyph glyph-name="I.sc" horiz-adv-x="343" 
d="M121 0v582h100v-582h-100z" />
    <glyph glyph-name="J.sc" horiz-adv-x="606" 
d="M259 -13c-81 0 -153 21 -215 66v99h1c68 -53 137 -77 208 -77c88 0 145 35 145 149v358h100v-373c0 -155 -96 -222 -239 -222z" />
    <glyph glyph-name="J.sc_alt" horiz-adv-x="652" 
d="M302 -13c-81 0 -154 20 -224 65v101h1c74 -54 152 -78 222 -78c90 0 143 39 143 128v294h-256l4 85h352v-392c0 -138 -90 -203 -242 -203z" />
    <glyph glyph-name="K.sc" horiz-adv-x="737" 
d="M118 0v582h100v-241h131l219 241h115l-255 -280l268 -301v-1h-121l-231 255h-126v-255h-100z" />
    <glyph glyph-name="L.sc" horiz-adv-x="628" 
d="M118 0v582h100v-493h366l-4 -89h-462z" />
    <glyph glyph-name="M.sc" horiz-adv-x="925" 
d="M118 0v582h123l223 -375l220 375h123v-582h-96v441h-8l-238 -398h-7l-235 396h-8v-439h-97z" />
    <glyph glyph-name="N.sc" horiz-adv-x="802" 
d="M118 0v582h120l340 -440h9v440h97v-582h-113l-347 449h-8v-449h-98z" />
    <glyph glyph-name="O.sc" horiz-adv-x="804" 
d="M401 -19c-198 0 -328 119 -328 308c0 188 132 311 330 311s328 -119 328 -308c0 -188 -132 -311 -330 -311zM402 70c135 0 226 81 226 220s-92 221 -226 221c-135 0 -226 -81 -226 -220s91 -221 226 -221z" />
    </font>
</defs>
</svg>
