<?xml version="1.0" standalone="no"?>
<!DOCTYPE svg PUBLIC "-//W3C//DTD SVG 1.1//EN" "http://www.w3.org/Graphics/SVG/1.1/DTD/svg11.dtd" >
<svg xmlns="http://www.w3.org/2000/svg" xmlns:xlink="http://www.w3.org/1999/xlink" version="1.1">
<metadata>
Created by FontForge 20190801 at Wed Jun 24 23:10:35 2020
 By Jimmy Wärting
Copyright C 2019, 2020 Hoefler &#38; Co. http:www.typography.com
</metadata>
<defs>
<font id="Decimal-Semibold" horiz-adv-x="434" >
  <font-face 
    font-family="Decimal"
    font-weight="375"
    font-stretch="normal"
    units-per-em="1000"
    panose-1="2 0 7 0 0 0 0 0 0 0"
    ascent="800"
    descent="-200"
    x-height="540"
    cap-height="700"
    bbox="-204 -307 1971 1295"
    underline-thickness="0"
    underline-position="0"
    unicode-range="U+000D-1F6E1"
  />
<missing-glyph horiz-adv-x="450" 
d="M0 -180v900h450v-900h-450zM225 324l161 351h-322zM45 -68l155 338l-155 338v-676zM405 -68v676l-155 -338zM64 -135h322l-161 351z" />
    <glyph glyph-name=".notdef" horiz-adv-x="450" 
d="M0 -180v900h450v-900h-450zM225 324l161 351h-322zM45 -68l155 338l-155 338v-676zM405 -68v676l-155 -338zM64 -135h322l-161 351z" />
    <glyph glyph-name="NUL" horiz-adv-x="0" 
 />
    <glyph glyph-name="uni000D" unicode="&#xd;" horiz-adv-x="262" 
 />
    <glyph glyph-name="space" unicode=" " horiz-adv-x="262" 
 />
    <glyph glyph-name="A" unicode="A" horiz-adv-x="840" 
d="M29 0l273 700h237l272 -700h-161l-63 166h-336l-64 -166h-158zM401 555l-98 -254h232l-97 254h-37z" />
    <glyph glyph-name="B" unicode="B" horiz-adv-x="796" 
d="M102 0v700h396c144 0 231 -60 231 -176c0 -78 -31 -135 -119 -160c90 -36 133 -84 133 -167c0 -145 -109 -197 -262 -197h-379zM252 418h229c68 0 95 21 95 76c0 50 -30 71 -95 71h-229v-147zM252 135l236 2c74 1 102 25 102 80c0 52 -25 79 -102 79h-236v-161z" />
    <glyph glyph-name="C" unicode="C" horiz-adv-x="781" 
d="M442 -16c-269 0 -380 172 -380 362c0 194 133 370 395 370c115 0 207 -43 258 -83v-156h-1c-75 50 -149 99 -260 99c-150 0 -234 -98 -234 -229c0 -125 78 -223 233 -223c109 0 188 40 261 95h1v-156c-49 -37 -146 -79 -273 -79z" />
    <glyph glyph-name="D" unicode="D" horiz-adv-x="859" 
d="M102 0v700h343c220 0 352 -130 352 -349c0 -218 -132 -351 -352 -351h-343zM256 139h188c124 0 195 65 195 210c0 144 -71 212 -195 212h-188v-422z" />
    <glyph glyph-name="E" unicode="E" horiz-adv-x="765" 
d="M102 0v700h583l5 -139h-435v-129h350v-139h-350v-154h450l-5 -139h-598z" />
    <glyph glyph-name="F" unicode="F" horiz-adv-x="736" 
d="M102 0v700h578l5 -139h-429v-160h364v-139h-364v-262h-154z" />
    <glyph glyph-name="G" unicode="G" horiz-adv-x="861" 
d="M443 -16c-247 0 -381 162 -381 358c0 197 143 374 401 374c107 0 204 -34 264 -79v-156h-1c-76 52 -155 95 -265 95c-154 0 -241 -95 -241 -233c0 -124 78 -221 231 -221c118 0 204 57 209 157h-245v129h399c1 -16 2 -32 2 -62c0 -267 -190 -362 -373 -362z" />
    <glyph glyph-name="H" unicode="H" horiz-adv-x="876" 
d="M102 0v700h154v-267h364v267h154v-700h-154v291h-364v-291h-154z" />
    <glyph glyph-name="I" unicode="I" horiz-adv-x="362" 
d="M104 0v700h154v-700h-154z" />
    <glyph glyph-name="J" unicode="J" horiz-adv-x="647" 
d="M274 -16c-87 0 -165 25 -232 71v157h1c75 -61 156 -88 226 -88c73 0 127 29 127 131v445h154v-462c0 -185 -119 -254 -276 -254z" />
    <glyph glyph-name="J.alt" horiz-adv-x="712" 
d="M326 -16c-96 0 -175 23 -249 71v157h1c81 -61 168 -88 246 -88c84 0 137 34 137 123v314h-264l5 139h413v-472c0 -168 -108 -244 -289 -244z" />
    <glyph glyph-name="K" unicode="K" horiz-adv-x="821" 
d="M102 0v700h154v-273h116l234 273h178v-1l-289 -335l304 -363v-1h-187l-246 289h-110v-289h-154z" />
    <glyph glyph-name="L" unicode="L" horiz-adv-x="697" 
d="M102 0v700h154v-558h399l-5 -142h-548z" />
    <glyph glyph-name="M" unicode="M" horiz-adv-x="1014" 
d="M102 0v700h176l230 -398l225 398h179v-700h-153v456h-4l-244 -418h-12l-242 418h-4v-456h-151z" />
    <glyph glyph-name="N" unicode="N" horiz-adv-x="881" 
d="M102 0v700h170l353 -465h4v465h150v-700h-159l-364 481h-4v-481h-150z" />
    <glyph glyph-name="O" unicode="O" horiz-adv-x="894" 
d="M447 -16c-236 0 -385 144 -385 366s149 366 385 366s385 -144 385 -366s-149 -366 -385 -366zM446 123c145 0 228 86 228 227s-81 227 -226 227s-228 -86 -228 -227s81 -227 226 -227z" />
    <glyph glyph-name="P" unicode="P" horiz-adv-x="773" 
d="M102 0v700h369c167 0 255 -96 255 -252c0 -177 -113 -259 -270 -259h-200v-189h-154zM256 328h203c77 0 111 49 111 116c0 76 -37 117 -114 117h-200v-233z" />
    <glyph glyph-name="Q" unicode="Q" horiz-adv-x="902" 
d="M447 716c236 0 385 -144 385 -366c0 -68 -17 -132 -47 -186l67 -48v-159h-1l-152 106c-66 -51 -154 -79 -252 -79c-236 0 -385 144 -385 366s149 366 385 366zM448 577c-145 0 -228 -87 -228 -227s83 -229 228 -229c52 0 95 10 129 29l-192 123l81 109l194 -132
c11 29 16 62 16 100c0 140 -84 227 -228 227z" />
    <glyph glyph-name="R" unicode="R" horiz-adv-x="804" 
d="M102 0v700h372c179 0 266 -84 266 -241c0 -116 -51 -191 -150 -223l178 -236h-181l-148 206h-183v-206h-154zM256 342h214c84 0 114 47 114 110s-30 109 -114 109h-214v-219z" />
    <glyph glyph-name="S" unicode="S" horiz-adv-x="736" 
d="M390 -16c-133 0 -233 31 -314 71v157h1c99 -54 217 -87 314 -87c95 0 143 28 143 74c0 48 -40 62 -200 90c-121 21 -258 59 -258 198c0 117 96 229 314 229c88 0 189 -25 261 -66v-157h-1c-80 51 -182 82 -272 82c-100 0 -141 -30 -141 -73c0 -59 86 -65 196 -85
c121 -22 262 -57 262 -208c0 -83 -45 -225 -305 -225z" />
    <glyph glyph-name="T" unicode="T" horiz-adv-x="740" 
d="M293 0v558h-253l5 142h650l5 -142h-253v-558h-154z" />
    <glyph glyph-name="U" unicode="U" horiz-adv-x="864" 
d="M430 -16c-188 0 -333 78 -333 286v430h154v-423c0 -114 87 -151 181 -151s181 35 181 146v428h154v-425c0 -214 -149 -291 -337 -291z" />
    <glyph glyph-name="V" unicode="V" horiz-adv-x="810" 
d="M279 0l-250 700h167l194 -555h32l194 555h165l-250 -700h-252z" />
    <glyph glyph-name="W" unicode="W" horiz-adv-x="1213" 
d="M238 0l-195 700h163l141 -547h12l178 547h150l175 -547h12l137 547h159l-194 -700h-211l-153 481h-6l-155 -481h-213z" />
    <glyph glyph-name="X" unicode="X" horiz-adv-x="826" 
d="M205 0h-183v1l293 361l-271 337v1h185l185 -239l188 239h182v-1l-270 -334l290 -364v-1h-187l-204 265z" />
    <glyph glyph-name="Y" unicode="Y" horiz-adv-x="806" 
d="M326 0v242l-314 458h180l206 -309h12l210 309h174l-314 -455v-245h-154z" />
    <glyph glyph-name="Z" unicode="Z" horiz-adv-x="774" 
d="M72 0v149l430 412h-418l5 139h617v-134l-444 -427h444v-139h-634z" />
    <glyph glyph-name="a" unicode="a" horiz-adv-x="621" 
d="M233 -16c-125 0 -186 67 -186 152c0 49 19 84 43 108c31 31 111 76 313 87v16c0 48 -27 82 -98 82c-68 0 -139 -26 -208 -74h-1v138c79 45 154 63 228 63c157 0 225 -86 225 -217v-339h-135l-3 61c-43 -48 -101 -77 -178 -77zM267 93c59 0 112 28 136 52v93
c-119 -10 -173 -28 -197 -52c-10 -10 -15 -24 -15 -38c0 -32 27 -55 76 -55z" />
    <glyph glyph-name="b" unicode="b" horiz-adv-x="693" 
d="M227 758v-264c38 34 91 62 166 62c132 0 252 -97 252 -266c0 -181 -127 -306 -300 -306c-54 0 -115 13 -165 32h-100v742h147zM352 431c-54 0 -96 -18 -125 -39v-260c31 -15 71 -27 110 -27c87 0 161 63 161 176c0 102 -61 150 -146 150z" />
    <glyph glyph-name="c" unicode="c" horiz-adv-x="594" 
d="M351 -16c-175 0 -303 108 -303 280c0 163 131 292 306 292c80 0 138 -21 184 -54v-140h-1c-56 42 -115 66 -176 66c-98 0 -165 -68 -165 -160c0 -96 70 -156 164 -156c68 0 121 24 177 66h1v-140c-50 -33 -111 -54 -187 -54z" />
    <glyph glyph-name="d" unicode="d" horiz-adv-x="695" 
d="M615 758v-758h-143l-1 64c-39 -43 -97 -80 -177 -80c-134 0 -246 100 -246 275c0 173 130 297 295 297c52 0 90 -10 125 -27v229h147zM356 431c-99 0 -161 -64 -161 -164c0 -106 63 -158 149 -158c46 0 93 20 124 46v240c-34 22 -68 36 -112 36z" />
    <glyph glyph-name="e" unicode="e" horiz-adv-x="647" 
d="M337 556c179 0 264 -123 264 -283c0 -16 -1 -32 -3 -48h-402c14 -77 72 -118 167 -118c80 0 143 25 204 61h1v-129c-46 -27 -119 -55 -211 -55c-211 0 -309 119 -309 274c0 169 112 298 289 298zM334 435c-71 0 -119 -41 -135 -112h263c-6 70 -53 112 -128 112z" />
    <glyph glyph-name="f" unicode="f" horiz-adv-x="441" 
d="M134 0v419h-108l24 121h84v8c0 137 52 226 191 226c36 0 59 -3 89 -12v-122h-1c-23 7 -39 10 -62 10c-54 0 -72 -30 -72 -83v-27h144v-121h-144v-419h-145z" />
    <glyph glyph-name="g" unicode="g" horiz-adv-x="609" 
d="M303 166c-16 0 -31 1 -45 2l-9 -54c257 -19 349 -70 349 -164c0 -70 -69 -164 -290 -164c-193 0 -283 59 -283 139c0 38 20 86 106 124l28 144c-75 34 -106 97 -106 163c0 101 80 200 251 200c31 0 56 -3 79 -9l50 88h161v-1l-114 -132c44 -33 71 -86 71 -142
c0 -101 -81 -194 -248 -194zM304 270c62 0 109 32 109 91c0 55 -46 91 -109 91c-65 0 -111 -37 -111 -92c0 -59 46 -90 111 -90zM320 -111c98 0 144 25 144 51c0 33 -80 59 -282 68c-25 -18 -36 -33 -36 -52c0 -45 80 -67 174 -67z" />
    <glyph glyph-name="h" unicode="h" horiz-adv-x="677" 
d="M80 0v758h145v-294c51 53 108 92 191 92c110 0 187 -63 187 -199v-357h-147v326c0 80 -43 100 -92 100c-53 0 -99 -26 -137 -61v-365h-147z" />
    <glyph glyph-name="i" unicode="i" horiz-adv-x="311" 
d="M156 610c-59 0 -94 40 -94 85v1c0 46 35 85 93 85c59 0 94 -39 94 -85v-1c0 -45 -35 -85 -93 -85zM82 0v540h147v-540h-147z" />
    <glyph glyph-name="j" unicode="j" horiz-adv-x="321" 
d="M166 610c-59 0 -94 40 -94 85v1c0 46 35 85 93 85c59 0 94 -39 94 -85v-1c0 -45 -35 -85 -93 -85zM65 -214c-42 0 -77 6 -111 18v123h1c28 -12 53 -17 77 -17c43 0 60 19 60 65v565h147v-577c0 -110 -46 -177 -174 -177z" />
    <glyph glyph-name="j.alt" horiz-adv-x="311" 
d="M156 610c-59 0 -94 40 -94 85v1c0 46 35 85 93 85c59 0 94 -39 94 -85v-1c0 -45 -35 -85 -93 -85zM82 -226v766h147v-710z" />
    <glyph glyph-name="k" unicode="k" horiz-adv-x="638" 
d="M80 0v758h147v-416h84l136 198h167v-1l-181 -255l196 -283v-1h-172l-144 214h-86v-214h-147z" />
    <glyph glyph-name="l" unicode="l" horiz-adv-x="311" 
d="M82 0v758h147v-758h-147z" />
    <glyph glyph-name="m" unicode="m" horiz-adv-x="1029" 
d="M80 0v540h145v-83c48 58 106 99 185 99c78 0 140 -35 167 -110c63 74 122 110 197 110c104 0 181 -63 181 -199v-357h-147v326c0 80 -43 100 -86 100c-47 0 -93 -26 -131 -61v-8v-357h-147v326c0 80 -43 100 -86 100c-47 0 -93 -26 -131 -61v-365h-147z" />
    <glyph glyph-name="n" unicode="n" horiz-adv-x="677" 
d="M80 0v540h145v-76c51 53 108 92 191 92c110 0 187 -63 187 -199v-357h-147v326c0 80 -43 100 -92 100c-53 0 -99 -26 -137 -61v-365h-147z" />
    <glyph glyph-name="o" unicode="o" horiz-adv-x="688" 
d="M344 -16c-186 0 -296 126 -296 286s110 286 296 286s296 -126 296 -286s-110 -286 -296 -286zM344 108c92 0 148 68 148 162s-56 162 -148 162s-148 -68 -148 -162s56 -162 148 -162z" />
    <glyph glyph-name="p" unicode="p" horiz-adv-x="695" 
d="M80 -198v738h143l1 -64c39 43 97 80 177 80c134 0 246 -100 246 -275c0 -173 -130 -297 -295 -297c-52 0 -90 10 -125 27v-209h-147zM339 109c99 0 161 64 161 164c0 106 -63 158 -149 158c-46 0 -93 -20 -124 -46v-240c34 -22 68 -36 112 -36z" />
    <glyph glyph-name="q" unicode="q" horiz-adv-x="693" 
d="M466 -198v244c-38 -34 -91 -62 -166 -62c-132 0 -252 97 -252 266c0 181 127 306 300 306c54 0 115 -13 165 -32h100v-722h-147zM341 109c54 0 96 18 125 39v260c-31 15 -71 27 -110 27c-87 0 -161 -63 -161 -176c0 -102 61 -150 146 -150z" />
    <glyph glyph-name="r" unicode="r" horiz-adv-x="422" 
d="M80 0v540h145v-101c41 78 94 113 149 113c6 0 12 0 24 -2v-146c-12 2 -21 2 -32 2c-67 0 -119 -22 -139 -70v-336h-147z" />
    <glyph glyph-name="s" unicode="s" horiz-adv-x="577" 
d="M304 -16c-78 0 -159 19 -237 62v132h1c70 -45 158 -73 241 -73c61 0 82 18 82 47c0 28 -14 39 -135 66c-126 28 -188 68 -188 162c0 95 75 176 226 176c80 0 163 -28 206 -52v-132h-1c-68 38 -156 63 -217 63c-51 0 -70 -18 -70 -43c0 -28 21 -39 134 -66
c136 -32 189 -76 189 -169c0 -70 -39 -173 -231 -173z" />
    <glyph glyph-name="t" unicode="t" horiz-adv-x="435" 
d="M144 0v419h-120l24 121h96v120l145 15v-135h122v-121h-122v-419h-145z" />
    <glyph glyph-name="u" unicode="u" horiz-adv-x="677" 
d="M597 540v-540h-145v76c-51 -53 -108 -92 -191 -92c-110 0 -187 63 -187 199v357h147v-326c0 -80 43 -100 92 -100c53 0 99 26 137 61v365h147z" />
    <glyph glyph-name="v" unicode="v" horiz-adv-x="625" 
d="M209 0l-192 540h155l135 -409h16l134 409h151l-194 -540h-205z" />
    <glyph glyph-name="w" unicode="w" horiz-adv-x="991" 
d="M191 0l-162 540h155l103 -405h16l112 399h165l115 -399h16l102 405h149l-164 -540h-199l-95 361h-16l-98 -361h-199z" />
    <glyph glyph-name="x" unicode="x" horiz-adv-x="630" 
d="M16 0v1l209 279l-198 259v1h172l120 -165l115 165h168v-1l-197 -264l209 -274v-1h-172l-131 181l-127 -181h-168z" />
    <glyph glyph-name="y" unicode="y" horiz-adv-x="628" 
d="M183 -198l63 178l-227 560h156l151 -394l138 394h150l-285 -738h-146z" />
    <glyph glyph-name="z" unicode="z" horiz-adv-x="606" 
d="M63 0v115l299 303h-290l4 122h473v-108l-310 -310h310v-122h-486z" />
    <glyph glyph-name="a.sc" horiz-adv-x="756" 
d="M38 0l212 596h257l211 -596h-152l-43 125h-292l-41 -125h-152zM352 469l-79 -222h208l-77 222h-52z" />
    <glyph glyph-name="b.sc" horiz-adv-x="740" 
d="M104 0v596h362c125 0 202 -50 202 -150c0 -64 -26 -113 -102 -136c78 -32 114 -72 114 -141c0 -126 -97 -169 -229 -169h-347zM247 359h194c54 0 82 16 82 59c0 38 -29 55 -80 55h-196v-114zM247 123l206 2c55 1 82 19 82 62c0 40 -24 61 -87 61h-201v-125z" />
    <glyph glyph-name="c.sc" horiz-adv-x="705" 
d="M400 -16c-232 0 -336 143 -336 313c0 168 121 313 345 313c100 0 176 -31 227 -69v-142h-1c-69 48 -145 82 -227 82c-116 0 -193 -81 -193 -183c0 -105 62 -185 194 -185c89 0 161 37 226 81h1v-144c-42 -27 -126 -66 -236 -66z" />
    <glyph glyph-name="d.sc" horiz-adv-x="777" 
d="M104 0v596h303c190 0 306 -111 306 -297s-116 -299 -306 -299h-303zM251 127h142c112 0 169 51 169 170c0 117 -57 172 -169 172h-142v-342z" />
    <glyph glyph-name="e.sc" horiz-adv-x="701" 
d="M104 0v596h513l5 -125h-371v-112h296v-120h-296v-114h386l-5 -125h-528z" />
    <glyph glyph-name="f.sc" horiz-adv-x="677" 
d="M104 0v596h508l5 -127h-366v-126h311v-127h-311v-216h-147z" />
    <glyph glyph-name="g.sc" horiz-adv-x="774" 
d="M401 -16c-229 0 -337 144 -337 310c0 172 121 316 350 316c101 0 181 -29 233 -68v-143h-1c-66 45 -140 81 -236 81c-125 0 -195 -80 -195 -186c0 -101 58 -183 195 -183c101 0 165 49 166 120h-208v120h351c1 -14 2 -45 2 -58c0 -240 -166 -309 -320 -309z" />
    <glyph glyph-name="h.sc" horiz-adv-x="809" 
d="M104 0v596h147v-234h308v234h146v-596h-146v236h-308v-236h-147z" />
    <glyph glyph-name="i.sc" horiz-adv-x="359" 
d="M106 0v596h147v-596h-147z" />
    <glyph glyph-name="j.sc" horiz-adv-x="608" 
d="M258 -15c-86 0 -157 21 -218 61v144h1c72 -52 139 -75 207 -75c75 0 119 24 119 126v355h147v-378c0 -164 -102 -233 -256 -233z" />
    <glyph glyph-name="j.sc_alt" horiz-adv-x="645" 
d="M291 -15c-85 0 -155 21 -219 61v146h1c72 -53 149 -77 216 -77c70 0 115 26 115 97v259h-227l5 125h369v-403c0 -144 -98 -208 -260 -208z" />
    <glyph glyph-name="k.sc" horiz-adv-x="751" 
d="M104 0v596h147v-229h92l199 229h168v-1l-250 -285l261 -309v-1h-176l-208 241h-86v-241h-147z" />
    <glyph glyph-name="l.sc" horiz-adv-x="632" 
d="M104 0v596h147v-466h341l-5 -130h-483z" />
    <glyph glyph-name="m.sc" horiz-adv-x="932" 
d="M104 0v596h165l199 -330l193 330h167v-596h-141v382h-4l-214 -355h-9l-211 351h-4v-378h-141z" />
    <glyph glyph-name="n.sc" horiz-adv-x="805" 
d="M104 0v596h161l289 -381h4v381h143v-596h-151l-299 394h-4v-394h-143z" />
    <glyph glyph-name="o.sc" horiz-adv-x="810" 
d="M404 -20c-207 0 -340 123 -340 315s135 319 342 319s340 -123 340 -315s-135 -319 -342 -319zM406 111c114 0 189 66 189 185c0 118 -77 187 -191 187c-115 0 -189 -67 -189 -185c0 -119 76 -187 191 -187z" />
    <glyph glyph-name="p.sc" horiz-adv-x="711" 
d="M104 0v596h337c148 0 224 -83 224 -217c0 -153 -101 -223 -239 -223h-175v-156h-147zM251 282h177c64 0 89 42 89 93c0 61 -28 95 -92 95h-174v-188z" />
    <glyph glyph-name="q.sc" horiz-adv-x="817" 
d="M404 -20c-207 0 -340 123 -340 315s135 319 342 319s340 -123 340 -315c0 -59 -14 -112 -40 -158l51 -34v-145h-1l-131 86c-58 -43 -134 -68 -221 -68zM406 107c43 0 78 6 107 20l-171 106l72 97l175 -111c7 22 10 48 10 77c0 119 -77 187 -195 187
c-115 0 -189 -67 -189 -185c0 -123 75 -191 191 -191z" />
    <glyph glyph-name="r.sc" horiz-adv-x="742" 
d="M104 0v596h293c179 0 272 -55 272 -205c0 -105 -50 -158 -151 -190l196 -196v-5h-184l-164 179h-115v-179h-147zM251 304h161c75 0 109 24 109 84c0 59 -34 83 -109 83h-161v-167z" />
    <glyph glyph-name="s.sc" horiz-adv-x="682" 
d="M358 -16c-101 0 -207 29 -276 63v141h1c85 -48 205 -77 276 -77c95 0 124 21 124 53c0 37 -28 45 -168 76c-134 30 -233 54 -233 176c0 106 82 194 276 194c85 0 173 -24 235 -55v-141h-1c-70 38 -160 69 -244 69c-80 0 -118 -21 -117 -55s27 -41 164 -70
c127 -27 235 -65 235 -182c0 -72 -23 -192 -272 -192z" />
    <glyph glyph-name="t.sc" horiz-adv-x="694" 
d="M274 0v466h-221l5 130h578l5 -130h-221v-466h-146z" />
    <glyph glyph-name="u.sc" horiz-adv-x="778" 
d="M387 -14c-163 0 -293 67 -293 246v364h147v-357c0 -93 74 -123 148 -123s148 28 148 118v362h147v-359c0 -184 -134 -251 -297 -251z" />
    <glyph glyph-name="v.sc" horiz-adv-x="743" 
d="M254 0l-214 596h157l161 -463h30l160 463h155l-213 -596h-236z" />
    <glyph glyph-name="w.sc" horiz-adv-x="1057" 
d="M223 0l-177 596h158l110 -421h8l153 421h118l151 -421h7l111 421h149l-175 -596h-161l-143 396h-2l-144 -396h-163z" />
    <glyph glyph-name="x.sc" horiz-adv-x="738" 
d="M27 0v1l247 306l-232 288v1h172l158 -193l156 193h168v-1l-232 -288l247 -306v-1h-173l-172 212l-171 -212h-168z" />
    <glyph glyph-name="y.sc" horiz-adv-x="729" 
d="M292 0v198l-274 397v1h169l174 -264h11l176 264h163v-1l-272 -394v-201h-147z" />
    <glyph glyph-name="z.sc" horiz-adv-x="726" 
d="M80 0v137l373 332h-363l5 127h555v-123l-386 -346h386v-127h-570z" />
    <glyph glyph-name="Aacute" unicode="&#xc1;" horiz-adv-x="840" 
d="M330 778l121 164h190v-8l-175 -156h-136zM29 0l273 700h237l272 -700h-161l-63 166h-336l-64 -166h-158zM401 555l-98 -254h232l-97 254h-37z" />
    <glyph glyph-name="aacute" unicode="&#xe1;" horiz-adv-x="621" 
d="M223 634l121 164h190v-8l-175 -156h-136zM233 -16c-125 0 -186 67 -186 152c0 49 19 84 43 108c31 31 111 76 313 87v16c0 48 -27 82 -98 82c-68 0 -139 -26 -208 -74h-1v138c79 45 154 63 228 63c157 0 225 -86 225 -217v-339h-135l-3 61c-43 -48 -101 -77 -178 -77z
M267 93c59 0 112 28 136 52v93c-119 -10 -173 -28 -197 -52c-10 -10 -15 -24 -15 -38c0 -32 27 -55 76 -55z" />
    <glyph glyph-name="aacute.sc" horiz-adv-x="756" 
d="M289 674l121 164h190v-8l-175 -156h-136zM38 0l212 596h257l211 -596h-152l-43 125h-292l-41 -125h-152zM352 469l-79 -222h208l-77 222h-52z" />
    <glyph glyph-name="Abreve" unicode="&#x102;" horiz-adv-x="840" 
d="M421 770c-121 0 -196 51 -196 149c0 16 2 33 6 51h117c-2 -11 -3 -21 -3 -29c0 -55 39 -63 76 -63s75 8 75 62c0 9 -1 19 -3 30h117c4 -18 6 -36 6 -52c0 -97 -74 -148 -195 -148zM29 0l273 700h237l272 -700h-161l-63 166h-336l-64 -166h-158zM401 555l-98 -254h232
l-97 254h-37z" />
    <glyph glyph-name="abreve" unicode="&#x103;" horiz-adv-x="621" 
d="M314 626c-121 0 -196 51 -196 149c0 16 2 33 6 51h117c-2 -11 -3 -21 -3 -29c0 -55 39 -63 76 -63s75 8 75 62c0 9 -1 19 -3 30h117c4 -18 6 -36 6 -52c0 -97 -74 -148 -195 -148zM233 -16c-125 0 -186 67 -186 152c0 49 19 84 43 108c31 31 111 76 313 87v16
c0 48 -27 82 -98 82c-68 0 -139 -26 -208 -74h-1v138c79 45 154 63 228 63c157 0 225 -86 225 -217v-339h-135l-3 61c-43 -48 -101 -77 -178 -77zM267 93c59 0 112 28 136 52v93c-119 -10 -173 -28 -197 -52c-10 -10 -15 -24 -15 -38c0 -32 27 -55 76 -55z" />
    <glyph glyph-name="abreve.sc" horiz-adv-x="756" 
d="M380 666c-121 0 -196 51 -196 149c0 16 2 33 6 51h117c-2 -11 -3 -21 -3 -29c0 -55 39 -63 76 -63s75 8 75 62c0 9 -1 19 -3 30h117c4 -18 6 -36 6 -52c0 -97 -74 -148 -195 -148zM38 0l212 596h257l211 -596h-152l-43 125h-292l-41 -125h-152zM352 469l-79 -222h208
l-77 222h-52z" />
    <glyph glyph-name="Acircumflex" unicode="&#xc2;" horiz-adv-x="840" 
d="M190 778l137 180h188l137 -180h-151l-62 82h-36l-62 -82h-151zM29 0l273 700h237l272 -700h-161l-63 166h-336l-64 -166h-158zM401 555l-98 -254h232l-97 254h-37z" />
    <glyph glyph-name="acircumflex" unicode="&#xe2;" horiz-adv-x="621" 
d="M83 634l137 180h188l137 -180h-151l-62 82h-36l-62 -82h-151zM233 -16c-125 0 -186 67 -186 152c0 49 19 84 43 108c31 31 111 76 313 87v16c0 48 -27 82 -98 82c-68 0 -139 -26 -208 -74h-1v138c79 45 154 63 228 63c157 0 225 -86 225 -217v-339h-135l-3 61
c-43 -48 -101 -77 -178 -77zM267 93c59 0 112 28 136 52v93c-119 -10 -173 -28 -197 -52c-10 -10 -15 -24 -15 -38c0 -32 27 -55 76 -55z" />
    <glyph glyph-name="acircumflex.sc" horiz-adv-x="756" 
d="M149 674l137 180h188l137 -180h-151l-62 82h-36l-62 -82h-151zM38 0l212 596h257l211 -596h-152l-43 125h-292l-41 -125h-152zM352 469l-79 -222h208l-77 222h-52z" />
    <glyph glyph-name="Adieresis" unicode="&#xc4;" horiz-adv-x="840" 
d="M294 770c-55 0 -88 38 -88 80v1c0 43 33 80 87 80c56 0 88 -37 88 -80v-1c0 -42 -32 -80 -87 -80zM550 770c-55 0 -88 38 -88 80v1c0 43 33 80 87 80c56 0 88 -37 88 -80v-1c0 -42 -32 -80 -87 -80zM29 0l273 700h237l272 -700h-161l-63 166h-336l-64 -166h-158zM401 555
l-98 -254h232l-97 254h-37z" />
    <glyph glyph-name="adieresis" unicode="&#xe4;" horiz-adv-x="621" 
d="M187 626c-55 0 -88 38 -88 80v1c0 43 33 80 87 80c56 0 88 -37 88 -80v-1c0 -42 -32 -80 -87 -80zM443 626c-55 0 -88 38 -88 80v1c0 43 33 80 87 80c56 0 88 -37 88 -80v-1c0 -42 -32 -80 -87 -80zM233 -16c-125 0 -186 67 -186 152c0 49 19 84 43 108
c31 31 111 76 313 87v16c0 48 -27 82 -98 82c-68 0 -139 -26 -208 -74h-1v138c79 45 154 63 228 63c157 0 225 -86 225 -217v-339h-135l-3 61c-43 -48 -101 -77 -178 -77zM267 93c59 0 112 28 136 52v93c-119 -10 -173 -28 -197 -52c-10 -10 -15 -24 -15 -38
c0 -32 27 -55 76 -55z" />
    <glyph glyph-name="adieresis.sc" horiz-adv-x="756" 
d="M253 666c-55 0 -88 38 -88 80v1c0 43 33 80 87 80c56 0 88 -37 88 -80v-1c0 -42 -32 -80 -87 -80zM509 666c-55 0 -88 38 -88 80v1c0 43 33 80 87 80c56 0 88 -37 88 -80v-1c0 -42 -32 -80 -87 -80zM38 0l212 596h257l211 -596h-152l-43 125h-292l-41 -125h-152zM352 469
l-79 -222h208l-77 222h-52z" />
    <glyph glyph-name="AE" unicode="&#xc6;" horiz-adv-x="1264" 
d="M601 0v166h-304l-99 -166h-178l428 700h736l5 -139h-435v-129h350v-139h-350v-154h450l-5 -139h-598zM529 555l-152 -254h224v254h-72z" />
    <glyph glyph-name="ae" unicode="&#xe6;" horiz-adv-x="1003" 
d="M924 39c-46 -27 -119 -55 -211 -55c-119 0 -201 38 -250 98c-72 -72 -140 -98 -227 -98c-131 0 -189 67 -189 152c0 49 19 84 43 108c31 31 114 78 317 88v15c0 48 -31 82 -102 82c-68 0 -139 -26 -208 -74h-1v138c79 45 154 63 224 63c91 0 152 -30 182 -81
c40 48 109 81 191 81c179 0 264 -123 264 -283c0 -16 -1 -32 -3 -48h-402c14 -77 72 -118 167 -118c80 0 143 25 204 61h1v-129zM690 435c-71 0 -119 -41 -135 -112h263c-6 70 -53 112 -128 112zM191 148c0 -32 27 -55 76 -55c68 0 120 28 156 59c-10 27 -16 56 -18 86
c-121 -10 -176 -29 -199 -52c-10 -10 -15 -24 -15 -38z" />
    <glyph glyph-name="ae.sc" horiz-adv-x="1114" 
d="M517 0v134h-256l-78 -134h-160l352 596h655l5 -125h-371v-112h296v-120h-296v-114h386l-5 -125h-528zM456 472l-125 -216h186v216h-61z" />
    <glyph glyph-name="AEacute" unicode="&#x1fc;" horiz-adv-x="1264" 
d="M610 778l121 164h190v-8l-175 -156h-136zM601 0v166h-304l-99 -166h-178l428 700h736l5 -139h-435v-129h350v-139h-350v-154h450l-5 -139h-598zM529 555l-152 -254h224v254h-72z" />
    <glyph glyph-name="aeacute" unicode="&#x1fd;" horiz-adv-x="1003" 
d="M426 618l121 164h190v-8l-175 -156h-136zM924 39c-46 -27 -119 -55 -211 -55c-119 0 -201 38 -250 98c-72 -72 -140 -98 -227 -98c-131 0 -189 67 -189 152c0 49 19 84 43 108c31 31 114 78 317 88v15c0 48 -31 82 -102 82c-68 0 -139 -26 -208 -74h-1v138
c79 45 154 63 224 63c91 0 152 -30 182 -81c40 48 109 81 191 81c179 0 264 -123 264 -283c0 -16 -1 -32 -3 -48h-402c14 -77 72 -118 167 -118c80 0 143 25 204 61h1v-129zM690 435c-71 0 -119 -41 -135 -112h263c-6 70 -53 112 -128 112zM191 148c0 -32 27 -55 76 -55
c68 0 120 28 156 59c-10 27 -16 56 -18 86c-121 -10 -176 -29 -199 -52c-10 -10 -15 -24 -15 -38z" />
    <glyph glyph-name="aeacute.sc" horiz-adv-x="1114" 
d="M527 674l121 164h190v-8l-175 -156h-136zM517 0v134h-256l-78 -134h-160l352 596h655l5 -125h-371v-112h296v-120h-296v-114h386l-5 -125h-528zM456 472l-125 -216h186v216h-61z" />
    <glyph glyph-name="Agrave" unicode="&#xc0;" horiz-adv-x="840" 
d="M512 778h-136l-175 156v8h190zM29 0l273 700h237l272 -700h-161l-63 166h-336l-64 -166h-158zM401 555l-98 -254h232l-97 254h-37z" />
    <glyph glyph-name="agrave" unicode="&#xe0;" horiz-adv-x="621" 
d="M405 634h-136l-175 156v8h190zM233 -16c-125 0 -186 67 -186 152c0 49 19 84 43 108c31 31 111 76 313 87v16c0 48 -27 82 -98 82c-68 0 -139 -26 -208 -74h-1v138c79 45 154 63 228 63c157 0 225 -86 225 -217v-339h-135l-3 61c-43 -48 -101 -77 -178 -77zM267 93
c59 0 112 28 136 52v93c-119 -10 -173 -28 -197 -52c-10 -10 -15 -24 -15 -38c0 -32 27 -55 76 -55z" />
    <glyph glyph-name="agrave.sc" horiz-adv-x="756" 
d="M471 674h-136l-175 156v8h190zM38 0l212 596h257l211 -596h-152l-43 125h-292l-41 -125h-152zM352 469l-79 -222h208l-77 222h-52z" />
    <glyph glyph-name="Amacron" unicode="&#x100;" horiz-adv-x="840" 
d="M229 793v112h384v-112h-384zM29 0l273 700h237l272 -700h-161l-63 166h-336l-64 -166h-158zM401 555l-98 -254h232l-97 254h-37z" />
    <glyph glyph-name="amacron" unicode="&#x101;" horiz-adv-x="621" 
d="M122 649v112h384v-112h-384zM233 -16c-125 0 -186 67 -186 152c0 49 19 84 43 108c31 31 111 76 313 87v16c0 48 -27 82 -98 82c-68 0 -139 -26 -208 -74h-1v138c79 45 154 63 228 63c157 0 225 -86 225 -217v-339h-135l-3 61c-43 -48 -101 -77 -178 -77zM267 93
c59 0 112 28 136 52v93c-119 -10 -173 -28 -197 -52c-10 -10 -15 -24 -15 -38c0 -32 27 -55 76 -55z" />
    <glyph glyph-name="amacron.sc" horiz-adv-x="756" 
d="M188 689v112h384v-112h-384zM38 0l212 596h257l211 -596h-152l-43 125h-292l-41 -125h-152zM352 469l-79 -222h208l-77 222h-52z" />
    <glyph glyph-name="Aogonek" unicode="&#x104;" horiz-adv-x="840" 
d="M29 0l274 700h237l271 -700l-55 -52c-49 -47 -71 -66 -71 -91c0 -22 17 -37 61 -37c18 0 47 4 79 18v-110c-39 -12 -67 -17 -109 -17c-144 0 -166 73 -166 119c0 58 40 106 103 161l-66 175h-336l-64 -166h-158zM402 555l-99 -254h232l-96 254h-37z" />
    <glyph glyph-name="aogonek" unicode="&#x105;" horiz-adv-x="621" 
d="M233 -16c-125 0 -186 67 -186 152c0 49 19 84 43 108c31 31 111 76 313 87v16c0 48 -27 82 -98 82c-68 0 -139 -26 -208 -74h-1v138c79 45 154 63 228 63c157 0 225 -86 225 -217v-339l-55 -52c-49 -47 -71 -66 -71 -91c0 -22 17 -37 61 -37c18 0 47 4 79 18v-110
c-39 -12 -67 -17 -109 -17c-144 0 -166 73 -166 119c0 61 44 111 114 170l11 9l-2 52c-43 -48 -101 -77 -178 -77zM267 93c59 0 112 28 136 52v93c-119 -10 -173 -28 -197 -52c-10 -10 -15 -24 -15 -38c0 -32 27 -55 76 -55z" />
    <glyph glyph-name="aogonek.sc" horiz-adv-x="756" 
d="M38 0l212 596h257l211 -596l-55 -52c-49 -47 -71 -66 -71 -91c0 -22 17 -37 61 -37c18 0 47 4 79 18v-110c-39 -12 -67 -17 -109 -17c-144 0 -166 73 -166 119c0 61 44 111 110 167l-44 128h-292l-41 -125h-152zM352 469l-79 -222h208l-77 222h-52z" />
    <glyph glyph-name="Aring" unicode="&#xc5;" horiz-adv-x="840" 
d="M420 770c-110 0 -175 55 -175 149s65 152 176 152c110 0 177 -56 177 -151c0 -93 -68 -150 -178 -150zM421 856c46 0 74 24 74 64s-29 65 -75 65c-45 0 -75 -24 -75 -65c0 -39 30 -64 76 -64zM29 0l273 700h237l272 -700h-161l-63 166h-336l-64 -166h-158zM401 555
l-98 -254h232l-97 254h-37z" />
    <glyph glyph-name="aring" unicode="&#xe5;" horiz-adv-x="621" 
d="M313 626c-110 0 -175 55 -175 149s65 152 176 152c110 0 177 -56 177 -151c0 -93 -68 -150 -178 -150zM314 712c46 0 74 24 74 64s-29 65 -75 65c-45 0 -75 -24 -75 -65c0 -39 30 -64 76 -64zM233 -16c-125 0 -186 67 -186 152c0 49 19 84 43 108c31 31 111 76 313 87v16
c0 48 -27 82 -98 82c-68 0 -139 -26 -208 -74h-1v138c79 45 154 63 228 63c157 0 225 -86 225 -217v-339h-135l-3 61c-43 -48 -101 -77 -178 -77zM267 93c59 0 112 28 136 52v93c-119 -10 -173 -28 -197 -52c-10 -10 -15 -24 -15 -38c0 -32 27 -55 76 -55z" />
    <glyph glyph-name="aring.sc" horiz-adv-x="756" 
d="M379 666c-110 0 -175 55 -175 149s65 152 176 152c110 0 177 -56 177 -151c0 -93 -68 -150 -178 -150zM380 752c46 0 74 24 74 64s-29 65 -75 65c-45 0 -75 -24 -75 -65c0 -39 30 -64 76 -64zM38 0l212 596h257l211 -596h-152l-43 125h-292l-41 -125h-152zM352 469
l-79 -222h208l-77 222h-52z" />
    <glyph glyph-name="Aringacute" unicode="&#x1fa;" horiz-adv-x="840" 
d="M354 1131l121 164h190v-8l-175 -156h-136zM420 770c-110 0 -175 55 -175 149s65 152 176 152c110 0 177 -56 177 -151c0 -93 -68 -150 -178 -150zM421 856c46 0 74 24 74 64s-29 65 -75 65c-45 0 -75 -24 -75 -65c0 -39 30 -64 76 -64zM29 0l273 700h237l272 -700h-161
l-63 166h-336l-64 -166h-158zM401 555l-98 -254h232l-97 254h-37z" />
    <glyph glyph-name="aringacute" unicode="&#x1fb;" horiz-adv-x="621" 
d="M223 987l121 164h190v-8l-175 -156h-136zM313 626c-110 0 -175 55 -175 149s65 152 176 152c110 0 177 -56 177 -151c0 -93 -68 -150 -178 -150zM314 712c46 0 74 24 74 64s-29 65 -75 65c-45 0 -75 -24 -75 -65c0 -39 30 -64 76 -64zM233 -16c-125 0 -186 67 -186 152
c0 49 19 84 43 108c31 31 111 76 313 87v16c0 48 -27 82 -98 82c-68 0 -139 -26 -208 -74h-1v138c79 45 154 63 228 63c157 0 225 -86 225 -217v-339h-135l-3 61c-43 -48 -101 -77 -178 -77zM267 93c59 0 112 28 136 52v93c-119 -10 -173 -28 -197 -52
c-10 -10 -15 -24 -15 -38c0 -32 27 -55 76 -55z" />
    <glyph glyph-name="aringacute.sc" horiz-adv-x="756" 
d="M289 1027l121 164h190v-8l-175 -156h-136zM379 666c-110 0 -175 55 -175 149s65 152 176 152c110 0 177 -56 177 -151c0 -93 -68 -150 -178 -150zM380 752c46 0 74 24 74 64s-29 65 -75 65c-45 0 -75 -24 -75 -65c0 -39 30 -64 76 -64zM38 0l212 596h257l211 -596h-152
l-43 125h-292l-41 -125h-152zM352 469l-79 -222h208l-77 222h-52z" />
    <glyph glyph-name="Atilde" unicode="&#xc3;" horiz-adv-x="840" 
d="M338 934c36 0 56 -9 102 -30c40 -18 51 -22 66 -22c29 0 56 14 100 65h1v-135c-24 -22 -59 -46 -103 -46c-36 0 -56 9 -102 30c-40 18 -51 22 -66 22c-29 0 -56 -14 -100 -65h-1v135c24 22 59 46 103 46zM29 0l273 700h237l272 -700h-161l-63 166h-336l-64 -166h-158z
M401 555l-98 -254h232l-97 254h-37z" />
    <glyph glyph-name="atilde" unicode="&#xe3;" horiz-adv-x="621" 
d="M231 790c36 0 56 -9 102 -30c40 -18 51 -22 66 -22c29 0 56 14 100 65h1v-135c-24 -22 -59 -46 -103 -46c-36 0 -56 9 -102 30c-40 18 -51 22 -66 22c-29 0 -56 -14 -100 -65h-1v135c24 22 59 46 103 46zM233 -16c-125 0 -186 67 -186 152c0 49 19 84 43 108
c31 31 111 76 313 87v16c0 48 -27 82 -98 82c-68 0 -139 -26 -208 -74h-1v138c79 45 154 63 228 63c157 0 225 -86 225 -217v-339h-135l-3 61c-43 -48 -101 -77 -178 -77zM267 93c59 0 112 28 136 52v93c-119 -10 -173 -28 -197 -52c-10 -10 -15 -24 -15 -38
c0 -32 27 -55 76 -55z" />
    <glyph glyph-name="atilde.sc" horiz-adv-x="756" 
d="M297 830c36 0 56 -9 102 -30c40 -18 51 -22 66 -22c29 0 56 14 100 65h1v-135c-24 -22 -59 -46 -103 -46c-36 0 -56 9 -102 30c-40 18 -51 22 -66 22c-29 0 -56 -14 -100 -65h-1v135c24 22 59 46 103 46zM38 0l212 596h257l211 -596h-152l-43 125h-292l-41 -125h-152z
M352 469l-79 -222h208l-77 222h-52z" />
    <glyph glyph-name="Cacute" unicode="&#x106;" horiz-adv-x="781" 
d="M352 794l121 164h190v-8l-175 -156h-136zM442 -16c-269 0 -380 172 -380 362c0 194 133 370 395 370c115 0 207 -43 258 -83v-156h-1c-75 50 -149 99 -260 99c-150 0 -234 -98 -234 -229c0 -125 78 -223 233 -223c109 0 188 40 261 95h1v-156c-49 -37 -146 -79 -273 -79z
" />
    <glyph glyph-name="cacute" unicode="&#x107;" horiz-adv-x="594" 
d="M245 634l121 164h190v-8l-175 -156h-136zM351 -16c-175 0 -303 108 -303 280c0 163 131 292 306 292c80 0 138 -21 184 -54v-140h-1c-56 42 -115 66 -176 66c-98 0 -165 -68 -165 -160c0 -96 70 -156 164 -156c68 0 121 24 177 66h1v-140c-50 -33 -111 -54 -187 -54z" />
    <glyph glyph-name="cacute.sc" horiz-adv-x="705" 
d="M298 688l121 164h190v-8l-175 -156h-136zM400 -16c-232 0 -336 143 -336 313c0 168 121 313 345 313c100 0 176 -31 227 -69v-142h-1c-69 48 -145 82 -227 82c-116 0 -193 -81 -193 -183c0 -105 62 -185 194 -185c89 0 161 37 226 81h1v-144c-42 -27 -126 -66 -236 -66z
" />
    <glyph glyph-name="Ccaron" unicode="&#x10c;" horiz-adv-x="781" 
d="M674 974l-137 -180h-188l-137 180h151l62 -82h36l62 82h151zM442 -16c-269 0 -380 172 -380 362c0 194 133 370 395 370c115 0 207 -43 258 -83v-156h-1c-75 50 -149 99 -260 99c-150 0 -234 -98 -234 -229c0 -125 78 -223 233 -223c109 0 188 40 261 95h1v-156
c-49 -37 -146 -79 -273 -79z" />
    <glyph glyph-name="ccaron" unicode="&#x10d;" horiz-adv-x="594" 
d="M567 814l-137 -180h-188l-137 180h151l62 -82h36l62 82h151zM351 -16c-175 0 -303 108 -303 280c0 163 131 292 306 292c80 0 138 -21 184 -54v-140h-1c-56 42 -115 66 -176 66c-98 0 -165 -68 -165 -160c0 -96 70 -156 164 -156c68 0 121 24 177 66h1v-140
c-50 -33 -111 -54 -187 -54z" />
    <glyph glyph-name="ccaron.sc" horiz-adv-x="705" 
d="M620 868l-137 -180h-188l-137 180h151l62 -82h36l62 82h151zM400 -16c-232 0 -336 143 -336 313c0 168 121 313 345 313c100 0 176 -31 227 -69v-142h-1c-69 48 -145 82 -227 82c-116 0 -193 -81 -193 -183c0 -105 62 -185 194 -185c89 0 161 37 226 81h1v-144
c-42 -27 -126 -66 -236 -66z" />
    <glyph glyph-name="Ccedilla" unicode="&#xc7;" horiz-adv-x="781" 
d="M232 -182v8l142 162c-220 27 -312 185 -312 358c0 194 133 370 395 370c115 0 207 -43 258 -83v-156h-1c-75 50 -149 99 -260 99c-150 0 -234 -98 -234 -229c0 -125 78 -223 233 -223c109 0 188 40 261 95h1v-156c-40 -31 -114 -65 -209 -75l-88 -170h-186z" />
    <glyph glyph-name="ccedilla" unicode="&#xe7;" horiz-adv-x="594" 
d="M133 -182v8l145 165c-137 26 -230 126 -230 273c0 163 131 292 306 292c80 0 138 -21 184 -54v-140h-1c-56 42 -115 66 -176 66c-98 0 -165 -68 -165 -160c0 -96 70 -156 164 -156c68 0 121 24 177 66h1v-140c-37 -24 -80 -42 -131 -50l-88 -170h-186z" />
    <glyph glyph-name="ccedilla.sc" horiz-adv-x="705" 
d="M197 -182v8l142 162c-189 23 -275 155 -275 309c0 168 121 313 345 313c100 0 176 -31 227 -69v-142h-1c-69 48 -145 82 -227 82c-116 0 -193 -81 -193 -183c0 -105 62 -185 194 -185c89 0 161 37 226 81h1v-144c-32 -21 -90 -49 -164 -60l-89 -172h-186z" />
    <glyph glyph-name="Cdotaccent" unicode="&#x10a;" horiz-adv-x="781" 
d="M444 786c-59 0 -94 40 -94 85v1c0 46 35 85 93 85c59 0 94 -39 94 -85v-1c0 -45 -35 -85 -93 -85zM442 -16c-269 0 -380 172 -380 362c0 194 133 370 395 370c115 0 207 -43 258 -83v-156h-1c-75 50 -149 99 -260 99c-150 0 -234 -98 -234 -229c0 -125 78 -223 233 -223
c109 0 188 40 261 95h1v-156c-49 -37 -146 -79 -273 -79z" />
    <glyph glyph-name="cdotaccent" unicode="&#x10b;" horiz-adv-x="594" 
d="M337 626c-59 0 -94 40 -94 85v1c0 46 35 85 93 85c59 0 94 -39 94 -85v-1c0 -45 -35 -85 -93 -85zM351 -16c-175 0 -303 108 -303 280c0 163 131 292 306 292c80 0 138 -21 184 -54v-140h-1c-56 42 -115 66 -176 66c-98 0 -165 -68 -165 -160c0 -96 70 -156 164 -156
c68 0 121 24 177 66h1v-140c-50 -33 -111 -54 -187 -54z" />
    <glyph glyph-name="cdotaccent.sc" horiz-adv-x="705" 
d="M390 680c-59 0 -94 40 -94 85v1c0 46 35 85 93 85c59 0 94 -39 94 -85v-1c0 -45 -35 -85 -93 -85zM400 -16c-232 0 -336 143 -336 313c0 168 121 313 345 313c100 0 176 -31 227 -69v-142h-1c-69 48 -145 82 -227 82c-116 0 -193 -81 -193 -183c0 -105 62 -185 194 -185
c89 0 161 37 226 81h1v-144c-42 -27 -126 -66 -236 -66z" />
    <glyph glyph-name="Dcaron" unicode="&#x10e;" horiz-adv-x="859" 
d="M646 958l-137 -180h-188l-137 180h151l62 -82h36l62 82h151zM102 0v700h343c220 0 352 -130 352 -349c0 -218 -132 -351 -352 -351h-343zM256 139h188c124 0 195 65 195 210c0 144 -71 212 -195 212h-188v-422z" />
    <glyph glyph-name="dcaron" unicode="&#x10f;" horiz-adv-x="695" 
d="M615 758v-758h-143l-1 64c-39 -43 -97 -80 -177 -80c-134 0 -246 100 -246 275c0 173 130 297 295 297c52 0 90 -10 125 -27v229h147zM690 581v177h155v-15l-72 -162h-83zM356 431c-99 0 -161 -64 -161 -164c0 -106 63 -158 149 -158c46 0 93 20 124 46v240
c-34 22 -68 36 -112 36z" />
    <glyph glyph-name="dcaron.sc" horiz-adv-x="777" 
d="M604 854l-137 -180h-188l-137 180h151l62 -82h36l62 82h151zM104 0v596h303c190 0 306 -111 306 -297s-116 -299 -306 -299h-303zM251 127h142c112 0 169 51 169 170c0 117 -57 172 -169 172h-142v-342z" />
    <glyph glyph-name="Dcroat" unicode="&#x110;" horiz-adv-x="887" 
d="M130 0v292h-90l10 118h80v290h343c220 0 352 -130 352 -349c0 -218 -132 -351 -352 -351h-343zM284 139h188c124 0 195 65 195 210c0 144 -71 212 -195 212h-188v-151h210v-118h-210v-153z" />
    <glyph glyph-name="dcroat" unicode="&#x111;" horiz-adv-x="709" 
d="M705 583h-90v-583h-143l-1 64c-39 -43 -97 -80 -177 -80c-134 0 -246 100 -246 259c0 157 130 281 295 281c52 0 90 -10 125 -27v86h-180v96h180v79h147v-79h85zM356 399c-99 0 -161 -64 -161 -148c0 -90 63 -142 149 -142c46 0 93 20 124 46v208c-34 22 -68 36 -112 36z
" />
    <glyph glyph-name="dcroat.sc" horiz-adv-x="809" 
d="M136 0v245h-92l10 108h82v243h303c190 0 306 -111 306 -297s-116 -299 -306 -299h-303zM283 127h142c112 0 169 51 169 170c0 117 -57 172 -169 172h-142v-116h166v-108h-166v-118z" />
    <glyph glyph-name="Eth" unicode="&#xd0;" horiz-adv-x="887" 
d="M130 0v292h-90l10 118h80v290h343c220 0 352 -130 352 -349c0 -218 -132 -351 -352 -351h-343zM284 139h188c124 0 195 65 195 210c0 144 -71 212 -195 212h-188v-151h210v-118h-210v-153z" />
    <glyph glyph-name="eth" unicode="&#xf0;" horiz-adv-x="671" 
d="M329 -16c-167 0 -286 101 -286 257c0 180 141 266 268 266c70 0 124 -26 159 -62c-19 52 -48 97 -90 141l-172 -56v95l93 31c-38 29 -83 60 -137 93v9h184c28 -17 56 -37 83 -59l181 59v-95l-109 -36c68 -81 118 -186 118 -318c0 -214 -126 -325 -292 -325zM190 245
c0 -90 64 -136 141 -136c98 0 147 77 147 187c0 14 -1 28 -3 41c-26 34 -83 56 -137 56c-70 0 -148 -39 -148 -148z" />
    <glyph glyph-name="eth.sc" horiz-adv-x="809" 
d="M136 0v245h-92l10 108h82v243h303c190 0 306 -111 306 -297s-116 -299 -306 -299h-303zM283 127h142c112 0 169 51 169 170c0 117 -57 172 -169 172h-142v-116h166v-108h-166v-118z" />
    <glyph glyph-name="Eacute" unicode="&#xc9;" horiz-adv-x="765" 
d="M314 778l121 164h190v-8l-175 -156h-136zM102 0v700h583l5 -139h-435v-129h350v-139h-350v-154h450l-5 -139h-598z" />
    <glyph glyph-name="eacute" unicode="&#xe9;" horiz-adv-x="647" 
d="M249 634l121 164h190v-8l-175 -156h-136zM337 556c179 0 264 -123 264 -283c0 -16 -1 -32 -3 -48h-402c14 -77 72 -118 167 -118c80 0 143 25 204 61h1v-129c-46 -27 -119 -55 -211 -55c-211 0 -309 119 -309 274c0 169 112 298 289 298zM334 435
c-71 0 -119 -41 -135 -112h263c-6 70 -53 112 -128 112z" />
    <glyph glyph-name="eacute.sc" horiz-adv-x="701" 
d="M276 674l121 164h190v-8l-175 -156h-136zM104 0v596h513l5 -125h-371v-112h296v-120h-296v-114h386l-5 -125h-528z" />
    <glyph glyph-name="Ebreve" unicode="&#x114;" horiz-adv-x="765" 
d="M405 770c-121 0 -196 51 -196 149c0 16 2 33 6 51h117c-2 -11 -3 -21 -3 -29c0 -55 39 -63 76 -63s75 8 75 62c0 9 -1 19 -3 30h117c4 -18 6 -36 6 -52c0 -97 -74 -148 -195 -148zM102 0v700h583l5 -139h-435v-129h350v-139h-350v-154h450l-5 -139h-598z" />
    <glyph glyph-name="ebreve" unicode="&#x115;" horiz-adv-x="647" 
d="M340 626c-121 0 -196 51 -196 149c0 16 2 33 6 51h117c-2 -11 -3 -21 -3 -29c0 -55 39 -63 76 -63s75 8 75 62c0 9 -1 19 -3 30h117c4 -18 6 -36 6 -52c0 -97 -74 -148 -195 -148zM337 556c179 0 264 -123 264 -283c0 -16 -1 -32 -3 -48h-402c14 -77 72 -118 167 -118
c80 0 143 25 204 61h1v-129c-46 -27 -119 -55 -211 -55c-211 0 -309 119 -309 274c0 169 112 298 289 298zM334 435c-71 0 -119 -41 -135 -112h263c-6 70 -53 112 -128 112z" />
    <glyph glyph-name="ebreve.sc" horiz-adv-x="701" 
d="M367 666c-121 0 -196 51 -196 149c0 16 2 33 6 51h117c-2 -11 -3 -21 -3 -29c0 -55 39 -63 76 -63s75 8 75 62c0 9 -1 19 -3 30h117c4 -18 6 -36 6 -52c0 -97 -74 -148 -195 -148zM104 0v596h513l5 -125h-371v-112h296v-120h-296v-114h386l-5 -125h-528z" />
    <glyph glyph-name="Ecaron" unicode="&#x11a;" horiz-adv-x="765" 
d="M636 958l-137 -180h-188l-137 180h151l62 -82h36l62 82h151zM102 0v700h583l5 -139h-435v-129h350v-139h-350v-154h450l-5 -139h-598z" />
    <glyph glyph-name="ecaron" unicode="&#x11b;" horiz-adv-x="647" 
d="M571 814l-137 -180h-188l-137 180h151l62 -82h36l62 82h151zM337 556c179 0 264 -123 264 -283c0 -16 -1 -32 -3 -48h-402c14 -77 72 -118 167 -118c80 0 143 25 204 61h1v-129c-46 -27 -119 -55 -211 -55c-211 0 -309 119 -309 274c0 169 112 298 289 298zM334 435
c-71 0 -119 -41 -135 -112h263c-6 70 -53 112 -128 112z" />
    <glyph glyph-name="ecaron.sc" horiz-adv-x="701" 
d="M598 854l-137 -180h-188l-137 180h151l62 -82h36l62 82h151zM104 0v596h513l5 -125h-371v-112h296v-120h-296v-114h386l-5 -125h-528z" />
    <glyph glyph-name="Ecircumflex" unicode="&#xca;" horiz-adv-x="765" 
d="M174 778l137 180h188l137 -180h-151l-62 82h-36l-62 -82h-151zM102 0v700h583l5 -139h-435v-129h350v-139h-350v-154h450l-5 -139h-598z" />
    <glyph glyph-name="ecircumflex" unicode="&#xea;" horiz-adv-x="647" 
d="M109 634l137 180h188l137 -180h-151l-62 82h-36l-62 -82h-151zM337 556c179 0 264 -123 264 -283c0 -16 -1 -32 -3 -48h-402c14 -77 72 -118 167 -118c80 0 143 25 204 61h1v-129c-46 -27 -119 -55 -211 -55c-211 0 -309 119 -309 274c0 169 112 298 289 298zM334 435
c-71 0 -119 -41 -135 -112h263c-6 70 -53 112 -128 112z" />
    <glyph glyph-name="ecircumflex.sc" horiz-adv-x="701" 
d="M136 674l137 180h188l137 -180h-151l-62 82h-36l-62 -82h-151zM104 0v596h513l5 -125h-371v-112h296v-120h-296v-114h386l-5 -125h-528z" />
    <glyph glyph-name="Edieresis" unicode="&#xcb;" horiz-adv-x="765" 
d="M278 770c-55 0 -88 38 -88 80v1c0 43 33 80 87 80c56 0 88 -37 88 -80v-1c0 -42 -32 -80 -87 -80zM534 770c-55 0 -88 38 -88 80v1c0 43 33 80 87 80c56 0 88 -37 88 -80v-1c0 -42 -32 -80 -87 -80zM102 0v700h583l5 -139h-435v-129h350v-139h-350v-154h450l-5 -139h-598
z" />
    <glyph glyph-name="edieresis" unicode="&#xeb;" horiz-adv-x="647" 
d="M213 626c-55 0 -88 38 -88 80v1c0 43 33 80 87 80c56 0 88 -37 88 -80v-1c0 -42 -32 -80 -87 -80zM469 626c-55 0 -88 38 -88 80v1c0 43 33 80 87 80c56 0 88 -37 88 -80v-1c0 -42 -32 -80 -87 -80zM337 556c179 0 264 -123 264 -283c0 -16 -1 -32 -3 -48h-402
c14 -77 72 -118 167 -118c80 0 143 25 204 61h1v-129c-46 -27 -119 -55 -211 -55c-211 0 -309 119 -309 274c0 169 112 298 289 298zM334 435c-71 0 -119 -41 -135 -112h263c-6 70 -53 112 -128 112z" />
    <glyph glyph-name="edieresis.sc" horiz-adv-x="701" 
d="M240 666c-55 0 -88 38 -88 80v1c0 43 33 80 87 80c56 0 88 -37 88 -80v-1c0 -42 -32 -80 -87 -80zM496 666c-55 0 -88 38 -88 80v1c0 43 33 80 87 80c56 0 88 -37 88 -80v-1c0 -42 -32 -80 -87 -80zM104 0v596h513l5 -125h-371v-112h296v-120h-296v-114h386l-5 -125h-528
z" />
    <glyph glyph-name="Edotaccent" unicode="&#x116;" horiz-adv-x="765" 
d="M406 770c-59 0 -94 40 -94 85v1c0 46 35 85 93 85c59 0 94 -39 94 -85v-1c0 -45 -35 -85 -93 -85zM102 0v700h583l5 -139h-435v-129h350v-139h-350v-154h450l-5 -139h-598z" />
    <glyph glyph-name="edotaccent" unicode="&#x117;" horiz-adv-x="647" 
d="M341 626c-59 0 -94 40 -94 85v1c0 46 35 85 93 85c59 0 94 -39 94 -85v-1c0 -45 -35 -85 -93 -85zM337 556c179 0 264 -123 264 -283c0 -16 -1 -32 -3 -48h-402c14 -77 72 -118 167 -118c80 0 143 25 204 61h1v-129c-46 -27 -119 -55 -211 -55c-211 0 -309 119 -309 274
c0 169 112 298 289 298zM334 435c-71 0 -119 -41 -135 -112h263c-6 70 -53 112 -128 112z" />
    <glyph glyph-name="edotaccent.sc" horiz-adv-x="701" 
d="M368 666c-59 0 -94 40 -94 85v1c0 46 35 85 93 85c59 0 94 -39 94 -85v-1c0 -45 -35 -85 -93 -85zM104 0v596h513l5 -125h-371v-112h296v-120h-296v-114h386l-5 -125h-528z" />
    <glyph glyph-name="Egrave" unicode="&#xc8;" horiz-adv-x="765" 
d="M496 778h-136l-175 156v8h190zM102 0v700h583l5 -139h-435v-129h350v-139h-350v-154h450l-5 -139h-598z" />
    <glyph glyph-name="egrave" unicode="&#xe8;" horiz-adv-x="647" 
d="M431 634h-136l-175 156v8h190zM337 556c179 0 264 -123 264 -283c0 -16 -1 -32 -3 -48h-402c14 -77 72 -118 167 -118c80 0 143 25 204 61h1v-129c-46 -27 -119 -55 -211 -55c-211 0 -309 119 -309 274c0 169 112 298 289 298zM334 435c-71 0 -119 -41 -135 -112h263
c-6 70 -53 112 -128 112z" />
    <glyph glyph-name="egrave.sc" horiz-adv-x="701" 
d="M458 674h-136l-175 156v8h190zM104 0v596h513l5 -125h-371v-112h296v-120h-296v-114h386l-5 -125h-528z" />
    <glyph glyph-name="Emacron" unicode="&#x112;" horiz-adv-x="765" 
d="M213 793v112h384v-112h-384zM102 0v700h583l5 -139h-435v-129h350v-139h-350v-154h450l-5 -139h-598z" />
    <glyph glyph-name="emacron" unicode="&#x113;" horiz-adv-x="647" 
d="M148 649v112h384v-112h-384zM337 556c179 0 264 -123 264 -283c0 -16 -1 -32 -3 -48h-402c14 -77 72 -118 167 -118c80 0 143 25 204 61h1v-129c-46 -27 -119 -55 -211 -55c-211 0 -309 119 -309 274c0 169 112 298 289 298zM334 435c-71 0 -119 -41 -135 -112h263
c-6 70 -53 112 -128 112z" />
    <glyph glyph-name="emacron.sc" horiz-adv-x="701" 
d="M175 689v112h384v-112h-384zM104 0v596h513l5 -125h-371v-112h296v-120h-296v-114h386l-5 -125h-528z" />
    <glyph glyph-name="Eogonek" unicode="&#x118;" horiz-adv-x="765" 
d="M102 0v700h583l5 -139h-435v-129h350v-139h-350v-154h450l-5 -139l-55 -52c-49 -47 -71 -66 -71 -91c0 -22 17 -37 61 -37c18 0 47 4 79 18v-110c-39 -12 -67 -17 -109 -17c-144 0 -166 73 -166 119c0 61 44 111 114 170h-451z" />
    <glyph glyph-name="eogonek" unicode="&#x119;" horiz-adv-x="647" 
d="M357 -16c-211 0 -309 119 -309 274c0 169 112 298 289 298c179 0 264 -123 264 -283c0 -16 -1 -32 -3 -48h-402c14 -77 72 -118 167 -118c80 0 143 25 204 61h1v-129l-56 -69c-69 -85 -71 -103 -71 -128c0 -23 17 -38 61 -38c18 0 47 4 79 18v-110
c-39 -12 -67 -17 -109 -17c-144 0 -166 73 -166 119c0 61 39 103 101 163l12 11c-20 -2 -40 -4 -62 -4zM334 435c-71 0 -119 -41 -135 -112h263c-6 70 -53 112 -128 112z" />
    <glyph glyph-name="eogonek.sc" horiz-adv-x="701" 
d="M104 0v596h513l5 -125h-371v-112h296v-120h-296v-114h386l-5 -125l-55 -52c-49 -47 -71 -66 -71 -91c0 -22 17 -37 61 -37c18 0 47 4 79 18v-110c-39 -12 -67 -17 -109 -17c-144 0 -166 73 -166 119c0 61 44 111 114 170h-381z" />
    <glyph glyph-name="Gbreve" unicode="&#x11e;" horiz-adv-x="861" 
d="M438 786c-121 0 -196 51 -196 149c0 16 2 33 6 51h117c-2 -11 -3 -21 -3 -29c0 -55 39 -63 76 -63s75 8 75 62c0 9 -1 19 -3 30h117c4 -18 6 -36 6 -52c0 -97 -74 -148 -195 -148zM443 -16c-247 0 -381 162 -381 358c0 197 143 374 401 374c107 0 204 -34 264 -79v-156
h-1c-76 52 -155 95 -265 95c-154 0 -241 -95 -241 -233c0 -124 78 -221 231 -221c118 0 204 57 209 157h-245v129h399c1 -16 2 -32 2 -62c0 -267 -190 -362 -373 -362z" />
    <glyph glyph-name="gbreve" unicode="&#x11f;" horiz-adv-x="609" 
d="M286 626c-121 0 -196 51 -196 149c0 16 2 33 6 51h117c-2 -11 -3 -21 -3 -29c0 -55 39 -63 76 -63s75 8 75 62c0 9 -1 19 -3 30h117c4 -18 6 -36 6 -52c0 -97 -74 -148 -195 -148zM303 166c-16 0 -31 1 -45 2l-9 -54c257 -19 349 -70 349 -164c0 -70 -69 -164 -290 -164
c-193 0 -283 59 -283 139c0 38 20 86 106 124l28 144c-75 34 -106 97 -106 163c0 101 80 200 251 200c32 0 58 -3 81 -10l51 81h161v-1l-116 -125c44 -33 70 -86 70 -141c0 -101 -81 -194 -248 -194zM304 270c62 0 109 32 109 91c0 55 -46 91 -109 91
c-65 0 -111 -37 -111 -92c0 -59 46 -90 111 -90zM320 -111c98 0 144 25 144 51c0 33 -80 59 -282 68c-25 -18 -36 -33 -36 -52c0 -45 80 -67 174 -67z" />
    <glyph glyph-name="gbreve.sc" horiz-adv-x="774" 
d="M395 680c-121 0 -196 51 -196 149c0 16 2 33 6 51h117c-2 -11 -3 -21 -3 -29c0 -55 39 -63 76 -63s75 8 75 62c0 9 -1 19 -3 30h117c4 -18 6 -36 6 -52c0 -97 -74 -148 -195 -148zM401 -16c-229 0 -337 144 -337 310c0 172 121 316 350 316c101 0 181 -29 233 -68v-143
h-1c-66 45 -140 81 -236 81c-125 0 -195 -80 -195 -186c0 -101 58 -183 195 -183c101 0 165 49 166 120h-208v120h351c1 -14 2 -45 2 -58c0 -240 -166 -309 -320 -309z" />
    <glyph glyph-name="uni0122" unicode="&#x122;" horiz-adv-x="861" 
d="M443 -16c-247 0 -381 162 -381 358c0 197 143 374 401 374c107 0 204 -34 264 -79v-156h-1c-76 52 -155 95 -265 95c-154 0 -241 -95 -241 -233c0 -124 78 -221 231 -221c118 0 204 57 209 157h-245v129h399c1 -16 2 -32 2 -62c0 -267 -190 -362 -373 -362zM315 -307
l57 205h167v-15l-133 -190h-91z" />
    <glyph glyph-name="uni0123" unicode="&#x123;" horiz-adv-x="609" 
d="M421 834l-57 -205h-167v15l133 190h91zM303 166c-16 0 -31 1 -45 2l-9 -54c257 -19 349 -70 349 -164c0 -70 -69 -164 -290 -164c-193 0 -283 59 -283 139c0 38 20 86 106 124l28 144c-75 34 -106 97 -106 163c0 101 80 200 251 200c32 0 58 -3 81 -10l51 81h161v-1
l-116 -125c44 -33 70 -86 70 -141c0 -101 -81 -194 -248 -194zM304 270c62 0 109 32 109 91c0 55 -46 91 -109 91c-65 0 -111 -37 -111 -92c0 -59 46 -90 111 -90zM320 -111c98 0 144 25 144 51c0 33 -80 59 -282 68c-25 -18 -36 -33 -36 -52c0 -45 80 -67 174 -67z" />
    <glyph glyph-name="uni0123.sc" horiz-adv-x="774" 
d="M401 -16c-229 0 -337 144 -337 310c0 172 121 316 350 316c101 0 181 -29 233 -68v-143h-1c-66 45 -140 81 -236 81c-125 0 -195 -80 -195 -186c0 -101 58 -183 195 -183c101 0 165 49 166 120h-208v120h351c1 -14 2 -45 2 -58c0 -240 -166 -309 -320 -309zM267 -307
l57 205h167v-15l-133 -190h-91z" />
    <glyph glyph-name="Gdotaccent" unicode="&#x120;" horiz-adv-x="861" 
d="M439 786c-59 0 -94 40 -94 85v1c0 46 35 85 93 85c59 0 94 -39 94 -85v-1c0 -45 -35 -85 -93 -85zM443 -16c-247 0 -381 162 -381 358c0 197 143 374 401 374c107 0 204 -34 264 -79v-156h-1c-76 52 -155 95 -265 95c-154 0 -241 -95 -241 -233c0 -124 78 -221 231 -221
c118 0 204 57 209 157h-245v129h399c1 -16 2 -32 2 -62c0 -267 -190 -362 -373 -362z" />
    <glyph glyph-name="gdotaccent" unicode="&#x121;" horiz-adv-x="609" 
d="M287 626c-59 0 -94 40 -94 85v1c0 46 35 85 93 85c59 0 94 -39 94 -85v-1c0 -45 -35 -85 -93 -85zM303 166c-16 0 -31 1 -45 2l-9 -54c257 -19 349 -70 349 -164c0 -70 -69 -164 -290 -164c-193 0 -283 59 -283 139c0 38 20 86 106 124l28 144c-75 34 -106 97 -106 163
c0 101 80 200 251 200c32 0 58 -3 81 -10l51 81h161v-1l-116 -125c44 -33 70 -86 70 -141c0 -101 -81 -194 -248 -194zM304 270c62 0 109 32 109 91c0 55 -46 91 -109 91c-65 0 -111 -37 -111 -92c0 -59 46 -90 111 -90zM320 -111c98 0 144 25 144 51c0 33 -80 59 -282 68
c-25 -18 -36 -33 -36 -52c0 -45 80 -67 174 -67z" />
    <glyph glyph-name="gdotaccent.sc" horiz-adv-x="774" 
d="M396 680c-59 0 -94 40 -94 85v1c0 46 35 85 93 85c59 0 94 -39 94 -85v-1c0 -45 -35 -85 -93 -85zM401 -16c-229 0 -337 144 -337 310c0 172 121 316 350 316c101 0 181 -29 233 -68v-143h-1c-66 45 -140 81 -236 81c-125 0 -195 -80 -195 -186c0 -101 58 -183 195 -183
c101 0 165 49 166 120h-208v120h351c1 -14 2 -45 2 -58c0 -240 -166 -309 -320 -309z" />
    <glyph glyph-name="Hbar" unicode="&#x126;" horiz-adv-x="932" 
d="M130 0v491h-90l5 118h85v91h154v-95h364v95h154v-91h85l5 -118h-90v-491h-154v257h-364v-257h-154zM284 399h364v98h-364v-98z" />
    <glyph glyph-name="hbar" unicode="&#x127;" horiz-adv-x="691" 
d="M94 0v583h-90l5 96h85v79h145v-79h180v-96h-180v-147c51 53 108 92 191 92c110 0 187 -63 187 -199v-329h-147v298c0 80 -43 100 -92 100c-53 0 -99 -26 -137 -61v-337h-147z" />
    <glyph glyph-name="hbar.sc" horiz-adv-x="873" 
d="M136 0v414h-92l5 108h87v74h147v-80h308v80h146v-74h87l5 -108h-92v-414h-146v213h-308v-213h-147zM283 339h308v82h-308v-82z" />
    <glyph glyph-name="Iacute" unicode="&#xcd;" horiz-adv-x="362" 
d="M114 778l121 164h190v-8l-175 -156h-136zM104 0v700h154v-700h-154z" />
    <glyph glyph-name="iacute" unicode="&#xed;" horiz-adv-x="311" 
d="M89 618l121 164h190v-8l-175 -156h-136zM82 0v540h147v-540h-147z" />
    <glyph glyph-name="iacute.sc" horiz-adv-x="359" 
d="M112 674l121 164h190v-8l-175 -156h-136zM106 0v596h147v-596h-147z" />
    <glyph glyph-name="Ibreve" unicode="&#x12c;" horiz-adv-x="362" 
d="M181 770c-121 0 -196 51 -196 149c0 16 2 33 6 51h117c-2 -11 -3 -21 -3 -29c0 -55 39 -63 76 -63s75 8 75 62c0 9 -1 19 -3 30h117c4 -18 6 -36 6 -52c0 -97 -74 -148 -195 -148zM104 0v700h154v-700h-154z" />
    <glyph glyph-name="ibreve" unicode="&#x12d;" horiz-adv-x="311" 
d="M155 610c-121 0 -196 51 -196 149c0 16 2 33 6 51h117c-2 -11 -3 -21 -3 -29c0 -55 39 -63 76 -63s75 8 75 62c0 9 -1 19 -3 30h117c4 -18 6 -36 6 -52c0 -97 -74 -148 -195 -148zM82 0v540h147v-540h-147z" />
    <glyph glyph-name="ibreve.sc" horiz-adv-x="359" 
d="M179 666c-121 0 -196 51 -196 149c0 16 2 33 6 51h117c-2 -11 -3 -21 -3 -29c0 -55 39 -63 76 -63s75 8 75 62c0 9 -1 19 -3 30h117c4 -18 6 -36 6 -52c0 -97 -74 -148 -195 -148zM106 0v596h147v-596h-147z" />
    <glyph glyph-name="Icircumflex" unicode="&#xce;" horiz-adv-x="362" 
d="M-50 778l137 180h188l137 -180h-151l-62 82h-36l-62 -82h-151zM104 0v700h154v-700h-154z" />
    <glyph glyph-name="icircumflex" unicode="&#xee;" horiz-adv-x="311" 
d="M-76 618l137 180h188l137 -180h-151l-62 82h-36l-62 -82h-151zM82 0v540h147v-540h-147z" />
    <glyph glyph-name="icircumflex.sc" horiz-adv-x="359" 
d="M-52 674l137 180h188l137 -180h-151l-62 82h-36l-62 -82h-151zM106 0v596h147v-596h-147z" />
    <glyph glyph-name="Idieresis" unicode="&#xcf;" horiz-adv-x="362" 
d="M54 770c-55 0 -88 38 -88 80v1c0 43 33 80 87 80c56 0 88 -37 88 -80v-1c0 -42 -32 -80 -87 -80zM310 770c-55 0 -88 38 -88 80v1c0 43 33 80 87 80c56 0 88 -37 88 -80v-1c0 -42 -32 -80 -87 -80zM104 0v700h154v-700h-154z" />
    <glyph glyph-name="idieresis" unicode="&#xef;" horiz-adv-x="311" 
d="M28 610c-55 0 -88 38 -88 80v1c0 43 33 80 87 80c56 0 88 -37 88 -80v-1c0 -42 -32 -80 -87 -80zM284 610c-55 0 -88 38 -88 80v1c0 43 33 80 87 80c56 0 88 -37 88 -80v-1c0 -42 -32 -80 -87 -80zM82 0v540h147v-540h-147z" />
    <glyph glyph-name="idieresis.sc" horiz-adv-x="359" 
d="M52 666c-55 0 -88 38 -88 80v1c0 43 33 80 87 80c56 0 88 -37 88 -80v-1c0 -42 -32 -80 -87 -80zM308 666c-55 0 -88 38 -88 80v1c0 43 33 80 87 80c56 0 88 -37 88 -80v-1c0 -42 -32 -80 -87 -80zM106 0v596h147v-596h-147z" />
    <glyph glyph-name="Idotaccent" unicode="&#x130;" horiz-adv-x="362" 
d="M181 770c-59 0 -94 40 -94 85v1c0 46 35 85 93 85c59 0 94 -39 94 -85v-1c0 -45 -35 -85 -93 -85zM104 0v700h154v-700h-154z" />
    <glyph glyph-name="idotaccent.sc" horiz-adv-x="359" 
d="M180 666c-59 0 -94 40 -94 85v1c0 46 35 85 93 85c59 0 94 -39 94 -85v-1c0 -45 -35 -85 -93 -85zM106 0v596h147v-596h-147z" />
    <glyph glyph-name="dotlessi" unicode="&#x131;" horiz-adv-x="311" 
d="M82 0v540h147v-540h-147z" />
    <glyph glyph-name="dotlessi.sc" horiz-adv-x="359" 
d="M106 0v596h147v-596h-147z" />
    <glyph glyph-name="Igrave" unicode="&#xcc;" horiz-adv-x="362" 
d="M249 778h-136l-175 156v8h190zM104 0v700h154v-700h-154z" />
    <glyph glyph-name="igrave" unicode="&#xec;" horiz-adv-x="311" 
d="M224 618h-136l-175 156v8h190zM82 0v540h147v-540h-147z" />
    <glyph glyph-name="igrave.sc" horiz-adv-x="359" 
d="M247 674h-136l-175 156v8h190zM106 0v596h147v-596h-147z" />
    <glyph glyph-name="Imacron" unicode="&#x12a;" horiz-adv-x="362" 
d="M-11 793v112h384v-112h-384zM104 0v700h154v-700h-154z" />
    <glyph glyph-name="imacron" unicode="&#x12b;" horiz-adv-x="311" 
d="M-37 633v112h384v-112h-384zM82 0v540h147v-540h-147z" />
    <glyph glyph-name="imacron.sc" horiz-adv-x="359" 
d="M-13 689v112h384v-112h-384zM106 0v596h147v-596h-147z" />
    <glyph glyph-name="Iogonek" unicode="&#x12e;" horiz-adv-x="362" 
d="M272 -272c-39 -12 -67 -17 -109 -17c-144 0 -166 73 -166 119c0 59 41 108 107 164v706h154v-700l-55 -52c-49 -47 -71 -66 -71 -91c0 -22 17 -37 61 -37c18 0 47 4 79 18v-110z" />
    <glyph glyph-name="iogonek" unicode="&#x12f;" horiz-adv-x="311" 
d="M156 610c-59 0 -94 40 -94 85v1c0 46 35 85 93 85c59 0 94 -39 94 -85v-1c0 -45 -35 -85 -93 -85zM243 -272c-39 -12 -67 -17 -109 -17c-144 0 -166 73 -166 119c0 61 44 111 114 170v540h147v-540l-55 -52c-49 -47 -71 -66 -71 -91c0 -22 17 -37 61 -37c18 0 47 4 79 18
v-110z" />
    <glyph glyph-name="iogonek.sc" horiz-adv-x="359" 
d="M267 -272c-39 -12 -67 -17 -109 -17c-144 0 -166 73 -166 119c0 61 44 111 114 170v596h147v-596l-55 -52c-49 -47 -71 -66 -71 -91c0 -22 17 -37 61 -37c18 0 47 4 79 18v-110z" />
    <glyph glyph-name="uni0136" unicode="&#x136;" horiz-adv-x="821" 
d="M102 0v700h154v-273h116l234 273h178v-1l-289 -335l304 -363v-1h-187l-246 289h-110v-289h-154zM276 -267l57 205h167v-15l-133 -190h-91z" />
    <glyph glyph-name="uni0137" unicode="&#x137;" horiz-adv-x="638" 
d="M80 0v758h147v-416h84l136 198h167v-1l-181 -255l196 -283v-1h-172l-144 214h-86v-214h-147zM194 -269l57 205h167v-15l-133 -190h-91z" />
    <glyph glyph-name="uni0137.sc" horiz-adv-x="751" 
d="M104 0v596h147v-229h92l199 229h168v-1l-250 -285l261 -309v-1h-176l-208 241h-86v-241h-147zM244 -267l57 205h167v-15l-133 -190h-91z" />
    <glyph glyph-name="Lacute" unicode="&#x139;" horiz-adv-x="697" 
d="M112 778l121 164h190v-8l-175 -156h-136zM102 0v700h154v-558h399l-5 -142h-548z" />
    <glyph glyph-name="lacute" unicode="&#x13a;" horiz-adv-x="311" 
d="M89 836l121 164h190v-8l-175 -156h-136zM82 0v758h147v-758h-147z" />
    <glyph glyph-name="lacute.sc" horiz-adv-x="632" 
d="M110 674l121 164h190v-8l-175 -156h-136zM104 0v596h147v-466h341l-5 -130h-483z" />
    <glyph glyph-name="Lcaron" unicode="&#x13d;" horiz-adv-x="697" 
d="M102 0v700h154v-558h399l-5 -142h-548zM351 523v177h155v-15l-72 -162h-83z" />
    <glyph glyph-name="lcaron" unicode="&#x13e;" horiz-adv-x="311" 
d="M82 0v758h147v-758h-147zM304 581v177h155v-15l-72 -162h-83z" />
    <glyph glyph-name="lcaron.sc" horiz-adv-x="632" 
d="M104 0v596h147v-466h341l-5 -130h-483zM342 418v177h155v-15l-72 -162h-83z" />
    <glyph glyph-name="uni013B" unicode="&#x13b;" horiz-adv-x="697" 
d="M102 0v700h154v-558h399l-5 -142h-548zM244 -291l57 205h167v-15l-133 -190h-91z" />
    <glyph glyph-name="uni013C" unicode="&#x13c;" horiz-adv-x="311" 
d="M82 0v758h147v-758h-147zM11 -291l57 205h167v-15l-133 -190h-91z" />
    <glyph glyph-name="uni013C.sc" horiz-adv-x="632" 
d="M104 0v596h147v-466h341l-5 -130h-483zM213 -291l57 205h167v-15l-133 -190h-91z" />
    <glyph glyph-name="Ldot" unicode="&#x13f;" horiz-adv-x="697" 
d="M102 0v700h154v-558h399l-5 -142h-548zM528 344c-59 0 -94 40 -94 85v1c0 46 35 85 93 85c59 0 94 -39 94 -85v-1c0 -45 -35 -85 -93 -85z" />
    <glyph glyph-name="ldot" unicode="&#x140;" horiz-adv-x="486" 
d="M82 0v758h147v-758h-147zM399 302c-59 0 -94 40 -94 85v1c0 46 35 85 93 85c59 0 94 -39 94 -85v-1c0 -45 -35 -85 -93 -85z" />
    <glyph glyph-name="ldot.sc" horiz-adv-x="632" 
d="M104 0v596h147v-466h341l-5 -130h-483zM494 285c-59 0 -94 40 -94 85v1c0 46 35 85 93 85c59 0 94 -39 94 -85v-1c0 -45 -35 -85 -93 -85z" />
    <glyph glyph-name="Lslash" unicode="&#x141;" horiz-adv-x="720" 
d="M125 0v219l-85 -44v141l85 44v340h154v-261l225 117v-141l-225 -117v-156h399l-5 -142h-548z" />
    <glyph glyph-name="lslash" unicode="&#x142;" horiz-adv-x="397" 
d="M125 0v287l-105 -58v115l105 58v356h147v-275l105 58v-115l-105 -58v-368h-147z" />
    <glyph glyph-name="lslash.sc" horiz-adv-x="667" 
d="M139 0v193l-92 -44v124l92 44v279h147v-209l203 97v-124l-203 -97v-133h341l-4 -130h-484z" />
    <glyph glyph-name="Nacute" unicode="&#x143;" horiz-adv-x="881" 
d="M368 753l121 164h190v-8l-175 -156h-136zM102 0v700h170l353 -465h4v465h150v-700h-159l-364 481h-4v-481h-150z" />
    <glyph glyph-name="nacute" unicode="&#x144;" horiz-adv-x="677" 
d="M255 634l121 164h190v-8l-175 -156h-136zM80 0v540h145v-76c51 53 108 92 191 92c110 0 187 -63 187 -199v-357h-147v326c0 80 -43 100 -92 100c-53 0 -99 -26 -137 -61v-365h-147z" />
    <glyph glyph-name="nacute.sc" horiz-adv-x="805" 
d="M324 649l121 164h190v-8l-175 -156h-136zM104 0v596h161l289 -381h4v381h143v-596h-151l-299 394h-4v-394h-143z" />
    <glyph glyph-name="Ncaron" unicode="&#x147;" horiz-adv-x="881" 
d="M690 933l-137 -180h-188l-137 180h151l62 -82h36l62 82h151zM102 0v700h170l353 -465h4v465h150v-700h-159l-364 481h-4v-481h-150z" />
    <glyph glyph-name="ncaron" unicode="&#x148;" horiz-adv-x="677" 
d="M577 814l-137 -180h-188l-137 180h151l62 -82h36l62 82h151zM80 0v540h145v-76c51 53 108 92 191 92c110 0 187 -63 187 -199v-357h-147v326c0 80 -43 100 -92 100c-53 0 -99 -26 -137 -61v-365h-147z" />
    <glyph glyph-name="ncaron.sc" horiz-adv-x="805" 
d="M646 829l-137 -180h-188l-137 180h151l62 -82h36l62 82h151zM104 0v596h161l289 -381h4v381h143v-596h-151l-299 394h-4v-394h-143z" />
    <glyph glyph-name="uni0145" unicode="&#x145;" horiz-adv-x="881" 
d="M102 0v700h170l353 -465h4v465h150v-700h-159l-364 481h-4v-481h-150zM298 -266l57 205h167v-15l-133 -190h-91z" />
    <glyph glyph-name="uni0146" unicode="&#x146;" horiz-adv-x="677" 
d="M80 0v540h145v-76c51 53 108 92 191 92c110 0 187 -63 187 -199v-357h-147v326c0 80 -43 100 -92 100c-53 0 -99 -26 -137 -61v-365h-147zM211 -275l57 205h167v-15l-133 -190h-91z" />
    <glyph glyph-name="uni0146.sc" horiz-adv-x="805" 
d="M104 0v596h161l289 -381h4v381h143v-596h-151l-299 394h-4v-394h-143zM261 -266l57 205h167v-15l-133 -190h-91z" />
    <glyph glyph-name="Ntilde" unicode="&#xd1;" horiz-adv-x="881" 
d="M376 934c36 0 56 -9 102 -30c40 -18 51 -22 66 -22c29 0 56 14 100 65h1v-135c-24 -22 -59 -46 -103 -46c-36 0 -56 9 -102 30c-40 18 -51 22 -66 22c-29 0 -56 -14 -100 -65h-1v135c24 22 59 46 103 46zM102 0v700h170l353 -465h4v465h150v-700h-159l-364 481h-4v-481
h-150z" />
    <glyph glyph-name="ntilde" unicode="&#xf1;" horiz-adv-x="677" 
d="M263 790c36 0 56 -9 102 -30c40 -18 51 -22 66 -22c29 0 56 14 100 65h1v-135c-24 -22 -59 -46 -103 -46c-36 0 -56 9 -102 30c-40 18 -51 22 -66 22c-29 0 -56 -14 -100 -65h-1v135c24 22 59 46 103 46zM80 0v540h145v-76c51 53 108 92 191 92c110 0 187 -63 187 -199
v-357h-147v326c0 80 -43 100 -92 100c-53 0 -99 -26 -137 -61v-365h-147z" />
    <glyph glyph-name="ntilde.sc" horiz-adv-x="805" 
d="M332 830c36 0 56 -9 102 -30c40 -18 51 -22 66 -22c29 0 56 14 100 65h1v-135c-24 -22 -59 -46 -103 -46c-36 0 -56 9 -102 30c-40 18 -51 22 -66 22c-29 0 -56 -14 -100 -65h-1v135c24 22 59 46 103 46zM104 0v596h161l289 -381h4v381h143v-596h-151l-299 394h-4v-394
h-143z" />
    <glyph glyph-name="Oacute" unicode="&#xd3;" horiz-adv-x="894" 
d="M356 794l121 164h190v-8l-175 -156h-136zM447 -16c-236 0 -385 144 -385 366s149 366 385 366s385 -144 385 -366s-149 -366 -385 -366zM446 123c145 0 228 86 228 227s-81 227 -226 227s-228 -86 -228 -227s81 -227 226 -227z" />
    <glyph glyph-name="oacute" unicode="&#xf3;" horiz-adv-x="688" 
d="M253 634l121 164h190v-8l-175 -156h-136zM344 -16c-186 0 -296 126 -296 286s110 286 296 286s296 -126 296 -286s-110 -286 -296 -286zM344 108c92 0 148 68 148 162s-56 162 -148 162s-148 -68 -148 -162s56 -162 148 -162z" />
    <glyph glyph-name="oacute.sc" horiz-adv-x="810" 
d="M314 692l121 164h190v-8l-175 -156h-136zM404 -20c-207 0 -340 123 -340 315s135 319 342 319s340 -123 340 -315s-135 -319 -342 -319zM406 111c114 0 189 66 189 185c0 118 -77 187 -191 187c-115 0 -189 -67 -189 -185c0 -119 76 -187 191 -187z" />
    <glyph glyph-name="Obreve" unicode="&#x14e;" horiz-adv-x="894" 
d="M447 786c-121 0 -196 51 -196 149c0 16 2 33 6 51h117c-2 -11 -3 -21 -3 -29c0 -55 39 -63 76 -63s75 8 75 62c0 9 -1 19 -3 30h117c4 -18 6 -36 6 -52c0 -97 -74 -148 -195 -148zM447 -16c-236 0 -385 144 -385 366s149 366 385 366s385 -144 385 -366
s-149 -366 -385 -366zM446 123c145 0 228 86 228 227s-81 227 -226 227s-228 -86 -228 -227s81 -227 226 -227z" />
    <glyph glyph-name="obreve" unicode="&#x14f;" horiz-adv-x="688" 
d="M344 626c-121 0 -196 51 -196 149c0 16 2 33 6 51h117c-2 -11 -3 -21 -3 -29c0 -55 39 -63 76 -63s75 8 75 62c0 9 -1 19 -3 30h117c4 -18 6 -36 6 -52c0 -97 -74 -148 -195 -148zM344 -16c-186 0 -296 126 -296 286s110 286 296 286s296 -126 296 -286
s-110 -286 -296 -286zM344 108c92 0 148 68 148 162s-56 162 -148 162s-148 -68 -148 -162s56 -162 148 -162z" />
    <glyph glyph-name="obreve.sc" horiz-adv-x="810" 
d="M405 684c-121 0 -196 51 -196 149c0 16 2 33 6 51h117c-2 -11 -3 -21 -3 -29c0 -55 39 -63 76 -63s75 8 75 62c0 9 -1 19 -3 30h117c4 -18 6 -36 6 -52c0 -97 -74 -148 -195 -148zM404 -20c-207 0 -340 123 -340 315s135 319 342 319s340 -123 340 -315
s-135 -319 -342 -319zM406 111c114 0 189 66 189 185c0 118 -77 187 -191 187c-115 0 -189 -67 -189 -185c0 -119 76 -187 191 -187z" />
    <glyph glyph-name="Ocircumflex" unicode="&#xd4;" horiz-adv-x="894" 
d="M216 794l137 180h188l137 -180h-151l-62 82h-36l-62 -82h-151zM447 -16c-236 0 -385 144 -385 366s149 366 385 366s385 -144 385 -366s-149 -366 -385 -366zM446 123c145 0 228 86 228 227s-81 227 -226 227s-228 -86 -228 -227s81 -227 226 -227z" />
    <glyph glyph-name="ocircumflex" unicode="&#xf4;" horiz-adv-x="688" 
d="M113 634l137 180h188l137 -180h-151l-62 82h-36l-62 -82h-151zM344 -16c-186 0 -296 126 -296 286s110 286 296 286s296 -126 296 -286s-110 -286 -296 -286zM344 108c92 0 148 68 148 162s-56 162 -148 162s-148 -68 -148 -162s56 -162 148 -162z" />
    <glyph glyph-name="ocircumflex.sc" horiz-adv-x="810" 
d="M174 692l137 180h188l137 -180h-151l-62 82h-36l-62 -82h-151zM404 -20c-207 0 -340 123 -340 315s135 319 342 319s340 -123 340 -315s-135 -319 -342 -319zM406 111c114 0 189 66 189 185c0 118 -77 187 -191 187c-115 0 -189 -67 -189 -185c0 -119 76 -187 191 -187z
" />
    <glyph glyph-name="Odieresis" unicode="&#xd6;" horiz-adv-x="894" 
d="M320 786c-55 0 -88 38 -88 80v1c0 43 33 80 87 80c56 0 88 -37 88 -80v-1c0 -42 -32 -80 -87 -80zM576 786c-55 0 -88 38 -88 80v1c0 43 33 80 87 80c56 0 88 -37 88 -80v-1c0 -42 -32 -80 -87 -80zM447 -16c-236 0 -385 144 -385 366s149 366 385 366s385 -144 385 -366
s-149 -366 -385 -366zM446 123c145 0 228 86 228 227s-81 227 -226 227s-228 -86 -228 -227s81 -227 226 -227z" />
    <glyph glyph-name="odieresis" unicode="&#xf6;" horiz-adv-x="688" 
d="M217 626c-55 0 -88 38 -88 80v1c0 43 33 80 87 80c56 0 88 -37 88 -80v-1c0 -42 -32 -80 -87 -80zM473 626c-55 0 -88 38 -88 80v1c0 43 33 80 87 80c56 0 88 -37 88 -80v-1c0 -42 -32 -80 -87 -80zM344 -16c-186 0 -296 126 -296 286s110 286 296 286s296 -126 296 -286
s-110 -286 -296 -286zM344 108c92 0 148 68 148 162s-56 162 -148 162s-148 -68 -148 -162s56 -162 148 -162z" />
    <glyph glyph-name="odieresis.sc" horiz-adv-x="810" 
d="M278 684c-55 0 -88 38 -88 80v1c0 43 33 80 87 80c56 0 88 -37 88 -80v-1c0 -42 -32 -80 -87 -80zM534 684c-55 0 -88 38 -88 80v1c0 43 33 80 87 80c56 0 88 -37 88 -80v-1c0 -42 -32 -80 -87 -80zM404 -20c-207 0 -340 123 -340 315s135 319 342 319s340 -123 340 -315
s-135 -319 -342 -319zM406 111c114 0 189 66 189 185c0 118 -77 187 -191 187c-115 0 -189 -67 -189 -185c0 -119 76 -187 191 -187z" />
    <glyph glyph-name="OE" unicode="&#x152;" horiz-adv-x="1267" 
d="M62 349c0 218 132 351 352 351h773l5 -139h-435v-129h350v-139h-350v-154h450l-5 -139h-788c-220 0 -352 130 -352 349zM603 561h-188c-124 0 -195 -65 -195 -210c0 -144 71 -212 195 -212h188v422z" />
    <glyph glyph-name="oe" unicode="&#x153;" horiz-adv-x="1091" 
d="M1012 39c-46 -27 -119 -55 -211 -55c-117 0 -193 35 -239 100c-45 -65 -117 -100 -218 -100c-186 0 -296 126 -296 286s110 286 296 286c104 0 177 -37 223 -107c46 70 116 107 214 107c179 0 264 -123 264 -283c0 -16 -1 -32 -3 -48h-402c13 -77 70 -118 167 -118
c80 0 143 25 204 61h1v-129zM778 435c-73 0 -119 -41 -135 -112h263c-6 70 -53 112 -128 112zM344 108c94 0 148 68 148 162s-54 162 -148 162c-92 0 -148 -68 -148 -162s56 -162 148 -162z" />
    <glyph glyph-name="oe.sc" horiz-adv-x="1123" 
d="M64 297c0 186 116 299 306 299h669l5 -125h-371v-112h296v-120h-296v-114h386l-5 -125h-684c-190 0 -306 111 -306 297zM526 469h-142c-112 0 -169 -51 -169 -170c0 -117 57 -172 169 -172h142v342z" />
    <glyph glyph-name="Ograve" unicode="&#xd2;" horiz-adv-x="894" 
d="M538 794h-136l-175 156v8h190zM447 -16c-236 0 -385 144 -385 366s149 366 385 366s385 -144 385 -366s-149 -366 -385 -366zM446 123c145 0 228 86 228 227s-81 227 -226 227s-228 -86 -228 -227s81 -227 226 -227z" />
    <glyph glyph-name="ograve" unicode="&#xf2;" horiz-adv-x="688" 
d="M435 634h-136l-175 156v8h190zM344 -16c-186 0 -296 126 -296 286s110 286 296 286s296 -126 296 -286s-110 -286 -296 -286zM344 108c92 0 148 68 148 162s-56 162 -148 162s-148 -68 -148 -162s56 -162 148 -162z" />
    <glyph glyph-name="ograve.sc" horiz-adv-x="810" 
d="M496 692h-136l-175 156v8h190zM404 -20c-207 0 -340 123 -340 315s135 319 342 319s340 -123 340 -315s-135 -319 -342 -319zM406 111c114 0 189 66 189 185c0 118 -77 187 -191 187c-115 0 -189 -67 -189 -185c0 -119 76 -187 191 -187z" />
    <glyph glyph-name="Ohungarumlaut" unicode="&#x150;" horiz-adv-x="894" 
d="M498 794l106 164h166v-8l-162 -156h-110zM273 794l106 164h166v-8l-162 -156h-110zM447 -16c-236 0 -385 144 -385 366s149 366 385 366s385 -144 385 -366s-149 -366 -385 -366zM446 123c145 0 228 86 228 227s-81 227 -226 227s-228 -86 -228 -227s81 -227 226 -227z
" />
    <glyph glyph-name="ohungarumlaut" unicode="&#x151;" horiz-adv-x="688" 
d="M395 634l106 164h166v-8l-162 -156h-110zM170 634l106 164h166v-8l-162 -156h-110zM344 -16c-186 0 -296 126 -296 286s110 286 296 286s296 -126 296 -286s-110 -286 -296 -286zM344 108c92 0 148 68 148 162s-56 162 -148 162s-148 -68 -148 -162s56 -162 148 -162z
" />
    <glyph glyph-name="ohungarumlaut.sc" horiz-adv-x="810" 
d="M456 692l106 164h166v-8l-162 -156h-110zM231 692l106 164h166v-8l-162 -156h-110zM404 -20c-207 0 -340 123 -340 315s135 319 342 319s340 -123 340 -315s-135 -319 -342 -319zM406 111c114 0 189 66 189 185c0 118 -77 187 -191 187c-115 0 -189 -67 -189 -185
c0 -119 76 -187 191 -187z" />
    <glyph glyph-name="Omacron" unicode="&#x14c;" horiz-adv-x="894" 
d="M255 809v112h384v-112h-384zM447 -16c-236 0 -385 144 -385 366s149 366 385 366s385 -144 385 -366s-149 -366 -385 -366zM446 123c145 0 228 86 228 227s-81 227 -226 227s-228 -86 -228 -227s81 -227 226 -227z" />
    <glyph glyph-name="omacron" unicode="&#x14d;" horiz-adv-x="688" 
d="M152 649v112h384v-112h-384zM344 -16c-186 0 -296 126 -296 286s110 286 296 286s296 -126 296 -286s-110 -286 -296 -286zM344 108c92 0 148 68 148 162s-56 162 -148 162s-148 -68 -148 -162s56 -162 148 -162z" />
    <glyph glyph-name="omacron.sc" horiz-adv-x="810" 
d="M213 707v112h384v-112h-384zM404 -20c-207 0 -340 123 -340 315s135 319 342 319s340 -123 340 -315s-135 -319 -342 -319zM406 111c114 0 189 66 189 185c0 118 -77 187 -191 187c-115 0 -189 -67 -189 -185c0 -119 76 -187 191 -187z" />
    <glyph glyph-name="Oslash" unicode="&#xd8;" horiz-adv-x="894" 
d="M40 -61l119 151c-62 64 -97 153 -97 260c0 222 149 366 385 366c68 0 128 -12 180 -34l62 79h165l-119 -152c62 -63 97 -152 97 -259c0 -222 -149 -366 -385 -366c-67 0 -128 12 -179 34l-61 -79h-167zM216 350c0 -60 14 -110 42 -148l287 363c-28 11 -61 16 -97 16
c-148 0 -232 -88 -232 -231zM446 119c148 0 232 88 232 231c0 60 -14 110 -42 148l-287 -364c28 -10 61 -15 97 -15z" />
    <glyph glyph-name="oslash" unicode="&#xf8;" horiz-adv-x="688" 
d="M344 -16c-56 0 -106 12 -147 32l-51 -62h-133l102 126c-44 50 -67 116 -67 190c0 160 110 286 296 286c56 0 106 -12 147 -32l51 62h133l-102 -126c44 -50 67 -116 67 -190c0 -160 -110 -286 -296 -286zM191 270c0 -33 7 -62 19 -87l204 239c-20 10 -44 15 -70 15
c-95 0 -153 -70 -153 -167zM344 103c95 0 153 70 153 167c0 33 -7 62 -19 87l-204 -239c20 -10 44 -15 70 -15z" />
    <glyph glyph-name="oslash.sc" horiz-adv-x="810" 
d="M404 -20c-61 0 -116 11 -163 31l-59 -71h-157l118 139c-51 54 -79 127 -79 216c0 192 135 319 342 319c61 0 116 -11 163 -31l61 71h155l-118 -139c51 -54 79 -128 79 -216c0 -192 -135 -319 -342 -319zM211 298c0 -46 11 -85 32 -115l244 290c-25 9 -53 14 -83 14
c-117 0 -193 -69 -193 -189zM406 107c116 0 193 68 193 189c0 46 -11 84 -32 114l-244 -289c24 -9 52 -14 83 -14z" />
    <glyph glyph-name="Oslashacute" unicode="&#x1fe;" horiz-adv-x="894" 
d="M356 794l121 164h190v-8l-175 -156h-136zM40 -61l119 151c-62 64 -97 153 -97 260c0 222 149 366 385 366c68 0 128 -12 180 -34l62 79h165l-119 -152c62 -63 97 -152 97 -259c0 -222 -149 -366 -385 -366c-67 0 -128 12 -179 34l-61 -79h-167zM216 350
c0 -60 14 -110 42 -148l287 363c-28 11 -61 16 -97 16c-148 0 -232 -88 -232 -231zM446 119c148 0 232 88 232 231c0 60 -14 110 -42 148l-287 -364c28 -10 61 -15 97 -15z" />
    <glyph glyph-name="oslashacute" unicode="&#x1ff;" horiz-adv-x="688" 
d="M253 634l121 164h190v-8l-175 -156h-136zM344 -16c-56 0 -106 12 -147 32l-51 -62h-133l102 126c-44 50 -67 116 -67 190c0 160 110 286 296 286c56 0 106 -12 147 -32l51 62h133l-102 -126c44 -50 67 -116 67 -190c0 -160 -110 -286 -296 -286zM191 270
c0 -33 7 -62 19 -87l204 239c-20 10 -44 15 -70 15c-95 0 -153 -70 -153 -167zM344 103c95 0 153 70 153 167c0 33 -7 62 -19 87l-204 -239c20 -10 44 -15 70 -15z" />
    <glyph glyph-name="oslashacute.sc" horiz-adv-x="810" 
d="M313 692l121 164h190v-8l-175 -156h-136zM404 -20c-61 0 -116 11 -163 31l-59 -71h-157l118 139c-51 54 -79 127 -79 216c0 192 135 319 342 319c61 0 116 -11 163 -31l61 71h155l-118 -139c51 -54 79 -128 79 -216c0 -192 -135 -319 -342 -319zM211 298
c0 -46 11 -85 32 -115l244 290c-25 9 -53 14 -83 14c-117 0 -193 -69 -193 -189zM406 107c116 0 193 68 193 189c0 46 -11 84 -32 114l-244 -289c24 -9 52 -14 83 -14z" />
    <glyph glyph-name="Otilde" unicode="&#xd5;" horiz-adv-x="894" 
d="M364 950c36 0 56 -9 102 -30c40 -18 51 -22 66 -22c29 0 56 14 100 65h1v-135c-24 -22 -59 -46 -103 -46c-36 0 -56 9 -102 30c-40 18 -51 22 -66 22c-29 0 -56 -14 -100 -65h-1v135c24 22 59 46 103 46zM447 -16c-236 0 -385 144 -385 366s149 366 385 366
s385 -144 385 -366s-149 -366 -385 -366zM446 123c145 0 228 86 228 227s-81 227 -226 227s-228 -86 -228 -227s81 -227 226 -227z" />
    <glyph glyph-name="otilde" unicode="&#xf5;" horiz-adv-x="688" 
d="M261 790c36 0 56 -9 102 -30c40 -18 51 -22 66 -22c29 0 56 14 100 65h1v-135c-24 -22 -59 -46 -103 -46c-36 0 -56 9 -102 30c-40 18 -51 22 -66 22c-29 0 -56 -14 -100 -65h-1v135c24 22 59 46 103 46zM344 -16c-186 0 -296 126 -296 286s110 286 296 286
s296 -126 296 -286s-110 -286 -296 -286zM344 108c92 0 148 68 148 162s-56 162 -148 162s-148 -68 -148 -162s56 -162 148 -162z" />
    <glyph glyph-name="otilde.sc" horiz-adv-x="810" 
d="M322 848c36 0 56 -9 102 -30c40 -18 51 -22 66 -22c29 0 56 14 100 65h1v-135c-24 -22 -59 -46 -103 -46c-36 0 -56 9 -102 30c-40 18 -51 22 -66 22c-29 0 -56 -14 -100 -65h-1v135c24 22 59 46 103 46zM404 -20c-207 0 -340 123 -340 315s135 319 342 319
s340 -123 340 -315s-135 -319 -342 -319zM406 111c114 0 189 66 189 185c0 118 -77 187 -191 187c-115 0 -189 -67 -189 -185c0 -119 76 -187 191 -187z" />
    <glyph glyph-name="Racute" unicode="&#x154;" horiz-adv-x="804" 
d="M310 778l121 164h190v-8l-175 -156h-136zM102 0v700h372c179 0 266 -84 266 -241c0 -116 -51 -191 -150 -223l178 -236h-181l-148 206h-183v-206h-154zM256 342h214c84 0 114 47 114 110s-30 109 -114 109h-214v-219z" />
    <glyph glyph-name="racute" unicode="&#x155;" horiz-adv-x="422" 
d="M150 630l121 164h190v-8l-175 -156h-136zM80 0v540h145v-101c41 78 94 113 149 113c6 0 12 0 24 -2v-146c-12 2 -21 2 -32 2c-67 0 -119 -22 -139 -70v-336h-147z" />
    <glyph glyph-name="racute.sc" horiz-adv-x="742" 
d="M300 674l121 164h190v-8l-175 -156h-136zM104 0v596h293c179 0 272 -55 272 -205c0 -105 -50 -158 -151 -190l196 -196v-5h-184l-164 179h-115v-179h-147zM251 304h161c75 0 109 24 109 84c0 59 -34 83 -109 83h-161v-167z" />
    <glyph glyph-name="Rcaron" unicode="&#x158;" horiz-adv-x="804" 
d="M632 958l-137 -180h-188l-137 180h151l62 -82h36l62 82h151zM102 0v700h372c179 0 266 -84 266 -241c0 -116 -51 -191 -150 -223l178 -236h-181l-148 206h-183v-206h-154zM256 342h214c84 0 114 47 114 110s-30 109 -114 109h-214v-219z" />
    <glyph glyph-name="rcaron" unicode="&#x159;" horiz-adv-x="422" 
d="M472 810l-137 -180h-188l-137 180h151l62 -82h36l62 82h151zM80 0v540h145v-101c41 78 94 113 149 113c6 0 12 0 24 -2v-146c-12 2 -21 2 -32 2c-67 0 -119 -22 -139 -70v-336h-147z" />
    <glyph glyph-name="rcaron.sc" horiz-adv-x="742" 
d="M622 854l-137 -180h-188l-137 180h151l62 -82h36l62 82h151zM104 0v596h293c179 0 272 -55 272 -205c0 -105 -50 -158 -151 -190l196 -196v-5h-184l-164 179h-115v-179h-147zM251 304h161c75 0 109 24 109 84c0 59 -34 83 -109 83h-161v-167z" />
    <glyph glyph-name="uni0156" unicode="&#x156;" horiz-adv-x="804" 
d="M102 0v700h372c179 0 266 -84 266 -241c0 -116 -51 -191 -150 -223l178 -236h-181l-148 206h-183v-206h-154zM256 342h214c84 0 114 47 114 110s-30 109 -114 109h-214v-219zM280 -267l57 205h167v-15l-133 -190h-91z" />
    <glyph glyph-name="uni0157" unicode="&#x157;" horiz-adv-x="422" 
d="M80 0v540h145v-101c41 78 94 113 149 113c6 0 12 0 24 -2v-146c-12 2 -21 2 -32 2c-67 0 -119 -22 -139 -70v-336h-147zM11 -291l57 205h167v-15l-133 -190h-91z" />
    <glyph glyph-name="uni0157.sc" horiz-adv-x="742" 
d="M104 0v596h293c179 0 272 -55 272 -205c0 -105 -50 -158 -151 -190l196 -196v-5h-184l-164 179h-115v-179h-147zM251 304h161c75 0 109 24 109 84c0 59 -34 83 -109 83h-161v-167zM229 -267l57 205h167v-15l-133 -190h-91z" />
    <glyph glyph-name="Sacute" unicode="&#x15a;" horiz-adv-x="736" 
d="M306 794l121 164h190v-8l-175 -156h-136zM390 -16c-133 0 -233 31 -314 71v157h1c99 -54 217 -87 314 -87c95 0 143 28 143 74c0 48 -40 62 -200 90c-121 21 -258 59 -258 198c0 117 96 229 314 229c88 0 189 -25 261 -66v-157h-1c-80 51 -182 82 -272 82
c-100 0 -141 -30 -141 -73c0 -59 86 -65 196 -85c121 -22 262 -57 262 -208c0 -83 -45 -225 -305 -225z" />
    <glyph glyph-name="sacute" unicode="&#x15b;" horiz-adv-x="577" 
d="M201 634l121 164h190v-8l-175 -156h-136zM304 -16c-78 0 -159 19 -237 62v132h1c70 -45 158 -73 241 -73c61 0 82 18 82 47c0 28 -14 39 -135 66c-126 28 -188 68 -188 162c0 95 75 176 226 176c80 0 163 -28 206 -52v-132h-1c-68 38 -156 63 -217 63
c-51 0 -70 -18 -70 -43c0 -28 21 -39 134 -66c136 -32 189 -76 189 -169c0 -70 -39 -173 -231 -173z" />
    <glyph glyph-name="sacute.sc" horiz-adv-x="682" 
d="M277 688l121 164h190v-8l-175 -156h-136zM358 -16c-101 0 -207 29 -276 63v141h1c85 -48 205 -77 276 -77c95 0 124 21 124 53c0 37 -28 45 -168 76c-134 30 -233 54 -233 176c0 106 82 194 276 194c85 0 173 -24 235 -55v-141h-1c-70 38 -160 69 -244 69
c-80 0 -118 -21 -117 -55s27 -41 164 -70c127 -27 235 -65 235 -182c0 -72 -23 -192 -272 -192z" />
    <glyph glyph-name="Scaron" unicode="&#x160;" horiz-adv-x="736" 
d="M628 974l-137 -180h-188l-137 180h151l62 -82h36l62 82h151zM390 -16c-133 0 -233 31 -314 71v157h1c99 -54 217 -87 314 -87c95 0 143 28 143 74c0 48 -40 62 -200 90c-121 21 -258 59 -258 198c0 117 96 229 314 229c88 0 189 -25 261 -66v-157h-1
c-80 51 -182 82 -272 82c-100 0 -141 -30 -141 -73c0 -59 86 -65 196 -85c121 -22 262 -57 262 -208c0 -83 -45 -225 -305 -225z" />
    <glyph glyph-name="scaron" unicode="&#x161;" horiz-adv-x="577" 
d="M523 814l-137 -180h-188l-137 180h151l62 -82h36l62 82h151zM304 -16c-78 0 -159 19 -237 62v132h1c70 -45 158 -73 241 -73c61 0 82 18 82 47c0 28 -14 39 -135 66c-126 28 -188 68 -188 162c0 95 75 176 226 176c80 0 163 -28 206 -52v-132h-1c-68 38 -156 63 -217 63
c-51 0 -70 -18 -70 -43c0 -28 21 -39 134 -66c136 -32 189 -76 189 -169c0 -70 -39 -173 -231 -173z" />
    <glyph glyph-name="scaron.sc" horiz-adv-x="682" 
d="M599 868l-137 -180h-188l-137 180h151l62 -82h36l62 82h151zM358 -16c-101 0 -207 29 -276 63v141h1c85 -48 205 -77 276 -77c95 0 124 21 124 53c0 37 -28 45 -168 76c-134 30 -233 54 -233 176c0 106 82 194 276 194c85 0 173 -24 235 -55v-141h-1
c-70 38 -160 69 -244 69c-80 0 -118 -21 -117 -55s27 -41 164 -70c127 -27 235 -65 235 -182c0 -72 -23 -192 -272 -192z" />
    <glyph glyph-name="Scedilla" unicode="&#x15e;" horiz-adv-x="736" 
d="M182 -182v8l141 161c-100 8 -180 35 -247 68v157h1c99 -54 217 -87 314 -87c95 0 143 28 143 74c0 48 -40 62 -200 90c-121 21 -258 59 -258 198c0 117 96 229 314 229c88 0 189 -25 261 -66v-157h-1c-80 51 -182 82 -272 82c-100 0 -141 -30 -141 -73
c0 -59 86 -65 196 -85c121 -22 262 -57 262 -208c0 -75 -37 -200 -240 -222l-87 -169h-186z" />
    <glyph glyph-name="scedilla" unicode="&#x15f;" horiz-adv-x="577" 
d="M108 -182v8l142 161c-61 7 -123 26 -183 59v132h1c70 -45 158 -73 241 -73c61 0 82 18 82 47c0 28 -14 39 -135 66c-126 28 -188 68 -188 162c0 95 75 176 226 176c80 0 163 -28 206 -52v-132h-1c-68 38 -156 63 -217 63c-51 0 -70 -18 -70 -43c0 -28 21 -39 134 -66
c136 -32 189 -76 189 -169c0 -59 -28 -142 -152 -166l-89 -173h-186z" />
    <glyph glyph-name="scedilla.sc" horiz-adv-x="682" 
d="M142 -182v8l143 163c-77 9 -151 32 -203 58v141h1c85 -48 205 -77 276 -77c95 0 124 21 124 53c0 37 -28 45 -168 76c-134 30 -233 54 -233 176c0 106 82 194 276 194c85 0 173 -24 235 -55v-141h-1c-70 38 -160 69 -244 69c-80 0 -118 -21 -117 -55s27 -41 164 -70
c127 -27 235 -65 235 -182c0 -66 -19 -173 -215 -190l-87 -168h-186z" />
    <glyph glyph-name="uni0218" unicode="&#x218;" horiz-adv-x="736" 
d="M390 -16c-133 0 -233 31 -314 71v157h1c99 -54 217 -87 314 -87c95 0 143 28 143 74c0 48 -40 62 -200 90c-121 21 -258 59 -258 198c0 117 96 229 314 229c88 0 189 -25 261 -66v-157h-1c-80 51 -182 82 -272 82c-100 0 -141 -30 -141 -73c0 -59 86 -65 196 -85
c121 -22 262 -57 262 -208c0 -83 -45 -225 -305 -225zM239 -307l57 205h167v-15l-133 -190h-91z" />
    <glyph glyph-name="uni0219" unicode="&#x219;" horiz-adv-x="577" 
d="M304 -16c-78 0 -159 19 -237 62v132h1c70 -45 158 -73 241 -73c61 0 82 18 82 47c0 28 -14 39 -135 66c-126 28 -188 68 -188 162c0 95 75 176 226 176c80 0 163 -28 206 -52v-132h-1c-68 38 -156 63 -217 63c-51 0 -70 -18 -70 -43c0 -28 21 -39 134 -66
c136 -32 189 -76 189 -169c0 -70 -39 -173 -231 -173zM157 -307l57 205h167v-15l-133 -190h-91z" />
    <glyph glyph-name="uni0219.sc" horiz-adv-x="682" 
d="M358 -16c-101 0 -207 29 -276 63v141h1c85 -48 205 -77 276 -77c95 0 124 21 124 53c0 37 -28 45 -168 76c-134 30 -233 54 -233 176c0 106 82 194 276 194c85 0 173 -24 235 -55v-141h-1c-70 38 -160 69 -244 69c-80 0 -118 -21 -117 -55s27 -41 164 -70
c127 -27 235 -65 235 -182c0 -72 -23 -192 -272 -192zM214 -307l57 205h167v-15l-133 -190h-91z" />
    <glyph glyph-name="uni1E9E" unicode="&#x1e9e;" horiz-adv-x="852" 
d="M256 0h-154v700h657v-143l-185 -156l62 -19c136 -42 174 -109 174 -193c0 -131 -93 -205 -270 -205c-80 0 -140 14 -192 32v139h1c44 -19 104 -42 196 -42c78 0 110 30 110 77c0 53 -41 72 -176 105l-70 17v103l179 153h-332v-568z" />
    <glyph glyph-name="germandbls" unicode="&#xdf;" horiz-adv-x="771" 
d="M26 419l24 121h92c29 165 135 234 276 234c139 0 230 -70 288 -181l-168 -181l52 -27c76 -39 137 -87 137 -184c0 -134 -103 -217 -235 -217c-38 0 -73 4 -129 22v127h1c44 -19 84 -29 122 -29c62 0 103 36 103 92c0 49 -36 70 -131 111l-65 28l-2 89l147 167
c-38 46 -82 60 -117 60c-63 0 -142 -31 -142 -209v-442h-145v419h-108z" />
    <glyph glyph-name="uni1E9E.sc" horiz-adv-x="813" 
d="M251 0h-147v596h608v-120l-169 -145l43 -12c150 -40 167 -103 167 -170c0 -104 -78 -165 -239 -165c-59 0 -139 13 -181 29v126h1c38 -17 109 -36 176 -36c82 0 96 30 96 54c0 33 -21 53 -147 80l-66 14v92l146 130h-288v-473z" />
    <glyph glyph-name="Tcaron" unicode="&#x164;" horiz-adv-x="740" 
d="M601 958l-137 -180h-188l-137 180h151l62 -82h36l62 82h151zM293 0v558h-253l5 142h650l5 -142h-253v-558h-154z" />
    <glyph glyph-name="tcaron" unicode="&#x165;" horiz-adv-x="435" 
d="M366 611v177h155v-15l-72 -162h-83zM144 0v419h-120l24 121h96v120l145 15v-135h122v-121h-122v-419h-145z" />
    <glyph glyph-name="tcaron.sc" horiz-adv-x="694" 
d="M578 854l-137 -180h-188l-137 180h151l62 -82h36l62 82h151zM274 0v466h-221l5 130h578l5 -130h-221v-466h-146z" />
    <glyph glyph-name="uni0162" unicode="&#x21a;" horiz-adv-x="740" 
d="M293 0v558h-253l5 142h650l5 -142h-253v-558h-154zM225 -291l57 205h167v-15l-133 -190h-91z" />
    <glyph glyph-name="uni0162" unicode="&#x162;" horiz-adv-x="740" 
d="M293 0v558h-253l5 142h650l5 -142h-253v-558h-154zM225 -291l57 205h167v-15l-133 -190h-91z" />
    <glyph glyph-name="uni0163" unicode="&#x21b;" horiz-adv-x="435" 
d="M144 0v419h-120l24 121h96v120l145 15v-135h122v-121h-122v-419h-145zM72 -291l57 205h167v-15l-133 -190h-91z" />
    <glyph glyph-name="uni0163" unicode="&#x163;" horiz-adv-x="435" 
d="M144 0v419h-120l24 121h96v120l145 15v-135h122v-121h-122v-419h-145zM72 -291l57 205h167v-15l-133 -190h-91z" />
    <glyph glyph-name="uni0163.sc" horiz-adv-x="694" 
d="M274 0v466h-221l5 130h578l5 -130h-221v-466h-146zM202 -291l57 205h167v-15l-133 -190h-91z" />
    <glyph glyph-name="Uacute" unicode="&#xda;" horiz-adv-x="864" 
d="M341 754l121 164h190v-8l-175 -156h-136zM430 -16c-188 0 -333 78 -333 286v430h154v-423c0 -114 87 -151 181 -151s181 35 181 146v428h154v-425c0 -214 -149 -291 -337 -291z" />
    <glyph glyph-name="uacute" unicode="&#xfa;" horiz-adv-x="677" 
d="M245 602l121 164h190v-8l-175 -156h-136zM597 540v-540h-145v76c-51 -53 -108 -92 -191 -92c-110 0 -187 63 -187 199v357h147v-326c0 -80 43 -100 92 -100c53 0 99 26 137 61v365h147z" />
    <glyph glyph-name="uacute.sc" horiz-adv-x="778" 
d="M298 650l121 164h190v-8l-175 -156h-136zM387 -14c-163 0 -293 67 -293 246v364h147v-357c0 -93 74 -123 148 -123s148 28 148 118v362h147v-359c0 -184 -134 -251 -297 -251z" />
    <glyph glyph-name="Ubreve" unicode="&#x16c;" horiz-adv-x="864" 
d="M432 746c-121 0 -196 51 -196 149c0 16 2 33 6 51h117c-2 -11 -3 -21 -3 -29c0 -55 39 -63 76 -63s75 8 75 62c0 9 -1 19 -3 30h117c4 -18 6 -36 6 -52c0 -97 -74 -148 -195 -148zM430 -16c-188 0 -333 78 -333 286v430h154v-423c0 -114 87 -151 181 -151s181 35 181 146
v428h154v-425c0 -214 -149 -291 -337 -291z" />
    <glyph glyph-name="ubreve" unicode="&#x16d;" horiz-adv-x="677" 
d="M336 594c-121 0 -196 51 -196 149c0 16 2 33 6 51h117c-2 -11 -3 -21 -3 -29c0 -55 39 -63 76 -63s75 8 75 62c0 9 -1 19 -3 30h117c4 -18 6 -36 6 -52c0 -97 -74 -148 -195 -148zM597 540v-540h-145v76c-51 -53 -108 -92 -191 -92c-110 0 -187 63 -187 199v357h147v-326
c0 -80 43 -100 92 -100c53 0 99 26 137 61v365h147z" />
    <glyph glyph-name="ubreve.sc" horiz-adv-x="778" 
d="M389 642c-121 0 -196 51 -196 149c0 16 2 33 6 51h117c-2 -11 -3 -21 -3 -29c0 -55 39 -63 76 -63s75 8 75 62c0 9 -1 19 -3 30h117c4 -18 6 -36 6 -52c0 -97 -74 -148 -195 -148zM387 -14c-163 0 -293 67 -293 246v364h147v-357c0 -93 74 -123 148 -123s148 28 148 118
v362h147v-359c0 -184 -134 -251 -297 -251z" />
    <glyph glyph-name="Ucircumflex" unicode="&#xdb;" horiz-adv-x="864" 
d="M201 778l137 180h188l137 -180h-151l-62 82h-36l-62 -82h-151zM430 -16c-188 0 -333 78 -333 286v430h154v-423c0 -114 87 -151 181 -151s181 35 181 146v428h154v-425c0 -214 -149 -291 -337 -291z" />
    <glyph glyph-name="ucircumflex" unicode="&#xfb;" horiz-adv-x="677" 
d="M105 618l137 180h188l137 -180h-151l-62 82h-36l-62 -82h-151zM597 540v-540h-145v76c-51 -53 -108 -92 -191 -92c-110 0 -187 63 -187 199v357h147v-326c0 -80 43 -100 92 -100c53 0 99 26 137 61v365h147z" />
    <glyph glyph-name="ucircumflex.sc" horiz-adv-x="778" 
d="M158 674l137 180h188l137 -180h-151l-62 82h-36l-62 -82h-151zM387 -14c-163 0 -293 67 -293 246v364h147v-357c0 -93 74 -123 148 -123s148 28 148 118v362h147v-359c0 -184 -134 -251 -297 -251z" />
    <glyph glyph-name="Udieresis" unicode="&#xdc;" horiz-adv-x="864" 
d="M305 770c-55 0 -88 38 -88 80v1c0 43 33 80 87 80c56 0 88 -37 88 -80v-1c0 -42 -32 -80 -87 -80zM561 770c-55 0 -88 38 -88 80v1c0 43 33 80 87 80c56 0 88 -37 88 -80v-1c0 -42 -32 -80 -87 -80zM430 -16c-188 0 -333 78 -333 286v430h154v-423
c0 -114 87 -151 181 -151s181 35 181 146v428h154v-425c0 -214 -149 -291 -337 -291z" />
    <glyph glyph-name="udieresis" unicode="&#xfc;" horiz-adv-x="677" 
d="M209 610c-55 0 -88 38 -88 80v1c0 43 33 80 87 80c56 0 88 -37 88 -80v-1c0 -42 -32 -80 -87 -80zM465 610c-55 0 -88 38 -88 80v1c0 43 33 80 87 80c56 0 88 -37 88 -80v-1c0 -42 -32 -80 -87 -80zM597 540v-540h-145v76c-51 -53 -108 -92 -191 -92
c-110 0 -187 63 -187 199v357h147v-326c0 -80 43 -100 92 -100c53 0 99 26 137 61v365h147z" />
    <glyph glyph-name="udieresis.sc" horiz-adv-x="778" 
d="M262 666c-55 0 -88 38 -88 80v1c0 43 33 80 87 80c56 0 88 -37 88 -80v-1c0 -42 -32 -80 -87 -80zM518 666c-55 0 -88 38 -88 80v1c0 43 33 80 87 80c56 0 88 -37 88 -80v-1c0 -42 -32 -80 -87 -80zM387 -14c-163 0 -293 67 -293 246v364h147v-357
c0 -93 74 -123 148 -123s148 28 148 118v362h147v-359c0 -184 -134 -251 -297 -251z" />
    <glyph glyph-name="Ugrave" unicode="&#xd9;" horiz-adv-x="864" 
d="M523 754h-136l-175 156v8h190zM430 -16c-188 0 -333 78 -333 286v430h154v-423c0 -114 87 -151 181 -151s181 35 181 146v428h154v-425c0 -214 -149 -291 -337 -291z" />
    <glyph glyph-name="ugrave" unicode="&#xf9;" horiz-adv-x="677" 
d="M427 602h-136l-175 156v8h190zM597 540v-540h-145v76c-51 -53 -108 -92 -191 -92c-110 0 -187 63 -187 199v357h147v-326c0 -80 43 -100 92 -100c53 0 99 26 137 61v365h147z" />
    <glyph glyph-name="ugrave.sc" horiz-adv-x="778" 
d="M480 650h-136l-175 156v8h190zM387 -14c-163 0 -293 67 -293 246v364h147v-357c0 -93 74 -123 148 -123s148 28 148 118v362h147v-359c0 -184 -134 -251 -297 -251z" />
    <glyph glyph-name="Uhungarumlaut" unicode="&#x170;" horiz-adv-x="864" 
d="M483 778l106 164h166v-8l-162 -156h-110zM258 778l106 164h166v-8l-162 -156h-110zM430 -16c-188 0 -333 78 -333 286v430h154v-423c0 -114 87 -151 181 -151s181 35 181 146v428h154v-425c0 -214 -149 -291 -337 -291z" />
    <glyph glyph-name="uhungarumlaut" unicode="&#x171;" horiz-adv-x="677" 
d="M387 618l106 164h166v-8l-162 -156h-110zM162 618l106 164h166v-8l-162 -156h-110zM597 540v-540h-145v76c-51 -53 -108 -92 -191 -92c-110 0 -187 63 -187 199v357h147v-326c0 -80 43 -100 92 -100c53 0 99 26 137 61v365h147z" />
    <glyph glyph-name="uhungarumlaut.sc" horiz-adv-x="778" 
d="M440 674l106 164h166v-8l-162 -156h-110zM215 674l106 164h166v-8l-162 -156h-110zM387 -14c-163 0 -293 67 -293 246v364h147v-357c0 -93 74 -123 148 -123s148 28 148 118v362h147v-359c0 -184 -134 -251 -297 -251z" />
    <glyph glyph-name="Umacron" unicode="&#x16a;" horiz-adv-x="864" 
d="M240 793v112h384v-112h-384zM430 -16c-188 0 -333 78 -333 286v430h154v-423c0 -114 87 -151 181 -151s181 35 181 146v428h154v-425c0 -214 -149 -291 -337 -291z" />
    <glyph glyph-name="umacron" unicode="&#x16b;" horiz-adv-x="677" 
d="M144 633v112h384v-112h-384zM597 540v-540h-145v76c-51 -53 -108 -92 -191 -92c-110 0 -187 63 -187 199v357h147v-326c0 -80 43 -100 92 -100c53 0 99 26 137 61v365h147z" />
    <glyph glyph-name="umacron.sc" horiz-adv-x="778" 
d="M197 689v112h384v-112h-384zM387 -14c-163 0 -293 67 -293 246v364h147v-357c0 -93 74 -123 148 -123s148 28 148 118v362h147v-359c0 -184 -134 -251 -297 -251z" />
    <glyph glyph-name="Uogonek" unicode="&#x172;" horiz-adv-x="864" 
d="M561 -276c-39 -12 -67 -17 -109 -17c-144 0 -166 73 -166 119c0 57 39 105 102 159c-167 12 -291 93 -291 285v430h154v-423c0 -114 87 -151 181 -151s181 35 181 146v428h154v-425c0 -167 -91 -251 -220 -279l-55 -52c-49 -47 -71 -66 -71 -91c0 -22 17 -37 61 -37
c18 0 47 4 79 18v-110z" />
    <glyph glyph-name="uogonek" unicode="&#x173;" horiz-adv-x="677" 
d="M597 540v-540l-55 -52c-49 -47 -71 -66 -71 -91c0 -22 17 -37 61 -37c18 0 47 4 79 18v-110c-39 -12 -67 -17 -109 -17c-144 0 -166 73 -166 119c0 61 44 111 114 170l2 2v74c-51 -53 -108 -92 -191 -92c-110 0 -187 63 -187 199v357h147v-326c0 -80 43 -100 92 -100
c53 0 99 26 137 61v365h147z" />
    <glyph glyph-name="uogonek.sc" horiz-adv-x="778" 
d="M505 -275c-39 -12 -67 -17 -109 -17c-144 0 -166 73 -166 119c0 58 40 106 104 162c-137 13 -240 84 -240 243v364h147v-357c0 -93 74 -123 148 -123s148 28 148 118v362h147v-359c0 -143 -81 -215 -193 -240l-55 -52c-49 -47 -71 -66 -71 -91c0 -22 17 -37 61 -37
c18 0 47 4 79 18v-110z" />
    <glyph glyph-name="Uring" unicode="&#x16e;" horiz-adv-x="864" 
d="M431 746c-110 0 -175 55 -175 149s65 152 176 152c110 0 177 -56 177 -151c0 -93 -68 -150 -178 -150zM432 832c46 0 74 24 74 64s-29 65 -75 65c-45 0 -75 -24 -75 -65c0 -39 30 -64 76 -64zM430 -16c-188 0 -333 78 -333 286v430h154v-423c0 -114 87 -151 181 -151
s181 35 181 146v428h154v-425c0 -214 -149 -291 -337 -291z" />
    <glyph glyph-name="uring" unicode="&#x16f;" horiz-adv-x="677" 
d="M335 594c-110 0 -175 55 -175 149s65 152 176 152c110 0 177 -56 177 -151c0 -93 -68 -150 -178 -150zM336 680c46 0 74 24 74 64s-29 65 -75 65c-45 0 -75 -24 -75 -65c0 -39 30 -64 76 -64zM597 540v-540h-145v76c-51 -53 -108 -92 -191 -92c-110 0 -187 63 -187 199
v357h147v-326c0 -80 43 -100 92 -100c53 0 99 26 137 61v365h147z" />
    <glyph glyph-name="uring.sc" horiz-adv-x="778" 
d="M388 642c-110 0 -175 55 -175 149s65 152 176 152c110 0 177 -56 177 -151c0 -93 -68 -150 -178 -150zM389 728c46 0 74 24 74 64s-29 65 -75 65c-45 0 -75 -24 -75 -65c0 -39 30 -64 76 -64zM387 -14c-163 0 -293 67 -293 246v364h147v-357c0 -93 74 -123 148 -123
s148 28 148 118v362h147v-359c0 -184 -134 -251 -297 -251z" />
    <glyph glyph-name="Wacute" unicode="&#x1e82;" horiz-adv-x="1213" 
d="M546 778l121 164h190v-8l-175 -156h-136zM238 0l-195 700h163l141 -547h12l178 547h150l175 -547h12l137 547h159l-194 -700h-211l-153 481h-6l-155 -481h-213z" />
    <glyph glyph-name="wacute" unicode="&#x1e83;" horiz-adv-x="991" 
d="M431 618l121 164h190v-8l-175 -156h-136zM191 0l-162 540h155l103 -405h16l112 399h165l115 -399h16l102 405h149l-164 -540h-199l-95 361h-16l-98 -361h-199z" />
    <glyph glyph-name="wacute.sc" horiz-adv-x="1057" 
d="M467 674l121 164h190v-8l-175 -156h-136zM223 0l-177 596h158l110 -421h8l153 421h118l151 -421h7l111 421h149l-175 -596h-161l-143 396h-2l-144 -396h-163z" />
    <glyph glyph-name="Wcircumflex" unicode="&#x174;" horiz-adv-x="1213" 
d="M376 778l137 180h188l137 -180h-151l-62 82h-36l-62 -82h-151zM238 0l-195 700h163l141 -547h12l178 547h150l175 -547h12l137 547h159l-194 -700h-211l-153 481h-6l-155 -481h-213z" />
    <glyph glyph-name="wcircumflex" unicode="&#x175;" horiz-adv-x="991" 
d="M267 618l137 180h188l137 -180h-151l-62 82h-36l-62 -82h-151zM191 0l-162 540h155l103 -405h16l112 399h165l115 -399h16l102 405h149l-164 -540h-199l-95 361h-16l-98 -361h-199z" />
    <glyph glyph-name="wcircumflex.sc" horiz-adv-x="1057" 
d="M298 674l137 180h188l137 -180h-151l-62 82h-36l-62 -82h-151zM223 0l-177 596h158l110 -421h8l153 421h118l151 -421h7l111 421h149l-175 -596h-161l-143 396h-2l-144 -396h-163z" />
    <glyph glyph-name="Wdieresis" unicode="&#x1e84;" horiz-adv-x="1213" 
d="M480 770c-55 0 -88 38 -88 80v1c0 43 33 80 87 80c56 0 88 -37 88 -80v-1c0 -42 -32 -80 -87 -80zM736 770c-55 0 -88 38 -88 80v1c0 43 33 80 87 80c56 0 88 -37 88 -80v-1c0 -42 -32 -80 -87 -80zM238 0l-195 700h163l141 -547h12l178 547h150l175 -547h12l137 547h159
l-194 -700h-211l-153 481h-6l-155 -481h-213z" />
    <glyph glyph-name="wdieresis" unicode="&#x1e85;" horiz-adv-x="991" 
d="M371 610c-55 0 -88 38 -88 80v1c0 43 33 80 87 80c56 0 88 -37 88 -80v-1c0 -42 -32 -80 -87 -80zM627 610c-55 0 -88 38 -88 80v1c0 43 33 80 87 80c56 0 88 -37 88 -80v-1c0 -42 -32 -80 -87 -80zM191 0l-162 540h155l103 -405h16l112 399h165l115 -399h16l102 405h149
l-164 -540h-199l-95 361h-16l-98 -361h-199z" />
    <glyph glyph-name="wdieresis.sc" horiz-adv-x="1057" 
d="M402 666c-55 0 -88 38 -88 80v1c0 43 33 80 87 80c56 0 88 -37 88 -80v-1c0 -42 -32 -80 -87 -80zM658 666c-55 0 -88 38 -88 80v1c0 43 33 80 87 80c56 0 88 -37 88 -80v-1c0 -42 -32 -80 -87 -80zM223 0l-177 596h158l110 -421h8l153 421h118l151 -421h7l111 421h149
l-175 -596h-161l-143 396h-2l-144 -396h-163z" />
    <glyph glyph-name="Wgrave" unicode="&#x1e80;" horiz-adv-x="1213" 
d="M681 778h-136l-175 156v8h190zM238 0l-195 700h163l141 -547h12l178 547h150l175 -547h12l137 547h159l-194 -700h-211l-153 481h-6l-155 -481h-213z" />
    <glyph glyph-name="wgrave" unicode="&#x1e81;" horiz-adv-x="991" 
d="M566 618h-136l-175 156v8h190zM191 0l-162 540h155l103 -405h16l112 399h165l115 -399h16l102 405h149l-164 -540h-199l-95 361h-16l-98 -361h-199z" />
    <glyph glyph-name="wgrave.sc" horiz-adv-x="1057" 
d="M602 674h-136l-175 156v8h190zM223 0l-177 596h158l110 -421h8l153 421h118l151 -421h7l111 421h149l-175 -596h-161l-143 396h-2l-144 -396h-163z" />
    <glyph glyph-name="Yacute" unicode="&#xdd;" horiz-adv-x="806" 
d="M312 754l121 164h190v-8l-175 -156h-136zM326 0v242l-314 458h180l206 -309h12l210 309h174l-314 -455v-245h-154z" />
    <glyph glyph-name="yacute" unicode="&#xfd;" horiz-adv-x="628" 
d="M229 602l121 164h190v-8l-175 -156h-136zM183 -198l63 178l-227 560h156l151 -394l138 394h150l-285 -738h-146z" />
    <glyph glyph-name="yacute.sc" horiz-adv-x="729" 
d="M275 650l121 164h190v-8l-175 -156h-136zM292 0v198l-274 397v1h169l174 -264h11l176 264h163v-1l-272 -394v-201h-147z" />
    <glyph glyph-name="Ycircumflex" unicode="&#x176;" horiz-adv-x="806" 
d="M172 778l137 180h188l137 -180h-151l-62 82h-36l-62 -82h-151zM326 0v242l-314 458h180l206 -309h12l210 309h174l-314 -455v-245h-154z" />
    <glyph glyph-name="ycircumflex" unicode="&#x177;" horiz-adv-x="628" 
d="M89 618l137 180h188l137 -180h-151l-62 82h-36l-62 -82h-151zM183 -198l63 178l-227 560h156l151 -394l138 394h150l-285 -738h-146z" />
    <glyph glyph-name="ycircumflex.sc" horiz-adv-x="729" 
d="M135 674l137 180h188l137 -180h-151l-62 82h-36l-62 -82h-151zM292 0v198l-274 397v1h169l174 -264h11l176 264h163v-1l-272 -394v-201h-147z" />
    <glyph glyph-name="Ydieresis" unicode="&#x178;" horiz-adv-x="806" 
d="M276 770c-55 0 -88 38 -88 80v1c0 43 33 80 87 80c56 0 88 -37 88 -80v-1c0 -42 -32 -80 -87 -80zM532 770c-55 0 -88 38 -88 80v1c0 43 33 80 87 80c56 0 88 -37 88 -80v-1c0 -42 -32 -80 -87 -80zM326 0v242l-314 458h180l206 -309h12l210 309h174l-314 -455v-245h-154
z" />
    <glyph glyph-name="ydieresis" unicode="&#xff;" horiz-adv-x="628" 
d="M193 610c-55 0 -88 38 -88 80v1c0 43 33 80 87 80c56 0 88 -37 88 -80v-1c0 -42 -32 -80 -87 -80zM449 610c-55 0 -88 38 -88 80v1c0 43 33 80 87 80c56 0 88 -37 88 -80v-1c0 -42 -32 -80 -87 -80zM183 -198l63 178l-227 560h156l151 -394l138 394h150l-285 -738h-146z
" />
    <glyph glyph-name="ydieresis.sc" horiz-adv-x="729" 
d="M239 666c-55 0 -88 38 -88 80v1c0 43 33 80 87 80c56 0 88 -37 88 -80v-1c0 -42 -32 -80 -87 -80zM495 666c-55 0 -88 38 -88 80v1c0 43 33 80 87 80c56 0 88 -37 88 -80v-1c0 -42 -32 -80 -87 -80zM292 0v198l-274 397v1h169l174 -264h11l176 264h163v-1l-272 -394v-201
h-147z" />
    <glyph glyph-name="Ygrave" unicode="&#x1ef2;" horiz-adv-x="806" 
d="M494 754h-136l-175 156v8h190zM326 0v242l-314 458h180l206 -309h12l210 309h174l-314 -455v-245h-154z" />
    <glyph glyph-name="ygrave" unicode="&#x1ef3;" horiz-adv-x="628" 
d="M411 602h-136l-175 156v8h190zM183 -198l63 178l-227 560h156l151 -394l138 394h150l-285 -738h-146z" />
    <glyph glyph-name="ygrave.sc" horiz-adv-x="729" 
d="M457 650h-136l-175 156v8h190zM292 0v198l-274 397v1h169l174 -264h11l176 264h163v-1l-272 -394v-201h-147z" />
    <glyph glyph-name="Zacute" unicode="&#x179;" horiz-adv-x="774" 
d="M302 778l121 164h190v-8l-175 -156h-136zM72 0v149l430 412h-418l5 139h617v-134l-444 -427h444v-139h-634z" />
    <glyph glyph-name="zacute" unicode="&#x17a;" horiz-adv-x="606" 
d="M223 618l121 164h190v-8l-175 -156h-136zM63 0v115l299 303h-290l4 122h473v-108l-310 -310h310v-122h-486z" />
    <glyph glyph-name="zacute.sc" horiz-adv-x="726" 
d="M278 674l121 164h190v-8l-175 -156h-136zM80 0v137l373 332h-363l5 127h555v-123l-386 -346h386v-127h-570z" />
    <glyph glyph-name="Zcaron" unicode="&#x17d;" horiz-adv-x="774" 
d="M624 958l-137 -180h-188l-137 180h151l62 -82h36l62 82h151zM72 0v149l430 412h-418l5 139h617v-134l-444 -427h444v-139h-634z" />
    <glyph glyph-name="zcaron" unicode="&#x17e;" horiz-adv-x="606" 
d="M545 798l-137 -180h-188l-137 180h151l62 -82h36l62 82h151zM63 0v115l299 303h-290l4 122h473v-108l-310 -310h310v-122h-486z" />
    <glyph glyph-name="zcaron.sc" horiz-adv-x="726" 
d="M600 854l-137 -180h-188l-137 180h151l62 -82h36l62 82h151zM80 0v137l373 332h-363l5 127h555v-123l-386 -346h386v-127h-570z" />
    <glyph glyph-name="Zdotaccent" unicode="&#x17b;" horiz-adv-x="774" 
d="M394 770c-59 0 -94 40 -94 85v1c0 46 35 85 93 85c59 0 94 -39 94 -85v-1c0 -45 -35 -85 -93 -85zM72 0v149l430 412h-418l5 139h617v-134l-444 -427h444v-139h-634z" />
    <glyph glyph-name="zdotaccent" unicode="&#x17c;" horiz-adv-x="606" 
d="M315 610c-59 0 -94 40 -94 85v1c0 46 35 85 93 85c59 0 94 -39 94 -85v-1c0 -45 -35 -85 -93 -85zM63 0v115l299 303h-290l4 122h473v-108l-310 -310h310v-122h-486z" />
    <glyph glyph-name="zdotaccent.sc" horiz-adv-x="726" 
d="M370 666c-59 0 -94 40 -94 85v1c0 46 35 85 93 85c59 0 94 -39 94 -85v-1c0 -45 -35 -85 -93 -85zM80 0v137l373 332h-363l5 127h555v-123l-386 -346h386v-127h-570z" />
    <glyph glyph-name="Thorn" unicode="&#xde;" horiz-adv-x="782" 
d="M102 0v700h154v-98h214c177 0 265 -96 265 -246c0 -172 -113 -254 -280 -254h-199v-102h-154zM256 241h202c87 0 121 49 121 111c0 70 -37 111 -124 111h-199v-222z" />
    <glyph glyph-name="thorn" unicode="&#xfe;" horiz-adv-x="695" 
d="M80 -198v956h145v-281c39 43 97 79 176 79c134 0 246 -100 246 -275c0 -173 -130 -297 -295 -297c-52 0 -90 10 -125 27v-209h-147zM339 109c99 0 161 64 161 164c0 106 -63 158 -149 158c-46 0 -93 -20 -124 -46v-240c34 -22 68 -36 112 -36z" />
    <glyph glyph-name="thorn.sc" horiz-adv-x="719" 
d="M104 0v596h147v-81h198c148 0 224 -83 224 -213c0 -149 -101 -219 -239 -219h-183v-83h-147zM251 209h185c64 0 89 42 89 89c0 57 -28 91 -92 91h-182v-180z" />
    <glyph glyph-name="uni0259" unicode="&#x259;" horiz-adv-x="647" 
d="M310 -16c-179 0 -264 123 -264 283c0 16 1 32 3 48h402c-14 77 -72 118 -167 118c-80 0 -143 -25 -204 -61h-1v129c46 27 119 55 211 55c211 0 309 -119 309 -274c0 -169 -112 -298 -289 -298zM313 105c71 0 119 41 135 112h-263c6 -70 53 -112 128 -112z" />
    <glyph glyph-name="zero" unicode="0" horiz-adv-x="774" 
d="M386 -16c-230 0 -334 160 -334 364s106 368 336 368c220 0 334 -160 334 -364s-116 -368 -336 -368zM388 117c118 0 181 84 181 232s-65 234 -183 234s-181 -84 -181 -232s65 -234 183 -234z" />
    <glyph glyph-name="one" unicode="1" horiz-adv-x="462" 
d="M182 0v571h-130l20 129h258v-700h-148z" />
    <glyph glyph-name="one.alt" horiz-adv-x="412" 
d="M132 700h148v-700h-148v700z" />
    <glyph glyph-name="two" unicode="2" horiz-adv-x="672" 
d="M54 0v135l215 161c131 98 189 137 189 202c0 51 -34 85 -106 85c-76 0 -163 -29 -267 -117h-1v152c95 77 192 98 270 98c169 0 260 -85 260 -206c0 -118 -74 -174 -229 -288l-122 -89h351v-133h-560z" />
    <glyph glyph-name="two.alt" horiz-adv-x="689" 
d="M368 716c158 0 263 -74 263 -199c0 -121 -85 -161 -230 -229c-107 -50 -175 -85 -175 -155h398v-133h-566v43c0 195 91 269 262 349c120 56 155 75 155 119c0 57 -50 72 -112 72c-84 0 -184 -38 -264 -90h-1v147c92 52 182 76 270 76z" />
    <glyph glyph-name="three" unicode="3" horiz-adv-x="688" 
d="M328 -16c-100 0 -194 24 -268 53v143h1c92 -42 205 -65 262 -65c90 0 154 32 154 96c0 70 -84 93 -248 93h-34v80l210 183h-336l5 133h534v-120l-211 -175c140 -17 236 -71 236 -191c0 -147 -138 -230 -305 -230z" />
    <glyph glyph-name="three.alt" horiz-adv-x="693" 
d="M633 195c0 -132 -138 -211 -305 -211c-100 0 -194 18 -268 47v143h1c92 -42 205 -59 262 -59c90 0 154 27 154 91c0 63 -67 84 -197 84h-60v125h60c137 0 197 32 197 89c0 59 -46 81 -135 81c-82 0 -161 -22 -253 -64h-1v143c74 29 163 52 266 52c161 0 270 -73 270 -193
c0 -71 -42 -139 -148 -165v-2c127 -22 157 -96 157 -161z" />
    <glyph glyph-name="four" unicode="4" horiz-adv-x="757" 
d="M449 0v155h-407v113l267 432h282v-418h129l-5 -127h-124v-155h-142zM449 567h-67l-174 -285h241v285z" />
    <glyph glyph-name="five" unicode="5" horiz-adv-x="689" 
d="M339 -16c-75 0 -177 14 -267 44v143h1c101 -38 195 -55 261 -55c112 0 147 57 147 100c0 21 -5 36 -19 50c-25 25 -72 39 -251 39h-119l10 395h487l5 -133h-357l-4 -131h28c178 0 272 -20 332 -82c33 -35 47 -79 47 -134c0 -124 -110 -236 -301 -236z" />
    <glyph glyph-name="six" unicode="6" horiz-adv-x="707" 
d="M365 -16c-183 0 -313 115 -313 351c0 257 166 381 356 381c62 0 140 -14 214 -47v-137h-1c-83 35 -133 55 -208 55c-108 0 -199 -51 -211 -190c59 43 133 63 204 63c146 0 259 -68 259 -215c0 -160 -132 -261 -300 -261zM371 338c-57 0 -111 -17 -169 -55
c6 -130 87 -172 172 -172c72 0 142 40 142 124s-79 103 -145 103z" />
    <glyph glyph-name="seven" unicode="7" horiz-adv-x="681" 
d="M52 453v247h587v-191l-323 -509h-168l342 540v30h-298v-117h-140z" />
    <glyph glyph-name="seven.alt" horiz-adv-x="681" 
d="M182 0c66 280 178 400 308 540v30h-298v-117h-140v247h587v-208c-137 -135 -258 -252 -307 -492h-150z" />
    <glyph glyph-name="eight" unicode="8" horiz-adv-x="744" 
d="M373 -24c-214 0 -313 82 -313 204c0 86 46 139 136 173c-73 28 -120 76 -120 157c0 114 89 210 297 210c206 0 295 -97 295 -210c0 -81 -47 -129 -120 -157c90 -34 136 -87 136 -173c0 -122 -95 -204 -311 -204zM373 406c83 0 143 28 143 96c0 60 -51 96 -143 96
c-95 0 -145 -34 -145 -96c0 -68 61 -96 145 -96zM373 98c103 0 156 36 156 99c0 66 -63 100 -156 100c-96 0 -158 -31 -158 -99c0 -64 53 -100 158 -100z" />
    <glyph glyph-name="nine" unicode="9" horiz-adv-x="707" 
d="M342 716c183 0 313 -115 313 -351c0 -257 -166 -381 -356 -381c-62 0 -140 14 -214 47v137h1c83 -35 133 -55 208 -55c108 0 199 51 211 190c-59 -43 -133 -63 -204 -63c-146 0 -259 68 -259 215c0 160 132 261 300 261zM191 465c0 -84 79 -103 145 -103
c57 0 111 17 169 55c-6 130 -87 172 -172 172c-72 0 -142 -40 -142 -124z" />
    <glyph glyph-name="zero.osf" horiz-adv-x="744" 
d="M371 -20c-187 0 -315 119 -315 315c0 197 130 319 317 319s315 -118 315 -315c0 -196 -130 -319 -317 -319zM373 106c96 0 167 64 167 190c0 127 -73 192 -169 192s-167 -63 -167 -190c0 -126 73 -192 169 -192z" />
    <glyph glyph-name="one.osf" horiz-adv-x="462" 
d="M183 0v468h-130l20 128h257v-596h-147z" />
    <glyph glyph-name="two.osf" horiz-adv-x="654" 
d="M68 0v133l186 116c167 104 177 135 177 167c0 48 -44 64 -91 64c-69 0 -156 -33 -241 -83h-1v147c82 40 151 66 256 66c132 0 228 -70 228 -181c0 -104 -77 -166 -248 -265l-62 -36h320v-128h-524z" />
    <glyph glyph-name="three.osf" horiz-adv-x="624" 
d="M286 -120c-74 0 -147 9 -221 33v135h1c88 -32 155 -42 215 -42c81 0 145 26 145 95c0 62 -84 94 -249 94h-20v81l228 192h-323l5 128h484v-141l-199 -163c140 -23 222 -81 222 -193c0 -142 -136 -219 -288 -219z" />
    <glyph glyph-name="four.osf" horiz-adv-x="710" 
d="M427 -104v150h-379v109l233 441h282v-429h121l-5 -121h-116v-150h-136zM203 167h224v299h-69z" />
    <glyph glyph-name="five.osf" horiz-adv-x="619" 
d="M286 -120c-41 0 -128 8 -218 29v133h1c101 -29 180 -35 216 -35c107 0 143 55 143 103c0 24 -6 41 -20 55c-27 27 -80 39 -244 39h-79l6 392h444l5 -128h-319l-2 -141l58 -2c199 -5 300 -69 300 -214c0 -127 -106 -231 -291 -231z" />
    <glyph glyph-name="six.osf" horiz-adv-x="688" 
d="M355 -16c-175 0 -299 105 -299 341c0 247 151 391 361 391c47 0 109 -4 176 -27v-130h-1c-76 25 -114 31 -165 31c-131 0 -207 -74 -224 -185c59 36 126 54 190 54c126 0 241 -67 241 -213c0 -162 -124 -262 -279 -262zM355 340c-47 0 -97 -12 -155 -46
c2 -151 81 -184 161 -184c61 0 129 40 129 126s-81 104 -135 104z" />
    <glyph glyph-name="seven.osf" horiz-adv-x="649" 
d="M603 596v-176l-298 -524h-162l311 545v30h-255v-114h-135v239h539z" />
    <glyph glyph-name="eight.osf" horiz-adv-x="690" 
d="M346 -24c-191 0 -290 83 -290 205c0 84 46 137 119 172c-56 29 -103 77 -103 157c0 114 89 210 274 210c183 0 272 -97 272 -210c0 -80 -47 -128 -103 -157c73 -35 119 -88 119 -172c0 -122 -95 -205 -288 -205zM346 404c66 0 126 28 126 98c0 64 -51 100 -126 100
c-78 0 -128 -34 -128 -100c0 -70 59 -98 128 -98zM346 94c84 0 139 36 139 103c0 68 -63 102 -139 102c-81 0 -141 -31 -141 -101c0 -68 53 -104 141 -104z" />
    <glyph glyph-name="nine.osf" horiz-adv-x="688" 
d="M333 610c175 0 299 -105 299 -341c0 -247 -151 -391 -361 -391c-47 0 -109 4 -176 27v130h1c76 -25 114 -31 165 -31c131 0 207 74 224 185c-59 -36 -126 -54 -190 -54c-126 0 -241 67 -241 213c0 162 124 262 279 262zM198 358c0 -86 81 -104 135 -104
c47 0 97 12 155 46c-2 151 -81 184 -161 184c-61 0 -129 -40 -129 -126z" />
    <glyph glyph-name="period" unicode="." horiz-adv-x="417" 
d="M209 -11c-72 0 -109 49 -109 102v2c0 53 37 101 109 101c70 0 108 -48 108 -101v-2c0 -53 -38 -102 -108 -102z" />
    <glyph glyph-name="comma" unicode="," horiz-adv-x="380" 
d="M71 -139l42 325h201v-15l-163 -310h-80z" />
    <glyph glyph-name="colon" unicode=":" horiz-adv-x="417" 
d="M209 343c-72 0 -109 49 -109 102v2c0 53 37 101 109 101c70 0 108 -48 108 -101v-2c0 -53 -38 -102 -108 -102zM209 -11c-72 0 -109 49 -109 102v2c0 53 37 101 109 101c70 0 108 -48 108 -101v-2c0 -53 -38 -102 -108 -102z" />
    <glyph glyph-name="colon.fig" horiz-adv-x="417" 
d="M209 424c-72 0 -109 49 -109 102v2c0 53 37 101 109 101c70 0 108 -48 108 -101v-2c0 -53 -38 -102 -108 -102zM209 70c-72 0 -109 49 -109 102v2c0 53 37 101 109 101c70 0 108 -48 108 -101v-2c0 -53 -38 -102 -108 -102z" />
    <glyph glyph-name="semicolon" unicode=";" horiz-adv-x="417" 
d="M209 343c-72 0 -109 49 -109 102v2c0 53 37 101 109 101c70 0 108 -48 108 -101v-2c0 -53 -38 -102 -108 -102zM71 -139l42 325h201v-15l-163 -310h-80z" />
    <glyph glyph-name="ellipsis" unicode="&#x2026;" horiz-adv-x="1251" 
d="M209 -11c-72 0 -109 49 -109 102v2c0 53 37 101 109 101c70 0 108 -48 108 -101v-2c0 -53 -38 -102 -108 -102zM626 -11c-72 0 -109 49 -109 102v2c0 53 37 101 109 101c70 0 108 -48 108 -101v-2c0 -53 -38 -102 -108 -102zM1043 -11c-72 0 -109 49 -109 102v2
c0 53 37 101 109 101c70 0 108 -48 108 -101v-2c0 -53 -38 -102 -108 -102z" />
    <glyph glyph-name="periodcentered" unicode="&#xb7;" horiz-adv-x="417" 
d="M209 219c-72 0 -109 49 -109 102v2c0 53 37 101 109 101c70 0 108 -48 108 -101v-2c0 -53 -38 -102 -108 -102z" />
    <glyph glyph-name="periodcentered.cap" horiz-adv-x="417" 
d="M209 247c-72 0 -109 49 -109 102v2c0 53 37 101 109 101c70 0 108 -48 108 -101v-2c0 -53 -38 -102 -108 -102z" />
    <glyph glyph-name="ampersand" unicode="&#x26;" horiz-adv-x="844" 
d="M281 -16c-134 0 -223 66 -223 186c0 101 81 176 218 252l2 1l-114 128v149h499l5 -127h-331l251 -285l185 172h1v-169l-109 -96l172 -195h-182l-91 101c-93 -73 -172 -117 -283 -117zM210 183c0 -39 31 -69 86 -69c52 0 104 18 187 81l-122 136
c-107 -64 -151 -98 -151 -148z" />
    <glyph glyph-name="ampersand.sc" horiz-adv-x="821" 
d="M271 -16c-121 0 -199 60 -199 158c0 93 59 142 169 213l14 9l-97 94v138h480l4 -117h-320l232 -226l182 149h1v-153l-101 -82l171 -167h-177l-93 88c-95 -67 -172 -104 -266 -104zM218 159c0 -35 27 -53 64 -53c40 0 86 12 169 70l-111 107l-8 -5
c-89 -55 -114 -83 -114 -119z" />
    <glyph glyph-name="exclam" unicode="!" horiz-adv-x="417" 
d="M152 270l-43 427v3h199v-3l-43 -427h-113zM209 -11c-72 0 -109 49 -109 102v2c0 53 37 101 109 101c70 0 108 -48 108 -101v-2c0 -53 -38 -102 -108 -102z" />
    <glyph glyph-name="exclamdown" unicode="&#xa1;" horiz-adv-x="417" 
d="M208 556c72 0 109 -49 109 -102v-2c0 -53 -37 -101 -109 -101c-70 0 -108 48 -108 101v2c0 53 38 102 108 102zM265 275l43 -427v-3h-199v3l43 427h113z" />
    <glyph glyph-name="exclamdown.cap" horiz-adv-x="417" 
d="M208 711c72 0 109 -49 109 -102v-2c0 -53 -37 -101 -109 -101c-70 0 -108 48 -108 101v2c0 53 38 102 108 102zM265 430l43 -427v-3h-199v3l43 427h113z" />
    <glyph glyph-name="question" unicode="?" horiz-adv-x="619" 
d="M64 647c72 37 159 69 275 69c136 0 264 -57 264 -190c0 -126 -101 -202 -389 -260h-1v130c211 50 237 90 237 125c0 50 -53 65 -120 65c-91 0 -184 -35 -265 -87h-1v148zM279 -11c-72 0 -109 49 -109 102v2c0 53 37 101 109 101c70 0 108 -48 108 -101v-2
c0 -53 -38 -102 -108 -102z" />
    <glyph glyph-name="questiondown" unicode="&#xbf;" horiz-adv-x="619" 
d="M340 556c72 0 109 -49 109 -102v-2c0 -53 -37 -101 -109 -101c-70 0 -108 48 -108 101v2c0 53 38 102 108 102zM555 -102c-72 -37 -159 -69 -275 -69c-136 0 -264 57 -264 190c0 126 101 202 389 260h1v-130c-211 -50 -237 -90 -237 -125c0 -50 53 -65 120 -65
c91 0 184 35 265 87h1v-148z" />
    <glyph glyph-name="questiondown.cap" horiz-adv-x="619" 
d="M340 711c72 0 109 -49 109 -102v-2c0 -53 -37 -101 -109 -101c-70 0 -108 48 -108 101v2c0 53 38 102 108 102zM555 53c-72 -37 -159 -69 -275 -69c-136 0 -264 57 -264 190c0 126 101 202 389 260h1v-130c-211 -50 -237 -90 -237 -125c0 -50 53 -65 120 -65
c91 0 184 35 265 87h1v-148z" />
    <glyph glyph-name="quotedblleft" unicode="&#x201c;" horiz-adv-x="646" 
d="M66 395v15l141 290h79l-39 -305h-181zM336 395v15l141 290h79l-39 -305h-181z" />
    <glyph glyph-name="quotedblright" unicode="&#x201d;" horiz-adv-x="646" 
d="M90 395l39 305h181v-15l-141 -290h-79zM360 395l39 305h181v-15l-141 -290h-79z" />
    <glyph glyph-name="quoteleft" unicode="&#x2018;" horiz-adv-x="381" 
d="M66 395v15l146 290h79l-39 -305h-186z" />
    <glyph glyph-name="quoteright" unicode="&#x2019;" horiz-adv-x="381" 
d="M90 395l39 305h186v-15l-146 -290h-79z" />
    <glyph glyph-name="quotedblbase" unicode="&#x201e;" horiz-adv-x="627" 
d="M71 -119l39 305h181v-15l-141 -290h-79zM341 -119l39 305h181v-15l-141 -290h-79z" />
    <glyph glyph-name="quotesinglbase" unicode="&#x201a;" horiz-adv-x="362" 
d="M71 -119l39 305h186v-15l-146 -290h-79z" />
    <glyph glyph-name="guillemotleft" unicode="&#xab;" horiz-adv-x="752" 
d="M393 499l-187 -229l187 -229h-165l-188 225v8l188 225h165zM702 499l-187 -229l187 -229h-165l-188 225v8l188 225h165z" />
    <glyph glyph-name="guillemotleft.cap" horiz-adv-x="752" 
d="M393 579l-187 -229l187 -229h-165l-188 225v8l188 225h165zM702 579l-187 -229l187 -229h-165l-188 225v8l188 225h165z" />
    <glyph glyph-name="guillemotright" unicode="&#xbb;" horiz-adv-x="752" 
d="M359 41l187 229l-187 229h165l188 -225v-8l-188 -225h-165zM50 41l187 229l-187 229h165l188 -225v-8l-188 -225h-165z" />
    <glyph glyph-name="guillemotright.cap" horiz-adv-x="752" 
d="M359 121l187 229l-187 229h165l188 -225v-8l-188 -225h-165zM50 121l187 229l-187 229h165l188 -225v-8l-188 -225h-165z" />
    <glyph glyph-name="guilsinglleft" unicode="&#x2039;" horiz-adv-x="447" 
d="M397 41h-169l-188 225v8l188 225h169l-187 -229z" />
    <glyph glyph-name="guilsinglleft.cap" horiz-adv-x="447" 
d="M397 121h-169l-188 225v8l188 225h169l-187 -229z" />
    <glyph glyph-name="guilsinglright" unicode="&#x203a;" horiz-adv-x="447" 
d="M50 499h169l188 -225v-8l-188 -225h-169l187 229z" />
    <glyph glyph-name="guilsinglright.cap" horiz-adv-x="447" 
d="M50 579h169l188 -225v-8l-188 -225h-169l187 229z" />
    <glyph glyph-name="hyphen" unicode="-" horiz-adv-x="444" 
d="M60 251v142h324v-142h-324z" />
    <glyph glyph-name="hyphen.cap" horiz-adv-x="444" 
d="M60 279v142h324v-142h-324z" />
    <glyph glyph-name="endash" unicode="&#x2013;" horiz-adv-x="712" 
d="M84 253v138h544v-138h-544z" />
    <glyph glyph-name="endash.cap" horiz-adv-x="712" 
d="M84 281v138h544v-138h-544z" />
    <glyph glyph-name="emdash" unicode="&#x2014;" horiz-adv-x="862" 
d="M84 253v138h694v-138h-694z" />
    <glyph glyph-name="emdash.cap" horiz-adv-x="862" 
d="M84 281v138h694v-138h-694z" />
    <glyph glyph-name="underscore" unicode="_" horiz-adv-x="712" 
d="M-6 -198v123h724v-123h-724z" />
    <glyph glyph-name="slash" unicode="/" horiz-adv-x="548" 
d="M48 -198l322 956h136l-322 -956h-136z" />
    <glyph glyph-name="slash.cap" horiz-adv-x="548" 
d="M45 -128l322 956h136l-322 -956h-136z" />
    <glyph glyph-name="bar" unicode="|" horiz-adv-x="496" 
d="M180 -198v956h136v-956h-136z" />
    <glyph glyph-name="bar.cap" horiz-adv-x="496" 
d="M180 -128v956h136v-956h-136z" />
    <glyph glyph-name="backslash" unicode="\" horiz-adv-x="548" 
d="M500 -198h-136l-322 956h136z" />
    <glyph glyph-name="backslash.cap" horiz-adv-x="548" 
d="M503 -128h-136l-322 956h136z" />
    <glyph glyph-name="parenleft" unicode="(" horiz-adv-x="450" 
d="M222 280c0 -146 54 -309 212 -478h-164c-146 155 -198 334 -198 478s54 323 198 478h164c-158 -169 -212 -332 -212 -478z" />
    <glyph glyph-name="parenleft.cap" horiz-adv-x="450" 
d="M222 350c0 -146 54 -309 212 -478h-164c-146 155 -198 334 -198 478s54 323 198 478h164c-158 -169 -212 -332 -212 -478z" />
    <glyph glyph-name="parenright" unicode=")" horiz-adv-x="450" 
d="M228 280c0 146 -54 309 -212 478h164c146 -155 198 -334 198 -478s-54 -323 -198 -478h-164c158 169 212 332 212 478z" />
    <glyph glyph-name="parenright.cap" horiz-adv-x="450" 
d="M228 350c0 146 -54 309 -212 478h164c146 -155 198 -334 198 -478s-54 -323 -198 -478h-164c158 169 212 332 212 478z" />
    <glyph glyph-name="bracketleft" unicode="[" horiz-adv-x="441" 
d="M80 -198v956h321v-116h-181v-724h181v-116h-321z" />
    <glyph glyph-name="bracketleft.cap" horiz-adv-x="441" 
d="M80 -128v956h321v-116h-181v-724h181v-116h-321z" />
    <glyph glyph-name="bracketright" unicode="]" horiz-adv-x="441" 
d="M361 758v-956h-321v116h181v724h-181v116h321z" />
    <glyph glyph-name="bracketright.cap" horiz-adv-x="441" 
d="M361 828v-956h-321v116h181v724h-181v116h321z" />
    <glyph glyph-name="braceleft" unicode="{" horiz-adv-x="534" 
d="M20 266v28l144 133l-9 75c-25 209 97 270 227 270c46 0 81 -6 112 -16v-125h-1c-24 10 -56 16 -88 16c-64 0 -124 -26 -108 -156l14 -111l-120 -100l120 -100l-14 -111c-16 -130 44 -152 108 -152c32 0 64 6 88 16h1v-129c-31 -10 -66 -16 -112 -16
c-130 0 -252 61 -227 270l9 75z" />
    <glyph glyph-name="braceleft.cap" horiz-adv-x="534" 
d="M20 336v28l144 133l-9 75c-25 209 97 270 227 270c46 0 81 -6 112 -16v-125h-1c-24 10 -56 16 -88 16c-64 0 -124 -26 -108 -156l14 -111l-120 -100l120 -100l-14 -111c-16 -130 44 -152 108 -152c32 0 64 6 88 16h1v-129c-31 -10 -66 -16 -112 -16
c-130 0 -252 61 -227 270l9 75z" />
    <glyph glyph-name="braceright" unicode="}" horiz-adv-x="534" 
d="M514 294v-28l-144 -133l9 -75c25 -209 -97 -270 -227 -270c-46 0 -81 6 -112 16v125h1c24 -10 56 -16 88 -16c64 0 124 26 108 156l-14 111l120 100l-120 100l14 111c16 130 -44 152 -108 152c-32 0 -64 -6 -88 -16h-1v129c31 10 66 16 112 16c130 0 252 -61 227 -270
l-9 -75z" />
    <glyph glyph-name="braceright.cap" horiz-adv-x="534" 
d="M514 364v-28l-144 -133l9 -75c25 -209 -97 -270 -227 -270c-46 0 -81 6 -112 16v125h1c24 -10 56 -16 88 -16c64 0 124 26 108 156l-14 111l120 100l-120 100l14 111c16 130 -44 152 -108 152c-32 0 -64 -6 -88 -16h-1v129c31 10 66 16 112 16c130 0 252 -61 227 -270
l-9 -75z" />
    <glyph glyph-name="at" unicode="@" horiz-adv-x="1089" 
d="M802 116c-68 0 -119 25 -145 74c-43 -44 -93 -70 -155 -70c-96 0 -143 52 -143 118c0 40 15 65 33 84c23 22 85 60 241 69v9c0 34 -20 59 -72 59c-56 0 -110 -19 -164 -57v110c61 35 119 50 180 50c123 0 175 -67 175 -168v-106c0 -50 16 -74 59 -74c51 0 81 48 81 160
c0 160 -85 292 -321 292c-223 0 -361 -123 -361 -351c0 -209 118 -318 355 -318c124 0 206 27 285 63v-114c-63 -29 -172 -57 -286 -57c-327 0 -474 169 -474 426c0 286 196 459 480 459c295 0 436 -163 436 -399c0 -131 -49 -259 -204 -259zM531 208c44 0 84 22 102 40v67
c-86 -7 -126 -21 -145 -40c-9 -9 -11 -19 -11 -28c0 -24 20 -39 54 -39z" />
    <glyph glyph-name="at.cap" horiz-adv-x="1089" 
d="M802 134c-68 0 -119 25 -145 74c-43 -44 -93 -70 -155 -70c-96 0 -143 52 -143 118c0 40 15 65 33 84c23 22 85 60 241 69v9c0 34 -20 59 -72 59c-56 0 -110 -19 -164 -57v110c61 35 119 50 180 50c123 0 175 -67 175 -168v-106c0 -50 16 -74 59 -74c51 0 81 48 81 160
c0 160 -85 292 -321 292c-223 0 -361 -123 -361 -351c0 -209 118 -318 355 -318c124 0 206 27 285 63v-114c-63 -29 -172 -57 -286 -57c-327 0 -474 169 -474 426c0 286 196 459 480 459c295 0 436 -163 436 -399c0 -131 -49 -259 -204 -259zM531 226c44 0 84 22 102 40v67
c-86 -7 -126 -21 -145 -40c-9 -9 -11 -19 -11 -28c0 -24 20 -39 54 -39z" />
    <glyph glyph-name="paragraph" unicode="&#xb6;" horiz-adv-x="849" 
d="M611 0v577h-145v-397h-32c-240 0 -372 50 -372 243c0 194 118 277 340 277h345v-700h-136z" />
    <glyph glyph-name="section" unicode="&#xa7;" horiz-adv-x="749" 
d="M324 -213c-108 0 -196 31 -245 58v138h1c62 -37 142 -71 242 -71c70 0 125 19 164 54c-156 26 -263 89 -318 144c-65 65 -105 147 -105 258c0 193 130 348 368 348c104 0 174 -26 209 -47v-138h-1c-48 31 -110 60 -206 60c-73 0 -130 -19 -170 -54
c157 -26 263 -89 318 -144c65 -65 105 -147 105 -258c0 -193 -130 -348 -362 -348zM280 194c46 -46 126 -97 263 -129c5 19 7 40 7 62c0 81 -40 141 -81 182c-46 46 -126 97 -263 129c-5 -19 -7 -40 -7 -62c0 -81 40 -141 81 -182z" />
    <glyph glyph-name="copyright" unicode="&#xa9;" horiz-adv-x="968" 
d="M484 -46c-261 0 -430 158 -430 396s169 396 430 396s430 -158 430 -396s-169 -396 -430 -396zM484 52c192 0 316 109 316 298s-124 298 -316 298s-316 -109 -316 -298s124 -298 316 -298zM501 165c-139 0 -202 86 -202 188c0 101 73 188 207 188c60 0 106 -19 137 -42
v-99h-1c-41 28 -77 47 -125 47c-67 0 -107 -42 -107 -94c0 -55 29 -95 105 -95c53 0 88 20 127 47h1v-100c-26 -16 -76 -40 -142 -40z" />
    <glyph glyph-name="uni2117" unicode="&#x2117;" horiz-adv-x="968" 
d="M484 -46c-261 0 -430 158 -430 396s169 396 430 396s430 -158 430 -396s-169 -396 -430 -396zM484 52c192 0 316 109 316 298s-124 298 -316 298s-316 -109 -316 -298s124 -298 316 -298zM328 175v358h213c88 0 144 -50 144 -136c0 -98 -71 -140 -153 -140h-99v-82h-105z
M433 344h97c38 0 49 26 49 50c0 31 -13 51 -51 51h-95v-101z" />
    <glyph glyph-name="registered" unicode="&#xae;" horiz-adv-x="677" 
d="M338 207c-177 0 -292 108 -292 270s115 269 292 269c178 0 293 -107 293 -269s-115 -270 -293 -270zM338 284c125 0 204 70 204 193c0 122 -79 192 -204 192c-124 0 -203 -70 -203 -192c0 -123 79 -193 203 -193zM225 354v247h131c80 0 113 -34 113 -94
c0 -30 -14 -63 -52 -77l61 -72v-4h-81l-51 63h-49v-63h-72zM297 477h55c30 0 44 7 44 31s-14 31 -44 31h-55v-62z" />
    <glyph glyph-name="uni2120" unicode="&#x2120;" horiz-adv-x="1016" 
d="M257 322c-64 0 -131 17 -172 39v93c53 -30 129 -48 175 -48c54 0 70 8 70 27c0 23 -17 26 -99 44c-86 19 -146 34 -146 112c0 65 51 120 172 120c56 0 112 -15 150 -33v-93h-1c-44 23 -101 42 -156 42c-45 0 -66 -10 -66 -28c0 -21 17 -24 97 -41
c81 -17 148 -41 148 -116c0 -44 -14 -118 -172 -118zM507 332v368h116l97 -178l94 178h116v-368h-94v232l-112 -198h-11l-113 199v-233h-93z" />
    <glyph glyph-name="trademark" unicode="&#x2122;" horiz-adv-x="1032" 
d="M216 332v280h-140l2 88h375l3 -88h-140v-280h-100zM523 332v368h116l97 -178l94 178h116v-368h-94v232l-112 -198h-11l-113 199v-233h-93z" />
    <glyph glyph-name="asterisk" unicode="*" horiz-adv-x="523" 
d="M364 351l-83 44l-54 -75l-31 7l-17 91l-93 -4l-14 28l62 72l-62 70l14 29l92 -4l17 92l31 7l56 -76l83 45l25 -19l-25 -91l86 -37v-32l-87 -37l25 -90z" />
    <glyph glyph-name="dagger" unicode="&#x2020;" horiz-adv-x="514" 
d="M194 168v296h-137l5 108h132v128h126v-128h134v-108h-134v-296h-126z" />
    <glyph glyph-name="daggerdbl" unicode="&#x2021;" horiz-adv-x="514" 
d="M194 126v128h-134v108h134v102h-137l5 108h132v128h126v-128h134v-108h-134v-102h137l-5 -108h-132v-128h-126z" />
    <glyph glyph-name="bullet" unicode="&#x2022;" horiz-adv-x="441" 
d="M221 169c-105 0 -161 71 -161 152v3c0 81 56 151 161 151c103 0 160 -70 160 -151v-3c0 -81 -57 -152 -160 -152z" />
    <glyph glyph-name="bullet.cap" horiz-adv-x="441" 
d="M221 197c-105 0 -161 71 -161 152v3c0 81 56 151 161 151c103 0 160 -70 160 -151v-3c0 -81 -57 -152 -160 -152z" />
    <glyph glyph-name="asciicircum" unicode="^" horiz-adv-x="732" 
d="M72 354l193 346h196l199 -346h-159l-116 209h-46l-111 -209h-156z" />
    <glyph glyph-name="asciitilde" unicode="&#x223c;" horiz-adv-x="755" 
d="M96 394c43 41 90 75 157 75c61 0 101 -23 156 -56c54 -32 69 -37 96 -37c49 0 91 35 153 108h1v-178c-43 -41 -90 -75 -157 -75c-61 0 -101 23 -156 56c-54 32 -69 37 -96 37c-49 0 -91 -35 -153 -108h-1v178z" />
    <glyph glyph-name="asciitilde" unicode="~" horiz-adv-x="755" 
d="M96 394c43 41 90 75 157 75c61 0 101 -23 156 -56c54 -32 69 -37 96 -37c49 0 91 35 153 108h1v-178c-43 -41 -90 -75 -157 -75c-61 0 -101 23 -156 56c-54 32 -69 37 -96 37c-49 0 -91 -35 -153 -108h-1v178z" />
    <glyph glyph-name="dollar" unicode="$" horiz-adv-x="705" 
d="M282 -120v133c-70 11 -132 33 -186 60v144h1c94 -51 209 -81 282 -81c71 0 115 25 115 70s-33 56 -171 89c-92 22 -227 49 -227 186c0 90 60 180 198 206v118h136v-115c57 -8 124 -28 175 -57v-145h-1c-76 48 -172 76 -239 76c-78 0 -116 -27 -116 -68
c0 -40 26 -51 166 -85c95 -23 232 -54 232 -193c0 -73 -38 -196 -229 -211v-112z" />
    <glyph glyph-name="cent" unicode="&#xa2;" horiz-adv-x="596" 
d="M252 -40v144c-110 30 -184 116 -184 240c0 122 80 222 196 253v121h134v-113c52 -7 90 -23 122 -46v-134h-1c-49 37 -103 59 -155 59c-93 0 -153 -55 -153 -140c0 -71 60 -128 154 -128c55 0 105 22 154 59h1v-134c-36 -24 -79 -41 -134 -47v-119z" />
    <glyph glyph-name="sterling" unicode="&#xa3;" horiz-adv-x="695" 
d="M54 294l20 124h116l10 34c47 162 116 264 285 264c45 0 91 -11 124 -29v-135h-1c-38 20 -76 28 -111 28c-81 0 -119 -39 -149 -140l-6 -22h251v-124h-288l-48 -162h378v-132h-566l85 294h-100z" />
    <glyph glyph-name="Euro" unicode="&#x20ac;" horiz-adv-x="794" 
d="M50 217l10 100h90c-1 10 -1 19 -1 29c0 14 1 29 2 43h-85l10 100h99c49 127 166 223 349 223c75 0 137 -18 188 -44v-138h-1c-72 37 -129 54 -189 54c-91 0 -156 -36 -193 -95h253v-100h-286c-2 -13 -3 -28 -3 -42c0 -10 0 -20 1 -30h288v-100h-259
c35 -62 100 -101 196 -101c60 0 119 15 192 50h1v-138c-49 -23 -126 -40 -203 -40c-193 0 -301 100 -341 229h-118z" />
    <glyph glyph-name="yen" unicode="&#xa5;" horiz-adv-x="816" 
d="M92 142l7 108h228l-40 71h-184l7 108h116l-152 271h161l168 -309h10l172 309h157l-154 -271h117l7 -108h-185l-41 -71h230l7 -108h-243v-142h-145v142h-243z" />
    <glyph glyph-name="uni20B9" unicode="&#x20b9;" horiz-adv-x="749" 
d="M596 0h-216l-280 195v111h200c80 0 119 30 132 85h-332v108h332c-14 60 -57 86 -153 86h-179v115h589l-5 -115h-149c19 -22 32 -49 39 -82h102l-5 -115h-95c-21 -116 -108 -192 -242 -192h-28z" />
    <glyph glyph-name="colonmonetary" unicode="&#x20a1;" horiz-adv-x="694" 
d="M135 -110l41 157c-101 66 -145 180 -145 299c0 172 105 333 319 362l25 97h116l-25 -95c29 -3 55 -7 78 -14l28 109h116l-178 -682c33 8 67 21 105 39h1v-134c-35 -16 -84 -30 -140 -36l-27 -102h-117l27 100c-28 2 -54 6 -78 12l-30 -112h-116zM309 129
c26 -10 57 -16 91 -17l119 456c-29 10 -58 14 -91 14zM174 347c0 -60 14 -113 45 -153l100 381c-98 -33 -145 -119 -145 -228z" />
    <glyph glyph-name="uni20A6" unicode="&#x20a6;" horiz-adv-x="898" 
d="M160 0v222h-116l10 100h106v72h-100l10 100h90v206h177l115 -206h168v206h135v-206h95v-100h-95v-72h95v-100h-95v-222h-168l-124 222h-168v-222h-135zM295 505v-187h115l-104 187h-11zM609 211h11v187h-115z" />
    <glyph glyph-name="uni20B1" unicode="&#x20b1;" horiz-adv-x="830" 
d="M154 0v386h-110l20 106h90v208h325c149 0 235 -77 252 -208h79v-106h-80c-22 -142 -126 -207 -266 -207h-164v-179h-146zM300 575v-87h286c-12 60 -49 87 -118 87h-168zM300 304h171c67 0 103 31 114 86h-285v-86z" />
    <glyph glyph-name="R_p" horiz-adv-x="1449" 
d="M102 0v700h341c179 0 266 -84 266 -241c0 -114 -51 -190 -151 -221l179 -238h-175l-150 208h-162v-208h-148zM250 340h191c84 0 118 46 118 113c0 70 -34 114 -118 114h-191v-227zM834 -198v738h144l1 -64c39 43 96 80 176 80c134 0 246 -100 246 -275
c0 -173 -130 -297 -295 -297c-52 0 -89 10 -124 27v-209h-148zM1093 110c98 0 160 64 160 163c0 105 -63 157 -148 157c-46 0 -92 -20 -123 -46v-238c34 -22 67 -36 111 -36z" />
    <glyph glyph-name="uni20A8" unicode="&#x20a8;" horiz-adv-x="1320" 
d="M102 0v700h341c179 0 266 -84 266 -241c0 -114 -51 -190 -151 -221l179 -238h-175l-150 208h-162v-208h-148zM250 340h191c84 0 118 46 118 113c0 70 -34 114 -118 114h-191v-227zM1046 -16c-79 0 -160 19 -238 62v133h1c70 -45 158 -73 242 -73c61 0 82 18 82 46
c0 27 -14 38 -135 65c-127 28 -189 68 -189 163s75 176 227 176c81 0 164 -28 207 -52v-133h-1c-68 38 -156 63 -218 63c-51 0 -70 -18 -70 -42c0 -28 21 -40 134 -66c137 -32 190 -76 190 -169c0 -70 -39 -173 -232 -173z" />
    <glyph glyph-name="uni20BD" unicode="&#x20bd;" horiz-adv-x="799" 
d="M44 92l11 109h112v72h-109l12 112h97v315h337c167 0 247 -85 247 -212c0 -141 -95 -215 -262 -215h-176v-72h312v-109h-312v-92h-146v92h-123zM313 385h175c95 0 119 40 119 93c0 65 -31 97 -118 97h-176v-190z" />
    <glyph glyph-name="uni2116" unicode="&#x2116;" horiz-adv-x="1444" 
d="M1137 708c166 0 257 -105 257 -240s-91 -240 -258 -240c-166 0 -257 105 -257 240s91 240 258 240zM126 0v700h170l301 -466h10v466h142v-700h-157l-314 482h-10v-482h-142zM1137 591c-80 0 -122 -51 -122 -124c0 -72 41 -122 121 -122s122 51 122 124
c0 72 -41 122 -121 122zM915 124h443v-124h-443v124z" />
    <glyph glyph-name="numbersign" unicode="#" horiz-adv-x="946" 
d="M150 0l34 140h-114v113h142l48 194h-128v113h156l34 140h134l-34 -140h206l34 140h134l-34 -140h114v-113h-142l-48 -194h128v-113h-156l-34 -140h-134l34 140h-206l-34 -140h-134zM346 253h206l48 194h-206z" />
    <glyph glyph-name="percent" unicode="%" horiz-adv-x="1074" 
d="M252 332c-126 0 -204 69 -204 185c0 119 79 191 205 191c125 0 204 -70 204 -189c0 -115 -81 -187 -205 -187zM155 1l309 349l311 350h144v-1l-310 -349l-310 -350h-144v1zM253 433c51 0 85 28 85 85c0 58 -35 87 -86 87c-50 0 -86 -28 -86 -86c0 -57 36 -86 87 -86z
M822 368c126 0 204 -69 204 -185c0 -118 -79 -191 -205 -191c-125 0 -204 70 -204 189c0 115 81 187 205 187zM821 267c-50 0 -85 -28 -85 -85s36 -87 86 -87s86 28 86 86s-36 86 -87 86z" />
    <glyph glyph-name="degree" unicode="&#xb0;" horiz-adv-x="594" 
d="M297 268c-142 0 -235 87 -235 220s93 220 235 220s235 -87 235 -220s-93 -220 -235 -220zM297 378c65 0 107 41 107 110s-42 110 -107 110s-107 -41 -107 -110s42 -110 107 -110z" />
    <glyph glyph-name="quotedbl" unicode="&#x22;" horiz-adv-x="617" 
d="M102 395v305h181v-15l-102 -290h-79zM372 395v305h181v-15l-102 -290h-79z" />
    <glyph glyph-name="quotesingle" unicode="'" horiz-adv-x="347" 
d="M102 395v305h181v-15l-102 -290h-79z" />
    <glyph glyph-name="ordfeminine" unicode="&#xaa;" horiz-adv-x="545" 
d="M195 258c-102 0 -151 54 -151 122c0 44 17 71 37 90c24 25 92 64 260 73v10c0 38 -24 55 -76 55c-59 0 -126 -20 -181 -59h-1v117c64 36 124 50 191 50c135 0 190 -69 190 -174v-271h-114l-3 56c-39 -43 -82 -69 -152 -69zM224 354c53 0 92 26 117 51v59
c-99 -8 -142 -23 -162 -42c-8 -8 -12 -17 -12 -28c0 -28 22 -40 57 -40z" />
    <glyph glyph-name="ordmasculine" unicode="&#xba;" horiz-adv-x="590" 
d="M295 258c-159 0 -247 101 -247 229s88 229 247 229s247 -101 247 -229s-88 -229 -247 -229zM295 366c77 0 117 52 117 121s-40 122 -117 122s-117 -53 -117 -122s40 -121 117 -121z" />
    <glyph glyph-name="plus" unicode="+" horiz-adv-x="736" 
d="M96 285v130h203v207h138v-207h203v-130h-203v-207h-138v207h-203z" />
    <glyph glyph-name="minus" unicode="&#x2212;" horiz-adv-x="696" 
d="M96 281v138h504v-138h-504z" />
    <glyph glyph-name="equal" unicode="=" horiz-adv-x="768" 
d="M112 419v130h544v-130h-544zM112 151v130h544v-130h-544z" />
    <glyph glyph-name="divide" unicode="&#xf7;" horiz-adv-x="776" 
d="M387 652c60 0 95 -39 95 -86v-1c0 -47 -35 -86 -94 -86c-60 0 -95 39 -95 86v1c0 47 35 86 94 86zM96 285v130h584v-130h-584zM389 48c-60 0 -95 39 -95 86v1c0 47 35 86 94 86c60 0 95 -39 95 -86v-1c0 -47 -35 -86 -94 -86z" />
    <glyph glyph-name="multiply" unicode="&#xd7;" horiz-adv-x="724" 
d="M96 525l91 91l175 -175l175 175l91 -91l-175 -175l175 -175l-91 -91l-175 175l-175 -175l-91 91l175 175z" />
    <glyph glyph-name="dotmath" unicode="&#x22c5;" horiz-adv-x="417" 
d="M209 247c-72 0 -109 49 -109 102v2c0 53 37 101 109 101c70 0 108 -48 108 -101v-2c0 -53 -38 -102 -108 -102z" />
    <glyph glyph-name="plusminus" unicode="&#xb1;" horiz-adv-x="742" 
d="M124 393v130h178v177h138v-177h178v-130h-178v-177h-138v177h-178zM124 0v122h494v-122h-494z" />
    <glyph glyph-name="less" unicode="&#x3c;" horiz-adv-x="662" 
d="M550 65l-454 214v142l454 212v-146l-303 -137l303 -139v-146z" />
    <glyph glyph-name="greater" unicode="&#x3e;" horiz-adv-x="662" 
d="M112 633l454 -214v-142l-454 -212v146l303 137l-303 139v146z" />
    <glyph glyph-name="onehalf" unicode="&#xbd;" horiz-adv-x="1008" 
d="M138 291v315h-86l18 94h187v-409h-119zM142 1l504 699h122v-1l-504 -699h-122v1zM605 0v94l134 103c83 64 91 75 91 92c0 23 -21 32 -50 32c-42 0 -95 -19 -157 -63h-1v110c58 38 112 53 167 53c106 0 159 -47 159 -122c0 -67 -44 -97 -145 -173l-39 -29h183v-97h-342z
" />
    <glyph glyph-name="onethird" unicode="&#x2153;" horiz-adv-x="1018" 
d="M138 291v315h-86l18 94h187v-409h-119zM142 1l504 699h122v-1l-504 -699h-122v1zM770 -12c-60 0 -107 12 -152 26v103c49 -18 97 -33 139 -33c50 0 86 11 86 42c0 30 -24 42 -134 42h-13v54l119 92h-195l3 95h321v-93l-104 -81c76 -13 121 -48 121 -112
c0 -86 -80 -135 -191 -135z" />
    <glyph glyph-name="twothirds" unicode="&#x2154;" horiz-adv-x="1136" 
d="M71 291v94l134 103c83 64 91 75 91 92c0 23 -21 32 -50 32c-42 0 -95 -19 -157 -63h-1v110c58 38 112 53 167 53c106 0 159 -47 159 -122c0 -67 -44 -97 -145 -173l-39 -29h183v-97h-342zM260 1l504 699h122v-1l-504 -699h-122v1zM888 -12c-60 0 -107 12 -152 26v103
c49 -18 97 -33 139 -33c50 0 86 11 86 42c0 30 -24 42 -134 42h-13v54l119 92h-195l3 95h321v-93l-104 -81c76 -13 121 -48 121 -112c0 -86 -80 -135 -191 -135z" />
    <glyph glyph-name="onequarter" unicode="&#xbc;" horiz-adv-x="1003" 
d="M138 291v315h-86l18 94h187v-409h-119zM142 1l504 699h122v-1l-504 -699h-122v1zM803 0v79h-236v87l108 243h235v-236h62l-5 -94h-57v-79h-107zM683 171h122v145h-60z" />
    <glyph glyph-name="threequarters" unicode="&#xbe;" horiz-adv-x="1101" 
d="M226 279c-60 0 -107 12 -152 26v103c49 -18 97 -33 139 -33c50 0 86 11 86 42c0 30 -24 42 -134 42h-13v54l119 92h-195l3 95h321v-93l-104 -81c76 -13 121 -48 121 -112c0 -86 -80 -135 -191 -135zM240 1l504 699h122v-1l-504 -699h-122v1zM901 0v79h-236v87l108 243
h235v-236h62l-5 -94h-57v-79h-107zM781 171h122v145h-60z" />
    <glyph glyph-name="uni2155" unicode="&#x2155;" horiz-adv-x="1003" 
d="M138 291v315h-86l18 94h187v-409h-119zM142 1l504 699h122v-1l-504 -699h-122v1zM766 -12c-69 0 -115 10 -159 24v103h1c44 -18 95 -30 156 -30c56 0 67 25 67 43c0 9 -2 14 -8 20c-13 13 -46 17 -137 17h-72l6 244h302l4 -97h-202l-1 -59h7c102 0 155 -11 188 -44
c19 -19 31 -44 31 -82c0 -85 -71 -139 -183 -139z" />
    <glyph glyph-name="uni2156" unicode="&#x2156;" horiz-adv-x="1121" 
d="M71 291v94l134 103c83 64 91 75 91 92c0 23 -21 32 -50 32c-42 0 -95 -19 -157 -63h-1v110c58 38 112 53 167 53c106 0 159 -47 159 -122c0 -67 -44 -97 -145 -173l-39 -29h183v-97h-342zM260 1l504 699h122v-1l-504 -699h-122v1zM884 -12c-69 0 -115 10 -159 24v103h1
c44 -18 95 -30 156 -30c56 0 67 25 67 43c0 9 -2 14 -8 20c-13 13 -46 17 -137 17h-72l6 244h302l4 -97h-202l-1 -59h7c102 0 155 -11 188 -44c19 -19 31 -44 31 -82c0 -85 -71 -139 -183 -139z" />
    <glyph glyph-name="uni2157" unicode="&#x2157;" horiz-adv-x="1101" 
d="M226 279c-60 0 -107 12 -152 26v103c49 -18 97 -33 139 -33c50 0 86 11 86 42c0 30 -24 42 -134 42h-13v54l119 92h-195l3 95h321v-93l-104 -81c76 -13 121 -48 121 -112c0 -86 -80 -135 -191 -135zM240 1l504 699h122v-1l-504 -699h-122v1zM864 -12
c-69 0 -115 10 -159 24v103h1c44 -18 95 -30 156 -30c56 0 67 25 67 43c0 9 -2 14 -8 20c-13 13 -46 17 -137 17h-72l6 244h302l4 -97h-202l-1 -59h7c102 0 155 -11 188 -44c19 -19 31 -44 31 -82c0 -85 -71 -139 -183 -139z" />
    <glyph glyph-name="uni2158" unicode="&#x2158;" horiz-adv-x="1121" 
d="M274 291v79h-236v87l108 243h235v-236h62l-5 -94h-57v-79h-107zM260 1l504 699h122v-1l-504 -699h-122v1zM154 462h122v145h-60zM884 -12c-69 0 -115 10 -159 24v103h1c44 -18 95 -30 156 -30c56 0 67 25 67 43c0 9 -2 14 -8 20c-13 13 -46 17 -137 17h-72l6 244h302
l4 -97h-202l-1 -59h7c102 0 155 -11 188 -44c19 -19 31 -44 31 -82c0 -85 -71 -139 -183 -139z" />
    <glyph glyph-name="uni2159" unicode="&#x2159;" horiz-adv-x="998" 
d="M138 291v315h-86l18 94h187v-409h-119zM142 1l504 699h122v-1l-504 -699h-122v1zM768 -12c-121 0 -190 68 -190 208c0 143 86 224 215 224c50 0 87 -7 129 -22v-98h-1c-44 18 -79 27 -123 27c-58 0 -105 -25 -109 -91c30 17 75 27 113 27c83 0 146 -35 146 -124
c0 -99 -79 -151 -180 -151zM780 177c-33 0 -67 -8 -91 -21c4 -58 37 -77 79 -77c43 0 71 19 71 54s-27 44 -59 44z" />
    <glyph glyph-name="uni215A" unicode="&#x215a;" horiz-adv-x="1101" 
d="M237 279c-69 0 -115 10 -159 24v103h1c44 -18 95 -30 156 -30c56 0 67 25 67 43c0 9 -2 14 -8 20c-13 13 -46 17 -137 17h-72l6 244h302l4 -97h-202l-1 -59h7c102 0 155 -11 188 -44c19 -19 31 -44 31 -82c0 -85 -71 -139 -183 -139zM245 1l504 699h122v-1l-504 -699
h-122v1zM871 -12c-121 0 -190 68 -190 208c0 143 86 224 215 224c50 0 87 -7 129 -22v-98h-1c-44 18 -79 27 -123 27c-58 0 -105 -25 -109 -91c30 17 75 27 113 27c83 0 146 -35 146 -124c0 -99 -79 -151 -180 -151zM883 177c-33 0 -67 -8 -91 -21c4 -58 37 -77 79 -77
c43 0 71 19 71 54s-27 44 -59 44z" />
    <glyph glyph-name="oneeighth" unicode="&#x215b;" horiz-adv-x="1008" 
d="M138 291v315h-86l18 94h187v-409h-119zM142 1l504 699h122v-1l-504 -699h-122v1zM771 -12c-128 0 -188 45 -188 120c0 47 23 79 82 99c-49 17 -72 44 -72 90c0 72 59 123 178 123s178 -51 178 -123c0 -46 -23 -73 -72 -90c59 -20 82 -52 82 -99c0 -75 -60 -120 -188 -120
zM771 243c45 0 69 15 69 42c0 30 -22 47 -69 47s-69 -17 -69 -47c0 -27 24 -42 69 -42zM771 75c52 0 75 19 75 47c0 29 -25 47 -75 47s-75 -18 -75 -47c0 -28 23 -47 75 -47z" />
    <glyph glyph-name="threeeighths" unicode="&#x215c;" horiz-adv-x="1106" 
d="M226 279c-60 0 -107 12 -152 26v103c49 -18 97 -33 139 -33c50 0 86 11 86 42c0 30 -24 42 -134 42h-13v54l119 92h-195l3 95h321v-93l-104 -81c76 -13 121 -48 121 -112c0 -86 -80 -135 -191 -135zM240 1l504 699h122v-1l-504 -699h-122v1zM869 -12
c-128 0 -188 45 -188 120c0 47 23 79 82 99c-49 17 -72 44 -72 90c0 72 59 123 178 123s178 -51 178 -123c0 -46 -23 -73 -72 -90c59 -20 82 -52 82 -99c0 -75 -60 -120 -188 -120zM869 243c45 0 69 15 69 42c0 30 -22 47 -69 47s-69 -17 -69 -47c0 -27 24 -42 69 -42z
M869 75c52 0 75 19 75 47c0 29 -25 47 -75 47s-75 -18 -75 -47c0 -28 23 -47 75 -47z" />
    <glyph glyph-name="fiveeighths" unicode="&#x215d;" horiz-adv-x="1111" 
d="M237 279c-69 0 -115 10 -159 24v103h1c44 -18 95 -30 156 -30c56 0 67 25 67 43c0 9 -2 14 -8 20c-13 13 -46 17 -137 17h-72l6 244h302l4 -97h-202l-1 -59h7c102 0 155 -11 188 -44c19 -19 31 -44 31 -82c0 -85 -71 -139 -183 -139zM245 1l504 699h122v-1l-504 -699
h-122v1zM874 -12c-128 0 -188 45 -188 120c0 47 23 79 82 99c-49 17 -72 44 -72 90c0 72 59 123 178 123s178 -51 178 -123c0 -46 -23 -73 -72 -90c59 -20 82 -52 82 -99c0 -75 -60 -120 -188 -120zM874 243c45 0 69 15 69 42c0 30 -22 47 -69 47s-69 -17 -69 -47
c0 -27 24 -42 69 -42zM874 75c52 0 75 19 75 47c0 29 -25 47 -75 47s-75 -18 -75 -47c0 -28 23 -47 75 -47z" />
    <glyph glyph-name="seveneighths" unicode="&#x215e;" horiz-adv-x="1066" 
d="M69 536v164h350v-125l-167 -284h-126l171 291v24h-122v-70h-106zM200 1l504 699h122v-1l-504 -699h-122v1zM829 -12c-128 0 -188 45 -188 120c0 47 23 79 82 99c-49 17 -72 44 -72 90c0 72 59 123 178 123s178 -51 178 -123c0 -46 -23 -73 -72 -90c59 -20 82 -52 82 -99
c0 -75 -60 -120 -188 -120zM829 243c45 0 69 15 69 42c0 30 -22 47 -69 47s-69 -17 -69 -47c0 -27 24 -42 69 -42zM829 75c52 0 75 19 75 47c0 29 -25 47 -75 47s-75 -18 -75 -47c0 -28 23 -47 75 -47z" />
    <glyph glyph-name="zero.sup" unicode="&#x2070;" horiz-adv-x="474" 
d="M235 337c-136 0 -196 86 -196 215s66 217 200 217c136 0 196 -86 196 -215s-66 -217 -200 -217zM236 434c59 0 83 44 83 119s-22 119 -81 119s-83 -44 -83 -119s22 -119 81 -119z" />
    <glyph glyph-name="one.sup" unicode="&#xb9;" horiz-adv-x="366" 
d="M138 349v315h-86l18 94h187v-409h-119z" />
    <glyph glyph-name="one.sup_alt" horiz-adv-x="474" 
d="M418 442v-93h-324v93h109v222h-113l15 94h217v-316h96z" />
    <glyph glyph-name="two.sup" unicode="&#xb2;" horiz-adv-x="474" 
d="M71 349v94l134 103c83 64 91 75 91 92c0 23 -21 32 -50 32c-42 0 -95 -19 -157 -63h-1v110c58 38 112 53 167 53c106 0 159 -47 159 -122c0 -67 -44 -97 -145 -173l-39 -29h183v-97h-342z" />
    <glyph glyph-name="three.sup" unicode="&#xb3;" horiz-adv-x="474" 
d="M226 337c-60 0 -107 12 -152 26v103c49 -18 97 -33 139 -33c50 0 86 11 86 42c0 30 -24 42 -134 42h-13v54l119 92h-195l3 95h321v-93l-104 -81c76 -13 121 -48 121 -112c0 -86 -80 -135 -191 -135z" />
    <glyph glyph-name="four.sup" unicode="&#x2074;" horiz-adv-x="474" 
d="M274 349v79h-236v87l108 243h235v-236h62l-5 -94h-57v-79h-107zM154 520h122v145h-60z" />
    <glyph glyph-name="five.sup" unicode="&#x2075;" horiz-adv-x="474" 
d="M237 337c-69 0 -115 10 -159 24v103h1c44 -18 95 -30 156 -30c56 0 67 25 67 43c0 9 -2 14 -8 20c-13 13 -46 17 -137 17h-72l6 244h302l4 -97h-202l-1 -59h7c102 0 155 -11 188 -44c19 -19 31 -44 31 -82c0 -85 -71 -139 -183 -139z" />
    <glyph glyph-name="six.sup" unicode="&#x2076;" horiz-adv-x="474" 
d="M244 337c-121 0 -190 68 -190 208c0 143 86 224 215 224c50 0 87 -7 129 -22v-98h-1c-44 18 -79 27 -123 27c-58 0 -105 -25 -109 -91c30 17 75 27 113 27c83 0 146 -35 146 -124c0 -99 -79 -151 -180 -151zM256 526c-33 0 -67 -8 -91 -21c4 -58 37 -77 79 -77
c43 0 71 19 71 54s-27 44 -59 44z" />
    <glyph glyph-name="seven.sup" unicode="&#x2077;" horiz-adv-x="474" 
d="M69 594v164h350v-125l-167 -284h-126l171 291v24h-122v-70h-106z" />
    <glyph glyph-name="eight.sup" unicode="&#x2078;" horiz-adv-x="474" 
d="M237 337c-128 0 -188 45 -188 120c0 47 23 79 82 99c-49 17 -72 44 -72 90c0 72 59 123 178 123s178 -51 178 -123c0 -46 -23 -73 -72 -90c59 -20 82 -52 82 -99c0 -75 -60 -120 -188 -120zM237 592c45 0 69 15 69 42c0 30 -22 47 -69 47s-69 -17 -69 -47
c0 -27 24 -42 69 -42zM237 424c52 0 75 19 75 47c0 29 -25 47 -75 47s-75 -18 -75 -47c0 -28 23 -47 75 -47z" />
    <glyph glyph-name="nine.sup" unicode="&#x2079;" horiz-adv-x="474" 
d="M230 769c121 0 190 -68 190 -208c0 -143 -86 -224 -215 -224c-50 0 -87 7 -129 22v98h1c44 -18 79 -27 123 -27c58 0 105 25 109 91c-30 -17 -75 -27 -113 -27c-83 0 -146 35 -146 124c0 99 79 151 180 151zM159 624c0 -35 27 -44 59 -44c33 0 67 8 91 21
c-4 58 -37 77 -79 77c-43 0 -71 -19 -71 -54z" />
    <glyph glyph-name="zero.inf" unicode="&#x2080;" horiz-adv-x="474" 
d="M235 -210c-136 0 -196 86 -196 215s66 217 200 217c136 0 196 -86 196 -215s-66 -217 -200 -217zM236 -113c59 0 83 44 83 119s-22 119 -81 119s-83 -44 -83 -119s22 -119 81 -119z" />
    <glyph glyph-name="one.inf" unicode="&#x2081;" horiz-adv-x="366" 
d="M138 -198v315h-86l18 94h187v-409h-119z" />
    <glyph glyph-name="one.inf_alt" horiz-adv-x="474" 
d="M418 -105v-93h-324v93h109v222h-113l15 94h217v-316h96z" />
    <glyph glyph-name="two.inf" unicode="&#x2082;" horiz-adv-x="474" 
d="M71 -198v94l134 103c83 64 91 75 91 92c0 23 -21 32 -50 32c-42 0 -95 -19 -157 -63h-1v110c58 38 112 53 167 53c106 0 159 -47 159 -122c0 -67 -44 -97 -145 -173l-39 -29h183v-97h-342z" />
    <glyph glyph-name="three.inf" unicode="&#x2083;" horiz-adv-x="474" 
d="M226 -210c-60 0 -107 12 -152 26v103c49 -18 97 -33 139 -33c50 0 86 11 86 42c0 30 -24 42 -134 42h-13v54l119 92h-195l3 95h321v-93l-104 -81c76 -13 121 -48 121 -112c0 -86 -80 -135 -191 -135z" />
    <glyph glyph-name="four.inf" unicode="&#x2084;" horiz-adv-x="474" 
d="M274 -198v79h-236v87l108 243h235v-236h62l-5 -94h-57v-79h-107zM154 -27h122v145h-60z" />
    <glyph glyph-name="five.inf" unicode="&#x2085;" horiz-adv-x="474" 
d="M237 -210c-69 0 -115 10 -159 24v103h1c44 -18 95 -30 156 -30c56 0 67 25 67 43c0 9 -2 14 -8 20c-13 13 -46 17 -137 17h-72l6 244h302l4 -97h-202l-1 -59h7c102 0 155 -11 188 -44c19 -19 31 -44 31 -82c0 -85 -71 -139 -183 -139z" />
    <glyph glyph-name="six.inf" unicode="&#x2086;" horiz-adv-x="474" 
d="M244 -210c-121 0 -190 68 -190 208c0 143 86 224 215 224c50 0 87 -7 129 -22v-98h-1c-44 18 -79 27 -123 27c-58 0 -105 -25 -109 -91c30 17 75 27 113 27c83 0 146 -35 146 -124c0 -99 -79 -151 -180 -151zM256 -21c-33 0 -67 -8 -91 -21c4 -58 37 -77 79 -77
c43 0 71 19 71 54s-27 44 -59 44z" />
    <glyph glyph-name="seven.inf" unicode="&#x2087;" horiz-adv-x="474" 
d="M69 47v164h350v-125l-167 -284h-126l171 291v24h-122v-70h-106z" />
    <glyph glyph-name="eight.inf" unicode="&#x2088;" horiz-adv-x="474" 
d="M237 -210c-128 0 -188 45 -188 120c0 47 23 79 82 99c-49 17 -72 44 -72 90c0 72 59 123 178 123s178 -51 178 -123c0 -46 -23 -73 -72 -90c59 -20 82 -52 82 -99c0 -75 -60 -120 -188 -120zM237 45c45 0 69 15 69 42c0 30 -22 47 -69 47s-69 -17 -69 -47
c0 -27 24 -42 69 -42zM237 -123c52 0 75 19 75 47c0 29 -25 47 -75 47s-75 -18 -75 -47c0 -28 23 -47 75 -47z" />
    <glyph glyph-name="nine.inf" unicode="&#x2089;" horiz-adv-x="474" 
d="M230 222c121 0 190 -68 190 -208c0 -143 -86 -224 -215 -224c-50 0 -87 7 -129 22v98h1c44 -18 79 -27 123 -27c58 0 105 25 109 91c-30 -17 -75 -27 -113 -27c-83 0 -146 35 -146 124c0 99 79 151 180 151zM159 77c0 -35 27 -44 59 -44c33 0 67 8 91 21
c-4 58 -37 77 -79 77c-43 0 -71 -19 -71 -54z" />
    <glyph glyph-name="zero.tab" horiz-adv-x="724" 
d="M361 -16c-230 0 -324 160 -324 364s96 368 326 368c220 0 324 -160 324 -364s-106 -368 -326 -368zM363 117c118 0 171 84 171 232s-55 234 -173 234s-171 -84 -171 -232s55 -234 173 -234z" />
    <glyph glyph-name="one.tab" horiz-adv-x="724" 
d="M664 129v-129h-563v129h223v442h-223l20 129h351v-571h192z" />
    <glyph glyph-name="two.tab" horiz-adv-x="724" 
d="M65 0v135l226 161c141 101 200 137 200 202c0 49 -34 83 -117 83c-87 0 -174 -34 -278 -127h-1v154c95 82 192 108 281 108c180 0 271 -85 271 -206c0 -118 -72 -172 -240 -288l-129 -89h369v-133h-582z" />
    <glyph glyph-name="three.tab" horiz-adv-x="724" 
d="M360 -16c-106 0 -200 29 -274 63v143h1c92 -47 205 -75 268 -75c96 0 160 32 160 96c0 70 -84 93 -254 93h-34v80l215 183h-347l5 133h546v-120l-216 -175c144 -17 241 -70 241 -191c0 -147 -138 -230 -311 -230z" />
    <glyph glyph-name="four.tab" horiz-adv-x="724" 
d="M442 0v145h-407v113l233 442h316v-428h109l-5 -127h-104v-145h-142zM201 272h241v295h-91z" />
    <glyph glyph-name="five.tab" horiz-adv-x="724" 
d="M358 -16c-84 0 -179 19 -269 54v143h1c101 -43 188 -65 263 -65c119 0 149 57 149 100c0 21 -5 36 -19 50c-25 25 -67 39 -258 39h-121l10 395h501l5 -133h-371l-4 -131h30c190 0 279 -20 339 -82c33 -35 47 -79 47 -134c0 -124 -105 -236 -303 -236z" />
    <glyph glyph-name="six.tab" horiz-adv-x="724" 
d="M368 -16c-185 0 -315 115 -315 351c0 257 166 381 358 381c64 0 142 -14 216 -47v-137h-1c-83 35 -133 55 -210 55c-110 0 -201 -51 -213 -190c59 43 133 63 206 63c148 0 261 -68 261 -215c0 -160 -132 -261 -302 -261zM374 338c-59 0 -113 -17 -171 -55
c6 -130 87 -172 174 -172c74 0 144 40 144 124s-79 103 -147 103z" />
    <glyph glyph-name="seven.tab" horiz-adv-x="724" 
d="M69 453v247h593v-191l-329 -509h-168l348 540v30h-304v-117h-140z" />
    <glyph glyph-name="eight.tab" horiz-adv-x="724" 
d="M363 -24c-212 0 -311 83 -311 205c0 85 46 138 136 172c-73 28 -120 76 -120 157c0 114 89 210 295 210c204 0 293 -97 293 -210c0 -81 -47 -129 -120 -157c90 -34 136 -87 136 -172c0 -122 -95 -205 -309 -205zM363 406c81 0 141 28 141 96c0 60 -51 96 -141 96
c-93 0 -143 -34 -143 -96c0 -68 61 -96 143 -96zM363 98c101 0 154 36 154 99c0 66 -63 100 -154 100c-94 0 -156 -31 -156 -99c0 -64 53 -100 156 -100z" />
    <glyph glyph-name="nine.tab" horiz-adv-x="724" 
d="M356 716c185 0 315 -115 315 -351c0 -257 -166 -381 -358 -381c-64 0 -142 14 -216 47v137h1c83 -35 133 -55 210 -55c110 0 201 51 213 190c-59 -43 -133 -63 -206 -63c-148 0 -261 68 -261 215c0 160 132 261 302 261zM203 465c0 -84 79 -103 147 -103
c59 0 113 17 171 55c-6 130 -87 172 -174 172c-74 0 -144 -40 -144 -124z" />
    <glyph glyph-name="dollar.tab" horiz-adv-x="724" 
d="M291 -120v132c-73 11 -136 34 -191 61v144h1c94 -51 209 -81 287 -81c76 0 120 25 120 71c0 48 -39 61 -176 88c-101 20 -232 49 -232 186c0 90 61 181 203 206v118h136v-115c60 -8 128 -27 180 -57v-145h-1c-76 48 -172 76 -244 76c-81 0 -121 -25 -121 -72
c0 -61 82 -59 173 -81c100 -24 235 -54 235 -193c0 -73 -38 -196 -234 -211v-112z" />
    <glyph glyph-name="cent.tab" horiz-adv-x="724" 
d="M316 -40v142c-118 29 -194 117 -194 242c0 123 82 224 206 255v119h134v-113c60 -6 99 -22 132 -46v-134h-1c-49 37 -103 59 -165 59c-103 0 -163 -55 -163 -140c0 -71 60 -128 164 -128c65 0 115 22 164 59h1v-134c-37 -25 -81 -42 -144 -47v-119z" />
    <glyph glyph-name="sterling.tab" horiz-adv-x="724" 
d="M62 294l20 124h116l10 34c47 162 116 264 291 264c51 0 97 -11 130 -29v-135h-1c-38 20 -76 28 -117 28c-87 0 -125 -39 -155 -140l-6 -22h263v-124h-300l-48 -162h390v-132h-578l85 294h-100z" />
    <glyph glyph-name="Euro.tab" horiz-adv-x="724" 
d="M25 217l10 100h90c-1 10 -1 19 -1 29c0 14 1 29 2 43h-85l10 100h96c45 127 154 223 342 223c65 0 127 -14 178 -38v-138h-1c-72 35 -133 48 -184 48c-92 0 -151 -36 -183 -95h238v-100h-267c-1 -13 -2 -28 -2 -42c0 -10 0 -20 1 -30h268v-100h-244
c30 -62 88 -101 186 -101c51 0 114 11 187 44h1v-138c-49 -21 -126 -34 -193 -34c-199 0 -298 99 -334 229h-115z" />
    <glyph glyph-name="yen.tab" horiz-adv-x="724" 
d="M52 142l7 108h222l-38 71h-180l7 108h115l-147 271h161l158 -309h10l162 309h157l-148 -271h115l7 -108h-181l-39 -71h224l7 -108h-237v-142h-145v142h-237z" />
    <glyph glyph-name="uni20B9.tab" horiz-adv-x="724" 
d="M648 388h-95c-21 -116 -108 -192 -242 -192h-6l290 -196h-216l-282 195v111h180c80 0 119 30 132 85h-312v108h312c-14 60 -57 86 -153 86h-159v115h569l-5 -115h-149c19 -22 32 -49 39 -82h102z" />
    <glyph glyph-name="period.tab" horiz-adv-x="362" 
d="M181 -11c-72 0 -109 49 -109 102v2c0 53 37 101 109 101c70 0 108 -48 108 -101v-2c0 -53 -38 -102 -108 -102z" />
    <glyph glyph-name="comma.tab" horiz-adv-x="362" 
d="M74 -139l42 325h201v-15l-163 -310h-80z" />
    <glyph glyph-name="colon.tab" horiz-adv-x="362" 
d="M181 343c-72 0 -109 49 -109 102v2c0 53 37 101 109 101c70 0 108 -48 108 -101v-2c0 -53 -38 -102 -108 -102zM181 -11c-72 0 -109 49 -109 102v2c0 53 37 101 109 101c70 0 108 -48 108 -101v-2c0 -53 -38 -102 -108 -102z" />
    <glyph glyph-name="semicolon.tab" horiz-adv-x="362" 
d="M207 343c-72 0 -109 49 -109 102v2c0 53 37 101 109 101c70 0 108 -48 108 -101v-2c0 -53 -38 -102 -108 -102zM69 -139l42 325h201v-15l-163 -310h-80z" />
    <glyph glyph-name="periodcentered.tab" horiz-adv-x="362" 
d="M181 247c-72 0 -109 49 -109 102v2c0 53 37 101 109 101c70 0 108 -48 108 -101v-2c0 -53 -38 -102 -108 -102z" />
    <glyph glyph-name="hyphen.tab" horiz-adv-x="362" 
d="M29 279v142h304v-142h-304z" />
    <glyph glyph-name="endash.tab" horiz-adv-x="724" 
d="M80 281v138h564v-138h-564z" />
    <glyph glyph-name="underscore.tab" horiz-adv-x="724" 
d="M-6 -198v123h736v-123h-736z" />
    <glyph glyph-name="slash.tab" horiz-adv-x="543" 
d="M43 -128l322 956h136l-322 -956h-136z" />
    <glyph glyph-name="bar.tab" horiz-adv-x="543" 
d="M203 -128v956h136v-956h-136z" />
    <glyph glyph-name="numbersign.tab" horiz-adv-x="724" 
d="M72 0l26 129h-89v115h112l43 211h-113v116h137l26 129h132l-26 -129h174l26 129h132l-26 -129h89v-116h-113l-43 -211h114v-115h-137l-26 -129h-132l26 129h-174l-26 -129h-132zM253 244h174l43 211h-174z" />
    <glyph glyph-name="percent.tab" horiz-adv-x="1086" 
d="M255 332c-126 0 -204 69 -204 185c0 119 79 191 205 191c125 0 204 -70 204 -189c0 -115 -81 -187 -205 -187zM158 1l313 350l313 349h144v-1l-313 -349l-313 -350h-144v1zM256 433c51 0 85 28 85 85c0 58 -35 87 -86 87c-50 0 -86 -28 -86 -86c0 -57 36 -86 87 -86z
M831 368c126 0 204 -69 204 -185c0 -118 -79 -191 -205 -191c-125 0 -204 70 -204 189c0 115 81 187 205 187zM830 267c-50 0 -85 -28 -85 -85s36 -87 86 -87s86 28 86 86s-36 86 -87 86z" />
    <glyph glyph-name="degree.tab" horiz-adv-x="634" 
d="M317 268c-142 0 -235 87 -235 220s93 220 235 220s235 -87 235 -220s-93 -220 -235 -220zM317 378c65 0 107 41 107 110s-42 110 -107 110s-107 -41 -107 -110s42 -110 107 -110z" />
    <glyph glyph-name="quotedbl.tab" horiz-adv-x="634" 
d="M102 395v305h181v-15l-102 -290h-79zM372 395v305h181v-15l-102 -290h-79z" />
    <glyph glyph-name="quotesingle.tab" horiz-adv-x="362" 
d="M102 395v305h181v-15l-102 -290h-79z" />
    <glyph glyph-name="plus.tab" horiz-adv-x="724" 
d="M90 285v130h203v207h138v-207h203v-130h-203v-207h-138v207h-203z" />
    <glyph glyph-name="minus.tab" horiz-adv-x="724" 
d="M110 281v138h504v-138h-504z" />
    <glyph glyph-name="equal.tab" horiz-adv-x="724" 
d="M90 419v130h544v-130h-544zM90 151v130h544v-130h-544z" />
    <glyph glyph-name="divide.tab" horiz-adv-x="724" 
d="M361 652c60 0 95 -39 95 -86v-1c0 -47 -35 -86 -94 -86c-60 0 -95 39 -95 86v1c0 47 35 86 94 86zM70 285v130h584v-130h-584zM363 48c-60 0 -95 39 -95 86v1c0 47 35 86 94 86c60 0 95 -39 95 -86v-1c0 -47 -35 -86 -94 -86z" />
    <glyph glyph-name="multiply.tab" horiz-adv-x="724" 
d="M96 525l91 91l175 -175l175 175l91 -91l-175 -175l175 -175l-91 -91l-175 175l-175 -175l-91 91l175 175z" />
    <glyph glyph-name="dotmath.tab" horiz-adv-x="362" 
d="M181 247c-72 0 -109 49 -109 102v2c0 53 37 101 109 101c70 0 108 -48 108 -101v-2c0 -53 -38 -102 -108 -102z" />
    <glyph glyph-name="plusminus.tab" horiz-adv-x="724" 
d="M115 421v130h178v177h138v-177h178v-130h-178v-177h-138v177h-178zM115 28v122h494v-122h-494z" />
    <glyph glyph-name="less.tab" horiz-adv-x="724" 
d="M581 65l-454 214v142l454 212v-146l-303 -137l303 -139v-146z" />
    <glyph glyph-name="greater.tab" horiz-adv-x="724" 
d="M143 635l454 -214v-142l-454 -212v146l303 137l-303 139v146z" />
    <glyph glyph-name="asciicircum.tab" horiz-adv-x="724" 
d="M68 354l193 346h196l199 -346h-159l-116 209h-46l-111 -209h-156z" />
    <glyph glyph-name="asciitilde.tab" horiz-adv-x="724" 
d="M80 394c43 41 90 75 157 75c61 0 101 -23 156 -56c54 -32 69 -37 96 -37c49 0 91 35 153 108h1v-178c-43 -41 -90 -75 -157 -75c-61 0 -101 23 -156 56c-54 32 -69 37 -96 37c-49 0 -91 -35 -153 -108h-1v178z" />
    <glyph glyph-name="onehalf.tab" horiz-adv-x="1086" 
d="M408 384v-93h-324v93h109v222h-113l15 94h217v-316h96zM255 1l504 699h122v-1l-504 -699h-122v1zM693 0v94l134 103c83 64 91 75 91 92c0 23 -21 32 -50 32c-42 0 -95 -19 -157 -63h-1v110c58 38 112 53 167 53c106 0 159 -47 159 -122c0 -67 -44 -97 -145 -173l-39 -29
h183v-97h-342z" />
    <glyph glyph-name="onethird.tab" horiz-adv-x="1086" 
d="M408 384v-93h-324v93h109v222h-113l15 94h217v-316h96zM243 1l504 699h122v-1l-504 -699h-122v1zM848 -12c-60 0 -107 12 -152 26v103c49 -18 97 -33 139 -33c50 0 86 11 86 42c0 30 -24 42 -134 42h-13v54l119 92h-195l3 95h321v-93l-104 -81c76 -13 121 -48 121 -112
c0 -86 -80 -135 -191 -135z" />
    <glyph glyph-name="twothirds.tab" horiz-adv-x="1086" 
d="M61 291v94l134 103c83 64 91 75 91 92c0 23 -21 32 -50 32c-42 0 -95 -19 -157 -63h-1v110c58 38 112 53 167 53c106 0 159 -47 159 -122c0 -67 -44 -97 -145 -173l-39 -29h183v-97h-342zM238 1l504 699h122v-1l-504 -699h-122v1zM848 -12c-60 0 -107 12 -152 26v103
c49 -18 97 -33 139 -33c50 0 86 11 86 42c0 30 -24 42 -134 42h-13v54l119 92h-195l3 95h321v-93l-104 -81c76 -13 121 -48 121 -112c0 -86 -80 -135 -191 -135z" />
    <glyph glyph-name="onequarter.tab" horiz-adv-x="1086" 
d="M408 384v-93h-324v93h109v222h-113l15 94h217v-316h96zM254 1l504 699h122v-1l-504 -699h-122v1zM896 0v79h-236v87l108 243h235v-236h62l-5 -94h-57v-79h-107zM776 171h122v145h-60z" />
    <glyph glyph-name="threequarters.tab" horiz-adv-x="1086" 
d="M216 279c-60 0 -107 12 -152 26v103c49 -18 97 -33 139 -33c50 0 86 11 86 42c0 30 -24 42 -134 42h-13v54l119 92h-195l3 95h321v-93l-104 -81c76 -13 121 -48 121 -112c0 -86 -80 -135 -191 -135zM235 1l504 699h122v-1l-504 -699h-122v1zM896 0v79h-236v87l108 243
h235v-236h62l-5 -94h-57v-79h-107zM776 171h122v145h-60z" />
    <glyph glyph-name="uni2155.tab" horiz-adv-x="1086" 
d="M408 384v-93h-324v93h109v222h-113l15 94h217v-316h96zM245 1l504 699h122v-1l-504 -699h-122v1zM859 -12c-69 0 -115 10 -159 24v103h1c44 -18 95 -30 156 -30c56 0 67 25 67 43c0 9 -2 14 -8 20c-13 13 -46 17 -137 17h-72l6 244h302l4 -97h-202l-1 -59h7
c102 0 155 -11 188 -44c19 -19 31 -44 31 -82c0 -85 -71 -139 -183 -139z" />
    <glyph glyph-name="uni2156.tab" horiz-adv-x="1086" 
d="M61 291v94l134 103c83 64 91 75 91 92c0 23 -21 32 -50 32c-42 0 -95 -19 -157 -63h-1v110c58 38 112 53 167 53c106 0 159 -47 159 -122c0 -67 -44 -97 -145 -173l-39 -29h183v-97h-342zM245 1l504 699h122v-1l-504 -699h-122v1zM859 -12c-69 0 -115 10 -159 24v103h1
c44 -18 95 -30 156 -30c56 0 67 25 67 43c0 9 -2 14 -8 20c-13 13 -46 17 -137 17h-72l6 244h302l4 -97h-202l-1 -59h7c102 0 155 -11 188 -44c19 -19 31 -44 31 -82c0 -85 -71 -139 -183 -139z" />
    <glyph glyph-name="uni2157.tab" horiz-adv-x="1086" 
d="M216 279c-60 0 -107 12 -152 26v103c49 -18 97 -33 139 -33c50 0 86 11 86 42c0 30 -24 42 -134 42h-13v54l119 92h-195l3 95h321v-93l-104 -81c76 -13 121 -48 121 -112c0 -86 -80 -135 -191 -135zM224 1l504 699h122v-1l-504 -699h-122v1zM859 -12
c-69 0 -115 10 -159 24v103h1c44 -18 95 -30 156 -30c56 0 67 25 67 43c0 9 -2 14 -8 20c-13 13 -46 17 -137 17h-72l6 244h302l4 -97h-202l-1 -59h7c102 0 155 -11 188 -44c19 -19 31 -44 31 -82c0 -85 -71 -139 -183 -139z" />
    <glyph glyph-name="uni2158.tab" horiz-adv-x="1086" 
d="M264 291v79h-236v87l108 243h235v-236h62l-5 -94h-57v-79h-107zM240 1l504 699h122v-1l-504 -699h-122v1zM144 462h122v145h-60zM859 -12c-69 0 -115 10 -159 24v103h1c44 -18 95 -30 156 -30c56 0 67 25 67 43c0 9 -2 14 -8 20c-13 13 -46 17 -137 17h-72l6 244h302
l4 -97h-202l-1 -59h7c102 0 155 -11 188 -44c19 -19 31 -44 31 -82c0 -85 -71 -139 -183 -139z" />
    <glyph glyph-name="uni2159.tab" horiz-adv-x="1086" 
d="M408 384v-93h-324v93h109v222h-113l15 94h217v-316h96zM255 1l504 699h122v-1l-504 -699h-122v1zM866 -12c-121 0 -190 68 -190 208c0 143 86 224 215 224c50 0 87 -7 129 -22v-98h-1c-44 18 -79 27 -123 27c-58 0 -105 -25 -109 -91c30 17 75 27 113 27
c83 0 146 -35 146 -124c0 -99 -79 -151 -180 -151zM878 177c-33 0 -67 -8 -91 -21c4 -58 37 -77 79 -77c43 0 71 19 71 54s-27 44 -59 44z" />
    <glyph glyph-name="uni215A.tab" horiz-adv-x="1086" 
d="M227 279c-69 0 -115 10 -159 24v103h1c44 -18 95 -30 156 -30c56 0 67 25 67 43c0 9 -2 14 -8 20c-13 13 -46 17 -137 17h-72l6 244h302l4 -97h-202l-1 -59h7c102 0 155 -11 188 -44c19 -19 31 -44 31 -82c0 -85 -71 -139 -183 -139zM240 1l504 699h122v-1l-504 -699
h-122v1zM866 -12c-121 0 -190 68 -190 208c0 143 86 224 215 224c50 0 87 -7 129 -22v-98h-1c-44 18 -79 27 -123 27c-58 0 -105 -25 -109 -91c30 17 75 27 113 27c83 0 146 -35 146 -124c0 -99 -79 -151 -180 -151zM878 177c-33 0 -67 -8 -91 -21c4 -58 37 -77 79 -77
c43 0 71 19 71 54s-27 44 -59 44z" />
    <glyph glyph-name="oneeighth.tab" horiz-adv-x="1086" 
d="M408 384v-93h-324v93h109v222h-113l15 94h217v-316h96zM247 1l504 699h122v-1l-504 -699h-122v1zM859 -12c-128 0 -188 45 -188 120c0 47 23 79 82 99c-49 17 -72 44 -72 90c0 72 59 123 178 123s178 -51 178 -123c0 -46 -23 -73 -72 -90c59 -20 82 -52 82 -99
c0 -75 -60 -120 -188 -120zM859 243c45 0 69 15 69 42c0 30 -22 47 -69 47s-69 -17 -69 -47c0 -27 24 -42 69 -42zM859 75c52 0 75 19 75 47c0 29 -25 47 -75 47s-75 -18 -75 -47c0 -28 23 -47 75 -47z" />
    <glyph glyph-name="threeeighths.tab" horiz-adv-x="1086" 
d="M216 279c-60 0 -107 12 -152 26v103c49 -18 97 -33 139 -33c50 0 86 11 86 42c0 30 -24 42 -134 42h-13v54l119 92h-195l3 95h321v-93l-104 -81c76 -13 121 -48 121 -112c0 -86 -80 -135 -191 -135zM228 1l504 699h122v-1l-504 -699h-122v1zM859 -12
c-128 0 -188 45 -188 120c0 47 23 79 82 99c-49 17 -72 44 -72 90c0 72 59 123 178 123s178 -51 178 -123c0 -46 -23 -73 -72 -90c59 -20 82 -52 82 -99c0 -75 -60 -120 -188 -120zM859 243c45 0 69 15 69 42c0 30 -22 47 -69 47s-69 -17 -69 -47c0 -27 24 -42 69 -42z
M859 75c52 0 75 19 75 47c0 29 -25 47 -75 47s-75 -18 -75 -47c0 -28 23 -47 75 -47z" />
    <glyph glyph-name="fiveeighths.tab" horiz-adv-x="1086" 
d="M227 279c-69 0 -115 10 -159 24v103h1c44 -18 95 -30 156 -30c56 0 67 25 67 43c0 9 -2 14 -8 20c-13 13 -46 17 -137 17h-72l6 244h302l4 -97h-202l-1 -59h7c102 0 155 -11 188 -44c19 -19 31 -44 31 -82c0 -85 -71 -139 -183 -139zM230 1l504 699h122v-1l-504 -699
h-122v1zM859 -12c-128 0 -188 45 -188 120c0 47 23 79 82 99c-49 17 -72 44 -72 90c0 72 59 123 178 123s178 -51 178 -123c0 -46 -23 -73 -72 -90c59 -20 82 -52 82 -99c0 -75 -60 -120 -188 -120zM859 243c45 0 69 15 69 42c0 30 -22 47 -69 47s-69 -17 -69 -47
c0 -27 24 -42 69 -42zM859 75c52 0 75 19 75 47c0 29 -25 47 -75 47s-75 -18 -75 -47c0 -28 23 -47 75 -47z" />
    <glyph glyph-name="seveneighths.tab" horiz-adv-x="1086" 
d="M59 536v164h350v-125l-167 -284h-126l171 291v24h-122v-70h-106zM200 1l504 699h122v-1l-504 -699h-122v1zM859 -12c-128 0 -188 45 -188 120c0 47 23 79 82 99c-49 17 -72 44 -72 90c0 72 59 123 178 123s178 -51 178 -123c0 -46 -23 -73 -72 -90c59 -20 82 -52 82 -99
c0 -75 -60 -120 -188 -120zM859 243c45 0 69 15 69 42c0 30 -22 47 -69 47s-69 -17 -69 -47c0 -27 24 -42 69 -42zM859 75c52 0 75 19 75 47c0 29 -25 47 -75 47s-75 -18 -75 -47c0 -28 23 -47 75 -47z" />
    <glyph glyph-name="uni25A0" unicode="&#x25a0;" horiz-adv-x="1117" 
d="M172 -29v758h773v-758h-773z" />
    <glyph glyph-name="uni25E9" unicode="&#x25e9;" horiz-adv-x="1117" 
d="M172 -29v758h773v-758h-773zM305 95h504v506z" />
    <glyph glyph-name="uni25A1" unicode="&#x25a1;" horiz-adv-x="1117" 
d="M172 -29v758h773v-758h-773zM310 96h497v508h-497v-508z" />
    <glyph glyph-name="uni2611" unicode="&#x2611;" horiz-adv-x="1117" 
d="M430 258l274 628h194l-341 -628h-127zM172 -29v758h394l-59 -124h-197v-509h497v489l79 144h59v-758h-773z" />
    <glyph glyph-name="circle.solid" unicode="&#x25cf;" horiz-adv-x="1078" 
d="M539 -46c-253 0 -413 156 -413 396c0 239 160 396 413 396c254 0 413 -156 413 -396c0 -239 -160 -396 -413 -396z" />
    <glyph glyph-name="circle.half" unicode="&#x25d0;" horiz-adv-x="1078" 
d="M539 -46c-253 0 -413 156 -413 396c0 239 160 396 413 396c254 0 413 -156 413 -396c0 -239 -160 -396 -413 -396zM534 77c173 0 275 108 275 273s-102 273 -275 273v-546z" />
    <glyph glyph-name="circle.open" unicode="&#x25cb;" horiz-adv-x="1078" 
d="M539 -46c-253 0 -413 156 -413 396c0 239 160 396 413 396c254 0 413 -156 413 -396c0 -239 -160 -396 -413 -396zM539 82c170 0 268 103 268 268s-98 268 -268 268s-268 -103 -268 -268s98 -268 268 -268z" />
    <glyph glyph-name="circle.checked" unicode="&#x2299;" horiz-adv-x="1078" 
d="M539 -46c-253 0 -413 156 -413 396c0 239 160 396 413 396c254 0 413 -156 413 -396c0 -239 -160 -396 -413 -396zM539 82c170 0 268 103 268 268s-98 268 -268 268s-268 -103 -268 -268s98 -268 268 -268zM539 219c-82 0 -131 51 -131 131s49 131 131 131
c83 0 131 -51 131 -131s-48 -131 -131 -131z" />
    <glyph glyph-name="uni25AA" unicode="&#x25aa;" horiz-adv-x="808" 
d="M172 123v454h464v-454h-464z" />
    <glyph glyph-name="uni25AB" unicode="&#x25ab;" horiz-adv-x="808" 
d="M172 123v454h464v-454h-464zM299 240h210v220h-210v-220z" />
    <glyph glyph-name="uniE000" unicode="&#xe000;" horiz-adv-x="782" 
d="M390 105c-155 0 -254 97 -254 245c0 147 99 245 254 245c158 0 256 -97 256 -245c0 -147 -99 -245 -256 -245z" />
    <glyph glyph-name="uniE001" unicode="&#xe001;" horiz-adv-x="782" 
d="M390 105c-155 0 -254 97 -254 245c0 147 99 245 254 245c158 0 256 -97 256 -245c0 -147 -99 -245 -256 -245zM390 228c78 0 123 48 123 122s-45 122 -123 122c-76 0 -121 -48 -121 -122s45 -122 121 -122z" />
    <glyph glyph-name="uniE02A" unicode="&#xe02a;" horiz-adv-x="1072" 
d="M839 735l103 -98l-78 -96l80 -96l-80 -96l80 -96l-80 -96l78 -96l-103 -98l-101 78l-101 -80l-101 80l-101 -80l-101 80l-101 -78l-103 98l78 96l-80 96l80 96l-80 96l80 96l-78 96l103 98l101 -78l101 80l101 -80l101 80l101 -80z" />
    <glyph glyph-name="uni2600" unicode="&#x2600;" horiz-adv-x="1039" 
d="M933 371v-34l-146 -73l58 -157l-24 -28l-157 39l-60 -158l-34 -7l-96 131l-147 -83l-28 18l9 162l-166 30l-12 33l114 117l-110 130l12 34l165 17l-3 168l32 18l136 -90l107 129l36 -7l46 -157l164 31l23 -28l-65 -150z" />
    <glyph glyph-name="uni2735" unicode="&#x2735;" horiz-adv-x="979" 
d="M903 371v-34l-214 -49l126 -181l-24 -28l-194 100l-23 -219l-34 -7l-85 200l-158 -152l-28 18l61 207l-218 -15l-12 33l182 117l-178 130l12 34l216 -28l-54 213l32 18l146 -159l97 198l36 -7l9 -217l201 91l23 -28l-133 -174z" />
    <glyph glyph-name="uni263C" unicode="&#x263c;" horiz-adv-x="1039" 
d="M933 371v-34l-146 -73l58 -157l-24 -28l-157 39l-60 -158l-34 -7l-96 131l-147 -83l-28 18l9 162l-166 30l-12 33l114 117l-110 130l12 34l165 17l-3 168l32 18l136 -90l107 129l36 -7l46 -157l164 31l23 -28l-65 -150zM681 362c0 82 -56 149 -154 149
s-154 -67 -154 -149s56 -149 154 -149s154 67 154 149z" />
    <glyph glyph-name="uni2605" unicode="&#x2605;" horiz-adv-x="1050" 
d="M642 499l302 5l19 -49l-248 -166l105 -289l-43 -29l-252 191l-253 -191l-42 29l105 289l-248 166l19 49l302 -5l92 286h50z" />
    <glyph glyph-name="uni272B" unicode="&#x272b;" horiz-adv-x="1050" 
d="M642 499l302 5l19 -49l-248 -166l105 -289l-43 -29l-252 191l-253 -191l-42 29l105 289l-248 166l19 49l302 -5l92 286h50zM525 236l122 117l-122 117l-122 -117z" />
    <glyph glyph-name="uniE027" unicode="&#xe027;" horiz-adv-x="1000" 
d="M500 532c-58 0 -96 36 -96 92c0 55 38 92 96 92c59 0 96 -37 96 -92c0 -56 -37 -92 -96 -92zM250 395c-58 0 -96 36 -96 92c0 55 38 92 96 92c59 0 96 -37 96 -92c0 -56 -37 -92 -96 -92zM750 395c-58 0 -96 36 -96 92c0 55 38 92 96 92c59 0 96 -37 96 -92
c0 -56 -37 -92 -96 -92zM500 253c-61 0 -101 38 -101 97c0 58 40 97 101 97c62 0 101 -39 101 -97c0 -59 -39 -97 -101 -97zM250 121c-58 0 -96 36 -96 92c0 55 38 92 96 92c59 0 96 -37 96 -92c0 -56 -37 -92 -96 -92zM750 121c-58 0 -96 36 -96 92c0 55 38 92 96 92
c59 0 96 -37 96 -92c0 -56 -37 -92 -96 -92zM500 -16c-58 0 -96 36 -96 92c0 55 38 92 96 92c59 0 96 -37 96 -92c0 -56 -37 -92 -96 -92z" />
    <glyph glyph-name="uniE002" unicode="&#xe002;" horiz-adv-x="1100" 
d="M270 524c-57 0 -94 35 -94 90c0 54 37 90 94 90c58 0 94 -36 94 -90c0 -55 -36 -90 -94 -90zM550 524c-57 0 -94 35 -94 90c0 54 37 90 94 90c58 0 94 -36 94 -90c0 -55 -36 -90 -94 -90zM830 524c-57 0 -94 35 -94 90c0 54 37 90 94 90c58 0 94 -36 94 -90
c0 -55 -36 -90 -94 -90zM270 260c-57 0 -94 35 -94 90c0 54 37 90 94 90c58 0 94 -36 94 -90c0 -55 -36 -90 -94 -90zM550 260c-57 0 -94 35 -94 90c0 54 37 90 94 90c58 0 94 -36 94 -90c0 -55 -36 -90 -94 -90zM830 260c-57 0 -94 35 -94 90c0 54 37 90 94 90
c58 0 94 -36 94 -90c0 -55 -36 -90 -94 -90zM270 -4c-57 0 -94 35 -94 90c0 54 37 90 94 90c58 0 94 -36 94 -90c0 -55 -36 -90 -94 -90zM550 -4c-57 0 -94 35 -94 90c0 54 37 90 94 90c58 0 94 -36 94 -90c0 -55 -36 -90 -94 -90zM830 -4c-57 0 -94 35 -94 90
c0 54 37 90 94 90c58 0 94 -36 94 -90c0 -55 -36 -90 -94 -90z" />
    <glyph glyph-name="uni2795" unicode="&#x2795;" horiz-adv-x="1020" 
d="M115 287v131h326v322h138v-322h326v-131h-326v-327h-138v327h-326z" />
    <glyph glyph-name="uni2731" unicode="&#x2731;" horiz-adv-x="1020" 
d="M261 24l-90 92l177 173l-236 -2v127l240 -2l-176 172l87 91l182 -187l-2 252h134l-2 -254l185 190l89 -93l-175 -171l234 2v-127l-238 2l178 -174l-88 -90l-185 190l2 -255h-134l2 253z" />
    <glyph glyph-name="uni274C" unicode="&#x274c;" horiz-adv-x="1020" 
d="M223 -18l-94 96l286 272l-286 273l91 95l288 -280l288 280l93 -97l-286 -272l286 -273l-92 -94l-287 279z" />
    <glyph glyph-name="uni261A" unicode="&#x261a;" horiz-adv-x="1750" 
d="M1575 76l-400 88l-380 -131c-12 -4 -30 -3 -41 4l-18 10c-22 14 -24 30 -15 71l-34 -11c-12 -4 -31 -3 -42 3l-28 14c-22 10 -23 30 -13 77l-36 -16c-11 -5 -30 -4 -41 2l-34 20c-11 6 -19 19 -15 34l42 172l-250 -21c-119 -10 -190 53 -168 119l598 78c28 4 52 7 64 7
c14 0 36 -2 61 -5l750 -77v-438z" />
    <glyph glyph-name="uni261B" unicode="&#x261b;" horiz-adv-x="1750" 
d="M955 33l-378 131l-402 -88v438l750 77c25 3 47 5 61 5c12 0 36 -3 64 -7l598 -78c22 -66 -49 -129 -168 -119l-250 21l42 -172c4 -15 -4 -28 -15 -34l-34 -20c-11 -6 -30 -7 -41 -2l-36 16c10 -47 9 -67 -13 -77l-28 -14c-11 -6 -30 -7 -42 -3l-34 11
c9 -41 7 -57 -15 -71l-18 -10c-11 -7 -29 -8 -41 -4z" />
    <glyph glyph-name="uni2190" unicode="&#x2190;" horiz-adv-x="1020" 
d="M373 433l506 2v-138l-503 2l258 -226h-199l-331 293l331 293h199z" />
    <glyph glyph-name="uni2192" unicode="&#x2192;" horiz-adv-x="1020" 
d="M647 297l-506 -2v138l503 -2l-258 226h199l331 -293l-331 -293h-199z" />
    <glyph glyph-name="uni2191" unicode="&#x2191;" horiz-adv-x="890" 
d="M373 -22l2 507l-234 -262v199l304 331l304 -331v-198l-234 259l2 -505h-144z" />
    <glyph glyph-name="uni2193" unicode="&#x2193;" horiz-adv-x="890" 
d="M445 -53l-304 331v198l234 -259l-2 505h144l-2 -507l234 262v-199z" />
    <glyph glyph-name="uniE003" unicode="&#xe003;" horiz-adv-x="1020" 
d="M537 23l-453 343l453 343l18 -10l-8 -216l342 7v-248l-342 7l8 -216z" />
    <glyph glyph-name="uni27A1" unicode="&#x27a1;" horiz-adv-x="1020" 
d="M483 23l-18 10l8 216l-342 -7v248l342 -7l-8 216l18 10l453 -343z" />
    <glyph glyph-name="uniE004" unicode="&#xe004;" horiz-adv-x="910" 
d="M325 -22l8 317l-222 -3l-10 18l354 443l354 -443l-10 -18l-222 3l8 -317h-260z" />
    <glyph glyph-name="uniE005" unicode="&#xe005;" horiz-adv-x="910" 
d="M455 -53l-354 443l10 18l222 -3l-8 317h260l-8 -317l222 3l10 -18z" />
    <glyph glyph-name="uni21A2" unicode="&#x21a2;" horiz-adv-x="2050" 
d="M689 112l-610 252l610 252v-10l-80 -176h656l154 114h516l-207 -180l207 -180h-516l-154 114h-656l80 -176v-10z" />
    <glyph glyph-name="uni21A3" unicode="&#x21a3;" horiz-adv-x="2050" 
d="M1361 112v10l80 176h-656l-154 -114h-516l207 180l-207 180h516l154 -114h656l-80 176v10l610 -252z" />
    <glyph glyph-name="uni25C0" unicode="&#x25c0;" horiz-adv-x="1050" 
d="M881 -34l-782 379v10l782 379v-768z" />
    <glyph glyph-name="uni25B6" unicode="&#x25b6;" horiz-adv-x="1050" 
d="M169 734l782 -379v-10l-782 -379v768z" />
    <glyph glyph-name="uni25B2" unicode="&#x25b2;" horiz-adv-x="1000" 
d="M116 -29l379 782h10l379 -782h-768z" />
    <glyph glyph-name="uni25BC" unicode="&#x25bc;" horiz-adv-x="1000" 
d="M884 729l-379 -782h-10l-379 782h768z" />
    <glyph glyph-name="uni25B4" unicode="&#x25b4;" horiz-adv-x="924" 
d="M467 793l357 -429h-724l357 429h10z" />
    <glyph glyph-name="uni25BE" unicode="&#x25be;" horiz-adv-x="924" 
d="M457 -66l-357 429h724l-357 -429h-10z" />
    <glyph glyph-name="uni25C2" unicode="&#x25c2;" horiz-adv-x="1010" 
d="M842 93l-733 267v12l733 267v-546z" />
    <glyph glyph-name="uni25B8" unicode="&#x25b8;" horiz-adv-x="1010" 
d="M168 639l733 -267v-12l-733 -267v546z" />
    <glyph glyph-name="uniE023" unicode="&#xe023;" horiz-adv-x="815" 
d="M550 -170l-446 504v12l446 504h190l-448 -508l448 -512h-190z" />
    <glyph glyph-name="uniE024" unicode="&#xe024;" horiz-adv-x="815" 
d="M75 -170l448 512l-448 508h190l446 -504v-12l-446 -504h-190z" />
    <glyph glyph-name="uniE023.open" unicode="&#x276c;" horiz-adv-x="921" 
d="M480 -170l-406 504v12l406 504h269v-1020h-269zM542 -33h68v746h-68l-294 -376z" />
    <glyph glyph-name="uniE024.open" unicode="&#x276d;" horiz-adv-x="921" 
d="M172 -170v1020h269l406 -504v-12l-406 -504h-269zM311 -33h68l294 376l-294 370h-68v-746z" />
    <glyph glyph-name="uniE023.solid" unicode="&#x2770;" horiz-adv-x="921" 
d="M749 850v-1020h-279l-396 504v12l396 504h279z" />
    <glyph glyph-name="uniE024.solid" unicode="&#x2771;" horiz-adv-x="921" 
d="M172 -170v1020h279l396 -504v-12l-396 -504h-279z" />
    <glyph glyph-name="uniE006" unicode="&#xe006;" horiz-adv-x="1487" 
d="M145 159v414h987l245 -207l-245 -207h-987z" />
    <glyph glyph-name="uniE007" unicode="&#xe007;" horiz-adv-x="1487" 
d="M145 159v414h987l245 -207l-245 -207h-987zM287 289h803l86 77l-86 77h-803v-154z" />
    <glyph glyph-name="uniE008" unicode="&#xe008;" horiz-adv-x="1487" 
d="M145 159v414h987l245 -207l-245 -207h-987zM287 289h760v154h-760v-154z" />
    <glyph glyph-name="uniE009" unicode="&#xe009;" horiz-adv-x="1300" 
d="M145 232v268h1010v-268h-1010z" />
    <glyph glyph-name="uniE00A" unicode="&#xe00a;" horiz-adv-x="1300" 
d="M145 420v142h1010v-142h-1010zM145 170v142h1010v-142h-1010z" />
    <glyph glyph-name="uniE00B" unicode="&#xe00b;" horiz-adv-x="1300" 
d="M145 529v124h1010v-124h-1010zM145 306v120h1010v-120h-1010zM145 79v124h1010v-124h-1010z" />
    <glyph glyph-name="uniE00C" unicode="&#xe00c;" horiz-adv-x="1098" 
d="M549 130c-234 0 -360 60 -360 129s126 128 360 128c235 0 360 -59 360 -128s-126 -129 -360 -129zM187 68v88h5c19 -45 123 -105 357 -105s338 60 357 105h5v-88c0 -69 -128 -129 -362 -129s-362 60 -362 129z" />
    <glyph glyph-name="uniE00D" unicode="&#xe00d;" horiz-adv-x="1098" 
d="M549 317c-234 0 -360 60 -360 129s126 128 360 128c235 0 360 -59 360 -128s-126 -129 -360 -129zM187 255v88h5c19 -45 123 -105 357 -105s338 60 357 105h5v-88c0 -69 -128 -129 -362 -129s-362 60 -362 129zM187 68v88h5c19 -45 123 -105 357 -105s338 60 357 105h5
v-88c0 -69 -128 -129 -362 -129s-362 60 -362 129z" />
    <glyph glyph-name="uniE00E" unicode="&#xe00e;" horiz-adv-x="1098" 
d="M549 504c-234 0 -360 60 -360 129s126 128 360 128c235 0 360 -59 360 -128s-126 -129 -360 -129zM187 442v88h5c19 -45 123 -105 357 -105s338 60 357 105h5v-88c0 -69 -128 -129 -362 -129s-362 60 -362 129zM187 255v88h5c19 -45 123 -105 357 -105s338 60 357 105h5
v-88c0 -69 -128 -129 -362 -129s-362 60 -362 129zM187 68v88h5c19 -45 123 -105 357 -105s338 60 357 105h5v-88c0 -69 -128 -129 -362 -129s-362 60 -362 129z" />
    <glyph glyph-name="uniE00F" unicode="&#xe00f;" horiz-adv-x="1098" 
d="M549 111l-404 145v18l404 145l404 -145v-18zM549 -76l-399 143v107l399 -143l399 143v-107z" />
    <glyph glyph-name="uniE010" unicode="&#xe010;" horiz-adv-x="1098" 
d="M549 292l-404 145v18l404 145l404 -145v-18zM549 105l-399 143v107l399 -143l399 143v-107zM549 -76l-399 143v107l399 -143l399 143v-107z" />
    <glyph glyph-name="uniE011" unicode="&#xe011;" horiz-adv-x="1098" 
d="M549 473l-404 145v18l404 145l404 -145v-18zM549 286l-399 143v107l399 -143l399 143v-107zM549 105l-399 143v107l399 -143l399 143v-107zM549 -76l-399 143v107l399 -143l399 143v-107z" />
    <glyph glyph-name="uni2295" unicode="&#x2295;" horiz-adv-x="1078" 
d="M539 -46c-253 0 -413 156 -413 396c0 239 160 396 413 396c254 0 413 -156 413 -396c0 -239 -160 -396 -413 -396zM310 294h171v-171h116v171h171v116h-171v171h-116v-171h-171v-116z" />
    <glyph glyph-name="uni2296" unicode="&#x2296;" horiz-adv-x="1078" 
d="M539 -46c-253 0 -413 156 -413 396c0 239 160 396 413 396c254 0 413 -156 413 -396c0 -239 -160 -396 -413 -396zM309 294h459v116h-459v-116z" />
    <glyph glyph-name="uniE012" unicode="&#xe012;" horiz-adv-x="1078" 
d="M539 -46c-253 0 -413 156 -413 396c0 239 160 396 413 396c254 0 413 -156 413 -396c0 -239 -160 -396 -413 -396zM366 561v-115c56 35 120 58 182 58c44 0 79 -11 79 -44c0 -26 -26 -53 -160 -82v-99h1c192 34 289 86 289 190c0 98 -93 139 -196 139
c-78 0 -138 -20 -195 -47zM525 69c52 0 83 32 83 74v1c0 42 -31 73 -83 73c-53 0 -84 -31 -84 -73v-1c0 -42 31 -74 84 -74z" />
    <glyph glyph-name="uniE013" unicode="&#xe013;" horiz-adv-x="1078" 
d="M539 -46c-253 0 -413 156 -413 396c0 239 160 396 413 396c254 0 413 -156 413 -396c0 -239 -160 -396 -413 -396zM491 297h97l36 304v9h-170v-9zM540 69c52 0 83 32 83 74v1c0 42 -31 73 -83 73c-53 0 -84 -31 -84 -73v-1c0 -42 31 -74 84 -74z" />
    <glyph glyph-name="uni2297" unicode="&#x2297;" horiz-adv-x="1078" 
d="M539 -46c-253 0 -413 156 -413 396c0 239 160 396 413 396c254 0 413 -156 413 -396c0 -239 -160 -396 -413 -396zM311 204l83 -82l146 147l146 -147l82 82l-147 146l147 146l-82 82l-146 -147l-146 147l-83 -82l148 -146z" />
    <glyph glyph-name="uni2612" unicode="&#x2612;" horiz-adv-x="1117" 
d="M172 -29v758h773v-758h-773zM389 98l170 171l169 -171l83 82l-171 170l171 170l-83 82l-169 -171l-170 171l-83 -82l171 -170l-171 -170z" />
    <glyph glyph-name="uniE014" unicode="&#xe014;" horiz-adv-x="1079" 
d="M358 -36l-212 212v348l212 212h363l212 -212v-348l-212 -212h-363zM309 294h459v116h-459v-116z" />
    <glyph glyph-name="uni1F6AB" unicode="&#x1f6ab;" horiz-adv-x="1078" 
d="M539 -46c-253 0 -413 156 -413 396c0 239 160 396 413 396c254 0 413 -156 413 -396c0 -239 -160 -396 -413 -396zM269 346c0 -50 9 -95 27 -133l196 186l197 186c-41 22 -91 34 -150 34c-170 0 -270 -104 -270 -273zM539 81c170 0 270 104 270 273c0 50 -9 95 -27 132
l-195 -185l-196 -186c40 -22 90 -34 148 -34z" />
    <glyph glyph-name="uni260E" unicode="&#x260e;" horiz-adv-x="1158" 
d="M958 -29h-758l-22 196l133 251h-169c-19 40 -29 76 -29 111c0 135 151 217 466 217s466 -82 466 -217c0 -35 -10 -71 -29 -111h-169l133 -251zM766 579h-374l-11 -95c52 9 122 18 198 18c77 0 147 -9 198 -18zM738 250c0 64 -57 117 -159 117s-160 -53 -160 -117
c0 -65 58 -117 160 -117s159 52 159 117z" />
    <glyph glyph-name="uni1F4F1" unicode="&#x1f4f1;" horiz-adv-x="917" 
d="M311 -42c-99 0 -139 40 -139 139v506c0 99 40 139 139 139h295c99 0 139 -40 139 -139v-506c0 -99 -40 -139 -139 -139h-295zM378 68h160c27 0 43 17 43 43s-16 42 -43 42h-160c-27 0 -43 -16 -43 -42s16 -43 43 -43z" />
    <glyph glyph-name="uniE015" unicode="&#xe015;" horiz-adv-x="1034" 
d="M167 -29v758h476l254 -235v-523h-730zM305 96h457v315h-201v196h-256v-511z" />
    <glyph glyph-name="uni2709" unicode="&#x2709;" horiz-adv-x="1417" 
d="M172 -29v758h1073v-758h-1073zM706 362l262 239h-522zM304 300l-2 -120l195 212l-195 182l2 -118v-156zM1115 574l-194 -180l194 -207l-2 113v156zM708 196l-125 116l-203 -220l88 2h481l86 -2l-203 220z" />
    <glyph glyph-name="uniE015.next" unicode="&#x2398;" horiz-adv-x="1082" 
d="M307 146h-130v583h555l10 -116h-435v-467zM417 -29v536h503v-536h-503zM553 92h231v297h-231v-297z" />
    <glyph glyph-name="uniE015.previous" unicode="&#x2397;" horiz-adv-x="1082" 
d="M665 729v-536h-503v536h503zM529 608h-231v-297h231v297zM775 554h130v-583h-555l-10 116h435v467z" />
    <glyph glyph-name="uniE016" unicode="&#xe016;" horiz-adv-x="1135" 
d="M237 536c-58 0 -96 36 -96 92c0 55 38 92 96 92c59 0 96 -37 96 -92c0 -56 -37 -92 -96 -92zM432 568v120h550l-30 -120h-520zM237 258c-58 0 -96 36 -96 92c0 55 38 92 96 92c59 0 96 -37 96 -92c0 -56 -37 -92 -96 -92zM432 290v120h550l-30 -120h-520zM237 -20
c-58 0 -96 36 -96 92c0 55 38 92 96 92c59 0 96 -37 96 -92c0 -56 -37 -92 -96 -92zM432 12v120h550l-30 -120h-520z" />
    <glyph glyph-name="uni1F4C8" unicode="&#x1f4c8;" horiz-adv-x="1062" 
d="M730 -40v769h142v-769h-142zM440 -40v559h142v-559h-142zM150 -40v349h142v-349h-142z" />
    <glyph glyph-name="uni1F4C9" unicode="&#x1f4c9;" horiz-adv-x="1062" 
d="M190 -40v769h142v-769h-142zM480 -40v559h142v-559h-142zM770 -40v349h142v-349h-142z" />
    <glyph glyph-name="uniE021" unicode="&#xe021;" horiz-adv-x="1020" 
d="M406 549v128h208v-128h-208zM258 287v126h504v-126h-504zM105 25v126h810v-126h-810z" />
    <glyph glyph-name="uniE022" unicode="&#xe022;" horiz-adv-x="1020" 
d="M105 549v126h810v-126h-810zM258 287v126h504v-126h-504zM406 23v128h208v-128h-208z" />
    <glyph glyph-name="uni238C" unicode="&#x238c;" horiz-adv-x="1041" 
d="M388 272h160c121 0 218 37 216 163c2 124 -95 162 -216 162h-356l27 132h353c203 0 346 -95 344 -291c2 -197 -141 -298 -344 -298h-187l180 -158h-197l-241 224l239 224h199z" />
    <glyph glyph-name="uniE017" unicode="&#xe017;" horiz-adv-x="825" 
d="M197 85v656l29 12l484 -453v-10h-227l128 -272l-120 -56l-125 280l-159 -157h-10z" />
    <glyph glyph-name="uni1F553" unicode="&#x1f553;" horiz-adv-x="1078" 
d="M539 -46c-253 0 -413 156 -413 396c0 239 160 396 413 396c254 0 413 -156 413 -396c0 -239 -160 -396 -413 -396zM484 302l277 -176v133l-161 101v263h-116v-321z" />
    <glyph glyph-name="uniE028" unicode="&#xe028;" horiz-adv-x="796" 
d="M136 471c0 177 107 275 262 275c158 0 262 -97 262 -275v-242c0 -177 -105 -275 -262 -275c-155 0 -262 97 -262 275v242zM398 368c78 0 122 48 122 122s-44 122 -122 122c-76 0 -122 -48 -122 -122s46 -122 122 -122z" />
    <glyph glyph-name="uniE029" unicode="&#xe029;" horiz-adv-x="796" 
d="M398 -46c-158 0 -262 97 -262 275v242c0 177 105 275 262 275c155 0 262 -97 262 -275v-242c0 -177 -107 -275 -262 -275zM398 88c76 0 122 48 122 122s-46 122 -122 122c-78 0 -122 -48 -122 -122s44 -122 122 -122z" />
    <glyph glyph-name="uniE018" unicode="&#xe018;" horiz-adv-x="960" 
d="M248 214c-88 0 -150 55 -150 139c0 83 62 139 150 139c27 0 52 -5 72 -15l196 119v12c0 73 57 138 144 138c89 0 148 -55 148 -138c0 -84 -59 -138 -148 -138c-33 0 -62 8 -85 22l-184 -111c1 -9 2 -18 2 -28c0 -11 -1 -21 -3 -31l186 -114c23 14 51 22 84 22
c89 0 148 -55 148 -138c0 -84 -59 -138 -148 -138c-87 0 -144 64 -144 138v13l-198 123c-20 -9 -44 -14 -70 -14z" />
    <glyph glyph-name="uni1F50D" unicode="&#x1f50d;" horiz-adv-x="919" 
d="M459 112c-197 0 -330 130 -330 317c0 186 133 317 330 317c199 0 331 -127 331 -317c0 -111 -48 -202 -128 -258l136 -244l-129 -66l-137 257c-23 -4 -48 -6 -73 -6zM463 247c108 0 178 74 178 182s-70 182 -182 182c-111 0 -181 -74 -181 -182s68 -182 185 -182z" />
    <glyph glyph-name="uni1F517" unicode="&#x1f517;" horiz-adv-x="1462" 
d="M398 -15c-169 79 -272 189 -272 358c0 212 164 382 423 382c267 0 419 -152 419 -336c0 -38 -5 -67 -15 -104l-146 -21c10 29 15 77 15 107c0 138 -109 219 -269 219c-168 0 -274 -112 -274 -237c0 -130 89 -214 240 -282zM923 -24c-267 0 -419 152 -419 336
c0 38 5 67 15 104l146 21c-10 -29 -15 -77 -15 -107c0 -138 109 -219 269 -219c168 0 274 112 274 237c0 124 -89 208 -240 282l121 86c169 -85 272 -195 272 -358c0 -212 -164 -382 -423 -382z" />
    <glyph glyph-name="uni1F512" unicode="&#x1f512;" horiz-adv-x="1066" 
d="M147 -29v428h112v86c0 165 104 261 274 261s274 -96 274 -261v-86h112v-428h-772zM402 479v-80h262v80c0 82 -31 143 -131 143s-131 -61 -131 -143z" />
    <glyph glyph-name="uniE019" unicode="&#xe019;" horiz-adv-x="1078" 
d="M539 -46c-253 0 -413 156 -413 396c0 239 160 396 413 396c254 0 413 -156 413 -396c0 -239 -160 -396 -413 -396zM371 120h336v10l-122 233c60 17 95 63 95 116c0 73 -57 126 -141 126c-83 0 -141 -53 -141 -126c0 -53 35 -99 95 -116l-122 -233v-10z" />
    <glyph glyph-name="uni1F5DD" unicode="&#x1f5dd;" horiz-adv-x="853" 
d="M669 236v-206l-196 3v-73h-128v411c-126 14 -229 71 -229 183c0 130 141 192 293 192c151 0 293 -61 293 -192c0 -111 -104 -168 -229 -182v-139zM409 626c-89 0 -155 -26 -155 -72s66 -72 155 -72c88 0 155 26 155 72s-67 72 -155 72z" />
    <glyph glyph-name="uniE025" unicode="&#xe025;" horiz-adv-x="902" 
d="M197 -63v792h508v-792h-10l-244 223l-244 -223h-10z" />
    <glyph glyph-name="uni1F441" unicode="&#x1f441;" horiz-adv-x="978" 
d="M489 54c-173 0 -303 107 -423 296c120 189 250 296 423 296c174 0 303 -106 423 -296c-120 -190 -249 -296 -423 -296zM489 157c120 0 202 80 202 193c0 114 -81 193 -202 193c-119 0 -202 -80 -202 -193c0 -114 83 -193 202 -193zM489 265c-53 0 -85 33 -85 85
s32 85 85 85c54 0 85 -33 85 -85s-31 -85 -85 -85z" />
    <glyph glyph-name="uni1F4AC" unicode="&#x1f4ac;" horiz-adv-x="1098" 
d="M145 -53l-9 25c114 77 197 157 250 238c-151 37 -240 122 -240 238c0 152 160 298 413 298c254 0 413 -153 413 -296c0 -122 -55 -232 -277 -340c-124 -60 -300 -120 -550 -163z" />
    <glyph glyph-name="uniE026" unicode="&#xe026;" horiz-adv-x="1004" 
d="M502 751c144 0 225 -103 225 -247c0 -127 -81 -259 -225 -259s-225 132 -225 259c0 144 81 247 225 247zM898 -29h-792l10 123c5 60 28 85 137 108l75 16c47 -44 106 -70 174 -70s127 26 174 70l75 -16c109 -23 132 -48 137 -108z" />
    <glyph glyph-name="heart" unicode="&#x2665;" horiz-adv-x="1010" 
d="M503 601h4c32 92 101 145 190 145c97 0 199 -69 199 -224c0 -181 -185 -397 -388 -574h-6c-202 177 -388 393 -388 574c0 155 102 224 199 224c89 0 158 -53 190 -145z" />
    <glyph glyph-name="uni2302" unicode="&#x2302;" horiz-adv-x="1050" 
d="M879 -29h-708v489l354 293l354 -293v-489z" />
    <glyph glyph-name="uni1F4D5" unicode="&#x1f4d5;" horiz-adv-x="1019" 
d="M393 -29c-97 0 -151 48 -203 104c-33 36 -43 70 -43 120v357c0 59 14 111 46 143c25 25 64 35 106 35h464v-185h-4l-100 90h-347c-29 0 -43 -13 -41 -32c2 -15 11 -27 36 -49c37 -34 64 -45 108 -45h472v-538h-494z" />
    <glyph glyph-name="uni1F6D2" unicode="&#x1f6d2;" horiz-adv-x="1077" 
d="M76 608l5 121h228l31 -147h578l-51 -281l-598 -52l-74 359h-119zM334 -11c-72 0 -109 49 -109 102v2c0 53 37 101 109 101c70 0 108 -48 108 -101v-2c0 -53 -38 -102 -108 -102zM793 -11c-72 0 -109 49 -109 102v2c0 53 37 101 109 101c70 0 108 -48 108 -101v-2
c0 -53 -38 -102 -108 -102z" />
    <glyph glyph-name="uni2698" unicode="&#x2698;" horiz-adv-x="1060" 
d="M743 23c-42 0 -82 26 -101 74c-38 -26 -60 -58 -67 -137h-90c-7 79 -29 111 -67 137c-19 -48 -59 -74 -101 -74c-74 0 -157 56 -230 166v12c61 30 126 50 177 50c58 0 154 -21 220 -128l-14 153c-177 56 -244 124 -255 298l-8 127l12 6c56 -28 135 -81 188 -148
c29 85 73 164 120 204h6c47 -40 91 -119 120 -204c53 67 132 120 188 148l12 -6l-8 -127c-11 -174 -78 -242 -255 -298l-14 -153c66 107 162 128 220 128c51 0 116 -20 177 -50v-12c-73 -110 -156 -166 -230 -166z" />
    <glyph glyph-name="uniE01D" unicode="&#xe01d;" horiz-adv-x="1020" 
d="M441 -40l2 210l-183 -98l-20 116l-134 84v22l135 66l-86 183l15 28l212 -55l115 247h26l115 -247l212 55l15 -28l-86 -183l135 -66v-22l-134 -84l-20 -116l-183 98l2 -210h-138z" />
    <glyph glyph-name="uniE01E" unicode="&#xe01e;" horiz-adv-x="1020" 
d="M440 -40l1 125l-356 48l-5 16l183 157l-87 35l-5 14l171 140l-66 28l-5 14l228 226h22l228 -226l-5 -14l-65 -28l170 -140l-5 -14l-87 -35l183 -157l-5 -16l-356 -48l1 -125h-140z" />
    <glyph glyph-name="uniE01A" unicode="&#xe01a;" horiz-adv-x="1116" 
d="M329 7l-5 20l44 68l-228 183l-22 52l4 47l40 45l-4 62l19 39l52 28l17 63l32 31l61 9l38 53l38 16l62 -15l56 38h50l56 -38l62 15l38 -16l38 -53l61 -9l32 -31l17 -63l52 -28l19 -39l-4 -62l40 -45l4 -47l-22 -52l-228 -183l44 -68l-5 -20h-148l-71 -57h-20l-71 57h-148z
" />
    <glyph glyph-name="uni1F514" unicode="&#x1f514;" horiz-adv-x="1034" 
d="M121 91l10 113c3 31 17 41 44 68l47 46l20 120c16 135 92 206 181 233l13 83h162l13 -83c89 -27 165 -98 181 -233l20 -120l47 -46c27 -27 41 -37 44 -68l10 -113h-320c23 -18 35 -46 35 -75v-2c0 -53 -41 -100 -111 -100c-72 0 -111 47 -111 100v2c0 29 13 57 36 75
h-321z" />
    <glyph glyph-name="uni1F451" unicode="&#x1f451;" horiz-adv-x="1180" 
d="M228 112l-126 443l30 16l149 -130h20l25 190l32 6l118 -170h20l78 247h32l78 -247h20l118 170l32 -6l25 -190h20l149 130l30 -16l-126 -443h-724z" />
    <glyph glyph-name="uniE01F" unicode="&#xe01f;" horiz-adv-x="1000" 
d="M186 -29l64 442l-104 121l14 195h143l8 -116h108l8 116h146l8 -116h108l8 116h143l14 -195l-104 -121l64 -442h-628z" />
    <glyph glyph-name="uni1F6E1" unicode="&#x1f6e1;" horiz-adv-x="1020" 
d="M505 -53c-218 123 -361 271 -361 519c0 67 10 140 32 223c100 33 208 60 334 60s234 -27 334 -60c22 -83 32 -156 32 -223c0 -248 -143 -396 -361 -519h-10z" />
    <glyph glyph-name="uniE01B" unicode="&#xe01b;" horiz-adv-x="1020" 
d="M510 -68c-181 55 -372 174 -369 326c0 104 36 147 36 230c0 42 -16 79 -45 124l121 116c41 -23 77 -37 122 -37c51 0 85 24 125 71h20c40 -47 74 -71 125 -71c45 0 81 14 122 37l121 -116c-29 -45 -45 -82 -45 -124c0 -83 36 -126 36 -230c3 -152 -188 -271 -369 -326z
" />
    <glyph glyph-name="uniE01C" unicode="&#xe01c;" horiz-adv-x="870" 
d="M530 -40v321h-424v12l174 212l-174 212v12h562v-769h-138z" />
    <glyph glyph-name="uniE020" unicode="&#xe020;" horiz-adv-x="820" 
d="M618 -40h-138v311l-444 220v12l567 251h15v-794z" />
    <glyph glyph-name="uni2691" unicode="&#x2691;" horiz-adv-x="890" 
d="M688 -40h-138v371h-424v398h562v-769z" />
    <glyph glyph-name="hcoslug" unicode="&#xe10b;" horiz-adv-x="706" 
d="M56 -100v800h594v-800h-594zM231 156c42 0 76 14 104 45c33 -34 55 -45 85 -45c43 0 78 36 80 94l-7 2c-10 -17 -22 -29 -43 -29c-20 0 -37 12 -62 41c15 20 31 33 46 42c9 -15 25 -25 43 -25c28 0 50 23 50 54s-22 52 -50 52c-25 0 -44 -14 -60 -38c-2 27 -22 38 -49 37
c6 10 9 21 9 34c0 35 -33 74 -95 74c-67 0 -109 -42 -109 -85c0 -29 10 -47 31 -69c-53 -18 -82 -49 -82 -91c0 -53 49 -93 109 -93zM291 369c-23 22 -38 36 -38 59c0 17 11 29 27 29c17 0 29 -15 29 -38c0 -17 -7 -33 -18 -50zM359 296c-13 15 -25 30 -41 46
c19 13 33 24 42 34c23 -23 18 -47 -1 -80zM267 219c-30 0 -52 23 -52 54c0 15 5 29 16 40c18 -17 46 -47 74 -82c-11 -9 -23 -12 -38 -12zM358 73h6l4 8c3 -5 7 -8 14 -8c12 0 16 12 16 21c0 12 -6 20 -15 20c-6 0 -11 -3 -13 -9v27h-18v-7h6v-52zM131 74h30v7h-10v16h4
c5 0 5 -1 6 -8h7v23h-7c-1 -7 -1 -8 -6 -8h-4v18h12c7 0 9 -2 11 -13h8v20h-51v-7h7v-41h-7v-7zM292 73c8 0 12 4 14 13l-5 2c-1 -5 -3 -7 -5 -7c-3 0 -4 2 -4 5v20h13v7h-13v11l-12 -2v-9h-7v-7h7v-20c0 -8 4 -13 12 -13zM225 74h22v7h-4v15c0 6 3 10 7 10s6 -3 6 -7v-18
h-4v-7h22v7h-6v19c0 8 -3 14 -12 14c-7 0 -11 -4 -14 -11v10h-17v-7h6v-25h-6v-7zM201 73c12 0 21 9 21 21s-9 20 -21 20s-21 -8 -21 -20c0 -13 9 -21 21 -21zM329 73c9 0 14 6 14 13c0 16 -24 10 -24 18c0 2 2 4 5 4c4 0 7 -3 10 -7h7v13h-6l-2 -5c-2 3 -6 5 -11 5
c-9 0 -14 -6 -14 -12c0 -16 24 -11 24 -19c0 -2 -2 -4 -5 -4c-5 0 -8 3 -12 9h-7v-14h7l1 4c3 -2 6 -5 13 -5zM410 59c9 0 14 6 18 16l13 31h5v7h-17v-7h5l-8 -20l-9 20h6v7h-25v-7h5s12 -23 16 -33c-1 -5 -4 -8 -8 -8c3 3 2 10 -5 10c-4 0 -7 -3 -7 -7c0 -5 4 -9 11 -9z
M201 78c-5 0 -8 4 -8 16c0 11 3 15 8 15s8 -4 8 -15c0 -12 -3 -16 -8 -16zM378 80c-6 0 -8 5 -8 13c0 7 2 13 8 13c5 0 7 -5 7 -13s-2 -13 -7 -13zM282 0h23v7h-5v25h14v-25h-5v-7h23v7h-6v52l-10 -2c-2 1 -6 2 -9 2c-10 0 -19 -6 -19 -19v-1h-7v-7h7v-25h-6v-7zM504 -1
c15 0 23 9 24 23h-8c-1 -9 -6 -16 -14 -16c-10 0 -16 7 -16 22c0 16 6 22 14 22s11 -4 15 -16h8v22h-8l-1 -6c-4 4 -9 7 -16 7c-14 0 -27 -12 -27 -30c0 -17 11 -28 29 -28zM130 0h29v7h-8v18h22v-18h-8v-7h29v7h-8v41h8v7h-29v-7h8v-16h-22v16h8v7h-29v-7h8v-41h-8v-7z
M300 39v3c0 10 3 12 6 12c2 0 3 -1 3 -1s-1 -1 -1 -3c0 -4 3 -6 6 -6v-5h-14zM431 -1c6 0 11 2 15 6c4 -5 7 -6 12 -6c8 0 11 5 13 12l-5 1c-1 -4 -2 -5 -4 -5s-4 2 -6 5c3 4 6 8 9 14h5v7h-18v-7h6c-1 -3 -4 -7 -6 -9c-4 4 -7 8 -12 13c7 3 11 6 11 12s-5 12 -14 12
c-10 0 -17 -7 -17 -14c0 -5 2 -8 6 -12c-7 -2 -13 -7 -13 -15s6 -14 18 -14zM437 33c-4 4 -6 7 -6 10s2 5 5 5c4 0 6 -3 6 -6c0 -4 -2 -7 -5 -9zM374 0h26v7h-8v16c2 5 5 9 7 9v-1c0 -4 3 -6 6 -6c4 0 7 3 7 7c0 5 -3 8 -8 8s-9 -3 -12 -11v10h-18v-7h6v-25h-6v-7zM261 -1
c11 0 16 6 18 14h-7c-1 -5 -4 -7 -9 -7c-7 0 -10 3 -10 12h26c1 13 -5 22 -19 22c-11 0 -20 -9 -20 -21s8 -20 21 -20zM354 -1c11 0 16 6 18 14h-7c-1 -5 -4 -7 -9 -7c-7 0 -10 3 -10 12h26c1 13 -5 22 -19 22c-11 0 -20 -9 -20 -21s8 -20 21 -20zM552 -1c12 0 21 9 21 21
s-9 20 -21 20s-21 -8 -21 -20c0 -13 9 -21 21 -21zM216 -1c12 0 21 9 21 21s-9 20 -21 20s-21 -8 -21 -20c0 -13 9 -21 21 -21zM346 23c0 9 3 12 7 12c5 0 7 -4 7 -12h-14zM253 23c0 9 3 12 7 12c5 0 7 -4 7 -12h-14zM552 4c-5 0 -8 4 -8 16c0 11 3 15 8 15s8 -4 8 -15
c0 -12 -3 -16 -8 -16zM216 4c-5 0 -8 4 -8 16c0 11 3 15 8 15s8 -4 8 -15c0 -12 -3 -16 -8 -16zM435 6c-6 0 -10 4 -10 10c0 4 2 7 4 9c5 -5 9 -10 14 -16c-3 -2 -6 -3 -8 -3zM582 -1c4 0 7 3 7 7s-3 7 -7 7s-7 -3 -7 -7s3 -7 7 -7z" />
    <glyph glyph-name="space.tab" horiz-adv-x="362" 
 />
    <glyph glyph-name="uni00A0" unicode="&#xa0;" horiz-adv-x="262" 
 />
    <glyph glyph-name="uni00AD" unicode="&#xad;" horiz-adv-x="0" 
 />
    <glyph glyph-name="uni2002" unicode="&#x2002;" horiz-adv-x="500" 
 />
    <glyph glyph-name="uni2003" unicode="&#x2003;" horiz-adv-x="1000" 
 />
    <glyph glyph-name="uni2004" unicode="&#x2004;" horiz-adv-x="333" 
 />
    <glyph glyph-name="uni2005" unicode="&#x2005;" horiz-adv-x="250" 
 />
    <glyph glyph-name="uni2007" unicode="&#x2007;" horiz-adv-x="724" 
 />
    <glyph glyph-name="uni2008" unicode="&#x2008;" horiz-adv-x="417" 
 />
    <glyph glyph-name="uni2009" unicode="&#x2009;" horiz-adv-x="133" 
 />
    <glyph glyph-name="uni200A" unicode="&#x200a;" horiz-adv-x="75" 
 />
    <glyph glyph-name="uni200B" unicode="&#x200b;" horiz-adv-x="0" 
 />
    <glyph glyph-name="uniFEFF" unicode="&#xfeff;" horiz-adv-x="0" 
 />
    <glyph glyph-name="uni202F" unicode="&#x202f;" horiz-adv-x="133" 
 />
    <glyph glyph-name="uni200D" unicode="&#x200d;" horiz-adv-x="0" 
 />
    <glyph glyph-name="uni200C" unicode="&#x200c;" horiz-adv-x="0" 
 />
    <glyph glyph-name="zero.small" 
d="M215 -12c-136 0 -196 86 -196 215s66 217 200 217c136 0 196 -86 196 -215s-66 -217 -200 -217zM216 85c59 0 83 44 83 119s-22 119 -81 119s-83 -44 -83 -119s22 -119 81 -119z" />
    <glyph glyph-name="one.small" horiz-adv-x="326" 
d="M118 0v315h-86l18 94h187v-409h-119z" />
    <glyph glyph-name="one.small_alt" 
d="M398 93v-93h-324v93h109v222h-113l15 94h217v-316h96z" />
    <glyph glyph-name="two.small" 
d="M51 0v94l134 103c83 64 91 75 91 92c0 23 -21 32 -50 32c-42 0 -95 -19 -157 -63h-1v110c58 38 112 53 167 53c106 0 159 -47 159 -122c0 -67 -44 -97 -145 -173l-39 -29h183v-97h-342z" />
    <glyph glyph-name="three.small" 
d="M206 -12c-60 0 -107 12 -152 26v103c49 -18 97 -33 139 -33c50 0 86 11 86 42c0 30 -24 42 -134 42h-13v54l119 92h-195l3 95h321v-93l-104 -81c76 -13 121 -48 121 -112c0 -86 -80 -135 -191 -135z" />
    <glyph glyph-name="four.small" 
d="M254 0v79h-236v87l108 243h235v-236h62l-5 -94h-57v-79h-107zM134 171h122v145h-60z" />
    <glyph glyph-name="five.small" 
d="M217 -12c-69 0 -115 10 -159 24v103h1c44 -18 95 -30 156 -30c56 0 67 25 67 43c0 9 -2 14 -8 20c-13 13 -46 17 -137 17h-72l6 244h302l4 -97h-202l-1 -59h7c102 0 155 -11 188 -44c19 -19 31 -44 31 -82c0 -85 -71 -139 -183 -139z" />
    <glyph glyph-name="six.small" 
d="M224 -12c-121 0 -190 68 -190 208c0 143 86 224 215 224c50 0 87 -7 129 -22v-98h-1c-44 18 -79 27 -123 27c-58 0 -105 -25 -109 -91c30 17 75 27 113 27c83 0 146 -35 146 -124c0 -99 -79 -151 -180 -151zM236 177c-33 0 -67 -8 -91 -21c4 -58 37 -77 79 -77
c43 0 71 19 71 54s-27 44 -59 44z" />
    <glyph glyph-name="seven.small" 
d="M49 245v164h350v-125l-167 -284h-126l171 291v24h-122v-70h-106z" />
    <glyph glyph-name="eight.small" 
d="M217 -12c-128 0 -188 45 -188 120c0 47 23 79 82 99c-49 17 -72 44 -72 90c0 72 59 123 178 123s178 -51 178 -123c0 -46 -23 -73 -72 -90c59 -20 82 -52 82 -99c0 -75 -60 -120 -188 -120zM217 243c45 0 69 15 69 42c0 30 -22 47 -69 47s-69 -17 -69 -47
c0 -27 24 -42 69 -42zM217 75c52 0 75 19 75 47c0 29 -25 47 -75 47s-75 -18 -75 -47c0 -28 23 -47 75 -47z" />
    <glyph glyph-name="nine.small" 
d="M210 420c121 0 190 -68 190 -208c0 -143 -86 -224 -215 -224c-50 0 -87 7 -129 22v98h1c44 -18 79 -27 123 -27c58 0 105 25 109 91c-30 -17 -75 -27 -113 -27c-83 0 -146 35 -146 124c0 99 79 151 180 151zM139 275c0 -35 27 -44 59 -44c33 0 67 8 91 21
c-4 58 -37 77 -79 77c-43 0 -71 -19 -71 -54z" />
    <glyph glyph-name="zero.num" 
d="M235 279c-136 0 -196 86 -196 215s66 217 200 217c136 0 196 -86 196 -215s-66 -217 -200 -217zM236 376c59 0 83 44 83 119s-22 119 -81 119s-83 -44 -83 -119s22 -119 81 -119z" />
    <glyph glyph-name="one.num" horiz-adv-x="326" 
d="M138 291v315h-86l18 94h187v-409h-119z" />
    <glyph glyph-name="one.num_alt" 
d="M418 384v-93h-324v93h109v222h-113l15 94h217v-316h96z" />
    <glyph glyph-name="two.num" 
d="M71 291v94l134 103c83 64 91 75 91 92c0 23 -21 32 -50 32c-42 0 -95 -19 -157 -63h-1v110c58 38 112 53 167 53c106 0 159 -47 159 -122c0 -67 -44 -97 -145 -173l-39 -29h183v-97h-342z" />
    <glyph glyph-name="three.num" 
d="M226 279c-60 0 -107 12 -152 26v103c49 -18 97 -33 139 -33c50 0 86 11 86 42c0 30 -24 42 -134 42h-13v54l119 92h-195l3 95h321v-93l-104 -81c76 -13 121 -48 121 -112c0 -86 -80 -135 -191 -135z" />
    <glyph glyph-name="four.num" 
d="M274 291v79h-236v87l108 243h235v-236h62l-5 -94h-57v-79h-107zM154 462h122v145h-60z" />
    <glyph glyph-name="five.num" 
d="M237 279c-69 0 -115 10 -159 24v103h1c44 -18 95 -30 156 -30c56 0 67 25 67 43c0 9 -2 14 -8 20c-13 13 -46 17 -137 17h-72l6 244h302l4 -97h-202l-1 -59h7c102 0 155 -11 188 -44c19 -19 31 -44 31 -82c0 -85 -71 -139 -183 -139z" />
    <glyph glyph-name="six.num" 
d="M244 279c-121 0 -190 68 -190 208c0 143 86 224 215 224c50 0 87 -7 129 -22v-98h-1c-44 18 -79 27 -123 27c-58 0 -105 -25 -109 -91c30 17 75 27 113 27c83 0 146 -35 146 -124c0 -99 -79 -151 -180 -151zM256 468c-33 0 -67 -8 -91 -21c4 -58 37 -77 79 -77
c43 0 71 19 71 54s-27 44 -59 44z" />
    <glyph glyph-name="seven.num" 
d="M69 536v164h350v-125l-167 -284h-126l171 291v24h-122v-70h-106z" />
    <glyph glyph-name="eight.num" 
d="M237 279c-128 0 -188 45 -188 120c0 47 23 79 82 99c-49 17 -72 44 -72 90c0 72 59 123 178 123s178 -51 178 -123c0 -46 -23 -73 -72 -90c59 -20 82 -52 82 -99c0 -75 -60 -120 -188 -120zM237 534c45 0 69 15 69 42c0 30 -22 47 -69 47s-69 -17 -69 -47
c0 -27 24 -42 69 -42zM237 366c52 0 75 19 75 47c0 29 -25 47 -75 47s-75 -18 -75 -47c0 -28 23 -47 75 -47z" />
    <glyph glyph-name="nine.num" 
d="M230 711c121 0 190 -68 190 -208c0 -143 -86 -224 -215 -224c-50 0 -87 7 -129 22v98h1c44 -18 79 -27 123 -27c58 0 105 25 109 91c-30 -17 -75 -27 -113 -27c-83 0 -146 35 -146 124c0 99 79 151 180 151zM159 566c0 -35 27 -44 59 -44c33 0 67 8 91 21
c-4 58 -37 77 -79 77c-43 0 -71 -19 -71 -54z" />
    <glyph glyph-name="fraction" unicode="&#x2044;" horiz-adv-x="258" 
d="M-184 1l504 699h122v-1l-504 -699h-122v1z" />
    <glyph glyph-name="zero.den" 
d="M195 -12c-136 0 -196 86 -196 215s66 217 200 217c136 0 196 -86 196 -215s-66 -217 -200 -217zM196 85c59 0 83 44 83 119s-22 119 -81 119s-83 -44 -83 -119s22 -119 81 -119z" />
    <glyph glyph-name="one.den" horiz-adv-x="326" 
d="M98 0v315h-86l18 94h187v-409h-119z" />
    <glyph glyph-name="one.den_alt" 
d="M378 93v-93h-324v93h109v222h-113l15 94h217v-316h96z" />
    <glyph glyph-name="two.den" 
d="M31 0v94l134 103c83 64 91 75 91 92c0 23 -21 32 -50 32c-42 0 -95 -19 -157 -63h-1v110c58 38 112 53 167 53c106 0 159 -47 159 -122c0 -67 -44 -97 -145 -173l-39 -29h183v-97h-342z" />
    <glyph glyph-name="three.den" 
d="M186 -12c-60 0 -107 12 -152 26v103c49 -18 97 -33 139 -33c50 0 86 11 86 42c0 30 -24 42 -134 42h-13v54l119 92h-195l3 95h321v-93l-104 -81c76 -13 121 -48 121 -112c0 -86 -80 -135 -191 -135z" />
    <glyph glyph-name="four.den" 
d="M234 0v79h-236v87l108 243h235v-236h62l-5 -94h-57v-79h-107zM114 171h122v145h-60z" />
    <glyph glyph-name="five.den" 
d="M197 -12c-69 0 -115 10 -159 24v103h1c44 -18 95 -30 156 -30c56 0 67 25 67 43c0 9 -2 14 -8 20c-13 13 -46 17 -137 17h-72l6 244h302l4 -97h-202l-1 -59h7c102 0 155 -11 188 -44c19 -19 31 -44 31 -82c0 -85 -71 -139 -183 -139z" />
    <glyph glyph-name="six.den" 
d="M204 -12c-121 0 -190 68 -190 208c0 143 86 224 215 224c50 0 87 -7 129 -22v-98h-1c-44 18 -79 27 -123 27c-58 0 -105 -25 -109 -91c30 17 75 27 113 27c83 0 146 -35 146 -124c0 -99 -79 -151 -180 -151zM216 177c-33 0 -67 -8 -91 -21c4 -58 37 -77 79 -77
c43 0 71 19 71 54s-27 44 -59 44z" />
    <glyph glyph-name="seven.den" 
d="M29 245v164h350v-125l-167 -284h-126l171 291v24h-122v-70h-106z" />
    <glyph glyph-name="eight.den" 
d="M197 -12c-128 0 -188 45 -188 120c0 47 23 79 82 99c-49 17 -72 44 -72 90c0 72 59 123 178 123s178 -51 178 -123c0 -46 -23 -73 -72 -90c59 -20 82 -52 82 -99c0 -75 -60 -120 -188 -120zM197 243c45 0 69 15 69 42c0 30 -22 47 -69 47s-69 -17 -69 -47
c0 -27 24 -42 69 -42zM197 75c52 0 75 19 75 47c0 29 -25 47 -75 47s-75 -18 -75 -47c0 -28 23 -47 75 -47z" />
    <glyph glyph-name="nine.den" 
d="M190 420c121 0 190 -68 190 -208c0 -143 -86 -224 -215 -224c-50 0 -87 7 -129 22v98h1c44 -18 79 -27 123 -27c58 0 105 25 109 91c-30 -17 -75 -27 -113 -27c-83 0 -146 35 -146 124c0 99 79 151 180 151zM119 275c0 -35 27 -44 59 -44c33 0 67 8 91 21
c-4 58 -37 77 -79 77c-43 0 -71 -19 -71 -54z" />
    <glyph glyph-name="zero.num_tab" 
d="M225 279c-136 0 -196 86 -196 215s66 217 200 217c136 0 196 -86 196 -215s-66 -217 -200 -217zM226 376c59 0 83 44 83 119s-22 119 -81 119s-83 -44 -83 -119s22 -119 81 -119z" />
    <glyph glyph-name="one.num_tab_alt" 
d="M408 384v-93h-324v93h109v222h-113l15 94h217v-316h96z" />
    <glyph glyph-name="two.num_tab" 
d="M61 291v94l134 103c83 64 91 75 91 92c0 23 -21 32 -50 32c-42 0 -95 -19 -157 -63h-1v110c58 38 112 53 167 53c106 0 159 -47 159 -122c0 -67 -44 -97 -145 -173l-39 -29h183v-97h-342z" />
    <glyph glyph-name="three.num_tab" 
d="M216 279c-60 0 -107 12 -152 26v103c49 -18 97 -33 139 -33c50 0 86 11 86 42c0 30 -24 42 -134 42h-13v54l119 92h-195l3 95h321v-93l-104 -81c76 -13 121 -48 121 -112c0 -86 -80 -135 -191 -135z" />
    <glyph glyph-name="four.num_tab" 
d="M264 291v79h-236v87l108 243h235v-236h62l-5 -94h-57v-79h-107zM144 462h122v145h-60z" />
    <glyph glyph-name="five.num_tab" 
d="M227 279c-69 0 -115 10 -159 24v103h1c44 -18 95 -30 156 -30c56 0 67 25 67 43c0 9 -2 14 -8 20c-13 13 -46 17 -137 17h-72l6 244h302l4 -97h-202l-1 -59h7c102 0 155 -11 188 -44c19 -19 31 -44 31 -82c0 -85 -71 -139 -183 -139z" />
    <glyph glyph-name="six.num_tab" 
d="M234 279c-121 0 -190 68 -190 208c0 143 86 224 215 224c50 0 87 -7 129 -22v-98h-1c-44 18 -79 27 -123 27c-58 0 -105 -25 -109 -91c30 17 75 27 113 27c83 0 146 -35 146 -124c0 -99 -79 -151 -180 -151zM246 468c-33 0 -67 -8 -91 -21c4 -58 37 -77 79 -77
c43 0 71 19 71 54s-27 44 -59 44z" />
    <glyph glyph-name="seven.num_tab" 
d="M59 536v164h350v-125l-167 -284h-126l171 291v24h-122v-70h-106z" />
    <glyph glyph-name="eight.num_tab" 
d="M227 279c-128 0 -188 45 -188 120c0 47 23 79 82 99c-49 17 -72 44 -72 90c0 72 59 123 178 123s178 -51 178 -123c0 -46 -23 -73 -72 -90c59 -20 82 -52 82 -99c0 -75 -60 -120 -188 -120zM227 534c45 0 69 15 69 42c0 30 -22 47 -69 47s-69 -17 -69 -47
c0 -27 24 -42 69 -42zM227 366c52 0 75 19 75 47c0 29 -25 47 -75 47s-75 -18 -75 -47c0 -28 23 -47 75 -47z" />
    <glyph glyph-name="nine.num_tab" 
d="M220 711c121 0 190 -68 190 -208c0 -143 -86 -224 -215 -224c-50 0 -87 7 -129 22v98h1c44 -18 79 -27 123 -27c58 0 105 25 109 91c-30 -17 -75 -27 -113 -27c-83 0 -146 35 -146 124c0 99 79 151 180 151zM149 566c0 -35 27 -44 59 -44c33 0 67 8 91 21
c-4 58 -37 77 -79 77c-43 0 -71 -19 -71 -54z" />
    <glyph glyph-name="fraction.tab" horiz-adv-x="218" 
d="M-204 1l504 699h122v-1l-504 -699h-122v1z" />
    <glyph glyph-name="zero.den_tab" 
d="M205 -12c-136 0 -196 86 -196 215s66 217 200 217c136 0 196 -86 196 -215s-66 -217 -200 -217zM206 85c59 0 83 44 83 119s-22 119 -81 119s-83 -44 -83 -119s22 -119 81 -119z" />
    <glyph glyph-name="one.den_tab_alt" 
d="M388 93v-93h-324v93h109v222h-113l15 94h217v-316h96z" />
    <glyph glyph-name="two.den_tab" 
d="M41 0v94l134 103c83 64 91 75 91 92c0 23 -21 32 -50 32c-42 0 -95 -19 -157 -63h-1v110c58 38 112 53 167 53c106 0 159 -47 159 -122c0 -67 -44 -97 -145 -173l-39 -29h183v-97h-342z" />
    <glyph glyph-name="three.den_tab" 
d="M196 -12c-60 0 -107 12 -152 26v103c49 -18 97 -33 139 -33c50 0 86 11 86 42c0 30 -24 42 -134 42h-13v54l119 92h-195l3 95h321v-93l-104 -81c76 -13 121 -48 121 -112c0 -86 -80 -135 -191 -135z" />
    <glyph glyph-name="four.den_tab" 
d="M244 0v79h-236v87l108 243h235v-236h62l-5 -94h-57v-79h-107zM124 171h122v145h-60z" />
    <glyph glyph-name="five.den_tab" 
d="M207 -12c-69 0 -115 10 -159 24v103h1c44 -18 95 -30 156 -30c56 0 67 25 67 43c0 9 -2 14 -8 20c-13 13 -46 17 -137 17h-72l6 244h302l4 -97h-202l-1 -59h7c102 0 155 -11 188 -44c19 -19 31 -44 31 -82c0 -85 -71 -139 -183 -139z" />
    <glyph glyph-name="six.den_tab" 
d="M214 -12c-121 0 -190 68 -190 208c0 143 86 224 215 224c50 0 87 -7 129 -22v-98h-1c-44 18 -79 27 -123 27c-58 0 -105 -25 -109 -91c30 17 75 27 113 27c83 0 146 -35 146 -124c0 -99 -79 -151 -180 -151zM226 177c-33 0 -67 -8 -91 -21c4 -58 37 -77 79 -77
c43 0 71 19 71 54s-27 44 -59 44z" />
    <glyph glyph-name="seven.den_tab" 
d="M39 245v164h350v-125l-167 -284h-126l171 291v24h-122v-70h-106z" />
    <glyph glyph-name="eight.den_tab" 
d="M207 -12c-128 0 -188 45 -188 120c0 47 23 79 82 99c-49 17 -72 44 -72 90c0 72 59 123 178 123s178 -51 178 -123c0 -46 -23 -73 -72 -90c59 -20 82 -52 82 -99c0 -75 -60 -120 -188 -120zM207 243c45 0 69 15 69 42c0 30 -22 47 -69 47s-69 -17 -69 -47
c0 -27 24 -42 69 -42zM207 75c52 0 75 19 75 47c0 29 -25 47 -75 47s-75 -18 -75 -47c0 -28 23 -47 75 -47z" />
    <glyph glyph-name="nine.den_tab" 
d="M200 420c121 0 190 -68 190 -208c0 -143 -86 -224 -215 -224c-50 0 -87 7 -129 22v98h1c44 -18 79 -27 123 -27c58 0 105 25 109 91c-30 -17 -75 -27 -113 -27c-83 0 -146 35 -146 124c0 99 79 151 180 151zM129 275c0 -35 27 -44 59 -44c33 0 67 8 91 21
c-4 58 -37 77 -79 77c-43 0 -71 -19 -71 -54z" />
    <glyph glyph-name="A.sc" horiz-adv-x="756" 
d="M38 0l212 596h257l211 -596h-152l-43 125h-292l-41 -125h-152zM352 469l-79 -222h208l-77 222h-52z" />
    <glyph glyph-name="B.sc" horiz-adv-x="740" 
d="M104 0v596h362c125 0 202 -50 202 -150c0 -64 -26 -113 -102 -136c78 -32 114 -72 114 -141c0 -126 -97 -169 -229 -169h-347zM247 359h194c54 0 82 16 82 59c0 38 -29 55 -80 55h-196v-114zM247 123l206 2c55 1 82 19 82 62c0 40 -24 61 -87 61h-201v-125z" />
    <glyph glyph-name="C.sc" horiz-adv-x="705" 
d="M400 -16c-232 0 -336 143 -336 313c0 168 121 313 345 313c100 0 176 -31 227 -69v-142h-1c-69 48 -145 82 -227 82c-116 0 -193 -81 -193 -183c0 -105 62 -185 194 -185c89 0 161 37 226 81h1v-144c-42 -27 -126 -66 -236 -66z" />
    <glyph glyph-name="D.sc" horiz-adv-x="777" 
d="M104 0v596h303c190 0 306 -111 306 -297s-116 -299 -306 -299h-303zM251 127h142c112 0 169 51 169 170c0 117 -57 172 -169 172h-142v-342z" />
    <glyph glyph-name="E.sc" horiz-adv-x="701" 
d="M104 0v596h513l5 -125h-371v-112h296v-120h-296v-114h386l-5 -125h-528z" />
    <glyph glyph-name="F.sc" horiz-adv-x="677" 
d="M104 0v596h508l5 -127h-366v-126h311v-127h-311v-216h-147z" />
    <glyph glyph-name="G.sc" horiz-adv-x="774" 
d="M401 -16c-229 0 -337 144 -337 310c0 172 121 316 350 316c101 0 181 -29 233 -68v-143h-1c-66 45 -140 81 -236 81c-125 0 -195 -80 -195 -186c0 -101 58 -183 195 -183c101 0 165 49 166 120h-208v120h351c1 -14 2 -45 2 -58c0 -240 -166 -309 -320 -309z" />
    <glyph glyph-name="H.sc" horiz-adv-x="809" 
d="M104 0v596h147v-234h308v234h146v-596h-146v236h-308v-236h-147z" />
    <glyph glyph-name="I.sc" horiz-adv-x="359" 
d="M106 0v596h147v-596h-147z" />
    <glyph glyph-name="J.sc" horiz-adv-x="608" 
d="M258 -15c-86 0 -157 21 -218 61v144h1c72 -52 139 -75 207 -75c75 0 119 24 119 126v355h147v-378c0 -164 -102 -233 -256 -233z" />
    <glyph glyph-name="J.sc_alt" horiz-adv-x="645" 
d="M291 -15c-85 0 -155 21 -219 61v146h1c72 -53 149 -77 216 -77c70 0 115 26 115 97v259h-227l5 125h369v-403c0 -144 -98 -208 -260 -208z" />
    <glyph glyph-name="K.sc" horiz-adv-x="751" 
d="M104 0v596h147v-229h92l199 229h168v-1l-250 -285l261 -309v-1h-176l-208 241h-86v-241h-147z" />
    <glyph glyph-name="L.sc" horiz-adv-x="632" 
d="M104 0v596h147v-466h341l-5 -130h-483z" />
    <glyph glyph-name="M.sc" horiz-adv-x="932" 
d="M104 0v596h165l199 -330l193 330h167v-596h-141v382h-4l-214 -355h-9l-211 351h-4v-378h-141z" />
    <glyph glyph-name="N.sc" horiz-adv-x="805" 
d="M104 0v596h161l289 -381h4v381h143v-596h-151l-299 394h-4v-394h-143z" />
    </font>
</defs>
</svg>
