<?xml version="1.0" standalone="no"?>
<!DOCTYPE svg PUBLIC "-//W3C//DTD SVG 1.1//EN" "http://www.w3.org/Graphics/SVG/1.1/DTD/svg11.dtd" >
<svg xmlns="http://www.w3.org/2000/svg" xmlns:xlink="http://www.w3.org/1999/xlink" version="1.1">
<metadata>
Created by FontForge 20190801 at Wed Jun 24 23:11:43 2020
 By Jimmy Wärting
Copyright C 2019, 2020 Hoefler &#38; Co. http:www.typography.com
</metadata>
<defs>
<font id="Decimal-Bold" horiz-adv-x="434" >
  <font-face 
    font-family="Decimal"
    font-weight="400"
    font-stretch="normal"
    units-per-em="1000"
    panose-1="2 0 8 0 0 0 0 0 0 0"
    ascent="800"
    descent="-200"
    x-height="547"
    cap-height="700"
    bbox="-212 -311 1971 1307"
    underline-thickness="0"
    underline-position="0"
    unicode-range="U+000D-1F6E1"
  />
<missing-glyph horiz-adv-x="450" 
d="M0 -180v900h450v-900h-450zM225 324l161 351h-322zM45 -68l155 338l-155 338v-676zM405 -68v676l-155 -338zM64 -135h322l-161 351z" />
    <glyph glyph-name=".notdef" horiz-adv-x="450" 
d="M0 -180v900h450v-900h-450zM225 324l161 351h-322zM45 -68l155 338l-155 338v-676zM405 -68v676l-155 -338zM64 -135h322l-161 351z" />
    <glyph glyph-name="NUL" horiz-adv-x="0" 
 />
    <glyph glyph-name="uni000D" unicode="&#xd;" horiz-adv-x="249" 
 />
    <glyph glyph-name="space" unicode=" " horiz-adv-x="249" 
 />
    <glyph glyph-name="A" unicode="A" horiz-adv-x="853" 
d="M24 0l258 700h289l257 -700h-191l-56 155h-312l-56 -155h-189zM407 538l-85 -236h207l-85 236h-37z" />
    <glyph glyph-name="B" unicode="B" horiz-adv-x="807" 
d="M93 0v700h420c145 0 232 -60 232 -176c0 -78 -31 -134 -118 -160c90 -36 133 -84 133 -167c0 -145 -110 -197 -264 -197h-403zM273 419h202c63 0 88 19 88 69c0 46 -28 65 -88 65h-202v-134zM273 147l211 1c67 1 93 23 93 73c0 48 -24 72 -93 72h-211v-146z" />
    <glyph glyph-name="C" unicode="C" horiz-adv-x="780" 
d="M442 -17c-265 0 -388 162 -388 364c0 204 142 370 400 370c116 0 206 -39 262 -79v-177h-1c-77 51 -151 95 -255 95c-138 0 -220 -86 -220 -208c0 -119 78 -204 219 -204c104 0 181 37 256 93h1v-179c-51 -35 -148 -75 -274 -75z" />
    <glyph glyph-name="D" unicode="D" horiz-adv-x="859" 
d="M93 0v700h361c219 0 352 -128 352 -349s-133 -351 -352 -351h-361zM276 157h166c112 0 178 58 178 192s-66 194 -178 194h-166v-386z" />
    <glyph glyph-name="E" unicode="E" horiz-adv-x="766" 
d="M93 0v700h598l7 -155h-423v-112h336v-147h-336v-131h436l-6 -155h-612z" />
    <glyph glyph-name="F" unicode="F" horiz-adv-x="736" 
d="M93 0v700h591l6 -156h-414v-142h347v-151h-347v-251h-183z" />
    <glyph glyph-name="G" unicode="G" horiz-adv-x="862" 
d="M444 -18c-251 0 -391 154 -391 359c0 204 149 377 415 377c105 0 203 -30 266 -73v-172h-1c-80 49 -158 86 -261 86c-149 0 -232 -86 -232 -218c0 -119 74 -205 218 -205c103 0 182 48 187 136h-228v139h402c1 -20 3 -41 3 -72c0 -256 -179 -357 -378 -357z" />
    <glyph glyph-name="H" unicode="H" horiz-adv-x="883" 
d="M93 0v700h183v-260h330v260h184v-700h-184v279h-330v-279h-183z" />
    <glyph glyph-name="I" unicode="I" horiz-adv-x="373" 
d="M95 0v700h183v-700h-183z" />
    <glyph glyph-name="J" unicode="J" horiz-adv-x="653" 
d="M276 -17c-89 0 -167 23 -238 68v176h1c75 -58 155 -83 222 -83c70 0 121 27 121 127v429h183v-452c0 -191 -121 -265 -289 -265z" />
    <glyph glyph-name="J.alt" horiz-adv-x="711" 
d="M321 -17c-97 0 -178 22 -254 69v175h1c78 -57 162 -83 237 -83c83 0 136 32 136 119v282h-257l7 155h433v-463c0 -175 -112 -254 -303 -254z" />
    <glyph glyph-name="K" unicode="K" horiz-adv-x="833" 
d="M93 0v700h183v-265h101l218 265h209v-1l-278 -335l293 -363v-1h-218l-228 279h-97v-279h-183z" />
    <glyph glyph-name="L" unicode="L" horiz-adv-x="698" 
d="M93 0v700h183v-538h385l-7 -162h-561z" />
    <glyph glyph-name="M" unicode="M" horiz-adv-x="1022" 
d="M93 0v700h213l207 -361l202 361h214v-700h-180v434h-3l-231 -394h-12l-228 394h-4v-434h-178z" />
    <glyph glyph-name="N" unicode="N" horiz-adv-x="887" 
d="M93 0v700h195l326 -430h4v430h176v-700h-187l-334 443h-4v-443h-176z" />
    <glyph glyph-name="O" unicode="O" horiz-adv-x="893" 
d="M446 -19c-240 0 -392 144 -392 369s152 369 392 369c241 0 393 -144 393 -369s-152 -369 -393 -369zM446 141c132 0 209 78 209 209s-75 209 -208 209c-132 0 -209 -78 -209 -209s75 -209 208 -209z" />
    <glyph glyph-name="P" unicode="P" horiz-adv-x="784" 
d="M93 0v700h392c170 0 259 -98 259 -257c0 -180 -115 -263 -274 -263h-194v-180h-183zM276 333h184c71 0 102 45 102 106c0 69 -34 106 -105 106h-181v-212z" />
    <glyph glyph-name="Q" unicode="Q" horiz-adv-x="905" 
d="M446 719c241 0 393 -144 393 -369c0 -64 -15 -124 -43 -175l64 -44v-173h-1l-154 103c-68 -52 -156 -80 -259 -80c-240 0 -392 144 -392 369s152 369 392 369zM450 559c-135 0 -212 -80 -212 -211s77 -214 212 -214c45 0 84 9 115 25l-175 108l81 116l179 -116
c7 24 11 51 11 81c0 131 -77 211 -211 211z" />
    <glyph glyph-name="R" unicode="R" horiz-adv-x="813" 
d="M93 0v700h391c183 0 272 -86 272 -246c0 -114 -49 -190 -143 -224l172 -230h-211l-139 195h-159v-195h-183zM276 345h192c77 0 104 43 104 101c0 57 -27 99 -104 99h-192v-200z" />
    <glyph glyph-name="S" unicode="S" horiz-adv-x="748" 
d="M390 -17c-127 0 -226 27 -318 67v176h1c109 -57 225 -88 323 -88c84 0 127 23 127 63c0 41 -32 53 -187 79c-143 23 -266 67 -266 207c0 124 106 230 328 230c89 0 186 -21 266 -60v-175h-1c-82 49 -189 80 -279 80c-89 0 -126 -24 -126 -62c0 -49 67 -54 184 -75
c143 -25 268 -65 268 -215c0 -100 -67 -227 -320 -227z" />
    <glyph glyph-name="T" unicode="T" horiz-adv-x="753" 
d="M285 0v538h-249l7 162h668l6 -162h-249v-538h-183z" />
    <glyph glyph-name="U" unicode="U" horiz-adv-x="866" 
d="M432 -19c-200 0 -345 78 -345 291v428h184v-416c0 -105 76 -138 162 -138s163 31 163 134v420h183v-424c0 -217 -148 -295 -347 -295z" />
    <glyph glyph-name="V" unicode="V" horiz-adv-x="829" 
d="M267 0l-243 700h198l179 -530h29l179 530h196l-243 -700h-295z" />
    <glyph glyph-name="W" unicode="W" horiz-adv-x="1230" 
d="M226 0l-189 700h194l128 -515h11l162 515h179l159 -515h12l124 515h187l-188 -700h-245l-140 450h-6l-141 -450h-247z" />
    <glyph glyph-name="X" unicode="X" horiz-adv-x="843" 
d="M231 0h-216v1l289 360l-270 338v1h220l170 -220l171 220h215v-1l-269 -336l288 -362v-1h-221l-188 243z" />
    <glyph glyph-name="Y" unicode="Y" horiz-adv-x="815" 
d="M316 0v232l-311 468h210l188 -293h11l192 293h203l-310 -465v-235h-183z" />
    <glyph glyph-name="Z" unicode="Z" horiz-adv-x="778" 
d="M67 0v164l403 379h-392l6 157h630v-149l-418 -394h419v-157h-648z" />
    <glyph glyph-name="a" unicode="a" horiz-adv-x="632" 
d="M225 -16c-122 0 -184 63 -184 152c0 46 17 81 42 106c37 37 126 80 313 90v7c0 49 -26 79 -94 79c-67 0 -141 -25 -210 -70h-1v156c79 42 158 60 238 60c166 0 239 -83 239 -224v-340h-162l-3 61c-46 -49 -105 -77 -178 -77zM277 106c52 0 98 25 119 45v86
c-104 -10 -152 -26 -174 -47c-9 -9 -14 -22 -14 -35c0 -29 25 -49 69 -49z" />
    <glyph glyph-name="b" unicode="b" horiz-adv-x="711" 
d="M251 767v-277c38 42 89 73 168 73c138 0 250 -101 250 -269c0 -186 -129 -310 -310 -310c-56 0 -115 12 -168 33h-117v750h177zM362 420c-47 0 -84 -15 -111 -34v-239c29 -14 64 -24 97 -24c78 0 144 56 144 159c0 92 -54 138 -130 138z" />
    <glyph glyph-name="c" unicode="c" horiz-adv-x="599" 
d="M356 -18c-183 0 -314 106 -314 284c0 171 133 298 316 298c78 0 139 -19 188 -52v-157h-1c-53 39 -112 61 -172 61c-90 0 -153 -58 -153 -145c0 -88 64 -141 153 -141c64 0 119 22 172 61h1v-156c-52 -33 -115 -53 -190 -53z" />
    <glyph glyph-name="d" unicode="d" horiz-adv-x="712" 
d="M638 767v-767h-172l-1 69c-40 -49 -96 -86 -178 -86c-139 0 -245 104 -245 276c0 180 129 303 294 303c51 0 90 -10 125 -27v232h177zM362 420c-86 0 -143 -56 -143 -150c0 -95 55 -144 132 -144c41 0 82 17 110 40v223c-30 19 -60 31 -99 31z" />
    <glyph glyph-name="e" unicode="e" horiz-adv-x="657" 
d="M342 565c183 0 273 -122 273 -285c0 -18 -1 -36 -3 -53h-394c14 -72 69 -105 159 -105c72 0 144 23 203 56h1v-142c-54 -29 -131 -53 -220 -53c-210 0 -319 112 -319 279c0 175 118 303 300 303zM340 430c-65 0 -106 -40 -120 -105h236c-5 63 -48 105 -116 105z" />
    <glyph glyph-name="f" unicode="f" horiz-adv-x="466" 
d="M131 0v409h-110l25 138h85v3c0 141 55 233 211 233c38 0 66 -4 97 -13v-135h-1c-22 7 -41 10 -62 10c-53 0 -71 -26 -71 -80v-18h143v-138h-143v-409h-174z" />
    <glyph glyph-name="g" unicode="g" horiz-adv-x="624" 
d="M311 167c-14 0 -28 1 -41 2l-8 -50c265 -22 358 -73 358 -171c0 -74 -71 -171 -308 -171c-200 0 -295 59 -295 141c0 42 22 83 105 121l32 157c-71 33 -107 91 -107 162c0 115 96 205 264 205c29 0 54 -3 76 -8l50 90h182v-8l-121 -131c49 -34 76 -85 76 -143
c0 -114 -96 -196 -263 -196zM312 280c57 0 99 29 99 85c0 53 -42 84 -99 84c-59 0 -100 -32 -100 -85c0 -56 41 -84 100 -84zM329 -112c88 0 134 21 134 47c0 29 -77 55 -281 64c-19 -15 -27 -28 -27 -44c0 -48 81 -67 174 -67z" />
    <glyph glyph-name="h" unicode="h" horiz-adv-x="696" 
d="M73 0v767h176v-299c51 57 109 96 193 96c112 0 186 -67 186 -199v-365h-177v322c0 71 -36 90 -81 90c-46 0 -86 -22 -120 -52v-360h-177z" />
    <glyph glyph-name="i" unicode="i" horiz-adv-x="327" 
d="M164 613c-70 0 -108 41 -108 92v1c0 52 38 92 107 92c70 0 108 -40 108 -92v-1c0 -51 -38 -92 -107 -92zM75 0v547h177v-547h-177z" />
    <glyph glyph-name="j" unicode="j" horiz-adv-x="339" 
d="M176 613c-70 0 -108 41 -108 92v1c0 52 38 92 107 92c70 0 108 -40 108 -92v-1c0 -51 -38 -92 -107 -92zM71 -222c-43 0 -82 6 -118 19v137h1c28 -11 50 -15 72 -15c43 0 61 20 61 66v562h177v-572c0 -121 -53 -197 -193 -197z" />
    <glyph glyph-name="j.alt" horiz-adv-x="327" 
d="M164 613c-70 0 -108 41 -108 92v1c0 52 38 92 107 92c70 0 108 -40 108 -92v-1c0 -51 -38 -92 -107 -92zM75 -229v776h177v-718z" />
    <glyph glyph-name="k" unicode="k" horiz-adv-x="667" 
d="M73 0v767h177v-418h70l130 198h198v-1l-178 -258l193 -287v-1h-204l-137 211h-72v-211h-177z" />
    <glyph glyph-name="l" unicode="l" horiz-adv-x="327" 
d="M75 0v767h177v-767h-177z" />
    <glyph glyph-name="m" unicode="m" horiz-adv-x="1050" 
d="M73 0v547h175l1 -84c49 61 107 101 187 101c78 0 139 -37 166 -109c63 73 121 109 200 109c106 0 180 -67 180 -199v-365h-177v322c0 71 -36 90 -75 90c-40 0 -80 -22 -114 -52v-360h-177v322c0 71 -36 90 -75 90c-40 0 -80 -22 -114 -52v-360h-177z" />
    <glyph glyph-name="n" unicode="n" horiz-adv-x="696" 
d="M73 0v547h175l1 -79c51 57 109 96 193 96c112 0 186 -67 186 -199v-365h-177v322c0 71 -36 90 -81 90c-46 0 -86 -22 -120 -52v-360h-177z" />
    <glyph glyph-name="o" unicode="o" horiz-adv-x="698" 
d="M349 -18c-192 0 -307 124 -307 291c0 168 115 292 307 292s307 -124 307 -292c0 -167 -115 -291 -307 -291zM349 124c82 0 132 60 132 149s-50 150 -132 150c-83 0 -132 -61 -132 -150s49 -149 132 -149z" />
    <glyph glyph-name="p" unicode="p" horiz-adv-x="712" 
d="M73 -203v750h172l2 -70c39 49 96 87 177 87c140 0 246 -104 246 -277c0 -179 -129 -303 -294 -303c-52 0 -91 10 -126 28v-215h-177zM350 126c86 0 143 57 143 151c0 95 -55 143 -132 143c-42 0 -82 -17 -111 -40v-222c30 -20 61 -32 100 -32z" />
    <glyph glyph-name="q" unicode="q" horiz-adv-x="710" 
d="M460 -203v260c-38 -43 -90 -74 -168 -74c-138 0 -250 102 -250 270c0 186 129 310 310 310c55 0 114 -12 168 -34h117v-732h-177zM348 127c48 0 85 15 112 34v238c-30 14 -64 24 -97 24c-79 0 -144 -55 -144 -159c0 -92 54 -137 129 -137z" />
    <glyph glyph-name="r" unicode="r" horiz-adv-x="447" 
d="M73 0v547h176v-101c40 71 94 113 153 113c6 0 12 0 23 -1v-177c-14 2 -25 2 -38 2c-64 0 -114 -19 -137 -62v-321h-177z" />
    <glyph glyph-name="s" unicode="s" horiz-adv-x="587" 
d="M304 -18c-77 0 -163 18 -242 60v148h1c76 -47 168 -75 248 -75c53 0 74 14 74 41c0 23 -11 33 -122 57c-138 30 -202 67 -202 169c0 108 91 182 243 182c78 0 165 -25 210 -51v-145h-1c-65 38 -154 63 -217 63c-48 0 -67 -14 -67 -37c0 -24 16 -33 127 -58
c143 -33 195 -78 195 -173s-66 -181 -247 -181z" />
    <glyph glyph-name="t" unicode="t" horiz-adv-x="457" 
d="M139 0v409h-119l26 138h93v123l175 20v-143h121v-138h-121v-409h-175z" />
    <glyph glyph-name="u" unicode="u" horiz-adv-x="696" 
d="M623 547v-547h-175l-1 77c-51 -57 -108 -95 -192 -95c-113 0 -187 68 -187 200v365h177v-322c0 -71 37 -90 81 -90c46 0 86 21 120 51v361h177z" />
    <glyph glyph-name="v" unicode="v" horiz-adv-x="650" 
d="M201 0l-188 547h184l122 -393h16l121 393h181l-189 -547h-247z" />
    <glyph glyph-name="w" unicode="w" horiz-adv-x="1010" 
d="M183 0l-160 547h184l93 -379h14l102 374h184l104 -374h15l92 379h176l-161 -547h-224l-89 337h-15l-91 -337h-224z" />
    <glyph glyph-name="x" unicode="x" horiz-adv-x="651" 
d="M9 0v1l209 282l-198 263l1 1h197l112 -154l109 154h192v-1l-198 -267l209 -278v-1h-197l-124 169l-120 -169h-192z" />
    <glyph glyph-name="y" unicode="y" horiz-adv-x="647" 
d="M179 -203l65 180l-229 570h181l138 -369l127 369h177l-288 -750h-171z" />
    <glyph glyph-name="z" unicode="z" horiz-adv-x="612" 
d="M58 0v130l284 277h-278l7 140h489v-126l-292 -281h292v-140h-502z" />
    <glyph glyph-name="a.sc" horiz-adv-x="773" 
d="M33 0l205 599h297l205 -599h-184l-38 117h-267l-36 -117h-182zM361 452l-68 -203h184l-67 203h-49z" />
    <glyph glyph-name="b.sc" horiz-adv-x="750" 
d="M94 0v599h384c127 0 205 -50 205 -151c0 -65 -27 -113 -103 -137c78 -31 115 -71 115 -141c0 -126 -98 -170 -232 -170h-369zM267 361h166c49 0 74 15 74 54c0 36 -26 52 -73 52h-167v-106zM267 133l177 1c51 1 75 17 75 57c0 38 -22 56 -78 56h-174v-114z" />
    <glyph glyph-name="c.sc" horiz-adv-x="700" 
d="M401 -17c-228 0 -344 133 -344 316c0 180 130 316 351 316c99 0 173 -28 227 -63v-165h-2c-68 47 -139 77 -216 77c-107 0 -180 -69 -180 -164c0 -99 64 -166 180 -166c83 0 152 33 216 77h2v-167c-45 -26 -128 -61 -234 -61z" />
    <glyph glyph-name="d.sc" horiz-adv-x="779" 
d="M94 0v599h321c190 0 307 -109 307 -299c0 -189 -117 -300 -307 -300h-321zM270 144h122c98 0 151 45 151 155c0 108 -53 156 -151 156h-122v-311z" />
    <glyph glyph-name="e.sc" horiz-adv-x="699" 
d="M94 0v599h527l7 -139h-358v-97h282v-126h-282v-98h371l-7 -139h-540z" />
    <glyph glyph-name="f.sc" horiz-adv-x="676" 
d="M94 0v599h521l7 -144h-351v-114h295v-134h-295v-207h-177z" />
    <glyph glyph-name="g.sc" horiz-adv-x="773" 
d="M401 -18c-228 0 -344 134 -344 312s126 321 360 321c97 0 180 -25 236 -61v-159h-1c-72 41 -143 70 -232 70c-119 0 -184 -71 -184 -173c0 -97 56 -167 179 -167c86 0 146 39 147 102h-190v126h352c1 -18 2 -48 2 -66c0 -226 -151 -305 -325 -305z" />
    <glyph glyph-name="h.sc" horiz-adv-x="811" 
d="M94 0v599h177v-224h270v224h176v-599h-176v227h-270v-227h-177z" />
    <glyph glyph-name="i.sc" horiz-adv-x="368" 
d="M95 0v599h177v-599h-177z" />
    <glyph glyph-name="j.sc" horiz-adv-x="612" 
d="M259 -16c-85 0 -161 19 -223 59v163h1c72 -49 137 -71 200 -71c69 0 113 23 113 118v346h177v-376c0 -168 -105 -239 -268 -239z" />
    <glyph glyph-name="j.sc_alt" horiz-adv-x="646" 
d="M291 -16c-86 0 -160 20 -227 60v163h1c70 -48 143 -72 208 -72c67 0 111 26 111 94v228h-220l7 142h390v-399c0 -150 -102 -216 -270 -216z" />
    <glyph glyph-name="k.sc" horiz-adv-x="766" 
d="M94 0v599h177v-221h79l181 221h201v-1l-237 -286l248 -311v-1h-209l-187 231h-76v-231h-177z" />
    <glyph glyph-name="l.sc" horiz-adv-x="635" 
d="M94 0v599h177v-448h328l-7 -151h-498z" />
    <glyph glyph-name="m.sc" horiz-adv-x="926" 
d="M94 0v599h195l177 -295l170 295h197v-599h-169v358h-4l-193 -322h-11l-191 319h-3v-355h-168z" />
    <glyph glyph-name="n.sc" horiz-adv-x="807" 
d="M94 0v599h185l262 -349h3v349h170v-599h-178l-270 359h-3v-359h-169z" />
    <glyph glyph-name="o.sc" horiz-adv-x="808" 
d="M403 -21c-211 0 -346 123 -346 318c0 196 136 322 348 322s347 -123 347 -319c0 -195 -137 -321 -349 -321zM405 131c102 0 168 60 168 167s-68 169 -170 169s-167 -61 -167 -167c0 -108 66 -169 169 -169z" />
    <glyph glyph-name="p.sc" horiz-adv-x="720" 
d="M94 0v599h357c151 0 229 -85 229 -223c0 -157 -103 -228 -243 -228h-166v-148h-177zM271 288h154c58 0 81 38 81 84c0 55 -25 86 -84 86h-151v-170z" />
    <glyph glyph-name="q.sc" horiz-adv-x="819" 
d="M404 -21c-212 0 -347 123 -347 318c0 196 136 322 348 322s347 -123 347 -319c0 -55 -12 -104 -35 -147l49 -32v-159h-1l-135 87c-59 -45 -136 -70 -226 -70zM407 122c37 0 68 6 93 17l-149 90l72 103l153 -94c4 17 6 36 6 57c0 110 -68 173 -176 173
c-105 0 -171 -62 -171 -171c0 -113 66 -175 172 -175z" />
    <glyph glyph-name="r.sc" horiz-adv-x="750" 
d="M94 0v599h323c177 0 267 -62 267 -212c0 -100 -44 -158 -132 -189l174 -194v-4h-212l-139 169h-104v-169h-177zM271 304h142c67 0 96 25 96 78c0 52 -29 77 -96 77h-142v-155z" />
    <glyph glyph-name="s.sc" horiz-adv-x="687" 
d="M358 -17c-101 0 -205 26 -282 60v158h1c94 -49 209 -77 285 -77c80 0 106 17 106 45c0 31 -25 38 -148 64c-144 29 -246 55 -246 181c0 116 93 201 286 201c87 0 175 -22 242 -52v-157h-1c-72 38 -166 68 -251 68c-69 0 -101 -17 -100 -46s25 -35 144 -60
c138 -27 247 -64 247 -187c0 -90 -47 -198 -283 -198z" />
    <glyph glyph-name="t.sc" horiz-adv-x="700" 
d="M262 0v450h-216l7 149h595l6 -149h-216v-450h-176z" />
    <glyph glyph-name="u.sc" horiz-adv-x="781" 
d="M389 -17c-175 0 -304 68 -304 254v362h177v-354c0 -85 63 -111 129 -111s128 25 128 108v357h177v-359c0 -189 -131 -257 -307 -257z" />
    <glyph glyph-name="v.sc" horiz-adv-x="757" 
d="M241 0l-209 599h190l145 -440h26l144 440h188l-208 -599h-276z" />
    <glyph glyph-name="w.sc" horiz-adv-x="1065" 
d="M207 0l-168 599h185l100 -398h8l131 398h152l128 -398h7l100 398h175l-165 -599h-203l-121 365h-4l-121 -365h-204z" />
    <glyph glyph-name="x.sc" horiz-adv-x="753" 
d="M18 0v1l244 308l-229 289v1h205l142 -178l140 178h201v-1l-230 -289l245 -308v-1h-206l-157 197l-154 -197h-201z" />
    <glyph glyph-name="y.sc" horiz-adv-x="732" 
d="M278 0v191l-268 407v1h198l154 -247h12l156 247h192v-1l-267 -405v-193h-177z" />
    <glyph glyph-name="z.sc" horiz-adv-x="724" 
d="M72 0v149l349 304h-341l7 146h567v-137l-359 -316h360v-146h-583z" />
    <glyph glyph-name="Aacute" unicode="&#xc1;" horiz-adv-x="853" 
d="M322 775l123 171h209v-11l-176 -160h-156zM24 0l258 700h289l257 -700h-191l-56 155h-312l-56 -155h-189zM407 538l-85 -236h207l-85 236h-37z" />
    <glyph glyph-name="aacute" unicode="&#xe1;" horiz-adv-x="632" 
d="M221 637l123 171h209v-11l-176 -160h-156zM225 -16c-122 0 -184 63 -184 152c0 46 17 81 42 106c37 37 126 80 313 90v7c0 49 -26 79 -94 79c-67 0 -141 -25 -210 -70h-1v156c79 42 158 60 238 60c166 0 239 -83 239 -224v-340h-162l-3 61c-46 -49 -105 -77 -178 -77z
M277 106c52 0 98 25 119 45v86c-104 -10 -152 -26 -174 -47c-9 -9 -14 -22 -14 -35c0 -29 25 -49 69 -49z" />
    <glyph glyph-name="aacute.sc" horiz-adv-x="773" 
d="M283 675l123 171h209v-11l-176 -160h-156zM33 0l205 599h297l205 -599h-184l-38 117h-267l-36 -117h-182zM361 452l-68 -203h184l-67 203h-49z" />
    <glyph glyph-name="Abreve" unicode="&#x102;" horiz-adv-x="853" 
d="M427 766c-126 0 -206 52 -206 153c0 18 2 37 7 57h128c-2 -11 -3 -20 -3 -29c0 -49 34 -60 74 -60s73 11 73 59c0 10 -1 19 -3 30h128c5 -20 7 -40 7 -58c0 -100 -79 -152 -205 -152zM24 0l258 700h289l257 -700h-191l-56 155h-312l-56 -155h-189zM407 538l-85 -236h207
l-85 236h-37z" />
    <glyph glyph-name="abreve" unicode="&#x103;" horiz-adv-x="632" 
d="M320 628c-126 0 -206 52 -206 153c0 18 2 37 7 57h128c-2 -11 -3 -20 -3 -29c0 -49 34 -60 74 -60s73 11 73 59c0 10 -1 19 -3 30h128c5 -20 7 -40 7 -58c0 -100 -79 -152 -205 -152zM225 -16c-122 0 -184 63 -184 152c0 46 17 81 42 106c37 37 126 80 313 90v7
c0 49 -26 79 -94 79c-67 0 -141 -25 -210 -70h-1v156c79 42 158 60 238 60c166 0 239 -83 239 -224v-340h-162l-3 61c-46 -49 -105 -77 -178 -77zM277 106c52 0 98 25 119 45v86c-104 -10 -152 -26 -174 -47c-9 -9 -14 -22 -14 -35c0 -29 25 -49 69 -49z" />
    <glyph glyph-name="abreve.sc" horiz-adv-x="773" 
d="M387 666c-126 0 -206 52 -206 153c0 18 2 37 7 57h128c-2 -11 -3 -20 -3 -29c0 -49 34 -60 74 -60s73 11 73 59c0 10 -1 19 -3 30h128c5 -20 7 -40 7 -58c0 -100 -79 -152 -205 -152zM33 0l205 599h297l205 -599h-184l-38 117h-267l-36 -117h-182zM361 452l-68 -203h184
l-67 203h-49z" />
    <glyph glyph-name="Acircumflex" unicode="&#xc2;" horiz-adv-x="853" 
d="M188 774l134 188h210l134 -188h-163l-58 81h-37l-58 -81h-162zM24 0l258 700h289l257 -700h-191l-56 155h-312l-56 -155h-189zM407 538l-85 -236h207l-85 236h-37z" />
    <glyph glyph-name="acircumflex" unicode="&#xe2;" horiz-adv-x="632" 
d="M81 636l134 188h210l134 -188h-163l-58 81h-37l-58 -81h-162zM225 -16c-122 0 -184 63 -184 152c0 46 17 81 42 106c37 37 126 80 313 90v7c0 49 -26 79 -94 79c-67 0 -141 -25 -210 -70h-1v156c79 42 158 60 238 60c166 0 239 -83 239 -224v-340h-162l-3 61
c-46 -49 -105 -77 -178 -77zM277 106c52 0 98 25 119 45v86c-104 -10 -152 -26 -174 -47c-9 -9 -14 -22 -14 -35c0 -29 25 -49 69 -49z" />
    <glyph glyph-name="acircumflex.sc" horiz-adv-x="773" 
d="M148 674l134 188h210l134 -188h-163l-58 81h-37l-58 -81h-162zM33 0l205 599h297l205 -599h-184l-38 117h-267l-36 -117h-182zM361 452l-68 -203h184l-67 203h-49z" />
    <glyph glyph-name="Adieresis" unicode="&#xc4;" horiz-adv-x="853" 
d="M296 766c-59 0 -95 39 -95 88v1c0 49 36 87 95 87c60 0 95 -38 95 -87v-1c0 -49 -35 -88 -95 -88zM559 766c-59 0 -95 39 -95 88v1c0 49 36 87 95 87c60 0 95 -38 95 -87v-1c0 -49 -35 -88 -95 -88zM24 0l258 700h289l257 -700h-191l-56 155h-312l-56 -155h-189zM407 538
l-85 -236h207l-85 236h-37z" />
    <glyph glyph-name="adieresis" unicode="&#xe4;" horiz-adv-x="632" 
d="M189 628c-59 0 -95 39 -95 88v1c0 49 36 87 95 87c60 0 95 -38 95 -87v-1c0 -49 -35 -88 -95 -88zM452 628c-59 0 -95 39 -95 88v1c0 49 36 87 95 87c60 0 95 -38 95 -87v-1c0 -49 -35 -88 -95 -88zM225 -16c-122 0 -184 63 -184 152c0 46 17 81 42 106
c37 37 126 80 313 90v7c0 49 -26 79 -94 79c-67 0 -141 -25 -210 -70h-1v156c79 42 158 60 238 60c166 0 239 -83 239 -224v-340h-162l-3 61c-46 -49 -105 -77 -178 -77zM277 106c52 0 98 25 119 45v86c-104 -10 -152 -26 -174 -47c-9 -9 -14 -22 -14 -35
c0 -29 25 -49 69 -49z" />
    <glyph glyph-name="adieresis.sc" horiz-adv-x="773" 
d="M256 666c-59 0 -95 39 -95 88v1c0 49 36 87 95 87c60 0 95 -38 95 -87v-1c0 -49 -35 -88 -95 -88zM519 666c-59 0 -95 39 -95 88v1c0 49 36 87 95 87c60 0 95 -38 95 -87v-1c0 -49 -35 -88 -95 -88zM33 0l205 599h297l205 -599h-184l-38 117h-267l-36 -117h-182zM361 452
l-68 -203h184l-67 203h-49z" />
    <glyph glyph-name="AE" unicode="&#xc6;" horiz-adv-x="1269" 
d="M596 0v155h-288l-89 -155h-208l414 700h769l6 -155h-422v-112h336v-147h-336v-131h436l-7 -155h-611zM530 540l-138 -239h204v239h-66z" />
    <glyph glyph-name="ae" unicode="&#xe6;" horiz-adv-x="1010" 
d="M935 36c-55 -29 -132 -53 -220 -53c-118 0 -203 36 -254 96c-71 -68 -145 -95 -234 -95c-126 0 -186 63 -186 152c0 46 17 81 42 106c37 37 126 80 316 91v6c0 49 -29 79 -97 79c-67 0 -141 -25 -210 -70h-1v156c79 42 158 60 235 60c87 0 149 -27 183 -75
c43 46 110 76 191 76c179 0 269 -122 269 -285c0 -18 -1 -36 -4 -53h-394c14 -72 70 -105 160 -105c72 0 143 23 203 56h1v-142zM694 430c-66 0 -107 -40 -121 -105h236c-5 63 -47 105 -115 105zM208 155c0 -29 25 -49 69 -49c62 0 109 26 139 51c-9 25 -15 51 -17 80
c-107 -10 -156 -27 -177 -47c-9 -9 -14 -22 -14 -35z" />
    <glyph glyph-name="ae.sc" horiz-adv-x="1121" 
d="M516 0v124h-243l-69 -124h-191l342 599h689l6 -139h-358v-97h282v-126h-282v-98h371l-7 -139h-540zM459 461l-113 -204h170v204h-57z" />
    <glyph glyph-name="AEacute" unicode="&#x1fc;" horiz-adv-x="1269" 
d="M602 775l123 171h209v-11l-176 -160h-156zM596 0v155h-288l-89 -155h-208l414 700h769l6 -155h-422v-112h336v-147h-336v-131h436l-7 -155h-611zM530 540l-138 -239h204v239h-66z" />
    <glyph glyph-name="aeacute" unicode="&#x1fd;" horiz-adv-x="1010" 
d="M416 624l123 171h209v-11l-176 -160h-156zM935 36c-55 -29 -132 -53 -220 -53c-118 0 -203 36 -254 96c-71 -68 -145 -95 -234 -95c-126 0 -186 63 -186 152c0 46 17 81 42 106c37 37 126 80 316 91v6c0 49 -29 79 -97 79c-67 0 -141 -25 -210 -70h-1v156
c79 42 158 60 235 60c87 0 149 -27 183 -75c43 46 110 76 191 76c179 0 269 -122 269 -285c0 -18 -1 -36 -4 -53h-394c14 -72 70 -105 160 -105c72 0 143 23 203 56h1v-142zM694 430c-66 0 -107 -40 -121 -105h236c-5 63 -47 105 -115 105zM208 155c0 -29 25 -49 69 -49
c62 0 109 26 139 51c-9 25 -15 51 -17 80c-107 -10 -156 -27 -177 -47c-9 -9 -14 -22 -14 -35z" />
    <glyph glyph-name="aeacute.sc" horiz-adv-x="1121" 
d="M519 675l123 171h209v-11l-176 -160h-156zM516 0v124h-243l-69 -124h-191l342 599h689l6 -139h-358v-97h282v-126h-282v-98h371l-7 -139h-540zM459 461l-113 -204h170v204h-57z" />
    <glyph glyph-name="Agrave" unicode="&#xc0;" horiz-adv-x="853" 
d="M532 775h-157l-175 160v11h209zM24 0l258 700h289l257 -700h-191l-56 155h-312l-56 -155h-189zM407 538l-85 -236h207l-85 236h-37z" />
    <glyph glyph-name="agrave" unicode="&#xe0;" horiz-adv-x="632" 
d="M423 637h-157l-175 160v11h209zM225 -16c-122 0 -184 63 -184 152c0 46 17 81 42 106c37 37 126 80 313 90v7c0 49 -26 79 -94 79c-67 0 -141 -25 -210 -70h-1v156c79 42 158 60 238 60c166 0 239 -83 239 -224v-340h-162l-3 61c-46 -49 -105 -77 -178 -77zM277 106
c52 0 98 25 119 45v86c-104 -10 -152 -26 -174 -47c-9 -9 -14 -22 -14 -35c0 -29 25 -49 69 -49z" />
    <glyph glyph-name="agrave.sc" horiz-adv-x="773" 
d="M493 675h-157l-175 160v11h209zM33 0l205 599h297l205 -599h-184l-38 117h-267l-36 -117h-182zM361 452l-68 -203h184l-67 203h-49z" />
    <glyph glyph-name="Amacron" unicode="&#x100;" horiz-adv-x="853" 
d="M227 790v123h400v-123h-400zM24 0l258 700h289l257 -700h-191l-56 155h-312l-56 -155h-189zM407 538l-85 -236h207l-85 236h-37z" />
    <glyph glyph-name="amacron" unicode="&#x101;" horiz-adv-x="632" 
d="M120 652v123h400v-123h-400zM225 -16c-122 0 -184 63 -184 152c0 46 17 81 42 106c37 37 126 80 313 90v7c0 49 -26 79 -94 79c-67 0 -141 -25 -210 -70h-1v156c79 42 158 60 238 60c166 0 239 -83 239 -224v-340h-162l-3 61c-46 -49 -105 -77 -178 -77zM277 106
c52 0 98 25 119 45v86c-104 -10 -152 -26 -174 -47c-9 -9 -14 -22 -14 -35c0 -29 25 -49 69 -49z" />
    <glyph glyph-name="amacron.sc" horiz-adv-x="773" 
d="M187 690v123h400v-123h-400zM33 0l205 599h297l205 -599h-184l-38 117h-267l-36 -117h-182zM361 452l-68 -203h184l-67 203h-49z" />
    <glyph glyph-name="Aogonek" unicode="&#x104;" horiz-adv-x="853" 
d="M24 0l259 700h289l256 -699l1 -1l-54 -51c-48 -46 -69 -64 -69 -88c0 -22 17 -36 60 -36c19 0 48 3 80 17v-123c-41 -13 -71 -18 -116 -18c-153 0 -179 73 -179 123c0 55 33 101 93 152l-64 179h-311l-56 -155h-189zM407 538l-85 -236h208l-85 236h-38z" />
    <glyph glyph-name="aogonek" unicode="&#x105;" horiz-adv-x="632" 
d="M225 -16c-122 0 -184 63 -184 152c0 46 17 81 42 106c37 37 126 80 313 90v7c0 49 -26 79 -94 79c-67 0 -141 -25 -210 -70h-1v156c79 42 158 60 238 60c166 0 239 -83 239 -224v-340l-54 -51c-48 -46 -69 -64 -69 -88c0 -22 17 -36 60 -36c19 0 48 3 80 17v-123
c-41 -13 -71 -18 -116 -18c-153 0 -179 73 -179 123c0 61 42 111 116 170l-3 67c-46 -49 -105 -77 -178 -77zM277 106c52 0 98 25 119 45v86c-104 -10 -152 -26 -174 -47c-9 -9 -14 -22 -14 -35c0 -29 25 -49 69 -49z" />
    <glyph glyph-name="aogonek.sc" horiz-adv-x="773" 
d="M33 0l205 599h297l205 -599l-54 -51c-48 -46 -69 -64 -69 -88c0 -22 17 -36 60 -36c19 0 48 3 80 17v-123c-41 -13 -71 -18 -116 -18c-153 0 -179 73 -179 123c0 57 35 103 99 156l-44 137h-266l-36 -117h-182zM361 452l-68 -203h184l-67 203h-49z" />
    <glyph glyph-name="Aring" unicode="&#xc5;" horiz-adv-x="853" 
d="M425 766c-113 0 -182 56 -182 154c0 100 69 158 184 158c114 0 184 -57 184 -157c0 -98 -72 -155 -186 -155zM427 860c44 0 71 22 71 61c0 40 -28 63 -72 63s-73 -22 -73 -63c0 -38 29 -61 74 -61zM24 0l258 700h289l257 -700h-191l-56 155h-312l-56 -155h-189zM407 538
l-85 -236h207l-85 236h-37z" />
    <glyph glyph-name="aring" unicode="&#xe5;" horiz-adv-x="632" 
d="M319 628c-113 0 -182 56 -182 154c0 100 69 158 184 158c114 0 184 -57 184 -157c0 -98 -72 -155 -186 -155zM321 722c44 0 71 22 71 61c0 40 -28 63 -72 63s-73 -22 -73 -63c0 -38 29 -61 74 -61zM225 -16c-122 0 -184 63 -184 152c0 46 17 81 42 106
c37 37 126 80 313 90v7c0 49 -26 79 -94 79c-67 0 -141 -25 -210 -70h-1v156c79 42 158 60 238 60c166 0 239 -83 239 -224v-340h-162l-3 61c-46 -49 -105 -77 -178 -77zM277 106c52 0 98 25 119 45v86c-104 -10 -152 -26 -174 -47c-9 -9 -14 -22 -14 -35
c0 -29 25 -49 69 -49z" />
    <glyph glyph-name="aring.sc" horiz-adv-x="773" 
d="M386 666c-113 0 -182 56 -182 154c0 100 69 158 184 158c114 0 184 -57 184 -157c0 -98 -72 -155 -186 -155zM388 760c44 0 71 22 71 61c0 40 -28 63 -72 63s-73 -22 -73 -63c0 -38 29 -61 74 -61zM33 0l205 599h297l205 -599h-184l-38 117h-267l-36 -117h-182zM361 452
l-68 -203h184l-67 203h-49z" />
    <glyph glyph-name="Aringacute" unicode="&#x1fa;" horiz-adv-x="853" 
d="M349 1136l123 171h209v-11l-176 -160h-156zM425 766c-113 0 -182 56 -182 154c0 100 69 158 184 158c114 0 184 -57 184 -157c0 -98 -72 -155 -186 -155zM427 860c44 0 71 22 71 61c0 40 -28 63 -72 63s-73 -22 -73 -63c0 -38 29 -61 74 -61zM24 0l258 700h289l257 -700
h-191l-56 155h-312l-56 -155h-189zM407 538l-85 -236h207l-85 236h-37z" />
    <glyph glyph-name="aringacute" unicode="&#x1fb;" horiz-adv-x="632" 
d="M225 998l123 171h209v-11l-176 -160h-156zM319 628c-113 0 -182 56 -182 154c0 100 69 158 184 158c114 0 184 -57 184 -157c0 -98 -72 -155 -186 -155zM321 722c44 0 71 22 71 61c0 40 -28 63 -72 63s-73 -22 -73 -63c0 -38 29 -61 74 -61zM225 -16
c-122 0 -184 63 -184 152c0 46 17 81 42 106c37 37 126 80 313 90v7c0 49 -26 79 -94 79c-67 0 -141 -25 -210 -70h-1v156c79 42 158 60 238 60c166 0 239 -83 239 -224v-340h-162l-3 61c-46 -49 -105 -77 -178 -77zM277 106c52 0 98 25 119 45v86
c-104 -10 -152 -26 -174 -47c-9 -9 -14 -22 -14 -35c0 -29 25 -49 69 -49z" />
    <glyph glyph-name="aringacute.sc" horiz-adv-x="773" 
d="M293 1036l123 171h209v-11l-176 -160h-156zM386 666c-113 0 -182 56 -182 154c0 100 69 158 184 158c114 0 184 -57 184 -157c0 -98 -72 -155 -186 -155zM388 760c44 0 71 22 71 61c0 40 -28 63 -72 63s-73 -22 -73 -63c0 -38 29 -61 74 -61zM33 0l205 599h297l205 -599
h-184l-38 117h-267l-36 -117h-182zM361 452l-68 -203h184l-67 203h-49z" />
    <glyph glyph-name="Atilde" unicode="&#xc3;" horiz-adv-x="853" 
d="M340 948c38 0 62 -10 109 -31c39 -18 53 -23 70 -23c33 0 60 17 104 67h1v-145c-27 -26 -64 -51 -111 -51c-39 0 -62 10 -109 31c-39 18 -53 23 -70 23c-33 0 -61 -17 -104 -66h-1v144c27 26 64 51 111 51zM24 0l258 700h289l257 -700h-191l-56 155h-312l-56 -155h-189z
M407 538l-85 -236h207l-85 236h-37z" />
    <glyph glyph-name="atilde" unicode="&#xe3;" horiz-adv-x="632" 
d="M234 810c38 0 62 -10 109 -31c39 -18 53 -23 70 -23c33 0 60 17 104 67h1v-145c-27 -26 -64 -51 -111 -51c-39 0 -62 10 -109 31c-39 18 -53 23 -70 23c-33 0 -61 -17 -104 -66h-1v144c27 26 64 51 111 51zM225 -16c-122 0 -184 63 -184 152c0 46 17 81 42 106
c37 37 126 80 313 90v7c0 49 -26 79 -94 79c-67 0 -141 -25 -210 -70h-1v156c79 42 158 60 238 60c166 0 239 -83 239 -224v-340h-162l-3 61c-46 -49 -105 -77 -178 -77zM277 106c52 0 98 25 119 45v86c-104 -10 -152 -26 -174 -47c-9 -9 -14 -22 -14 -35
c0 -29 25 -49 69 -49z" />
    <glyph glyph-name="atilde.sc" horiz-adv-x="773" 
d="M301 848c38 0 62 -10 109 -31c39 -18 53 -23 70 -23c33 0 60 17 104 67h1v-145c-27 -26 -64 -51 -111 -51c-39 0 -62 10 -109 31c-39 18 -53 23 -70 23c-33 0 -61 -17 -104 -66h-1v144c27 26 64 51 111 51zM33 0l205 599h297l205 -599h-184l-38 117h-267l-36 -117h-182z
M361 452l-68 -203h184l-67 203h-49z" />
    <glyph glyph-name="Cacute" unicode="&#x106;" horiz-adv-x="780" 
d="M336 793l123 171h209v-11l-176 -160h-156zM442 -17c-265 0 -388 162 -388 364c0 204 142 370 400 370c116 0 206 -39 262 -79v-177h-1c-77 51 -151 95 -255 95c-138 0 -220 -86 -220 -208c0 -119 78 -204 219 -204c104 0 181 37 256 93h1v-179c-51 -35 -148 -75 -274 -75
z" />
    <glyph glyph-name="cacute" unicode="&#x107;" horiz-adv-x="599" 
d="M235 636l123 171h209v-11l-176 -160h-156zM356 -18c-183 0 -314 106 -314 284c0 171 133 298 316 298c78 0 139 -19 188 -52v-157h-1c-53 39 -112 61 -172 61c-90 0 -153 -58 -153 -145c0 -88 64 -141 153 -141c64 0 119 22 172 61h1v-156c-52 -33 -115 -53 -190 -53z
" />
    <glyph glyph-name="cacute.sc" horiz-adv-x="700" 
d="M285 690l123 171h209v-11l-176 -160h-156zM401 -17c-228 0 -344 133 -344 316c0 180 130 316 351 316c99 0 173 -28 227 -63v-165h-2c-68 47 -139 77 -216 77c-107 0 -180 -69 -180 -164c0 -99 64 -166 180 -166c83 0 152 33 216 77h2v-167c-45 -26 -128 -61 -234 -61z
" />
    <glyph glyph-name="Ccaron" unicode="&#x10c;" horiz-adv-x="780" 
d="M680 980l-134 -188h-210l-134 188h163l58 -80h37l58 80h162zM442 -17c-265 0 -388 162 -388 364c0 204 142 370 400 370c116 0 206 -39 262 -79v-177h-1c-77 51 -151 95 -255 95c-138 0 -220 -86 -220 -208c0 -119 78 -204 219 -204c104 0 181 37 256 93h1v-179
c-51 -35 -148 -75 -274 -75z" />
    <glyph glyph-name="ccaron" unicode="&#x10d;" horiz-adv-x="599" 
d="M579 823l-134 -188h-210l-134 188h163l58 -80h37l58 80h162zM356 -18c-183 0 -314 106 -314 284c0 171 133 298 316 298c78 0 139 -19 188 -52v-157h-1c-53 39 -112 61 -172 61c-90 0 -153 -58 -153 -145c0 -88 64 -141 153 -141c64 0 119 22 172 61h1v-156
c-52 -33 -115 -53 -190 -53z" />
    <glyph glyph-name="ccaron.sc" horiz-adv-x="700" 
d="M629 877l-134 -188h-210l-134 188h163l58 -80h37l58 80h162zM401 -17c-228 0 -344 133 -344 316c0 180 130 316 351 316c99 0 173 -28 227 -63v-165h-2c-68 47 -139 77 -216 77c-107 0 -180 -69 -180 -164c0 -99 64 -166 180 -166c83 0 152 33 216 77h2v-167
c-45 -26 -128 -61 -234 -61z" />
    <glyph glyph-name="Ccedilla" unicode="&#xc7;" horiz-adv-x="780" 
d="M213 -188v13l147 164c-209 30 -306 178 -306 358c0 204 142 370 400 370c116 0 206 -39 262 -79v-177h-1c-77 51 -151 95 -255 95c-138 0 -220 -86 -220 -208c0 -119 78 -204 219 -204c104 0 181 37 256 93h1v-179c-42 -29 -115 -61 -209 -71l-84 -175h-210z" />
    <glyph glyph-name="ccedilla" unicode="&#xe7;" horiz-adv-x="599" 
d="M120 -188v13l149 166c-136 29 -227 127 -227 275c0 171 133 298 316 298c78 0 139 -19 188 -52v-157h-1c-53 39 -112 61 -172 61c-90 0 -153 -58 -153 -145c0 -88 64 -141 153 -141c64 0 119 22 172 61h1v-156c-38 -24 -82 -41 -132 -49l-84 -174h-210z" />
    <glyph glyph-name="ccedilla.sc" horiz-adv-x="700" 
d="M177 -188v13l147 164c-177 27 -267 149 -267 310c0 180 130 316 351 316c99 0 173 -28 227 -63v-165h-2c-68 47 -139 77 -216 77c-107 0 -180 -69 -180 -164c0 -99 64 -166 180 -166c83 0 152 33 216 77h2v-167c-34 -20 -91 -45 -163 -56l-85 -176h-210z" />
    <glyph glyph-name="Cdotaccent" unicode="&#x10a;" horiz-adv-x="780" 
d="M441 784c-70 0 -108 41 -108 92v1c0 52 38 92 107 92c70 0 108 -40 108 -92v-1c0 -51 -38 -92 -107 -92zM442 -17c-265 0 -388 162 -388 364c0 204 142 370 400 370c116 0 206 -39 262 -79v-177h-1c-77 51 -151 95 -255 95c-138 0 -220 -86 -220 -208
c0 -119 78 -204 219 -204c104 0 181 37 256 93h1v-179c-51 -35 -148 -75 -274 -75z" />
    <glyph glyph-name="cdotaccent" unicode="&#x10b;" horiz-adv-x="599" 
d="M340 627c-70 0 -108 41 -108 92v1c0 52 38 92 107 92c70 0 108 -40 108 -92v-1c0 -51 -38 -92 -107 -92zM356 -18c-183 0 -314 106 -314 284c0 171 133 298 316 298c78 0 139 -19 188 -52v-157h-1c-53 39 -112 61 -172 61c-90 0 -153 -58 -153 -145
c0 -88 64 -141 153 -141c64 0 119 22 172 61h1v-156c-52 -33 -115 -53 -190 -53z" />
    <glyph glyph-name="cdotaccent.sc" horiz-adv-x="700" 
d="M390 681c-70 0 -108 41 -108 92v1c0 52 38 92 107 92c70 0 108 -40 108 -92v-1c0 -51 -38 -92 -107 -92zM401 -17c-228 0 -344 133 -344 316c0 180 130 316 351 316c99 0 173 -28 227 -63v-165h-2c-68 47 -139 77 -216 77c-107 0 -180 -69 -180 -164
c0 -99 64 -166 180 -166c83 0 152 33 216 77h2v-167c-45 -26 -128 -61 -234 -61z" />
    <glyph glyph-name="Dcaron" unicode="&#x10e;" horiz-adv-x="859" 
d="M655 962l-134 -188h-210l-134 188h163l58 -80h37l58 80h162zM93 0v700h361c219 0 352 -128 352 -349s-133 -351 -352 -351h-361zM276 157h166c112 0 178 58 178 192s-66 194 -178 194h-166v-386z" />
    <glyph glyph-name="dcaron" unicode="&#x10f;" horiz-adv-x="712" 
d="M638 767v-767h-172l-1 69c-40 -49 -96 -86 -178 -86c-139 0 -245 104 -245 276c0 180 129 303 294 303c51 0 90 -10 125 -27v232h177zM712 588v179h170v-19l-75 -160h-95zM362 420c-86 0 -143 -56 -143 -150c0 -95 55 -144 132 -144c41 0 82 17 110 40v223
c-30 19 -60 31 -99 31z" />
    <glyph glyph-name="dcaron.sc" horiz-adv-x="779" 
d="M610 862l-134 -188h-210l-134 188h163l58 -80h37l58 80h162zM94 0v599h321c190 0 307 -109 307 -299c0 -189 -117 -300 -307 -300h-321zM270 144h122c98 0 151 45 151 155c0 108 -53 156 -151 156h-122v-311z" />
    <glyph glyph-name="Dcroat" unicode="&#x110;" horiz-adv-x="897" 
d="M131 0v285h-95l11 133h84v282h361c220 0 352 -128 352 -349s-132 -351 -352 -351h-361zM314 156h166c112 0 178 58 178 193c0 134 -66 195 -178 195h-166v-130h189v-126h-189v-132z" />
    <glyph glyph-name="dcroat" unicode="&#x111;" horiz-adv-x="725" 
d="M729 582h-91v-582h-172l-1 68c-40 -50 -97 -85 -178 -85c-139 0 -245 102 -245 259c0 165 129 287 294 287c51 0 90 -10 125 -27v80h-172v105h172v80h177v-80h84zM362 387c-86 0 -143 -55 -143 -134c0 -80 55 -127 132 -127c41 0 82 17 110 40v190c-30 19 -60 31 -99 31z
" />
    <glyph glyph-name="dcroat.sc" horiz-adv-x="819" 
d="M134 0v239h-94l10 124h84v236h321c190 0 307 -109 307 -299c0 -189 -117 -300 -307 -300h-321zM309 143h123c98 0 151 45 151 156c0 109 -53 157 -151 157h-123v-98h147v-115h-147v-100z" />
    <glyph glyph-name="Eth" unicode="&#xd0;" horiz-adv-x="897" 
d="M131 0v285h-95l11 133h84v282h361c220 0 352 -128 352 -349s-132 -351 -352 -351h-361zM314 156h166c112 0 178 58 178 193c0 134 -66 195 -178 195h-166v-130h189v-126h-189v-132z" />
    <glyph glyph-name="eth" unicode="&#xf0;" horiz-adv-x="687" 
d="M334 -18c-177 0 -297 102 -297 260c0 180 138 265 268 265c70 0 124 -25 159 -60c-18 48 -46 93 -87 139l-180 -56v104l95 29c-40 31 -87 63 -142 95v9h214c28 -16 55 -35 82 -57l185 57v-103l-105 -32c69 -81 118 -186 118 -315c0 -226 -133 -335 -310 -335zM212 248
c0 -81 56 -123 126 -123c90 0 134 69 134 168c0 14 -1 27 -2 39c-25 30 -77 50 -125 50c-67 0 -133 -40 -133 -134z" />
    <glyph glyph-name="eth.sc" horiz-adv-x="819" 
d="M134 0v239h-94l10 124h84v236h321c190 0 307 -109 307 -299c0 -189 -117 -300 -307 -300h-321zM309 143h123c98 0 151 45 151 156c0 109 -53 157 -151 157h-123v-98h147v-115h-147v-100z" />
    <glyph glyph-name="Eacute" unicode="&#xc9;" horiz-adv-x="766" 
d="M296 775l123 171h209v-11l-176 -160h-156zM93 0v700h598l7 -155h-423v-112h336v-147h-336v-131h436l-6 -155h-612z" />
    <glyph glyph-name="eacute" unicode="&#xe9;" horiz-adv-x="657" 
d="M239 636l123 171h209v-11l-176 -160h-156zM342 565c183 0 273 -122 273 -285c0 -18 -1 -36 -3 -53h-394c14 -72 69 -105 159 -105c72 0 144 23 203 56h1v-142c-54 -29 -131 -53 -220 -53c-210 0 -319 112 -319 279c0 175 118 303 300 303zM340 430
c-65 0 -106 -40 -120 -105h236c-5 63 -48 105 -116 105z" />
    <glyph glyph-name="eacute.sc" horiz-adv-x="699" 
d="M259 675l123 171h209v-11l-176 -160h-156zM94 0v599h527l7 -139h-358v-97h282v-126h-282v-98h371l-7 -139h-540z" />
    <glyph glyph-name="Ebreve" unicode="&#x114;" horiz-adv-x="766" 
d="M401 766c-126 0 -206 52 -206 153c0 18 2 37 7 57h128c-2 -11 -3 -20 -3 -29c0 -49 34 -60 74 -60s73 11 73 59c0 10 -1 19 -3 30h128c5 -20 7 -40 7 -58c0 -100 -79 -152 -205 -152zM93 0v700h598l7 -155h-423v-112h336v-147h-336v-131h436l-6 -155h-612z" />
    <glyph glyph-name="ebreve" unicode="&#x115;" horiz-adv-x="657" 
d="M344 627c-126 0 -206 52 -206 153c0 18 2 37 7 57h128c-2 -11 -3 -20 -3 -29c0 -49 34 -60 74 -60s73 11 73 59c0 10 -1 19 -3 30h128c5 -20 7 -40 7 -58c0 -100 -79 -152 -205 -152zM342 565c183 0 273 -122 273 -285c0 -18 -1 -36 -3 -53h-394c14 -72 69 -105 159 -105
c72 0 144 23 203 56h1v-142c-54 -29 -131 -53 -220 -53c-210 0 -319 112 -319 279c0 175 118 303 300 303zM340 430c-65 0 -106 -40 -120 -105h236c-5 63 -48 105 -116 105z" />
    <glyph glyph-name="ebreve.sc" horiz-adv-x="699" 
d="M364 666c-126 0 -206 52 -206 153c0 18 2 37 7 57h128c-2 -11 -3 -20 -3 -29c0 -49 34 -60 74 -60s73 11 73 59c0 10 -1 19 -3 30h128c5 -20 7 -40 7 -58c0 -100 -79 -152 -205 -152zM94 0v599h527l7 -139h-358v-97h282v-126h-282v-98h371l-7 -139h-540z" />
    <glyph glyph-name="Ecaron" unicode="&#x11a;" horiz-adv-x="766" 
d="M640 962l-134 -188h-210l-134 188h163l58 -80h37l58 80h162zM93 0v700h598l7 -155h-423v-112h336v-147h-336v-131h436l-6 -155h-612z" />
    <glyph glyph-name="ecaron" unicode="&#x11b;" horiz-adv-x="657" 
d="M583 823l-134 -188h-210l-134 188h163l58 -80h37l58 80h162zM342 565c183 0 273 -122 273 -285c0 -18 -1 -36 -3 -53h-394c14 -72 69 -105 159 -105c72 0 144 23 203 56h1v-142c-54 -29 -131 -53 -220 -53c-210 0 -319 112 -319 279c0 175 118 303 300 303zM340 430
c-65 0 -106 -40 -120 -105h236c-5 63 -48 105 -116 105z" />
    <glyph glyph-name="ecaron.sc" horiz-adv-x="699" 
d="M603 862l-134 -188h-210l-134 188h163l58 -80h37l58 80h162zM94 0v599h527l7 -139h-358v-97h282v-126h-282v-98h371l-7 -139h-540z" />
    <glyph glyph-name="Ecircumflex" unicode="&#xca;" horiz-adv-x="766" 
d="M162 774l134 188h210l134 -188h-163l-58 81h-37l-58 -81h-162zM93 0v700h598l7 -155h-423v-112h336v-147h-336v-131h436l-6 -155h-612z" />
    <glyph glyph-name="ecircumflex" unicode="&#xea;" horiz-adv-x="657" 
d="M105 635l134 188h210l134 -188h-163l-58 81h-37l-58 -81h-162zM342 565c183 0 273 -122 273 -285c0 -18 -1 -36 -3 -53h-394c14 -72 69 -105 159 -105c72 0 144 23 203 56h1v-142c-54 -29 -131 -53 -220 -53c-210 0 -319 112 -319 279c0 175 118 303 300 303zM340 430
c-65 0 -106 -40 -120 -105h236c-5 63 -48 105 -116 105z" />
    <glyph glyph-name="ecircumflex.sc" horiz-adv-x="699" 
d="M125 674l134 188h210l134 -188h-163l-58 81h-37l-58 -81h-162zM94 0v599h527l7 -139h-358v-97h282v-126h-282v-98h371l-7 -139h-540z" />
    <glyph glyph-name="Edieresis" unicode="&#xcb;" horiz-adv-x="766" 
d="M270 766c-59 0 -95 39 -95 88v1c0 49 36 87 95 87c60 0 95 -38 95 -87v-1c0 -49 -35 -88 -95 -88zM533 766c-59 0 -95 39 -95 88v1c0 49 36 87 95 87c60 0 95 -38 95 -87v-1c0 -49 -35 -88 -95 -88zM93 0v700h598l7 -155h-423v-112h336v-147h-336v-131h436l-6 -155h-612z
" />
    <glyph glyph-name="edieresis" unicode="&#xeb;" horiz-adv-x="657" 
d="M213 627c-59 0 -95 39 -95 88v1c0 49 36 87 95 87c60 0 95 -38 95 -87v-1c0 -49 -35 -88 -95 -88zM476 627c-59 0 -95 39 -95 88v1c0 49 36 87 95 87c60 0 95 -38 95 -87v-1c0 -49 -35 -88 -95 -88zM342 565c183 0 273 -122 273 -285c0 -18 -1 -36 -3 -53h-394
c14 -72 69 -105 159 -105c72 0 144 23 203 56h1v-142c-54 -29 -131 -53 -220 -53c-210 0 -319 112 -319 279c0 175 118 303 300 303zM340 430c-65 0 -106 -40 -120 -105h236c-5 63 -48 105 -116 105z" />
    <glyph glyph-name="edieresis.sc" horiz-adv-x="699" 
d="M233 666c-59 0 -95 39 -95 88v1c0 49 36 87 95 87c60 0 95 -38 95 -87v-1c0 -49 -35 -88 -95 -88zM496 666c-59 0 -95 39 -95 88v1c0 49 36 87 95 87c60 0 95 -38 95 -87v-1c0 -49 -35 -88 -95 -88zM94 0v599h527l7 -139h-358v-97h282v-126h-282v-98h371l-7 -139h-540z
" />
    <glyph glyph-name="Edotaccent" unicode="&#x116;" horiz-adv-x="766" 
d="M401 766c-70 0 -108 41 -108 92v1c0 52 38 92 107 92c70 0 108 -40 108 -92v-1c0 -51 -38 -92 -107 -92zM93 0v700h598l7 -155h-423v-112h336v-147h-336v-131h436l-6 -155h-612z" />
    <glyph glyph-name="edotaccent" unicode="&#x117;" horiz-adv-x="657" 
d="M345 627c-70 0 -108 41 -108 92v1c0 52 38 92 107 92c70 0 108 -40 108 -92v-1c0 -51 -38 -92 -107 -92zM342 565c183 0 273 -122 273 -285c0 -18 -1 -36 -3 -53h-394c14 -72 69 -105 159 -105c72 0 144 23 203 56h1v-142c-54 -29 -131 -53 -220 -53
c-210 0 -319 112 -319 279c0 175 118 303 300 303zM340 430c-65 0 -106 -40 -120 -105h236c-5 63 -48 105 -116 105z" />
    <glyph glyph-name="edotaccent.sc" horiz-adv-x="699" 
d="M364 666c-70 0 -108 41 -108 92v1c0 52 38 92 107 92c70 0 108 -40 108 -92v-1c0 -51 -38 -92 -107 -92zM94 0v599h527l7 -139h-358v-97h282v-126h-282v-98h371l-7 -139h-540z" />
    <glyph glyph-name="Egrave" unicode="&#xc8;" horiz-adv-x="766" 
d="M507 775h-157l-175 160v11h209zM93 0v700h598l7 -155h-423v-112h336v-147h-336v-131h436l-6 -155h-612z" />
    <glyph glyph-name="egrave" unicode="&#xe8;" horiz-adv-x="657" 
d="M450 636h-157l-175 160v11h209zM342 565c183 0 273 -122 273 -285c0 -18 -1 -36 -3 -53h-394c14 -72 69 -105 159 -105c72 0 144 23 203 56h1v-142c-54 -29 -131 -53 -220 -53c-210 0 -319 112 -319 279c0 175 118 303 300 303zM340 430c-65 0 -106 -40 -120 -105h236
c-5 63 -48 105 -116 105z" />
    <glyph glyph-name="egrave.sc" horiz-adv-x="699" 
d="M470 675h-157l-175 160v11h209zM94 0v599h527l7 -139h-358v-97h282v-126h-282v-98h371l-7 -139h-540z" />
    <glyph glyph-name="Emacron" unicode="&#x112;" horiz-adv-x="766" 
d="M201 790v123h400v-123h-400zM93 0v700h598l7 -155h-423v-112h336v-147h-336v-131h436l-6 -155h-612z" />
    <glyph glyph-name="emacron" unicode="&#x113;" horiz-adv-x="657" 
d="M144 651v123h400v-123h-400zM342 565c183 0 273 -122 273 -285c0 -18 -1 -36 -3 -53h-394c14 -72 69 -105 159 -105c72 0 144 23 203 56h1v-142c-54 -29 -131 -53 -220 -53c-210 0 -319 112 -319 279c0 175 118 303 300 303zM340 430c-65 0 -106 -40 -120 -105h236
c-5 63 -48 105 -116 105z" />
    <glyph glyph-name="emacron.sc" horiz-adv-x="699" 
d="M164 690v123h400v-123h-400zM94 0v599h527l7 -139h-358v-97h282v-126h-282v-98h371l-7 -139h-540z" />
    <glyph glyph-name="Eogonek" unicode="&#x118;" horiz-adv-x="766" 
d="M93 0v700h598l7 -155h-423v-112h336v-147h-336v-131h436l-6 -155l-54 -51c-48 -46 -69 -64 -69 -88c0 -22 17 -36 60 -36c19 0 48 3 80 17v-123c-41 -13 -71 -18 -116 -18c-153 0 -179 73 -179 123c0 63 44 114 122 175l1 1h-457z" />
    <glyph glyph-name="eogonek" unicode="&#x119;" horiz-adv-x="657" 
d="M361 -17c-210 0 -319 112 -319 279c0 175 118 303 300 303c183 0 273 -122 273 -285c0 -18 -1 -36 -3 -53h-394c14 -72 69 -105 159 -105c72 0 144 23 203 56h1v-142l-59 -70c-63 -74 -69 -92 -69 -116c0 -23 17 -37 60 -37c19 0 48 4 80 17v-122
c-41 -13 -71 -19 -116 -19c-153 0 -179 73 -179 122c0 63 41 109 113 171l5 4c-18 -2 -36 -3 -55 -3zM340 430c-65 0 -106 -40 -120 -105h236c-5 63 -48 105 -116 105z" />
    <glyph glyph-name="eogonek.sc" horiz-adv-x="699" 
d="M94 0v599h527l7 -139h-358v-97h282v-126h-282v-98h371l-7 -138l1 -1l-54 -51c-48 -46 -69 -64 -69 -88c0 -22 17 -36 60 -36c19 0 48 3 80 17v-123c-41 -13 -71 -18 -116 -18c-153 0 -179 73 -179 123c0 63 44 114 122 175l1 1h-386z" />
    <glyph glyph-name="Gbreve" unicode="&#x11e;" horiz-adv-x="862" 
d="M438 784c-126 0 -206 52 -206 153c0 18 2 37 7 57h128c-2 -11 -3 -20 -3 -29c0 -49 34 -60 74 -60s73 11 73 59c0 10 -1 19 -3 30h128c5 -20 7 -40 7 -58c0 -100 -79 -152 -205 -152zM444 -18c-251 0 -391 154 -391 359c0 204 149 377 415 377c105 0 203 -30 266 -73
v-172h-1c-80 49 -158 86 -261 86c-149 0 -232 -86 -232 -218c0 -119 74 -205 218 -205c103 0 182 48 187 136h-228v139h402c1 -20 3 -41 3 -72c0 -256 -179 -357 -378 -357z" />
    <glyph glyph-name="gbreve" unicode="&#x11f;" horiz-adv-x="624" 
d="M296 631c-126 0 -206 52 -206 153c0 18 2 37 7 57h128c-2 -11 -3 -20 -3 -29c0 -49 34 -60 74 -60s73 11 73 59c0 10 -1 19 -3 30h128c5 -20 7 -40 7 -58c0 -100 -79 -152 -205 -152zM311 167c-14 0 -28 1 -41 2l-8 -50c265 -22 358 -73 358 -171
c0 -74 -71 -171 -308 -171c-200 0 -295 59 -295 141c0 42 22 83 105 121l32 157c-71 33 -107 91 -107 162c0 115 96 205 264 205c31 0 58 -3 82 -9l51 77h183v-8l-124 -121c46 -34 71 -83 71 -139c0 -114 -96 -196 -263 -196zM312 280c57 0 99 29 99 85c0 53 -42 84 -99 84
c-59 0 -100 -32 -100 -85c0 -56 41 -84 100 -84zM329 -112c88 0 134 21 134 47c0 29 -77 55 -281 64c-19 -15 -27 -28 -27 -44c0 -48 81 -67 174 -67z" />
    <glyph glyph-name="gbreve.sc" horiz-adv-x="773" 
d="M394 681c-126 0 -206 52 -206 153c0 18 2 37 7 57h128c-2 -11 -3 -20 -3 -29c0 -49 34 -60 74 -60s73 11 73 59c0 10 -1 19 -3 30h128c5 -20 7 -40 7 -58c0 -100 -79 -152 -205 -152zM401 -18c-228 0 -344 134 -344 312s126 321 360 321c97 0 180 -25 236 -61v-159h-1
c-72 41 -143 70 -232 70c-119 0 -184 -71 -184 -173c0 -97 56 -167 179 -167c86 0 146 39 147 102h-190v126h352c1 -18 2 -48 2 -66c0 -226 -151 -305 -325 -305z" />
    <glyph glyph-name="uni0122" unicode="&#x122;" horiz-adv-x="862" 
d="M444 -18c-251 0 -391 154 -391 359c0 204 149 377 415 377c105 0 203 -30 266 -73v-172h-1c-80 49 -158 86 -261 86c-149 0 -232 -86 -232 -218c0 -119 74 -205 218 -205c103 0 182 48 187 136h-228v139h402c1 -20 3 -41 3 -72c0 -256 -179 -357 -378 -357zM304 -311
l57 212h187v-18l-138 -194h-106z" />
    <glyph glyph-name="uni0123" unicode="&#x123;" horiz-adv-x="624" 
d="M441 847l-57 -212h-187v18l138 194h106zM311 167c-14 0 -28 1 -41 2l-8 -50c265 -22 358 -73 358 -171c0 -74 -71 -171 -308 -171c-200 0 -295 59 -295 141c0 42 22 83 105 121l32 157c-71 33 -107 91 -107 162c0 115 96 205 264 205c31 0 58 -3 82 -9l51 77h183v-8
l-124 -121c46 -34 71 -83 71 -139c0 -114 -96 -196 -263 -196zM312 280c57 0 99 29 99 85c0 53 -42 84 -99 84c-59 0 -100 -32 -100 -85c0 -56 41 -84 100 -84zM329 -112c88 0 134 21 134 47c0 29 -77 55 -281 64c-19 -15 -27 -28 -27 -44c0 -48 81 -67 174 -67z" />
    <glyph glyph-name="uni0123.sc" horiz-adv-x="773" 
d="M401 -18c-228 0 -344 134 -344 312s126 321 360 321c97 0 180 -25 236 -61v-159h-1c-72 41 -143 70 -232 70c-119 0 -184 -71 -184 -173c0 -97 56 -167 179 -167c86 0 146 39 147 102h-190v126h352c1 -18 2 -48 2 -66c0 -226 -151 -305 -325 -305zM257 -307l57 212h187
v-18l-138 -194h-106z" />
    <glyph glyph-name="Gdotaccent" unicode="&#x120;" horiz-adv-x="862" 
d="M438 784c-70 0 -108 41 -108 92v1c0 52 38 92 107 92c70 0 108 -40 108 -92v-1c0 -51 -38 -92 -107 -92zM444 -18c-251 0 -391 154 -391 359c0 204 149 377 415 377c105 0 203 -30 266 -73v-172h-1c-80 49 -158 86 -261 86c-149 0 -232 -86 -232 -218
c0 -119 74 -205 218 -205c103 0 182 48 187 136h-228v139h402c1 -20 3 -41 3 -72c0 -256 -179 -357 -378 -357z" />
    <glyph glyph-name="gdotaccent" unicode="&#x121;" horiz-adv-x="624" 
d="M297 631c-70 0 -108 41 -108 92v1c0 52 38 92 107 92c70 0 108 -40 108 -92v-1c0 -51 -38 -92 -107 -92zM311 167c-14 0 -28 1 -41 2l-8 -50c265 -22 358 -73 358 -171c0 -74 -71 -171 -308 -171c-200 0 -295 59 -295 141c0 42 22 83 105 121l32 157
c-71 33 -107 91 -107 162c0 115 96 205 264 205c31 0 58 -3 82 -9l51 77h183v-8l-124 -121c46 -34 71 -83 71 -139c0 -114 -96 -196 -263 -196zM312 280c57 0 99 29 99 85c0 53 -42 84 -99 84c-59 0 -100 -32 -100 -85c0 -56 41 -84 100 -84zM329 -112c88 0 134 21 134 47
c0 29 -77 55 -281 64c-19 -15 -27 -28 -27 -44c0 -48 81 -67 174 -67z" />
    <glyph glyph-name="gdotaccent.sc" horiz-adv-x="773" 
d="M394 681c-70 0 -108 41 -108 92v1c0 52 38 92 107 92c70 0 108 -40 108 -92v-1c0 -51 -38 -92 -107 -92zM401 -18c-228 0 -344 134 -344 312s126 321 360 321c97 0 180 -25 236 -61v-159h-1c-72 41 -143 70 -232 70c-119 0 -184 -71 -184 -173c0 -97 56 -167 179 -167
c86 0 146 39 147 102h-190v126h352c1 -18 2 -48 2 -66c0 -226 -151 -305 -325 -305z" />
    <glyph glyph-name="Hbar" unicode="&#x126;" horiz-adv-x="959" 
d="M131 0v483h-95l7 133h88v84h183v-90h331v90h183v-84h88l6 -133h-94v-483h-183v241h-331v-241h-183zM314 402h331v88h-331v-88z" />
    <glyph glyph-name="hbar" unicode="&#x127;" horiz-adv-x="709" 
d="M86 0v582h-90l6 105h84v80h176v-80h173v-105h-173v-143c51 56 109 95 193 95c112 0 186 -68 186 -200v-334h-177v291c0 71 -36 90 -81 90c-46 0 -86 -21 -120 -51v-330h-177z" />
    <glyph glyph-name="hbar.sc" horiz-adv-x="890" 
d="M134 0v409h-94l7 123h87v67h175v-75h273v75h175v-67h87l7 -123h-94v-409h-175v200h-273v-200h-175zM309 342h273v76h-273v-76z" />
    <glyph glyph-name="Iacute" unicode="&#xcd;" horiz-adv-x="373" 
d="M109 775l123 171h209v-11l-176 -160h-156zM95 0v700h183v-700h-183z" />
    <glyph glyph-name="iacute" unicode="&#xed;" horiz-adv-x="327" 
d="M87 622l123 171h209v-11l-176 -160h-156zM75 0v547h177v-547h-177z" />
    <glyph glyph-name="iacute.sc" horiz-adv-x="368" 
d="M106 675l123 171h209v-11l-176 -160h-156zM95 0v599h177v-599h-177z" />
    <glyph glyph-name="Ibreve" unicode="&#x12c;" horiz-adv-x="373" 
d="M186 766c-126 0 -206 52 -206 153c0 18 2 37 7 57h128c-2 -11 -3 -20 -3 -29c0 -49 34 -60 74 -60s73 11 73 59c0 10 -1 19 -3 30h128c5 -20 7 -40 7 -58c0 -100 -79 -152 -205 -152zM95 0v700h183v-700h-183z" />
    <glyph glyph-name="ibreve" unicode="&#x12d;" horiz-adv-x="327" 
d="M163 613c-126 0 -206 52 -206 153c0 18 2 37 7 57h128c-2 -11 -3 -20 -3 -29c0 -49 34 -60 74 -60s73 11 73 59c0 10 -1 19 -3 30h128c5 -20 7 -40 7 -58c0 -100 -79 -152 -205 -152zM75 0v547h177v-547h-177z" />
    <glyph glyph-name="ibreve.sc" horiz-adv-x="368" 
d="M184 666c-126 0 -206 52 -206 153c0 18 2 37 7 57h128c-2 -11 -3 -20 -3 -29c0 -49 34 -60 74 -60s73 11 73 59c0 10 -1 19 -3 30h128c5 -20 7 -40 7 -58c0 -100 -79 -152 -205 -152zM95 0v599h177v-599h-177z" />
    <glyph glyph-name="Icircumflex" unicode="&#xce;" horiz-adv-x="373" 
d="M-53 774l134 188h210l134 -188h-163l-58 81h-37l-58 -81h-162zM95 0v700h183v-700h-183z" />
    <glyph glyph-name="icircumflex" unicode="&#xee;" horiz-adv-x="327" 
d="M-76 621l134 188h210l134 -188h-163l-58 81h-37l-58 -81h-162zM75 0v547h177v-547h-177z" />
    <glyph glyph-name="icircumflex.sc" horiz-adv-x="368" 
d="M-55 674l134 188h210l134 -188h-163l-58 81h-37l-58 -81h-162zM95 0v599h177v-599h-177z" />
    <glyph glyph-name="Idieresis" unicode="&#xcf;" horiz-adv-x="373" 
d="M55 766c-59 0 -95 39 -95 88v1c0 49 36 87 95 87c60 0 95 -38 95 -87v-1c0 -49 -35 -88 -95 -88zM318 766c-59 0 -95 39 -95 88v1c0 49 36 87 95 87c60 0 95 -38 95 -87v-1c0 -49 -35 -88 -95 -88zM95 0v700h183v-700h-183z" />
    <glyph glyph-name="idieresis" unicode="&#xef;" horiz-adv-x="327" 
d="M32 613c-59 0 -95 39 -95 88v1c0 49 36 87 95 87c60 0 95 -38 95 -87v-1c0 -49 -35 -88 -95 -88zM295 613c-59 0 -95 39 -95 88v1c0 49 36 87 95 87c60 0 95 -38 95 -87v-1c0 -49 -35 -88 -95 -88zM75 0v547h177v-547h-177z" />
    <glyph glyph-name="idieresis.sc" horiz-adv-x="368" 
d="M53 666c-59 0 -95 39 -95 88v1c0 49 36 87 95 87c60 0 95 -38 95 -87v-1c0 -49 -35 -88 -95 -88zM316 666c-59 0 -95 39 -95 88v1c0 49 36 87 95 87c60 0 95 -38 95 -87v-1c0 -49 -35 -88 -95 -88zM95 0v599h177v-599h-177z" />
    <glyph glyph-name="Idotaccent" unicode="&#x130;" horiz-adv-x="373" 
d="M187 766c-70 0 -108 41 -108 92v1c0 52 38 92 107 92c70 0 108 -40 108 -92v-1c0 -51 -38 -92 -107 -92zM95 0v700h183v-700h-183z" />
    <glyph glyph-name="idotaccent.sc" horiz-adv-x="368" 
d="M184 666c-70 0 -108 41 -108 92v1c0 52 38 92 107 92c70 0 108 -40 108 -92v-1c0 -51 -38 -92 -107 -92zM95 0v599h177v-599h-177z" />
    <glyph glyph-name="dotlessi" unicode="&#x131;" horiz-adv-x="327" 
d="M75 0v547h177v-547h-177z" />
    <glyph glyph-name="dotlessi.sc" horiz-adv-x="368" 
d="M95 0v599h177v-599h-177z" />
    <glyph glyph-name="Igrave" unicode="&#xcc;" horiz-adv-x="373" 
d="M265 775h-157l-175 160v11h209zM95 0v700h183v-700h-183z" />
    <glyph glyph-name="igrave" unicode="&#xec;" horiz-adv-x="327" 
d="M242 622h-157l-175 160v11h209zM75 0v547h177v-547h-177z" />
    <glyph glyph-name="igrave.sc" horiz-adv-x="368" 
d="M262 675h-157l-175 160v11h209zM95 0v599h177v-599h-177z" />
    <glyph glyph-name="Imacron" unicode="&#x12a;" horiz-adv-x="373" 
d="M-14 790v123h400v-123h-400zM95 0v700h183v-700h-183z" />
    <glyph glyph-name="imacron" unicode="&#x12b;" horiz-adv-x="327" 
d="M-37 637v123h400v-123h-400zM75 0v547h177v-547h-177z" />
    <glyph glyph-name="imacron.sc" horiz-adv-x="368" 
d="M-16 690v123h400v-123h-400zM95 0v599h177v-599h-177z" />
    <glyph glyph-name="Iogonek" unicode="&#x12e;" horiz-adv-x="373" 
d="M296 -281c-41 -13 -71 -18 -116 -18c-153 0 -179 73 -179 123c0 55 34 101 94 152v724h183v-699l1 -1l-54 -51c-48 -46 -69 -64 -69 -88c0 -22 17 -36 60 -36c19 0 48 3 80 17v-123z" />
    <glyph glyph-name="iogonek" unicode="&#x12f;" horiz-adv-x="327" 
d="M164 613c-70 0 -108 41 -108 92v1c0 52 38 92 107 92c70 0 108 -40 108 -92v-1c0 -51 -38 -92 -107 -92zM269 -281c-41 -13 -71 -18 -116 -18c-153 0 -179 73 -179 123c0 57 36 104 101 158v565h177v-547l-54 -51c-48 -46 -69 -64 -69 -88c0 -22 17 -36 60 -36
c19 0 48 3 80 17v-123z" />
    <glyph glyph-name="iogonek.sc" horiz-adv-x="368" 
d="M290 -281c-41 -13 -71 -18 -116 -18c-153 0 -179 73 -179 123c0 57 36 104 100 157v618h177v-598l1 -1l-54 -51c-48 -46 -69 -64 -69 -88c0 -22 17 -36 60 -36c19 0 48 3 80 17v-123z" />
    <glyph glyph-name="uni0136" unicode="&#x136;" horiz-adv-x="833" 
d="M93 0v700h183v-265h101l218 265h209v-1l-278 -335l293 -363v-1h-218l-228 279h-97v-279h-183zM271 -276l57 212h187v-18l-138 -194h-106z" />
    <glyph glyph-name="uni0137" unicode="&#x137;" horiz-adv-x="667" 
d="M73 0v767h177v-418h70l130 198h198v-1l-178 -258l193 -287v-1h-204l-137 211h-72v-211h-177zM196 -277l57 212h187v-18l-138 -194h-106z" />
    <glyph glyph-name="uni0137.sc" horiz-adv-x="766" 
d="M94 0v599h177v-221h79l181 221h201v-1l-237 -286l248 -311v-1h-209l-187 231h-76v-231h-177zM238 -276l57 212h187v-18l-138 -194h-106z" />
    <glyph glyph-name="Lacute" unicode="&#x139;" horiz-adv-x="698" 
d="M107 775l123 171h209v-11l-176 -160h-156zM93 0v700h183v-538h385l-7 -162h-561z" />
    <glyph glyph-name="lacute" unicode="&#x13a;" horiz-adv-x="327" 
d="M87 843l123 171h209v-11l-176 -160h-156zM75 0v767h177v-767h-177z" />
    <glyph glyph-name="lacute.sc" horiz-adv-x="635" 
d="M104 675l123 171h209v-11l-176 -160h-156zM94 0v599h177v-448h328l-7 -151h-498z" />
    <glyph glyph-name="Lcaron" unicode="&#x13d;" horiz-adv-x="698" 
d="M93 0v700h183v-538h385l-7 -162h-561zM364 521v179h170v-19l-75 -160h-95z" />
    <glyph glyph-name="lcaron" unicode="&#x13e;" horiz-adv-x="327" 
d="M75 0v767h177v-767h-177zM326 588v179h170v-19l-75 -160h-95z" />
    <glyph glyph-name="lcaron.sc" horiz-adv-x="635" 
d="M94 0v599h177v-448h328l-7 -151h-498zM356 419v179h170v-19l-75 -160h-95z" />
    <glyph glyph-name="uni013B" unicode="&#x13b;" horiz-adv-x="698" 
d="M93 0v700h183v-538h385l-7 -162h-561zM231 -293l57 212h187v-18l-138 -194h-106z" />
    <glyph glyph-name="uni013C" unicode="&#x13c;" horiz-adv-x="327" 
d="M75 0v767h177v-767h-177zM9 -293l57 212h187v-18l-138 -194h-106z" />
    <glyph glyph-name="uni013C.sc" horiz-adv-x="635" 
d="M94 0v599h177v-448h328l-7 -151h-498zM199 -293l57 212h187v-18l-138 -194h-106z" />
    <glyph glyph-name="Ldot" unicode="&#x13f;" horiz-adv-x="698" 
d="M93 0v700h183v-538h385l-7 -162h-561zM534 345c-62 0 -100 40 -100 92v1c0 52 38 92 100 92s100 -40 100 -92v-1c0 -52 -38 -92 -100 -92z" />
    <glyph glyph-name="ldot" unicode="&#x140;" horiz-adv-x="515" 
d="M75 0v767h177v-767h-177zM421 297c-62 0 -100 41 -100 93c0 53 38 93 99 93c63 0 101 -40 101 -93c0 -52 -38 -93 -100 -93z" />
    <glyph glyph-name="ldot.sc" horiz-adv-x="635" 
d="M94 0v599h177v-448h328l-7 -151h-498zM500 289c-63 0 -101 41 -101 92v1c0 52 39 92 100 92c63 0 101 -40 101 -92v-1c0 -51 -39 -92 -100 -92z" />
    <glyph glyph-name="Lslash" unicode="&#x141;" horiz-adv-x="731" 
d="M126 0v216l-90 -43v153l90 44v330h183v-241l217 106v-154l-217 -106v-143h384l-6 -162h-561z" />
    <glyph glyph-name="lslash" unicode="&#x142;" horiz-adv-x="420" 
d="M121 0v272l-103 -57v135l103 57v360h177v-261l104 58v-136l-104 -58v-370h-177z" />
    <glyph glyph-name="lslash.sc" horiz-adv-x="674" 
d="M133 0v189l-91 -41v137l91 41v273h177v-193l193 88v-138l-193 -87v-118h328l-6 -151h-499z" />
    <glyph glyph-name="Nacute" unicode="&#x143;" horiz-adv-x="887" 
d="M358 757l123 171h209v-11l-176 -160h-156zM93 0v700h195l326 -430h4v430h176v-700h-187l-334 443h-4v-443h-176z" />
    <glyph glyph-name="nacute" unicode="&#x144;" horiz-adv-x="696" 
d="M251 634l123 171h209v-11l-176 -160h-156zM73 0v547h175l1 -79c51 57 109 96 193 96c112 0 186 -67 186 -199v-365h-177v322c0 71 -36 90 -81 90c-46 0 -86 -22 -120 -52v-360h-177z" />
    <glyph glyph-name="nacute.sc" horiz-adv-x="807" 
d="M312 657l123 171h209v-11l-176 -160h-156zM94 0v599h185l262 -349h3v349h170v-599h-178l-270 359h-3v-359h-169z" />
    <glyph glyph-name="Ncaron" unicode="&#x147;" horiz-adv-x="887" 
d="M697 944l-134 -188h-210l-134 188h163l58 -80h37l58 80h162zM93 0v700h195l326 -430h4v430h176v-700h-187l-334 443h-4v-443h-176z" />
    <glyph glyph-name="ncaron" unicode="&#x148;" horiz-adv-x="696" 
d="M595 821l-134 -188h-210l-134 188h163l58 -80h37l58 80h162zM73 0v547h175l1 -79c51 57 109 96 193 96c112 0 186 -67 186 -199v-365h-177v322c0 71 -36 90 -81 90c-46 0 -86 -22 -120 -52v-360h-177z" />
    <glyph glyph-name="ncaron.sc" horiz-adv-x="807" 
d="M656 844l-134 -188h-210l-134 188h163l58 -80h37l58 80h162zM94 0v599h185l262 -349h3v349h170v-599h-178l-270 359h-3v-359h-169z" />
    <glyph glyph-name="uni0145" unicode="&#x145;" horiz-adv-x="887" 
d="M93 0v700h195l326 -430h4v430h176v-700h-187l-334 443h-4v-443h-176zM289 -275l57 212h187v-18l-138 -194h-106z" />
    <glyph glyph-name="uni0146" unicode="&#x146;" horiz-adv-x="696" 
d="M73 0v547h175l1 -79c51 57 109 96 193 96c112 0 186 -67 186 -199v-365h-177v322c0 71 -36 90 -81 90c-46 0 -86 -22 -120 -52v-360h-177zM211 -281l57 212h187v-18l-138 -194h-106z" />
    <glyph glyph-name="uni0146.sc" horiz-adv-x="807" 
d="M94 0v599h185l262 -349h3v349h170v-599h-178l-270 359h-3v-359h-169zM252 -275l57 212h187v-18l-138 -194h-106z" />
    <glyph glyph-name="Ntilde" unicode="&#xd1;" horiz-adv-x="887" 
d="M372 948c38 0 62 -10 109 -31c39 -18 53 -23 70 -23c33 0 60 17 104 67h1v-145c-27 -26 -64 -51 -111 -51c-39 0 -62 10 -109 31c-39 18 -53 23 -70 23c-33 0 -61 -17 -104 -66h-1v144c27 26 64 51 111 51zM93 0v700h195l326 -430h4v430h176v-700h-187l-334 443h-4v-443
h-176z" />
    <glyph glyph-name="ntilde" unicode="&#xf1;" horiz-adv-x="696" 
d="M269 807c38 0 62 -10 109 -31c39 -18 53 -23 70 -23c33 0 60 17 104 67h1v-145c-27 -26 -64 -51 -111 -51c-39 0 -62 10 -109 31c-39 18 -53 23 -70 23c-33 0 -61 -17 -104 -66h-1v144c27 26 64 51 111 51zM73 0v547h175l1 -79c51 57 109 96 193 96
c112 0 186 -67 186 -199v-365h-177v322c0 71 -36 90 -81 90c-46 0 -86 -22 -120 -52v-360h-177z" />
    <glyph glyph-name="ntilde.sc" horiz-adv-x="807" 
d="M330 848c38 0 62 -10 109 -31c39 -18 53 -23 70 -23c33 0 60 17 104 67h1v-145c-27 -26 -64 -51 -111 -51c-39 0 -62 10 -109 31c-39 18 -53 23 -70 23c-33 0 -61 -17 -104 -66h-1v144c27 26 64 51 111 51zM94 0v599h185l262 -349h3v349h170v-599h-178l-270 359h-3v-359
h-169z" />
    <glyph glyph-name="Oacute" unicode="&#xd3;" horiz-adv-x="893" 
d="M342 794l123 171h209v-11l-176 -160h-156zM446 -19c-240 0 -392 144 -392 369s152 369 392 369c241 0 393 -144 393 -369s-152 -369 -393 -369zM446 141c132 0 209 78 209 209s-75 209 -208 209c-132 0 -209 -78 -209 -209s75 -209 208 -209z" />
    <glyph glyph-name="oacute" unicode="&#xf3;" horiz-adv-x="698" 
d="M244 636l123 171h209v-11l-176 -160h-156zM349 -18c-192 0 -307 124 -307 291c0 168 115 292 307 292s307 -124 307 -292c0 -167 -115 -291 -307 -291zM349 124c82 0 132 60 132 149s-50 150 -132 150c-83 0 -132 -61 -132 -150s49 -149 132 -149z" />
    <glyph glyph-name="oacute.sc" horiz-adv-x="808" 
d="M300 694l123 171h209v-11l-176 -160h-156zM403 -21c-211 0 -346 123 -346 318c0 196 136 322 348 322s347 -123 347 -319c0 -195 -137 -321 -349 -321zM405 131c102 0 168 60 168 167s-68 169 -170 169s-167 -61 -167 -167c0 -108 66 -169 169 -169z" />
    <glyph glyph-name="Obreve" unicode="&#x14e;" horiz-adv-x="893" 
d="M446 785c-126 0 -206 52 -206 153c0 18 2 37 7 57h128c-2 -11 -3 -20 -3 -29c0 -49 34 -60 74 -60s73 11 73 59c0 10 -1 19 -3 30h128c5 -20 7 -40 7 -58c0 -100 -79 -152 -205 -152zM446 -19c-240 0 -392 144 -392 369s152 369 392 369c241 0 393 -144 393 -369
s-152 -369 -393 -369zM446 141c132 0 209 78 209 209s-75 209 -208 209c-132 0 -209 -78 -209 -209s75 -209 208 -209z" />
    <glyph glyph-name="obreve" unicode="&#x14f;" horiz-adv-x="698" 
d="M349 627c-126 0 -206 52 -206 153c0 18 2 37 7 57h128c-2 -11 -3 -20 -3 -29c0 -49 34 -60 74 -60s73 11 73 59c0 10 -1 19 -3 30h128c5 -20 7 -40 7 -58c0 -100 -79 -152 -205 -152zM349 -18c-192 0 -307 124 -307 291c0 168 115 292 307 292s307 -124 307 -292
c0 -167 -115 -291 -307 -291zM349 124c82 0 132 60 132 149s-50 150 -132 150c-83 0 -132 -61 -132 -150s49 -149 132 -149z" />
    <glyph glyph-name="obreve.sc" horiz-adv-x="808" 
d="M404 685c-126 0 -206 52 -206 153c0 18 2 37 7 57h128c-2 -11 -3 -20 -3 -29c0 -49 34 -60 74 -60s73 11 73 59c0 10 -1 19 -3 30h128c5 -20 7 -40 7 -58c0 -100 -79 -152 -205 -152zM403 -21c-211 0 -346 123 -346 318c0 196 136 322 348 322s347 -123 347 -319
c0 -195 -137 -321 -349 -321zM405 131c102 0 168 60 168 167s-68 169 -170 169s-167 -61 -167 -167c0 -108 66 -169 169 -169z" />
    <glyph glyph-name="Ocircumflex" unicode="&#xd4;" horiz-adv-x="893" 
d="M207 793l134 188h210l134 -188h-163l-58 81h-37l-58 -81h-162zM446 -19c-240 0 -392 144 -392 369s152 369 392 369c241 0 393 -144 393 -369s-152 -369 -393 -369zM446 141c132 0 209 78 209 209s-75 209 -208 209c-132 0 -209 -78 -209 -209s75 -209 208 -209z" />
    <glyph glyph-name="ocircumflex" unicode="&#xf4;" horiz-adv-x="698" 
d="M110 635l134 188h210l134 -188h-163l-58 81h-37l-58 -81h-162zM349 -18c-192 0 -307 124 -307 291c0 168 115 292 307 292s307 -124 307 -292c0 -167 -115 -291 -307 -291zM349 124c82 0 132 60 132 149s-50 150 -132 150c-83 0 -132 -61 -132 -150s49 -149 132 -149z
" />
    <glyph glyph-name="ocircumflex.sc" horiz-adv-x="808" 
d="M165 693l134 188h210l134 -188h-163l-58 81h-37l-58 -81h-162zM403 -21c-211 0 -346 123 -346 318c0 196 136 322 348 322s347 -123 347 -319c0 -195 -137 -321 -349 -321zM405 131c102 0 168 60 168 167s-68 169 -170 169s-167 -61 -167 -167c0 -108 66 -169 169 -169z
" />
    <glyph glyph-name="Odieresis" unicode="&#xd6;" horiz-adv-x="893" 
d="M315 785c-59 0 -95 39 -95 88v1c0 49 36 87 95 87c60 0 95 -38 95 -87v-1c0 -49 -35 -88 -95 -88zM578 785c-59 0 -95 39 -95 88v1c0 49 36 87 95 87c60 0 95 -38 95 -87v-1c0 -49 -35 -88 -95 -88zM446 -19c-240 0 -392 144 -392 369s152 369 392 369
c241 0 393 -144 393 -369s-152 -369 -393 -369zM446 141c132 0 209 78 209 209s-75 209 -208 209c-132 0 -209 -78 -209 -209s75 -209 208 -209z" />
    <glyph glyph-name="odieresis" unicode="&#xf6;" horiz-adv-x="698" 
d="M218 627c-59 0 -95 39 -95 88v1c0 49 36 87 95 87c60 0 95 -38 95 -87v-1c0 -49 -35 -88 -95 -88zM481 627c-59 0 -95 39 -95 88v1c0 49 36 87 95 87c60 0 95 -38 95 -87v-1c0 -49 -35 -88 -95 -88zM349 -18c-192 0 -307 124 -307 291c0 168 115 292 307 292
s307 -124 307 -292c0 -167 -115 -291 -307 -291zM349 124c82 0 132 60 132 149s-50 150 -132 150c-83 0 -132 -61 -132 -150s49 -149 132 -149z" />
    <glyph glyph-name="odieresis.sc" horiz-adv-x="808" 
d="M273 685c-59 0 -95 39 -95 88v1c0 49 36 87 95 87c60 0 95 -38 95 -87v-1c0 -49 -35 -88 -95 -88zM536 685c-59 0 -95 39 -95 88v1c0 49 36 87 95 87c60 0 95 -38 95 -87v-1c0 -49 -35 -88 -95 -88zM403 -21c-211 0 -346 123 -346 318c0 196 136 322 348 322
s347 -123 347 -319c0 -195 -137 -321 -349 -321zM405 131c102 0 168 60 168 167s-68 169 -170 169s-167 -61 -167 -167c0 -108 66 -169 169 -169z" />
    <glyph glyph-name="OE" unicode="&#x152;" horiz-adv-x="1257" 
d="M54 349c0 221 132 351 351 351h777l6 -155h-422v-112h336v-147h-336v-131h436l-7 -155h-790c-219 0 -351 128 -351 349zM583 543h-165c-113 0 -178 -58 -178 -192s65 -194 178 -194h165v386z" />
    <glyph glyph-name="oe" unicode="&#x153;" horiz-adv-x="1095" 
d="M803 -17c-112 0 -189 32 -238 94c-47 -61 -118 -95 -220 -95c-188 0 -303 124 -303 291c0 168 115 292 303 292c105 0 178 -37 225 -104c47 67 118 104 215 104c179 0 269 -122 269 -285c0 -18 -1 -36 -3 -53h-394c14 -72 68 -105 159 -105c72 0 144 23 203 56h1v-142
c-55 -29 -132 -53 -217 -53zM779 430c-67 0 -107 -40 -120 -105h236c-5 63 -48 105 -116 105zM349 124c84 0 132 60 132 149s-48 150 -132 150c-83 0 -132 -61 -132 -150s49 -149 132 -149z" />
    <glyph glyph-name="oe.sc" horiz-adv-x="1114" 
d="M57 299c0 190 117 300 307 300h672l7 -139h-358v-97h282v-126h-282v-98h371l-7 -139h-685c-190 0 -307 109 -307 299zM509 455h-122c-98 0 -151 -45 -151 -155c0 -108 53 -156 151 -156h122v311z" />
    <glyph glyph-name="Ograve" unicode="&#xd2;" horiz-adv-x="893" 
d="M552 794h-157l-175 160v11h209zM446 -19c-240 0 -392 144 -392 369s152 369 392 369c241 0 393 -144 393 -369s-152 -369 -393 -369zM446 141c132 0 209 78 209 209s-75 209 -208 209c-132 0 -209 -78 -209 -209s75 -209 208 -209z" />
    <glyph glyph-name="ograve" unicode="&#xf2;" horiz-adv-x="698" 
d="M455 636h-157l-175 160v11h209zM349 -18c-192 0 -307 124 -307 291c0 168 115 292 307 292s307 -124 307 -292c0 -167 -115 -291 -307 -291zM349 124c82 0 132 60 132 149s-50 150 -132 150c-83 0 -132 -61 -132 -150s49 -149 132 -149z" />
    <glyph glyph-name="ograve.sc" horiz-adv-x="808" 
d="M510 694h-157l-175 160v11h209zM403 -21c-211 0 -346 123 -346 318c0 196 136 322 348 322s347 -123 347 -319c0 -195 -137 -321 -349 -321zM405 131c102 0 168 60 168 167s-68 169 -170 169s-167 -61 -167 -167c0 -108 66 -169 169 -169z" />
    <glyph glyph-name="Ohungarumlaut" unicode="&#x150;" horiz-adv-x="893" 
d="M496 793l106 172h182v-12l-164 -160h-124zM259 793l107 172h182v-12l-164 -160h-125zM446 -19c-240 0 -392 144 -392 369s152 369 392 369c241 0 393 -144 393 -369s-152 -369 -393 -369zM446 141c132 0 209 78 209 209s-75 209 -208 209c-132 0 -209 -78 -209 -209
s75 -209 208 -209z" />
    <glyph glyph-name="ohungarumlaut" unicode="&#x151;" horiz-adv-x="698" 
d="M398 635l106 172h182v-12l-164 -160h-124zM161 635l107 172h182v-12l-164 -160h-125zM349 -18c-192 0 -307 124 -307 291c0 168 115 292 307 292s307 -124 307 -292c0 -167 -115 -291 -307 -291zM349 124c82 0 132 60 132 149s-50 150 -132 150c-83 0 -132 -61 -132 -150
s49 -149 132 -149z" />
    <glyph glyph-name="ohungarumlaut.sc" horiz-adv-x="808" 
d="M453 693l106 172h182v-12l-164 -160h-124zM216 693l107 172h182v-12l-164 -160h-125zM403 -21c-211 0 -346 123 -346 318c0 196 136 322 348 322s347 -123 347 -319c0 -195 -137 -321 -349 -321zM405 131c102 0 168 60 168 167s-68 169 -170 169s-167 -61 -167 -167
c0 -108 66 -169 169 -169z" />
    <glyph glyph-name="Omacron" unicode="&#x14c;" horiz-adv-x="893" 
d="M246 809v123h400v-123h-400zM446 -19c-240 0 -392 144 -392 369s152 369 392 369c241 0 393 -144 393 -369s-152 -369 -393 -369zM446 141c132 0 209 78 209 209s-75 209 -208 209c-132 0 -209 -78 -209 -209s75 -209 208 -209z" />
    <glyph glyph-name="omacron" unicode="&#x14d;" horiz-adv-x="698" 
d="M149 651v123h400v-123h-400zM349 -18c-192 0 -307 124 -307 291c0 168 115 292 307 292s307 -124 307 -292c0 -167 -115 -291 -307 -291zM349 124c82 0 132 60 132 149s-50 150 -132 150c-83 0 -132 -61 -132 -150s49 -149 132 -149z" />
    <glyph glyph-name="omacron.sc" horiz-adv-x="808" 
d="M204 709v123h400v-123h-400zM403 -21c-211 0 -346 123 -346 318c0 196 136 322 348 322s347 -123 347 -319c0 -195 -137 -321 -349 -321zM405 131c102 0 168 60 168 167s-68 169 -170 169s-167 -61 -167 -167c0 -108 66 -169 169 -169z" />
    <glyph glyph-name="Oslash" unicode="&#xd8;" horiz-adv-x="893" 
d="M29 -60l119 153c-60 63 -94 151 -94 257c0 225 152 369 392 369c67 0 127 -11 179 -32l58 73h181l-119 -154c61 -63 94 -151 94 -256c0 -225 -152 -369 -393 -369c-66 0 -126 11 -178 32l-56 -73h-183zM233 350c0 -51 11 -94 32 -128l262 331c-24 7 -51 11 -80 11
c-136 0 -214 -80 -214 -214zM445 136c137 0 215 80 215 214c0 51 -11 94 -33 128l-261 -331c23 -7 50 -11 79 -11z" />
    <glyph glyph-name="oslash" unicode="&#xf8;" horiz-adv-x="698" 
d="M349 -18c-55 0 -103 10 -145 28l-45 -58h-150l99 129c-43 51 -66 117 -66 192c0 168 115 292 307 292c55 0 103 -10 145 -29l45 58h150l-99 -129c43 -50 66 -117 66 -192c0 -167 -115 -291 -307 -291zM210 273c0 -28 5 -54 14 -76l181 223c-16 6 -35 10 -56 10
c-87 0 -139 -63 -139 -157zM349 117c87 0 139 62 139 156c0 29 -5 55 -14 77l-182 -222c17 -7 36 -11 57 -11z" />
    <glyph glyph-name="oslash.sc" horiz-adv-x="808" 
d="M403 -21c-60 0 -113 10 -160 28l-53 -66h-173l117 141c-50 54 -77 127 -77 215c0 196 136 322 348 322c60 0 114 -10 160 -28l55 65h172l-117 -140c50 -54 77 -128 77 -216c0 -195 -137 -321 -349 -321zM227 300c0 -40 9 -73 25 -100l218 265c-20 7 -42 10 -67 10
c-107 0 -176 -64 -176 -175zM405 123c107 0 177 63 177 175c0 40 -9 73 -25 100l-219 -265c20 -7 43 -10 67 -10z" />
    <glyph glyph-name="Oslashacute" unicode="&#x1fe;" horiz-adv-x="893" 
d="M342 794l123 171h209v-11l-176 -160h-156zM29 -60l119 153c-60 63 -94 151 -94 257c0 225 152 369 392 369c67 0 127 -11 179 -32l58 73h181l-119 -154c61 -63 94 -151 94 -256c0 -225 -152 -369 -393 -369c-66 0 -126 11 -178 32l-56 -73h-183zM233 350
c0 -51 11 -94 32 -128l262 331c-24 7 -51 11 -80 11c-136 0 -214 -80 -214 -214zM445 136c137 0 215 80 215 214c0 51 -11 94 -33 128l-261 -331c23 -7 50 -11 79 -11z" />
    <glyph glyph-name="oslashacute" unicode="&#x1ff;" horiz-adv-x="698" 
d="M244 640l123 171h209v-11l-176 -160h-156zM349 -18c-55 0 -103 10 -145 28l-45 -58h-150l99 129c-43 51 -66 117 -66 192c0 168 115 292 307 292c55 0 103 -10 145 -29l45 58h150l-99 -129c43 -50 66 -117 66 -192c0 -167 -115 -291 -307 -291zM210 273
c0 -28 5 -54 14 -76l181 223c-16 6 -35 10 -56 10c-87 0 -139 -63 -139 -157zM349 117c87 0 139 62 139 156c0 29 -5 55 -14 77l-182 -222c17 -7 36 -11 57 -11z" />
    <glyph glyph-name="oslashacute.sc" horiz-adv-x="808" 
d="M299 689l123 171h209v-11l-176 -160h-156zM403 -21c-60 0 -113 10 -160 28l-53 -66h-173l117 141c-50 54 -77 127 -77 215c0 196 136 322 348 322c60 0 114 -10 160 -28l55 65h172l-117 -140c50 -54 77 -128 77 -216c0 -195 -137 -321 -349 -321zM227 300
c0 -40 9 -73 25 -100l218 265c-20 7 -42 10 -67 10c-107 0 -176 -64 -176 -175zM405 123c107 0 177 63 177 175c0 40 -9 73 -25 100l-219 -265c20 -7 43 -10 67 -10z" />
    <glyph glyph-name="Otilde" unicode="&#xd5;" horiz-adv-x="893" 
d="M360 967c38 0 62 -10 109 -31c39 -18 53 -23 70 -23c33 0 60 17 104 67h1v-145c-27 -26 -64 -51 -111 -51c-39 0 -62 10 -109 31c-39 18 -53 23 -70 23c-33 0 -61 -17 -104 -66h-1v144c27 26 64 51 111 51zM446 -19c-240 0 -392 144 -392 369s152 369 392 369
c241 0 393 -144 393 -369s-152 -369 -393 -369zM446 141c132 0 209 78 209 209s-75 209 -208 209c-132 0 -209 -78 -209 -209s75 -209 208 -209z" />
    <glyph glyph-name="otilde" unicode="&#xf5;" horiz-adv-x="698" 
d="M263 809c38 0 62 -10 109 -31c39 -18 53 -23 70 -23c33 0 60 17 104 67h1v-145c-27 -26 -64 -51 -111 -51c-39 0 -62 10 -109 31c-39 18 -53 23 -70 23c-33 0 -61 -17 -104 -66h-1v144c27 26 64 51 111 51zM349 -18c-192 0 -307 124 -307 291c0 168 115 292 307 292
s307 -124 307 -292c0 -167 -115 -291 -307 -291zM349 124c82 0 132 60 132 149s-50 150 -132 150c-83 0 -132 -61 -132 -150s49 -149 132 -149z" />
    <glyph glyph-name="otilde.sc" horiz-adv-x="808" 
d="M318 867c38 0 62 -10 109 -31c39 -18 53 -23 70 -23c33 0 60 17 104 67h1v-145c-27 -26 -64 -51 -111 -51c-39 0 -62 10 -109 31c-39 18 -53 23 -70 23c-33 0 -61 -17 -104 -66h-1v144c27 26 64 51 111 51zM403 -21c-211 0 -346 123 -346 318c0 196 136 322 348 322
s347 -123 347 -319c0 -195 -137 -321 -349 -321zM405 131c102 0 168 60 168 167s-68 169 -170 169s-167 -61 -167 -167c0 -108 66 -169 169 -169z" />
    <glyph glyph-name="Racute" unicode="&#x154;" horiz-adv-x="813" 
d="M301 775l123 171h209v-11l-176 -160h-156zM93 0v700h391c183 0 272 -86 272 -246c0 -114 -49 -190 -143 -224l172 -230h-211l-139 195h-159v-195h-183zM276 345h192c77 0 104 43 104 101c0 57 -27 99 -104 99h-192v-200z" />
    <glyph glyph-name="racute" unicode="&#x155;" horiz-adv-x="447" 
d="M149 631l123 171h209v-11l-176 -160h-156zM73 0v547h176v-101c40 71 94 113 153 113c6 0 12 0 23 -1v-177c-14 2 -25 2 -38 2c-64 0 -114 -19 -137 -62v-321h-177z" />
    <glyph glyph-name="racute.sc" horiz-adv-x="750" 
d="M284 675l123 171h209v-11l-176 -160h-156zM94 0v599h323c177 0 267 -62 267 -212c0 -100 -44 -158 -132 -189l174 -194v-4h-212l-139 169h-104v-169h-177zM271 304h142c67 0 96 25 96 78c0 52 -29 77 -96 77h-142v-155z" />
    <glyph glyph-name="Rcaron" unicode="&#x158;" horiz-adv-x="813" 
d="M645 962l-134 -188h-210l-134 188h163l58 -80h37l58 80h162zM93 0v700h391c183 0 272 -86 272 -246c0 -114 -49 -190 -143 -224l172 -230h-211l-139 195h-159v-195h-183zM276 345h192c77 0 104 43 104 101c0 57 -27 99 -104 99h-192v-200z" />
    <glyph glyph-name="rcaron" unicode="&#x159;" horiz-adv-x="447" 
d="M491 818l-134 -188h-210l-134 188h163l58 -80h37l58 80h162zM73 0v547h176v-101c40 71 94 113 153 113c6 0 12 0 23 -1v-177c-14 2 -25 2 -38 2c-64 0 -114 -19 -137 -62v-321h-177z" />
    <glyph glyph-name="rcaron.sc" horiz-adv-x="750" 
d="M628 862l-134 -188h-210l-134 188h163l58 -80h37l58 80h162zM94 0v599h323c177 0 267 -62 267 -212c0 -100 -44 -158 -132 -189l174 -194v-4h-212l-139 169h-104v-169h-177zM271 304h142c67 0 96 25 96 78c0 52 -29 77 -96 77h-142v-155z" />
    <glyph glyph-name="uni0156" unicode="&#x156;" horiz-adv-x="813" 
d="M93 0v700h391c183 0 272 -86 272 -246c0 -114 -49 -190 -143 -224l172 -230h-211l-139 195h-159v-195h-183zM276 345h192c77 0 104 43 104 101c0 57 -27 99 -104 99h-192v-200zM274 -276l57 212h187v-18l-138 -194h-106z" />
    <glyph glyph-name="uni0157" unicode="&#x157;" horiz-adv-x="447" 
d="M73 0v547h176v-101c40 71 94 113 153 113c6 0 12 0 23 -1v-177c-14 2 -25 2 -38 2c-64 0 -114 -19 -137 -62v-321h-177zM11 -293l57 212h187v-18l-138 -194h-106z" />
    <glyph glyph-name="uni0157.sc" horiz-adv-x="750" 
d="M94 0v599h323c177 0 267 -62 267 -212c0 -100 -44 -158 -132 -189l174 -194v-4h-212l-139 169h-104v-169h-177zM271 304h142c67 0 96 25 96 78c0 52 -29 77 -96 77h-142v-155zM218 -276l57 212h187v-18l-138 -194h-106z" />
    <glyph glyph-name="Sacute" unicode="&#x15a;" horiz-adv-x="748" 
d="M295 793l123 171h209v-11l-176 -160h-156zM390 -17c-127 0 -226 27 -318 67v176h1c109 -57 225 -88 323 -88c84 0 127 23 127 63c0 41 -32 53 -187 79c-143 23 -266 67 -266 207c0 124 106 230 328 230c89 0 186 -21 266 -60v-175h-1c-82 49 -189 80 -279 80
c-89 0 -126 -24 -126 -62c0 -49 67 -54 184 -75c143 -25 268 -65 268 -215c0 -100 -67 -227 -320 -227z" />
    <glyph glyph-name="sacute" unicode="&#x15b;" horiz-adv-x="587" 
d="M195 636l123 171h209v-11l-176 -160h-156zM304 -18c-77 0 -163 18 -242 60v148h1c76 -47 168 -75 248 -75c53 0 74 14 74 41c0 23 -11 33 -122 57c-138 30 -202 67 -202 169c0 108 91 182 243 182c78 0 165 -25 210 -51v-145h-1c-65 38 -154 63 -217 63
c-48 0 -67 -14 -67 -37c0 -24 16 -33 127 -58c143 -33 195 -78 195 -173s-66 -181 -247 -181z" />
    <glyph glyph-name="sacute.sc" horiz-adv-x="687" 
d="M260 690l123 171h209v-11l-176 -160h-156zM358 -17c-101 0 -205 26 -282 60v158h1c94 -49 209 -77 285 -77c80 0 106 17 106 45c0 31 -25 38 -148 64c-144 29 -246 55 -246 181c0 116 93 201 286 201c87 0 175 -22 242 -52v-157h-1c-72 38 -166 68 -251 68
c-69 0 -101 -17 -100 -46s25 -35 144 -60c138 -27 247 -64 247 -187c0 -90 -47 -198 -283 -198z" />
    <glyph glyph-name="Scaron" unicode="&#x160;" horiz-adv-x="748" 
d="M639 980l-134 -188h-210l-134 188h163l58 -80h37l58 80h162zM390 -17c-127 0 -226 27 -318 67v176h1c109 -57 225 -88 323 -88c84 0 127 23 127 63c0 41 -32 53 -187 79c-143 23 -266 67 -266 207c0 124 106 230 328 230c89 0 186 -21 266 -60v-175h-1
c-82 49 -189 80 -279 80c-89 0 -126 -24 -126 -62c0 -49 67 -54 184 -75c143 -25 268 -65 268 -215c0 -100 -67 -227 -320 -227z" />
    <glyph glyph-name="scaron" unicode="&#x161;" horiz-adv-x="587" 
d="M539 823l-134 -188h-210l-134 188h163l58 -80h37l58 80h162zM304 -18c-77 0 -163 18 -242 60v148h1c76 -47 168 -75 248 -75c53 0 74 14 74 41c0 23 -11 33 -122 57c-138 30 -202 67 -202 169c0 108 91 182 243 182c78 0 165 -25 210 -51v-145h-1c-65 38 -154 63 -217 63
c-48 0 -67 -14 -67 -37c0 -24 16 -33 127 -58c143 -33 195 -78 195 -173s-66 -181 -247 -181z" />
    <glyph glyph-name="scaron.sc" horiz-adv-x="687" 
d="M603 877l-134 -188h-210l-134 188h163l58 -80h37l58 80h162zM358 -17c-101 0 -205 26 -282 60v158h1c94 -49 209 -77 285 -77c80 0 106 17 106 45c0 31 -25 38 -148 64c-144 29 -246 55 -246 181c0 116 93 201 286 201c87 0 175 -22 242 -52v-157h-1
c-72 38 -166 68 -251 68c-69 0 -101 -17 -100 -46s25 -35 144 -60c138 -27 247 -64 247 -187c0 -90 -47 -198 -283 -198z" />
    <glyph glyph-name="Scedilla" unicode="&#x15e;" horiz-adv-x="748" 
d="M171 -188v13l145 161c-93 9 -171 32 -244 64v176h1c109 -57 225 -88 323 -88c84 0 127 23 127 63c0 41 -32 53 -187 79c-143 23 -266 67 -266 207c0 124 106 230 328 230c89 0 186 -21 266 -60v-175h-1c-82 49 -189 80 -279 80c-89 0 -126 -24 -126 -62
c0 -49 67 -54 184 -75c143 -25 268 -65 268 -215c0 -89 -53 -200 -245 -223l-84 -175h-210z" />
    <glyph glyph-name="scedilla" unicode="&#x15f;" horiz-adv-x="587" 
d="M97 -188v13l144 161c-59 7 -121 25 -179 56v148h1c76 -47 168 -75 248 -75c53 0 74 14 74 41c0 23 -11 33 -122 57c-138 30 -202 67 -202 169c0 108 91 182 243 182c78 0 165 -25 210 -51v-145h-1c-65 38 -154 63 -217 63c-48 0 -67 -14 -67 -37c0 -24 16 -33 127 -58
c143 -33 195 -78 195 -173c0 -77 -44 -149 -158 -173l-86 -178h-210z" />
    <glyph glyph-name="scedilla.sc" horiz-adv-x="687" 
d="M133 -188v13l146 163c-74 9 -146 30 -203 55v158h1c94 -49 209 -77 285 -77c80 0 106 17 106 45c0 31 -25 38 -148 64c-144 29 -246 55 -246 181c0 116 93 201 286 201c87 0 175 -22 242 -52v-157h-1c-72 38 -166 68 -251 68c-69 0 -101 -17 -100 -46s25 -35 144 -60
c138 -27 247 -64 247 -187c0 -80 -38 -175 -214 -194l-84 -175h-210z" />
    <glyph glyph-name="uni0218" unicode="&#x218;" horiz-adv-x="748" 
d="M390 -17c-127 0 -226 27 -318 67v176h1c109 -57 225 -88 323 -88c84 0 127 23 127 63c0 41 -32 53 -187 79c-143 23 -266 67 -266 207c0 124 106 230 328 230c89 0 186 -21 266 -60v-175h-1c-82 49 -189 80 -279 80c-89 0 -126 -24 -126 -62c0 -49 67 -54 184 -75
c143 -25 268 -65 268 -215c0 -100 -67 -227 -320 -227zM233 -307l57 212h187v-18l-138 -194h-106z" />
    <glyph glyph-name="uni0219" unicode="&#x219;" horiz-adv-x="587" 
d="M304 -18c-77 0 -163 18 -242 60v148h1c76 -47 168 -75 248 -75c53 0 74 14 74 41c0 23 -11 33 -122 57c-138 30 -202 67 -202 169c0 108 91 182 243 182c78 0 165 -25 210 -51v-145h-1c-65 38 -154 63 -217 63c-48 0 -67 -14 -67 -37c0 -24 16 -33 127 -58
c143 -33 195 -78 195 -173s-66 -181 -247 -181zM150 -307l57 212h187v-18l-138 -194h-106z" />
    <glyph glyph-name="uni0219.sc" horiz-adv-x="687" 
d="M358 -17c-101 0 -205 26 -282 60v158h1c94 -49 209 -77 285 -77c80 0 106 17 106 45c0 31 -25 38 -148 64c-144 29 -246 55 -246 181c0 116 93 201 286 201c87 0 175 -22 242 -52v-157h-1c-72 38 -166 68 -251 68c-69 0 -101 -17 -100 -46s25 -35 144 -60
c138 -27 247 -64 247 -187c0 -90 -47 -198 -283 -198zM205 -307l57 212h187v-18l-138 -194h-106z" />
    <glyph glyph-name="uni1E9E" unicode="&#x1e9e;" horiz-adv-x="864" 
d="M276 0h-183v700h684v-158l-173 -145l48 -14c132 -42 175 -105 175 -194c0 -132 -92 -206 -274 -206c-74 0 -139 12 -192 30v155h1c45 -19 107 -38 185 -38c72 0 99 25 99 66c0 45 -38 62 -163 93l-65 16v104l166 141h-308v-550z" />
    <glyph glyph-name="germandbls" unicode="&#xdf;" horiz-adv-x="792" 
d="M21 409l25 138h93c30 161 141 236 292 236c154 0 248 -78 305 -192l-164 -177l37 -19c90 -46 146 -96 146 -194c0 -134 -102 -217 -238 -217c-47 0 -85 5 -137 22v142h1c41 -17 78 -26 114 -26c56 0 90 32 90 81c0 46 -32 65 -118 102l-60 25l-2 96l138 157
c-31 40 -70 55 -106 55c-66 0 -132 -35 -132 -190v-448h-174v409h-110z" />
    <glyph glyph-name="uni1E9E.sc" horiz-adv-x="815" 
d="M271 0h-177v599h630v-137l-160 -131l35 -10c134 -36 165 -91 165 -168c0 -107 -76 -170 -242 -170c-59 0 -138 12 -178 27v138h1c35 -15 102 -33 164 -33c72 0 85 25 85 49c0 30 -20 47 -137 72l-58 12v95l141 119h-269v-462z" />
    <glyph glyph-name="Tcaron" unicode="&#x164;" horiz-adv-x="753" 
d="M616 962l-134 -188h-210l-134 188h163l58 -80h37l58 80h162zM285 0v538h-249l7 162h668l6 -162h-249v-538h-183z" />
    <glyph glyph-name="tcaron" unicode="&#x165;" horiz-adv-x="457" 
d="M386 613v179h170v-19l-75 -160h-95zM139 0v409h-119l26 138h93v123l175 20v-143h121v-138h-121v-409h-175z" />
    <glyph glyph-name="tcaron.sc" horiz-adv-x="700" 
d="M589 862l-134 -188h-210l-134 188h163l58 -80h37l58 80h162zM262 0v450h-216l7 149h595l6 -149h-216v-450h-176z" />
    <glyph glyph-name="uni0162" unicode="&#x21a;" horiz-adv-x="753" 
d="M285 0v538h-249l7 162h668l6 -162h-249v-538h-183zM222 -293l57 212h187v-18l-138 -194h-106z" />
    <glyph glyph-name="uni0162" unicode="&#x162;" horiz-adv-x="753" 
d="M285 0v538h-249l7 162h668l6 -162h-249v-538h-183zM222 -293l57 212h187v-18l-138 -194h-106z" />
    <glyph glyph-name="uni0163" unicode="&#x21b;" horiz-adv-x="457" 
d="M139 0v409h-119l26 138h93v123l175 20v-143h121v-138h-121v-409h-175zM70 -293l57 212h187v-18l-138 -194h-106z" />
    <glyph glyph-name="uni0163" unicode="&#x163;" horiz-adv-x="457" 
d="M139 0v409h-119l26 138h93v123l175 20v-143h121v-138h-121v-409h-175zM70 -293l57 212h187v-18l-138 -194h-106z" />
    <glyph glyph-name="uni0163.sc" horiz-adv-x="700" 
d="M262 0v450h-216l7 149h595l6 -149h-216v-450h-176zM195 -293l57 212h187v-18l-138 -194h-106z" />
    <glyph glyph-name="Uacute" unicode="&#xda;" horiz-adv-x="866" 
d="M335 758l123 171h209v-11l-176 -160h-156zM432 -19c-200 0 -345 78 -345 291v428h184v-416c0 -105 76 -138 162 -138s163 31 163 134v420h183v-424c0 -217 -148 -295 -347 -295z" />
    <glyph glyph-name="uacute" unicode="&#xfa;" horiz-adv-x="696" 
d="M240 611l123 171h209v-11l-176 -160h-156zM623 547v-547h-175l-1 77c-51 -57 -108 -95 -192 -95c-113 0 -187 68 -187 200v365h177v-322c0 -71 37 -90 81 -90c46 0 86 21 120 51v361h177z" />
    <glyph glyph-name="uacute.sc" horiz-adv-x="781" 
d="M290 657l123 171h209v-11l-176 -160h-156zM389 -17c-175 0 -304 68 -304 254v362h177v-354c0 -85 63 -111 129 -111s128 25 128 108v357h177v-359c0 -189 -131 -257 -307 -257z" />
    <glyph glyph-name="Ubreve" unicode="&#x16c;" horiz-adv-x="866" 
d="M433 749c-126 0 -206 52 -206 153c0 18 2 37 7 57h128c-2 -11 -3 -20 -3 -29c0 -49 34 -60 74 -60s73 11 73 59c0 10 -1 19 -3 30h128c5 -20 7 -40 7 -58c0 -100 -79 -152 -205 -152zM432 -19c-200 0 -345 78 -345 291v428h184v-416c0 -105 76 -138 162 -138
s163 31 163 134v420h183v-424c0 -217 -148 -295 -347 -295z" />
    <glyph glyph-name="ubreve" unicode="&#x16d;" horiz-adv-x="696" 
d="M345 602c-126 0 -206 52 -206 153c0 18 2 37 7 57h128c-2 -11 -3 -20 -3 -29c0 -49 34 -60 74 -60s73 11 73 59c0 10 -1 19 -3 30h128c5 -20 7 -40 7 -58c0 -100 -79 -152 -205 -152zM623 547v-547h-175l-1 77c-51 -57 -108 -95 -192 -95c-113 0 -187 68 -187 200v365
h177v-322c0 -71 37 -90 81 -90c46 0 86 21 120 51v361h177z" />
    <glyph glyph-name="ubreve.sc" horiz-adv-x="781" 
d="M391 648c-126 0 -206 52 -206 153c0 18 2 37 7 57h128c-2 -11 -3 -20 -3 -29c0 -49 34 -60 74 -60s73 11 73 59c0 10 -1 19 -3 30h128c5 -20 7 -40 7 -58c0 -100 -79 -152 -205 -152zM389 -17c-175 0 -304 68 -304 254v362h177v-354c0 -85 63 -111 129 -111
s128 25 128 108v357h177v-359c0 -189 -131 -257 -307 -257z" />
    <glyph glyph-name="Ucircumflex" unicode="&#xdb;" horiz-adv-x="866" 
d="M194 774l134 188h210l134 -188h-163l-58 81h-37l-58 -81h-162zM432 -19c-200 0 -345 78 -345 291v428h184v-416c0 -105 76 -138 162 -138s163 31 163 134v420h183v-424c0 -217 -148 -295 -347 -295z" />
    <glyph glyph-name="ucircumflex" unicode="&#xfb;" horiz-adv-x="696" 
d="M106 621l134 188h210l134 -188h-163l-58 81h-37l-58 -81h-162zM623 547v-547h-175l-1 77c-51 -57 -108 -95 -192 -95c-113 0 -187 68 -187 200v365h177v-322c0 -71 37 -90 81 -90c46 0 86 21 120 51v361h177z" />
    <glyph glyph-name="ucircumflex.sc" horiz-adv-x="781" 
d="M152 674l134 188h210l134 -188h-163l-58 81h-37l-58 -81h-162zM389 -17c-175 0 -304 68 -304 254v362h177v-354c0 -85 63 -111 129 -111s128 25 128 108v357h177v-359c0 -189 -131 -257 -307 -257z" />
    <glyph glyph-name="Udieresis" unicode="&#xdc;" horiz-adv-x="866" 
d="M302 766c-59 0 -95 39 -95 88v1c0 49 36 87 95 87c60 0 95 -38 95 -87v-1c0 -49 -35 -88 -95 -88zM565 766c-59 0 -95 39 -95 88v1c0 49 36 87 95 87c60 0 95 -38 95 -87v-1c0 -49 -35 -88 -95 -88zM432 -19c-200 0 -345 78 -345 291v428h184v-416
c0 -105 76 -138 162 -138s163 31 163 134v420h183v-424c0 -217 -148 -295 -347 -295z" />
    <glyph glyph-name="udieresis" unicode="&#xfc;" horiz-adv-x="696" 
d="M214 613c-59 0 -95 39 -95 88v1c0 49 36 87 95 87c60 0 95 -38 95 -87v-1c0 -49 -35 -88 -95 -88zM477 613c-59 0 -95 39 -95 88v1c0 49 36 87 95 87c60 0 95 -38 95 -87v-1c0 -49 -35 -88 -95 -88zM623 547v-547h-175l-1 77c-51 -57 -108 -95 -192 -95
c-113 0 -187 68 -187 200v365h177v-322c0 -71 37 -90 81 -90c46 0 86 21 120 51v361h177z" />
    <glyph glyph-name="udieresis.sc" horiz-adv-x="781" 
d="M260 666c-59 0 -95 39 -95 88v1c0 49 36 87 95 87c60 0 95 -38 95 -87v-1c0 -49 -35 -88 -95 -88zM523 666c-59 0 -95 39 -95 88v1c0 49 36 87 95 87c60 0 95 -38 95 -87v-1c0 -49 -35 -88 -95 -88zM389 -17c-175 0 -304 68 -304 254v362h177v-354
c0 -85 63 -111 129 -111s128 25 128 108v357h177v-359c0 -189 -131 -257 -307 -257z" />
    <glyph glyph-name="Ugrave" unicode="&#xd9;" horiz-adv-x="866" 
d="M532 758h-157l-175 160v11h209zM432 -19c-200 0 -345 78 -345 291v428h184v-416c0 -105 76 -138 162 -138s163 31 163 134v420h183v-424c0 -217 -148 -295 -347 -295z" />
    <glyph glyph-name="ugrave" unicode="&#xf9;" horiz-adv-x="696" 
d="M445 611h-157l-175 160v11h209zM623 547v-547h-175l-1 77c-51 -57 -108 -95 -192 -95c-113 0 -187 68 -187 200v365h177v-322c0 -71 37 -90 81 -90c46 0 86 21 120 51v361h177z" />
    <glyph glyph-name="ugrave.sc" horiz-adv-x="781" 
d="M492 657h-157l-175 160v11h209zM389 -17c-175 0 -304 68 -304 254v362h177v-354c0 -85 63 -111 129 -111s128 25 128 108v357h177v-359c0 -189 -131 -257 -307 -257z" />
    <glyph glyph-name="Uhungarumlaut" unicode="&#x170;" horiz-adv-x="866" 
d="M477 774l106 172h182v-12l-164 -160h-124zM240 774l107 172h182v-12l-164 -160h-125zM432 -19c-200 0 -345 78 -345 291v428h184v-416c0 -105 76 -138 162 -138s163 31 163 134v420h183v-424c0 -217 -148 -295 -347 -295z" />
    <glyph glyph-name="uhungarumlaut" unicode="&#x171;" horiz-adv-x="696" 
d="M391 621l106 172h182v-12l-164 -160h-124zM154 621l107 172h182v-12l-164 -160h-125zM623 547v-547h-175l-1 77c-51 -57 -108 -95 -192 -95c-113 0 -187 68 -187 200v365h177v-322c0 -71 37 -90 81 -90c46 0 86 21 120 51v361h177z" />
    <glyph glyph-name="uhungarumlaut.sc" horiz-adv-x="781" 
d="M434 674l106 172h182v-12l-164 -160h-124zM197 674l107 172h182v-12l-164 -160h-125zM389 -17c-175 0 -304 68 -304 254v362h177v-354c0 -85 63 -111 129 -111s128 25 128 108v357h177v-359c0 -189 -131 -257 -307 -257z" />
    <glyph glyph-name="Umacron" unicode="&#x16a;" horiz-adv-x="866" 
d="M233 790v123h400v-123h-400zM432 -19c-200 0 -345 78 -345 291v428h184v-416c0 -105 76 -138 162 -138s163 31 163 134v420h183v-424c0 -217 -148 -295 -347 -295z" />
    <glyph glyph-name="umacron" unicode="&#x16b;" horiz-adv-x="696" 
d="M145 637v123h400v-123h-400zM623 547v-547h-175l-1 77c-51 -57 -108 -95 -192 -95c-113 0 -187 68 -187 200v365h177v-322c0 -71 37 -90 81 -90c46 0 86 21 120 51v361h177z" />
    <glyph glyph-name="umacron.sc" horiz-adv-x="781" 
d="M191 690v123h400v-123h-400zM389 -17c-175 0 -304 68 -304 254v362h177v-354c0 -85 63 -111 129 -111s128 25 128 108v357h177v-359c0 -189 -131 -257 -307 -257z" />
    <glyph glyph-name="Uogonek" unicode="&#x172;" horiz-adv-x="866" 
d="M573 -284c-41 -13 -71 -18 -116 -18c-153 0 -179 73 -179 123c0 58 38 106 105 162c-174 12 -296 94 -296 289v428h184v-416c0 -105 76 -138 162 -138s163 31 163 134v420h183v-424c0 -171 -92 -256 -228 -284l-49 -46c-48 -46 -69 -64 -69 -88c0 -22 17 -36 60 -36
c19 0 48 3 80 17v-123z" />
    <glyph glyph-name="uogonek" unicode="&#x173;" horiz-adv-x="696" 
d="M623 547v-547l-54 -51c-48 -46 -69 -64 -69 -88c0 -22 17 -36 60 -36c19 0 48 3 80 17v-123c-41 -13 -71 -18 -116 -18c-153 0 -179 73 -179 123c0 58 38 106 105 161l-2 92c-52 -57 -109 -95 -193 -95c-113 0 -187 68 -187 200v365h177v-322c0 -71 37 -90 81 -90
c46 0 86 21 120 51v361h177z" />
    <glyph glyph-name="uogonek.sc" horiz-adv-x="781" 
d="M524 -283c-41 -13 -71 -18 -116 -18c-153 0 -179 73 -179 123c0 59 38 107 107 163c-147 13 -251 85 -251 252v362h177v-354c0 -85 63 -111 129 -111s128 25 128 108v357h177v-359c0 -145 -77 -219 -192 -245l-51 -48c-48 -46 -69 -64 -69 -88c0 -22 17 -36 60 -36
c19 0 48 3 80 17v-123z" />
    <glyph glyph-name="Uring" unicode="&#x16e;" horiz-adv-x="866" 
d="M431 749c-113 0 -182 56 -182 154c0 100 69 158 184 158c114 0 184 -57 184 -157c0 -98 -72 -155 -186 -155zM433 843c44 0 71 22 71 61c0 40 -28 63 -72 63s-73 -22 -73 -63c0 -38 29 -61 74 -61zM432 -19c-200 0 -345 78 -345 291v428h184v-416
c0 -105 76 -138 162 -138s163 31 163 134v420h183v-424c0 -217 -148 -295 -347 -295z" />
    <glyph glyph-name="uring" unicode="&#x16f;" horiz-adv-x="696" 
d="M343 602c-113 0 -182 56 -182 154c0 100 69 158 184 158c114 0 184 -57 184 -157c0 -98 -72 -155 -186 -155zM345 696c44 0 71 22 71 61c0 40 -28 63 -72 63s-73 -22 -73 -63c0 -38 29 -61 74 -61zM623 547v-547h-175l-1 77c-51 -57 -108 -95 -192 -95
c-113 0 -187 68 -187 200v365h177v-322c0 -71 37 -90 81 -90c46 0 86 21 120 51v361h177z" />
    <glyph glyph-name="uring.sc" horiz-adv-x="781" 
d="M389 648c-113 0 -182 56 -182 154c0 100 69 158 184 158c114 0 184 -57 184 -157c0 -98 -72 -155 -186 -155zM391 742c44 0 71 22 71 61c0 40 -28 63 -72 63s-73 -22 -73 -63c0 -38 29 -61 74 -61zM389 -17c-175 0 -304 68 -304 254v362h177v-354c0 -85 63 -111 129 -111
s128 25 128 108v357h177v-359c0 -189 -131 -257 -307 -257z" />
    <glyph glyph-name="Wacute" unicode="&#x1e82;" horiz-adv-x="1230" 
d="M544 775l123 171h209v-11l-176 -160h-156zM226 0l-189 700h194l128 -515h11l162 515h179l159 -515h12l124 515h187l-188 -700h-245l-140 450h-6l-141 -450h-247z" />
    <glyph glyph-name="wacute" unicode="&#x1e83;" horiz-adv-x="1010" 
d="M430 622l123 171h209v-11l-176 -160h-156zM183 0l-160 547h184l93 -379h14l102 374h184l104 -374h15l92 379h176l-161 -547h-224l-89 337h-15l-91 -337h-224z" />
    <glyph glyph-name="wacute.sc" horiz-adv-x="1065" 
d="M460 675l123 171h209v-11l-176 -160h-156zM207 0l-168 599h185l100 -398h8l131 398h152l128 -398h7l100 398h175l-165 -599h-203l-121 365h-4l-121 -365h-204z" />
    <glyph glyph-name="Wcircumflex" unicode="&#x174;" horiz-adv-x="1230" 
d="M376 774l134 188h210l134 -188h-163l-58 81h-37l-58 -81h-162zM226 0l-189 700h194l128 -515h11l162 515h179l159 -515h12l124 515h187l-188 -700h-245l-140 450h-6l-141 -450h-247z" />
    <glyph glyph-name="wcircumflex" unicode="&#x175;" horiz-adv-x="1010" 
d="M269 621l134 188h210l134 -188h-163l-58 81h-37l-58 -81h-162zM183 0l-160 547h184l93 -379h14l102 374h184l104 -374h15l92 379h176l-161 -547h-224l-89 337h-15l-91 -337h-224z" />
    <glyph glyph-name="wcircumflex.sc" horiz-adv-x="1065" 
d="M293 674l134 188h210l134 -188h-163l-58 81h-37l-58 -81h-162zM207 0l-168 599h185l100 -398h8l131 398h152l128 -398h7l100 398h175l-165 -599h-203l-121 365h-4l-121 -365h-204z" />
    <glyph glyph-name="Wdieresis" unicode="&#x1e84;" horiz-adv-x="1230" 
d="M484 766c-59 0 -95 39 -95 88v1c0 49 36 87 95 87c60 0 95 -38 95 -87v-1c0 -49 -35 -88 -95 -88zM747 766c-59 0 -95 39 -95 88v1c0 49 36 87 95 87c60 0 95 -38 95 -87v-1c0 -49 -35 -88 -95 -88zM226 0l-189 700h194l128 -515h11l162 515h179l159 -515h12l124 515h187
l-188 -700h-245l-140 450h-6l-141 -450h-247z" />
    <glyph glyph-name="wdieresis" unicode="&#x1e85;" horiz-adv-x="1010" 
d="M377 613c-59 0 -95 39 -95 88v1c0 49 36 87 95 87c60 0 95 -38 95 -87v-1c0 -49 -35 -88 -95 -88zM640 613c-59 0 -95 39 -95 88v1c0 49 36 87 95 87c60 0 95 -38 95 -87v-1c0 -49 -35 -88 -95 -88zM183 0l-160 547h184l93 -379h14l102 374h184l104 -374h15l92 379h176
l-161 -547h-224l-89 337h-15l-91 -337h-224z" />
    <glyph glyph-name="wdieresis.sc" horiz-adv-x="1065" 
d="M401 666c-59 0 -95 39 -95 88v1c0 49 36 87 95 87c60 0 95 -38 95 -87v-1c0 -49 -35 -88 -95 -88zM664 666c-59 0 -95 39 -95 88v1c0 49 36 87 95 87c60 0 95 -38 95 -87v-1c0 -49 -35 -88 -95 -88zM207 0l-168 599h185l100 -398h8l131 398h152l128 -398h7l100 398h175
l-165 -599h-203l-121 365h-4l-121 -365h-204z" />
    <glyph glyph-name="Wgrave" unicode="&#x1e80;" horiz-adv-x="1230" 
d="M700 775h-157l-175 160v11h209zM226 0l-189 700h194l128 -515h11l162 515h179l159 -515h12l124 515h187l-188 -700h-245l-140 450h-6l-141 -450h-247z" />
    <glyph glyph-name="wgrave" unicode="&#x1e81;" horiz-adv-x="1010" 
d="M586 622h-157l-175 160v11h209zM183 0l-160 547h184l93 -379h14l102 374h184l104 -374h15l92 379h176l-161 -547h-224l-89 337h-15l-91 -337h-224z" />
    <glyph glyph-name="wgrave.sc" horiz-adv-x="1065" 
d="M616 675h-157l-175 160v11h209zM207 0l-168 599h185l100 -398h8l131 398h152l128 -398h7l100 398h175l-165 -599h-203l-121 365h-4l-121 -365h-204z" />
    <glyph glyph-name="Yacute" unicode="&#xdd;" horiz-adv-x="815" 
d="M303 758l123 171h209v-11l-176 -160h-156zM316 0v232l-311 468h210l188 -293h11l192 293h203l-310 -465v-235h-183z" />
    <glyph glyph-name="yacute" unicode="&#xfd;" horiz-adv-x="647" 
d="M225 611l123 171h209v-11l-176 -160h-156zM179 -203l65 180l-229 570h181l138 -369l127 369h177l-288 -750h-171z" />
    <glyph glyph-name="yacute.sc" horiz-adv-x="732" 
d="M263 657l123 171h209v-11l-176 -160h-156zM278 0v191l-268 407v1h198l154 -247h12l156 247h192v-1l-267 -405v-193h-177z" />
    <glyph glyph-name="Ycircumflex" unicode="&#x176;" horiz-adv-x="815" 
d="M168 774l134 188h210l134 -188h-163l-58 81h-37l-58 -81h-162zM316 0v232l-311 468h210l188 -293h11l192 293h203l-310 -465v-235h-183z" />
    <glyph glyph-name="ycircumflex" unicode="&#x177;" horiz-adv-x="647" 
d="M91 621l134 188h210l134 -188h-163l-58 81h-37l-58 -81h-162zM179 -203l65 180l-229 570h181l138 -369l127 369h177l-288 -750h-171z" />
    <glyph glyph-name="ycircumflex.sc" horiz-adv-x="732" 
d="M128 674l134 188h210l134 -188h-163l-58 81h-37l-58 -81h-162zM278 0v191l-268 407v1h198l154 -247h12l156 247h192v-1l-267 -405v-193h-177z" />
    <glyph glyph-name="Ydieresis" unicode="&#x178;" horiz-adv-x="815" 
d="M276 766c-59 0 -95 39 -95 88v1c0 49 36 87 95 87c60 0 95 -38 95 -87v-1c0 -49 -35 -88 -95 -88zM539 766c-59 0 -95 39 -95 88v1c0 49 36 87 95 87c60 0 95 -38 95 -87v-1c0 -49 -35 -88 -95 -88zM316 0v232l-311 468h210l188 -293h11l192 293h203l-310 -465v-235h-183
z" />
    <glyph glyph-name="ydieresis" unicode="&#xff;" horiz-adv-x="647" 
d="M199 613c-59 0 -95 39 -95 88v1c0 49 36 87 95 87c60 0 95 -38 95 -87v-1c0 -49 -35 -88 -95 -88zM462 613c-59 0 -95 39 -95 88v1c0 49 36 87 95 87c60 0 95 -38 95 -87v-1c0 -49 -35 -88 -95 -88zM179 -203l65 180l-229 570h181l138 -369l127 369h177l-288 -750h-171z
" />
    <glyph glyph-name="ydieresis.sc" horiz-adv-x="732" 
d="M236 666c-59 0 -95 39 -95 88v1c0 49 36 87 95 87c60 0 95 -38 95 -87v-1c0 -49 -35 -88 -95 -88zM499 666c-59 0 -95 39 -95 88v1c0 49 36 87 95 87c60 0 95 -38 95 -87v-1c0 -49 -35 -88 -95 -88zM278 0v191l-268 407v1h198l154 -247h12l156 247h192v-1l-267 -405v-193
h-177z" />
    <glyph glyph-name="Ygrave" unicode="&#x1ef2;" horiz-adv-x="815" 
d="M513 758h-157l-175 160v11h209zM316 0v232l-311 468h210l188 -293h11l192 293h203l-310 -465v-235h-183z" />
    <glyph glyph-name="ygrave" unicode="&#x1ef3;" horiz-adv-x="647" 
d="M436 611h-157l-175 160v11h209zM179 -203l65 180l-229 570h181l138 -369l127 369h177l-288 -750h-171z" />
    <glyph glyph-name="ygrave.sc" horiz-adv-x="732" 
d="M473 657h-157l-175 160v11h209zM278 0v191l-268 407v1h198l154 -247h12l156 247h192v-1l-267 -405v-193h-177z" />
    <glyph glyph-name="Zacute" unicode="&#x179;" horiz-adv-x="778" 
d="M292 775l123 171h209v-11l-176 -160h-156zM67 0v164l403 379h-392l6 157h630v-149l-418 -394h419v-157h-648z" />
    <glyph glyph-name="zacute" unicode="&#x17a;" horiz-adv-x="612" 
d="M213 622l123 171h209v-11l-176 -160h-156zM58 0v130l284 277h-278l7 140h489v-126l-292 -281h292v-140h-502z" />
    <glyph glyph-name="zacute.sc" horiz-adv-x="724" 
d="M263 675l123 171h209v-11l-176 -160h-156zM72 0v149l349 304h-341l7 146h567v-137l-359 -316h360v-146h-583z" />
    <glyph glyph-name="Zcaron" unicode="&#x17d;" horiz-adv-x="778" 
d="M636 962l-134 -188h-210l-134 188h163l58 -80h37l58 80h162zM67 0v164l403 379h-392l6 157h630v-149l-418 -394h419v-157h-648z" />
    <glyph glyph-name="zcaron" unicode="&#x17e;" horiz-adv-x="612" 
d="M556 809l-134 -188h-210l-134 188h163l58 -80h37l58 80h162zM58 0v130l284 277h-278l7 140h489v-126l-292 -281h292v-140h-502z" />
    <glyph glyph-name="zcaron.sc" horiz-adv-x="724" 
d="M607 862l-134 -188h-210l-134 188h163l58 -80h37l58 80h162zM72 0v149l349 304h-341l7 146h567v-137l-359 -316h360v-146h-583z" />
    <glyph glyph-name="Zdotaccent" unicode="&#x17b;" horiz-adv-x="778" 
d="M398 766c-70 0 -108 41 -108 92v1c0 52 38 92 107 92c70 0 108 -40 108 -92v-1c0 -51 -38 -92 -107 -92zM67 0v164l403 379h-392l6 157h630v-149l-418 -394h419v-157h-648z" />
    <glyph glyph-name="zdotaccent" unicode="&#x17c;" horiz-adv-x="612" 
d="M318 613c-70 0 -108 41 -108 92v1c0 52 38 92 107 92c70 0 108 -40 108 -92v-1c0 -51 -38 -92 -107 -92zM58 0v130l284 277h-278l7 140h489v-126l-292 -281h292v-140h-502z" />
    <glyph glyph-name="zdotaccent.sc" horiz-adv-x="724" 
d="M368 666c-70 0 -108 41 -108 92v1c0 52 38 92 107 92c70 0 108 -40 108 -92v-1c0 -51 -38 -92 -107 -92zM72 0v149l349 304h-341l7 146h567v-137l-359 -316h360v-146h-583z" />
    <glyph glyph-name="Thorn" unicode="&#xde;" horiz-adv-x="793" 
d="M93 0v700h183v-93h211c177 0 267 -97 267 -251c0 -176 -115 -258 -282 -258h-196v-98h-183zM276 251h186c78 0 109 44 109 100c0 64 -34 101 -112 101h-183v-201z" />
    <glyph glyph-name="thorn" unicode="&#xfe;" horiz-adv-x="712" 
d="M73 -203v970h176v-285c38 45 95 81 175 81c140 0 246 -103 246 -276c-1 -180 -129 -303 -294 -303c-52 0 -90 10 -126 28v-215h-177zM350 126c86 0 143 57 143 151c-1 95 -55 143 -132 143c-42 0 -82 -17 -111 -39v-223c30 -20 61 -32 100 -32z" />
    <glyph glyph-name="thorn.sc" horiz-adv-x="728" 
d="M94 0v599h177v-76h189c150 0 228 -85 228 -219c0 -153 -102 -225 -242 -225h-175v-79h-177zM271 220h163c56 0 79 37 79 79c0 52 -26 82 -82 82h-160v-161z" />
    <glyph glyph-name="uni0259" unicode="&#x259;" horiz-adv-x="657" 
d="M315 -18c-183 0 -273 122 -273 285c0 18 1 36 3 53h394c-14 72 -69 105 -159 105c-72 0 -144 -23 -203 -56h-1v142c54 29 131 53 220 53c210 0 319 -112 319 -279c0 -175 -118 -303 -300 -303zM317 117c65 0 106 40 120 105h-236c5 -63 48 -105 116 -105z" />
    <glyph glyph-name="zero" unicode="0" horiz-adv-x="777" 
d="M388 -18c-233 0 -342 156 -342 367c0 210 111 369 343 369c225 0 342 -156 342 -367c0 -210 -118 -369 -343 -369zM389 136c109 0 163 78 163 213c0 136 -55 215 -164 215c-110 0 -164 -78 -164 -213c0 -136 56 -215 165 -215z" />
    <glyph glyph-name="one" unicode="1" horiz-adv-x="472" 
d="M175 0v554h-131l22 146h286v-700h-177z" />
    <glyph glyph-name="one.alt" horiz-adv-x="418" 
d="M120 700h178v-700h-178v700z" />
    <glyph glyph-name="two" unicode="2" horiz-adv-x="677" 
d="M50 0v150l197 145c149 109 196 142 196 196c0 43 -29 73 -97 73c-76 0 -165 -30 -265 -109h-1v171c96 70 192 92 279 92c171 0 266 -85 266 -209c0 -116 -70 -171 -238 -290l-94 -67h335v-152h-578z" />
    <glyph glyph-name="two.alt" horiz-adv-x="695" 
d="M372 718c162 0 273 -71 273 -203c0 -125 -86 -166 -235 -232c-103 -47 -159 -75 -161 -131l388 1v-153h-584v53c0 191 88 264 261 343c121 55 149 72 149 108c0 47 -40 61 -98 61c-85 0 -188 -39 -269 -90h-1v169c93 50 186 74 277 74z" />
    <glyph glyph-name="three" unicode="3" horiz-adv-x="690" 
d="M329 -18c-100 0 -198 21 -273 50v162h1c87 -39 195 -62 259 -62c84 0 144 25 144 82c0 61 -71 82 -240 82h-27v87l200 166h-329l7 151h544v-137l-199 -157c139 -19 227 -76 227 -192c0 -148 -136 -232 -314 -232z" />
    <glyph glyph-name="three.alt" horiz-adv-x="695" 
d="M644 193c0 -132 -138 -211 -315 -211c-101 0 -198 17 -273 46v161h1c87 -39 194 -57 259 -57c84 0 145 21 145 79c0 56 -59 75 -188 75h-63v134h63c132 0 185 26 185 78c0 53 -47 71 -126 71c-82 0 -164 -22 -250 -61h-1v159c76 30 168 52 268 52c166 0 284 -68 284 -197
c0 -73 -41 -137 -143 -165v-1c120 -24 154 -94 154 -163z" />
    <glyph glyph-name="four" unicode="4" horiz-adv-x="767" 
d="M441 0v148h-403v130l246 422h325v-407h124l-7 -145h-117v-148h-168zM443 553h-65l-150 -261h215v261z" />
    <glyph glyph-name="five" unicode="5" horiz-adv-x="689" 
d="M339 -18c-82 0 -183 13 -272 43v161h1c95 -35 193 -53 264 -53c105 0 133 50 133 85c0 18 -5 31 -17 43c-24 24 -73 35 -241 35h-122l10 404h502l7 -150h-352l-4 -113h24c169 0 266 -16 328 -80c34 -36 49 -81 49 -137c0 -135 -117 -238 -310 -238z" />
    <glyph glyph-name="six" unicode="6" horiz-adv-x="712" 
d="M370 -18c-195 0 -324 116 -324 353c0 250 155 383 367 383c68 0 144 -13 217 -44v-155h-1c-80 33 -130 52 -207 52c-108 0 -191 -47 -203 -170c57 40 130 59 200 58c145 -1 256 -68 256 -217c0 -161 -132 -260 -305 -260zM374 325c-51 0 -101 -14 -155 -48
c6 -114 78 -151 157 -151c69 0 129 36 129 108c0 73 -67 91 -131 91z" />
    <glyph glyph-name="seven" unicode="7" horiz-adv-x="690" 
d="M46 437v263h605v-204l-307 -496h-196l323 521v32h-263v-116h-162z" />
    <glyph glyph-name="seven.alt" horiz-adv-x="690" 
d="M175 0c64 270 174 391 297 521v32h-264v-116h-162v263h605v-225c-131 -129 -248 -244 -295 -475h-181z" />
    <glyph glyph-name="eight" unicode="8" horiz-adv-x="747" 
d="M374 -24c-217 0 -322 79 -322 205c0 86 46 139 137 173c-76 29 -121 77 -121 157c0 120 98 210 306 210c207 0 305 -91 305 -210c0 -80 -45 -128 -120 -157c90 -34 136 -87 136 -173c0 -126 -102 -205 -321 -205zM374 410c78 0 131 27 131 87c0 54 -47 87 -131 87
c-85 0 -132 -31 -132 -87c0 -60 54 -87 132 -87zM374 114c93 0 143 33 143 90c0 59 -56 90 -143 90c-89 0 -143 -29 -143 -89c0 -58 49 -91 143 -91z" />
    <glyph glyph-name="nine" unicode="9" horiz-adv-x="712" 
d="M342 718c195 0 324 -116 324 -353c0 -250 -155 -383 -367 -383c-68 0 -144 13 -217 44v155h1c80 -33 130 -52 207 -52c108 0 191 47 203 170c-57 -40 -130 -59 -200 -58c-145 1 -256 68 -256 217c0 161 132 260 305 260zM207 466c0 -73 67 -91 131 -91
c51 0 101 14 155 48c-6 114 -78 151 -157 151c-69 0 -129 -36 -129 -108z" />
    <glyph glyph-name="zero.osf" horiz-adv-x="745" 
d="M372 -21c-193 0 -323 120 -323 318c0 200 131 322 324 322c194 0 323 -119 323 -319c0 -198 -131 -321 -324 -321zM373 126c90 0 151 59 151 172c0 114 -63 174 -152 174c-90 0 -151 -58 -151 -172c0 -113 63 -174 152 -174z" />
    <glyph glyph-name="one.osf" horiz-adv-x="474" 
d="M177 0v451h-132l23 148h286v-599h-177z" />
    <glyph glyph-name="two.osf" horiz-adv-x="656" 
d="M63 0v147l161 99c176 105 187 134 187 163c0 41 -35 56 -82 56c-68 0 -154 -31 -237 -79h-1v163c85 42 158 67 261 67c142 0 239 -71 239 -184c0 -103 -71 -165 -243 -261l-47 -27l300 1v-145h-538z" />
    <glyph glyph-name="three.osf" horiz-adv-x="629" 
d="M288 -119c-76 0 -154 9 -228 34v154h1c83 -31 154 -43 219 -43c80 0 136 23 136 82c0 56 -72 83 -237 83h-16v92l209 171h-314l7 145h498v-152l-188 -150c135 -23 213 -83 213 -193c0 -143 -131 -223 -300 -223z" />
    <glyph glyph-name="four.osf" horiz-adv-x="725" 
d="M420 -101v145h-376v127l215 428h324v-416h118l-6 -139h-112v-145h-163zM224 181h198v273h-65z" />
    <glyph glyph-name="five.osf" horiz-adv-x="625" 
d="M294 -119c-60 0 -142 10 -230 31v153h1c94 -29 176 -39 221 -39c102 0 130 50 130 90c0 21 -5 35 -17 47c-25 25 -71 34 -227 34h-92l7 402h458l7 -145h-312l-2 -122l53 -1c196 -4 298 -65 298 -216c0 -137 -112 -234 -295 -234z" />
    <glyph glyph-name="six.osf" horiz-adv-x="692" 
d="M358 -18c-182 0 -309 105 -309 342c0 248 147 394 367 394c55 0 119 -6 187 -30v-147h-1c-75 25 -116 33 -175 33c-120 0 -191 -65 -206 -165c54 31 119 49 181 49c130 0 243 -66 243 -214c0 -162 -122 -262 -287 -262zM358 330c-44 0 -90 -12 -139 -42
c1 -133 71 -163 143 -163c58 0 116 37 116 111c0 76 -70 94 -120 94z" />
    <glyph glyph-name="seven.osf" horiz-adv-x="655" 
d="M613 599v-190l-289 -510h-189l301 529v29h-224v-113h-157v255h558z" />
    <glyph glyph-name="eight.osf" horiz-adv-x="696" 
d="M349 -24c-189 0 -301 76 -301 207c0 86 49 137 123 171c-59 29 -106 75 -106 156c0 123 101 211 284 211c181 0 283 -88 283 -211c0 -81 -48 -127 -107 -156c75 -34 123 -85 123 -171c0 -131 -109 -207 -299 -207zM349 408c64 0 116 25 116 88c0 58 -46 90 -116 90
c-73 0 -117 -31 -117 -90c0 -62 51 -88 117 -88zM349 111c78 0 127 32 127 93c0 62 -55 91 -127 91c-75 0 -129 -27 -129 -90c0 -62 48 -94 129 -94z" />
    <glyph glyph-name="nine.osf" horiz-adv-x="692" 
d="M334 616c182 0 309 -105 309 -342c0 -248 -147 -394 -367 -394c-55 0 -119 6 -187 30v147h1c75 -25 116 -33 175 -33c120 0 191 65 206 165c-54 -31 -119 -49 -181 -49c-130 0 -243 66 -243 214c0 162 122 262 287 262zM214 362c0 -76 70 -94 120 -94c44 0 90 12 139 42
c-1 133 -71 163 -143 163c-58 0 -116 -37 -116 -111z" />
    <glyph glyph-name="period" unicode="." horiz-adv-x="415" 
d="M207 -11c-75 0 -116 48 -116 107v2c0 59 41 107 116 107s117 -48 117 -107v-1c0 -60 -42 -108 -117 -108z" />
    <glyph glyph-name="comma" unicode="," horiz-adv-x="389" 
d="M65 -150l44 338h215v-30l-162 -308h-97z" />
    <glyph glyph-name="colon" unicode=":" horiz-adv-x="420" 
d="M210 339c-75 0 -117 49 -117 108v1c0 60 42 107 117 107c74 0 116 -47 116 -106v-2c0 -59 -42 -108 -116 -108zM210 -11c-75 0 -117 48 -117 107v2c0 59 42 107 117 107c74 0 116 -48 116 -107v-1c0 -60 -42 -108 -116 -108z" />
    <glyph glyph-name="colon.fig" horiz-adv-x="420" 
d="M210 416c-75 0 -117 49 -117 108v1c0 60 42 107 117 107c74 0 116 -47 116 -106v-2c0 -59 -42 -108 -116 -108zM210 66c-75 0 -117 48 -117 107v2c0 59 42 107 117 107c74 0 116 -48 116 -107v-1c0 -60 -42 -108 -116 -108z" />
    <glyph glyph-name="semicolon" unicode=";" horiz-adv-x="420" 
d="M210 339c-75 0 -117 49 -117 108v1c0 60 42 107 117 107c74 0 116 -47 116 -106v-2c0 -59 -42 -108 -116 -108zM64 -150l45 338h215v-30l-162 -308h-98z" />
    <glyph glyph-name="ellipsis" unicode="&#x2026;" horiz-adv-x="1239" 
d="M207 -11c-75 0 -116 48 -116 107v2c0 59 41 107 116 107s117 -48 117 -107v-1c0 -60 -42 -108 -117 -108zM619 -11c-75 0 -116 48 -116 107v2c0 59 41 107 116 107s117 -48 117 -107v-1c0 -60 -42 -108 -117 -108zM1031 -11c-75 0 -116 48 -116 107v2
c0 59 41 107 116 107s117 -48 117 -107v-1c0 -60 -42 -108 -117 -108z" />
    <glyph glyph-name="periodcentered" unicode="&#xb7;" horiz-adv-x="415" 
d="M207 221c-75 0 -116 49 -116 108v1c0 60 41 107 116 107s117 -47 117 -106v-2c0 -59 -42 -108 -117 -108z" />
    <glyph glyph-name="periodcentered.cap" horiz-adv-x="415" 
d="M207 241c-75 0 -116 49 -116 108v1c0 60 41 107 116 107s117 -47 117 -106v-2c0 -59 -42 -108 -117 -108z" />
    <glyph glyph-name="ampersand" unicode="&#x26;" horiz-adv-x="849" 
d="M279 -18c-139 0 -231 69 -231 189c0 106 82 180 217 253l-109 120v156h512l7 -142h-315l228 -258l193 169l1 -1v-187l-103 -88l171 -193h-205l-83 92c-90 -67 -174 -110 -283 -110zM224 190c0 -35 27 -62 76 -62c48 0 99 20 168 71l-110 121c-97 -55 -134 -87 -134 -130z
" />
    <glyph glyph-name="ampersand.sc" horiz-adv-x="827" 
d="M270 -17c-124 0 -206 60 -206 160c0 95 60 145 164 211l19 12l-93 90v143h491l6 -131h-302l209 -207l186 145h1v-169l-94 -73l165 -164h-196l-83 79c-91 -62 -169 -96 -267 -96zM231 166c0 -31 24 -48 59 -48c36 0 77 11 150 59l-100 98l-10 -6c-79 -48 -99 -73 -99 -103
z" />
    <glyph glyph-name="exclam" unicode="!" horiz-adv-x="420" 
d="M144 275l-48 414v11h228v-11l-48 -414h-132zM210 -11c-75 0 -116 48 -116 107v2c0 59 41 107 116 107c74 0 117 -48 117 -107v-1c0 -60 -43 -108 -117 -108z" />
    <glyph glyph-name="exclamdown" unicode="&#xa1;" horiz-adv-x="420" 
d="M210 565c75 0 116 -49 116 -108v-1c0 -59 -41 -107 -116 -107c-74 0 -117 48 -117 107v1c0 59 43 108 117 108zM276 279l48 -414v-11h-228v11l48 414h132z" />
    <glyph glyph-name="exclamdown.cap" horiz-adv-x="420" 
d="M210 711c75 0 116 -48 116 -107v-2c0 -59 -41 -107 -116 -107c-74 0 -117 48 -117 107v1c0 60 43 108 117 108zM276 425l48 -414v-11h-228v11l48 414h132z" />
    <glyph glyph-name="question" unicode="?" horiz-adv-x="614" 
d="M58 654c80 38 164 65 272 65c141 0 270 -56 270 -191c0 -144 -134 -216 -400 -264h-1v142c185 42 218 75 218 111c0 43 -46 56 -105 56c-84 0 -176 -33 -253 -81h-1v162zM275 -11c-76 0 -117 48 -117 107v2c0 59 41 107 117 107c74 0 116 -48 116 -107v-1
c0 -60 -42 -108 -116 -108z" />
    <glyph glyph-name="questiondown" unicode="&#xbf;" horiz-adv-x="614" 
d="M340 565c75 0 116 -49 116 -108v-1c0 -59 -41 -107 -116 -107s-117 48 -117 107v1c0 59 42 108 117 108zM556 -101c-80 -37 -164 -65 -271 -65c-142 0 -271 57 -271 192c0 144 134 216 400 263h1v-141c-185 -43 -218 -76 -218 -111c0 -43 46 -56 105 -56
c84 0 176 33 253 81h1v-163z" />
    <glyph glyph-name="questiondown.cap" horiz-adv-x="614" 
d="M339 711c76 0 117 -48 117 -107v-2c0 -59 -41 -107 -117 -107c-74 0 -116 48 -116 107v1c0 60 42 108 116 108zM556 46c-80 -38 -164 -65 -272 -65c-141 0 -270 56 -270 191c0 144 134 216 400 264h1v-142c-185 -42 -218 -75 -218 -111c0 -43 46 -56 105 -56
c84 0 176 33 253 81h1v-162z" />
    <glyph glyph-name="quotedblleft" unicode="&#x201c;" horiz-adv-x="662" 
d="M64 380v29l147 291h94l-43 -320h-198zM343 380v29l146 291h94l-43 -320h-197z" />
    <glyph glyph-name="quotedblright" unicode="&#x201d;" horiz-adv-x="662" 
d="M79 380l42 320h198v-29l-146 -291h-94zM357 380l43 320h197v-29l-146 -291h-94z" />
    <glyph glyph-name="quoteleft" unicode="&#x2018;" horiz-adv-x="388" 
d="M64 380v29l150 291h96l-43 -320h-203z" />
    <glyph glyph-name="quoteright" unicode="&#x2019;" horiz-adv-x="388" 
d="M79 380l42 320h203v-29l-150 -291h-95z" />
    <glyph glyph-name="quotedblbase" unicode="&#x201e;" horiz-adv-x="648" 
d="M65 -133l42 320h198v-29l-146 -291h-94zM343 -133l43 320h197v-29l-146 -291h-94z" />
    <glyph glyph-name="quotesinglbase" unicode="&#x201a;" horiz-adv-x="374" 
d="M65 -133l42 320h203v-29l-150 -291h-95z" />
    <glyph glyph-name="guillemotleft" unicode="&#xab;" horiz-adv-x="773" 
d="M405 506l-183 -233l183 -233h-187l-182 227v13l182 226h187zM727 506l-184 -233l184 -233h-188l-182 227v13l182 226h188z" />
    <glyph glyph-name="guillemotleft.cap" horiz-adv-x="773" 
d="M405 583l-183 -233l183 -233h-187l-182 227v13l182 226h187zM727 583l-184 -233l184 -233h-188l-182 227v13l182 226h188z" />
    <glyph glyph-name="guillemotright" unicode="&#xbb;" horiz-adv-x="773" 
d="M368 41l183 233l-183 233h187l182 -227v-13l-182 -226h-187zM46 41l184 233l-184 233h188l182 -227v-13l-182 -226h-188z" />
    <glyph glyph-name="guillemotright.cap" horiz-adv-x="773" 
d="M368 118l183 233l-183 233h187l182 -227v-13l-182 -226h-187zM46 118l184 233l-184 233h188l182 -227v-13l-182 -226h-188z" />
    <glyph glyph-name="guilsinglleft" unicode="&#x2039;" horiz-adv-x="463" 
d="M417 40h-199l-182 227v13l182 226h199l-184 -233z" />
    <glyph glyph-name="guilsinglleft.cap" horiz-adv-x="464" 
d="M417 117h-199l-182 227v13l182 226h199l-184 -233z" />
    <glyph glyph-name="guilsinglright" unicode="&#x203a;" horiz-adv-x="463" 
d="M46 507h199l182 -227v-13l-182 -226h-199l184 233z" />
    <glyph glyph-name="guilsinglright.cap" horiz-adv-x="464" 
d="M46 584h199l182 -227v-13l-182 -226h-199l184 233z" />
    <glyph glyph-name="hyphen" unicode="-" horiz-adv-x="446" 
d="M53 244v160h339v-160h-339z" />
    <glyph glyph-name="hyphen.cap" horiz-adv-x="446" 
d="M53 270v160h339v-160h-339z" />
    <glyph glyph-name="endash" unicode="&#x2013;" horiz-adv-x="701" 
d="M75 245v157h552v-157h-552z" />
    <glyph glyph-name="endash.cap" horiz-adv-x="701" 
d="M75 272v157h552v-157h-552z" />
    <glyph glyph-name="emdash" unicode="&#x2014;" horiz-adv-x="865" 
d="M75 245v157h716v-157h-716z" />
    <glyph glyph-name="emdash.cap" horiz-adv-x="865" 
d="M75 272v157h716v-157h-716z" />
    <glyph glyph-name="underscore" unicode="_" horiz-adv-x="712" 
d="M-6 -198v128h724v-128h-724z" />
    <glyph glyph-name="slash" unicode="/" horiz-adv-x="572" 
d="M44 -202l326 969h164l-327 -969h-163z" />
    <glyph glyph-name="slash.cap" horiz-adv-x="572" 
d="M41 -134l326 969h164l-327 -969h-163z" />
    <glyph glyph-name="bar" unicode="|" horiz-adv-x="528" 
d="M183 -202v969h162v-969h-162z" />
    <glyph glyph-name="bar.cap" horiz-adv-x="528" 
d="M183 -134v969h162v-969h-162z" />
    <glyph glyph-name="backslash" unicode="\" horiz-adv-x="573" 
d="M529 -202h-164l-327 969h165z" />
    <glyph glyph-name="backslash.cap" horiz-adv-x="573" 
d="M532 -134h-164l-327 969h165z" />
    <glyph glyph-name="parenleft" unicode="(" horiz-adv-x="466" 
d="M244 282c0 -152 60 -318 215 -484h-190c-145 151 -204 330 -204 484s60 333 204 485h190c-155 -166 -215 -332 -215 -485z" />
    <glyph glyph-name="parenleft.cap" horiz-adv-x="466" 
d="M244 350c0 -152 60 -318 215 -484h-190c-145 151 -204 330 -204 484s60 333 204 485h190c-155 -166 -215 -332 -215 -485z" />
    <glyph glyph-name="parenright" unicode=")" horiz-adv-x="466" 
d="M222 283c0 152 -60 318 -215 484h190c145 -151 204 -330 204 -484s-60 -333 -204 -485h-190c155 166 215 332 215 485z" />
    <glyph glyph-name="parenright.cap" horiz-adv-x="466" 
d="M222 351c0 152 -60 318 -215 484h190c145 -151 204 -330 204 -484s-60 -333 -204 -485h-190c155 166 215 332 215 485z" />
    <glyph glyph-name="bracketleft" unicode="[" horiz-adv-x="463" 
d="M73 -202v969h349v-135h-185v-699h185v-135h-349z" />
    <glyph glyph-name="bracketleft.cap" horiz-adv-x="463" 
d="M73 -134v969h349v-135h-185v-699h185v-135h-349z" />
    <glyph glyph-name="bracketright" unicode="]" horiz-adv-x="463" 
d="M390 767v-969h-349v135h185v699h-185v135h349z" />
    <glyph glyph-name="bracketright.cap" horiz-adv-x="463" 
d="M390 835v-969h-349v135h185v699h-185v135h349z" />
    <glyph glyph-name="braceleft" unicode="{" horiz-adv-x="556" 
d="M16 268v29l153 143l-8 67c-25 201 93 277 240 277c46 0 82 -6 117 -16v-143h-1c-24 10 -55 16 -84 16c-70 0 -124 -35 -108 -156l12 -99l-126 -104l126 -103l-12 -99c-16 -121 38 -153 108 -153c29 0 60 6 84 16h1v-146c-35 -10 -71 -16 -117 -16
c-147 0 -265 76 -240 277l8 67z" />
    <glyph glyph-name="braceleft.cap" horiz-adv-x="556" 
d="M16 336v29l153 143l-8 67c-25 201 93 277 240 277c46 0 82 -6 117 -16v-143h-1c-24 10 -55 16 -84 16c-70 0 -124 -35 -108 -156l12 -99l-126 -104l126 -103l-12 -99c-16 -121 38 -153 108 -153c29 0 60 6 84 16h1v-146c-35 -10 -71 -16 -117 -16
c-147 0 -265 76 -240 277l8 67z" />
    <glyph glyph-name="braceright" unicode="}" horiz-adv-x="556" 
d="M540 294v-29l-153 -143l8 -67c25 -201 -93 -277 -240 -277c-46 0 -82 6 -117 16v143h1c24 -10 55 -16 84 -16c70 0 124 35 108 156l-12 99l126 104l-126 103l12 99c16 121 -38 153 -108 153c-29 0 -60 -6 -84 -16h-1v146c35 10 71 16 117 16c147 0 265 -76 240 -277
l-8 -67z" />
    <glyph glyph-name="braceright.cap" horiz-adv-x="556" 
d="M540 364v-29l-153 -143l8 -67c25 -201 -93 -277 -240 -277c-46 0 -82 6 -117 16v143h1c24 -10 55 -16 84 -16c70 0 124 35 108 156l-12 99l126 104l-126 103l12 99c16 121 -38 153 -108 153c-29 0 -60 -6 -84 -16h-1v146c35 10 71 16 117 16c147 0 265 -76 240 -277
l-8 -67z" />
    <glyph glyph-name="at" unicode="@" horiz-adv-x="1103" 
d="M812 118c-69 0 -122 21 -155 72c-43 -44 -96 -71 -157 -71c-93 0 -140 50 -140 117c0 37 13 63 32 82c27 27 94 61 239 70v4c0 35 -19 57 -69 57c-54 0 -110 -19 -164 -54v121c61 33 121 48 185 48c128 0 183 -64 183 -172v-101c0 -45 16 -66 55 -66c47 0 75 42 75 157
c0 162 -89 283 -317 283s-360 -121 -360 -348c0 -209 115 -314 355 -314c120 0 204 26 284 61l-1 -128c-65 -28 -172 -55 -288 -55c-329 0 -487 163 -487 435c0 292 197 471 496 471c300 0 448 -162 448 -401c0 -150 -59 -268 -214 -268zM542 215c38 0 74 20 89 35v63
c-76 -7 -112 -20 -128 -37c-8 -8 -10 -17 -10 -25c0 -22 17 -36 49 -36z" />
    <glyph glyph-name="at.cap" horiz-adv-x="1103" 
d="M812 134c-69 0 -122 21 -155 72c-43 -44 -96 -71 -157 -71c-93 0 -140 50 -140 117c0 37 13 63 32 82c27 27 94 61 239 70v4c0 35 -19 57 -69 57c-54 0 -110 -19 -164 -54v121c61 33 121 48 185 48c128 0 183 -64 183 -172v-101c0 -45 16 -66 55 -66c47 0 75 42 75 157
c0 162 -89 283 -317 283s-360 -121 -360 -348c0 -209 115 -314 355 -314c120 0 204 26 284 61l-1 -128c-65 -28 -172 -55 -288 -55c-329 0 -487 163 -487 435c0 292 197 471 496 471c300 0 448 -162 448 -401c0 -150 -59 -268 -214 -268zM542 231c38 0 74 20 89 35v63
c-76 -7 -112 -20 -128 -37c-8 -8 -10 -17 -10 -25c0 -22 17 -36 49 -36z" />
    <glyph glyph-name="paragraph" unicode="&#xb6;" horiz-adv-x="869" 
d="M603 0v555h-135v-386h-35c-235 0 -370 51 -370 248c0 198 120 283 347 283h355v-700h-162z" />
    <glyph glyph-name="section" unicode="&#xa7;" horiz-adv-x="783" 
d="M339 -216c-103 0 -194 27 -252 59v151h1c67 -38 154 -71 250 -71c68 0 121 15 158 43c-155 29 -263 89 -325 152c-64 64 -102 146 -102 251c0 199 138 350 385 350c100 0 173 -23 217 -47v-151h-1c-54 32 -123 59 -216 59c-70 0 -123 -15 -161 -43
c154 -30 262 -90 325 -152c63 -64 101 -146 101 -252c0 -198 -138 -349 -380 -349zM304 207c46 -47 124 -96 256 -130c2 14 3 28 3 44c0 74 -37 133 -79 175c-46 46 -125 96 -255 130c-3 -13 -4 -28 -4 -44c0 -75 37 -133 79 -175z" />
    <glyph glyph-name="copyright" unicode="&#xa9;" horiz-adv-x="977" 
d="M489 -54c-266 0 -442 159 -442 405c0 247 176 406 442 406s441 -159 441 -406c0 -246 -175 -405 -441 -405zM489 54c193 0 314 107 314 297c0 191 -121 298 -314 298c-194 0 -314 -107 -314 -298c0 -190 120 -297 314 -297zM507 165c-136 0 -206 80 -206 188
s78 189 210 189c59 0 104 -17 137 -39v-106h-1c-41 27 -77 43 -122 43c-62 0 -101 -36 -101 -86c0 -53 32 -87 99 -87c49 0 85 17 124 43h1v-108c-27 -15 -77 -37 -141 -37z" />
    <glyph glyph-name="uni2117" unicode="&#x2117;" horiz-adv-x="977" 
d="M489 -54c-266 0 -442 159 -442 405c0 247 176 406 442 406s441 -159 441 -406c0 -246 -175 -405 -441 -405zM489 54c193 0 314 107 314 297c0 191 -121 298 -314 298c-194 0 -314 -107 -314 -298c0 -190 120 -297 314 -297zM328 174v361h223c89 0 142 -51 142 -138
c0 -99 -68 -141 -151 -141h-98v-82h-116zM444 348h89c34 0 45 23 45 46c0 29 -13 47 -46 47h-88v-93z" />
    <glyph glyph-name="registered" unicode="&#xae;" horiz-adv-x="706" 
d="M353 188c-187 0 -310 112 -310 285s123 285 310 285s310 -112 310 -285s-123 -285 -310 -285zM353 274c130 0 209 71 209 199c0 127 -79 198 -209 198c-129 0 -209 -71 -209 -198c0 -128 80 -199 209 -199zM234 351v250h142c79 0 112 -34 112 -95c0 -33 -14 -63 -46 -78
l56 -70v-7h-92l-46 63h-43v-63h-83zM317 476h50c26 0 38 8 38 29s-12 29 -38 29h-50v-58z" />
    <glyph glyph-name="uni2120" unicode="&#x2120;" horiz-adv-x="1017" 
d="M253 316c-63 0 -126 15 -174 37v103c59 -32 131 -48 179 -48c47 0 62 6 62 24c0 19 -13 22 -93 38c-94 19 -149 39 -149 117c0 70 57 123 180 123c54 0 107 -13 150 -31v-103c-45 24 -105 42 -158 42c-41 0 -60 -8 -60 -24c0 -18 13 -21 92 -37c91 -17 150 -43 150 -120
c0 -55 -30 -121 -179 -121zM501 327v373h133l88 -161l85 161h133v-373h-107v224l-107 -187h-11l-107 187v-224h-107z" />
    <glyph glyph-name="trademark" unicode="&#x2122;" horiz-adv-x="1034" 
d="M206 327v274h-137l4 99h381l4 -99h-136v-274h-116zM518 327v373h133l88 -161l85 161h133v-373h-107v224l-107 -187h-12l-107 189v-226h-106z" />
    <glyph glyph-name="asterisk" unicode="*" horiz-adv-x="550" 
d="M387 326l-90 42l-60 -77l-31 7l-23 96h-98l-14 28l62 78l-62 77l14 29h98l22 97l31 7l62 -77l90 43l25 -19l-22 -97l89 -43v-32l-90 -44l22 -95z" />
    <glyph glyph-name="dagger" unicode="&#x2020;" horiz-adv-x="521" 
d="M189 168v286h-137l6 122h131v124h143v-124h134v-122h-134v-286h-143z" />
    <glyph glyph-name="daggerdbl" unicode="&#x2021;" horiz-adv-x="522" 
d="M189 119v124h-133v117h133v99h-137l6 117h131v124h143v-124h134v-117h-134v-99h138l-7 -117h-131v-124h-143z" />
    <glyph glyph-name="bullet" unicode="&#x2022;" horiz-adv-x="448" 
d="M224 161c-110 0 -169 75 -169 160v3c0 85 59 159 169 159c109 0 169 -74 169 -159v-3c0 -85 -60 -160 -169 -160z" />
    <glyph glyph-name="bullet.cap" horiz-adv-x="448" 
d="M224 189c-110 0 -169 75 -169 160v3c0 85 59 159 169 159c109 0 169 -74 169 -159v-3c0 -85 -60 -160 -169 -160z" />
    <glyph glyph-name="asciicircum" unicode="^" horiz-adv-x="739" 
d="M63 344l187 356h235l191 -356h-182l-106 202h-43l-103 -202h-179z" />
    <glyph glyph-name="asciitilde" unicode="&#x223c;" horiz-adv-x="755" 
d="M87 402c44 46 94 81 162 81c62 0 104 -23 161 -57c52 -30 70 -37 101 -37c53 0 96 39 156 108h1v-199c-44 -45 -94 -81 -161 -81c-63 0 -105 24 -162 57c-52 31 -70 38 -100 38c-53 0 -97 -40 -157 -109h-1v199z" />
    <glyph glyph-name="asciitilde" unicode="~" horiz-adv-x="755" 
d="M87 402c44 46 94 81 162 81c62 0 104 -23 161 -57c52 -30 70 -37 101 -37c53 0 96 39 156 108h1v-199c-44 -45 -94 -81 -161 -81c-63 0 -105 24 -162 57c-52 31 -70 38 -100 38c-53 0 -97 -40 -157 -109h-1v199z" />
    <glyph glyph-name="dollar" unicode="$" horiz-adv-x="716" 
d="M278 -120v134c-67 10 -129 31 -188 57v160h1c102 -53 216 -81 291 -81c66 0 105 20 105 59s-27 49 -160 78c-119 24 -238 58 -238 193c0 93 64 177 198 204v121h162v-117c55 -8 116 -26 169 -51v-161h-1c-76 47 -178 74 -248 74c-72 0 -105 -22 -105 -58
c0 -35 22 -44 158 -74c120 -24 239 -61 239 -199c0 -82 -49 -188 -221 -209v-115z" />
    <glyph glyph-name="cent" unicode="&#xa2;" horiz-adv-x="600" 
d="M247 -41v141c-113 31 -187 118 -187 244c0 124 79 221 196 254v121h158v-114c46 -7 83 -22 116 -44v-146h-2c-48 36 -105 56 -157 56c-86 0 -144 -49 -144 -127c0 -70 58 -119 146 -119c53 0 107 21 155 57h2v-147c-35 -22 -76 -37 -124 -44v-117z" />
    <glyph glyph-name="sterling" unicode="&#xa3;" horiz-adv-x="710" 
d="M53 290l21 132h114c55 191 131 296 308 296c48 0 94 -10 133 -30v-150h-1c-42 21 -78 29 -114 29c-78 0 -117 -37 -146 -140l-1 -5h241v-132h-279l-41 -142h363v-148h-584l83 290h-97z" />
    <glyph glyph-name="Euro" unicode="&#x20ac;" horiz-adv-x="800" 
d="M47 210l11 110h90c-1 8 -1 17 -1 25c0 14 1 28 2 41h-85l11 110h100c51 127 170 219 354 219c74 0 139 -17 193 -44v-152h-1c-68 34 -125 52 -186 52c-86 0 -147 -31 -182 -84h240v-101h-275c-1 -12 -2 -25 -2 -39c0 -9 0 -18 1 -27h276v-101h-247c33 -57 94 -90 186 -90
c61 0 121 16 189 48h1v-152c-53 -24 -130 -40 -205 -40c-196 0 -307 95 -350 225h-120z" />
    <glyph glyph-name="yen" unicode="&#xa5;" horiz-adv-x="826" 
d="M88 137l6 117h224l-36 64h-184l6 116h112l-151 266h189l155 -287h9l159 287h184l-152 -266h112l7 -116h-186l-36 -64h225l6 -117h-237v-137h-175v137h-237z" />
    <glyph glyph-name="uni20B9" unicode="&#x20b9;" horiz-adv-x="769" 
d="M623 0h-255l-272 187v124h203c73 0 109 28 122 78h-325v103h325c-14 55 -54 78 -142 78h-183v130h615l-8 -130h-148c17 -20 29 -44 36 -73h105l-6 -119h-96c-20 -114 -106 -189 -237 -189h-17z" />
    <glyph glyph-name="colonmonetary" unicode="&#x20a1;" horiz-adv-x="692" 
d="M127 -110l43 160c-96 66 -143 174 -143 295c0 180 112 335 318 364l26 96h124l-25 -93c25 -3 48 -7 69 -13l28 106h125l-178 -669c33 8 67 21 103 38h1v-148c-38 -17 -88 -30 -143 -36l-27 -100h-125l27 99c-24 2 -47 6 -68 12l-31 -111h-124zM315 142
c25 -10 54 -15 87 -17l115 435c-28 8 -56 11 -87 11zM185 348c0 -51 12 -97 35 -133l96 344c-86 -33 -131 -110 -131 -211z" />
    <glyph glyph-name="uni20A6" unicode="&#x20a6;" horiz-adv-x="929" 
d="M164 0v213h-124l11 110h113v68h-107l10 110h97v199h190l114 -199h159v199h155v-199h102v-110h-102v-68h102v-110h-102v-213h-183l-122 213h-158v-213h-155zM319 474v-157h99l-90 157h-9zM617 239h10v158h-100z" />
    <glyph glyph-name="uni20B1" unicode="&#x20b1;" horiz-adv-x="860" 
d="M158 0v375h-118l22 121h96v204h350c145 0 229 -75 248 -204h86v-121h-87c-23 -140 -125 -205 -261 -205h-160v-170h-176zM334 560v-77h255c-11 53 -44 77 -103 77h-152zM334 308h155c57 0 88 27 100 75h-255v-75z" />
    <glyph glyph-name="R_p" horiz-adv-x="1474" 
d="M93 0v700h363c181 0 269 -86 269 -246c0 -112 -48 -187 -140 -222l171 -232h-204l-139 197h-142v-197h-178zM835 -203v750h173l2 -69c39 49 95 86 176 86c140 0 246 -104 246 -277c0 -179 -129 -303 -294 -303c-52 0 -90 10 -125 28v-215h-178zM271 343h169
c77 0 107 43 107 104c0 63 -30 104 -107 104h-169v-208zM1112 127c85 0 142 57 142 150c0 94 -55 142 -131 142c-42 0 -82 -16 -110 -40v-221c30 -19 59 -31 99 -31z" />
    <glyph glyph-name="uni20A8" unicode="&#x20a8;" horiz-adv-x="1340" 
d="M93 0v700h363c181 0 269 -86 269 -246c0 -112 -48 -187 -140 -222l171 -232h-204l-139 197h-142v-197h-178zM1056 -18c-78 0 -164 18 -243 60v149h1c76 -48 168 -75 248 -75c54 0 75 14 75 40c0 23 -11 32 -122 56c-139 30 -203 68 -203 170c0 108 91 182 243 182
c80 0 167 -25 211 -51v-146l-1 1c-65 38 -153 63 -217 63c-48 0 -68 -14 -68 -37c0 -24 17 -34 128 -58c144 -33 195 -78 195 -173s-66 -181 -247 -181zM271 343h169c77 0 107 43 107 104c0 63 -30 104 -107 104h-169v-208z" />
    <glyph glyph-name="uni20BD" unicode="&#x20bd;" horiz-adv-x="820" 
d="M40 85l12 117h116v65h-113l12 119h101v314h361c165 0 247 -85 247 -215c0 -144 -99 -218 -262 -218h-170v-65h307v-117h-307v-85h-176v85h-128zM344 386h156c83 0 106 37 106 86c0 59 -29 89 -106 89h-156v-175z" />
    <glyph glyph-name="uni2116" unicode="&#x2116;" horiz-adv-x="1442" 
d="M1137 711c167 0 261 -103 261 -243s-94 -243 -262 -243c-166 0 -261 103 -261 243s95 243 262 243zM111 0v700h191l280 -431h8v431h166v-700h-181l-290 444h-8v-444h-166zM1137 582c-71 0 -107 -46 -107 -115c0 -68 36 -113 106 -113c71 0 108 46 108 115
c0 68 -36 113 -107 113zM911 137h451v-137h-451v137z" />
    <glyph glyph-name="numbersign" unicode="#" horiz-adv-x="952" 
d="M140 0l33 133h-109v130h141l42 174h-121v130h153l33 133h155l-33 -133h189l33 133h155l-33 -133h110v-130h-142l-42 -174h122v-130h-154l-33 -133h-155l33 133h-189l-33 -133h-155zM360 263h189l42 174h-189z" />
    <glyph glyph-name="percent" unicode="%" horiz-adv-x="1082" 
d="M252 327c-131 0 -210 70 -210 190c0 122 80 195 211 195c130 0 210 -72 210 -194c0 -118 -81 -191 -211 -191zM149 1l310 349l306 350h168v-1l-311 -349l-305 -350h-168v1zM253 438c47 0 76 27 76 80s-30 80 -77 80c-46 0 -76 -26 -76 -80c0 -52 30 -80 77 -80zM830 373
c131 0 210 -70 210 -190c0 -121 -80 -195 -211 -195s-210 72 -210 194c0 118 81 191 211 191zM829 262c-46 0 -76 -27 -76 -80c0 -52 30 -80 77 -80c46 0 76 26 76 80c0 53 -30 80 -77 80z" />
    <glyph glyph-name="degree" unicode="&#xb0;" horiz-adv-x="588" 
d="M294 267c-146 0 -240 88 -240 223c0 136 94 223 240 223s240 -87 240 -223c0 -135 -94 -223 -240 -223zM294 388c62 0 99 39 99 102s-37 102 -99 102s-99 -39 -99 -102s37 -102 99 -102z" />
    <glyph glyph-name="quotedbl" unicode="&#x22;" horiz-adv-x="632" 
d="M95 380v320h200v-29l-107 -291h-93zM373 380v320h200v-29l-107 -291h-93z" />
    <glyph glyph-name="quotesingle" unicode="'" horiz-adv-x="355" 
d="M95 380v320h201v-29l-107 -291h-94z" />
    <glyph glyph-name="ordfeminine" unicode="&#xaa;" horiz-adv-x="549" 
d="M188 250c-99 0 -149 51 -149 122c0 41 15 68 36 88c30 30 105 67 258 76v1c0 40 -23 56 -73 56c-57 0 -125 -19 -180 -55h-1v131c64 33 129 47 198 47c141 0 201 -66 201 -180v-272h-137l-2 55c-40 -44 -86 -69 -151 -69zM233 356c45 0 79 22 100 42v57
c-85 -7 -123 -21 -140 -38c-7 -7 -11 -15 -11 -25c0 -24 19 -36 51 -36z" />
    <glyph glyph-name="ordmasculine" unicode="&#xba;" horiz-adv-x="589" 
d="M295 249c-162 0 -255 99 -255 234s93 234 255 234c161 0 254 -99 254 -234s-93 -234 -254 -234zM295 370c68 0 104 47 104 113s-36 113 -104 113c-69 0 -104 -47 -104 -113s35 -113 104 -113z" />
    <glyph glyph-name="plus" unicode="+" horiz-adv-x="741" 
d="M88 275v150h203v206h159v-206h203v-150h-203v-205h-159v205h-203z" />
    <glyph glyph-name="minus" unicode="&#x2212;" horiz-adv-x="694" 
d="M89 271v158h516v-158h-516z" />
    <glyph glyph-name="equal" unicode="=" horiz-adv-x="757" 
d="M102 411v147h553v-147h-553zM102 142v147h553v-147h-553z" />
    <glyph glyph-name="divide" unicode="&#xf7;" horiz-adv-x="771" 
d="M385 662c65 0 103 -40 103 -92s-38 -92 -103 -92s-103 40 -103 91v1c0 52 38 92 103 92zM88 278v144h595v-144h-595zM386 39c-65 0 -103 40 -103 91v1c0 52 38 92 102 92c66 0 104 -40 104 -92v-1c0 -51 -38 -91 -103 -91z" />
    <glyph glyph-name="multiply" unicode="&#xd7;" horiz-adv-x="736" 
d="M88 521l105 107l175 -172l175 172l105 -107l-173 -170l173 -171l-105 -107l-175 172l-175 -172l-105 107l173 171z" />
    <glyph glyph-name="dotmath" unicode="&#x22c5;" horiz-adv-x="416" 
d="M208 242c-75 0 -116 48 -116 107v1c0 60 41 107 116 107s117 -47 117 -106v-2c0 -59 -42 -107 -117 -107z" />
    <glyph glyph-name="plusminus" unicode="&#xb1;" horiz-adv-x="734" 
d="M113 387v145h175v168h158v-168h175v-145h-175v-168h-158v168h-175zM113 0v139h508v-139h-508z" />
    <glyph glyph-name="less" unicode="&#x3c;" horiz-adv-x="663" 
d="M559 49l-474 217v168l474 216v-170l-290 -130l290 -131v-170z" />
    <glyph glyph-name="greater" unicode="&#x3e;" horiz-adv-x="663" 
d="M104 650l474 -217v-168l-474 -216v170l290 130l-290 131v170z" />
    <glyph glyph-name="onehalf" unicode="&#xbd;" horiz-adv-x="1018" 
d="M133 286v308h-88l18 106h204v-414h-134zM137 1l511 699h132v-1l-510 -699h-133v1zM610 0v104l114 86c98 70 104 81 104 97c0 20 -17 28 -46 28c-41 0 -95 -19 -154 -58h-1v121c59 34 113 49 172 49c106 0 163 -46 163 -123c0 -68 -44 -101 -150 -175l-28 -21h175v-108
h-349z" />
    <glyph glyph-name="onethird" unicode="&#x2153;" horiz-adv-x="1026" 
d="M133 286v308h-88l18 106h204v-414h-134zM137 1l511 699h132v-1l-510 -699h-133v1zM779 -13c-59 0 -109 10 -157 25v112h1c53 -18 102 -30 144 -30c50 0 79 10 79 36c0 27 -22 37 -130 37h-15v58l115 83h-192l3 106h329v-100l-105 -75c78 -12 124 -48 124 -114
c0 -89 -81 -138 -196 -138z" />
    <glyph glyph-name="twothirds" unicode="&#x2154;" horiz-adv-x="1146" 
d="M66 286v104l114 86c98 70 104 81 104 97c0 20 -17 28 -46 28c-41 0 -95 -19 -154 -58h-1v121c59 34 113 49 172 49c106 0 163 -46 163 -123c0 -68 -44 -101 -150 -175l-28 -21h175v-108h-349zM258 1l511 699h132v-1l-510 -699h-133v1zM899 -13c-59 0 -109 10 -157 25v112
h1c53 -18 102 -30 144 -30c50 0 79 10 79 36c0 27 -22 37 -130 37h-15v58l115 83h-192l3 106h329v-100l-105 -75c78 -12 124 -48 124 -114c0 -89 -81 -138 -196 -138z" />
    <glyph glyph-name="onequarter" unicode="&#xbc;" horiz-adv-x="1008" 
d="M133 286v308h-88l18 106h204v-414h-134zM137 1l511 699h132v-1l-510 -699h-133v1zM801 0v77h-232v96l104 241h249v-235h58l-6 -102h-52v-77h-121zM695 176h110v137h-54z" />
    <glyph glyph-name="threequarters" unicode="&#xbe;" horiz-adv-x="1107" 
d="M227 273c-59 0 -109 10 -157 25v112h1c53 -18 102 -30 144 -30c50 0 79 10 79 36c0 27 -22 37 -130 37h-15v58l115 83h-192l3 106h329v-100l-105 -75c78 -12 124 -48 124 -114c0 -89 -81 -138 -196 -138zM236 1l511 699h132v-1l-510 -699h-133v1zM900 0v77h-232v96
l104 241h249v-235h58l-6 -102h-52v-77h-121zM794 176h110v137h-54z" />
    <glyph glyph-name="uni2155" unicode="&#x2155;" horiz-adv-x="1015" 
d="M133 286v308h-88l18 106h204v-414h-134zM137 1l511 699h132v-1l-510 -699h-133v1zM777 -13c-69 0 -118 9 -163 24v111h1c45 -16 98 -27 155 -27s66 20 66 36c0 8 -2 13 -9 19c-13 11 -45 15 -129 15h-77l6 249h311l4 -107h-202l-1 -51h7c102 0 154 -11 187 -44
c20 -20 32 -46 32 -84c0 -87 -73 -141 -188 -141z" />
    <glyph glyph-name="uni2156" unicode="&#x2156;" horiz-adv-x="1135" 
d="M66 286v104l114 86c98 70 104 81 104 97c0 20 -17 28 -46 28c-41 0 -95 -19 -154 -58h-1v121c59 34 113 49 172 49c106 0 163 -46 163 -123c0 -68 -44 -101 -150 -175l-28 -21h175v-108h-349zM258 1l511 699h132v-1l-510 -699h-133v1zM897 -13c-69 0 -118 9 -163 24v111
h1c45 -16 98 -27 155 -27s66 20 66 36c0 8 -2 13 -9 19c-13 11 -45 15 -129 15h-77l6 249h311l4 -107h-202l-1 -51h7c102 0 154 -11 187 -44c20 -20 32 -46 32 -84c0 -87 -73 -141 -188 -141z" />
    <glyph glyph-name="uni2157" unicode="&#x2157;" horiz-adv-x="1114" 
d="M227 273c-59 0 -109 10 -157 25v112h1c53 -18 102 -30 144 -30c50 0 79 10 79 36c0 27 -22 37 -130 37h-15v58l115 83h-192l3 106h329v-100l-105 -75c78 -12 124 -48 124 -114c0 -89 -81 -138 -196 -138zM236 1l511 699h132v-1l-510 -699h-133v1zM876 -13
c-69 0 -118 9 -163 24v111h1c45 -16 98 -27 155 -27s66 20 66 36c0 8 -2 13 -9 19c-13 11 -45 15 -129 15h-77l6 249h311l4 -107h-202l-1 -51h7c102 0 154 -11 187 -44c20 -20 32 -46 32 -84c0 -87 -73 -141 -188 -141z" />
    <glyph glyph-name="uni2158" unicode="&#x2158;" horiz-adv-x="1133" 
d="M267 286v77h-232v96l104 241h249v-235h58l-6 -102h-52v-77h-121zM255 1l511 699h132v-1l-510 -699h-133v1zM161 462h110v137h-54zM895 -13c-69 0 -118 9 -163 24v111h1c45 -16 98 -27 155 -27s66 20 66 36c0 8 -2 13 -9 19c-13 11 -45 15 -129 15h-77l6 249h311l4 -107
h-202l-1 -51h7c102 0 154 -11 187 -44c20 -20 32 -46 32 -84c0 -87 -73 -141 -188 -141z" />
    <glyph glyph-name="uni2159" unicode="&#x2159;" horiz-adv-x="1007" 
d="M133 286v308h-88l18 106h204v-414h-134zM137 1l511 699h132v-1l-510 -699h-133v1zM778 -13c-126 0 -196 69 -196 210c0 146 86 230 222 230c50 0 88 -8 131 -23v-109h-1c-43 19 -77 27 -123 27c-57 0 -102 -25 -105 -85c30 17 71 28 109 28c87 0 147 -38 147 -125
c0 -98 -78 -153 -184 -153zM787 176c-30 0 -59 -8 -81 -20c3 -52 32 -68 71 -68s63 17 63 48s-23 40 -53 40z" />
    <glyph glyph-name="uni215A" unicode="&#x215a;" horiz-adv-x="1111" 
d="M236 273c-69 0 -118 9 -163 24v111h1c45 -16 98 -27 155 -27s66 20 66 36c0 8 -2 13 -9 19c-13 11 -45 15 -129 15h-77l6 249h311l4 -107h-202l-1 -51h7c102 0 154 -11 187 -44c20 -20 32 -46 32 -84c0 -87 -73 -141 -188 -141zM241 1l511 699h132v-1l-510 -699h-133v1z
M882 -13c-126 0 -196 69 -196 210c0 146 86 230 222 230c50 0 88 -8 131 -23v-109h-1c-43 19 -77 27 -123 27c-57 0 -102 -25 -105 -85c30 17 71 28 109 28c87 0 147 -38 147 -125c0 -98 -78 -153 -184 -153zM891 176c-30 0 -59 -8 -81 -20c3 -52 32 -68 71 -68s63 17 63 48
s-23 40 -53 40z" />
    <glyph glyph-name="oneeighth" unicode="&#x215b;" horiz-adv-x="1020" 
d="M133 286v308h-88l18 106h204v-414h-134zM137 1l511 699h132v-1l-510 -699h-133v1zM783 -13c-132 0 -193 45 -193 123c0 47 24 80 82 100c-49 17 -72 45 -72 91c0 76 62 125 183 125s183 -49 183 -125c0 -46 -23 -74 -72 -91c58 -20 82 -53 82 -100
c0 -78 -61 -123 -193 -123zM783 248c42 0 63 14 63 39c0 28 -19 43 -63 43s-63 -15 -63 -43c0 -25 21 -39 63 -39zM783 83c48 0 69 17 69 43c0 27 -22 44 -69 44s-69 -16 -69 -44c0 -26 21 -43 69 -43z" />
    <glyph glyph-name="threeeighths" unicode="&#x215c;" horiz-adv-x="1119" 
d="M227 273c-59 0 -109 10 -157 25v112h1c53 -18 102 -30 144 -30c50 0 79 10 79 36c0 27 -22 37 -130 37h-15v58l115 83h-192l3 106h329v-100l-105 -75c78 -12 124 -48 124 -114c0 -89 -81 -138 -196 -138zM236 1l511 699h132v-1l-510 -699h-133v1zM882 -13
c-132 0 -193 45 -193 123c0 47 24 80 82 100c-49 17 -72 45 -72 91c0 76 62 125 183 125s183 -49 183 -125c0 -46 -23 -74 -72 -91c58 -20 82 -53 82 -100c0 -78 -61 -123 -193 -123zM882 248c42 0 63 14 63 39c0 28 -19 43 -63 43s-63 -15 -63 -43c0 -25 21 -39 63 -39z
M882 83c48 0 69 17 69 43c0 27 -22 44 -69 44s-69 -16 -69 -44c0 -26 21 -43 69 -43z" />
    <glyph glyph-name="fiveeighths" unicode="&#x215d;" horiz-adv-x="1123" 
d="M236 273c-69 0 -118 9 -163 24v111h1c45 -16 98 -27 155 -27s66 20 66 36c0 8 -2 13 -9 19c-13 11 -45 15 -129 15h-77l6 249h311l4 -107h-202l-1 -51h7c102 0 154 -11 187 -44c20 -20 32 -46 32 -84c0 -87 -73 -141 -188 -141zM241 1l511 699h132v-1l-510 -699h-133v1z
M886 -13c-132 0 -193 45 -193 123c0 47 24 80 82 100c-49 17 -72 45 -72 91c0 76 62 125 183 125s183 -49 183 -125c0 -46 -23 -74 -72 -91c58 -20 82 -53 82 -100c0 -78 -61 -123 -193 -123zM886 248c42 0 63 14 63 39c0 28 -19 43 -63 43s-63 -15 -63 -43
c0 -25 21 -39 63 -39zM886 83c48 0 69 17 69 43c0 27 -22 44 -69 44s-69 -16 -69 -44c0 -26 21 -43 69 -43z" />
    <glyph glyph-name="seveneighths" unicode="&#x215e;" horiz-adv-x="1075" 
d="M61 527v173h363v-134l-165 -280h-142l168 285v26h-106v-70h-118zM192 1l511 699h132v-1l-510 -699h-133v1zM838 -13c-132 0 -193 45 -193 123c0 47 24 80 82 100c-49 17 -72 45 -72 91c0 76 62 125 183 125s183 -49 183 -125c0 -46 -23 -74 -72 -91
c58 -20 82 -53 82 -100c0 -78 -61 -123 -193 -123zM838 248c42 0 63 14 63 39c0 28 -19 43 -63 43s-63 -15 -63 -43c0 -25 21 -39 63 -39zM838 83c48 0 69 17 69 43c0 27 -22 44 -69 44s-69 -16 -69 -44c0 -26 21 -43 69 -43z" />
    <glyph glyph-name="zero.sup" unicode="&#x2070;" horiz-adv-x="474" 
d="M236 340c-136 0 -199 82 -199 219s67 221 201 221c136 0 199 -83 199 -220c0 -136 -67 -220 -201 -220zM236 449c52 0 74 37 74 111s-21 111 -72 111c-52 0 -74 -37 -74 -111s21 -111 72 -111z" />
    <glyph glyph-name="one.sup" unicode="&#xb9;" horiz-adv-x="366" 
d="M133 353v308h-88l18 106h204v-414h-134z" />
    <glyph glyph-name="one.sup_alt" horiz-adv-x="474" 
d="M420 458v-105h-333v105h108v203h-110l16 106h226v-309h93z" />
    <glyph glyph-name="two.sup" unicode="&#xb2;" horiz-adv-x="474" 
d="M66 353v104l114 86c98 70 104 81 104 97c0 20 -17 28 -46 28c-41 0 -95 -19 -154 -58h-1v121c59 34 113 49 172 49c106 0 163 -46 163 -123c0 -68 -44 -101 -150 -175l-28 -21h175v-108h-349z" />
    <glyph glyph-name="three.sup" unicode="&#xb3;" horiz-adv-x="474" 
d="M227 340c-59 0 -109 10 -157 25v112h1c53 -18 102 -30 144 -30c50 0 79 10 79 36c0 27 -22 37 -130 37h-15v58l115 83h-192l3 106h329v-100l-105 -75c78 -12 124 -48 124 -114c0 -89 -81 -138 -196 -138z" />
    <glyph glyph-name="four.sup" unicode="&#x2074;" horiz-adv-x="474" 
d="M267 353v77h-232v96l104 241h249v-235h58l-6 -102h-52v-77h-121zM161 529h110v137h-54z" />
    <glyph glyph-name="five.sup" unicode="&#x2075;" horiz-adv-x="474" 
d="M236 340c-69 0 -118 9 -163 24v111h1c45 -16 98 -27 155 -27s66 20 66 36c0 8 -2 13 -9 19c-13 11 -45 15 -129 15h-77l6 249h311l4 -107h-202l-1 -51h7c102 0 154 -11 187 -44c20 -20 32 -46 32 -84c0 -87 -73 -141 -188 -141z" />
    <glyph glyph-name="six.sup" unicode="&#x2076;" horiz-adv-x="474" 
d="M245 340c-126 0 -196 69 -196 210c0 146 86 230 222 230c50 0 88 -8 131 -23v-109h-1c-43 19 -77 27 -123 27c-57 0 -102 -25 -105 -85c30 17 71 28 109 28c87 0 147 -38 147 -125c0 -98 -78 -153 -184 -153zM254 529c-30 0 -59 -8 -81 -20c3 -52 32 -68 71 -68
s63 17 63 48s-23 40 -53 40z" />
    <glyph glyph-name="seven.sup" unicode="&#x2077;" horiz-adv-x="474" 
d="M61 594v173h363v-134l-165 -280h-142l168 285v26h-106v-70h-118z" />
    <glyph glyph-name="eight.sup" unicode="&#x2078;" horiz-adv-x="474" 
d="M237 340c-132 0 -193 45 -193 123c0 47 24 80 82 100c-49 17 -72 45 -72 91c0 76 62 125 183 125s183 -49 183 -125c0 -46 -23 -74 -72 -91c58 -20 82 -53 82 -100c0 -78 -61 -123 -193 -123zM237 601c42 0 63 14 63 39c0 28 -19 43 -63 43s-63 -15 -63 -43
c0 -25 21 -39 63 -39zM237 436c48 0 69 17 69 43c0 27 -22 44 -69 44s-69 -16 -69 -44c0 -26 21 -43 69 -43z" />
    <glyph glyph-name="nine.sup" unicode="&#x2079;" horiz-adv-x="474" 
d="M230 779c126 0 196 -69 196 -210c0 -146 -86 -230 -222 -230c-50 0 -88 8 -131 23v109h1c43 -19 77 -27 123 -27c57 0 102 25 105 85c-30 -17 -71 -28 -109 -28c-87 0 -147 38 -147 125c0 98 78 153 184 153zM168 630c0 -31 23 -40 53 -40s59 8 81 20
c-3 52 -32 68 -71 68s-63 -17 -63 -48z" />
    <glyph glyph-name="zero.inf" unicode="&#x2080;" horiz-adv-x="474" 
d="M236 -215c-136 0 -199 82 -199 219s67 221 201 221c136 0 199 -83 199 -220c0 -136 -67 -220 -201 -220zM236 -106c52 0 74 37 74 111s-21 111 -72 111c-52 0 -74 -37 -74 -111s21 -111 72 -111z" />
    <glyph glyph-name="one.inf" unicode="&#x2081;" horiz-adv-x="366" 
d="M133 -202v308h-88l18 106h204v-414h-134z" />
    <glyph glyph-name="one.inf_alt" horiz-adv-x="474" 
d="M420 -97v-105h-333v105h108v203h-110l16 106h226v-309h93z" />
    <glyph glyph-name="two.inf" unicode="&#x2082;" horiz-adv-x="474" 
d="M66 -202v104l114 86c98 70 104 81 104 97c0 20 -17 28 -46 28c-41 0 -95 -19 -154 -58h-1v121c59 34 113 49 172 49c106 0 163 -46 163 -123c0 -68 -44 -101 -150 -175l-28 -21h175v-108h-349z" />
    <glyph glyph-name="three.inf" unicode="&#x2083;" horiz-adv-x="474" 
d="M227 -215c-59 0 -109 10 -157 25v112h1c53 -18 102 -30 144 -30c50 0 79 10 79 36c0 27 -22 37 -130 37h-15v58l115 83h-192l3 106h329v-100l-105 -75c78 -12 124 -48 124 -114c0 -89 -81 -138 -196 -138z" />
    <glyph glyph-name="four.inf" unicode="&#x2084;" horiz-adv-x="474" 
d="M267 -202v77h-232v96l104 241h249v-235h58l-6 -102h-52v-77h-121zM161 -26h110v137h-54z" />
    <glyph glyph-name="five.inf" unicode="&#x2085;" horiz-adv-x="474" 
d="M236 -215c-69 0 -118 9 -163 24v111h1c45 -16 98 -27 155 -27s66 20 66 36c0 8 -2 13 -9 19c-13 11 -45 15 -129 15h-77l6 249h311l4 -107h-202l-1 -51h7c102 0 154 -11 187 -44c20 -20 32 -46 32 -84c0 -87 -73 -141 -188 -141z" />
    <glyph glyph-name="six.inf" unicode="&#x2086;" horiz-adv-x="474" 
d="M245 -215c-126 0 -196 69 -196 210c0 146 86 230 222 230c50 0 88 -8 131 -23v-109h-1c-43 19 -77 27 -123 27c-57 0 -102 -25 -105 -85c30 17 71 28 109 28c87 0 147 -38 147 -125c0 -98 -78 -153 -184 -153zM254 -26c-30 0 -59 -8 -81 -20c3 -52 32 -68 71 -68
s63 17 63 48s-23 40 -53 40z" />
    <glyph glyph-name="seven.inf" unicode="&#x2087;" horiz-adv-x="474" 
d="M61 39v173h363v-134l-165 -280h-142l168 285v26h-106v-70h-118z" />
    <glyph glyph-name="eight.inf" unicode="&#x2088;" horiz-adv-x="474" 
d="M237 -215c-132 0 -193 45 -193 123c0 47 24 80 82 100c-49 17 -72 45 -72 91c0 76 62 125 183 125s183 -49 183 -125c0 -46 -23 -74 -72 -91c58 -20 82 -53 82 -100c0 -78 -61 -123 -193 -123zM237 46c42 0 63 14 63 39c0 28 -19 43 -63 43s-63 -15 -63 -43
c0 -25 21 -39 63 -39zM237 -119c48 0 69 17 69 43c0 27 -22 44 -69 44s-69 -16 -69 -44c0 -26 21 -43 69 -43z" />
    <glyph glyph-name="nine.inf" unicode="&#x2089;" horiz-adv-x="474" 
d="M230 224c126 0 196 -69 196 -210c0 -146 -86 -230 -222 -230c-50 0 -88 8 -131 23v109h1c43 -19 77 -27 123 -27c57 0 102 25 105 85c-30 -17 -71 -28 -109 -28c-87 0 -147 38 -147 125c0 98 78 153 184 153zM168 75c0 -31 23 -40 53 -40s59 8 81 20c-3 52 -32 68 -71 68
s-63 -17 -63 -48z" />
    <glyph glyph-name="zero.tab" horiz-adv-x="724" 
d="M361 -18c-231 0 -329 156 -329 367c0 210 99 369 331 369c224 0 329 -156 329 -367c0 -210 -107 -369 -331 -369zM363 134c108 0 152 78 152 215s-46 217 -154 217s-152 -78 -152 -215s46 -217 154 -217z" />
    <glyph glyph-name="one.tab" horiz-adv-x="724" 
d="M666 149v-149h-573v149h211v405h-211l23 146h366v-551h184z" />
    <glyph glyph-name="two.tab" horiz-adv-x="724" 
d="M61 0v150l203 144c155 111 207 141 207 197c0 42 -30 72 -106 72c-84 0 -173 -35 -274 -117h-1v172c97 75 193 100 287 100c181 0 276 -85 276 -209c0 -116 -68 -169 -248 -289l-102 -70l349 1v-151h-591z" />
    <glyph glyph-name="three.tab" horiz-adv-x="724" 
d="M356 -18c-105 0 -202 25 -277 57v163h1c87 -43 193 -70 264 -70c90 0 151 25 151 82c0 60 -71 82 -248 82h-27v87l205 166h-339l7 151h555v-137l-203 -157c143 -18 231 -76 231 -192c0 -148 -136 -232 -320 -232z" />
    <glyph glyph-name="four.tab" horiz-adv-x="724" 
d="M431 0v138h-400v131l212 431h353v-417h103l-7 -145h-96v-138h-165zM218 281h214v272h-85z" />
    <glyph glyph-name="five.tab" horiz-adv-x="724" 
d="M357 -18c-89 0 -184 18 -273 51v162h1c95 -40 187 -62 266 -62c110 0 134 50 134 86c0 18 -4 31 -16 43c-24 23 -69 33 -242 33h-130l10 405h516l6 -150h-365l-4 -114h29c184 0 272 -20 330 -80c33 -34 49 -78 49 -137c0 -134 -112 -237 -311 -237z" />
    <glyph glyph-name="six.tab" horiz-adv-x="724" 
d="M371 -18c-196 0 -322 116 -322 353c0 250 152 383 367 383c68 0 143 -13 216 -44v-154h-1c-80 34 -131 52 -207 52c-110 0 -192 -46 -203 -171c57 39 127 58 196 58c150 0 260 -68 260 -216c0 -161 -134 -261 -306 -261zM376 326c-52 0 -102 -15 -155 -49
c6 -115 76 -152 156 -152c70 0 130 37 130 109c0 74 -67 92 -131 92z" />
    <glyph glyph-name="seven.tab" horiz-adv-x="724" 
d="M61 437v263h609v-204l-311 -496h-196l327 521v32h-267v-116h-162z" />
    <glyph glyph-name="eight.tab" horiz-adv-x="724" 
d="M363 -24c-216 0 -319 81 -319 207c0 84 46 137 138 171c-77 29 -121 77 -121 156c0 120 95 211 302 211c205 0 301 -92 301 -211c0 -79 -45 -127 -122 -156c93 -34 138 -87 138 -171c0 -126 -100 -207 -317 -207zM363 410c76 0 127 26 127 86c0 55 -44 87 -127 87
c-86 0 -129 -31 -129 -87c0 -60 51 -86 129 -86zM363 114c92 0 139 33 139 90c0 59 -54 90 -139 90c-88 0 -141 -29 -141 -89c0 -58 47 -91 141 -91z" />
    <glyph glyph-name="nine.tab" horiz-adv-x="724" 
d="M353 719c196 0 322 -116 322 -353c0 -250 -152 -383 -367 -383c-68 0 -143 13 -216 44v154h1c80 -34 131 -52 207 -52c110 0 192 46 203 171c-57 -39 -127 -58 -196 -58c-150 0 -260 68 -260 216c0 161 134 261 306 261zM217 467c0 -74 67 -92 131 -92
c52 0 102 15 155 49c-6 115 -76 152 -156 152c-70 0 -130 -37 -130 -109z" />
    <glyph glyph-name="dollar.tab" horiz-adv-x="724" 
d="M282 -120v133c-69 11 -131 32 -191 58v160h1c102 -53 215 -81 294 -81c69 0 107 19 107 60s-31 52 -162 77c-126 22 -241 58 -241 193c0 93 64 178 201 205v120h162v-117c57 -8 119 -25 172 -51v-161h-1c-76 47 -178 74 -251 74c-74 0 -108 -21 -108 -60
c0 -51 63 -51 162 -72c124 -25 241 -61 241 -199c0 -83 -50 -189 -224 -209v-115z" />
    <glyph glyph-name="cent.tab" horiz-adv-x="724" 
d="M309 -41v140c-119 30 -196 118 -196 245c0 125 81 222 205 254v121h159v-113c52 -7 91 -23 124 -46v-145h-1c-49 35 -106 56 -167 56c-94 0 -153 -49 -153 -127c0 -70 59 -119 156 -119c61 0 115 21 164 57h1v-146c-36 -23 -79 -39 -133 -46v-116z" />
    <glyph glyph-name="sterling.tab" horiz-adv-x="724" 
d="M58 290l21 132h112c54 191 130 296 311 296c51 0 96 -10 136 -30v-149h-1c-42 21 -77 29 -118 29c-81 0 -120 -37 -149 -141l-1 -5h247v-132h-284l-40 -142h368v-148h-588l82 290h-96z" />
    <glyph glyph-name="Euro.tab" horiz-adv-x="724" 
d="M21 210l11 110h89c-1 8 -1 17 -1 25c0 14 1 28 2 41h-85l11 110h97c47 127 159 220 345 220c66 0 131 -15 185 -41v-151h-1c-66 32 -127 48 -182 48c-87 0 -143 -31 -175 -85h230v-101h-259c-1 -12 -2 -25 -2 -39c0 -9 0 -18 1 -27h260v-101h-236c30 -58 86 -91 178 -91
c56 0 118 13 185 44h1v-151c-53 -24 -130 -37 -197 -37c-198 0 -301 96 -340 226h-117z" />
    <glyph glyph-name="yen.tab" horiz-adv-x="724" 
d="M49 137l6 117h210l-34 64h-172l6 116h104l-142 266h186l146 -292h8l149 292h181l-143 -266h104l7 -116h-173l-35 -64h211l6 -117h-226v-137h-173v137h-226z" />
    <glyph glyph-name="uni20B9.tab" horiz-adv-x="724" 
d="M658 378h-94c-19 -114 -104 -189 -234 -189h-1l280 -189h-255l-270 186v125h186c73 0 108 28 120 78h-306v103h306c-13 55 -53 78 -139 78h-167v130h595l-8 -130h-146c17 -20 29 -44 36 -73h104z" />
    <glyph glyph-name="period.tab" horiz-adv-x="362" 
d="M180 -11c-75 0 -116 48 -116 107v2c0 59 41 107 116 107s117 -48 117 -107v-1c0 -60 -42 -108 -117 -108z" />
    <glyph glyph-name="comma.tab" horiz-adv-x="362" 
d="M60 -150l44 338h215v-30l-162 -308h-97z" />
    <glyph glyph-name="colon.tab" horiz-adv-x="362" 
d="M181 339c-75 0 -117 49 -117 108v1c0 60 42 107 117 107c74 0 116 -47 116 -106v-2c0 -59 -42 -108 -116 -108zM181 -11c-75 0 -117 48 -117 107v2c0 59 42 107 117 107c74 0 116 -48 116 -107v-1c0 -60 -42 -108 -116 -108z" />
    <glyph glyph-name="semicolon.tab" horiz-adv-x="362" 
d="M200 339c-75 0 -117 49 -117 108v1c0 60 42 107 117 107c74 0 116 -47 116 -106v-2c0 -59 -42 -108 -116 -108zM54 -150l45 338h215v-30l-162 -308h-98z" />
    <glyph glyph-name="periodcentered.tab" horiz-adv-x="362" 
d="M180 241c-75 0 -116 49 -116 108v1c0 60 41 107 116 107s117 -47 117 -106v-2c0 -59 -42 -108 -117 -108z" />
    <glyph glyph-name="hyphen.tab" horiz-adv-x="362" 
d="M24 270v160h314v-160h-314z" />
    <glyph glyph-name="endash.tab" horiz-adv-x="724" 
d="M79 272v157h566v-157h-566z" />
    <glyph glyph-name="underscore.tab" horiz-adv-x="724" 
d="M-4 -198v128h732v-128h-732z" />
    <glyph glyph-name="slash.tab" horiz-adv-x="543" 
d="M27 -134l326 969h164l-327 -969h-163z" />
    <glyph glyph-name="bar.tab" horiz-adv-x="543" 
d="M190 -134v969h162v-969h-162z" />
    <glyph glyph-name="numbersign.tab" horiz-adv-x="724" 
d="M68 0l25 126h-85v130h110l37 187h-106v131h131l25 126h148l-25 -126h156l25 126h147l-25 -126h85v-131h-110l-37 -187h106v-130h-131l-25 -126h-148l25 126h-156l-25 -126h-147zM265 256h156l37 187h-156z" />
    <glyph glyph-name="percent.tab" horiz-adv-x="1086" 
d="M252 327c-131 0 -210 70 -210 190c0 122 80 195 211 195c130 0 210 -72 210 -194c0 -118 -82 -191 -211 -191zM148 1l313 350l308 349h168v-1l-313 -349l-308 -350h-168v1zM253 438c47 0 76 27 76 80s-30 80 -77 80c-46 0 -77 -26 -77 -80c0 -52 31 -80 78 -80zM834 373
c131 0 210 -70 210 -190c0 -121 -80 -195 -211 -195c-130 0 -210 72 -210 194c0 118 81 191 211 191zM833 262c-46 0 -76 -27 -76 -80c0 -52 31 -80 77 -80s76 26 76 80c0 53 -30 80 -77 80z" />
    <glyph glyph-name="degree.tab" horiz-adv-x="634" 
d="M317 267c-146 0 -240 88 -240 223c0 136 94 223 240 223s240 -87 240 -223c0 -135 -94 -223 -240 -223zM317 388c62 0 99 39 99 102s-37 102 -99 102s-99 -39 -99 -102s37 -102 99 -102z" />
    <glyph glyph-name="quotedbl.tab" horiz-adv-x="634" 
d="M88 380v320h200v-29l-106 -291h-94zM366 380v320h200v-29l-106 -291h-94z" />
    <glyph glyph-name="quotesingle.tab" horiz-adv-x="362" 
d="M93 380v320h201v-29l-107 -291h-94z" />
    <glyph glyph-name="plus.tab" horiz-adv-x="724" 
d="M79 275v150h203v206h159v-206h203v-150h-203v-205h-159v205h-203z" />
    <glyph glyph-name="minus.tab" horiz-adv-x="724" 
d="M104 271v158h516v-158h-516z" />
    <glyph glyph-name="equal.tab" horiz-adv-x="724" 
d="M85 411v147h553v-147h-553zM85 142v147h553v-147h-553z" />
    <glyph glyph-name="divide.tab" horiz-adv-x="724" 
d="M362 662c65 0 103 -40 103 -92s-38 -92 -103 -92s-103 40 -103 91v1c0 52 38 92 103 92zM65 278v144h595v-144h-595zM363 39c-65 0 -103 40 -103 91v1c0 52 38 92 102 92c66 0 104 -40 104 -92v-1c0 -51 -38 -91 -103 -91z" />
    <glyph glyph-name="multiply.tab" horiz-adv-x="724" 
d="M82 521l105 107l175 -172l175 172l105 -107l-173 -170l173 -171l-105 -107l-175 172l-175 -172l-105 107l173 171z" />
    <glyph glyph-name="dotmath.tab" horiz-adv-x="362" 
d="M180 242c-75 0 -116 48 -116 107v1c0 60 41 107 116 107s117 -47 117 -106v-2c0 -59 -42 -107 -117 -107z" />
    <glyph glyph-name="plusminus.tab" horiz-adv-x="724" 
d="M108 407v145h175v168h158v-168h175v-145h-175v-168h-158v168h-175zM108 20v139h508v-139h-508z" />
    <glyph glyph-name="less.tab" horiz-adv-x="724" 
d="M589 49l-474 217v168l474 216v-170l-290 -130l290 -131v-170z" />
    <glyph glyph-name="greater.tab" horiz-adv-x="724" 
d="M134 652l474 -217v-168l-474 -216v170l290 130l-290 131v170z" />
    <glyph glyph-name="asciicircum.tab" horiz-adv-x="724" 
d="M55 344l187 356h235l191 -356h-182l-106 202h-43l-103 -202h-179z" />
    <glyph glyph-name="asciitilde.tab" horiz-adv-x="724" 
d="M71 402c44 46 94 81 162 81c62 0 104 -23 161 -57c52 -30 70 -37 101 -37c53 0 96 39 156 108h1v-199c-44 -45 -94 -81 -161 -81c-63 0 -105 24 -162 57c-52 31 -70 38 -100 38c-53 0 -97 -40 -157 -109h-1v199z" />
    <glyph glyph-name="onehalf.tab" horiz-adv-x="1086" 
d="M407 391v-105h-333v105h108v203h-110l16 106h226v-309h93zM246 1l510 699h132v-1l-510 -699h-132v1zM691 0v104l114 86c98 70 104 81 104 97c0 20 -17 28 -46 28c-41 0 -95 -19 -154 -58h-1v121c59 34 113 49 172 49c106 0 163 -46 163 -123c0 -68 -44 -101 -150 -175
l-28 -21h175v-108h-349z" />
    <glyph glyph-name="onethird.tab" horiz-adv-x="1086" 
d="M407 391v-105h-333v105h108v203h-110l16 106h226v-309h93zM233 1l510 699h132v-1l-510 -699h-132v1zM852 -13c-59 0 -109 10 -157 25v112h1c53 -18 102 -30 144 -30c50 0 79 10 79 36c0 27 -22 37 -130 37h-15v58l115 83h-192l3 106h329v-100l-105 -75
c78 -12 124 -48 124 -114c0 -89 -81 -138 -196 -138z" />
    <glyph glyph-name="twothirds.tab" horiz-adv-x="1086" 
d="M53 286v104l114 86c98 70 104 81 104 97c0 20 -17 28 -46 28c-41 0 -95 -19 -154 -58h-1v121c59 34 113 49 172 49c106 0 163 -46 163 -123c0 -68 -44 -101 -150 -175l-28 -21h175v-108h-349zM230 1l510 699h132v-1l-510 -699h-132v1zM852 -13c-59 0 -109 10 -157 25v112
h1c53 -18 102 -30 144 -30c50 0 79 10 79 36c0 27 -22 37 -130 37h-15v58l115 83h-192l3 106h329v-100l-105 -75c78 -12 124 -48 124 -114c0 -89 -81 -138 -196 -138z" />
    <glyph glyph-name="onequarter.tab" horiz-adv-x="1086" 
d="M407 391v-105h-333v105h108v203h-110l16 106h226v-309h93zM248 1l510 699h132v-1l-510 -699h-132v1zM892 0v77h-232v96l104 241h249v-235h58l-6 -102h-52v-77h-121zM786 176h110v137h-54z" />
    <glyph glyph-name="threequarters.tab" horiz-adv-x="1086" 
d="M214 273c-59 0 -109 10 -157 25v112h1c53 -18 102 -30 144 -30c50 0 79 10 79 36c0 27 -22 37 -130 37h-15v58l115 83h-192l3 106h329v-100l-105 -75c78 -12 124 -48 124 -114c0 -89 -81 -138 -196 -138zM227 1l510 699h132v-1l-510 -699h-132v1zM892 0v77h-232v96
l104 241h249v-235h58l-6 -102h-52v-77h-121zM786 176h110v137h-54z" />
    <glyph glyph-name="uni2155.tab" horiz-adv-x="1086" 
d="M407 391v-105h-333v105h108v203h-110l16 106h226v-309h93zM236 1l510 699h132v-1l-510 -699h-132v1zM861 -13c-69 0 -118 9 -163 24v111h1c45 -16 98 -27 155 -27s66 20 66 36c0 8 -2 13 -9 19c-13 11 -45 15 -129 15h-77l6 249h311l4 -107h-202l-1 -51h7
c102 0 154 -11 187 -44c20 -20 32 -46 32 -84c0 -87 -73 -141 -188 -141z" />
    <glyph glyph-name="uni2156.tab" horiz-adv-x="1086" 
d="M53 286v104l114 86c98 70 104 81 104 97c0 20 -17 28 -46 28c-41 0 -95 -19 -154 -58h-1v121c59 34 113 49 172 49c106 0 163 -46 163 -123c0 -68 -44 -101 -150 -175l-28 -21h175v-108h-349zM236 1l510 699h132v-1l-510 -699h-132v1zM861 -13c-69 0 -118 9 -163 24v111
h1c45 -16 98 -27 155 -27s66 20 66 36c0 8 -2 13 -9 19c-13 11 -45 15 -129 15h-77l6 249h311l4 -107h-202l-1 -51h7c102 0 154 -11 187 -44c20 -20 32 -46 32 -84c0 -87 -73 -141 -188 -141z" />
    <glyph glyph-name="uni2157.tab" horiz-adv-x="1086" 
d="M214 273c-59 0 -109 10 -157 25v112h1c53 -18 102 -30 144 -30c50 0 79 10 79 36c0 27 -22 37 -130 37h-15v58l115 83h-192l3 106h329v-100l-105 -75c78 -12 124 -48 124 -114c0 -89 -81 -138 -196 -138zM218 1l510 699h132v-1l-510 -699h-132v1zM861 -13
c-69 0 -118 9 -163 24v111h1c45 -16 98 -27 155 -27s66 20 66 36c0 8 -2 13 -9 19c-13 11 -45 15 -129 15h-77l6 249h311l4 -107h-202l-1 -51h7c102 0 154 -11 187 -44c20 -20 32 -46 32 -84c0 -87 -73 -141 -188 -141z" />
    <glyph glyph-name="uni2158.tab" horiz-adv-x="1086" 
d="M254 286v77h-232v96l104 241h249v-235h58l-6 -102h-52v-77h-121zM231 1l510 699h132v-1l-510 -699h-132v1zM148 462h110v137h-54zM861 -13c-69 0 -118 9 -163 24v111h1c45 -16 98 -27 155 -27s66 20 66 36c0 8 -2 13 -9 19c-13 11 -45 15 -129 15h-77l6 249h311l4 -107
h-202l-1 -51h7c102 0 154 -11 187 -44c20 -20 32 -46 32 -84c0 -87 -73 -141 -188 -141z" />
    <glyph glyph-name="uni2159.tab" horiz-adv-x="1086" 
d="M407 391v-105h-333v105h108v203h-110l16 106h226v-309h93zM251 1l510 699h132v-1l-510 -699h-132v1zM870 -13c-126 0 -196 69 -196 210c0 146 86 230 222 230c50 0 88 -8 131 -23v-109h-1c-43 19 -77 27 -123 27c-57 0 -102 -25 -105 -85c30 17 71 28 109 28
c87 0 147 -38 147 -125c0 -98 -78 -153 -184 -153zM879 176c-30 0 -59 -8 -81 -20c3 -52 32 -68 71 -68s63 17 63 48s-23 40 -53 40z" />
    <glyph glyph-name="uni215A.tab" horiz-adv-x="1086" 
d="M223 273c-69 0 -118 9 -163 24v111h1c45 -16 98 -27 155 -27s66 20 66 36c0 8 -2 13 -9 19c-13 11 -45 15 -129 15h-77l6 249h311l4 -107h-202l-1 -51h7c102 0 154 -11 187 -44c20 -20 32 -46 32 -84c0 -87 -73 -141 -188 -141zM232 1l510 699h132v-1l-510 -699h-132v1z
M870 -13c-126 0 -196 69 -196 210c0 146 86 230 222 230c50 0 88 -8 131 -23v-109h-1c-43 19 -77 27 -123 27c-57 0 -102 -25 -105 -85c30 17 71 28 109 28c87 0 147 -38 147 -125c0 -98 -78 -153 -184 -153zM879 176c-30 0 -59 -8 -81 -20c3 -52 32 -68 71 -68s63 17 63 48
s-23 40 -53 40z" />
    <glyph glyph-name="oneeighth.tab" horiz-adv-x="1086" 
d="M407 391v-105h-333v105h108v203h-110l16 106h226v-309h93zM239 1l510 699h132v-1l-510 -699h-132v1zM862 -13c-132 0 -193 45 -193 123c0 47 24 80 82 100c-49 17 -72 45 -72 91c0 76 62 125 183 125s183 -49 183 -125c0 -46 -23 -74 -72 -91c58 -20 82 -53 82 -100
c0 -78 -61 -123 -193 -123zM862 248c42 0 63 14 63 39c0 28 -19 43 -63 43s-63 -15 -63 -43c0 -25 21 -39 63 -39zM862 83c48 0 69 17 69 43c0 27 -22 44 -69 44s-69 -16 -69 -44c0 -26 21 -43 69 -43z" />
    <glyph glyph-name="threeeighths.tab" horiz-adv-x="1086" 
d="M214 273c-59 0 -109 10 -157 25v112h1c53 -18 102 -30 144 -30c50 0 79 10 79 36c0 27 -22 37 -130 37h-15v58l115 83h-192l3 106h329v-100l-105 -75c78 -12 124 -48 124 -114c0 -89 -81 -138 -196 -138zM221 1l510 699h132v-1l-510 -699h-132v1zM862 -13
c-132 0 -193 45 -193 123c0 47 24 80 82 100c-49 17 -72 45 -72 91c0 76 62 125 183 125s183 -49 183 -125c0 -46 -23 -74 -72 -91c58 -20 82 -53 82 -100c0 -78 -61 -123 -193 -123zM862 248c42 0 63 14 63 39c0 28 -19 43 -63 43s-63 -15 -63 -43c0 -25 21 -39 63 -39z
M862 83c48 0 69 17 69 43c0 27 -22 44 -69 44s-69 -16 -69 -44c0 -26 21 -43 69 -43z" />
    <glyph glyph-name="fiveeighths.tab" horiz-adv-x="1086" 
d="M223 273c-69 0 -118 9 -163 24v111h1c45 -16 98 -27 155 -27s66 20 66 36c0 8 -2 13 -9 19c-13 11 -45 15 -129 15h-77l6 249h311l4 -107h-202l-1 -51h7c102 0 154 -11 187 -44c20 -20 32 -46 32 -84c0 -87 -73 -141 -188 -141zM221 1l510 699h132v-1l-510 -699h-132v1z
M862 -13c-132 0 -193 45 -193 123c0 47 24 80 82 100c-49 17 -72 45 -72 91c0 76 62 125 183 125s183 -49 183 -125c0 -46 -23 -74 -72 -91c58 -20 82 -53 82 -100c0 -78 -61 -123 -193 -123zM862 248c42 0 63 14 63 39c0 28 -19 43 -63 43s-63 -15 -63 -43
c0 -25 21 -39 63 -39zM862 83c48 0 69 17 69 43c0 27 -22 44 -69 44s-69 -16 -69 -44c0 -26 21 -43 69 -43z" />
    <glyph glyph-name="seveneighths.tab" horiz-adv-x="1086" 
d="M48 527v173h363v-134l-165 -280h-142l168 285v26h-106v-70h-118zM192 1l510 699h132v-1l-510 -699h-132v1zM862 -13c-132 0 -193 45 -193 123c0 47 24 80 82 100c-49 17 -72 45 -72 91c0 76 62 125 183 125s183 -49 183 -125c0 -46 -23 -74 -72 -91
c58 -20 82 -53 82 -100c0 -78 -61 -123 -193 -123zM862 248c42 0 63 14 63 39c0 28 -19 43 -63 43s-63 -15 -63 -43c0 -25 21 -39 63 -39zM862 83c48 0 69 17 69 43c0 27 -22 44 -69 44s-69 -16 -69 -44c0 -26 21 -43 69 -43z" />
    <glyph glyph-name="uni25A0" unicode="&#x25a0;" horiz-adv-x="1117" 
d="M169 -29v758h779v-758h-779z" />
    <glyph glyph-name="uni25E9" unicode="&#x25e9;" horiz-adv-x="1117" 
d="M169 -29v758h779v-758h-779zM334 123h447v452z" />
    <glyph glyph-name="uni25A1" unicode="&#x25a1;" horiz-adv-x="1117" 
d="M169 -29v758h779v-758h-779zM338 123h441v454h-441v-454z" />
    <glyph glyph-name="uni2611" unicode="&#x2611;" horiz-adv-x="1117" 
d="M857 886l-326 -646h-96l193 646h229zM876 729h81v-758h-797v758h330l-151 -559h240z" />
    <glyph glyph-name="circle.solid" unicode="&#x25cf;" horiz-adv-x="1078" 
d="M539 -46c-256 0 -419 156 -419 396c0 239 163 396 419 396c257 0 419 -156 419 -396c0 -239 -163 -396 -419 -396z" />
    <glyph glyph-name="circle.half" unicode="&#x25d0;" horiz-adv-x="1078" 
d="M539 -46c-256 0 -419 156 -419 396c0 239 163 396 419 396c257 0 419 -156 419 -396c0 -239 -163 -396 -419 -396zM529 99c155 0 255 97 255 251s-100 251 -255 251v-502z" />
    <glyph glyph-name="circle.open" unicode="&#x25cb;" horiz-adv-x="1078" 
d="M539 -46c-256 0 -419 156 -419 396c0 239 163 396 419 396c257 0 419 -156 419 -396c0 -239 -163 -396 -419 -396zM539 105c153 0 243 96 243 245s-90 245 -243 245s-243 -96 -243 -245s90 -245 243 -245z" />
    <glyph glyph-name="circle.checked" unicode="&#x2299;" horiz-adv-x="1078" 
d="M539 -46c-256 0 -419 156 -419 396c0 239 163 396 419 396c257 0 419 -156 419 -396c0 -239 -163 -396 -419 -396zM539 105c155 0 247 96 247 245s-92 245 -247 245s-247 -96 -247 -245s92 -245 247 -245zM539 223c-80 0 -129 50 -129 127s49 127 129 127
c81 0 129 -50 129 -127s-48 -127 -129 -127z" />
    <glyph glyph-name="uni25AA" unicode="&#x25aa;" horiz-adv-x="808" 
d="M163 118v464h482v-464h-482z" />
    <glyph glyph-name="uni25AB" unicode="&#x25ab;" horiz-adv-x="808" 
d="M163 118v464h482v-464h-482zM311 252h186v196h-186v-196z" />
    <glyph glyph-name="uniE000" unicode="&#xe000;" horiz-adv-x="782" 
d="M390 100c-160 0 -260 100 -260 250c0 149 100 250 260 250c163 0 262 -100 262 -250c0 -149 -100 -250 -262 -250z" />
    <glyph glyph-name="uniE001" unicode="&#xe001;" horiz-adv-x="782" 
d="M390 100c-160 0 -260 100 -260 250c0 149 100 250 260 250c163 0 262 -100 262 -250c0 -149 -100 -250 -262 -250zM390 241c69 0 111 44 111 109s-42 109 -111 109c-67 0 -109 -44 -109 -109s42 -109 109 -109z" />
    <glyph glyph-name="uniE02A" unicode="&#xe02a;" horiz-adv-x="1072" 
d="M847 735l103 -98l-78 -96l80 -96l-80 -96l80 -96l-80 -96l78 -96l-103 -98l-101 78l-101 -80l-101 80l-101 -80l-101 80l-101 -78l-103 98l78 96l-80 96l80 96l-80 96l80 96l-78 96l103 98l101 -78l101 80l101 -80l101 80l101 -80z" />
    <glyph glyph-name="uni2600" unicode="&#x2600;" horiz-adv-x="1039" 
d="M933 371v-34l-139 -76l51 -154l-24 -28l-153 32l-64 -151l-34 -7l-97 123l-146 -75l-28 18l3 157l-160 35l-12 33l107 117l-103 130l12 34l160 22l2 163l32 18l135 -82l108 121l36 -7l50 -150l160 24l23 -28l-58 -147z" />
    <glyph glyph-name="uni2735" unicode="&#x2735;" horiz-adv-x="979" 
d="M903 373v-38l-203 -51l116 -175l-26 -32l-187 92l-27 -208l-38 -8l-85 188l-154 -141l-32 20l54 198l-208 -9l-14 37l172 115l-168 128l14 38l206 -22l-47 204l36 20l142 -148l97 186l40 -8l13 -206l194 83l25 -32l-123 -168z" />
    <glyph glyph-name="uni263C" unicode="&#x263c;" horiz-adv-x="1039" 
d="M933 371v-34l-139 -76l51 -154l-24 -28l-153 32l-64 -151l-34 -7l-97 123l-146 -75l-28 18l3 157l-160 35l-12 33l107 117l-103 130l12 34l160 22l2 163l32 18l135 -82l108 121l36 -7l50 -150l160 24l23 -28l-58 -147zM664 362c0 73 -50 133 -137 133s-137 -60 -137 -133
s50 -133 137 -133s137 60 137 133z" />
    <glyph glyph-name="uni2605" unicode="&#x2605;" horiz-adv-x="1050" 
d="M645 502l299 3l19 -49l-243 -169l100 -287l-43 -29l-252 186l-253 -186l-42 29l100 287l-243 169l19 49l299 -3l94 283h52z" />
    <glyph glyph-name="uni272B" unicode="&#x272b;" horiz-adv-x="1050" 
d="M645 502l299 3l19 -49l-243 -169l100 -287l-43 -29l-252 186l-253 -186l-42 29l100 287l-243 169l19 49l299 -3l94 283h52zM525 236l122 117l-122 117l-122 -117z" />
    <glyph glyph-name="uniE027" unicode="&#xe027;" horiz-adv-x="1000" 
d="M500 524c-60 0 -100 38 -100 96c0 57 40 96 100 96c61 0 100 -39 100 -96c0 -58 -39 -96 -100 -96zM249 391c-60 0 -100 38 -100 96c0 57 40 96 100 96c62 0 100 -39 100 -96c0 -58 -38 -96 -100 -96zM751 391c-61 0 -100 38 -100 96c0 57 39 96 100 96s100 -39 100 -96
c0 -58 -39 -96 -100 -96zM500 250c-62 0 -104 40 -104 100c0 59 42 100 104 100c63 0 104 -41 104 -100c0 -60 -41 -100 -104 -100zM249 117c-60 0 -100 38 -100 96c0 57 40 96 100 96c62 0 100 -39 100 -96c0 -58 -38 -96 -100 -96zM751 117c-61 0 -100 38 -100 96
c0 57 39 96 100 96s100 -39 100 -96c0 -58 -39 -96 -100 -96zM500 -16c-60 0 -100 37 -100 96c0 57 40 96 100 96c61 0 100 -39 100 -96c0 -59 -39 -96 -100 -96z" />
    <glyph glyph-name="uniE002" unicode="&#xe002;" horiz-adv-x="1100" 
d="M273 517c-59 0 -98 36 -98 93s39 94 98 94c60 0 98 -37 98 -94s-38 -93 -98 -93zM550 517c-59 0 -98 36 -98 93s39 94 98 94c60 0 98 -37 98 -94s-38 -93 -98 -93zM827 517c-59 0 -98 36 -98 93s39 94 98 94c60 0 98 -37 98 -94s-38 -93 -98 -93zM273 256
c-59 0 -98 37 -98 94c0 56 39 94 98 94c60 0 98 -38 98 -94c0 -57 -38 -94 -98 -94zM550 256c-59 0 -98 37 -98 94c0 56 39 94 98 94c60 0 98 -38 98 -94c0 -57 -38 -94 -98 -94zM827 256c-59 0 -98 37 -98 94c0 56 39 94 98 94c60 0 98 -38 98 -94c0 -57 -38 -94 -98 -94z
M273 -4c-59 0 -98 36 -98 94c0 56 39 93 98 93c60 0 98 -37 98 -93c0 -58 -38 -94 -98 -94zM550 -4c-59 0 -98 36 -98 94c0 56 39 93 98 93c60 0 98 -37 98 -93c0 -58 -38 -94 -98 -94zM827 -4c-59 0 -98 36 -98 94c0 56 39 93 98 93c60 0 98 -37 98 -93
c0 -58 -38 -94 -98 -94z" />
    <glyph glyph-name="uni2795" unicode="&#x2795;" horiz-adv-x="1020" 
d="M111 274v157h313v309h172v-309h313v-157h-313v-314h-172v314h-313z" />
    <glyph glyph-name="uni2731" unicode="&#x2731;" horiz-adv-x="1020" 
d="M268 17l-105 107l160 154l-215 -2v149l219 -2l-159 153l101 105l165 -166l-2 225h156l-2 -228l168 170l103 -107l-160 -152l215 2v-149l-219 2l163 -155l-102 -104l-168 170l2 -229h-156l2 226z" />
    <glyph glyph-name="uni274C" unicode="&#x274c;" horiz-adv-x="1020" 
d="M236 -25l-114 116l273 259l-273 260l111 115l275 -268l275 268l113 -117l-273 -259l273 -260l-112 -114l-274 267z" />
    <glyph glyph-name="uni261A" unicode="&#x261a;" horiz-adv-x="1750" 
d="M1575 66l-399 88l-378 -131c-14 -5 -35 -3 -49 5l-15 8c-24 16 -28 32 -19 76l-30 -10c-15 -6 -36 -5 -50 3l-25 13c-25 12 -29 31 -19 81l-31 -13c-15 -7 -36 -7 -50 1l-28 16c-16 9 -25 25 -20 46l39 159l-231 -20c-150 -12 -213 60 -188 129l2 6l605 79
c28 4 53 7 65 7c14 0 37 -2 62 -5l759 -78v-460z" />
    <glyph glyph-name="uni261B" unicode="&#x261b;" horiz-adv-x="1750" 
d="M942 23l-376 131l-401 -88v460l759 78c25 3 48 5 62 5c12 0 37 -3 65 -7l605 -79l2 -6c25 -69 -39 -141 -188 -129l-231 20l38 -159c6 -21 -3 -37 -19 -46l-28 -16c-14 -8 -35 -8 -50 -1l-30 14c9 -50 5 -70 -20 -82l-25 -13c-14 -8 -35 -9 -50 -3l-29 9
c8 -43 4 -60 -20 -75l-15 -8c-14 -8 -35 -10 -49 -5z" />
    <glyph glyph-name="uni2190" unicode="&#x2190;" horiz-adv-x="1020" 
d="M408 444l482 2v-160l-479 2l249 -220h-230l-337 298l337 298h230z" />
    <glyph glyph-name="uni2192" unicode="&#x2192;" horiz-adv-x="1020" 
d="M612 286l-482 -2v160l479 -2l-249 220h230l337 -298l-337 -298h-230z" />
    <glyph glyph-name="uni2191" unicode="&#x2191;" horiz-adv-x="890" 
d="M360 -22l2 473l-228 -247v221l311 328l311 -328v-221l-228 247l2 -473h-170z" />
    <glyph glyph-name="uni2193" unicode="&#x2193;" horiz-adv-x="890" 
d="M445 -53l-311 328v221l228 -247l-2 473h170l-2 -473l228 247v-221z" />
    <glyph glyph-name="uniE003" unicode="&#xe003;" horiz-adv-x="1020" 
d="M532 9l-459 357l459 357l23 -12l-8 -210l347 5v-280l-347 5l8 -210z" />
    <glyph glyph-name="uni27A1" unicode="&#x27a1;" horiz-adv-x="1020" 
d="M488 9l-23 12l8 210l-347 -5v280l347 -5l-8 210l23 12l459 -357z" />
    <glyph glyph-name="uniE004" unicode="&#xe004;" horiz-adv-x="910" 
d="M309 -22l7 309l-216 -4l-12 24l367 446l367 -446l-12 -24l-216 4l7 -309h-292z" />
    <glyph glyph-name="uniE005" unicode="&#xe005;" horiz-adv-x="910" 
d="M455 -53l-367 446l12 24l216 -4l-7 309h292l-7 -309l216 4l12 -24z" />
    <glyph glyph-name="uni21A2" unicode="&#x21a2;" horiz-adv-x="2050" 
d="M733 97l-654 267l654 267l5 -15l-88 -176h610l159 123h521l-222 -199l222 -199h-521l-159 123h-610l88 -176z" />
    <glyph glyph-name="uni21A3" unicode="&#x21a3;" horiz-adv-x="2050" 
d="M1317 97l-5 15l88 176h-610l-159 -123h-521l222 199l-222 199h521l159 -123h610l-88 176l5 15l654 -267z" />
    <glyph glyph-name="uni25C0" unicode="&#x25c0;" horiz-adv-x="1050" 
d="M881 -34l-782 379v10l782 379v-768z" />
    <glyph glyph-name="uni25B6" unicode="&#x25b6;" horiz-adv-x="1050" 
d="M169 734l782 -379v-10l-782 -379v768z" />
    <glyph glyph-name="uni25B2" unicode="&#x25b2;" horiz-adv-x="1000" 
d="M116 -29l379 782h10l379 -782h-768z" />
    <glyph glyph-name="uni25BC" unicode="&#x25bc;" horiz-adv-x="1000" 
d="M884 729l-379 -782h-10l-379 782h768z" />
    <glyph glyph-name="uni25B4" unicode="&#x25b4;" horiz-adv-x="924" 
d="M467 793l362 -434h-734l362 434h10z" />
    <glyph glyph-name="uni25BE" unicode="&#x25be;" horiz-adv-x="924" 
d="M457 -66l-362 434h734l-362 -434h-10z" />
    <glyph glyph-name="uni25C2" unicode="&#x25c2;" horiz-adv-x="1010" 
d="M842 93l-733 267v12l733 267v-546z" />
    <glyph glyph-name="uni25B8" unicode="&#x25b8;" horiz-adv-x="1010" 
d="M168 639l733 -267v-12l-733 -267v546z" />
    <glyph glyph-name="uniE023" unicode="&#xe023;" horiz-adv-x="815" 
d="M515 -170l-422 504v12l422 504h223l-424 -509l424 -511h-223z" />
    <glyph glyph-name="uniE024" unicode="&#xe024;" horiz-adv-x="815" 
d="M75 -170l423 512l-423 508h223l421 -504v-12l-421 -504h-223z" />
    <glyph glyph-name="uniE023.open" unicode="&#x276c;" horiz-adv-x="921" 
d="M454 -170l-383 504v12l383 504h314v-1020h-314zM542 -9h53v698h-53l-263 -352z" />
    <glyph glyph-name="uniE024.open" unicode="&#x276d;" horiz-adv-x="921" 
d="M153 -170v1020h314l383 -504v-12l-383 -504h-314zM326 -9h53l263 352l-263 346h-53v-698z" />
    <glyph glyph-name="uniE023.solid" unicode="&#x2770;" horiz-adv-x="921" 
d="M762 850v-1020h-315l-376 504v12l376 504h315z" />
    <glyph glyph-name="uniE024.solid" unicode="&#x2771;" horiz-adv-x="921" 
d="M159 -170v1020h315l376 -504v-12l-376 -504h-315z" />
    <glyph glyph-name="uniE006" unicode="&#xe006;" horiz-adv-x="1487" 
d="M145 130v472h982l250 -236l-250 -236h-982z" />
    <glyph glyph-name="uniE007" unicode="&#xe007;" horiz-adv-x="1487" 
d="M145 130v472h982l250 -236l-250 -236h-982zM317 286h743l81 80l-81 80h-743v-160z" />
    <glyph glyph-name="uniE008" unicode="&#xe008;" horiz-adv-x="1487" 
d="M145 130v472h982l250 -236l-250 -236h-982zM317 286h690v160h-690v-160z" />
    <glyph glyph-name="uniE009" unicode="&#xe009;" horiz-adv-x="1300" 
d="M145 227v278h1010v-278h-1010z" />
    <glyph glyph-name="uniE00A" unicode="&#xe00a;" horiz-adv-x="1300" 
d="M145 412v162h1010v-162h-1010zM145 149v161h1010v-161h-1010z" />
    <glyph glyph-name="uniE00B" unicode="&#xe00b;" horiz-adv-x="1300" 
d="M145 525v141h1010v-141h-1010zM145 293v137h1010v-137h-1010zM145 57v141h1010v-141h-1010z" />
    <glyph glyph-name="uniE00C" unicode="&#xe00c;" horiz-adv-x="1098" 
d="M549 130c-234 0 -365 60 -365 129s131 128 365 128c235 0 365 -59 365 -128s-131 -129 -365 -129zM182 68v93h5c19 -45 128 -105 362 -105s343 60 362 105h5v-93c0 -69 -133 -129 -367 -129s-367 60 -367 129z" />
    <glyph glyph-name="uniE00D" unicode="&#xe00d;" horiz-adv-x="1098" 
d="M549 317c-234 0 -365 60 -365 129s131 128 365 128c235 0 365 -59 365 -128s-131 -129 -365 -129zM182 255v93h5c19 -45 128 -105 362 -105s343 60 362 105h5v-93c0 -69 -133 -129 -367 -129s-367 60 -367 129zM182 68v93h5c19 -45 128 -105 362 -105s343 60 362 105h5
v-93c0 -69 -133 -129 -367 -129s-367 60 -367 129z" />
    <glyph glyph-name="uniE00E" unicode="&#xe00e;" horiz-adv-x="1098" 
d="M549 504c-234 0 -365 60 -365 129s131 128 365 128c235 0 365 -59 365 -128s-131 -129 -365 -129zM182 442v93h5c19 -45 128 -105 362 -105s343 60 362 105h5v-93c0 -69 -133 -129 -367 -129s-367 60 -367 129zM182 255v93h5c19 -45 128 -105 362 -105s343 60 362 105h5
v-93c0 -69 -133 -129 -367 -129s-367 60 -367 129zM182 68v93h5c19 -45 128 -105 362 -105s343 60 362 105h5v-93c0 -69 -133 -129 -367 -129s-367 60 -367 129z" />
    <glyph glyph-name="uniE00F" unicode="&#xe00f;" horiz-adv-x="1098" 
d="M549 111l-409 145v18l409 145l409 -145v-18zM549 -76l-404 143v112l404 -143l404 143v-112z" />
    <glyph glyph-name="uniE010" unicode="&#xe010;" horiz-adv-x="1098" 
d="M549 292l-409 145v18l409 145l409 -145v-18zM549 105l-404 143v112l404 -143l404 143v-112zM549 -76l-404 143v112l404 -143l404 143v-112z" />
    <glyph glyph-name="uniE011" unicode="&#xe011;" horiz-adv-x="1098" 
d="M549 473l-409 145v18l409 145l409 -145v-18zM549 286l-404 143v112l404 -143l404 143v-112zM549 105l-404 143v112l404 -143l404 143v-112zM549 -76l-404 143v112l404 -143l404 143v-112z" />
    <glyph glyph-name="uni2295" unicode="&#x2295;" horiz-adv-x="1078" 
d="M539 -46c-253 0 -413 156 -413 396c0 239 160 396 413 396c254 0 413 -156 413 -396c0 -239 -160 -396 -413 -396zM310 294h171v-171h116v171h171v116h-171v171h-116v-171h-171v-116z" />
    <glyph glyph-name="uni2296" unicode="&#x2296;" horiz-adv-x="1078" 
d="M539 -46c-253 0 -413 156 -413 396c0 239 160 396 413 396c254 0 413 -156 413 -396c0 -239 -160 -396 -413 -396zM309 294h459v116h-459v-116z" />
    <glyph glyph-name="uniE012" unicode="&#xe012;" horiz-adv-x="1078" 
d="M539 -46c-253 0 -413 156 -413 396c0 239 160 396 413 396c254 0 413 -156 413 -396c0 -239 -160 -396 -413 -396zM366 561v-115c56 35 120 58 182 58c44 0 79 -11 79 -44c0 -26 -26 -53 -160 -82v-99h1c192 34 289 86 289 190c0 98 -93 139 -196 139
c-78 0 -138 -20 -195 -47zM525 69c52 0 83 32 83 74v1c0 42 -31 73 -83 73c-53 0 -84 -31 -84 -73v-1c0 -42 31 -74 84 -74z" />
    <glyph glyph-name="uniE013" unicode="&#xe013;" horiz-adv-x="1078" 
d="M539 -46c-253 0 -413 156 -413 396c0 239 160 396 413 396c254 0 413 -156 413 -396c0 -239 -160 -396 -413 -396zM491 297h97l36 304v9h-170v-9zM540 69c52 0 83 32 83 74v1c0 42 -31 73 -83 73c-53 0 -84 -31 -84 -73v-1c0 -42 31 -74 84 -74z" />
    <glyph glyph-name="uni2297" unicode="&#x2297;" horiz-adv-x="1078" 
d="M539 -46c-253 0 -413 156 -413 396c0 239 160 396 413 396c254 0 413 -156 413 -396c0 -239 -160 -396 -413 -396zM311 204l83 -82l146 147l146 -147l82 82l-147 146l147 146l-82 82l-146 -147l-146 147l-83 -82l148 -146z" />
    <glyph glyph-name="uni2612" unicode="&#x2612;" horiz-adv-x="1117" 
d="M172 -29v758h773v-758h-773zM389 98l170 171l169 -171l83 82l-171 170l171 170l-83 82l-169 -171l-170 171l-83 -82l171 -170l-171 -170z" />
    <glyph glyph-name="uniE014" unicode="&#xe014;" horiz-adv-x="1079" 
d="M358 -36l-212 212v348l212 212h363l212 -212v-348l-212 -212h-363zM309 294h459v116h-459v-116z" />
    <glyph glyph-name="uni1F6AB" unicode="&#x1f6ab;" horiz-adv-x="1078" 
d="M540 -46c-256 0 -420 159 -420 396c0 239 162 396 418 396c257 0 420 -159 420 -396c0 -239 -162 -396 -418 -396zM289 347c0 -38 6 -73 19 -103l178 165l179 162c-35 18 -78 27 -126 27c-153 0 -250 -96 -250 -251zM539 102c153 0 250 96 250 251c0 38 -6 73 -19 103
l-178 -165l-178 -162c35 -18 77 -27 125 -27z" />
    <glyph glyph-name="uni260E" unicode="&#x260e;" horiz-adv-x="1158" 
d="M963 -29h-768l-25 196l140 250l-168 -2c-19 40 -29 76 -29 111c0 135 151 220 466 220s466 -85 466 -220c0 -35 -10 -71 -29 -111l-168 2l140 -250zM758 574h-358l-11 -90c51 9 118 17 190 17c73 0 139 -8 190 -17zM738 249c0 64 -57 117 -159 117s-160 -53 -160 -117
c0 -65 58 -117 160 -117s159 52 159 117z" />
    <glyph glyph-name="uni1F4F1" unicode="&#x1f4f1;" horiz-adv-x="917" 
d="M307 -42c-99 0 -139 40 -139 139v506c0 99 40 139 139 139h303c99 0 139 -40 139 -139v-506c0 -99 -40 -139 -139 -139h-303zM374 73h168c30 0 47 19 47 48s-17 46 -47 46h-168c-30 0 -47 -17 -47 -46s17 -48 47 -48z" />
    <glyph glyph-name="uniE015" unicode="&#xe015;" horiz-adv-x="1034" 
d="M631 467v264h25l238 -239v-25h-263zM172 -29v758h357v-359h363v-399h-720z" />
    <glyph glyph-name="uni2709" unicode="&#x2709;" horiz-adv-x="1417" 
d="M710 279l-488 450h973zM172 102v546l282 -264zM1245 102l-281 280l281 266v-546zM179 -29l347 351l184 -175l183 175l346 -351h-1060z" />
    <glyph glyph-name="uniE015.next" unicode="&#x2398;" horiz-adv-x="1082" 
d="M322 151h-145v578h551l11 -128h-417v-450zM429 -29v526h492v-526h-492z" />
    <glyph glyph-name="uniE015.previous" unicode="&#x2397;" horiz-adv-x="1082" 
d="M653 729v-526h-492v526h492zM760 549h145v-578h-551l-11 128h417v450z" />
    <glyph glyph-name="uniE016" unicode="&#xe016;" horiz-adv-x="1135" 
d="M240 531c-62 0 -103 39 -103 98s41 99 103 99c63 0 102 -40 102 -99s-39 -98 -102 -98zM432 560v139h550l-30 -139h-520zM240 251c-62 0 -103 39 -103 99c0 59 41 99 103 99c63 0 102 -40 102 -99c0 -60 -39 -99 -102 -99zM432 280v140h550l-30 -140h-520zM240 -28
c-62 0 -103 39 -103 99c0 58 41 98 103 98c63 0 102 -40 102 -98c0 -60 -39 -99 -102 -99zM432 1v139h550l-30 -139h-520z" />
    <glyph glyph-name="uni1F4C8" unicode="&#x1f4c8;" horiz-adv-x="1062" 
d="M728 -40v769h165v-769h-165zM429 -40v559h165v-559h-165zM130 -40v349h164v-349h-164z" />
    <glyph glyph-name="uni1F4C9" unicode="&#x1f4c9;" horiz-adv-x="1062" 
d="M169 -40v769h165v-769h-165zM468 -40v559h165v-559h-165zM768 -40v349h164v-349h-164z" />
    <glyph glyph-name="uniE021" unicode="&#xe021;" horiz-adv-x="1020" 
d="M392 537v150h236v-150h-236zM248 274v146h524v-146h-524zM98 11v146h824v-146h-824z" />
    <glyph glyph-name="uniE022" unicode="&#xe022;" horiz-adv-x="1020" 
d="M98 539v146h824v-146h-824zM248 276v145h524v-145h-524zM392 9v149h236v-149h-236z" />
    <glyph glyph-name="uni238C" unicode="&#x238c;" horiz-adv-x="1041" 
d="M396 278h152c113 0 199 38 197 150c1 111 -84 146 -197 146h-370l27 155h372c209 0 349 -101 347 -297c2 -197 -138 -304 -347 -304h-183l168 -151h-217l-232 226l231 226h218z" />
    <glyph glyph-name="uniE017" unicode="&#xe017;" horiz-adv-x="825" 
d="M180 89l14 651l34 15l491 -441l-2 -24l-221 -1l125 -266l-141 -66l-125 277l-149 -146z" />
    <glyph glyph-name="uni1F553" unicode="&#x1f553;" horiz-adv-x="1078" 
d="M539 -46c-253 0 -413 156 -413 396c0 239 160 396 413 396c254 0 413 -156 413 -396c0 -239 -160 -396 -413 -396zM484 302l277 -176v133l-161 101v263h-116v-321z" />
    <glyph glyph-name="uniE028" unicode="&#xe028;" horiz-adv-x="796" 
d="M131 466c0 179 104 280 267 280c166 0 267 -100 267 -280v-232c0 -179 -102 -280 -267 -280c-163 0 -267 100 -267 280v232zM398 368c78 0 122 48 122 122s-44 122 -122 122c-76 0 -122 -48 -122 -122s46 -122 122 -122z" />
    <glyph glyph-name="uniE029" unicode="&#xe029;" horiz-adv-x="796" 
d="M398 -46c-166 0 -267 100 -267 280v232c0 179 102 280 267 280c163 0 267 -100 267 -280v-232c0 -179 -104 -280 -267 -280zM398 88c76 0 122 48 122 122s-46 122 -122 122c-78 0 -122 -48 -122 -122s44 -122 122 -122z" />
    <glyph glyph-name="uniE018" unicode="&#xe018;" horiz-adv-x="960" 
d="M255 206c-94 0 -159 58 -159 147c0 88 65 147 159 147c27 0 51 -5 72 -14l179 106v7c0 78 60 147 153 147c95 0 157 -58 157 -147s-62 -147 -157 -147c-33 0 -63 7 -86 21l-166 -97c1 -7 1 -15 1 -23s-1 -17 -2 -24l169 -101c24 13 52 20 84 20c95 0 157 -59 157 -147
c0 -90 -62 -147 -157 -147c-93 0 -153 68 -153 147v9l-180 109c-21 -8 -45 -13 -71 -13z" />
    <glyph glyph-name="uni1F50D" unicode="&#x1f50d;" horiz-adv-x="919" 
d="M461 97c-205 0 -340 131 -340 323c0 191 135 326 340 326c204 0 340 -131 340 -326c0 -108 -45 -197 -120 -255l128 -226l-152 -79l-132 242c-21 -3 -42 -5 -64 -5zM465 255c98 0 162 67 162 165s-64 166 -166 166c-101 0 -165 -68 -165 -166s63 -165 169 -165z" />
    <glyph glyph-name="uni1F517" unicode="&#x1f517;" horiz-adv-x="1462" 
d="M368 -16c-158 85 -249 195 -249 354c0 212 168 387 435 387c270 0 423 -149 423 -333c0 -38 -5 -67 -15 -104l-164 -21c10 29 15 72 15 102c0 124 -95 203 -256 203c-158 0 -261 -104 -261 -226s77 -195 208 -267zM915 -24c-270 0 -423 149 -423 333c0 38 5 67 15 104
l164 21c-10 -29 -15 -72 -15 -102c0 -124 95 -203 256 -203c158 0 261 104 261 227c0 116 -77 190 -208 266l136 95c158 -89 249 -200 249 -354c0 -212 -169 -387 -435 -387z" />
    <glyph glyph-name="uni1F512" unicode="&#x1f512;" horiz-adv-x="1066" 
d="M139 -29v429h112v80c0 165 107 266 282 266s282 -101 282 -266v-80h112v-429h-788zM414 478v-78h238v78c0 74 -32 128 -119 128s-119 -54 -119 -128z" />
    <glyph glyph-name="uniE019" unicode="&#xe019;" horiz-adv-x="1078" 
d="M539 -46c-253 0 -413 156 -413 396c0 239 160 396 413 396c254 0 413 -156 413 -396c0 -239 -160 -396 -413 -396zM371 120h336v10l-124 229c61 17 97 64 97 118c0 74 -57 128 -141 128c-83 0 -141 -54 -141 -128c0 -54 36 -101 97 -118l-124 -229v-10z" />
    <glyph glyph-name="uni1F5DD" unicode="&#x1f5dd;" horiz-adv-x="853" 
d="M680 234v-206l-196 3v-71h-150v388c-127 17 -229 79 -229 193c0 136 145 205 304 205c158 0 304 -68 304 -205c0 -113 -103 -176 -229 -193v-117zM409 612c-82 0 -142 -25 -142 -71s60 -70 142 -70c81 0 142 24 142 70s-61 71 -142 71z" />
    <glyph glyph-name="uniE025" unicode="&#xe025;" horiz-adv-x="902" 
d="M192 -63v792h518v-792h-20l-239 218l-239 -218h-20z" />
    <glyph glyph-name="uni1F441" unicode="&#x1f441;" horiz-adv-x="978" 
d="M489 50c-178 0 -318 111 -430 300c112 189 252 300 430 300c179 0 318 -110 430 -300c-112 -190 -251 -300 -430 -300zM489 162c117 0 197 78 197 188c0 111 -79 188 -197 188c-116 0 -197 -78 -197 -188c0 -111 81 -188 197 -188zM489 264c-54 0 -86 33 -86 86
s32 86 86 86c55 0 86 -33 86 -86s-31 -86 -86 -86z" />
    <glyph glyph-name="uni1F4AC" unicode="&#x1f4ac;" horiz-adv-x="1098" 
d="M145 -53l-10 29c114 77 197 155 250 234c-150 37 -239 123 -239 238c0 152 160 298 413 298c254 0 413 -153 413 -296c0 -122 -55 -232 -277 -340c-124 -60 -300 -120 -550 -163z" />
    <glyph glyph-name="uniE026" unicode="&#xe026;" horiz-adv-x="1004" 
d="M502 751c144 0 225 -103 225 -247c0 -127 -81 -259 -225 -259s-225 132 -225 259c0 144 81 247 225 247zM909 -29h-814l10 123c5 60 31 90 140 113l78 18c47 -44 108 -71 179 -71s132 27 179 71l78 -18c109 -23 135 -53 140 -113z" />
    <glyph glyph-name="heart" unicode="&#x2665;" horiz-adv-x="1010" 
d="M503 601h4c32 92 104 145 193 145c99 0 204 -71 204 -228c0 -185 -192 -401 -396 -570h-6c-203 169 -396 385 -396 570c0 157 105 228 204 228c89 0 161 -53 193 -145z" />
    <glyph glyph-name="uni2302" unicode="&#x2302;" horiz-adv-x="1050" 
d="M884 -29h-718v489l359 293l359 -293v-489z" />
    <glyph glyph-name="uni1F4D5" unicode="&#x1f4d5;" horiz-adv-x="1019" 
d="M390 -29c-97 0 -151 48 -203 104c-33 36 -43 70 -43 120v357c0 59 14 111 46 143c25 25 64 35 106 35h472v-185h-9l-100 90h-333c-29 0 -43 -13 -41 -32c2 -15 11 -27 36 -49c37 -34 64 -45 108 -45h463v-538h-502z" />
    <glyph glyph-name="uni1F6D2" unicode="&#x1f6d2;" horiz-adv-x="1077" 
d="M80 591l5 138h244l30 -142h566l-57 -291l-596 -48l-70 343h-122zM338 -11c-72 0 -109 49 -109 102v2c0 53 37 101 109 101c70 0 108 -48 108 -101v-2c0 -53 -38 -102 -108 -102zM797 -11c-72 0 -109 49 -109 102v2c0 53 37 101 109 101c70 0 108 -48 108 -101v-2
c0 -53 -38 -102 -108 -102z" />
    <glyph glyph-name="uni2698" unicode="&#x2698;" horiz-adv-x="1060" 
d="M754 20c-44 0 -86 23 -108 69c-32 -25 -54 -60 -61 -129h-110c-7 69 -29 104 -61 129c-22 -46 -64 -69 -108 -69c-74 0 -158 54 -229 161v17c55 30 122 50 176 50c58 0 153 -21 219 -118l-12 142c-183 56 -250 127 -260 302l-7 124l18 9c58 -29 140 -84 194 -152
c28 86 71 166 119 208h12c48 -42 91 -122 119 -208c54 68 136 123 194 152l18 -9l-7 -124c-10 -175 -77 -246 -260 -302l-12 -142c66 97 161 118 219 118c54 0 121 -20 176 -50v-17c-71 -107 -155 -161 -229 -161z" />
    <glyph glyph-name="uniE01D" unicode="&#xe01d;" horiz-adv-x="1020" 
d="M427 -40l2 206l-178 -97l-19 124l-131 80v25l135 72l-82 181l17 28l212 -58l112 242h30l112 -242l212 58l17 -28l-82 -181l135 -72v-25l-131 -80l-19 -124l-178 97l2 -206h-166z" />
    <glyph glyph-name="uniE01E" unicode="&#xe01e;" horiz-adv-x="1020" 
d="M427 -40l1 117l-344 51l-5 23l187 146l-97 37l-5 20l174 135l-70 29l-5 19l236 226h22l236 -226l-5 -19l-70 -28l174 -136l-5 -20l-97 -37l187 -146l-5 -23l-344 -51l1 -117h-166z" />
    <glyph glyph-name="uniE01A" unicode="&#xe01a;" horiz-adv-x="1116" 
d="M309 7l-7 28l46 70l-208 168l-22 52l4 48l40 45l-4 63l19 40l52 28l17 64l32 31l61 9l38 53l38 17l62 -16l56 39h50l56 -39l62 16l38 -17l38 -53l61 -9l32 -31l17 -64l52 -28l19 -40l-4 -63l40 -45l4 -48l-22 -52l-208 -168l46 -70l-7 -28h-161l-74 -60h-28l-74 60h-161z
" />
    <glyph glyph-name="uni1F514" unicode="&#x1f514;" horiz-adv-x="1034" 
d="M118 91l10 124c3 31 17 41 44 68l49 48l18 107c16 132 91 201 179 228l13 88h172l13 -88c88 -27 163 -96 179 -228l18 -107l49 -48c27 -27 41 -37 44 -68l10 -124h-316c21 -19 31 -44 31 -72v-2c0 -55 -42 -103 -114 -103c-74 0 -114 48 -114 103v2c0 28 11 53 31 72
h-316z" />
    <glyph glyph-name="uni1F451" unicode="&#x1f451;" horiz-adv-x="1180" 
d="M228 112l-128 439l36 21l140 -120l20 3l28 179l37 7l113 -155h20l77 228h38l77 -228h20l113 156l37 -8l28 -179l20 -3l140 120l36 -21l-128 -439h-724z" />
    <glyph glyph-name="uniE01F" unicode="&#xe01f;" horiz-adv-x="1000" 
d="M176 -29l67 439l-104 121l13 198h150l8 -116h105l9 116h152l9 -116h105l8 116h150l13 -198l-104 -121l67 -439h-648z" />
    <glyph glyph-name="uni1F6E1" unicode="&#x1f6e1;" horiz-adv-x="1020" 
d="M505 -53c-223 123 -370 261 -370 516c0 69 10 139 33 221c99 37 215 65 342 65s243 -28 342 -65c23 -82 33 -152 33 -221c0 -255 -147 -393 -370 -516h-10z" />
    <glyph glyph-name="uniE01B" unicode="&#xe01b;" horiz-adv-x="1020" 
d="M510 -68c-201 54 -380 177 -377 329c0 99 39 154 39 234c0 42 -16 78 -44 121l120 108c43 -24 77 -38 120 -38c51 0 90 25 133 76h18c43 -51 82 -76 133 -76c43 0 77 14 120 38l120 -108c-28 -43 -44 -79 -44 -121c0 -80 39 -135 39 -234c3 -152 -176 -275 -377 -329z
" />
    <glyph glyph-name="uniE01C" unicode="&#xe01c;" horiz-adv-x="870" 
d="M524 -40v304h-424v17l179 215l-179 216v17h587v-769h-163z" />
    <glyph glyph-name="uniE020" unicode="&#xe020;" horiz-adv-x="820" 
d="M637 -40h-163v291l-443 227v17l580 259h26v-794z" />
    <glyph glyph-name="uni2691" unicode="&#x2691;" horiz-adv-x="890" 
d="M707 -40h-163v349h-424v420h587v-769z" />
    <glyph glyph-name="hcoslug" unicode="&#xe10b;" horiz-adv-x="703" 
d="M54 -100v800h594v-800h-594zM229 156c42 0 76 14 104 45c33 -34 55 -45 85 -45c43 0 78 36 80 94l-7 2c-10 -17 -22 -29 -43 -29c-20 0 -37 12 -62 41c15 20 31 33 46 42c9 -15 25 -25 43 -25c28 0 50 23 50 54s-22 52 -50 52c-25 0 -44 -14 -60 -38c-2 27 -22 38 -49 37
c6 10 9 21 9 34c0 35 -33 74 -95 74c-67 0 -109 -42 -109 -85c0 -29 10 -47 31 -69c-53 -18 -82 -49 -82 -91c0 -53 49 -93 109 -93zM289 369c-23 22 -38 36 -38 59c0 17 11 29 27 29c17 0 29 -15 29 -38c0 -17 -7 -33 -18 -50zM357 296c-13 15 -25 30 -41 46
c19 13 33 24 42 34c23 -23 18 -47 -1 -80zM265 219c-30 0 -52 23 -52 54c0 15 5 29 16 40c18 -17 46 -47 74 -82c-11 -9 -23 -12 -38 -12zM356 73h6l4 8c3 -5 7 -8 14 -8c12 0 16 12 16 21c0 12 -6 20 -15 20c-6 0 -11 -3 -13 -9v27h-18v-7h6v-52zM129 74h30v7h-10v16h4
c5 0 5 -1 6 -8h7v23h-7c-1 -7 -1 -8 -6 -8h-4v18h12c7 0 9 -2 11 -13h8v20h-51v-7h7v-41h-7v-7zM290 73c8 0 12 4 14 13l-5 2c-1 -5 -3 -7 -5 -7c-3 0 -4 2 -4 5v20h13v7h-13v11l-12 -2v-9h-7v-7h7v-20c0 -8 4 -13 12 -13zM223 74h22v7h-4v15c0 6 3 10 7 10s6 -3 6 -7v-18
h-4v-7h22v7h-6v19c0 8 -3 14 -12 14c-7 0 -11 -4 -14 -11v10h-17v-7h6v-25h-6v-7zM199 73c12 0 21 9 21 21s-9 20 -21 20s-21 -8 -21 -20c0 -13 9 -21 21 -21zM327 73c9 0 14 6 14 13c0 16 -24 10 -24 18c0 2 2 4 5 4c4 0 7 -3 10 -7h7v13h-6l-2 -5c-2 3 -6 5 -11 5
c-9 0 -14 -6 -14 -12c0 -16 24 -11 24 -19c0 -2 -2 -4 -5 -4c-5 0 -8 3 -12 9h-7v-14h7l1 4c3 -2 6 -5 13 -5zM408 59c9 0 14 6 18 16l13 31h5v7h-17v-7h5l-8 -20l-9 20h6v7h-25v-7h5s12 -23 16 -33c-1 -5 -4 -8 -8 -8c3 3 2 10 -5 10c-4 0 -7 -3 -7 -7c0 -5 4 -9 11 -9z
M199 78c-5 0 -8 4 -8 16c0 11 3 15 8 15s8 -4 8 -15c0 -12 -3 -16 -8 -16zM376 80c-6 0 -8 5 -8 13c0 7 2 13 8 13c5 0 7 -5 7 -13s-2 -13 -7 -13zM280 0h23v7h-5v25h14v-25h-5v-7h23v7h-6v52l-10 -2c-2 1 -6 2 -9 2c-10 0 -19 -6 -19 -19v-1h-7v-7h7v-25h-6v-7zM502 -1
c15 0 23 9 24 23h-8c-1 -9 -6 -16 -14 -16c-10 0 -16 7 -16 22c0 16 6 22 14 22s11 -4 15 -16h8v22h-8l-1 -6c-4 4 -9 7 -16 7c-14 0 -27 -12 -27 -30c0 -17 11 -28 29 -28zM128 0h29v7h-8v18h22v-18h-8v-7h29v7h-8v41h8v7h-29v-7h8v-16h-22v16h8v7h-29v-7h8v-41h-8v-7z
M298 39v3c0 10 3 12 6 12c2 0 3 -1 3 -1s-1 -1 -1 -3c0 -4 3 -6 6 -6v-5h-14zM429 -1c6 0 11 2 15 6c4 -5 7 -6 12 -6c8 0 11 5 13 12l-5 1c-1 -4 -2 -5 -4 -5s-4 2 -6 5c3 4 6 8 9 14h5v7h-18v-7h6c-1 -3 -4 -7 -6 -9c-4 4 -7 8 -12 13c7 3 11 6 11 12s-5 12 -14 12
c-10 0 -17 -7 -17 -14c0 -5 2 -8 6 -12c-7 -2 -13 -7 -13 -15s6 -14 18 -14zM435 33c-4 4 -6 7 -6 10s2 5 5 5c4 0 6 -3 6 -6c0 -4 -2 -7 -5 -9zM372 0h26v7h-8v16c2 5 5 9 7 9v-1c0 -4 3 -6 6 -6c4 0 7 3 7 7c0 5 -3 8 -8 8s-9 -3 -12 -11v10h-18v-7h6v-25h-6v-7zM259 -1
c11 0 16 6 18 14h-7c-1 -5 -4 -7 -9 -7c-7 0 -10 3 -10 12h26c1 13 -5 22 -19 22c-11 0 -20 -9 -20 -21s8 -20 21 -20zM352 -1c11 0 16 6 18 14h-7c-1 -5 -4 -7 -9 -7c-7 0 -10 3 -10 12h26c1 13 -5 22 -19 22c-11 0 -20 -9 -20 -21s8 -20 21 -20zM550 -1c12 0 21 9 21 21
s-9 20 -21 20s-21 -8 -21 -20c0 -13 9 -21 21 -21zM214 -1c12 0 21 9 21 21s-9 20 -21 20s-21 -8 -21 -20c0 -13 9 -21 21 -21zM344 23c0 9 3 12 7 12c5 0 7 -4 7 -12h-14zM251 23c0 9 3 12 7 12c5 0 7 -4 7 -12h-14zM550 4c-5 0 -8 4 -8 16c0 11 3 15 8 15s8 -4 8 -15
c0 -12 -3 -16 -8 -16zM214 4c-5 0 -8 4 -8 16c0 11 3 15 8 15s8 -4 8 -15c0 -12 -3 -16 -8 -16zM433 6c-6 0 -10 4 -10 10c0 4 2 7 4 9c5 -5 9 -10 14 -16c-3 -2 -6 -3 -8 -3zM580 -1c4 0 7 3 7 7s-3 7 -7 7s-7 -3 -7 -7s3 -7 7 -7z" />
    <glyph glyph-name="space.tab" horiz-adv-x="362" 
 />
    <glyph glyph-name="uni00A0" unicode="&#xa0;" horiz-adv-x="249" 
 />
    <glyph glyph-name="uni00AD" unicode="&#xad;" horiz-adv-x="0" 
 />
    <glyph glyph-name="uni2002" unicode="&#x2002;" horiz-adv-x="500" 
 />
    <glyph glyph-name="uni2003" unicode="&#x2003;" horiz-adv-x="1000" 
 />
    <glyph glyph-name="uni2004" unicode="&#x2004;" horiz-adv-x="333" 
 />
    <glyph glyph-name="uni2005" unicode="&#x2005;" horiz-adv-x="250" 
 />
    <glyph glyph-name="uni2007" unicode="&#x2007;" horiz-adv-x="724" 
 />
    <glyph glyph-name="uni2008" unicode="&#x2008;" horiz-adv-x="415" 
 />
    <glyph glyph-name="uni2009" unicode="&#x2009;" horiz-adv-x="133" 
 />
    <glyph glyph-name="uni200A" unicode="&#x200a;" horiz-adv-x="75" 
 />
    <glyph glyph-name="uni200B" unicode="&#x200b;" horiz-adv-x="0" 
 />
    <glyph glyph-name="uniFEFF" unicode="&#xfeff;" horiz-adv-x="0" 
 />
    <glyph glyph-name="uni202F" unicode="&#x202f;" horiz-adv-x="133" 
 />
    <glyph glyph-name="uni200D" unicode="&#x200d;" horiz-adv-x="0" 
 />
    <glyph glyph-name="uni200C" unicode="&#x200c;" horiz-adv-x="0" 
 />
    <glyph glyph-name="zero.small" 
d="M216 -13c-136 0 -199 82 -199 219s67 221 201 221c136 0 199 -83 199 -220c0 -136 -67 -220 -201 -220zM216 96c52 0 74 37 74 111s-21 111 -72 111c-52 0 -74 -37 -74 -111s21 -111 72 -111z" />
    <glyph glyph-name="one.small" horiz-adv-x="326" 
d="M113 0v308h-88l18 106h204v-414h-134z" />
    <glyph glyph-name="one.small_alt" 
d="M400 105v-105h-333v105h108v203h-110l16 106h226v-309h93z" />
    <glyph glyph-name="two.small" 
d="M46 0v104l114 86c98 70 104 81 104 97c0 20 -17 28 -46 28c-41 0 -95 -19 -154 -58h-1v121c59 34 113 49 172 49c106 0 163 -46 163 -123c0 -68 -44 -101 -150 -175l-28 -21h175v-108h-349z" />
    <glyph glyph-name="three.small" 
d="M207 -13c-59 0 -109 10 -157 25v112h1c53 -18 102 -30 144 -30c50 0 79 10 79 36c0 27 -22 37 -130 37h-15v58l115 83h-192l3 106h329v-100l-105 -75c78 -12 124 -48 124 -114c0 -89 -81 -138 -196 -138z" />
    <glyph glyph-name="four.small" 
d="M247 0v77h-232v96l104 241h249v-235h58l-6 -102h-52v-77h-121zM141 176h110v137h-54z" />
    <glyph glyph-name="five.small" 
d="M216 -13c-69 0 -118 9 -163 24v111h1c45 -16 98 -27 155 -27s66 20 66 36c0 8 -2 13 -9 19c-13 11 -45 15 -129 15h-77l6 249h311l4 -107h-202l-1 -51h7c102 0 154 -11 187 -44c20 -20 32 -46 32 -84c0 -87 -73 -141 -188 -141z" />
    <glyph glyph-name="six.small" 
d="M225 -13c-126 0 -196 69 -196 210c0 146 86 230 222 230c50 0 88 -8 131 -23v-109h-1c-43 19 -77 27 -123 27c-57 0 -102 -25 -105 -85c30 17 71 28 109 28c87 0 147 -38 147 -125c0 -98 -78 -153 -184 -153zM234 176c-30 0 -59 -8 -81 -20c3 -52 32 -68 71 -68
s63 17 63 48s-23 40 -53 40z" />
    <glyph glyph-name="seven.small" 
d="M41 241v173h363v-134l-165 -280h-142l168 285v26h-106v-70h-118z" />
    <glyph glyph-name="eight.small" 
d="M217 -13c-132 0 -193 45 -193 123c0 47 24 80 82 100c-49 17 -72 45 -72 91c0 76 62 125 183 125s183 -49 183 -125c0 -46 -23 -74 -72 -91c58 -20 82 -53 82 -100c0 -78 -61 -123 -193 -123zM217 248c42 0 63 14 63 39c0 28 -19 43 -63 43s-63 -15 -63 -43
c0 -25 21 -39 63 -39zM217 83c48 0 69 17 69 43c0 27 -22 44 -69 44s-69 -16 -69 -44c0 -26 21 -43 69 -43z" />
    <glyph glyph-name="nine.small" 
d="M210 426c126 0 196 -69 196 -210c0 -146 -86 -230 -222 -230c-50 0 -88 8 -131 23v109h1c43 -19 77 -27 123 -27c57 0 102 25 105 85c-30 -17 -71 -28 -109 -28c-87 0 -147 38 -147 125c0 98 78 153 184 153zM148 277c0 -31 23 -40 53 -40s59 8 81 20
c-3 52 -32 68 -71 68s-63 -17 -63 -48z" />
    <glyph glyph-name="zero.num" 
d="M236 273c-136 0 -199 82 -199 219s67 221 201 221c136 0 199 -83 199 -220c0 -136 -67 -220 -201 -220zM236 382c52 0 74 37 74 111s-21 111 -72 111c-52 0 -74 -37 -74 -111s21 -111 72 -111z" />
    <glyph glyph-name="one.num" horiz-adv-x="326" 
d="M133 286v308h-88l18 106h204v-414h-134z" />
    <glyph glyph-name="one.num_alt" 
d="M420 391v-105h-333v105h108v203h-110l16 106h226v-309h93z" />
    <glyph glyph-name="two.num" 
d="M66 286v104l114 86c98 70 104 81 104 97c0 20 -17 28 -46 28c-41 0 -95 -19 -154 -58h-1v121c59 34 113 49 172 49c106 0 163 -46 163 -123c0 -68 -44 -101 -150 -175l-28 -21h175v-108h-349z" />
    <glyph glyph-name="three.num" 
d="M227 273c-59 0 -109 10 -157 25v112h1c53 -18 102 -30 144 -30c50 0 79 10 79 36c0 27 -22 37 -130 37h-15v58l115 83h-192l3 106h329v-100l-105 -75c78 -12 124 -48 124 -114c0 -89 -81 -138 -196 -138z" />
    <glyph glyph-name="four.num" 
d="M267 286v77h-232v96l104 241h249v-235h58l-6 -102h-52v-77h-121zM161 462h110v137h-54z" />
    <glyph glyph-name="five.num" 
d="M236 273c-69 0 -118 9 -163 24v111h1c45 -16 98 -27 155 -27s66 20 66 36c0 8 -2 13 -9 19c-13 11 -45 15 -129 15h-77l6 249h311l4 -107h-202l-1 -51h7c102 0 154 -11 187 -44c20 -20 32 -46 32 -84c0 -87 -73 -141 -188 -141z" />
    <glyph glyph-name="six.num" 
d="M245 273c-126 0 -196 69 -196 210c0 146 86 230 222 230c50 0 88 -8 131 -23v-109h-1c-43 19 -77 27 -123 27c-57 0 -102 -25 -105 -85c30 17 71 28 109 28c87 0 147 -38 147 -125c0 -98 -78 -153 -184 -153zM254 462c-30 0 -59 -8 -81 -20c3 -52 32 -68 71 -68
s63 17 63 48s-23 40 -53 40z" />
    <glyph glyph-name="seven.num" 
d="M61 527v173h363v-134l-165 -280h-142l168 285v26h-106v-70h-118z" />
    <glyph glyph-name="eight.num" 
d="M237 273c-132 0 -193 45 -193 123c0 47 24 80 82 100c-49 17 -72 45 -72 91c0 76 62 125 183 125s183 -49 183 -125c0 -46 -23 -74 -72 -91c58 -20 82 -53 82 -100c0 -78 -61 -123 -193 -123zM237 534c42 0 63 14 63 39c0 28 -19 43 -63 43s-63 -15 -63 -43
c0 -25 21 -39 63 -39zM237 369c48 0 69 17 69 43c0 27 -22 44 -69 44s-69 -16 -69 -44c0 -26 21 -43 69 -43z" />
    <glyph glyph-name="nine.num" 
d="M230 712c126 0 196 -69 196 -210c0 -146 -86 -230 -222 -230c-50 0 -88 8 -131 23v109h1c43 -19 77 -27 123 -27c57 0 102 25 105 85c-30 -17 -71 -28 -109 -28c-87 0 -147 38 -147 125c0 98 78 153 184 153zM168 563c0 -31 23 -40 53 -40s59 8 81 20
c-3 52 -32 68 -71 68s-63 -17 -63 -48z" />
    <glyph glyph-name="fraction" unicode="&#x2044;" horiz-adv-x="266" 
d="M-189 1l511 699h132v-1l-510 -699h-133v1z" />
    <glyph glyph-name="zero.den" 
d="M196 -13c-136 0 -199 82 -199 219s67 221 201 221c136 0 199 -83 199 -220c0 -136 -67 -220 -201 -220zM196 96c52 0 74 37 74 111s-21 111 -72 111c-52 0 -74 -37 -74 -111s21 -111 72 -111z" />
    <glyph glyph-name="one.den" horiz-adv-x="326" 
d="M93 0v308h-88l18 106h204v-414h-134z" />
    <glyph glyph-name="one.den_alt" 
d="M380 105v-105h-333v105h108v203h-110l16 106h226v-309h93z" />
    <glyph glyph-name="two.den" 
d="M26 0v104l114 86c98 70 104 81 104 97c0 20 -17 28 -46 28c-41 0 -95 -19 -154 -58h-1v121c59 34 113 49 172 49c106 0 163 -46 163 -123c0 -68 -44 -101 -150 -175l-28 -21h175v-108h-349z" />
    <glyph glyph-name="three.den" 
d="M187 -13c-59 0 -109 10 -157 25v112h1c53 -18 102 -30 144 -30c50 0 79 10 79 36c0 27 -22 37 -130 37h-15v58l115 83h-192l3 106h329v-100l-105 -75c78 -12 124 -48 124 -114c0 -89 -81 -138 -196 -138z" />
    <glyph glyph-name="four.den" 
d="M227 0v77h-232v96l104 241h249v-235h58l-6 -102h-52v-77h-121zM121 176h110v137h-54z" />
    <glyph glyph-name="five.den" 
d="M196 -13c-69 0 -118 9 -163 24v111h1c45 -16 98 -27 155 -27s66 20 66 36c0 8 -2 13 -9 19c-13 11 -45 15 -129 15h-77l6 249h311l4 -107h-202l-1 -51h7c102 0 154 -11 187 -44c20 -20 32 -46 32 -84c0 -87 -73 -141 -188 -141z" />
    <glyph glyph-name="six.den" 
d="M205 -13c-126 0 -196 69 -196 210c0 146 86 230 222 230c50 0 88 -8 131 -23v-109h-1c-43 19 -77 27 -123 27c-57 0 -102 -25 -105 -85c30 17 71 28 109 28c87 0 147 -38 147 -125c0 -98 -78 -153 -184 -153zM214 176c-30 0 -59 -8 -81 -20c3 -52 32 -68 71 -68
s63 17 63 48s-23 40 -53 40z" />
    <glyph glyph-name="seven.den" 
d="M21 241v173h363v-134l-165 -280h-142l168 285v26h-106v-70h-118z" />
    <glyph glyph-name="eight.den" 
d="M197 -13c-132 0 -193 45 -193 123c0 47 24 80 82 100c-49 17 -72 45 -72 91c0 76 62 125 183 125s183 -49 183 -125c0 -46 -23 -74 -72 -91c58 -20 82 -53 82 -100c0 -78 -61 -123 -193 -123zM197 248c42 0 63 14 63 39c0 28 -19 43 -63 43s-63 -15 -63 -43
c0 -25 21 -39 63 -39zM197 83c48 0 69 17 69 43c0 27 -22 44 -69 44s-69 -16 -69 -44c0 -26 21 -43 69 -43z" />
    <glyph glyph-name="nine.den" 
d="M190 426c126 0 196 -69 196 -210c0 -146 -86 -230 -222 -230c-50 0 -88 8 -131 23v109h1c43 -19 77 -27 123 -27c57 0 102 25 105 85c-30 -17 -71 -28 -109 -28c-87 0 -147 38 -147 125c0 98 78 153 184 153zM128 277c0 -31 23 -40 53 -40s59 8 81 20
c-3 52 -32 68 -71 68s-63 -17 -63 -48z" />
    <glyph glyph-name="zero.num_tab" 
d="M223 273c-136 0 -199 82 -199 219s67 221 201 221c136 0 199 -83 199 -220c0 -136 -67 -220 -201 -220zM223 382c52 0 74 37 74 111s-21 111 -72 111c-52 0 -74 -37 -74 -111s21 -111 72 -111z" />
    <glyph glyph-name="one.num_tab_alt" 
d="M407 391v-105h-333v105h108v203h-110l16 106h226v-309h93z" />
    <glyph glyph-name="two.num_tab" 
d="M53 286v104l114 86c98 70 104 81 104 97c0 20 -17 28 -46 28c-41 0 -95 -19 -154 -58h-1v121c59 34 113 49 172 49c106 0 163 -46 163 -123c0 -68 -44 -101 -150 -175l-28 -21h175v-108h-349z" />
    <glyph glyph-name="three.num_tab" 
d="M214 273c-59 0 -109 10 -157 25v112h1c53 -18 102 -30 144 -30c50 0 79 10 79 36c0 27 -22 37 -130 37h-15v58l115 83h-192l3 106h329v-100l-105 -75c78 -12 124 -48 124 -114c0 -89 -81 -138 -196 -138z" />
    <glyph glyph-name="four.num_tab" 
d="M254 286v77h-232v96l104 241h249v-235h58l-6 -102h-52v-77h-121zM148 462h110v137h-54z" />
    <glyph glyph-name="five.num_tab" 
d="M223 273c-69 0 -118 9 -163 24v111h1c45 -16 98 -27 155 -27s66 20 66 36c0 8 -2 13 -9 19c-13 11 -45 15 -129 15h-77l6 249h311l4 -107h-202l-1 -51h7c102 0 154 -11 187 -44c20 -20 32 -46 32 -84c0 -87 -73 -141 -188 -141z" />
    <glyph glyph-name="six.num_tab" 
d="M232 273c-126 0 -196 69 -196 210c0 146 86 230 222 230c50 0 88 -8 131 -23v-109h-1c-43 19 -77 27 -123 27c-57 0 -102 -25 -105 -85c30 17 71 28 109 28c87 0 147 -38 147 -125c0 -98 -78 -153 -184 -153zM241 462c-30 0 -59 -8 -81 -20c3 -52 32 -68 71 -68
s63 17 63 48s-23 40 -53 40z" />
    <glyph glyph-name="seven.num_tab" 
d="M48 527v173h363v-134l-165 -280h-142l168 285v26h-106v-70h-118z" />
    <glyph glyph-name="eight.num_tab" 
d="M224 273c-132 0 -193 45 -193 123c0 47 24 80 82 100c-49 17 -72 45 -72 91c0 76 62 125 183 125s183 -49 183 -125c0 -46 -23 -74 -72 -91c58 -20 82 -53 82 -100c0 -78 -61 -123 -193 -123zM224 534c42 0 63 14 63 39c0 28 -19 43 -63 43s-63 -15 -63 -43
c0 -25 21 -39 63 -39zM224 369c48 0 69 17 69 43c0 27 -22 44 -69 44s-69 -16 -69 -44c0 -26 21 -43 69 -43z" />
    <glyph glyph-name="nine.num_tab" 
d="M217 712c126 0 196 -69 196 -210c0 -146 -86 -230 -222 -230c-50 0 -88 8 -131 23v109h1c43 -19 77 -27 123 -27c57 0 102 25 105 85c-30 -17 -71 -28 -109 -28c-87 0 -147 38 -147 125c0 98 78 153 184 153zM155 563c0 -31 23 -40 53 -40s59 8 81 20
c-3 52 -32 68 -71 68s-63 -17 -63 -48z" />
    <glyph glyph-name="fraction.tab" horiz-adv-x="218" 
d="M-212 1l510 699h132v-1l-510 -699h-132v1z" />
    <glyph glyph-name="zero.den_tab" 
d="M209 -13c-136 0 -199 82 -199 219s67 221 201 221c136 0 199 -83 199 -220c0 -136 -67 -220 -201 -220zM209 96c52 0 74 37 74 111s-21 111 -72 111c-52 0 -74 -37 -74 -111s21 -111 72 -111z" />
    <glyph glyph-name="one.den_tab_alt" 
d="M393 105v-105h-333v105h108v203h-110l16 106h226v-309h93z" />
    <glyph glyph-name="two.den_tab" 
d="M39 0v104l114 86c98 70 104 81 104 97c0 20 -17 28 -46 28c-41 0 -95 -19 -154 -58h-1v121c59 34 113 49 172 49c106 0 163 -46 163 -123c0 -68 -44 -101 -150 -175l-28 -21h175v-108h-349z" />
    <glyph glyph-name="three.den_tab" 
d="M200 -13c-59 0 -109 10 -157 25v112h1c53 -18 102 -30 144 -30c50 0 79 10 79 36c0 27 -22 37 -130 37h-15v58l115 83h-192l3 106h329v-100l-105 -75c78 -12 124 -48 124 -114c0 -89 -81 -138 -196 -138z" />
    <glyph glyph-name="four.den_tab" 
d="M240 0v77h-232v96l104 241h249v-235h58l-6 -102h-52v-77h-121zM134 176h110v137h-54z" />
    <glyph glyph-name="five.den_tab" 
d="M209 -13c-69 0 -118 9 -163 24v111h1c45 -16 98 -27 155 -27s66 20 66 36c0 8 -2 13 -9 19c-13 11 -45 15 -129 15h-77l6 249h311l4 -107h-202l-1 -51h7c102 0 154 -11 187 -44c20 -20 32 -46 32 -84c0 -87 -73 -141 -188 -141z" />
    <glyph glyph-name="six.den_tab" 
d="M218 -13c-126 0 -196 69 -196 210c0 146 86 230 222 230c50 0 88 -8 131 -23v-109h-1c-43 19 -77 27 -123 27c-57 0 -102 -25 -105 -85c30 17 71 28 109 28c87 0 147 -38 147 -125c0 -98 -78 -153 -184 -153zM227 176c-30 0 -59 -8 -81 -20c3 -52 32 -68 71 -68
s63 17 63 48s-23 40 -53 40z" />
    <glyph glyph-name="seven.den_tab" 
d="M34 241v173h363v-134l-165 -280h-142l168 285v26h-106v-70h-118z" />
    <glyph glyph-name="eight.den_tab" 
d="M210 -13c-132 0 -193 45 -193 123c0 47 24 80 82 100c-49 17 -72 45 -72 91c0 76 62 125 183 125s183 -49 183 -125c0 -46 -23 -74 -72 -91c58 -20 82 -53 82 -100c0 -78 -61 -123 -193 -123zM210 248c42 0 63 14 63 39c0 28 -19 43 -63 43s-63 -15 -63 -43
c0 -25 21 -39 63 -39zM210 83c48 0 69 17 69 43c0 27 -22 44 -69 44s-69 -16 -69 -44c0 -26 21 -43 69 -43z" />
    <glyph glyph-name="nine.den_tab" 
d="M203 426c126 0 196 -69 196 -210c0 -146 -86 -230 -222 -230c-50 0 -88 8 -131 23v109h1c43 -19 77 -27 123 -27c57 0 102 25 105 85c-30 -17 -71 -28 -109 -28c-87 0 -147 38 -147 125c0 98 78 153 184 153zM141 277c0 -31 23 -40 53 -40s59 8 81 20
c-3 52 -32 68 -71 68s-63 -17 -63 -48z" />
    <glyph glyph-name="A.sc" horiz-adv-x="773" 
d="M33 0l205 599h297l205 -599h-184l-38 117h-267l-36 -117h-182zM361 452l-68 -203h184l-67 203h-49z" />
    <glyph glyph-name="B.sc" horiz-adv-x="750" 
d="M94 0v599h384c127 0 205 -50 205 -151c0 -65 -27 -113 -103 -137c78 -31 115 -71 115 -141c0 -126 -98 -170 -232 -170h-369zM267 361h166c49 0 74 15 74 54c0 36 -26 52 -73 52h-167v-106zM267 133l177 1c51 1 75 17 75 57c0 38 -22 56 -78 56h-174v-114z" />
    <glyph glyph-name="C.sc" horiz-adv-x="700" 
d="M401 -17c-228 0 -344 133 -344 316c0 180 130 316 351 316c99 0 173 -28 227 -63v-165h-2c-68 47 -139 77 -216 77c-107 0 -180 -69 -180 -164c0 -99 64 -166 180 -166c83 0 152 33 216 77h2v-167c-45 -26 -128 -61 -234 -61z" />
    <glyph glyph-name="D.sc" horiz-adv-x="779" 
d="M94 0v599h321c190 0 307 -109 307 -299c0 -189 -117 -300 -307 -300h-321zM270 144h122c98 0 151 45 151 155c0 108 -53 156 -151 156h-122v-311z" />
    <glyph glyph-name="E.sc" horiz-adv-x="699" 
d="M94 0v599h527l7 -139h-358v-97h282v-126h-282v-98h371l-7 -139h-540z" />
    <glyph glyph-name="F.sc" horiz-adv-x="676" 
d="M94 0v599h521l7 -144h-351v-114h295v-134h-295v-207h-177z" />
    <glyph glyph-name="G.sc" horiz-adv-x="773" 
d="M401 -18c-228 0 -344 134 -344 312s126 321 360 321c97 0 180 -25 236 -61v-159h-1c-72 41 -143 70 -232 70c-119 0 -184 -71 -184 -173c0 -97 56 -167 179 -167c86 0 146 39 147 102h-190v126h352c1 -18 2 -48 2 -66c0 -226 -151 -305 -325 -305z" />
    <glyph glyph-name="H.sc" horiz-adv-x="811" 
d="M94 0v599h177v-224h270v224h176v-599h-176v227h-270v-227h-177z" />
    <glyph glyph-name="I.sc" horiz-adv-x="368" 
d="M95 0v599h177v-599h-177z" />
    <glyph glyph-name="J.sc" horiz-adv-x="612" 
d="M259 -16c-85 0 -161 19 -223 59v163h1c72 -49 137 -71 200 -71c69 0 113 23 113 118v346h177v-376c0 -168 -105 -239 -268 -239z" />
    <glyph glyph-name="J.sc_alt" horiz-adv-x="646" 
d="M291 -16c-86 0 -160 20 -227 60v163h1c70 -48 143 -72 208 -72c67 0 111 26 111 94v228h-220l7 142h390v-399c0 -150 -102 -216 -270 -216z" />
    <glyph glyph-name="K.sc" horiz-adv-x="766" 
d="M94 0v599h177v-221h79l181 221h201v-1l-237 -286l248 -311v-1h-209l-187 231h-76v-231h-177z" />
    <glyph glyph-name="L.sc" horiz-adv-x="635" 
d="M94 0v599h177v-448h328l-7 -151h-498z" />
    </font>
</defs>
</svg>
