<?xml version="1.0" standalone="no"?>
<!DOCTYPE svg PUBLIC "-//W3C//DTD SVG 1.1//EN" "http://www.w3.org/Graphics/SVG/1.1/DTD/svg11.dtd" >
<svg xmlns="http://www.w3.org/2000/svg" xmlns:xlink="http://www.w3.org/1999/xlink" version="1.1">
<metadata>
Created by FontForge 20190801 at Wed Jun 24 23:11:54 2020
 By Jimmy Wärting
Copyright C 2019, 2020 Hoefler &#38; Co. http:www.typography.com
</metadata>
<defs>
<font id="Decimal-BoldItalic" horiz-adv-x="434" >
  <font-face 
    font-family="Decimal"
    font-weight="400"
    font-style="italic"
    font-stretch="normal"
    units-per-em="1000"
    panose-1="2 0 8 0 0 0 0 0 0 0"
    ascent="800"
    descent="-200"
    x-height="547"
    cap-height="700"
    bbox="-236 -306 1971 1302"
    underline-thickness="0"
    underline-position="0"
    unicode-range="U+000D-1F6E1"
  />
<missing-glyph horiz-adv-x="450" 
d="M0 -180v900h450v-900h-450zM225 324l161 351h-322zM45 -68l155 338l-155 338v-676zM405 -68v676l-155 -338zM64 -135h322l-161 351z" />
    <glyph glyph-name=".notdef" horiz-adv-x="450" 
d="M0 -180v900h450v-900h-450zM225 324l161 351h-322zM45 -68l155 338l-155 338v-676zM405 -68v676l-155 -338zM64 -135h322l-161 351z" />
    <glyph glyph-name="NUL" horiz-adv-x="0" 
 />
    <glyph glyph-name="uni000D" unicode="&#xd;" horiz-adv-x="238" 
 />
    <glyph glyph-name="space" unicode=" " horiz-adv-x="238" 
 />
    <glyph glyph-name="A" unicode="A" horiz-adv-x="801" 
d="M-31 0l387 700h288l87 -700h-181l-19 155h-283l-84 -155h-195zM454 541l-129 -241h192l-25 241h-38z" />
    <glyph glyph-name="B" unicode="B" horiz-adv-x="773" 
d="M32 0l149 700h336c168 0 238 -68 238 -166c0 -81 -48 -143 -143 -174c65 -24 103 -73 103 -143c0 -129 -114 -217 -304 -217h-379zM300 418h177c69 0 103 37 103 81c0 37 -25 58 -79 58h-172zM273 294l-32 -150h186c77 0 111 41 111 88c0 38 -22 62 -87 62h-178z" />
    <glyph glyph-name="C" unicode="C" horiz-adv-x="728" 
d="M480 716c112 0 206 -37 261 -82l-34 -161h-2c-54 46 -133 86 -222 86c-160 0 -238 -117 -238 -243c0 -114 75 -176 195 -176c82 0 162 28 218 56h1l-36 -165c-45 -28 -131 -47 -213 -47c-212 0 -345 119 -345 320c0 223 159 412 415 412z" />
    <glyph glyph-name="D" unicode="D" horiz-adv-x="813" 
d="M32 0l149 700h258c250 0 347 -123 347 -290c0 -201 -118 -410 -452 -410h-302zM604 400c0 89 -47 146 -180 146h-96l-83 -392h108c182 0 251 115 251 246z" />
    <glyph glyph-name="E" unicode="E" horiz-adv-x="718" 
d="M328 549l-25 -118h302l-31 -142h-301l-29 -138h400l-44 -151h-568l149 700h547l-16 -151h-384z" />
    <glyph glyph-name="F" unicode="F" horiz-adv-x="680" 
d="M328 548l-32 -149h306l-32 -145h-304l-54 -254h-180l149 700h534l-17 -152h-370z" />
    <glyph glyph-name="G" unicode="G" horiz-adv-x="828" 
d="M492 561c-163 0 -248 -116 -248 -250c0 -113 69 -179 183 -179c104 0 169 54 186 141h-211l30 137h371c-10 -150 -49 -257 -120 -329c-65 -65 -156 -99 -271 -99c-212 0 -347 119 -347 318c0 221 153 416 427 416c112 0 212 -40 270 -88l-33 -156h-1
c-56 45 -137 89 -236 89z" />
    <glyph glyph-name="H" unicode="H" horiz-adv-x="839" 
d="M514 0l60 282h-302l-60 -282h-180l149 700h180l-56 -262h302l56 262h180l-149 -700h-180z" />
    <glyph glyph-name="I" unicode="I" horiz-adv-x="357" 
d="M212 0h-180l149 700h180z" />
    <glyph glyph-name="J" unicode="J" horiz-adv-x="619" 
d="M240 -17c-87 0 -184 27 -249 80l34 163h1c64 -56 145 -84 205 -84c67 0 108 37 128 130l90 428h180l-96 -451c-38 -183 -134 -266 -293 -266z" />
    <glyph glyph-name="J.alt" horiz-adv-x="670" 
d="M282 -17c-98 0 -195 27 -261 80l35 163h1c64 -56 144 -84 214 -84c78 0 120 37 139 130l59 277h-245l43 151h413l-95 -451c-38 -183 -134 -266 -303 -266z" />
    <glyph glyph-name="K" unicode="K" horiz-adv-x="783" 
d="M32 0l149 700h180l-57 -266h74l250 266h220v-1l-336 -351l206 -347v-1h-199l-163 279h-85l-59 -279h-180z" />
    <glyph glyph-name="L" unicode="L" horiz-adv-x="660" 
d="M32 0l149 700h180l-116 -541h359l-45 -159h-527z" />
    <glyph glyph-name="M" unicode="M" horiz-adv-x="974" 
d="M32 0l149 700h198l120 -361l259 361h220l-149 -700h-174l95 450l-299 -406h-11l-139 401l-94 -445h-175z" />
    <glyph glyph-name="N" unicode="N" horiz-adv-x="843" 
d="M32 0l149 700h194l197 -444h7l95 444h173l-149 -700h-185l-203 456h-8l-97 -456h-173z" />
    <glyph glyph-name="O" unicode="O" horiz-adv-x="847" 
d="M402 -19c-201 0 -337 123 -337 321c0 213 145 416 416 416c202 0 338 -123 338 -321c0 -213 -146 -416 -417 -416zM417 137c141 0 223 116 223 249c0 107 -60 176 -174 176c-140 0 -223 -116 -223 -249c0 -106 61 -176 174 -176z" />
    <glyph glyph-name="P" unicode="P" horiz-adv-x="758" 
d="M454 181h-204l-38 -181h-180l149 700h309c189 0 265 -95 265 -228c0 -158 -101 -291 -301 -291zM442 332c95 0 133 64 133 129c0 51 -24 88 -95 88h-151l-46 -217h159z" />
    <glyph glyph-name="Q" unicode="Q" horiz-adv-x="864" 
d="M404 -19c-203 0 -339 124 -339 321c0 214 145 416 416 416c202 0 338 -124 338 -320c0 -83 -23 -165 -68 -235l54 -44l-36 -161l-120 98c-65 -47 -147 -75 -245 -75zM423 132c44 0 81 10 112 27l-142 116l84 107l147 -120c15 37 23 79 23 122c0 108 -62 178 -177 178
c-142 0 -226 -116 -226 -252c0 -108 62 -178 179 -178z" />
    <glyph glyph-name="R" unicode="R" horiz-adv-x="773" 
d="M687 0h-197l-104 201h-131l-43 -201h-180l149 700h318c186 0 257 -94 257 -220c0 -120 -64 -220 -193 -259zM452 348c86 0 123 60 123 120c0 47 -21 81 -94 81h-153l-42 -201h166z" />
    <glyph glyph-name="S" unicode="S" horiz-adv-x="721" 
d="M66 235c81 -55 198 -102 304 -102c84 0 119 29 119 69s-31 50 -149 85c-121 35 -224 73 -224 195c0 137 104 235 303 235c120 0 223 -36 295 -78l-34 -159h-1c-70 48 -171 87 -268 87c-84 0 -118 -29 -118 -66c0 -38 33 -46 138 -77c134 -39 234 -79 234 -208
c0 -132 -98 -233 -297 -233c-143 0 -255 41 -337 90l34 162h1z" />
    <glyph glyph-name="T" unicode="T" horiz-adv-x="723" 
d="M744 542h-233l-115 -542h-179l114 542h-240l45 158h625z" />
    <glyph glyph-name="U" unicode="U" horiz-adv-x="811" 
d="M376 -19c-175 0 -297 69 -297 225c0 30 4 62 11 96l85 398h180l-87 -408c-4 -21 -6 -37 -6 -56c0 -67 52 -93 122 -93c85 0 147 31 170 141l88 416h180l-92 -435c-44 -207 -166 -284 -354 -284z" />
    <glyph glyph-name="V" unicode="V" horiz-adv-x="772" 
d="M185 0l-75 700h186l50 -532h29l270 532h198l-370 -700h-288z" />
    <glyph glyph-name="W" unicode="W" horiz-adv-x="1151" 
d="M158 0l-37 700h181l19 -514h9l247 514h172l44 -514h9l222 514h190l-323 -700h-238l-34 453h-6l-219 -453h-236z" />
    <glyph glyph-name="X" unicode="X" horiz-adv-x="788" 
d="M-35 1l346 377l-180 321v1h197l116 -216l191 216h217v-1l-324 -352l194 -346v-1h-197l-130 242l-214 -242h-216v1z" />
    <glyph glyph-name="Y" unicode="Y" horiz-adv-x="760" 
d="M636 700h210l-382 -483l-46 -217h-180l46 218l-192 482h185l118 -304h11z" />
    <glyph glyph-name="Z" unicode="Z" horiz-adv-x="735" 
d="M3 0l34 164l458 383h-365l43 153h594l-31 -149l-472 -397h389l-32 -154h-618z" />
    <glyph glyph-name="a" unicode="a" horiz-adv-x="607" 
d="M303 421c-55 0 -134 -17 -196 -50h-1l31 154c62 25 132 39 203 39c148 0 221 -67 221 -183c0 -25 -3 -51 -11 -85l-63 -296h-153l7 57c-40 -45 -98 -72 -162 -72c-100 0 -160 56 -160 141c0 41 14 90 57 129c50 45 142 76 312 75c3 14 4 25 4 36c0 33 -27 55 -89 55z
M186 153c0 -25 17 -45 58 -45c37 0 81 18 105 37l19 89c-99 -1 -144 -17 -165 -38c-14 -14 -17 -30 -17 -43z" />
    <glyph glyph-name="b" unicode="b" horiz-adv-x="667" 
d="M353 767l-56 -266c34 34 82 59 143 59c104 0 194 -69 194 -220c0 -197 -130 -356 -326 -356c-51 0 -105 12 -154 34h-133l159 749h173zM307 123c100 0 158 96 158 197c0 74 -37 101 -90 101c-38 0 -76 -15 -102 -36l-51 -238c27 -16 58 -24 85 -24z" />
    <glyph glyph-name="c" unicode="c" horiz-adv-x="551" 
d="M209 245c0 -80 55 -121 131 -121c48 0 93 16 139 39h1l-31 -147c-44 -22 -91 -33 -147 -33c-149 0 -262 85 -262 246c0 183 126 335 317 335c81 0 151 -27 186 -55l-31 -144h-1c-36 29 -86 55 -142 55c-97 0 -160 -74 -160 -175z" />
    <glyph glyph-name="d" unicode="d" horiz-adv-x="667" 
d="M226 -13c-103 0 -190 70 -190 218c0 201 134 357 310 357c54 0 97 -12 130 -32l51 237h173l-163 -767h-170l12 58c-37 -40 -87 -71 -153 -71zM295 126c39 0 76 15 104 39l48 229c-22 17 -53 29 -88 29c-97 0 -154 -96 -154 -197c0 -74 38 -100 90 -100z" />
    <glyph glyph-name="e" unicode="e" horiz-adv-x="613" 
d="M340 119c75 0 141 25 190 53h1l-31 -144c-42 -23 -103 -45 -186 -45c-175 0 -273 97 -273 251c0 176 124 331 313 331c140 0 225 -87 225 -224c0 -34 -6 -72 -18 -110h-357c3 -84 56 -112 136 -112zM342 433c-60 -2 -107 -46 -127 -108h209c1 8 2 16 2 24
c0 51 -26 85 -84 84z" />
    <glyph glyph-name="f" unicode="f" horiz-adv-x="458" 
d="M363 570l-5 -23h140l-30 -134h-138l-88 -413h-171l88 413h-107l54 134h82l6 28c31 149 110 208 227 208c43 0 81 -9 112 -25l-30 -125h-1c-14 7 -38 14 -60 14c-45 0 -67 -23 -79 -77z" />
    <glyph glyph-name="g" unicode="g" horiz-adv-x="603" 
d="M248 -223c-178 0 -292 57 -292 149c0 56 45 102 120 129l66 151c-53 33 -79 83 -79 139c0 112 84 218 265 218c32 0 60 -3 85 -9l66 88h191l-1 -6l-151 -138c37 -32 54 -73 54 -122c0 -105 -84 -211 -265 -211c-20 0 -38 1 -56 3l-21 -50c221 -26 314 -80 314 -170
c0 -87 -89 -171 -296 -171zM313 276c70 0 101 48 101 98s-34 78 -88 78c-71 -1 -102 -48 -102 -99c0 -49 34 -77 89 -77zM271 -113c81 0 119 22 119 45c0 35 -96 60 -262 72c-18 -13 -31 -32 -31 -49c0 -49 89 -69 174 -68z" />
    <glyph glyph-name="h" unicode="h" horiz-adv-x="667" 
d="M378 414c-40 0 -76 -18 -109 -43l-79 -371h-173l163 767h173l-62 -293c41 50 104 90 175 90c89 0 157 -53 157 -153c0 -20 -3 -45 -12 -90l-69 -321h-173l66 308c6 28 7 39 7 50c0 39 -26 56 -64 56z" />
    <glyph glyph-name="i" unicode="i" horiz-adv-x="323" 
d="M150 696c0 53 41 97 115 97c64 0 97 -34 97 -81c0 -53 -42 -97 -114 -97c-66 0 -98 34 -98 81zM135 547h173l-116 -547h-173z" />
    <glyph glyph-name="j" unicode="j" horiz-adv-x="334" 
d="M160 696c0 53 42 97 115 97c64 0 98 -34 98 -81c0 -53 -43 -97 -115 -97c-65 0 -98 34 -98 81zM319 547l-123 -581c-28 -128 -94 -188 -197 -188c-50 0 -98 14 -131 35l27 128h1c23 -13 48 -23 69 -23c34 0 52 22 63 74l118 555h173z" />
    <glyph glyph-name="j.alt" horiz-adv-x="323" 
d="M150 696c0 53 41 97 115 97c64 0 97 -34 97 -81c0 -53 -42 -97 -114 -97c-66 0 -98 34 -98 81zM308 547l-151 -710l-187 -67l165 777h173z" />
    <glyph glyph-name="k" unicode="k" horiz-adv-x="631" 
d="M19 0l163 767h173l-89 -418h50l159 198h196l-230 -275l128 -272h-185l-94 212h-54l-45 -212h-172z" />
    <glyph glyph-name="l" unicode="l" horiz-adv-x="323" 
d="M182 767h173l-163 -767h-173z" />
    <glyph glyph-name="m" unicode="m" horiz-adv-x="997" 
d="M371 414c-34 0 -70 -17 -102 -43l-79 -371h-173l116 547h170l-15 -76c39 52 101 93 170 93c71 0 131 -36 149 -105c45 54 113 105 192 105c86 0 155 -53 154 -153c0 -20 -3 -44 -12 -90l-69 -321h-173l66 308c6 28 7 41 7 51c0 39 -26 55 -60 55c-33 0 -69 -17 -102 -44
c-1 -7 -3 -14 -4 -21l-75 -349h-173l66 308c6 29 7 41 7 51c0 39 -26 55 -60 55z" />
    <glyph glyph-name="n" unicode="n" horiz-adv-x="667" 
d="M378 414c-40 0 -76 -18 -109 -43l-79 -371h-173l116 547h170l-15 -77c41 52 105 94 178 94c89 0 157 -53 157 -153c0 -20 -3 -45 -12 -90l-69 -321h-173l66 308c6 28 7 39 7 50c0 39 -26 56 -64 56z" />
    <glyph glyph-name="o" unicode="o" horiz-adv-x="648" 
d="M352 565c161 0 261 -94 261 -243c0 -170 -109 -341 -313 -341c-161 0 -261 95 -261 244c0 169 109 340 313 340zM305 122c98 0 143 105 143 190c0 71 -38 113 -101 113c-98 0 -142 -105 -142 -191c0 -71 37 -112 100 -112z" />
    <glyph glyph-name="p" unicode="p" horiz-adv-x="667" 
d="M445 560c103 0 189 -70 189 -218c0 -201 -134 -358 -309 -358c-55 0 -98 13 -131 33l-47 -220h-173l159 750h170l-12 -58c36 39 87 71 154 71zM375 421c-40 0 -76 -16 -104 -41l-48 -227c22 -17 53 -30 88 -30c98 0 154 96 154 197c0 75 -37 101 -90 101z" />
    <glyph glyph-name="q" unicode="q" horiz-adv-x="667" 
d="M321 -202l53 248c-35 -34 -83 -59 -144 -59c-103 0 -194 69 -194 221c0 197 130 355 326 355c51 0 105 -12 153 -33h134l-155 -732h-173zM363 424c-99 0 -157 -95 -157 -196c0 -75 37 -102 90 -102c37 0 76 15 103 36l50 239c-27 15 -58 23 -86 23z" />
    <glyph glyph-name="r" unicode="r" horiz-adv-x="437" 
d="M17 0l116 547h170l-17 -86c38 56 97 102 158 102c12 0 21 -1 29 -3l-37 -176c-12 2 -27 3 -46 3c-47 0 -102 -20 -129 -53l-71 -334h-173z" />
    <glyph glyph-name="s" unicode="s" horiz-adv-x="545" 
d="M37 191c67 -40 155 -76 228 -76c55 0 67 20 67 42c0 29 -35 40 -107 66c-87 31 -151 65 -151 152c0 109 82 190 229 190c100 0 176 -35 225 -63l-30 -139h-1c-53 34 -124 70 -201 70c-42 0 -63 -15 -63 -38s17 -32 103 -62c82 -29 155 -65 155 -159
c0 -104 -68 -191 -230 -191c-98 0 -191 31 -256 69l31 139h1z" />
    <glyph glyph-name="t" unicode="t" horiz-adv-x="447" 
d="M80 0l88 413h-116l54 134h90l26 123l176 20l-30 -143h117l-29 -134h-117l-88 -413h-171z" />
    <glyph glyph-name="u" unicode="u" horiz-adv-x="667" 
d="M293 133c39 0 75 17 108 43l79 371h173l-116 -547h-170l16 77c-41 -53 -105 -95 -179 -95c-89 0 -157 54 -157 154c0 20 3 44 13 89l68 322h173l-66 -308c-5 -28 -6 -40 -6 -50c0 -40 26 -56 64 -56z" />
    <glyph glyph-name="v" unicode="v" horiz-adv-x="611" 
d="M126 0l-55 547h171l26 -394h16l191 394h185l-289 -547h-245z" />
    <glyph glyph-name="w" unicode="w" horiz-adv-x="936" 
d="M261 177l172 365h179l11 -365h15l164 370h178l-267 -547h-212l-10 342h-15l-160 -342h-212l-28 547h168l2 -370h15z" />
    <glyph glyph-name="x" unicode="x" horiz-adv-x="605" 
d="M152 0h-200v1l259 289l-133 256v1h177l73 -148l122 148h199v-1l-244 -274l141 -271v-1h-178l-79 164z" />
    <glyph glyph-name="y" unicode="y" horiz-adv-x="601" 
d="M47 -203l101 184l-78 566h169l38 -370l195 370h182l-429 -750h-178z" />
    <glyph glyph-name="z" unicode="z" horiz-adv-x="566" 
d="M-5 0l26 128l317 283h-250l36 136h455l-27 -126l-323 -286h263l-29 -135h-468z" />
    <glyph glyph-name="a.sc" horiz-adv-x="746" 
d="M492 0l-9 116h-256l-60 -116h-188l329 600h284l74 -600h-174zM406 453l-110 -206h176l-21 206h-45z" />
    <glyph glyph-name="b.sc" horiz-adv-x="717" 
d="M33 0l127 599h310c151 0 215 -53 215 -143c0 -76 -45 -124 -131 -151c58 -20 96 -59 96 -122c0 -115 -92 -183 -263 -183h-354zM281 360h150c61 0 87 25 87 62c0 33 -23 47 -71 47h-143zM258 249l-25 -118h156c63 0 90 28 90 66c0 33 -18 52 -74 52h-147z" />
    <glyph glyph-name="c.sc" horiz-adv-x="656" 
d="M420 615c103 0 186 -34 233 -68l-32 -151h-1c-44 34 -108 71 -192 71c-120 0 -196 -84 -196 -190c0 -91 62 -146 166 -146c74 0 134 24 184 47h1l-33 -156c-38 -17 -103 -39 -188 -39c-194 0 -304 118 -304 278c0 202 146 354 362 354z" />
    <glyph glyph-name="d.sc" horiz-adv-x="750" 
d="M33 0l127 599h235c215 0 313 -102 313 -250c0 -165 -94 -349 -402 -349h-273zM535 336c0 83 -51 122 -154 122h-78l-67 -317h93c152 0 206 93 206 195z" />
    <glyph glyph-name="e.sc" horiz-adv-x="661" 
d="M33 0l127 599h489l-14 -135h-333l-21 -101h263l-27 -123h-262l-22 -104h345l-40 -136h-505z" />
    <glyph glyph-name="f.sc" horiz-adv-x="632" 
d="M303 458l-26 -118h266l-29 -131h-265l-44 -209h-172l127 599h477l-14 -141h-320z" />
    <glyph glyph-name="g.sc" horiz-adv-x="743" 
d="M432 469c-129 0 -201 -85 -201 -198c0 -90 49 -146 153 -146c76 0 138 36 150 104h-177l27 123h324c-5 -123 -33 -214 -99 -280c-58 -58 -141 -90 -241 -90c-194 0 -310 109 -310 278c0 194 137 355 371 355c100 0 184 -31 242 -66l-32 -149h-1c-56 37 -126 69 -206 69z
" />
    <glyph glyph-name="h.sc" horiz-adv-x="778" 
d="M33 0l127 599h174l-48 -226h253l48 226h173l-127 -599h-173l49 228h-254l-49 -228h-173z" />
    <glyph glyph-name="i.sc" horiz-adv-x="352" 
d="M334 599l-128 -599h-173l128 599h173z" />
    <glyph glyph-name="j.sc" horiz-adv-x="573" 
d="M211 -16c-84 0 -163 28 -219 68l32 150h1c57 -44 119 -68 178 -68c56 0 93 26 112 115l74 350h173l-81 -379c-35 -165 -132 -236 -270 -236z" />
    <glyph glyph-name="j.sc_alt" horiz-adv-x="609" 
d="M240 -16c-90 0 -166 28 -222 68l32 150h1c56 -44 118 -68 179 -68c63 0 103 27 120 108l46 218h-207l40 139h369l-81 -379c-34 -164 -133 -236 -277 -236z" />
    <glyph glyph-name="k.sc" horiz-adv-x="727" 
d="M33 0l127 599h173l-47 -221h68l206 221h209v-1l-290 -303l176 -294v-1h-188l-136 232h-76l-50 -232h-172z" />
    <glyph glyph-name="l.sc" horiz-adv-x="604" 
d="M33 0l127 599h173l-96 -453h305l-42 -146h-467z" />
    <glyph glyph-name="m.sc" horiz-adv-x="881" 
d="M33 0l127 599h190l93 -294l204 294h216l-127 -599h-164l80 378l-251 -345h-9l-118 338l-78 -371h-163z" />
    <glyph glyph-name="n.sc" horiz-adv-x="772" 
d="M33 0l127 599h191l154 -363h8l77 363h164l-127 -599h-182l-161 373h-7l-80 -373h-164z" />
    <glyph glyph-name="o.sc" horiz-adv-x="771" 
d="M728 336c0 -180 -127 -355 -365 -355c-179 0 -305 107 -305 283c0 180 127 355 364 355c180 0 306 -107 306 -283zM554 329c0 92 -55 143 -141 143c-120 0 -182 -100 -182 -201c0 -92 56 -143 142 -143c119 0 181 100 181 201z" />
    <glyph glyph-name="p.sc" horiz-adv-x="685" 
d="M390 149h-152l-32 -149h-173l127 599h260c180 0 249 -81 249 -197c0 -128 -82 -253 -279 -253zM387 287c81 0 114 49 114 104c0 47 -27 70 -84 70h-113l-37 -174h120z" />
    <glyph glyph-name="q.sc" horiz-adv-x="785" 
d="M718 102l-33 -143h-2l-103 86c-57 -41 -130 -66 -217 -66c-179 0 -305 107 -305 283c0 182 127 357 364 357c180 0 306 -107 306 -283c0 -67 -20 -136 -57 -195zM563 323c0 97 -58 149 -148 149c-122 0 -184 -103 -184 -207c0 -97 60 -147 148 -147c37 0 68 9 94 24
l-121 96l75 93l120 -97c11 28 16 58 16 89z" />
    <glyph glyph-name="r.sc" horiz-adv-x="718" 
d="M160 599h288c159 0 232 -77 232 -191c0 -104 -61 -187 -170 -218l122 -189v-1h-189l-99 170h-102l-36 -170h-173zM304 461l-34 -158h124c77 0 115 40 115 93c0 41 -24 65 -83 65h-122z" />
    <glyph glyph-name="s.sc" horiz-adv-x="656" 
d="M336 -17c-129 0 -239 38 -310 78l32 148h1c77 -45 188 -87 276 -87c64 0 87 18 87 48c0 33 -46 45 -123 71c-101 33 -197 67 -197 177c0 108 79 199 263 199c109 0 209 -36 266 -67l-31 -145h-1c-64 36 -154 73 -245 73c-51 0 -83 -15 -83 -45c0 -32 41 -41 120 -67
c104 -34 201 -72 201 -185s-77 -198 -256 -198z" />
    <glyph glyph-name="t.sc" horiz-adv-x="680" 
d="M201 0l97 454h-218l42 145h573l-15 -145h-209l-97 -454h-173z" />
    <glyph glyph-name="u.sc" horiz-adv-x="750" 
d="M342 -19c-162 0 -270 64 -270 197c0 30 4 61 11 92l71 329h173l-73 -345c-4 -17 -6 -34 -6 -49c0 -54 40 -77 106 -77c64 0 117 27 135 111l77 360h173l-80 -372c-38 -180 -146 -246 -317 -246z" />
    <glyph glyph-name="v.sc" horiz-adv-x="715" 
d="M163 0l-67 599h178l38 -443h25l229 443h190l-324 -599h-269z" />
    <glyph glyph-name="w.sc" horiz-adv-x="1030" 
d="M134 0l-28 599h173l7 -399h8l213 399h155l42 -399h7l179 399h177l-283 -599h-203l-38 375h-3l-201 -375h-205z" />
    <glyph glyph-name="x.sc" horiz-adv-x="716" 
d="M109 598v1h184l100 -178l163 178h206v-1l-287 -304l171 -293l1 -1h-185l-108 194l-177 -194h-205v2l299 317z" />
    <glyph glyph-name="y.sc" horiz-adv-x="702" 
d="M216 0l40 190l-179 408v1h181l105 -246h10l188 246h202v-1l-335 -411l-39 -187h-173z" />
    <glyph glyph-name="z.sc" horiz-adv-x="685" 
d="M12 0l33 150l388 307h-321l41 142h539l-30 -136l-400 -320h341l-30 -143h-561z" />
    <glyph glyph-name="Aacute" unicode="&#xc1;" horiz-adv-x="801" 
d="M585 775h-159l150 171h210v-11zM-31 0l387 700h288l87 -700h-181l-19 155h-283l-84 -155h-195zM454 541l-129 -241h192l-25 241h-38z" />
    <glyph glyph-name="aacute" unicode="&#xe1;" horiz-adv-x="607" 
d="M436 634h-159l150 171h210v-11zM303 421c-55 0 -134 -17 -196 -50h-1l31 154c62 25 132 39 203 39c148 0 221 -67 221 -183c0 -25 -3 -51 -11 -85l-63 -296h-153l7 57c-40 -45 -98 -72 -162 -72c-100 0 -160 56 -160 141c0 41 14 90 57 129c50 45 142 76 312 75
c3 14 4 25 4 36c0 33 -27 55 -89 55zM186 153c0 -25 17 -45 58 -45c37 0 81 18 105 37l19 89c-99 -1 -144 -17 -165 -38c-14 -14 -17 -30 -17 -43z" />
    <glyph glyph-name="aacute.sc" horiz-adv-x="746" 
d="M533 675h-159l150 171h210v-11zM492 0l-9 116h-256l-60 -116h-188l329 600h284l74 -600h-174zM406 453l-110 -206h176l-21 206h-45z" />
    <glyph glyph-name="Abreve" unicode="&#x102;" horiz-adv-x="801" 
d="M353 976h119c-5 -18 -8 -31 -8 -45c0 -32 23 -50 65 -50c59 0 84 39 84 92v3h121c1 -12 1 -11 1 -18c0 -113 -73 -192 -211 -192c-118 0 -187 49 -187 136c0 22 6 52 16 74zM-31 0l387 700h288l87 -700h-181l-19 155h-283l-84 -155h-195zM454 541l-129 -241h192l-25 241
h-38z" />
    <glyph glyph-name="abreve" unicode="&#x103;" horiz-adv-x="607" 
d="M206 835h119c-5 -18 -8 -31 -8 -45c0 -32 23 -50 65 -50c59 0 84 39 84 92v3h121c1 -12 1 -11 1 -18c0 -113 -73 -192 -211 -192c-118 0 -187 49 -187 136c0 22 6 52 16 74zM303 421c-55 0 -134 -17 -196 -50h-1l31 154c62 25 132 39 203 39c148 0 221 -67 221 -183
c0 -25 -3 -51 -11 -85l-63 -296h-153l7 57c-40 -45 -98 -72 -162 -72c-100 0 -160 56 -160 141c0 41 14 90 57 129c50 45 142 76 312 75c3 14 4 25 4 36c0 33 -27 55 -89 55zM186 153c0 -25 17 -45 58 -45c37 0 81 18 105 37l19 89c-99 -1 -144 -17 -165 -38
c-14 -14 -17 -30 -17 -43z" />
    <glyph glyph-name="abreve.sc" horiz-adv-x="746" 
d="M304 876h119c-5 -18 -8 -31 -8 -45c0 -32 23 -50 65 -50c59 0 84 39 84 92v3h121c1 -12 1 -11 1 -18c0 -113 -73 -192 -211 -192c-118 0 -187 49 -187 136c0 22 6 52 16 74zM492 0l-9 116h-256l-60 -116h-188l329 600h284l74 -600h-174zM406 453l-110 -206h176l-21 206
h-45z" />
    <glyph glyph-name="Acircumflex" unicode="&#xc2;" horiz-adv-x="801" 
d="M276 774l171 188h195l96 -188h-146l-42 83h-38l-74 -83h-162zM-31 0l387 700h288l87 -700h-181l-19 155h-283l-84 -155h-195zM454 541l-129 -241h192l-25 241h-38z" />
    <glyph glyph-name="acircumflex" unicode="&#xe2;" horiz-adv-x="607" 
d="M132 633l171 188h195l96 -188h-146l-42 83h-38l-74 -83h-162zM303 421c-55 0 -134 -17 -196 -50h-1l31 154c62 25 132 39 203 39c148 0 221 -67 221 -183c0 -25 -3 -51 -11 -85l-63 -296h-153l7 57c-40 -45 -98 -72 -162 -72c-100 0 -160 56 -160 141c0 41 14 90 57 129
c50 45 142 76 312 75c3 14 4 25 4 36c0 33 -27 55 -89 55zM186 153c0 -25 17 -45 58 -45c37 0 81 18 105 37l19 89c-99 -1 -144 -17 -165 -38c-14 -14 -17 -30 -17 -43z" />
    <glyph glyph-name="acircumflex.sc" horiz-adv-x="746" 
d="M227 674l171 188h195l96 -188h-146l-42 83h-38l-74 -83h-162zM492 0l-9 116h-256l-60 -116h-188l329 600h284l74 -600h-174zM406 453l-110 -206h176l-21 206h-45z" />
    <glyph glyph-name="Adieresis" unicode="&#xc4;" horiz-adv-x="801" 
d="M491 863c0 -51 -40 -94 -105 -94c-57 0 -87 34 -87 79c0 51 40 93 105 93c57 0 87 -33 87 -78zM752 863c0 -51 -40 -94 -105 -94c-57 0 -87 34 -87 79c0 51 40 93 104 93c58 0 88 -33 88 -78zM-31 0l387 700h288l87 -700h-181l-19 155h-283l-84 -155h-195zM454 541
l-129 -241h192l-25 241h-38z" />
    <glyph glyph-name="adieresis" unicode="&#xe4;" horiz-adv-x="607" 
d="M343 722c0 -51 -40 -94 -105 -94c-57 0 -87 34 -87 79c0 51 40 93 105 93c57 0 87 -33 87 -78zM604 722c0 -51 -40 -94 -105 -94c-57 0 -87 34 -87 79c0 51 40 93 104 93c58 0 88 -33 88 -78zM303 421c-55 0 -134 -17 -196 -50h-1l31 154c62 25 132 39 203 39
c148 0 221 -67 221 -183c0 -25 -3 -51 -11 -85l-63 -296h-153l7 57c-40 -45 -98 -72 -162 -72c-100 0 -160 56 -160 141c0 41 14 90 57 129c50 45 142 76 312 75c3 14 4 25 4 36c0 33 -27 55 -89 55zM186 153c0 -25 17 -45 58 -45c37 0 81 18 105 37l19 89
c-99 -1 -144 -17 -165 -38c-14 -14 -17 -30 -17 -43z" />
    <glyph glyph-name="adieresis.sc" horiz-adv-x="746" 
d="M442 763c0 -51 -40 -94 -105 -94c-57 0 -87 34 -87 79c0 51 40 93 105 93c57 0 87 -33 87 -78zM703 763c0 -51 -40 -94 -105 -94c-57 0 -87 34 -87 79c0 51 40 93 104 93c58 0 88 -33 88 -78zM492 0l-9 116h-256l-60 -116h-188l329 600h284l74 -600h-174zM406 453
l-110 -206h176l-21 206h-45z" />
    <glyph glyph-name="AE" unicode="&#xc6;" horiz-adv-x="1190" 
d="M160 0h-211l515 700h735l-16 -151h-384l-25 -118h302l-32 -142h-301l-29 -138h401l-44 -151h-568l33 155h-264zM551 542l-175 -242h191l51 242h-67z" />
    <glyph glyph-name="ae" unicode="&#xe6;" horiz-adv-x="945" 
d="M687 565c138 0 224 -87 224 -224c0 -34 -7 -72 -18 -110h-357c2 -84 56 -112 136 -112c75 0 154 30 190 53h1l-31 -144c-42 -23 -103 -45 -186 -45c-105 0 -182 35 -226 97c-64 -58 -142 -95 -233 -95c-110 0 -170 57 -170 141c0 41 15 90 58 129c50 44 141 76 312 74
c3 14 4 28 4 37c0 33 -27 55 -90 55c-54 0 -134 -17 -196 -50h-1l31 154c62 25 132 39 203 39c81 0 135 -22 168 -64c49 41 111 65 181 65zM674 433c-60 -2 -107 -45 -127 -108h209c1 9 2 17 2 24c0 51 -26 85 -84 84zM184 153c0 -27 21 -45 62 -45c50 0 98 26 137 54
c-5 21 -7 44 -7 68v6c-104 -2 -151 -18 -172 -38c-16 -14 -20 -31 -20 -45z" />
    <glyph glyph-name="ae.sc" horiz-adv-x="1080" 
d="M996 136l-40 -136h-505l27 125h-232l-92 -125h-201l454 599h660l-14 -135h-333l-21 -101h262l-26 -123h-262l-22 -104h345zM494 461l-151 -205h162l44 205h-55z" />
    <glyph glyph-name="AEacute" unicode="&#x1fc;" horiz-adv-x="1190" 
d="M847 775h-159l150 171h210v-11zM160 0h-211l515 700h735l-16 -151h-384l-25 -118h302l-32 -142h-301l-29 -138h401l-44 -151h-568l33 155h-264zM551 542l-175 -242h191l51 242h-67z" />
    <glyph glyph-name="aeacute" unicode="&#x1fd;" horiz-adv-x="945" 
d="M589 624h-159l150 171h210v-11zM687 565c138 0 224 -87 224 -224c0 -34 -7 -72 -18 -110h-357c2 -84 56 -112 136 -112c75 0 154 30 190 53h1l-31 -144c-42 -23 -103 -45 -186 -45c-105 0 -182 35 -226 97c-64 -58 -142 -95 -233 -95c-110 0 -170 57 -170 141
c0 41 15 90 58 129c50 44 141 76 312 74c3 14 4 28 4 37c0 33 -27 55 -90 55c-54 0 -134 -17 -196 -50h-1l31 154c62 25 132 39 203 39c81 0 135 -22 168 -64c49 41 111 65 181 65zM674 433c-60 -2 -107 -45 -127 -108h209c1 9 2 17 2 24c0 51 -26 85 -84 84zM184 153
c0 -27 21 -45 62 -45c50 0 98 26 137 54c-5 21 -7 44 -7 68v6c-104 -2 -151 -18 -172 -38c-16 -14 -20 -31 -20 -45z" />
    <glyph glyph-name="aeacute.sc" horiz-adv-x="1080" 
d="M753 675h-159l150 171h210v-11zM996 136l-40 -136h-505l27 125h-232l-92 -125h-201l454 599h660l-14 -135h-333l-21 -101h262l-26 -123h-262l-22 -104h345zM494 461l-151 -205h162l44 205h-55z" />
    <glyph glyph-name="Agrave" unicode="&#xc0;" horiz-adv-x="801" 
d="M474 946l124 -171h-156l-170 160v11h202zM-31 0l387 700h288l87 -700h-181l-19 155h-283l-84 -155h-195zM454 541l-129 -241h192l-25 241h-38z" />
    <glyph glyph-name="agrave" unicode="&#xe0;" horiz-adv-x="607" 
d="M325 805l124 -171h-156l-170 160v11h202zM303 421c-55 0 -134 -17 -196 -50h-1l31 154c62 25 132 39 203 39c148 0 221 -67 221 -183c0 -25 -3 -51 -11 -85l-63 -296h-153l7 57c-40 -45 -98 -72 -162 -72c-100 0 -160 56 -160 141c0 41 14 90 57 129c50 45 142 76 312 75
c3 14 4 25 4 36c0 33 -27 55 -89 55zM186 153c0 -25 17 -45 58 -45c37 0 81 18 105 37l19 89c-99 -1 -144 -17 -165 -38c-14 -14 -17 -30 -17 -43z" />
    <glyph glyph-name="agrave.sc" horiz-adv-x="746" 
d="M423 846l124 -171h-156l-170 160v11h202zM492 0l-9 116h-256l-60 -116h-188l329 600h284l74 -600h-174zM406 453l-110 -206h176l-21 206h-45z" />
    <glyph glyph-name="Amacron" unicode="&#x100;" horiz-adv-x="801" 
d="M318 792l25 119h388l-26 -119h-387zM-31 0l387 700h288l87 -700h-181l-19 155h-283l-84 -155h-195zM454 541l-129 -241h192l-25 241h-38z" />
    <glyph glyph-name="amacron" unicode="&#x101;" horiz-adv-x="607" 
d="M171 651l25 119h388l-26 -119h-387zM303 421c-55 0 -134 -17 -196 -50h-1l31 154c62 25 132 39 203 39c148 0 221 -67 221 -183c0 -25 -3 -51 -11 -85l-63 -296h-153l7 57c-40 -45 -98 -72 -162 -72c-100 0 -160 56 -160 141c0 41 14 90 57 129c50 45 142 76 312 75
c3 14 4 25 4 36c0 33 -27 55 -89 55zM186 153c0 -25 17 -45 58 -45c37 0 81 18 105 37l19 89c-99 -1 -144 -17 -165 -38c-14 -14 -17 -30 -17 -43z" />
    <glyph glyph-name="amacron.sc" horiz-adv-x="746" 
d="M269 692l25 119h388l-26 -119h-387zM492 0l-9 116h-256l-60 -116h-188l329 600h284l74 -600h-174zM406 453l-110 -206h176l-21 206h-45z" />
    <glyph glyph-name="Aogonek" unicode="&#x104;" horiz-adv-x="801" 
d="M-31 0l387 700h288l87 -700h-1l1 -1l-59 -53c-59 -53 -71 -69 -71 -91s15 -35 57 -35c27 0 58 5 91 16l-27 -117c-33 -13 -67 -18 -115 -18c-99 0 -159 42 -159 114c0 60 36 108 103 159l-20 181h-283l-84 -155h-195zM454 541l-129 -241h192l-25 241h-38z" />
    <glyph glyph-name="aogonek" unicode="&#x105;" horiz-adv-x="607" 
d="M303 421c-55 0 -134 -17 -196 -50h-1l31 154c62 25 132 39 203 39c148 0 221 -67 221 -183c0 -25 -3 -51 -11 -85l-63 -296l1 -1l-59 -53c-59 -53 -71 -69 -71 -91s15 -35 57 -35c27 0 58 5 91 16l-27 -117c-33 -13 -67 -18 -115 -18c-99 0 -159 42 -159 114
c0 67 45 119 128 176l8 65c-40 -44 -98 -71 -162 -71c-100 0 -160 56 -160 141c0 41 14 90 57 129c50 45 142 76 312 75c3 14 4 25 4 36c0 33 -27 55 -89 55zM186 153c0 -25 17 -45 58 -45c37 0 81 18 105 37l19 89c-99 -1 -144 -17 -165 -38c-14 -14 -17 -30 -17 -43z" />
    <glyph glyph-name="aogonek.sc" horiz-adv-x="746" 
d="M658 -280c-33 -13 -67 -18 -115 -18c-99 0 -159 42 -159 114c0 62 38 110 109 163l-11 137h-255l-60 -116h-188l329 600h284l74 -599l1 -1l-59 -53c-59 -53 -71 -69 -71 -91s15 -35 57 -35c27 0 58 5 91 16zM406 453l-110 -206h176l-21 206h-45z" />
    <glyph glyph-name="Aring" unicode="&#xc5;" horiz-adv-x="801" 
d="M536 766c-108 0 -168 63 -168 143c0 93 71 169 191 169c108 0 168 -63 168 -144c0 -92 -71 -168 -191 -168zM541 858c51 0 76 33 76 72c0 32 -22 56 -63 56c-51 0 -77 -34 -77 -72c0 -32 23 -56 64 -56zM-31 0l387 700h288l87 -700h-181l-19 155h-283l-84 -155h-195z
M454 541l-129 -241h192l-25 241h-38z" />
    <glyph glyph-name="aring" unicode="&#xe5;" horiz-adv-x="607" 
d="M387 625c-108 0 -168 63 -168 143c0 93 71 169 191 169c108 0 168 -63 168 -144c0 -92 -71 -168 -191 -168zM392 717c51 0 76 33 76 72c0 32 -22 56 -63 56c-51 0 -77 -34 -77 -72c0 -32 23 -56 64 -56zM303 421c-55 0 -134 -17 -196 -50h-1l31 154c62 25 132 39 203 39
c148 0 221 -67 221 -183c0 -25 -3 -51 -11 -85l-63 -296h-153l7 57c-40 -45 -98 -72 -162 -72c-100 0 -160 56 -160 141c0 41 14 90 57 129c50 45 142 76 312 75c3 14 4 25 4 36c0 33 -27 55 -89 55zM186 153c0 -25 17 -45 58 -45c37 0 81 18 105 37l19 89
c-99 -1 -144 -17 -165 -38c-14 -14 -17 -30 -17 -43z" />
    <glyph glyph-name="aring.sc" horiz-adv-x="746" 
d="M485 666c-108 0 -168 63 -168 143c0 93 71 169 191 169c108 0 168 -63 168 -144c0 -92 -71 -168 -191 -168zM490 758c51 0 76 33 76 72c0 32 -22 56 -63 56c-51 0 -77 -34 -77 -72c0 -32 23 -56 64 -56zM492 0l-9 116h-256l-60 -116h-188l329 600h284l74 -600h-174z
M406 453l-110 -206h176l-21 206h-45z" />
    <glyph glyph-name="Aringacute" unicode="&#x1fa;" horiz-adv-x="801" 
d="M653 1131h-159l150 171h210v-11zM536 766c-108 0 -168 63 -168 143c0 93 71 169 191 169c108 0 168 -63 168 -144c0 -92 -71 -168 -191 -168zM541 858c51 0 76 33 76 72c0 32 -22 56 -63 56c-51 0 -77 -34 -77 -72c0 -32 23 -56 64 -56zM-31 0l387 700h288l87 -700h-181
l-19 155h-283l-84 -155h-195zM454 541l-129 -241h192l-25 241h-38z" />
    <glyph glyph-name="aringacute" unicode="&#x1fb;" horiz-adv-x="607" 
d="M504 989h-159l150 171h210v-11zM387 625c-108 0 -168 63 -168 143c0 93 71 169 191 169c108 0 168 -63 168 -144c0 -92 -71 -168 -191 -168zM392 717c51 0 76 33 76 72c0 32 -22 56 -63 56c-51 0 -77 -34 -77 -72c0 -32 23 -56 64 -56zM303 421c-55 0 -134 -17 -196 -50
h-1l31 154c62 25 132 39 203 39c148 0 221 -67 221 -183c0 -25 -3 -51 -11 -85l-63 -296h-153l7 57c-40 -45 -98 -72 -162 -72c-100 0 -160 56 -160 141c0 41 14 90 57 129c50 45 142 76 312 75c3 14 4 25 4 36c0 33 -27 55 -89 55zM186 153c0 -25 17 -45 58 -45
c37 0 81 18 105 37l19 89c-99 -1 -144 -17 -165 -38c-14 -14 -17 -30 -17 -43z" />
    <glyph glyph-name="aringacute.sc" horiz-adv-x="746" 
d="M601 1031h-159l150 171h210v-11zM485 666c-108 0 -168 63 -168 143c0 93 71 169 191 169c108 0 168 -63 168 -144c0 -92 -71 -168 -191 -168zM490 758c51 0 76 33 76 72c0 32 -22 56 -63 56c-51 0 -77 -34 -77 -72c0 -32 23 -56 64 -56zM492 0l-9 116h-256l-60 -116h-188
l329 600h284l74 -600h-174zM406 453l-110 -206h176l-21 206h-45z" />
    <glyph glyph-name="Atilde" unicode="&#xc3;" horiz-adv-x="801" 
d="M598 769c-31 0 -59 12 -85 25c-25 12 -49 25 -74 25c-33 0 -67 -15 -123 -62h-1c5 22 30 137 30 137c29 25 65 48 114 48c34 0 62 -12 87 -25s47 -25 73 -25c32 0 66 15 122 62h1c-5 -22 -30 -136 -30 -136c-29 -25 -65 -49 -114 -49zM-31 0l387 700h288l87 -700h-181
l-19 155h-283l-84 -155h-195zM454 541l-129 -241h192l-25 241h-38z" />
    <glyph glyph-name="atilde" unicode="&#xe3;" horiz-adv-x="607" 
d="M450 628c-31 0 -59 12 -85 25c-25 12 -49 25 -74 25c-33 0 -67 -15 -123 -62h-1c5 22 30 137 30 137c29 25 65 48 114 48c34 0 62 -12 87 -25s47 -25 73 -25c32 0 66 15 122 62h1c-5 -22 -30 -136 -30 -136c-29 -25 -65 -49 -114 -49zM303 421c-55 0 -134 -17 -196 -50
h-1l31 154c62 25 132 39 203 39c148 0 221 -67 221 -183c0 -25 -3 -51 -11 -85l-63 -296h-153l7 57c-40 -45 -98 -72 -162 -72c-100 0 -160 56 -160 141c0 41 14 90 57 129c50 45 142 76 312 75c3 14 4 25 4 36c0 33 -27 55 -89 55zM186 153c0 -25 17 -45 58 -45
c37 0 81 18 105 37l19 89c-99 -1 -144 -17 -165 -38c-14 -14 -17 -30 -17 -43z" />
    <glyph glyph-name="atilde.sc" horiz-adv-x="746" 
d="M549 669c-31 0 -59 12 -85 25c-25 12 -49 25 -74 25c-33 0 -67 -15 -123 -62h-1c5 22 30 137 30 137c29 25 65 48 114 48c34 0 62 -12 87 -25s47 -25 73 -25c32 0 66 15 122 62h1c-5 -22 -30 -136 -30 -136c-29 -25 -65 -49 -114 -49zM492 0l-9 116h-256l-60 -116h-188
l329 600h284l74 -600h-174zM406 453l-110 -206h176l-21 206h-45z" />
    <glyph glyph-name="Cacute" unicode="&#x106;" horiz-adv-x="728" 
d="M554 791h-159l150 171h210v-11zM480 716c112 0 206 -37 261 -82l-34 -161h-2c-54 46 -133 86 -222 86c-160 0 -238 -117 -238 -243c0 -114 75 -176 195 -176c82 0 162 28 218 56h1l-36 -165c-45 -28 -131 -47 -213 -47c-212 0 -345 119 -345 320c0 223 159 412 415 412z
" />
    <glyph glyph-name="cacute" unicode="&#x107;" horiz-adv-x="551" 
d="M433 636h-159l150 171h210v-11zM209 245c0 -80 55 -121 131 -121c48 0 93 16 139 39h1l-31 -147c-44 -22 -91 -33 -147 -33c-149 0 -262 85 -262 246c0 183 126 335 317 335c81 0 151 -27 186 -55l-31 -144h-1c-36 29 -86 55 -142 55c-97 0 -160 -74 -160 -175z" />
    <glyph glyph-name="cacute.sc" horiz-adv-x="656" 
d="M500 688h-159l150 171h210v-11zM420 615c103 0 186 -34 233 -68l-32 -151h-1c-44 34 -108 71 -192 71c-120 0 -196 -84 -196 -190c0 -91 62 -146 166 -146c74 0 134 24 184 47h1l-33 -156c-38 -17 -103 -39 -188 -39c-194 0 -304 118 -304 278c0 202 146 354 362 354z
" />
    <glyph glyph-name="Ccaron" unicode="&#x10c;" horiz-adv-x="728" 
d="M594 790h-194l-94 188h145l43 -83h37l77 83h162zM480 716c112 0 206 -37 261 -82l-34 -161h-2c-54 46 -133 86 -222 86c-160 0 -238 -117 -238 -243c0 -114 75 -176 195 -176c82 0 162 28 218 56h1l-36 -165c-45 -28 -131 -47 -213 -47c-212 0 -345 119 -345 320
c0 223 159 412 415 412z" />
    <glyph glyph-name="ccaron" unicode="&#x10d;" horiz-adv-x="551" 
d="M473 635h-194l-94 188h145l43 -83h37l77 83h162zM209 245c0 -80 55 -121 131 -121c48 0 93 16 139 39h1l-31 -147c-44 -22 -91 -33 -147 -33c-149 0 -262 85 -262 246c0 183 126 335 317 335c81 0 151 -27 186 -55l-31 -144h-1c-36 29 -86 55 -142 55
c-97 0 -160 -74 -160 -175z" />
    <glyph glyph-name="ccaron.sc" horiz-adv-x="656" 
d="M540 687h-194l-94 188h145l43 -83h37l77 83h162zM420 615c103 0 186 -34 233 -68l-32 -151h-1c-44 34 -108 71 -192 71c-120 0 -196 -84 -196 -190c0 -91 62 -146 166 -146c74 0 134 24 184 47h1l-33 -156c-38 -17 -103 -39 -188 -39c-194 0 -304 118 -304 278
c0 202 146 354 362 354z" />
    <glyph glyph-name="Ccedilla" unicode="&#xc7;" horiz-adv-x="728" 
d="M124 -188v13l174 172c-146 35 -233 144 -233 307c0 223 159 412 415 412c112 0 206 -37 261 -82l-34 -161h-2c-54 46 -133 86 -222 86c-160 0 -238 -117 -238 -243c0 -114 75 -176 195 -176c82 0 162 28 218 56h1l-36 -165c-41 -25 -116 -43 -190 -47l-100 -172h-209z
" />
    <glyph glyph-name="ccedilla" unicode="&#xe7;" horiz-adv-x="551" 
d="M26 -188v13l175 173c-96 31 -161 109 -161 231c0 183 126 335 317 335c81 0 151 -27 186 -55l-31 -144h-1c-36 29 -86 55 -142 55c-97 0 -160 -74 -160 -175c0 -80 55 -121 131 -121c48 0 93 16 139 39h1l-31 -147c-35 -18 -72 -28 -114 -32l-100 -172h-209z" />
    <glyph glyph-name="ccedilla.sc" horiz-adv-x="656" 
d="M83 -188v13l173 171c-127 36 -198 137 -198 265c0 202 146 354 362 354c103 0 186 -34 233 -68l-32 -151h-1c-44 34 -108 71 -192 71c-120 0 -196 -84 -196 -190c0 -91 62 -146 166 -146c74 0 134 24 184 47h1l-33 -156c-34 -15 -88 -34 -159 -38l-99 -172h-209z" />
    <glyph glyph-name="Cdotaccent" unicode="&#x10a;" horiz-adv-x="728" 
d="M400 865c0 53 41 97 115 97c64 0 97 -34 97 -81c0 -53 -42 -97 -114 -97c-66 0 -98 34 -98 81zM480 716c112 0 206 -37 261 -82l-34 -161h-2c-54 46 -133 86 -222 86c-160 0 -238 -117 -238 -243c0 -114 75 -176 195 -176c82 0 162 28 218 56h1l-36 -165
c-45 -28 -131 -47 -213 -47c-212 0 -345 119 -345 320c0 223 159 412 415 412z" />
    <glyph glyph-name="cdotaccent" unicode="&#x10b;" horiz-adv-x="551" 
d="M280 710c0 53 41 97 115 97c64 0 97 -34 97 -81c0 -53 -42 -97 -114 -97c-66 0 -98 34 -98 81zM209 245c0 -80 55 -121 131 -121c48 0 93 16 139 39h1l-31 -147c-44 -22 -91 -33 -147 -33c-149 0 -262 85 -262 246c0 183 126 335 317 335c81 0 151 -27 186 -55l-31 -144
h-1c-36 29 -86 55 -142 55c-97 0 -160 -74 -160 -175z" />
    <glyph glyph-name="cdotaccent.sc" horiz-adv-x="656" 
d="M347 762c0 53 41 97 115 97c64 0 97 -34 97 -81c0 -53 -42 -97 -114 -97c-66 0 -98 34 -98 81zM420 615c103 0 186 -34 233 -68l-32 -151h-1c-44 34 -108 71 -192 71c-120 0 -196 -84 -196 -190c0 -91 62 -146 166 -146c74 0 134 24 184 47h1l-33 -156
c-38 -17 -103 -39 -188 -39c-194 0 -304 118 -304 278c0 202 146 354 362 354z" />
    <glyph glyph-name="Dcaron" unicode="&#x10e;" horiz-adv-x="813" 
d="M583 774h-194l-94 188h145l43 -83h37l77 83h162zM32 0l149 700h258c250 0 347 -123 347 -290c0 -201 -118 -410 -452 -410h-302zM604 400c0 89 -47 146 -180 146h-96l-83 -392h108c182 0 251 115 251 246z" />
    <glyph glyph-name="dcaron" unicode="&#x10f;" horiz-adv-x="667" 
d="M226 -13c-103 0 -190 70 -190 218c0 201 134 357 310 357c54 0 97 -12 130 -32l51 237h173l-163 -767h-170l12 58c-37 -40 -87 -71 -153 -71zM738 588l38 179h161v-19l-110 -160h-89zM295 126c39 0 76 15 104 39l48 229c-22 17 -53 29 -88 29c-97 0 -154 -96 -154 -197
c0 -74 38 -100 90 -100z" />
    <glyph glyph-name="dcaron.sc" horiz-adv-x="750" 
d="M539 674h-194l-94 188h145l43 -83h37l77 83h162zM33 0l127 599h235c215 0 313 -102 313 -250c0 -165 -94 -349 -402 -349h-273zM535 336c0 83 -51 122 -154 122h-78l-67 -317h93c152 0 206 93 206 195z" />
    <glyph glyph-name="Dcroat" unicode="&#x110;" horiz-adv-x="850" 
d="M68 0l61 287h-93l37 128h83l61 285h258c250 0 347 -123 347 -290c0 -201 -118 -410 -451 -410h-303zM641 399c0 92 -47 148 -183 148h-94l-29 -135h175l-26 -122h-175l-29 -137h108c191 0 253 121 253 246z" />
    <glyph glyph-name="dcroat" unicode="&#x111;" horiz-adv-x="667" 
d="M224 -13c-103 -2 -189 70 -189 209c0 191 132 333 307 333c53 0 93 -11 126 -30l18 85h-170l22 103h170l17 80h173l-17 -80h74l-8 -103h-88l-124 -584h-169l12 58c-36 -40 -87 -71 -154 -71zM294 126c39 0 76 16 103 39l42 198c-22 16 -53 27 -85 27
c-98 0 -149 -81 -149 -167c0 -70 36 -97 89 -97z" />
    <glyph glyph-name="dcroat.sc" horiz-adv-x="785" 
d="M68 0l51 240h-92l35 121h83l51 238h234c215 0 314 -102 314 -250c0 -165 -95 -349 -403 -349h-273zM570 336c0 84 -50 123 -154 123h-79l-22 -103h151l-23 -111h-152l-22 -105h95c152 0 206 93 206 196z" />
    <glyph glyph-name="Eth" unicode="&#xd0;" horiz-adv-x="850" 
d="M68 0l61 287h-93l37 128h83l61 285h258c250 0 347 -123 347 -290c0 -201 -118 -410 -451 -410h-303zM641 399c0 92 -47 148 -183 148h-94l-29 -135h175l-26 -122h-175l-29 -137h108c191 0 253 121 253 246z" />
    <glyph glyph-name="eth" unicode="&#xf0;" horiz-adv-x="645" 
d="M610 347c0 -200 -110 -366 -312 -366c-155 0 -262 89 -262 236c0 158 103 287 261 287c72 0 121 -28 153 -72c-12 54 -34 103 -75 155l-190 -56l23 106l92 27c-33 30 -74 61 -123 95l2 8h191c27 -17 53 -37 77 -59l200 60l-22 -106l-107 -32c56 -76 92 -171 92 -283z
M202 234c0 -70 39 -112 106 -112c88 0 137 90 140 201c-24 43 -64 61 -113 61c-85 0 -133 -73 -133 -150z" />
    <glyph glyph-name="eth.sc" horiz-adv-x="785" 
d="M68 0l51 240h-92l35 121h83l51 238h234c215 0 314 -102 314 -250c0 -165 -95 -349 -403 -349h-273zM570 336c0 84 -50 123 -154 123h-79l-22 -103h151l-23 -111h-152l-22 -105h95c152 0 206 93 206 196z" />
    <glyph glyph-name="Eacute" unicode="&#xc9;" horiz-adv-x="718" 
d="M537 775h-159l150 171h210v-11zM328 549l-25 -118h302l-31 -142h-301l-29 -138h400l-44 -151h-568l149 700h547l-16 -151h-384z" />
    <glyph glyph-name="eacute" unicode="&#xe9;" horiz-adv-x="613" 
d="M433 636h-159l150 171h210v-11zM340 119c75 0 141 25 190 53h1l-31 -144c-42 -23 -103 -45 -186 -45c-175 0 -273 97 -273 251c0 176 124 331 313 331c140 0 225 -87 225 -224c0 -34 -6 -72 -18 -110h-357c3 -84 56 -112 136 -112zM342 433c-60 -2 -107 -46 -127 -108
h209c1 8 2 16 2 24c0 51 -26 85 -84 84z" />
    <glyph glyph-name="eacute.sc" horiz-adv-x="661" 
d="M475 675h-159l150 171h210v-11zM33 0l127 599h489l-14 -135h-333l-21 -101h263l-27 -123h-262l-22 -104h345l-40 -136h-505z" />
    <glyph glyph-name="Ebreve" unicode="&#x114;" horiz-adv-x="718" 
d="M319 976h119c-5 -18 -8 -31 -8 -45c0 -32 23 -50 65 -50c59 0 84 39 84 92v3h121c1 -12 1 -11 1 -18c0 -113 -73 -192 -211 -192c-118 0 -187 49 -187 136c0 22 6 52 16 74zM328 549l-25 -118h302l-31 -142h-301l-29 -138h400l-44 -151h-568l149 700h547l-16 -151h-384z
" />
    <glyph glyph-name="ebreve" unicode="&#x115;" horiz-adv-x="613" 
d="M215 837h119c-5 -18 -8 -31 -8 -45c0 -32 23 -50 65 -50c59 0 84 39 84 92v3h121c1 -12 1 -11 1 -18c0 -113 -73 -192 -211 -192c-118 0 -187 49 -187 136c0 22 6 52 16 74zM340 119c75 0 141 25 190 53h1l-31 -144c-42 -23 -103 -45 -186 -45c-175 0 -273 97 -273 251
c0 176 124 331 313 331c140 0 225 -87 225 -224c0 -34 -6 -72 -18 -110h-357c3 -84 56 -112 136 -112zM342 433c-60 -2 -107 -46 -127 -108h209c1 8 2 16 2 24c0 51 -26 85 -84 84z" />
    <glyph glyph-name="ebreve.sc" horiz-adv-x="661" 
d="M257 876h119c-5 -18 -8 -31 -8 -45c0 -32 23 -50 65 -50c59 0 84 39 84 92v3h121c1 -12 1 -11 1 -18c0 -113 -73 -192 -211 -192c-118 0 -187 49 -187 136c0 22 6 52 16 74zM33 0l127 599h489l-14 -135h-333l-21 -101h263l-27 -123h-262l-22 -104h345l-40 -136h-505z" />
    <glyph glyph-name="Ecaron" unicode="&#x11a;" horiz-adv-x="718" 
d="M577 774h-194l-94 188h145l43 -83h37l77 83h162zM328 549l-25 -118h302l-31 -142h-301l-29 -138h400l-44 -151h-568l149 700h547l-16 -151h-384z" />
    <glyph glyph-name="ecaron" unicode="&#x11b;" horiz-adv-x="613" 
d="M474 635h-194l-94 188h145l43 -83h37l77 83h162zM340 119c75 0 141 25 190 53h1l-31 -144c-42 -23 -103 -45 -186 -45c-175 0 -273 97 -273 251c0 176 124 331 313 331c140 0 225 -87 225 -224c0 -34 -6 -72 -18 -110h-357c3 -84 56 -112 136 -112zM342 433
c-60 -2 -107 -46 -127 -108h209c1 8 2 16 2 24c0 51 -26 85 -84 84z" />
    <glyph glyph-name="ecaron.sc" horiz-adv-x="661" 
d="M515 674h-194l-94 188h145l43 -83h37l77 83h162zM33 0l127 599h489l-14 -135h-333l-21 -101h263l-27 -123h-262l-22 -104h345l-40 -136h-505z" />
    <glyph glyph-name="Ecircumflex" unicode="&#xca;" horiz-adv-x="718" 
d="M242 774l171 188h195l96 -188h-146l-42 83h-38l-74 -83h-162zM328 549l-25 -118h302l-31 -142h-301l-29 -138h400l-44 -151h-568l149 700h547l-16 -151h-384z" />
    <glyph glyph-name="ecircumflex" unicode="&#xea;" horiz-adv-x="613" 
d="M139 635l171 188h195l96 -188h-146l-42 83h-38l-74 -83h-162zM340 119c75 0 141 25 190 53h1l-31 -144c-42 -23 -103 -45 -186 -45c-175 0 -273 97 -273 251c0 176 124 331 313 331c140 0 225 -87 225 -224c0 -34 -6 -72 -18 -110h-357c3 -84 56 -112 136 -112zM342 433
c-60 -2 -107 -46 -127 -108h209c1 8 2 16 2 24c0 51 -26 85 -84 84z" />
    <glyph glyph-name="ecircumflex.sc" horiz-adv-x="661" 
d="M180 674l171 188h195l96 -188h-146l-42 83h-38l-74 -83h-162zM33 0l127 599h489l-14 -135h-333l-21 -101h263l-27 -123h-262l-22 -104h345l-40 -136h-505z" />
    <glyph glyph-name="Edieresis" unicode="&#xcb;" horiz-adv-x="718" 
d="M457 863c0 -51 -40 -94 -105 -94c-57 0 -87 34 -87 79c0 51 40 93 105 93c57 0 87 -33 87 -78zM718 863c0 -51 -40 -94 -105 -94c-57 0 -87 34 -87 79c0 51 40 93 104 93c58 0 88 -33 88 -78zM328 549l-25 -118h302l-31 -142h-301l-29 -138h400l-44 -151h-568l149 700
h547l-16 -151h-384z" />
    <glyph glyph-name="edieresis" unicode="&#xeb;" horiz-adv-x="613" 
d="M353 724c0 -51 -40 -94 -105 -94c-57 0 -87 34 -87 79c0 51 40 93 105 93c57 0 87 -33 87 -78zM614 724c0 -51 -40 -94 -105 -94c-57 0 -87 34 -87 79c0 51 40 93 104 93c58 0 88 -33 88 -78zM340 119c75 0 141 25 190 53h1l-31 -144c-42 -23 -103 -45 -186 -45
c-175 0 -273 97 -273 251c0 176 124 331 313 331c140 0 225 -87 225 -224c0 -34 -6 -72 -18 -110h-357c3 -84 56 -112 136 -112zM342 433c-60 -2 -107 -46 -127 -108h209c1 8 2 16 2 24c0 51 -26 85 -84 84z" />
    <glyph glyph-name="edieresis.sc" horiz-adv-x="661" 
d="M394 763c0 -51 -40 -94 -105 -94c-57 0 -87 34 -87 79c0 51 40 93 105 93c57 0 87 -33 87 -78zM655 763c0 -51 -40 -94 -105 -94c-57 0 -87 34 -87 79c0 51 40 93 104 93c58 0 88 -33 88 -78zM33 0l127 599h489l-14 -135h-333l-21 -101h263l-27 -123h-262l-22 -104h345
l-40 -136h-505z" />
    <glyph glyph-name="Edotaccent" unicode="&#x116;" horiz-adv-x="718" 
d="M384 849c0 53 41 97 115 97c64 0 97 -34 97 -81c0 -53 -42 -97 -114 -97c-66 0 -98 34 -98 81zM328 549l-25 -118h302l-31 -142h-301l-29 -138h400l-44 -151h-568l149 700h547l-16 -151h-384z" />
    <glyph glyph-name="edotaccent" unicode="&#x117;" horiz-adv-x="613" 
d="M280 710c0 53 41 97 115 97c64 0 97 -34 97 -81c0 -53 -42 -97 -114 -97c-66 0 -98 34 -98 81zM340 119c75 0 141 25 190 53h1l-31 -144c-42 -23 -103 -45 -186 -45c-175 0 -273 97 -273 251c0 176 124 331 313 331c140 0 225 -87 225 -224c0 -34 -6 -72 -18 -110h-357
c3 -84 56 -112 136 -112zM342 433c-60 -2 -107 -46 -127 -108h209c1 8 2 16 2 24c0 51 -26 85 -84 84z" />
    <glyph glyph-name="edotaccent.sc" horiz-adv-x="661" 
d="M322 749c0 53 41 97 115 97c64 0 97 -34 97 -81c0 -53 -42 -97 -114 -97c-66 0 -98 34 -98 81zM33 0l127 599h489l-14 -135h-333l-21 -101h263l-27 -123h-262l-22 -104h345l-40 -136h-505z" />
    <glyph glyph-name="Egrave" unicode="&#xc8;" horiz-adv-x="718" 
d="M443 946l124 -171h-156l-170 160v11h202zM328 549l-25 -118h302l-31 -142h-301l-29 -138h400l-44 -151h-568l149 700h547l-16 -151h-384z" />
    <glyph glyph-name="egrave" unicode="&#xe8;" horiz-adv-x="613" 
d="M339 807l124 -171h-156l-170 160v11h202zM340 119c75 0 141 25 190 53h1l-31 -144c-42 -23 -103 -45 -186 -45c-175 0 -273 97 -273 251c0 176 124 331 313 331c140 0 225 -87 225 -224c0 -34 -6 -72 -18 -110h-357c3 -84 56 -112 136 -112zM342 433
c-60 -2 -107 -46 -127 -108h209c1 8 2 16 2 24c0 51 -26 85 -84 84z" />
    <glyph glyph-name="egrave.sc" horiz-adv-x="661" 
d="M380 846l124 -171h-156l-170 160v11h202zM33 0l127 599h489l-14 -135h-333l-21 -101h263l-27 -123h-262l-22 -104h345l-40 -136h-505z" />
    <glyph glyph-name="Emacron" unicode="&#x112;" horiz-adv-x="718" 
d="M284 792l25 119h388l-26 -119h-387zM328 549l-25 -118h302l-31 -142h-301l-29 -138h400l-44 -151h-568l149 700h547l-16 -151h-384z" />
    <glyph glyph-name="emacron" unicode="&#x113;" horiz-adv-x="613" 
d="M181 653l25 119h388l-26 -119h-387zM340 119c75 0 141 25 190 53h1l-31 -144c-42 -23 -103 -45 -186 -45c-175 0 -273 97 -273 251c0 176 124 331 313 331c140 0 225 -87 225 -224c0 -34 -6 -72 -18 -110h-357c3 -84 56 -112 136 -112zM342 433
c-60 -2 -107 -46 -127 -108h209c1 8 2 16 2 24c0 51 -26 85 -84 84z" />
    <glyph glyph-name="emacron.sc" horiz-adv-x="661" 
d="M222 692l25 119h388l-26 -119h-387zM33 0l127 599h489l-14 -135h-333l-21 -101h263l-27 -123h-262l-22 -104h345l-40 -136h-505z" />
    <glyph glyph-name="Eogonek" unicode="&#x118;" horiz-adv-x="718" 
d="M328 549l-25 -118h302l-31 -142h-301l-29 -138h400l-44 -150l1 -1l-59 -53c-59 -53 -71 -69 -71 -91s15 -35 57 -35c27 0 58 5 91 16l-27 -117c-33 -13 -67 -18 -115 -18c-99 0 -159 42 -159 114c0 69 48 122 136 182l3 2h-425l149 700h547l-16 -151h-384z" />
    <glyph glyph-name="eogonek" unicode="&#x119;" horiz-adv-x="613" 
d="M340 119c75 0 141 25 190 53h1l-31 -144l-92 -83c-57 -50 -68 -67 -68 -89s16 -35 57 -35c28 0 58 5 91 16l-27 -117c-33 -13 -67 -18 -115 -18c-99 0 -159 43 -159 109c0 67 52 119 134 170l3 2h-10c-175 0 -273 97 -273 251c0 176 124 331 313 331
c140 0 225 -87 225 -224c0 -34 -6 -72 -18 -110h-357c3 -84 56 -112 136 -112zM342 433c-60 -2 -107 -46 -127 -108h209c1 8 2 16 2 24c0 51 -26 85 -84 84z" />
    <glyph glyph-name="eogonek.sc" horiz-adv-x="661" 
d="M33 0l127 599h489l-14 -135h-333l-21 -101h263l-27 -123h-262l-22 -104h345l-40 -135l1 -1l-59 -53c-59 -53 -71 -69 -71 -91s15 -35 57 -35c27 0 58 5 91 16l-27 -117c-33 -13 -67 -18 -115 -18c-99 0 -159 42 -159 114c0 69 48 122 136 182l3 2h-362z" />
    <glyph glyph-name="Gbreve" unicode="&#x11e;" horiz-adv-x="828" 
d="M321 993h119c-5 -18 -8 -31 -8 -45c0 -32 23 -50 65 -50c59 0 84 39 84 92v3h121c1 -12 1 -11 1 -18c0 -113 -73 -192 -211 -192c-118 0 -187 49 -187 136c0 22 6 52 16 74zM492 561c-163 0 -248 -116 -248 -250c0 -113 69 -179 183 -179c104 0 169 54 186 141h-211
l30 137h371c-10 -150 -49 -257 -120 -329c-65 -65 -156 -99 -271 -99c-212 0 -347 119 -347 318c0 221 153 416 427 416c112 0 212 -40 270 -88l-33 -156h-1c-56 45 -137 89 -236 89z" />
    <glyph glyph-name="gbreve" unicode="&#x11f;" horiz-adv-x="603" 
d="M182 841h119c-5 -18 -8 -31 -8 -45c0 -32 23 -50 65 -50c59 0 84 39 84 92v3h121c1 -12 1 -11 1 -18c0 -113 -73 -192 -211 -192c-118 0 -187 49 -187 136c0 22 6 52 16 74zM248 -223c-178 0 -292 57 -292 149c0 56 45 102 120 129l66 151c-53 33 -79 83 -79 139
c0 112 84 218 265 218c44 0 81 -7 112 -17l56 74h192l-1 -6l-152 -133c25 -29 37 -64 37 -105c0 -105 -84 -211 -265 -211c-20 0 -38 1 -56 3l-21 -50c221 -26 314 -80 314 -170c0 -87 -89 -171 -296 -171zM313 276c70 0 101 48 101 98s-34 78 -88 78
c-71 -1 -102 -48 -102 -99c0 -49 34 -77 89 -77zM271 -113c81 0 119 22 119 45c0 35 -96 60 -262 72c-18 -13 -31 -32 -31 -49c0 -49 89 -69 174 -68z" />
    <glyph glyph-name="gbreve.sc" horiz-adv-x="743" 
d="M267 889h119c-5 -18 -8 -31 -8 -45c0 -32 23 -50 65 -50c59 0 84 39 84 92v3h121c1 -12 1 -11 1 -18c0 -113 -73 -192 -211 -192c-118 0 -187 49 -187 136c0 22 6 52 16 74zM432 469c-129 0 -201 -85 -201 -198c0 -90 49 -146 153 -146c76 0 138 36 150 104h-177l27 123
h324c-5 -123 -33 -214 -99 -280c-58 -58 -141 -90 -241 -90c-194 0 -310 109 -310 278c0 194 137 355 371 355c100 0 184 -31 242 -66l-32 -149h-1c-56 37 -126 69 -206 69z" />
    <glyph glyph-name="uni0122" unicode="&#x122;" horiz-adv-x="828" 
d="M492 561c-163 0 -248 -116 -248 -250c0 -113 69 -179 183 -179c104 0 169 54 186 141h-211l30 137h371c-10 -150 -49 -257 -120 -329c-65 -65 -156 -99 -271 -99c-212 0 -347 119 -347 318c0 221 153 416 427 416c112 0 212 -40 270 -88l-33 -156h-1
c-56 45 -137 89 -236 89zM285 -94h184v-18l-162 -194h-116z" />
    <glyph glyph-name="uni0123" unicode="&#x123;" horiz-adv-x="603" 
d="M421 634h-184v18l162 194h116zM248 -223c-178 0 -292 57 -292 149c0 56 45 102 120 129l66 151c-53 33 -79 83 -79 139c0 112 84 218 265 218c44 0 81 -7 112 -17l56 74h192l-1 -6l-152 -133c25 -29 37 -64 37 -105c0 -105 -84 -211 -265 -211c-20 0 -38 1 -56 3l-21 -50
c221 -26 314 -80 314 -170c0 -87 -89 -171 -296 -171zM313 276c70 0 101 48 101 98s-34 78 -88 78c-71 -1 -102 -48 -102 -99c0 -49 34 -77 89 -77zM271 -113c81 0 119 22 119 45c0 35 -96 60 -262 72c-18 -13 -31 -32 -31 -49c0 -49 89 -69 174 -68z" />
    <glyph glyph-name="uni0123.sc" horiz-adv-x="743" 
d="M432 469c-129 0 -201 -85 -201 -198c0 -90 49 -146 153 -146c76 0 138 36 150 104h-177l27 123h324c-5 -123 -33 -214 -99 -280c-58 -58 -141 -90 -241 -90c-194 0 -310 109 -310 278c0 194 137 355 371 355c100 0 184 -31 242 -66l-32 -149h-1c-56 37 -126 69 -206 69z
M233 -94h184v-18l-162 -194h-116z" />
    <glyph glyph-name="Gdotaccent" unicode="&#x120;" horiz-adv-x="828" 
d="M385 866c0 53 41 97 115 97c64 0 97 -34 97 -81c0 -53 -42 -97 -114 -97c-66 0 -98 34 -98 81zM492 561c-163 0 -248 -116 -248 -250c0 -113 69 -179 183 -179c104 0 169 54 186 141h-211l30 137h371c-10 -150 -49 -257 -120 -329c-65 -65 -156 -99 -271 -99
c-212 0 -347 119 -347 318c0 221 153 416 427 416c112 0 212 -40 270 -88l-33 -156h-1c-56 45 -137 89 -236 89z" />
    <glyph glyph-name="gdotaccent" unicode="&#x121;" horiz-adv-x="603" 
d="M247 714c0 53 41 97 115 97c64 0 97 -34 97 -81c0 -53 -42 -97 -114 -97c-66 0 -98 34 -98 81zM248 -223c-178 0 -292 57 -292 149c0 56 45 102 120 129l66 151c-53 33 -79 83 -79 139c0 112 84 218 265 218c44 0 81 -7 112 -17l56 74h192l-1 -6l-152 -133
c25 -29 37 -64 37 -105c0 -105 -84 -211 -265 -211c-20 0 -38 1 -56 3l-21 -50c221 -26 314 -80 314 -170c0 -87 -89 -171 -296 -171zM313 276c70 0 101 48 101 98s-34 78 -88 78c-71 -1 -102 -48 -102 -99c0 -49 34 -77 89 -77zM271 -113c81 0 119 22 119 45
c0 35 -96 60 -262 72c-18 -13 -31 -32 -31 -49c0 -49 89 -69 174 -68z" />
    <glyph glyph-name="gdotaccent.sc" horiz-adv-x="743" 
d="M332 762c0 53 41 97 115 97c64 0 97 -34 97 -81c0 -53 -42 -97 -114 -97c-66 0 -98 34 -98 81zM432 469c-129 0 -201 -85 -201 -198c0 -90 49 -146 153 -146c76 0 138 36 150 104h-177l27 123h324c-5 -123 -33 -214 -99 -280c-58 -58 -141 -90 -241 -90
c-194 0 -310 109 -310 278c0 194 137 355 371 355c100 0 184 -31 242 -66l-32 -149h-1c-56 37 -126 69 -206 69z" />
    <glyph glyph-name="Hbar" unicode="&#x126;" horiz-adv-x="911" 
d="M77 486l37 128h85l18 86h179l-20 -92h303l20 92h180l-18 -86h78l-11 -128h-95l-103 -486h-180l52 243h-303l-52 -243h-179l103 486h-94zM332 399h303l20 94h-303z" />
    <glyph glyph-name="hbar" unicode="&#x127;" horiz-adv-x="667" 
d="M371 384c-40 0 -75 -18 -108 -44l-73 -340h-173l124 584h-84l31 103h75l17 80h173l-17 -80h168l-19 -103h-171l-29 -140c41 50 103 90 175 90c89 0 157 -54 157 -154c0 -20 -3 -44 -13 -89l-62 -291h-173l59 277c6 28 7 40 7 50c0 40 -26 57 -64 57z" />
    <glyph glyph-name="hbar.sc" horiz-adv-x="853" 
d="M70 0l88 411h-99l36 121h89l14 67h172l-16 -76h255l16 76h173l-14 -67h81l-9 -121h-98l-88 -411h-172l43 201h-255l-44 -201h-172zM315 341h255l17 80h-255z" />
    <glyph glyph-name="Iacute" unicode="&#xcd;" horiz-adv-x="357" 
d="M370 775h-159l150 171h210v-11zM212 0h-180l149 700h180z" />
    <glyph glyph-name="iacute" unicode="&#xed;" horiz-adv-x="323" 
d="M316 622h-159l150 171h210v-11zM135 547h173l-116 -547h-173z" />
    <glyph glyph-name="iacute.sc" horiz-adv-x="352" 
d="M341 675h-159l150 171h210v-11zM334 599l-128 -599h-173l128 599h173z" />
    <glyph glyph-name="Ibreve" unicode="&#x12c;" horiz-adv-x="357" 
d="M129 976h119c-5 -18 -8 -31 -8 -45c0 -32 23 -50 65 -50c59 0 84 39 84 92v3h121c1 -12 1 -11 1 -18c0 -113 -73 -192 -211 -192c-118 0 -187 49 -187 136c0 22 6 52 16 74zM212 0h-180l149 700h180z" />
    <glyph glyph-name="ibreve" unicode="&#x12d;" horiz-adv-x="323" 
d="M75 823h119c-5 -18 -8 -31 -8 -45c0 -32 23 -50 65 -50c59 0 84 39 84 92v3h121c1 -12 1 -11 1 -18c0 -113 -73 -192 -211 -192c-118 0 -187 49 -187 136c0 22 6 52 16 74zM135 547h173l-116 -547h-173z" />
    <glyph glyph-name="ibreve.sc" horiz-adv-x="352" 
d="M105 876h119c-5 -18 -8 -31 -8 -45c0 -32 23 -50 65 -50c59 0 84 39 84 92v3h121c1 -12 1 -11 1 -18c0 -113 -73 -192 -211 -192c-118 0 -187 49 -187 136c0 22 6 52 16 74zM334 599l-128 -599h-173l128 599h173z" />
    <glyph glyph-name="Icircumflex" unicode="&#xce;" horiz-adv-x="357" 
d="M52 774l171 188h195l96 -188h-146l-42 83h-38l-74 -83h-162zM212 0h-180l149 700h180z" />
    <glyph glyph-name="icircumflex" unicode="&#xee;" horiz-adv-x="323" 
d="M-2 621l171 188h195l96 -188h-146l-42 83h-38l-74 -83h-162zM135 547h173l-116 -547h-173z" />
    <glyph glyph-name="icircumflex.sc" horiz-adv-x="352" 
d="M29 674l171 188h195l96 -188h-146l-42 83h-38l-74 -83h-162zM334 599l-128 -599h-173l128 599h173z" />
    <glyph glyph-name="Idieresis" unicode="&#xcf;" horiz-adv-x="357" 
d="M267 863c0 -51 -40 -94 -105 -94c-57 0 -87 34 -87 79c0 51 40 93 105 93c57 0 87 -33 87 -78zM528 863c0 -51 -40 -94 -105 -94c-57 0 -87 34 -87 79c0 51 40 93 104 93c58 0 88 -33 88 -78zM212 0h-180l149 700h180z" />
    <glyph glyph-name="idieresis" unicode="&#xef;" horiz-adv-x="323" 
d="M213 710c0 -51 -40 -94 -105 -94c-57 0 -87 34 -87 79c0 51 40 93 105 93c57 0 87 -33 87 -78zM474 710c0 -51 -40 -94 -105 -94c-57 0 -87 34 -87 79c0 51 40 93 104 93c58 0 88 -33 88 -78zM135 547h173l-116 -547h-173z" />
    <glyph glyph-name="idieresis.sc" horiz-adv-x="352" 
d="M243 763c0 -51 -40 -94 -105 -94c-57 0 -87 34 -87 79c0 51 40 93 105 93c57 0 87 -33 87 -78zM504 763c0 -51 -40 -94 -105 -94c-57 0 -87 34 -87 79c0 51 40 93 104 93c58 0 88 -33 88 -78zM334 599l-128 -599h-173l128 599h173z" />
    <glyph glyph-name="Idotaccent" unicode="&#x130;" horiz-adv-x="357" 
d="M194 849c0 53 41 97 115 97c64 0 97 -34 97 -81c0 -53 -42 -97 -114 -97c-66 0 -98 34 -98 81zM212 0h-180l149 700h180z" />
    <glyph glyph-name="idotaccent.sc" horiz-adv-x="352" 
d="M170 749c0 53 41 97 115 97c64 0 97 -34 97 -81c0 -53 -42 -97 -114 -97c-66 0 -98 34 -98 81zM334 599l-128 -599h-173l128 599h173z" />
    <glyph glyph-name="dotlessi" unicode="&#x131;" horiz-adv-x="323" 
d="M135 547h173l-116 -547h-173z" />
    <glyph glyph-name="dotlessi.sc" horiz-adv-x="352" 
d="M334 599l-128 -599h-173l128 599h173z" />
    <glyph glyph-name="Igrave" unicode="&#xcc;" horiz-adv-x="357" 
d="M239 946l124 -171h-156l-170 160v11h202zM212 0h-180l149 700h180z" />
    <glyph glyph-name="igrave" unicode="&#xec;" horiz-adv-x="323" 
d="M185 793l124 -171h-156l-170 160v11h202zM135 547h173l-116 -547h-173z" />
    <glyph glyph-name="igrave.sc" horiz-adv-x="352" 
d="M210 846l124 -171h-156l-170 160v11h202zM334 599l-128 -599h-173l128 599h173z" />
    <glyph glyph-name="Imacron" unicode="&#x12a;" horiz-adv-x="357" 
d="M94 792l25 119h388l-26 -119h-387zM212 0h-180l149 700h180z" />
    <glyph glyph-name="imacron" unicode="&#x12b;" horiz-adv-x="323" 
d="M40 639l25 119h388l-26 -119h-387zM135 547h173l-116 -547h-173z" />
    <glyph glyph-name="imacron.sc" horiz-adv-x="352" 
d="M71 692l25 119h388l-26 -119h-387zM334 599l-128 -599h-173l128 599h173z" />
    <glyph glyph-name="Iogonek" unicode="&#x12e;" horiz-adv-x="357" 
d="M203 -280c-33 -13 -67 -18 -115 -18c-99 0 -159 42 -159 114c0 58 34 105 97 154l155 730h180l-149 -700l-59 -53c-59 -53 -71 -69 -71 -91s15 -35 57 -35c27 0 58 5 91 16z" />
    <glyph glyph-name="iogonek" unicode="&#x12f;" horiz-adv-x="323" 
d="M150 696c0 53 41 97 115 97c64 0 97 -34 97 -81c0 -54 -43 -97 -114 -97c-66 0 -98 34 -98 81zM135 547h173l-116 -547l1 -1l-59 -53c-59 -53 -71 -69 -71 -91s15 -35 57 -35c27 0 58 5 91 16l-27 -117c-33 -13 -67 -18 -115 -18c-99 0 -159 42 -159 114
c0 60 36 107 103 158z" />
    <glyph glyph-name="iogonek.sc" horiz-adv-x="352" 
d="M334 599l-128 -598l1 -1l-59 -53c-59 -53 -71 -69 -71 -91s15 -35 57 -35c27 0 58 5 91 16l-27 -117c-33 -13 -67 -18 -115 -18c-99 0 -159 42 -159 114c0 60 36 108 104 159l133 624h173z" />
    <glyph glyph-name="uni0136" unicode="&#x136;" horiz-adv-x="783" 
d="M32 0l149 700h180l-57 -266h74l250 266h220v-1l-336 -351l206 -347v-1h-199l-163 279h-85l-59 -279h-180zM258 -63h184v-18l-162 -194h-116z" />
    <glyph glyph-name="uni0137" unicode="&#x137;" horiz-adv-x="631" 
d="M19 0l163 767h173l-89 -418h50l159 198h196l-230 -275l128 -272h-185l-94 212h-54l-45 -212h-172zM179 -58h184v-18l-162 -194h-116z" />
    <glyph glyph-name="uni0137.sc" horiz-adv-x="727" 
d="M33 0l127 599h173l-47 -221h68l206 221h209v-1l-290 -303l176 -294v-1h-188l-136 232h-76l-50 -232h-172zM228 -63h184v-18l-162 -194h-116z" />
    <glyph glyph-name="Lacute" unicode="&#x139;" horiz-adv-x="660" 
d="M367 775h-159l150 171h210v-11zM32 0l149 700h180l-116 -541h359l-45 -159h-527z" />
    <glyph glyph-name="lacute" unicode="&#x13a;" horiz-adv-x="323" 
d="M366 843h-159l150 171h210v-11zM182 767h173l-163 -767h-173z" />
    <glyph glyph-name="lacute.sc" horiz-adv-x="604" 
d="M338 675h-159l150 171h210v-11zM33 0l127 599h173l-96 -453h305l-42 -146h-467z" />
    <glyph glyph-name="Lcaron" unicode="&#x13d;" horiz-adv-x="660" 
d="M32 0l149 700h180l-116 -541h359l-45 -159h-527zM413 521l38 179h161v-19l-110 -160h-89z" />
    <glyph glyph-name="lcaron" unicode="&#x13e;" horiz-adv-x="323" 
d="M182 767h173l-163 -767h-173zM392 588l38 179h161v-19l-110 -160h-89z" />
    <glyph glyph-name="lcaron.sc" horiz-adv-x="604" 
d="M33 0l127 599h173l-96 -453h305l-42 -146h-467zM381 419l38 179h161v-19l-110 -160h-89z" />
    <glyph glyph-name="uni013B" unicode="&#x13b;" horiz-adv-x="660" 
d="M32 0l149 700h180l-116 -541h359l-45 -159h-527zM201 -80h184v-18l-162 -194h-116z" />
    <glyph glyph-name="uni013C" unicode="&#x13c;" horiz-adv-x="323" 
d="M182 767h173l-163 -767h-173zM-10 -80h184v-18l-162 -194h-116z" />
    <glyph glyph-name="uni013C.sc" horiz-adv-x="604" 
d="M33 0l127 599h173l-96 -453h305l-42 -146h-467zM171 -80h184v-18l-162 -194h-116z" />
    <glyph glyph-name="Ldot" unicode="&#x13f;" horiz-adv-x="658" 
d="M32 0l149 700h180l-116 -541h359l-45 -159h-527zM442 427c0 53 39 99 107 99c60 0 91 -36 91 -81c0 -53 -41 -99 -107 -99c-61 0 -91 35 -91 81z" />
    <glyph glyph-name="ldot" unicode="&#x140;" horiz-adv-x="496" 
d="M182 767h173l-163 -767h-173zM341 380c0 52 39 98 107 98c59 0 90 -35 90 -81c0 -52 -40 -98 -106 -98c-61 0 -91 35 -91 81z" />
    <glyph glyph-name="ldot.sc" horiz-adv-x="604" 
d="M33 0l127 599h173l-96 -453h305l-42 -146h-467zM401 371c0 53 39 99 107 99c60 0 92 -35 92 -81c0 -53 -41 -98 -108 -98c-61 0 -91 35 -91 80z" />
    <glyph glyph-name="Lslash" unicode="&#x141;" horiz-adv-x="688" 
d="M62 0l48 224l-107 -46l32 154l108 47l68 321h180l-50 -235l211 92l-33 -154l-211 -92l-33 -152h359l-45 -159h-527z" />
    <glyph glyph-name="lslash" unicode="&#x142;" horiz-adv-x="405" 
d="M458 551l-29 -137l-115 -52l-78 -362h-173l59 280l-114 -52l29 137l114 51l75 351h174l-57 -268z" />
    <glyph glyph-name="lslash.sc" horiz-adv-x="641" 
d="M68 0l39 185l-91 -38l30 141l91 37l58 274h173l-41 -195l197 81l-30 -141l-197 -81l-25 -117h305l-42 -146h-467z" />
    <glyph glyph-name="Nacute" unicode="&#x143;" horiz-adv-x="843" 
d="M584 757h-159l150 171h210v-11zM32 0l149 700h194l197 -444h7l95 444h173l-149 -700h-185l-203 456h-8l-97 -456h-173z" />
    <glyph glyph-name="nacute" unicode="&#x144;" horiz-adv-x="667" 
d="M468 634h-159l150 171h210v-11zM378 414c-40 0 -76 -18 -109 -43l-79 -371h-173l116 547h170l-15 -77c41 52 105 94 178 94c89 0 157 -53 157 -153c0 -20 -3 -45 -12 -90l-69 -321h-173l66 308c6 28 7 39 7 50c0 39 -26 56 -64 56z" />
    <glyph glyph-name="nacute.sc" horiz-adv-x="772" 
d="M537 657h-159l150 171h210v-11zM33 0l127 599h191l154 -363h8l77 363h164l-127 -599h-182l-161 373h-7l-80 -373h-164z" />
    <glyph glyph-name="Ncaron" unicode="&#x147;" horiz-adv-x="843" 
d="M625 756h-194l-94 188h145l43 -83h37l77 83h162zM32 0l149 700h194l197 -444h7l95 444h173l-149 -700h-185l-203 456h-8l-97 -456h-173z" />
    <glyph glyph-name="ncaron" unicode="&#x148;" horiz-adv-x="667" 
d="M509 633h-194l-94 188h145l43 -83h37l77 83h162zM378 414c-40 0 -76 -18 -109 -43l-79 -371h-173l116 547h170l-15 -77c41 52 105 94 178 94c89 0 157 -53 157 -153c0 -20 -3 -45 -12 -90l-69 -321h-173l66 308c6 28 7 39 7 50c0 39 -26 56 -64 56z" />
    <glyph glyph-name="ncaron.sc" horiz-adv-x="772" 
d="M577 656h-194l-94 188h145l43 -83h37l77 83h162zM33 0l127 599h191l154 -363h8l77 363h164l-127 -599h-182l-161 373h-7l-80 -373h-164z" />
    <glyph glyph-name="uni0145" unicode="&#x145;" horiz-adv-x="843" 
d="M32 0l149 700h194l197 -444h7l95 444h173l-149 -700h-185l-203 456h-8l-97 -456h-173zM259 -62h184v-18l-162 -194h-116z" />
    <glyph glyph-name="uni0146" unicode="&#x146;" horiz-adv-x="667" 
d="M378 414c-40 0 -76 -18 -109 -43l-79 -371h-173l116 547h170l-15 -77c41 52 105 94 178 94c89 0 157 -53 157 -153c0 -20 -3 -45 -12 -90l-69 -321h-173l66 308c6 28 7 39 7 50c0 39 -26 56 -64 56zM180 -63h184v-18l-162 -194h-116z" />
    <glyph glyph-name="uni0146.sc" horiz-adv-x="772" 
d="M33 0l127 599h191l154 -363h8l77 363h164l-127 -599h-182l-161 373h-7l-80 -373h-164zM222 -62h184v-18l-162 -194h-116z" />
    <glyph glyph-name="Ntilde" unicode="&#xd1;" horiz-adv-x="843" 
d="M615 769c-31 0 -59 12 -85 25c-25 12 -49 25 -74 25c-33 0 -67 -15 -123 -62h-1c5 22 30 137 30 137c29 25 65 48 114 48c34 0 62 -12 87 -25s47 -25 73 -25c32 0 66 15 122 62h1c-5 -22 -30 -136 -30 -136c-29 -25 -65 -49 -114 -49zM32 0l149 700h194l197 -444h7
l95 444h173l-149 -700h-185l-203 456h-8l-97 -456h-173z" />
    <glyph glyph-name="ntilde" unicode="&#xf1;" horiz-adv-x="667" 
d="M495 628c-31 0 -59 12 -85 25c-25 12 -49 25 -74 25c-33 0 -67 -15 -123 -62h-1c5 22 30 137 30 137c29 25 65 48 114 48c34 0 62 -12 87 -25s47 -25 73 -25c32 0 66 15 122 62h1c-5 -22 -30 -136 -30 -136c-29 -25 -65 -49 -114 -49zM378 414c-40 0 -76 -18 -109 -43
l-79 -371h-173l116 547h170l-15 -77c41 52 105 94 178 94c89 0 157 -53 157 -153c0 -20 -3 -45 -12 -90l-69 -321h-173l66 308c6 28 7 39 7 50c0 39 -26 56 -64 56z" />
    <glyph glyph-name="ntilde.sc" horiz-adv-x="772" 
d="M567 669c-31 0 -59 12 -85 25c-25 12 -49 25 -74 25c-33 0 -67 -15 -123 -62h-1c5 22 30 137 30 137c29 25 65 48 114 48c34 0 62 -12 87 -25s47 -25 73 -25c32 0 66 15 122 62h1c-5 -22 -30 -136 -30 -136c-29 -25 -65 -49 -114 -49zM33 0l127 599h191l154 -363h8
l77 363h164l-127 -599h-182l-161 373h-7l-80 -373h-164z" />
    <glyph glyph-name="Oacute" unicode="&#xd3;" horiz-adv-x="847" 
d="M576 793h-159l150 171h210v-11zM402 -19c-201 0 -337 123 -337 321c0 213 145 416 416 416c202 0 338 -123 338 -321c0 -213 -146 -416 -417 -416zM417 137c141 0 223 116 223 249c0 107 -60 176 -174 176c-140 0 -223 -116 -223 -249c0 -106 61 -176 174 -176z" />
    <glyph glyph-name="oacute" unicode="&#xf3;" horiz-adv-x="648" 
d="M441 636h-159l150 171h210v-11zM352 565c161 0 261 -94 261 -243c0 -170 -109 -341 -313 -341c-161 0 -261 95 -261 244c0 169 109 340 313 340zM305 122c98 0 143 105 143 190c0 71 -38 113 -101 113c-98 0 -142 -105 -142 -191c0 -71 37 -112 100 -112z" />
    <glyph glyph-name="oacute.sc" horiz-adv-x="771" 
d="M504 691h-159l150 171h210v-11zM728 336c0 -180 -127 -355 -365 -355c-179 0 -305 107 -305 283c0 180 127 355 364 355c180 0 306 -107 306 -283zM554 329c0 92 -55 143 -141 143c-120 0 -182 -100 -182 -201c0 -92 56 -143 142 -143c119 0 181 100 181 201z" />
    <glyph glyph-name="Obreve" unicode="&#x14e;" horiz-adv-x="847" 
d="M358 994h119c-5 -18 -8 -31 -8 -45c0 -32 23 -50 65 -50c59 0 84 39 84 92v3h121c1 -12 1 -11 1 -18c0 -113 -73 -192 -211 -192c-118 0 -187 49 -187 136c0 22 6 52 16 74zM402 -19c-201 0 -337 123 -337 321c0 213 145 416 416 416c202 0 338 -123 338 -321
c0 -213 -146 -416 -417 -416zM417 137c141 0 223 116 223 249c0 107 -60 176 -174 176c-140 0 -223 -116 -223 -249c0 -106 61 -176 174 -176z" />
    <glyph glyph-name="obreve" unicode="&#x14f;" horiz-adv-x="648" 
d="M223 837h119c-5 -18 -8 -31 -8 -45c0 -32 23 -50 65 -50c59 0 84 39 84 92v3h121c1 -12 1 -11 1 -18c0 -113 -73 -192 -211 -192c-118 0 -187 49 -187 136c0 22 6 52 16 74zM352 565c161 0 261 -94 261 -243c0 -170 -109 -341 -313 -341c-161 0 -261 95 -261 244
c0 169 109 340 313 340zM305 122c98 0 143 105 143 190c0 71 -38 113 -101 113c-98 0 -142 -105 -142 -191c0 -71 37 -112 100 -112z" />
    <glyph glyph-name="obreve.sc" horiz-adv-x="771" 
d="M286 892h119c-5 -18 -8 -31 -8 -45c0 -32 23 -50 65 -50c59 0 84 39 84 92v3h121c1 -12 1 -11 1 -18c0 -113 -73 -192 -211 -192c-118 0 -187 49 -187 136c0 22 6 52 16 74zM728 336c0 -180 -127 -355 -365 -355c-179 0 -305 107 -305 283c0 180 127 355 364 355
c180 0 306 -107 306 -283zM554 329c0 92 -55 143 -141 143c-120 0 -182 -100 -182 -201c0 -92 56 -143 142 -143c119 0 181 100 181 201z" />
    <glyph glyph-name="Ocircumflex" unicode="&#xd4;" horiz-adv-x="847" 
d="M282 792l171 188h195l96 -188h-146l-42 83h-38l-74 -83h-162zM402 -19c-201 0 -337 123 -337 321c0 213 145 416 416 416c202 0 338 -123 338 -321c0 -213 -146 -416 -417 -416zM417 137c141 0 223 116 223 249c0 107 -60 176 -174 176c-140 0 -223 -116 -223 -249
c0 -106 61 -176 174 -176z" />
    <glyph glyph-name="ocircumflex" unicode="&#xf4;" horiz-adv-x="648" 
d="M146 635l171 188h195l96 -188h-146l-42 83h-38l-74 -83h-162zM352 565c161 0 261 -94 261 -243c0 -170 -109 -341 -313 -341c-161 0 -261 95 -261 244c0 169 109 340 313 340zM305 122c98 0 143 105 143 190c0 71 -38 113 -101 113c-98 0 -142 -105 -142 -191
c0 -71 37 -112 100 -112z" />
    <glyph glyph-name="ocircumflex.sc" horiz-adv-x="771" 
d="M210 690l171 188h195l96 -188h-146l-42 83h-38l-74 -83h-162zM728 336c0 -180 -127 -355 -365 -355c-179 0 -305 107 -305 283c0 180 127 355 364 355c180 0 306 -107 306 -283zM554 329c0 92 -55 143 -141 143c-120 0 -182 -100 -182 -201c0 -92 56 -143 142 -143
c119 0 181 100 181 201z" />
    <glyph glyph-name="Odieresis" unicode="&#xd6;" horiz-adv-x="847" 
d="M496 881c0 -51 -40 -94 -105 -94c-57 0 -87 34 -87 79c0 51 40 93 105 93c57 0 87 -33 87 -78zM757 881c0 -51 -40 -94 -105 -94c-57 0 -87 34 -87 79c0 51 40 93 104 93c58 0 88 -33 88 -78zM402 -19c-201 0 -337 123 -337 321c0 213 145 416 416 416
c202 0 338 -123 338 -321c0 -213 -146 -416 -417 -416zM417 137c141 0 223 116 223 249c0 107 -60 176 -174 176c-140 0 -223 -116 -223 -249c0 -106 61 -176 174 -176z" />
    <glyph glyph-name="odieresis" unicode="&#xf6;" horiz-adv-x="648" 
d="M360 724c0 -51 -40 -94 -105 -94c-57 0 -87 34 -87 79c0 51 40 93 105 93c57 0 87 -33 87 -78zM621 724c0 -51 -40 -94 -105 -94c-57 0 -87 34 -87 79c0 51 40 93 104 93c58 0 88 -33 88 -78zM352 565c161 0 261 -94 261 -243c0 -170 -109 -341 -313 -341
c-161 0 -261 95 -261 244c0 169 109 340 313 340zM305 122c98 0 143 105 143 190c0 71 -38 113 -101 113c-98 0 -142 -105 -142 -191c0 -71 37 -112 100 -112z" />
    <glyph glyph-name="odieresis.sc" horiz-adv-x="771" 
d="M424 779c0 -51 -40 -94 -105 -94c-57 0 -87 34 -87 79c0 51 40 93 105 93c57 0 87 -33 87 -78zM685 779c0 -51 -40 -94 -105 -94c-57 0 -87 34 -87 79c0 51 40 93 104 93c58 0 88 -33 88 -78zM728 336c0 -180 -127 -355 -365 -355c-179 0 -305 107 -305 283
c0 180 127 355 364 355c180 0 306 -107 306 -283zM554 329c0 92 -55 143 -141 143c-120 0 -182 -100 -182 -201c0 -92 56 -143 142 -143c119 0 181 100 181 201z" />
    <glyph glyph-name="OE" unicode="&#x152;" horiz-adv-x="1176" 
d="M787 549l-26 -118h303l-32 -142h-301l-29 -138h401l-44 -151h-647c-251 0 -348 123 -348 290c0 201 118 410 453 410h670l-16 -151h-384zM245 301c0 -91 48 -147 185 -147h93l84 392h-107c-192 0 -255 -120 -255 -245z" />
    <glyph glyph-name="oe" unicode="&#x153;" horiz-adv-x="1016" 
d="M717 -17c-95 0 -168 29 -209 96c-52 -67 -122 -98 -211 -98c-158 0 -258 95 -258 244c0 169 109 340 311 340c88 0 159 -29 200 -97c53 66 125 97 209 97c137 0 223 -87 223 -224c0 -34 -7 -72 -18 -110h-358c3 -84 56 -112 136 -112c76 0 141 25 190 53h1l-30 -144
c-42 -23 -104 -45 -186 -45zM745 433c-59 -1 -106 -43 -127 -108h209c1 8 2 17 2 24c0 51 -27 85 -84 84zM305 122c98 0 143 105 143 190c0 71 -38 113 -101 113c-98 0 -142 -105 -142 -191c0 -71 37 -112 100 -112z" />
    <glyph glyph-name="oe.sc" horiz-adv-x="1060" 
d="M371 0c-216 0 -314 102 -314 250c0 165 94 349 402 349h589l-14 -135h-333l-21 -101h262l-26 -123h-262l-22 -104h345l-40 -136h-566zM230 263c0 -82 51 -122 154 -122h78l68 317h-93c-152 0 -207 -93 -207 -195z" />
    <glyph glyph-name="Ograve" unicode="&#xd2;" horiz-adv-x="847" 
d="M482 964l124 -171h-156l-170 160v11h202zM402 -19c-201 0 -337 123 -337 321c0 213 145 416 416 416c202 0 338 -123 338 -321c0 -213 -146 -416 -417 -416zM417 137c141 0 223 116 223 249c0 107 -60 176 -174 176c-140 0 -223 -116 -223 -249c0 -106 61 -176 174 -176z
" />
    <glyph glyph-name="ograve" unicode="&#xf2;" horiz-adv-x="648" 
d="M346 807l124 -171h-156l-170 160v11h202zM352 565c161 0 261 -94 261 -243c0 -170 -109 -341 -313 -341c-161 0 -261 95 -261 244c0 169 109 340 313 340zM305 122c98 0 143 105 143 190c0 71 -38 113 -101 113c-98 0 -142 -105 -142 -191c0 -71 37 -112 100 -112z" />
    <glyph glyph-name="ograve.sc" horiz-adv-x="771" 
d="M410 862l124 -171h-156l-170 160v11h202zM728 336c0 -180 -127 -355 -365 -355c-179 0 -305 107 -305 283c0 180 127 355 364 355c180 0 306 -107 306 -283zM554 329c0 92 -55 143 -141 143c-120 0 -182 -100 -182 -201c0 -92 56 -143 142 -143c119 0 181 100 181 201z
" />
    <glyph glyph-name="Ohungarumlaut" unicode="&#x150;" horiz-adv-x="847" 
d="M563 792l134 172h181v-12l-185 -160h-130zM331 792l131 172h182v-12l-183 -160h-130zM402 -19c-201 0 -337 123 -337 321c0 213 145 416 416 416c202 0 338 -123 338 -321c0 -213 -146 -416 -417 -416zM417 137c141 0 223 116 223 249c0 107 -60 176 -174 176
c-140 0 -223 -116 -223 -249c0 -106 61 -176 174 -176z" />
    <glyph glyph-name="ohungarumlaut" unicode="&#x151;" horiz-adv-x="648" 
d="M427 635l134 172h181v-12l-185 -160h-130zM195 635l131 172h182v-12l-183 -160h-130zM352 565c161 0 261 -94 261 -243c0 -170 -109 -341 -313 -341c-161 0 -261 95 -261 244c0 169 109 340 313 340zM305 122c98 0 143 105 143 190c0 71 -38 113 -101 113
c-98 0 -142 -105 -142 -191c0 -71 37 -112 100 -112z" />
    <glyph glyph-name="ohungarumlaut.sc" horiz-adv-x="771" 
d="M491 690l134 172h181v-12l-185 -160h-130zM259 690l131 172h182v-12l-183 -160h-130zM728 336c0 -180 -127 -355 -365 -355c-179 0 -305 107 -305 283c0 180 127 355 364 355c180 0 306 -107 306 -283zM554 329c0 92 -55 143 -141 143c-120 0 -182 -100 -182 -201
c0 -92 56 -143 142 -143c119 0 181 100 181 201z" />
    <glyph glyph-name="Omacron" unicode="&#x14c;" horiz-adv-x="847" 
d="M324 810l25 119h388l-26 -119h-387zM402 -19c-201 0 -337 123 -337 321c0 213 145 416 416 416c202 0 338 -123 338 -321c0 -213 -146 -416 -417 -416zM417 137c141 0 223 116 223 249c0 107 -60 176 -174 176c-140 0 -223 -116 -223 -249c0 -106 61 -176 174 -176z" />
    <glyph glyph-name="omacron" unicode="&#x14d;" horiz-adv-x="648" 
d="M188 653l25 119h388l-26 -119h-387zM352 565c161 0 261 -94 261 -243c0 -170 -109 -341 -313 -341c-161 0 -261 95 -261 244c0 169 109 340 313 340zM305 122c98 0 143 105 143 190c0 71 -38 113 -101 113c-98 0 -142 -105 -142 -191c0 -71 37 -112 100 -112z" />
    <glyph glyph-name="omacron.sc" horiz-adv-x="771" 
d="M252 708l25 119h388l-26 -119h-387zM728 336c0 -180 -127 -355 -365 -355c-179 0 -305 107 -305 283c0 180 127 355 364 355c180 0 306 -107 306 -283zM554 329c0 92 -55 143 -141 143c-120 0 -182 -100 -182 -201c0 -92 56 -143 142 -143c119 0 181 100 181 201z" />
    <glyph glyph-name="Oslash" unicode="&#xd8;" horiz-adv-x="847" 
d="M-27 -59l150 168c-37 51 -58 118 -58 195c0 211 145 414 415 414c66 0 126 -13 175 -38l72 79h184l-151 -167c38 -52 59 -118 59 -196c0 -211 -146 -414 -416 -414c-66 0 -126 13 -175 38l-72 -79h-183zM238 311c0 -31 5 -60 16 -84l293 326c-23 10 -50 15 -81 15
c-146 0 -228 -119 -228 -257zM417 132c146 0 229 119 229 258c0 31 -5 59 -16 83l-294 -326c23 -10 50 -15 81 -15z" />
    <glyph glyph-name="oslash" unicode="&#xf8;" horiz-adv-x="648" 
d="M352 565c53 0 99 -10 137 -29l52 58h155l-119 -135c23 -38 36 -84 36 -137c0 -170 -109 -341 -313 -341c-53 0 -99 10 -137 29l-52 -58h-155l119 136c-23 38 -36 84 -36 137c0 169 109 340 313 340zM197 233c0 -14 1 -27 4 -38l193 229c-14 5 -29 8 -47 8
c-103 0 -150 -110 -150 -199zM304 115c104 0 151 109 151 199c0 14 -1 27 -4 39l-193 -230c14 -5 29 -8 46 -8z" />
    <glyph glyph-name="oslash.sc" horiz-adv-x="772" 
d="M-25 -55l134 148c-33 45 -51 102 -51 169c0 182 127 357 364 357c58 0 110 -11 154 -32l59 66h175l-134 -147c33 -45 52 -102 52 -170c0 -182 -127 -357 -365 -357c-57 0 -109 11 -153 32l-60 -66h-175zM223 267c0 -25 4 -48 12 -67l239 271c-19 7 -39 10 -62 10
c-124 0 -189 -106 -189 -214zM563 330c0 26 -4 49 -12 68l-239 -271c18 -7 38 -10 61 -10c125 0 190 106 190 213z" />
    <glyph glyph-name="Oslashacute" unicode="&#x1fe;" horiz-adv-x="847" 
d="M578 789h-159l150 171h210v-11zM-27 -59l150 168c-37 51 -58 118 -58 195c0 211 145 414 415 414c66 0 126 -13 175 -38l72 79h184l-151 -167c38 -52 59 -118 59 -196c0 -211 -146 -414 -416 -414c-66 0 -126 13 -175 38l-72 -79h-183zM238 311c0 -31 5 -60 16 -84
l293 326c-23 10 -50 15 -81 15c-146 0 -228 -119 -228 -257zM417 132c146 0 229 119 229 258c0 31 -5 59 -16 83l-294 -326c23 -10 50 -15 81 -15z" />
    <glyph glyph-name="oslashacute" unicode="&#x1ff;" horiz-adv-x="648" 
d="M455 640h-159l150 171h210v-11zM352 565c53 0 99 -10 137 -29l52 58h155l-119 -135c23 -38 36 -84 36 -137c0 -170 -109 -341 -313 -341c-53 0 -99 10 -137 29l-52 -58h-155l119 136c-23 38 -36 84 -36 137c0 169 109 340 313 340zM197 233c0 -14 1 -27 4 -38l193 229
c-14 5 -29 8 -47 8c-103 0 -150 -110 -150 -199zM304 115c104 0 151 109 151 199c0 14 -1 27 -4 39l-193 -230c14 -5 29 -8 46 -8z" />
    <glyph glyph-name="oslashacute.sc" horiz-adv-x="772" 
d="M506 689h-159l150 171h210v-11zM-25 -55l134 148c-33 45 -51 102 -51 169c0 182 127 357 364 357c58 0 110 -11 154 -32l59 66h175l-134 -147c33 -45 52 -102 52 -170c0 -182 -127 -357 -365 -357c-57 0 -109 11 -153 32l-60 -66h-175zM223 267c0 -25 4 -48 12 -67
l239 271c-19 7 -39 10 -62 10c-124 0 -189 -106 -189 -214zM563 330c0 26 -4 49 -12 68l-239 -271c18 -7 38 -10 61 -10c125 0 190 106 190 213z" />
    <glyph glyph-name="Otilde" unicode="&#xd5;" horiz-adv-x="847" 
d="M603 787c-31 0 -59 12 -85 25c-25 12 -49 25 -74 25c-33 0 -67 -15 -123 -62h-1c5 22 30 137 30 137c29 25 65 48 114 48c34 0 62 -12 87 -25s47 -25 73 -25c32 0 66 15 122 62h1c-5 -22 -30 -136 -30 -136c-29 -25 -65 -49 -114 -49zM402 -19c-201 0 -337 123 -337 321
c0 213 145 416 416 416c202 0 338 -123 338 -321c0 -213 -146 -416 -417 -416zM417 137c141 0 223 116 223 249c0 107 -60 176 -174 176c-140 0 -223 -116 -223 -249c0 -106 61 -176 174 -176z" />
    <glyph glyph-name="otilde" unicode="&#xf5;" horiz-adv-x="648" 
d="M467 630c-31 0 -59 12 -85 25c-25 12 -49 25 -74 25c-33 0 -67 -15 -123 -62h-1c5 22 30 137 30 137c29 25 65 48 114 48c34 0 62 -12 87 -25s47 -25 73 -25c32 0 66 15 122 62h1c-5 -22 -30 -136 -30 -136c-29 -25 -65 -49 -114 -49zM352 565c161 0 261 -94 261 -243
c0 -170 -109 -341 -313 -341c-161 0 -261 95 -261 244c0 169 109 340 313 340zM305 122c98 0 143 105 143 190c0 71 -38 113 -101 113c-98 0 -142 -105 -142 -191c0 -71 37 -112 100 -112z" />
    <glyph glyph-name="otilde.sc" horiz-adv-x="771" 
d="M531 685c-31 0 -59 12 -85 25c-25 12 -49 25 -74 25c-33 0 -67 -15 -123 -62h-1c5 22 30 137 30 137c29 25 65 48 114 48c34 0 62 -12 87 -25s47 -25 73 -25c32 0 66 15 122 62h1c-5 -22 -30 -136 -30 -136c-29 -25 -65 -49 -114 -49zM728 336
c0 -180 -127 -355 -365 -355c-179 0 -305 107 -305 283c0 180 127 355 364 355c180 0 306 -107 306 -283zM554 329c0 92 -55 143 -141 143c-120 0 -182 -100 -182 -201c0 -92 56 -143 142 -143c119 0 181 100 181 201z" />
    <glyph glyph-name="Racute" unicode="&#x154;" horiz-adv-x="773" 
d="M535 775h-159l150 171h210v-11zM687 0h-197l-104 201h-131l-43 -201h-180l149 700h318c186 0 257 -94 257 -220c0 -120 -64 -220 -193 -259zM452 348c86 0 123 60 123 120c0 47 -21 81 -94 81h-153l-42 -201h166z" />
    <glyph glyph-name="racute" unicode="&#x155;" horiz-adv-x="437" 
d="M372 634h-159l150 171h210v-11zM17 0l116 547h170l-17 -86c38 56 97 102 158 102c12 0 21 -1 29 -3l-37 -176c-12 2 -27 3 -46 3c-47 0 -102 -20 -129 -53l-71 -334h-173z" />
    <glyph glyph-name="racute.sc" horiz-adv-x="718" 
d="M481 675h-159l150 171h210v-11zM160 599h288c159 0 232 -77 232 -191c0 -104 -61 -187 -170 -218l122 -189v-1h-189l-99 170h-102l-36 -170h-173zM304 461l-34 -158h124c77 0 115 40 115 93c0 41 -24 65 -83 65h-122z" />
    <glyph glyph-name="Rcaron" unicode="&#x158;" horiz-adv-x="773" 
d="M575 774h-194l-94 188h145l43 -83h37l77 83h162zM687 0h-197l-104 201h-131l-43 -201h-180l149 700h318c186 0 257 -94 257 -220c0 -120 -64 -220 -193 -259zM452 348c86 0 123 60 123 120c0 47 -21 81 -94 81h-153l-42 -201h166z" />
    <glyph glyph-name="rcaron" unicode="&#x159;" horiz-adv-x="437" 
d="M413 633h-194l-94 188h145l43 -83h37l77 83h162zM17 0l116 547h170l-17 -86c38 56 97 102 158 102c12 0 21 -1 29 -3l-37 -176c-12 2 -27 3 -46 3c-47 0 -102 -20 -129 -53l-71 -334h-173z" />
    <glyph glyph-name="rcaron.sc" horiz-adv-x="718" 
d="M521 674h-194l-94 188h145l43 -83h37l77 83h162zM160 599h288c159 0 232 -77 232 -191c0 -104 -61 -187 -170 -218l122 -189v-1h-189l-99 170h-102l-36 -170h-173zM304 461l-34 -158h124c77 0 115 40 115 93c0 41 -24 65 -83 65h-122z" />
    <glyph glyph-name="uni0156" unicode="&#x156;" horiz-adv-x="773" 
d="M687 0h-197l-104 201h-131l-43 -201h-180l149 700h318c186 0 257 -94 257 -220c0 -120 -64 -220 -193 -259zM452 348c86 0 123 60 123 120c0 47 -21 81 -94 81h-153l-42 -201h166zM249 -63h184v-18l-162 -194h-116z" />
    <glyph glyph-name="uni0157" unicode="&#x157;" horiz-adv-x="437" 
d="M17 0l116 547h170l-17 -86c38 56 97 102 158 102c12 0 21 -1 29 -3l-37 -176c-12 2 -27 3 -46 3c-47 0 -102 -20 -129 -53l-71 -334h-173zM-10 -80h184v-18l-162 -194h-116z" />
    <glyph glyph-name="uni0157.sc" horiz-adv-x="718" 
d="M160 599h288c159 0 232 -77 232 -191c0 -104 -61 -187 -170 -218l122 -189v-1h-189l-99 170h-102l-36 -170h-173zM304 461l-34 -158h124c77 0 115 40 115 93c0 41 -24 65 -83 65h-122zM217 -62h184v-18l-162 -194h-116z" />
    <glyph glyph-name="Sacute" unicode="&#x15a;" horiz-adv-x="721" 
d="M524 792h-159l150 171h210v-11zM66 235c81 -55 198 -102 304 -102c84 0 119 29 119 69s-31 50 -149 85c-121 35 -224 73 -224 195c0 137 104 235 303 235c120 0 223 -36 295 -78l-34 -159h-1c-70 48 -171 87 -268 87c-84 0 -118 -29 -118 -66c0 -38 33 -46 138 -77
c134 -39 234 -79 234 -208c0 -132 -98 -233 -297 -233c-143 0 -255 41 -337 90l34 162h1z" />
    <glyph glyph-name="sacute" unicode="&#x15b;" horiz-adv-x="545" 
d="M409 637h-159l150 171h210v-11zM37 191c67 -40 155 -76 228 -76c55 0 67 20 67 42c0 29 -35 40 -107 66c-87 31 -151 65 -151 152c0 109 82 190 229 190c100 0 176 -35 225 -63l-30 -139h-1c-53 34 -124 70 -201 70c-42 0 -63 -15 -63 -38s17 -32 103 -62
c82 -29 155 -65 155 -159c0 -104 -68 -191 -230 -191c-98 0 -191 31 -256 69l31 139h1z" />
    <glyph glyph-name="sacute.sc" horiz-adv-x="656" 
d="M473 690h-159l150 171h210v-11zM336 -17c-129 0 -239 38 -310 78l32 148h1c77 -45 188 -87 276 -87c64 0 87 18 87 48c0 33 -46 45 -123 71c-101 33 -197 67 -197 177c0 108 79 199 263 199c109 0 209 -36 266 -67l-31 -145h-1c-64 36 -154 73 -245 73
c-51 0 -83 -15 -83 -45c0 -32 41 -41 120 -67c104 -34 201 -72 201 -185s-77 -198 -256 -198z" />
    <glyph glyph-name="Scaron" unicode="&#x160;" horiz-adv-x="721" 
d="M564 791h-194l-94 188h145l43 -83h37l77 83h162zM66 235c81 -55 198 -102 304 -102c84 0 119 29 119 69s-31 50 -149 85c-121 35 -224 73 -224 195c0 137 104 235 303 235c120 0 223 -36 295 -78l-34 -159h-1c-70 48 -171 87 -268 87c-84 0 -118 -29 -118 -66
c0 -38 33 -46 138 -77c134 -39 234 -79 234 -208c0 -132 -98 -233 -297 -233c-143 0 -255 41 -337 90l34 162h1z" />
    <glyph glyph-name="scaron" unicode="&#x161;" horiz-adv-x="545" 
d="M450 636h-194l-94 188h145l43 -83h37l77 83h162zM37 191c67 -40 155 -76 228 -76c55 0 67 20 67 42c0 29 -35 40 -107 66c-87 31 -151 65 -151 152c0 109 82 190 229 190c100 0 176 -35 225 -63l-30 -139h-1c-53 34 -124 70 -201 70c-42 0 -63 -15 -63 -38
s17 -32 103 -62c82 -29 155 -65 155 -159c0 -104 -68 -191 -230 -191c-98 0 -191 31 -256 69l31 139h1z" />
    <glyph glyph-name="scaron.sc" horiz-adv-x="656" 
d="M514 689h-194l-94 188h145l43 -83h37l77 83h162zM336 -17c-129 0 -239 38 -310 78l32 148h1c77 -45 188 -87 276 -87c64 0 87 18 87 48c0 33 -46 45 -123 71c-101 33 -197 67 -197 177c0 108 79 199 263 199c109 0 209 -36 266 -67l-31 -145h-1c-64 36 -154 73 -245 73
c-51 0 -83 -15 -83 -45c0 -32 41 -41 120 -67c104 -34 201 -72 201 -185s-77 -198 -256 -198z" />
    <glyph glyph-name="Scedilla" unicode="&#x15e;" horiz-adv-x="721" 
d="M105 -188v13l166 165c-98 13 -177 46 -240 83l34 162h1c81 -55 198 -102 304 -102c84 0 119 29 119 69s-31 50 -149 85c-121 35 -224 73 -224 195c0 137 104 235 303 235c120 0 223 -36 295 -78l-34 -159h-1c-70 48 -171 87 -268 87c-84 0 -118 -29 -118 -66
c0 -38 33 -46 138 -77c134 -39 234 -79 234 -208c0 -121 -83 -217 -251 -231l-100 -173h-209z" />
    <glyph glyph-name="scedilla" unicode="&#x15f;" horiz-adv-x="545" 
d="M-9 -188v13l170 168c-60 12 -114 34 -156 59l31 139h1c67 -40 155 -76 228 -76c55 0 67 20 67 42c0 29 -35 40 -107 66c-87 31 -151 65 -151 152c0 109 82 190 229 190c100 0 176 -35 225 -63l-30 -139h-1c-53 34 -124 70 -201 70c-42 0 -63 -15 -63 -38s17 -32 103 -62
c82 -29 155 -65 155 -159c0 -95 -57 -176 -191 -189l-100 -173h-209z" />
    <glyph glyph-name="scedilla.sc" horiz-adv-x="656" 
d="M72 -188v13l167 165c-87 13 -161 41 -213 71l32 148h1c77 -45 188 -87 276 -87c64 0 87 18 87 48c0 33 -46 45 -123 71c-101 33 -197 67 -197 177c0 108 79 199 263 199c109 0 209 -36 266 -67l-31 -145h-1c-64 36 -154 73 -245 73c-51 0 -83 -15 -83 -45
c0 -32 41 -41 120 -67c104 -34 201 -72 201 -185c0 -103 -64 -183 -211 -196l-100 -173h-209z" />
    <glyph glyph-name="uni0218" unicode="&#x218;" horiz-adv-x="721" 
d="M66 235c81 -55 198 -102 304 -102c84 0 119 29 119 69s-31 50 -149 85c-121 35 -224 73 -224 195c0 137 104 235 303 235c120 0 223 -36 295 -78l-34 -159h-1c-70 48 -171 87 -268 87c-84 0 -118 -29 -118 -66c0 -38 33 -46 138 -77c134 -39 234 -79 234 -208
c0 -132 -98 -233 -297 -233c-143 0 -255 41 -337 90l34 162h1zM221 -94h184v-18l-162 -194h-116z" />
    <glyph glyph-name="uni0219" unicode="&#x219;" horiz-adv-x="545" 
d="M37 191c67 -40 155 -76 228 -76c55 0 67 20 67 42c0 29 -35 40 -107 66c-87 31 -151 65 -151 152c0 109 82 190 229 190c100 0 176 -35 225 -63l-30 -139h-1c-53 34 -124 70 -201 70c-42 0 -63 -15 -63 -38s17 -32 103 -62c82 -29 155 -65 155 -159
c0 -104 -68 -191 -230 -191c-98 0 -191 31 -256 69l31 139h1zM113 -94h184v-18l-162 -194h-116z" />
    <glyph glyph-name="uni0219.sc" horiz-adv-x="656" 
d="M336 -17c-129 0 -239 38 -310 78l32 148h1c77 -45 188 -87 276 -87c64 0 87 18 87 48c0 33 -46 45 -123 71c-101 33 -197 67 -197 177c0 108 79 199 263 199c109 0 209 -36 266 -67l-31 -145h-1c-64 36 -154 73 -245 73c-51 0 -83 -15 -83 -45c0 -32 41 -41 120 -67
c104 -34 201 -72 201 -185s-77 -198 -256 -198zM182 -94h184v-18l-162 -194h-116z" />
    <glyph glyph-name="uni1E9E" unicode="&#x1e9e;" horiz-adv-x="837" 
d="M212 0h-180l149 700h654l-33 -154l-199 -164l26 -10c104 -38 159 -87 159 -177c0 -135 -97 -212 -266 -212c-82 0 -162 20 -220 45l31 144h1c51 -26 115 -47 180 -47c71 0 99 29 99 71c0 36 -27 62 -131 90l-73 19l21 99l180 149h-281z" />
    <glyph glyph-name="germandbls" unicode="&#xdf;" horiz-adv-x="767" 
d="M51 413l54 134h85c50 156 154 236 307 236c165 0 247 -102 280 -214l-197 -177l11 -7c76 -51 131 -99 131 -187c0 -126 -92 -214 -232 -214c-54 0 -116 12 -172 38l28 136h1c42 -22 89 -40 132 -40c61 0 82 42 82 78c0 37 -16 59 -100 110l-47 28l19 92l163 153
c-18 38 -53 62 -99 62c-70 0 -127 -39 -156 -174l-100 -467h-170l87 413h-107z" />
    <glyph glyph-name="uni1E9E.sc" horiz-adv-x="781" 
d="M206 0h-173l127 599h604l-28 -129l-182 -147l24 -8c109 -35 145 -84 145 -156c0 -103 -75 -176 -239 -176c-72 0 -164 17 -208 42l28 128h1c41 -22 112 -42 168 -42c63 0 86 20 86 55c0 37 -37 53 -126 73l-54 13l21 91l153 124h-247z" />
    <glyph glyph-name="Tcaron" unicode="&#x164;" horiz-adv-x="723" 
d="M570 774h-194l-94 188h145l43 -83h37l77 83h162zM744 542h-233l-115 -542h-179l114 542h-240l45 158h625z" />
    <glyph glyph-name="tcaron" unicode="&#x165;" horiz-adv-x="447" 
d="M449 613l38 179h161v-19l-110 -160h-89zM80 0l88 413h-116l54 134h90l26 123l176 20l-30 -143h117l-29 -134h-117l-88 -413h-171z" />
    <glyph glyph-name="tcaron.sc" horiz-adv-x="680" 
d="M532 674h-194l-94 188h145l43 -83h37l77 83h162zM201 0l97 454h-218l42 145h573l-15 -145h-209l-97 -454h-173z" />
    <glyph glyph-name="uni0162" unicode="&#x21a;" horiz-adv-x="723" 
d="M744 542h-233l-115 -542h-179l114 542h-240l45 158h625zM193 -80h184v-18l-162 -194h-116z" />
    <glyph glyph-name="uni0162" unicode="&#x162;" horiz-adv-x="723" 
d="M744 542h-233l-115 -542h-179l114 542h-240l45 158h625zM193 -80h184v-18l-162 -194h-116z" />
    <glyph glyph-name="uni0163" unicode="&#x21b;" horiz-adv-x="447" 
d="M80 0l88 413h-116l54 134h90l26 123l176 20l-30 -143h117l-29 -134h-117l-88 -413h-171zM50 -80h184v-18l-162 -194h-116z" />
    <glyph glyph-name="uni0163" unicode="&#x163;" horiz-adv-x="447" 
d="M80 0l88 413h-116l54 134h90l26 123l176 20l-30 -143h117l-29 -134h-117l-88 -413h-171zM50 -80h184v-18l-162 -194h-116z" />
    <glyph glyph-name="uni0163.sc" horiz-adv-x="680" 
d="M201 0l97 454h-218l42 145h573l-15 -145h-209l-97 -454h-173zM181 -80h184v-18l-162 -194h-116z" />
    <glyph glyph-name="Uacute" unicode="&#xda;" horiz-adv-x="811" 
d="M558 758h-159l150 171h210v-11zM376 -19c-175 0 -297 69 -297 225c0 30 4 62 11 96l85 398h180l-87 -408c-4 -21 -6 -37 -6 -56c0 -67 52 -93 122 -93c85 0 147 31 170 141l88 416h180l-92 -435c-44 -207 -166 -284 -354 -284z" />
    <glyph glyph-name="uacute" unicode="&#xfa;" horiz-adv-x="667" 
d="M465 610h-159l150 171h210v-11zM293 133c39 0 75 17 108 43l79 371h173l-116 -547h-170l16 77c-41 -53 -105 -95 -179 -95c-89 0 -157 54 -157 154c0 20 3 44 13 89l68 322h173l-66 -308c-5 -28 -6 -40 -6 -50c0 -40 26 -56 64 -56z" />
    <glyph glyph-name="uacute.sc" horiz-adv-x="750" 
d="M512 658h-159l150 171h210v-11zM342 -19c-162 0 -270 64 -270 197c0 30 4 61 11 92l71 329h173l-73 -345c-4 -17 -6 -34 -6 -49c0 -54 40 -77 106 -77c64 0 117 27 135 111l77 360h173l-80 -372c-38 -180 -146 -246 -317 -246z" />
    <glyph glyph-name="Ubreve" unicode="&#x16c;" horiz-adv-x="811" 
d="M340 959h119c-5 -18 -8 -31 -8 -45c0 -32 23 -50 65 -50c59 0 84 39 84 92v3h121c1 -12 1 -11 1 -18c0 -113 -73 -192 -211 -192c-118 0 -187 49 -187 136c0 22 6 52 16 74zM376 -19c-175 0 -297 69 -297 225c0 30 4 62 11 96l85 398h180l-87 -408c-4 -21 -6 -37 -6 -56
c0 -67 52 -93 122 -93c85 0 147 31 170 141l88 416h180l-92 -435c-44 -207 -166 -284 -354 -284z" />
    <glyph glyph-name="ubreve" unicode="&#x16d;" horiz-adv-x="667" 
d="M247 811h119c-5 -18 -8 -31 -8 -45c0 -32 23 -50 65 -50c59 0 84 39 84 92v3h121c1 -12 1 -11 1 -18c0 -113 -73 -192 -211 -192c-118 0 -187 49 -187 136c0 22 6 52 16 74zM293 133c39 0 75 17 108 43l79 371h173l-116 -547h-170l16 77c-41 -53 -105 -95 -179 -95
c-89 0 -157 54 -157 154c0 20 3 44 13 89l68 322h173l-66 -308c-5 -28 -6 -40 -6 -50c0 -40 26 -56 64 -56z" />
    <glyph glyph-name="ubreve.sc" horiz-adv-x="750" 
d="M295 859h119c-5 -18 -8 -31 -8 -45c0 -32 23 -50 65 -50c59 0 84 39 84 92v3h121c1 -12 1 -11 1 -18c0 -113 -73 -192 -211 -192c-118 0 -187 49 -187 136c0 22 6 52 16 74zM342 -19c-162 0 -270 64 -270 197c0 30 4 61 11 92l71 329h173l-73 -345c-4 -17 -6 -34 -6 -49
c0 -54 40 -77 106 -77c64 0 117 27 135 111l77 360h173l-80 -372c-38 -180 -146 -246 -317 -246z" />
    <glyph glyph-name="Ucircumflex" unicode="&#xdb;" horiz-adv-x="811" 
d="M267 774l171 188h195l96 -188h-146l-42 83h-38l-74 -83h-162zM376 -19c-175 0 -297 69 -297 225c0 30 4 62 11 96l85 398h180l-87 -408c-4 -21 -6 -37 -6 -56c0 -67 52 -93 122 -93c85 0 147 31 170 141l88 416h180l-92 -435c-44 -207 -166 -284 -354 -284z" />
    <glyph glyph-name="ucircumflex" unicode="&#xfb;" horiz-adv-x="667" 
d="M173 621l171 188h195l96 -188h-146l-42 83h-38l-74 -83h-162zM293 133c39 0 75 17 108 43l79 371h173l-116 -547h-170l16 77c-41 -53 -105 -95 -179 -95c-89 0 -157 54 -157 154c0 20 3 44 13 89l68 322h173l-66 -308c-5 -28 -6 -40 -6 -50c0 -40 26 -56 64 -56z" />
    <glyph glyph-name="ucircumflex.sc" horiz-adv-x="750" 
d="M222 674l171 188h195l96 -188h-146l-42 83h-38l-74 -83h-162zM342 -19c-162 0 -270 64 -270 197c0 30 4 61 11 92l71 329h173l-73 -345c-4 -17 -6 -34 -6 -49c0 -54 40 -77 106 -77c64 0 117 27 135 111l77 360h173l-80 -372c-38 -180 -146 -246 -317 -246z" />
    <glyph glyph-name="Udieresis" unicode="&#xdc;" horiz-adv-x="811" 
d="M482 863c0 -51 -40 -94 -105 -94c-57 0 -87 34 -87 79c0 51 40 93 105 93c57 0 87 -33 87 -78zM743 863c0 -51 -40 -94 -105 -94c-57 0 -87 34 -87 79c0 51 40 93 104 93c58 0 88 -33 88 -78zM376 -19c-175 0 -297 69 -297 225c0 30 4 62 11 96l85 398h180l-87 -408
c-4 -21 -6 -37 -6 -56c0 -67 52 -93 122 -93c85 0 147 31 170 141l88 416h180l-92 -435c-44 -207 -166 -284 -354 -284z" />
    <glyph glyph-name="udieresis" unicode="&#xfc;" horiz-adv-x="667" 
d="M387 710c0 -51 -40 -94 -105 -94c-57 0 -87 34 -87 79c0 51 40 93 105 93c57 0 87 -33 87 -78zM648 710c0 -51 -40 -94 -105 -94c-57 0 -87 34 -87 79c0 51 40 93 104 93c58 0 88 -33 88 -78zM293 133c39 0 75 17 108 43l79 371h173l-116 -547h-170l16 77
c-41 -53 -105 -95 -179 -95c-89 0 -157 54 -157 154c0 20 3 44 13 89l68 322h173l-66 -308c-5 -28 -6 -40 -6 -50c0 -40 26 -56 64 -56z" />
    <glyph glyph-name="udieresis.sc" horiz-adv-x="750" 
d="M436 763c0 -51 -40 -94 -105 -94c-57 0 -87 34 -87 79c0 51 40 93 105 93c57 0 87 -33 87 -78zM697 763c0 -51 -40 -94 -105 -94c-57 0 -87 34 -87 79c0 51 40 93 104 93c58 0 88 -33 88 -78zM342 -19c-162 0 -270 64 -270 197c0 30 4 61 11 92l71 329h173l-73 -345
c-4 -17 -6 -34 -6 -49c0 -54 40 -77 106 -77c64 0 117 27 135 111l77 360h173l-80 -372c-38 -180 -146 -246 -317 -246z" />
    <glyph glyph-name="Ugrave" unicode="&#xd9;" horiz-adv-x="811" 
d="M464 929l124 -171h-156l-170 160v11h202zM376 -19c-175 0 -297 69 -297 225c0 30 4 62 11 96l85 398h180l-87 -408c-4 -21 -6 -37 -6 -56c0 -67 52 -93 122 -93c85 0 147 31 170 141l88 416h180l-92 -435c-44 -207 -166 -284 -354 -284z" />
    <glyph glyph-name="ugrave" unicode="&#xf9;" horiz-adv-x="667" 
d="M371 781l124 -171h-156l-170 160v11h202zM293 133c39 0 75 17 108 43l79 371h173l-116 -547h-170l16 77c-41 -53 -105 -95 -179 -95c-89 0 -157 54 -157 154c0 20 3 44 13 89l68 322h173l-66 -308c-5 -28 -6 -40 -6 -50c0 -40 26 -56 64 -56z" />
    <glyph glyph-name="ugrave.sc" horiz-adv-x="750" 
d="M418 829l124 -171h-156l-170 160v11h202zM342 -19c-162 0 -270 64 -270 197c0 30 4 61 11 92l71 329h173l-73 -345c-4 -17 -6 -34 -6 -49c0 -54 40 -77 106 -77c64 0 117 27 135 111l77 360h173l-80 -372c-38 -180 -146 -246 -317 -246z" />
    <glyph glyph-name="Uhungarumlaut" unicode="&#x170;" horiz-adv-x="811" 
d="M546 774l134 172h181v-12l-185 -160h-130zM314 774l131 172h182v-12l-183 -160h-130zM376 -19c-175 0 -297 69 -297 225c0 30 4 62 11 96l85 398h180l-87 -408c-4 -21 -6 -37 -6 -56c0 -67 52 -93 122 -93c85 0 147 31 170 141l88 416h180l-92 -435
c-44 -207 -166 -284 -354 -284z" />
    <glyph glyph-name="uhungarumlaut" unicode="&#x171;" horiz-adv-x="667" 
d="M450 621l134 172h181v-12l-185 -160h-130zM218 621l131 172h182v-12l-183 -160h-130zM293 133c39 0 75 17 108 43l79 371h173l-116 -547h-170l16 77c-41 -53 -105 -95 -179 -95c-89 0 -157 54 -157 154c0 20 3 44 13 89l68 322h173l-66 -308c-5 -28 -6 -40 -6 -50
c0 -40 26 -56 64 -56z" />
    <glyph glyph-name="uhungarumlaut.sc" horiz-adv-x="750" 
d="M475 674l134 172h181v-12l-185 -160h-130zM243 674l131 172h182v-12l-183 -160h-130zM342 -19c-162 0 -270 64 -270 197c0 30 4 61 11 92l71 329h173l-73 -345c-4 -17 -6 -34 -6 -49c0 -54 40 -77 106 -77c64 0 117 27 135 111l77 360h173l-80 -372
c-38 -180 -146 -246 -317 -246z" />
    <glyph glyph-name="Umacron" unicode="&#x16a;" horiz-adv-x="811" 
d="M309 792l25 119h388l-26 -119h-387zM376 -19c-175 0 -297 69 -297 225c0 30 4 62 11 96l85 398h180l-87 -408c-4 -21 -6 -37 -6 -56c0 -67 52 -93 122 -93c85 0 147 31 170 141l88 416h180l-92 -435c-44 -207 -166 -284 -354 -284z" />
    <glyph glyph-name="umacron" unicode="&#x16b;" horiz-adv-x="667" 
d="M215 639l25 119h388l-26 -119h-387zM293 133c39 0 75 17 108 43l79 371h173l-116 -547h-170l16 77c-41 -53 -105 -95 -179 -95c-89 0 -157 54 -157 154c0 20 3 44 13 89l68 322h173l-66 -308c-5 -28 -6 -40 -6 -50c0 -40 26 -56 64 -56z" />
    <glyph glyph-name="umacron.sc" horiz-adv-x="750" 
d="M264 692l25 119h388l-26 -119h-387zM342 -19c-162 0 -270 64 -270 197c0 30 4 61 11 92l71 329h173l-73 -345c-4 -17 -6 -34 -6 -49c0 -54 40 -77 106 -77c64 0 117 27 135 111l77 360h173l-80 -372c-38 -180 -146 -246 -317 -246z" />
    <glyph glyph-name="Uogonek" unicode="&#x172;" horiz-adv-x="811" 
d="M451 -287c-33 -13 -67 -18 -115 -18c-99 0 -159 42 -159 114c0 67 45 119 128 176c-136 17 -226 87 -226 221c0 30 4 62 11 96l85 398h180l-87 -408c-4 -21 -6 -37 -6 -56c0 -67 52 -93 122 -93c85 0 147 31 170 141l88 416h180l-92 -435c-38 -178 -133 -260 -278 -279
l-51 -46c-59 -53 -71 -69 -71 -91s15 -35 57 -35c27 0 58 5 91 16z" />
    <glyph glyph-name="uogonek" unicode="&#x173;" horiz-adv-x="667" 
d="M293 133c39 0 75 17 108 43l79 371h173l-116 -547l-59 -53c-59 -53 -71 -69 -71 -91s15 -35 57 -35c27 0 58 5 91 16l-27 -117c-33 -13 -67 -18 -115 -18c-99 0 -159 42 -159 114c0 62 38 110 109 163l20 98c-41 -53 -105 -95 -179 -95c-89 0 -157 54 -157 154
c0 20 3 44 13 89l68 322h173l-66 -308c-5 -28 -6 -40 -6 -50c0 -40 26 -56 64 -56z" />
    <glyph glyph-name="uogonek.sc" horiz-adv-x="750" 
d="M414 -282c-33 -13 -67 -18 -115 -18c-99 0 -159 42 -159 114c0 65 43 117 123 173c-117 18 -191 81 -191 191c0 30 4 61 11 92l71 329h173l-73 -345c-4 -17 -6 -34 -6 -49c0 -54 40 -77 106 -77c64 0 117 27 135 111l77 360h173l-80 -372c-33 -156 -118 -226 -251 -242
l-44 -40c-59 -53 -71 -69 -71 -91s15 -35 57 -35c27 0 58 5 91 16z" />
    <glyph glyph-name="Uring" unicode="&#x16e;" horiz-adv-x="811" 
d="M522 749c-108 0 -168 63 -168 143c0 93 71 169 191 169c108 0 168 -63 168 -144c0 -92 -71 -168 -191 -168zM527 841c51 0 76 33 76 72c0 32 -22 56 -63 56c-51 0 -77 -34 -77 -72c0 -32 23 -56 64 -56zM376 -19c-175 0 -297 69 -297 225c0 30 4 62 11 96l85 398h180
l-87 -408c-4 -21 -6 -37 -6 -56c0 -67 52 -93 122 -93c85 0 147 31 170 141l88 416h180l-92 -435c-44 -207 -166 -284 -354 -284z" />
    <glyph glyph-name="uring" unicode="&#x16f;" horiz-adv-x="667" 
d="M427 601c-108 0 -168 63 -168 143c0 93 71 169 191 169c108 0 168 -63 168 -144c0 -92 -71 -168 -191 -168zM432 693c51 0 76 33 76 72c0 32 -22 56 -63 56c-51 0 -77 -34 -77 -72c0 -32 23 -56 64 -56zM293 133c39 0 75 17 108 43l79 371h173l-116 -547h-170l16 77
c-41 -53 -105 -95 -179 -95c-89 0 -157 54 -157 154c0 20 3 44 13 89l68 322h173l-66 -308c-5 -28 -6 -40 -6 -50c0 -40 26 -56 64 -56z" />
    <glyph glyph-name="uring.sc" horiz-adv-x="750" 
d="M476 649c-108 0 -168 63 -168 143c0 93 71 169 191 169c108 0 168 -63 168 -144c0 -92 -71 -168 -191 -168zM481 741c51 0 76 33 76 72c0 32 -22 56 -63 56c-51 0 -77 -34 -77 -72c0 -32 23 -56 64 -56zM342 -19c-162 0 -270 64 -270 197c0 30 4 61 11 92l71 329h173
l-73 -345c-4 -17 -6 -34 -6 -49c0 -54 40 -77 106 -77c64 0 117 27 135 111l77 360h173l-80 -372c-38 -180 -146 -246 -317 -246z" />
    <glyph glyph-name="Wacute" unicode="&#x1e82;" horiz-adv-x="1151" 
d="M758 775h-159l150 171h210v-11zM158 0l-37 700h181l19 -514h9l247 514h172l44 -514h9l222 514h190l-323 -700h-238l-34 453h-6l-219 -453h-236z" />
    <glyph glyph-name="wacute" unicode="&#x1e83;" horiz-adv-x="936" 
d="M619 622h-159l150 171h210v-11zM261 177l172 365h179l11 -365h15l164 370h178l-267 -547h-212l-10 342h-15l-160 -342h-212l-28 547h168l2 -370h15z" />
    <glyph glyph-name="wacute.sc" horiz-adv-x="1030" 
d="M675 675h-159l150 171h210v-11zM134 0l-28 599h173l7 -399h8l213 399h155l42 -399h7l179 399h177l-283 -599h-203l-38 375h-3l-201 -375h-205z" />
    <glyph glyph-name="Wcircumflex" unicode="&#x174;" horiz-adv-x="1151" 
d="M437 774l171 188h195l96 -188h-146l-42 83h-38l-74 -83h-162zM158 0l-37 700h181l19 -514h9l247 514h172l44 -514h9l222 514h190l-323 -700h-238l-34 453h-6l-219 -453h-236z" />
    <glyph glyph-name="wcircumflex" unicode="&#x175;" horiz-adv-x="936" 
d="M299 621l171 188h195l96 -188h-146l-42 83h-38l-74 -83h-162zM261 177l172 365h179l11 -365h15l164 370h178l-267 -547h-212l-10 342h-15l-160 -342h-212l-28 547h168l2 -370h15z" />
    <glyph glyph-name="wcircumflex.sc" horiz-adv-x="1030" 
d="M351 674l171 188h195l96 -188h-146l-42 83h-38l-74 -83h-162zM134 0l-28 599h173l7 -399h8l213 399h155l42 -399h7l179 399h177l-283 -599h-203l-38 375h-3l-201 -375h-205z" />
    <glyph glyph-name="Wdieresis" unicode="&#x1e84;" horiz-adv-x="1151" 
d="M651 863c0 -51 -40 -94 -105 -94c-57 0 -87 34 -87 79c0 51 40 93 105 93c57 0 87 -33 87 -78zM912 863c0 -51 -40 -94 -105 -94c-57 0 -87 34 -87 79c0 51 40 93 104 93c58 0 88 -33 88 -78zM158 0l-37 700h181l19 -514h9l247 514h172l44 -514h9l222 514h190l-323 -700
h-238l-34 453h-6l-219 -453h-236z" />
    <glyph glyph-name="wdieresis" unicode="&#x1e85;" horiz-adv-x="936" 
d="M514 710c0 -51 -40 -94 -105 -94c-57 0 -87 34 -87 79c0 51 40 93 105 93c57 0 87 -33 87 -78zM775 710c0 -51 -40 -94 -105 -94c-57 0 -87 34 -87 79c0 51 40 93 104 93c58 0 88 -33 88 -78zM261 177l172 365h179l11 -365h15l164 370h178l-267 -547h-212l-10 342h-15
l-160 -342h-212l-28 547h168l2 -370h15z" />
    <glyph glyph-name="wdieresis.sc" horiz-adv-x="1030" 
d="M565 763c0 -51 -40 -94 -105 -94c-57 0 -87 34 -87 79c0 51 40 93 105 93c57 0 87 -33 87 -78zM826 763c0 -51 -40 -94 -105 -94c-57 0 -87 34 -87 79c0 51 40 93 104 93c58 0 88 -33 88 -78zM134 0l-28 599h173l7 -399h8l213 399h155l42 -399h7l179 399h177l-283 -599
h-203l-38 375h-3l-201 -375h-205z" />
    <glyph glyph-name="Wgrave" unicode="&#x1e80;" horiz-adv-x="1151" 
d="M627 946l124 -171h-156l-170 160v11h202zM158 0l-37 700h181l19 -514h9l247 514h172l44 -514h9l222 514h190l-323 -700h-238l-34 453h-6l-219 -453h-236z" />
    <glyph glyph-name="wgrave" unicode="&#x1e81;" horiz-adv-x="936" 
d="M488 793l124 -171h-156l-170 160v11h202zM261 177l172 365h179l11 -365h15l164 370h178l-267 -547h-212l-10 342h-15l-160 -342h-212l-28 547h168l2 -370h15z" />
    <glyph glyph-name="wgrave.sc" horiz-adv-x="1030" 
d="M544 846l124 -171h-156l-170 160v11h202zM134 0l-28 599h173l7 -399h8l213 399h155l42 -399h7l179 399h177l-283 -599h-203l-38 375h-3l-201 -375h-205z" />
    <glyph glyph-name="Yacute" unicode="&#xdd;" horiz-adv-x="760" 
d="M525 758h-159l150 171h210v-11zM636 700h210l-382 -483l-46 -217h-180l46 218l-192 482h185l118 -304h11z" />
    <glyph glyph-name="yacute" unicode="&#xfd;" horiz-adv-x="601" 
d="M424 610h-159l150 171h210v-11zM47 -203l101 184l-78 566h169l38 -370l195 370h182l-429 -750h-178z" />
    <glyph glyph-name="yacute.sc" horiz-adv-x="702" 
d="M480 657h-159l150 171h210v-11zM216 0l40 190l-179 408v1h181l105 -246h10l188 246h202v-1l-335 -411l-39 -187h-173z" />
    <glyph glyph-name="Ycircumflex" unicode="&#x176;" horiz-adv-x="760" 
d="M235 774l171 188h195l96 -188h-146l-42 83h-38l-74 -83h-162zM636 700h210l-382 -483l-46 -217h-180l46 218l-192 482h185l118 -304h11z" />
    <glyph glyph-name="ycircumflex" unicode="&#x177;" horiz-adv-x="601" 
d="M132 621l171 188h195l96 -188h-146l-42 83h-38l-74 -83h-162zM47 -203l101 184l-78 566h169l38 -370l195 370h182l-429 -750h-178z" />
    <glyph glyph-name="ycircumflex.sc" horiz-adv-x="702" 
d="M189 674l171 188h195l96 -188h-146l-42 83h-38l-74 -83h-162zM216 0l40 190l-179 408v1h181l105 -246h10l188 246h202v-1l-335 -411l-39 -187h-173z" />
    <glyph glyph-name="Ydieresis" unicode="&#x178;" horiz-adv-x="760" 
d="M449 863c0 -51 -40 -94 -105 -94c-57 0 -87 34 -87 79c0 51 40 93 105 93c57 0 87 -33 87 -78zM710 863c0 -51 -40 -94 -105 -94c-57 0 -87 34 -87 79c0 51 40 93 104 93c58 0 88 -33 88 -78zM636 700h210l-382 -483l-46 -217h-180l46 218l-192 482h185l118 -304h11z" />
    <glyph glyph-name="ydieresis" unicode="&#xff;" horiz-adv-x="601" 
d="M347 710c0 -51 -40 -94 -105 -94c-57 0 -87 34 -87 79c0 51 40 93 105 93c57 0 87 -33 87 -78zM608 710c0 -51 -40 -94 -105 -94c-57 0 -87 34 -87 79c0 51 40 93 104 93c58 0 88 -33 88 -78zM47 -203l101 184l-78 566h169l38 -370l195 370h182l-429 -750h-178z" />
    <glyph glyph-name="ydieresis.sc" horiz-adv-x="702" 
d="M404 763c0 -51 -40 -94 -105 -94c-57 0 -87 34 -87 79c0 51 40 93 105 93c57 0 87 -33 87 -78zM665 763c0 -51 -40 -94 -105 -94c-57 0 -87 34 -87 79c0 51 40 93 104 93c58 0 88 -33 88 -78zM216 0l40 190l-179 408v1h181l105 -246h10l188 246h202v-1l-335 -411
l-39 -187h-173z" />
    <glyph glyph-name="Ygrave" unicode="&#x1ef2;" horiz-adv-x="760" 
d="M431 929l124 -171h-156l-170 160v11h202zM636 700h210l-382 -483l-46 -217h-180l46 218l-192 482h185l118 -304h11z" />
    <glyph glyph-name="ygrave" unicode="&#x1ef3;" horiz-adv-x="601" 
d="M330 781l124 -171h-156l-170 160v11h202zM47 -203l101 184l-78 566h169l38 -370l195 370h182l-429 -750h-178z" />
    <glyph glyph-name="ygrave.sc" horiz-adv-x="702" 
d="M386 828l124 -171h-156l-170 160v11h202zM216 0l40 190l-179 408v1h181l105 -246h10l188 246h202v-1l-335 -411l-39 -187h-173z" />
    <glyph glyph-name="Zacute" unicode="&#x179;" horiz-adv-x="735" 
d="M530 775h-159l150 171h210v-11zM3 0l34 164l458 383h-365l43 153h594l-31 -149l-472 -397h389l-32 -154h-618z" />
    <glyph glyph-name="zacute" unicode="&#x17a;" horiz-adv-x="566" 
d="M419 622h-159l150 171h210v-11zM-5 0l26 128l317 283h-250l36 136h455l-27 -126l-323 -286h263l-29 -135h-468z" />
    <glyph glyph-name="zacute.sc" horiz-adv-x="685" 
d="M483 675h-159l150 171h210v-11zM12 0l33 150l388 307h-321l41 142h539l-30 -136l-400 -320h341l-30 -143h-561z" />
    <glyph glyph-name="Zcaron" unicode="&#x17d;" horiz-adv-x="735" 
d="M571 774h-194l-94 188h145l43 -83h37l77 83h162zM3 0l34 164l458 383h-365l43 153h594l-31 -149l-472 -397h389l-32 -154h-618z" />
    <glyph glyph-name="zcaron" unicode="&#x17e;" horiz-adv-x="566" 
d="M460 621h-194l-94 188h145l43 -83h37l77 83h162zM-5 0l26 128l317 283h-250l36 136h455l-27 -126l-323 -286h263l-29 -135h-468z" />
    <glyph glyph-name="zcaron.sc" horiz-adv-x="685" 
d="M524 674h-194l-94 188h145l43 -83h37l77 83h162zM12 0l33 150l388 307h-321l41 142h539l-30 -136l-400 -320h341l-30 -143h-561z" />
    <glyph glyph-name="Zdotaccent" unicode="&#x17b;" horiz-adv-x="735" 
d="M377 849c0 53 41 97 115 97c64 0 97 -34 97 -81c0 -53 -42 -97 -114 -97c-66 0 -98 34 -98 81zM3 0l34 164l458 383h-365l43 153h594l-31 -149l-472 -397h389l-32 -154h-618z" />
    <glyph glyph-name="zdotaccent" unicode="&#x17c;" horiz-adv-x="566" 
d="M266 696c0 53 41 97 115 97c64 0 97 -34 97 -81c0 -53 -42 -97 -114 -97c-66 0 -98 34 -98 81zM-5 0l26 128l317 283h-250l36 136h455l-27 -126l-323 -286h263l-29 -135h-468z" />
    <glyph glyph-name="zdotaccent.sc" horiz-adv-x="685" 
d="M330 749c0 53 41 97 115 97c64 0 97 -34 97 -81c0 -53 -42 -97 -114 -97c-66 0 -98 34 -98 81zM12 0l33 150l388 307h-321l41 142h539l-30 -136l-400 -320h341l-30 -143h-561z" />
    <glyph glyph-name="Thorn" unicode="&#xde;" horiz-adv-x="759" 
d="M181 700h180l-20 -92h136c193 0 270 -93 270 -224c0 -155 -102 -285 -301 -285h-213l-21 -99h-180zM309 455l-44 -204h169c94 0 133 60 133 122c0 49 -25 82 -100 82h-158z" />
    <glyph glyph-name="thorn" unicode="&#xfe;" horiz-adv-x="667" 
d="M445 560c103 0 189 -70 189 -218c0 -201 -134 -358 -309 -358c-55 0 -97 13 -131 33l-47 -220h-173l206 970h173l-59 -275c36 39 86 68 151 68zM375 421c-39 0 -76 -16 -103 -40l-49 -228c23 -18 53 -30 88 -30c98 0 154 96 154 197c0 75 -37 101 -90 101z" />
    <glyph glyph-name="thorn.sc" horiz-adv-x="693" 
d="M33 0l127 599h174l-16 -76h90c184 0 254 -83 254 -194c0 -128 -82 -248 -280 -248h-158l-18 -81h-173zM288 385l-35 -167h126c82 0 116 47 116 100c0 46 -28 67 -90 67h-117z" />
    <glyph glyph-name="uni0259" unicode="&#x259;" horiz-adv-x="613" 
d="M276 428c-75 0 -141 -25 -190 -53h-1l31 144c42 24 103 46 186 46c175 0 273 -98 273 -251c0 -176 -124 -331 -313 -331c-140 0 -225 87 -225 223c0 35 6 73 18 111h357c-3 83 -57 111 -136 111zM190 198c0 -50 26 -85 83 -83c60 1 107 45 127 107h-208
c-2 -8 -2 -17 -2 -24z" />
    <glyph glyph-name="zero" unicode="0" horiz-adv-x="750" 
d="M356 -17c-190 0 -298 118 -298 301c0 211 125 434 372 434c190 0 298 -118 298 -302c0 -211 -125 -433 -372 -433zM362 131c133 0 196 151 196 279c0 110 -54 159 -134 159c-133 0 -196 -151 -196 -279c0 -110 54 -159 134 -159z" />
    <glyph glyph-name="one" unicode="1" horiz-adv-x="448" 
d="M279 0h-175l118 553h-125l54 147h277z" />
    <glyph glyph-name="one.alt" horiz-adv-x="401" 
d="M57 0l149 700h174l-149 -700h-174z" />
    <glyph glyph-name="two" unicode="2" horiz-adv-x="663" 
d="M402 718c160 0 250 -78 250 -196c0 -116 -84 -180 -252 -292l-125 -82h322l-32 -148h-563l32 152l257 174c157 105 187 135 187 176c0 39 -29 65 -97 65c-81 0 -171 -36 -264 -86h-1l37 172c80 42 166 65 249 65z" />
    <glyph glyph-name="two.alt" horiz-adv-x="668" 
d="M669 527c0 -119 -78 -177 -251 -242c-126 -47 -185 -75 -200 -139l379 1l-32 -147h-564l11 59c34 193 124 271 324 345c141 53 159 77 159 108c0 30 -30 55 -101 55c-82 0 -182 -37 -266 -87h-1l38 175c74 39 164 62 251 62c157 0 253 -71 253 -190z" />
    <glyph glyph-name="three" unicode="3" horiz-adv-x="669" 
d="M190 299l19 88l234 166h-321l42 147h522l-29 -136l-231 -165c118 -19 190 -80 190 -180c0 -139 -123 -237 -322 -237c-113 0 -207 29 -286 71l33 148h1c79 -45 172 -72 253 -72c94 0 147 36 147 88c0 55 -61 79 -202 82h-50z" />
    <glyph glyph-name="three.alt" horiz-adv-x="668" 
d="M657 537c0 -109 -107 -167 -181 -184v-2c61 -15 137 -66 137 -154c0 -129 -117 -215 -306 -215c-119 0 -227 32 -293 68l31 147h1c75 -41 166 -68 257 -68s136 33 136 83c0 56 -68 76 -197 76h-47l27 130h47c135 0 220 37 220 92c0 41 -43 62 -130 62
c-78 0 -166 -23 -239 -51h-1l33 153c68 28 149 45 233 45c162 0 272 -67 272 -182z" />
    <glyph glyph-name="four" unicode="4" horiz-adv-x="738" 
d="M375 0l32 149h-402l36 130l303 421h345l-87 -409h118l-41 -142h-107l-32 -149h-165zM234 290h205l57 266h-76z" />
    <glyph glyph-name="five" unicode="5" horiz-adv-x="665" 
d="M20 46l32 148h1c70 -35 151 -64 247 -65c106 0 144 40 144 88c0 56 -60 84 -248 84h-106l94 399h470l-16 -146h-330l-28 -117c237 -3 337 -79 337 -213c0 -140 -107 -242 -319 -242c-111 0 -209 28 -278 64z" />
    <glyph glyph-name="six" unicode="6" horiz-adv-x="699" 
d="M659 247c0 -154 -121 -266 -299 -266c-185 0 -300 108 -300 306c0 229 134 433 396 433c102 0 194 -35 237 -65l-33 -147h-1c-53 35 -123 65 -205 65c-124 0 -188 -69 -214 -162c57 31 117 48 174 48c146 0 245 -78 245 -212zM226 278c0 -123 70 -156 138 -156
c83 0 129 49 129 112c0 61 -44 93 -119 93c-51 0 -94 -11 -148 -38v-11z" />
    <glyph glyph-name="seven" unicode="7" horiz-adv-x="657" 
d="M285 0h-198l412 525l7 32h-248l-26 -118h-160l56 261h581l-44 -213z" />
    <glyph glyph-name="seven.alt" horiz-adv-x="657" 
d="M115 0c81 238 227 394 386 526l6 31h-249l-26 -118h-160l56 261h581l-50 -237c-158 -126 -291 -255 -364 -463h-180z" />
    <glyph glyph-name="eight" unicode="8" horiz-adv-x="716" 
d="M329 -24c-199 0 -298 77 -298 191c0 96 70 171 182 196c-59 27 -99 75 -99 140c0 109 93 218 313 218c190 0 281 -89 281 -197c0 -91 -72 -158 -164 -179c73 -30 114 -79 114 -151c0 -114 -101 -218 -329 -218zM402 409c81 0 135 39 135 97c0 52 -41 80 -117 80
c-82 0 -135 -38 -135 -97c0 -51 41 -80 117 -80zM352 295c-92 0 -146 -40 -146 -99c0 -52 43 -84 129 -84c94 0 148 38 148 98c0 53 -43 85 -131 85z" />
    <glyph glyph-name="nine" unicode="9" horiz-adv-x="699" 
d="M675 413c0 -229 -134 -433 -396 -433c-102 0 -194 35 -237 65l33 147h1c53 -35 123 -65 205 -65c124 0 188 69 214 162c-57 -31 -117 -48 -174 -48c-146 0 -245 78 -245 212c0 154 121 266 299 266c185 0 300 -108 300 -306zM242 466c0 -61 44 -93 119 -93
c51 0 94 11 148 38v11c0 123 -70 156 -138 156c-83 0 -129 -49 -129 -112z" />
    <glyph glyph-name="zero.osf" horiz-adv-x="716" 
d="M394 619c173 0 284 -103 284 -274c0 -194 -119 -366 -342 -366c-173 0 -285 103 -285 274c0 194 120 366 343 366zM345 122c110 0 167 104 167 217c0 82 -43 137 -127 137c-111 0 -167 -105 -167 -217c0 -83 43 -137 127 -137z" />
    <glyph glyph-name="one.osf" horiz-adv-x="447" 
d="M104 0l98 453h-126l53 146h276l-128 -599h-173z" />
    <glyph glyph-name="two.osf" horiz-adv-x="637" 
d="M12 0l33 138l221 136c119 71 159 107 159 147c0 28 -22 49 -81 49c-71 0 -153 -30 -232 -72h-1l36 165c70 33 140 53 219 53c141 0 230 -63 230 -170c0 -98 -70 -164 -201 -243l-102 -63l272 1l-31 -141h-522z" />
    <glyph glyph-name="three.osf" horiz-adv-x="599" 
d="M242 -119c-93 0 -184 23 -251 58l30 141h1c66 -35 142 -58 217 -58c77 0 123 27 123 83c0 57 -60 86 -203 92l-23 1l18 83l218 177h-292l41 141h476l-30 -138l-217 -173c108 -24 180 -79 180 -186c0 -135 -111 -221 -288 -221z" />
    <glyph glyph-name="four.osf" horiz-adv-x="694" 
d="M331 -101l31 146h-367l28 129l284 425h331l-90 -417h113l-40 -137h-101l-31 -146h-158zM202 180h191l58 275h-69z" />
    <glyph glyph-name="five.osf" horiz-adv-x="602" 
d="M-12 -61l31 140h1c62 -32 139 -58 219 -58c94 0 127 39 127 89c0 56 -69 89 -250 94l-53 1l92 394h423l-14 -142h-286l-30 -127c183 -14 285 -81 285 -212c0 -136 -97 -237 -291 -237c-100 0 -190 27 -254 58z" />
    <glyph glyph-name="six.osf" horiz-adv-x="660" 
d="M389 458c134 0 224 -82 224 -207c0 -152 -112 -269 -276 -269c-168 0 -279 102 -279 300c0 231 138 436 386 436c93 0 170 -29 211 -55l-29 -140h-1c-49 29 -108 56 -183 56c-108 0 -175 -62 -205 -161c45 25 96 40 152 40zM219 276c-4 -107 52 -155 120 -155
c72 0 115 50 115 117c0 58 -36 95 -106 95c-42 0 -86 -12 -129 -36v-10v-11z" />
    <glyph glyph-name="seven.osf" horiz-adv-x="614" 
d="M243 -101h-188l379 530l7 31h-205l-26 -115h-154l54 254h536l-40 -193z" />
    <glyph glyph-name="eight.osf" horiz-adv-x="676" 
d="M408 721c184 0 262 -92 262 -194c0 -95 -66 -161 -155 -182c71 -32 107 -83 107 -153c0 -112 -92 -216 -307 -216c-187 0 -280 73 -280 193c0 95 68 168 173 194c-54 28 -91 71 -91 142c0 108 90 216 291 216zM403 588c-74 0 -123 -38 -123 -97c0 -53 37 -81 104 -81
c74 0 124 38 124 97c0 53 -38 81 -105 81zM317 110c85 0 138 39 138 100c0 51 -38 84 -117 84c-85 0 -136 -40 -136 -101c0 -50 39 -83 115 -83z" />
    <glyph glyph-name="nine.osf" horiz-adv-x="660" 
d="M286 140c-134 0 -224 82 -224 207c0 152 112 269 276 269c168 0 279 -102 279 -300c0 -231 -138 -436 -386 -436c-93 0 -170 29 -211 55l29 140h1c49 -29 108 -56 183 -56c108 0 175 62 205 161c-45 -25 -96 -40 -152 -40zM221 360c0 -58 36 -95 106 -95
c42 0 86 12 129 36v10v11c4 107 -52 155 -120 155c-72 0 -115 -50 -115 -117z" />
    <glyph glyph-name="period" unicode="." horiz-adv-x="401" 
d="M47 84c0 61 49 113 128 113c68 0 105 -41 105 -95c0 -61 -48 -113 -127 -113c-69 0 -106 41 -106 95z" />
    <glyph glyph-name="comma" unicode="," horiz-adv-x="384" 
d="M84 188h217v-30l-225 -308h-99z" />
    <glyph glyph-name="colon" unicode=":" horiz-adv-x="406" 
d="M125 435c0 61 49 113 128 113c68 0 105 -41 105 -95c0 -61 -48 -113 -127 -113c-69 0 -106 41 -106 95zM50 84c0 61 49 113 128 113c68 0 105 -41 105 -95c0 -61 -48 -113 -127 -113c-69 0 -106 41 -106 95z" />
    <glyph glyph-name="colon.fig" horiz-adv-x="406" 
d="M142 516c0 61 49 113 128 113c68 0 105 -41 105 -95c0 -61 -48 -113 -127 -113c-69 0 -106 41 -106 95zM67 165c0 61 49 113 128 113c68 0 105 -41 105 -95c0 -61 -48 -113 -127 -113c-69 0 -106 41 -106 95z" />
    <glyph glyph-name="semicolon" unicode=";" horiz-adv-x="406" 
d="M125 434c0 62 49 114 127 114c69 0 106 -41 106 -95c0 -61 -49 -113 -127 -113c-69 0 -106 40 -106 94zM84 188h217v-30l-225 -308h-99z" />
    <glyph glyph-name="ellipsis" unicode="&#x2026;" horiz-adv-x="1199" 
d="M47 84c0 61 49 113 128 113c68 0 105 -41 105 -95c0 -61 -48 -113 -127 -113c-69 0 -106 41 -106 95zM447 84c0 61 48 113 127 113c69 0 105 -41 105 -95c0 -61 -48 -113 -127 -113c-69 0 -105 41 -105 95zM846 84c0 61 48 113 127 113c69 0 106 -41 106 -95
c0 -61 -49 -113 -127 -113c-69 0 -106 41 -106 95z" />
    <glyph glyph-name="periodcentered" unicode="&#xb7;" horiz-adv-x="400" 
d="M97 316c0 61 49 113 128 113c68 0 105 -41 105 -95c0 -61 -48 -113 -127 -113c-69 0 -106 41 -106 95z" />
    <glyph glyph-name="periodcentered.cap" horiz-adv-x="400" 
d="M97 316c0 61 49 113 128 113c68 0 105 -41 105 -95c0 -61 -48 -113 -127 -113c-69 0 -106 41 -106 95z" />
    <glyph glyph-name="ampersand" unicode="&#x26;" horiz-adv-x="821" 
d="M238 -18c-134 0 -213 70 -213 179c0 122 107 198 247 277l-85 118l31 144h497l-13 -139h-328l193 -271c71 52 147 112 227 176h1l-42 -201c-36 -28 -73 -57 -110 -86l124 -179h-185l-63 87c-89 -60 -180 -105 -281 -105zM195 184c0 -33 21 -58 70 -58c50 0 110 29 178 75
l-93 128c-98 -55 -155 -96 -155 -145z" />
    <glyph glyph-name="ampersand.sc" horiz-adv-x="772" 
d="M656 599l-12 -128h-294l172 -219c66 44 137 91 207 144h1l-37 -179c-27 -19 -62 -44 -97 -68l117 -149h-177l-58 70c-83 -48 -168 -88 -258 -88c-121 0 -193 59 -193 152c0 107 90 168 220 236l-77 98l28 131h458zM190 157c0 -29 18 -44 55 -44c44 0 95 22 157 60
l-79 101c-88 -49 -133 -78 -133 -117z" />
    <glyph glyph-name="exclam" unicode="!" horiz-adv-x="405" 
d="M142 275l40 414l2 11h223l-2 -11l-137 -414h-126zM50 84c0 61 49 113 128 113c68 0 105 -41 105 -95c0 -61 -48 -113 -127 -113c-69 0 -106 41 -106 95z" />
    <glyph glyph-name="exclamdown" unicode="&#xa1;" horiz-adv-x="405" 
d="M360 470c0 -61 -49 -113 -128 -113c-68 0 -105 41 -105 95c0 61 48 113 127 113c69 0 106 -41 106 -95zM268 279l-40 -414l-2 -11h-223l2 11l137 414h126z" />
    <glyph glyph-name="exclamdown.cap" horiz-adv-x="405" 
d="M391 616c0 -61 -49 -113 -128 -113c-68 0 -105 41 -105 95c0 61 48 113 127 113c69 0 106 -41 106 -95zM299 425l-40 -414l-2 -11h-223l2 11l137 414h126z" />
    <glyph glyph-name="question" unicode="?" horiz-adv-x="587" 
d="M187 266l30 141c185 40 238 74 238 115c0 37 -39 53 -100 53c-77 0 -171 -26 -247 -67h-1l33 158c70 33 154 52 237 52c139 0 252 -63 252 -182c0 -144 -149 -229 -442 -270zM108 84c0 61 48 113 127 113c69 0 105 -41 105 -95c0 -61 -48 -113 -127 -113
c-69 0 -105 41 -105 95z" />
    <glyph glyph-name="questiondown" unicode="&#xbf;" horiz-adv-x="587" 
d="M484 470c0 -61 -48 -113 -127 -113c-69 0 -105 41 -105 95c0 61 48 113 127 113c69 0 105 -41 105 -95zM405 288l-30 -141c-185 -40 -238 -74 -238 -115c0 -37 39 -53 100 -53c77 0 171 26 247 67h1l-33 -158c-70 -33 -154 -52 -237 -52c-139 0 -252 63 -252 182
c0 144 149 229 442 270z" />
    <glyph glyph-name="questiondown.cap" horiz-adv-x="587" 
d="M515 616c0 -61 -48 -113 -127 -113c-69 0 -105 41 -105 95c0 61 48 113 127 113c69 0 105 -41 105 -95zM436 434l-30 -141c-185 -40 -238 -74 -238 -115c0 -37 39 -53 100 -53c77 0 171 26 247 67h1l-33 -158c-70 -33 -154 -52 -237 -52c-139 0 -252 63 -252 182
c0 144 149 229 442 270z" />
    <glyph glyph-name="quotedblleft" unicode="&#x201c;" horiz-adv-x="668" 
d="M304 700h92l-102 -320h-204v29zM589 700h92l-102 -320h-204v29z" />
    <glyph glyph-name="quotedblright" unicode="&#x201d;" horiz-adv-x="668" 
d="M196 380h-93l103 320h203v-29zM481 380h-92l102 320h203v-29z" />
    <glyph glyph-name="quoteleft" unicode="&#x2018;" horiz-adv-x="383" 
d="M304 700h92l-102 -320h-204v29z" />
    <glyph glyph-name="quoteright" unicode="&#x2019;" horiz-adv-x="383" 
d="M196 380h-93l103 320h203v-29z" />
    <glyph glyph-name="quotedblbase" unicode="&#x201e;" horiz-adv-x="655" 
d="M73 -133h-92l102 321h204v-30zM358 -133h-92l103 321h203v-30z" />
    <glyph glyph-name="quotesinglbase" unicode="&#x201a;" horiz-adv-x="370" 
d="M73 -133h-92l102 321h204v-30z" />
    <glyph glyph-name="guillemotleft" unicode="&#xab;" horiz-adv-x="776" 
d="M508 40l-156 226l3 13l229 227h193l-242 -243l150 -223h-177zM202 40l-167 236l3 13l216 217h194l-231 -233l162 -233h-177z" />
    <glyph glyph-name="guillemotleft.cap" horiz-adv-x="773" 
d="M524 117l-156 226l3 13l229 227h193l-242 -243l150 -223h-177zM218 117l-167 236l3 13l216 217h194l-231 -233l162 -233h-177z" />
    <glyph glyph-name="guillemotright" unicode="&#xbb;" horiz-adv-x="776" 
d="M272 507l156 -226l-3 -13l-229 -227h-193l242 243l-150 223h177zM578 507l167 -236l-3 -13l-216 -217h-194l231 233l-162 233h177z" />
    <glyph glyph-name="guillemotright.cap" horiz-adv-x="773" 
d="M288 584l156 -226l-3 -13l-229 -227h-193l242 243l-150 223h177zM594 584l167 -236l-3 -13l-216 -217h-194l231 233l-162 233h177z" />
    <glyph glyph-name="guilsinglleft" unicode="&#x2039;" horiz-adv-x="466" 
d="M190 40l-156 233l3 13l228 220h203l-244 -237l150 -229h-184z" />
    <glyph glyph-name="guilsinglleft.cap" horiz-adv-x="464" 
d="M206 117l-156 233l3 13l228 220h203l-244 -237l150 -229h-184z" />
    <glyph glyph-name="guilsinglright" unicode="&#x203a;" horiz-adv-x="466" 
d="M279 507l156 -233l-3 -13l-228 -220h-203l244 237l-150 229h184z" />
    <glyph glyph-name="guilsinglright.cap" horiz-adv-x="464" 
d="M295 584l156 -233l-3 -13l-228 -220h-203l244 237l-150 229h184z" />
    <glyph glyph-name="hyphen" unicode="-" horiz-adv-x="432" 
d="M412 402l-33 -156h-334l33 156h334z" />
    <glyph glyph-name="hyphen.cap" horiz-adv-x="432" 
d="M417 428l-33 -156h-334l33 156h334z" />
    <glyph glyph-name="endash" unicode="&#x2013;" horiz-adv-x="687" 
d="M66 247l33 152h546l-32 -152h-547z" />
    <glyph glyph-name="endash.cap" horiz-adv-x="687" 
d="M72 274l33 152h546l-32 -152h-547z" />
    <glyph glyph-name="emdash" unicode="&#x2014;" horiz-adv-x="851" 
d="M66 247l33 152h711l-33 -152h-711z" />
    <glyph glyph-name="emdash.cap" horiz-adv-x="851" 
d="M72 274l33 152h711l-33 -152h-711z" />
    <glyph glyph-name="underscore" unicode="_" horiz-adv-x="697" 
d="M-102 -188l27 128h709l-28 -128h-708z" />
    <glyph glyph-name="slash" unicode="/" horiz-adv-x="514" 
d="M-59 -202l476 969h168l-477 -969h-167z" />
    <glyph glyph-name="slash.cap" horiz-adv-x="514" 
d="M-47 -134l476 969h168l-477 -969h-167z" />
    <glyph glyph-name="bar" unicode="|" horiz-adv-x="515" 
d="M237 -202h-158l206 969h158z" />
    <glyph glyph-name="bar.cap" horiz-adv-x="515" 
d="M251 -134h-158l206 969h158z" />
    <glyph glyph-name="backslash" unicode="\" horiz-adv-x="553" 
d="M415 -202h-151l-124 969h152z" />
    <glyph glyph-name="backslash.cap" horiz-adv-x="553" 
d="M432 -134h-151l-124 969h152z" />
    <glyph glyph-name="parenleft" unicode="(" horiz-adv-x="460" 
d="M238 194c0 -140 35 -258 115 -397h-171c-61 91 -119 233 -119 396c0 242 147 448 297 574h199c-196 -174 -321 -362 -321 -573z" />
    <glyph glyph-name="parenleft.cap" horiz-adv-x="460" 
d="M252 262c0 -140 35 -258 115 -397h-171c-61 91 -119 233 -119 396c0 242 147 448 297 574h199c-196 -174 -321 -362 -321 -573z" />
    <glyph glyph-name="parenright" unicode=")" horiz-adv-x="460" 
d="M230 371c0 140 -35 258 -115 397h171c61 -91 119 -233 119 -396c0 -242 -147 -448 -297 -574h-199c196 174 321 362 321 573z" />
    <glyph glyph-name="parenright.cap" horiz-adv-x="460" 
d="M244 438c0 140 -35 258 -115 397h171c61 -91 119 -233 119 -396c0 -242 -147 -448 -297 -574h-199c196 174 321 362 321 573z" />
    <glyph glyph-name="bracketleft" unicode="[" horiz-adv-x="443" 
d="M-30 -202l206 969h337l-28 -131h-175l-150 -707h175l-29 -131h-336z" />
    <glyph glyph-name="bracketleft.cap" horiz-adv-x="443" 
d="M-16 -134l206 969h337l-28 -131h-175l-150 -707h175l-29 -131h-336z" />
    <glyph glyph-name="bracketright" unicode="]" horiz-adv-x="443" 
d="M480 767l-206 -969h-337l28 131h175l150 707h-175l29 131h336z" />
    <glyph glyph-name="bracketright.cap" horiz-adv-x="443" 
d="M494 835l-206 -969h-337l28 131h175l150 707h-175l29 131h336z" />
    <glyph glyph-name="braceleft" unicode="{" horiz-adv-x="0" 
d="M15 294l6 29l174 127l7 80c18 204 138 254 249 254c63 0 102 -10 148 -28l-29 -136h-1c-29 15 -66 24 -98 24c-52 0 -101 -24 -112 -141l-12 -120l-144 -98l98 -109l-38 -107c-10 -29 -16 -56 -16 -76c-1 -59 46 -74 99 -74c22 0 43 3 77 9h1l-29 -137
c-33 -7 -74 -10 -104 -10c-105 0 -206 50 -206 175c0 51 16 101 34 150l17 46z" />
    <glyph glyph-name="braceleft.cap" horiz-adv-x="530" 
d="M29 362l6 29l174 127l7 80c18 204 138 254 249 254c63 0 102 -10 148 -28l-29 -136h-1c-29 15 -66 24 -98 24c-52 0 -101 -24 -112 -141l-12 -120l-144 -98l98 -109l-38 -107c-10 -29 -16 -56 -16 -76c-1 -59 46 -74 99 -74c22 0 43 3 77 9h1l-29 -137
c-33 -7 -74 -10 -104 -10c-105 0 -206 50 -206 175c0 51 16 101 34 150l17 46z" />
    <glyph glyph-name="braceright" unicode="}" horiz-adv-x="530" 
d="M522 268l-6 -29l-174 -127l-7 -80c-18 -204 -138 -254 -249 -254c-63 0 -102 10 -148 28l29 136h1c29 -15 66 -24 98 -24c52 0 101 24 112 141l12 120l144 98l-98 109l38 107c10 29 16 56 16 76c1 59 -46 74 -99 74c-22 0 -43 -3 -77 -9h-1l29 137c33 7 74 10 104 10
c105 0 206 -50 206 -175c0 -51 -16 -101 -34 -150l-17 -46z" />
    <glyph glyph-name="braceright.cap" horiz-adv-x="531" 
d="M537 338l-6 -29l-174 -127l-7 -80c-18 -204 -138 -254 -249 -254c-63 0 -102 10 -148 28l29 136h1c29 -15 66 -24 98 -24c52 0 101 24 112 141l12 120l144 98l-98 109l38 107c10 29 16 56 16 76c1 59 -46 74 -99 74c-22 0 -43 -3 -77 -9h-1l29 137c33 7 74 10 104 10
c105 0 206 -50 206 -175c0 -51 -16 -101 -34 -150l-17 -46z" />
    <glyph glyph-name="at" unicode="@" horiz-adv-x="1063" 
d="M768 118c-71 0 -121 24 -146 70c-34 -39 -85 -69 -149 -69c-78 0 -125 44 -125 109c0 31 10 69 44 99c39 34 105 57 238 61c1 7 2 13 2 20c0 31 -23 44 -65 44c-44 0 -103 -14 -153 -40h-1l26 121c47 20 96 31 151 31c113 0 174 -53 174 -145c0 -18 -3 -38 -8 -60
l-13 -63c-3 -10 -6 -27 -6 -37c1 -28 19 -38 45 -38c66 0 100 96 101 209c1 149 -104 239 -282 239c-277 0 -380 -218 -380 -409c0 -185 125 -261 307 -261c96 0 171 20 252 49l-28 -126c-72 -25 -159 -41 -235 -41c-254 0 -429 123 -429 373c0 252 156 533 518 533
c253 0 403 -139 403 -356c0 -157 -72 -313 -241 -313zM524 216c29 0 57 14 75 28l15 68c-70 -5 -104 -15 -121 -32c-10 -10 -13 -22 -13 -32c0 -20 15 -32 44 -32z" />
    <glyph glyph-name="at.cap" horiz-adv-x="1063" 
d="M771 134c-71 0 -121 24 -146 70c-34 -39 -85 -69 -149 -69c-78 0 -125 44 -125 109c0 31 10 69 44 99c39 34 105 57 238 61c1 7 2 13 2 20c0 31 -23 44 -65 44c-44 0 -103 -14 -153 -40h-1l26 121c47 20 96 31 151 31c113 0 174 -53 174 -145c0 -18 -3 -38 -8 -60
l-13 -63c-3 -10 -6 -27 -6 -37c1 -28 19 -38 45 -38c66 0 100 96 101 209c1 149 -104 239 -282 239c-277 0 -380 -218 -380 -409c0 -185 125 -261 307 -261c96 0 171 20 252 49l-28 -126c-72 -25 -159 -41 -235 -41c-254 0 -429 123 -429 373c0 252 156 533 518 533
c253 0 403 -139 403 -356c0 -157 -72 -313 -241 -313zM527 232c29 0 57 14 75 28l15 68c-70 -5 -104 -15 -121 -32c-10 -10 -13 -22 -13 -32c0 -20 15 -32 44 -32z" />
    <glyph glyph-name="paragraph" unicode="&#xb6;" horiz-adv-x="829" 
d="M519 0l120 567h-127l-84 -398h-36c-201 0 -301 75 -301 218c0 172 108 313 367 313h366l-148 -700h-157z" />
    <glyph glyph-name="section" unicode="&#xa7;" horiz-adv-x="766" 
d="M288 -216c-118 0 -218 44 -284 95l31 140h1c75 -57 169 -99 253 -99c53 0 96 12 130 33c-218 82 -324 215 -324 394c0 205 142 372 381 372c113 0 210 -43 256 -79l-31 -139h-1c-56 41 -144 81 -224 81c-53 0 -96 -12 -130 -33c219 -82 325 -214 325 -393
c0 -206 -144 -372 -383 -372zM248 352c-1 -127 94 -232 252 -301c12 30 18 64 18 99c1 126 -94 233 -252 302c-12 -31 -18 -64 -18 -100z" />
    <glyph glyph-name="copyright" unicode="&#xa9;" horiz-adv-x="984" 
d="M511 -54c-266 0 -442 159 -442 405c0 247 176 406 442 406c265 0 441 -159 441 -406c0 -246 -176 -405 -441 -405zM511 54c193 0 314 107 314 297c0 191 -121 298 -314 298c-194 0 -315 -107 -315 -298c0 -190 121 -297 315 -297zM529 165c-136 0 -206 80 -206 188
s78 189 210 189c59 0 104 -17 137 -39v-106h-1c-41 27 -77 43 -122 43c-62 0 -101 -36 -101 -86c0 -53 32 -87 99 -87c49 0 85 17 124 43h1v-108c-27 -15 -77 -37 -141 -37z" />
    <glyph glyph-name="uni2117" unicode="&#x2117;" horiz-adv-x="984" 
d="M511 -54c-266 0 -442 159 -442 405c0 247 176 406 442 406c265 0 441 -159 441 -406c0 -246 -176 -405 -441 -405zM511 54c193 0 314 107 314 297c0 191 -121 298 -314 298c-194 0 -315 -107 -315 -298c0 -190 121 -297 315 -297zM350 174v361h222c90 0 143 -51 143 -138
c0 -99 -68 -141 -152 -141h-97v-82h-116zM466 348h89c34 0 45 23 45 46c0 29 -13 47 -47 47h-87v-93z" />
    <glyph glyph-name="registered" unicode="&#xae;" horiz-adv-x="711" 
d="M402 188c-186 0 -310 112 -310 285s124 285 310 285c187 0 310 -112 310 -285s-123 -285 -310 -285zM402 274c130 0 210 71 210 199c0 127 -80 198 -210 198c-129 0 -209 -71 -209 -198c0 -128 80 -199 209 -199zM283 351v250h143c78 0 112 -34 112 -95
c0 -33 -14 -63 -47 -78l56 -70v-7h-92l-46 63h-43v-63h-83zM366 476h50c26 0 38 8 38 29s-12 29 -38 29h-50v-58z" />
    <glyph glyph-name="uni2120" unicode="&#x2120;" horiz-adv-x="992" 
d="M292 316c-77 0 -146 24 -193 49l20 95h1c49 -29 119 -55 181 -55c39 0 46 13 46 25c0 16 -11 24 -74 44c-79 26 -127 51 -127 114c0 65 48 122 166 122c71 0 133 -23 169 -43l-20 -93h-1c-42 24 -100 47 -156 47c-40 0 -49 -13 -49 -25c0 -14 11 -20 75 -42
c78 -25 127 -53 127 -115c0 -71 -51 -123 -165 -123zM503 327l80 373h117l57 -166l115 166h137l-79 -373h-104l49 231l-142 -194h-11l-67 190l-49 -227h-103z" />
    <glyph glyph-name="trademark" unicode="&#x2122;" horiz-adv-x="1004" 
d="M214 327l59 277h-136l28 96h357l-8 -96h-128l-59 -277h-113zM513 327l79 373h118l57 -166l115 166h137l-79 -373h-104l49 231l-142 -194h-11l-67 190l-49 -227h-103z" />
    <glyph glyph-name="asterisk" unicode="*" horiz-adv-x="555" 
d="M373 293l-29 -4l-55 85l-92 -36l-23 20l32 96l-86 50l2 31l95 35l-14 99l25 16l85 -51l69 73l30 -10l13 -100l100 -9l10 -28l-71 -72l56 -84l-16 -25l-101 10z" />
    <glyph glyph-name="dagger" unicode="&#x2020;" horiz-adv-x="513" 
d="M169 168l61 288h-138l34 117h129l27 127h139l-27 -127h130l-25 -117h-130l-61 -288h-139z" />
    <glyph glyph-name="daggerdbl" unicode="&#x2021;" horiz-adv-x="516" 
d="M161 119l27 127h-131l24 112h131l21 103h-140l33 113h131l27 126h139l-27 -126h131l-24 -113h-131l-22 -103h141l-33 -112h-132l-27 -127h-138z" />
    <glyph glyph-name="bullet" unicode="&#x2022;" horiz-adv-x="447" 
d="M65 307c0 95 68 174 186 174c103 0 155 -63 155 -144c0 -95 -68 -174 -185 -174c-104 0 -156 62 -156 144z" />
    <glyph glyph-name="bullet.cap" horiz-adv-x="448" 
d="M71 335c0 95 68 174 186 174c103 0 155 -63 155 -144c0 -95 -68 -174 -185 -174c-104 0 -156 62 -156 144z" />
    <glyph glyph-name="asciicircum" unicode="^" horiz-adv-x="714" 
d="M564 700l109 -356h-168l-61 203h-35l-146 -203h-189l257 356h233z" />
    <glyph glyph-name="asciitilde" unicode="&#x223c;" horiz-adv-x="737" 
d="M500 219c-46 0 -83 18 -139 51c-52 31 -75 44 -109 44c-57 0 -112 -40 -176 -105h-1l42 199c46 44 94 74 156 74c45 0 83 -18 139 -52c52 -31 74 -43 109 -43c57 0 112 40 176 105h1l-42 -200c-46 -44 -94 -73 -156 -73z" />
    <glyph glyph-name="asciitilde" unicode="~" horiz-adv-x="737" 
d="M500 219c-46 0 -83 18 -139 51c-52 31 -75 44 -109 44c-57 0 -112 -40 -176 -105h-1l42 199c46 44 94 74 156 74c45 0 83 -18 139 -52c52 -31 74 -43 109 -43c57 0 112 40 176 105h1l-42 -200c-46 -44 -94 -73 -156 -73z" />
    <glyph glyph-name="dollar" unicode="$" horiz-adv-x="686" 
d="M198 -120l30 140c-72 15 -134 43 -184 74l31 145h1c76 -52 186 -94 279 -94c75 0 101 28 101 64c0 34 -30 48 -133 81c-111 35 -199 73 -199 189c0 107 76 202 237 213l24 113h156l-27 -128c59 -15 110 -39 146 -62l-31 -145h-1c-64 45 -157 85 -241 85
c-69 0 -100 -24 -100 -61c0 -32 30 -46 125 -77c114 -37 207 -76 207 -197c0 -114 -78 -202 -238 -212l-24 -113z" />
    <glyph glyph-name="cent" unicode="&#xa2;" horiz-adv-x="533" 
d="M168 -41l31 147c-85 32 -141 103 -142 207c-1 145 92 267 242 292l24 114h153l-26 -121c37 -10 66 -24 87 -39l-29 -134h-1c-35 26 -83 50 -139 50c-94 0 -153 -63 -152 -145c0 -73 55 -106 126 -106c53 0 94 14 139 34h1l-30 -140c-28 -13 -62 -24 -104 -28l-24 -116z
" />
    <glyph glyph-name="sterling" unicode="&#xa3;" horiz-adv-x="704" 
d="M57 293l51 128h106l4 9c96 212 178 288 330 288c64 0 115 -20 150 -43l-29 -138h-1c-35 21 -72 34 -112 34c-64 0 -107 -31 -152 -129l-9 -21h228l-28 -128h-258l-67 -149h357l-31 -144h-572l132 293h-99z" />
    <glyph glyph-name="Euro" unicode="&#x20ac;" horiz-adv-x="741" 
d="M23 214l30 106h90c1 23 4 45 8 66h-81l29 106h86c62 132 188 223 351 223c104 0 175 -34 217 -67l-30 -139h-1c-48 34 -109 66 -184 66c-82 0 -141 -36 -180 -91h231l-20 -98h-254c-5 -21 -8 -44 -9 -66h248l-21 -98h-216c24 -69 85 -97 166 -97c68 0 132 21 177 40h2
l-32 -146c-38 -18 -103 -34 -172 -34c-166 0 -280 80 -309 229h-126z" />
    <glyph glyph-name="yen" unicode="&#xa5;" horiz-adv-x="800" 
d="M64 140l31 114h215l-22 65h-176l31 114h105l-92 267h171l96 -293h9l212 293h186l-203 -267h103l-12 -114h-177l-50 -65h221l-12 -114h-239l-29 -140h-168l30 140h-230z" />
    <glyph glyph-name="uni20B9" unicode="&#x20b9;" horiz-adv-x="739" 
d="M553 0h-223l-252 192l25 119h169c109 0 153 34 169 81h-321l22 100h304c-11 50 -49 82 -149 82h-138l27 126h590l-33 -126h-177c22 -20 37 -46 45 -77h113l-29 -116h-85c-25 -112 -122 -191 -294 -191h-10z" />
    <glyph glyph-name="colonmonetary" unicode="&#x20a1;" horiz-adv-x="661" 
d="M55 -110l81 185c-58 55 -91 135 -91 230c0 213 154 396 372 408l40 92h121l-44 -101c25 -6 47 -14 67 -23l54 124h121l-298 -680c41 6 73 18 105 33h1l-30 -142c-33 -17 -76 -27 -137 -29l-42 -97h-121l45 103c-24 5 -47 12 -69 21l-54 -124h-121zM198 305
c0 -31 6 -58 17 -81l154 347c-107 -35 -171 -145 -171 -266zM288 147c24 -13 52 -21 82 -25l187 422c-23 13 -50 22 -83 26z" />
    <glyph glyph-name="uni20A6" unicode="&#x20a6;" horiz-adv-x="890" 
d="M101 0l45 213h-118l33 109h109l14 70h-103l32 109h95l42 199h186l64 -199h141l43 199h158l-42 -199h96l-23 -109h-97l-14 -70h95l-23 -109h-96l-45 -213h-177l-69 213h-142l-45 -213h-159zM358 460l-31 -145h86l-47 145h-8zM580 252h8l32 147h-87z" />
    <glyph glyph-name="uni20B1" unicode="&#x20b1;" horiz-adv-x="818" 
d="M57 375l50 120h89l44 205h255c178 0 256 -85 267 -205h90l-26 -120h-75c-32 -117 -130 -205 -291 -205h-160l-36 -170h-173l80 375h-114zM384 563l-18 -81h232c-7 49 -35 81 -100 81h-114zM453 305c71 0 114 33 134 79h-242l-17 -79h125z" />
    <glyph glyph-name="R_p" horiz-adv-x="1406" 
d="M268 197l-42 -197h-175l149 700h287c186 0 261 -95 261 -223c0 -121 -63 -221 -191 -260l123 -217h-197l-102 197h-113zM1187 560c103 0 188 -70 188 -218c0 -201 -132 -358 -308 -358c-55 0 -98 13 -131 33l-47 -220h-175l160 750h171l-12 -58c36 39 87 71 154 71z
M446 340c87 0 126 61 126 125c0 53 -26 88 -97 88h-132l-45 -213h148zM1117 421c-39 0 -76 -16 -104 -40l-48 -228c22 -17 53 -30 88 -30c97 0 152 96 152 197c0 75 -36 101 -88 101z" />
    <glyph glyph-name="uni20A8" unicode="&#x20a8;" horiz-adv-x="1295" 
d="M268 197l-42 -197h-175l149 700h287c186 0 261 -95 261 -223c-1 -121 -63 -221 -191 -260l123 -217h-197l-102 197h-113zM785 191c68 -40 157 -76 229 -76c56 0 68 20 68 42c0 29 -35 40 -108 66c-87 31 -151 65 -151 152c0 109 82 190 229 190c100 0 177 -35 226 -63
l-30 -139h-1c-53 34 -125 70 -202 70c-41 0 -63 -15 -63 -38s17 -32 103 -62c83 -29 156 -65 156 -159c0 -104 -68 -191 -230 -191c-99 0 -192 31 -257 69l30 139h1zM446 340c87 0 126 61 126 125c0 53 -26 88 -97 88h-132l-45 -213h148z" />
    <glyph glyph-name="uni20BD" unicode="&#x20bd;" horiz-adv-x="777" 
d="M-6 85l34 115h124l14 68h-118l35 118h108l67 314h267c192 0 270 -85 270 -199c0 -128 -86 -233 -280 -233h-177l-14 -68h283l-25 -115h-283l-18 -85h-172l18 85h-133zM502 385c96 0 126 48 126 102c0 44 -28 75 -106 75h-121l-38 -177h139z" />
    <glyph glyph-name="uni2116" unicode="&#x2116;" horiz-adv-x="1374" 
d="M1146 711c136 0 226 -79 226 -209c0 -134 -85 -273 -263 -273c-136 0 -226 78 -226 208c0 134 85 274 263 274zM52 0l149 700h189l157 -437h8l93 437h164l-149 -700h-180l-163 450h-8l-96 -450h-164zM1113 354c78 0 111 76 111 143c0 53 -28 88 -82 88
c-78 0 -111 -76 -111 -142c0 -54 28 -89 82 -89zM853 135h423l-28 -135h-423z" />
    <glyph glyph-name="numbersign" unicode="#" horiz-adv-x="902" 
d="M88 0l53 135h-109l27 126h132l71 178h-125l27 126h148l53 135h151l-53 -135h183l53 135h151l-53 -135h110l-27 -126h-133l-70 -178h124l-27 -126h-147l-53 -135h-152l53 135h-182l-53 -135h-152zM343 261h182l71 178h-183z" />
    <glyph glyph-name="percent" unicode="%" horiz-adv-x="1066" 
d="M305 712c113 0 187 -70 187 -173c0 -108 -72 -212 -218 -212c-114 0 -187 70 -187 173c0 107 71 212 218 212zM117 1l353 349l350 350h168v-1l-354 -350l-349 -349h-168v1zM281 436c59 0 83 51 83 96c0 47 -28 71 -67 71c-59 0 -82 -52 -82 -97c0 -46 27 -70 66 -70z
M800 -12c-113 0 -187 70 -187 173c0 108 72 212 218 212c114 0 187 -70 187 -173c0 -107 -71 -212 -218 -212zM808 97c59 0 82 52 82 97c0 46 -27 70 -66 70c-59 0 -83 -51 -83 -96c0 -47 27 -71 67 -71z" />
    <glyph glyph-name="degree" unicode="&#xb0;" horiz-adv-x="587" 
d="M358 713c140 0 221 -83 221 -202c0 -120 -83 -244 -254 -244c-140 0 -221 83 -221 202c0 120 83 244 254 244zM331 385c79 0 110 66 110 118c0 61 -36 92 -90 92c-78 0 -109 -65 -109 -117c0 -61 36 -93 89 -93z" />
    <glyph glyph-name="quotedbl" unicode="&#x22;" horiz-adv-x="627" 
d="M115 380l68 320h198v-29l-175 -291h-91zM484 380h-91l68 320h198v-29z" />
    <glyph glyph-name="quotesingle" unicode="'" horiz-adv-x="350" 
d="M115 380l68 320h200v-29l-176 -291h-92z" />
    <glyph glyph-name="ordfeminine" unicode="&#xaa;" horiz-adv-x="524" 
d="M324 716c120 0 185 -54 186 -152c0 -19 -3 -39 -7 -60l-51 -240h-126l6 49c-34 -36 -82 -61 -140 -61c-78 0 -128 42 -128 113c0 33 12 72 48 104c43 37 114 61 256 64c1 6 2 12 2 17c0 33 -24 46 -70 46c-47 0 -113 -13 -167 -39h-1l27 127c51 21 106 32 165 32z
M204 388c0 -21 14 -34 44 -34c33 0 67 16 90 36l13 63c-79 -4 -113 -15 -132 -32c-11 -10 -15 -22 -15 -33z" />
    <glyph glyph-name="ordmasculine" unicode="&#xba;" horiz-adv-x="549" 
d="M339 717c134 0 219 -76 219 -203c0 -130 -82 -266 -255 -266c-134 0 -220 75 -220 203c0 130 83 266 256 266zM307 366c77 0 110 77 110 144c0 54 -27 89 -83 89c-77 0 -110 -77 -110 -145c0 -54 28 -88 83 -88z" />
    <glyph glyph-name="plus" unicode="+" horiz-adv-x="719" 
d="M91 279l31 145h194l44 208h154l-44 -208h195l-31 -145h-195l-44 -208h-154l44 208h-194z" />
    <glyph glyph-name="minus" unicode="&#x2212;" horiz-adv-x="675" 
d="M90 275l33 154h499l-34 -154h-498z" />
    <glyph glyph-name="equal" unicode="=" horiz-adv-x="736" 
d="M133 415l31 143h534l-31 -143h-534zM76 146l31 143h533l-30 -143h-534z" />
    <glyph glyph-name="divide" unicode="&#xf7;" horiz-adv-x="751" 
d="M444 660c61 0 96 -36 96 -82c0 -54 -43 -99 -110 -99c-61 0 -96 35 -96 82c0 54 42 99 110 99zM696 422l-29 -140h-576l29 140h576zM247 126c0 54 42 98 110 98c61 0 96 -35 96 -82c0 -54 -43 -98 -110 -98c-61 0 -96 35 -96 82z" />
    <glyph glyph-name="multiply" unicode="&#xd7;" horiz-adv-x="733" 
d="M147 536l117 93l137 -176l207 176l90 -113l-208 -177l133 -171l-117 -93l-137 176l-206 -175l-91 112l208 177z" />
    <glyph glyph-name="dotmath" unicode="&#x22c5;" horiz-adv-x="402" 
d="M102 340c0 61 49 113 128 113c68 0 105 -41 105 -95c0 -61 -48 -113 -127 -113c-69 0 -106 41 -106 95z" />
    <glyph glyph-name="plusminus" unicode="&#xb1;" horiz-adv-x="711" 
d="M138 389l30 141h167l36 170h154l-36 -170h166l-30 -141h-166l-36 -170h-154l36 170h-167zM56 0l28 135h487l-28 -135h-487z" />
    <glyph glyph-name="less" unicode="&#x3c;" horiz-adv-x="643" 
d="M493 49l-408 219l35 164l501 218l-39 -175l-316 -135l261 -136z" />
    <glyph glyph-name="greater" unicode="&#x3e;" horiz-adv-x="643" 
d="M186 650l408 -219l-35 -164l-501 -218l39 175l316 135l-261 136z" />
    <glyph glyph-name="onehalf" unicode="&#xbd;" horiz-adv-x="1013" 
d="M258 286h-130l66 310h-77l37 104h192zM100 1l593 699h135v-1l-593 -699h-135v1zM799 427c94 0 152 -45 152 -116c0 -72 -57 -114 -161 -176l-49 -31l175 1l-22 -105h-344l23 105l124 80c101 61 127 81 127 102c0 18 -14 30 -47 30c-46 0 -106 -21 -157 -47h-1l26 120
c51 24 101 37 154 37z" />
    <glyph glyph-name="onethird" unicode="&#x2153;" horiz-adv-x="1013" 
d="M258 286h-130l66 310h-77l37 104h192zM100 1l593 699h135v-1l-593 -699h-135v1zM667 171l12 54l126 86h-186l29 103h317l-20 -97l-127 -84c71 -11 111 -49 111 -106c0 -86 -74 -140 -193 -140c-69 0 -131 18 -176 40l22 104h1c44 -22 101 -39 153 -39c44 0 69 14 69 38
c0 27 -34 41 -127 41h-11z" />
    <glyph glyph-name="twothirds" unicode="&#x2154;" horiz-adv-x="1154" 
d="M321 713c94 0 152 -45 152 -116c0 -72 -57 -114 -161 -176l-49 -31l175 1l-22 -105h-344l23 105l124 80c101 61 127 81 127 102c0 18 -14 30 -47 30c-46 0 -106 -21 -157 -47h-1l26 120c51 24 101 37 154 37zM241 1l593 699h135v-1l-593 -699h-135v1zM808 171l12 54
l126 86h-186l29 103h317l-20 -97l-127 -84c71 -11 111 -49 111 -106c0 -86 -74 -140 -193 -140c-69 0 -131 18 -176 40l22 104h1c44 -22 101 -39 153 -39c44 0 69 14 69 38c0 27 -34 41 -127 41h-11z" />
    <glyph glyph-name="onequarter" unicode="&#xbc;" horiz-adv-x="1008" 
d="M258 286h-130l66 310h-77l37 104h192zM100 1l593 699h135v-1l-593 -699h-135v1zM742 0l17 78h-229l20 93l151 243h248l-51 -237h62l-28 -99h-54l-17 -78h-119zM678 174h105l30 141h-49z" />
    <glyph glyph-name="threequarters" unicode="&#xbe;" horiz-adv-x="1135" 
d="M189 457l12 54l126 86h-186l29 103h317l-20 -97l-127 -84c71 -11 111 -49 111 -106c0 -86 -74 -140 -193 -140c-69 0 -131 18 -176 40l22 104h1c44 -22 101 -39 153 -39c44 0 69 14 69 38c0 27 -34 41 -127 41h-11zM227 1l593 699h135v-1l-593 -699h-135v1zM869 0l17 78
h-229l20 93l151 243h248l-51 -237h62l-28 -99h-54l-17 -78h-119zM805 174h105l30 141h-49z" />
    <glyph glyph-name="uni2155" unicode="&#x2155;" horiz-adv-x="1005" 
d="M258 286h-130l66 310h-77l37 104h192zM100 1l593 699h135v-1l-593 -699h-135v1zM727 -13c-67 0 -125 16 -172 37l23 102c45 -20 94 -34 151 -34c54 -1 69 17 69 38c0 28 -38 37 -157 39h-46l57 245h297l-11 -104h-199l-14 -55c127 -3 197 -37 197 -122
c0 -87 -66 -146 -195 -146z" />
    <glyph glyph-name="uni2156" unicode="&#x2156;" horiz-adv-x="1146" 
d="M321 713c94 0 152 -45 152 -116c0 -72 -57 -114 -161 -176l-49 -31l175 1l-22 -105h-344l23 105l124 80c101 61 127 81 127 102c0 18 -14 30 -47 30c-46 0 -106 -21 -157 -47h-1l26 120c51 24 101 37 154 37zM241 1l593 699h135v-1l-593 -699h-135v1zM868 -13
c-67 0 -125 16 -172 37l23 102c45 -20 94 -34 151 -34c54 -1 69 17 69 38c0 28 -38 37 -157 39h-46l57 245h297l-11 -104h-199l-14 -55c127 -3 197 -37 197 -122c0 -87 -66 -146 -195 -146z" />
    <glyph glyph-name="uni2157" unicode="&#x2157;" horiz-adv-x="1132" 
d="M189 457l12 54l126 86h-186l29 103h317l-20 -97l-127 -84c71 -11 111 -49 111 -106c0 -86 -74 -140 -193 -140c-69 0 -131 18 -176 40l22 104h1c44 -22 101 -39 153 -39c44 0 69 14 69 38c0 27 -34 41 -127 41h-11zM227 1l593 699h135v-1l-593 -699h-135v1zM854 -13
c-67 0 -125 16 -172 37l23 102c45 -20 94 -34 151 -34c54 -1 69 17 69 38c0 28 -38 37 -157 39h-46l57 245h297l-11 -104h-199l-14 -55c127 -3 197 -37 197 -122c0 -87 -66 -146 -195 -146z" />
    <glyph glyph-name="uni2158" unicode="&#x2158;" horiz-adv-x="1144" 
d="M269 286l17 78h-229l20 93l151 243h248l-51 -237h62l-28 -99h-54l-17 -78h-119zM238 1l593 699h135v-1l-593 -699h-135v1zM205 460h105l30 141h-49zM866 -13c-67 0 -125 16 -172 37l23 102c45 -20 94 -34 151 -34c54 -1 69 17 69 38c0 28 -38 37 -157 39h-46l57 245h297
l-11 -104h-199l-14 -55c127 -3 197 -37 197 -122c0 -87 -66 -146 -195 -146z" />
    <glyph glyph-name="uni2159" unicode="&#x2159;" horiz-adv-x="1015" 
d="M258 286h-130l66 310h-77l37 104h192zM100 1l593 699h135v-1l-593 -699h-135v1zM800 265c82 0 142 -42 142 -121c0 -93 -73 -157 -180 -157c-114 0 -184 65 -184 183c0 139 80 256 238 256c65 0 120 -20 147 -38l-22 -99c-33 19 -76 37 -123 37c-67 0 -103 -35 -116 -84
c30 15 64 23 98 23zM696 160c0 -54 29 -76 69 -76c36 0 62 20 62 51c0 30 -23 44 -60 44c-24 0 -47 -5 -71 -16v-3z" />
    <glyph glyph-name="uni215A" unicode="&#x215a;" horiz-adv-x="1143" 
d="M257 273c-67 0 -125 16 -172 37l23 102c45 -20 94 -34 151 -34c54 -1 69 17 69 38c0 28 -38 37 -157 39h-46l57 245h297l-11 -104h-199l-14 -55c127 -3 197 -37 197 -122c0 -87 -66 -146 -195 -146zM228 1l593 699h135v-1l-593 -699h-135v1zM928 265
c82 0 142 -42 142 -121c0 -93 -73 -157 -180 -157c-114 0 -184 65 -184 183c0 139 80 256 238 256c65 0 120 -20 147 -38l-22 -99c-33 19 -76 37 -123 37c-67 0 -103 -35 -116 -84c30 15 64 23 98 23zM824 160c0 -54 29 -76 69 -76c36 0 62 20 62 51c0 30 -23 44 -60 44
c-24 0 -47 -5 -71 -16v-3z" />
    <glyph glyph-name="oneeighth" unicode="&#x215b;" horiz-adv-x="1020" 
d="M258 286h-130l66 310h-77l37 104h192zM100 1l593 699h135v-1l-593 -699h-135v1zM740 -13c-123 0 -185 44 -185 113c0 57 42 101 109 114c-35 16 -57 45 -57 84c0 65 56 128 192 128c120 0 174 -52 174 -117c0 -54 -42 -93 -96 -104c42 -18 66 -48 66 -89
c0 -69 -60 -129 -203 -129zM784 246c46 0 72 19 72 47c0 25 -21 39 -62 39c-45 0 -71 -19 -71 -46c0 -25 21 -40 61 -40zM753 171c-51 0 -77 -19 -77 -49c0 -26 24 -42 70 -42c50 0 76 19 76 49c0 26 -23 42 -69 42z" />
    <glyph glyph-name="threeeighths" unicode="&#x215c;" horiz-adv-x="1147" 
d="M189 457l12 54l126 86h-186l29 103h317l-20 -97l-127 -84c71 -11 111 -49 111 -106c0 -86 -74 -140 -193 -140c-69 0 -131 18 -176 40l22 104h1c44 -22 101 -39 153 -39c44 0 69 14 69 38c0 27 -34 41 -127 41h-11zM227 1l593 699h135v-1l-593 -699h-135v1zM867 -13
c-123 0 -185 44 -185 113c0 57 42 101 109 114c-35 16 -57 45 -57 84c0 65 56 128 192 128c120 0 174 -52 174 -117c0 -54 -42 -93 -96 -104c42 -18 66 -48 66 -89c0 -69 -60 -129 -203 -129zM911 246c46 0 72 19 72 47c0 25 -21 39 -62 39c-45 0 -71 -19 -71 -46
c0 -25 21 -40 61 -40zM880 171c-51 0 -77 -19 -77 -49c0 -26 24 -42 70 -42c50 0 76 19 76 49c0 26 -23 42 -69 42z" />
    <glyph glyph-name="fiveeighths" unicode="&#x215d;" horiz-adv-x="1148" 
d="M257 273c-67 0 -125 16 -172 37l23 102c45 -20 94 -34 151 -34c54 -1 69 17 69 38c0 28 -38 37 -157 39h-46l57 245h297l-11 -104h-199l-14 -55c127 -3 197 -37 197 -122c0 -87 -66 -146 -195 -146zM228 1l593 699h135v-1l-593 -699h-135v1zM868 -13
c-123 0 -185 44 -185 113c0 57 42 101 109 114c-35 16 -57 45 -57 84c0 65 56 128 192 128c120 0 174 -52 174 -117c0 -54 -42 -93 -96 -104c42 -18 66 -48 66 -89c0 -69 -60 -129 -203 -129zM912 246c46 0 72 19 72 47c0 25 -21 39 -62 39c-45 0 -71 -19 -71 -46
c0 -25 21 -40 61 -40zM881 171c-51 0 -77 -19 -77 -49c0 -26 24 -42 70 -42c50 0 76 19 76 49c0 26 -23 42 -69 42z" />
    <glyph glyph-name="seveneighths" unicode="&#x215e;" horiz-adv-x="1095" 
d="M265 286h-142l233 292l5 23h-121l-16 -74h-110l36 173h360l-30 -144zM175 1l593 699h135v-1l-593 -699h-135v1zM815 -13c-123 0 -185 44 -185 113c0 57 42 101 109 114c-35 16 -57 45 -57 84c0 65 56 128 192 128c120 0 174 -52 174 -117c0 -54 -42 -93 -96 -104
c42 -18 66 -48 66 -89c0 -69 -60 -129 -203 -129zM859 246c46 0 72 19 72 47c0 25 -21 39 -62 39c-45 0 -71 -19 -71 -46c0 -25 21 -40 61 -40zM828 171c-51 0 -77 -19 -77 -49c0 -26 24 -42 70 -42c50 0 76 19 76 49c0 26 -23 42 -69 42z" />
    <glyph glyph-name="zero.sup" unicode="&#x2070;" horiz-adv-x="474" 
d="M281 340c-112 0 -183 63 -183 179c0 128 71 261 222 261c112 0 182 -63 182 -179c0 -129 -70 -261 -221 -261zM285 447c65 0 95 78 95 146c0 55 -23 80 -65 80c-64 0 -94 -79 -94 -148c0 -53 23 -78 64 -78z" />
    <glyph glyph-name="one.sup" unicode="&#xb9;" horiz-adv-x="353" 
d="M272 353h-130l66 310h-77l37 104h192z" />
    <glyph glyph-name="one.sup_alt" horiz-adv-x="474" 
d="M459 455l-19 -102h-331l22 102h107l45 209h-111l38 103h222l-66 -312h93z" />
    <glyph glyph-name="two.sup" unicode="&#xb2;" horiz-adv-x="474" 
d="M335 780c94 0 152 -45 152 -116c0 -72 -57 -114 -161 -176l-49 -31l175 1l-22 -105h-344l23 105l124 80c101 61 127 81 127 102c0 18 -14 30 -47 30c-46 0 -106 -21 -157 -47h-1l26 120c51 24 101 37 154 37z" />
    <glyph glyph-name="three.sup" unicode="&#xb3;" horiz-adv-x="474" 
d="M203 524l12 54l126 86h-186l29 103h317l-20 -97l-127 -84c71 -11 111 -49 111 -106c0 -86 -74 -140 -193 -140c-69 0 -131 18 -176 40l22 104h1c44 -22 101 -39 153 -39c44 0 69 14 69 38c0 27 -34 41 -127 41h-11z" />
    <glyph glyph-name="four.sup" unicode="&#x2074;" horiz-adv-x="474" 
d="M283 353l17 78h-229l20 93l151 243h248l-51 -237h62l-28 -99h-54l-17 -78h-119zM219 527h105l30 141h-49z" />
    <glyph glyph-name="five.sup" unicode="&#x2075;" horiz-adv-x="474" 
d="M271 340c-67 0 -125 16 -172 37l23 102c45 -20 94 -34 151 -34c54 -1 69 17 69 38c0 28 -38 37 -157 39h-46l57 245h297l-11 -104h-199l-14 -55c127 -3 197 -37 197 -122c0 -87 -66 -146 -195 -146z" />
    <glyph glyph-name="six.sup" unicode="&#x2076;" horiz-adv-x="474" 
d="M334 618c82 0 142 -42 142 -121c0 -93 -73 -157 -180 -157c-114 0 -184 65 -184 183c0 139 80 256 238 256c65 0 120 -20 147 -38l-22 -99c-33 19 -76 37 -123 37c-67 0 -103 -35 -116 -84c30 15 64 23 98 23zM230 513c0 -54 29 -76 69 -76c36 0 62 20 62 51
c0 30 -23 44 -60 44c-24 0 -47 -5 -71 -16v-3z" />
    <glyph glyph-name="seven.sup" unicode="&#x2077;" horiz-adv-x="474" 
d="M279 353h-142l233 292l5 23h-121l-16 -74h-110l36 173h360l-30 -144z" />
    <glyph glyph-name="eight.sup" unicode="&#x2078;" horiz-adv-x="474" 
d="M269 340c-123 0 -185 44 -185 113c0 57 42 101 109 114c-35 16 -57 45 -57 84c0 65 56 128 192 128c120 0 174 -52 174 -117c0 -54 -42 -93 -96 -104c42 -18 66 -48 66 -89c0 -69 -60 -129 -203 -129zM313 599c46 0 72 19 72 47c0 25 -21 39 -62 39
c-45 0 -71 -19 -71 -46c0 -25 21 -40 61 -40zM282 524c-51 0 -77 -19 -77 -49c0 -26 24 -42 70 -42c50 0 76 19 76 49c0 26 -23 42 -69 42z" />
    <glyph glyph-name="nine.sup" unicode="&#x2079;" horiz-adv-x="474" 
d="M265 501c-82 0 -142 42 -142 121c0 93 73 157 180 157c114 0 184 -65 184 -183c0 -139 -80 -256 -238 -256c-65 0 -120 20 -147 38l22 99c33 -19 76 -37 123 -37c67 0 103 35 116 84c-30 -15 -64 -23 -98 -23zM238 631c0 -30 23 -44 60 -44c24 0 47 5 71 16v3
c0 54 -29 76 -69 76c-36 0 -62 -20 -62 -51z" />
    <glyph glyph-name="zero.inf" unicode="&#x2080;" horiz-adv-x="474" 
d="M163 -215c-112 0 -183 63 -183 179c0 128 71 261 222 261c112 0 182 -63 182 -179c0 -129 -70 -261 -221 -261zM167 -108c65 0 95 78 95 146c0 55 -23 80 -65 80c-64 0 -94 -79 -94 -148c0 -53 23 -78 64 -78z" />
    <glyph glyph-name="one.inf" unicode="&#x2081;" horiz-adv-x="353" 
d="M154 -202h-130l66 310h-77l37 104h192z" />
    <glyph glyph-name="one.inf_alt" horiz-adv-x="474" 
d="M341 -100l-19 -102h-331l22 102h107l45 209h-111l38 103h222l-66 -312h93z" />
    <glyph glyph-name="two.inf" unicode="&#x2082;" horiz-adv-x="474" 
d="M217 225c94 0 152 -45 152 -116c0 -72 -57 -114 -161 -176l-49 -31l175 1l-22 -105h-344l23 105l124 80c101 61 127 81 127 102c0 18 -14 30 -47 30c-46 0 -106 -21 -157 -47h-1l26 120c51 24 101 37 154 37z" />
    <glyph glyph-name="three.inf" unicode="&#x2083;" horiz-adv-x="474" 
d="M85 -31l12 54l126 86h-186l29 103h317l-20 -97l-127 -84c71 -11 111 -49 111 -106c0 -86 -74 -140 -193 -140c-69 0 -131 18 -176 40l22 104h1c44 -22 101 -39 153 -39c44 0 69 14 69 38c0 27 -34 41 -127 41h-11z" />
    <glyph glyph-name="four.inf" unicode="&#x2084;" horiz-adv-x="474" 
d="M165 -202l17 78h-229l20 93l151 243h248l-51 -237h62l-28 -99h-54l-17 -78h-119zM101 -28h105l30 141h-49z" />
    <glyph glyph-name="five.inf" unicode="&#x2085;" horiz-adv-x="474" 
d="M153 -215c-67 0 -125 16 -172 37l23 102c45 -20 94 -34 151 -34c54 -1 69 17 69 38c0 28 -38 37 -157 39h-46l57 245h297l-11 -104h-199l-14 -55c127 -3 197 -37 197 -122c0 -87 -66 -146 -195 -146z" />
    <glyph glyph-name="six.inf" unicode="&#x2086;" horiz-adv-x="474" 
d="M216 63c82 0 142 -42 142 -121c0 -93 -73 -157 -180 -157c-114 0 -184 65 -184 183c0 139 80 256 238 256c65 0 120 -20 147 -38l-22 -99c-33 19 -76 37 -123 37c-67 0 -103 -35 -116 -84c30 15 64 23 98 23zM112 -42c0 -54 29 -76 69 -76c36 0 62 20 62 51
c0 30 -23 44 -60 44c-24 0 -47 -5 -71 -16v-3z" />
    <glyph glyph-name="seven.inf" unicode="&#x2087;" horiz-adv-x="474" 
d="M161 -202h-142l233 292l5 23h-121l-16 -74h-110l36 173h360l-30 -144z" />
    <glyph glyph-name="eight.inf" unicode="&#x2088;" horiz-adv-x="474" 
d="M151 -215c-123 0 -185 44 -185 113c0 57 42 101 109 114c-35 16 -57 45 -57 84c0 65 56 128 192 128c120 0 174 -52 174 -117c0 -54 -42 -93 -96 -104c42 -18 66 -48 66 -89c0 -69 -60 -129 -203 -129zM195 44c46 0 72 19 72 47c0 25 -21 39 -62 39
c-45 0 -71 -19 -71 -46c0 -25 21 -40 61 -40zM164 -31c-51 0 -77 -19 -77 -49c0 -26 24 -42 70 -42c50 0 76 19 76 49c0 26 -23 42 -69 42z" />
    <glyph glyph-name="nine.inf" unicode="&#x2089;" horiz-adv-x="474" 
d="M147 -54c-82 0 -142 42 -142 121c0 93 73 157 180 157c114 0 184 -65 184 -183c0 -139 -80 -256 -238 -256c-65 0 -120 20 -147 38l22 99c33 -19 76 -37 123 -37c67 0 103 35 116 84c-30 -15 -64 -23 -98 -23zM120 76c0 -30 23 -44 60 -44c24 0 47 5 71 16v3
c0 54 -29 76 -69 76c-36 0 -62 -20 -62 -51z" />
    <glyph glyph-name="zero.tab" horiz-adv-x="724" 
d="M345 -17c-192 0 -299 115 -299 298c0 207 122 437 369 437c192 0 299 -115 299 -298c0 -207 -122 -437 -369 -437zM350 131c132 0 192 160 192 285c0 109 -50 154 -132 154c-132 0 -192 -160 -192 -285c0 -109 50 -154 132 -154z" />
    <glyph glyph-name="one.tab" horiz-adv-x="724" 
d="M641 148l-25 -148h-574l31 148h210l86 407h-209l52 145h363l-117 -552h183z" />
    <glyph glyph-name="two.tab" horiz-adv-x="724" 
d="M428 718c174 0 265 -78 265 -196c0 -116 -86 -181 -263 -291l-138 -85l347 1l-32 -147h-587l32 152l269 174c166 107 198 135 198 176c0 39 -30 65 -112 65c-99 0 -185 -40 -279 -94h-1l38 172c80 46 162 73 263 73z" />
    <glyph glyph-name="three.tab" horiz-adv-x="724" 
d="M222 299l19 88l244 166h-343l42 147h546l-29 -136l-240 -165c125 -18 199 -78 199 -180c0 -139 -124 -237 -330 -237c-120 0 -216 29 -296 72l32 147h1c81 -45 176 -72 263 -72c102 0 157 36 157 88c0 55 -63 80 -213 82h-52z" />
    <glyph glyph-name="four.tab" horiz-adv-x="724" 
d="M387 0l30 138h-401l28 131l289 431h365l-89 -419h106l-37 -143h-99l-29 -138h-163zM235 280h215l58 276h-94z" />
    <glyph glyph-name="five.tab" horiz-adv-x="724" 
d="M334 -18c-120 0 -218 28 -288 65l32 147h1c70 -35 151 -64 255 -65c113 0 154 39 154 87c0 57 -65 84 -269 84h-107l94 400h500l-16 -146h-359l-29 -118c252 -3 358 -79 358 -212c0 -140 -108 -242 -326 -242z" />
    <glyph glyph-name="six.tab" horiz-adv-x="724" 
d="M421 459c150 0 249 -77 249 -208c0 -157 -120 -270 -300 -270c-191 0 -304 105 -304 296c0 231 132 443 407 443c114 0 204 -35 248 -68l-32 -146h-1c-54 38 -122 68 -220 68c-127 0 -192 -69 -220 -158c55 28 113 43 173 43zM231 271c0 -121 70 -150 142 -150
c86 0 131 50 131 117c0 58 -43 90 -122 90c-55 0 -98 -10 -151 -36v-21z" />
    <glyph glyph-name="seven.tab" horiz-adv-x="724" 
d="M307 0h-203l432 526l6 31h-270l-26 -118h-160l56 261h604l-47 -222z" />
    <glyph glyph-name="eight.tab" horiz-adv-x="724" 
d="M335 -24c-200 0 -298 77 -298 192c0 95 70 171 186 195c-63 27 -103 75 -103 141c0 108 92 217 313 217c191 0 280 -89 280 -197c0 -91 -71 -158 -165 -179c75 -31 115 -79 115 -152c0 -113 -100 -217 -328 -217zM405 409c82 0 138 39 138 97c0 52 -39 80 -114 80
c-82 0 -139 -38 -139 -97c0 -51 40 -80 115 -80zM361 295c-93 0 -150 -38 -150 -98c0 -53 42 -85 129 -85c93 0 150 38 150 98c0 53 -43 85 -129 85z" />
    <glyph glyph-name="nine.tab" horiz-adv-x="724" 
d="M339 242c-150 0 -249 77 -249 208c0 157 120 270 300 270c191 0 304 -105 304 -296c0 -231 -132 -443 -407 -443c-114 0 -204 35 -248 68l32 146h1c54 -38 122 -68 220 -68c127 0 192 69 220 158c-55 -28 -113 -43 -173 -43zM256 463c0 -58 43 -90 122 -90
c55 0 98 10 151 36v21c0 121 -70 150 -142 150c-86 0 -131 -50 -131 -117z" />
    <glyph glyph-name="dollar.tab" horiz-adv-x="724" 
d="M217 -120l30 140c-73 15 -136 43 -186 74l31 146h1c76 -53 187 -95 282 -95c77 0 103 28 103 63c0 34 -30 49 -135 82c-113 35 -202 73 -202 190c0 106 76 202 240 212l24 113h156l-27 -128c60 -15 112 -40 149 -63l-32 -145h-1c-64 46 -158 86 -244 86
c-71 0 -103 -24 -103 -60c0 -33 31 -47 129 -78c116 -37 209 -76 209 -198c0 -113 -79 -201 -240 -211l-24 -113z" />
    <glyph glyph-name="cent.tab" horiz-adv-x="724" 
d="M262 -41l31 147c-92 31 -151 104 -152 210c-1 145 96 265 252 290l24 113h153l-26 -121c40 -10 73 -26 96 -42l-29 -134h-1c-38 28 -89 53 -149 53c-99 0 -162 -62 -161 -143c1 -74 59 -108 136 -108c53 0 100 14 148 34h1l-30 -140c-31 -13 -68 -24 -113 -28l-25 -116z
" />
    <glyph glyph-name="sterling.tab" horiz-adv-x="724" 
d="M70 293l51 128h104l4 9c96 213 180 288 333 288c65 0 116 -19 152 -42l-30 -138h-1c-34 20 -72 33 -113 33c-65 0 -110 -31 -155 -129l-9 -21h232l-27 -128h-263l-67 -150h361l-30 -143h-575l131 293h-98z" />
    <glyph glyph-name="Euro.tab" horiz-adv-x="724" 
d="M26 214l29 106h91c1 23 3 45 7 66h-81l29 106h85c61 132 183 223 343 223c97 0 163 -30 205 -59l-30 -138h-1c-47 30 -103 58 -173 58c-81 0 -138 -36 -175 -91h224l-20 -99h-245c-4 -21 -7 -43 -8 -66h238l-21 -99h-206c23 -68 81 -96 160 -96c60 0 120 17 164 34h1
l-31 -146c-37 -15 -96 -28 -158 -28c-163 0 -273 80 -301 229h-126z" />
    <glyph glyph-name="yen.tab" horiz-adv-x="724" 
d="M40 140l31 114h199l-20 65h-161l31 114h94l-83 267h168l85 -298h8l204 298h182l-193 -267h92l-12 -114h-163l-47 -65h204l-12 -114h-224l-30 -140h-166l29 140h-216z" />
    <glyph glyph-name="uni20B9.tab" horiz-adv-x="724" 
d="M550 0h-223l-250 191l26 120h150c109 0 153 34 169 81h-302l21 100h286c-11 50 -49 82 -149 82h-119l27 126h571l-34 -126h-176c23 -20 37 -46 45 -77h112l-29 -116h-84c-25 -112 -122 -191 -287 -191z" />
    <glyph glyph-name="period.tab" horiz-adv-x="362" 
d="M28 84c0 61 49 113 128 113c68 0 105 -41 105 -95c0 -61 -48 -113 -127 -113c-69 0 -106 41 -106 95z" />
    <glyph glyph-name="comma.tab" horiz-adv-x="362" 
d="M73 188h217v-30l-225 -308h-99z" />
    <glyph glyph-name="colon.tab" horiz-adv-x="362" 
d="M104 435c0 61 49 113 128 113c68 0 105 -41 105 -95c0 -61 -48 -113 -127 -113c-69 0 -106 41 -106 95zM29 84c0 61 49 113 128 113c68 0 105 -41 105 -95c0 -61 -48 -113 -127 -113c-69 0 -106 41 -106 95z" />
    <glyph glyph-name="semicolon.tab" horiz-adv-x="362" 
d="M104 434c0 62 49 114 127 114c69 0 106 -41 106 -95c0 -61 -49 -113 -127 -113c-69 0 -106 40 -106 94zM63 188h217v-30l-225 -308h-99z" />
    <glyph glyph-name="periodcentered.tab" horiz-adv-x="362" 
d="M78 316c0 61 49 113 128 113c68 0 105 -41 105 -95c0 -61 -48 -113 -127 -113c-69 0 -106 41 -106 95z" />
    <glyph glyph-name="hyphen.tab" horiz-adv-x="362" 
d="M372 428l-33 -156h-313l33 156h313z" />
    <glyph glyph-name="endash.tab" horiz-adv-x="724" 
d="M81 274l32 152h567l-33 -152h-566z" />
    <glyph glyph-name="underscore.tab" horiz-adv-x="724" 
d="M-99 -188l27 128h730l-28 -128h-729z" />
    <glyph glyph-name="slash.tab" horiz-adv-x="543" 
d="M-32 -134l476 969h168l-477 -969h-167z" />
    <glyph glyph-name="bar.tab" horiz-adv-x="543" 
d="M265 -134h-158l206 969h158z" />
    <glyph glyph-name="numbersign.tab" horiz-adv-x="724" 
d="M31 0l45 127h-90l27 126h108l69 194h-109l27 126h127l45 127h145l-45 -127h159l45 127h145l-45 -127h90l-27 -126h-108l-69 -194h109l-27 -126h-127l-45 -127h-145l45 127h-159l-45 -127h-145zM266 253h159l69 194h-159z" />
    <glyph glyph-name="percent.tab" horiz-adv-x="1086" 
d="M311 712c114 0 188 -70 188 -173c0 -108 -72 -212 -218 -212c-114 0 -188 70 -188 173c0 107 72 212 218 212zM126 1l353 349l350 350h168v-1l-354 -350l-349 -349h-168v1zM288 436c59 0 82 51 82 96c0 47 -27 71 -66 71c-59 0 -83 -52 -83 -97c0 -46 28 -70 67 -70z
M811 -12c-113 0 -187 70 -187 173c0 108 72 212 218 212c114 0 187 -70 187 -173c0 -107 -71 -212 -218 -212zM819 97c59 0 82 52 82 97c0 46 -27 70 -66 70c-59 0 -83 -51 -83 -96c0 -47 28 -71 67 -71z" />
    <glyph glyph-name="degree.tab" horiz-adv-x="634" 
d="M381 713c140 0 221 -83 221 -202c0 -120 -83 -244 -254 -244c-140 0 -221 83 -221 202c0 120 83 244 254 244zM354 385c79 0 110 66 110 118c0 61 -36 92 -90 92c-78 0 -109 -65 -109 -117c0 -61 36 -93 89 -93z" />
    <glyph glyph-name="quotedbl.tab" horiz-adv-x="634" 
d="M114 380l68 320h198v-29l-175 -291h-91zM483 380h-91l68 320h198v-29z" />
    <glyph glyph-name="quotesingle.tab" horiz-adv-x="362" 
d="M116 380l68 320h200v-29l-176 -291h-92z" />
    <glyph glyph-name="plus.tab" horiz-adv-x="724" 
d="M93 279l31 145h194l44 208h154l-44 -208h195l-31 -145h-195l-44 -208h-154l44 208h-194z" />
    <glyph glyph-name="minus.tab" horiz-adv-x="724" 
d="M115 275l33 154h499l-34 -154h-498z" />
    <glyph glyph-name="equal.tab" horiz-adv-x="724" 
d="M126 415l31 143h534l-31 -143h-534zM69 146l31 143h533l-30 -143h-534z" />
    <glyph glyph-name="divide.tab" horiz-adv-x="724" 
d="M431 660c61 0 96 -36 96 -82c0 -54 -43 -99 -110 -99c-61 0 -96 35 -96 82c0 54 42 99 110 99zM683 422l-29 -140h-576l29 140h576zM234 126c0 54 42 98 110 98c61 0 96 -35 96 -82c0 -54 -43 -98 -110 -98c-61 0 -96 35 -96 82z" />
    <glyph glyph-name="multiply.tab" horiz-adv-x="724" 
d="M142 536l117 93l137 -176l207 176l90 -113l-208 -177l133 -171l-117 -93l-137 176l-206 -175l-91 112l208 177z" />
    <glyph glyph-name="dotmath.tab" horiz-adv-x="362" 
d="M82 340c0 61 49 113 128 113c68 0 105 -41 105 -95c0 -61 -48 -113 -127 -113c-69 0 -106 41 -106 95z" />
    <glyph glyph-name="plusminus.tab" horiz-adv-x="724" 
d="M149 409l30 141h167l36 170h154l-36 -170h166l-30 -141h-166l-36 -170h-154l36 170h-167zM67 20l28 135h487l-28 -135h-487z" />
    <glyph glyph-name="less.tab" horiz-adv-x="724" 
d="M526 49l-408 219l35 164l501 218l-39 -175l-316 -135l261 -136z" />
    <glyph glyph-name="greater.tab" horiz-adv-x="724" 
d="M234 651l408 -219l-35 -164l-501 -218l39 175l316 135l-261 136z" />
    <glyph glyph-name="asciicircum.tab" horiz-adv-x="724" 
d="M569 700l109 -356h-168l-61 203h-35l-146 -203h-189l257 356h233z" />
    <glyph glyph-name="asciitilde.tab" horiz-adv-x="724" 
d="M494 219c-46 0 -83 18 -139 51c-52 31 -75 44 -109 44c-57 0 -112 -40 -176 -105h-1l42 199c46 44 94 74 156 74c45 0 83 -18 139 -52c52 -31 74 -43 109 -43c57 0 112 40 176 105h1l-42 -200c-46 -44 -94 -73 -156 -73z" />
    <glyph glyph-name="onehalf.tab" horiz-adv-x="1087" 
d="M432 388l-19 -102h-331l22 102h107l45 209h-111l38 103h222l-66 -312h93zM213 1l593 699h135v-1l-593 -699h-135v1zM886 427c94 0 152 -45 152 -116c0 -72 -57 -114 -161 -176l-49 -31l175 1l-22 -105h-344l23 105l124 80c101 61 127 81 127 102c0 18 -14 30 -47 30
c-46 0 -106 -21 -157 -47h-1l26 120c51 24 101 37 154 37z" />
    <glyph glyph-name="onethird.tab" horiz-adv-x="1087" 
d="M432 388l-19 -102h-331l22 102h107l45 209h-111l38 103h222l-66 -312h93zM207 1l593 699h135v-1l-593 -699h-135v1zM754 171l12 54l126 86h-186l29 103h317l-20 -97l-127 -84c71 -11 111 -49 111 -106c0 -86 -74 -140 -193 -140c-69 0 -131 18 -176 40l22 104h1
c44 -22 101 -39 153 -39c44 0 69 14 69 38c0 27 -34 41 -127 41h-11z" />
    <glyph glyph-name="twothirds.tab" horiz-adv-x="1087" 
d="M308 713c94 0 152 -45 152 -116c0 -72 -57 -114 -161 -176l-49 -31l175 1l-22 -105h-344l23 105l124 80c101 61 127 81 127 102c0 18 -14 30 -47 30c-46 0 -106 -21 -157 -47h-1l26 120c51 24 101 37 154 37zM204 1l593 699h135v-1l-593 -699h-135v1zM754 171l12 54
l126 86h-186l29 103h317l-20 -97l-127 -84c71 -11 111 -49 111 -106c0 -86 -74 -140 -193 -140c-69 0 -131 18 -176 40l22 104h1c44 -22 101 -39 153 -39c44 0 69 14 69 38c0 27 -34 41 -127 41h-11z" />
    <glyph glyph-name="onequarter.tab" horiz-adv-x="1087" 
d="M432 388l-19 -102h-331l22 102h107l45 209h-111l38 103h222l-66 -312h93zM213 1l593 699h135v-1l-593 -699h-135v1zM834 0l17 78h-229l20 93l151 243h248l-51 -237h62l-28 -99h-54l-17 -78h-119zM770 174h105l30 141h-49z" />
    <glyph glyph-name="threequarters.tab" horiz-adv-x="1087" 
d="M176 457l12 54l126 86h-186l29 103h317l-20 -97l-127 -84c71 -11 111 -49 111 -106c0 -86 -74 -140 -193 -140c-69 0 -131 18 -176 40l22 104h1c44 -22 101 -39 153 -39c44 0 69 14 69 38c0 27 -34 41 -127 41h-11zM205 1l593 699h135v-1l-593 -699h-135v1zM834 0l17 78
h-229l20 93l151 243h248l-51 -237h62l-28 -99h-54l-17 -78h-119zM770 174h105l30 141h-49z" />
    <glyph glyph-name="uni2155.tab" horiz-adv-x="1087" 
d="M432 388l-19 -102h-331l22 102h107l45 209h-111l38 103h222l-66 -312h93zM216 1l593 699h135v-1l-593 -699h-135v1zM822 -13c-67 0 -125 16 -172 37l23 102c45 -20 94 -34 151 -34c54 -1 69 17 69 38c0 28 -38 37 -157 39h-46l57 245h297l-11 -104h-199l-14 -55
c127 -3 197 -37 197 -122c0 -87 -66 -146 -195 -146z" />
    <glyph glyph-name="uni2156.tab" horiz-adv-x="1087" 
d="M308 713c94 0 152 -45 152 -116c0 -72 -57 -114 -161 -176l-49 -31l175 1l-22 -105h-344l23 105l124 80c101 61 127 81 127 102c0 18 -14 30 -47 30c-46 0 -106 -21 -157 -47h-1l26 120c51 24 101 37 154 37zM211 1l593 699h135v-1l-593 -699h-135v1zM822 -13
c-67 0 -125 16 -172 37l23 102c45 -20 94 -34 151 -34c54 -1 69 17 69 38c0 28 -38 37 -157 39h-46l57 245h297l-11 -104h-199l-14 -55c127 -3 197 -37 197 -122c0 -87 -66 -146 -195 -146z" />
    <glyph glyph-name="uni2157.tab" horiz-adv-x="1087" 
d="M176 457l12 54l126 86h-186l29 103h317l-20 -97l-127 -84c71 -11 111 -49 111 -106c0 -86 -74 -140 -193 -140c-69 0 -131 18 -176 40l22 104h1c44 -22 101 -39 153 -39c44 0 69 14 69 38c0 27 -34 41 -127 41h-11zM204 1l593 699h135v-1l-593 -699h-135v1zM822 -13
c-67 0 -125 16 -172 37l23 102c45 -20 94 -34 151 -34c54 -1 69 17 69 38c0 28 -38 37 -157 39h-46l57 245h297l-11 -104h-199l-14 -55c127 -3 197 -37 197 -122c0 -87 -66 -146 -195 -146z" />
    <glyph glyph-name="uni2158.tab" horiz-adv-x="1087" 
d="M256 286l17 78h-229l20 93l151 243h248l-51 -237h62l-28 -99h-54l-17 -78h-119zM212 1l593 699h135v-1l-593 -699h-135v1zM192 460h105l30 141h-49zM822 -13c-67 0 -125 16 -172 37l23 102c45 -20 94 -34 151 -34c54 -1 69 17 69 38c0 28 -38 37 -157 39h-46l57 245h297
l-11 -104h-199l-14 -55c127 -3 197 -37 197 -122c0 -87 -66 -146 -195 -146z" />
    <glyph glyph-name="uni2159.tab" horiz-adv-x="1087" 
d="M432 388l-19 -102h-331l22 102h107l45 209h-111l38 103h222l-66 -312h93zM213 1l593 699h135v-1l-593 -699h-135v1zM885 265c82 0 142 -42 142 -121c0 -93 -73 -157 -180 -157c-114 0 -184 65 -184 183c0 139 80 256 238 256c65 0 120 -20 147 -38l-22 -99
c-33 19 -76 37 -123 37c-67 0 -103 -35 -116 -84c30 15 64 23 98 23zM781 160c0 -54 29 -76 69 -76c36 0 62 20 62 51c0 30 -23 44 -60 44c-24 0 -47 -5 -71 -16v-3z" />
    <glyph glyph-name="uni215A.tab" horiz-adv-x="1087" 
d="M244 273c-67 0 -125 16 -172 37l23 102c45 -20 94 -34 151 -34c54 -1 69 17 69 38c0 28 -38 37 -157 39h-46l57 245h297l-11 -104h-199l-14 -55c127 -3 197 -37 197 -122c0 -87 -66 -146 -195 -146zM198 1l593 699h135v-1l-593 -699h-135v1zM885 265
c82 0 142 -42 142 -121c0 -93 -73 -157 -180 -157c-114 0 -184 65 -184 183c0 139 80 256 238 256c65 0 120 -20 147 -38l-22 -99c-33 19 -76 37 -123 37c-67 0 -103 -35 -116 -84c30 15 64 23 98 23zM781 160c0 -54 29 -76 69 -76c36 0 62 20 62 51c0 30 -23 44 -60 44
c-24 0 -47 -5 -71 -16v-3z" />
    <glyph glyph-name="oneeighth.tab" horiz-adv-x="1087" 
d="M432 388l-19 -102h-331l22 102h107l45 209h-111l38 103h222l-66 -312h93zM212 1l593 699h135v-1l-593 -699h-135v1zM820 -13c-123 0 -185 44 -185 113c0 57 42 101 109 114c-35 16 -57 45 -57 84c0 65 56 128 192 128c120 0 174 -52 174 -117c0 -54 -42 -93 -96 -104
c42 -18 66 -48 66 -89c0 -69 -60 -129 -203 -129zM864 246c46 0 72 19 72 47c0 25 -21 39 -62 39c-45 0 -71 -19 -71 -46c0 -25 21 -40 61 -40zM833 171c-51 0 -77 -19 -77 -49c0 -26 24 -42 70 -42c50 0 76 19 76 49c0 26 -23 42 -69 42z" />
    <glyph glyph-name="threeeighths.tab" horiz-adv-x="1087" 
d="M176 457l12 54l126 86h-186l29 103h317l-20 -97l-127 -84c71 -11 111 -49 111 -106c0 -86 -74 -140 -193 -140c-69 0 -131 18 -176 40l22 104h1c44 -22 101 -39 153 -39c44 0 69 14 69 38c0 27 -34 41 -127 41h-11zM194 1l593 699h135v-1l-593 -699h-135v1zM820 -13
c-123 0 -185 44 -185 113c0 57 42 101 109 114c-35 16 -57 45 -57 84c0 65 56 128 192 128c120 0 174 -52 174 -117c0 -54 -42 -93 -96 -104c42 -18 66 -48 66 -89c0 -69 -60 -129 -203 -129zM864 246c46 0 72 19 72 47c0 25 -21 39 -62 39c-45 0 -71 -19 -71 -46
c0 -25 21 -40 61 -40zM833 171c-51 0 -77 -19 -77 -49c0 -26 24 -42 70 -42c50 0 76 19 76 49c0 26 -23 42 -69 42z" />
    <glyph glyph-name="fiveeighths.tab" horiz-adv-x="1087" 
d="M244 273c-67 0 -125 16 -172 37l23 102c45 -20 94 -34 151 -34c54 -1 69 17 69 38c0 28 -38 37 -157 39h-46l57 245h297l-11 -104h-199l-14 -55c127 -3 197 -37 197 -122c0 -87 -66 -146 -195 -146zM195 1l593 699h135v-1l-593 -699h-135v1zM820 -13
c-123 0 -185 44 -185 113c0 57 42 101 109 114c-35 16 -57 45 -57 84c0 65 56 128 192 128c120 0 174 -52 174 -117c0 -54 -42 -93 -96 -104c42 -18 66 -48 66 -89c0 -69 -60 -129 -203 -129zM864 246c46 0 72 19 72 47c0 25 -21 39 -62 39c-45 0 -71 -19 -71 -46
c0 -25 21 -40 61 -40zM833 171c-51 0 -77 -19 -77 -49c0 -26 24 -42 70 -42c50 0 76 19 76 49c0 26 -23 42 -69 42z" />
    <glyph glyph-name="seveneighths.tab" horiz-adv-x="1087" 
d="M252 286h-142l233 292l5 23h-121l-16 -74h-110l36 173h360l-30 -144zM169 1l593 699h135v-1l-593 -699h-135v1zM820 -13c-123 0 -185 44 -185 113c0 57 42 101 109 114c-35 16 -57 45 -57 84c0 65 56 128 192 128c120 0 174 -52 174 -117c0 -54 -42 -93 -96 -104
c42 -18 66 -48 66 -89c0 -69 -60 -129 -203 -129zM864 246c46 0 72 19 72 47c0 25 -21 39 -62 39c-45 0 -71 -19 -71 -46c0 -25 21 -40 61 -40zM833 171c-51 0 -77 -19 -77 -49c0 -26 24 -42 70 -42c50 0 76 19 76 49c0 26 -23 42 -69 42z" />
    <glyph glyph-name="uni25A0" unicode="&#x25a0;" horiz-adv-x="1117" 
d="M169 -29v758h779v-758h-779z" />
    <glyph glyph-name="uni25E9" unicode="&#x25e9;" horiz-adv-x="1117" 
d="M169 -29v758h779v-758h-779zM334 123h447v452z" />
    <glyph glyph-name="uni25A1" unicode="&#x25a1;" horiz-adv-x="1117" 
d="M169 -29v758h779v-758h-779zM338 123h441v454h-441v-454z" />
    <glyph glyph-name="uni2611" unicode="&#x2611;" horiz-adv-x="1117" 
d="M857 886l-326 -646h-96l193 646h229zM876 729h81v-758h-797v758h330l-151 -559h240z" />
    <glyph glyph-name="circle.solid" unicode="&#x25cf;" horiz-adv-x="1078" 
d="M539 -46c-256 0 -419 156 -419 396c0 239 163 396 419 396c257 0 419 -156 419 -396c0 -239 -163 -396 -419 -396z" />
    <glyph glyph-name="circle.half" unicode="&#x25d0;" horiz-adv-x="1078" 
d="M539 -46c-256 0 -419 156 -419 396c0 239 163 396 419 396c257 0 419 -156 419 -396c0 -239 -163 -396 -419 -396zM529 99c155 0 255 97 255 251s-100 251 -255 251v-502z" />
    <glyph glyph-name="circle.open" unicode="&#x25cb;" horiz-adv-x="1078" 
d="M539 -46c-256 0 -419 156 -419 396c0 239 163 396 419 396c257 0 419 -156 419 -396c0 -239 -163 -396 -419 -396zM539 105c153 0 243 96 243 245s-90 245 -243 245s-243 -96 -243 -245s90 -245 243 -245z" />
    <glyph glyph-name="circle.checked" unicode="&#x2299;" horiz-adv-x="1078" 
d="M539 -46c-256 0 -419 156 -419 396c0 239 163 396 419 396c257 0 419 -156 419 -396c0 -239 -163 -396 -419 -396zM539 105c155 0 247 96 247 245s-92 245 -247 245s-247 -96 -247 -245s92 -245 247 -245zM539 223c-80 0 -129 50 -129 127s49 127 129 127
c81 0 129 -50 129 -127s-48 -127 -129 -127z" />
    <glyph glyph-name="uni25AA" unicode="&#x25aa;" horiz-adv-x="808" 
d="M163 118v464h482v-464h-482z" />
    <glyph glyph-name="uni25AB" unicode="&#x25ab;" horiz-adv-x="808" 
d="M163 118v464h482v-464h-482zM311 252h186v196h-186v-196z" />
    <glyph glyph-name="uniE000" unicode="&#xe000;" horiz-adv-x="782" 
d="M390 100c-160 0 -260 100 -260 250c0 149 100 250 260 250c163 0 262 -100 262 -250c0 -149 -100 -250 -262 -250z" />
    <glyph glyph-name="uniE001" unicode="&#xe001;" horiz-adv-x="782" 
d="M390 100c-160 0 -260 100 -260 250c0 149 100 250 260 250c163 0 262 -100 262 -250c0 -149 -100 -250 -262 -250zM390 241c69 0 111 44 111 109s-42 109 -111 109c-67 0 -109 -44 -109 -109s42 -109 109 -109z" />
    <glyph glyph-name="uniE02A" unicode="&#xe02a;" horiz-adv-x="1072" 
d="M847 735l103 -98l-78 -96l80 -96l-80 -96l80 -96l-80 -96l78 -96l-103 -98l-101 78l-101 -80l-101 80l-101 -80l-101 80l-101 -78l-103 98l78 96l-80 96l80 96l-80 96l80 96l-78 96l103 98l101 -78l101 80l101 -80l101 80l101 -80z" />
    <glyph glyph-name="uni2600" unicode="&#x2600;" horiz-adv-x="1039" 
d="M933 371v-34l-139 -76l51 -154l-24 -28l-153 32l-64 -151l-34 -7l-97 123l-146 -75l-28 18l3 157l-160 35l-12 33l107 117l-103 130l12 34l160 22l2 163l32 18l135 -82l108 121l36 -7l50 -150l160 24l23 -28l-58 -147z" />
    <glyph glyph-name="uni2735" unicode="&#x2735;" horiz-adv-x="979" 
d="M903 373v-38l-203 -51l116 -175l-26 -32l-187 92l-27 -208l-38 -8l-85 188l-154 -141l-32 20l54 198l-208 -9l-14 37l172 115l-168 128l14 38l206 -22l-47 204l36 20l142 -148l97 186l40 -8l13 -206l194 83l25 -32l-123 -168z" />
    <glyph glyph-name="uni263C" unicode="&#x263c;" horiz-adv-x="1039" 
d="M933 371v-34l-139 -76l51 -154l-24 -28l-153 32l-64 -151l-34 -7l-97 123l-146 -75l-28 18l3 157l-160 35l-12 33l107 117l-103 130l12 34l160 22l2 163l32 18l135 -82l108 121l36 -7l50 -150l160 24l23 -28l-58 -147zM664 362c0 73 -50 133 -137 133s-137 -60 -137 -133
s50 -133 137 -133s137 60 137 133z" />
    <glyph glyph-name="uni2605" unicode="&#x2605;" horiz-adv-x="1050" 
d="M645 502l299 3l19 -49l-243 -169l100 -287l-43 -29l-252 186l-253 -186l-42 29l100 287l-243 169l19 49l299 -3l94 283h52z" />
    <glyph glyph-name="uni272B" unicode="&#x272b;" horiz-adv-x="1050" 
d="M645 502l299 3l19 -49l-243 -169l100 -287l-43 -29l-252 186l-253 -186l-42 29l100 287l-243 169l19 49l299 -3l94 283h52zM525 236l122 117l-122 117l-122 -117z" />
    <glyph glyph-name="uniE027" unicode="&#xe027;" horiz-adv-x="1000" 
d="M500 524c-60 0 -100 38 -100 96c0 57 40 96 100 96c61 0 100 -39 100 -96c0 -58 -39 -96 -100 -96zM249 391c-60 0 -100 38 -100 96c0 57 40 96 100 96c62 0 100 -39 100 -96c0 -58 -38 -96 -100 -96zM751 391c-61 0 -100 38 -100 96c0 57 39 96 100 96s100 -39 100 -96
c0 -58 -39 -96 -100 -96zM500 250c-62 0 -104 40 -104 100c0 59 42 100 104 100c63 0 104 -41 104 -100c0 -60 -41 -100 -104 -100zM249 117c-60 0 -100 38 -100 96c0 57 40 96 100 96c62 0 100 -39 100 -96c0 -58 -38 -96 -100 -96zM751 117c-61 0 -100 38 -100 96
c0 57 39 96 100 96s100 -39 100 -96c0 -58 -39 -96 -100 -96zM500 -16c-60 0 -100 37 -100 96c0 57 40 96 100 96c61 0 100 -39 100 -96c0 -59 -39 -96 -100 -96z" />
    <glyph glyph-name="uniE002" unicode="&#xe002;" horiz-adv-x="1100" 
d="M273 517c-59 0 -98 36 -98 93s39 94 98 94c60 0 98 -37 98 -94s-38 -93 -98 -93zM550 517c-59 0 -98 36 -98 93s39 94 98 94c60 0 98 -37 98 -94s-38 -93 -98 -93zM827 517c-59 0 -98 36 -98 93s39 94 98 94c60 0 98 -37 98 -94s-38 -93 -98 -93zM273 256
c-59 0 -98 37 -98 94c0 56 39 94 98 94c60 0 98 -38 98 -94c0 -57 -38 -94 -98 -94zM550 256c-59 0 -98 37 -98 94c0 56 39 94 98 94c60 0 98 -38 98 -94c0 -57 -38 -94 -98 -94zM827 256c-59 0 -98 37 -98 94c0 56 39 94 98 94c60 0 98 -38 98 -94c0 -57 -38 -94 -98 -94z
M273 -4c-59 0 -98 36 -98 94c0 56 39 93 98 93c60 0 98 -37 98 -93c0 -58 -38 -94 -98 -94zM550 -4c-59 0 -98 36 -98 94c0 56 39 93 98 93c60 0 98 -37 98 -93c0 -58 -38 -94 -98 -94zM827 -4c-59 0 -98 36 -98 94c0 56 39 93 98 93c60 0 98 -37 98 -93
c0 -58 -38 -94 -98 -94z" />
    <glyph glyph-name="uni2795" unicode="&#x2795;" horiz-adv-x="1020" 
d="M111 274v157h313v309h172v-309h313v-157h-313v-314h-172v314h-313z" />
    <glyph glyph-name="uni2731" unicode="&#x2731;" horiz-adv-x="1020" 
d="M268 17l-105 107l160 154l-215 -2v149l219 -2l-159 153l101 105l165 -166l-2 225h156l-2 -228l168 170l103 -107l-160 -152l215 2v-149l-219 2l163 -155l-102 -104l-168 170l2 -229h-156l2 226z" />
    <glyph glyph-name="uni274C" unicode="&#x274c;" horiz-adv-x="1020" 
d="M236 -25l-114 116l273 259l-273 260l111 115l275 -268l275 268l113 -117l-273 -259l273 -260l-112 -114l-274 267z" />
    <glyph glyph-name="uni261A" unicode="&#x261a;" horiz-adv-x="1750" 
d="M1575 66l-399 88l-378 -131c-14 -5 -35 -3 -49 5l-15 8c-24 16 -28 32 -19 76l-30 -10c-15 -6 -36 -5 -50 3l-25 13c-25 12 -29 31 -19 81l-31 -13c-15 -7 -36 -7 -50 1l-28 16c-16 9 -25 25 -20 46l39 159l-231 -20c-150 -12 -213 60 -188 129l2 6l605 79
c28 4 53 7 65 7c14 0 37 -2 62 -5l759 -78v-460z" />
    <glyph glyph-name="uni261B" unicode="&#x261b;" horiz-adv-x="1750" 
d="M942 23l-376 131l-401 -88v460l759 78c25 3 48 5 62 5c12 0 37 -3 65 -7l605 -79l2 -6c25 -69 -39 -141 -188 -129l-231 20l38 -159c6 -21 -3 -37 -19 -46l-28 -16c-14 -8 -35 -8 -50 -1l-30 14c9 -50 5 -70 -20 -82l-25 -13c-14 -8 -35 -9 -50 -3l-29 9
c8 -43 4 -60 -20 -75l-15 -8c-14 -8 -35 -10 -49 -5z" />
    <glyph glyph-name="uni2190" unicode="&#x2190;" horiz-adv-x="1020" 
d="M408 444l482 2v-160l-479 2l249 -220h-230l-337 298l337 298h230z" />
    <glyph glyph-name="uni2192" unicode="&#x2192;" horiz-adv-x="1020" 
d="M612 286l-482 -2v160l479 -2l-249 220h230l337 -298l-337 -298h-230z" />
    <glyph glyph-name="uni2191" unicode="&#x2191;" horiz-adv-x="890" 
d="M360 -22l2 473l-228 -247v221l311 328l311 -328v-221l-228 247l2 -473h-170z" />
    <glyph glyph-name="uni2193" unicode="&#x2193;" horiz-adv-x="890" 
d="M445 -53l-311 328v221l228 -247l-2 473h170l-2 -473l228 247v-221z" />
    <glyph glyph-name="uniE003" unicode="&#xe003;" horiz-adv-x="1020" 
d="M532 9l-459 357l459 357l23 -12l-8 -210l347 5v-280l-347 5l8 -210z" />
    <glyph glyph-name="uni27A1" unicode="&#x27a1;" horiz-adv-x="1020" 
d="M488 9l-23 12l8 210l-347 -5v280l347 -5l-8 210l23 12l459 -357z" />
    <glyph glyph-name="uniE004" unicode="&#xe004;" horiz-adv-x="910" 
d="M309 -22l7 309l-216 -4l-12 24l367 446l367 -446l-12 -24l-216 4l7 -309h-292z" />
    <glyph glyph-name="uniE005" unicode="&#xe005;" horiz-adv-x="910" 
d="M455 -53l-367 446l12 24l216 -4l-7 309h292l-7 -309l216 4l12 -24z" />
    <glyph glyph-name="uni21A2" unicode="&#x21a2;" horiz-adv-x="2050" 
d="M733 97l-654 267l654 267l5 -15l-88 -176h610l159 123h521l-222 -199l222 -199h-521l-159 123h-610l88 -176z" />
    <glyph glyph-name="uni21A3" unicode="&#x21a3;" horiz-adv-x="2050" 
d="M1317 97l-5 15l88 176h-610l-159 -123h-521l222 199l-222 199h521l159 -123h610l-88 176l5 15l654 -267z" />
    <glyph glyph-name="uni25C0" unicode="&#x25c0;" horiz-adv-x="1050" 
d="M881 -34l-782 379v10l782 379v-768z" />
    <glyph glyph-name="uni25B6" unicode="&#x25b6;" horiz-adv-x="1050" 
d="M169 734l782 -379v-10l-782 -379v768z" />
    <glyph glyph-name="uni25B2" unicode="&#x25b2;" horiz-adv-x="1000" 
d="M116 -29l379 782h10l379 -782h-768z" />
    <glyph glyph-name="uni25BC" unicode="&#x25bc;" horiz-adv-x="1000" 
d="M884 729l-379 -782h-10l-379 782h768z" />
    <glyph glyph-name="uni25B4" unicode="&#x25b4;" horiz-adv-x="924" 
d="M467 793l362 -434h-734l362 434h10z" />
    <glyph glyph-name="uni25BE" unicode="&#x25be;" horiz-adv-x="924" 
d="M457 -66l-362 434h734l-362 -434h-10z" />
    <glyph glyph-name="uni25C2" unicode="&#x25c2;" horiz-adv-x="1010" 
d="M842 93l-733 267v12l733 267v-546z" />
    <glyph glyph-name="uni25B8" unicode="&#x25b8;" horiz-adv-x="1010" 
d="M168 639l733 -267v-12l-733 -267v546z" />
    <glyph glyph-name="uniE023" unicode="&#xe023;" horiz-adv-x="815" 
d="M515 -170l-422 504v12l422 504h223l-424 -509l424 -511h-223z" />
    <glyph glyph-name="uniE024" unicode="&#xe024;" horiz-adv-x="815" 
d="M75 -170l423 512l-423 508h223l421 -504v-12l-421 -504h-223z" />
    <glyph glyph-name="uniE023.open" unicode="&#x276c;" horiz-adv-x="921" 
d="M454 -170l-383 504v12l383 504h314v-1020h-314zM542 -9h53v698h-53l-263 -352z" />
    <glyph glyph-name="uniE024.open" unicode="&#x276d;" horiz-adv-x="921" 
d="M153 -170v1020h314l383 -504v-12l-383 -504h-314zM326 -9h53l263 352l-263 346h-53v-698z" />
    <glyph glyph-name="uniE023.solid" unicode="&#x2770;" horiz-adv-x="921" 
d="M762 850v-1020h-315l-376 504v12l376 504h315z" />
    <glyph glyph-name="uniE024.solid" unicode="&#x2771;" horiz-adv-x="921" 
d="M159 -170v1020h315l376 -504v-12l-376 -504h-315z" />
    <glyph glyph-name="uniE006" unicode="&#xe006;" horiz-adv-x="1487" 
d="M145 130v472h982l250 -236l-250 -236h-982z" />
    <glyph glyph-name="uniE007" unicode="&#xe007;" horiz-adv-x="1487" 
d="M145 130v472h982l250 -236l-250 -236h-982zM317 286h743l81 80l-81 80h-743v-160z" />
    <glyph glyph-name="uniE008" unicode="&#xe008;" horiz-adv-x="1487" 
d="M145 130v472h982l250 -236l-250 -236h-982zM317 286h690v160h-690v-160z" />
    <glyph glyph-name="uniE009" unicode="&#xe009;" horiz-adv-x="1300" 
d="M145 227v278h1010v-278h-1010z" />
    <glyph glyph-name="uniE00A" unicode="&#xe00a;" horiz-adv-x="1300" 
d="M145 412v162h1010v-162h-1010zM145 149v161h1010v-161h-1010z" />
    <glyph glyph-name="uniE00B" unicode="&#xe00b;" horiz-adv-x="1300" 
d="M145 525v141h1010v-141h-1010zM145 293v137h1010v-137h-1010zM145 57v141h1010v-141h-1010z" />
    <glyph glyph-name="uniE00C" unicode="&#xe00c;" horiz-adv-x="1098" 
d="M549 130c-234 0 -365 60 -365 129s131 128 365 128c235 0 365 -59 365 -128s-131 -129 -365 -129zM182 68v93h5c19 -45 128 -105 362 -105s343 60 362 105h5v-93c0 -69 -133 -129 -367 -129s-367 60 -367 129z" />
    <glyph glyph-name="uniE00D" unicode="&#xe00d;" horiz-adv-x="1098" 
d="M549 317c-234 0 -365 60 -365 129s131 128 365 128c235 0 365 -59 365 -128s-131 -129 -365 -129zM182 255v93h5c19 -45 128 -105 362 -105s343 60 362 105h5v-93c0 -69 -133 -129 -367 -129s-367 60 -367 129zM182 68v93h5c19 -45 128 -105 362 -105s343 60 362 105h5
v-93c0 -69 -133 -129 -367 -129s-367 60 -367 129z" />
    <glyph glyph-name="uniE00E" unicode="&#xe00e;" horiz-adv-x="1098" 
d="M549 504c-234 0 -365 60 -365 129s131 128 365 128c235 0 365 -59 365 -128s-131 -129 -365 -129zM182 442v93h5c19 -45 128 -105 362 -105s343 60 362 105h5v-93c0 -69 -133 -129 -367 -129s-367 60 -367 129zM182 255v93h5c19 -45 128 -105 362 -105s343 60 362 105h5
v-93c0 -69 -133 -129 -367 -129s-367 60 -367 129zM182 68v93h5c19 -45 128 -105 362 -105s343 60 362 105h5v-93c0 -69 -133 -129 -367 -129s-367 60 -367 129z" />
    <glyph glyph-name="uniE00F" unicode="&#xe00f;" horiz-adv-x="1098" 
d="M549 111l-409 145v18l409 145l409 -145v-18zM549 -76l-404 143v112l404 -143l404 143v-112z" />
    <glyph glyph-name="uniE010" unicode="&#xe010;" horiz-adv-x="1098" 
d="M549 292l-409 145v18l409 145l409 -145v-18zM549 105l-404 143v112l404 -143l404 143v-112zM549 -76l-404 143v112l404 -143l404 143v-112z" />
    <glyph glyph-name="uniE011" unicode="&#xe011;" horiz-adv-x="1098" 
d="M549 473l-409 145v18l409 145l409 -145v-18zM549 286l-404 143v112l404 -143l404 143v-112zM549 105l-404 143v112l404 -143l404 143v-112zM549 -76l-404 143v112l404 -143l404 143v-112z" />
    <glyph glyph-name="uni2295" unicode="&#x2295;" horiz-adv-x="1078" 
d="M539 -46c-253 0 -413 156 -413 396c0 239 160 396 413 396c254 0 413 -156 413 -396c0 -239 -160 -396 -413 -396zM310 294h171v-171h116v171h171v116h-171v171h-116v-171h-171v-116z" />
    <glyph glyph-name="uni2296" unicode="&#x2296;" horiz-adv-x="1078" 
d="M539 -46c-253 0 -413 156 -413 396c0 239 160 396 413 396c254 0 413 -156 413 -396c0 -239 -160 -396 -413 -396zM309 294h459v116h-459v-116z" />
    <glyph glyph-name="uniE012" unicode="&#xe012;" horiz-adv-x="1078" 
d="M539 -46c-253 0 -413 156 -413 396c0 239 160 396 413 396c254 0 413 -156 413 -396c0 -239 -160 -396 -413 -396zM366 561v-115c56 35 120 58 182 58c44 0 79 -11 79 -44c0 -26 -26 -53 -160 -82v-99h1c192 34 289 86 289 190c0 98 -93 139 -196 139
c-78 0 -138 -20 -195 -47zM525 69c52 0 83 32 83 74v1c0 42 -31 73 -83 73c-53 0 -84 -31 -84 -73v-1c0 -42 31 -74 84 -74z" />
    <glyph glyph-name="uniE013" unicode="&#xe013;" horiz-adv-x="1078" 
d="M539 -46c-253 0 -413 156 -413 396c0 239 160 396 413 396c254 0 413 -156 413 -396c0 -239 -160 -396 -413 -396zM491 297h97l36 304v9h-170v-9zM540 69c52 0 83 32 83 74v1c0 42 -31 73 -83 73c-53 0 -84 -31 -84 -73v-1c0 -42 31 -74 84 -74z" />
    <glyph glyph-name="uni2297" unicode="&#x2297;" horiz-adv-x="1078" 
d="M539 -46c-253 0 -413 156 -413 396c0 239 160 396 413 396c254 0 413 -156 413 -396c0 -239 -160 -396 -413 -396zM311 204l83 -82l146 147l146 -147l82 82l-147 146l147 146l-82 82l-146 -147l-146 147l-83 -82l148 -146z" />
    <glyph glyph-name="uni2612" unicode="&#x2612;" horiz-adv-x="1117" 
d="M172 -29v758h773v-758h-773zM389 98l170 171l169 -171l83 82l-171 170l171 170l-83 82l-169 -171l-170 171l-83 -82l171 -170l-171 -170z" />
    <glyph glyph-name="uniE014" unicode="&#xe014;" horiz-adv-x="1079" 
d="M358 -36l-212 212v348l212 212h363l212 -212v-348l-212 -212h-363zM309 294h459v116h-459v-116z" />
    <glyph glyph-name="uni1F6AB" unicode="&#x1f6ab;" horiz-adv-x="1078" 
d="M540 -46c-256 0 -420 159 -420 396c0 239 162 396 418 396c257 0 420 -159 420 -396c0 -239 -162 -396 -418 -396zM289 347c0 -38 6 -73 19 -103l178 165l179 162c-35 18 -78 27 -126 27c-153 0 -250 -96 -250 -251zM539 102c153 0 250 96 250 251c0 38 -6 73 -19 103
l-178 -165l-178 -162c35 -18 77 -27 125 -27z" />
    <glyph glyph-name="uni260E" unicode="&#x260e;" horiz-adv-x="1158" 
d="M963 -29h-768l-25 196l140 250l-168 -2c-19 40 -29 76 -29 111c0 135 151 220 466 220s466 -85 466 -220c0 -35 -10 -71 -29 -111l-168 2l140 -250zM758 574h-358l-11 -90c51 9 118 17 190 17c73 0 139 -8 190 -17zM738 249c0 64 -57 117 -159 117s-160 -53 -160 -117
c0 -65 58 -117 160 -117s159 52 159 117z" />
    <glyph glyph-name="uni1F4F1" unicode="&#x1f4f1;" horiz-adv-x="917" 
d="M307 -42c-99 0 -139 40 -139 139v506c0 99 40 139 139 139h303c99 0 139 -40 139 -139v-506c0 -99 -40 -139 -139 -139h-303zM374 73h168c30 0 47 19 47 48s-17 46 -47 46h-168c-30 0 -47 -17 -47 -46s17 -48 47 -48z" />
    <glyph glyph-name="uniE015" unicode="&#xe015;" horiz-adv-x="1034" 
d="M631 467v264h25l238 -239v-25h-263zM172 -29v758h357v-359h363v-399h-720z" />
    <glyph glyph-name="uni2709" unicode="&#x2709;" horiz-adv-x="1417" 
d="M710 279l-488 450h973zM172 102v546l282 -264zM1245 102l-281 280l281 266v-546zM179 -29l347 351l184 -175l183 175l346 -351h-1060z" />
    <glyph glyph-name="uniE015.next" unicode="&#x2398;" horiz-adv-x="1082" 
d="M322 151h-145v578h551l11 -128h-417v-450zM429 -29v526h492v-526h-492z" />
    <glyph glyph-name="uniE015.previous" unicode="&#x2397;" horiz-adv-x="1082" 
d="M653 729v-526h-492v526h492zM760 549h145v-578h-551l-11 128h417v450z" />
    <glyph glyph-name="uniE016" unicode="&#xe016;" horiz-adv-x="1135" 
d="M240 531c-62 0 -103 39 -103 98s41 99 103 99c63 0 102 -40 102 -99s-39 -98 -102 -98zM432 560v139h550l-30 -139h-520zM240 251c-62 0 -103 39 -103 99c0 59 41 99 103 99c63 0 102 -40 102 -99c0 -60 -39 -99 -102 -99zM432 280v140h550l-30 -140h-520zM240 -28
c-62 0 -103 39 -103 99c0 58 41 98 103 98c63 0 102 -40 102 -98c0 -60 -39 -99 -102 -99zM432 1v139h550l-30 -139h-520z" />
    <glyph glyph-name="uni1F4C8" unicode="&#x1f4c8;" horiz-adv-x="1062" 
d="M728 -40v769h165v-769h-165zM429 -40v559h165v-559h-165zM130 -40v349h164v-349h-164z" />
    <glyph glyph-name="uni1F4C9" unicode="&#x1f4c9;" horiz-adv-x="1062" 
d="M169 -40v769h165v-769h-165zM468 -40v559h165v-559h-165zM768 -40v349h164v-349h-164z" />
    <glyph glyph-name="uniE021" unicode="&#xe021;" horiz-adv-x="1020" 
d="M392 537v150h236v-150h-236zM248 274v146h524v-146h-524zM98 11v146h824v-146h-824z" />
    <glyph glyph-name="uniE022" unicode="&#xe022;" horiz-adv-x="1020" 
d="M98 539v146h824v-146h-824zM248 276v145h524v-145h-524zM392 9v149h236v-149h-236z" />
    <glyph glyph-name="uni238C" unicode="&#x238c;" horiz-adv-x="1041" 
d="M396 278h152c113 0 199 38 197 150c1 111 -84 146 -197 146h-370l27 155h372c209 0 349 -101 347 -297c2 -197 -138 -304 -347 -304h-183l168 -151h-217l-232 226l231 226h218z" />
    <glyph glyph-name="uniE017" unicode="&#xe017;" horiz-adv-x="825" 
d="M180 89l14 651l34 15l491 -441l-2 -24l-221 -1l125 -266l-141 -66l-125 277l-149 -146z" />
    <glyph glyph-name="uni1F553" unicode="&#x1f553;" horiz-adv-x="1078" 
d="M539 -46c-253 0 -413 156 -413 396c0 239 160 396 413 396c254 0 413 -156 413 -396c0 -239 -160 -396 -413 -396zM484 302l277 -176v133l-161 101v263h-116v-321z" />
    <glyph glyph-name="uniE028" unicode="&#xe028;" horiz-adv-x="796" 
d="M131 466c0 179 104 280 267 280c166 0 267 -100 267 -280v-232c0 -179 -102 -280 -267 -280c-163 0 -267 100 -267 280v232zM398 368c78 0 122 48 122 122s-44 122 -122 122c-76 0 -122 -48 -122 -122s46 -122 122 -122z" />
    <glyph glyph-name="uniE029" unicode="&#xe029;" horiz-adv-x="796" 
d="M398 -46c-166 0 -267 100 -267 280v232c0 179 102 280 267 280c163 0 267 -100 267 -280v-232c0 -179 -104 -280 -267 -280zM398 88c76 0 122 48 122 122s-46 122 -122 122c-78 0 -122 -48 -122 -122s44 -122 122 -122z" />
    <glyph glyph-name="uniE018" unicode="&#xe018;" horiz-adv-x="960" 
d="M255 206c-94 0 -159 58 -159 147c0 88 65 147 159 147c27 0 51 -5 72 -14l179 106v7c0 78 60 147 153 147c95 0 157 -58 157 -147s-62 -147 -157 -147c-33 0 -63 7 -86 21l-166 -97c1 -7 1 -15 1 -23s-1 -17 -2 -24l169 -101c24 13 52 20 84 20c95 0 157 -59 157 -147
c0 -90 -62 -147 -157 -147c-93 0 -153 68 -153 147v9l-180 109c-21 -8 -45 -13 -71 -13z" />
    <glyph glyph-name="uni1F50D" unicode="&#x1f50d;" horiz-adv-x="919" 
d="M461 97c-205 0 -340 131 -340 323c0 191 135 326 340 326c204 0 340 -131 340 -326c0 -108 -45 -197 -120 -255l128 -226l-152 -79l-132 242c-21 -3 -42 -5 -64 -5zM465 255c98 0 162 67 162 165s-64 166 -166 166c-101 0 -165 -68 -165 -166s63 -165 169 -165z" />
    <glyph glyph-name="uni1F517" unicode="&#x1f517;" horiz-adv-x="1462" 
d="M368 -16c-158 85 -249 195 -249 354c0 212 168 387 435 387c270 0 423 -149 423 -333c0 -38 -5 -67 -15 -104l-164 -21c10 29 15 72 15 102c0 124 -95 203 -256 203c-158 0 -261 -104 -261 -226s77 -195 208 -267zM915 -24c-270 0 -423 149 -423 333c0 38 5 67 15 104
l164 21c-10 -29 -15 -72 -15 -102c0 -124 95 -203 256 -203c158 0 261 104 261 227c0 116 -77 190 -208 266l136 95c158 -89 249 -200 249 -354c0 -212 -169 -387 -435 -387z" />
    <glyph glyph-name="uni1F512" unicode="&#x1f512;" horiz-adv-x="1066" 
d="M139 -29v429h112v80c0 165 107 266 282 266s282 -101 282 -266v-80h112v-429h-788zM414 478v-78h238v78c0 74 -32 128 -119 128s-119 -54 -119 -128z" />
    <glyph glyph-name="uniE019" unicode="&#xe019;" horiz-adv-x="1078" 
d="M539 -46c-253 0 -413 156 -413 396c0 239 160 396 413 396c254 0 413 -156 413 -396c0 -239 -160 -396 -413 -396zM371 120h336v10l-124 229c61 17 97 64 97 118c0 74 -57 128 -141 128c-83 0 -141 -54 -141 -128c0 -54 36 -101 97 -118l-124 -229v-10z" />
    <glyph glyph-name="uni1F5DD" unicode="&#x1f5dd;" horiz-adv-x="853" 
d="M680 234v-206l-196 3v-71h-150v388c-127 17 -229 79 -229 193c0 136 145 205 304 205c158 0 304 -68 304 -205c0 -113 -103 -176 -229 -193v-117zM409 612c-82 0 -142 -25 -142 -71s60 -70 142 -70c81 0 142 24 142 70s-61 71 -142 71z" />
    <glyph glyph-name="uniE025" unicode="&#xe025;" horiz-adv-x="902" 
d="M192 -63v792h518v-792h-20l-239 218l-239 -218h-20z" />
    <glyph glyph-name="uni1F441" unicode="&#x1f441;" horiz-adv-x="978" 
d="M489 50c-178 0 -318 111 -430 300c112 189 252 300 430 300c179 0 318 -110 430 -300c-112 -190 -251 -300 -430 -300zM489 162c117 0 197 78 197 188c0 111 -79 188 -197 188c-116 0 -197 -78 -197 -188c0 -111 81 -188 197 -188zM489 264c-54 0 -86 33 -86 86
s32 86 86 86c55 0 86 -33 86 -86s-31 -86 -86 -86z" />
    <glyph glyph-name="uni1F4AC" unicode="&#x1f4ac;" horiz-adv-x="1098" 
d="M145 -53l-10 29c114 77 197 155 250 234c-150 37 -239 123 -239 238c0 152 160 298 413 298c254 0 413 -153 413 -296c0 -122 -55 -232 -277 -340c-124 -60 -300 -120 -550 -163z" />
    <glyph glyph-name="uniE026" unicode="&#xe026;" horiz-adv-x="1004" 
d="M502 751c144 0 225 -103 225 -247c0 -127 -81 -259 -225 -259s-225 132 -225 259c0 144 81 247 225 247zM909 -29h-814l10 123c5 60 31 90 140 113l78 18c47 -44 108 -71 179 -71s132 27 179 71l78 -18c109 -23 135 -53 140 -113z" />
    <glyph glyph-name="heart" unicode="&#x2665;" horiz-adv-x="1010" 
d="M503 601h4c32 92 104 145 193 145c99 0 204 -71 204 -228c0 -185 -192 -401 -396 -570h-6c-203 169 -396 385 -396 570c0 157 105 228 204 228c89 0 161 -53 193 -145z" />
    <glyph glyph-name="uni2302" unicode="&#x2302;" horiz-adv-x="1050" 
d="M884 -29h-718v489l359 293l359 -293v-489z" />
    <glyph glyph-name="uni1F4D5" unicode="&#x1f4d5;" horiz-adv-x="1019" 
d="M390 -29c-97 0 -151 48 -203 104c-33 36 -43 70 -43 120v357c0 59 14 111 46 143c25 25 64 35 106 35h472v-185h-9l-100 90h-333c-29 0 -43 -13 -41 -32c2 -15 11 -27 36 -49c37 -34 64 -45 108 -45h463v-538h-502z" />
    <glyph glyph-name="uni1F6D2" unicode="&#x1f6d2;" horiz-adv-x="1077" 
d="M80 591l5 138h244l30 -142h566l-57 -291l-596 -48l-70 343h-122zM338 -11c-72 0 -109 49 -109 102v2c0 53 37 101 109 101c70 0 108 -48 108 -101v-2c0 -53 -38 -102 -108 -102zM797 -11c-72 0 -109 49 -109 102v2c0 53 37 101 109 101c70 0 108 -48 108 -101v-2
c0 -53 -38 -102 -108 -102z" />
    <glyph glyph-name="uni2698" unicode="&#x2698;" horiz-adv-x="1060" 
d="M754 20c-44 0 -86 23 -108 69c-32 -25 -54 -60 -61 -129h-110c-7 69 -29 104 -61 129c-22 -46 -64 -69 -108 -69c-74 0 -158 54 -229 161v17c55 30 122 50 176 50c58 0 153 -21 219 -118l-12 142c-183 56 -250 127 -260 302l-7 124l18 9c58 -29 140 -84 194 -152
c28 86 71 166 119 208h12c48 -42 91 -122 119 -208c54 68 136 123 194 152l18 -9l-7 -124c-10 -175 -77 -246 -260 -302l-12 -142c66 97 161 118 219 118c54 0 121 -20 176 -50v-17c-71 -107 -155 -161 -229 -161z" />
    <glyph glyph-name="uniE01D" unicode="&#xe01d;" horiz-adv-x="1020" 
d="M427 -40l2 206l-178 -97l-19 124l-131 80v25l135 72l-82 181l17 28l212 -58l112 242h30l112 -242l212 58l17 -28l-82 -181l135 -72v-25l-131 -80l-19 -124l-178 97l2 -206h-166z" />
    <glyph glyph-name="uniE01E" unicode="&#xe01e;" horiz-adv-x="1020" 
d="M427 -40l1 117l-344 51l-5 23l187 146l-97 37l-5 20l174 135l-70 29l-5 19l236 226h22l236 -226l-5 -19l-70 -28l174 -136l-5 -20l-97 -37l187 -146l-5 -23l-344 -51l1 -117h-166z" />
    <glyph glyph-name="uniE01A" unicode="&#xe01a;" horiz-adv-x="1116" 
d="M309 7l-7 28l46 70l-208 168l-22 52l4 48l40 45l-4 63l19 40l52 28l17 64l32 31l61 9l38 53l38 17l62 -16l56 39h50l56 -39l62 16l38 -17l38 -53l61 -9l32 -31l17 -64l52 -28l19 -40l-4 -63l40 -45l4 -48l-22 -52l-208 -168l46 -70l-7 -28h-161l-74 -60h-28l-74 60h-161z
" />
    <glyph glyph-name="uni1F514" unicode="&#x1f514;" horiz-adv-x="1034" 
d="M118 91l10 124c3 31 17 41 44 68l49 48l18 107c16 132 91 201 179 228l13 88h172l13 -88c88 -27 163 -96 179 -228l18 -107l49 -48c27 -27 41 -37 44 -68l10 -124h-316c21 -19 31 -44 31 -72v-2c0 -55 -42 -103 -114 -103c-74 0 -114 48 -114 103v2c0 28 11 53 31 72
h-316z" />
    <glyph glyph-name="uni1F451" unicode="&#x1f451;" horiz-adv-x="1180" 
d="M228 112l-128 439l36 21l140 -120l20 3l28 179l37 7l113 -155h20l77 228h38l77 -228h20l113 156l37 -8l28 -179l20 -3l140 120l36 -21l-128 -439h-724z" />
    <glyph glyph-name="uniE01F" unicode="&#xe01f;" horiz-adv-x="1000" 
d="M176 -29l67 439l-104 121l13 198h150l8 -116h105l9 116h152l9 -116h105l8 116h150l13 -198l-104 -121l67 -439h-648z" />
    <glyph glyph-name="uni1F6E1" unicode="&#x1f6e1;" horiz-adv-x="1020" 
d="M505 -53c-223 123 -370 261 -370 516c0 69 10 139 33 221c99 37 215 65 342 65s243 -28 342 -65c23 -82 33 -152 33 -221c0 -255 -147 -393 -370 -516h-10z" />
    <glyph glyph-name="uniE01B" unicode="&#xe01b;" horiz-adv-x="1020" 
d="M510 -68c-201 54 -380 177 -377 329c0 99 39 154 39 234c0 42 -16 78 -44 121l120 108c43 -24 77 -38 120 -38c51 0 90 25 133 76h18c43 -51 82 -76 133 -76c43 0 77 14 120 38l120 -108c-28 -43 -44 -79 -44 -121c0 -80 39 -135 39 -234c3 -152 -176 -275 -377 -329z
" />
    <glyph glyph-name="uniE01C" unicode="&#xe01c;" horiz-adv-x="870" 
d="M524 -40v304h-424v17l179 215l-179 216v17h587v-769h-163z" />
    <glyph glyph-name="uniE020" unicode="&#xe020;" horiz-adv-x="820" 
d="M637 -40h-163v291l-443 227v17l580 259h26v-794z" />
    <glyph glyph-name="uni2691" unicode="&#x2691;" horiz-adv-x="890" 
d="M707 -40h-163v349h-424v420h587v-769z" />
    <glyph glyph-name="hcoslug" unicode="&#xe10b;" horiz-adv-x="703" 
d="M53 -100v800h594v-800h-594zM228 156c42 0 76 14 104 45c33 -34 55 -45 85 -45c43 0 78 36 80 94l-7 2c-10 -17 -22 -29 -43 -29c-20 0 -37 12 -62 41c15 20 31 33 46 42c9 -15 25 -25 43 -25c28 0 50 23 50 54s-22 52 -50 52c-25 0 -44 -14 -60 -38c-2 27 -22 38 -49 37
c6 10 9 21 9 34c0 35 -33 74 -95 74c-67 0 -109 -42 -109 -85c0 -29 10 -47 31 -69c-53 -18 -82 -49 -82 -91c0 -53 49 -93 109 -93zM288 369c-23 22 -38 36 -38 59c0 17 11 29 27 29c17 0 29 -15 29 -38c0 -17 -7 -33 -18 -50zM356 296c-13 15 -25 30 -41 46
c19 13 33 24 42 34c23 -23 18 -47 -1 -80zM264 219c-30 0 -52 23 -52 54c0 15 5 29 16 40c18 -17 46 -47 74 -82c-11 -9 -23 -12 -38 -12zM355 73h6l4 8c3 -5 7 -8 14 -8c12 0 16 12 16 21c0 12 -6 20 -15 20c-6 0 -11 -3 -13 -9v27h-18v-7h6v-52zM128 74h30v7h-10v16h4
c5 0 5 -1 6 -8h7v23h-7c-1 -7 -1 -8 -6 -8h-4v18h12c7 0 9 -2 11 -13h8v20h-51v-7h7v-41h-7v-7zM289 73c8 0 12 4 14 13l-5 2c-1 -5 -3 -7 -5 -7c-3 0 -4 2 -4 5v20h13v7h-13v11l-12 -2v-9h-7v-7h7v-20c0 -8 4 -13 12 -13zM222 74h22v7h-4v15c0 6 3 10 7 10s6 -3 6 -7v-18
h-4v-7h22v7h-6v19c0 8 -3 14 -12 14c-7 0 -11 -4 -14 -11v10h-17v-7h6v-25h-6v-7zM198 73c12 0 21 9 21 21s-9 20 -21 20s-21 -8 -21 -20c0 -13 9 -21 21 -21zM326 73c9 0 14 6 14 13c0 16 -24 10 -24 18c0 2 2 4 5 4c4 0 7 -3 10 -7h7v13h-6l-2 -5c-2 3 -6 5 -11 5
c-9 0 -14 -6 -14 -12c0 -16 24 -11 24 -19c0 -2 -2 -4 -5 -4c-5 0 -8 3 -12 9h-7v-14h7l1 4c3 -2 6 -5 13 -5zM407 59c9 0 14 6 18 16l13 31h5v7h-17v-7h5l-8 -20l-9 20h6v7h-25v-7h5s12 -23 16 -33c-1 -5 -4 -8 -8 -8c3 3 2 10 -5 10c-4 0 -7 -3 -7 -7c0 -5 4 -9 11 -9z
M198 78c-5 0 -8 4 -8 16c0 11 3 15 8 15s8 -4 8 -15c0 -12 -3 -16 -8 -16zM375 80c-6 0 -8 5 -8 13c0 7 2 13 8 13c5 0 7 -5 7 -13s-2 -13 -7 -13zM279 0h23v7h-5v25h14v-25h-5v-7h23v7h-6v52l-10 -2c-2 1 -6 2 -9 2c-10 0 -19 -6 -19 -19v-1h-7v-7h7v-25h-6v-7zM501 -1
c15 0 23 9 24 23h-8c-1 -9 -6 -16 -14 -16c-10 0 -16 7 -16 22c0 16 6 22 14 22s11 -4 15 -16h8v22h-8l-1 -6c-4 4 -9 7 -16 7c-14 0 -27 -12 -27 -30c0 -17 11 -28 29 -28zM127 0h29v7h-8v18h22v-18h-8v-7h29v7h-8v41h8v7h-29v-7h8v-16h-22v16h8v7h-29v-7h8v-41h-8v-7z
M297 39v3c0 10 3 12 6 12c2 0 3 -1 3 -1s-1 -1 -1 -3c0 -4 3 -6 6 -6v-5h-14zM428 -1c6 0 11 2 15 6c4 -5 7 -6 12 -6c8 0 11 5 13 12l-5 1c-1 -4 -2 -5 -4 -5s-4 2 -6 5c3 4 6 8 9 14h5v7h-18v-7h6c-1 -3 -4 -7 -6 -9c-4 4 -7 8 -12 13c7 3 11 6 11 12s-5 12 -14 12
c-10 0 -17 -7 -17 -14c0 -5 2 -8 6 -12c-7 -2 -13 -7 -13 -15s6 -14 18 -14zM434 33c-4 4 -6 7 -6 10s2 5 5 5c4 0 6 -3 6 -6c0 -4 -2 -7 -5 -9zM371 0h26v7h-8v16c2 5 5 9 7 9v-1c0 -4 3 -6 6 -6c4 0 7 3 7 7c0 5 -3 8 -8 8s-9 -3 -12 -11v10h-18v-7h6v-25h-6v-7zM258 -1
c11 0 16 6 18 14h-7c-1 -5 -4 -7 -9 -7c-7 0 -10 3 -10 12h26c1 13 -5 22 -19 22c-11 0 -20 -9 -20 -21s8 -20 21 -20zM351 -1c11 0 16 6 18 14h-7c-1 -5 -4 -7 -9 -7c-7 0 -10 3 -10 12h26c1 13 -5 22 -19 22c-11 0 -20 -9 -20 -21s8 -20 21 -20zM549 -1c12 0 21 9 21 21
s-9 20 -21 20s-21 -8 -21 -20c0 -13 9 -21 21 -21zM213 -1c12 0 21 9 21 21s-9 20 -21 20s-21 -8 -21 -20c0 -13 9 -21 21 -21zM343 23c0 9 3 12 7 12c5 0 7 -4 7 -12h-14zM250 23c0 9 3 12 7 12c5 0 7 -4 7 -12h-14zM549 4c-5 0 -8 4 -8 16c0 11 3 15 8 15s8 -4 8 -15
c0 -12 -3 -16 -8 -16zM213 4c-5 0 -8 4 -8 16c0 11 3 15 8 15s8 -4 8 -15c0 -12 -3 -16 -8 -16zM432 6c-6 0 -10 4 -10 10c0 4 2 7 4 9c5 -5 9 -10 14 -16c-3 -2 -6 -3 -8 -3zM579 -1c4 0 7 3 7 7s-3 7 -7 7s-7 -3 -7 -7s3 -7 7 -7z" />
    <glyph glyph-name="space.tab" horiz-adv-x="362" 
 />
    <glyph glyph-name="uni00A0" unicode="&#xa0;" horiz-adv-x="238" 
 />
    <glyph glyph-name="uni00AD" unicode="&#xad;" horiz-adv-x="0" 
 />
    <glyph glyph-name="uni2002" unicode="&#x2002;" horiz-adv-x="500" 
 />
    <glyph glyph-name="uni2003" unicode="&#x2003;" horiz-adv-x="1000" 
 />
    <glyph glyph-name="uni2004" unicode="&#x2004;" horiz-adv-x="333" 
 />
    <glyph glyph-name="uni2005" unicode="&#x2005;" horiz-adv-x="250" 
 />
    <glyph glyph-name="uni2007" unicode="&#x2007;" horiz-adv-x="724" 
 />
    <glyph glyph-name="uni2008" unicode="&#x2008;" horiz-adv-x="401" 
 />
    <glyph glyph-name="uni2009" unicode="&#x2009;" horiz-adv-x="133" 
 />
    <glyph glyph-name="uni200A" unicode="&#x200a;" horiz-adv-x="75" 
 />
    <glyph glyph-name="uni200B" unicode="&#x200b;" horiz-adv-x="0" 
 />
    <glyph glyph-name="uniFEFF" unicode="&#xfeff;" horiz-adv-x="0" 
 />
    <glyph glyph-name="uni202F" unicode="&#x202f;" horiz-adv-x="133" 
 />
    <glyph glyph-name="uni200D" unicode="&#x200d;" horiz-adv-x="0" 
 />
    <glyph glyph-name="uni200C" unicode="&#x200c;" horiz-adv-x="0" 
 />
    <glyph glyph-name="zero.small" 
d="M186 -13c-112 0 -183 63 -183 179c0 128 71 261 222 261c112 0 182 -63 182 -179c0 -129 -70 -261 -221 -261zM190 94c65 0 95 78 95 146c0 55 -23 80 -65 80c-64 0 -94 -79 -94 -148c0 -53 23 -78 64 -78z" />
    <glyph glyph-name="one.small" horiz-adv-x="313" 
d="M177 0h-130l66 310h-77l37 104h192z" />
    <glyph glyph-name="one.small_alt" 
d="M364 102l-19 -102h-331l22 102h107l45 209h-111l38 103h222l-66 -312h93z" />
    <glyph glyph-name="two.small" 
d="M240 427c94 0 152 -45 152 -116c0 -72 -57 -114 -161 -176l-49 -31l175 1l-22 -105h-344l23 105l124 80c101 61 127 81 127 102c0 18 -14 30 -47 30c-46 0 -106 -21 -157 -47h-1l26 120c51 24 101 37 154 37z" />
    <glyph glyph-name="three.small" 
d="M108 171l12 54l126 86h-186l29 103h317l-20 -97l-127 -84c71 -11 111 -49 111 -106c0 -86 -74 -140 -193 -140c-69 0 -131 18 -176 40l22 104h1c44 -22 101 -39 153 -39c44 0 69 14 69 38c0 27 -34 41 -127 41h-11z" />
    <glyph glyph-name="four.small" 
d="M188 0l17 78h-229l20 93l151 243h248l-51 -237h62l-28 -99h-54l-17 -78h-119zM124 174h105l30 141h-49z" />
    <glyph glyph-name="five.small" 
d="M176 -13c-67 0 -125 16 -172 37l23 102c45 -20 94 -34 151 -34c54 -1 69 17 69 38c0 28 -38 37 -157 39h-46l57 245h297l-11 -104h-199l-14 -55c127 -3 197 -37 197 -122c0 -87 -66 -146 -195 -146z" />
    <glyph glyph-name="six.small" 
d="M239 265c82 0 142 -42 142 -121c0 -93 -73 -157 -180 -157c-114 0 -184 65 -184 183c0 139 80 256 238 256c65 0 120 -20 147 -38l-22 -99c-33 19 -76 37 -123 37c-67 0 -103 -35 -116 -84c30 15 64 23 98 23zM135 160c0 -54 29 -76 69 -76c36 0 62 20 62 51
c0 30 -23 44 -60 44c-24 0 -47 -5 -71 -16v-3z" />
    <glyph glyph-name="seven.small" 
d="M184 0h-142l233 292l5 23h-121l-16 -74h-110l36 173h360l-30 -144z" />
    <glyph glyph-name="eight.small" 
d="M174 -13c-123 0 -185 44 -185 113c0 57 42 101 109 114c-35 16 -57 45 -57 84c0 65 56 128 192 128c120 0 174 -52 174 -117c0 -54 -42 -93 -96 -104c42 -18 66 -48 66 -89c0 -69 -60 -129 -203 -129zM218 246c46 0 72 19 72 47c0 25 -21 39 -62 39
c-45 0 -71 -19 -71 -46c0 -25 21 -40 61 -40zM187 171c-51 0 -77 -19 -77 -49c0 -26 24 -42 70 -42c50 0 76 19 76 49c0 26 -23 42 -69 42z" />
    <glyph glyph-name="nine.small" 
d="M170 148c-82 0 -142 42 -142 121c0 93 73 157 180 157c114 0 184 -65 184 -183c0 -139 -80 -256 -238 -256c-65 0 -120 20 -147 38l22 99c33 -19 76 -37 123 -37c67 0 103 35 116 84c-30 -15 -64 -23 -98 -23zM143 278c0 -30 23 -44 60 -44c24 0 47 5 71 16v3
c0 54 -29 76 -69 76c-36 0 -62 -20 -62 -51z" />
    <glyph glyph-name="zero.num" 
d="M267 273c-112 0 -183 63 -183 179c0 128 71 261 222 261c112 0 182 -63 182 -179c0 -129 -70 -261 -221 -261zM271 380c65 0 95 78 95 146c0 55 -23 80 -65 80c-64 0 -94 -79 -94 -148c0 -53 23 -78 64 -78z" />
    <glyph glyph-name="one.num" horiz-adv-x="313" 
d="M258 286h-130l66 310h-77l37 104h192z" />
    <glyph glyph-name="one.num_alt" 
d="M445 388l-19 -102h-331l22 102h107l45 209h-111l38 103h222l-66 -312h93z" />
    <glyph glyph-name="two.num" 
d="M321 713c94 0 152 -45 152 -116c0 -72 -57 -114 -161 -176l-49 -31l175 1l-22 -105h-344l23 105l124 80c101 61 127 81 127 102c0 18 -14 30 -47 30c-46 0 -106 -21 -157 -47h-1l26 120c51 24 101 37 154 37z" />
    <glyph glyph-name="three.num" 
d="M189 457l12 54l126 86h-186l29 103h317l-20 -97l-127 -84c71 -11 111 -49 111 -106c0 -86 -74 -140 -193 -140c-69 0 -131 18 -176 40l22 104h1c44 -22 101 -39 153 -39c44 0 69 14 69 38c0 27 -34 41 -127 41h-11z" />
    <glyph glyph-name="four.num" 
d="M269 286l17 78h-229l20 93l151 243h248l-51 -237h62l-28 -99h-54l-17 -78h-119zM205 460h105l30 141h-49z" />
    <glyph glyph-name="five.num" 
d="M257 273c-67 0 -125 16 -172 37l23 102c45 -20 94 -34 151 -34c54 -1 69 17 69 38c0 28 -38 37 -157 39h-46l57 245h297l-11 -104h-199l-14 -55c127 -3 197 -37 197 -122c0 -87 -66 -146 -195 -146z" />
    <glyph glyph-name="six.num" 
d="M320 551c82 0 142 -42 142 -121c0 -93 -73 -157 -180 -157c-114 0 -184 65 -184 183c0 139 80 256 238 256c65 0 120 -20 147 -38l-22 -99c-33 19 -76 37 -123 37c-67 0 -103 -35 -116 -84c30 15 64 23 98 23zM216 446c0 -54 29 -76 69 -76c36 0 62 20 62 51
c0 30 -23 44 -60 44c-24 0 -47 -5 -71 -16v-3z" />
    <glyph glyph-name="seven.num" 
d="M265 286h-142l233 292l5 23h-121l-16 -74h-110l36 173h360l-30 -144z" />
    <glyph glyph-name="eight.num" 
d="M255 273c-123 0 -185 44 -185 113c0 57 42 101 109 114c-35 16 -57 45 -57 84c0 65 56 128 192 128c120 0 174 -52 174 -117c0 -54 -42 -93 -96 -104c42 -18 66 -48 66 -89c0 -69 -60 -129 -203 -129zM299 532c46 0 72 19 72 47c0 25 -21 39 -62 39
c-45 0 -71 -19 -71 -46c0 -25 21 -40 61 -40zM268 457c-51 0 -77 -19 -77 -49c0 -26 24 -42 70 -42c50 0 76 19 76 49c0 26 -23 42 -69 42z" />
    <glyph glyph-name="nine.num" 
d="M251 434c-82 0 -142 42 -142 121c0 93 73 157 180 157c114 0 184 -65 184 -183c0 -139 -80 -256 -238 -256c-65 0 -120 20 -147 38l22 99c33 -19 76 -37 123 -37c67 0 103 35 116 84c-30 -15 -64 -23 -98 -23zM224 564c0 -30 23 -44 60 -44c24 0 47 5 71 16v3
c0 54 -29 76 -69 76c-36 0 -62 -20 -62 -51z" />
    <glyph glyph-name="fraction" unicode="&#x2044;" horiz-adv-x="266" 
d="M-213 1l593 699h135v-1l-593 -699h-135v1z" />
    <glyph glyph-name="zero.den" 
d="M166 -13c-112 0 -183 63 -183 179c0 128 71 261 222 261c112 0 182 -63 182 -179c0 -129 -70 -261 -221 -261zM170 94c65 0 95 78 95 146c0 55 -23 80 -65 80c-64 0 -94 -79 -94 -148c0 -53 23 -78 64 -78z" />
    <glyph glyph-name="one.den" horiz-adv-x="313" 
d="M157 0h-130l66 310h-77l37 104h192z" />
    <glyph glyph-name="one.den_alt" 
d="M344 102l-19 -102h-331l22 102h107l45 209h-111l38 103h222l-66 -312h93z" />
    <glyph glyph-name="two.den" 
d="M220 427c94 0 152 -45 152 -116c0 -72 -57 -114 -161 -176l-49 -31l175 1l-22 -105h-344l23 105l124 80c101 61 127 81 127 102c0 18 -14 30 -47 30c-46 0 -106 -21 -157 -47h-1l26 120c51 24 101 37 154 37z" />
    <glyph glyph-name="three.den" 
d="M88 171l12 54l126 86h-186l29 103h317l-20 -97l-127 -84c71 -11 111 -49 111 -106c0 -86 -74 -140 -193 -140c-69 0 -131 18 -176 40l22 104h1c44 -22 101 -39 153 -39c44 0 69 14 69 38c0 27 -34 41 -127 41h-11z" />
    <glyph glyph-name="four.den" 
d="M168 0l17 78h-229l20 93l151 243h248l-51 -237h62l-28 -99h-54l-17 -78h-119zM104 174h105l30 141h-49z" />
    <glyph glyph-name="five.den" 
d="M156 -13c-67 0 -125 16 -172 37l23 102c45 -20 94 -34 151 -34c54 -1 69 17 69 38c0 28 -38 37 -157 39h-46l57 245h297l-11 -104h-199l-14 -55c127 -3 197 -37 197 -122c0 -87 -66 -146 -195 -146z" />
    <glyph glyph-name="six.den" 
d="M219 265c82 0 142 -42 142 -121c0 -93 -73 -157 -180 -157c-114 0 -184 65 -184 183c0 139 80 256 238 256c65 0 120 -20 147 -38l-22 -99c-33 19 -76 37 -123 37c-67 0 -103 -35 -116 -84c30 15 64 23 98 23zM115 160c0 -54 29 -76 69 -76c36 0 62 20 62 51
c0 30 -23 44 -60 44c-24 0 -47 -5 -71 -16v-3z" />
    <glyph glyph-name="seven.den" 
d="M164 0h-142l233 292l5 23h-121l-16 -74h-110l36 173h360l-30 -144z" />
    <glyph glyph-name="eight.den" 
d="M154 -13c-123 0 -185 44 -185 113c0 57 42 101 109 114c-35 16 -57 45 -57 84c0 65 56 128 192 128c120 0 174 -52 174 -117c0 -54 -42 -93 -96 -104c42 -18 66 -48 66 -89c0 -69 -60 -129 -203 -129zM198 246c46 0 72 19 72 47c0 25 -21 39 -62 39
c-45 0 -71 -19 -71 -46c0 -25 21 -40 61 -40zM167 171c-51 0 -77 -19 -77 -49c0 -26 24 -42 70 -42c50 0 76 19 76 49c0 26 -23 42 -69 42z" />
    </font>
</defs>
</svg>
