<?xml version="1.0" standalone="no"?>
<!DOCTYPE svg PUBLIC "-//W3C//DTD SVG 1.1//EN" "http://www.w3.org/Graphics/SVG/1.1/DTD/svg11.dtd" >
<svg xmlns="http://www.w3.org/2000/svg" xmlns:xlink="http://www.w3.org/1999/xlink" version="1.1">
<metadata>
Created by FontForge 20190801 at Tue Apr 22 23:23:32 2014
 By Jimmy Wärting
Copyright C 2011, 2014 Hoefler &#38; Co. http:www.typography.com
</metadata>
<defs>
<font id="MercurySSm-BookItalic" horiz-adv-x="833" >
  <font-face 
    font-family="Mercury SSm"
    font-weight="325"
    font-style="italic"
    font-stretch="normal"
    units-per-em="1000"
    panose-1="0 0 0 0 0 0 0 0 0 0"
    ascent="800"
    descent="-200"
    x-height="520"
    cap-height="701"
    bbox="-162 -319 1595 1158.85"
    underline-thickness="50"
    underline-position="-100"
    slope="-12"
    stemh="42"
    stemv="113"
    unicode-range="U+0020-FB04"
  />
<missing-glyph horiz-adv-x="500" 
d="M0 -200v1000h500v-1000h-500zM71 750l179 -390l179 390h-358zM450 676l-172 -376l172 -376v752zM50 -76l172 376l-172 376v-752zM250 240l-179 -390h358z" />
    <glyph glyph-name="f_f" unicode="ff" horiz-adv-x="691" 
d="M501 496l7 40c10 53 23 97 42 134c-47 0 -75 35 -86 98c-93 1 -158 -59 -184 -207l-12 -65h233zM607 748c12 14 25 25 40 36c41 30 85 46 137 46c75 0 111 -39 111 -78c0 -32 -25 -58 -62 -58c-41 0 -74 31 -88 91c-68 -4 -113 -91 -139 -237l-10 -52h129l-11 -54h-127
l-59 -342c-29 -164 -54 -225 -125 -291c-38 -36 -79 -55 -118 -55c-46 0 -73 27 -73 59c0 30 25 55 59 55s61 -23 82 -58c24 30 42 86 57 168l82 464h-233l-59 -342c-29 -163 -55 -225 -125 -291c-39 -36 -82 -55 -125 -55c-52 0 -82 30 -82 63c0 30 26 53 63 53
s68 -24 92 -61c25 32 44 87 60 174l80 459h-118l6 28l123 33l2 8c23 129 60 202 142 257c45 31 98 46 163 46c69 0 113 -31 126 -66z" />
    <glyph glyph-name="fi" unicode="fi" horiz-adv-x="652" 
d="M-50 -246c-52 0 -82 30 -82 63c0 30 26 53 63 53s68 -24 92 -61c25 32 44 87 60 174l80 459h-118l6 28l123 33l4 24c24 129 61 202 143 258c45 30 99 45 163 45c84 0 132 -44 132 -87c0 -34 -26 -59 -58 -59c-46 0 -79 34 -91 100c-93 1 -158 -59 -184 -207l-15 -81h202
l105 31l11 -10l-96 -419c-10 -41 6 -46 100 -48l3 -15c-48 -28 -104 -48 -145 -48c-53 0 -68 41 -57 86l83 369h-215l-59 -342c-29 -163 -55 -225 -125 -291c-39 -36 -82 -55 -125 -55z" />
    <glyph glyph-name="fl" unicode="fl" horiz-adv-x="652" 
d="M268 496h215l43 194c-32 11 -53 43 -62 94c-91 0 -156 -61 -181 -207zM-50 -246c-52 0 -82 30 -82 63c0 30 26 53 63 53s68 -24 92 -61c25 32 44 87 60 174l80 459h-118l6 28l123 33l4 24c24 129 61 202 143 258c45 31 99 45 162 45c35 0 64 -8 85 -22l72 21l9 -11
l-159 -720c-9 -41 6 -46 100 -48l3 -15c-46 -27 -104 -48 -144 -48c-53 0 -68 40 -58 86l81 369h-213l-59 -342c-29 -163 -55 -225 -125 -291c-39 -36 -82 -55 -125 -55z" />
    <glyph glyph-name="f_f_i" unicode="ffi" horiz-adv-x="980" 
d="M549 669c-46 1 -74 36 -85 99c-93 1 -158 -59 -184 -207l-12 -65h233l5 30c11 59 24 105 43 143zM492 442h-233l-59 -342c-29 -163 -55 -225 -125 -291c-39 -36 -82 -55 -125 -55c-52 0 -82 30 -82 63c0 30 26 53 63 53s68 -24 92 -61c25 32 44 87 60 174l80 459h-118
l6 28l123 33l2 8c23 129 60 202 142 257c45 31 98 46 163 46c69 0 113 -30 126 -64c13 13 27 26 44 37c44 29 98 43 162 43c83 0 131 -43 131 -87c0 -34 -26 -59 -58 -59c-46 0 -79 34 -91 101c-92 1 -158 -59 -184 -208l-15 -81h202l105 31l11 -10l-96 -419
c-10 -41 6 -46 100 -48l3 -15c-47 -28 -104 -48 -145 -48c-53 0 -68 41 -57 86l83 369h-215l-59 -342c-29 -164 -54 -225 -125 -291c-38 -36 -79 -55 -122 -55c-51 0 -80 30 -80 62c0 30 26 52 62 52c37 0 67 -23 90 -58c24 31 42 86 57 168z" />
    <glyph glyph-name="f_f_l" unicode="ffl" horiz-adv-x="980" 
d="M596 496h216l43 194c-33 11 -54 43 -63 94c-91 0 -155 -60 -181 -206zM549 669c-46 1 -74 36 -85 99c-93 1 -158 -59 -184 -207l-12 -65h233l5 30c11 59 24 105 43 143zM492 442h-233l-59 -342c-29 -163 -55 -225 -125 -291c-39 -36 -82 -55 -125 -55
c-52 0 -82 30 -82 63c0 30 26 53 63 53s68 -24 92 -61c25 32 44 87 60 174l80 459h-118l6 28l123 33l2 8c23 129 60 202 142 257c45 31 98 46 163 46c69 0 113 -30 126 -64c13 13 27 26 44 37c44 30 98 43 160 43c36 0 65 -8 86 -21l71 20l9 -11l-159 -720
c-9 -41 6 -46 100 -48l3 -15c-46 -27 -104 -48 -144 -48c-53 0 -68 40 -58 86l81 369h-213l-59 -342c-29 -164 -54 -225 -125 -291c-38 -36 -79 -55 -122 -55c-51 0 -80 30 -80 62c0 30 26 52 62 52c37 0 67 -23 90 -58c24 31 42 86 57 168z" />
    <glyph glyph-name="f_b" unicode="fb" horiz-adv-x="918" 
d="M268 496h215l43 194c-32 11 -53 43 -62 94c-91 0 -156 -61 -181 -207zM596 46c90 0 179 126 179 271c0 87 -41 133 -99 133c-39 0 -81 -29 -124 -74l-64 -295c28 -20 65 -35 108 -35zM382 34l90 408h-213l-59 -342c-29 -163 -55 -225 -125 -291c-39 -36 -82 -55 -125 -55
c-52 0 -82 30 -82 63c0 30 26 53 63 53s68 -24 92 -61c25 32 44 87 60 174l80 459h-118l6 28l123 33l4 24c24 129 61 202 143 258c45 31 99 45 162 45c35 0 64 -8 85 -22l72 21l8 -11l-84 -385l11 -3c52 53 104 90 164 90c76 0 140 -63 140 -169c0 -181 -180 -364 -338 -364
c-66 0 -118 20 -159 47z" />
    <glyph glyph-name="f_f_b" unicode="ffb" horiz-adv-x="1246" 
d="M596 496h216l43 194c-33 11 -54 43 -63 94c-91 0 -155 -60 -181 -206zM549 669c-46 1 -74 36 -85 99c-93 1 -158 -59 -184 -207l-12 -65h233l5 30c11 59 24 105 43 143zM924 46c90 0 179 126 179 271c0 87 -41 133 -99 133c-39 0 -81 -29 -124 -74l-64 -295
c28 -20 65 -35 108 -35zM800 442h-213l-59 -342c-29 -164 -54 -225 -125 -291c-38 -36 -79 -55 -122 -55c-51 0 -80 30 -80 62c0 30 26 52 62 52c37 0 67 -23 90 -58c24 31 42 86 57 168l82 464h-233l-59 -342c-29 -163 -55 -225 -125 -291c-39 -36 -82 -55 -125 -55
c-52 0 -82 30 -82 63c0 30 26 53 63 53s68 -24 92 -61c25 32 44 87 60 174l80 459h-118l6 28l123 33l2 8c23 129 60 202 142 257c45 31 98 46 163 46c69 0 113 -30 126 -64c13 13 27 26 44 37c44 30 98 43 160 43c36 0 65 -8 86 -21l71 20l8 -11l-84 -385l11 -3
c52 53 104 90 164 90c76 0 140 -63 140 -169c0 -181 -180 -364 -338 -364c-66 0 -118 20 -159 47z" />
    <glyph glyph-name="f_h" unicode="fh" horiz-adv-x="946" 
d="M268 496h215l43 194c-32 11 -53 43 -62 94c-91 0 -156 -61 -181 -207zM375 0l97 442h-213l-59 -342c-29 -163 -55 -225 -125 -291c-39 -36 -82 -55 -125 -55c-52 0 -82 30 -82 63c0 30 26 53 63 53s68 -24 92 -61c25 32 44 87 60 174l80 459h-118l6 28l123 33l4 24
c24 129 61 202 143 258c45 31 99 45 162 45c35 0 64 -8 85 -22l72 21l9 -11l-90 -414l10 -2c70 67 130 118 196 118c92 0 127 -68 101 -177l-58 -245c-10 -38 0 -47 101 -48l2 -15c-45 -27 -101 -48 -141 -48c-48 0 -64 27 -63 60c1 15 5 40 9 58l52 220
c19 78 -6 116 -63 116c-42 0 -82 -26 -156 -82l-78 -359h-96z" />
    <glyph glyph-name="f_f_h" unicode="ffh" horiz-adv-x="1274" 
d="M596 496h216l43 194c-33 11 -54 43 -63 94c-91 0 -155 -60 -181 -206zM549 669c-46 1 -74 36 -85 99c-93 1 -158 -59 -184 -207l-12 -65h233l5 30c11 59 24 105 43 143zM799 0h-96l97 442h-213l-59 -342c-29 -164 -54 -225 -125 -291c-38 -36 -79 -55 -122 -55
c-51 0 -80 30 -80 62c0 30 26 52 62 52c37 0 67 -23 90 -58c24 31 42 86 57 168l82 464h-233l-59 -342c-29 -163 -55 -225 -125 -291c-39 -36 -82 -55 -125 -55c-52 0 -82 30 -82 63c0 30 26 53 63 53s68 -24 92 -61c25 32 44 87 60 174l80 459h-118l6 28l123 33l2 8
c23 129 60 202 142 257c45 31 98 46 163 46c69 0 113 -30 126 -64c13 13 27 26 44 37c44 30 98 43 160 43c36 0 65 -8 86 -21l71 20l9 -11l-90 -414l10 -2c70 67 130 118 196 118c92 0 127 -68 101 -177l-58 -245c-10 -38 0 -47 101 -48l2 -15c-45 -27 -101 -48 -141 -48
c-48 0 -64 27 -63 60c1 15 5 40 9 58l52 220c19 78 -6 116 -63 116c-42 0 -82 -26 -156 -82z" />
    <glyph glyph-name="f_j" unicode="fj" horiz-adv-x="635" 
d="M586 517l-81 -417c-31 -163 -63 -230 -128 -291c-38 -36 -80 -55 -119 -55c-46 0 -73 27 -73 59c1 30 26 55 59 55c34 0 61 -23 82 -58c26 27 46 80 62 165l91 467h-220l-59 -342c-29 -163 -55 -225 -125 -291c-39 -36 -82 -55 -125 -55c-52 0 -82 30 -82 63
c0 30 26 53 63 53s68 -24 92 -61c25 32 44 87 60 174l80 459h-118l6 28l123 33l4 24c24 129 61 202 143 258c45 30 99 45 163 45c84 0 132 -44 132 -87c0 -34 -26 -59 -58 -59c-46 0 -79 34 -91 100c-93 1 -158 -59 -184 -207l-15 -81h202l105 31z" />
    <glyph glyph-name="f_f_j" unicode="ffj" horiz-adv-x="963" 
d="M549 669c-46 1 -74 36 -85 99c-93 1 -158 -59 -184 -207l-12 -65h233l5 30c11 59 24 105 43 143zM797 496l105 31l11 -10l-81 -417c-31 -163 -63 -230 -128 -291c-38 -36 -79 -55 -118 -55c-46 0 -73 27 -73 59c0 30 25 55 59 55s61 -23 82 -58c25 27 45 80 62 165
l90 467h-219l-59 -342c-29 -164 -54 -225 -125 -291c-38 -36 -79 -55 -122 -55c-51 0 -80 30 -80 62c0 30 26 52 62 52c37 0 67 -23 90 -58c24 31 42 86 57 168l82 464h-233l-59 -342c-29 -163 -55 -225 -125 -291c-39 -36 -82 -55 -125 -55c-52 0 -82 30 -82 63
c0 30 26 53 63 53s68 -24 92 -61c25 32 44 87 60 174l80 459h-118l6 28l123 33l2 8c23 129 60 202 142 257c45 31 98 46 163 46c69 0 113 -30 126 -64c13 13 27 26 44 37c44 29 98 43 162 43c83 0 131 -43 131 -87c0 -34 -26 -59 -58 -59c-46 0 -79 34 -91 101
c-92 1 -158 -59 -184 -208l-15 -81h201z" />
    <glyph glyph-name="f_k" unicode="fk" horiz-adv-x="895" 
d="M268 496h215l43 194c-32 11 -53 43 -62 94c-91 0 -156 -61 -181 -207zM375 0l97 442h-213l-59 -342c-29 -163 -55 -225 -125 -291c-39 -36 -82 -55 -125 -55c-52 0 -82 30 -82 63c0 30 26 53 63 53s68 -24 92 -61c25 32 44 87 60 174l80 459h-118l6 28l123 33l4 24
c24 129 61 202 143 258c45 31 99 45 162 45c35 0 64 -8 85 -22l72 21l9 -11l-116 -528c100 22 175 67 205 97c-10 21 -16 38 -16 59c0 45 32 77 68 77c39 0 60 -30 60 -64c0 -79 -79 -127 -241 -171l-1 -10c71 -6 94 -28 111 -65c16 -37 24 -72 36 -114
c10 -35 21 -54 115 -48l2 -16c-43 -27 -89 -48 -130 -48c-45 0 -69 18 -84 93c-31 153 -48 169 -131 176l-56 -256h-96z" />
    <glyph glyph-name="f_f_k" unicode="ffk" horiz-adv-x="1223" 
d="M596 496h216l43 194c-33 11 -54 43 -63 94c-91 0 -155 -60 -181 -206zM549 669c-46 1 -74 36 -85 99c-93 1 -158 -59 -184 -207l-12 -65h233l5 30c11 59 24 105 43 143zM703 0l97 442h-213l-59 -342c-29 -164 -54 -225 -125 -291c-38 -36 -79 -55 -122 -55
c-51 0 -80 30 -80 62c0 30 26 52 62 52c37 0 67 -23 90 -58c24 31 42 86 57 168l82 464h-233l-59 -342c-29 -163 -55 -225 -125 -291c-39 -36 -82 -55 -125 -55c-52 0 -82 30 -82 63c0 30 26 53 63 53s68 -24 92 -61c25 32 44 87 60 174l80 459h-118l6 28l123 33l2 8
c23 129 60 202 142 257c45 31 98 46 163 46c69 0 113 -30 126 -64c13 13 27 26 44 37c44 30 98 43 160 43c36 0 65 -8 86 -21l71 20l9 -11l-116 -528c100 22 175 67 205 97c-10 21 -16 38 -16 59c0 45 32 77 68 77c39 0 60 -30 60 -64c0 -79 -79 -127 -241 -171l-1 -10
c71 -6 94 -28 111 -65c16 -37 24 -72 36 -114c10 -35 21 -54 115 -48l2 -16c-43 -27 -89 -48 -129 -48c-46 0 -70 18 -85 93c-31 153 -48 169 -131 176l-56 -256h-96z" />
    <glyph glyph-name=".notdef" horiz-adv-x="500" 
d="M0 -200v1000h500v-1000h-500zM71 750l179 -390l179 390h-358zM450 676l-172 -376l172 -376v752zM50 -76l172 376l-172 376v-752zM250 240l-179 -390h358z" />
    <glyph glyph-name="space" unicode=" " horiz-adv-x="251" 
 />
    <glyph glyph-name="exclam" unicode="!" horiz-adv-x="316" 
d="M153 214l-27 4c14 185 26 376 38 434c10 44 35 65 66 65c41 0 65 -24 61 -76c-3 -50 -75 -251 -138 -427zM107 -17c-39 0 -70 31 -70 69c0 39 32 69 70 69c39 0 70 -30 70 -68c0 -39 -31 -70 -70 -70z" />
    <glyph glyph-name="quotedbl" unicode="&#x22;" horiz-adv-x="454" 
d="M292 455l-22 11l32 90c28 82 36 106 47 125c14 26 30 36 51 36c26 0 46 -20 46 -40c0 -11 -2 -21 -10 -34c-10 -19 -27 -42 -81 -112zM112 455l-22 11l31 90c29 82 37 106 48 125c14 26 30 36 51 36c26 0 46 -20 46 -40c0 -11 -4 -21 -10 -34c-10 -19 -28 -42 -83 -112z
" />
    <glyph glyph-name="numbersign" unicode="#" horiz-adv-x="702" 
d="M189 26l-54 12l46 153h-117v46h129l31 104l22 86h-136v46h149l49 174l53 -12l-48 -162h158l49 174l53 -12l-48 -162h116v-46h-130l-29 -96l-24 -94h138v-46h-149l-47 -165l-54 12l47 153h-158zM246 237h159l31 104l22 86h-159l-29 -96z" />
    <glyph glyph-name="dollar" unicode="$" horiz-adv-x="585" 
d="M299 400l54 254c-89 8 -150 -45 -150 -129c0 -51 29 -84 96 -125zM255 18c91 -1 155 51 155 136c0 55 -32 90 -99 130zM225 -131l-43 5l24 113c-65 6 -132 26 -189 50l37 182l20 1c13 -123 61 -183 143 -198l60 282c-109 60 -157 106 -157 191c0 121 110 200 239 195
l21 101l44 -6l-21 -99c54 -6 107 -22 150 -42l-29 -155l-22 -4c-19 87 -62 140 -112 160l-56 -264c113 -63 161 -111 161 -199c0 -118 -105 -198 -245 -198z" />
    <glyph glyph-name="percent" unicode="%" horiz-adv-x="851" 
d="M158 -35l-38 28l292 353l287 361l38 -27l-292 -354zM209 331c-73 0 -128 49 -128 136c0 101 82 223 198 223c74 0 129 -49 129 -136c0 -101 -82 -223 -199 -223zM227 363c65 0 105 101 105 189c0 64 -21 106 -70 106c-65 0 -106 -101 -106 -189c0 -64 21 -106 71 -106z
M577 -18c-74 0 -129 49 -129 136c0 101 82 223 199 223c74 0 129 -49 129 -136c0 -101 -82 -223 -199 -223zM595 14c65 0 105 101 105 189c0 64 -21 106 -71 106c-65 0 -105 -101 -105 -189c0 -64 21 -106 71 -106z" />
    <glyph glyph-name="ampersand" unicode="&#x26;" horiz-adv-x="761" 
d="M206 -12c-98 0 -172 63 -172 156c0 99 69 173 207 209l1 11c-62 26 -102 67 -102 132c0 111 137 199 250 199c68 0 98 -32 98 -66c0 -31 -26 -55 -65 -54c-38 1 -70 29 -88 77c-49 -19 -96 -74 -96 -142c0 -61 51 -108 138 -122l141 48l71 104l31 -7l-32 -130h135
l-13 -52h-134l-52 -210c-10 -38 -6 -60 8 -71c13 -10 34 -16 74 -16c19 0 41 1 64 4l-1 -19c-58 -30 -102 -51 -155 -51c-67 0 -95 32 -90 85l-10 2c-63 -48 -128 -87 -208 -87zM271 62c49 0 109 24 162 62l54 227h-132c-138 -20 -209 -87 -209 -174c0 -75 47 -115 125 -115
z" />
    <glyph glyph-name="quotesingle" unicode="'" horiz-adv-x="273" 
d="M112 455l-22 11l31 90c29 82 37 106 48 125c14 26 30 36 51 36c26 0 46 -20 46 -40c0 -11 -4 -21 -10 -34c-10 -19 -28 -42 -83 -112z" />
    <glyph glyph-name="parenleft" unicode="(" horiz-adv-x="415" 
d="M350 -197c-181 103 -275 267 -275 462c0 233 146 467 440 565l7 -28c-236 -101 -354 -327 -354 -558c0 -172 65 -316 198 -416z" />
    <glyph glyph-name="parenright" unicode=")" horiz-adv-x="415" 
d="M-111 -197l-7 28c237 101 355 327 355 558c0 172 -66 316 -198 416l16 25c181 -103 274 -268 274 -462c0 -233 -145 -468 -440 -565z" />
    <glyph glyph-name="asterisk" unicode="*" horiz-adv-x="486" 
d="M96 635l39 49l121 -138l8 2l16 181l64 -14l-60 -172l7 -5l167 77l16 -60l-176 -35l-2 -11l146 -104l-39 -49l-121 138l-8 -1l-16 -182l-63 14l59 172l-7 5l-167 -77l-15 61l176 35l1 10z" />
    <glyph glyph-name="plus" unicode="+" horiz-adv-x="580" 
d="M522 309h-202l-44 -206h-59l44 206h-204l12 56h203l44 203h59l-44 -203h203z" />
    <glyph glyph-name="comma" unicode="," horiz-adv-x="269" 
d="M-9 -185l-15 22c86 51 133 109 144 155l-7 5l-3 -1c-3 -1 -9 -2 -15 -2c-29 0 -53 19 -53 55c0 40 36 75 76 75c42 0 76 -31 76 -85c0 -95 -92 -177 -203 -224z" />
    <glyph glyph-name="hyphen" unicode="-" horiz-adv-x="416" 
d="M37 223l14 81h290l-14 -81h-290z" />
    <glyph glyph-name="period" unicode="." horiz-adv-x="269" 
d="M121 -18c-41 0 -73 32 -73 71c0 40 32 72 73 72c39 0 71 -32 71 -72c0 -39 -32 -71 -71 -71z" />
    <glyph glyph-name="slash" unicode="/" horiz-adv-x="471" 
d="M-77 -235l-47 24l308 515l308 526l47 -24l-308 -516z" />
    <glyph glyph-name="zero" unicode="0" horiz-adv-x="621" 
d="M249 -16c-139 0 -201 104 -201 242c0 248 155 464 335 464c138 0 201 -104 201 -242c0 -248 -156 -464 -335 -464zM267 26c92 0 208 182 208 438c0 114 -39 184 -111 184c-91 0 -207 -182 -207 -438c0 -114 39 -184 110 -184z" />
    <glyph glyph-name="one" unicode="1" horiz-adv-x="440" 
d="M-6 0l6 30l131 38l107 507l-113 46l5 26l216 35l11 -9l-128 -605l113 -38l-7 -30h-341z" />
    <glyph glyph-name="two" unicode="2" horiz-adv-x="556" 
d="M-25 0l-7 28c112 84 198 156 265 222c130 126 160 187 160 254c0 68 -40 110 -108 110c-55 0 -95 -25 -160 -84l-20 17c57 89 130 144 228 144c103 0 169 -61 169 -158c0 -116 -72 -204 -389 -442l3 -8h237l108 111l17 -7l-69 -187h-434z" />
    <glyph glyph-name="three" unicode="3" horiz-adv-x="530" 
d="M187 -17c-105 0 -191 48 -191 115c0 42 25 71 62 71c57 0 75 -59 48 -119c26 -15 54 -24 94 -24c82 0 141 53 141 144c0 82 -62 132 -181 150l4 26c165 59 218 127 218 190c0 47 -32 80 -95 80c-50 0 -97 -22 -156 -70l-19 22c65 76 133 123 222 123
c92 0 147 -60 147 -128c0 -85 -58 -138 -171 -188l-1 -14c81 -33 130 -84 130 -164c0 -108 -98 -214 -252 -214z" />
    <glyph glyph-name="four" unicode="4" horiz-adv-x="608" 
d="M171 0l6 30l115 37l31 140h-279l-8 35l401 448l79 -7l-88 -414h125l-12 -62h-125l-30 -140l106 -37l-5 -30h-316zM124 269h212l63 300h-12z" />
    <glyph glyph-name="five" unicode="5" horiz-adv-x="524" 
d="M206 -17c-113 0 -197 58 -197 119c0 42 27 71 63 71c61 0 79 -61 50 -123c20 -14 46 -24 82 -24c92 0 152 70 152 159c0 112 -98 165 -264 176l90 312h257l53 54l22 -4l-37 -143h-269l-42 -140c171 -15 286 -81 286 -225c0 -138 -113 -232 -246 -232z" />
    <glyph glyph-name="six" unicode="6" horiz-adv-x="560" 
d="M254 -16c-116 0 -203 86 -203 231c0 232 189 434 484 488l5 -33c-173 -66 -261 -138 -335 -249l9 -6c35 16 76 27 105 27c109 0 176 -67 176 -184c0 -138 -105 -274 -241 -274zM259 23c79 0 130 89 130 218c0 100 -46 147 -129 147c-19 0 -55 -3 -70 -8
c-22 -50 -34 -107 -34 -181c0 -118 43 -176 103 -176z" />
    <glyph glyph-name="seven" unicode="7" horiz-adv-x="510" 
d="M10 -17l207 269l235 330h-266l-75 -83l-24 4l62 209l23 4l21 -43h356l7 -14l-440 -676h-106z" />
    <glyph glyph-name="eight" unicode="8" horiz-adv-x="560" 
d="M363 350c79 -53 118 -104 118 -176c0 -116 -110 -190 -229 -190c-126 0 -219 74 -219 169c0 86 63 150 178 189c-67 49 -96 93 -96 159c0 107 97 188 212 188c123 0 204 -70 204 -163c0 -85 -67 -140 -168 -176zM328 373c74 48 115 91 115 163c0 68 -46 114 -119 114
c-63 0 -120 -53 -120 -119c0 -69 42 -106 124 -158zM246 319c-80 -41 -122 -98 -122 -168c0 -79 54 -129 141 -129c61 0 124 48 124 125c0 64 -37 103 -143 172z" />
    <glyph glyph-name="nine" unicode="9" horiz-adv-x="560" 
d="M39 -29l-5 33c187 71 274 152 342 259l-9 6c-35 -16 -77 -27 -106 -27c-111 0 -181 68 -181 184c0 130 106 265 241 265c116 0 203 -86 203 -232c0 -232 -189 -433 -485 -488zM320 296c20 0 56 3 71 8c19 50 28 104 28 171c0 118 -43 177 -103 177
c-79 0 -130 -93 -130 -209c0 -107 50 -147 134 -147z" />
    <glyph glyph-name="colon" unicode=":" horiz-adv-x="280" 
d="M191 311c-40 0 -72 32 -72 71c0 40 32 72 72 72c39 0 71 -32 71 -72c0 -39 -32 -71 -71 -71zM130 -18c-40 0 -72 32 -72 71s32 71 72 71c39 0 71 -32 71 -71s-32 -71 -71 -71z" />
    <glyph glyph-name="semicolon" unicode=";" horiz-adv-x="280" 
d="M191 311c-40 0 -72 32 -72 71c0 40 32 72 72 72c39 0 71 -32 71 -72c0 -39 -32 -71 -71 -71zM1 -185l-14 22c85 51 132 109 144 155l-7 5l-4 -1c-3 -1 -9 -2 -14 -2c-29 0 -53 19 -53 55c0 40 35 75 76 75s76 -31 76 -85c0 -95 -93 -177 -204 -224z" />
    <glyph glyph-name="less" unicode="&#x3c;" horiz-adv-x="580" 
d="M424 105l-347 206l11 52l434 206l3 -55l-386 -181l310 -180z" />
    <glyph glyph-name="equal" unicode="=" horiz-adv-x="580" 
d="M82 412l11 56h453l-12 -56h-452zM38 205l11 56h452l-11 -56h-452z" />
    <glyph glyph-name="greater" unicode="&#x3e;" horiz-adv-x="580" 
d="M61 105l-3 54l386 181l-310 181l26 48l346 -207l-11 -52z" />
    <glyph glyph-name="question" unicode="?" horiz-adv-x="472" 
d="M193 217l-32 1c-15 39 -21 69 -21 93c0 70 54 98 117 127c68 30 126 66 126 150c0 59 -42 93 -106 93c-18 0 -33 -2 -45 -10c5 -11 7 -23 7 -34c0 -51 -31 -80 -68 -80c-32 0 -59 21 -59 65c0 53 60 95 152 95c125 0 205 -66 205 -158c0 -99 -58 -152 -164 -196
c-108 -44 -113 -57 -112 -146zM152 -17c-39 0 -71 31 -71 69c0 39 32 69 71 69s70 -30 70 -68c0 -39 -32 -70 -70 -70z" />
    <glyph glyph-name="at" unicode="@" horiz-adv-x="1042" 
d="M534 -199c-261 0 -464 165 -464 443c0 276 226 486 511 486c229 0 406 -152 406 -352c0 -202 -141 -333 -269 -333c-79 0 -123 35 -133 89l-10 3c-48 -54 -89 -84 -141 -84c-64 0 -112 46 -112 126c0 151 154 315 271 315c41 0 59 -10 81 -25l47 50l19 -6l-69 -312
c-16 -69 8 -118 61 -118c95 0 187 110 187 278c0 187 -157 329 -367 329c-226 0 -408 -180 -408 -423c0 -239 158 -414 417 -414c106 0 188 24 273 70l17 -18c-81 -63 -188 -104 -317 -104zM476 114c31 0 57 17 115 72l48 217c-22 26 -47 41 -78 41
c-80 0 -154 -122 -154 -236c0 -67 30 -94 69 -94z" />
    <glyph glyph-name="A" unicode="A" horiz-adv-x="767" 
d="M228 292h214l-40 296h-10zM-66 0l6 31l100 31l374 645h75l102 -650l102 -26l-7 -31h-335l6 30l117 21l-26 194h-246l-102 -183l78 -32l-6 -30h-238z" />
    <glyph glyph-name="B" unicode="B" horiz-adv-x="683" 
d="M-29 0l7 31l124 21l125 597l-116 21l7 31h298c145 0 214 -52 214 -137c0 -101 -82 -164 -195 -189l-1 -13c106 -20 163 -64 163 -152c0 -126 -138 -210 -302 -210h-324zM281 385h56c119 1 179 75 179 173c0 77 -48 106 -118 106c-27 0 -40 -1 -60 -5zM282 36
c123 0 196 81 196 186c0 84 -57 123 -148 124h-57l-64 -302c20 -4 42 -8 73 -8z" />
    <glyph glyph-name="C" unicode="C" horiz-adv-x="736" 
d="M369 -17c-180 0 -310 111 -310 301c0 230 176 433 401 433c78 0 145 -21 188 -46l52 46h26l-46 -242l-27 -1c-33 143 -93 205 -192 205c-141 0 -280 -174 -280 -406c0 -160 91 -245 203 -245c31 0 59 2 86 12l142 160l18 -6l-43 -165c-72 -32 -141 -46 -218 -46z" />
    <glyph glyph-name="D" unicode="D" horiz-adv-x="793" 
d="M-29 0l7 31l124 21l125 597l-116 21l7 31h300c204 0 332 -99 332 -281c0 -227 -169 -420 -469 -420h-310zM211 44h84c214 1 335 178 335 385c0 141 -73 226 -219 227l-72 1z" />
    <glyph glyph-name="E" unicode="E" horiz-adv-x="702" 
d="M-29 0l7 31l124 21l125 597l-116 21l7 31h548l-18 -194l-20 -8l-52 95c-26 47 -42 59 -112 59l-126 1l-59 -280h54c66 0 96 19 132 96l17 36h23l-64 -307h-23l-4 34c-8 78 -25 99 -91 99h-53l-58 -284l160 1c65 0 86 10 124 52l110 119l16 -4l-64 -216h-587z" />
    <glyph glyph-name="F" unicode="F" horiz-adv-x="666" 
d="M-29 0l7 31l124 21l125 597l-116 21l7 31h552l-18 -194l-20 -8l-52 95c-26 47 -43 59 -112 59l-130 1l-59 -286h59c66 0 101 20 137 97l16 37h24l-63 -308h-25l-2 34c-7 76 -31 98 -96 98h-60l-56 -275l122 -20l-7 -31h-357z" />
    <glyph glyph-name="G" unicode="G" horiz-adv-x="765" 
d="M323 -17c-157 0 -264 112 -264 302c0 209 163 432 400 432c75 0 135 -19 178 -43l51 47h27l-43 -240l-32 -2c-34 139 -86 200 -183 200c-141 0 -276 -173 -276 -406c0 -163 78 -236 181 -236c40 0 77 10 126 39l43 187l-103 20l7 31h308l-7 -31l-96 -20l-57 -271l-24 -5
l-58 55c-56 -37 -108 -59 -178 -59z" />
    <glyph glyph-name="H" unicode="H" horiz-adv-x="898" 
d="M-29 0l7 31l124 21l125 597l-116 21l7 31h345l-7 -31l-118 -21l-55 -261h353l54 261l-112 21l7 31h346l-7 -31l-123 -21l-125 -598l115 -20l-7 -31h-346l7 31l120 21l60 288h-352l-60 -289l110 -20l-7 -31h-345z" />
    <glyph glyph-name="I" unicode="I" horiz-adv-x="466" 
d="M-18 0l7 31l128 21l125 597l-119 21l7 31h357l-8 -31l-126 -21l-125 -598l117 -20l-7 -31h-356z" />
    <glyph glyph-name="J" unicode="J" horiz-adv-x="568" 
d="M134 -19c-118 0 -157 56 -157 104c0 44 28 79 72 79c55 0 86 -62 53 -140c107 -11 160 56 184 169l95 456l-123 21l7 31h354l-7 -31l-118 -21l-87 -408c-20 -92 -46 -153 -97 -197c-42 -36 -97 -63 -176 -63z" />
    <glyph glyph-name="K" unicode="K" horiz-adv-x="779" 
d="M-29 0l7 31l124 21l125 597l-116 21l7 31h340l-7 -31l-113 -21l-58 -275h83l264 263l-79 34l6 30h261l-7 -31l-110 -37l-268 -250l185 -326l90 -26l-5 -31h-301l7 30l87 19l-144 277h-79l-57 -275l105 -20l-6 -31h-341z" />
    <glyph glyph-name="L" unicode="L" horiz-adv-x="672" 
d="M-29 0l7 31l124 21l125 597l-116 21l7 31h347l-7 -31l-120 -21l-125 -601h149c64 1 84 10 125 55l109 121l17 -4l-66 -220h-576z" />
    <glyph glyph-name="M" unicode="M" horiz-adv-x="1052" 
d="M-7 0l7 31l104 31l122 585l-93 23l6 31h261l17 -114l67 -435h14l248 436l62 113h276l-7 -31l-122 -21l-125 -598l113 -20l-7 -31h-333l7 31l111 21l121 585h-12l-371 -637h-57l-111 637h-13l-119 -576l90 -30l-6 -31h-250z" />
    <glyph glyph-name="N" unicode="N" horiz-adv-x="844" 
d="M572 -7l-53 114l-243 479h-12l-108 -524l90 -31l-6 -31h-250l7 31l103 31l120 578l-91 30l7 31h219l53 -114l194 -395h13l92 447l-92 31l7 31h249l-5 -31l-105 -31l-133 -646h-56z" />
    <glyph glyph-name="O" unicode="O" horiz-adv-x="786" 
d="M344 -16c-181 0 -284 124 -284 304c0 210 158 428 386 428c181 0 284 -123 284 -304c0 -210 -158 -428 -386 -428zM339 22c144 0 271 198 271 428c0 129 -51 229 -159 229c-144 0 -271 -199 -271 -428c0 -129 51 -229 159 -229z" />
    <glyph glyph-name="P" unicode="P" horiz-adv-x="676" 
d="M339 341c138 0 196 83 196 191c0 86 -54 128 -139 129c-21 0 -41 -3 -57 -6l-65 -309c18 -3 39 -5 65 -5zM-29 0l7 31l124 21l125 597l-116 21l7 31h295c158 0 243 -63 243 -175c0 -124 -114 -230 -284 -230c-37 0 -78 5 -106 11l-53 -256l123 -20l-7 -31h-358z" />
    <glyph glyph-name="Q" unicode="Q" horiz-adv-x="786" 
d="M502 -225c-79 0 -112 6 -144 33c-19 16 -36 41 -59 106l-28 80c-135 29 -211 141 -211 295c0 209 158 427 386 427c181 0 284 -123 284 -304c0 -197 -140 -399 -346 -422c26 -65 49 -113 86 -142c34 -27 74 -34 121 -43l-8 -30h-81zM339 20c144 0 271 200 271 430
c0 129 -51 229 -159 229c-144 0 -271 -199 -271 -428c0 -129 51 -231 159 -231z" />
    <glyph glyph-name="R" unicode="R" horiz-adv-x="735" 
d="M277 363h74c124 1 192 83 192 184c0 75 -50 113 -137 113c-23 0 -53 -2 -68 -5zM-29 0l7 31l124 21l125 597l-116 21l7 31h325c141 0 222 -54 222 -150c0 -106 -89 -181 -230 -206l-1 -13c55 -18 77 -48 94 -113c18 -68 33 -127 59 -154c22 -22 44 -28 93 -34l-8 -31
h-115c-75 0 -93 20 -118 117l-33 124c-16 64 -35 80 -87 80h-51l-55 -270l112 -20l-7 -31h-347z" />
    <glyph glyph-name="S" unicode="S" horiz-adv-x="592" 
d="M5 -8l45 242l32 1c33 -166 94 -216 190 -216c79 0 127 62 127 137s-41 110 -130 164c-85 51 -143 104 -143 193c0 116 93 201 220 201c58 0 108 -17 141 -39l43 36l28 -1l-33 -213l-31 -1c-31 130 -78 184 -149 184c-74 0 -120 -51 -120 -122c0 -68 40 -99 127 -152
c94 -57 149 -108 149 -202c0 -144 -133 -218 -241 -218c-75 0 -142 19 -184 41l-43 -36z" />
    <glyph glyph-name="T" unicode="T" horiz-adv-x="711" 
d="M105 0l5 31l132 21l126 605h-66c-54 0 -81 -12 -140 -81l-75 -88l-18 6l73 207h581l-4 -207l-21 -6l-41 88c-30 66 -56 81 -111 81h-67l-126 -606l124 -20l-6 -31h-366z" />
    <glyph glyph-name="U" unicode="U" horiz-adv-x="815" 
d="M373 -17c-178 0 -272 103 -232 291l79 375l-116 21l7 31h352l-5 -31l-125 -21l-80 -375c-28 -134 16 -221 151 -221c122 0 184 73 208 184l85 402l-90 31l7 31h247l-7 -31l-102 -31l-89 -419c-32 -150 -129 -237 -290 -237z" />
    <glyph glyph-name="V" unicode="V" horiz-adv-x="757" 
d="M291 -7l-110 651l-103 26l7 31h340l-6 -31l-120 -21l75 -519l288 507l-79 33l5 31h241l-6 -31l-101 -33l-380 -644h-51z" />
    <glyph glyph-name="W" unicode="W" horiz-adv-x="1082" 
d="M249 -7l-63 651l-99 26l5 31h312l-6 -31l-96 -20l33 -508l243 441l-8 61l-81 26l6 31h297l-5 -31l-107 -21l56 -509l249 498l-79 32l4 31h234l-5 -31l-96 -33l-342 -644h-47l-67 514l-290 -514h-48z" />
    <glyph glyph-name="X" unicode="X" horiz-adv-x="786" 
d="M-27 0l7 31l100 30l270 278l-147 305l-94 26l7 31h317l-6 -28l-103 -20l102 -240l206 233l-79 27l7 28h246l-7 -31l-100 -30l-254 -263l156 -321l95 -25l-7 -31h-316l5 27l102 21l-110 256l-223 -250l78 -27l-6 -27h-246z" />
    <glyph glyph-name="Y" unicode="Y" horiz-adv-x="738" 
d="M126 0l7 31l127 22l54 256l-143 334l-94 27l7 31h323l-7 -31l-107 -21l114 -291l228 284l-82 28l6 31h249l-7 -31l-98 -32l-276 -320l-56 -265l118 -22l-6 -31h-357z" />
    <glyph glyph-name="Z" unicode="Z" horiz-adv-x="717" 
d="M-5 0l-1 18l566 638l-197 -1c-58 0 -85 -12 -136 -61l-92 -87l-17 7l64 187h529l1 -19l-566 -636h234c61 0 82 10 122 52l109 118l16 -5l-70 -211h-562z" />
    <glyph glyph-name="bracketleft" unicode="[" horiz-adv-x="377" 
d="M1 -197l215 1027h289l-9 -40h-198l-198 -947h198l-8 -40h-289z" />
    <glyph glyph-name="backslash" unicode="\" horiz-adv-x="509" 
d="M421 -235l-175 525l-184 518l52 22l177 -526l183 -516z" />
    <glyph glyph-name="bracketright" unicode="]" horiz-adv-x="346" 
d="M-129 -196l10 41h198l198 946h-198l8 40h289l-216 -1027h-289z" />
    <glyph glyph-name="asciicircum" unicode="^" horiz-adv-x="353" 
d="M105 588l-18 19l170 199h37l85 -199l-24 -19l-102 112z" />
    <glyph glyph-name="underscore" unicode="_" horiz-adv-x="501" 
d="M-4 0v48h497v-48h-497z" />
    <glyph glyph-name="grave" unicode="`" horiz-adv-x="282" 
d="M255 594c-46 55 -93 116 -107 149c-13 29 -3 57 23 70s53 1 64 -26c14 -35 29 -105 43 -181z" />
    <glyph glyph-name="a" unicode="a" horiz-adv-x="585" 
d="M166 -13c-78 0 -134 55 -134 152c0 184 184 381 327 381c48 0 74 -13 100 -30l55 59l23 -7l-98 -439c-9 -42 -2 -55 100 -53l3 -15c-45 -27 -94 -48 -135 -48c-51 0 -72 36 -57 107l-11 3c-63 -67 -105 -110 -173 -110zM219 62c38 0 68 22 136 86l58 263
c-26 30 -57 51 -93 51c-97 0 -184 -143 -184 -287c0 -80 35 -113 83 -113z" />
    <glyph glyph-name="b" unicode="b" horiz-adv-x="583" 
d="M206 -13c-66 0 -118 20 -159 47l151 689l-100 27l1 22l205 57l10 -11l-85 -385l11 -3c52 53 104 90 164 90c76 0 140 -63 140 -169c0 -181 -180 -364 -338 -364zM261 46c90 0 179 126 179 271c0 87 -41 133 -99 133c-39 0 -81 -29 -124 -74l-64 -295
c28 -20 65 -35 108 -35z" />
    <glyph glyph-name="c" unicode="c" horiz-adv-x="494" 
d="M229 -12c-108 0 -187 82 -187 196c0 164 139 336 306 336c79 0 119 -50 119 -93c0 -38 -26 -68 -58 -68c-38 0 -61 26 -61 70c0 19 4 40 9 57c-132 -4 -209 -150 -209 -281c0 -108 64 -148 132 -148c52 0 91 23 134 58l18 -14c-40 -63 -113 -113 -203 -113z" />
    <glyph glyph-name="d" unicode="d" horiz-adv-x="598" 
d="M176 -13c-77 0 -141 64 -141 170c0 180 181 363 338 363c25 0 53 -5 73 -10l45 213l-100 27l2 22l204 57l10 -11l-157 -715c-10 -42 -3 -55 100 -53l2 -15c-45 -27 -94 -48 -135 -48c-50 0 -72 36 -57 107l-11 3c-56 -61 -106 -110 -173 -110zM229 62c38 0 79 31 137 86
l60 274c-28 23 -62 40 -108 40c-90 0 -179 -126 -179 -271c0 -87 41 -129 90 -129z" />
    <glyph glyph-name="e" unicode="e" horiz-adv-x="505" 
d="M150 274c148 -13 235 43 235 141c0 44 -29 72 -69 72c-74 0 -142 -90 -166 -213zM145 240c-11 -112 33 -184 135 -184c52 0 97 21 138 58l18 -14c-41 -63 -111 -113 -207 -113c-115 0 -190 74 -190 189c0 154 125 344 295 344c90 0 142 -47 142 -111
c0 -118 -127 -177 -331 -169z" />
    <glyph glyph-name="f" unicode="f" horiz-adv-x="363" 
d="M-50 -246c-52 0 -82 30 -82 63c0 30 26 53 63 53s68 -24 92 -61c25 32 44 87 60 174l80 459h-118l6 28l123 33l7 34c22 118 60 189 135 245c42 31 87 48 140 48c75 0 110 -40 110 -78c0 -32 -24 -58 -61 -58c-41 0 -74 30 -88 90c-68 -3 -113 -89 -139 -236l-10 -52h129
l-11 -54h-127l-59 -342c-29 -163 -55 -225 -125 -291c-39 -36 -82 -55 -125 -55z" />
    <glyph glyph-name="g" unicode="g" horiz-adv-x="553" 
d="M293 490c-28 0 -53 -13 -72 -32c-36 -35 -55 -95 -55 -151c0 -74 35 -118 90 -118c26 0 51 13 72 35c34 33 57 93 57 153c0 73 -35 113 -92 113zM165 177c-57 22 -97 68 -97 133c0 112 106 210 236 210c56 0 101 -20 129 -49l119 51h58l-20 -99h-24l-99 20l-5 -5
c14 -21 20 -43 20 -70c0 -110 -96 -207 -235 -207c-12 0 -24 1 -36 3c-9 -53 -4 -67 36 -76c148 -34 212 -84 212 -158c0 -104 -116 -174 -252 -174c-137 0 -250 59 -250 138c0 69 60 124 174 159zM138 25c-60 -33 -88 -76 -88 -118c0 -74 81 -115 173 -115
c84 0 148 37 148 103c0 57 -55 96 -233 130z" />
    <glyph glyph-name="h" unicode="h" horiz-adv-x="610" 
d="M434 -13c-48 0 -64 27 -63 60c1 15 5 40 9 58l52 220c19 78 -6 116 -63 116c-42 0 -82 -26 -156 -82l-78 -359h-96l159 723l-100 27l1 22l205 57l10 -11l-91 -414l10 -2c70 67 130 118 196 118c92 0 127 -68 101 -177l-58 -245c-10 -38 1 -47 101 -48l2 -15
c-45 -27 -101 -48 -141 -48z" />
    <glyph glyph-name="i" unicode="i" horiz-adv-x="332" 
d="M243 646c-30 0 -53 20 -53 58c0 47 35 98 82 98c30 0 52 -18 52 -56c0 -48 -34 -100 -81 -100zM128 -13c-53 0 -68 41 -58 86l79 348l-92 27l1 21l197 58l10 -10l-95 -419c-10 -41 6 -46 100 -48l2 -15c-47 -28 -103 -48 -144 -48z" />
    <glyph glyph-name="j" unicode="j" horiz-adv-x="311" 
d="M234 646c-30 0 -54 20 -54 58c0 47 35 98 82 98c30 0 53 -18 53 -56c0 -48 -35 -100 -81 -100zM-73 -246c-47 0 -72 26 -72 58c0 28 24 52 61 52c30 0 65 -21 85 -54c26 28 46 80 64 170l86 439l-95 29l1 21l194 58l11 -10l-81 -417c-31 -163 -63 -229 -129 -291
c-37 -35 -79 -55 -125 -55z" />
    <glyph glyph-name="k" unicode="k" horiz-adv-x="559" 
d="M407 -13c-46 0 -70 18 -85 93c-31 153 -48 169 -131 176l-56 -256h-96l159 723l-100 27l1 22l205 57l10 -11l-117 -528c100 22 175 67 205 97c-10 21 -16 38 -16 59c0 45 32 77 68 77c39 0 60 -30 60 -64c0 -79 -79 -127 -241 -171l-1 -10c71 -6 94 -28 111 -65
c16 -37 24 -72 36 -114c11 -35 21 -54 115 -48l2 -16c-43 -27 -89 -48 -129 -48z" />
    <glyph glyph-name="l" unicode="l" horiz-adv-x="321" 
d="M118 -13c-52 0 -67 40 -57 86l142 650l-100 27l2 22l204 57l10 -11l-159 -720c-10 -41 5 -46 100 -48l2 -15c-45 -27 -104 -48 -144 -48z" />
    <glyph glyph-name="m" unicode="m" horiz-adv-x="929" 
d="M743 -13c-48 0 -64 27 -63 60c1 15 5 40 10 58l53 225c16 70 -5 111 -60 111c-34 0 -88 -35 -147 -82l-79 -359h-96l75 331c15 70 -8 110 -60 110c-39 0 -92 -35 -152 -82l-78 -359h-96l93 421l-92 27l2 21l194 58l11 -10l-31 -116l11 -2c71 67 134 121 199 121
c69 0 103 -50 101 -119l11 -2c73 70 138 121 195 121c86 0 121 -68 96 -172l-59 -250c-10 -38 1 -47 101 -48l3 -15c-46 -27 -102 -48 -142 -48z" />
    <glyph glyph-name="n" unicode="n" horiz-adv-x="621" 
d="M445 -13c-48 0 -64 27 -63 60c1 15 5 40 9 58l52 220c19 78 -6 116 -63 116c-42 0 -82 -26 -156 -82l-78 -359h-96l93 421l-92 27l2 21l194 58l11 -10l-31 -116l11 -2c76 71 140 121 202 121c92 0 127 -68 101 -177l-58 -245c-10 -38 0 -47 101 -48l2 -15
c-45 -27 -101 -48 -141 -48z" />
    <glyph glyph-name="o" unicode="o" horiz-adv-x="566" 
d="M218 -13c-98 0 -177 68 -177 191c0 162 129 342 306 342c98 0 177 -68 177 -191c0 -161 -129 -342 -306 -342zM255 33c102 0 164 163 164 281c0 95 -41 161 -108 161c-103 0 -164 -163 -164 -282c0 -94 41 -160 108 -160z" />
    <glyph glyph-name="p" unicode="p" horiz-adv-x="594" 
d="M272 46c90 0 179 126 179 271c0 87 -40 128 -90 128c-38 0 -78 -31 -137 -86l-60 -278c28 -20 65 -35 108 -35zM-81 -235l7 28l84 25l133 603l-92 27l2 21l194 58l11 -10l-29 -104l11 -4c56 61 106 111 175 111c76 0 140 -63 140 -169c0 -181 -180 -364 -338 -364
c-22 0 -55 4 -72 9l-40 -178l90 -28l-6 -25h-270z" />
    <glyph glyph-name="q" unicode="q" horiz-adv-x="583" 
d="M189 -235l5 25l99 28l62 277l-11 2c-46 -57 -100 -110 -168 -110c-77 0 -141 64 -141 170c0 180 181 363 338 363c37 0 71 -7 99 -21l53 50l22 -7l-158 -725l75 -24l-5 -28h-270zM229 62c38 0 78 31 137 86l61 279c-29 20 -66 35 -109 35c-90 0 -179 -126 -179 -271
c0 -87 40 -129 90 -129z" />
    <glyph glyph-name="r" unicode="r" horiz-adv-x="471" 
d="M50 0l93 421l-92 27l2 21l189 58l10 -10l-28 -121l11 -3c60 79 111 129 166 129c42 0 66 -25 66 -62c0 -40 -30 -67 -63 -67c-27 0 -51 18 -69 46c-34 -17 -72 -45 -115 -96l-74 -343h-96z" />
    <glyph glyph-name="s" unicode="s" horiz-adv-x="461" 
d="M201 -12c-116 0 -186 48 -186 106c0 42 29 72 59 72c46 0 66 -48 44 -115c23 -14 56 -22 92 -22c55 0 100 31 100 81c0 39 -18 63 -82 100l-32 18c-61 34 -103 65 -103 133c0 82 87 158 191 158c98 0 143 -47 143 -86c0 -31 -20 -55 -49 -55c-35 0 -63 31 -71 94
c-13 4 -30 7 -42 7c-49 0 -90 -37 -90 -78c0 -38 24 -59 81 -91l33 -19c75 -43 105 -76 105 -138c0 -94 -88 -165 -193 -165z" />
    <glyph glyph-name="t" unicode="t" horiz-adv-x="402" 
d="M168 -10c-80 0 -107 46 -89 126l72 326h-85l5 23l109 65l62 119l49 -10l-32 -143h143l-11 -54h-144l-63 -286c-9 -42 -10 -68 9 -83c12 -10 38 -14 80 -14c18 0 42 1 65 3v-20c-59 -30 -110 -52 -170 -52z" />
    <glyph glyph-name="u" unicode="u" horiz-adv-x="621" 
d="M177 -13c-92 0 -127 69 -101 178l61 256l-93 27l2 21l194 58l11 -10l-77 -334c-18 -78 6 -117 63 -117c42 0 82 27 156 83l59 272l-91 27l1 21l194 58l11 -10l-90 -419c-9 -39 0 -47 101 -48l2 -15c-46 -27 -97 -48 -137 -48c-66 0 -69 59 -54 119l-11 2
c-75 -70 -139 -121 -201 -121z" />
    <glyph glyph-name="v" unicode="v" horiz-adv-x="577" 
d="M202 -23l-31 18l17 38c-9 179 -25 291 -46 362c-9 29 -21 41 -45 41c-14 0 -33 -5 -61 -14l-8 15c36 40 92 83 133 83c39 0 60 -20 73 -60c22 -68 40 -215 41 -357l9 -2c81 88 140 168 167 238c-19 36 -29 71 -29 99c0 53 28 83 66 83c34 0 59 -30 59 -77
c0 -121 -152 -290 -345 -467z" />
    <glyph glyph-name="w" unicode="w" horiz-adv-x="839" 
d="M203 -20l-30 13l14 36c-9 189 -24 293 -45 366c-9 29 -21 41 -43 41c-14 0 -36 -5 -63 -14l-8 15c36 40 92 83 133 83c39 0 60 -19 73 -60c21 -68 38 -212 39 -349l10 -2c56 79 106 158 147 242c-7 44 -13 88 -19 128l88 47h7c13 -118 41 -282 58 -420l10 -3
c72 92 121 171 141 239c-18 36 -30 72 -30 100c0 53 29 79 62 79c39 0 62 -31 62 -80c0 -127 -147 -303 -312 -462l-31 14l15 40c-12 72 -26 156 -39 240c-64 -100 -152 -206 -239 -293z" />
    <glyph glyph-name="x" unicode="x" horiz-adv-x="569" 
d="M64 -14c-38 0 -64 24 -64 56c0 33 25 60 60 60c23 0 39 -9 57 -29c28 19 80 89 128 164c-22 69 -37 119 -59 162c-22 47 -38 56 -112 45l-6 16c42 37 84 60 118 60c62 0 80 -30 125 -196l9 -2c88 159 131 200 186 200c37 0 62 -24 62 -56c0 -35 -28 -61 -60 -61
c-23 0 -42 11 -58 31c-29 -22 -80 -87 -124 -162c19 -68 34 -113 58 -166c20 -48 35 -54 111 -44l5 -15c-39 -36 -80 -61 -115 -61c-64 0 -83 37 -124 201l-12 1c-89 -160 -133 -204 -185 -204z" />
    <glyph glyph-name="y" unicode="y" horiz-adv-x="555" 
d="M39 -245c-52 0 -83 36 -83 82c0 36 23 69 60 69c41 0 63 -46 59 -107c61 34 116 94 157 166c-17 162 -54 332 -81 411c-17 49 -32 59 -59 59c-14 0 -32 -5 -57 -13l-8 15c39 47 90 83 131 83c43 0 67 -18 84 -76c26 -88 49 -206 60 -344h11c56 143 107 321 133 427h6
l93 -47c-115 -224 -250 -551 -384 -665c-42 -36 -80 -60 -122 -60z" />
    <glyph glyph-name="z" unicode="z" horiz-adv-x="527" 
d="M362 -13c-34 0 -68 7 -116 18l-148 38l-76 -55l-25 22l401 414c-103 14 -174 18 -227 18c-23 0 -37 -3 -45 -7v-6c29 -16 44 -37 44 -62c0 -28 -20 -50 -51 -50s-56 30 -56 62c0 31 14 56 56 99c28 31 51 43 101 43c40 0 86 -7 131 -18l90 -24l80 54l25 -22l-394 -408
l147 -22c69 -11 86 -2 156 73l15 -7c-47 -130 -71 -160 -108 -160z" />
    <glyph glyph-name="braceleft" unicode="{" horiz-adv-x="445" 
d="M352 -192c-192 11 -252 79 -218 256l17 85c20 102 -13 137 -120 151l7 38c115 14 159 48 180 151l23 122c35 177 116 222 311 219l-6 -31c-135 -15 -179 -46 -205 -177l-23 -115c-25 -129 -84 -163 -189 -183l-2 -11c97 -22 142 -56 116 -186l-15 -81
c-26 -130 3 -183 130 -207z" />
    <glyph glyph-name="bar" unicode="|" horiz-adv-x="338" 
d="M139 -270l5 528l-5 527h61l-6 -527l6 -528h-61z" />
    <glyph glyph-name="braceright" unicode="}" horiz-adv-x="445" 
d="M-104 -192l6 31c136 16 180 46 206 178l22 114c26 130 85 163 189 183l3 12c-97 22 -142 55 -116 185l15 81c25 131 -3 183 -130 207l6 31c192 -11 251 -78 217 -256l-16 -84c-20 -104 12 -138 120 -152l-8 -38c-114 -13 -158 -48 -179 -151l-24 -121
c-35 -178 -115 -223 -311 -220z" />
    <glyph glyph-name="asciitilde" unicode="~" horiz-adv-x="432" 
d="M93 279l-31 7c29 95 62 138 116 138c57 0 116 -54 153 -54c20 0 31 17 61 67l30 -7c-29 -95 -62 -138 -116 -138c-57 0 -116 54 -153 54c-20 0 -31 -17 -60 -67z" />
    <glyph glyph-name="uni00A0" unicode="&#xa0;" horiz-adv-x="251" 
 />
    <glyph glyph-name="exclamdown" unicode="&#xa1;" horiz-adv-x="316" 
d="M172 307c-39 0 -70 31 -70 69s31 69 70 69s70 -31 70 -69s-31 -69 -70 -69zM49 -289c-41 0 -65 24 -61 76c3 50 75 252 138 427l27 -3c-14 -186 -26 -376 -38 -434c-9 -45 -35 -66 -66 -66z" />
    <glyph glyph-name="cent" unicode="&#xa2;" horiz-adv-x="519" 
d="M211 -124l-41 3l23 112c-89 9 -155 84 -155 189c0 146 120 287 255 313l19 101l42 -5l-20 -91h6c95 -1 148 -37 148 -90c0 -34 -23 -54 -50 -54c-42 0 -66 36 -66 101c-15 5 -34 6 -46 4l-46 -221l-34 -183c6 -1 13 -1 21 -1c51 0 96 23 138 57l19 -14
c-37 -56 -105 -101 -191 -107zM209 63l37 180l40 208c-88 -30 -151 -139 -151 -253c0 -72 27 -116 74 -135z" />
    <glyph glyph-name="sterling" unicode="&#xa3;" horiz-adv-x="602" 
d="M202 364c-4 26 -8 50 -8 78c0 144 116 248 268 248c79 0 115 -36 115 -73c0 -34 -25 -58 -61 -58c-46 0 -76 35 -98 88c-84 -24 -120 -89 -120 -190c0 -29 6 -59 9 -93h165l-10 -47h-153v-3c-1 -105 -47 -149 -138 -206l2 -13c74 -1 148 -15 207 -15c57 0 85 23 116 119
l35 -5c-27 -135 -83 -211 -179 -211c-56 0 -138 39 -215 83c-29 -51 -74 -82 -108 -82c-37 0 -54 19 -54 46c0 41 51 76 145 80c56 58 90 104 90 169c0 13 -1 25 -2 38h-144l10 47h128z" />
    <glyph glyph-name="yen" unicode="&#xa5;" horiz-adv-x="698" 
d="M117 0l6 31l117 22l26 128h-191l8 40h192l17 83h-191l8 41h171l-111 270l-89 27l7 31h304l-7 -31l-99 -21l99 -261l206 255l-72 27l6 31h227l-6 -31l-92 -30l-230 -267h173l-9 -41h-193l-17 -83h193l-9 -40h-193l-26 -128l108 -22l-7 -31h-326z" />
    <glyph glyph-name="brokenbar" unicode="&#xa6;" horiz-adv-x="338" 
d="M200 334h-61l5 225l-5 226h61l-6 -226zM200 -270h-61l5 226l-5 226h61l-6 -226z" />
    <glyph glyph-name="section" unicode="&#xa7;" horiz-adv-x="588" 
d="M390 71c12 35 18 73 18 115c0 137 -72 258 -207 373c-12 -35 -18 -73 -18 -114c0 -138 72 -258 207 -374zM195 -106c-102 0 -181 48 -181 109c0 40 26 66 62 66c57 0 85 -50 53 -108c17 -16 52 -31 92 -31c70 0 125 42 157 111c-197 92 -282 235 -282 377
c0 185 140 319 300 319c102 0 181 -49 181 -110c0 -39 -26 -66 -62 -66c-58 0 -85 50 -53 108c-17 16 -52 31 -92 31c-70 0 -125 -42 -157 -111c197 -92 282 -234 282 -377c0 -185 -140 -318 -300 -318z" />
    <glyph glyph-name="dieresis" unicode="&#xa8;" horiz-adv-x="382" 
d="M152 608c-37 0 -63 28 -63 65c0 36 30 70 70 70c36 0 62 -28 62 -65c0 -36 -29 -70 -69 -70zM365 608c-37 0 -63 28 -63 65c0 36 30 70 70 70c36 0 63 -28 63 -65c0 -36 -30 -70 -70 -70z" />
    <glyph glyph-name="copyright" unicode="&#xa9;" horiz-adv-x="875" 
d="M439 -35c-212 0 -385 172 -385 386c0 212 173 384 385 384c213 0 386 -172 386 -384c0 -214 -173 -386 -386 -386zM439 -4c195 0 352 159 352 355c0 194 -157 353 -352 353c-193 0 -351 -159 -351 -353c0 -196 158 -355 351 -355zM452 146c-127 0 -212 77 -212 200
c0 114 89 209 213 209c31 0 67 -7 90 -18l16 24h20l8 -150l-22 -2c-37 81 -73 112 -128 112c-53 0 -106 -43 -106 -164c0 -115 58 -174 137 -174c18 0 29 1 41 6l67 91l18 -5l-13 -101c-39 -18 -75 -28 -129 -28z" />
    <glyph glyph-name="ordfeminine" unicode="&#xaa;" horiz-adv-x="459" 
d="M176 351c-55 0 -96 38 -96 103c0 128 132 262 235 262c34 0 49 -8 68 -20l42 40l17 -4l-70 -297c-7 -28 -1 -37 73 -36l1 -16c-33 -18 -63 -32 -93 -32c-38 0 -55 21 -43 70l-11 2c-45 -47 -80 -72 -123 -72zM211 406c31 0 51 14 99 60l40 176c-18 20 -38 30 -64 30
c-70 0 -132 -99 -132 -195c0 -49 23 -71 57 -71z" />
    <glyph glyph-name="guillemotleft" unicode="&#xab;" horiz-adv-x="575" 
d="M208 32l-166 210l2 20l254 208l25 -22l-168 -196l85 -202zM435 32l-166 210l2 20l254 208l25 -22l-168 -196l85 -202z" />
    <glyph glyph-name="registered" unicode="&#xae;" horiz-adv-x="476" 
d="M285 324c-119 0 -209 89 -209 208s90 209 209 209c120 0 209 -90 209 -209s-89 -208 -209 -208zM285 345c108 0 186 79 186 187s-78 188 -186 188c-107 0 -185 -80 -185 -188s78 -187 185 -187zM329 584c0 28 -18 40 -47 40h-23v-84h27c25 0 43 16 43 44zM377 589
c0 -29 -20 -47 -63 -54v-9c27 -3 40 -11 46 -31c8 -19 13 -32 22 -40c6 -7 14 -10 31 -11v-14h-48c-28 0 -32 9 -43 36l-14 33c-8 18 -17 23 -35 23h-13v-69l36 -9v-14h-119v14l37 9v167l-37 8v15h123c51 0 77 -23 77 -54z" />
    <glyph glyph-name="macron" unicode="&#xaf;" horiz-adv-x="375" 
d="M110 624l15 69h281l-15 -69h-281z" />
    <glyph glyph-name="degree" unicode="&#xb0;" horiz-adv-x="436" 
d="M229 386c-80 0 -133 47 -133 129c0 93 74 202 195 202c80 0 132 -47 132 -129c0 -93 -73 -202 -194 -202zM242 417c72 0 104 119 104 178c0 57 -22 91 -68 91c-72 0 -104 -119 -104 -178c0 -57 22 -91 68 -91z" />
    <glyph glyph-name="plusminus" unicode="&#xb1;" horiz-adv-x="580" 
d="M506 427h-170l-37 -173h-57l37 173h-170l11 54h170l36 170h57l-36 -170h170zM453 120h-421l11 53h421z" />
    <glyph glyph-name="two.sup" unicode="&#xb2;" horiz-adv-x="445" 
d="M16 368c82 60 144 104 188 143c86 76 111 116 111 165c0 46 -26 77 -75 77c-55 0 -90 -35 -127 -92l-24 11c33 91 97 150 185 150c83 0 135 -55 135 -123c0 -92 -64 -163 -308 -312l1 -12l199 1l71 90l17 -4l-50 -160h-312z" />
    <glyph glyph-name="three.sup" unicode="&#xb3;" horiz-adv-x="445" 
d="M152 575c138 31 178 72 178 123c0 37 -28 61 -72 61c-54 0 -97 -25 -138 -67l-20 16c36 64 101 114 186 114s131 -43 131 -104c0 -59 -44 -111 -141 -133l-3 -15c80 -25 115 -61 115 -123c0 -85 -80 -161 -203 -161c-94 0 -157 38 -157 93c0 29 22 54 53 54
c49 0 63 -50 41 -94c18 -12 39 -17 68 -17c63 0 111 34 111 99c0 54 -39 97 -158 113z" />
    <glyph glyph-name="acute" unicode="&#xb4;" horiz-adv-x="284" 
d="M132 594l-18 15c41 71 85 150 116 185c23 26 56 36 79 16c23 -19 20 -47 -5 -77c-28 -35 -105 -88 -172 -139z" />
    <glyph glyph-name="paragraph" unicode="&#xb6;" horiz-adv-x="704" 
d="M348 269l77 363c-132 0 -214 -90 -214 -209c0 -97 57 -140 137 -154zM763 679l-6 -26l-123 -24l-158 -739h-57l159 741h-97l-158 -741h-57l73 332c-143 16 -244 75 -244 201c0 156 134 256 338 256h330z" />
    <glyph glyph-name="periodcentered" unicode="&#xb7;" horiz-adv-x="269" 
d="M138 285c-41 0 -73 32 -73 71s32 72 73 72c39 0 71 -33 71 -72s-32 -71 -71 -71z" />
    <glyph glyph-name="cedilla" unicode="&#xb8;" horiz-adv-x="332" 
d="M10 -284c-50 0 -83 23 -83 49c0 20 13 35 34 35c20 0 30 -15 30 -32c0 -10 -2 -15 -7 -23c8 -3 15 -5 27 -5c33 0 63 23 63 64c0 40 -32 67 -69 67c-13 0 -22 -2 -32 -5l-12 19l164 128l37 -4l-117 -93c50 -7 91 -41 91 -92c0 -61 -55 -108 -126 -108z" />
    <glyph glyph-name="one.sup" unicode="&#xb9;" horiz-adv-x="445" 
d="M257 355l113 -33l-3 -20h-333l4 20l128 35l83 388l-106 38l3 18l198 25l11 -9z" />
    <glyph glyph-name="ordmasculine" unicode="&#xba;" horiz-adv-x="465" 
d="M235 348c-81 0 -139 46 -139 139c0 126 97 230 205 230c82 0 140 -46 140 -139c0 -126 -97 -230 -206 -230zM242 379c70 0 119 117 119 208c0 70 -24 100 -66 100c-70 0 -119 -118 -119 -209c0 -70 23 -99 66 -99z" />
    <glyph glyph-name="guillemotright" unicode="&#xbb;" horiz-adv-x="575" 
d="M47 32l-25 22l168 198l-85 200l32 18l168 -208l-2 -20zM274 32l-25 22l168 198l-84 200l31 18l168 -208l-2 -20z" />
    <glyph glyph-name="onequarter" unicode="&#xbc;" horiz-adv-x="1152" 
d="M998 700l-372 -411l-368 -418l-39 37l373 411l367 419zM257 243l113 -33l-3 -20h-333l4 20l128 35l83 388l-106 38l3 18l198 25l11 -9zM682 117l284 317l93 -8l-65 -300h82l-13 -59h-81l-22 -100l68 -29l-5 -23h-245l5 25l94 28l22 101h-206zM913 123l51 240h-19
l-203 -240h171z" />
    <glyph glyph-name="onehalf" unicode="&#xbd;" horiz-adv-x="1152" 
d="M978 700l-372 -411l-368 -418l-39 37l373 411l367 419zM256 243l113 -33l-3 -20h-333l4 20l128 35l83 388l-106 38l3 18l198 25l11 -9zM673 -19c82 60 144 104 188 143c86 76 111 116 111 165c0 46 -26 77 -75 77c-55 0 -90 -35 -127 -92l-24 11c33 91 97 150 185 150
c83 0 135 -55 135 -123c0 -92 -64 -163 -308 -312l1 -12l199 1l71 90l17 -4l-50 -160h-312z" />
    <glyph glyph-name="threequarters" unicode="&#xbe;" horiz-adv-x="1152" 
d="M995 700l-372 -411l-368 -418l-39 37l373 411l367 419zM671 117l284 317l93 -8l-65 -300h82l-13 -59h-81l-22 -100l68 -29l-5 -23h-245l5 25l94 28l22 101h-206zM902 123l51 240h-19l-203 -240h171zM162 463c138 31 178 72 178 123c0 37 -28 61 -72 61
c-54 0 -97 -25 -138 -67l-20 16c36 64 101 114 186 114s131 -43 131 -104c0 -59 -44 -111 -141 -133l-3 -15c80 -25 115 -61 115 -123c0 -85 -80 -161 -203 -161c-94 0 -157 38 -157 93c0 29 22 54 53 54c49 0 63 -50 41 -94c18 -12 39 -17 68 -17c63 0 111 34 111 99
c0 54 -39 97 -158 113z" />
    <glyph glyph-name="questiondown" unicode="&#xbf;" horiz-adv-x="453" 
d="M274 445c39 0 70 -31 70 -69s-31 -69 -70 -69s-70 31 -70 69s32 69 70 69zM233 212l31 -1c16 -39 22 -69 22 -93c0 -71 -54 -99 -117 -128c-68 -29 -126 -65 -126 -150c0 -58 41 -93 106 -93c18 0 32 3 45 11c-6 10 -7 23 -7 34c0 50 30 80 68 80c32 0 59 -22 59 -65
c0 -53 -60 -96 -152 -96c-125 0 -205 66 -205 159c0 98 58 152 163 195c109 44 114 58 113 147z" />
    <glyph glyph-name="Agrave" unicode="&#xc0;" horiz-adv-x="767" 
d="M464 789c-45 54 -91 114 -105 147c-12 28 -2 56 23 69c26 12 52 0 63 -26c14 -34 28 -103 42 -178zM228 292h214l-40 296h-10zM-66 0l6 31l100 31l374 645h75l102 -650l102 -26l-7 -31h-335l6 30l117 21l-26 194h-246l-102 -183l78 -32l-6 -30h-238z" />
    <glyph glyph-name="Aacute" unicode="&#xc1;" horiz-adv-x="767" 
d="M432 789l-18 15c41 69 83 147 114 181c23 26 55 36 78 17c22 -19 19 -46 -5 -76c-28 -34 -103 -86 -169 -137zM228 292h214l-40 296h-10zM-66 0l6 31l100 31l374 645h75l102 -650l102 -26l-7 -31h-335l6 30l117 21l-26 194h-246l-102 -183l78 -32l-6 -30h-238z" />
    <glyph glyph-name="Acircumflex" unicode="&#xc2;" horiz-adv-x="767" 
d="M341 784l-18 19l167 195h37l83 -195l-23 -19l-98 117zM228 292h214l-40 296h-10zM-66 0l6 31l100 31l374 645h75l102 -650l102 -26l-7 -31h-335l6 30l117 21l-26 194h-246l-102 -183l78 -32l-6 -30h-238z" />
    <glyph glyph-name="Atilde" unicode="&#xc3;" horiz-adv-x="767" 
d="M344 793l-30 7c28 93 60 135 113 135c56 0 114 -53 151 -53c19 0 30 17 59 66l29 -7c-28 -93 -60 -135 -113 -135c-56 0 -114 53 -151 53c-19 0 -30 -17 -58 -66zM228 292h214l-40 296h-10zM-66 0l6 31l100 31l374 645h75l102 -650l102 -26l-7 -31h-335l6 30l117 21
l-26 194h-246l-102 -183l78 -32l-6 -30h-238z" />
    <glyph glyph-name="Adieresis" unicode="&#xc4;" horiz-adv-x="767" 
d="M370 804c-36 0 -62 26 -62 63c0 35 29 68 69 68c36 0 62 -26 62 -63c0 -36 -30 -68 -69 -68zM579 804c-36 0 -61 26 -61 63c0 35 29 68 68 68c36 0 62 -26 62 -63c0 -36 -29 -68 -69 -68zM228 292h214l-40 296h-10zM-66 0l6 31l100 31l374 645h75l102 -650l102 -26
l-7 -31h-335l6 30l117 21l-26 194h-246l-102 -183l78 -32l-6 -30h-238z" />
    <glyph glyph-name="Aring" unicode="&#xc5;" horiz-adv-x="767" 
d="M455 707c46 0 71 65 71 103c0 48 -24 70 -52 70c-46 0 -70 -65 -70 -102c0 -49 23 -71 51 -71zM228 292h214l-40 296h-10zM-66 0l6 31l100 31l366 631c-33 14 -53 46 -53 86c0 62 49 125 126 125c59 0 98 -40 98 -95c0 -50 -33 -102 -86 -119l100 -633l102 -26l-7 -31
h-335l6 30l117 21l-26 194h-246l-102 -183l78 -32l-6 -30h-238z" />
    <glyph glyph-name="AE" unicode="&#xc6;" horiz-adv-x="1022" 
d="M286 322h194l70 332h-14zM-70 0l6 31l90 31l450 589l-113 19l7 31h616l-18 -194l-20 -8l-52 95c-26 47 -43 59 -112 59l-126 1l-59 -280h54c66 0 96 19 132 96l16 36h24l-64 -307h-24l-3 34c-8 78 -25 99 -91 99h-54l-57 -284l160 1c65 0 86 10 124 52l110 119l16 -4
l-64 -216h-585l7 31l124 21l47 225h-219l-163 -218l87 -30l-6 -29h-240z" />
    <glyph glyph-name="Ccedilla" unicode="&#xc7;" horiz-adv-x="736" 
d="M272 -279c-49 0 -81 23 -81 48c0 20 12 35 32 35s30 -15 30 -32c0 -10 -2 -15 -7 -22c8 -4 15 -6 26 -6c33 0 63 23 63 64c0 38 -32 65 -68 65c-13 0 -22 -2 -32 -5l-11 19l124 97c-169 8 -289 118 -289 300c0 230 176 433 401 433c78 0 145 -21 188 -46l52 46h26
l-46 -242l-27 -1c-33 143 -93 205 -192 205c-141 0 -280 -174 -280 -406c0 -160 91 -245 203 -245c31 0 59 2 86 12l142 160l18 -6l-43 -165c-65 -29 -128 -43 -197 -45l-84 -66c49 -7 90 -41 90 -91c0 -60 -54 -106 -124 -106z" />
    <glyph glyph-name="Egrave" unicode="&#xc8;" horiz-adv-x="702" 
d="M423 788c-45 54 -91 114 -105 147c-12 28 -2 56 23 69c26 12 52 0 63 -26c14 -34 28 -103 42 -178zM-29 0l7 31l124 21l125 597l-116 21l7 31h548l-18 -194l-20 -8l-52 95c-26 47 -42 59 -112 59l-126 1l-59 -280h54c66 0 96 19 132 96l17 36h23l-64 -307h-23l-4 34
c-8 78 -25 99 -91 99h-53l-58 -284l160 1c65 0 86 10 124 52l110 119l16 -4l-64 -216h-587z" />
    <glyph glyph-name="Eacute" unicode="&#xc9;" horiz-adv-x="702" 
d="M390 788l-18 15c41 69 83 147 114 181c23 26 55 36 78 17c22 -19 19 -46 -5 -76c-28 -34 -103 -86 -169 -137zM-29 0l7 31l124 21l125 597l-116 21l7 31h548l-18 -194l-20 -8l-52 95c-26 47 -42 59 -112 59l-126 1l-59 -280h54c66 0 96 19 132 96l17 36h23l-64 -307h-23
l-4 34c-8 78 -25 99 -91 99h-53l-58 -284l160 1c65 0 86 10 124 52l110 119l16 -4l-64 -216h-587z" />
    <glyph glyph-name="Ecircumflex" unicode="&#xca;" horiz-adv-x="702" 
d="M300 783l-18 19l167 195h37l83 -195l-23 -19l-98 117zM-29 0l7 31l124 21l125 597l-116 21l7 31h548l-18 -194l-20 -8l-52 95c-26 47 -42 59 -112 59l-126 1l-59 -280h54c66 0 96 19 132 96l17 36h23l-64 -307h-23l-4 34c-8 78 -25 99 -91 99h-53l-58 -284l160 1
c65 0 86 10 124 52l110 119l16 -4l-64 -216h-587z" />
    <glyph glyph-name="Edieresis" unicode="&#xcb;" horiz-adv-x="702" 
d="M329 803c-36 0 -62 26 -62 63c0 35 29 68 69 68c36 0 62 -26 62 -63c0 -36 -30 -68 -69 -68zM538 803c-36 0 -61 26 -61 63c0 35 29 68 68 68c36 0 62 -26 62 -63c0 -36 -29 -68 -69 -68zM-29 0l7 31l124 21l125 597l-116 21l7 31h548l-18 -194l-20 -8l-52 95
c-26 47 -42 59 -112 59l-126 1l-59 -280h54c66 0 96 19 132 96l17 36h23l-64 -307h-23l-4 34c-8 78 -25 99 -91 99h-53l-58 -284l160 1c65 0 86 10 124 52l110 119l16 -4l-64 -216h-587z" />
    <glyph glyph-name="Igrave" unicode="&#xcc;" horiz-adv-x="466" 
d="M325 788c-45 54 -91 114 -105 147c-12 28 -2 56 23 69c26 12 52 0 63 -26c14 -34 28 -103 42 -178zM-18 0l7 31l128 21l125 597l-119 21l7 31h357l-8 -31l-126 -21l-125 -598l117 -20l-7 -31h-356z" />
    <glyph glyph-name="Iacute" unicode="&#xcd;" horiz-adv-x="466" 
d="M292 788l-18 15c41 69 83 147 114 181c23 26 55 36 78 17c22 -19 19 -46 -5 -76c-28 -34 -103 -86 -169 -137zM-18 0l7 31l128 21l125 597l-119 21l7 31h357l-8 -31l-126 -21l-125 -598l117 -20l-7 -31h-356z" />
    <glyph glyph-name="Icircumflex" unicode="&#xce;" horiz-adv-x="466" 
d="M201 783l-18 19l167 195h37l83 -195l-23 -19l-98 117zM-18 0l7 31l128 21l125 597l-119 21l7 31h357l-8 -31l-126 -21l-125 -598l117 -20l-7 -31h-356z" />
    <glyph glyph-name="Idieresis" unicode="&#xcf;" horiz-adv-x="466" 
d="M230 803c-36 0 -62 26 -62 63c0 35 29 68 69 68c36 0 62 -26 62 -63c0 -36 -30 -68 -69 -68zM439 803c-36 0 -61 26 -61 63c0 35 29 68 68 68c36 0 62 -26 62 -63c0 -36 -29 -68 -69 -68zM-18 0l7 31l128 21l125 597l-119 21l7 31h357l-8 -31l-126 -21l-125 -598l117 -20
l-7 -31h-356z" />
    <glyph glyph-name="Eth" unicode="&#xd0;" horiz-adv-x="798" 
d="M-23 0l6 31l125 21l60 287h-105l9 49h107l54 261l-117 21l7 31h300c205 0 332 -99 332 -281c0 -227 -168 -420 -469 -420h-309zM215 44h85c214 1 335 178 335 385c0 141 -73 226 -218 227l-74 1l-56 -269h140l-9 -49h-142z" />
    <glyph glyph-name="Ntilde" unicode="&#xd1;" horiz-adv-x="844" 
d="M378 792l-30 7c28 93 60 135 113 135c56 0 114 -53 151 -53c19 0 30 17 59 66l29 -7c-28 -93 -60 -135 -113 -135c-56 0 -114 53 -151 53c-19 0 -30 -17 -58 -66zM572 -7l-53 114l-243 479h-12l-108 -524l90 -31l-6 -31h-250l7 31l103 31l120 578l-91 30l7 31h219
l53 -114l194 -395h13l92 447l-92 31l7 31h249l-5 -31l-105 -31l-133 -646h-56z" />
    <glyph glyph-name="Ograve" unicode="&#xd2;" horiz-adv-x="786" 
d="M485 789c-45 54 -91 114 -105 147c-12 28 -2 56 23 69c26 12 52 0 63 -26c14 -34 28 -103 42 -178zM344 -16c-181 0 -284 124 -284 304c0 210 158 428 386 428c181 0 284 -123 284 -304c0 -210 -158 -428 -386 -428zM339 22c144 0 271 198 271 428
c0 129 -51 229 -159 229c-144 0 -271 -199 -271 -428c0 -129 51 -229 159 -229z" />
    <glyph glyph-name="Oacute" unicode="&#xd3;" horiz-adv-x="786" 
d="M452 789l-18 15c41 69 83 147 114 181c23 26 55 36 78 17c22 -19 19 -46 -5 -76c-28 -34 -103 -86 -169 -137zM344 -16c-181 0 -284 124 -284 304c0 210 158 428 386 428c181 0 284 -123 284 -304c0 -210 -158 -428 -386 -428zM339 22c144 0 271 198 271 428
c0 129 -51 229 -159 229c-144 0 -271 -199 -271 -428c0 -129 51 -229 159 -229z" />
    <glyph glyph-name="Ocircumflex" unicode="&#xd4;" horiz-adv-x="786" 
d="M362 784l-18 19l167 195h37l83 -195l-23 -19l-98 117zM344 -16c-181 0 -284 124 -284 304c0 210 158 428 386 428c181 0 284 -123 284 -304c0 -210 -158 -428 -386 -428zM339 22c144 0 271 198 271 428c0 129 -51 229 -159 229c-144 0 -271 -199 -271 -428
c0 -129 51 -229 159 -229z" />
    <glyph glyph-name="Otilde" unicode="&#xd5;" horiz-adv-x="786" 
d="M364 793l-30 7c28 93 60 135 113 135c56 0 114 -53 151 -53c19 0 30 17 59 66l29 -7c-28 -93 -60 -135 -113 -135c-56 0 -114 53 -151 53c-19 0 -30 -17 -58 -66zM344 -16c-181 0 -284 124 -284 304c0 210 158 428 386 428c181 0 284 -123 284 -304
c0 -210 -158 -428 -386 -428zM339 22c144 0 271 198 271 428c0 129 -51 229 -159 229c-144 0 -271 -199 -271 -428c0 -129 51 -229 159 -229z" />
    <glyph glyph-name="Odieresis" unicode="&#xd6;" horiz-adv-x="786" 
d="M391 804c-36 0 -62 26 -62 63c0 35 29 68 69 68c36 0 62 -26 62 -63c0 -36 -30 -68 -69 -68zM600 804c-36 0 -61 26 -61 63c0 35 29 68 68 68c36 0 62 -26 62 -63c0 -36 -29 -68 -69 -68zM344 -16c-181 0 -284 124 -284 304c0 210 158 428 386 428
c181 0 284 -123 284 -304c0 -210 -158 -428 -386 -428zM339 22c144 0 271 198 271 428c0 129 -51 229 -159 229c-144 0 -271 -199 -271 -428c0 -129 51 -229 159 -229z" />
    <glyph glyph-name="multiply" unicode="&#xd7;" horiz-adv-x="580" 
d="M330 331l121 -166l-47 -35l-118 167l-184 -149l-35 42l190 150l-120 165l46 34l117 -165l185 149l34 -42z" />
    <glyph glyph-name="Oslash" unicode="&#xd8;" horiz-adv-x="786" 
d="M192 151l391 443c-24 53 -69 85 -132 85c-144 0 -271 -199 -271 -427c0 -38 4 -72 12 -101zM339 22c144 0 271 198 271 427c0 39 -4 74 -13 104l-392 -443c25 -56 69 -88 134 -88zM79 -31l-29 24l78 87c-43 53 -68 125 -68 209c0 209 158 427 386 427
c75 0 139 -24 188 -67l76 86l28 -25l-78 -88c45 -52 70 -125 70 -210c0 -211 -156 -428 -386 -428c-77 0 -143 25 -190 70z" />
    <glyph glyph-name="Ugrave" unicode="&#xd9;" horiz-adv-x="815" 
d="M513 788c-45 54 -91 114 -105 147c-12 28 -2 56 23 69c26 12 52 0 63 -26c14 -34 28 -103 42 -178zM373 -17c-178 0 -272 103 -232 291l79 375l-116 21l7 31h352l-5 -31l-125 -21l-80 -375c-28 -134 16 -221 151 -221c122 0 184 73 208 184l85 402l-90 31l7 31h247
l-7 -31l-102 -31l-89 -419c-32 -150 -129 -237 -290 -237z" />
    <glyph glyph-name="Uacute" unicode="&#xda;" horiz-adv-x="815" 
d="M480 788l-18 15c41 69 83 147 114 181c23 26 55 36 78 17c22 -19 19 -46 -5 -76c-28 -34 -103 -86 -169 -137zM373 -17c-178 0 -272 103 -232 291l79 375l-116 21l7 31h352l-5 -31l-125 -21l-80 -375c-28 -134 16 -221 151 -221c122 0 184 73 208 184l85 402l-90 31l7 31
h247l-7 -31l-102 -31l-89 -419c-32 -150 -129 -237 -290 -237z" />
    <glyph glyph-name="Ucircumflex" unicode="&#xdb;" horiz-adv-x="815" 
d="M390 783l-18 19l167 195h37l83 -195l-23 -19l-98 117zM373 -17c-178 0 -272 103 -232 291l79 375l-116 21l7 31h352l-5 -31l-125 -21l-80 -375c-28 -134 16 -221 151 -221c122 0 184 73 208 184l85 402l-90 31l7 31h247l-7 -31l-102 -31l-89 -419
c-32 -150 -129 -237 -290 -237z" />
    <glyph glyph-name="Udieresis" unicode="&#xdc;" horiz-adv-x="815" 
d="M419 803c-36 0 -62 26 -62 63c0 35 29 68 69 68c36 0 62 -26 62 -63c0 -36 -30 -68 -69 -68zM628 803c-36 0 -61 26 -61 63c0 35 29 68 68 68c36 0 62 -26 62 -63c0 -36 -29 -68 -69 -68zM373 -17c-178 0 -272 103 -232 291l79 375l-116 21l7 31h352l-5 -31l-125 -21
l-80 -375c-28 -134 16 -221 151 -221c122 0 184 73 208 184l85 402l-90 31l7 31h247l-7 -31l-102 -31l-89 -419c-32 -150 -129 -237 -290 -237z" />
    <glyph glyph-name="Yacute" unicode="&#xdd;" horiz-adv-x="738" 
d="M439 788l-18 15c41 69 83 147 114 181c23 26 55 36 78 17c22 -19 19 -46 -5 -76c-28 -34 -103 -86 -169 -137zM126 0l7 31l127 22l54 256l-143 334l-94 27l7 31h323l-7 -31l-107 -21l114 -291l228 284l-82 28l6 31h249l-7 -31l-98 -32l-276 -320l-56 -265l118 -22l-6 -31
h-357z" />
    <glyph glyph-name="Thorn" unicode="&#xde;" horiz-adv-x="682" 
d="M308 192c139 0 196 84 196 191c0 86 -54 128 -138 129c-21 0 -42 -3 -58 -6l-64 -309c17 -3 39 -5 64 -5zM-29 0l7 31l124 21l125 597l-116 21l7 31h348l-7 -31l-121 -21l-21 -103c17 3 43 6 68 6c154 0 240 -63 240 -175c0 -124 -114 -230 -283 -230
c-37 0 -78 5 -107 11l-22 -107l123 -20l-7 -31h-358z" />
    <glyph glyph-name="germandbls" unicode="&#xdf;" horiz-adv-x="608" 
d="M-81 -246c-52 0 -81 30 -81 62c0 30 25 53 62 53s67 -24 90 -60c25 32 43 87 59 172l92 526c24 136 73 216 151 276c41 31 86 47 142 47c109 0 163 -68 163 -148c0 -102 -76 -175 -200 -263c108 -90 155 -185 155 -259c0 -110 -75 -173 -175 -173c-70 0 -134 36 -134 90
c0 32 25 56 56 56c36 0 57 -32 50 -96c15 -5 23 -7 37 -7c43 0 82 31 82 92c0 69 -46 150 -165 253l1 13c131 103 190 199 190 296c0 67 -33 103 -84 103c-75 0 -139 -85 -167 -248l-77 -439c-29 -165 -54 -225 -124 -291c-39 -36 -80 -55 -123 -55z" />
    <glyph glyph-name="agrave" unicode="&#xe0;" horiz-adv-x="585" 
d="M376 595c-46 55 -93 116 -107 149c-13 29 -3 57 23 70s53 1 64 -26c14 -35 29 -105 43 -181zM166 -13c-78 0 -134 55 -134 152c0 184 184 381 327 381c48 0 74 -13 100 -30l55 59l23 -7l-98 -439c-9 -42 -2 -55 100 -53l3 -15c-45 -27 -94 -48 -135 -48
c-51 0 -72 36 -57 107l-11 3c-63 -67 -105 -110 -173 -110zM219 62c38 0 68 22 136 86l58 263c-26 30 -57 51 -93 51c-97 0 -184 -143 -184 -287c0 -80 35 -113 83 -113z" />
    <glyph glyph-name="aacute" unicode="&#xe1;" horiz-adv-x="585" 
d="M342 595l-18 15c41 71 85 150 116 185c23 26 56 36 79 16c23 -19 20 -47 -5 -77c-28 -35 -105 -88 -172 -139zM166 -13c-78 0 -134 55 -134 152c0 184 184 381 327 381c48 0 74 -13 100 -30l55 59l23 -7l-98 -439c-9 -42 -2 -55 100 -53l3 -15c-45 -27 -94 -48 -135 -48
c-51 0 -72 36 -57 107l-11 3c-63 -67 -105 -110 -173 -110zM219 62c38 0 68 22 136 86l58 263c-26 30 -57 51 -93 51c-97 0 -184 -143 -184 -287c0 -80 35 -113 83 -113z" />
    <glyph glyph-name="acircumflex" unicode="&#xe2;" horiz-adv-x="585" 
d="M251 589l-18 20l170 199h37l85 -199l-24 -20l-100 120zM166 -13c-78 0 -134 55 -134 152c0 184 184 381 327 381c48 0 74 -13 100 -30l55 59l23 -7l-98 -439c-9 -42 -2 -55 100 -53l3 -15c-45 -27 -94 -48 -135 -48c-51 0 -72 36 -57 107l-11 3
c-63 -67 -105 -110 -173 -110zM219 62c38 0 68 22 136 86l58 263c-26 30 -57 51 -93 51c-97 0 -184 -143 -184 -287c0 -80 35 -113 83 -113z" />
    <glyph glyph-name="atilde" unicode="&#xe3;" horiz-adv-x="585" 
d="M253 599l-31 7c29 94 61 138 115 138c57 0 116 -55 154 -55c19 0 31 17 60 67l30 -6c-29 -95 -61 -138 -115 -138c-57 0 -116 54 -154 54c-19 0 -31 -17 -59 -67zM166 -13c-78 0 -134 55 -134 152c0 184 184 381 327 381c48 0 74 -13 100 -30l55 59l23 -7l-98 -439
c-9 -42 -2 -55 100 -53l3 -15c-45 -27 -94 -48 -135 -48c-51 0 -72 36 -57 107l-11 3c-63 -67 -105 -110 -173 -110zM219 62c38 0 68 22 136 86l58 263c-26 30 -57 51 -93 51c-97 0 -184 -143 -184 -287c0 -80 35 -113 83 -113z" />
    <glyph glyph-name="adieresis" unicode="&#xe4;" horiz-adv-x="585" 
d="M280 609c-37 0 -63 28 -63 65c0 36 30 70 70 70c36 0 62 -28 62 -65c0 -36 -29 -70 -69 -70zM493 609c-37 0 -63 28 -63 65c0 36 30 70 70 70c36 0 63 -28 63 -65c0 -36 -30 -70 -70 -70zM166 -13c-78 0 -134 55 -134 152c0 184 184 381 327 381c48 0 74 -13 100 -30
l55 59l23 -7l-98 -439c-9 -42 -2 -55 100 -53l3 -15c-45 -27 -94 -48 -135 -48c-51 0 -72 36 -57 107l-11 3c-63 -67 -105 -110 -173 -110zM219 62c38 0 68 22 136 86l58 263c-26 30 -57 51 -93 51c-97 0 -184 -143 -184 -287c0 -80 35 -113 83 -113z" />
    <glyph glyph-name="aring" unicode="&#xe5;" horiz-adv-x="585" 
d="M389 605c-60 0 -100 41 -100 97c0 63 51 128 128 128c61 0 100 -41 100 -97c0 -64 -50 -128 -128 -128zM394 629c46 0 71 66 71 104c0 50 -24 72 -52 72c-47 0 -72 -66 -72 -104c0 -49 24 -72 53 -72zM166 -13c-78 0 -134 55 -134 152c0 184 184 381 327 381
c48 0 74 -13 100 -30l55 59l23 -7l-98 -439c-9 -42 -2 -55 100 -53l3 -15c-45 -27 -94 -48 -135 -48c-51 0 -72 36 -57 107l-11 3c-63 -67 -105 -110 -173 -110zM219 62c38 0 68 22 136 86l58 263c-26 30 -57 51 -93 51c-97 0 -184 -143 -184 -287c0 -80 35 -113 83 -113z
" />
    <glyph glyph-name="ae" unicode="&#xe6;" horiz-adv-x="790" 
d="M435 274c148 -13 235 43 235 141c0 44 -29 72 -69 72c-74 0 -142 -90 -166 -213zM412 412c-25 30 -56 50 -91 50c-98 0 -185 -143 -185 -287c0 -80 35 -113 83 -113c33 0 60 16 111 63c-3 15 -6 33 -6 51c0 79 34 169 88 236zM342 90h-3c-63 -64 -106 -103 -172 -103
c-79 0 -135 55 -135 153c0 183 185 380 327 380c59 0 96 -25 120 -45c42 28 89 45 140 45c90 0 143 -47 143 -111c0 -118 -128 -177 -331 -169c-12 -112 32 -184 134 -184c52 0 97 21 138 58l18 -14c-41 -63 -111 -113 -206 -113c-84 0 -146 39 -173 103z" />
    <glyph glyph-name="ccedilla" unicode="&#xe7;" horiz-adv-x="494" 
d="M148 -284c-50 0 -83 23 -83 49c0 20 13 35 33 35s31 -15 31 -32c0 -10 -2 -15 -8 -23c8 -3 15 -5 27 -5c34 0 64 23 64 64c0 40 -33 67 -69 67c-13 0 -22 -2 -33 -5l-11 19l133 103c-3 0 -4 1 -6 1c-106 1 -184 83 -184 195c0 164 139 336 306 336c79 0 119 -50 119 -93
c0 -38 -26 -68 -58 -68c-38 0 -61 26 -61 70c0 19 4 40 9 57c-132 -4 -209 -150 -209 -281c0 -108 64 -148 132 -148c52 0 91 23 134 58l18 -14c-32 -50 -85 -92 -150 -107l-99 -78c50 -7 91 -41 91 -92c0 -61 -55 -108 -126 -108z" />
    <glyph glyph-name="egrave" unicode="&#xe8;" horiz-adv-x="505" 
d="M343 595c-46 55 -93 116 -107 149c-13 29 -3 57 23 70s53 1 64 -26c14 -35 29 -105 43 -181zM150 274c148 -13 235 43 235 141c0 44 -29 72 -69 72c-74 0 -142 -90 -166 -213zM145 240c-11 -112 33 -184 135 -184c52 0 97 21 138 58l18 -14c-41 -63 -111 -113 -207 -113
c-115 0 -190 74 -190 189c0 154 125 344 295 344c90 0 142 -47 142 -111c0 -118 -127 -177 -331 -169z" />
    <glyph glyph-name="eacute" unicode="&#xe9;" horiz-adv-x="505" 
d="M310 595l-18 15c41 71 85 150 116 185c23 26 56 36 79 16c23 -19 20 -47 -5 -77c-28 -35 -105 -88 -172 -139zM150 274c148 -13 235 43 235 141c0 44 -29 72 -69 72c-74 0 -142 -90 -166 -213zM145 240c-11 -112 33 -184 135 -184c52 0 97 21 138 58l18 -14
c-41 -63 -111 -113 -207 -113c-115 0 -190 74 -190 189c0 154 125 344 295 344c90 0 142 -47 142 -111c0 -118 -127 -177 -331 -169z" />
    <glyph glyph-name="ecircumflex" unicode="&#xea;" horiz-adv-x="505" 
d="M218 589l-18 20l170 199h37l85 -199l-24 -20l-100 120zM150 274c148 -13 235 43 235 141c0 44 -29 72 -69 72c-74 0 -142 -90 -166 -213zM145 240c-11 -112 33 -184 135 -184c52 0 97 21 138 58l18 -14c-41 -63 -111 -113 -207 -113c-115 0 -190 74 -190 189
c0 154 125 344 295 344c90 0 142 -47 142 -111c0 -118 -127 -177 -331 -169z" />
    <glyph glyph-name="edieresis" unicode="&#xeb;" horiz-adv-x="505" 
d="M248 609c-37 0 -63 28 -63 65c0 36 30 70 70 70c36 0 62 -28 62 -65c0 -36 -29 -70 -69 -70zM461 609c-37 0 -63 28 -63 65c0 36 30 70 70 70c36 0 63 -28 63 -65c0 -36 -30 -70 -70 -70zM150 274c148 -13 235 43 235 141c0 44 -29 72 -69 72c-74 0 -142 -90 -166 -213z
M145 240c-11 -112 33 -184 135 -184c52 0 97 21 138 58l18 -14c-41 -63 -111 -113 -207 -113c-115 0 -190 74 -190 189c0 154 125 344 295 344c90 0 142 -47 142 -111c0 -118 -127 -177 -331 -169z" />
    <glyph glyph-name="igrave" unicode="&#xec;" horiz-adv-x="332" 
d="M198 594c-46 55 -93 116 -107 149c-13 29 -3 57 23 70s53 1 64 -26c14 -35 29 -105 43 -181zM128 -13c-53 0 -68 41 -58 86l79 348l-92 27l1 21l197 58l10 -10l-95 -419c-10 -41 6 -46 100 -48l2 -15c-47 -28 -103 -48 -144 -48z" />
    <glyph glyph-name="iacute" unicode="&#xed;" horiz-adv-x="332" 
d="M163 594l-18 15c41 71 85 150 116 185c23 26 56 36 79 16c23 -19 20 -47 -5 -77c-28 -35 -105 -88 -172 -139zM128 -13c-53 0 -68 41 -58 86l79 348l-92 27l1 21l197 58l10 -10l-95 -419c-10 -41 6 -46 100 -48l2 -15c-47 -28 -103 -48 -144 -48z" />
    <glyph glyph-name="icircumflex" unicode="&#xee;" horiz-adv-x="332" 
d="M72 588l-18 20l170 199h37l85 -199l-24 -20l-100 120zM128 -13c-53 0 -68 41 -58 86l79 348l-92 27l1 21l197 58l10 -10l-95 -419c-10 -41 6 -46 100 -48l2 -15c-47 -28 -103 -48 -144 -48z" />
    <glyph glyph-name="idieresis" unicode="&#xef;" horiz-adv-x="332" 
d="M101 608c-37 0 -63 28 -63 65c0 36 30 70 70 70c36 0 62 -28 62 -65c0 -36 -29 -70 -69 -70zM314 608c-37 0 -63 28 -63 65c0 36 30 70 70 70c36 0 63 -28 63 -65c0 -36 -30 -70 -70 -70zM128 -13c-53 0 -68 41 -58 86l79 348l-92 27l1 21l197 58l10 -10l-95 -419
c-10 -41 6 -46 100 -48l2 -15c-47 -28 -103 -48 -144 -48z" />
    <glyph glyph-name="eth" unicode="&#xf0;" horiz-adv-x="553" 
d="M192 -13c-79 0 -154 63 -154 181c0 184 165 360 355 343c-15 49 -45 97 -89 142l-97 -65l-24 39l88 58c-39 35 -86 68 -140 98l14 28c67 -20 130 -50 184 -88l119 79l24 -38l-104 -69c91 -75 149 -178 149 -306c0 -113 -40 -218 -108 -291c-60 -65 -136 -111 -217 -111z
M240 48c87 0 176 131 176 279c0 84 -29 134 -93 134c-93 0 -183 -126 -183 -274c0 -83 42 -139 100 -139z" />
    <glyph glyph-name="ntilde" unicode="&#xf1;" horiz-adv-x="621" 
d="M244 599l-31 7c29 94 61 138 115 138c57 0 116 -55 154 -55c19 0 31 17 60 67l30 -6c-29 -95 -61 -138 -115 -138c-57 0 -116 54 -154 54c-19 0 -31 -17 -59 -67zM445 -13c-48 0 -64 27 -63 60c1 15 5 40 9 58l52 220c19 78 -6 116 -63 116c-42 0 -82 -26 -156 -82
l-78 -359h-96l93 421l-92 27l2 21l194 58l11 -10l-31 -116l11 -2c76 71 140 121 202 121c92 0 127 -68 101 -177l-58 -245c-10 -38 0 -47 101 -48l2 -15c-45 -27 -101 -48 -141 -48z" />
    <glyph glyph-name="ograve" unicode="&#xf2;" horiz-adv-x="566" 
d="M362 595c-46 55 -93 116 -107 149c-13 29 -3 57 23 70s53 1 64 -26c14 -35 29 -105 43 -181zM218 -13c-98 0 -177 68 -177 191c0 162 129 342 306 342c98 0 177 -68 177 -191c0 -161 -129 -342 -306 -342zM255 33c102 0 164 163 164 281c0 95 -41 161 -108 161
c-103 0 -164 -163 -164 -282c0 -94 41 -160 108 -160z" />
    <glyph glyph-name="oacute" unicode="&#xf3;" horiz-adv-x="566" 
d="M328 595l-18 15c41 71 85 150 116 185c23 26 56 36 79 16c23 -19 20 -47 -5 -77c-28 -35 -105 -88 -172 -139zM218 -13c-98 0 -177 68 -177 191c0 162 129 342 306 342c98 0 177 -68 177 -191c0 -161 -129 -342 -306 -342zM255 33c102 0 164 163 164 281
c0 95 -41 161 -108 161c-103 0 -164 -163 -164 -282c0 -94 41 -160 108 -160z" />
    <glyph glyph-name="ocircumflex" unicode="&#xf4;" horiz-adv-x="566" 
d="M236 589l-18 20l170 199h37l85 -199l-24 -20l-100 120zM218 -13c-98 0 -177 68 -177 191c0 162 129 342 306 342c98 0 177 -68 177 -191c0 -161 -129 -342 -306 -342zM255 33c102 0 164 163 164 281c0 95 -41 161 -108 161c-103 0 -164 -163 -164 -282
c0 -94 41 -160 108 -160z" />
    <glyph glyph-name="otilde" unicode="&#xf5;" horiz-adv-x="566" 
d="M238 599l-31 7c29 94 61 138 115 138c57 0 116 -55 154 -55c19 0 31 17 60 67l30 -6c-29 -95 -61 -138 -115 -138c-57 0 -116 54 -154 54c-19 0 -31 -17 -59 -67zM218 -13c-98 0 -177 68 -177 191c0 162 129 342 306 342c98 0 177 -68 177 -191
c0 -161 -129 -342 -306 -342zM255 33c102 0 164 163 164 281c0 95 -41 161 -108 161c-103 0 -164 -163 -164 -282c0 -94 41 -160 108 -160z" />
    <glyph glyph-name="odieresis" unicode="&#xf6;" horiz-adv-x="566" 
d="M266 609c-37 0 -63 28 -63 65c0 36 30 70 70 70c36 0 62 -28 62 -65c0 -36 -29 -70 -69 -70zM479 609c-37 0 -63 28 -63 65c0 36 30 70 70 70c36 0 63 -28 63 -65c0 -36 -30 -70 -70 -70zM218 -13c-98 0 -177 68 -177 191c0 162 129 342 306 342c98 0 177 -68 177 -191
c0 -161 -129 -342 -306 -342zM255 33c102 0 164 163 164 281c0 95 -41 161 -108 161c-103 0 -164 -163 -164 -282c0 -94 41 -160 108 -160z" />
    <glyph glyph-name="divide" unicode="&#xf7;" horiz-adv-x="580" 
d="M331 442c-35 0 -63 28 -63 63s28 63 63 63s63 -28 63 -63s-28 -63 -63 -63zM522 310h-464l11 54h464zM260 106c-35 0 -64 28 -64 63s29 63 64 63s63 -28 63 -63s-28 -63 -63 -63z" />
    <glyph glyph-name="oslash" unicode="&#xf8;" horiz-adv-x="566" 
d="M154 128l246 291c-18 38 -50 56 -89 56c-104 0 -165 -162 -165 -277c0 -27 3 -51 8 -70zM255 33c103 0 165 162 165 277c0 26 -2 48 -7 67l-246 -291c19 -36 49 -53 88 -53zM65 -33l-28 25l47 55c-27 32 -43 76 -43 132c0 161 129 341 306 341c41 0 79 -12 109 -35l47 55
l28 -25l-47 -56c25 -32 40 -76 40 -130c0 -161 -129 -342 -305 -342c-41 0 -78 12 -108 35z" />
    <glyph glyph-name="ugrave" unicode="&#xf9;" horiz-adv-x="621" 
d="M363 594c-46 55 -93 116 -107 149c-13 29 -3 57 23 70s53 1 64 -26c14 -35 29 -105 43 -181zM177 -13c-92 0 -127 69 -101 178l61 256l-93 27l2 21l194 58l11 -10l-77 -334c-18 -78 6 -117 63 -117c42 0 82 27 156 83l59 272l-91 27l1 21l194 58l11 -10l-90 -419
c-9 -39 0 -47 101 -48l2 -15c-46 -27 -97 -48 -137 -48c-66 0 -69 59 -54 119l-11 2c-75 -70 -139 -121 -201 -121z" />
    <glyph glyph-name="uacute" unicode="&#xfa;" horiz-adv-x="621" 
d="M329 594l-18 15c41 71 85 150 116 185c23 26 56 36 79 16c23 -19 20 -47 -5 -77c-28 -35 -105 -88 -172 -139zM177 -13c-92 0 -127 69 -101 178l61 256l-93 27l2 21l194 58l11 -10l-77 -334c-18 -78 6 -117 63 -117c42 0 82 27 156 83l59 272l-91 27l1 21l194 58l11 -10
l-90 -419c-9 -39 0 -47 101 -48l2 -15c-46 -27 -97 -48 -137 -48c-66 0 -69 59 -54 119l-11 2c-75 -70 -139 -121 -201 -121z" />
    <glyph glyph-name="ucircumflex" unicode="&#xfb;" horiz-adv-x="621" 
d="M237 588l-18 20l170 199h37l85 -199l-24 -20l-100 120zM177 -13c-92 0 -127 69 -101 178l61 256l-93 27l2 21l194 58l11 -10l-77 -334c-18 -78 6 -117 63 -117c42 0 82 27 156 83l59 272l-91 27l1 21l194 58l11 -10l-90 -419c-9 -39 0 -47 101 -48l2 -15
c-46 -27 -97 -48 -137 -48c-66 0 -69 59 -54 119l-11 2c-75 -70 -139 -121 -201 -121z" />
    <glyph glyph-name="udieresis" unicode="&#xfc;" horiz-adv-x="621" 
d="M267 608c-37 0 -63 28 -63 65c0 36 30 70 70 70c36 0 62 -28 62 -65c0 -36 -29 -70 -69 -70zM480 608c-37 0 -63 28 -63 65c0 36 30 70 70 70c36 0 63 -28 63 -65c0 -36 -30 -70 -70 -70zM177 -13c-92 0 -127 69 -101 178l61 256l-93 27l2 21l194 58l11 -10l-77 -334
c-18 -78 6 -117 63 -117c42 0 82 27 156 83l59 272l-91 27l1 21l194 58l11 -10l-90 -419c-9 -39 0 -47 101 -48l2 -15c-46 -27 -97 -48 -137 -48c-66 0 -69 59 -54 119l-11 2c-75 -70 -139 -121 -201 -121z" />
    <glyph glyph-name="yacute" unicode="&#xfd;" horiz-adv-x="555" 
d="M290 594l-18 15c41 71 85 150 116 185c23 26 56 36 79 16c23 -19 20 -47 -5 -77c-28 -35 -105 -88 -172 -139zM39 -245c-52 0 -83 36 -83 82c0 36 23 69 60 69c41 0 63 -46 59 -107c61 34 116 94 157 166c-17 162 -54 332 -81 411c-17 49 -32 59 -59 59
c-14 0 -32 -5 -57 -13l-8 15c39 47 90 83 131 83c43 0 67 -18 84 -76c26 -88 49 -206 60 -344h11c56 143 107 321 133 427h6l93 -47c-115 -224 -250 -551 -384 -665c-42 -36 -80 -60 -122 -60z" />
    <glyph glyph-name="thorn" unicode="&#xfe;" horiz-adv-x="583" 
d="M261 46c90 0 179 126 179 271c0 87 -41 133 -99 133c-39 0 -81 -29 -124 -74l-64 -295c28 -20 65 -35 108 -35zM-92 -235l7 28l84 25l199 905l-100 27l1 22l205 57l10 -11l-85 -385l11 -3c52 53 104 90 164 90c76 0 140 -63 140 -169c0 -181 -180 -364 -338 -364
c-22 0 -55 4 -72 9l-40 -178l90 -28l-6 -25h-270z" />
    <glyph glyph-name="ydieresis" unicode="&#xff;" horiz-adv-x="555" 
d="M228 608c-37 0 -63 28 -63 65c0 36 30 70 70 70c36 0 62 -28 62 -65c0 -36 -29 -70 -69 -70zM441 608c-37 0 -63 28 -63 65c0 36 30 70 70 70c36 0 63 -28 63 -65c0 -36 -30 -70 -70 -70zM39 -245c-52 0 -83 36 -83 82c0 36 23 69 60 69c41 0 63 -46 59 -107
c61 34 116 94 157 166c-17 162 -54 332 -81 411c-17 49 -32 59 -59 59c-14 0 -32 -5 -57 -13l-8 15c39 47 90 83 131 83c43 0 67 -18 84 -76c26 -88 49 -206 60 -344h11c56 143 107 321 133 427h6l93 -47c-115 -224 -250 -551 -384 -665c-42 -36 -80 -60 -122 -60z" />
    <glyph glyph-name="Amacron" unicode="&#x100;" horiz-adv-x="767" 
d="M333 819l15 68h276l-15 -68h-276zM228 292h214l-40 296h-10zM-66 0l6 31l100 31l374 645h75l102 -650l102 -26l-7 -31h-335l6 30l117 21l-26 194h-246l-102 -183l78 -32l-6 -30h-238z" />
    <glyph glyph-name="amacron" unicode="&#x101;" horiz-adv-x="585" 
d="M242 625l15 69h281l-15 -69h-281zM166 -13c-78 0 -134 55 -134 152c0 184 184 381 327 381c48 0 74 -13 100 -30l55 59l23 -7l-98 -439c-9 -42 -2 -55 100 -53l3 -15c-45 -27 -94 -48 -135 -48c-51 0 -72 36 -57 107l-11 3c-63 -67 -105 -110 -173 -110zM219 62
c38 0 68 22 136 86l58 263c-26 30 -57 51 -93 51c-97 0 -184 -143 -184 -287c0 -80 35 -113 83 -113z" />
    <glyph glyph-name="Abreve" unicode="&#x102;" horiz-adv-x="767" 
d="M467 799c-90 0 -131 63 -121 166l29 9c13 -66 44 -98 108 -98c60 0 93 31 130 98l29 -9c-28 -105 -87 -166 -175 -166zM228 292h214l-40 296h-10zM-66 0l6 31l100 31l374 645h75l102 -650l102 -26l-7 -31h-335l6 30l117 21l-26 194h-246l-102 -183l78 -32l-6 -30h-238z
" />
    <glyph glyph-name="abreve" unicode="&#x103;" horiz-adv-x="585" 
d="M378 605c-91 0 -133 64 -122 169l29 9c13 -68 45 -100 110 -100c61 0 94 32 132 100l29 -9c-28 -107 -88 -169 -178 -169zM166 -13c-78 0 -134 55 -134 152c0 184 184 381 327 381c48 0 74 -13 100 -30l55 59l23 -7l-98 -439c-9 -42 -2 -55 100 -53l3 -15
c-45 -27 -94 -48 -135 -48c-51 0 -72 36 -57 107l-11 3c-63 -67 -105 -110 -173 -110zM219 62c38 0 68 22 136 86l58 263c-26 30 -57 51 -93 51c-97 0 -184 -143 -184 -287c0 -80 35 -113 83 -113z" />
    <glyph glyph-name="Aogonek" unicode="&#x104;" horiz-adv-x="767" 
d="M-66 0l6 31l100 31l374 645h75l102 -650l102 -26l-7 -31h-113c-71 -64 -101 -120 -101 -169c0 -40 25 -63 60 -63c29 0 56 12 84 35l15 -14c-38 -40 -79 -67 -133 -67c-58 0 -97 35 -97 92c0 63 45 125 127 186h-177l6 30l117 21l-26 194h-246l-102 -183l78 -32l-6 -30
h-238zM228 292h214l-40 296h-10z" />
    <glyph glyph-name="aogonek" unicode="&#x105;" horiz-adv-x="585" 
d="M266 -198c0 66 66 132 149 185c-59 -4 -80 36 -65 107l-11 3c-63 -67 -105 -110 -173 -110c-78 0 -134 55 -134 152c0 184 184 381 327 381c48 0 74 -13 100 -30l55 59l23 -7l-98 -439c-9 -42 -2 -55 100 -53l3 -15c-107 -56 -202 -140 -202 -215c0 -35 23 -56 59 -56
c27 0 54 12 84 36l14 -15c-38 -41 -79 -68 -136 -68c-48 0 -95 28 -95 85zM219 62c38 0 68 22 136 86l58 263c-26 30 -57 51 -93 51c-97 0 -184 -143 -184 -287c0 -80 35 -113 83 -113z" />
    <glyph glyph-name="Cacute" unicode="&#x106;" horiz-adv-x="736" 
d="M463 789l-18 15c41 69 83 147 114 181c23 26 55 36 78 17c22 -19 19 -46 -5 -76c-28 -34 -103 -86 -169 -137zM369 -17c-180 0 -310 111 -310 301c0 230 176 433 401 433c78 0 145 -21 188 -46l52 46h26l-46 -242l-27 -1c-33 143 -93 205 -192 205
c-141 0 -280 -174 -280 -406c0 -160 91 -245 203 -245c31 0 59 2 86 12l142 160l18 -6l-43 -165c-72 -32 -141 -46 -218 -46z" />
    <glyph glyph-name="cacute" unicode="&#x107;" horiz-adv-x="494" 
d="M323 595l-18 15c41 71 85 150 116 185c23 26 56 36 79 16c23 -19 20 -47 -5 -77c-28 -35 -105 -88 -172 -139zM229 -12c-108 0 -187 82 -187 196c0 164 139 336 306 336c79 0 119 -50 119 -93c0 -38 -26 -68 -58 -68c-38 0 -61 26 -61 70c0 19 4 40 9 57
c-132 -4 -209 -150 -209 -281c0 -108 64 -148 132 -148c52 0 91 23 134 58l18 -14c-40 -63 -113 -113 -203 -113z" />
    <glyph glyph-name="Cdotaccent" unicode="&#x10a;" horiz-adv-x="736" 
d="M509 802c-37 0 -64 28 -64 65s30 71 71 71c37 0 64 -28 64 -65s-30 -71 -71 -71zM369 -17c-180 0 -310 111 -310 301c0 230 176 433 401 433c78 0 145 -21 188 -46l52 46h26l-46 -242l-27 -1c-33 143 -93 205 -192 205c-141 0 -280 -174 -280 -406
c0 -160 91 -245 203 -245c31 0 59 2 86 12l142 160l18 -6l-43 -165c-72 -32 -141 -46 -218 -46z" />
    <glyph glyph-name="cdotaccent" unicode="&#x10b;" horiz-adv-x="494" 
d="M369 607c-38 0 -65 29 -65 67s31 72 72 72c38 0 65 -28 65 -66s-30 -73 -72 -73zM229 -12c-108 0 -187 82 -187 196c0 164 139 336 306 336c79 0 119 -50 119 -93c0 -38 -26 -68 -58 -68c-38 0 -61 26 -61 70c0 19 4 40 9 57c-132 -4 -209 -150 -209 -281
c0 -108 64 -148 132 -148c52 0 91 23 134 58l18 -14c-40 -63 -113 -113 -203 -113z" />
    <glyph glyph-name="Ccaron" unicode="&#x10c;" horiz-adv-x="736" 
d="M462 800l-81 196l25 19l93 -123l151 123l17 -19l-166 -196h-39zM369 -17c-180 0 -310 111 -310 301c0 230 176 433 401 433c78 0 145 -21 188 -46l52 46h26l-46 -242l-27 -1c-33 143 -93 205 -192 205c-141 0 -280 -174 -280 -406c0 -160 91 -245 203 -245
c31 0 59 2 86 12l142 160l18 -6l-43 -165c-72 -32 -141 -46 -218 -46z" />
    <glyph glyph-name="ccaron" unicode="&#x10d;" horiz-adv-x="494" 
d="M322 606l-83 199l25 20l96 -126l153 126l18 -20l-169 -199h-40zM229 -12c-108 0 -187 82 -187 196c0 164 139 336 306 336c79 0 119 -50 119 -93c0 -38 -26 -68 -58 -68c-38 0 -61 26 -61 70c0 19 4 40 9 57c-132 -4 -209 -150 -209 -281c0 -108 64 -148 132 -148
c52 0 91 23 134 58l18 -14c-40 -63 -113 -113 -203 -113z" />
    <glyph glyph-name="Dcaron" unicode="&#x10e;" horiz-adv-x="793" 
d="M458 799l-81 196l25 19l93 -123l151 123l17 -19l-166 -196h-39zM-29 0l7 31l124 21l125 597l-116 21l7 31h300c204 0 332 -99 332 -281c0 -227 -169 -420 -469 -420h-310zM211 44h84c214 1 335 178 335 385c0 141 -73 226 -219 227l-72 1z" />
    <glyph glyph-name="dcaron" unicode="&#x10f;" horiz-adv-x="598" 
d="M628 562l-21 8c14 81 27 171 44 214c13 32 40 54 69 43c28 -10 34 -38 22 -74c-16 -43 -69 -120 -114 -191zM176 -13c-77 0 -141 64 -141 170c0 180 181 363 338 363c25 0 53 -5 73 -10l45 213l-100 27l2 22l204 57l10 -11l-157 -715c-10 -42 -3 -55 100 -53l2 -15
c-45 -27 -94 -48 -135 -48c-50 0 -72 36 -57 107l-11 3c-56 -61 -106 -110 -173 -110zM229 62c38 0 79 31 137 86l60 274c-28 23 -62 40 -108 40c-90 0 -179 -126 -179 -271c0 -87 41 -129 90 -129z" />
    <glyph glyph-name="Dcroat" unicode="&#x110;" horiz-adv-x="798" 
d="M-23 0l6 31l125 21l60 287h-105l9 49h107l54 261l-117 21l7 31h300c205 0 332 -99 332 -281c0 -227 -168 -420 -469 -420h-309zM215 44h85c214 1 335 178 335 385c0 141 -73 226 -218 227l-74 1l-56 -269h140l-9 -49h-142z" />
    <glyph glyph-name="dcroat" unicode="&#x111;" horiz-adv-x="598" 
d="M417 -13c-50 0 -72 36 -57 107l-11 3c-56 -61 -106 -110 -173 -110c-77 0 -141 64 -141 170c0 180 181 363 338 363c25 0 53 -5 73 -10l23 107h-201l10 46h201l13 62l-101 25l2 22l204 57l10 -11l-34 -155h88l-9 -46h-89l-113 -514c-10 -42 -3 -55 100 -53l2 -15
c-45 -27 -94 -48 -135 -48zM229 62c38 0 79 31 137 86l60 274c-28 23 -62 40 -108 40c-90 0 -179 -126 -179 -271c0 -87 41 -129 90 -129z" />
    <glyph glyph-name="Emacron" unicode="&#x112;" horiz-adv-x="702" 
d="M293 818l15 68h276l-15 -68h-276zM-29 0l7 31l124 21l125 597l-116 21l7 31h548l-18 -194l-20 -8l-52 95c-26 47 -42 59 -112 59l-126 1l-59 -280h54c66 0 96 19 132 96l17 36h23l-64 -307h-23l-4 34c-8 78 -25 99 -91 99h-53l-58 -284l160 1c65 0 86 10 124 52l110 119
l16 -4l-64 -216h-587z" />
    <glyph glyph-name="emacron" unicode="&#x113;" horiz-adv-x="505" 
d="M210 625l15 69h281l-15 -69h-281zM150 274c148 -13 235 43 235 141c0 44 -29 72 -69 72c-74 0 -142 -90 -166 -213zM145 240c-11 -112 33 -184 135 -184c52 0 97 21 138 58l18 -14c-41 -63 -111 -113 -207 -113c-115 0 -190 74 -190 189c0 154 125 344 295 344
c90 0 142 -47 142 -111c0 -118 -127 -177 -331 -169z" />
    <glyph glyph-name="Ebreve" unicode="&#x114;" horiz-adv-x="702" 
d="M427 798c-90 0 -131 63 -121 166l29 9c13 -66 44 -98 108 -98c60 0 93 31 130 98l29 -9c-28 -105 -87 -166 -175 -166zM-29 0l7 31l124 21l125 597l-116 21l7 31h548l-18 -194l-20 -8l-52 95c-26 47 -42 59 -112 59l-126 1l-59 -280h54c66 0 96 19 132 96l17 36h23
l-64 -307h-23l-4 34c-8 78 -25 99 -91 99h-53l-58 -284l160 1c65 0 86 10 124 52l110 119l16 -4l-64 -216h-587z" />
    <glyph glyph-name="ebreve" unicode="&#x115;" horiz-adv-x="505" 
d="M346 605c-91 0 -133 64 -122 169l29 9c13 -68 45 -100 110 -100c61 0 94 32 132 100l29 -9c-28 -107 -88 -169 -178 -169zM150 274c148 -13 235 43 235 141c0 44 -29 72 -69 72c-74 0 -142 -90 -166 -213zM145 240c-11 -112 33 -184 135 -184c52 0 97 21 138 58l18 -14
c-41 -63 -111 -113 -207 -113c-115 0 -190 74 -190 189c0 154 125 344 295 344c90 0 142 -47 142 -111c0 -118 -127 -177 -331 -169z" />
    <glyph glyph-name="Edotaccent" unicode="&#x116;" horiz-adv-x="702" 
d="M436 801c-37 0 -64 28 -64 65s30 71 71 71c37 0 64 -28 64 -65s-30 -71 -71 -71zM-29 0l7 31l124 21l125 597l-116 21l7 31h548l-18 -194l-20 -8l-52 95c-26 47 -42 59 -112 59l-126 1l-59 -280h54c66 0 96 19 132 96l17 36h23l-64 -307h-23l-4 34c-8 78 -25 99 -91 99
h-53l-58 -284l160 1c65 0 86 10 124 52l110 119l16 -4l-64 -216h-587z" />
    <glyph glyph-name="edotaccent" unicode="&#x117;" horiz-adv-x="505" 
d="M357 607c-38 0 -65 29 -65 67s31 72 72 72c38 0 65 -28 65 -66s-30 -73 -72 -73zM150 274c148 -13 235 43 235 141c0 44 -29 72 -69 72c-74 0 -142 -90 -166 -213zM145 240c-11 -112 33 -184 135 -184c52 0 97 21 138 58l18 -14c-41 -63 -111 -113 -207 -113
c-115 0 -190 74 -190 189c0 154 125 344 295 344c90 0 142 -47 142 -111c0 -118 -127 -177 -331 -169z" />
    <glyph glyph-name="Eogonek" unicode="&#x118;" horiz-adv-x="702" 
d="M-29 0l7 31l124 21l125 597l-116 21l7 31h548l-18 -194l-20 -8l-52 95c-26 47 -42 59 -112 59l-126 1l-59 -280h54c66 0 96 19 132 96l17 36h23l-64 -307h-23l-4 34c-8 78 -25 99 -91 99h-53l-58 -284l160 1c65 0 86 10 124 52l110 119l16 -4l-64 -216h-103
c-71 -64 -101 -120 -101 -169c0 -40 25 -63 60 -63c29 0 56 12 84 35l15 -14c-38 -40 -79 -67 -133 -67c-58 0 -97 35 -97 92c0 63 45 125 127 186h-439z" />
    <glyph glyph-name="eogonek" unicode="&#x119;" horiz-adv-x="505" 
d="M150 274c148 -13 235 43 235 141c0 44 -29 72 -69 72c-74 0 -142 -90 -166 -213zM145 240c-11 -112 33 -184 135 -184c52 0 97 21 138 58l18 -14c-18 -27 -43 -50 -70 -72c-110 -87 -147 -147 -147 -201c0 -39 26 -63 62 -63c29 0 57 12 86 36l14 -15
c-38 -41 -80 -68 -134 -68c-60 0 -101 38 -101 96c0 60 44 116 130 179c-15 -3 -30 -5 -47 -5c-115 0 -190 74 -190 189c0 154 125 344 295 344c90 0 142 -47 142 -111c0 -118 -127 -177 -331 -169z" />
    <glyph glyph-name="Ecaron" unicode="&#x11a;" horiz-adv-x="702" 
d="M389 799l-81 196l25 19l93 -123l151 123l17 -19l-166 -196h-39zM-29 0l7 31l124 21l125 597l-116 21l7 31h548l-18 -194l-20 -8l-52 95c-26 47 -42 59 -112 59l-126 1l-59 -280h54c66 0 96 19 132 96l17 36h23l-64 -307h-23l-4 34c-8 78 -25 99 -91 99h-53l-58 -284
l160 1c65 0 86 10 124 52l110 119l16 -4l-64 -216h-587z" />
    <glyph glyph-name="ecaron" unicode="&#x11b;" horiz-adv-x="505" 
d="M309 606l-83 199l25 20l96 -126l153 126l18 -20l-169 -199h-40zM150 274c148 -13 235 43 235 141c0 44 -29 72 -69 72c-74 0 -142 -90 -166 -213zM145 240c-11 -112 33 -184 135 -184c52 0 97 21 138 58l18 -14c-41 -63 -111 -113 -207 -113c-115 0 -190 74 -190 189
c0 154 125 344 295 344c90 0 142 -47 142 -111c0 -118 -127 -177 -331 -169z" />
    <glyph glyph-name="Gbreve" unicode="&#x11e;" horiz-adv-x="765" 
d="M474 799c-90 0 -131 63 -121 166l29 9c13 -66 44 -98 108 -98c60 0 93 31 130 98l29 -9c-28 -105 -87 -166 -175 -166zM323 -17c-157 0 -264 112 -264 302c0 209 163 432 400 432c75 0 135 -19 178 -43l51 47h27l-43 -240l-32 -2c-34 139 -86 200 -183 200
c-141 0 -276 -173 -276 -406c0 -163 78 -236 181 -236c40 0 77 10 126 39l43 187l-103 20l7 31h308l-7 -31l-96 -20l-57 -271l-24 -5l-58 55c-56 -37 -108 -59 -178 -59z" />
    <glyph glyph-name="gbreve" unicode="&#x11f;" horiz-adv-x="553" 
d="M339 605c-91 0 -133 64 -122 169l29 9c13 -68 45 -100 110 -100c61 0 94 32 132 100l29 -9c-28 -107 -88 -169 -178 -169zM293 490c-28 0 -53 -13 -72 -32c-36 -35 -55 -95 -55 -151c0 -74 35 -118 90 -118c26 0 51 13 72 35c34 33 57 93 57 153c0 73 -35 113 -92 113z
M165 177c-57 22 -97 68 -97 133c0 112 106 210 236 210c56 0 101 -20 129 -49l119 51h58l-20 -99h-24l-99 20l-5 -5c14 -21 20 -43 20 -70c0 -110 -96 -207 -235 -207c-12 0 -24 1 -36 3c-9 -53 -4 -67 36 -76c148 -34 212 -84 212 -158c0 -104 -116 -174 -252 -174
c-137 0 -250 59 -250 138c0 69 60 124 174 159zM138 25c-60 -33 -88 -76 -88 -118c0 -74 81 -115 173 -115c84 0 148 37 148 103c0 57 -55 96 -233 130z" />
    <glyph glyph-name="Gdotaccent" unicode="&#x120;" horiz-adv-x="765" 
d="M485 802c-37 0 -64 28 -64 65s30 71 71 71c37 0 64 -28 64 -65s-30 -71 -71 -71zM323 -17c-157 0 -264 112 -264 302c0 209 163 432 400 432c75 0 135 -19 178 -43l51 47h27l-43 -240l-32 -2c-34 139 -86 200 -183 200c-141 0 -276 -173 -276 -406
c0 -163 78 -236 181 -236c40 0 77 10 126 39l43 187l-103 20l7 31h308l-7 -31l-96 -20l-57 -271l-24 -5l-58 55c-56 -37 -108 -59 -178 -59z" />
    <glyph glyph-name="gdotaccent" unicode="&#x121;" horiz-adv-x="553" 
d="M349 607c-38 0 -65 29 -65 67s31 72 72 72c38 0 65 -28 65 -66s-30 -73 -72 -73zM293 490c-28 0 -53 -13 -72 -32c-36 -35 -55 -95 -55 -151c0 -74 35 -118 90 -118c26 0 51 13 72 35c34 33 57 93 57 153c0 73 -35 113 -92 113zM165 177c-57 22 -97 68 -97 133
c0 112 106 210 236 210c56 0 101 -20 129 -49l119 51h58l-20 -99h-24l-99 20l-5 -5c14 -21 20 -43 20 -70c0 -110 -96 -207 -235 -207c-12 0 -24 1 -36 3c-9 -53 -4 -67 36 -76c148 -34 212 -84 212 -158c0 -104 -116 -174 -252 -174c-137 0 -250 59 -250 138
c0 69 60 124 174 159zM138 25c-60 -33 -88 -76 -88 -118c0 -74 81 -115 173 -115c84 0 148 37 148 103c0 57 -55 96 -233 130z" />
    <glyph glyph-name="Gcommaaccent" unicode="&#x122;" horiz-adv-x="765" 
d="M323 -17c-157 0 -264 112 -264 302c0 209 163 432 400 432c75 0 135 -19 178 -43l51 47h27l-43 -240l-32 -2c-34 139 -86 200 -183 200c-141 0 -276 -173 -276 -406c0 -163 78 -236 181 -236c40 0 77 10 126 39l43 187l-103 20l7 31h308l-7 -31l-96 -20l-57 -271l-24 -5
l-58 55c-56 -37 -108 -59 -178 -59zM179 -292c64 28 103 61 116 105l-4 4c-6 -3 -13 -4 -18 -4c-22 0 -41 15 -41 44c0 35 29 66 65 66c35 0 60 -24 60 -63c0 -86 -83 -149 -172 -173z" />
    <glyph glyph-name="gcommaaccent" unicode="&#x123;" horiz-adv-x="553" 
d="M458 841l6 -21c-64 -28 -103 -61 -116 -105l4 -4c6 3 13 4 18 4c22 0 41 -15 41 -44c0 -35 -29 -66 -65 -66c-35 0 -60 24 -60 63c0 86 83 149 172 173zM293 490c-28 0 -53 -13 -72 -32c-36 -35 -55 -95 -55 -151c0 -74 35 -118 90 -118c26 0 51 13 72 35
c34 33 57 93 57 153c0 73 -35 113 -92 113zM165 177c-57 22 -97 68 -97 133c0 112 106 210 236 210c56 0 101 -20 129 -49l119 51h58l-20 -99h-24l-99 20l-5 -5c14 -21 20 -43 20 -70c0 -110 -96 -207 -235 -207c-12 0 -24 1 -36 3c-9 -53 -4 -67 36 -76
c148 -34 212 -84 212 -158c0 -104 -116 -174 -252 -174c-137 0 -250 59 -250 138c0 69 60 124 174 159zM138 25c-60 -33 -88 -76 -88 -118c0 -74 81 -115 173 -115c84 0 148 37 148 103c0 57 -55 96 -233 130z" />
    <glyph glyph-name="Hbar" unicode="&#x126;" horiz-adv-x="898" 
d="M282 378h352l25 120h-352zM-29 0l7 31l124 21l93 446h-108l10 45h108l22 106l-116 21l7 31h345l-7 -31l-118 -21l-22 -106h352l22 106l-112 21l7 31h346l-7 -31l-123 -21l-22 -106h109l-11 -45h-108l-93 -447l115 -20l-7 -31h-346l7 31l120 21l58 278h-352l-58 -279
l110 -20l-7 -31h-345z" />
    <glyph glyph-name="hbar" unicode="&#x127;" horiz-adv-x="610" 
d="M575 35c-45 -27 -101 -48 -141 -48c-48 0 -64 27 -63 60c1 15 5 40 9 58l52 220c19 78 -6 116 -63 116c-42 0 -82 -26 -156 -82l-78 -359h-96l135 617h-85l10 46h85l14 62l-100 25l1 22l205 57l10 -11l-34 -155h202l-10 -46h-202l-47 -213l10 -2c70 67 130 118 196 118
c92 0 127 -68 101 -177l-58 -245c-10 -38 1 -47 101 -48z" />
    <glyph glyph-name="Imacron" unicode="&#x12a;" horiz-adv-x="466" 
d="M194 818l15 68h276l-15 -68h-276zM-18 0l7 31l128 21l125 597l-119 21l7 31h357l-8 -31l-126 -21l-125 -598l117 -20l-7 -31h-356z" />
    <glyph glyph-name="imacron" unicode="&#x12b;" horiz-adv-x="332" 
d="M64 624l15 69h281l-15 -69h-281zM128 -13c-53 0 -68 41 -58 86l79 348l-92 27l1 21l197 58l10 -10l-95 -419c-10 -41 6 -46 100 -48l2 -15c-47 -28 -103 -48 -144 -48z" />
    <glyph glyph-name="Ibreve" unicode="&#x12c;" horiz-adv-x="466" 
d="M328 798c-90 0 -131 63 -121 166l29 9c13 -66 44 -98 108 -98c60 0 93 31 130 98l29 -9c-28 -105 -87 -166 -175 -166zM-18 0l7 31l128 21l125 597l-119 21l7 31h357l-8 -31l-126 -21l-125 -598l117 -20l-7 -31h-356z" />
    <glyph glyph-name="ibreve" unicode="&#x12d;" horiz-adv-x="332" 
d="M199 604c-91 0 -133 64 -122 169l29 9c13 -68 45 -100 110 -100c61 0 94 32 132 100l29 -9c-28 -107 -88 -169 -178 -169zM128 -13c-53 0 -68 41 -58 86l79 348l-92 27l1 21l197 58l10 -10l-95 -419c-10 -41 6 -46 100 -48l2 -15c-47 -28 -103 -48 -144 -48z" />
    <glyph glyph-name="Iogonek" unicode="&#x12e;" horiz-adv-x="466" 
d="M-18 0l7 31l128 21l125 597l-119 21l7 31h357l-8 -31l-126 -21l-125 -598l117 -20l-7 -31h-142c-71 -64 -101 -120 -101 -169c0 -40 25 -63 60 -63c29 0 56 12 84 35l15 -14c-38 -40 -79 -67 -133 -67c-58 0 -97 35 -97 92c0 63 45 125 127 186h-169z" />
    <glyph glyph-name="iogonek" unicode="&#x12f;" horiz-adv-x="332" 
d="M243 646c-30 0 -53 20 -53 58c0 47 35 98 82 98c30 0 52 -18 52 -56c0 -48 -34 -100 -81 -100zM142 -12c-62 -7 -84 34 -72 85l79 348l-92 27l1 21l197 58l10 -10l-95 -419c-10 -41 6 -46 100 -48l2 -15c-107 -56 -196 -139 -196 -215c0 -35 23 -56 58 -56
c28 0 55 12 85 36l14 -15c-38 -41 -79 -68 -136 -68c-48 0 -95 28 -95 85c0 66 56 133 140 186z" />
    <glyph glyph-name="Idotaccent" unicode="&#x130;" horiz-adv-x="466" 
d="M337 801c-37 0 -64 28 -64 65s30 71 71 71c37 0 64 -28 64 -65s-30 -71 -71 -71zM-18 0l7 31l128 21l125 597l-119 21l7 31h357l-8 -31l-126 -21l-125 -598l117 -20l-7 -31h-356z" />
    <glyph glyph-name="dotlessi" unicode="&#x131;" horiz-adv-x="332" 
d="M128 -13c-53 0 -68 41 -58 86l79 348l-92 27l1 21l197 58l10 -10l-95 -419c-10 -41 6 -46 100 -48l2 -15c-47 -28 -103 -48 -144 -48z" />
    <glyph glyph-name="Kcommaaccent" unicode="&#x136;" horiz-adv-x="779" 
d="M-29 0l7 31l124 21l125 597l-116 21l7 31h340l-7 -31l-113 -21l-58 -275h83l264 263l-79 34l6 30h261l-7 -31l-110 -37l-268 -250l185 -326l90 -26l-5 -31h-301l7 30l87 19l-144 277h-79l-57 -275l105 -20l-6 -31h-341zM211 -292c64 28 103 61 116 105l-4 4
c-6 -3 -13 -4 -18 -4c-22 0 -41 15 -41 44c0 35 29 66 65 66c35 0 60 -24 60 -63c0 -86 -83 -149 -172 -173z" />
    <glyph glyph-name="kcommaaccent" unicode="&#x137;" horiz-adv-x="559" 
d="M407 -13c-46 0 -70 18 -85 93c-31 153 -48 169 -131 176l-56 -256h-96l159 723l-100 27l1 22l205 57l10 -11l-117 -528c100 22 175 67 205 97c-10 21 -16 38 -16 59c0 45 32 77 68 77c39 0 60 -30 60 -64c0 -79 -79 -127 -241 -171l-1 -10c71 -6 94 -28 111 -65
c16 -37 24 -72 36 -114c11 -35 21 -54 115 -48l2 -16c-43 -27 -89 -48 -129 -48zM99 -298c66 29 105 62 119 108l-5 4c-6 -3 -12 -4 -18 -4c-22 0 -41 15 -41 44c0 36 29 67 66 67c35 0 61 -24 61 -64c0 -87 -85 -151 -175 -176z" />
    <glyph glyph-name="Lacute" unicode="&#x139;" horiz-adv-x="672" 
d="M306 788l-18 15c41 69 83 147 114 181c23 26 55 36 78 17c22 -19 19 -46 -5 -76c-28 -34 -103 -86 -169 -137zM-29 0l7 31l124 21l125 597l-116 21l7 31h347l-7 -31l-120 -21l-125 -601h149c64 1 84 10 125 55l109 121l17 -4l-66 -220h-576z" />
    <glyph glyph-name="lacute" unicode="&#x13a;" horiz-adv-x="321" 
d="M238 859l-18 15c41 71 85 150 116 185c23 26 56 36 79 16c23 -19 20 -47 -5 -77c-28 -35 -105 -88 -172 -139zM118 -13c-52 0 -67 40 -57 86l142 650l-100 27l2 22l204 57l10 -11l-159 -720c-10 -41 5 -46 100 -48l2 -15c-45 -27 -104 -48 -144 -48z" />
    <glyph glyph-name="Lcommaaccent" unicode="&#x13b;" horiz-adv-x="672" 
d="M-29 0l7 31l124 21l125 597l-116 21l7 31h347l-7 -31l-120 -21l-125 -601h149c64 1 84 10 125 55l109 121l17 -4l-66 -220h-576zM167 -292c64 28 103 61 116 105l-4 4c-6 -3 -13 -4 -18 -4c-22 0 -41 15 -41 44c0 35 29 66 65 66c35 0 60 -24 60 -63
c0 -86 -83 -149 -172 -173z" />
    <glyph glyph-name="lcommaaccent" unicode="&#x13c;" horiz-adv-x="321" 
d="M118 -13c-52 0 -67 40 -57 86l142 650l-100 27l2 22l204 57l10 -11l-159 -720c-10 -41 5 -46 100 -48l2 -15c-45 -27 -104 -48 -144 -48zM-18 -298c66 29 105 62 119 108l-5 4c-6 -3 -12 -4 -18 -4c-22 0 -41 15 -41 44c0 36 29 67 66 67c35 0 61 -24 61 -64
c0 -87 -85 -151 -175 -176z" />
    <glyph glyph-name="Lcaron" unicode="&#x13d;" horiz-adv-x="672" 
d="M-29 0l7 31l124 21l125 597l-116 21l7 31h347l-7 -31l-120 -21l-125 -601h149c64 1 84 10 125 55l109 121l17 -4l-66 -220h-576zM490 438l-20 8c14 79 26 167 43 210c13 32 40 53 68 42c27 -10 33 -37 21 -72c-15 -43 -68 -118 -112 -188z" />
    <glyph glyph-name="lcaron" unicode="&#x13e;" horiz-adv-x="321" 
d="M340 562l-21 8c14 81 27 171 44 214c13 32 40 54 69 43c28 -10 34 -38 22 -74c-16 -43 -69 -120 -114 -191zM118 -13c-52 0 -67 40 -57 86l142 650l-100 27l2 22l204 57l10 -11l-159 -720c-10 -41 5 -46 100 -48l2 -15c-45 -27 -104 -48 -144 -48z" />
    <glyph glyph-name="Ldot" unicode="&#x13f;" horiz-adv-x="668" 
d="M-29 0l7 31l124 21l125 597l-116 21l7 31h347l-7 -31l-120 -21l-125 -601h149c64 1 84 10 125 55l109 121l17 -4l-66 -220h-576zM552 334c-36 0 -63 28 -63 65c0 36 30 69 69 69c37 0 63 -28 63 -65c0 -36 -29 -69 -69 -69z" />
    <glyph glyph-name="ldot" unicode="&#x140;" horiz-adv-x="414" 
d="M118 -13c-52 0 -67 40 -57 86l142 650l-100 27l2 22l204 57l10 -11l-159 -720c-10 -41 5 -46 100 -48l2 -15c-45 -27 -104 -48 -144 -48zM378 334c-38 0 -65 29 -65 66s30 70 71 70c37 0 64 -28 64 -65c0 -38 -30 -71 -70 -71z" />
    <glyph glyph-name="Lslash" unicode="&#x141;" horiz-adv-x="677" 
d="M-24 0l7 31l125 21l52 252l-92 -24l-2 47l104 26l63 296l-117 21l7 31h346l-6 -31l-121 -21l-56 -267l143 37l4 -46l-158 -40l-58 -285h150c65 1 84 10 125 55l109 121l17 -4l-66 -220h-576z" />
    <glyph glyph-name="lslash" unicode="&#x142;" horiz-adv-x="364" 
d="M140 -13c-52 0 -68 40 -57 86l63 290l-102 -27l-4 48l117 30l68 309l-100 27l2 22l204 57l10 -11l-84 -378l110 28l3 -47l-124 -32l-64 -291c-10 -41 5 -46 99 -48l3 -15c-45 -27 -104 -48 -144 -48z" />
    <glyph glyph-name="Nacute" unicode="&#x143;" horiz-adv-x="844" 
d="M467 788l-18 15c41 69 83 147 114 181c23 26 55 36 78 17c22 -19 19 -46 -5 -76c-28 -34 -103 -86 -169 -137zM572 -7l-53 114l-243 479h-12l-108 -524l90 -31l-6 -31h-250l7 31l103 31l120 578l-91 30l7 31h219l53 -114l194 -395h13l92 447l-92 31l7 31h249l-5 -31
l-105 -31l-133 -646h-56z" />
    <glyph glyph-name="nacute" unicode="&#x144;" horiz-adv-x="621" 
d="M333 595l-18 15c41 71 85 150 116 185c23 26 56 36 79 16c23 -19 20 -47 -5 -77c-28 -35 -105 -88 -172 -139zM445 -13c-48 0 -64 27 -63 60c1 15 5 40 9 58l52 220c19 78 -6 116 -63 116c-42 0 -82 -26 -156 -82l-78 -359h-96l93 421l-92 27l2 21l194 58l11 -10
l-31 -116l11 -2c76 71 140 121 202 121c92 0 127 -68 101 -177l-58 -245c-10 -38 0 -47 101 -48l2 -15c-45 -27 -101 -48 -141 -48z" />
    <glyph glyph-name="Ncommaaccent" unicode="&#x145;" horiz-adv-x="844" 
d="M572 -7l-53 114l-243 479h-12l-108 -524l90 -31l-6 -31h-250l7 31l103 31l120 578l-91 30l7 31h219l53 -114l194 -395h13l92 447l-92 31l7 31h249l-5 -31l-105 -31l-133 -646h-56zM238 -292c64 28 103 61 116 105l-4 4c-6 -3 -13 -4 -18 -4c-22 0 -41 15 -41 44
c0 35 29 66 65 66c35 0 60 -24 60 -63c0 -86 -83 -149 -172 -173z" />
    <glyph glyph-name="ncommaaccent" unicode="&#x146;" horiz-adv-x="621" 
d="M445 -13c-48 0 -64 27 -63 60c1 15 5 40 9 58l52 220c19 78 -6 116 -63 116c-42 0 -82 -26 -156 -82l-78 -359h-96l93 421l-92 27l2 21l194 58l11 -10l-31 -116l11 -2c76 71 140 121 202 121c92 0 127 -68 101 -177l-58 -245c-10 -38 0 -47 101 -48l2 -15
c-45 -27 -101 -48 -141 -48zM115 -298c66 29 105 62 119 108l-5 4c-6 -3 -12 -4 -18 -4c-22 0 -41 15 -41 44c0 36 29 67 66 67c35 0 61 -24 61 -64c0 -87 -85 -151 -175 -176z" />
    <glyph glyph-name="Ncaron" unicode="&#x147;" horiz-adv-x="844" 
d="M465 799l-81 196l25 19l93 -123l151 123l17 -19l-166 -196h-39zM572 -7l-53 114l-243 479h-12l-108 -524l90 -31l-6 -31h-250l7 31l103 31l120 578l-91 30l7 31h219l53 -114l194 -395h13l92 447l-92 31l7 31h249l-5 -31l-105 -31l-133 -646h-56z" />
    <glyph glyph-name="ncaron" unicode="&#x148;" horiz-adv-x="621" 
d="M332 606l-83 199l25 20l96 -126l153 126l18 -20l-169 -199h-40zM445 -13c-48 0 -64 27 -63 60c1 15 5 40 9 58l52 220c19 78 -6 116 -63 116c-42 0 -82 -26 -156 -82l-78 -359h-96l93 421l-92 27l2 21l194 58l11 -10l-31 -116l11 -2c76 71 140 121 202 121
c92 0 127 -68 101 -177l-58 -245c-10 -38 0 -47 101 -48l2 -15c-45 -27 -101 -48 -141 -48z" />
    <glyph glyph-name="Omacron" unicode="&#x14c;" horiz-adv-x="786" 
d="M355 819l15 68h276l-15 -68h-276zM344 -16c-181 0 -284 124 -284 304c0 210 158 428 386 428c181 0 284 -123 284 -304c0 -210 -158 -428 -386 -428zM339 22c144 0 271 198 271 428c0 129 -51 229 -159 229c-144 0 -271 -199 -271 -428c0 -129 51 -229 159 -229z" />
    <glyph glyph-name="omacron" unicode="&#x14d;" horiz-adv-x="566" 
d="M228 625l15 69h281l-15 -69h-281zM218 -13c-98 0 -177 68 -177 191c0 162 129 342 306 342c98 0 177 -68 177 -191c0 -161 -129 -342 -306 -342zM255 33c102 0 164 163 164 281c0 95 -41 161 -108 161c-103 0 -164 -163 -164 -282c0 -94 41 -160 108 -160z" />
    <glyph glyph-name="Obreve" unicode="&#x14e;" horiz-adv-x="786" 
d="M489 799c-90 0 -131 63 -121 166l29 9c13 -66 44 -98 108 -98c60 0 93 31 130 98l29 -9c-28 -105 -87 -166 -175 -166zM344 -16c-181 0 -284 124 -284 304c0 210 158 428 386 428c181 0 284 -123 284 -304c0 -210 -158 -428 -386 -428zM339 22c144 0 271 198 271 428
c0 129 -51 229 -159 229c-144 0 -271 -199 -271 -428c0 -129 51 -229 159 -229z" />
    <glyph glyph-name="obreve" unicode="&#x14f;" horiz-adv-x="566" 
d="M364 605c-91 0 -133 64 -122 169l29 9c13 -68 45 -100 110 -100c61 0 94 32 132 100l29 -9c-28 -107 -88 -169 -178 -169zM218 -13c-98 0 -177 68 -177 191c0 162 129 342 306 342c98 0 177 -68 177 -191c0 -161 -129 -342 -306 -342zM255 33c102 0 164 163 164 281
c0 95 -41 161 -108 161c-103 0 -164 -163 -164 -282c0 -94 41 -160 108 -160z" />
    <glyph glyph-name="Ohungarumlaut" unicode="&#x150;" horiz-adv-x="786" 
d="M386 788l-18 14c34 70 72 147 96 182c19 27 50 38 72 22c24 -18 26 -46 3 -75c-25 -34 -90 -90 -153 -143zM548 788l-18 14c35 70 73 147 98 182c19 27 50 38 71 22c25 -18 26 -46 3 -75c-25 -34 -91 -90 -154 -143zM344 -16c-181 0 -284 124 -284 304
c0 210 158 428 386 428c181 0 284 -123 284 -304c0 -210 -158 -428 -386 -428zM339 22c144 0 271 198 271 428c0 129 -51 229 -159 229c-144 0 -271 -199 -271 -428c0 -129 51 -229 159 -229z" />
    <glyph glyph-name="ohungarumlaut" unicode="&#x151;" horiz-adv-x="566" 
d="M261 593l-18 15c34 71 73 149 98 185c19 27 51 39 72 22c25 -18 27 -46 4 -76c-26 -34 -92 -91 -156 -146zM426 593l-18 15c35 71 74 149 99 185c19 27 51 39 73 22c25 -18 26 -46 3 -76c-26 -34 -93 -91 -157 -146zM218 -13c-98 0 -177 68 -177 191
c0 162 129 342 306 342c98 0 177 -68 177 -191c0 -161 -129 -342 -306 -342zM255 33c102 0 164 163 164 281c0 95 -41 161 -108 161c-103 0 -164 -163 -164 -282c0 -94 41 -160 108 -160z" />
    <glyph glyph-name="OE" unicode="&#x152;" horiz-adv-x="1073" 
d="M399 44h72l128 613h-84c-214 -2 -335 -179 -335 -385c0 -141 73 -226 219 -228zM392 0c-204 0 -332 98 -332 281c0 227 169 420 469 420h508l-17 -194l-21 -8l-52 95c-26 47 -42 59 -112 59l-126 1l-59 -280h54c66 0 96 19 132 96l17 36h23l-64 -307h-23l-4 34
c-8 78 -24 99 -91 99h-53l-58 -284l160 1c65 0 86 10 125 52l109 119l17 -4l-65 -216h-537z" />
    <glyph glyph-name="oe" unicode="&#x153;" horiz-adv-x="870" 
d="M515 274c148 -13 235 43 235 141c0 44 -29 72 -69 72c-74 0 -142 -90 -166 -213zM255 33c102 0 164 163 164 281c0 95 -41 161 -108 161c-103 0 -164 -163 -164 -282c0 -94 41 -160 108 -160zM501 414c51 63 118 106 199 106c89 0 142 -47 142 -111
c0 -118 -128 -177 -331 -169c-12 -112 32 -184 134 -184c52 0 97 21 138 58l18 -14c-41 -63 -111 -113 -206 -113c-84 0 -142 40 -168 107c-53 -64 -124 -107 -209 -107c-98 0 -177 68 -177 191c0 163 131 342 305 342c70 0 129 -37 155 -106z" />
    <glyph glyph-name="Racute" unicode="&#x154;" horiz-adv-x="735" 
d="M416 788l-18 15c41 69 83 147 114 181c23 26 55 36 78 17c22 -19 19 -46 -5 -76c-28 -34 -103 -86 -169 -137zM277 363h74c124 1 192 83 192 184c0 75 -50 113 -137 113c-23 0 -53 -2 -68 -5zM-29 0l7 31l124 21l125 597l-116 21l7 31h325c141 0 222 -54 222 -150
c0 -106 -89 -181 -230 -206l-1 -13c55 -18 77 -48 94 -113c18 -68 33 -127 59 -154c22 -22 44 -28 93 -34l-8 -31h-115c-75 0 -93 20 -118 117l-33 124c-16 64 -35 80 -87 80h-51l-55 -270l112 -20l-7 -31h-347z" />
    <glyph glyph-name="racute" unicode="&#x155;" horiz-adv-x="471" 
d="M282 594l-18 15c41 71 85 150 116 185c23 26 56 36 79 16c23 -19 20 -47 -5 -77c-28 -35 -105 -88 -172 -139zM50 0l93 421l-92 27l2 21l189 58l10 -10l-28 -121l11 -3c60 79 111 129 166 129c42 0 66 -25 66 -62c0 -40 -30 -67 -63 -67c-27 0 -51 18 -69 46
c-34 -17 -72 -45 -115 -96l-74 -343h-96z" />
    <glyph glyph-name="Rcommaaccent" unicode="&#x156;" horiz-adv-x="735" 
d="M277 363h74c124 1 192 83 192 184c0 75 -50 113 -137 113c-23 0 -53 -2 -68 -5zM-29 0l7 31l124 21l125 597l-116 21l7 31h325c141 0 222 -54 222 -150c0 -106 -89 -181 -230 -206l-1 -13c55 -18 77 -48 94 -113c18 -68 33 -127 59 -154c22 -22 44 -28 93 -34l-8 -31
h-115c-75 0 -93 20 -118 117l-33 124c-16 64 -35 80 -87 80h-51l-55 -270l112 -20l-7 -31h-347zM189 -292c64 28 103 61 116 105l-4 4c-6 -3 -13 -4 -18 -4c-22 0 -41 15 -41 44c0 35 29 66 65 66c35 0 60 -24 60 -63c0 -86 -83 -149 -172 -173z" />
    <glyph glyph-name="rcommaaccent" unicode="&#x157;" horiz-adv-x="471" 
d="M50 0l93 421l-92 27l2 21l189 58l10 -10l-28 -121l11 -3c60 79 111 129 166 129c42 0 66 -25 66 -62c0 -40 -30 -67 -63 -67c-27 0 -51 18 -69 46c-34 -17 -72 -45 -115 -96l-74 -343h-96zM-44 -298c66 29 105 62 119 108l-5 4c-6 -3 -12 -4 -18 -4c-22 0 -41 15 -41 44
c0 36 29 67 66 67c35 0 61 -24 61 -64c0 -87 -85 -151 -175 -176z" />
    <glyph glyph-name="Rcaron" unicode="&#x158;" horiz-adv-x="735" 
d="M415 799l-81 196l25 19l93 -123l151 123l17 -19l-166 -196h-39zM277 363h74c124 1 192 83 192 184c0 75 -50 113 -137 113c-23 0 -53 -2 -68 -5zM-29 0l7 31l124 21l125 597l-116 21l7 31h325c141 0 222 -54 222 -150c0 -106 -89 -181 -230 -206l-1 -13
c55 -18 77 -48 94 -113c18 -68 33 -127 59 -154c22 -22 44 -28 93 -34l-8 -31h-115c-75 0 -93 20 -118 117l-33 124c-16 64 -35 80 -87 80h-51l-55 -270l112 -20l-7 -31h-347z" />
    <glyph glyph-name="rcaron" unicode="&#x159;" horiz-adv-x="471" 
d="M281 605l-83 199l25 20l96 -126l153 126l18 -20l-169 -199h-40zM50 0l93 421l-92 27l2 21l189 58l10 -10l-28 -121l11 -3c60 79 111 129 166 129c42 0 66 -25 66 -62c0 -40 -30 -67 -63 -67c-27 0 -51 18 -69 46c-34 -17 -72 -45 -115 -96l-74 -343h-96z" />
    <glyph glyph-name="Sacute" unicode="&#x15a;" horiz-adv-x="592" 
d="M362 789l-18 15c41 69 83 147 114 181c23 26 55 36 78 17c22 -19 19 -46 -5 -76c-28 -34 -103 -86 -169 -137zM5 -8l45 242l32 1c33 -166 94 -216 190 -216c79 0 127 62 127 137s-41 110 -130 164c-85 51 -143 104 -143 193c0 116 93 201 220 201c58 0 108 -17 141 -39
l43 36l28 -1l-33 -213l-31 -1c-31 130 -78 184 -149 184c-74 0 -120 -51 -120 -122c0 -68 40 -99 127 -152c94 -57 149 -108 149 -202c0 -144 -133 -218 -241 -218c-75 0 -142 19 -184 41l-43 -36z" />
    <glyph glyph-name="sacute" unicode="&#x15b;" horiz-adv-x="461" 
d="M291 595l-18 15c41 71 85 150 116 185c23 26 56 36 79 16c23 -19 20 -47 -5 -77c-28 -35 -105 -88 -172 -139zM201 -12c-116 0 -186 48 -186 106c0 42 29 72 59 72c46 0 66 -48 44 -115c23 -14 56 -22 92 -22c55 0 100 31 100 81c0 39 -18 63 -82 100l-32 18
c-61 34 -103 65 -103 133c0 82 87 158 191 158c98 0 143 -47 143 -86c0 -31 -20 -55 -49 -55c-35 0 -63 31 -71 94c-13 4 -30 7 -42 7c-49 0 -90 -37 -90 -78c0 -38 24 -59 81 -91l33 -19c75 -43 105 -76 105 -138c0 -94 -88 -165 -193 -165z" />
    <glyph glyph-name="Scedilla" unicode="&#x15e;" horiz-adv-x="592" 
d="M178 -279c-49 0 -81 23 -81 48c0 20 12 35 33 35c19 0 29 -15 29 -32c0 -10 -2 -15 -7 -22c8 -4 15 -6 27 -6c33 0 62 23 62 64c0 38 -32 65 -68 65c-13 0 -21 -2 -31 -5l-12 19l127 99c-74 1 -140 19 -181 41l-43 -36l-28 1l45 242l32 1c33 -166 94 -216 190 -216
c79 0 127 62 127 137s-41 110 -130 164c-85 51 -143 104 -143 193c0 116 93 201 220 201c58 0 108 -17 141 -39l43 36l28 -1l-33 -213l-31 -1c-31 130 -78 184 -149 184c-74 0 -120 -51 -120 -122c0 -68 40 -99 127 -152c94 -57 149 -108 149 -202
c0 -125 -100 -197 -197 -214l-92 -72c49 -7 90 -41 90 -91c0 -60 -54 -106 -124 -106z" />
    <glyph glyph-name="scedilla" unicode="&#x15f;" horiz-adv-x="461" 
d="M109 -284c-50 0 -83 23 -83 49c0 20 13 35 34 35c20 0 30 -15 30 -32c0 -10 -2 -15 -7 -23c8 -3 15 -5 27 -5c33 0 63 23 63 64c0 40 -32 67 -69 67c-13 0 -22 -2 -32 -5l-12 19l132 103c-111 3 -177 49 -177 106c0 42 29 72 59 72c46 0 66 -48 44 -115
c23 -14 56 -22 92 -22c55 0 100 31 100 81c0 39 -18 63 -82 100l-32 18c-61 34 -103 65 -103 133c0 82 87 158 191 158c98 0 143 -47 143 -86c0 -31 -20 -55 -49 -55c-35 0 -63 31 -71 94c-13 4 -30 7 -42 7c-49 0 -90 -37 -90 -78c0 -38 24 -59 81 -91l33 -19
c75 -43 105 -76 105 -138c0 -83 -68 -148 -156 -162l-94 -75c50 -7 91 -41 91 -92c0 -61 -55 -108 -126 -108z" />
    <glyph glyph-name="Scaron" unicode="&#x160;" horiz-adv-x="592" 
d="M362 800l-81 196l25 19l93 -123l151 123l17 -19l-166 -196h-39zM5 -8l45 242l32 1c33 -166 94 -216 190 -216c79 0 127 62 127 137s-41 110 -130 164c-85 51 -143 104 -143 193c0 116 93 201 220 201c58 0 108 -17 141 -39l43 36l28 -1l-33 -213l-31 -1
c-31 130 -78 184 -149 184c-74 0 -120 -51 -120 -122c0 -68 40 -99 127 -152c94 -57 149 -108 149 -202c0 -144 -133 -218 -241 -218c-75 0 -142 19 -184 41l-43 -36z" />
    <glyph glyph-name="scaron" unicode="&#x161;" horiz-adv-x="461" 
d="M290 606l-83 199l25 20l96 -126l153 126l18 -20l-169 -199h-40zM201 -12c-116 0 -186 48 -186 106c0 42 29 72 59 72c46 0 66 -48 44 -115c23 -14 56 -22 92 -22c55 0 100 31 100 81c0 39 -18 63 -82 100l-32 18c-61 34 -103 65 -103 133c0 82 87 158 191 158
c98 0 143 -47 143 -86c0 -31 -20 -55 -49 -55c-35 0 -63 31 -71 94c-13 4 -30 7 -42 7c-49 0 -90 -37 -90 -78c0 -38 24 -59 81 -91l33 -19c75 -43 105 -76 105 -138c0 -94 -88 -165 -193 -165z" />
    <glyph glyph-name="Tcommaaccent" unicode="&#x162;" horiz-adv-x="711" 
d="M105 0l5 31l132 21l126 605h-66c-54 0 -81 -12 -140 -81l-75 -88l-18 6l73 207h581l-4 -207l-21 -6l-41 88c-30 66 -56 81 -111 81h-67l-126 -606l124 -20l-6 -31h-366zM159 -292c64 28 103 61 116 105l-4 4c-6 -3 -13 -4 -18 -4c-22 0 -41 15 -41 44c0 35 29 66 65 66
c35 0 60 -24 60 -63c0 -86 -83 -149 -172 -173z" />
    <glyph glyph-name="tcommaaccent" unicode="&#x163;" horiz-adv-x="402" 
d="M168 -10c-80 0 -107 46 -89 126l72 326h-85l5 23l109 65l62 119l49 -10l-32 -143h143l-11 -54h-144l-63 -286c-9 -42 -10 -68 9 -83c12 -10 38 -14 80 -14c18 0 42 1 65 3v-20c-59 -30 -110 -52 -170 -52zM23 -298c66 29 105 62 119 108l-5 4c-6 -3 -12 -4 -18 -4
c-22 0 -41 15 -41 44c0 36 29 67 66 67c35 0 61 -24 61 -64c0 -87 -85 -151 -175 -176z" />
    <glyph glyph-name="Tcaron" unicode="&#x164;" horiz-adv-x="711" 
d="M418 799l-81 196l25 19l93 -123l151 123l17 -19l-166 -196h-39zM105 0l5 31l132 21l126 605h-66c-54 0 -81 -12 -140 -81l-75 -88l-18 6l73 207h581l-4 -207l-21 -6l-41 88c-30 66 -56 81 -111 81h-67l-126 -606l124 -20l-6 -31h-366z" />
    <glyph glyph-name="tcaron" unicode="&#x165;" horiz-adv-x="402" 
d="M359 551l-21 8c14 81 27 171 44 214c13 32 40 54 69 43c28 -10 34 -38 22 -74c-16 -43 -69 -120 -114 -191zM168 -10c-80 0 -107 46 -89 126l72 326h-85l5 23l109 65l62 119l49 -10l-32 -143h143l-11 -54h-144l-63 -286c-9 -42 -10 -68 9 -83c12 -10 38 -14 80 -14
c18 0 42 1 65 3v-20c-59 -30 -110 -52 -170 -52z" />
    <glyph glyph-name="Umacron" unicode="&#x16a;" horiz-adv-x="815" 
d="M382 818l15 68h276l-15 -68h-276zM373 -17c-178 0 -272 103 -232 291l79 375l-116 21l7 31h352l-5 -31l-125 -21l-80 -375c-28 -134 16 -221 151 -221c122 0 184 73 208 184l85 402l-90 31l7 31h247l-7 -31l-102 -31l-89 -419c-32 -150 -129 -237 -290 -237z" />
    <glyph glyph-name="umacron" unicode="&#x16b;" horiz-adv-x="621" 
d="M229 624l15 69h281l-15 -69h-281zM177 -13c-92 0 -127 69 -101 178l61 256l-93 27l2 21l194 58l11 -10l-77 -334c-18 -78 6 -117 63 -117c42 0 82 27 156 83l59 272l-91 27l1 21l194 58l11 -10l-90 -419c-9 -39 0 -47 101 -48l2 -15c-46 -27 -97 -48 -137 -48
c-66 0 -69 59 -54 119l-11 2c-75 -70 -139 -121 -201 -121z" />
    <glyph glyph-name="Ubreve" unicode="&#x16c;" horiz-adv-x="815" 
d="M515 798c-90 0 -131 63 -121 166l29 9c13 -66 44 -98 108 -98c60 0 93 31 130 98l29 -9c-28 -105 -87 -166 -175 -166zM373 -17c-178 0 -272 103 -232 291l79 375l-116 21l7 31h352l-5 -31l-125 -21l-80 -375c-28 -134 16 -221 151 -221c122 0 184 73 208 184l85 402
l-90 31l7 31h247l-7 -31l-102 -31l-89 -419c-32 -150 -129 -237 -290 -237z" />
    <glyph glyph-name="ubreve" unicode="&#x16d;" horiz-adv-x="621" 
d="M364 604c-91 0 -133 64 -122 169l29 9c13 -68 45 -100 110 -100c61 0 94 32 132 100l29 -9c-28 -107 -88 -169 -178 -169zM177 -13c-92 0 -127 69 -101 178l61 256l-93 27l2 21l194 58l11 -10l-77 -334c-18 -78 6 -117 63 -117c42 0 82 27 156 83l59 272l-91 27l1 21
l194 58l11 -10l-90 -419c-9 -39 0 -47 101 -48l2 -15c-46 -27 -97 -48 -137 -48c-66 0 -69 59 -54 119l-11 2c-75 -70 -139 -121 -201 -121z" />
    <glyph glyph-name="Uring" unicode="&#x16e;" horiz-adv-x="815" 
d="M525 798c-59 0 -98 40 -98 95c0 63 50 126 126 126c59 0 98 -40 98 -95c0 -63 -49 -126 -126 -126zM530 822c46 0 70 65 70 102c0 49 -23 71 -51 71c-46 0 -71 -65 -71 -102c0 -49 24 -71 52 -71zM373 -17c-178 0 -272 103 -232 291l79 375l-116 21l7 31h352l-5 -31
l-125 -21l-80 -375c-28 -134 16 -221 151 -221c122 0 184 73 208 184l85 402l-90 31l7 31h247l-7 -31l-102 -31l-89 -419c-32 -150 -129 -237 -290 -237z" />
    <glyph glyph-name="uring" unicode="&#x16f;" horiz-adv-x="621" 
d="M375 604c-60 0 -100 41 -100 97c0 63 51 128 128 128c61 0 100 -41 100 -97c0 -64 -50 -128 -128 -128zM380 628c46 0 71 66 71 104c0 50 -24 72 -52 72c-47 0 -72 -66 -72 -104c0 -49 24 -72 53 -72zM177 -13c-92 0 -127 69 -101 178l61 256l-93 27l2 21l194 58l11 -10
l-77 -334c-18 -78 6 -117 63 -117c42 0 82 27 156 83l59 272l-91 27l1 21l194 58l11 -10l-90 -419c-9 -39 0 -47 101 -48l2 -15c-46 -27 -97 -48 -137 -48c-66 0 -69 59 -54 119l-11 2c-75 -70 -139 -121 -201 -121z" />
    <glyph glyph-name="Uhungarumlaut" unicode="&#x170;" horiz-adv-x="815" 
d="M414 787l-18 14c34 70 72 147 96 182c19 27 50 38 72 22c24 -18 26 -46 3 -75c-25 -34 -90 -90 -153 -143zM576 787l-18 14c35 70 73 147 98 182c19 27 50 38 71 22c25 -18 26 -46 3 -75c-25 -34 -91 -90 -154 -143zM373 -17c-178 0 -272 103 -232 291l79 375l-116 21
l7 31h352l-5 -31l-125 -21l-80 -375c-28 -134 16 -221 151 -221c122 0 184 73 208 184l85 402l-90 31l7 31h247l-7 -31l-102 -31l-89 -419c-32 -150 -129 -237 -290 -237z" />
    <glyph glyph-name="uhungarumlaut" unicode="&#x171;" horiz-adv-x="621" 
d="M262 592l-18 15c34 71 73 149 98 185c19 27 51 39 72 22c25 -18 27 -46 4 -76c-26 -34 -92 -91 -156 -146zM427 592l-18 15c35 71 74 149 99 185c19 27 51 39 73 22c25 -18 26 -46 3 -76c-26 -34 -93 -91 -157 -146zM177 -13c-92 0 -127 69 -101 178l61 256l-93 27l2 21
l194 58l11 -10l-77 -334c-18 -78 6 -117 63 -117c42 0 82 27 156 83l59 272l-91 27l1 21l194 58l11 -10l-90 -419c-9 -39 0 -47 101 -48l2 -15c-46 -27 -97 -48 -137 -48c-66 0 -69 59 -54 119l-11 2c-75 -70 -139 -121 -201 -121z" />
    <glyph glyph-name="Uogonek" unicode="&#x172;" horiz-adv-x="815" 
d="M237 -186c0 57 37 114 106 170c-158 11 -240 113 -202 290l79 375l-116 21l7 31h352l-5 -31l-125 -21l-80 -375c-28 -134 16 -221 151 -221c122 0 184 73 208 184l85 402l-90 31l7 31h247l-7 -31l-102 -31l-89 -419c-31 -144 -122 -230 -272 -236
c-59 -57 -83 -109 -83 -153c0 -40 25 -63 60 -63c29 0 56 12 84 35l15 -14c-38 -40 -79 -67 -133 -67c-58 0 -97 35 -97 92z" />
    <glyph glyph-name="uogonek" unicode="&#x173;" horiz-adv-x="621" 
d="M454 -13c-59 -4 -88 31 -65 119l-11 2c-75 -70 -139 -121 -201 -121c-92 0 -127 69 -101 178l61 256l-93 27l2 21l194 58l11 -10l-77 -334c-18 -78 6 -117 63 -117c42 0 82 27 156 83l59 272l-91 27l1 21l194 58l11 -10l-90 -419c-9 -39 1 -47 101 -48l2 -15
c-106 -56 -201 -140 -201 -215c0 -35 22 -56 58 -56c28 0 55 12 84 36l15 -15c-39 -41 -79 -68 -136 -68c-49 0 -95 28 -95 85c0 66 65 132 149 185z" />
    <glyph glyph-name="Wcircumflex" unicode="&#x174;" horiz-adv-x="1082" 
d="M526 783l-18 19l167 195h37l83 -195l-23 -19l-98 117zM249 -7l-63 651l-99 26l5 31h312l-6 -31l-96 -20l33 -508l243 441l-8 61l-81 26l6 31h297l-5 -31l-107 -21l56 -509l249 498l-79 32l4 31h234l-5 -31l-96 -33l-342 -644h-47l-67 514l-290 -514h-48z" />
    <glyph glyph-name="wcircumflex" unicode="&#x175;" horiz-adv-x="839" 
d="M351 588l-18 20l170 199h37l85 -199l-24 -20l-100 120zM203 -20l-30 13l14 36c-9 189 -24 293 -45 366c-9 29 -21 41 -43 41c-14 0 -36 -5 -63 -14l-8 15c36 40 92 83 133 83c39 0 60 -19 73 -60c21 -68 38 -212 39 -349l10 -2c56 79 106 158 147 242
c-7 44 -13 88 -19 128l88 47h7c13 -118 41 -282 58 -420l10 -3c72 92 121 171 141 239c-18 36 -30 72 -30 100c0 53 29 79 62 79c39 0 62 -31 62 -80c0 -127 -147 -303 -312 -462l-31 14l15 40c-12 72 -26 156 -39 240c-64 -100 -152 -206 -239 -293z" />
    <glyph glyph-name="Ycircumflex" unicode="&#x176;" horiz-adv-x="738" 
d="M348 783l-18 19l167 195h37l83 -195l-23 -19l-98 117zM126 0l7 31l127 22l54 256l-143 334l-94 27l7 31h323l-7 -31l-107 -21l114 -291l228 284l-82 28l6 31h249l-7 -31l-98 -32l-276 -320l-56 -265l118 -22l-6 -31h-357z" />
    <glyph glyph-name="ycircumflex" unicode="&#x177;" horiz-adv-x="555" 
d="M199 588l-18 20l170 199h37l85 -199l-24 -20l-100 120zM39 -245c-52 0 -83 36 -83 82c0 36 23 69 60 69c41 0 63 -46 59 -107c61 34 116 94 157 166c-17 162 -54 332 -81 411c-17 49 -32 59 -59 59c-14 0 -32 -5 -57 -13l-8 15c39 47 90 83 131 83c43 0 67 -18 84 -76
c26 -88 49 -206 60 -344h11c56 143 107 321 133 427h6l93 -47c-115 -224 -250 -551 -384 -665c-42 -36 -80 -60 -122 -60z" />
    <glyph glyph-name="Ydieresis" unicode="&#x178;" horiz-adv-x="738" 
d="M377 803c-36 0 -62 26 -62 63c0 35 29 68 69 68c36 0 62 -26 62 -63c0 -36 -30 -68 -69 -68zM586 803c-36 0 -61 26 -61 63c0 35 29 68 68 68c36 0 62 -26 62 -63c0 -36 -29 -68 -69 -68zM126 0l7 31l127 22l54 256l-143 334l-94 27l7 31h323l-7 -31l-107 -21l114 -291
l228 284l-82 28l6 31h249l-7 -31l-98 -32l-276 -320l-56 -265l118 -22l-6 -31h-357z" />
    <glyph glyph-name="Zacute" unicode="&#x179;" horiz-adv-x="717" 
d="M417 788l-18 15c41 69 83 147 114 181c23 26 55 36 78 17c22 -19 19 -46 -5 -76c-28 -34 -103 -86 -169 -137zM-5 0l-1 18l566 638l-197 -1c-58 0 -85 -12 -136 -61l-92 -87l-17 7l64 187h529l1 -19l-566 -636h234c61 0 82 10 122 52l109 118l16 -5l-70 -211h-562z" />
    <glyph glyph-name="zacute" unicode="&#x17a;" horiz-adv-x="527" 
d="M297 594l-18 15c41 71 85 150 116 185c23 26 56 36 79 16c23 -19 20 -47 -5 -77c-28 -35 -105 -88 -172 -139zM362 -13c-34 0 -68 7 -116 18l-148 38l-76 -55l-25 22l401 414c-103 14 -174 18 -227 18c-23 0 -37 -3 -45 -7v-6c29 -16 44 -37 44 -62
c0 -28 -20 -50 -51 -50s-56 30 -56 62c0 31 14 56 56 99c28 31 51 43 101 43c40 0 86 -7 131 -18l90 -24l80 54l25 -22l-394 -408l147 -22c69 -11 86 -2 156 73l15 -7c-47 -130 -71 -160 -108 -160z" />
    <glyph glyph-name="Zdotaccent" unicode="&#x17b;" horiz-adv-x="717" 
d="M463 801c-37 0 -64 28 -64 65s30 71 71 71c37 0 64 -28 64 -65s-30 -71 -71 -71zM-5 0l-1 18l566 638l-197 -1c-58 0 -85 -12 -136 -61l-92 -87l-17 7l64 187h529l1 -19l-566 -636h234c61 0 82 10 122 52l109 118l16 -5l-70 -211h-562z" />
    <glyph glyph-name="zdotaccent" unicode="&#x17c;" horiz-adv-x="527" 
d="M344 606c-38 0 -65 29 -65 67s31 72 72 72c38 0 65 -28 65 -66s-30 -73 -72 -73zM362 -13c-34 0 -68 7 -116 18l-148 38l-76 -55l-25 22l401 414c-103 14 -174 18 -227 18c-23 0 -37 -3 -45 -7v-6c29 -16 44 -37 44 -62c0 -28 -20 -50 -51 -50s-56 30 -56 62
c0 31 14 56 56 99c28 31 51 43 101 43c40 0 86 -7 131 -18l90 -24l80 54l25 -22l-394 -408l147 -22c69 -11 86 -2 156 73l15 -7c-47 -130 -71 -160 -108 -160z" />
    <glyph glyph-name="Zcaron" unicode="&#x17d;" horiz-adv-x="717" 
d="M416 799l-81 196l25 19l93 -123l151 123l17 -19l-166 -196h-39zM-5 0l-1 18l566 638l-197 -1c-58 0 -85 -12 -136 -61l-92 -87l-17 7l64 187h529l1 -19l-566 -636h234c61 0 82 10 122 52l109 118l16 -5l-70 -211h-562z" />
    <glyph glyph-name="zcaron" unicode="&#x17e;" horiz-adv-x="527" 
d="M297 605l-83 199l25 20l96 -126l153 126l18 -20l-169 -199h-40zM362 -13c-34 0 -68 7 -116 18l-148 38l-76 -55l-25 22l401 414c-103 14 -174 18 -227 18c-23 0 -37 -3 -45 -7v-6c29 -16 44 -37 44 -62c0 -28 -20 -50 -51 -50s-56 30 -56 62c0 31 14 56 56 99
c28 31 51 43 101 43c40 0 86 -7 131 -18l90 -24l80 54l25 -22l-394 -408l147 -22c69 -11 86 -2 156 73l15 -7c-47 -130 -71 -160 -108 -160z" />
    <glyph glyph-name="florin" unicode="&#x192;" horiz-adv-x="519" 
d="M-10 -204c-58 0 -90 26 -89 60c1 30 26 55 63 55c36 0 67 -21 94 -62c29 27 46 69 66 164l64 315h-116l6 27l122 33l3 16c28 131 63 187 134 240c39 29 92 47 134 47c56 0 98 -26 97 -67c-1 -30 -26 -55 -62 -55c-37 0 -77 18 -92 79c-55 -28 -88 -80 -116 -233l-7 -34
h126l-12 -53h-124l-41 -195c-32 -159 -56 -220 -125 -285c-35 -33 -83 -52 -125 -52z" />
    <glyph glyph-name="Aringacute" unicode="&#x1fa;" horiz-adv-x="767" 
d="M488 936l-18 15c41 69 83 147 114 181c23 26 55 36 78 17c22 -19 19 -46 -5 -76c-28 -34 -103 -86 -169 -137zM455 707c46 0 71 65 71 103c0 48 -24 70 -52 70c-46 0 -70 -65 -70 -102c0 -49 23 -71 51 -71zM228 292h214l-40 296h-10zM-66 0l6 31l100 31l366 631
c-33 14 -53 46 -53 86c0 62 49 125 126 125c59 0 98 -40 98 -95c0 -50 -33 -102 -86 -119l100 -633l102 -26l-7 -31h-335l6 30l117 21l-26 194h-246l-102 -183l78 -32l-6 -30h-238z" />
    <glyph glyph-name="aringacute" unicode="&#x1fb;" horiz-adv-x="585" 
d="M420 834l-18 15c41 71 85 150 116 185c23 26 56 36 79 16c23 -19 20 -47 -5 -77c-28 -35 -105 -88 -172 -139zM375 566c-60 0 -100 41 -100 97c0 63 51 128 128 128c61 0 100 -41 100 -97c0 -64 -50 -128 -128 -128zM380 590c46 0 71 66 71 104c0 50 -24 72 -52 72
c-47 0 -72 -66 -72 -104c0 -49 24 -72 53 -72zM166 -13c-78 0 -134 55 -134 152c0 184 184 381 327 381c48 0 74 -13 100 -30l55 59l23 -7l-98 -439c-9 -42 -2 -55 100 -53l3 -15c-45 -27 -94 -48 -135 -48c-51 0 -72 36 -57 107l-11 3c-63 -67 -105 -110 -173 -110zM219 62
c38 0 68 22 136 86l58 263c-26 30 -57 51 -93 51c-97 0 -184 -143 -184 -287c0 -80 35 -113 83 -113z" />
    <glyph glyph-name="AEacute" unicode="&#x1fc;" horiz-adv-x="1022" 
d="M640 788l-18 15c41 69 83 147 114 181c23 26 55 36 78 17c22 -19 19 -46 -5 -76c-28 -34 -103 -86 -169 -137zM286 322h194l70 332h-14zM-70 0l6 31l90 31l450 589l-113 19l7 31h616l-18 -194l-20 -8l-52 95c-26 47 -43 59 -112 59l-126 1l-59 -280h54c66 0 96 19 132 96
l16 36h24l-64 -307h-24l-3 34c-8 78 -25 99 -91 99h-54l-57 -284l160 1c65 0 86 10 124 52l110 119l16 -4l-64 -216h-585l7 31l124 21l47 225h-219l-163 -218l87 -30l-6 -29h-240z" />
    <glyph glyph-name="aeacute" unicode="&#x1fd;" horiz-adv-x="790" 
d="M442 594l-18 15c41 71 85 150 116 185c23 26 56 36 79 16c23 -19 20 -47 -5 -77c-28 -35 -105 -88 -172 -139zM435 274c148 -13 235 43 235 141c0 44 -29 72 -69 72c-74 0 -142 -90 -166 -213zM412 412c-25 30 -56 50 -91 50c-98 0 -185 -143 -185 -287
c0 -80 35 -113 83 -113c33 0 60 16 111 63c-3 15 -6 33 -6 51c0 79 34 169 88 236zM342 90h-3c-63 -64 -106 -103 -172 -103c-79 0 -135 55 -135 153c0 183 185 380 327 380c59 0 96 -25 120 -45c42 28 89 45 140 45c90 0 143 -47 143 -111c0 -118 -128 -177 -331 -169
c-12 -112 32 -184 134 -184c52 0 97 21 138 58l18 -14c-41 -63 -111 -113 -206 -113c-84 0 -146 39 -173 103z" />
    <glyph glyph-name="Oslashacute" unicode="&#x1fe;" horiz-adv-x="786" 
d="M441 789l-18 15c41 69 83 147 114 181c23 26 55 36 78 17c22 -19 19 -46 -5 -76c-28 -34 -103 -86 -169 -137zM192 151l391 443c-24 53 -69 85 -132 85c-144 0 -271 -199 -271 -427c0 -38 4 -72 12 -101zM339 22c144 0 271 198 271 427c0 39 -4 74 -13 104l-392 -443
c25 -56 69 -88 134 -88zM79 -31l-29 24l78 87c-43 53 -68 125 -68 209c0 209 158 427 386 427c75 0 139 -24 188 -67l76 86l28 -25l-78 -88c45 -52 70 -125 70 -210c0 -211 -156 -428 -386 -428c-77 0 -143 25 -190 70z" />
    <glyph glyph-name="oslashacute" unicode="&#x1ff;" horiz-adv-x="566" 
d="M315 595l-18 15c41 71 85 150 116 185c23 26 56 36 79 16c23 -19 20 -47 -5 -77c-28 -35 -105 -88 -172 -139zM154 128l246 291c-18 38 -50 56 -89 56c-104 0 -165 -162 -165 -277c0 -27 3 -51 8 -70zM255 33c103 0 165 162 165 277c0 26 -2 48 -7 67l-246 -291
c19 -36 49 -53 88 -53zM65 -33l-28 25l47 55c-27 32 -43 76 -43 132c0 161 129 341 306 341c41 0 79 -12 109 -35l47 55l28 -25l-47 -56c25 -32 40 -76 40 -130c0 -161 -129 -342 -305 -342c-41 0 -78 12 -108 35z" />
    <glyph glyph-name="Scommaaccent" unicode="&#x218;" horiz-adv-x="592" 
d="M5 -8l45 242l32 1c33 -166 94 -216 190 -216c79 0 127 62 127 137s-41 110 -130 164c-85 51 -143 104 -143 193c0 116 93 201 220 201c58 0 108 -17 141 -39l43 36l28 -1l-33 -213l-31 -1c-31 130 -78 184 -149 184c-74 0 -120 -51 -120 -122c0 -68 40 -99 127 -152
c94 -57 149 -108 149 -202c0 -144 -133 -218 -241 -218c-75 0 -142 19 -184 41l-43 -36zM102 -292c64 28 103 61 116 105l-4 4c-6 -3 -13 -4 -18 -4c-22 0 -41 15 -41 44c0 35 29 66 65 66c35 0 60 -24 60 -63c0 -86 -83 -149 -172 -173z" />
    <glyph glyph-name="scommaaccent" unicode="&#x219;" horiz-adv-x="461" 
d="M201 -12c-116 0 -186 48 -186 106c0 42 29 72 59 72c46 0 66 -48 44 -115c23 -14 56 -22 92 -22c55 0 100 31 100 81c0 39 -18 63 -82 100l-32 18c-61 34 -103 65 -103 133c0 82 87 158 191 158c98 0 143 -47 143 -86c0 -31 -20 -55 -49 -55c-35 0 -63 31 -71 94
c-13 4 -30 7 -42 7c-49 0 -90 -37 -90 -78c0 -38 24 -59 81 -91l33 -19c75 -43 105 -76 105 -138c0 -94 -88 -165 -193 -165zM41 -298c66 29 105 62 119 108l-5 4c-6 -3 -12 -4 -18 -4c-22 0 -41 15 -41 44c0 36 29 67 66 67c35 0 61 -24 61 -64c0 -87 -85 -151 -175 -176z
" />
    <glyph glyph-name="schwa" unicode="&#x259;" horiz-adv-x="505" 
d="M361 267c12 113 -33 184 -134 184c-52 0 -97 -20 -138 -57l-18 14c40 62 111 112 206 112c116 0 191 -73 191 -188c0 -155 -126 -345 -295 -345c-90 0 -143 47 -143 112c0 117 128 177 331 168zM357 234c-148 13 -235 -43 -235 -141c0 -44 29 -72 69 -72
c74 0 142 90 166 213z" />
    <glyph glyph-name="circumflex" unicode="&#x2c6;" horiz-adv-x="353" 
d="M105 588l-18 20l170 199h37l85 -199l-24 -20l-100 120z" />
    <glyph glyph-name="caron" unicode="&#x2c7;" horiz-adv-x="353" 
d="M203 605l-83 199l25 20l96 -126l153 126l18 -20l-169 -199h-40z" />
    <glyph glyph-name="breve" unicode="&#x2d8;" horiz-adv-x="392" 
d="M250 604c-91 0 -133 64 -122 169l29 9c13 -68 45 -100 110 -100c61 0 94 32 132 100l29 -9c-28 -107 -88 -169 -178 -169z" />
    <glyph glyph-name="dotaccent" unicode="&#x2d9;" horiz-adv-x="205" 
d="M171 606c-38 0 -65 29 -65 67s31 72 72 72c38 0 65 -28 65 -66s-30 -73 -72 -73z" />
    <glyph glyph-name="ring" unicode="&#x2da;" horiz-adv-x="306" 
d="M214 604c-60 0 -100 41 -100 97c0 63 51 128 128 128c61 0 100 -41 100 -97c0 -64 -50 -128 -128 -128zM219 628c46 0 71 66 71 104c0 50 -24 72 -52 72c-47 0 -72 -66 -72 -104c0 -49 24 -72 53 -72z" />
    <glyph glyph-name="ogonek" unicode="&#x2db;" horiz-adv-x="317" 
d="M136 10c-81 -69 -114 -130 -114 -182c0 -41 24 -64 60 -64c30 0 57 12 86 36l15 -15c-39 -41 -80 -68 -135 -68c-60 0 -99 35 -99 93c0 74 61 146 170 218z" />
    <glyph glyph-name="tilde" unicode="&#x2dc;" horiz-adv-x="389" 
d="M113 598l-31 7c29 94 61 138 115 138c57 0 116 -55 154 -55c19 0 31 17 60 67l30 -6c-29 -95 -61 -138 -115 -138c-57 0 -116 54 -154 54c-19 0 -31 -17 -59 -67z" />
    <glyph glyph-name="hungarumlaut" unicode="&#x2dd;" horiz-adv-x="376" 
d="M109 592l-18 15c34 71 73 149 98 185c19 27 51 39 72 22c25 -18 27 -46 4 -76c-26 -34 -92 -91 -156 -146zM274 592l-18 15c35 71 74 149 99 185c19 27 51 39 73 22c25 -18 26 -46 3 -76c-26 -34 -93 -91 -157 -146z" />
    <glyph glyph-name="commaaccent" unicode="&#x326;" horiz-adv-x="264" 
d="M-65 -298c66 29 105 62 119 108l-5 4c-6 -3 -12 -4 -18 -4c-22 0 -41 15 -41 44c0 36 29 67 66 67c35 0 61 -24 61 -64c0 -87 -85 -151 -175 -176z" />
    <glyph glyph-name="baht" unicode="&#xe3f;" horiz-adv-x="657" 
d="M465 688l60 145l45 -17l-62 -138c69 -20 103 -63 103 -122c0 -98 -81 -161 -192 -185l-1 -13c104 -20 160 -65 160 -150c0 -125 -136 -208 -297 -208h-61l-64 -155l-45 16l63 139h-209l7 31l121 20l123 590l-112 20l7 31h289c24 0 46 -1 65 -4zM265 379l59 1
c121 1 179 74 179 170c0 76 -47 105 -119 105c-26 0 -43 -2 -63 -5zM269 36c125 0 196 80 196 183c0 83 -55 122 -148 122h-60l-63 -297c19 -4 45 -8 75 -8z" />
    <glyph glyph-name="Wgrave" unicode="&#x1e80;" horiz-adv-x="1082" 
d="M650 788c-45 54 -91 114 -105 147c-12 28 -2 56 23 69c26 12 52 0 63 -26c14 -34 28 -103 42 -178zM249 -7l-63 651l-99 26l5 31h312l-6 -31l-96 -20l33 -508l243 441l-8 61l-81 26l6 31h297l-5 -31l-107 -21l56 -509l249 498l-79 32l4 31h234l-5 -31l-96 -33l-342 -644
h-47l-67 514l-290 -514h-48z" />
    <glyph glyph-name="wgrave" unicode="&#x1e81;" horiz-adv-x="839" 
d="M476 594c-46 55 -93 116 -107 149c-13 29 -3 57 23 70s53 1 64 -26c14 -35 29 -105 43 -181zM203 -20l-30 13l14 36c-9 189 -24 293 -45 366c-9 29 -21 41 -43 41c-14 0 -36 -5 -63 -14l-8 15c36 40 92 83 133 83c39 0 60 -19 73 -60c21 -68 38 -212 39 -349l10 -2
c56 79 106 158 147 242c-7 44 -13 88 -19 128l88 47h7c13 -118 41 -282 58 -420l10 -3c72 92 121 171 141 239c-18 36 -30 72 -30 100c0 53 29 79 62 79c39 0 62 -31 62 -80c0 -127 -147 -303 -312 -462l-31 14l15 40c-12 72 -26 156 -39 240c-64 -100 -152 -206 -239 -293z
" />
    <glyph glyph-name="Wacute" unicode="&#x1e82;" horiz-adv-x="1082" 
d="M617 788l-18 15c41 69 83 147 114 181c23 26 55 36 78 17c22 -19 19 -46 -5 -76c-28 -34 -103 -86 -169 -137zM249 -7l-63 651l-99 26l5 31h312l-6 -31l-96 -20l33 -508l243 441l-8 61l-81 26l6 31h297l-5 -31l-107 -21l56 -509l249 498l-79 32l4 31h234l-5 -31l-96 -33
l-342 -644h-47l-67 514l-290 -514h-48z" />
    <glyph glyph-name="wacute" unicode="&#x1e83;" horiz-adv-x="839" 
d="M443 594l-18 15c41 71 85 150 116 185c23 26 56 36 79 16c23 -19 20 -47 -5 -77c-28 -35 -105 -88 -172 -139zM203 -20l-30 13l14 36c-9 189 -24 293 -45 366c-9 29 -21 41 -43 41c-14 0 -36 -5 -63 -14l-8 15c36 40 92 83 133 83c39 0 60 -19 73 -60
c21 -68 38 -212 39 -349l10 -2c56 79 106 158 147 242c-7 44 -13 88 -19 128l88 47h7c13 -118 41 -282 58 -420l10 -3c72 92 121 171 141 239c-18 36 -30 72 -30 100c0 53 29 79 62 79c39 0 62 -31 62 -80c0 -127 -147 -303 -312 -462l-31 14l15 40c-12 72 -26 156 -39 240
c-64 -100 -152 -206 -239 -293z" />
    <glyph glyph-name="Wdieresis" unicode="&#x1e84;" horiz-adv-x="1082" 
d="M555 803c-36 0 -62 26 -62 63c0 35 29 68 69 68c36 0 62 -26 62 -63c0 -36 -30 -68 -69 -68zM764 803c-36 0 -61 26 -61 63c0 35 29 68 68 68c36 0 62 -26 62 -63c0 -36 -29 -68 -69 -68zM249 -7l-63 651l-99 26l5 31h312l-6 -31l-96 -20l33 -508l243 441l-8 61l-81 26
l6 31h297l-5 -31l-107 -21l56 -509l249 498l-79 32l4 31h234l-5 -31l-96 -33l-342 -644h-47l-67 514l-290 -514h-48z" />
    <glyph glyph-name="wdieresis" unicode="&#x1e85;" horiz-adv-x="839" 
d="M381 608c-37 0 -63 28 -63 65c0 36 30 70 70 70c36 0 62 -28 62 -65c0 -36 -29 -70 -69 -70zM594 608c-37 0 -63 28 -63 65c0 36 30 70 70 70c36 0 63 -28 63 -65c0 -36 -30 -70 -70 -70zM203 -20l-30 13l14 36c-9 189 -24 293 -45 366c-9 29 -21 41 -43 41
c-14 0 -36 -5 -63 -14l-8 15c36 40 92 83 133 83c39 0 60 -19 73 -60c21 -68 38 -212 39 -349l10 -2c56 79 106 158 147 242c-7 44 -13 88 -19 128l88 47h7c13 -118 41 -282 58 -420l10 -3c72 92 121 171 141 239c-18 36 -30 72 -30 100c0 53 29 79 62 79
c39 0 62 -31 62 -80c0 -127 -147 -303 -312 -462l-31 14l15 40c-12 72 -26 156 -39 240c-64 -100 -152 -206 -239 -293z" />
    <glyph glyph-name="Ygrave" unicode="&#x1ef2;" horiz-adv-x="738" 
d="M472 788c-45 54 -91 114 -105 147c-12 28 -2 56 23 69c26 12 52 0 63 -26c14 -34 28 -103 42 -178zM126 0l7 31l127 22l54 256l-143 334l-94 27l7 31h323l-7 -31l-107 -21l114 -291l228 284l-82 28l6 31h249l-7 -31l-98 -32l-276 -320l-56 -265l118 -22l-6 -31h-357z" />
    <glyph glyph-name="ygrave" unicode="&#x1ef3;" horiz-adv-x="555" 
d="M324 594c-46 55 -93 116 -107 149c-13 29 -3 57 23 70s53 1 64 -26c14 -35 29 -105 43 -181zM39 -245c-52 0 -83 36 -83 82c0 36 23 69 60 69c41 0 63 -46 59 -107c61 34 116 94 157 166c-17 162 -54 332 -81 411c-17 49 -32 59 -59 59c-14 0 -32 -5 -57 -13l-8 15
c39 47 90 83 131 83c43 0 67 -18 84 -76c26 -88 49 -206 60 -344h11c56 143 107 321 133 427h6l93 -47c-115 -224 -250 -551 -384 -665c-42 -36 -80 -60 -122 -60z" />
    <glyph glyph-name="enspace" unicode="&#x2002;" horiz-adv-x="500" 
 />
    <glyph glyph-name="emspace" unicode="&#x2003;" horiz-adv-x="1000" 
 />
    <glyph glyph-name="threeperemspace" unicode="&#x2004;" horiz-adv-x="333" 
 />
    <glyph glyph-name="fourperemspace" unicode="&#x2005;" horiz-adv-x="250" 
 />
    <glyph glyph-name="figurespace" unicode="&#x2007;" horiz-adv-x="580" 
 />
    <glyph glyph-name="thinspace" unicode="&#x2009;" horiz-adv-x="133" 
 />
    <glyph glyph-name="hairspace" unicode="&#x200a;" horiz-adv-x="75" 
 />
    <glyph glyph-name="endash" unicode="&#x2013;" horiz-adv-x="618" 
d="M51 246l11 61h472l-13 -61h-470z" />
    <glyph glyph-name="emdash" unicode="&#x2014;" horiz-adv-x="898" 
d="M51 246l11 61h752l-13 -61h-750z" />
    <glyph glyph-name="quoteleft" unicode="&#x2018;" horiz-adv-x="269" 
d="M158 428c-42 0 -76 31 -76 85c0 95 92 177 203 224l15 -21c-86 -52 -133 -110 -144 -156l7 -5l3 1c3 1 9 2 15 2c29 0 53 -18 53 -55c0 -40 -36 -75 -76 -75z" />
    <glyph glyph-name="quoteright" unicode="&#x2019;" horiz-adv-x="269" 
d="M80 421l-14 22c85 51 132 109 143 155l-7 5l-3 -1c-3 -1 -9 -2 -15 -2c-29 0 -53 19 -53 56c0 39 36 74 76 74c42 0 76 -30 76 -85c0 -95 -92 -176 -203 -224z" />
    <glyph glyph-name="quotesinglbase" unicode="&#x201a;" horiz-adv-x="269" 
d="M-9 -185l-15 22c86 51 133 109 144 155l-7 5l-3 -1c-3 -1 -9 -2 -15 -2c-29 0 -53 19 -53 55c0 40 36 75 76 75c42 0 76 -31 76 -85c0 -95 -92 -177 -203 -224z" />
    <glyph glyph-name="quotedblleft" unicode="&#x201c;" horiz-adv-x="499" 
d="M158 428c-42 0 -76 31 -76 85c0 95 92 177 203 224l15 -21c-86 -52 -133 -110 -144 -156l7 -5l3 1c3 1 9 2 15 2c29 0 53 -18 53 -55c0 -40 -36 -75 -76 -75zM388 428c-42 0 -76 31 -76 85c0 95 92 177 203 224l14 -21c-85 -52 -132 -110 -143 -156l7 -5l3 1
c3 1 9 2 14 2c30 0 53 -18 53 -55c0 -40 -35 -75 -75 -75z" />
    <glyph glyph-name="quotedblright" unicode="&#x201d;" horiz-adv-x="499" 
d="M80 421l-14 22c85 51 132 109 143 155l-7 5l-3 -1c-3 -1 -9 -2 -15 -2c-29 0 -53 19 -53 56c0 39 36 74 76 74c42 0 76 -30 76 -85c0 -95 -92 -176 -203 -224zM309 421l-14 22c85 51 132 109 144 155l-7 5l-3 -1c-4 -1 -9 -2 -15 -2c-29 0 -53 19 -53 56
c0 39 35 74 76 74s76 -30 76 -85c0 -95 -93 -176 -204 -224z" />
    <glyph glyph-name="quotedblbase" unicode="&#x201e;" horiz-adv-x="499" 
d="M-9 -185l-15 22c86 51 133 109 144 155l-7 5l-3 -1c-3 -1 -9 -2 -15 -2c-29 0 -53 19 -53 55c0 40 36 75 76 75c42 0 76 -31 76 -85c0 -95 -92 -177 -203 -224zM220 -185l-14 22c85 51 132 109 144 155l-7 5l-3 -1c-4 -1 -9 -2 -15 -2c-29 0 -53 19 -53 55
c0 40 35 75 76 75s76 -31 76 -85c0 -95 -93 -177 -204 -224z" />
    <glyph glyph-name="dagger" unicode="&#x2020;" horiz-adv-x="539" 
d="M167 -93l121 541l-202 -6l11 51l199 -6l50 263h54l-61 -263l202 6l-11 -51l-199 6l-110 -541h-54z" />
    <glyph glyph-name="daggerdbl" unicode="&#x2021;" horiz-adv-x="539" 
d="M167 -93l61 259l-202 -6l10 51l200 -6l53 247l-201 -5l10 50l199 -5l49 258h54l-60 -258l202 5l-11 -50l-199 5l-53 -247l201 6l-10 -51l-200 6l-49 -259h-54z" />
    <glyph glyph-name="bullet" unicode="&#x2022;" horiz-adv-x="556" 
d="M280 197c-85 0 -154 68 -154 154c0 84 69 153 154 153s153 -69 153 -153c0 -86 -68 -154 -153 -154z" />
    <glyph glyph-name="ellipsis" unicode="&#x2026;" horiz-adv-x="771" 
d="M120 -18c-40 0 -72 32 -72 71s32 71 72 71c39 0 71 -32 71 -71s-32 -71 -71 -71zM372 -18c-40 0 -72 32 -72 71s32 71 72 71c39 0 71 -32 71 -71s-32 -71 -71 -71zM623 -18c-40 0 -72 32 -72 71s32 71 72 71c39 0 71 -32 71 -71s-32 -71 -71 -71z" />
    <glyph glyph-name="guilsinglleft" unicode="&#x2039;" horiz-adv-x="347" 
d="M208 32l-166 210l2 20l254 208l25 -22l-168 -196l85 -202z" />
    <glyph glyph-name="guilsinglright" unicode="&#x203a;" horiz-adv-x="347" 
d="M47 32l-25 22l168 198l-85 200l32 18l168 -208l-2 -20z" />
    <glyph glyph-name="fraction" unicode="&#x2044;" horiz-adv-x="580" 
d="M679 700l-372 -411l-368 -418l-39 37l373 411l367 419z" />
    <glyph glyph-name="zero.sup" unicode="&#x2070;" horiz-adv-x="445" 
d="M46 461c0 166 95 361 243 361c94 0 144 -72 144 -175c0 -166 -95 -361 -243 -361c-94 0 -144 71 -144 175zM277 784c-54 0 -98 -98 -122 -208c-10 -52 -16 -99 -16 -136c0 -83 19 -117 63 -117c54 0 98 98 122 209c11 51 16 98 16 136c0 83 -20 116 -63 116z" />
    <glyph glyph-name="four.sup" unicode="&#x2074;" horiz-adv-x="445" 
d="M25 504l284 317l93 -8l-65 -300h82l-13 -59h-81l-22 -100l68 -29l-5 -23h-245l5 25l94 28l22 101h-206zM256 510l51 240h-19l-203 -240h171z" />
    <glyph glyph-name="five.sup" unicode="&#x2075;" horiz-adv-x="445" 
d="M441 847l-32 -122h-221l-28 -95c141 -17 229 -64 229 -171c0 -102 -87 -176 -199 -176c-96 0 -157 42 -157 93c0 33 22 58 52 58c52 0 66 -52 43 -97c14 -11 38 -18 66 -18c65 0 108 49 108 109c0 80 -69 118 -205 131l72 247h209l44 44z" />
    <glyph glyph-name="six.sup" unicode="&#x2076;" horiz-adv-x="445" 
d="M176 615l9 -9c23 15 54 23 86 23c81 0 129 -52 129 -140c0 -100 -76 -203 -190 -203c-95 0 -162 63 -162 173c0 184 148 338 376 378l4 -25c-129 -51 -213 -122 -252 -197zM162 577c-18 -43 -22 -90 -22 -135c0 -83 28 -123 77 -123c57 0 91 79 91 161
c0 75 -32 104 -89 104c-23 0 -41 -3 -57 -7z" />
    <glyph glyph-name="seven.sup" unicode="&#x2077;" horiz-adv-x="445" 
d="M465 756l-290 -461h-89l2 14l136 177l180 239h-231l-64 -72l-21 5l52 177l23 4l15 -33h273z" />
    <glyph glyph-name="eight.sup" unicode="&#x2078;" horiz-adv-x="445" 
d="M306 569l-3 -13c55 -31 82 -68 82 -121c0 -88 -80 -149 -175 -149c-98 0 -168 55 -168 127c0 67 43 112 128 138l3 14c-48 27 -70 61 -70 108c0 82 72 149 165 149c96 0 156 -55 156 -124c0 -62 -46 -107 -118 -129zM276 583c48 36 73 72 73 122s-32 84 -82 84
c-45 0 -83 -39 -83 -93c0 -51 26 -77 92 -113zM198 538c-42 -26 -78 -72 -78 -126c0 -58 38 -94 98 -94c47 0 88 35 88 97c0 44 -24 80 -108 123z" />
    <glyph glyph-name="nine.sup" unicode="&#x2079;" horiz-adv-x="445" 
d="M298 487l-9 9c-24 -15 -54 -24 -85 -24c-79 0 -128 52 -128 144c0 103 76 207 190 207c94 0 160 -65 160 -173c0 -178 -139 -333 -380 -374l-4 25c134 50 216 120 256 186zM312 525c18 45 24 95 24 140c0 85 -28 124 -77 124c-57 0 -91 -79 -91 -166
c0 -75 30 -105 89 -105c19 0 40 3 55 7z" />
    <glyph glyph-name="zero.inf" unicode="&#x2080;" horiz-adv-x="445" 
d="M-12 -60c0 166 95 361 243 361c94 0 144 -72 144 -175c0 -166 -95 -361 -243 -361c-94 0 -144 71 -144 175zM219 263c-54 0 -98 -98 -122 -208c-10 -52 -16 -99 -16 -136c0 -83 19 -117 63 -117c54 0 98 98 122 209c11 51 16 98 16 136c0 83 -20 116 -63 116z" />
    <glyph glyph-name="one.inf" unicode="&#x2081;" horiz-adv-x="445" 
d="M198 -166l113 -33l-3 -20h-333l4 20l128 35l83 388l-106 38l3 18l198 25l11 -9z" />
    <glyph glyph-name="two.inf" unicode="&#x2082;" horiz-adv-x="445" 
d="M-42 -153c82 60 144 104 188 143c86 76 111 116 111 165c0 46 -26 77 -75 77c-55 0 -90 -35 -127 -92l-24 11c33 91 97 150 185 150c83 0 135 -55 135 -123c0 -92 -64 -163 -308 -312l1 -12l199 1l71 90l17 -4l-50 -160h-312z" />
    <glyph glyph-name="three.inf" unicode="&#x2083;" horiz-adv-x="445" 
d="M94 54c138 31 178 72 178 123c0 37 -28 61 -72 61c-54 0 -97 -25 -138 -67l-20 16c36 64 101 114 186 114s131 -43 131 -104c0 -59 -44 -111 -141 -133l-3 -15c80 -25 115 -61 115 -123c0 -85 -80 -161 -203 -161c-94 0 -157 38 -157 93c0 29 22 54 53 54
c49 0 63 -50 41 -94c18 -12 39 -17 68 -17c63 0 111 34 111 99c0 54 -39 97 -158 113z" />
    <glyph glyph-name="four.inf" unicode="&#x2084;" horiz-adv-x="445" 
d="M-33 -17l284 317l93 -8l-65 -300h82l-13 -59h-81l-22 -100l68 -29l-5 -23h-245l5 25l94 28l22 101h-206zM198 -11l51 240h-19l-203 -240h171z" />
    <glyph glyph-name="five.inf" unicode="&#x2085;" horiz-adv-x="445" 
d="M383 326l-32 -122h-221l-28 -95c141 -17 229 -64 229 -171c0 -102 -87 -176 -199 -176c-96 0 -157 42 -157 93c0 33 22 58 52 58c52 0 66 -52 43 -97c14 -11 38 -18 66 -18c65 0 108 49 108 109c0 80 -69 118 -205 131l72 247h209l44 44z" />
    <glyph glyph-name="six.inf" unicode="&#x2086;" horiz-adv-x="445" 
d="M118 94l9 -9c23 15 54 23 86 23c81 0 129 -52 129 -140c0 -100 -76 -203 -190 -203c-95 0 -162 63 -162 173c0 184 148 338 376 378l4 -25c-129 -51 -213 -122 -252 -197zM104 56c-18 -43 -22 -90 -22 -135c0 -83 28 -123 77 -123c57 0 91 79 91 161
c0 75 -32 104 -89 104c-23 0 -41 -3 -57 -7z" />
    <glyph glyph-name="seven.inf" unicode="&#x2087;" horiz-adv-x="445" 
d="M406 235l-290 -461h-89l2 14l136 177l180 239h-231l-64 -72l-21 5l52 177l23 4l15 -33h273z" />
    <glyph glyph-name="eight.inf" unicode="&#x2088;" horiz-adv-x="445" 
d="M248 48l-3 -13c55 -31 82 -68 82 -121c0 -88 -80 -149 -175 -149c-98 0 -168 55 -168 127c0 67 43 112 128 138l3 14c-48 27 -70 61 -70 108c0 82 72 149 165 149c96 0 156 -55 156 -124c0 -62 -46 -107 -118 -129zM218 62c48 36 73 72 73 122s-32 84 -82 84
c-45 0 -83 -39 -83 -93c0 -51 26 -77 92 -113zM140 17c-42 -26 -78 -72 -78 -126c0 -58 38 -94 98 -94c47 0 88 35 88 97c0 44 -24 80 -108 123z" />
    <glyph glyph-name="nine.inf" unicode="&#x2089;" horiz-adv-x="445" 
d="M240 -34l-9 9c-24 -15 -54 -24 -85 -24c-79 0 -128 52 -128 144c0 103 76 207 190 207c94 0 160 -65 160 -173c0 -178 -139 -333 -380 -374l-4 25c134 50 216 120 256 186zM254 4c18 45 24 95 24 140c0 85 -28 124 -77 124c-57 0 -91 -79 -91 -166c0 -75 30 -105 89 -105
c19 0 40 3 55 7z" />
    <glyph glyph-name="colonmonetary" unicode="&#x20a1;" horiz-adv-x="580" 
d="M418 667l-116 -328l-87 -256c24 -15 52 -24 84 -27l97 277l83 237c-18 23 -27 56 -25 96c-12 1 -23 2 -36 1zM184 107l84 238l108 315c-122 -37 -234 -189 -234 -417c0 -61 16 -106 42 -136zM149 18c-68 40 -110 114 -110 224c0 250 174 437 351 463l38 110l41 -13
l-33 -94c33 0 61 -5 83 -12l38 107l40 -13l-38 -113c30 -19 45 -46 45 -74c0 -37 -24 -63 -64 -63c-11 0 -21 2 -31 7l-79 -220l-92 -270c50 3 88 15 134 39l14 -18c-43 -51 -97 -85 -171 -92l-42 -124l-41 13l39 111c-30 0 -58 6 -82 14l-45 -126l-41 12z" />
    <glyph glyph-name="naira" unicode="&#x20a6;" horiz-adv-x="856" 
d="M206 468l34 163l-91 30l7 31h236l68 -216h203l32 154l-92 31l7 31h250l-6 -31l-105 -31l-32 -157h141l-9 -44h-142l-23 -113h142l-9 -43h-142l-57 -277h-113l-87 270h-200l-42 -204l91 -31l-6 -31h-251l7 31l104 31l43 207h-148l9 43h147l25 113h-148l9 43h148zM289 607
l-28 -135h96l-42 135h-26zM470 436l39 -126h120l26 126h-185zM227 306h181l-39 126h-116zM569 118h21l31 152h-99z" />
    <glyph glyph-name="rupee" unicode="&#x20a8;" horiz-adv-x="1130" 
d="M264 359h79c122 1 190 81 190 181c0 74 -50 111 -137 112c-23 0 -57 -3 -72 -6zM-34 0l7 31l125 20l123 590l-116 20l7 31h316c139 0 218 -53 218 -148c0 -104 -90 -179 -222 -204l-2 -12c52 -17 73 -46 91 -112c19 -66 33 -125 58 -151c20 -21 42 -29 83 -34l-8 -31h-98
c-74 0 -92 19 -117 115l-31 119c-16 61 -37 83 -85 83h-59l-55 -267l112 -19l-7 -31h-340zM849 -14c-107 0 -174 47 -174 103c0 39 29 69 57 69c45 0 65 -46 43 -111c21 -14 53 -22 85 -22c66 0 106 32 106 78c0 34 -20 53 -87 87l-30 16c-71 37 -111 70 -111 132
c0 83 83 154 191 154c114 0 152 -51 152 -89c0 -30 -21 -53 -49 -52c-33 1 -61 32 -67 93c-13 5 -28 8 -49 8c-60 0 -97 -31 -97 -73c0 -37 24 -57 91 -92l28 -14c65 -34 111 -69 111 -131c0 -88 -86 -156 -200 -156z" />
    <glyph glyph-name="won" unicode="&#x20a9;" horiz-adv-x="1152" 
d="M341 357h179l67 118h-253zM729 357h158l56 118h-225zM239 314h-193l9 43h180l-10 118h-145l10 43h131l-11 120l-87 25l5 29h295l-6 -28l-94 -20l8 -127h275l-14 121l-78 26l6 28h287l-5 -29l-99 -21l12 -125h248l53 114l-83 32l5 29h230l-5 -29l-94 -33l-55 -112h121
l-9 -43h-134l-57 -118h166l-10 -43h-176l-158 -320h-95l-48 434h-6l-248 -434h-93zM497 315h-153l14 -220h14zM868 315h-135l20 -219h13z" />
    <glyph glyph-name="sheqel" unicode="&#x20aa;" horiz-adv-x="613" 
d="M0 0l115 539h174c102 0 142 -29 142 -100c0 -50 -27 -129 -74 -230h-26c15 63 22 108 22 139c0 64 -24 96 -115 98h-99l-95 -446h-44zM580 530l-112 -530h-173c-103 0 -142 29 -142 100c0 50 26 129 73 230h26c-15 -63 -21 -108 -21 -139c0 -64 23 -96 114 -98h100
l95 453z" />
    <glyph glyph-name="Euro" unicode="&#x20ac;" horiz-adv-x="655" 
d="M362 -16c-139 0 -233 92 -237 252h-99l10 44h89c3 37 10 73 20 106h-89l11 44h95c63 151 202 262 356 262c91 0 129 -39 129 -79c0 -36 -26 -60 -62 -60c-46 0 -75 36 -94 92c-93 -9 -193 -85 -240 -215h289l-9 -44h-292c-8 -32 -12 -68 -14 -106h285l-9 -44h-273
c10 -112 74 -178 177 -178c45 0 90 17 148 56l20 -16c-53 -68 -123 -114 -211 -114z" />
    <glyph glyph-name="peso" unicode="&#x20b1;" horiz-adv-x="732" 
d="M305 498h230v17c0 101 -53 136 -142 137c-20 0 -41 -3 -56 -6zM529 459h-231l-31 -150c17 -3 38 -5 66 -5c115 1 179 61 196 155zM203 500l29 141l-113 20l7 31h282c156 0 239 -61 239 -183v-9h119l-9 -43h-116c-25 -115 -131 -197 -276 -197c-39 0 -77 5 -106 11
l-46 -220l121 -20l-6 -31h-348l7 31l122 20l85 406h-157l9 43h157z" />
    <glyph glyph-name="published" unicode="&#x2117;" horiz-adv-x="875" 
d="M440 -36c-213 0 -386 173 -386 386c0 212 173 385 386 385c212 0 386 -173 386 -385c0 -213 -174 -386 -386 -386zM440 -5c194 0 351 159 351 355c0 194 -157 353 -351 353s-351 -159 -351 -353c0 -196 157 -355 351 -355zM457 341c52 1 80 33 80 92c0 55 -30 85 -82 86
c-7 0 -36 0 -41 -1v-176c4 -1 34 -1 43 -1zM280 151v22l57 14v326l-57 14v20h189c101 0 151 -52 151 -114s-50 -120 -139 -120c-20 0 -48 2 -67 5v-131l60 -14v-22h-194z" />
    <glyph glyph-name="servicemark" unicode="&#x2120;" horiz-adv-x="892" 
d="M855 681v-256l49 -16v-17h-158v17l41 16v249h-10l-108 -282h-35l-109 282h-12v-246l38 -19v-17h-116v17l42 19v251l-42 16v18h146l18 -56l68 -178h6l67 182l16 52h148v-18zM376 485c0 -62 -57 -102 -120 -102c-35 0 -70 9 -95 21l-17 -25h-17l-4 124l16 2
c44 -74 78 -96 118 -96c37 0 64 16 64 50c0 37 -34 50 -84 65c-55 15 -105 35 -105 99c0 55 53 98 108 98c31 0 57 -6 80 -18l17 25h17l6 -114l-16 -2c-48 67 -79 84 -105 84c-30 0 -52 -20 -52 -46c0 -37 36 -49 85 -64c57 -17 104 -37 104 -101z" />
    <glyph glyph-name="trademark" unicode="&#x2122;" horiz-adv-x="937" 
d="M192 392v17l52 16v262h-34c-23 0 -31 -8 -51 -35l-36 -47l-14 2l15 106h303l14 -106l-13 -2l-36 47c-20 27 -28 35 -51 35h-30v-262l51 -16v-17h-170zM480 392v17l43 19v251l-43 16v18h146l18 -56l68 -178h7l66 182l17 52h147v-18l-49 -14v-256l49 -16v-17h-157v17l40 16
v249h-10l-107 -282h-35l-109 282h-13v-246l39 -19v-17h-117z" />
    <glyph glyph-name="onethird" unicode="&#x2153;" horiz-adv-x="1152" 
d="M980 700l-372 -411l-368 -418l-39 37l373 411l367 419zM256 243l113 -33l-3 -20h-333l4 20l128 35l83 388l-106 38l3 18l198 25l11 -9zM809 188c138 31 178 72 178 123c0 37 -28 61 -72 61c-54 0 -97 -25 -138 -67l-20 16c36 64 101 114 186 114s131 -43 131 -104
c0 -59 -44 -111 -141 -133l-3 -15c80 -25 115 -61 115 -123c0 -85 -80 -161 -203 -161c-94 0 -157 38 -157 93c0 29 22 54 53 54c49 0 63 -50 41 -94c18 -12 39 -17 68 -17c63 0 111 34 111 99c0 54 -39 97 -158 113z" />
    <glyph glyph-name="twothirds" unicode="&#x2154;" horiz-adv-x="1152" 
d="M975 700l-372 -411l-368 -418l-39 37l373 411l367 419zM16 256c82 60 144 104 188 143c86 76 111 116 111 165c0 46 -26 77 -75 77c-55 0 -90 -35 -127 -92l-24 11c33 91 97 150 185 150c83 0 135 -55 135 -123c0 -92 -64 -163 -308 -312l1 -12l199 1l71 90l17 -4
l-50 -160h-312zM809 188c138 31 178 72 178 123c0 37 -28 61 -72 61c-54 0 -97 -25 -138 -67l-20 16c36 64 101 114 186 114s131 -43 131 -104c0 -59 -44 -111 -141 -133l-3 -15c80 -25 115 -61 115 -123c0 -85 -80 -161 -203 -161c-94 0 -157 38 -157 93c0 29 22 54 53 54
c49 0 63 -50 41 -94c18 -12 39 -17 68 -17c63 0 111 34 111 99c0 54 -39 97 -158 113z" />
    <glyph glyph-name="onefifth" unicode="&#x2155;" horiz-adv-x="1152" 
d="M982 700l-372 -411l-368 -418l-39 37l373 411l367 419zM257 243l113 -33l-3 -20h-333l4 20l128 35l83 388l-106 38l3 18l198 25l11 -9zM1098 460l-32 -122h-221l-28 -95c141 -17 229 -64 229 -171c0 -102 -87 -176 -199 -176c-96 0 -157 42 -157 93c0 33 22 58 52 58
c52 0 66 -52 43 -97c14 -11 38 -18 66 -18c65 0 108 49 108 109c0 80 -69 118 -205 131l72 247h209l44 44z" />
    <glyph glyph-name="twofifths" unicode="&#x2156;" horiz-adv-x="1152" 
d="M975 700l-372 -411l-368 -418l-39 37l373 411l367 419zM16 256c82 60 144 104 188 143c86 76 111 116 111 165c0 46 -26 77 -75 77c-55 0 -90 -35 -127 -92l-24 11c33 91 97 150 185 150c83 0 135 -55 135 -123c0 -92 -64 -163 -308 -312l1 -12l199 1l71 90l17 -4
l-50 -160h-312zM1098 460l-32 -122h-221l-28 -95c141 -17 229 -64 229 -171c0 -102 -87 -176 -199 -176c-96 0 -157 42 -157 93c0 33 22 58 52 58c52 0 66 -52 43 -97c14 -11 38 -18 66 -18c65 0 108 49 108 109c0 80 -69 118 -205 131l72 247h209l44 44z" />
    <glyph glyph-name="threefifths" unicode="&#x2157;" horiz-adv-x="1152" 
d="M967 700l-372 -411l-368 -418l-39 37l373 411l367 419zM152 463c138 31 178 72 178 123c0 37 -28 61 -72 61c-54 0 -97 -25 -138 -67l-20 16c36 64 101 114 186 114s131 -43 131 -104c0 -59 -44 -111 -141 -133l-3 -15c80 -25 115 -61 115 -123c0 -85 -80 -161 -203 -161
c-94 0 -157 38 -157 93c0 29 22 54 53 54c49 0 63 -50 41 -94c18 -12 39 -17 68 -17c63 0 111 34 111 99c0 54 -39 97 -158 113zM1098 460l-32 -122h-221l-28 -95c141 -17 229 -64 229 -171c0 -102 -87 -176 -199 -176c-96 0 -157 42 -157 93c0 33 22 58 52 58
c52 0 66 -52 43 -97c14 -11 38 -18 66 -18c65 0 108 49 108 109c0 80 -69 118 -205 131l72 247h209l44 44z" />
    <glyph glyph-name="fourfifths" unicode="&#x2158;" horiz-adv-x="1152" 
d="M983 700l-372 -411l-368 -418l-39 37l373 411l367 419zM25 392l284 317l93 -8l-65 -300h82l-13 -59h-81l-22 -100l68 -29l-5 -23h-245l5 25l94 28l22 101h-206zM256 398l51 240h-19l-203 -240h171zM1098 460l-32 -122h-221l-28 -95c141 -17 229 -64 229 -171
c0 -102 -87 -176 -199 -176c-96 0 -157 42 -157 93c0 33 22 58 52 58c52 0 66 -52 43 -97c14 -11 38 -18 66 -18c65 0 108 49 108 109c0 80 -69 118 -205 131l72 247h209l44 44z" />
    <glyph glyph-name="onesixth" unicode="&#x2159;" horiz-adv-x="1152" 
d="M998 700l-372 -411l-368 -418l-39 37l373 411l367 419zM257 243l113 -33l-3 -20h-333l4 20l128 35l83 388l-106 38l3 18l198 25l11 -9zM833 228l9 -9c23 15 54 23 86 23c81 0 129 -52 129 -140c0 -100 -76 -203 -190 -203c-95 0 -162 63 -162 173c0 184 148 338 376 378
l4 -25c-129 -51 -213 -122 -252 -197zM819 190c-18 -43 -22 -90 -22 -135c0 -83 28 -123 77 -123c57 0 91 79 91 161c0 75 -32 104 -89 104c-23 0 -41 -3 -57 -7z" />
    <glyph glyph-name="fivesixths" unicode="&#x215a;" horiz-adv-x="1152" 
d="M987 700l-372 -411l-368 -418l-39 37l373 411l367 419zM833 228l9 -9c23 15 54 23 86 23c81 0 129 -52 129 -140c0 -100 -76 -203 -190 -203c-95 0 -162 63 -162 173c0 184 148 338 376 378l4 -25c-129 -51 -213 -122 -252 -197zM441 735l-32 -122h-221l-28 -95
c141 -17 229 -64 229 -171c0 -102 -87 -176 -199 -176c-96 0 -157 42 -157 93c0 33 22 58 52 58c52 0 66 -52 43 -97c14 -11 38 -18 66 -18c65 0 108 49 108 109c0 80 -69 118 -205 131l72 247h209l44 44zM819 190c-18 -43 -22 -90 -22 -135c0 -83 28 -123 77 -123
c57 0 91 79 91 161c0 75 -32 104 -89 104c-23 0 -41 -3 -57 -7z" />
    <glyph glyph-name="oneeighth" unicode="&#x215b;" horiz-adv-x="1152" 
d="M977 700l-372 -411l-368 -418l-39 37l373 411l367 419zM257 243l113 -33l-3 -20h-333l4 20l128 35l83 388l-106 38l3 18l198 25l11 -9zM963 182l-3 -13c55 -31 82 -68 82 -121c0 -88 -80 -149 -175 -149c-98 0 -168 55 -168 127c0 67 43 112 128 138l3 14
c-48 27 -70 61 -70 108c0 82 72 149 165 149c96 0 156 -55 156 -124c0 -62 -46 -107 -118 -129zM933 196c48 36 73 72 73 122s-32 84 -82 84c-45 0 -83 -39 -83 -93c0 -51 26 -77 92 -113zM855 151c-42 -26 -78 -72 -78 -126c0 -58 38 -94 98 -94c47 0 88 35 88 97
c0 44 -24 80 -108 123z" />
    <glyph glyph-name="threeeighths" unicode="&#x215c;" horiz-adv-x="1152" 
d="M960 700l-372 -411l-368 -418l-39 37l373 411l367 419zM963 182l-3 -13c55 -31 82 -68 82 -121c0 -88 -80 -149 -175 -149c-98 0 -168 55 -168 127c0 67 43 112 128 138l3 14c-48 27 -70 61 -70 108c0 82 72 149 165 149c96 0 156 -55 156 -124c0 -62 -46 -107 -118 -129
zM933 196c48 36 73 72 73 122s-32 84 -82 84c-45 0 -83 -39 -83 -93c0 -51 26 -77 92 -113zM152 463c138 31 178 72 178 123c0 37 -28 61 -72 61c-54 0 -97 -25 -138 -67l-20 16c36 64 101 114 186 114s131 -43 131 -104c0 -59 -44 -111 -141 -133l-3 -15
c80 -25 115 -61 115 -123c0 -85 -80 -161 -203 -161c-94 0 -157 38 -157 93c0 29 22 54 53 54c49 0 63 -50 41 -94c18 -12 39 -17 68 -17c63 0 111 34 111 99c0 54 -39 97 -158 113zM855 151c-42 -26 -78 -72 -78 -126c0 -58 38 -94 98 -94c47 0 88 35 88 97
c0 44 -24 80 -108 123z" />
    <glyph glyph-name="fiveeighths" unicode="&#x215d;" horiz-adv-x="1152" 
d="M961 700l-372 -411l-368 -418l-39 37l373 411l367 419zM963 182l-3 -13c55 -31 82 -68 82 -121c0 -88 -80 -149 -175 -149c-98 0 -168 55 -168 127c0 67 43 112 128 138l3 14c-48 27 -70 61 -70 108c0 82 72 149 165 149c96 0 156 -55 156 -124c0 -62 -46 -107 -118 -129
zM933 196c48 36 73 72 73 122s-32 84 -82 84c-45 0 -83 -39 -83 -93c0 -51 26 -77 92 -113zM441 735l-32 -122h-221l-28 -95c141 -17 229 -64 229 -171c0 -102 -87 -176 -199 -176c-96 0 -157 42 -157 93c0 33 22 58 52 58c52 0 66 -52 43 -97c14 -11 38 -18 66 -18
c65 0 108 49 108 109c0 80 -69 118 -205 131l72 247h209l44 44zM855 151c-42 -26 -78 -72 -78 -126c0 -58 38 -94 98 -94c47 0 88 35 88 97c0 44 -24 80 -108 123z" />
    <glyph glyph-name="seveneighths" unicode="&#x215e;" horiz-adv-x="1152" 
d="M915 700l-372 -411l-368 -418l-39 37l373 411l367 419zM476 644l-290 -461h-89l2 14l136 177l180 239h-231l-64 -72l-21 5l52 177l23 4l15 -33h273zM952 182l-3 -13c55 -31 82 -68 82 -121c0 -88 -80 -149 -175 -149c-98 0 -168 55 -168 127c0 67 43 112 128 138l3 14
c-48 27 -70 61 -70 108c0 82 72 149 165 149c96 0 156 -55 156 -124c0 -62 -46 -107 -118 -129zM922 196c48 36 73 72 73 122s-32 84 -82 84c-45 0 -83 -39 -83 -93c0 -51 26 -77 92 -113zM844 151c-42 -26 -78 -72 -78 -126c0 -58 38 -94 98 -94c47 0 88 35 88 97
c0 44 -24 80 -108 123z" />
    <glyph glyph-name="minus" unicode="&#x2212;" horiz-adv-x="580" 
d="M512 308h-450l13 59h450z" />
    <glyph glyph-name="spade" unicode="&#x2660;" horiz-adv-x="712" 
d="M338 303l-17 1l-6 -23c-21 -87 -62 -126 -125 -126c-70 0 -122 55 -122 134c0 126 110 262 284 412h8c174 -150 284 -286 284 -412c0 -79 -51 -134 -122 -134c-63 0 -105 41 -125 126l-6 23l-17 -1l6 -87c9 -97 24 -148 55 -204v-12h-158v12c31 56 47 107 55 204z" />
    <glyph glyph-name="club" unicode="&#x2663;" horiz-adv-x="712" 
d="M316 389c-58 35 -102 86 -102 151c0 80 65 144 142 144s142 -64 142 -144c0 -65 -44 -116 -102 -151l22 -28l22 20c29 26 61 44 101 44c76 0 134 -59 134 -137c0 -80 -56 -139 -134 -139c-69 0 -120 44 -139 129l-2 10l-26 -3l5 -51c10 -95 25 -166 56 -222v-12h-158v12
c31 56 46 127 56 222l5 51l-26 3l-2 -10c-20 -88 -69 -129 -139 -129c-78 0 -134 59 -134 139c0 78 58 137 134 137c40 0 72 -18 101 -44l22 -20z" />
    <glyph glyph-name="heart" unicode="&#x2665;" horiz-adv-x="712" 
d="M654 499c0 -134 -129 -311 -294 -520h-8c-165 209 -294 386 -294 520c0 109 58 184 139 184c88 0 135 -65 152 -176h14c17 111 65 176 153 176c80 0 138 -75 138 -184z" />
    <glyph glyph-name="diamond" unicode="&#x2666;" horiz-adv-x="712" 
d="M643 334l-283 -355h-8l-283 355v11l283 356h8l283 -356v-11z" />
    <glyph glyph-name="box.1" unicode="&#xe000;" horiz-adv-x="834" 
d="M80 0v673h673v-673h-673z" />
    <glyph glyph-name="box.2" unicode="&#xe001;" 
d="M80 0v673h673v-673h-673zM129 44h575v585h-575v-585z" />
    <glyph glyph-name="box.3" unicode="&#xe002;" 
d="M80 0v673h673v-673h-673zM129 44h575v585h-575v-585zM417 304l-169 -173l-37 37l173 169l-173 168l37 37l169 -172l168 172l37 -37l-172 -168l172 -169l-37 -37z" />
    <glyph glyph-name="box.4" unicode="&#xe003;" 
d="M80 0v673h673v-673h-673zM129 44h575v585h-575v-585zM417 191l-145 -1l2 147l-2 146l145 -1l144 1l-1 -146l1 -147z" />
    <glyph glyph-name="dot.1" unicode="&#xe004;" 
d="M417 691c194 0 354 -160 354 -354c0 -195 -160 -354 -354 -354c-195 0 -355 159 -355 354c0 194 160 354 355 354z" />
    <glyph glyph-name="dot.2" unicode="&#xe005;" 
d="M417 691c202 0 354 -160 354 -354c0 -195 -152 -354 -354 -354c-203 0 -355 159 -355 354c0 194 152 354 355 354zM417 647c-178 0 -305 -141 -305 -310c0 -170 127 -309 305 -309c177 0 304 139 304 309c0 169 -127 310 -304 310z" />
    <glyph glyph-name="dot.3" unicode="&#xe006;" 
d="M417 691c202 0 354 -160 354 -354c0 -195 -152 -354 -354 -354c-203 0 -355 159 -355 354c0 194 152 354 355 354zM417 647c-178 0 -305 -141 -305 -310c0 -170 127 -309 305 -309c177 0 304 139 304 309c0 169 -127 310 -304 310zM417 304l-142 -147l-38 38l147 142
l-147 142l38 37l142 -146l141 146l38 -37l-146 -142l146 -142l-38 -38z" />
    <glyph glyph-name="dot.4" unicode="&#xe007;" 
d="M417 691c202 0 354 -160 354 -354c0 -195 -152 -354 -354 -354c-203 0 -355 159 -355 354c0 194 152 354 355 354zM417 647c-178 0 -305 -141 -305 -310c0 -170 127 -309 305 -309c177 0 304 139 304 309c0 169 -127 310 -304 310zM417 492c89 0 152 -71 152 -155
c0 -85 -63 -154 -152 -154c-88 0 -153 69 -153 154c0 84 65 155 153 155z" />
    <glyph glyph-name="star.1" unicode="&#xe008;" 
d="M508 446l279 7l8 -18l-231 -152l100 -264l-16 -12l-231 178l-231 -178l-17 12l100 264l-231 152l8 18l279 -7l82 266h19z" />
    <glyph glyph-name="star.1_L" unicode="&#xe009;" horiz-adv-x="503" 
d="M417 185l-231 -178l-17 12l100 264l-231 152l8 18l279 -7l74 266h18v-527z" />
    <glyph glyph-name="fist.1_W" unicode="&#xe00a;" horiz-adv-x="1658" 
d="M1519 56h-272l-36 164l-166 -91l-215 -34l-31 -25l-48 -18l-55 29l-2 36l12 33l-11 8l-23 -25l-41 -22l-49 38v39l12 32l-11 10l-32 -26l-41 -16l-48 33l17 95l115 97l-6 9l-362 -30l-82 5l-38 45l4 63l527 70h15l311 -35l206 -25l62 -14l18 84h270v-529z" />
    <glyph glyph-name="fist.1_E" unicode="&#xe00b;" horiz-adv-x="1658" 
d="M139 56v529h270l19 -84l61 14l206 25l311 35h16l526 -70l4 -63l-38 -45l-82 -5l-362 30l-6 -9l115 -97l17 -95l-48 -33l-41 16l-32 26l-11 -10l13 -32v-39l-50 -38l-41 22l-23 25l-11 -8l12 -33l-2 -36l-55 -29l-48 18l-31 25l-215 34l-166 91l-36 -164h-272z" />
    <glyph glyph-name="fist.2_W" unicode="&#xe00c;" horiz-adv-x="1658" 
d="M1501 39v518h-272v-511zM622 142l-9 -9l-35 6l-44 37l6 117l214 93l4 -15l-180 -105l-3 -81zM653 602l526 -87v83l373 5v-612l-373 13v201l-166 -98l-150 5l6 -38l-51 -37l-93 -4l-83 54l-8 119l188 89l4 -16l-151 -96l4 -76l33 -24l24 3l4 31l65 38h199l179 94v224
l-218 35l-306 54l-301 -42l-251 -33l-2 -26l30 -35l542 45l2 -16l-199 -107l-3 -76l41 -42l-11 -9l-41 13l-32 40l3 98l172 66l-3 10l-281 -45l-212 -11l-50 59l4 66l312 45z" />
    <glyph glyph-name="fist.2_E" unicode="&#xe00d;" horiz-adv-x="1658" 
d="M157 39l272 7v511h-272v-518zM1036 142l47 43l-3 81l-179 105l3 15l214 -93l6 -117l-44 -37l-35 -6zM1005 602l274 -40l312 -45l4 -66l-50 -59l-212 11l-281 45l-3 -10l172 -66l3 -98l-32 -40l-41 -13l-11 9l41 42l-3 76l-199 107l2 16l542 -45l30 35l-2 26l-251 33
l-300 42l-307 -54l-218 -35v-224l179 -94h199l65 -38l5 -31l23 -3l33 24l4 76l-151 96l4 16l188 -89l-8 -119l-82 -54l-94 4l-51 37l6 38l-150 -5l-166 98v-201l-373 -13v612l373 -5v-83z" />
    <glyph glyph-name="wedge.1_N" unicode="&#xe00e;" horiz-adv-x="580" 
d="M278 712h24l63 -219l148 -468v-25h-446v25l148 468z" />
    <glyph glyph-name="wedge.1_S" unicode="&#xe00f;" horiz-adv-x="580" 
d="M278 -39l-63 219l-148 468v25h446v-25l-148 -468l-63 -219h-24z" />
    <glyph glyph-name="wedge.1_W" unicode="&#xe010;" 
d="M68 339l624 263h15v-535h-15l-624 263v9z" />
    <glyph glyph-name="wedge.1_E" unicode="&#xe011;" 
d="M765 339v-9l-623 -263h-16v535h16z" />
    <glyph glyph-name="wedge.2_W" unicode="&#xe012;" 
d="M68 341l621 261h18v-535h-18l-621 261v13zM661 123v423h-6l-83 -38l-327 -135l-101 -39l101 -38l327 -135l83 -38h6z" />
    <glyph glyph-name="wedge.2_E" unicode="&#xe013;" 
d="M765 341v-13l-621 -261h-18v535h18zM172 123h6l83 38l327 135l101 38l-101 39l-327 135l-83 38h-6v-423z" />
    <glyph glyph-name="wedge.3_W" unicode="&#xe014;" horiz-adv-x="668" 
d="M98 339l412 413h20v-836h-20l-412 414v9z" />
    <glyph glyph-name="wedge.3_E" unicode="&#xe015;" horiz-adv-x="668" 
d="M571 339v-9l-413 -414h-20v836h20z" />
    <glyph glyph-name="wedge.4_W" unicode="&#xe016;" horiz-adv-x="668" 
d="M79 341l412 411h39v-836h-39l-412 412v13zM485 -17v702h-8l-45 -51l-298 -300l298 -299l45 -52h8z" />
    <glyph glyph-name="wedge.4_E" unicode="&#xe017;" horiz-adv-x="668" 
d="M589 341v-13l-412 -412h-39v836h39zM183 -17h8l45 52l298 299l-298 300l-45 51h-8v-702z" />
    <glyph glyph-name="chevron.1_W" unicode="&#xe018;" horiz-adv-x="668" 
d="M192 336l326 -395v-7h-67l-330 398v9l330 398h67v-6z" />
    <glyph glyph-name="chevron.1_E" unicode="&#xe019;" horiz-adv-x="668" 
d="M476 336l-326 397v6h67l330 -398v-9l-330 -398h-67v7z" />
    <glyph glyph-name="chevron.2_W" unicode="&#xe01a;" horiz-adv-x="668" 
d="M278 336l291 -395v-7h-184l-300 402v2l300 401h184v-6z" />
    <glyph glyph-name="chevron.2_E" unicode="&#xe01b;" horiz-adv-x="668" 
d="M390 336l-291 397v6h184l300 -401v-2l-300 -402h-184v7z" />
    <glyph glyph-name="arrow.1_N" unicode="&#xe01c;" 
d="M443 608l3 -78v-530h-59v530l3 75l-37 -47l-214 -227h-6v74l279 297h9l279 -297v-74h-6l-214 230z" />
    <glyph glyph-name="arrow.1_W" unicode="&#xe01d;" 
d="M167 360l78 3h499v-53h-499l-75 4l47 -38l229 -217v-6h-76l-297 279v9l297 279h76v-6l-232 -217z" />
    <glyph glyph-name="arrow.1_S" unicode="&#xe01e;" 
d="M390 65l-3 78v530h59v-530l-3 -75l37 48l214 226h6v-74l-279 -297h-9l-279 297v74h6l214 -230z" />
    <glyph glyph-name="arrow.1_E" unicode="&#xe01f;" 
d="M666 314l-78 -4h-499v53h499l75 -3l-47 37l-229 217v6h76l297 -279v-9l-297 -279h-76v6l232 217z" />
    <glyph glyph-name="arrow.2_N" unicode="&#xe020;" 
d="M485 443l6 -192v-251h-149v251l6 189l-214 -223h-7v182l239 252l46 51h9l46 -51l239 -252v-182h-7z" />
    <glyph glyph-name="arrow.2_W" unicode="&#xe021;" 
d="M327 274l234 -220v-7h-185l-252 239l-51 46v9l51 46l252 239h185v-7l-230 -220l190 8h223v-141h-223z" />
    <glyph glyph-name="arrow.2_S" unicode="&#xe022;" 
d="M348 230l-6 192v251h149v-251l-6 -189l214 224h7v-183l-239 -252l-46 -51h-9l-46 51l-239 252v183h7z" />
    <glyph glyph-name="arrow.2_E" unicode="&#xe023;" 
d="M506 274l-194 -8h-223v141h223l190 -8l-230 220v7h185l252 -239l51 -46v-9l-51 -46l-252 -239h-185v7z" />
    <glyph glyph-name="arrow.3_N" unicode="&#xe024;" 
d="M412 721h9l370 -405v-20l-260 2l2 -298h-233l2 298l-259 -2v20z" />
    <glyph glyph-name="arrow.3_W" unicode="&#xe025;" 
d="M44 339l404 369h20l-2 -259l300 2v-233l-300 2l2 -260h-20l-404 370v9z" />
    <glyph glyph-name="arrow.3_S" unicode="&#xe026;" 
d="M412 -29l-369 405v20l259 -2l-2 298h233l-2 -298l260 2v-20l-370 -405h-9z" />
    <glyph glyph-name="arrow.3_E" unicode="&#xe027;" 
d="M789 339v-9l-404 -370h-20l2 260l-300 -2v233l300 -2l-2 259h20z" />
    <glyph glyph-name="arrow.4_N" unicode="&#xe028;" 
d="M513 44l-2 306l211 -1v7l-50 44l-255 263l-256 -263l-50 -44v-7l211 1l-2 -306h193zM410 721h13l368 -380v-34l-237 1l3 -308h-281l3 308l-236 -1v34z" />
    <glyph glyph-name="arrow.4_W" unicode="&#xe029;" 
d="M693 235v198l-306 -2l1 209h-8l-45 -50l-263 -256l263 -255l45 -50h8l-1 209zM17 341l380 367h34l-1 -236l310 3v-281l-310 3l1 -237h-34l-380 368v13z" />
    <glyph glyph-name="arrow.4_S" unicode="&#xe02a;" 
d="M423 -29h-13l-367 380v34l236 -1l-3 308h281l-3 -308l237 1v-34zM320 648l2 -306l-211 1v-7l50 -44l256 -263l255 263l50 44v7l-211 -1l2 306h-193z" />
    <glyph glyph-name="arrow.4_E" unicode="&#xe02b;" 
d="M789 341v-13l-379 -368h-34l1 237l-310 -3v281l310 -3l-1 236h34zM114 235l306 3l-1 -209h7l46 50l262 255l-262 256l-46 50h-7l1 -209l-306 2v-198z" />
    <glyph glyph-name="arrow.5_E" unicode="&#xe02c;" horiz-adv-x="998" 
d="M499 -70c-223 0 -407 182 -407 407c0 224 184 407 407 407c224 0 407 -183 407 -407c0 -225 -183 -407 -407 -407zM583 285l-32 -26l-130 -124l-28 -23v-9h148l203 193l44 41l-44 40l-203 193h-148v-9l28 -23l128 -123l31 -27l-156 6h-179v-115h179z" />
    <glyph glyph-name="arrow.5_NE" unicode="&#xe02d;" horiz-adv-x="998" 
d="M499 -70c-223 0 -407 182 -407 407c0 224 184 407 407 407c224 0 407 -183 407 -407c0 -225 -183 -407 -407 -407zM595 107l106 104v275l2 59l-59 -2h-273l-99 -100l6 -5h199l44 2l-106 -96l-148 -147l84 -84l144 146l99 104l-4 -44v-170l-1 -37z" />
    <glyph glyph-name="arrow.5_N" unicode="&#xe02e;" horiz-adv-x="998" 
d="M499 -70c-223 0 -407 182 -407 407c0 224 184 407 407 407c224 0 407 -183 407 -407c0 -225 -183 -407 -407 -407zM553 411l25 -28l122 -128l23 -27h9v144l-192 203l-41 44l-41 -44l-192 -203v-144h9l23 27l122 126l25 28l-5 -150v-176h118v176z" />
    <glyph glyph-name="arrow.5_NW" unicode="&#xe02f;" horiz-adv-x="998" 
d="M499 -70c-224 0 -407 182 -407 407c0 224 183 407 407 407c223 0 407 -183 407 -407c0 -225 -184 -407 -407 -407zM409 112l-1 37v170l-4 44l99 -104l145 -146l83 84l-148 147l-106 96l44 -2h199l6 5l-99 100h-273l-58 2l1 -59v-275l106 -104z" />
    <glyph glyph-name="arrow.5_W" unicode="&#xe030;" horiz-adv-x="998" 
d="M499 -70c-223 0 -407 182 -407 407c0 224 184 407 407 407c224 0 407 -183 407 -407c0 -225 -183 -407 -407 -407zM415 285l159 -6h179v115h-179l-156 -6l32 27l127 123l28 23v9h-148l-203 -193l-44 -40l44 -41l203 -193h148v9l-28 23l-130 124z" />
    <glyph glyph-name="arrow.5_SW" unicode="&#xe031;" horiz-adv-x="998" 
d="M499 744c223 0 407 -183 407 -407c0 -225 -184 -407 -407 -407c-224 0 -407 182 -407 407c0 224 183 407 407 407zM296 129l58 1h273l99 100l-6 5h-199l-44 -2l106 96l148 147l-83 84l-145 -145l-99 -105l4 44v171l1 36l-6 6l-106 -105v-275z" />
    <glyph glyph-name="arrow.5_S" unicode="&#xe032;" horiz-adv-x="998" 
d="M499 744c224 0 407 -183 407 -407c0 -225 -183 -407 -407 -407c-223 0 -407 182 -407 407c0 224 184 407 407 407zM445 262l-25 28l-122 128l-23 28h-9v-145l192 -203l41 -44l41 44l192 203v145h-9l-23 -28l-122 -125l-25 -29l5 151v176h-118v-176z" />
    <glyph glyph-name="arrow.5_SE" unicode="&#xe033;" horiz-adv-x="998" 
d="M499 744c224 0 407 -183 407 -407c0 -225 -183 -407 -407 -407c-223 0 -407 182 -407 407c0 224 184 407 407 407zM703 129l-2 58v275l-106 105l-6 -6l1 -36v-171l4 -44l-99 105l-144 145l-84 -84l148 -147l106 -96l-44 2h-199l-6 -5l99 -100h273z" />
    <glyph glyph-name="arrowhead.1_W" unicode="&#xe034;" 
d="M561 310l3 -231h-18l-487 252v11l487 252h18l-3 -231h268v-53h-268z" />
    <glyph glyph-name="arrowhead.1_E" unicode="&#xe035;" 
d="M272 310h-268v53h268l-3 231h18l487 -252v-11l-487 -252h-18z" />
    <glyph glyph-name="arrowhead.2_W" unicode="&#xe036;" 
d="M775 97l-716 233v13l716 233l10 -27l-21 -9c-59 -25 -146 -91 -151 -177h216v-53h-216c5 -86 93 -153 151 -177l21 -9z" />
    <glyph glyph-name="arrowhead.2_E" unicode="&#xe037;" 
d="M58 97l-10 27l21 9c59 25 146 91 151 177h-216v53h216c-5 86 -91 152 -151 177l-21 9l10 27l716 -233v-13z" />
    <glyph glyph-name="arrowhead.3_W" unicode="&#xe038;" 
d="M770 105c-143 70 -404 168 -711 220v24c307 51 568 149 711 220l18 -26c-69 -52 -116 -133 -116 -180h157v-53h-157c0 -47 47 -127 116 -180z" />
    <glyph glyph-name="arrowhead.3_E" unicode="&#xe039;" 
d="M63 105l-18 25c69 53 116 133 116 180h-157v53h157c0 47 -47 128 -116 180l18 26c143 -71 404 -169 711 -220v-24c-307 -52 -568 -150 -711 -220z" />
    <glyph glyph-name="arrowhead.4_W" unicode="&#xe03a;" 
d="M551 359l223 4h55v-53h-55l-223 5c89 -42 155 -149 176 -221l-18 -10c-130 120 -212 208 -650 241v24c438 33 520 121 650 241l18 -10c-21 -73 -87 -180 -176 -221z" />
    <glyph glyph-name="arrowhead.4_E" unicode="&#xe03b;" 
d="M282 359c-89 41 -155 148 -176 221l18 10c130 -120 212 -208 650 -241v-24c-438 -33 -520 -121 -650 -241l-18 10c21 72 87 179 176 221l-223 -5h-55v53h55z" />
    <glyph glyph-name="arrowhead.5_W" unicode="&#xe03c;" 
d="M162 360l79 3h588v-53h-588l-75 4l47 -38l254 -190v-7h-81l-326 253v9l326 253h81v-7l-257 -190z" />
    <glyph glyph-name="arrowhead.5_E" unicode="&#xe03d;" 
d="M671 314l-78 -4h-589v53h589l74 -3l-47 37l-254 190v7h81l326 -253v-9l-326 -253h-81v7l257 190z" />
    <glyph glyph-name="arrowtail.1_W" unicode="&#xe03e;" 
d="M90 355h114l162 180h62v-11l-120 -121l-53 -48h114l162 180h62v-11l-120 -121l-53 -48h113l163 180h62v-11l-120 -121l-51 -45h26l194 5v-53l-194 6h-26l51 -45l120 -121v-11h-62l-162 179h-114l53 -47l120 -121v-11h-62l-163 179h-113l53 -47l120 -121v-11h-62l-163 179
h-113l53 -47l120 -121v-11h-62l-155 171h-42v53h42l155 172h62v-11l-120 -121z" />
    <glyph glyph-name="arrowtail.1_E" unicode="&#xe03f;" 
d="M743 355l-53 48l-119 121v11h61l155 -172h42v-53h-42l-155 -171h-61v11l119 121l53 47h-113l-163 -179h-61v11l119 121l53 47h-113l-163 -179h-61v11l119 121l53 47h-114l-162 -179h-61v11l119 121l51 45h-26l-194 -6v53l194 -5h26l-51 45l-119 121v11h61l163 -180h113
l-53 48l-119 121v11h61l162 -180h114l-53 48l-119 121v11h61l162 -180h114z" />
    <glyph glyph-name="arrowtail.2_W" unicode="&#xe040;" 
d="M4 310v53l100 106l25 33h667v-11l-87 -88l-75 -66l75 -66l87 -88v-11h-667l-25 33z" />
    <glyph glyph-name="arrowtail.2_E" unicode="&#xe041;" 
d="M829 310l-100 -105l-25 -33h-667v11l87 88l75 66l-75 66l-87 88v11h667l25 -33l100 -106v-53z" />
    <glyph glyph-name="arrowtail.3_W" unicode="&#xe042;" 
d="M498 360l100 3h231v-53h-231l-100 4c-12 -110 -106 -197 -219 -197c-121 0 -220 99 -220 220s99 220 220 220c113 0 207 -87 219 -197z" />
    <glyph glyph-name="arrowtail.3_E" unicode="&#xe043;" 
d="M335 360c12 110 106 197 219 197c121 0 220 -99 220 -220s-99 -220 -220 -220c-113 0 -207 87 -219 197l-100 -4h-231v53h231z" />
    <glyph glyph-name="arrowshaft.1" unicode="&#xe044;" 
d="M829 310h-825v53h825v-53z" />
    <glyph glyph-name="arrowshaft.2" unicode="&#xe045;" 
d="M444 363h385v-53h-385v-196h-55v196h-385v53h385v194h55v-194z" />
    <glyph glyph-name="registered.alt" horiz-adv-x="875" 
d="M440 -34c-213 0 -386 173 -386 386c0 212 173 385 386 385c212 0 386 -173 386 -385c0 -213 -174 -386 -386 -386zM440 -3c194 0 351 159 351 355c0 194 -157 353 -351 353s-352 -159 -352 -353c0 -196 158 -355 352 -355zM391 361l47 2c47 1 84 29 84 84
c0 54 -37 81 -85 82c-8 0 -41 0 -46 -1v-167zM257 161v21l56 13v327l-56 13v22h208c91 0 139 -44 139 -99c0 -48 -36 -87 -114 -101v-7c46 -10 68 -36 83 -69c15 -37 28 -62 43 -78c13 -14 25 -18 44 -21v-21h-70c-47 0 -58 21 -80 69l-28 62c-17 37 -36 43 -69 43h-22v-140
l55 -13v-21h-189z" />
    <glyph glyph-name="i.dot" horiz-adv-x="332" 
d="M243 646c-30 0 -53 20 -53 58c0 47 35 98 82 98c30 0 52 -18 52 -56c0 -48 -34 -100 -81 -100zM128 -13c-53 0 -68 41 -58 86l79 348l-92 27l1 21l197 58l10 -10l-95 -419c-10 -41 6 -46 100 -48l2 -15c-47 -28 -103 -48 -144 -48z" />
    <glyph glyph-name="caron.alt" horiz-adv-x="284" 
d="M203 566l-21 8c14 81 27 171 44 214c13 32 40 54 69 43c28 -10 34 -38 22 -74c-16 -43 -69 -120 -114 -191z" />
    <glyph glyph-name="zero.num" horiz-adv-x="437" 
d="M46 349c0 166 95 361 243 361c94 0 144 -72 144 -175c0 -166 -95 -361 -243 -361c-94 0 -144 71 -144 175zM277 672c-54 0 -98 -98 -122 -208c-10 -52 -16 -99 -16 -136c0 -83 19 -117 63 -117c54 0 98 98 122 209c11 51 16 98 16 136c0 83 -20 116 -63 116z" />
    <glyph glyph-name="one.num" horiz-adv-x="437" 
d="M257 243l113 -33l-3 -20h-333l4 20l128 35l83 388l-106 38l3 18l198 25l11 -9z" />
    <glyph glyph-name="two.num" horiz-adv-x="437" 
d="M16 256c82 60 144 104 188 143c86 76 111 116 111 165c0 46 -26 77 -75 77c-55 0 -90 -35 -127 -92l-24 11c33 91 97 150 185 150c83 0 135 -55 135 -123c0 -92 -64 -163 -308 -312l1 -12l199 1l71 90l17 -4l-50 -160h-312z" />
    <glyph glyph-name="three.num" horiz-adv-x="437" 
d="M152 463c138 31 178 72 178 123c0 37 -28 61 -72 61c-54 0 -97 -25 -138 -67l-20 16c36 64 101 114 186 114s131 -43 131 -104c0 -59 -44 -111 -141 -133l-3 -15c80 -25 115 -61 115 -123c0 -85 -80 -161 -203 -161c-94 0 -157 38 -157 93c0 29 22 54 53 54
c49 0 63 -50 41 -94c18 -12 39 -17 68 -17c63 0 111 34 111 99c0 54 -39 97 -158 113z" />
    <glyph glyph-name="four.num" horiz-adv-x="437" 
d="M25 392l284 317l93 -8l-65 -300h82l-13 -59h-81l-22 -100l68 -29l-5 -23h-245l5 25l94 28l22 101h-206zM256 398l51 240h-19l-203 -240h171z" />
    <glyph glyph-name="five.num" horiz-adv-x="437" 
d="M441 735l-32 -122h-221l-28 -95c141 -17 229 -64 229 -171c0 -102 -87 -176 -199 -176c-96 0 -157 42 -157 93c0 33 22 58 52 58c52 0 66 -52 43 -97c14 -11 38 -18 66 -18c65 0 108 49 108 109c0 80 -69 118 -205 131l72 247h209l44 44z" />
    <glyph glyph-name="six.num" horiz-adv-x="437" 
d="M176 503l9 -9c23 15 54 23 86 23c81 0 129 -52 129 -140c0 -100 -76 -203 -190 -203c-95 0 -162 63 -162 173c0 184 148 338 376 378l4 -25c-129 -51 -213 -122 -252 -197zM162 465c-18 -43 -22 -90 -22 -135c0 -83 28 -123 77 -123c57 0 91 79 91 161
c0 75 -32 104 -89 104c-23 0 -41 -3 -57 -7z" />
    <glyph glyph-name="seven.num" horiz-adv-x="437" 
d="M465 644l-290 -461h-89l2 14l136 177l180 239h-231l-64 -72l-21 5l52 177l23 4l15 -33h273z" />
    <glyph glyph-name="eight.num" horiz-adv-x="437" 
d="M306 457l-3 -13c55 -31 82 -68 82 -121c0 -88 -80 -149 -175 -149c-98 0 -168 55 -168 127c0 67 43 112 128 138l3 14c-48 27 -70 61 -70 108c0 82 72 149 165 149c96 0 156 -55 156 -124c0 -62 -46 -107 -118 -129zM276 471c48 36 73 72 73 122s-32 84 -82 84
c-45 0 -83 -39 -83 -93c0 -51 26 -77 92 -113zM198 426c-42 -26 -78 -72 -78 -126c0 -58 38 -94 98 -94c47 0 88 35 88 97c0 44 -24 80 -108 123z" />
    <glyph glyph-name="nine.num" horiz-adv-x="437" 
d="M298 375l-9 9c-24 -15 -54 -24 -85 -24c-79 0 -128 52 -128 144c0 103 76 207 190 207c94 0 160 -65 160 -173c0 -178 -139 -333 -380 -374l-4 25c134 50 216 120 256 186zM312 413c18 45 24 95 24 140c0 85 -28 124 -77 124c-57 0 -91 -79 -91 -166
c0 -75 30 -105 89 -105c19 0 40 3 55 7z" />
    <glyph glyph-name="zero.den" horiz-adv-x="437" 
d="M-12 74c0 166 95 361 243 361c94 0 144 -72 144 -175c0 -166 -95 -361 -243 -361c-94 0 -144 71 -144 175zM219 397c-54 0 -98 -98 -122 -208c-10 -52 -16 -99 -16 -136c0 -83 19 -117 63 -117c54 0 98 98 122 209c11 51 16 98 16 136c0 83 -20 116 -63 116z" />
    <glyph glyph-name="one.den" horiz-adv-x="437" 
d="M198 -32l113 -33l-3 -20h-333l4 20l128 35l83 388l-106 38l3 18l198 25l11 -9z" />
    <glyph glyph-name="two.den" horiz-adv-x="437" 
d="M-42 -19c82 60 144 104 188 143c86 76 111 116 111 165c0 46 -26 77 -75 77c-55 0 -90 -35 -127 -92l-24 11c33 91 97 150 185 150c83 0 135 -55 135 -123c0 -92 -64 -163 -308 -312l1 -12l199 1l71 90l17 -4l-50 -160h-312z" />
    <glyph glyph-name="three.den" horiz-adv-x="437" 
d="M94 188c138 31 178 72 178 123c0 37 -28 61 -72 61c-54 0 -97 -25 -138 -67l-20 16c36 64 101 114 186 114s131 -43 131 -104c0 -59 -44 -111 -141 -133l-3 -15c80 -25 115 -61 115 -123c0 -85 -80 -161 -203 -161c-94 0 -157 38 -157 93c0 29 22 54 53 54
c49 0 63 -50 41 -94c18 -12 39 -17 68 -17c63 0 111 34 111 99c0 54 -39 97 -158 113z" />
    <glyph glyph-name="four.den" horiz-adv-x="437" 
d="M-33 117l284 317l93 -8l-65 -300h82l-13 -59h-81l-22 -100l68 -29l-5 -23h-245l5 25l94 28l22 101h-206zM198 123l51 240h-19l-203 -240h171z" />
    <glyph glyph-name="five.den" horiz-adv-x="437" 
d="M383 460l-32 -122h-221l-28 -95c141 -17 229 -64 229 -171c0 -102 -87 -176 -199 -176c-96 0 -157 42 -157 93c0 33 22 58 52 58c52 0 66 -52 43 -97c14 -11 38 -18 66 -18c65 0 108 49 108 109c0 80 -69 118 -205 131l72 247h209l44 44z" />
    <glyph glyph-name="six.den" horiz-adv-x="437" 
d="M118 228l9 -9c23 15 54 23 86 23c81 0 129 -52 129 -140c0 -100 -76 -203 -190 -203c-95 0 -162 63 -162 173c0 184 148 338 376 378l4 -25c-129 -51 -213 -122 -252 -197zM104 190c-18 -43 -22 -90 -22 -135c0 -83 28 -123 77 -123c57 0 91 79 91 161
c0 75 -32 104 -89 104c-23 0 -41 -3 -57 -7z" />
    <glyph glyph-name="seven.den" horiz-adv-x="437" 
d="M406 369l-290 -461h-89l2 14l136 177l180 239h-231l-64 -72l-21 5l52 177l23 4l15 -33h273z" />
    <glyph glyph-name="eight.den" horiz-adv-x="437" 
d="M248 182l-3 -13c55 -31 82 -68 82 -121c0 -88 -80 -149 -175 -149c-98 0 -168 55 -168 127c0 67 43 112 128 138l3 14c-48 27 -70 61 -70 108c0 82 72 149 165 149c96 0 156 -55 156 -124c0 -62 -46 -107 -118 -129zM218 196c48 36 73 72 73 122s-32 84 -82 84
c-45 0 -83 -39 -83 -93c0 -51 26 -77 92 -113zM140 151c-42 -26 -78 -72 -78 -126c0 -58 38 -94 98 -94c47 0 88 35 88 97c0 44 -24 80 -108 123z" />
    <glyph glyph-name="nine.den" horiz-adv-x="437" 
d="M240 100l-9 9c-24 -15 -54 -24 -85 -24c-79 0 -128 52 -128 144c0 103 76 207 190 207c94 0 160 -65 160 -173c0 -178 -139 -333 -380 -374l-4 25c134 50 216 120 256 186zM254 138c18 45 24 95 24 140c0 85 -28 124 -77 124c-57 0 -91 -79 -91 -166
c0 -75 30 -105 89 -105c19 0 40 3 55 7z" />
    <glyph glyph-name="plus.tab" horiz-adv-x="580" 
d="M516 317h-202l-44 -206h-59l44 206h-203l11 56h203l44 202h59l-44 -202h202z" />
    <glyph glyph-name="minus.tab" horiz-adv-x="580" 
d="M509 316h-450l13 58h450z" />
    <glyph glyph-name="divide.tab" horiz-adv-x="580" 
d="M325 450c-35 0 -63 28 -63 63s28 63 63 63s63 -28 63 -63s-28 -63 -63 -63zM516 318h-464l11 54h464zM254 114c-35 0 -64 28 -64 63s29 63 64 63s63 -28 63 -63s-28 -63 -63 -63z" />
    <glyph glyph-name="equal.tab" horiz-adv-x="580" 
d="M541 476l-12 -56h-445l11 56h446zM485 213h-446l12 56h445z" />
    <glyph glyph-name="multiply.tab" horiz-adv-x="580" 
d="M297 382l185 148l34 -42l-189 -149l121 -167l-47 -34l-118 166l-185 -148l-34 42l189 150l-120 165l47 34z" />
    <glyph glyph-name="less.tab" horiz-adv-x="580" 
d="M450 161l-26 -47l-346 206l11 52l434 205l3 -54l-386 -181z" />
    <glyph glyph-name="greater.tab" horiz-adv-x="580" 
d="M128 530l26 48l346 -206l-11 -52l-434 -205l-3 54l386 181z" />
    <glyph glyph-name="plusminus.tab" horiz-adv-x="580" 
d="M506 427h-170l-37 -173h-57l37 173h-170l11 54h170l36 170h57l-36 -170h170zM453 120h-421l11 53h421z" />
    <glyph glyph-name="zero.tab" horiz-adv-x="580" 
d="M32 215c0 247 142 493 328 493c126 0 188 -100 188 -231c0 -248 -142 -494 -328 -494c-126 0 -188 101 -188 232zM339 663c-109 0 -197 -251 -197 -449c0 -128 32 -185 99 -185c108 0 197 251 197 449c0 128 -32 185 -99 185z" />
    <glyph glyph-name="one.tab" horiz-adv-x="580" 
d="M303 68l164 -45l-4 -23h-449l4 23l184 47l112 529l-157 46l5 23l263 33l10 -10z" />
    <glyph glyph-name="two.tab" horiz-adv-x="580" 
d="M-10 77c114 88 199 156 260 210c124 110 157 167 157 232s-39 109 -107 109c-82 0 -134 -52 -181 -129l-28 11c41 118 129 198 248 198c105 0 178 -71 178 -163c0 -117 -65 -205 -435 -450l2 -9l286 1l95 126l22 -5l-65 -208h-418z" />
    <glyph glyph-name="three.tab" horiz-adv-x="580" 
d="M168 372c200 37 262 99 262 174c0 52 -41 86 -103 86c-77 0 -134 -35 -192 -93l-24 19c52 84 138 149 245 149c114 0 174 -56 174 -139c0 -80 -57 -153 -202 -186l-2 -12c112 -36 165 -88 165 -168c0 -115 -111 -219 -274 -219c-120 0 -205 49 -205 123c0 38 27 69 65 69
c61 0 82 -63 55 -125c25 -16 56 -23 92 -23c94 0 167 48 167 143c0 80 -74 138 -233 156z" />
    <glyph glyph-name="four.tab" horiz-adv-x="580" 
d="M13 272l395 436l95 -11l-88 -416h121l-14 -65h-121l-32 -153l95 -36l-5 -27h-321l6 29l130 36l32 151h-279zM323 281l69 327h-17l-291 -327h239z" />
    <glyph glyph-name="five.tab" horiz-adv-x="580" 
d="M561 743l-38 -145h-298l-43 -145c186 -15 308 -83 308 -228c0 -146 -121 -242 -263 -242c-125 0 -211 58 -211 124c0 43 29 75 67 75c64 0 83 -65 53 -130c20 -16 53 -26 94 -26c93 0 158 74 158 170c0 109 -85 157 -279 171l92 325h281l58 55z" />
    <glyph glyph-name="six.tab" horiz-adv-x="580" 
d="M193 423l6 -5c31 17 76 29 123 29c113 0 182 -70 182 -190c0 -135 -107 -274 -253 -274c-126 0 -214 90 -214 235c0 234 184 448 494 500l6 -32c-181 -63 -287 -152 -344 -263zM175 383c-21 -57 -31 -117 -31 -181c0 -118 44 -179 113 -179c88 0 140 97 140 217
c0 109 -50 152 -136 152c-36 0 -65 -4 -86 -9z" />
    <glyph glyph-name="seven.tab" horiz-adv-x="580" 
d="M602 638l-416 -655h-107l198 269l251 346h-325l-86 -98l-24 4l68 228l24 5l22 -45h381z" />
    <glyph glyph-name="eight.tab" horiz-adv-x="580" 
d="M366 358c80 -55 121 -106 121 -179c0 -119 -113 -195 -233 -195c-128 0 -224 76 -224 173c0 89 65 153 184 194c-70 49 -100 94 -100 163c0 109 99 193 216 193c125 0 207 -72 207 -167c0 -88 -68 -145 -171 -182zM330 382c76 50 118 95 118 168c0 70 -47 117 -121 117
c-63 0 -122 -54 -122 -122c0 -70 42 -109 125 -163zM248 327c-82 -42 -125 -101 -125 -172c0 -81 55 -131 143 -131c63 0 126 47 126 126c0 66 -36 106 -144 177z" />
    <glyph glyph-name="nine.tab" horiz-adv-x="580" 
d="M382 257l-7 6c-31 -18 -77 -30 -121 -30c-107 0 -178 70 -178 197c0 140 107 278 253 278c126 0 214 -89 214 -234c0 -239 -185 -450 -510 -504l-6 32c185 61 293 148 355 255zM401 298c25 59 35 124 35 192c0 118 -44 179 -113 179c-88 0 -140 -97 -140 -223
c0 -115 49 -158 136 -158c30 0 60 4 82 10z" />
    <glyph glyph-name="dollar.tab" horiz-adv-x="580" 
d="M342 672c-107 8 -156 -56 -156 -136c0 -61 45 -96 100 -128zM243 18c113 1 159 68 159 143c0 62 -46 99 -102 131zM194 -14c-68 6 -136 26 -194 51l37 183l20 1c12 -123 63 -187 147 -199l61 290c-78 44 -162 90 -162 194c0 125 106 206 244 202l21 102l45 -5l-21 -100
c56 -7 105 -19 152 -40l-29 -159l-22 -3c-25 100 -69 147 -113 163l-58 -277c79 -44 164 -92 164 -201c0 -123 -105 -204 -248 -204l-26 -118l-43 5z" />
    <glyph glyph-name="sterling.tab" horiz-adv-x="580" 
d="M290 373h167l-10 -49h-155c-1 -109 -49 -160 -143 -215l2 -13c74 -1 151 -16 210 -16c61 0 90 26 123 124l35 -4c-28 -139 -85 -217 -178 -217c-62 0 -148 39 -225 83c-29 -51 -74 -82 -108 -82c-37 0 -54 19 -54 46c0 41 51 76 145 80c60 59 96 110 96 178
c0 12 -1 25 -3 36h-147l10 49h131c-4 27 -8 53 -8 82c0 148 118 253 267 253c86 0 122 -36 122 -73c0 -34 -25 -58 -61 -58c-46 0 -76 35 -98 88c-89 -24 -127 -92 -127 -195c0 -30 6 -62 9 -97z" />
    <glyph glyph-name="Euro.tab" horiz-adv-x="580" 
d="M124 396h-92l11 44h96c67 162 212 269 346 269c84 0 120 -38 120 -76c0 -36 -25 -60 -61 -60c-45 0 -74 33 -94 89c-81 -8 -173 -85 -219 -222h267l-10 -44h-269c-8 -33 -14 -70 -15 -110h261l-9 -44h-253c3 -123 61 -185 159 -185c49 0 86 11 136 39l14 -18
c-47 -57 -106 -94 -180 -94c-145 0 -230 103 -230 258h-101l10 44h92c3 39 10 75 21 110z" />
    <glyph glyph-name="yen.tab" horiz-adv-x="580" 
d="M230 359l-110 276l-88 26l7 31h304l-7 -30l-97 -21l92 -259l199 252l-72 28l7 30h227l-6 -31l-92 -31l-230 -271h157l-8 -41h-174l-19 -91h173l-8 -42h-173l-27 -132l106 -22l-7 -31h-323l6 31l116 22l27 132h-170l9 42h170l19 91h-170l9 41h153z" />
    <glyph glyph-name="florin.tab" horiz-adv-x="580" 
d="M17 -204c-58 0 -88 28 -88 62c0 30 24 55 61 55s68 -23 94 -64c30 27 47 69 67 164l68 335h-120l6 27l126 33l3 16c32 153 70 211 140 264c38 29 91 47 133 47c57 0 98 -30 98 -71c0 -30 -23 -55 -59 -55c-42 0 -80 33 -96 83c-56 -29 -89 -85 -121 -255l-7 -36h158
l-11 -53h-157l-45 -215c-34 -159 -56 -220 -125 -285c-36 -33 -83 -52 -125 -52z" />
    <glyph glyph-name="cent.tab" horiz-adv-x="580" 
d="M234 93c-105 12 -168 85 -168 196c0 155 121 301 269 321l20 103l41 -5l-19 -96c101 -2 158 -47 158 -100c0 -36 -23 -58 -51 -58c-48 0 -67 44 -59 108c-12 9 -33 12 -57 12l-47 -228l-36 -188c7 -1 13 -1 19 -1c57 0 104 20 154 58l17 -16c-42 -62 -120 -106 -203 -108
l-21 -118l-41 3zM327 569c-102 -29 -164 -143 -164 -265c0 -85 37 -124 85 -140l38 187z" />
    <glyph glyph-name="numbersign.tab" horiz-adv-x="580" 
d="M198 438h-117v47h130l50 182l53 -9l-52 -173h138l50 182l53 -9l-52 -173h98v-47h-112l-29 -95l-27 -100h116v-47h-129l-46 -172l-55 9l50 163h-138l-46 -172l-54 9l48 163h-98v47h113l32 105zM387 438h-139l-29 -95l-27 -100h139l32 105z" />
    <glyph glyph-name="paragraph.tab" horiz-adv-x="580" 
d="M303 281l77 364c-126 -1 -207 -92 -207 -210c0 -96 57 -140 130 -154zM664 692l-6 -27l-101 -23l-158 -739h-55l158 741h-67l-159 -741h-55l72 331c-128 17 -234 70 -234 202c0 155 132 256 333 256h272z" />
    <glyph glyph-name="section.tab" horiz-adv-x="580" 
d="M379 71c12 35 17 73 17 115c0 137 -71 258 -207 373c-12 -35 -17 -73 -17 -114c0 -138 71 -258 207 -374zM183 -106c-101 0 -180 48 -180 109c0 40 26 66 61 66c58 0 85 -50 54 -108c17 -16 51 -31 92 -31c70 0 125 42 157 111c-198 92 -283 235 -283 377
c0 185 141 319 301 319c101 0 180 -49 180 -110c0 -39 -26 -66 -61 -66c-58 0 -85 50 -54 108c-17 16 -51 31 -92 31c-70 0 -125 -42 -157 -111c198 -92 283 -234 283 -377c0 -185 -141 -318 -301 -318z" />
    <glyph glyph-name="degree.tab" horiz-adv-x="580" 
d="M297 386c-91 0 -151 52 -151 139c0 100 76 210 207 210c90 0 151 -53 151 -139c0 -100 -77 -210 -207 -210zM306 419c79 0 115 121 115 186c0 58 -28 97 -78 97c-79 0 -114 -121 -114 -187c0 -57 27 -96 77 -96z" />
    <glyph glyph-name="percent.tab" horiz-adv-x="580" 
d="M619 688l-313 -355l-306 -367l-39 33l313 356l305 366zM159 385c-67 0 -116 44 -116 121c0 90 73 200 177 200c66 0 117 -44 117 -122c0 -89 -74 -199 -178 -199zM175 418c57 0 90 89 90 164c0 54 -19 92 -61 92c-57 0 -91 -89 -91 -164c0 -55 20 -92 62 -92zM362 -17
c-67 0 -116 43 -116 121c0 89 73 200 177 200c66 0 117 -45 117 -122c0 -90 -74 -199 -178 -199zM378 15c58 0 90 89 90 164c0 54 -18 92 -61 92c-57 0 -91 -89 -91 -164c0 -55 20 -92 62 -92z" />
    <glyph glyph-name="quotedbl.tab" horiz-adv-x="580" 
d="M212 513l-90 -126l-24 12l55 143c35 90 54 136 65 154c16 28 32 39 50 39c26 0 51 -17 51 -43c0 -29 -12 -47 -107 -179zM428 512l-95 -125l-22 13l60 142c41 90 62 136 74 154c19 28 34 39 51 39c27 0 51 -17 51 -42c0 -29 -18 -52 -119 -181z" />
    <glyph glyph-name="quotesingle.tab" horiz-adv-x="294" 
d="M212 513l-90 -126l-24 12l55 143c35 90 54 136 65 154c16 28 32 39 50 39c26 0 51 -17 51 -43c0 -29 -12 -47 -107 -179z" />
    <glyph glyph-name="period.tab" horiz-adv-x="294" 
d="M85 123c39 0 70 -32 70 -71c0 -38 -31 -70 -70 -70s-71 32 -71 70c0 39 32 71 71 71z" />
    <glyph glyph-name="comma.tab" horiz-adv-x="294" 
d="M-43 -182l-14 22c84 50 130 107 141 152l-6 5l-4 -1c-3 -1 -8 -2 -14 -2c-28 0 -52 18 -52 54c0 39 35 74 75 74s74 -30 74 -84c0 -93 -91 -173 -200 -220z" />
    <glyph glyph-name="colon.tab" horiz-adv-x="294" 
d="M219 376c0 -39 -32 -70 -70 -70c-40 0 -71 31 -71 70c0 38 31 69 71 69c38 0 70 -31 70 -69zM159 52c0 -38 -32 -70 -70 -70c-39 0 -71 32 -71 70c0 39 32 70 71 70c38 0 70 -31 70 -70z" />
    <glyph glyph-name="semicolon.tab" horiz-adv-x="294" 
d="M219 376c0 -39 -32 -70 -70 -70c-40 0 -71 31 -71 70c0 38 31 69 71 69c38 0 70 -31 70 -69zM-38 -182l-14 22c84 50 130 107 141 152l-6 5l-4 -1c-3 -1 -9 -2 -14 -2c-29 0 -52 18 -52 54c0 39 35 74 74 74c41 0 75 -30 75 -84c0 -93 -91 -173 -200 -220z" />
    <glyph glyph-name="twodotleader.tab" horiz-adv-x="580" 
d="M371 123c39 0 70 -32 70 -71c0 -38 -31 -70 -70 -70s-71 32 -71 70c0 39 32 71 71 71zM85 123c39 0 70 -32 70 -71c0 -38 -31 -70 -70 -70s-71 32 -71 70c0 39 32 71 71 71z" />
    <glyph glyph-name="periodcentered.tab" horiz-adv-x="294" 
d="M217 344c0 -38 -31 -70 -70 -70c-40 0 -71 32 -71 70c0 39 31 71 71 71c39 0 70 -32 70 -71z" />
    <glyph glyph-name="slash.tab" horiz-adv-x="580" 
d="M-21 -231l-47 24l303 506l303 516l46 -23l-303 -507z" />
    <glyph glyph-name="bar.tab" horiz-adv-x="294" 
d="M47 -269l-59 8l115 519l104 517l59 -8l-114 -519z" />
    <glyph glyph-name="brokenbar.tab" horiz-adv-x="294" 
d="M172 324l-58 7l51 223l42 221l59 -8l-52 -222zM47 -269l-59 8l52 222l42 221l59 -7l-52 -223z" />
    <glyph glyph-name="underscore.tab" horiz-adv-x="580" 
d="M510 48v-48h-576v48h576z" />
    <glyph glyph-name="R_p" horiz-adv-x="1238" 
d="M264 359h79c122 1 190 81 190 181c0 74 -50 111 -137 112c-23 0 -57 -3 -72 -6zM902 53c94 0 164 119 164 248c0 81 -38 115 -80 115c-32 0 -71 -23 -131 -85l-54 -244c28 -20 64 -34 101 -34zM684 0h-124c-74 0 -92 19 -117 115l-30 116c-16 62 -38 86 -87 86h-70
l-55 -267l112 -19l-7 -31h-340l7 31l125 20l123 590l-116 20l7 31h316c138 0 218 -53 218 -148c0 -104 -88 -178 -218 -203l-2 -13c58 -16 81 -44 100 -112c18 -66 32 -123 57 -150c19 -20 40 -29 108 -34l81 366l-72 25l1 20l177 54l10 -10l-28 -100l10 -3
c67 75 112 107 172 107c71 0 130 -59 130 -158c0 -164 -164 -339 -324 -339c-19 0 -50 3 -66 7l-31 -140l83 -24l-5 -24h-261l7 26l78 22z" />
    <glyph glyph-name="space.tab" horiz-adv-x="294" 
 />
    <glyph glyph-name="NUL" horiz-adv-x="0" 
 />
    <glyph glyph-name="circumflex.cap" horiz-adv-x="347" 
d="M103 578l-18 19l167 195h37l83 -195l-23 -19l-98 117z" />
    <glyph glyph-name="dieresis.cap" horiz-adv-x="375" 
d="M149 598c-36 0 -62 26 -62 63c0 35 29 68 69 68c36 0 62 -26 62 -63c0 -36 -30 -68 -69 -68zM358 598c-36 0 -61 26 -61 63c0 35 29 68 68 68c36 0 62 -26 62 -63c0 -36 -29 -68 -69 -68z" />
    <glyph glyph-name="acute.cap" horiz-adv-x="279" 
d="M130 583l-18 15c41 69 83 147 114 181c23 26 55 36 78 17c22 -19 19 -46 -5 -76c-28 -34 -103 -86 -169 -137z" />
    <glyph glyph-name="ring.cap" horiz-adv-x="301" 
d="M210 593c-59 0 -98 40 -98 95c0 63 50 126 126 126c59 0 98 -40 98 -95c0 -63 -49 -126 -126 -126zM215 617c46 0 70 65 70 102c0 49 -23 71 -51 71c-46 0 -71 -65 -71 -102c0 -49 24 -71 52 -71z" />
    <glyph glyph-name="breve.cap" horiz-adv-x="385" 
d="M246 593c-90 0 -131 63 -121 166l29 9c13 -66 44 -98 108 -98c60 0 93 31 130 98l29 -9c-28 -105 -87 -166 -175 -166z" />
    <glyph glyph-name="ogonek.cap" horiz-adv-x="312" 
d="M134 10c-80 -68 -113 -128 -113 -179c0 -40 25 -63 60 -63c29 0 56 12 84 35l15 -14c-38 -40 -79 -67 -133 -67c-58 0 -97 35 -97 92c0 72 60 143 167 214z" />
    <glyph glyph-name="caron.cap" horiz-adv-x="347" 
d="M199 594l-81 196l25 19l93 -123l151 123l17 -19l-166 -196h-39z" />
    <glyph glyph-name="macron.cap" horiz-adv-x="369" 
d="M108 613l15 68h276l-15 -68h-276z" />
    <glyph glyph-name="grave.cap" horiz-adv-x="278" 
d="M250 583c-45 54 -91 114 -105 147c-12 28 -2 56 23 69c26 12 52 0 63 -26c14 -34 28 -103 42 -178z" />
    <glyph glyph-name="tilde.cap" horiz-adv-x="382" 
d="M111 587l-30 7c28 93 60 135 113 135c56 0 114 -53 151 -53c19 0 30 17 59 66l29 -7c-28 -93 -60 -135 -113 -135c-56 0 -114 53 -151 53c-19 0 -30 -17 -58 -66z" />
    <glyph glyph-name="caron.alt.cap" horiz-adv-x="279" 
d="M199 556l-20 8c14 79 26 167 43 210c13 32 40 53 68 42c27 -10 33 -37 21 -72c-15 -43 -68 -118 -112 -188z" />
    <glyph glyph-name="commaaccent.rot" horiz-adv-x="259" 
d="M308 832l6 -21c-64 -28 -103 -61 -116 -105l4 -4c6 3 13 4 18 4c22 0 41 -15 41 -44c0 -35 -29 -66 -65 -66c-35 0 -60 24 -60 63c0 86 83 149 172 173z" />
    <glyph glyph-name="cedilla.cap" horiz-adv-x="326" 
d="M10 -279c-49 0 -81 23 -81 48c0 20 12 35 33 35c19 0 29 -15 29 -32c0 -10 -2 -15 -7 -22c8 -4 15 -6 27 -6c33 0 62 23 62 64c0 38 -32 65 -68 65c-13 0 -21 -2 -31 -5l-12 19l161 125l36 -4l-115 -90c49 -7 90 -41 90 -91c0 -60 -54 -106 -124 -106z" />
    <glyph glyph-name="hungarumlaut.cap" horiz-adv-x="370" 
d="M107 582l-18 14c34 70 72 147 96 182c19 27 50 38 72 22c24 -18 26 -46 3 -75c-25 -34 -90 -90 -153 -143zM269 582l-18 14c35 70 73 147 98 182c19 27 50 38 71 22c25 -18 26 -46 3 -75c-25 -34 -91 -90 -154 -143z" />
    <glyph glyph-name="hcoslug" horiz-adv-x="694" 
d="M644 700v-800h-594v800h594zM247 428c0 17 11 29 27 29c17 0 29 -15 29 -38c0 -17 -7 -33 -18 -50c-23 22 -38 36 -38 59zM312 342c19 13 33 24 42 34c23 -23 18 -47 -1 -80c-13 15 -25 30 -41 46zM261 219c-30 0 -52 23 -52 54c0 15 5 29 16 40c18 -17 46 -47 74 -82
c-11 -9 -23 -12 -38 -12zM382 264c15 20 31 33 46 42c9 -15 25 -25 43 -25c28 0 50 23 50 54s-22 52 -50 52c-25 0 -44 -14 -60 -38c-2 27 -22 38 -49 37c6 10 9 21 9 34c0 35 -33 74 -95 74c-67 0 -109 -42 -109 -85c0 -29 10 -47 31 -69c-53 -18 -82 -49 -82 -91
c0 -53 49 -93 109 -93c42 0 76 14 104 45c33 -34 55 -45 85 -45c43 0 78 36 80 94l-7 2c-10 -17 -22 -29 -43 -29c-20 0 -37 12 -62 41zM286 124l-12 -2v-9h-7v-7h7v-20c0 -8 4 -13 12 -13s12 4 14 13l-5 2c-1 -5 -3 -7 -5 -7c-3 0 -4 2 -4 5v20h13v7h-13v11zM174 94
c0 -13 9 -21 21 -21s21 9 21 21s-9 20 -21 20s-21 -8 -21 -20zM203 94c0 -12 -3 -16 -8 -16s-8 4 -8 16c0 11 3 15 8 15s8 -4 8 -15zM219 81v-7h22v7h-4v15c0 6 3 10 7 10s6 -3 6 -7v-18h-4v-7h22v7h-6v19c0 8 -3 14 -12 14c-7 0 -11 -4 -14 -11v10h-17v-7h6v-25h-6zM379 93
c0 -8 -2 -13 -7 -13c-6 0 -8 5 -8 13c0 7 2 13 8 13c5 0 7 -5 7 -13zM125 81v-7h30v7h-10v16h4c5 0 5 -1 6 -8h7v23h-7c-1 -7 -1 -8 -6 -8h-4v18h12c7 0 9 -2 11 -13h8v20h-51v-7h7v-41h-7zM302 88v-14h7l1 4c3 -2 6 -5 13 -5c9 0 14 6 14 13c0 16 -24 10 -24 18
c0 2 2 4 5 4c4 0 7 -3 10 -7h7v13h-6l-2 -5c-2 3 -6 5 -11 5c-9 0 -14 -6 -14 -12c0 -16 24 -11 24 -19c0 -2 -2 -4 -5 -4c-5 0 -8 3 -12 9h-7zM352 125v-52h6l4 8c3 -5 7 -8 14 -8c12 0 16 12 16 21c0 12 -6 20 -15 20c-6 0 -11 -3 -13 -9v27h-18v-7h6zM405 65
c3 3 2 10 -5 10c-4 0 -7 -3 -7 -7c0 -5 4 -9 11 -9c9 0 14 6 18 16l13 31h5v7h-17v-7h5l-8 -20l-9 20h6v7h-25v-7h5s12 -23 16 -33c-1 -5 -4 -8 -8 -8zM294 39v3c0 10 3 12 6 12c2 0 3 -1 3 -1s-1 -1 -1 -3c0 -4 3 -6 6 -6v-5h-14zM464 33h-18v-7h6c-1 -3 -4 -7 -6 -9
c-4 4 -7 8 -12 13c7 3 11 6 11 12s-5 12 -14 12c-10 0 -17 -7 -17 -14c0 -5 2 -8 6 -12c-7 -2 -13 -7 -13 -15s6 -14 18 -14c6 0 11 2 15 6c4 -5 7 -6 12 -6c8 0 11 5 13 12l-5 1c-1 -4 -2 -5 -4 -5s-4 2 -6 5c3 4 6 8 9 14h5v7zM469 27c0 -17 11 -28 29 -28
c15 0 23 9 24 23h-8c-1 -9 -6 -16 -14 -16c-10 0 -16 7 -16 22c0 16 6 22 14 22s11 -4 15 -16h8v22h-8l-1 -6c-4 4 -9 7 -16 7c-14 0 -27 -12 -27 -30zM431 33c-4 4 -6 7 -6 10s2 5 5 5c4 0 6 -3 6 -6c0 -4 -2 -7 -5 -9zM340 18h26c1 13 -5 22 -19 22c-11 0 -20 -9 -20 -21
s8 -20 21 -20c11 0 16 6 18 14h-7c-1 -5 -4 -7 -9 -7c-7 0 -10 3 -10 12zM525 20c0 -13 9 -21 21 -21s21 9 21 21s-9 20 -21 20s-21 -8 -21 -20zM189 20c0 -13 9 -21 21 -21s21 9 21 21s-9 20 -21 20s-21 -8 -21 -20zM247 18h26c1 13 -5 22 -19 22c-11 0 -20 -9 -20 -21
s8 -20 21 -20c11 0 16 6 18 14h-7c-1 -5 -4 -7 -9 -7c-7 0 -10 3 -10 12zM340 23c0 9 3 12 7 12c5 0 7 -4 7 -12h-14zM554 20c0 -12 -3 -16 -8 -16s-8 4 -8 16c0 11 3 15 8 15s8 -4 8 -15zM218 20c0 -12 -3 -16 -8 -16s-8 4 -8 16c0 11 3 15 8 15s8 -4 8 -15zM247 23
c0 9 3 12 7 12c5 0 7 -4 7 -12h-14zM368 7v-7h26v7h-8v16c2 5 5 9 7 9v-1c0 -4 3 -6 6 -6c4 0 7 3 7 7c0 5 -3 8 -8 8s-9 -3 -12 -11v10h-18v-7h6v-25h-6zM276 7v-7h23v7h-5v25h14v-25h-5v-7h23v7h-6v52l-10 -2c-2 1 -6 2 -9 2c-10 0 -19 -6 -19 -19v-1h-7v-7h7v-25h-6z
M124 7v-7h29v7h-8v18h22v-18h-8v-7h29v7h-8v41h8v7h-29v-7h8v-16h-22v16h8v7h-29v-7h8v-41h-8zM437 9c-3 -2 -6 -3 -8 -3c-6 0 -10 4 -10 10c0 4 2 7 4 9c5 -5 9 -10 14 -16zM583 6c0 4 -3 7 -7 7s-7 -3 -7 -7s3 -7 7 -7s7 3 7 7z" />
    <glyph glyph-name="commaaccent.cap" horiz-adv-x="259" 
d="M-63 -292c64 28 103 61 116 105l-4 4c-6 -3 -13 -4 -18 -4c-22 0 -41 15 -41 44c0 35 29 66 65 66c35 0 60 -24 60 -63c0 -86 -83 -149 -172 -173z" />
    <glyph glyph-name="dotaccent.cap" horiz-adv-x="202" 
d="M168 596c-37 0 -64 28 -64 65s30 71 71 71c37 0 64 -28 64 -65s-30 -71 -71 -71z" />
    </font>
</defs>
</svg>
