<?xml version="1.0" standalone="no"?>
<!DOCTYPE svg PUBLIC "-//W3C//DTD SVG 1.1//EN" "http://www.w3.org/Graphics/SVG/1.1/DTD/svg11.dtd" >
<svg xmlns="http://www.w3.org/2000/svg" xmlns:xlink="http://www.w3.org/1999/xlink" version="1.1">
<metadata>
Created by FontForge 20190801 at Thu Mar 15 15:40:07 2018
 By Unknown
Copyright (C) 1996, 2011 Hoefler &#38; Co. http://www.typography.com
</metadata>
<defs>
<font id="Font" horiz-adv-x="833" >
  <font-face 
    font-family="Copyright (C) H&#38;Co | typography.com"
    font-weight="350"
    font-style="italic"
    font-stretch="normal"
    units-per-em="1000"
    panose-1="0 0 0 0 0 0 0 0 0 0"
    ascent="800"
    descent="-200"
    x-height="522"
    cap-height="701"
    bbox="-177 -342 1595 1177.3"
    underline-thickness="50"
    underline-position="-100"
    slope="-12"
    unicode-range="U+0020-FB04"
  />
<missing-glyph horiz-adv-x="500" 
 />
    <glyph glyph-name="f_b" unicode="fb" horiz-adv-x="957" 
d="M481 432h-199l-56 -322q-11 -60 -23 -105.5t-28 -80.5t-37 -62t-48 -51q-35 -29 -73 -43t-73 -14q-45 0 -71 21t-26 52q0 26 19 45t50 19q32 0 60 -19t49 -54q16 19 30.5 61t28.5 122l74 431h-120l8 35l125 39l3 15q19 93 55 153.5t98 102.5q40 27 83.5 40t97.5 13
q52 0 87 -22l79 21l15 -12l-83 -380l11 -2q38 39 77.5 63t86.5 24q29 0 55 -11.5t45 -33.5t30 -53.5t11 -70.5q0 -72 -30.5 -138.5t-80 -117t-112.5 -80.5t-129 -30q-53 0 -96.5 12.5t-79.5 31.5zM635 52q32 0 59.5 25t48 64t32 86t11.5 91q0 57 -22 85.5t-62 28.5
q-26 0 -53.5 -15t-54.5 -39l-61 -281q22 -22 47 -33.5t55 -11.5zM495 496l40 186q-47 22 -67 93q-59 -5 -102.5 -56t-61.5 -162l-11 -61h202z" />
    <glyph glyph-name="f_f" unicode="ff" horiz-adv-x="724" 
d="M645 763q7 7 14 13.5t15 11.5q33 22 68 33t75 11q57 0 85.5 -24t28.5 -57q0 -28 -19 -48t-51 -20q-31 0 -60.5 22t-48.5 69q-38 -10 -65.5 -66t-48.5 -172l-7 -40h136l-13 -64h-133l-56 -322q-11 -62 -23 -107.5t-27.5 -80.5t-36 -61.5t-47.5 -50.5q-35 -30 -68 -43.5
t-68 -13.5q-38 0 -61 19.5t-23 48.5q1 26 19 45t46 19q29 0 54 -18t42 -47q14 19 25 56.5t22 102.5l78 453h-215l-56 -322q-11 -60 -23 -105.5t-28 -80.5t-37 -62t-48 -51q-35 -29 -73 -43t-73 -14q-45 0 -71 21t-26 52q0 26 19 45t50 19q32 0 60 -19t49 -54q16 19 30.5 61
t28.5 122l74 431h-120l8 35l125 39l2 6q19 91 55 151t96 101q41 27 85 41t101 14q51 0 85 -16t50 -40zM512 523q18 87 50 143q-60 12 -81 101q-64 -3 -112 -54t-67 -166l-9 -51h214z" />
    <glyph glyph-name="f_h" unicode="fh" horiz-adv-x="984" 
d="M481 432h-199l-56 -322q-11 -60 -23 -105.5t-28 -80.5t-37 -62t-48 -51q-35 -29 -73 -43t-73 -14q-45 0 -71 21t-26 52q0 26 19 45t50 19q32 0 60 -19t49 -54q16 19 30.5 61t28.5 122l74 431h-120l8 35l125 39l3 15q19 93 55 153.5t98 102.5q40 27 83.5 40t97.5 13
q52 0 87 -22l79 21l15 -12l-86 -399l11 -2q52 48 97 77t94 29q37 0 61 -14t36.5 -39.5t13.5 -60.5t-9 -76l-52 -218q-4 -17 -3.5 -28t10 -17t29.5 -8t56 -3l4 -22q-37 -22 -76.5 -35.5t-74.5 -13.5q-43 0 -60.5 18.5t-17.5 49.5q1 12 3 27t6 29l49 207q25 109 -55 109
q-27 0 -58 -15.5t-76 -48.5l-78 -363h-125zM495 496l40 186q-47 22 -67 93q-59 -5 -102.5 -56t-61.5 -162l-11 -61h202z" />
    <glyph glyph-name="fi" unicode="fi" horiz-adv-x="687" 
d="M-56 -246q-45 0 -71 21t-26 52q0 26 19 45t50 19q32 0 60 -19t49 -54q16 19 30.5 61t28.5 122l74 431h-120l8 35l125 39l3 15q19 93 55 153t98 102q40 26 84 40t101 14q71 0 110.5 -28t39.5 -67q0 -28 -19.5 -47.5t-48.5 -19.5q-35 0 -65 25t-46 85q-64 -3 -112 -54
t-67 -166l-11 -62h195l125 32l16 -12l-94 -402q-5 -18 -4 -28.5t11 -16.5t31 -8t57 -3l4 -22q-42 -23 -81 -36t-76 -13q-26 0 -42.5 8t-24.5 22t-8.5 33.5t4.5 42.5l78 339h-202l-56 -322q-11 -60 -23 -105.5t-28 -80.5t-37 -62t-48 -51q-35 -29 -73 -43t-73 -14z" />
    <glyph glyph-name="f_j" unicode="fj" horiz-adv-x="672" 
d="M552 110q-12 -62 -25 -107.5t-29 -81t-36 -62t-46 -49.5q-35 -30 -68 -43.5t-68 -13.5q-38 0 -61 19.5t-23 48.5q1 26 19 45t46 19q29 0 54 -18t42 -47q14 18 25.5 55t24.5 103l83 454h-208l-56 -322q-11 -60 -23 -105.5t-28 -80.5t-37 -62t-48 -51q-35 -29 -73 -43
t-73 -14q-45 0 -71 21t-26 52q0 26 19 45t50 19q32 0 60 -19t49 -54q16 19 30.5 61t28.5 122l74 431h-120l8 35l125 39l3 15q19 93 55 153t98 102q40 26 84 40t101 14q71 0 110.5 -28t39.5 -67q0 -28 -19.5 -47.5t-48.5 -19.5q-35 0 -65 25t-46 85q-64 -3 -112 -54t-67 -166
l-11 -62h195l125 32l16 -12z" />
    <glyph glyph-name="f_k" unicode="fk" horiz-adv-x="929" 
d="M481 432h-199l-56 -322q-11 -60 -23 -105.5t-28 -80.5t-37 -62t-48 -51q-35 -29 -73 -43t-73 -14q-45 0 -71 21t-26 52q0 26 19 45t50 19q32 0 60 -19t49 -54q16 19 30.5 61t28.5 122l74 431h-120l8 35l125 39l3 15q19 93 55 153.5t98 102.5q40 27 83.5 40t97.5 13
q52 0 87 -22l79 21l15 -12l-114 -529q63 13 110.5 37.5t76.5 49.5q-10 15 -15 30.5t-5 33.5q0 35 22.5 60.5t55.5 25.5q38 0 57 -23t19 -52q0 -27 -12 -50t-39.5 -43.5t-71.5 -39t-107 -34.5l-1 -10q49 -5 71 -21t33 -43q12 -29 17.5 -52.5t13.5 -52.5q4 -14 9.5 -23.5
t16 -15t29 -7.5t49.5 0l4 -21q-31 -20 -69.5 -35t-73.5 -15q-38 0 -57.5 19t-29.5 72q-10 54 -18.5 86t-20.5 50t-29 25t-43 10l-54 -249h-125zM495 496l40 186q-47 22 -67 93q-59 -5 -102.5 -56t-61.5 -162l-11 -61h202z" />
    <glyph glyph-name="fl" unicode="fl" horiz-adv-x="687" 
d="M-56 -246q-45 0 -71 21t-26 52q0 26 19 45t50 19q32 0 60 -19t49 -54q16 19 30.5 61t28.5 122l74 431h-120l8 35l125 39l3 15q19 93 55 153.5t98 102.5q40 27 83.5 40t97.5 13q52 0 87 -22l79 21l15 -12l-152 -703q-5 -18 -4 -28.5t10.5 -16t30 -8t56.5 -3.5l4 -22
q-38 -22 -78.5 -35.5t-75.5 -13.5q-52 0 -67.5 29.5t-4.5 76.5l73 339h-199l-56 -322q-11 -60 -23 -105.5t-28 -80.5t-37 -62t-48 -51q-35 -29 -73 -43t-73 -14zM495 496l40 186q-47 22 -67 93q-59 -5 -102.5 -56t-61.5 -162l-11 -61h202z" />
    <glyph glyph-name="f_f_b" unicode="ffb" horiz-adv-x="1295" 
d="M833 496l41 188q-48 22 -67 93q-59 -5 -102.5 -56.5t-62.5 -161.5l-11 -63h202zM562 665q-60 12 -81 102q-64 -3 -112 -54t-67 -166l-9 -51h214l4 21q10 45 22 82t29 66zM621 432l-56 -322q-11 -62 -23 -107.5t-27.5 -80.5t-36 -61.5t-47.5 -50.5q-35 -30 -68.5 -43.5
t-69.5 -13.5q-40 0 -64.5 20t-23.5 49q1 26 19.5 44.5t47.5 18.5t55.5 -18t44.5 -47q14 20 25 57t22 102l78 453h-215l-56 -322q-11 -60 -23 -105.5t-28 -80.5t-37 -62t-48 -51q-35 -29 -73 -43t-73 -14q-45 0 -71 21t-26 52q0 26 19 45t50 19q32 0 60 -19t49 -54
q16 19 30.5 61t28.5 122l74 431h-120l8 35l125 39l2 6q19 91 55 151t96 101q41 27 85 41t101 14q52 0 87 -16.5t49 -40.5l14 12t15 12q73 46 172 46q27 0 49.5 -6t39.5 -17l76 20l15 -12l-83 -380l11 -2q38 39 77.5 63t87.5 24q29 0 54.5 -11.5t44.5 -33.5t30 -53.5
t11 -70.5q0 -72 -30.5 -138.5t-80 -117t-112.5 -80.5t-129 -30q-53 0 -96.5 12.5t-79.5 31.5l87 401h-198zM973 52q32 0 60 25t48.5 64t32 86t11.5 91q0 57 -22.5 85.5t-62.5 28.5q-26 0 -53.5 -15t-54.5 -39l-61 -281q45 -45 102 -45z" />
    <glyph glyph-name="f_f_h" unicode="ffh" horiz-adv-x="1322" 
d="M833 496l41 188q-48 22 -67 93q-59 -5 -102.5 -56.5t-62.5 -161.5l-11 -63h202zM726 0l93 432h-198l-56 -322q-11 -62 -23 -107.5t-27.5 -80.5t-36 -61.5t-47.5 -50.5q-35 -30 -68.5 -43.5t-69.5 -13.5q-40 0 -64.5 20t-23.5 49q1 26 19.5 44.5t47.5 18.5t55.5 -18
t44.5 -47q14 20 25 57t22 102l78 453h-215l-56 -322q-11 -60 -23 -105.5t-28 -80.5t-37 -62t-48 -51q-35 -29 -73 -43t-73 -14q-45 0 -71 21t-26 52q0 26 19 45t50 19q32 0 60 -19t49 -54q16 19 30.5 61t28.5 122l74 431h-120l8 35l125 39l2 6q19 91 55 151t96 101
q41 27 85 41t101 14q52 0 87 -16.5t49 -40.5l14 12t15 12q73 46 172 46q27 0 49.5 -6t39.5 -17l76 20l16 -12l-87 -399l11 -2q53 48 98 77t93 29q37 0 61 -14t37 -39.5t14 -60.5t-9 -76l-53 -218q-4 -17 -3.5 -28t10 -17t29.5 -8t56 -3l4 -22q-37 -22 -76.5 -35.5
t-74.5 -13.5q-43 0 -60.5 18.5t-16.5 49.5q0 12 2.5 27t5.5 29l49 207q25 109 -55 109q-26 0 -57 -15.5t-76 -48.5l-79 -363h-125zM562 665q-60 12 -81 102q-64 -3 -112 -54t-67 -166l-9 -51h214l4 21q10 45 22 82t29 66z" />
    <glyph glyph-name="f_f_i" unicode="ffi" horiz-adv-x="1026" 
d="M282 432l-56 -322q-11 -60 -23 -105.5t-28 -80.5t-37 -62t-48 -51q-35 -29 -73 -43t-73 -14q-45 0 -71 21t-26 52q0 26 19 45t50 19q32 0 60 -19t49 -54q16 19 30.5 61t28.5 122l74 431h-120l8 35l125 39l2 6q19 91 55 151t96 101q41 27 85 41t101 14q53 0 87.5 -16.5
t49.5 -41.5l14 12t15 12q37 23 79.5 35t95.5 12q70 0 110 -28t40 -66q0 -28 -19.5 -48t-49.5 -20q-34 0 -64.5 25t-45.5 85q-64 -2 -111.5 -53t-68.5 -169l-11 -62h196l124 32l16 -12l-94 -402q-5 -18 -4 -28.5t11 -16.5t31 -8t57 -3l4 -22q-42 -23 -81 -36t-76 -13
q-26 0 -42.5 8t-24.5 22t-8.5 33.5t4.5 42.5l79 339h-202l-56 -322q-11 -62 -23 -107.5t-27.5 -80.5t-36 -61.5t-47.5 -50.5q-35 -30 -68.5 -43.5t-69.5 -13.5q-40 0 -64.5 20t-23.5 49q1 26 19.5 44.5t47.5 18.5t55.5 -18t44.5 -47q14 20 25 57t22 102l78 453h-215z
M562 665q-29 6 -49.5 31.5t-31.5 70.5q-64 -3 -112 -54t-67 -166l-9 -51h214l4 21q10 45 22 82t29 66z" />
    <glyph glyph-name="f_f_j" unicode="ffj" horiz-adv-x="1010" 
d="M948 528l16 -12l-76 -406q-12 -62 -25 -107.5t-29.5 -81t-36.5 -62t-46 -49.5q-35 -30 -68 -43.5t-67 -13.5q-38 0 -61.5 19.5t-22.5 48.5q0 26 18.5 45t45.5 19q29 0 54.5 -18t42.5 -47q14 18 25.5 55t23.5 103l83 454h-204l-56 -322q-11 -62 -23 -107.5t-27.5 -80.5
t-36 -61.5t-47.5 -50.5q-35 -30 -68.5 -43.5t-69.5 -13.5q-40 0 -64.5 20t-23.5 49q1 26 19.5 44.5t47.5 18.5t55.5 -18t44.5 -47q14 20 25 57t22 102l78 453h-215l-56 -322q-11 -60 -23 -105.5t-28 -80.5t-37 -62t-48 -51q-35 -29 -73 -43t-73 -14q-45 0 -71 21t-26 52
q0 26 19 45t50 19q32 0 60 -19t49 -54q16 19 30.5 61t28.5 122l74 431h-120l8 35l125 39l2 6q19 91 55 151t96 101q41 27 85 41t101 14q53 0 87.5 -16.5t49.5 -41.5l14 12t15 12q37 23 79.5 35t95.5 12q70 0 110 -28t40 -66q0 -28 -19.5 -48t-49.5 -20q-34 0 -64.5 25
t-45.5 85q-64 -2 -111.5 -53t-68.5 -169l-11 -62h193zM562 665q-29 6 -49.5 31.5t-31.5 70.5q-64 -3 -112 -54t-67 -166l-9 -51h214l4 21q10 45 22 82t29 66z" />
    <glyph glyph-name="f_f_k" unicode="ffk" horiz-adv-x="1267" 
d="M833 496l41 188q-48 22 -67 93q-59 -5 -102.5 -56.5t-62.5 -161.5l-11 -63h202zM562 665q-60 12 -81 102q-64 -3 -112 -54t-67 -166l-9 -51h214l4 21q10 45 22 82t29 66zM819 432h-198l-56 -322q-11 -62 -23 -107.5t-27.5 -80.5t-36 -61.5t-47.5 -50.5
q-35 -30 -68.5 -43.5t-69.5 -13.5q-40 0 -64.5 20t-23.5 49q1 26 19.5 44.5t47.5 18.5t55.5 -18t44.5 -47q14 20 25 57t22 102l78 453h-215l-56 -322q-11 -60 -23 -105.5t-28 -80.5t-37 -62t-48 -51q-35 -29 -73 -43t-73 -14q-45 0 -71 21t-26 52q0 26 19 45t50 19
q32 0 60 -19t49 -54q16 19 30.5 61t28.5 122l74 431h-120l8 35l125 39l2 6q19 91 55 151t96 101q41 27 85 41t101 14q52 0 87 -16.5t49 -40.5l14 12t15 12q73 46 172 46q27 0 49.5 -6t39.5 -17l76 20l16 -12l-115 -529q63 13 110.5 37.5t76.5 49.5q-10 15 -15 30.5t-5 33.5
q0 35 22.5 60.5t56.5 25.5q37 0 56 -23t19 -52q0 -27 -12 -50t-39.5 -43.5t-71 -39t-106.5 -34.5l-1 -10q49 -5 70.5 -21t32.5 -43q12 -29 18 -52.5t14 -52.5q4 -14 9 -23.5t15.5 -15t29 -7.5t49.5 0l4 -21q-31 -20 -69.5 -35t-73.5 -15q-38 0 -57.5 19t-29.5 72
q-10 54 -18.5 86t-20.5 50t-29 25t-43 10l-54 -249h-125z" />
    <glyph glyph-name="f_f_l" unicode="ffl" horiz-adv-x="1026" 
d="M833 496l41 188q-48 22 -67 93q-59 -5 -102.5 -56.5t-62.5 -161.5l-11 -63h202zM282 432l-56 -322q-11 -60 -23 -105.5t-28 -80.5t-37 -62t-48 -51q-35 -29 -73 -43t-73 -14q-45 0 -71 21t-26 52q0 26 19 45t50 19q32 0 60 -19t49 -54q16 19 30.5 61t28.5 122l74 431
h-120l8 35l125 39l2 6q19 91 55 151t96 101q41 27 85 41t101 14q52 0 87 -16.5t49 -40.5l14 12t15 12q73 46 172 46q27 0 49.5 -6t39.5 -17l76 20l16 -12l-153 -703q-4 -18 -3.5 -28.5t10.5 -16t30.5 -8t55.5 -3.5l4 -22q-38 -22 -78.5 -35.5t-75.5 -13.5q-52 0 -67 29.5
t-5 76.5l73 339h-198l-56 -322q-11 -62 -23 -107.5t-27.5 -80.5t-36 -61.5t-47.5 -50.5q-35 -30 -68.5 -43.5t-69.5 -13.5q-40 0 -64.5 20t-23.5 49q1 26 19.5 44.5t47.5 18.5t55.5 -18t44.5 -47q14 20 25 57t22 102l78 453h-215zM562 665q-60 12 -81 102q-64 -3 -112 -54
t-67 -166l-9 -51h214l4 21q10 45 22 82t29 66z" />
    <glyph glyph-name=".notdef" horiz-adv-x="500" 
 />
    <glyph glyph-name="NUL" horiz-adv-x="0" 
 />
    <glyph glyph-name="nonmarkingreturn" horiz-adv-x="247" 
 />
    <glyph glyph-name="space" unicode=" " horiz-adv-x="247" 
 />
    <glyph glyph-name="D" unicode="D" horiz-adv-x="804" 
d="M-20 35l115 24l123 584l-105 23l8 35h291q175 0 266 -70.5t91 -209.5q0 -85 -30 -161.5t-90.5 -134t-151.5 -91.5t-212 -34h-312zM310 52q76 2 133 36.5t95.5 89t58 122t19.5 135.5q0 97 -47 152.5t-146 60.5l-58 2l-126 -600z" />
    <glyph glyph-name="E" unicode="E" horiz-adv-x="712" 
d="M-20 35l115 24l123 584l-105 23l8 35h579l-31 -213l-26 -6l-48 96q-10 20 -19.5 33t-22 20.5t-30 11t-43.5 3.5l-115 2l-58 -272h44q25 0 42.5 4t31 13.5t25.5 27t25 44.5l17 36h30l-63 -301h-28l-4 34q-4 28 -9 46t-14 28.5t-24.5 14.5t-39.5 4h-44l-56 -274l142 4
q25 0 43.5 3.5t34 11t29.5 18.5t31 28l106 108l22 -5l-62 -221h-613z" />
    <glyph glyph-name="F" unicode="F" horiz-adv-x="675" 
d="M-20 35l115 24l123 584l-105 23l8 35h582l-31 -213l-26 -6l-49 96q-10 19 -19 32t-21.5 21t-30 11.5t-43.5 3.5l-118 2l-60 -283h49q24 0 42 4.5t33 15t27.5 27.5t24.5 43l18 36h29l-63 -301h-28l-4 33q-3 27 -9 44.5t-16 28t-25.5 15t-38.5 4.5h-50l-53 -257l112 -23
l-8 -35h-372z" />
    <glyph glyph-name="G" unicode="G" horiz-adv-x="773" 
d="M335 -17q-61 0 -111.5 21t-86.5 60t-56 94.5t-20 124.5q0 82 30.5 160.5t85.5 139t131.5 97.5t168.5 37q54 0 99.5 -11t79.5 -28l49 43h34l-43 -251l-40 -2q-27 100 -68 149.5t-108 49.5q-54 0 -101.5 -34t-82.5 -90t-55 -127.5t-20 -145.5q0 -58 14 -99.5t38 -68t56 -39
t68 -12.5q21 0 42 5.5t46 18.5l43 191l-98 23l8 35h322l-8 -35l-87 -23l-58 -273l-30 -5l-64 52q-41 -27 -84 -42t-94 -15z" />
    <glyph glyph-name="H" unicode="H" horiz-adv-x="889" 
d="M-20 35l115 24l123 584l-105 23l8 35h356l-8 -35l-105 -24l-53 -250h304l52 251l-96 23l8 35h357l-8 -35l-115 -24l-123 -584l105 -23l-7 -35h-357l8 35l106 24l57 276h-303l-58 -277l96 -23l-8 -35h-356z" />
    <glyph glyph-name="I" unicode="I" horiz-adv-x="467" 
d="M-9 35l118 24l122 584l-107 23l8 35h370l-8 -35l-117 -24l-123 -584l106 -23l-7 -35h-369z" />
    <glyph glyph-name="J" unicode="J" horiz-adv-x="583" 
d="M155 -19q-48 0 -81.5 10.5t-54.5 27t-30.5 37.5t-9.5 42q0 39 23 65.5t61 26.5q24 0 41.5 -12.5t27 -34t8.5 -50.5t-14 -63q66 -5 102.5 33t53.5 121l97 459l-110 23l8 35h367l-8 -35l-111 -24l-86 -403q-14 -66 -36 -111.5t-59 -77.5q-36 -33 -82.5 -51t-106.5 -18z" />
    <glyph glyph-name="K" unicode="K" horiz-adv-x="792" 
d="M-20 35l115 24l123 584l-105 23l8 35h353l-7 -35l-103 -24l-56 -264h69l250 254l-73 39l6 30h278l-7 -35l-113 -41l-247 -229l173 -329l85 -32l-7 -35h-315l7 30l75 23l-126 266h-67l-55 -261l93 -23l-7 -35h-354z" />
    <glyph glyph-name="L" unicode="L" horiz-adv-x="678" 
d="M-20 35l115 24l123 584l-105 23l8 35h364l-8 -35l-113 -24l-123 -589l118 3q24 0 42 4t34 12.5t32 22t34 33.5l105 114l22 -4l-67 -238h-588z" />
    <glyph glyph-name="M" unicode="M" horiz-adv-x="1061" 
d="M-8 35l106 34l119 573l-91 24l7 35h296l16 -114l53 -407h15l226 409l61 112h307l-7 -35l-115 -24l-122 -584l104 -23l-8 -35h-349l8 35l102 24l116 554h-15l-346 -613h-82l-97 613h-14l-114 -545l89 -33l-8 -35h-264z" />
    <glyph glyph-name="N" unicode="N" horiz-adv-x="850" 
d="M506 111l-222 452h-12l-103 -494l89 -34l-8 -35h-264l8 35l104 35l118 564l-87 32l8 35h249l53 -117l174 -367h14l85 414l-89 35l8 35h263l-7 -35l-104 -36l-133 -637h-90z" />
    <glyph glyph-name="O" unicode="O" horiz-adv-x="798" 
d="M359 -16q-74 0 -130 22.5t-93 62t-55.5 95t-18.5 121.5q0 79 29 156.5t81 138.5t125 99t161 38q74 0 130 -22.5t93.5 -62t56 -95t18.5 -121.5q0 -79 -29 -156.5t-81 -138.5t-125.5 -99t-161.5 -38zM355 32q54 0 99.5 40.5t78 104t50.5 141.5t18 153q0 90 -35.5 143.5
t-102.5 53.5q-54 0 -99.5 -40.5t-78.5 -103.5t-51 -141t-18 -153q0 -90 35.5 -144t103.5 -54z" />
    <glyph glyph-name="P" unicode="P" horiz-adv-x="692" 
d="M-20 35l115 24l123 584l-105 23l8 35h311q132 0 194.5 -46.5t62.5 -132.5q0 -47 -20 -89t-58.5 -74t-93.5 -50.5t-125 -18.5q-26 0 -53 2.5t-48 6.5l-50 -241l115 -23l-8 -35h-375zM350 343q50 0 85 15.5t57.5 42t33 60.5t10.5 71q0 60 -31.5 88.5t-95.5 31.5
q-9 0 -23 -0.5t-21 -1.5l-63 -304q7 -2 22 -2.5t26 -0.5z" />
    <glyph glyph-name="Q" unicode="Q" horiz-adv-x="798" 
d="M494 -210q-59 0 -92 7t-56 28q-13 12 -25 34.5t-28 70.5l-23 67q-51 12 -90 38t-65.5 63.5t-39.5 85.5t-13 103q0 78 29 155t81 138t125 99t161 38q74 0 130 -22.5t93.5 -62t56 -95t18.5 -121.5q0 -72 -24.5 -142.5t-68.5 -129t-106 -99t-138 -52.5q17 -45 35 -74.5
t42 -48.5q25 -21 54.5 -30t67.5 -15l-12 -35h-112zM355 31q54 0 99.5 40.5t78 104.5t50.5 142t18 153q0 90 -35.5 143.5t-102.5 53.5q-54 0 -99.5 -40.5t-78.5 -103.5t-51 -141t-18 -153q0 -45 9 -81.5t26.5 -62.5t43.5 -40.5t60 -14.5z" />
    <glyph glyph-name="R" unicode="R" horiz-adv-x="750" 
d="M-20 35l115 24l123 584l-105 23l8 35h344q117 0 176.5 -40t59.5 -115t-57 -129.5t-178 -70.5l-3 -14q27 -8 46 -18.5t31.5 -25t20.5 -34t13 -46.5q11 -47 21 -81.5t27 -53.5q14 -16 32 -24t50 -14l-8 -35h-129q-29 0 -48.5 5.5t-32 19t-21 36.5t-16.5 59l-26 114
q-5 24 -12.5 39.5t-18 24.5t-26 12.5t-37.5 3.5h-35l-53 -256l103 -23l-8 -35h-363zM368 365q45 1 79 16.5t56.5 40t33.5 56.5t11 65q0 54 -32 80.5t-100 27.5q-10 0 -27.5 -0.5t-23.5 -2.5l-61 -284z" />
    <glyph glyph-name="S" unicode="S" horiz-adv-x="606" 
d="M50 240l40 1q12 -59 30.5 -99t42.5 -65t54 -35.5t65 -10.5q28 0 50.5 9.5t38 26t23.5 39t8 47.5q0 26 -7.5 45.5t-23.5 37t-41 33.5t-59 36q-31 18 -58 37t-47.5 42.5t-32.5 53t-12 67.5q0 45 17.5 83t49 66.5t75 44.5t94.5 16q46 0 84.5 -11t67.5 -30l43 39l34 -1
l-33 -221l-39 -2q-25 94 -61.5 136t-92.5 42q-51 0 -81 -30.5t-30 -81.5q0 -24 7.5 -41.5t23 -33t40 -31.5t59.5 -35q33 -20 60.5 -39.5t48 -42.5t31.5 -52t11 -67q0 -54 -21 -96t-56.5 -71.5t-81 -45t-94.5 -15.5q-59 0 -109.5 13t-85.5 32l-41 -40l-35 1z" />
    <glyph glyph-name="T" unicode="T" horiz-adv-x="736" 
d="M122 35l123 24l124 592h-48q-17 0 -31 -3t-29 -12.5t-34 -27t-46 -47.5l-90 -99l-24 6l75 233h615l-12 -233l-25 -6l-50 99q-14 27 -25.5 44.5t-24 27.5t-26.5 14t-33 4h-46l-124 -593l112 -23l-7 -35h-380z" />
    <glyph glyph-name="U" unicode="U" horiz-adv-x="816" 
d="M381 -17q-152 0 -215 78.5t-31 227.5l75 354l-105 23l7 35h368l-7 -35l-116 -24l-80 -376q-20 -95 13.5 -150t126.5 -55q43 0 76.5 14t57.5 38.5t39.5 58t23.5 71.5l82 390l-82 33l8 35h254l-8 -35l-100 -34l-89 -415q-11 -53 -35 -96t-61.5 -74t-88 -47.5t-113.5 -16.5z
" />
    <glyph glyph-name="V" unicode="V" horiz-adv-x="769" 
d="M177 637l-96 29l8 35h364l-7 -35l-116 -24l74 -490l265 476l-80 38l7 35h256l-7 -35l-98 -40l-375 -633h-79z" />
    <glyph glyph-name="W" unicode="W" horiz-adv-x="1095" 
d="M182 637l-94 29l6 35h334l-7 -33l-86 -23l25 -474l224 403l-8 66l-73 28l6 33h312l-6 -33l-92 -26l46 -473l226 462l-72 37l5 33h240l-7 -35l-91 -38l-338 -635h-76l-61 488l-277 -488h-76z" />
    <glyph glyph-name="X" unicode="X" horiz-adv-x="793" 
d="M-17 35l94 30l267 269l-146 306l-88 26l7 35h339l-6 -31l-93 -21l91 -223l191 216l-74 28l7 31h260l-8 -35l-96 -30l-254 -256l155 -319l88 -26l-8 -35h-336l7 31l89 21l-98 237l-204 -230l74 -28l-8 -31h-258z" />
    <glyph glyph-name="Y" unicode="Y" horiz-adv-x="752" 
d="M145 35l115 27l51 238l-129 334l-89 32l7 35h342l-7 -33l-97 -26l98 -276l205 269l-75 33l7 33h251l-8 -35l-93 -37l-267 -320l-53 -247l105 -27l-7 -35h-363z" />
    <glyph glyph-name="Z" unicode="Z" horiz-adv-x="715" 
d="M-11 25l553 621l-171 -2q-21 0 -38.5 -3.5t-34 -11.5t-34 -22.5t-39.5 -36.5l-87 -86l-23 7l66 210h551v-25l-551 -622l201 2q22 0 39.5 3.5t33 11.5t30.5 21t32 32l105 116l22 -5l-72 -235h-584z" />
    <glyph glyph-name="a" unicode="a" horiz-adv-x="607" 
d="M165 -13q-58 0 -96.5 40t-38.5 112q0 78 33 147.5t83 122t109.5 83t113.5 30.5q35 0 58.5 -7.5t49.5 -21.5l59 54l28 -10l-92 -419q-4 -19 -4 -30.5t9 -18t29.5 -9t56.5 -2.5l4 -22q-37 -22 -74.5 -35.5t-73.5 -13.5q-46 0 -62 26t-8 73l-11 3q-24 -24 -45 -43t-41 -32
t-41.5 -20t-45.5 -7zM238 82q26 0 52 14t63 46l56 258q-19 26 -42 41.5t-46 15.5q-33 0 -61.5 -27t-49.5 -67.5t-33.5 -89t-12.5 -91.5q0 -54 20.5 -77t53.5 -23z" />
    <glyph glyph-name="b" unicode="b" horiz-adv-x="604" 
d="M217 -13q-53 0 -96.5 12.5t-79.5 31.5l147 681l-92 36l3 27l221 54l16 -12l-83 -380l11 -2q38 39 77.5 63t86.5 24q29 0 55 -11.5t45 -33.5t30 -53.5t11 -70.5q0 -72 -30.5 -138.5t-80 -117t-112.5 -80.5t-129 -30zM282 52q32 0 60 25t48.5 64t32 86t11.5 91
q0 57 -22.5 85.5t-62.5 28.5q-26 0 -53.5 -15t-54.5 -39l-61 -281q45 -45 102 -45z" />
    <glyph glyph-name="c" unicode="c" horiz-adv-x="511" 
d="M240 -13q-44 0 -81 14t-63.5 40.5t-41.5 64t-15 84.5q0 62 25 122t67.5 106.5t100 75t122.5 28.5q34 0 59.5 -9t43 -24t26 -34t8.5 -39q0 -32 -19.5 -54t-48.5 -22q-35 0 -53.5 23t-18.5 61q0 14 2.5 28.5t6.5 28.5q-40 -3 -74 -26.5t-58.5 -61t-38.5 -85t-14 -98.5
q0 -71 36 -104.5t89 -33.5q35 0 64.5 13t65.5 39l19 -17q-32 -52 -84.5 -86t-124.5 -34z" />
    <glyph glyph-name="d" unicode="d" horiz-adv-x="625" 
d="M173 -13q-29 0 -55 12t-45 33.5t-30 53t-11 70.5q0 72 30 138.5t79.5 117t113 80.5t129.5 30q17 0 32 -2t28 -4l41 196l-92 36l3 27l221 54l16 -12l-152 -699q-4 -19 -4 -30.5t9 -18t29.5 -9t56.5 -2.5l4 -22q-37 -22 -74.5 -35.5t-73.5 -13.5q-46 0 -62 26t-8 73l-11 3
q-45 -47 -84.5 -74.5t-89.5 -27.5zM246 82q27 0 55 16t61 45l58 266q-21 23 -45.5 35.5t-55.5 12.5q-32 0 -60 -25t-48 -63.5t-31.5 -85.5t-11.5 -91q0 -57 22 -83.5t56 -26.5z" />
    <glyph glyph-name="e" unicode="e" horiz-adv-x="524" 
d="M169 273q112 0 164.5 40t52.5 105q0 28 -15.5 44.5t-41.5 16.5q-25 0 -50 -15.5t-47 -43.5t-38.5 -65.5t-24.5 -81.5zM164 232q-5 -78 30 -119t107 -41q36 0 70 13t66 37l19 -17q-34 -53 -88 -85.5t-127 -32.5q-48 0 -86 14.5t-64.5 40t-40 61t-13.5 78.5q0 64 24 125.5
t66 109.5t98 77t120 29q75 0 115.5 -33.5t40.5 -84.5q0 -45 -25 -78.5t-69.5 -55t-106.5 -31.5t-136 -7z" />
    <glyph glyph-name="f" unicode="f" horiz-adv-x="386" 
d="M-56 -246q-45 0 -71 21t-26 52q0 26 19 45t50 19q32 0 60 -19t49 -54q16 19 30.5 61t28.5 122l74 431h-120l8 35l125 39l5 23q19 88 53.5 147.5t94.5 102.5q36 26 73.5 38.5t80.5 12.5q57 0 85.5 -24t28.5 -57q0 -28 -18.5 -48t-51.5 -20q-30 0 -59.5 22t-49.5 69
q-38 -10 -65.5 -65.5t-47.5 -170.5l-7 -40h136l-13 -64h-134l-56 -322q-11 -60 -23 -105.5t-28 -80.5t-37 -62t-48 -51q-35 -29 -73 -43t-73 -14z" />
    <glyph glyph-name="g" unicode="g" horiz-adv-x="567" 
d="M129 16q-32 -21 -46.5 -46.5t-14.5 -51.5q0 -28 13.5 -50t37 -37t55 -23t67.5 -8q54 0 87.5 22t33.5 64q0 20 -10.5 37.5t-37 33.5t-71.5 30.5t-114 28.5zM295 482q-35 0 -62 -27q-26 -26 -39.5 -67t-13.5 -83q0 -53 21 -80.5t57 -27.5q17 0 32.5 7.5t29.5 21.5
q25 25 39 66t14 85q0 52 -20.5 78.5t-57.5 26.5zM166 175q-50 17 -79 52.5t-29 86.5q0 42 19.5 80t53 66.5t78.5 45t97 16.5q45 0 80.5 -13t59.5 -35l110 53h67l-22 -105h-27l-90 23l-6 -8q18 -30 18 -69q0 -42 -18.5 -80t-51.5 -66t-78 -44.5t-99 -16.5h-16.5t-16.5 2
q-3 -19 -3 -31.5t5.5 -20t16.5 -12.5t30 -9q114 -27 161.5 -65t47.5 -89q0 -37 -18.5 -70t-53 -57.5t-85 -39t-114.5 -14.5q-58 0 -104.5 10.5t-79 29.5t-50 44.5t-17.5 54.5q0 50 43 91t131 65z" />
    <glyph glyph-name="h" unicode="h" horiz-adv-x="630" 
d="M446 -13q-42 0 -59.5 18.5t-17.5 49.5q1 12 3 27t6 29l48 207q27 109 -55 109q-26 0 -57 -15.5t-76 -48.5l-78 -363h-126l154 712l-92 36l3 27l221 54l16 -12l-86 -399l10 -2q53 48 98 77t93 29q37 0 61 -14t37 -39.5t14 -60.5t-9 -76l-52 -218q-4 -17 -3.5 -28t9.5 -17
t29.5 -8t56.5 -3l4 -22q-38 -22 -77.5 -35.5t-74.5 -13.5z" />
    <glyph glyph-name="i" unicode="i" horiz-adv-x="350" 
d="M249 632q-27 0 -45.5 17.5t-18.5 52.5q0 20 7 40t20 36t31 26t39 10q27 0 45.5 -17.5t18.5 -52.5q0 -20 -7 -39.5t-20 -36t-31 -26.5t-39 -10zM140 -13q-53 0 -68 29.5t-4 76.5l74 317l-89 36l3 27l219 55l16 -12l-94 -402q-5 -18 -4 -28.5t11 -16.5t31 -8t57 -3l4 -22
q-42 -23 -81 -36t-75 -13z" />
    <glyph glyph-name="j" unicode="j" horiz-adv-x="330" 
d="M244 632q-27 0 -45.5 17.5t-18.5 52.5q0 20 7 40t20 36t31 26t39 10q27 0 45.5 -17.5t18.5 -52.5q0 -20 -7 -39.5t-20 -36t-31 -26.5t-39 -10zM-75 -246q-43 0 -67 19.5t-24 50.5q0 25 18.5 44t49.5 19q28 0 57 -18t46 -50q17 17 31 58t30 122l79 410l-93 37l3 27l216 55
l16 -12l-77 -406q-12 -62 -25.5 -107.5t-30 -80t-37 -61t-46.5 -49.5q-35 -29 -72 -43.5t-74 -14.5z" />
    <glyph glyph-name="k" unicode="k" horiz-adv-x="575" 
d="M412 -13q-38 0 -58 19t-30 72q-9 54 -18 86t-21 50t-29 25t-43 10l-53 -249h-126l154 712l-92 36l3 27l221 54l16 -12l-115 -529q63 13 110.5 37.5t76.5 49.5q-10 15 -15 30.5t-5 33.5q0 35 22.5 60.5t56.5 25.5q37 0 56 -23t19 -52q0 -27 -12 -50t-39 -43.5t-71 -39
t-107 -34.5l-1 -10q49 -5 70.5 -21t33.5 -43q11 -29 17 -52.5t14 -52.5q4 -14 9 -23.5t16 -15t29.5 -7.5t49.5 0l3 -21q-30 -20 -68.5 -35t-73.5 -15z" />
    <glyph glyph-name="l" unicode="l" horiz-adv-x="338" 
d="M132 -13q-26 0 -43 8t-25 22t-9 33.5t4 42.5l134 619l-92 36l3 27l221 54l16 -12l-153 -703q-4 -18 -3.5 -28.5t10.5 -16t30.5 -8t56.5 -3.5l4 -22q-38 -22 -78.5 -35.5t-75.5 -13.5z" />
    <glyph glyph-name="m" unicode="m" horiz-adv-x="949" 
d="M760 -13q-43 0 -60.5 18.5t-16.5 49.5q0 12 2.5 27t5.5 29l49 210q13 51 0 78.5t-51 27.5q-22 0 -55 -17.5t-72 -46.5l-78 -363h-126l72 325q10 50 -3.5 76t-48.5 26q-24 0 -57.5 -17.5t-72.5 -46.5l-78 -363h-126l89 410l-84 36l3 27l211 55l16 -12l-32 -108l11 -2
q56 51 103.5 83.5t97.5 32.5q51 0 76.5 -32t27.5 -80l11 -2q55 51 103 82.5t94 31.5q35 0 58 -14.5t35 -40t12.5 -59.5t-8.5 -73l-53 -221q-4 -17 -3.5 -28t10 -17t29.5 -8t56 -3l4 -22q-37 -22 -76.5 -35.5t-74.5 -13.5z" />
    <glyph glyph-name="n" unicode="n" horiz-adv-x="640" 
d="M456 -13q-42 0 -59.5 18.5t-17.5 49.5q1 12 3 27t6 29l48 207q27 109 -55 109q-26 0 -57 -15.5t-76 -48.5l-78 -363h-126l89 410l-84 36l3 27l211 55l16 -12l-32 -108l11 -2q57 53 106 84.5t98 31.5q37 0 61 -14t36.5 -39.5t13.5 -60.5t-9 -76l-52 -218q-4 -17 -3.5 -28
t10 -17t29.5 -8t56 -3l4 -22q-38 -22 -77.5 -35.5t-74.5 -13.5z" />
    <glyph glyph-name="o" unicode="o" horiz-adv-x="586" 
d="M233 -13q-41 0 -76.5 13t-61.5 38t-41 62.5t-15 85.5q0 63 23.5 123t65.5 107.5t99.5 76.5t125.5 29q41 0 76.5 -13t62 -38t41.5 -62.5t15 -85.5q0 -63 -24 -123t-66 -107.5t-99.5 -76.5t-125.5 -29zM263 38q36 0 63.5 31t47 76t29.5 96.5t10 93.5q0 62 -23 99.5
t-66 37.5q-36 0 -64 -31t-47.5 -76.5t-29.5 -97t-10 -93.5q0 -62 23 -99t67 -37z" />
    <glyph glyph-name="p" unicode="p" horiz-adv-x="614" 
d="M-73 -202l79 28l127 584l-84 36l3 27l211 55l16 -12l-30 -98l11 -3q43 47 84 77t95 30q29 0 54.5 -11.5t44.5 -33.5t30 -53.5t11 -70.5q0 -72 -30.5 -138.5t-80 -117t-112.5 -80.5t-129 -30q-15 0 -31.5 1.5t-27.5 3.5l-36 -166l81 -29l-6 -31h-288zM292 52q32 0 60 25
t48.5 64t32 86t11.5 91q0 57 -22 83t-57 26q-27 0 -55 -16t-61 -45l-59 -269q45 -45 102 -45z" />
    <glyph glyph-name="q" unicode="q" horiz-adv-x="607" 
d="M206 -203l88 29l57 257l-12 3q-35 -41 -75.5 -70t-90.5 -29q-29 0 -55 12t-45 33.5t-30 53t-11 70.5q0 72 30.5 138.5t79.5 117t111.5 80.5t126.5 30q31 0 56 -5.5t51 -17.5l58 48l28 -10l-153 -711l73 -28l-6 -32h-288zM247 80q26 0 54 15.5t61 44.5l59 272
q-45 45 -102 45q-32 0 -60 -25t-48 -63.5t-31.5 -85.5t-11.5 -91q0 -57 21 -84.5t58 -27.5z" />
    <glyph glyph-name="r" unicode="r" horiz-adv-x="489" 
d="M133 410l-84 36l3 27l205 55l16 -12l-32 -121l12 -3q47 67 84 99.5t80 32.5q37 0 56.5 -21.5t19.5 -53.5q0 -37 -22 -60t-54 -23q-50 0 -78 54q-20 -10 -45.5 -31t-50.5 -51l-74 -338h-125z" />
    <glyph glyph-name="s" unicode="s" horiz-adv-x="485" 
d="M215 -13q-45 0 -82.5 8.5t-64.5 23.5t-41.5 36t-14.5 46q0 32 19.5 53.5t45.5 21.5q35 0 54.5 -32t11.5 -87q40 -23 87 -23q36 0 59.5 20.5t23.5 54.5q0 27 -17 46.5t-64 44.5l-39 20q-24 12 -44.5 24.5t-34.5 28t-22 35.5t-8 46q0 32 15 62.5t43 54t66.5 37.5t86.5 14
q39 0 69 -8.5t50.5 -22.5t30.5 -31.5t10 -35.5q0 -29 -16 -45.5t-41 -16.5q-32 0 -55 27.5t-29 75.5q-11 4 -22.5 6.5t-21.5 2.5q-33 0 -55.5 -21.5t-22.5 -49.5q0 -26 18 -44t62 -40l39 -21q55 -29 83 -59t28 -80q0 -34 -14.5 -65t-41.5 -55t-65 -38t-86 -14z" />
    <glyph glyph-name="t" unicode="t" horiz-adv-x="421" 
d="M173 -12q-37 0 -58 12.5t-31 33t-9.5 47.5t7.5 57l64 294h-91l7 32l119 67l90 127l48 -9l-33 -152h148l-14 -65h-148l-57 -260q-8 -38 -7.5 -57t13.5 -30q9 -9 29 -13.5t58 -4.5q29 0 59 3v-29q-51 -23 -97 -38t-97 -15z" />
    <glyph glyph-name="u" unicode="u" horiz-adv-x="642" 
d="M176 -13q-37 0 -61 14t-36.5 39.5t-13.5 60.5t9 76l55 235l-82 34l2 27l211 55l17 -12l-75 -325q-25 -109 55 -109q26 0 57 15.5t76 48.5l57 265l-81 35v27l213 55l16 -12l-87 -401q-4 -18 -3.5 -28.5t9.5 -16.5t29.5 -8.5t55.5 -3.5l4 -22q-37 -22 -75.5 -35.5
t-73.5 -13.5q-26 0 -41.5 9t-23 24.5t-7.5 35.5t4 41l-11 2q-54 -49 -102 -80.5t-97 -31.5z" />
    <glyph glyph-name="v" unicode="v" horiz-adv-x="599" 
d="M179 -5l15 39q-8 125 -21 208.5t-28 132.5q-8 25 -17.5 34.5t-27.5 9.5q-20 0 -64 -14l-12 19q36 40 77 69t80 29q31 0 49 -14.5t29 -44.5q17 -46 30 -137t16 -206l9 -2q51 54 87 104.5t58 99.5q-19 27 -28.5 56t-9.5 53q0 44 22 68.5t55 24.5t53 -23.5t20 -62.5
q0 -45 -23.5 -95.5t-68.5 -108t-111.5 -122t-152.5 -138.5z" />
    <glyph glyph-name="w" unicode="w" horiz-adv-x="854" 
d="M173 -7l16 43q-3 65 -7.5 115.5t-10 91t-12 73t-14.5 59.5q-8 25 -17.5 34.5t-26.5 9.5q-23 0 -65 -14l-12 19q36 40 77 69t79 29q30 0 48 -13.5t29 -45.5q8 -23 15 -57.5t12.5 -77.5t9.5 -93.5t5 -104.5l10 -2q35 47 66 94t57 97l-12 76t-13 74l110 56h9
q11 -89 27 -193.5t30 -207.5l10 -2q45 54 75.5 104t47.5 98q-20 28 -29 56.5t-9 52.5q0 45 21.5 68t53.5 23q35 0 54.5 -24t19.5 -64q0 -47 -23 -98.5t-65.5 -109t-103 -121t-135.5 -132.5l-35 17l16 44l-35 202q-44 -63 -103.5 -128.5t-135.5 -133.5z" />
    <glyph glyph-name="x" unicode="x" horiz-adv-x="576" 
d="M71 -13q-34 0 -56 19.5t-22 49.5q0 29 18.5 50.5t51.5 21.5q37 0 67 -32q18 11 47 48t57 85q-14 47 -27 87.5t-27 71.5q-8 18 -16 28t-20.5 14.5t-30.5 4.5t-46 -4l-8 21q38 32 72 51t68 19q25 0 42 -8t30.5 -29t24.5 -57t24 -91l9 -1q24 51 45.5 86.5t42.5 58t42 33
t45 10.5q33 0 54.5 -20t21.5 -50t-19 -51.5t-51 -21.5q-19 0 -36 9t-32 24q-18 -12 -45.5 -46.5t-54.5 -82.5q24 -95 53 -163q8 -18 16 -28t20.5 -14.5t30.5 -4t47 4.5l6 -21q-36 -32 -69.5 -51.5t-67.5 -19.5q-26 0 -43.5 9t-30.5 30.5t-24 58.5t-23 93l-11 1
q-25 -52 -46.5 -88.5t-42.5 -60t-42 -34t-44 -10.5z" />
    <glyph glyph-name="y" unicode="y" horiz-adv-x="577" 
d="M59 -245q-44 0 -72 23.5t-28 68.5q0 12 4 25t13 24.5t22.5 18.5t32.5 7q30 0 50 -27.5t22 -77.5q36 21 71.5 60.5t61.5 84.5q-20 135 -42 239.5t-42 160.5q-12 35 -24 45t-31 10q-23 0 -62 -14l-12 19q38 44 78 72t78 28q33 0 52.5 -15t32.5 -53q9 -27 18.5 -64.5
t18 -82.5t15.5 -96.5t12 -105.5h11q35 97 63 204.5t51 219.5h9l113 -55q-43 -89 -87.5 -182t-91 -180t-96.5 -162t-104 -126q-36 -35 -70.5 -52t-66.5 -17z" />
    <glyph glyph-name="z" unicode="z" horiz-adv-x="534" 
d="M363 -15q-23 0 -49 4.5t-65 14.5l-146 39l-88 -58l-27 28l400 389q-82 10 -135 14t-88 4q-14 0 -23 -1t-16 -3l-1 -9q26 -11 38.5 -29t12.5 -39q0 -24 -16 -41.5t-44 -17.5q-29 0 -47.5 19t-18.5 48q0 23 13 48.5t42 63.5q28 40 53.5 52.5t59.5 12.5q72 0 152 -26l79 -24
l88 54l26 -27l-387 -379l143 -17q23 -3 39.5 -1.5t31.5 9t32 23.5t41 43l20 -10q-20 -57 -36 -92.5t-29.5 -56t-26.5 -28t-28 -7.5z" />
    <glyph glyph-name="Aacute" unicode="&#xc1;" horiz-adv-x="774" 
d="M-53 35l97 33l367 639h105l101 -645l93 -27l-8 -35h-344l6 32l105 25l-24 178h-236l-92 -170l74 -33l-7 -32h-244zM439 288l-38 284h-11l-153 -284h202zM426 802q32 62 58.5 113t49.5 77q20 23 47.5 29.5t47.5 -10.5q21 -17 19 -42.5t-24 -50.5q-23 -26 -69 -59.5
t-106 -74.5z" />
    <glyph glyph-name="aacute" unicode="&#xe1;" horiz-adv-x="607" 
d="M165 -13q-58 0 -96.5 40t-38.5 112q0 78 33 147.5t83 122t109.5 83t113.5 30.5q35 0 58.5 -7.5t49.5 -21.5l59 54l28 -10l-92 -419q-4 -19 -4 -30.5t9 -18t29.5 -9t56.5 -2.5l4 -22q-37 -22 -74.5 -35.5t-73.5 -13.5q-46 0 -62 26t-8 73l-11 3q-24 -24 -45 -43t-41 -32
t-41.5 -20t-45.5 -7zM238 82q26 0 52 14t63 46l56 258q-19 26 -42 41.5t-46 15.5q-33 0 -61.5 -27t-49.5 -67.5t-33.5 -89t-12.5 -91.5q0 -54 20.5 -77t53.5 -23zM331 609q32 63 59.5 114.5t50.5 78.5q10 12 22.5 19.5t25.5 10.5t26 1t23 -11q22 -18 19.5 -44t-24.5 -51
q-23 -27 -71 -60.5t-108 -75.5z" />
    <glyph glyph-name="Abreve" unicode="&#x102;" horiz-adv-x="774" 
d="M-53 35l97 33l367 639h105l101 -645l93 -27l-8 -35h-344l6 32l105 25l-24 178h-236l-92 -170l74 -33l-7 -32h-244zM439 288l-38 284h-11l-153 -284h202zM484 793q-73 0 -106.5 49t-22.5 139l37 11q9 -51 35 -77t77 -26q43 0 74.5 26t58.5 77l36 -11q-27 -97 -73.5 -142.5
t-115.5 -45.5z" />
    <glyph glyph-name="abreve" unicode="&#x103;" horiz-adv-x="607" 
d="M165 -13q-58 0 -96.5 40t-38.5 112q0 78 33 147.5t83 122t109.5 83t113.5 30.5q35 0 58.5 -7.5t49.5 -21.5l59 54l28 -10l-92 -419q-4 -19 -4 -30.5t9 -18t29.5 -9t56.5 -2.5l4 -22q-37 -22 -74.5 -35.5t-73.5 -13.5q-46 0 -62 26t-8 73l-11 3q-24 -24 -45 -43t-41 -32
t-41.5 -20t-45.5 -7zM238 82q26 0 52 14t63 46l56 258q-19 26 -42 41.5t-46 15.5q-33 0 -61.5 -27t-49.5 -67.5t-33.5 -89t-12.5 -91.5q0 -54 20.5 -77t53.5 -23zM391 600q-75 0 -109 50t-23 141l37 11q10 -51 36.5 -77.5t78.5 -26.5q44 0 76 26t60 78l36 -11
q-27 -99 -74 -145t-118 -46z" />
    <glyph glyph-name="Acircumflex" unicode="&#xc2;" horiz-adv-x="774" 
d="M-53 35l97 33l367 639h105l101 -645l93 -27l-8 -35h-344l6 32l105 25l-24 178h-236l-92 -170l74 -33l-7 -32h-244zM439 288l-38 284h-11l-153 -284h202zM323 806l170 205h59l84 -205l-30 -25l-104 114l-157 -114z" />
    <glyph glyph-name="acircumflex" unicode="&#xe2;" horiz-adv-x="607" 
d="M165 -13q-58 0 -96.5 40t-38.5 112q0 78 33 147.5t83 122t109.5 83t113.5 30.5q35 0 58.5 -7.5t49.5 -21.5l59 54l28 -10l-92 -419q-4 -19 -4 -30.5t9 -18t29.5 -9t56.5 -2.5l4 -22q-37 -22 -74.5 -35.5t-73.5 -13.5q-46 0 -62 26t-8 73l-11 3q-24 -24 -45 -43t-41 -32
t-41.5 -20t-45.5 -7zM238 82q26 0 52 14t63 46l56 258q-19 26 -42 41.5t-46 15.5q-33 0 -61.5 -27t-49.5 -67.5t-33.5 -89t-12.5 -91.5q0 -54 20.5 -77t53.5 -23zM227 612l173 209h60l85 -209l-31 -24l-105 116l-161 -116z" />
    <glyph glyph-name="Adieresis" unicode="&#xc4;" horiz-adv-x="774" 
d="M-53 35l97 33l367 639h105l101 -645l93 -27l-8 -35h-344l6 32l105 25l-24 178h-236l-92 -170l74 -33l-7 -32h-244zM439 288l-38 284h-11l-153 -284h202zM603 798q-32 0 -52.5 21t-20.5 53t22.5 56.5t57.5 24.5q32 0 52.5 -21t20.5 -53t-22.5 -56.5t-57.5 -24.5zM379 798
q-32 0 -52.5 21t-20.5 53t22.5 56.5t57.5 24.5q32 0 52.5 -21t20.5 -53t-23 -56.5t-57 -24.5z" />
    <glyph glyph-name="adieresis" unicode="&#xe4;" horiz-adv-x="607" 
d="M165 -13q-58 0 -96.5 40t-38.5 112q0 78 33 147.5t83 122t109.5 83t113.5 30.5q35 0 58.5 -7.5t49.5 -21.5l59 54l28 -10l-92 -419q-4 -19 -4 -30.5t9 -18t29.5 -9t56.5 -2.5l4 -22q-37 -22 -74.5 -35.5t-73.5 -13.5q-46 0 -62 26t-8 73l-11 3q-24 -24 -45 -43t-41 -32
t-41.5 -20t-45.5 -7zM238 82q26 0 52 14t63 46l56 258q-19 26 -42 41.5t-46 15.5q-33 0 -61.5 -27t-49.5 -67.5t-33.5 -89t-12.5 -91.5q0 -54 20.5 -77t53.5 -23zM510 605q-32 0 -52.5 21.5t-20.5 53.5q0 16 6 31t17 26.5t25.5 18.5t32.5 7q32 0 53 -21.5t21 -54.5
q0 -16 -6 -31t-17 -26t-26 -18t-33 -7zM283 605q-33 0 -53.5 21.5t-20.5 53.5q0 16 6 31t17 26.5t25.5 18.5t32.5 7q33 0 53.5 -21.5t20.5 -54.5q0 -16 -6 -31t-17 -26t-26 -18t-32 -7z" />
    <glyph glyph-name="AE" unicode="&#xc6;" horiz-adv-x="1059" 
d="M-62 35l90 32l449 575l-111 24l8 35h672l-31 -213l-25 -6l-49 96q-10 20 -19 33t-22 20.5t-30.5 11t-43.5 3.5l-115 2l-57 -272h43q25 0 42.5 4t31.5 13.5t26 27t25 44.5l17 36h30l-64 -301h-27l-5 34q-3 28 -8 46.5t-14.5 28.5t-25 14t-39.5 4h-43l-57 -274l143 4
q24 0 42.5 3.5t34 11t29.5 18.5t31 28l106 108l22 -5l-62 -221h-612l8 35l115 24l43 203h-227l-150 -199l81 -31l-6 -32h-253zM497 314l70 332h-17l-252 -332h199z" />
    <glyph glyph-name="ae" unicode="&#xe6;" horiz-adv-x="826" 
d="M470 273q112 0 165 40t53 105q0 28 -15.5 44.5t-41.5 16.5q-25 0 -50 -15.5t-47 -43.5t-39 -65.5t-25 -81.5zM352 91q-27 -27 -49 -46.5t-43 -32.5t-43 -19t-48 -6q-62 0 -100.5 40.5t-38.5 114.5q0 76 33.5 145t84 121.5t110.5 83t113 30.5q41 0 74 -13.5t53 -31.5
q34 22 71 33.5t78 11.5q74 0 115 -33.5t41 -84.5q0 -45 -25 -78.5t-69.5 -55t-106.5 -31.5t-136 -7q-5 -78 30 -119t107 -41q36 0 70 13t66 37l19 -17q-35 -53 -88.5 -85.5t-126.5 -32.5q-69 0 -116 28t-70 76h-5zM415 399q-20 27 -43 42.5t-49 15.5q-33 0 -61.5 -27
t-50.5 -67.5t-34.5 -88t-12.5 -89.5q0 -57 20 -80t54 -23q23 0 47.5 11.5t57.5 39.5q-2 11 -3 23t-1 25q0 58 20 115t56 103z" />
    <glyph glyph-name="AEacute" unicode="&#x1fc;" horiz-adv-x="1059" 
d="M646 797q32 62 58.5 113t49.5 77q20 23 47.5 29.5t47.5 -10.5q21 -17 19 -42.5t-24 -50.5q-23 -26 -69 -59.5t-106 -74.5zM-62 35l90 32l449 575l-111 24l8 35h672l-31 -213l-25 -6l-49 96q-10 20 -19 33t-22 20.5t-30.5 11t-43.5 3.5l-115 2l-57 -272h43q25 0 42.5 4
t31.5 13.5t26 27t25 44.5l17 36h30l-64 -301h-27l-5 34q-3 28 -8 46.5t-14.5 28.5t-25 14t-39.5 4h-43l-57 -274l143 4q24 0 42.5 3.5t34 11t29.5 18.5t31 28l106 108l22 -5l-62 -221h-612l8 35l115 24l43 203h-227l-150 -199l81 -31l-6 -32h-253zM497 314l70 332h-17
l-252 -332h199z" />
    <glyph glyph-name="aeacute" unicode="&#x1fd;" horiz-adv-x="826" 
d="M440 603q32 63 59.5 114.5t50.5 78.5q10 12 22.5 19.5t25.5 10.5t26 1t23 -11q22 -18 19.5 -44t-24.5 -51q-23 -27 -71 -60.5t-108 -75.5zM470 273q112 0 165 40t53 105q0 28 -15.5 44.5t-41.5 16.5q-25 0 -50 -15.5t-47 -43.5t-39 -65.5t-25 -81.5zM352 91
q-27 -27 -49 -46.5t-43 -32.5t-43 -19t-48 -6q-62 0 -100.5 40.5t-38.5 114.5q0 76 33.5 145t84 121.5t110.5 83t113 30.5q41 0 74 -13.5t53 -31.5q34 22 71 33.5t78 11.5q74 0 115 -33.5t41 -84.5q0 -45 -25 -78.5t-69.5 -55t-106.5 -31.5t-136 -7q-5 -78 30 -119t107 -41
q36 0 70 13t66 37l19 -17q-35 -53 -88.5 -85.5t-126.5 -32.5q-69 0 -116 28t-70 76h-5zM415 399q-20 27 -43 42.5t-49 15.5q-33 0 -61.5 -27t-50.5 -67.5t-34.5 -88t-12.5 -89.5q0 -57 20 -80t54 -23q23 0 47.5 11.5t57.5 39.5q-2 11 -3 23t-1 25q0 58 20 115t56 103z" />
    <glyph glyph-name="Agrave" unicode="&#xc0;" horiz-adv-x="774" 
d="M-53 35l97 33l367 639h105l101 -645l93 -27l-8 -35h-344l6 32l105 25l-24 178h-236l-92 -170l74 -33l-7 -32h-244zM439 288l-38 284h-11l-153 -284h202zM479 784q-38 40 -70 78.5t-44 64.5q-13 26 -6 51t32 37q26 13 49 3.5t34 -35.5t19.5 -72.5t16.5 -109.5l-31 -17v0z
" />
    <glyph glyph-name="agrave" unicode="&#xe0;" horiz-adv-x="607" 
d="M165 -13q-58 0 -96.5 40t-38.5 112q0 78 33 147.5t83 122t109.5 83t113.5 30.5q35 0 58.5 -7.5t49.5 -21.5l59 54l28 -10l-92 -419q-4 -19 -4 -30.5t9 -18t29.5 -9t56.5 -2.5l4 -22q-37 -22 -74.5 -35.5t-73.5 -13.5q-46 0 -62 26t-8 73l-11 3q-24 -24 -45 -43t-41 -32
t-41.5 -20t-45.5 -7zM238 82q26 0 52 14t63 46l56 258q-19 26 -42 41.5t-46 15.5q-33 0 -61.5 -27t-49.5 -67.5t-33.5 -89t-12.5 -91.5q0 -54 20.5 -77t53.5 -23zM385 590q-39 41 -71.5 80.5t-45.5 65.5q-12 27 -5.5 52t32.5 38t50 3t35 -36q11 -27 19.5 -74.5t16.5 -110.5
l-31 -18v0z" />
    <glyph glyph-name="Amacron" unicode="&#x100;" horiz-adv-x="774" 
d="M-53 35l97 33l367 639h105l101 -645l93 -27l-8 -35h-344l6 32l105 25l-24 178h-236l-92 -170l74 -33l-7 -32h-244zM439 288l-38 284h-11l-153 -284h202zM343 901h316l-18 -84h-316z" />
    <glyph glyph-name="amacron" unicode="&#x101;" horiz-adv-x="607" 
d="M165 -13q-58 0 -96.5 40t-38.5 112q0 78 33 147.5t83 122t109.5 83t113.5 30.5q35 0 58.5 -7.5t49.5 -21.5l59 54l28 -10l-92 -419q-4 -19 -4 -30.5t9 -18t29.5 -9t56.5 -2.5l4 -22q-37 -22 -74.5 -35.5t-73.5 -13.5q-46 0 -62 26t-8 73l-11 3q-24 -24 -45 -43t-41 -32
t-41.5 -20t-45.5 -7zM238 82q26 0 52 14t63 46l56 258q-19 26 -42 41.5t-46 15.5q-33 0 -61.5 -27t-49.5 -67.5t-33.5 -89t-12.5 -91.5q0 -54 20.5 -77t53.5 -23zM247 710h322l-19 -86h-322z" />
    <glyph glyph-name="Aogonek" unicode="&#x104;" horiz-adv-x="774" 
d="M-53 35l97 33l367 639h105l101 -645l93 -27l-8 -35h-93q-57 -50 -80 -90t-23 -74q0 -28 17 -44t43 -16q22 0 41 8t36 21l17 -18q-29 -30 -63 -47.5t-79 -17.5q-43 0 -71 23t-28 65q0 53 39.5 101.5t99.5 88.5h-200l6 32l105 25l-24 178h-236l-92 -170l74 -33l-7 -32h-244
zM439 288l-38 284h-11l-153 -284h202z" />
    <glyph glyph-name="aogonek" unicode="&#x105;" horiz-adv-x="607" 
d="M283 -199q0 25 11.5 50t31 48.5t46 45.5t57.5 42q-53 -3 -70.5 24.5t-9.5 74.5l-11 3q-24 -24 -45 -43t-41 -32t-41.5 -20t-45.5 -7q-58 0 -96.5 40t-38.5 112q0 78 33 147.5t83 122t109.5 83t113.5 30.5q35 0 58.5 -7.5t49.5 -21.5l59 54l28 -10l-92 -419
q-4 -19 -4 -30.5t9 -18t29.5 -9t56.5 -2.5l4 -22q-39 -20 -74 -45t-62 -52t-43 -55.5t-16 -55.5q0 -26 16.5 -41t43.5 -15q22 0 41 8t36 21l18 -18q-30 -31 -65 -48.5t-80 -17.5q-40 0 -69.5 21.5t-29.5 62.5zM238 82q26 0 52 14t63 46l56 258q-19 26 -42 41.5t-46 15.5
q-33 0 -61.5 -27t-49.5 -67.5t-33.5 -89t-12.5 -91.5q0 -54 20.5 -77t53.5 -23z" />
    <glyph glyph-name="Aring" unicode="&#xc5;" horiz-adv-x="774" 
d="M-53 35l97 33l358 623q-49 25 -49 84q0 25 9.5 48.5t27.5 41.5t42.5 28.5t54.5 10.5q52 0 82.5 -27.5t30.5 -72.5q0 -38 -21.5 -71t-59.5 -48l98 -623l93 -27l-8 -35h-344l6 32l105 25l-24 178h-236l-92 -170l74 -33l-7 -32h-244zM467 705q17 0 30 10.5t21.5 26.5
t13 34.5t4.5 33.5q0 32 -13.5 48.5t-36.5 16.5q-17 0 -30 -11t-22 -27t-13.5 -34.5t-4.5 -33.5q0 -32 14 -48t37 -16zM439 288l-38 284h-11l-153 -284h202z" />
    <glyph glyph-name="aring" unicode="&#xe5;" horiz-adv-x="607" 
d="M165 -13q-58 0 -96.5 40t-38.5 112q0 78 33 147.5t83 122t109.5 83t113.5 30.5q35 0 58.5 -7.5t49.5 -21.5l59 54l28 -10l-92 -419q-4 -19 -4 -30.5t9 -18t29.5 -9t56.5 -2.5l4 -22q-37 -22 -74.5 -35.5t-73.5 -13.5q-46 0 -62 26t-8 73l-11 3q-24 -24 -45 -43t-41 -32
t-41.5 -20t-45.5 -7zM238 82q26 0 52 14t63 46l56 258q-19 26 -42 41.5t-46 15.5q-33 0 -61.5 -27t-49.5 -67.5t-33.5 -89t-12.5 -91.5q0 -54 20.5 -77t53.5 -23zM398 597q-53 0 -84 28.5t-31 73.5q0 26 10 49.5t28 41.5t43 29t55 11q53 0 84 -28.5t31 -73.5
q0 -26 -10 -49.5t-28 -41.5t-43 -29t-55 -11zM399 627q17 0 30.5 11t22.5 27.5t13.5 35t4.5 34.5q0 32 -14.5 48.5t-37.5 16.5q-17 0 -30.5 -11t-22.5 -27t-13.5 -35t-4.5 -34q0 -33 14.5 -49.5t37.5 -16.5z" />
    <glyph glyph-name="Aringacute" unicode="&#x1fa;" horiz-adv-x="774" 
d="M-53 35l97 33l358 623q-49 25 -49 84q0 25 9.5 48.5t27.5 41.5t42.5 28.5t54.5 10.5q52 0 82.5 -27.5t30.5 -72.5q0 -38 -21.5 -71t-59.5 -48l98 -623l93 -27l-8 -35h-344l6 32l105 25l-24 178h-236l-92 -170l74 -33l-7 -32h-244zM467 705q17 0 30 10.5t21.5 26.5
t13 34.5t4.5 33.5q0 32 -13.5 48.5t-36.5 16.5q-17 0 -30 -11t-22 -27t-13.5 -34.5t-4.5 -33.5q0 -32 14 -48t37 -16zM439 288l-38 284h-11l-153 -284h202zM473 956q32 62 58.5 113t49.5 77q20 23 47.5 29.5t47.5 -10.5q21 -17 19 -42.5t-24 -50.5q-23 -26 -69 -59.5
t-106 -74.5z" />
    <glyph glyph-name="aringacute" unicode="&#x1fb;" horiz-adv-x="607" 
d="M165 -13q-58 0 -96.5 40t-38.5 112q0 78 33 147.5t83 122t109.5 83t113.5 30.5q35 0 58.5 -7.5t49.5 -21.5l59 54l28 -10l-92 -419q-4 -19 -4 -30.5t9 -18t29.5 -9t56.5 -2.5l4 -22q-37 -22 -74.5 -35.5t-73.5 -13.5q-46 0 -62 26t-8 73l-11 3q-24 -24 -45 -43t-41 -32
t-41.5 -20t-45.5 -7zM238 82q26 0 52 14t63 46l56 258q-19 26 -42 41.5t-46 15.5q-33 0 -61.5 -27t-49.5 -67.5t-33.5 -89t-12.5 -91.5q0 -54 20.5 -77t53.5 -23zM409 856q32 63 59.5 114.5t50.5 78.5q10 12 22.5 19.5t25.5 10.5t26 1t23 -11q22 -18 19.5 -44t-24.5 -51
q-23 -27 -71 -60.5t-108 -75.5zM389 566q-53 0 -84 28.5t-31 73.5q0 26 10 49.5t28 41.5t43 29t55 11q53 0 84 -28.5t31 -73.5q0 -26 -10 -49.5t-28 -41.5t-43 -29t-55 -11zM390 596q17 0 30.5 11t22.5 27.5t13.5 35t4.5 34.5q0 32 -14.5 48.5t-37.5 16.5q-17 0 -30.5 -11
t-22.5 -27t-13.5 -35t-4.5 -34q0 -33 14.5 -49.5t37.5 -16.5z" />
    <glyph glyph-name="Atilde" unicode="&#xc3;" horiz-adv-x="774" 
d="M-53 35l97 33l367 639h105l101 -645l93 -27l-8 -35h-344l6 32l105 25l-24 178h-236l-92 -170l74 -33l-7 -32h-244zM439 288l-38 284h-11l-153 -284h202zM313 796q21 83 49.5 120t74.5 37q22 0 44 -8.5t42 -18.5t38 -18.5t33 -8.5q17 0 29 14.5t31 50.5l39 -7
q-21 -83 -49 -120t-75 -37q-22 0 -43.5 8.5t-41.5 18.5t-38.5 18.5t-33.5 8.5q-17 0 -28.5 -14.5t-31.5 -49.5z" />
    <glyph glyph-name="atilde" unicode="&#xe3;" horiz-adv-x="607" 
d="M165 -13q-58 0 -96.5 40t-38.5 112q0 78 33 147.5t83 122t109.5 83t113.5 30.5q35 0 58.5 -7.5t49.5 -21.5l59 54l28 -10l-92 -419q-4 -19 -4 -30.5t9 -18t29.5 -9t56.5 -2.5l4 -22q-37 -22 -74.5 -35.5t-73.5 -13.5q-46 0 -62 26t-8 73l-11 3q-24 -24 -45 -43t-41 -32
t-41.5 -20t-45.5 -7zM238 82q26 0 52 14t63 46l56 258q-19 26 -42 41.5t-46 15.5q-33 0 -61.5 -27t-49.5 -67.5t-33.5 -89t-12.5 -91.5q0 -54 20.5 -77t53.5 -23zM217 603q21 84 49.5 122t76.5 38q22 0 44 -8.5t42.5 -19t39 -19t34.5 -8.5q17 0 29 14.5t32 50.5l39 -7
q-21 -84 -49.5 -121.5t-76.5 -37.5q-23 0 -44.5 8.5t-42 19t-39 19t-34.5 8.5q-17 0 -29 -15t-32 -51z" />
    <glyph glyph-name="Cacute" unicode="&#x106;" horiz-adv-x="740" 
d="M395 -17q-71 0 -132 19t-106 56.5t-70.5 94t-25.5 131.5q0 86 31.5 164.5t87.5 138t132.5 95t165.5 35.5q57 0 105 -12t82 -29l50 42h31l-47 -260l-36 -2q-27 112 -68.5 161.5t-113.5 49.5q-55 0 -102.5 -34t-82.5 -89.5t-55 -126.5t-20 -145q0 -62 16 -106t42 -72.5
t60 -42t70 -13.5q20 0 39.5 2.5t36.5 9.5l142 168l26 -10l-43 -182q-103 -43 -215 -43zM456 802q32 62 58.5 113t49.5 77q20 23 47.5 29.5t47.5 -10.5q21 -17 19 -42.5t-24 -50.5q-23 -26 -69 -59.5t-106 -74.5z" />
    <glyph glyph-name="cacute" unicode="&#x107;" horiz-adv-x="511" 
d="M318 609q32 63 59.5 114.5t50.5 78.5q10 12 22.5 19.5t25.5 10.5t26 1t23 -11q22 -18 19.5 -44t-24.5 -51q-23 -27 -71 -60.5t-108 -75.5zM240 -13q-44 0 -81 14t-63.5 40.5t-41.5 64t-15 84.5q0 62 25 122t67.5 106.5t100 75t122.5 28.5q34 0 59.5 -9t43 -24t26 -34
t8.5 -39q0 -32 -19.5 -54t-48.5 -22q-35 0 -53.5 23t-18.5 61q0 14 2.5 28.5t6.5 28.5q-40 -3 -74 -26.5t-58.5 -61t-38.5 -85t-14 -98.5q0 -71 36 -104.5t89 -33.5q35 0 64.5 13t65.5 39l19 -17q-32 -52 -84.5 -86t-124.5 -34z" />
    <glyph glyph-name="Ccaron" unicode="&#x10c;" horiz-adv-x="740" 
d="M395 -17q-71 0 -132 19t-106 56.5t-70.5 94t-25.5 131.5q0 86 31.5 164.5t87.5 138t132.5 95t165.5 35.5q57 0 105 -12t82 -29l50 42h31l-47 -260l-36 -2q-27 112 -68.5 161.5t-113.5 49.5q-55 0 -102.5 -34t-82.5 -89.5t-55 -126.5t-20 -145q0 -62 16 -106t42 -72.5
t60 -42t70 -13.5q20 0 39.5 2.5t36.5 9.5l142 168l26 -10l-43 -182q-103 -43 -215 -43zM377 1000l31 24l101 -117l159 117l22 -24l-169 -205h-61z" />
    <glyph glyph-name="ccaron" unicode="&#x10d;" horiz-adv-x="511" 
d="M237 810l32 25l102 -119l163 119l22 -25l-173 -209h-61zM240 -13q-44 0 -81 14t-63.5 40.5t-41.5 64t-15 84.5q0 62 25 122t67.5 106.5t100 75t122.5 28.5q34 0 59.5 -9t43 -24t26 -34t8.5 -39q0 -32 -19.5 -54t-48.5 -22q-35 0 -53.5 23t-18.5 61q0 14 2.5 28.5
t6.5 28.5q-40 -3 -74 -26.5t-58.5 -61t-38.5 -85t-14 -98.5q0 -71 36 -104.5t89 -33.5q35 0 64.5 13t65.5 39l19 -17q-32 -52 -84.5 -86t-124.5 -34z" />
    <glyph glyph-name="Ccedilla" unicode="&#xc7;" horiz-adv-x="740" 
d="M281 -282q-45 0 -70 15t-25 39q0 16 9 27t26 11t25.5 -11.5t8.5 -25.5q0 -12 -5 -22q6 -2 12 -3.5t14 -1.5q25 0 45 16.5t20 49.5q0 27 -18.5 43.5t-47.5 16.5q-17 0 -32 -4l-13 22l122 95q-63 4 -116.5 25t-92 58.5t-60.5 91.5t-22 124q0 86 31.5 164.5t87.5 138
t132.5 95t165.5 35.5q57 0 105 -12t82 -29l50 42h31l-47 -260l-36 -2q-27 112 -68.5 161.5t-113.5 49.5q-55 0 -102.5 -34t-82.5 -89.5t-55 -126.5t-20 -145q0 -62 16 -106t42 -72.5t60 -42t70 -13.5q20 0 39.5 2.5t36.5 9.5l142 168l26 -10l-43 -182q-49 -21 -102 -31.5
t-107 -11.5l-75 -57q38 -6 64.5 -29t26.5 -61q0 -26 -11 -47.5t-29.5 -37t-43 -24.5t-52.5 -9z" />
    <glyph glyph-name="ccedilla" unicode="&#xe7;" horiz-adv-x="511" 
d="M156 -287q-45 0 -71 15.5t-26 39.5q0 16 9.5 27.5t26.5 11.5t26 -12t9 -26q0 -7 -1.5 -11.5t-4.5 -10.5q13 -6 27 -6q26 0 46 17t20 51q0 27 -19 44t-48 17q-9 0 -16.5 -1t-15.5 -3l-14 22l129 99q-2 0 -4 0.5t-4 0.5q-41 2 -75 17.5t-58.5 41.5t-38.5 62.5t-14 80.5
q0 62 25 122t67.5 106.5t100 75t122.5 28.5q34 0 59.5 -9t43 -24t26 -34t8.5 -39q0 -32 -19.5 -54t-48.5 -22q-35 0 -53.5 23t-18.5 61q0 14 2.5 28.5t6.5 28.5q-40 -3 -74 -26.5t-58.5 -61t-38.5 -85t-14 -98.5q0 -71 36 -104.5t89 -33.5q35 0 64.5 13t65.5 39l19 -17
q-26 -43 -66.5 -74.5t-94.5 -41.5l-86 -67q39 -5 66 -29t27 -62q0 -26 -11 -48t-30 -38t-44.5 -25t-53.5 -9z" />
    <glyph glyph-name="Cdotaccent" unicode="&#x10a;" horiz-adv-x="740" 
d="M521 797q-33 0 -54.5 22t-21.5 55q0 16 6.5 31t17.5 26.5t26 18.5t33 7q33 0 54.5 -21.5t21.5 -55.5q0 -16 -6 -31t-17.5 -26.5t-26.5 -18.5t-33 -7zM395 -17q-71 0 -132 19t-106 56.5t-70.5 94t-25.5 131.5q0 86 31.5 164.5t87.5 138t132.5 95t165.5 35.5q57 0 105 -12
t82 -29l50 42h31l-47 -260l-36 -2q-27 112 -68.5 161.5t-113.5 49.5q-55 0 -102.5 -34t-82.5 -89.5t-55 -126.5t-20 -145q0 -62 16 -106t42 -72.5t60 -42t70 -13.5q20 0 39.5 2.5t36.5 9.5l142 168l26 -10l-43 -182q-103 -43 -215 -43z" />
    <glyph glyph-name="cdotaccent" unicode="&#x10b;" horiz-adv-x="511" 
d="M240 -13q-44 0 -81 14t-63.5 40.5t-41.5 64t-15 84.5q0 62 25 122t67.5 106.5t100 75t122.5 28.5q34 0 59.5 -9t43 -24t26 -34t8.5 -39q0 -32 -19.5 -54t-48.5 -22q-35 0 -53.5 23t-18.5 61q0 14 2.5 28.5t6.5 28.5q-40 -3 -74 -26.5t-58.5 -61t-38.5 -85t-14 -98.5
q0 -71 36 -104.5t89 -33.5q35 0 64.5 13t65.5 39l19 -17q-32 -52 -84.5 -86t-124.5 -34zM383 604q-34 0 -55.5 22t-21.5 56q0 16 6.5 31.5t17.5 27.5t27 19t34 7q34 0 55.5 -22t21.5 -56t-24 -59.5t-61 -25.5z" />
    <glyph glyph-name="Dcaron" unicode="&#x10e;" horiz-adv-x="804" 
d="M370 995l31 24l101 -117l159 117l22 -24l-169 -205h-61zM-20 35l115 24l123 584l-105 23l8 35h291q175 0 266 -70.5t91 -209.5q0 -85 -30 -161.5t-90.5 -134t-151.5 -91.5t-212 -34h-312zM310 52q76 2 133 36.5t95.5 89t58 122t19.5 135.5q0 97 -47 152.5t-146 60.5
l-58 2l-126 -600z" />
    <glyph glyph-name="dcaron" unicode="&#x10f;" horiz-adv-x="625" 
d="M633 558q10 68 21 128t24 92q6 14 15.5 25.5t20.5 18.5t24 8.5t26 -3.5q26 -11 30 -36.5t-8 -53.5q-15 -35 -50 -83.5t-78 -104.5zM173 -13q-29 0 -55 12t-45 33.5t-30 53t-11 70.5q0 72 30 138.5t79.5 117t113 80.5t129.5 30q17 0 32 -2t28 -4l41 196l-92 36l3 27
l221 54l16 -12l-152 -699q-4 -19 -4 -30.5t9 -18t29.5 -9t56.5 -2.5l4 -22q-37 -22 -74.5 -35.5t-73.5 -13.5q-46 0 -62 26t-8 73l-11 3q-45 -47 -84.5 -74.5t-89.5 -27.5zM246 82q27 0 55 16t61 45l58 266q-21 23 -45.5 35.5t-55.5 12.5q-32 0 -60 -25t-48 -63.5
t-31.5 -85.5t-11.5 -91q0 -57 22 -83.5t56 -26.5z" />
    <glyph glyph-name="Dcroat" unicode="&#x110;" horiz-adv-x="808" 
d="M-15 35l115 24l58 275h-101l12 59h102l52 250l-106 23l8 35h292q174 0 265 -70.5t91 -209.5q0 -85 -30 -161.5t-90.5 -134t-151.5 -91.5t-212 -34h-312zM315 52q76 2 133 36.5t95 89t57.5 122t19.5 135.5q0 97 -47 152.5t-145 60.5l-59 2l-54 -257h136l-12 -59h-137
l-59 -284z" />
    <glyph glyph-name="dcroat" unicode="&#x111;" horiz-adv-x="625" 
d="M173 -13q-29 0 -55 12t-45 33.5t-30 53t-11 70.5q0 72 30 138.5t79.5 117t113 80.5t129.5 30q17 0 32 -2t28 -4l18 88h-190l12 56h190l13 58l-94 30l3 27l221 54l16 -12l-35 -157h80l-12 -56h-80l-105 -486q-4 -19 -4 -30.5t9 -18t29.5 -9t56.5 -2.5l4 -22
q-37 -22 -74.5 -35.5t-73.5 -13.5q-46 0 -62 26t-8 73l-11 3q-45 -47 -84.5 -74.5t-89.5 -27.5zM246 82q27 0 55 16t61 45l58 266q-21 23 -45.5 35.5t-55.5 12.5q-32 0 -60 -25t-48 -63.5t-31.5 -85.5t-11.5 -91q0 -57 22 -83.5t56 -26.5z" />
    <glyph glyph-name="Eacute" unicode="&#xc9;" horiz-adv-x="712" 
d="M389 797q32 62 58.5 113t49.5 77q20 23 47.5 29.5t47.5 -10.5q21 -17 19 -42.5t-24 -50.5q-23 -26 -69 -59.5t-106 -74.5zM-20 35l115 24l123 584l-105 23l8 35h579l-31 -213l-26 -6l-48 96q-10 20 -19.5 33t-22 20.5t-30 11t-43.5 3.5l-115 2l-58 -272h44q25 0 42.5 4
t31 13.5t25.5 27t25 44.5l17 36h30l-63 -301h-28l-4 34q-4 28 -9 46t-14 28.5t-24.5 14.5t-39.5 4h-44l-56 -274l142 4q25 0 43.5 3.5t34 11t29.5 18.5t31 28l106 108l22 -5l-62 -221h-613z" />
    <glyph glyph-name="eacute" unicode="&#xe9;" horiz-adv-x="524" 
d="M305 609q32 63 59.5 114.5t50.5 78.5q10 12 22.5 19.5t25.5 10.5t26 1t23 -11q22 -18 19.5 -44t-24.5 -51q-23 -27 -71 -60.5t-108 -75.5zM169 273q112 0 164.5 40t52.5 105q0 28 -15.5 44.5t-41.5 16.5q-25 0 -50 -15.5t-47 -43.5t-38.5 -65.5t-24.5 -81.5zM164 232
q-5 -78 30 -119t107 -41q36 0 70 13t66 37l19 -17q-34 -53 -88 -85.5t-127 -32.5q-48 0 -86 14.5t-64.5 40t-40 61t-13.5 78.5q0 64 24 125.5t66 109.5t98 77t120 29q75 0 115.5 -33.5t40.5 -84.5q0 -45 -25 -78.5t-69.5 -55t-106.5 -31.5t-136 -7z" />
    <glyph glyph-name="Ebreve" unicode="&#x114;" horiz-adv-x="712" 
d="M448 788q-73 0 -106.5 49t-22.5 139l37 11q9 -51 35 -77t77 -26q43 0 74.5 26t58.5 77l36 -11q-27 -97 -73.5 -142.5t-115.5 -45.5zM-20 35l115 24l123 584l-105 23l8 35h579l-31 -213l-26 -6l-48 96q-10 20 -19.5 33t-22 20.5t-30 11t-43.5 3.5l-115 2l-58 -272h44
q25 0 42.5 4t31 13.5t25.5 27t25 44.5l17 36h30l-63 -301h-28l-4 34q-4 28 -9 46t-14 28.5t-24.5 14.5t-39.5 4h-44l-56 -274l142 4q25 0 43.5 3.5t34 11t29.5 18.5t31 28l106 108l22 -5l-62 -221h-613z" />
    <glyph glyph-name="ebreve" unicode="&#x115;" horiz-adv-x="524" 
d="M169 273q112 0 164.5 40t52.5 105q0 28 -15.5 44.5t-41.5 16.5q-25 0 -50 -15.5t-47 -43.5t-38.5 -65.5t-24.5 -81.5zM164 232q-5 -78 30 -119t107 -41q36 0 70 13t66 37l19 -17q-34 -53 -88 -85.5t-127 -32.5q-48 0 -86 14.5t-64.5 40t-40 61t-13.5 78.5q0 64 24 125.5
t66 109.5t98 77t120 29q75 0 115.5 -33.5t40.5 -84.5q0 -45 -25 -78.5t-69.5 -55t-106.5 -31.5t-136 -7zM365 600q-75 0 -109 50t-23 141l37 11q10 -51 36.5 -77.5t78.5 -26.5q44 0 76 26t60 78l36 -11q-27 -99 -74 -145t-118 -46z" />
    <glyph glyph-name="Ecaron" unicode="&#x11a;" horiz-adv-x="712" 
d="M310 995l31 24l101 -117l159 117l22 -24l-169 -205h-61zM-20 35l115 24l123 584l-105 23l8 35h579l-31 -213l-26 -6l-48 96q-10 20 -19.5 33t-22 20.5t-30 11t-43.5 3.5l-115 2l-58 -272h44q25 0 42.5 4t31 13.5t25.5 27t25 44.5l17 36h30l-63 -301h-28l-4 34
q-4 28 -9 46t-14 28.5t-24.5 14.5t-39.5 4h-44l-56 -274l142 4q25 0 43.5 3.5t34 11t29.5 18.5t31 28l106 108l22 -5l-62 -221h-613z" />
    <glyph glyph-name="ecaron" unicode="&#x11b;" horiz-adv-x="524" 
d="M224 810l32 25l102 -119l163 119l22 -25l-173 -209h-61zM169 273q112 0 164.5 40t52.5 105q0 28 -15.5 44.5t-41.5 16.5q-25 0 -50 -15.5t-47 -43.5t-38.5 -65.5t-24.5 -81.5zM164 232q-5 -78 30 -119t107 -41q36 0 70 13t66 37l19 -17q-34 -53 -88 -85.5t-127 -32.5
q-48 0 -86 14.5t-64.5 40t-40 61t-13.5 78.5q0 64 24 125.5t66 109.5t98 77t120 29q75 0 115.5 -33.5t40.5 -84.5q0 -45 -25 -78.5t-69.5 -55t-106.5 -31.5t-136 -7z" />
    <glyph glyph-name="Ecircumflex" unicode="&#xca;" horiz-adv-x="712" 
d="M-20 35l115 24l123 584l-105 23l8 35h579l-31 -213l-26 -6l-48 96q-10 20 -19.5 33t-22 20.5t-30 11t-43.5 3.5l-115 2l-58 -272h44q25 0 42.5 4t31 13.5t25.5 27t25 44.5l17 36h30l-63 -301h-28l-4 34q-4 28 -9 46t-14 28.5t-24.5 14.5t-39.5 4h-44l-56 -274l142 4
q25 0 43.5 3.5t34 11t29.5 18.5t31 28l106 108l22 -5l-62 -221h-613zM286 801l170 205h59l84 -205l-30 -25l-104 114l-157 -114z" />
    <glyph glyph-name="ecircumflex" unicode="&#xea;" horiz-adv-x="524" 
d="M201 612l173 209h60l85 -209l-31 -24l-105 116l-161 -116zM169 273q112 0 164.5 40t52.5 105q0 28 -15.5 44.5t-41.5 16.5q-25 0 -50 -15.5t-47 -43.5t-38.5 -65.5t-24.5 -81.5zM164 232q-5 -78 30 -119t107 -41q36 0 70 13t66 37l19 -17q-34 -53 -88 -85.5t-127 -32.5
q-48 0 -86 14.5t-64.5 40t-40 61t-13.5 78.5q0 64 24 125.5t66 109.5t98 77t120 29q75 0 115.5 -33.5t40.5 -84.5q0 -45 -25 -78.5t-69.5 -55t-106.5 -31.5t-136 -7z" />
    <glyph glyph-name="Edieresis" unicode="&#xcb;" horiz-adv-x="712" 
d="M565 793q-32 0 -52.5 21t-20.5 53t22.5 56.5t57.5 24.5q32 0 52.5 -21t20.5 -53t-22.5 -56.5t-57.5 -24.5zM341 793q-32 0 -52.5 21t-20.5 53t22.5 56.5t57.5 24.5q32 0 52.5 -21t20.5 -53t-23 -56.5t-57 -24.5zM-20 35l115 24l123 584l-105 23l8 35h579l-31 -213l-26 -6
l-48 96q-10 20 -19.5 33t-22 20.5t-30 11t-43.5 3.5l-115 2l-58 -272h44q25 0 42.5 4t31 13.5t25.5 27t25 44.5l17 36h30l-63 -301h-28l-4 34q-4 28 -9 46t-14 28.5t-24.5 14.5t-39.5 4h-44l-56 -274l142 4q25 0 43.5 3.5t34 11t29.5 18.5t31 28l106 108l22 -5l-62 -221
h-613z" />
    <glyph glyph-name="edieresis" unicode="&#xeb;" horiz-adv-x="524" 
d="M484 605q-32 0 -52.5 21.5t-20.5 53.5q0 16 6 31t17 26.5t25.5 18.5t32.5 7q32 0 53 -21.5t21 -54.5q0 -16 -6 -31t-17 -26t-26 -18t-33 -7zM257 605q-33 0 -53.5 21.5t-20.5 53.5q0 16 6 31t17 26.5t25.5 18.5t32.5 7q33 0 53.5 -21.5t20.5 -54.5q0 -16 -6 -31t-17 -26
t-26 -18t-32 -7zM169 273q112 0 164.5 40t52.5 105q0 28 -15.5 44.5t-41.5 16.5q-25 0 -50 -15.5t-47 -43.5t-38.5 -65.5t-24.5 -81.5zM164 232q-5 -78 30 -119t107 -41q36 0 70 13t66 37l19 -17q-34 -53 -88 -85.5t-127 -32.5q-48 0 -86 14.5t-64.5 40t-40 61t-13.5 78.5
q0 64 24 125.5t66 109.5t98 77t120 29q75 0 115.5 -33.5t40.5 -84.5q0 -45 -25 -78.5t-69.5 -55t-106.5 -31.5t-136 -7z" />
    <glyph glyph-name="Edotaccent" unicode="&#x116;" horiz-adv-x="712" 
d="M454 792q-33 0 -54.5 22t-21.5 55q0 16 6.5 31t17.5 26.5t26 18.5t33 7q33 0 54.5 -21.5t21.5 -55.5q0 -16 -6 -31t-17.5 -26.5t-26.5 -18.5t-33 -7zM-20 35l115 24l123 584l-105 23l8 35h579l-31 -213l-26 -6l-48 96q-10 20 -19.5 33t-22 20.5t-30 11t-43.5 3.5l-115 2
l-58 -272h44q25 0 42.5 4t31 13.5t25.5 27t25 44.5l17 36h30l-63 -301h-28l-4 34q-4 28 -9 46t-14 28.5t-24.5 14.5t-39.5 4h-44l-56 -274l142 4q25 0 43.5 3.5t34 11t29.5 18.5t31 28l106 108l22 -5l-62 -221h-613z" />
    <glyph glyph-name="edotaccent" unicode="&#x117;" horiz-adv-x="524" 
d="M169 273q112 0 164.5 40t52.5 105q0 28 -15.5 44.5t-41.5 16.5q-25 0 -50 -15.5t-47 -43.5t-38.5 -65.5t-24.5 -81.5zM164 232q-5 -78 30 -119t107 -41q36 0 70 13t66 37l19 -17q-34 -53 -88 -85.5t-127 -32.5q-48 0 -86 14.5t-64.5 40t-40 61t-13.5 78.5q0 64 24 125.5
t66 109.5t98 77t120 29q75 0 115.5 -33.5t40.5 -84.5q0 -45 -25 -78.5t-69.5 -55t-106.5 -31.5t-136 -7zM371 604q-34 0 -55.5 22t-21.5 56q0 16 6.5 31.5t17.5 27.5t27 19t34 7q34 0 55.5 -22t21.5 -56t-24 -59.5t-61 -25.5z" />
    <glyph glyph-name="Egrave" unicode="&#xc8;" horiz-adv-x="712" 
d="M443 779q-38 40 -70 78.5t-44 64.5q-13 26 -6 51t32 37q26 13 49 3.5t34 -35.5t19.5 -72.5t16.5 -109.5l-31 -17v0zM-20 35l115 24l123 584l-105 23l8 35h579l-31 -213l-26 -6l-48 96q-10 20 -19.5 33t-22 20.5t-30 11t-43.5 3.5l-115 2l-58 -272h44q25 0 42.5 4t31 13.5
t25.5 27t25 44.5l17 36h30l-63 -301h-28l-4 34q-4 28 -9 46t-14 28.5t-24.5 14.5t-39.5 4h-44l-56 -274l142 4q25 0 43.5 3.5t34 11t29.5 18.5t31 28l106 108l22 -5l-62 -221h-613z" />
    <glyph glyph-name="egrave" unicode="&#xe8;" horiz-adv-x="524" 
d="M169 273q112 0 164.5 40t52.5 105q0 28 -15.5 44.5t-41.5 16.5q-25 0 -50 -15.5t-47 -43.5t-38.5 -65.5t-24.5 -81.5zM164 232q-5 -78 30 -119t107 -41q36 0 70 13t66 37l19 -17q-34 -53 -88 -85.5t-127 -32.5q-48 0 -86 14.5t-64.5 40t-40 61t-13.5 78.5q0 64 24 125.5
t66 109.5t98 77t120 29q75 0 115.5 -33.5t40.5 -84.5q0 -45 -25 -78.5t-69.5 -55t-106.5 -31.5t-136 -7zM360 590q-39 41 -71.5 80.5t-45.5 65.5q-12 27 -5.5 52t32.5 38t50 3t35 -36q11 -27 19.5 -74.5t16.5 -110.5l-31 -18v0z" />
    <glyph glyph-name="Emacron" unicode="&#x112;" horiz-adv-x="712" 
d="M307 896h316l-18 -84h-316zM-20 35l115 24l123 584l-105 23l8 35h579l-31 -213l-26 -6l-48 96q-10 20 -19.5 33t-22 20.5t-30 11t-43.5 3.5l-115 2l-58 -272h44q25 0 42.5 4t31 13.5t25.5 27t25 44.5l17 36h30l-63 -301h-28l-4 34q-4 28 -9 46t-14 28.5t-24.5 14.5
t-39.5 4h-44l-56 -274l142 4q25 0 43.5 3.5t34 11t29.5 18.5t31 28l106 108l22 -5l-62 -221h-613z" />
    <glyph glyph-name="emacron" unicode="&#x113;" horiz-adv-x="524" 
d="M169 273q112 0 164.5 40t52.5 105q0 28 -15.5 44.5t-41.5 16.5q-25 0 -50 -15.5t-47 -43.5t-38.5 -65.5t-24.5 -81.5zM164 232q-5 -78 30 -119t107 -41q36 0 70 13t66 37l19 -17q-34 -53 -88 -85.5t-127 -32.5q-48 0 -86 14.5t-64.5 40t-40 61t-13.5 78.5q0 64 24 125.5
t66 109.5t98 77t120 29q75 0 115.5 -33.5t40.5 -84.5q0 -45 -25 -78.5t-69.5 -55t-106.5 -31.5t-136 -7zM221 710h322l-19 -86h-322z" />
    <glyph glyph-name="Eogonek" unicode="&#x118;" horiz-adv-x="712" 
d="M-20 35l115 24l123 584l-105 23l8 35h579l-31 -213l-26 -6l-48 96q-10 20 -19.5 33t-22 20.5t-30 11t-43.5 3.5l-115 2l-58 -272h44q25 0 42.5 4t31 13.5t25.5 27t25 44.5l17 36h30l-63 -301h-28l-4 34q-4 28 -9 46t-14 28.5t-24.5 14.5t-39.5 4h-44l-56 -274l142 4
q25 0 43.5 3.5t34 11t29.5 18.5t31 28l106 108l22 -5l-62 -221h-87q-57 -50 -80 -90t-23 -74q0 -28 17 -44t43 -16q22 0 41 8t36 21l17 -18q-29 -30 -63 -47.5t-79 -17.5q-43 0 -71 23t-28 65q0 53 39.5 101.5t99.5 88.5h-475z" />
    <glyph glyph-name="eogonek" unicode="&#x119;" horiz-adv-x="524" 
d="M164 232q-5 -78 30 -119t107 -41q36 0 70 13t66 37l19 -17q-14 -22 -32.5 -40.5t-39.5 -35.5q-75 -60 -109 -107t-34 -90q0 -27 17.5 -43.5t44.5 -16.5q23 0 42 8t36 21l18 -18q-29 -31 -64 -48.5t-80 -17.5t-73 24.5t-28 66.5q0 50 36 95.5t96 86.5q-21 -3 -45 -3
q-48 0 -86 14.5t-64.5 40t-40 61t-13.5 78.5q0 64 24 125.5t66 109.5t98 77t120 29q75 0 115.5 -33.5t40.5 -84.5q0 -45 -25 -78.5t-69.5 -55t-106.5 -31.5t-136 -7zM169 273q112 0 164.5 40t52.5 105q0 28 -15.5 44.5t-41.5 16.5q-25 0 -50 -15.5t-47 -43.5t-38.5 -65.5
t-24.5 -81.5z" />
    <glyph glyph-name="Eth" unicode="&#xd0;" horiz-adv-x="808" 
d="M-15 35l115 24l58 275h-101l12 59h102l52 250l-106 23l8 35h292q174 0 265 -70.5t91 -209.5q0 -85 -30 -161.5t-90.5 -134t-151.5 -91.5t-212 -34h-312zM315 52q76 2 133 36.5t95 89t57.5 122t19.5 135.5q0 97 -47 152.5t-145 60.5l-59 2l-54 -257h136l-12 -59h-137
l-59 -284z" />
    <glyph glyph-name="eth" unicode="&#xf0;" horiz-adv-x="575" 
d="M217 -13q-39 0 -72.5 12.5t-57.5 36.5t-38 59t-14 81q0 69 27.5 131.5t75.5 109.5t111.5 74t135.5 24q-11 33 -31 65.5t-49 64.5l-102 -67l-29 45l93 61q-30 27 -66 52.5t-77 48.5l17 35q56 -17 105 -39.5t92 -50.5l110 72l29 -44l-93 -61q75 -62 115.5 -142t40.5 -179
q0 -84 -27 -158.5t-80 -129.5q-44 -46 -98.5 -73.5t-117.5 -27.5zM249 46q32 0 61 28.5t51.5 72.5t35.5 97t13 103q0 56 -18.5 85.5t-59.5 29.5q-33 0 -63 -28t-52.5 -71t-35.5 -96t-13 -102q0 -56 21.5 -87.5t59.5 -31.5z" />
    <glyph glyph-name="Gbreve" unicode="&#x11e;" horiz-adv-x="773" 
d="M490 793q-73 0 -106.5 49t-22.5 139l37 11q9 -51 35 -77t77 -26q43 0 74.5 26t58.5 77l36 -11q-27 -97 -73.5 -142.5t-115.5 -45.5zM335 -17q-61 0 -111.5 21t-86.5 60t-56 94.5t-20 124.5q0 82 30.5 160.5t85.5 139t131.5 97.5t168.5 37q54 0 99.5 -11t79.5 -28l49 43
h34l-43 -251l-40 -2q-27 100 -68 149.5t-108 49.5q-54 0 -101.5 -34t-82.5 -90t-55 -127.5t-20 -145.5q0 -58 14 -99.5t38 -68t56 -39t68 -12.5q21 0 42 5.5t46 18.5l43 191l-98 23l8 35h322l-8 -35l-87 -23l-58 -273l-30 -5l-64 52q-41 -27 -84 -42t-94 -15z" />
    <glyph glyph-name="gbreve" unicode="&#x11f;" horiz-adv-x="567" 
d="M129 16q-32 -21 -46.5 -46.5t-14.5 -51.5q0 -28 13.5 -50t37 -37t55 -23t67.5 -8q54 0 87.5 22t33.5 64q0 20 -10.5 37.5t-37 33.5t-71.5 30.5t-114 28.5zM295 482q-35 0 -62 -27q-26 -26 -39.5 -67t-13.5 -83q0 -53 21 -80.5t57 -27.5q17 0 32.5 7.5t29.5 21.5
q25 25 39 66t14 85q0 52 -20.5 78.5t-57.5 26.5zM166 175q-50 17 -79 52.5t-29 86.5q0 42 19.5 80t53 66.5t78.5 45t97 16.5q45 0 80.5 -13t59.5 -35l110 53h67l-22 -105h-27l-90 23l-6 -8q18 -30 18 -69q0 -42 -18.5 -80t-51.5 -66t-78 -44.5t-99 -16.5h-16.5t-16.5 2
q-3 -19 -3 -31.5t5.5 -20t16.5 -12.5t30 -9q114 -27 161.5 -65t47.5 -89q0 -37 -18.5 -70t-53 -57.5t-85 -39t-114.5 -14.5q-58 0 -104.5 10.5t-79 29.5t-50 44.5t-17.5 54.5q0 50 43 91t131 65zM353 600q-75 0 -109 50t-23 141l37 11q10 -51 36.5 -77.5t78.5 -26.5
q44 0 76 26t60 78l36 -11q-27 -99 -74 -145t-118 -46z" />
    <glyph glyph-name="Gcommaaccent" unicode="&#x122;" horiz-adv-x="773" 
d="M335 -17q-61 0 -111.5 21t-86.5 60t-56 94.5t-20 124.5q0 82 30.5 160.5t85.5 139t131.5 97.5t168.5 37q54 0 99.5 -11t79.5 -28l49 43h34l-43 -251l-40 -2q-27 100 -68 149.5t-108 49.5q-54 0 -101.5 -34t-82.5 -90t-55 -127.5t-20 -145.5q0 -58 14 -99.5t38 -68t56 -39
t68 -12.5q21 0 42 5.5t46 18.5l43 191l-98 23l8 35h322l-8 -35l-87 -23l-58 -273l-30 -5l-64 52q-41 -27 -84 -42t-94 -15zM180 -312q51 26 80 54t40 59l-5 5q-3 -2 -7.5 -2.5t-7.5 -0.5q-20 0 -34 12.5t-14 38.5q0 29 20.5 51.5t51.5 22.5q30 0 48.5 -19.5t18.5 -54.5
q0 -32 -13.5 -60.5t-37.5 -53t-57 -44t-72 -32.5l-11 24v0z" />
    <glyph glyph-name="gcommaaccent" unicode="&#x123;" horiz-adv-x="567" 
d="M474 842q-51 -26 -80 -54t-40 -59l5 -5q3 2 7.5 2.5t7.5 0.5q20 0 34 -12.5t14 -38.5q0 -29 -20.5 -51.5t-51.5 -22.5q-30 0 -48.5 19.5t-18.5 54.5q0 31 13.5 60t37.5 53.5t57 44t72 32.5zM129 16q-32 -21 -46.5 -46.5t-14.5 -51.5q0 -28 13.5 -50t37 -37t55 -23
t67.5 -8q54 0 87.5 22t33.5 64q0 20 -10.5 37.5t-37 33.5t-71.5 30.5t-114 28.5zM295 482q-35 0 -62 -27q-26 -26 -39.5 -67t-13.5 -83q0 -53 21 -80.5t57 -27.5q17 0 32.5 7.5t29.5 21.5q25 25 39 66t14 85q0 52 -20.5 78.5t-57.5 26.5zM166 175q-50 17 -79 52.5t-29 86.5
q0 42 19.5 80t53 66.5t78.5 45t97 16.5q45 0 80.5 -13t59.5 -35l110 53h67l-22 -105h-27l-90 23l-6 -8q18 -30 18 -69q0 -42 -18.5 -80t-51.5 -66t-78 -44.5t-99 -16.5h-16.5t-16.5 2q-3 -19 -3 -31.5t5.5 -20t16.5 -12.5t30 -9q114 -27 161.5 -65t47.5 -89q0 -37 -18.5 -70
t-53 -57.5t-85 -39t-114.5 -14.5q-58 0 -104.5 10.5t-79 29.5t-50 44.5t-17.5 54.5q0 50 43 91t131 65z" />
    <glyph glyph-name="Gdotaccent" unicode="&#x120;" horiz-adv-x="773" 
d="M497 797q-33 0 -54.5 22t-21.5 55q0 16 6.5 31t17.5 26.5t26 18.5t33 7q33 0 54.5 -21.5t21.5 -55.5q0 -16 -6 -31t-17.5 -26.5t-26.5 -18.5t-33 -7zM335 -17q-61 0 -111.5 21t-86.5 60t-56 94.5t-20 124.5q0 82 30.5 160.5t85.5 139t131.5 97.5t168.5 37q54 0 99.5 -11
t79.5 -28l49 43h34l-43 -251l-40 -2q-27 100 -68 149.5t-108 49.5q-54 0 -101.5 -34t-82.5 -90t-55 -127.5t-20 -145.5q0 -58 14 -99.5t38 -68t56 -39t68 -12.5q21 0 42 5.5t46 18.5l43 191l-98 23l8 35h322l-8 -35l-87 -23l-58 -273l-30 -5l-64 52q-41 -27 -84 -42t-94 -15
z" />
    <glyph glyph-name="gdotaccent" unicode="&#x121;" horiz-adv-x="567" 
d="M129 16q-32 -21 -46.5 -46.5t-14.5 -51.5q0 -28 13.5 -50t37 -37t55 -23t67.5 -8q54 0 87.5 22t33.5 64q0 20 -10.5 37.5t-37 33.5t-71.5 30.5t-114 28.5zM295 482q-35 0 -62 -27q-26 -26 -39.5 -67t-13.5 -83q0 -53 21 -80.5t57 -27.5q17 0 32.5 7.5t29.5 21.5
q25 25 39 66t14 85q0 52 -20.5 78.5t-57.5 26.5zM166 175q-50 17 -79 52.5t-29 86.5q0 42 19.5 80t53 66.5t78.5 45t97 16.5q45 0 80.5 -13t59.5 -35l110 53h67l-22 -105h-27l-90 23l-6 -8q18 -30 18 -69q0 -42 -18.5 -80t-51.5 -66t-78 -44.5t-99 -16.5h-16.5t-16.5 2
q-3 -19 -3 -31.5t5.5 -20t16.5 -12.5t30 -9q114 -27 161.5 -65t47.5 -89q0 -37 -18.5 -70t-53 -57.5t-85 -39t-114.5 -14.5q-58 0 -104.5 10.5t-79 29.5t-50 44.5t-17.5 54.5q0 50 43 91t131 65zM358 604q-34 0 -55.5 22t-21.5 56q0 16 6.5 31.5t17.5 27.5t27 19t34 7
q34 0 55.5 -22t21.5 -56t-24 -59.5t-61 -25.5z" />
    <glyph glyph-name="Hbar" unicode="&#x126;" horiz-adv-x="889" 
d="M-20 35l115 24l91 433h-103l12 55h102l21 96l-105 23l8 35h356l-8 -35l-105 -24l-21 -95h304l20 96l-96 23l8 35h357l-8 -35l-115 -24l-20 -95h103l-13 -55h-102l-91 -434l105 -23l-7 -35h-357l8 35l106 24l56 270h-303l-57 -271l96 -23l-8 -35h-356zM614 387l21 105
h-303l-22 -105h304z" />
    <glyph glyph-name="hbar" unicode="&#x127;" horiz-adv-x="630" 
d="M446 -13q-42 0 -59.5 18.5t-17.5 49.5q1 12 3 27t6 29l48 207q27 109 -55 109q-26 0 -57 -15.5t-76 -48.5l-78 -363h-126l131 604h-79l12 56h79l13 57l-94 31l3 27l221 54l16 -12l-34 -157h190l-11 -56h-191l-40 -186l10 -2q53 48 98 77t93 29q37 0 61 -14t37 -39.5
t14 -60.5t-9 -76l-52 -218q-4 -17 -3.5 -28t9.5 -17t29.5 -8t56.5 -3l4 -22q-38 -22 -77.5 -35.5t-74.5 -13.5z" />
    <glyph glyph-name="Iacute" unicode="&#xcd;" horiz-adv-x="467" 
d="M-9 35l118 24l122 584l-107 23l8 35h370l-8 -35l-117 -24l-123 -584l106 -23l-7 -35h-369zM281 797q32 62 58.5 113t49.5 77q20 23 47.5 29.5t47.5 -10.5q21 -17 19 -42.5t-24 -50.5q-23 -26 -69 -59.5t-106 -74.5z" />
    <glyph glyph-name="iacute" unicode="&#xed;" horiz-adv-x="350" 
d="M152 603q32 63 59.5 114.5t50.5 78.5q10 12 22.5 19.5t25.5 10.5t26 1t23 -11q22 -18 19.5 -44t-24.5 -51q-23 -27 -71 -60.5t-108 -75.5zM140 -13q-53 0 -68 29.5t-4 76.5l74 317l-89 36l3 27l219 55l16 -12l-94 -402q-5 -18 -4 -28.5t11 -16.5t31 -8t57 -3l4 -22
q-42 -23 -81 -36t-75 -13z" />
    <glyph glyph-name="Ibreve" unicode="&#x12c;" horiz-adv-x="467" 
d="M-9 35l118 24l122 584l-107 23l8 35h370l-8 -35l-117 -24l-123 -584l106 -23l-7 -35h-369zM340 788q-73 0 -106.5 49t-22.5 139l37 11q9 -51 35 -77t77 -26q43 0 74.5 26t58.5 77l36 -11q-27 -97 -73.5 -142.5t-115.5 -45.5z" />
    <glyph glyph-name="ibreve" unicode="&#x12d;" horiz-adv-x="350" 
d="M140 -13q-53 0 -68 29.5t-4 76.5l74 317l-89 36l3 27l219 55l16 -12l-94 -402q-5 -18 -4 -28.5t11 -16.5t31 -8t57 -3l4 -22q-42 -23 -81 -36t-75 -13zM213 594q-75 0 -109 50t-23 141l37 11q10 -51 36.5 -77.5t78.5 -26.5q44 0 76 26t60 78l36 -11q-27 -99 -74 -145
t-118 -46z" />
    <glyph glyph-name="Icircumflex" unicode="&#xce;" horiz-adv-x="467" 
d="M-9 35l118 24l122 584l-107 23l8 35h370l-8 -35l-117 -24l-123 -584l106 -23l-7 -35h-369zM178 801l170 205h59l84 -205l-30 -25l-104 114l-157 -114z" />
    <glyph glyph-name="icircumflex" unicode="&#xee;" horiz-adv-x="350" 
d="M49 606l173 209h60l85 -209l-31 -24l-105 116l-161 -116zM140 -13q-53 0 -68 29.5t-4 76.5l74 317l-89 36l3 27l219 55l16 -12l-94 -402q-5 -18 -4 -28.5t11 -16.5t31 -8t57 -3l4 -22q-42 -23 -81 -36t-75 -13z" />
    <glyph glyph-name="Idieresis" unicode="&#xcf;" horiz-adv-x="467" 
d="M-9 35l118 24l122 584l-107 23l8 35h370l-8 -35l-117 -24l-123 -584l106 -23l-7 -35h-369zM458 793q-32 0 -52.5 21t-20.5 53t22.5 56.5t57.5 24.5q32 0 52.5 -21t20.5 -53t-22.5 -56.5t-57.5 -24.5zM234 793q-32 0 -52.5 21t-20.5 53t22.5 56.5t57.5 24.5q32 0 52.5 -21
t20.5 -53t-23 -56.5t-57 -24.5z" />
    <glyph glyph-name="idieresis" unicode="&#xef;" horiz-adv-x="350" 
d="M332 599q-32 0 -52.5 21.5t-20.5 53.5q0 16 6 31t17 26.5t25.5 18.5t32.5 7q32 0 53 -21.5t21 -54.5q0 -16 -6 -31t-17 -26t-26 -18t-33 -7zM105 599q-33 0 -53.5 21.5t-20.5 53.5q0 16 6 31t17 26.5t25.5 18.5t32.5 7q33 0 53.5 -21.5t20.5 -54.5q0 -16 -6 -31t-17 -26
t-26 -18t-32 -7zM140 -13q-53 0 -68 29.5t-4 76.5l74 317l-89 36l3 27l219 55l16 -12l-94 -402q-5 -18 -4 -28.5t11 -16.5t31 -8t57 -3l4 -22q-42 -23 -81 -36t-75 -13z" />
    <glyph glyph-name="Idotaccent" unicode="&#x130;" horiz-adv-x="467" 
d="M-9 35l118 24l122 584l-107 23l8 35h370l-8 -35l-117 -24l-123 -584l106 -23l-7 -35h-369zM346 792q-33 0 -54.5 22t-21.5 55q0 16 6.5 31t17.5 26.5t26 18.5t33 7q33 0 54.5 -21.5t21.5 -55.5q0 -16 -6 -31t-17.5 -26.5t-26.5 -18.5t-33 -7z" />
    <glyph glyph-name="dotlessi" unicode="&#x131;" horiz-adv-x="350" 
d="M140 -13q-53 0 -68 29.5t-4 76.5l74 317l-89 36l3 27l219 55l16 -12l-94 -402q-5 -18 -4 -28.5t11 -16.5t31 -8t57 -3l4 -22q-42 -23 -81 -36t-75 -13z" />
    <glyph glyph-name="Igrave" unicode="&#xcc;" horiz-adv-x="467" 
d="M-9 35l118 24l122 584l-107 23l8 35h370l-8 -35l-117 -24l-123 -584l106 -23l-7 -35h-369zM335 779q-38 40 -70 78.5t-44 64.5q-13 26 -6 51t32 37q26 13 49 3.5t34 -35.5t19.5 -72.5t16.5 -109.5l-31 -17v0z" />
    <glyph glyph-name="igrave" unicode="&#xec;" horiz-adv-x="350" 
d="M140 -13q-53 0 -68 29.5t-4 76.5l74 317l-89 36l3 27l219 55l16 -12l-94 -402q-5 -18 -4 -28.5t11 -16.5t31 -8t57 -3l4 -22q-42 -23 -81 -36t-75 -13zM208 584q-39 41 -71.5 80.5t-45.5 65.5q-12 27 -5.5 52t32.5 38t50 3t35 -36q11 -27 19.5 -74.5t16.5 -110.5l-31 -18
v0z" />
    <glyph glyph-name="Imacron" unicode="&#x12a;" horiz-adv-x="467" 
d="M-9 35l118 24l122 584l-107 23l8 35h370l-8 -35l-117 -24l-123 -584l106 -23l-7 -35h-369zM199 896h316l-18 -84h-316z" />
    <glyph glyph-name="imacron" unicode="&#x12b;" horiz-adv-x="350" 
d="M140 -13q-53 0 -68 29.5t-4 76.5l74 317l-89 36l3 27l219 55l16 -12l-94 -402q-5 -18 -4 -28.5t11 -16.5t31 -8t57 -3l4 -22q-42 -23 -81 -36t-75 -13zM69 704h322l-19 -86h-322z" />
    <glyph glyph-name="Iogonek" unicode="&#x12e;" horiz-adv-x="467" 
d="M-9 35l118 24l122 584l-107 23l8 35h370l-8 -35l-117 -24l-123 -584l106 -23l-7 -35h-140q-57 -50 -80 -90t-23 -74q0 -28 17 -44t43 -16q22 0 41 8t36 21l17 -18q-29 -30 -63 -47.5t-79 -17.5q-43 0 -71 23t-28 65q0 53 39.5 101.5t99.5 88.5h-178z" />
    <glyph glyph-name="iogonek" unicode="&#x12f;" horiz-adv-x="350" 
d="M249 632q-27 0 -45.5 17.5t-18.5 52.5q0 20 7 40t20 36t31 26t39 10q27 0 45.5 -17.5t18.5 -52.5q0 -20 -7 -39.5t-20 -36t-31 -26.5t-39 -10zM150 -13q-29 -2 -48 5.5t-28.5 21.5t-10.5 34.5t5 44.5l74 317l-89 36l3 27l219 55l16 -12l-94 -402q-5 -18 -4 -28.5
t11 -16.5t31 -8t57 -3l4 -22q-40 -20 -76 -45t-63 -52t-43 -55.5t-16 -55.5q0 -26 16.5 -41t42.5 -15q23 0 42 8t36 21l18 -18q-30 -31 -65 -48.5t-80 -17.5q-40 0 -69.5 21.5t-29.5 62.5q0 51 39.5 98t101.5 88z" />
    <glyph glyph-name="Kcommaaccent" unicode="&#x136;" horiz-adv-x="792" 
d="M-20 35l115 24l123 584l-105 23l8 35h353l-7 -35l-103 -24l-56 -264h69l250 254l-73 39l6 30h278l-7 -35l-113 -41l-247 -229l173 -329l85 -32l-7 -35h-315l7 30l75 23l-126 266h-67l-55 -261l93 -23l-7 -35h-354zM215 -312q51 26 80 54t40 59l-5 5q-3 -2 -7.5 -2.5
t-7.5 -0.5q-20 0 -34 12.5t-14 38.5q0 29 20.5 51.5t51.5 22.5q30 0 48.5 -19.5t18.5 -54.5q0 -32 -13.5 -60.5t-37.5 -53t-57 -44t-72 -32.5l-11 24v0z" />
    <glyph glyph-name="kcommaaccent" unicode="&#x137;" horiz-adv-x="575" 
d="M106 -318q101 53 122 115l-5 6q-8 -3 -16 -3q-20 0 -34.5 12.5t-14.5 38.5q0 30 21 53t53 23q31 0 50 -20t19 -56q0 -32 -14 -61t-38.5 -54t-58.5 -45t-73 -33l-11 24v0zM412 -13q-38 0 -58 19t-30 72q-9 54 -18 86t-21 50t-29 25t-43 10l-53 -249h-126l154 712l-92 36
l3 27l221 54l16 -12l-115 -529q63 13 110.5 37.5t76.5 49.5q-10 15 -15 30.5t-5 33.5q0 35 22.5 60.5t56.5 25.5q37 0 56 -23t19 -52q0 -27 -12 -50t-39 -43.5t-71 -39t-107 -34.5l-1 -10q49 -5 70.5 -21t33.5 -43q11 -29 17 -52.5t14 -52.5q4 -14 9 -23.5t16 -15t29.5 -7.5
t49.5 0l3 -21q-30 -20 -68.5 -35t-73.5 -15z" />
    <glyph glyph-name="Lacute" unicode="&#x139;" horiz-adv-x="678" 
d="M286 797q32 62 58.5 113t49.5 77q20 23 47.5 29.5t47.5 -10.5q21 -17 19 -42.5t-24 -50.5q-23 -26 -69 -59.5t-106 -74.5zM-20 35l115 24l123 584l-105 23l8 35h364l-8 -35l-113 -24l-123 -589l118 3q24 0 42 4t34 12.5t32 22t34 33.5l105 114l22 -4l-67 -238h-588z" />
    <glyph glyph-name="lacute" unicode="&#x13a;" horiz-adv-x="338" 
d="M220 876q32 63 59.5 114.5t50.5 78.5q10 12 22.5 19.5t25.5 10.5t26 1t23 -11q22 -18 19.5 -44t-24.5 -51q-23 -27 -71 -60.5t-108 -75.5zM132 -13q-26 0 -43 8t-25 22t-9 33.5t4 42.5l134 619l-92 36l3 27l221 54l16 -12l-153 -703q-4 -18 -3.5 -28.5t10.5 -16t30.5 -8
t56.5 -3.5l4 -22q-38 -22 -78.5 -35.5t-75.5 -13.5z" />
    <glyph glyph-name="Lcaron" unicode="&#x13d;" horiz-adv-x="678" 
d="M-20 35l115 24l123 584l-105 23l8 35h364l-8 -35l-113 -24l-123 -589l118 3q24 0 42 4t34 12.5t32 22t34 33.5l105 114l22 -4l-67 -238h-588zM493 434q9 68 20 126t24 90q12 28 35.5 43t49.5 5q25 -10 29 -35.5t-7 -52.5q-15 -35 -49.5 -82.5t-77.5 -102.5z" />
    <glyph glyph-name="lcaron" unicode="&#x13e;" horiz-adv-x="338" 
d="M341 558q10 68 21 128t24 92q6 14 15.5 25.5t20.5 18.5t24 8.5t26 -3.5q26 -11 30 -36.5t-8 -53.5q-15 -35 -50 -83.5t-78 -104.5zM132 -13q-26 0 -43 8t-25 22t-9 33.5t4 42.5l134 619l-92 36l3 27l221 54l16 -12l-153 -703q-4 -18 -3.5 -28.5t10.5 -16t30.5 -8
t56.5 -3.5l4 -22q-38 -22 -78.5 -35.5t-75.5 -13.5z" />
    <glyph glyph-name="Lcommaaccent" unicode="&#x13b;" horiz-adv-x="678" 
d="M-20 35l115 24l123 584l-105 23l8 35h364l-8 -35l-113 -24l-123 -589l118 3q24 0 42 4t34 12.5t32 22t34 33.5l105 114l22 -4l-67 -238h-588zM164 -312q51 26 80 54t40 59l-5 5q-3 -2 -7.5 -2.5t-7.5 -0.5q-20 0 -34 12.5t-14 38.5q0 29 20.5 51.5t51.5 22.5
q30 0 48.5 -19.5t18.5 -54.5q0 -32 -13.5 -60.5t-37.5 -53t-57 -44t-72 -32.5l-11 24v0z" />
    <glyph glyph-name="lcommaaccent" unicode="&#x13c;" horiz-adv-x="338" 
d="M-17 -318q101 53 122 115l-5 6q-8 -3 -16 -3q-20 0 -34.5 12.5t-14.5 38.5q0 30 21 53t53 23q31 0 50 -20t19 -56q0 -32 -14 -61t-38.5 -54t-58.5 -45t-73 -33l-11 24v0zM132 -13q-26 0 -43 8t-25 22t-9 33.5t4 42.5l134 619l-92 36l3 27l221 54l16 -12l-153 -703
q-4 -18 -3.5 -28.5t10.5 -16t30.5 -8t56.5 -3.5l4 -22q-38 -22 -78.5 -35.5t-75.5 -13.5z" />
    <glyph glyph-name="Ldot" unicode="&#x13f;" horiz-adv-x="674" 
d="M571 344q-31 0 -52 21.5t-21 51.5q0 31 22 53.5t54 22.5q31 0 52 -21t21 -52q0 -30 -22 -53t-54 -23zM-20 35l115 24l123 584l-105 23l8 35h364l-8 -35l-113 -24l-123 -589l118 3q24 0 42 4t34 12.5t32 22t34 33.5l105 114l22 -4l-67 -238h-588z" />
    <glyph glyph-name="ldot" unicode="&#x140;" horiz-adv-x="441" 
d="M401 321q-31 0 -52.5 21.5t-21.5 53.5q0 15 6 29t16.5 24.5t24.5 17t30 6.5q32 0 53 -21.5t21 -52.5q0 -16 -6 -30t-16.5 -24.5t-24.5 -17t-30 -6.5zM132 -13q-26 0 -43 8t-25 22t-9 33.5t4 42.5l134 619l-92 36l3 27l221 54l16 -12l-153 -703q-4 -18 -3.5 -28.5
t10.5 -16t30.5 -8t56.5 -3.5l4 -22q-38 -22 -78.5 -35.5t-75.5 -13.5z" />
    <glyph glyph-name="Lslash" unicode="&#x141;" horiz-adv-x="681" 
d="M-17 35l116 24l50 241l-84 -21l-3 55l99 25l60 284l-105 23l7 35h364l-7 -35l-114 -24l-51 -244l143 37l5 -54l-161 -42l-59 -286l121 3q24 0 42 3.5t34 12t31.5 22t34.5 33.5l104 114l21 -3l-68 -238h-588z" />
    <glyph glyph-name="lslash" unicode="&#x142;" horiz-adv-x="379" 
d="M152 -13q-26 0 -42.5 8t-25 22t-9 33.5t4.5 42.5l56 259l-95 -26l-4 56l111 30l65 300l-91 36l2 27l222 54l15 -12l-80 -368l105 28l4 -56l-122 -32l-60 -275q-4 -18 -3.5 -28.5t10.5 -16t30.5 -8t56.5 -3.5l4 -22q-38 -22 -78.5 -35.5t-75.5 -13.5z" />
    <glyph glyph-name="Nacute" unicode="&#x143;" horiz-adv-x="850" 
d="M462 797q32 62 58.5 113t49.5 77q20 23 47.5 29.5t47.5 -10.5q21 -17 19 -42.5t-24 -50.5q-23 -26 -69 -59.5t-106 -74.5zM506 111l-222 452h-12l-103 -494l89 -34l-8 -35h-264l8 35l104 35l118 564l-87 32l8 35h249l53 -117l174 -367h14l85 414l-89 35l8 35h263l-7 -35
l-104 -36l-133 -637h-90z" />
    <glyph glyph-name="nacute" unicode="&#x144;" horiz-adv-x="640" 
d="M322 609q32 63 59.5 114.5t50.5 78.5q10 12 22.5 19.5t25.5 10.5t26 1t23 -11q22 -18 19.5 -44t-24.5 -51q-23 -27 -71 -60.5t-108 -75.5zM456 -13q-42 0 -59.5 18.5t-17.5 49.5q1 12 3 27t6 29l48 207q27 109 -55 109q-26 0 -57 -15.5t-76 -48.5l-78 -363h-126l89 410
l-84 36l3 27l211 55l16 -12l-32 -108l11 -2q57 53 106 84.5t98 31.5q37 0 61 -14t36.5 -39.5t13.5 -60.5t-9 -76l-52 -218q-4 -17 -3.5 -28t10 -17t29.5 -8t56 -3l4 -22q-38 -22 -77.5 -35.5t-74.5 -13.5z" />
    <glyph glyph-name="Ncaron" unicode="&#x147;" horiz-adv-x="850" 
d="M383 995l31 24l101 -117l159 117l22 -24l-169 -205h-61zM506 111l-222 452h-12l-103 -494l89 -34l-8 -35h-264l8 35l104 35l118 564l-87 32l8 35h249l53 -117l174 -367h14l85 414l-89 35l8 35h263l-7 -35l-104 -36l-133 -637h-90z" />
    <glyph glyph-name="ncaron" unicode="&#x148;" horiz-adv-x="640" 
d="M241 810l32 25l102 -119l163 119l22 -25l-173 -209h-61zM456 -13q-42 0 -59.5 18.5t-17.5 49.5q1 12 3 27t6 29l48 207q27 109 -55 109q-26 0 -57 -15.5t-76 -48.5l-78 -363h-126l89 410l-84 36l3 27l211 55l16 -12l-32 -108l11 -2q57 53 106 84.5t98 31.5q37 0 61 -14
t36.5 -39.5t13.5 -60.5t-9 -76l-52 -218q-4 -17 -3.5 -28t10 -17t29.5 -8t56 -3l4 -22q-38 -22 -77.5 -35.5t-74.5 -13.5z" />
    <glyph glyph-name="Ncommaaccent" unicode="&#x145;" horiz-adv-x="850" 
d="M239 -312q51 26 80 54t40 59l-5 5q-3 -2 -7.5 -2.5t-7.5 -0.5q-20 0 -34 12.5t-14 38.5q0 29 20.5 51.5t51.5 22.5q30 0 48.5 -19.5t18.5 -54.5q0 -32 -13.5 -60.5t-37.5 -53t-57 -44t-72 -32.5l-11 24v0zM506 111l-222 452h-12l-103 -494l89 -34l-8 -35h-264l8 35
l104 35l118 564l-87 32l8 35h249l53 -117l174 -367h14l85 414l-89 35l8 35h263l-7 -35l-104 -36l-133 -637h-90z" />
    <glyph glyph-name="ncommaaccent" unicode="&#x146;" horiz-adv-x="640" 
d="M125 -318q101 53 122 115l-5 6q-8 -3 -16 -3q-20 0 -34.5 12.5t-14.5 38.5q0 30 21 53t53 23q31 0 50 -20t19 -56q0 -32 -14 -61t-38.5 -54t-58.5 -45t-73 -33l-11 24v0zM456 -13q-42 0 -59.5 18.5t-17.5 49.5q1 12 3 27t6 29l48 207q27 109 -55 109q-26 0 -57 -15.5
t-76 -48.5l-78 -363h-126l89 410l-84 36l3 27l211 55l16 -12l-32 -108l11 -2q57 53 106 84.5t98 31.5q37 0 61 -14t36.5 -39.5t13.5 -60.5t-9 -76l-52 -218q-4 -17 -3.5 -28t10 -17t29.5 -8t56 -3l4 -22q-38 -22 -77.5 -35.5t-74.5 -13.5z" />
    <glyph glyph-name="Ntilde" unicode="&#xd1;" horiz-adv-x="850" 
d="M350 791q21 83 49.5 120t74.5 37q22 0 44 -8.5t42 -18.5t38 -18.5t33 -8.5q17 0 29 14.5t31 50.5l39 -7q-21 -83 -49 -120t-75 -37q-22 0 -43.5 8.5t-41.5 18.5t-38.5 18.5t-33.5 8.5q-17 0 -28.5 -14.5t-31.5 -49.5zM506 111l-222 452h-12l-103 -494l89 -34l-8 -35h-264
l8 35l104 35l118 564l-87 32l8 35h249l53 -117l174 -367h14l85 414l-89 35l8 35h263l-7 -35l-104 -36l-133 -637h-90z" />
    <glyph glyph-name="ntilde" unicode="&#xf1;" horiz-adv-x="640" 
d="M456 -13q-42 0 -59.5 18.5t-17.5 49.5q1 12 3 27t6 29l48 207q27 109 -55 109q-26 0 -57 -15.5t-76 -48.5l-78 -363h-126l89 410l-84 36l3 27l211 55l16 -12l-32 -108l11 -2q57 53 106 84.5t98 31.5q37 0 61 -14t36.5 -39.5t13.5 -60.5t-9 -76l-52 -218q-4 -17 -3.5 -28
t10 -17t29.5 -8t56 -3l4 -22q-38 -22 -77.5 -35.5t-74.5 -13.5zM208 603q21 84 49.5 122t76.5 38q22 0 44 -8.5t42.5 -19t39 -19t34.5 -8.5q17 0 29 14.5t32 50.5l39 -7q-21 -84 -49.5 -121.5t-76.5 -37.5q-23 0 -44.5 8.5t-42 19t-39 19t-34.5 8.5q-17 0 -29 -15t-32 -51z
" />
    <glyph glyph-name="Oacute" unicode="&#xd3;" horiz-adv-x="798" 
d="M448 802q32 62 58.5 113t49.5 77q20 23 47.5 29.5t47.5 -10.5q21 -17 19 -42.5t-24 -50.5q-23 -26 -69 -59.5t-106 -74.5zM359 -16q-74 0 -130 22.5t-93 62t-55.5 95t-18.5 121.5q0 79 29 156.5t81 138.5t125 99t161 38q74 0 130 -22.5t93.5 -62t56 -95t18.5 -121.5
q0 -79 -29 -156.5t-81 -138.5t-125.5 -99t-161.5 -38zM355 32q54 0 99.5 40.5t78 104t50.5 141.5t18 153q0 90 -35.5 143.5t-102.5 53.5q-54 0 -99.5 -40.5t-78.5 -103.5t-51 -141t-18 -153q0 -90 35.5 -144t103.5 -54z" />
    <glyph glyph-name="oacute" unicode="&#xf3;" horiz-adv-x="586" 
d="M317 609q32 63 59.5 114.5t50.5 78.5q10 12 22.5 19.5t25.5 10.5t26 1t23 -11q22 -18 19.5 -44t-24.5 -51q-23 -27 -71 -60.5t-108 -75.5zM233 -13q-41 0 -76.5 13t-61.5 38t-41 62.5t-15 85.5q0 63 23.5 123t65.5 107.5t99.5 76.5t125.5 29q41 0 76.5 -13t62 -38
t41.5 -62.5t15 -85.5q0 -63 -24 -123t-66 -107.5t-99.5 -76.5t-125.5 -29zM263 38q36 0 63.5 31t47 76t29.5 96.5t10 93.5q0 62 -23 99.5t-66 37.5q-36 0 -64 -31t-47.5 -76.5t-29.5 -97t-10 -93.5q0 -62 23 -99t67 -37z" />
    <glyph glyph-name="Obreve" unicode="&#x14e;" horiz-adv-x="798" 
d="M507 793q-73 0 -106.5 49t-22.5 139l37 11q9 -51 35 -77t77 -26q43 0 74.5 26t58.5 77l36 -11q-27 -97 -73.5 -142.5t-115.5 -45.5zM359 -16q-74 0 -130 22.5t-93 62t-55.5 95t-18.5 121.5q0 79 29 156.5t81 138.5t125 99t161 38q74 0 130 -22.5t93.5 -62t56 -95
t18.5 -121.5q0 -79 -29 -156.5t-81 -138.5t-125.5 -99t-161.5 -38zM355 32q54 0 99.5 40.5t78 104t50.5 141.5t18 153q0 90 -35.5 143.5t-102.5 53.5q-54 0 -99.5 -40.5t-78.5 -103.5t-51 -141t-18 -153q0 -90 35.5 -144t103.5 -54z" />
    <glyph glyph-name="obreve" unicode="&#x14f;" horiz-adv-x="586" 
d="M233 -13q-41 0 -76.5 13t-61.5 38t-41 62.5t-15 85.5q0 63 23.5 123t65.5 107.5t99.5 76.5t125.5 29q41 0 76.5 -13t62 -38t41.5 -62.5t15 -85.5q0 -63 -24 -123t-66 -107.5t-99.5 -76.5t-125.5 -29zM263 38q36 0 63.5 31t47 76t29.5 96.5t10 93.5q0 62 -23 99.5
t-66 37.5q-36 0 -64 -31t-47.5 -76.5t-29.5 -97t-10 -93.5q0 -62 23 -99t67 -37zM377 600q-75 0 -109 50t-23 141l37 11q10 -51 36.5 -77.5t78.5 -26.5q44 0 76 26t60 78l36 -11q-27 -99 -74 -145t-118 -46z" />
    <glyph glyph-name="Ocircumflex" unicode="&#xd4;" horiz-adv-x="798" 
d="M359 -16q-74 0 -130 22.5t-93 62t-55.5 95t-18.5 121.5q0 79 29 156.5t81 138.5t125 99t161 38q74 0 130 -22.5t93.5 -62t56 -95t18.5 -121.5q0 -79 -29 -156.5t-81 -138.5t-125.5 -99t-161.5 -38zM355 32q54 0 99.5 40.5t78 104t50.5 141.5t18 153q0 90 -35.5 143.5
t-102.5 53.5q-54 0 -99.5 -40.5t-78.5 -103.5t-51 -141t-18 -153q0 -90 35.5 -144t103.5 -54zM345 806l170 205h59l84 -205l-30 -25l-104 114l-157 -114z" />
    <glyph glyph-name="ocircumflex" unicode="&#xf4;" horiz-adv-x="586" 
d="M213 612l173 209h60l85 -209l-31 -24l-105 116l-161 -116zM233 -13q-41 0 -76.5 13t-61.5 38t-41 62.5t-15 85.5q0 63 23.5 123t65.5 107.5t99.5 76.5t125.5 29q41 0 76.5 -13t62 -38t41.5 -62.5t15 -85.5q0 -63 -24 -123t-66 -107.5t-99.5 -76.5t-125.5 -29zM263 38
q36 0 63.5 31t47 76t29.5 96.5t10 93.5q0 62 -23 99.5t-66 37.5q-36 0 -64 -31t-47.5 -76.5t-29.5 -97t-10 -93.5q0 -62 23 -99t67 -37z" />
    <glyph glyph-name="Odieresis" unicode="&#xd6;" horiz-adv-x="798" 
d="M625 798q-32 0 -52.5 21t-20.5 53t22.5 56.5t57.5 24.5q32 0 52.5 -21t20.5 -53t-22.5 -56.5t-57.5 -24.5zM401 798q-32 0 -52.5 21t-20.5 53t22.5 56.5t57.5 24.5q32 0 52.5 -21t20.5 -53t-23 -56.5t-57 -24.5zM359 -16q-74 0 -130 22.5t-93 62t-55.5 95t-18.5 121.5
q0 79 29 156.5t81 138.5t125 99t161 38q74 0 130 -22.5t93.5 -62t56 -95t18.5 -121.5q0 -79 -29 -156.5t-81 -138.5t-125.5 -99t-161.5 -38zM355 32q54 0 99.5 40.5t78 104t50.5 141.5t18 153q0 90 -35.5 143.5t-102.5 53.5q-54 0 -99.5 -40.5t-78.5 -103.5t-51 -141
t-18 -153q0 -90 35.5 -144t103.5 -54z" />
    <glyph glyph-name="odieresis" unicode="&#xf6;" horiz-adv-x="586" 
d="M496 605q-32 0 -52.5 21.5t-20.5 53.5q0 16 6 31t17 26.5t25.5 18.5t32.5 7q32 0 53 -21.5t21 -54.5q0 -16 -6 -31t-17 -26t-26 -18t-33 -7zM269 605q-33 0 -53.5 21.5t-20.5 53.5q0 16 6 31t17 26.5t25.5 18.5t32.5 7q33 0 53.5 -21.5t20.5 -54.5q0 -16 -6 -31t-17 -26
t-26 -18t-32 -7zM233 -13q-41 0 -76.5 13t-61.5 38t-41 62.5t-15 85.5q0 63 23.5 123t65.5 107.5t99.5 76.5t125.5 29q41 0 76.5 -13t62 -38t41.5 -62.5t15 -85.5q0 -63 -24 -123t-66 -107.5t-99.5 -76.5t-125.5 -29zM263 38q36 0 63.5 31t47 76t29.5 96.5t10 93.5
q0 62 -23 99.5t-66 37.5q-36 0 -64 -31t-47.5 -76.5t-29.5 -97t-10 -93.5q0 -62 23 -99t67 -37z" />
    <glyph glyph-name="OE" unicode="&#x152;" horiz-adv-x="1084" 
d="M419 0q-175 0 -266 70.5t-91 208.5q0 85 30 161.5t90.5 134.5t151 92t212.5 34h526l-31 -213l-26 -6l-48 96q-10 20 -19 33t-22 20.5t-30.5 11t-43.5 3.5l-115 2l-58 -272h44q25 0 42.5 4t31.5 13.5t26 27t25 44.5l17 36h29l-63 -301h-27l-5 34q-4 28 -9 46t-14 28.5
t-24.5 14.5t-39.5 4h-44l-56 -274l143 4q24 0 42.5 3.5t34 11t29.5 18.5t31 28l106 108l22 -5l-62 -221h-539zM465 51l127 600l-72 -2q-75 -2 -132.5 -36.5t-95.5 -89t-57.5 -122t-19.5 -135.5q0 -98 46.5 -153t146.5 -60z" />
    <glyph glyph-name="oe" unicode="&#x153;" horiz-adv-x="886" 
d="M263 38q36 0 63.5 31t47 76t29.5 96.5t10 93.5q0 62 -23 99.5t-66 37.5q-36 0 -64 -31t-47.5 -76.5t-29.5 -97t-10 -93.5q0 -62 23 -99t67 -37zM530 273q112 0 165 40t53 105q0 28 -15.5 44.5t-41.5 16.5q-25 0 -50 -15.5t-47 -43.5t-39 -65.5t-25 -81.5zM508 424
q41 45 92.5 71.5t111.5 26.5q70 0 110 -33.5t40 -84.5q0 -45 -25 -78.5t-69.5 -55t-106 -31.5t-135.5 -7q-5 -78 30 -119t107 -41q36 0 70 13t66 37l19 -17q-35 -53 -88 -85.5t-125 -32.5q-63 0 -106.5 24.5t-66.5 69.5q-39 -43 -90 -68.5t-110 -25.5q-41 0 -76 13t-61 38
t-41 62.5t-15 85.5q0 64 24.5 124.5t66.5 107.5t98 75.5t120 28.5q52 0 94.5 -24.5t65.5 -73.5z" />
    <glyph glyph-name="Ograve" unicode="&#xd2;" horiz-adv-x="798" 
d="M502 784q-38 40 -70 78.5t-44 64.5q-13 26 -6 51t32 37q26 13 49 3.5t34 -35.5t19.5 -72.5t16.5 -109.5l-31 -17v0zM359 -16q-74 0 -130 22.5t-93 62t-55.5 95t-18.5 121.5q0 79 29 156.5t81 138.5t125 99t161 38q74 0 130 -22.5t93.5 -62t56 -95t18.5 -121.5
q0 -79 -29 -156.5t-81 -138.5t-125.5 -99t-161.5 -38zM355 32q54 0 99.5 40.5t78 104t50.5 141.5t18 153q0 90 -35.5 143.5t-102.5 53.5q-54 0 -99.5 -40.5t-78.5 -103.5t-51 -141t-18 -153q0 -90 35.5 -144t103.5 -54z" />
    <glyph glyph-name="ograve" unicode="&#xf2;" horiz-adv-x="586" 
d="M233 -13q-41 0 -76.5 13t-61.5 38t-41 62.5t-15 85.5q0 63 23.5 123t65.5 107.5t99.5 76.5t125.5 29q41 0 76.5 -13t62 -38t41.5 -62.5t15 -85.5q0 -63 -24 -123t-66 -107.5t-99.5 -76.5t-125.5 -29zM263 38q36 0 63.5 31t47 76t29.5 96.5t10 93.5q0 62 -23 99.5
t-66 37.5q-36 0 -64 -31t-47.5 -76.5t-29.5 -97t-10 -93.5q0 -62 23 -99t67 -37zM372 590q-39 41 -71.5 80.5t-45.5 65.5q-12 27 -5.5 52t32.5 38t50 3t35 -36q11 -27 19.5 -74.5t16.5 -110.5l-31 -18v0z" />
    <glyph glyph-name="Ohungarumlaut" unicode="&#x150;" horiz-adv-x="798" 
d="M359 -16q-74 0 -130 22.5t-93 62t-55.5 95t-18.5 121.5q0 79 29 156.5t81 138.5t125 99t161 38q74 0 130 -22.5t93.5 -62t56 -95t18.5 -121.5q0 -79 -29 -156.5t-81 -138.5t-125.5 -99t-161.5 -38zM355 32q54 0 99.5 40.5t78 104t50.5 141.5t18 153q0 90 -35.5 143.5
t-102.5 53.5q-54 0 -99.5 -40.5t-78.5 -103.5t-51 -141t-18 -153q0 -90 35.5 -144t103.5 -54zM557 801q29 62 55.5 113.5t46.5 77.5q19 23 45 30t45 -8q21 -17 20 -41.5t-22 -48.5q-22 -26 -66 -62t-103 -78zM372 801q27 62 52.5 113.5t45.5 77.5q17 23 42.5 30t45.5 -8
q22 -17 22 -41.5t-20 -48.5q-22 -26 -65.5 -62t-100.5 -78z" />
    <glyph glyph-name="ohungarumlaut" unicode="&#x151;" horiz-adv-x="586" 
d="M429 608q29 62 56.5 115t47.5 79q19 24 45 31t46 -9q21 -17 20.5 -41.5t-22.5 -49.5q-23 -26 -67.5 -63t-104.5 -80zM240 608q28 62 54 115t46 79q17 24 43.5 31t46.5 -9q22 -17 22 -41.5t-20 -49.5q-23 -26 -67 -63t-103 -80zM233 -13q-41 0 -76.5 13t-61.5 38t-41 62.5
t-15 85.5q0 63 23.5 123t65.5 107.5t99.5 76.5t125.5 29q41 0 76.5 -13t62 -38t41.5 -62.5t15 -85.5q0 -63 -24 -123t-66 -107.5t-99.5 -76.5t-125.5 -29zM263 38q36 0 63.5 31t47 76t29.5 96.5t10 93.5q0 62 -23 99.5t-66 37.5q-36 0 -64 -31t-47.5 -76.5t-29.5 -97
t-10 -93.5q0 -62 23 -99t67 -37z" />
    <glyph glyph-name="Omacron" unicode="&#x14c;" horiz-adv-x="798" 
d="M366 901h316l-18 -84h-316zM359 -16q-74 0 -130 22.5t-93 62t-55.5 95t-18.5 121.5q0 79 29 156.5t81 138.5t125 99t161 38q74 0 130 -22.5t93.5 -62t56 -95t18.5 -121.5q0 -79 -29 -156.5t-81 -138.5t-125.5 -99t-161.5 -38zM355 32q54 0 99.5 40.5t78 104t50.5 141.5
t18 153q0 90 -35.5 143.5t-102.5 53.5q-54 0 -99.5 -40.5t-78.5 -103.5t-51 -141t-18 -153q0 -90 35.5 -144t103.5 -54z" />
    <glyph glyph-name="omacron" unicode="&#x14d;" horiz-adv-x="586" 
d="M233 710h322l-19 -86h-322zM233 -13q-41 0 -76.5 13t-61.5 38t-41 62.5t-15 85.5q0 63 23.5 123t65.5 107.5t99.5 76.5t125.5 29q41 0 76.5 -13t62 -38t41.5 -62.5t15 -85.5q0 -63 -24 -123t-66 -107.5t-99.5 -76.5t-125.5 -29zM263 38q36 0 63.5 31t47 76t29.5 96.5
t10 93.5q0 62 -23 99.5t-66 37.5q-36 0 -64 -31t-47.5 -76.5t-29.5 -97t-10 -93.5q0 -62 23 -99t67 -37z" />
    <glyph glyph-name="Oslash" unicode="&#xd8;" horiz-adv-x="798" 
d="M51 -4l78 85q-67 82 -67 207q0 78 29 155t81 137.5t125 98.5t161 38q61 0 110 -16.5t86 -47.5l74 84l35 -31l-76 -85q69 -81 69 -208q0 -78 -28.5 -155t-81 -137.5t-125.5 -98.5t-162 -38q-62 0 -111.5 17t-86.5 49l-75 -85zM585 582q-32 86 -122 86q-56 0 -101.5 -40
t-78.5 -103t-51 -140t-18 -150q0 -34 7 -59zM355 32q37 0 70 18.5t60.5 50.5t49.5 75t37.5 91.5t23.5 100t8 100.5q0 17 -1.5 32t-6.5 29l-364 -407q32 -90 123 -90z" />
    <glyph glyph-name="oslash" unicode="&#xf8;" horiz-adv-x="586" 
d="M29 -4l52 59q-42 51 -42 134q0 61 23.5 121t65.5 107t99 76t124 29q70 0 122 -38l51 58l35 -30l-53 -59q20 -25 31 -58t11 -75q0 -62 -23.5 -121.5t-65.5 -106.5t-99 -76t-124 -29q-35 0 -66 9t-55 28l-52 -57zM404 411q-11 33 -31 47.5t-49 14.5q-38 0 -66.5 -30
t-48 -73.5t-30 -91.5t-10.5 -84q0 -22 5 -42zM263 36q25 0 46 14t38 37t30 52.5t22 60.5t13.5 61t4.5 54q0 25 -4 41l-230 -260q11 -32 31 -46t49 -14z" />
    <glyph glyph-name="Oslashacute" unicode="&#x1fe;" horiz-adv-x="798" 
d="M51 -4l78 85q-67 82 -67 207q0 78 29 155t81 137.5t125 98.5t161 38q61 0 110 -16.5t86 -47.5l74 84l35 -31l-76 -85q69 -81 69 -208q0 -78 -28.5 -155t-81 -137.5t-125.5 -98.5t-162 -38q-62 0 -111.5 17t-86.5 49l-75 -85zM585 582q-32 86 -122 86q-56 0 -101.5 -40
t-78.5 -103t-51 -140t-18 -150q0 -34 7 -59zM355 32q37 0 70 18.5t60.5 50.5t49.5 75t37.5 91.5t23.5 100t8 100.5q0 17 -1.5 32t-6.5 29l-364 -407q32 -90 123 -90zM437 802q32 62 58.5 113t49.5 77q20 23 47.5 29.5t47.5 -10.5q21 -17 19 -42.5t-24 -50.5
q-23 -26 -69 -59.5t-106 -74.5z" />
    <glyph glyph-name="oslashacute" unicode="&#x1ff;" horiz-adv-x="586" 
d="M29 -4l52 59q-42 51 -42 134q0 61 23.5 121t65.5 107t99 76t124 29q70 0 122 -38l51 58l35 -30l-53 -59q20 -25 31 -58t11 -75q0 -62 -23.5 -121.5t-65.5 -106.5t-99 -76t-124 -29q-35 0 -66 9t-55 28l-52 -57zM404 411q-11 33 -31 47.5t-49 14.5q-38 0 -66.5 -30
t-48 -73.5t-30 -91.5t-10.5 -84q0 -22 5 -42zM263 36q25 0 46 14t38 37t30 52.5t22 60.5t13.5 61t4.5 54q0 25 -4 41l-230 -260q11 -32 31 -46t49 -14zM306 609q32 63 59.5 114.5t50.5 78.5q10 12 22.5 19.5t25.5 10.5t26 1t23 -11q22 -18 19.5 -44t-24.5 -51
q-23 -27 -71 -60.5t-108 -75.5z" />
    <glyph glyph-name="Otilde" unicode="&#xd5;" horiz-adv-x="798" 
d="M335 796q21 83 49.5 120t74.5 37q22 0 44 -8.5t42 -18.5t38 -18.5t33 -8.5q17 0 29 14.5t31 50.5l39 -7q-21 -83 -49 -120t-75 -37q-22 0 -43.5 8.5t-41.5 18.5t-38.5 18.5t-33.5 8.5q-17 0 -28.5 -14.5t-31.5 -49.5zM359 -16q-74 0 -130 22.5t-93 62t-55.5 95
t-18.5 121.5q0 79 29 156.5t81 138.5t125 99t161 38q74 0 130 -22.5t93.5 -62t56 -95t18.5 -121.5q0 -79 -29 -156.5t-81 -138.5t-125.5 -99t-161.5 -38zM355 32q54 0 99.5 40.5t78 104t50.5 141.5t18 153q0 90 -35.5 143.5t-102.5 53.5q-54 0 -99.5 -40.5t-78.5 -103.5
t-51 -141t-18 -153q0 -90 35.5 -144t103.5 -54z" />
    <glyph glyph-name="otilde" unicode="&#xf5;" horiz-adv-x="586" 
d="M233 -13q-41 0 -76.5 13t-61.5 38t-41 62.5t-15 85.5q0 63 23.5 123t65.5 107.5t99.5 76.5t125.5 29q41 0 76.5 -13t62 -38t41.5 -62.5t15 -85.5q0 -63 -24 -123t-66 -107.5t-99.5 -76.5t-125.5 -29zM263 38q36 0 63.5 31t47 76t29.5 96.5t10 93.5q0 62 -23 99.5
t-66 37.5q-36 0 -64 -31t-47.5 -76.5t-29.5 -97t-10 -93.5q0 -62 23 -99t67 -37zM203 603q21 84 49.5 122t76.5 38q22 0 44 -8.5t42.5 -19t39 -19t34.5 -8.5q17 0 29 14.5t32 50.5l39 -7q-21 -84 -49.5 -121.5t-76.5 -37.5q-23 0 -44.5 8.5t-42 19t-39 19t-34.5 8.5
q-17 0 -29 -15t-32 -51z" />
    <glyph glyph-name="Racute" unicode="&#x154;" horiz-adv-x="750" 
d="M-20 35l115 24l123 584l-105 23l8 35h344q117 0 176.5 -40t59.5 -115t-57 -129.5t-178 -70.5l-3 -14q27 -8 46 -18.5t31.5 -25t20.5 -34t13 -46.5q11 -47 21 -81.5t27 -53.5q14 -16 32 -24t50 -14l-8 -35h-129q-29 0 -48.5 5.5t-32 19t-21 36.5t-16.5 59l-26 114
q-5 24 -12.5 39.5t-18 24.5t-26 12.5t-37.5 3.5h-35l-53 -256l103 -23l-8 -35h-363zM368 365q45 1 79 16.5t56.5 40t33.5 56.5t11 65q0 54 -32 80.5t-100 27.5q-10 0 -27.5 -0.5t-23.5 -2.5l-61 -284zM399 797q32 62 58.5 113t49.5 77q20 23 47.5 29.5t47.5 -10.5
q21 -17 19 -42.5t-24 -50.5q-23 -26 -69 -59.5t-106 -74.5z" />
    <glyph glyph-name="racute" unicode="&#x155;" horiz-adv-x="489" 
d="M274 603q32 63 59.5 114.5t50.5 78.5q10 12 22.5 19.5t25.5 10.5t26 1t23 -11q22 -18 19.5 -44t-24.5 -51q-23 -27 -71 -60.5t-108 -75.5zM133 410l-84 36l3 27l205 55l16 -12l-32 -121l12 -3q47 67 84 99.5t80 32.5q37 0 56.5 -21.5t19.5 -53.5q0 -37 -22 -60t-54 -23
q-50 0 -78 54q-20 -10 -45.5 -31t-50.5 -51l-74 -338h-125z" />
    <glyph glyph-name="Rcaron" unicode="&#x158;" horiz-adv-x="750" 
d="M320 995l31 24l101 -117l159 117l22 -24l-169 -205h-61zM-20 35l115 24l123 584l-105 23l8 35h344q117 0 176.5 -40t59.5 -115t-57 -129.5t-178 -70.5l-3 -14q27 -8 46 -18.5t31.5 -25t20.5 -34t13 -46.5q11 -47 21 -81.5t27 -53.5q14 -16 32 -24t50 -14l-8 -35h-129
q-29 0 -48.5 5.5t-32 19t-21 36.5t-16.5 59l-26 114q-5 24 -12.5 39.5t-18 24.5t-26 12.5t-37.5 3.5h-35l-53 -256l103 -23l-8 -35h-363zM368 365q45 1 79 16.5t56.5 40t33.5 56.5t11 65q0 54 -32 80.5t-100 27.5q-10 0 -27.5 -0.5t-23.5 -2.5l-61 -284z" />
    <glyph glyph-name="rcaron" unicode="&#x159;" horiz-adv-x="489" 
d="M193 804l32 25l102 -119l163 119l22 -25l-173 -209h-61zM133 410l-84 36l3 27l205 55l16 -12l-32 -121l12 -3q47 67 84 99.5t80 32.5q37 0 56.5 -21.5t19.5 -53.5q0 -37 -22 -60t-54 -23q-50 0 -78 54q-20 -10 -45.5 -31t-50.5 -51l-74 -338h-125z" />
    <glyph glyph-name="Rcommaaccent" unicode="&#x156;" horiz-adv-x="750" 
d="M-20 35l115 24l123 584l-105 23l8 35h344q117 0 176.5 -40t59.5 -115t-57 -129.5t-178 -70.5l-3 -14q27 -8 46 -18.5t31.5 -25t20.5 -34t13 -46.5q11 -47 21 -81.5t27 -53.5q14 -16 32 -24t50 -14l-8 -35h-129q-29 0 -48.5 5.5t-32 19t-21 36.5t-16.5 59l-26 114
q-5 24 -12.5 39.5t-18 24.5t-26 12.5t-37.5 3.5h-35l-53 -256l103 -23l-8 -35h-363zM368 365q45 1 79 16.5t56.5 40t33.5 56.5t11 65q0 54 -32 80.5t-100 27.5q-10 0 -27.5 -0.5t-23.5 -2.5l-61 -284zM167 -312q51 26 80 54t40 59l-5 5q-3 -2 -7.5 -2.5t-7.5 -0.5
q-20 0 -34 12.5t-14 38.5q0 29 20.5 51.5t51.5 22.5q30 0 48.5 -19.5t18.5 -54.5q0 -32 -13.5 -60.5t-37.5 -53t-57 -44t-72 -32.5l-11 24v0z" />
    <glyph glyph-name="rcommaaccent" unicode="&#x157;" horiz-adv-x="489" 
d="M-39 -318q101 53 122 115l-5 6q-8 -3 -16 -3q-20 0 -34.5 12.5t-14.5 38.5q0 30 21 53t53 23q31 0 50 -20t19 -56q0 -32 -14 -61t-38.5 -54t-58.5 -45t-73 -33l-11 24v0zM133 410l-84 36l3 27l205 55l16 -12l-32 -121l12 -3q47 67 84 99.5t80 32.5q37 0 56.5 -21.5
t19.5 -53.5q0 -37 -22 -60t-54 -23q-50 0 -78 54q-20 -10 -45.5 -31t-50.5 -51l-74 -338h-125z" />
    <glyph glyph-name="Sacute" unicode="&#x15a;" horiz-adv-x="606" 
d="M50 240l40 1q12 -59 30.5 -99t42.5 -65t54 -35.5t65 -10.5q28 0 50.5 9.5t38 26t23.5 39t8 47.5q0 26 -7.5 45.5t-23.5 37t-41 33.5t-59 36q-31 18 -58 37t-47.5 42.5t-32.5 53t-12 67.5q0 45 17.5 83t49 66.5t75 44.5t94.5 16q46 0 84.5 -11t67.5 -30l43 39l34 -1
l-33 -221l-39 -2q-25 94 -61.5 136t-92.5 42q-51 0 -81 -30.5t-30 -81.5q0 -24 7.5 -41.5t23 -33t40 -31.5t59.5 -35q33 -20 60.5 -39.5t48 -42.5t31.5 -52t11 -67q0 -54 -21 -96t-56.5 -71.5t-81 -45t-94.5 -15.5q-59 0 -109.5 13t-85.5 32l-41 -40l-35 1zM359 802
q32 62 58.5 113t49.5 77q20 23 47.5 29.5t47.5 -10.5q21 -17 19 -42.5t-24 -50.5q-23 -26 -69 -59.5t-106 -74.5z" />
    <glyph glyph-name="sacute" unicode="&#x15b;" horiz-adv-x="485" 
d="M284 609q32 63 59.5 114.5t50.5 78.5q10 12 22.5 19.5t25.5 10.5t26 1t23 -11q22 -18 19.5 -44t-24.5 -51q-23 -27 -71 -60.5t-108 -75.5zM215 -13q-45 0 -82.5 8.5t-64.5 23.5t-41.5 36t-14.5 46q0 32 19.5 53.5t45.5 21.5q35 0 54.5 -32t11.5 -87q40 -23 87 -23
q36 0 59.5 20.5t23.5 54.5q0 27 -17 46.5t-64 44.5l-39 20q-24 12 -44.5 24.5t-34.5 28t-22 35.5t-8 46q0 32 15 62.5t43 54t66.5 37.5t86.5 14q39 0 69 -8.5t50.5 -22.5t30.5 -31.5t10 -35.5q0 -29 -16 -45.5t-41 -16.5q-32 0 -55 27.5t-29 75.5q-11 4 -22.5 6.5t-21.5 2.5
q-33 0 -55.5 -21.5t-22.5 -49.5q0 -26 18 -44t62 -40l39 -21q55 -29 83 -59t28 -80q0 -34 -14.5 -65t-41.5 -55t-65 -38t-86 -14z" />
    <glyph glyph-name="Scaron" unicode="&#x160;" horiz-adv-x="606" 
d="M50 240l40 1q12 -59 30.5 -99t42.5 -65t54 -35.5t65 -10.5q28 0 50.5 9.5t38 26t23.5 39t8 47.5q0 26 -7.5 45.5t-23.5 37t-41 33.5t-59 36q-31 18 -58 37t-47.5 42.5t-32.5 53t-12 67.5q0 45 17.5 83t49 66.5t75 44.5t94.5 16q46 0 84.5 -11t67.5 -30l43 39l34 -1
l-33 -221l-39 -2q-25 94 -61.5 136t-92.5 42q-51 0 -81 -30.5t-30 -81.5q0 -24 7.5 -41.5t23 -33t40 -31.5t59.5 -35q33 -20 60.5 -39.5t48 -42.5t31.5 -52t11 -67q0 -54 -21 -96t-56.5 -71.5t-81 -45t-94.5 -15.5q-59 0 -109.5 13t-85.5 32l-41 -40l-35 1zM281 1000l31 24
l101 -117l159 117l22 -24l-169 -205h-61z" />
    <glyph glyph-name="scaron" unicode="&#x161;" horiz-adv-x="485" 
d="M203 810l32 25l102 -119l163 119l22 -25l-173 -209h-61zM215 -13q-45 0 -82.5 8.5t-64.5 23.5t-41.5 36t-14.5 46q0 32 19.5 53.5t45.5 21.5q35 0 54.5 -32t11.5 -87q40 -23 87 -23q36 0 59.5 20.5t23.5 54.5q0 27 -17 46.5t-64 44.5l-39 20q-24 12 -44.5 24.5t-34.5 28
t-22 35.5t-8 46q0 32 15 62.5t43 54t66.5 37.5t86.5 14q39 0 69 -8.5t50.5 -22.5t30.5 -31.5t10 -35.5q0 -29 -16 -45.5t-41 -16.5q-32 0 -55 27.5t-29 75.5q-11 4 -22.5 6.5t-21.5 2.5q-33 0 -55.5 -21.5t-22.5 -49.5q0 -26 18 -44t62 -40l39 -21q55 -29 83 -59t28 -80
q0 -34 -14.5 -65t-41.5 -55t-65 -38t-86 -14z" />
    <glyph glyph-name="Scedilla" unicode="&#x15e;" horiz-adv-x="606" 
d="M187 -282q-44 0 -69.5 15t-25.5 39q0 16 9 27t26 11t26 -11.5t9 -25.5q0 -10 -6 -22q6 -2 12 -3.5t14 -1.5q25 0 45 16.5t20 49.5q0 27 -18.5 43.5t-47.5 16.5q-17 0 -32 -4l-13 22l123 95q-54 2 -99.5 15t-77.5 30l-41 -40l-35 1l44 249l40 1q12 -59 30.5 -99t42.5 -65
t54 -35.5t65 -10.5q28 0 50.5 9.5t38 26t23.5 39t8 47.5q0 26 -7.5 45.5t-23.5 37t-41 33.5t-59 36q-31 18 -58 37t-47.5 42.5t-32.5 53t-12 67.5q0 45 17.5 83t49 66.5t75 44.5t94.5 16q46 0 84.5 -11t67.5 -30l43 39l34 -1l-33 -221l-39 -2q-25 94 -61.5 136t-92.5 42
q-51 0 -81 -30.5t-30 -81.5q0 -24 7.5 -41.5t23 -33t40 -31.5t59.5 -35q33 -20 60.5 -39.5t48 -42.5t31.5 -52t11 -67q0 -49 -17.5 -88.5t-47.5 -68t-69.5 -46.5t-82.5 -23l-80 -61q38 -6 64 -29t26 -61q0 -26 -10.5 -47.5t-29 -37t-43.5 -24.5t-53 -9z" />
    <glyph glyph-name="scedilla" unicode="&#x15f;" horiz-adv-x="485" 
d="M125 -287q-45 0 -71 15.5t-26 39.5q0 16 10 27.5t27 11.5t25.5 -12t8.5 -26q0 -12 -5 -22q6 -3 12 -4.5t15 -1.5q25 0 45 17t20 51q0 27 -19 44t-48 17q-9 0 -16.5 -1t-15.5 -3l-13 22l128 99q-43 1 -78 10t-60 24t-38.5 35.5t-13.5 44.5q0 32 19.5 53.5t45.5 21.5
q35 0 54.5 -32t11.5 -87q40 -23 87 -23q36 0 59.5 20.5t23.5 54.5q0 27 -17 46.5t-64 44.5l-39 20q-24 12 -44.5 24.5t-34.5 28t-22 35.5t-8 46q0 32 15 62.5t43 54t66.5 37.5t86.5 14q39 0 69 -8.5t50.5 -22.5t30.5 -31.5t10 -35.5q0 -29 -16 -45.5t-41 -16.5
q-32 0 -55 27.5t-29 75.5q-11 4 -22.5 6.5t-21.5 2.5q-33 0 -55.5 -21.5t-22.5 -49.5q0 -26 18 -44t62 -40l39 -21q55 -29 83 -59t28 -80q0 -30 -11.5 -58t-33 -50.5t-52 -38.5t-68.5 -22l-85 -66q39 -5 65.5 -29t26.5 -62q0 -26 -11 -48t-30 -38t-44.5 -25t-53.5 -9z" />
    <glyph glyph-name="Scommaaccent" unicode="&#x218;" horiz-adv-x="606" 
d="M50 240l40 1q12 -59 30.5 -99t42.5 -65t54 -35.5t65 -10.5q28 0 50.5 9.5t38 26t23.5 39t8 47.5q0 26 -7.5 45.5t-23.5 37t-41 33.5t-59 36q-31 18 -58 37t-47.5 42.5t-32.5 53t-12 67.5q0 45 17.5 83t49 66.5t75 44.5t94.5 16q46 0 84.5 -11t67.5 -30l43 39l34 -1
l-33 -221l-39 -2q-25 94 -61.5 136t-92.5 42q-51 0 -81 -30.5t-30 -81.5q0 -24 7.5 -41.5t23 -33t40 -31.5t59.5 -35q33 -20 60.5 -39.5t48 -42.5t31.5 -52t11 -67q0 -54 -21 -96t-56.5 -71.5t-81 -45t-94.5 -15.5q-59 0 -109.5 13t-85.5 32l-41 -40l-35 1zM107 -312
q51 26 80 54t40 59l-5 5q-3 -2 -7.5 -2.5t-7.5 -0.5q-20 0 -34 12.5t-14 38.5q0 29 20.5 51.5t51.5 22.5q30 0 48.5 -19.5t18.5 -54.5q0 -32 -13.5 -60.5t-37.5 -53t-57 -44t-72 -32.5l-11 24v0z" />
    <glyph glyph-name="scommaaccent" unicode="&#x219;" horiz-adv-x="485" 
d="M41 -318q101 53 122 115l-5 6q-8 -3 -16 -3q-20 0 -34.5 12.5t-14.5 38.5q0 30 21 53t53 23q31 0 50 -20t19 -56q0 -32 -14 -61t-38.5 -54t-58.5 -45t-73 -33l-11 24v0zM215 -13q-45 0 -82.5 8.5t-64.5 23.5t-41.5 36t-14.5 46q0 32 19.5 53.5t45.5 21.5q35 0 54.5 -32
t11.5 -87q40 -23 87 -23q36 0 59.5 20.5t23.5 54.5q0 27 -17 46.5t-64 44.5l-39 20q-24 12 -44.5 24.5t-34.5 28t-22 35.5t-8 46q0 32 15 62.5t43 54t66.5 37.5t86.5 14q39 0 69 -8.5t50.5 -22.5t30.5 -31.5t10 -35.5q0 -29 -16 -45.5t-41 -16.5q-32 0 -55 27.5t-29 75.5
q-11 4 -22.5 6.5t-21.5 2.5q-33 0 -55.5 -21.5t-22.5 -49.5q0 -26 18 -44t62 -40l39 -21q55 -29 83 -59t28 -80q0 -34 -14.5 -65t-41.5 -55t-65 -38t-86 -14z" />
    <glyph glyph-name="Tcaron" unicode="&#x164;" horiz-adv-x="736" 
d="M343 995l31 24l101 -117l159 117l22 -24l-169 -205h-61zM122 35l123 24l124 592h-48q-17 0 -31 -3t-29 -12.5t-34 -27t-46 -47.5l-90 -99l-24 6l75 233h615l-12 -233l-25 -6l-50 99q-14 27 -25.5 44.5t-24 27.5t-26.5 14t-33 4h-46l-124 -593l112 -23l-7 -35h-380z" />
    <glyph glyph-name="tcaron" unicode="&#x165;" horiz-adv-x="421" 
d="M364 560q10 68 21 128t24 92q6 14 15.5 25.5t20.5 18.5t24 8.5t26 -3.5q26 -11 30 -36.5t-8 -53.5q-15 -35 -50 -83.5t-78 -104.5zM173 -12q-37 0 -58 12.5t-31 33t-9.5 47.5t7.5 57l64 294h-91l7 32l119 67l90 127l48 -9l-33 -152h148l-14 -65h-148l-57 -260
q-8 -38 -7.5 -57t13.5 -30q9 -9 29 -13.5t58 -4.5q29 0 59 3v-29q-51 -23 -97 -38t-97 -15z" />
    <glyph glyph-name="Tcommaaccent" unicode="&#x162;" horiz-adv-x="736" 
d="M122 35l123 24l124 592h-48q-17 0 -31 -3t-29 -12.5t-34 -27t-46 -47.5l-90 -99l-24 6l75 233h615l-12 -233l-25 -6l-50 99q-14 27 -25.5 44.5t-24 27.5t-26.5 14t-33 4h-46l-124 -593l112 -23l-7 -35h-380zM172 -312q51 26 80 54t40 59l-5 5q-3 -2 -7.5 -2.5t-7.5 -0.5
q-20 0 -34 12.5t-14 38.5q0 29 20.5 51.5t51.5 22.5q30 0 48.5 -19.5t18.5 -54.5q0 -32 -13.5 -60.5t-37.5 -53t-57 -44t-72 -32.5l-11 24v0z" />
    <glyph glyph-name="Tcommaaccent" unicode="&#x21a;" horiz-adv-x="736" 
d="M122 35l123 24l124 592h-48q-17 0 -31 -3t-29 -12.5t-34 -27t-46 -47.5l-90 -99l-24 6l75 233h615l-12 -233l-25 -6l-50 99q-14 27 -25.5 44.5t-24 27.5t-26.5 14t-33 4h-46l-124 -593l112 -23l-7 -35h-380zM172 -312q51 26 80 54t40 59l-5 5q-3 -2 -7.5 -2.5t-7.5 -0.5
q-20 0 -34 12.5t-14 38.5q0 29 20.5 51.5t51.5 22.5q30 0 48.5 -19.5t18.5 -54.5q0 -32 -13.5 -60.5t-37.5 -53t-57 -44t-72 -32.5l-11 24v0z" />
    <glyph glyph-name="tcommaaccent" unicode="&#x163;" horiz-adv-x="421" 
d="M29 -318q101 53 122 115l-5 6q-8 -3 -16 -3q-20 0 -34.5 12.5t-14.5 38.5q0 30 21 53t53 23q31 0 50 -20t19 -56q0 -32 -14 -61t-38.5 -54t-58.5 -45t-73 -33l-11 24v0zM173 -12q-37 0 -58 12.5t-31 33t-9.5 47.5t7.5 57l64 294h-91l7 32l119 67l90 127l48 -9l-33 -152
h148l-14 -65h-148l-57 -260q-8 -38 -7.5 -57t13.5 -30q9 -9 29 -13.5t58 -4.5q29 0 59 3v-29q-51 -23 -97 -38t-97 -15z" />
    <glyph glyph-name="tcommaaccent" unicode="&#x21b;" horiz-adv-x="421" 
d="M29 -318q101 53 122 115l-5 6q-8 -3 -16 -3q-20 0 -34.5 12.5t-14.5 38.5q0 30 21 53t53 23q31 0 50 -20t19 -56q0 -32 -14 -61t-38.5 -54t-58.5 -45t-73 -33l-11 24v0zM173 -12q-37 0 -58 12.5t-31 33t-9.5 47.5t7.5 57l64 294h-91l7 32l119 67l90 127l48 -9l-33 -152
h148l-14 -65h-148l-57 -260q-8 -38 -7.5 -57t13.5 -30q9 -9 29 -13.5t58 -4.5q29 0 59 3v-29q-51 -23 -97 -38t-97 -15z" />
    <glyph glyph-name="Thorn" unicode="&#xde;" horiz-adv-x="698" 
d="M-20 35l115 24l123 584l-105 23l8 35h370l-8 -35l-119 -24l-19 -90q14 2 33.5 3.5t36.5 1.5q119 0 181.5 -46t62.5 -133q0 -47 -20 -89t-58 -73.5t-93 -50.5t-125 -19q-27 0 -54 2.5t-48 6.5l-20 -97l115 -23l-8 -35h-375zM320 200q50 0 85 16t57.5 42.5t32.5 61t10 71.5
q0 60 -31 87.5t-94 29.5h-23.5t-20.5 -2l-64 -304q8 -1 22.5 -1.5t25.5 -0.5z" />
    <glyph glyph-name="thorn" unicode="&#xfe;" horiz-adv-x="604" 
d="M-83 -202l79 28l192 886l-92 36l3 27l221 54l16 -12l-83 -380l11 -2q38 39 77.5 63t86.5 24q29 0 55 -11.5t45 -33.5t30 -53.5t11 -70.5q0 -72 -30.5 -138.5t-80 -117t-112.5 -80.5t-129 -30q-15 0 -31.5 1.5t-28.5 3.5l-35 -166l81 -29l-6 -31h-288zM282 52q32 0 60 25
t48.5 64t32 86t11.5 91q0 57 -22.5 85.5t-62.5 28.5q-26 0 -53.5 -15t-54.5 -39l-61 -281q45 -45 102 -45z" />
    <glyph glyph-name="Uacute" unicode="&#xda;" horiz-adv-x="816" 
d="M466 797q32 62 58.5 113t49.5 77q20 23 47.5 29.5t47.5 -10.5q21 -17 19 -42.5t-24 -50.5q-23 -26 -69 -59.5t-106 -74.5zM381 -17q-152 0 -215 78.5t-31 227.5l75 354l-105 23l7 35h368l-7 -35l-116 -24l-80 -376q-20 -95 13.5 -150t126.5 -55q43 0 76.5 14t57.5 38.5
t39.5 58t23.5 71.5l82 390l-82 33l8 35h254l-8 -35l-100 -34l-89 -415q-11 -53 -35 -96t-61.5 -74t-88 -47.5t-113.5 -16.5z" />
    <glyph glyph-name="uacute" unicode="&#xfa;" horiz-adv-x="642" 
d="M320 603q32 63 59.5 114.5t50.5 78.5q10 12 22.5 19.5t25.5 10.5t26 1t23 -11q22 -18 19.5 -44t-24.5 -51q-23 -27 -71 -60.5t-108 -75.5zM176 -13q-37 0 -61 14t-36.5 39.5t-13.5 60.5t9 76l55 235l-82 34l2 27l211 55l17 -12l-75 -325q-25 -109 55 -109q26 0 57 15.5
t76 48.5l57 265l-81 35v27l213 55l16 -12l-87 -401q-4 -18 -3.5 -28.5t9.5 -16.5t29.5 -8.5t55.5 -3.5l4 -22q-37 -22 -75.5 -35.5t-73.5 -13.5q-26 0 -41.5 9t-23 24.5t-7.5 35.5t4 41l-11 2q-54 -49 -102 -80.5t-97 -31.5z" />
    <glyph glyph-name="Ubreve" unicode="&#x16c;" horiz-adv-x="816" 
d="M525 788q-73 0 -106.5 49t-22.5 139l37 11q9 -51 35 -77t77 -26q43 0 74.5 26t58.5 77l36 -11q-27 -97 -73.5 -142.5t-115.5 -45.5zM381 -17q-152 0 -215 78.5t-31 227.5l75 354l-105 23l7 35h368l-7 -35l-116 -24l-80 -376q-20 -95 13.5 -150t126.5 -55q43 0 76.5 14
t57.5 38.5t39.5 58t23.5 71.5l82 390l-82 33l8 35h254l-8 -35l-100 -34l-89 -415q-11 -53 -35 -96t-61.5 -74t-88 -47.5t-113.5 -16.5z" />
    <glyph glyph-name="ubreve" unicode="&#x16d;" horiz-adv-x="642" 
d="M176 -13q-37 0 -61 14t-36.5 39.5t-13.5 60.5t9 76l55 235l-82 34l2 27l211 55l17 -12l-75 -325q-25 -109 55 -109q26 0 57 15.5t76 48.5l57 265l-81 35v27l213 55l16 -12l-87 -401q-4 -18 -3.5 -28.5t9.5 -16.5t29.5 -8.5t55.5 -3.5l4 -22q-37 -22 -75.5 -35.5
t-73.5 -13.5q-26 0 -41.5 9t-23 24.5t-7.5 35.5t4 41l-11 2q-54 -49 -102 -80.5t-97 -31.5zM380 594q-75 0 -109 50t-23 141l37 11q10 -51 36.5 -77.5t78.5 -26.5q44 0 76 26t60 78l36 -11q-27 -99 -74 -145t-118 -46z" />
    <glyph glyph-name="Ucircumflex" unicode="&#xdb;" horiz-adv-x="816" 
d="M381 -17q-152 0 -215 78.5t-31 227.5l75 354l-105 23l7 35h368l-7 -35l-116 -24l-80 -376q-20 -95 13.5 -150t126.5 -55q43 0 76.5 14t57.5 38.5t39.5 58t23.5 71.5l82 390l-82 33l8 35h254l-8 -35l-100 -34l-89 -415q-11 -53 -35 -96t-61.5 -74t-88 -47.5t-113.5 -16.5z
M364 801l170 205h59l84 -205l-30 -25l-104 114l-157 -114z" />
    <glyph glyph-name="ucircumflex" unicode="&#xfb;" horiz-adv-x="642" 
d="M215 606l173 209h60l85 -209l-31 -24l-105 116l-161 -116zM176 -13q-37 0 -61 14t-36.5 39.5t-13.5 60.5t9 76l55 235l-82 34l2 27l211 55l17 -12l-75 -325q-25 -109 55 -109q26 0 57 15.5t76 48.5l57 265l-81 35v27l213 55l16 -12l-87 -401q-4 -18 -3.5 -28.5t9.5 -16.5
t29.5 -8.5t55.5 -3.5l4 -22q-37 -22 -75.5 -35.5t-73.5 -13.5q-26 0 -41.5 9t-23 24.5t-7.5 35.5t4 41l-11 2q-54 -49 -102 -80.5t-97 -31.5z" />
    <glyph glyph-name="Udieresis" unicode="&#xdc;" horiz-adv-x="816" 
d="M643 793q-32 0 -52.5 21t-20.5 53t22.5 56.5t57.5 24.5q32 0 52.5 -21t20.5 -53t-22.5 -56.5t-57.5 -24.5zM419 793q-32 0 -52.5 21t-20.5 53t22.5 56.5t57.5 24.5q32 0 52.5 -21t20.5 -53t-23 -56.5t-57 -24.5zM381 -17q-152 0 -215 78.5t-31 227.5l75 354l-105 23l7 35
h368l-7 -35l-116 -24l-80 -376q-20 -95 13.5 -150t126.5 -55q43 0 76.5 14t57.5 38.5t39.5 58t23.5 71.5l82 390l-82 33l8 35h254l-8 -35l-100 -34l-89 -415q-11 -53 -35 -96t-61.5 -74t-88 -47.5t-113.5 -16.5z" />
    <glyph glyph-name="udieresis" unicode="&#xfc;" horiz-adv-x="642" 
d="M499 599q-32 0 -52.5 21.5t-20.5 53.5q0 16 6 31t17 26.5t25.5 18.5t32.5 7q32 0 53 -21.5t21 -54.5q0 -16 -6 -31t-17 -26t-26 -18t-33 -7zM272 599q-33 0 -53.5 21.5t-20.5 53.5q0 16 6 31t17 26.5t25.5 18.5t32.5 7q33 0 53.5 -21.5t20.5 -54.5q0 -16 -6 -31t-17 -26
t-26 -18t-32 -7zM176 -13q-37 0 -61 14t-36.5 39.5t-13.5 60.5t9 76l55 235l-82 34l2 27l211 55l17 -12l-75 -325q-25 -109 55 -109q26 0 57 15.5t76 48.5l57 265l-81 35v27l213 55l16 -12l-87 -401q-4 -18 -3.5 -28.5t9.5 -16.5t29.5 -8.5t55.5 -3.5l4 -22
q-37 -22 -75.5 -35.5t-73.5 -13.5q-26 0 -41.5 9t-23 24.5t-7.5 35.5t4 41l-11 2q-54 -49 -102 -80.5t-97 -31.5z" />
    <glyph glyph-name="Ugrave" unicode="&#xd9;" horiz-adv-x="816" 
d="M520 779q-38 40 -70 78.5t-44 64.5q-13 26 -6 51t32 37q26 13 49 3.5t34 -35.5t19.5 -72.5t16.5 -109.5l-31 -17v0zM381 -17q-152 0 -215 78.5t-31 227.5l75 354l-105 23l7 35h368l-7 -35l-116 -24l-80 -376q-20 -95 13.5 -150t126.5 -55q43 0 76.5 14t57.5 38.5t39.5 58
t23.5 71.5l82 390l-82 33l8 35h254l-8 -35l-100 -34l-89 -415q-11 -53 -35 -96t-61.5 -74t-88 -47.5t-113.5 -16.5z" />
    <glyph glyph-name="ugrave" unicode="&#xf9;" horiz-adv-x="642" 
d="M176 -13q-37 0 -61 14t-36.5 39.5t-13.5 60.5t9 76l55 235l-82 34l2 27l211 55l17 -12l-75 -325q-25 -109 55 -109q26 0 57 15.5t76 48.5l57 265l-81 35v27l213 55l16 -12l-87 -401q-4 -18 -3.5 -28.5t9.5 -16.5t29.5 -8.5t55.5 -3.5l4 -22q-37 -22 -75.5 -35.5
t-73.5 -13.5q-26 0 -41.5 9t-23 24.5t-7.5 35.5t4 41l-11 2q-54 -49 -102 -80.5t-97 -31.5zM374 584q-39 41 -71.5 80.5t-45.5 65.5q-12 27 -5.5 52t32.5 38t50 3t35 -36q11 -27 19.5 -74.5t16.5 -110.5l-31 -18v0z" />
    <glyph glyph-name="Uhungarumlaut" unicode="&#x170;" horiz-adv-x="816" 
d="M381 -17q-152 0 -215 78.5t-31 227.5l75 354l-105 23l7 35h368l-7 -35l-116 -24l-80 -376q-20 -95 13.5 -150t126.5 -55q43 0 76.5 14t57.5 38.5t39.5 58t23.5 71.5l82 390l-82 33l8 35h254l-8 -35l-100 -34l-89 -415q-11 -53 -35 -96t-61.5 -74t-88 -47.5t-113.5 -16.5z
M575 796q29 62 55.5 113.5t46.5 77.5q19 23 45 30t45 -8q21 -17 20 -41.5t-22 -48.5q-22 -26 -66 -62t-103 -78zM390 796q27 62 52.5 113.5t45.5 77.5q17 23 42.5 30t45.5 -8q22 -17 22 -41.5t-20 -48.5q-22 -26 -65.5 -62t-100.5 -78z" />
    <glyph glyph-name="uhungarumlaut" unicode="&#x171;" horiz-adv-x="642" 
d="M176 -13q-37 0 -61 14t-36.5 39.5t-13.5 60.5t9 76l55 235l-82 34l2 27l211 55l17 -12l-75 -325q-25 -109 55 -109q26 0 57 15.5t76 48.5l57 265l-81 35v27l213 55l16 -12l-87 -401q-4 -18 -3.5 -28.5t9.5 -16.5t29.5 -8.5t55.5 -3.5l4 -22q-37 -22 -75.5 -35.5
t-73.5 -13.5q-26 0 -41.5 9t-23 24.5t-7.5 35.5t4 41l-11 2q-54 -49 -102 -80.5t-97 -31.5zM431 602q29 62 56.5 115t47.5 79q19 24 45 31t46 -9q21 -17 20.5 -41.5t-22.5 -49.5q-23 -26 -67.5 -63t-104.5 -80zM242 602q28 62 54 115t46 79q17 24 43.5 31t46.5 -9
q22 -17 22 -41.5t-20 -49.5q-23 -26 -67 -63t-103 -80z" />
    <glyph glyph-name="Umacron" unicode="&#x16a;" horiz-adv-x="816" 
d="M385 896h316l-18 -84h-316zM381 -17q-152 0 -215 78.5t-31 227.5l75 354l-105 23l7 35h368l-7 -35l-116 -24l-80 -376q-20 -95 13.5 -150t126.5 -55q43 0 76.5 14t57.5 38.5t39.5 58t23.5 71.5l82 390l-82 33l8 35h254l-8 -35l-100 -34l-89 -415q-11 -53 -35 -96
t-61.5 -74t-88 -47.5t-113.5 -16.5z" />
    <glyph glyph-name="umacron" unicode="&#x16b;" horiz-adv-x="642" 
d="M176 -13q-37 0 -61 14t-36.5 39.5t-13.5 60.5t9 76l55 235l-82 34l2 27l211 55l17 -12l-75 -325q-25 -109 55 -109q26 0 57 15.5t76 48.5l57 265l-81 35v27l213 55l16 -12l-87 -401q-4 -18 -3.5 -28.5t9.5 -16.5t29.5 -8.5t55.5 -3.5l4 -22q-37 -22 -75.5 -35.5
t-73.5 -13.5q-26 0 -41.5 9t-23 24.5t-7.5 35.5t4 41l-11 2q-54 -49 -102 -80.5t-97 -31.5zM236 704h322l-19 -86h-322z" />
    <glyph glyph-name="Uogonek" unicode="&#x172;" horiz-adv-x="816" 
d="M236 -190q0 48 33 92t84 82q-137 8 -192.5 85t-25.5 220l75 354l-105 23l7 35h368l-7 -35l-116 -24l-80 -376q-20 -95 13.5 -150t126.5 -55q43 0 76.5 14t57.5 38.5t39.5 58t23.5 71.5l82 390l-82 33l8 35h254l-8 -35l-100 -34l-89 -415q-21 -100 -88.5 -163t-182.5 -70
q-48 -45 -66.5 -80.5t-18.5 -67.5q0 -28 17 -44t43 -16q22 0 41 8t36 21l17 -18q-29 -30 -63 -47.5t-79 -17.5q-43 0 -71 23t-28 65z" />
    <glyph glyph-name="uogonek" unicode="&#x173;" horiz-adv-x="642" 
d="M465 -13q-52 -4 -71.5 24.5t-7.5 85.5l-11 2q-54 -49 -102 -80.5t-97 -31.5q-37 0 -61 14t-36.5 39.5t-13.5 60.5t9 76l55 235l-82 34l2 27l211 55l17 -12l-75 -325q-25 -109 55 -109q26 0 57 15.5t76 48.5l57 265l-81 35v27l213 55l16 -12l-87 -401q-4 -18 -3.5 -28.5
t9.5 -16.5t29.5 -8.5t55.5 -3.5l4 -22q-39 -20 -74 -45t-62 -52t-43 -55.5t-16 -55.5q0 -26 16.5 -41t43.5 -15q22 0 41.5 8t36.5 21l17 -18q-29 -31 -64 -48.5t-81 -17.5q-39 0 -68.5 21.5t-29.5 62.5q0 25 11.5 50t31 48.5t46 45.5t56.5 42z" />
    <glyph glyph-name="Uring" unicode="&#x16e;" horiz-adv-x="816" 
d="M381 -17q-152 0 -215 78.5t-31 227.5l75 354l-105 23l7 35h368l-7 -35l-116 -24l-80 -376q-20 -95 13.5 -150t126.5 -55q43 0 76.5 14t57.5 38.5t39.5 58t23.5 71.5l82 390l-82 33l8 35h254l-8 -35l-100 -34l-89 -415q-11 -53 -35 -96t-61.5 -74t-88 -47.5t-113.5 -16.5z
M533 785q-52 0 -82.5 28t-30.5 72q0 25 9.5 48.5t27.5 41.5t42.5 29t54.5 11q52 0 82.5 -28t30.5 -72q0 -26 -9.5 -49.5t-27.5 -41.5t-42.5 -28.5t-54.5 -10.5zM534 815q17 0 30 11t22 27t13.5 34.5t4.5 33.5q0 32 -14 48t-37 16q-17 0 -30 -11t-22 -27t-13.5 -34.5
t-4.5 -33.5q0 -32 14 -48t37 -16z" />
    <glyph glyph-name="uring" unicode="&#x16f;" horiz-adv-x="642" 
d="M387 591q-53 0 -84 28.5t-31 73.5q0 26 10 49.5t28 41.5t43 29t55 11q53 0 84 -28.5t31 -73.5q0 -26 -10 -49.5t-28 -41.5t-43 -29t-55 -11zM388 621q17 0 30.5 11t22.5 27.5t13.5 35t4.5 34.5q0 32 -14.5 48.5t-37.5 16.5q-17 0 -30.5 -11t-22.5 -27t-13.5 -35t-4.5 -34
q0 -33 14.5 -49.5t37.5 -16.5zM176 -13q-37 0 -61 14t-36.5 39.5t-13.5 60.5t9 76l55 235l-82 34l2 27l211 55l17 -12l-75 -325q-25 -109 55 -109q26 0 57 15.5t76 48.5l57 265l-81 35v27l213 55l16 -12l-87 -401q-4 -18 -3.5 -28.5t9.5 -16.5t29.5 -8.5t55.5 -3.5l4 -22
q-37 -22 -75.5 -35.5t-73.5 -13.5q-26 0 -41.5 9t-23 24.5t-7.5 35.5t4 41l-11 2q-54 -49 -102 -80.5t-97 -31.5z" />
    <glyph glyph-name="Wacute" unicode="&#x1e82;" horiz-adv-x="1095" 
d="M610 797q32 62 58.5 113t49.5 77q20 23 47.5 29.5t47.5 -10.5q21 -17 19 -42.5t-24 -50.5q-23 -26 -69 -59.5t-106 -74.5zM182 637l-94 29l6 35h334l-7 -33l-86 -23l25 -474l224 403l-8 66l-73 28l6 33h312l-6 -33l-92 -26l46 -473l226 462l-72 37l5 33h240l-7 -35
l-91 -38l-338 -635h-76l-61 488l-277 -488h-76z" />
    <glyph glyph-name="wacute" unicode="&#x1e83;" horiz-adv-x="854" 
d="M430 603q32 63 59.5 114.5t50.5 78.5q10 12 22.5 19.5t25.5 10.5t26 1t23 -11q22 -18 19.5 -44t-24.5 -51q-23 -27 -71 -60.5t-108 -75.5zM173 -7l16 43q-3 65 -7.5 115.5t-10 91t-12 73t-14.5 59.5q-8 25 -17.5 34.5t-26.5 9.5q-23 0 -65 -14l-12 19q36 40 77 69t79 29
q30 0 48 -13.5t29 -45.5q8 -23 15 -57.5t12.5 -77.5t9.5 -93.5t5 -104.5l10 -2q35 47 66 94t57 97l-12 76t-13 74l110 56h9q11 -89 27 -193.5t30 -207.5l10 -2q45 54 75.5 104t47.5 98q-20 28 -29 56.5t-9 52.5q0 45 21.5 68t53.5 23q35 0 54.5 -24t19.5 -64
q0 -47 -23 -98.5t-65.5 -109t-103 -121t-135.5 -132.5l-35 17l16 44l-35 202q-44 -63 -103.5 -128.5t-135.5 -133.5z" />
    <glyph glyph-name="Wcircumflex" unicode="&#x174;" horiz-adv-x="1095" 
d="M182 637l-94 29l6 35h334l-7 -33l-86 -23l25 -474l224 403l-8 66l-73 28l6 33h312l-6 -33l-92 -26l46 -473l226 462l-72 37l5 33h240l-7 -35l-91 -38l-338 -635h-76l-61 488l-277 -488h-76zM508 801l170 205h59l84 -205l-30 -25l-104 114l-157 -114z" />
    <glyph glyph-name="wcircumflex" unicode="&#x175;" horiz-adv-x="854" 
d="M326 606l173 209h60l85 -209l-31 -24l-105 116l-161 -116zM173 -7l16 43q-3 65 -7.5 115.5t-10 91t-12 73t-14.5 59.5q-8 25 -17.5 34.5t-26.5 9.5q-23 0 -65 -14l-12 19q36 40 77 69t79 29q30 0 48 -13.5t29 -45.5q8 -23 15 -57.5t12.5 -77.5t9.5 -93.5t5 -104.5l10 -2
q35 47 66 94t57 97l-12 76t-13 74l110 56h9q11 -89 27 -193.5t30 -207.5l10 -2q45 54 75.5 104t47.5 98q-20 28 -29 56.5t-9 52.5q0 45 21.5 68t53.5 23q35 0 54.5 -24t19.5 -64q0 -47 -23 -98.5t-65.5 -109t-103 -121t-135.5 -132.5l-35 17l16 44l-35 202
q-44 -63 -103.5 -128.5t-135.5 -133.5z" />
    <glyph glyph-name="Wdieresis" unicode="&#x1e84;" horiz-adv-x="1095" 
d="M787 793q-32 0 -52.5 21t-20.5 53t22.5 56.5t57.5 24.5q32 0 52.5 -21t20.5 -53t-22.5 -56.5t-57.5 -24.5zM563 793q-32 0 -52.5 21t-20.5 53t22.5 56.5t57.5 24.5q32 0 52.5 -21t20.5 -53t-23 -56.5t-57 -24.5zM182 637l-94 29l6 35h334l-7 -33l-86 -23l25 -474l224 403
l-8 66l-73 28l6 33h312l-6 -33l-92 -26l46 -473l226 462l-72 37l5 33h240l-7 -35l-91 -38l-338 -635h-76l-61 488l-277 -488h-76z" />
    <glyph glyph-name="wdieresis" unicode="&#x1e85;" horiz-adv-x="854" 
d="M609 599q-32 0 -52.5 21.5t-20.5 53.5q0 16 6 31t17 26.5t25.5 18.5t32.5 7q32 0 53 -21.5t21 -54.5q0 -16 -6 -31t-17 -26t-26 -18t-33 -7zM382 599q-33 0 -53.5 21.5t-20.5 53.5q0 16 6 31t17 26.5t25.5 18.5t32.5 7q33 0 53.5 -21.5t20.5 -54.5q0 -16 -6 -31t-17 -26
t-26 -18t-32 -7zM173 -7l16 43q-3 65 -7.5 115.5t-10 91t-12 73t-14.5 59.5q-8 25 -17.5 34.5t-26.5 9.5q-23 0 -65 -14l-12 19q36 40 77 69t79 29q30 0 48 -13.5t29 -45.5q8 -23 15 -57.5t12.5 -77.5t9.5 -93.5t5 -104.5l10 -2q35 47 66 94t57 97l-12 76t-13 74l110 56h9
q11 -89 27 -193.5t30 -207.5l10 -2q45 54 75.5 104t47.5 98q-20 28 -29 56.5t-9 52.5q0 45 21.5 68t53.5 23q35 0 54.5 -24t19.5 -64q0 -47 -23 -98.5t-65.5 -109t-103 -121t-135.5 -132.5l-35 17l16 44l-35 202q-44 -63 -103.5 -128.5t-135.5 -133.5z" />
    <glyph glyph-name="Wgrave" unicode="&#x1e80;" horiz-adv-x="1095" 
d="M664 779q-38 40 -70 78.5t-44 64.5q-13 26 -6 51t32 37q26 13 49 3.5t34 -35.5t19.5 -72.5t16.5 -109.5l-31 -17v0zM182 637l-94 29l6 35h334l-7 -33l-86 -23l25 -474l224 403l-8 66l-73 28l6 33h312l-6 -33l-92 -26l46 -473l226 462l-72 37l5 33h240l-7 -35l-91 -38
l-338 -635h-76l-61 488l-277 -488h-76z" />
    <glyph glyph-name="wgrave" unicode="&#x1e81;" horiz-adv-x="854" 
d="M173 -7l16 43q-3 65 -7.5 115.5t-10 91t-12 73t-14.5 59.5q-8 25 -17.5 34.5t-26.5 9.5q-23 0 -65 -14l-12 19q36 40 77 69t79 29q30 0 48 -13.5t29 -45.5q8 -23 15 -57.5t12.5 -77.5t9.5 -93.5t5 -104.5l10 -2q35 47 66 94t57 97l-12 76t-13 74l110 56h9
q11 -89 27 -193.5t30 -207.5l10 -2q45 54 75.5 104t47.5 98q-20 28 -29 56.5t-9 52.5q0 45 21.5 68t53.5 23q35 0 54.5 -24t19.5 -64q0 -47 -23 -98.5t-65.5 -109t-103 -121t-135.5 -132.5l-35 17l16 44l-35 202q-44 -63 -103.5 -128.5t-135.5 -133.5zM485 584
q-39 41 -71.5 80.5t-45.5 65.5q-12 27 -5.5 52t32.5 38t50 3t35 -36q11 -27 19.5 -74.5t16.5 -110.5l-31 -18v0z" />
    <glyph glyph-name="Yacute" unicode="&#xdd;" horiz-adv-x="752" 
d="M145 35l115 27l51 238l-129 334l-89 32l7 35h342l-7 -33l-97 -26l98 -276l205 269l-75 33l7 33h251l-8 -35l-93 -37l-267 -320l-53 -247l105 -27l-7 -35h-363zM433 797q32 62 58.5 113t49.5 77q20 23 47.5 29.5t47.5 -10.5q21 -17 19 -42.5t-24 -50.5q-23 -26 -69 -59.5
t-106 -74.5z" />
    <glyph glyph-name="yacute" unicode="&#xfd;" horiz-adv-x="577" 
d="M59 -245q-44 0 -72 23.5t-28 68.5q0 12 4 25t13 24.5t22.5 18.5t32.5 7q30 0 50 -27.5t22 -77.5q36 21 71.5 60.5t61.5 84.5q-20 135 -42 239.5t-42 160.5q-12 35 -24 45t-31 10q-23 0 -62 -14l-12 19q38 44 78 72t78 28q33 0 52.5 -15t32.5 -53q9 -27 18.5 -64.5
t18 -82.5t15.5 -96.5t12 -105.5h11q35 97 63 204.5t51 219.5h9l113 -55q-43 -89 -87.5 -182t-91 -180t-96.5 -162t-104 -126q-36 -35 -70.5 -52t-66.5 -17zM288 603q32 63 59.5 114.5t50.5 78.5q10 12 22.5 19.5t25.5 10.5t26 1t23 -11q22 -18 19.5 -44t-24.5 -51
q-23 -27 -71 -60.5t-108 -75.5z" />
    <glyph glyph-name="Ycircumflex" unicode="&#x176;" horiz-adv-x="752" 
d="M145 35l115 27l51 238l-129 334l-89 32l7 35h342l-7 -33l-97 -26l98 -276l205 269l-75 33l7 33h251l-8 -35l-93 -37l-267 -320l-53 -247l105 -27l-7 -35h-363zM331 801l170 205h59l84 -205l-30 -25l-104 114l-157 -114z" />
    <glyph glyph-name="ycircumflex" unicode="&#x177;" horiz-adv-x="577" 
d="M59 -245q-44 0 -72 23.5t-28 68.5q0 12 4 25t13 24.5t22.5 18.5t32.5 7q30 0 50 -27.5t22 -77.5q36 21 71.5 60.5t61.5 84.5q-20 135 -42 239.5t-42 160.5q-12 35 -24 45t-31 10q-23 0 -62 -14l-12 19q38 44 78 72t78 28q33 0 52.5 -15t32.5 -53q9 -27 18.5 -64.5
t18 -82.5t15.5 -96.5t12 -105.5h11q35 97 63 204.5t51 219.5h9l113 -55q-43 -89 -87.5 -182t-91 -180t-96.5 -162t-104 -126q-36 -35 -70.5 -52t-66.5 -17zM184 606l173 209h60l85 -209l-31 -24l-105 116l-161 -116z" />
    <glyph glyph-name="Ydieresis" unicode="&#x178;" horiz-adv-x="752" 
d="M145 35l115 27l51 238l-129 334l-89 32l7 35h342l-7 -33l-97 -26l98 -276l205 269l-75 33l7 33h251l-8 -35l-93 -37l-267 -320l-53 -247l105 -27l-7 -35h-363zM610 793q-32 0 -52.5 21t-20.5 53t22.5 56.5t57.5 24.5q32 0 52.5 -21t20.5 -53t-22.5 -56.5t-57.5 -24.5z
M386 793q-32 0 -52.5 21t-20.5 53t22.5 56.5t57.5 24.5q32 0 52.5 -21t20.5 -53t-23 -56.5t-57 -24.5z" />
    <glyph glyph-name="ydieresis" unicode="&#xff;" horiz-adv-x="577" 
d="M59 -245q-44 0 -72 23.5t-28 68.5q0 12 4 25t13 24.5t22.5 18.5t32.5 7q30 0 50 -27.5t22 -77.5q36 21 71.5 60.5t61.5 84.5q-20 135 -42 239.5t-42 160.5q-12 35 -24 45t-31 10q-23 0 -62 -14l-12 19q38 44 78 72t78 28q33 0 52.5 -15t32.5 -53q9 -27 18.5 -64.5
t18 -82.5t15.5 -96.5t12 -105.5h11q35 97 63 204.5t51 219.5h9l113 -55q-43 -89 -87.5 -182t-91 -180t-96.5 -162t-104 -126q-36 -35 -70.5 -52t-66.5 -17zM467 599q-32 0 -52.5 21.5t-20.5 53.5q0 16 6 31t17 26.5t25.5 18.5t32.5 7q32 0 53 -21.5t21 -54.5q0 -16 -6 -31
t-17 -26t-26 -18t-33 -7zM240 599q-33 0 -53.5 21.5t-20.5 53.5q0 16 6 31t17 26.5t25.5 18.5t32.5 7q33 0 53.5 -21.5t20.5 -54.5q0 -16 -6 -31t-17 -26t-26 -18t-32 -7z" />
    <glyph glyph-name="Ygrave" unicode="&#x1ef2;" horiz-adv-x="752" 
d="M145 35l115 27l51 238l-129 334l-89 32l7 35h342l-7 -33l-97 -26l98 -276l205 269l-75 33l7 33h251l-8 -35l-93 -37l-267 -320l-53 -247l105 -27l-7 -35h-363zM487 779q-38 40 -70 78.5t-44 64.5q-13 26 -6 51t32 37q26 13 49 3.5t34 -35.5t19.5 -72.5t16.5 -109.5
l-31 -17v0z" />
    <glyph glyph-name="ygrave" unicode="&#x1ef3;" horiz-adv-x="577" 
d="M59 -245q-44 0 -72 23.5t-28 68.5q0 12 4 25t13 24.5t22.5 18.5t32.5 7q30 0 50 -27.5t22 -77.5q36 21 71.5 60.5t61.5 84.5q-20 135 -42 239.5t-42 160.5q-12 35 -24 45t-31 10q-23 0 -62 -14l-12 19q38 44 78 72t78 28q33 0 52.5 -15t32.5 -53q9 -27 18.5 -64.5
t18 -82.5t15.5 -96.5t12 -105.5h11q35 97 63 204.5t51 219.5h9l113 -55q-43 -89 -87.5 -182t-91 -180t-96.5 -162t-104 -126q-36 -35 -70.5 -52t-66.5 -17zM342 584q-39 41 -71.5 80.5t-45.5 65.5q-12 27 -5.5 52t32.5 38t50 3t35 -36q11 -27 19.5 -74.5t16.5 -110.5
l-31 -18v0z" />
    <glyph glyph-name="Zacute" unicode="&#x179;" horiz-adv-x="715" 
d="M-11 25l553 621l-171 -2q-21 0 -38.5 -3.5t-34 -11.5t-34 -22.5t-39.5 -36.5l-87 -86l-23 7l66 210h551v-25l-551 -622l201 2q22 0 39.5 3.5t33 11.5t30.5 21t32 32l105 116l22 -5l-72 -235h-584zM412 797q32 62 58.5 113t49.5 77q20 23 47.5 29.5t47.5 -10.5
q21 -17 19 -42.5t-24 -50.5q-23 -26 -69 -59.5t-106 -74.5z" />
    <glyph glyph-name="zacute" unicode="&#x17a;" horiz-adv-x="534" 
d="M292 603q32 63 59.5 114.5t50.5 78.5q10 12 22.5 19.5t25.5 10.5t26 1t23 -11q22 -18 19.5 -44t-24.5 -51q-23 -27 -71 -60.5t-108 -75.5zM363 -15q-23 0 -49 4.5t-65 14.5l-146 39l-88 -58l-27 28l400 389q-82 10 -135 14t-88 4q-14 0 -23 -1t-16 -3l-1 -9
q26 -11 38.5 -29t12.5 -39q0 -24 -16 -41.5t-44 -17.5q-29 0 -47.5 19t-18.5 48q0 23 13 48.5t42 63.5q28 40 53.5 52.5t59.5 12.5q72 0 152 -26l79 -24l88 54l26 -27l-387 -379l143 -17q23 -3 39.5 -1.5t31.5 9t32 23.5t41 43l20 -10q-20 -57 -36 -92.5t-29.5 -56
t-26.5 -28t-28 -7.5z" />
    <glyph glyph-name="Zcaron" unicode="&#x17d;" horiz-adv-x="715" 
d="M333 995l31 24l101 -117l159 117l22 -24l-169 -205h-61zM-11 25l553 621l-171 -2q-21 0 -38.5 -3.5t-34 -11.5t-34 -22.5t-39.5 -36.5l-87 -86l-23 7l66 210h551v-25l-551 -622l201 2q22 0 39.5 3.5t33 11.5t30.5 21t32 32l105 116l22 -5l-72 -235h-584z" />
    <glyph glyph-name="zcaron" unicode="&#x17e;" horiz-adv-x="534" 
d="M212 804l32 25l102 -119l163 119l22 -25l-173 -209h-61zM363 -15q-23 0 -49 4.5t-65 14.5l-146 39l-88 -58l-27 28l400 389q-82 10 -135 14t-88 4q-14 0 -23 -1t-16 -3l-1 -9q26 -11 38.5 -29t12.5 -39q0 -24 -16 -41.5t-44 -17.5q-29 0 -47.5 19t-18.5 48q0 23 13 48.5
t42 63.5q28 40 53.5 52.5t59.5 12.5q72 0 152 -26l79 -24l88 54l26 -27l-387 -379l143 -17q23 -3 39.5 -1.5t31.5 9t32 23.5t41 43l20 -10q-20 -57 -36 -92.5t-29.5 -56t-26.5 -28t-28 -7.5z" />
    <glyph glyph-name="Zdotaccent" unicode="&#x17b;" horiz-adv-x="715" 
d="M477 792q-33 0 -54.5 22t-21.5 55q0 16 6.5 31t17.5 26.5t26 18.5t33 7q33 0 54.5 -21.5t21.5 -55.5q0 -16 -6 -31t-17.5 -26.5t-26.5 -18.5t-33 -7zM-11 25l553 621l-171 -2q-21 0 -38.5 -3.5t-34 -11.5t-34 -22.5t-39.5 -36.5l-87 -86l-23 7l66 210h551v-25l-551 -622
l201 2q22 0 39.5 3.5t33 11.5t30.5 21t32 32l105 116l22 -5l-72 -235h-584z" />
    <glyph glyph-name="zdotaccent" unicode="&#x17c;" horiz-adv-x="534" 
d="M363 -15q-23 0 -49 4.5t-65 14.5l-146 39l-88 -58l-27 28l400 389q-82 10 -135 14t-88 4q-14 0 -23 -1t-16 -3l-1 -9q26 -11 38.5 -29t12.5 -39q0 -24 -16 -41.5t-44 -17.5q-29 0 -47.5 19t-18.5 48q0 23 13 48.5t42 63.5q28 40 53.5 52.5t59.5 12.5q72 0 152 -26l79 -24
l88 54l26 -27l-387 -379l143 -17q23 -3 39.5 -1.5t31.5 9t32 23.5t41 43l20 -10q-20 -57 -36 -92.5t-29.5 -56t-26.5 -28t-28 -7.5zM358 598q-34 0 -55.5 22t-21.5 56q0 16 6.5 31.5t17.5 27.5t27 19t34 7q34 0 55.5 -22t21.5 -56t-24 -59.5t-61 -25.5z" />
    <glyph glyph-name="schwa" unicode="&#x259;" horiz-adv-x="524" 
d="M357 236q-112 0 -165 -39.5t-53 -105.5q0 -28 15.5 -44.5t41.5 -16.5q25 0 50 15.5t47 43.5t39 65.5t25 81.5zM361 277q5 78 -29.5 119t-106.5 41q-37 0 -70.5 -13t-65.5 -37l-19 17q34 53 87.5 85.5t127.5 32.5q48 0 85.5 -14.5t64 -40t40 -61t13.5 -78.5
q0 -64 -24 -125.5t-66 -109.5t-98 -77t-120 -29q-74 0 -114.5 33.5t-40.5 84.5q0 45 25 78t69.5 55t106 32t135.5 7z" />
    <glyph glyph-name="germandbls" unicode="&#xdf;" horiz-adv-x="642" 
d="M-86 -246q-42 0 -66.5 20.5t-24.5 49.5q0 25 19 43.5t48 18.5q30 0 56.5 -17.5t46.5 -49.5q14 20 26.5 59.5t24.5 111.5l85 490q11 63 29 110.5t40 83t47 61t52 45.5q34 24 72.5 37t84.5 13q45 0 79 -12t56.5 -32t34 -48t11.5 -59q0 -38 -13.5 -71t-39 -63t-62 -59
t-82.5 -58q79 -61 119.5 -124.5t40.5 -123.5q0 -45 -15.5 -81t-42.5 -60.5t-63.5 -38t-78.5 -13.5q-29 0 -55.5 6.5t-46.5 19t-32 30t-12 40.5q0 28 18 47t47 19q33 0 51 -27t14 -77q18 -7 34 -7q32 0 52.5 21.5t20.5 61.5q0 54 -40.5 113t-128.5 127l3 18q50 47 84.5 87
t56 76t31 70.5t9.5 69.5q0 46 -21 70.5t-58 24.5q-60 0 -101.5 -64t-63.5 -189l-71 -414q-11 -61 -23 -106.5t-28 -80t-36.5 -61.5t-47.5 -51q-35 -31 -69.5 -44t-70.5 -13z" />
    <glyph glyph-name="zero" unicode="0" horiz-adv-x="629" 
d="M264 -17q-106 0 -162 67t-56 185q0 86 25 168t70 145.5t107.5 102.5t137.5 39q106 0 161.5 -67t55.5 -185q0 -86 -25 -168t-70 -145.5t-107 -102.5t-137 -39zM276 32q26 0 50 19.5t45.5 53.5t39 78.5t30.5 94t20 101.5t7 100q0 80 -24.5 121t-69.5 41q-39 0 -74 -42.5
t-61.5 -108.5t-42 -144.5t-15.5 -150.5q0 -80 25 -121.5t70 -41.5z" />
    <glyph glyph-name="one" unicode="1" horiz-adv-x="451" 
d="M-3 34l131 44l104 487l-111 52l6 30l239 36l16 -12l-126 -595l112 -42l-8 -34h-370z" />
    <glyph glyph-name="two" unicode="2" horiz-adv-x="553" 
d="M-31 41q88 65 155.5 122t116.5 105q39 39 65 70t41.5 57t22 49t6.5 46q0 47 -26.5 75t-74.5 28q-20 0 -37.5 -4.5t-35.5 -13.5t-38 -23.5t-44 -34.5l-24 20q44 72 103 113t136 41q40 0 72.5 -12t56 -34t36 -52t12.5 -67q0 -48 -19.5 -90t-63.5 -89t-115.5 -103.5
t-176.5 -132.5l2 -10l225 2l100 104l21 -6l-70 -201h-439z" />
    <glyph glyph-name="three" unicode="3" horiz-adv-x="544" 
d="M205 -17q-45 0 -82.5 9.5t-64.5 26t-42 39t-15 49.5q0 33 20 55.5t52 22.5q25 0 40.5 -12t22.5 -30.5t4.5 -41t-13.5 -44.5q17 -11 37.5 -16.5t49.5 -5.5q55 0 90.5 34.5t35.5 96.5q0 59 -45.5 97t-143.5 54l6 33q68 21 111.5 43t68.5 44t34.5 44.5t9.5 43.5q0 34 -23 55
t-68 21q-38 0 -77.5 -17t-85.5 -52l-21 24q42 59 100.5 96.5t132.5 37.5q40 0 71.5 -10.5t52.5 -28.5t32 -42t11 -52q0 -60 -42.5 -104t-136.5 -77v-14q64 -23 101 -63t37 -106q0 -40 -18 -77.5t-52 -67t-82 -47.5t-108 -18z" />
    <glyph glyph-name="four" unicode="4" horiz-adv-x="615" 
d="M169 34l120 41l26 119h-286l-4 43l404 453l111 -7l-88 -411h116l-16 -78h-116l-26 -120l107 -40l-7 -34h-348zM334 272l60 283h-15l-248 -283h203z" />
    <glyph glyph-name="five" unicode="5" horiz-adv-x="542" 
d="M218 -17q-46 0 -83.5 10t-63.5 27t-40.5 39.5t-14.5 48.5q0 34 19.5 57t51.5 23q26 0 42 -12t23 -31t5 -42.5t-13 -45.5q14 -11 33 -16.5t45 -5.5q30 0 55 10.5t43 29t28 44t10 54.5q0 78 -68.5 118t-196.5 55l97 327h268l54 56l27 -6l-42 -165h-282l-35 -115
q70 -9 125 -26.5t92.5 -45t57.5 -66t20 -90.5q0 -50 -19.5 -92t-53.5 -73.5t-81.5 -49t-102.5 -17.5z" />
    <glyph glyph-name="six" unicode="6" horiz-adv-x="578" 
d="M270 -15q-49 0 -90 15t-70.5 44.5t-46 73t-16.5 100.5q0 93 37.5 173.5t104 143.5t158 106.5t200.5 61.5l6 -39q-59 -23 -106 -48t-86 -54.5t-71 -64t-60 -76.5l8 -6q26 12 54.5 19.5t53.5 7.5q82 0 129.5 -49t47.5 -137q0 -51 -18 -99.5t-51 -87t-80 -61.5t-104 -23z
M272 31q29 0 51 18.5t37 49t23 70t8 81.5q0 67 -29 97.5t-88 30.5q-14 0 -32.5 -2t-31.5 -6q-33 -78 -33 -177q0 -85 26.5 -123.5t68.5 -38.5z" />
    <glyph glyph-name="seven" unicode="7" horiz-adv-x="522" 
d="M228 252l226 306h-262l-75 -77l-27 6l66 222l29 7l21 -43h364l9 -17l-433 -673h-127z" />
    <glyph glyph-name="eight" unicode="8" horiz-adv-x="575" 
d="M349 383q51 36 74.5 71.5t23.5 81.5q0 50 -29 80t-81 30q-22 0 -41 -8.5t-33.5 -23.5t-23 -35t-8.5 -43q0 -26 8.5 -46t23.5 -38t37 -34.5t49 -34.5zM245 316q-103 -64 -103 -167q0 -57 35 -89t92 -32q23 0 43.5 8.5t36.5 24t25 37.5t9 50q0 25 -9 46t-26.5 40.5
t-43.5 39t-59 42.5zM391 356q54 -37 84.5 -77.5t30.5 -99.5q0 -42 -19 -78t-51.5 -62t-77 -41t-95.5 -15t-93.5 12.5t-72.5 35t-47 53t-17 67.5q0 133 177 189q-46 34 -71.5 70t-25.5 87q0 39 16.5 74.5t46.5 62t71.5 42t90.5 15.5t88.5 -13t67.5 -35t42.5 -51.5t14.5 -62.5
q0 -64 -42.5 -106t-117.5 -67z" />
    <glyph glyph-name="nine" unicode="9" horiz-adv-x="578" 
d="M43 10q63 23 112.5 49.5t89.5 57.5t71.5 66t58.5 76l-8 7q-26 -13 -54.5 -20.5t-53.5 -7.5q-83 0 -131.5 49t-48.5 138q0 49 18 96.5t51 85t80 60.5t104 23q49 0 90 -15t70.5 -44.5t46 -73t16.5 -100.5q0 -94 -37.5 -174.5t-105 -143.5t-160 -106t-203.5 -62zM331 303
q14 0 33 1.5t32 6.5q29 78 29 171q0 85 -26.5 123.5t-68.5 38.5q-29 0 -51 -18.5t-37 -49t-23 -68.5t-8 -77q0 -70 30.5 -99t89.5 -29z" />
    <glyph glyph-name="period" unicode="." horiz-adv-x="277" 
d="M114 -18q-35 0 -60 25t-25 60q0 17 6.5 32.5t18 27t27 18t33.5 6.5t33.5 -6.5t27 -18t18 -27t6.5 -32.5q0 -35 -25 -60t-60 -25z" />
    <glyph glyph-name="comma" unicode="," horiz-adv-x="277" 
d="M-40 -166q70 42 105 82t47 75l-8 7l-3 -1q-6 -2 -14 -2q-25 0 -43 16.5t-18 48.5q0 18 7 34.5t19 29t28 20t34 7.5q37 0 61.5 -25.5t24.5 -72.5q0 -38 -16.5 -74t-45.5 -68t-70.5 -58.5t-90.5 -46.5z" />
    <glyph glyph-name="colon" unicode=":" horiz-adv-x="289" 
d="M180 301q-35 0 -59.5 24t-24.5 59t24.5 59.5t59.5 24.5t59.5 -24.5t24.5 -59.5t-24.5 -59t-59.5 -24zM122 -18q-35 0 -59.5 24.5t-24.5 59.5q0 34 24.5 58.5t59.5 24.5t59.5 -24.5t24.5 -58.5q0 -35 -24.5 -59.5t-59.5 -24.5z" />
    <glyph glyph-name="semicolon" unicode=";" horiz-adv-x="289" 
d="M180 301q-35 0 -59.5 24t-24.5 59t24.5 59.5t59.5 24.5t59.5 -24.5t24.5 -59.5t-24.5 -59t-59.5 -24zM-31 -166q69 42 104.5 82t46.5 75l-7 7l-4 -1q-6 -2 -14 -2q-25 0 -43 16.5t-18 48.5q0 18 7 34.5t19.5 29t28.5 20t34 7.5q36 0 60.5 -25.5t24.5 -72.5q0 -38 -16 -74
t-45.5 -68t-70.5 -58.5t-90 -46.5z" />
    <glyph glyph-name="ellipsis" unicode="&#x2026;" horiz-adv-x="802" 
d="M640 -18q-35 0 -59 24.5t-24 58.5t24 58.5t59 24.5t59 -24.5t24 -58.5t-24 -58.5t-59 -24.5zM376 -18q-35 0 -59 24.5t-24 58.5t24 58.5t59 24.5t59 -24.5t24 -58.5t-24 -58.5t-59 -24.5zM113 -18q-35 0 -59.5 24.5t-24.5 58.5t24.5 58.5t59.5 24.5q34 0 58.5 -24.5
t24.5 -58.5t-24.5 -58.5t-58.5 -24.5z" />
    <glyph glyph-name="periodcentered" unicode="&#xb7;" horiz-adv-x="277" 
d="M149 272q-18 0 -33.5 6.5t-27 18t-18 27t-6.5 32.5q0 35 25 60t60 25t60 -25t25 -60q0 -17 -6.5 -32.5t-18 -27t-27 -18t-33.5 -6.5z" />
    <glyph glyph-name="bullet" unicode="&#x2022;" horiz-adv-x="557" 
d="M288 179q-35 0 -66.5 13.5t-54.5 37t-36.5 54.5t-13.5 67q0 35 13.5 66t36.5 54t54.5 36.5t66.5 13.5q36 0 67 -13.5t54 -36.5t36.5 -54t13.5 -66q0 -36 -13.5 -67t-36.5 -54.5t-54 -37t-67 -13.5z" />
    <glyph glyph-name="ampersand" unicode="&#x26;" horiz-adv-x="765" 
d="M203 -12q-40 0 -74 11t-58.5 31t-38 48.5t-13.5 63.5q0 77 55 129.5t161 75.5l3 13q-51 18 -80 51.5t-29 81.5q0 42 23 79t60.5 64.5t86 43.5t98.5 16q62 0 89 -22t27 -51q0 -27 -19 -45.5t-54 -18.5q-32 1 -58 23t-40 68q-33 -18 -57.5 -56t-24.5 -88q0 -42 28.5 -73.5
t84.5 -42.5l143 48l90 110l36 -7l-35 -136h138l-14 -61h-138l-47 -186q-9 -35 -8 -52.5t12 -25.5q8 -8 26 -12.5t53 -4.5q14 0 29 0.5t29 1.5l-1 -26q-48 -23 -91 -37.5t-89 -14.5q-47 0 -69.5 21.5t-21.5 58.5l-10 2q-45 -35 -93.5 -58t-108.5 -23zM293 79q29 0 63.5 11.5
t63.5 31.5l55 222h-132q-88 -14 -133 -55.5t-45 -101.5q0 -51 32 -79.5t96 -28.5z" />
    <glyph glyph-name="exclam" unicode="!" horiz-adv-x="325" 
d="M130 225l4 130t5 121t6.5 99t8.5 64q8 38 29 58t52 20q42 0 63.5 -24.5t14.5 -71.5q-3 -22 -17 -65t-34.5 -97.5t-45 -116.5t-49.5 -122zM118 -17q-36 0 -60.5 23t-24.5 56t24.5 55.5t58.5 22.5q36 0 60.5 -22.5t24.5 -55.5t-25 -56t-58 -23z" />
    <glyph glyph-name="exclamdown" unicode="&#xa1;" horiz-adv-x="325" 
d="M183 301q-36 0 -60.5 22.5t-24.5 55.5q0 34 24.5 56.5t58.5 22.5q35 0 60 -22.5t25 -55.5q0 -34 -25 -56.5t-58 -22.5zM63 -276q-42 0 -63.5 24.5t-14.5 71.5q3 22 17.5 65t35 97.5t45 116.5t49.5 122l36 -5l-4 -130t-4.5 -121t-6.5 -99t-8 -64q-8 -38 -29.5 -58
t-52.5 -20z" />
    <glyph glyph-name="question" unicode="?" horiz-adv-x="499" 
d="M169 226q-19 53 -19 95q0 49 33.5 76t85.5 50q55 24 85.5 52.5t30.5 78.5q0 42 -29 66t-73 24q-26 0 -42 -8q6 -15 6 -34q0 -40 -22 -66.5t-58 -26.5q-29 0 -48.5 19t-19.5 53q0 26 13 46.5t36.5 35t55 22.5t69.5 8q51 0 92.5 -13t71.5 -36.5t46.5 -55.5t16.5 -70
q0 -39 -11 -68.5t-32.5 -51.5t-52.5 -39.5t-71 -32.5q-39 -15 -61.5 -26t-34.5 -24.5t-16 -31.5t-5 -47zM165 -17q-36 0 -61 23t-25 56t25 55.5t58 22.5q36 0 61 -22.5t25 -55.5t-25 -56t-58 -23z" />
    <glyph glyph-name="questiondown" unicode="&#xbf;" horiz-adv-x="488" 
d="M298 216q19 -54 19 -96q0 -25 -9 -43.5t-24.5 -33t-37.5 -26t-47 -23.5q-56 -23 -86 -52t-30 -78q0 -43 29 -67t72 -24q23 0 42 8q-3 8 -4 17t-1 17q0 40 22 66.5t57 26.5q29 0 48.5 -19t19.5 -53q0 -26 -13 -46.5t-36.5 -35t-55.5 -22.5t-69 -8q-51 0 -92.5 13t-71 36
t-46 55.5t-16.5 70.5q0 39 11 68.5t32 51.5t52 39.5t71 32.5q39 15 62 26.5t35 24.5t15.5 31t4.5 47zM303 458q36 0 60.5 -22.5t24.5 -55.5q0 -34 -25 -56.5t-58 -22.5q-36 0 -60.5 22.5t-24.5 55.5q0 34 24.5 56.5t58.5 22.5z" />
    <glyph glyph-name="quotedblleft" unicode="&#x201c;" horiz-adv-x="522" 
d="M411 391q-37 0 -61.5 25t-24.5 73q0 38 16.5 74t45.5 67.5t70 58t91 46.5l17 -27q-70 -43 -105.5 -83t-46.5 -75l8 -7l3 1q2 1 6 2t8 1q25 0 43 -16.5t18 -48.5q0 -18 -7 -34.5t-19 -29t-28 -20t-34 -7.5zM166 391q-36 0 -60.5 25t-24.5 73q0 38 16 74t45.5 67.5t70.5 58
t91 46.5l16 -27q-69 -43 -104.5 -83t-46.5 -75l7 -7l4 1q2 1 6 2t8 1q25 0 43 -16.5t18 -48.5q0 -37 -26 -64t-63 -27z" />
    <glyph glyph-name="quotedblright" unicode="&#x201d;" horiz-adv-x="522" 
d="M306 413q69 43 104.5 83t46.5 75l-7 7l-4 -1q-4 -2 -14 -2q-25 0 -43 16t-18 49q0 18 7 34.5t19.5 28.5t28.5 19.5t34 7.5q37 0 61.5 -25t24.5 -73q0 -38 -16.5 -74t-45.5 -67.5t-70.5 -58.5t-90.5 -46zM62 413q69 43 104.5 83t46.5 75l-7 7l-4 -1q-6 -2 -14 -2
q-25 0 -43 16t-18 49q0 18 7 34.5t19.5 28.5t28.5 19.5t34 7.5q36 0 60.5 -25t24.5 -73q0 -38 -16 -74t-45.5 -67.5t-70.5 -58.5t-91 -46z" />
    <glyph glyph-name="quoteleft" unicode="&#x2018;" horiz-adv-x="277" 
d="M166 391q-36 0 -60.5 25t-24.5 73q0 38 16 74t45.5 67.5t70.5 58t91 46.5l16 -27q-69 -43 -104.5 -83t-46.5 -75l7 -7l4 1q2 1 6 2t8 1q25 0 43 -16.5t18 -48.5q0 -37 -26 -64t-63 -27z" />
    <glyph glyph-name="quoteright" unicode="&#x2019;" horiz-adv-x="277" 
d="M62 413q69 43 104.5 83t46.5 75l-7 7l-4 -1q-6 -2 -14 -2q-25 0 -43 16t-18 49q0 18 7 34.5t19.5 28.5t28.5 19.5t34 7.5q36 0 60.5 -25t24.5 -73q0 -38 -16 -74t-45.5 -67.5t-70.5 -58.5t-91 -46z" />
    <glyph glyph-name="quotedblbase" unicode="&#x201e;" horiz-adv-x="522" 
d="M204 -166q70 42 105.5 82t46.5 75l-8 7l-3 -1q-6 -2 -14 -2q-25 0 -43 16.5t-18 48.5q0 18 7 34.5t19 29t28 20t34 7.5q37 0 61.5 -25.5t24.5 -72.5q0 -38 -16.5 -74t-45.5 -68t-70.5 -58.5t-90.5 -46.5zM-40 -166q70 42 105 82t47 75l-8 7l-3 -1q-6 -2 -14 -2
q-25 0 -43 16.5t-18 48.5q0 18 7 34.5t19 29t28 20t34 7.5q37 0 61.5 -25.5t24.5 -72.5q0 -38 -16.5 -74t-45.5 -68t-70.5 -58.5t-90.5 -46.5z" />
    <glyph glyph-name="quotesinglbase" unicode="&#x201a;" horiz-adv-x="277" 
d="M-40 -166q70 42 105 82t47 75l-8 7l-3 -1q-6 -2 -14 -2q-25 0 -43 16.5t-18 48.5q0 18 7 34.5t19 29t28 20t34 7.5q37 0 61.5 -25.5t24.5 -72.5q0 -38 -16.5 -74t-45.5 -68t-70.5 -58.5t-90.5 -46.5z" />
    <glyph glyph-name="guillemotleft" unicode="&#xab;" horiz-adv-x="595" 
d="M273 239l4 25l265 210l26 -25l-159 -203l75 -196l-36 -22zM36 239l4 25l265 210l27 -25l-159 -203l75 -196l-37 -22z" />
    <glyph glyph-name="guillemotright" unicode="&#xbb;" horiz-adv-x="595" 
d="M260 53l160 203l-76 196l37 22l176 -210l-4 -25l-266 -211zM24 53l159 203l-75 196l36 22l176 -210l-4 -25l-266 -211z" />
    <glyph glyph-name="guilsinglleft" unicode="&#x2039;" horiz-adv-x="359" 
d="M36 239l4 25l265 210l27 -25l-159 -203l75 -196l-37 -22z" />
    <glyph glyph-name="guilsinglright" unicode="&#x203a;" horiz-adv-x="359" 
d="M24 53l159 203l-75 196l36 22l176 -210l-4 -25l-266 -211z" />
    <glyph glyph-name="hyphen" unicode="-" horiz-adv-x="412" 
d="M56 317h299l-19 -102h-300z" />
    <glyph glyph-name="endash" unicode="&#x2013;" horiz-adv-x="612" 
d="M62 316h489l-16 -73h-488z" />
    <glyph glyph-name="emdash" unicode="&#x2014;" horiz-adv-x="892" 
d="M62 316h769l-16 -73h-768z" />
    <glyph glyph-name="underscore" unicode="_" horiz-adv-x="501" 
d="M-22 57h497v-57h-497v57z" />
    <glyph glyph-name="slash" unicode="/" horiz-adv-x="460" 
d="M-112 -208l308 514l306 524l56 -27l-308 -515l-305 -524z" />
    <glyph glyph-name="backslash" unicode="\" horiz-adv-x="482" 
d="M217 288l-183 517l61 24l176 -523l182 -517l-61 -24z" />
    <glyph glyph-name="bar" unicode="|" horiz-adv-x="341" 
d="M140 258l-4 527h69l-4 -527l4 -528h-69z" />
    <glyph glyph-name="brokenbar" unicode="&#xa6;" horiz-adv-x="341" 
d="M136 329l4 228l-4 228h69l-4 -228l4 -228h-69zM136 -270l4 228l-4 228h69l-4 -228l4 -228h-69z" />
    <glyph glyph-name="parenleft" unicode="(" horiz-adv-x="422" 
d="M348 -198q-63 34 -114.5 81t-87.5 105t-55.5 125.5t-19.5 142.5q0 95 29.5 185t86.5 165.5t141 133.5t193 90l8 -35q-86 -35 -149 -96t-104.5 -139t-62 -167t-20.5 -179q0 -122 43 -218.5t133 -161.5l-21 -32v0z" />
    <glyph glyph-name="parenright" unicode=")" horiz-adv-x="422" 
d="M-103 -163q85 34 148.5 95.5t105.5 139.5t62.5 167t20.5 179q0 122 -43.5 218.5t-132.5 162.5l20 31q63 -34 114.5 -81t87.5 -105t55.5 -125.5t19.5 -142.5q0 -95 -29.5 -184.5t-86.5 -165.5t-141 -134t-193 -90z" />
    <glyph glyph-name="bracketleft" unicode="[" horiz-adv-x="402" 
d="M226 830h309l-11 -47h-193l-197 -933h194l-10 -47h-309z" />
    <glyph glyph-name="bracketright" unicode="]" horiz-adv-x="384" 
d="M-112 -144h193l197 933h-193l9 47h309l-216 -1027h-310z" />
    <glyph glyph-name="braceleft" unicode="{" horiz-adv-x="452" 
d="M357 -194q-76 6 -126 21.5t-77.5 44t-33.5 71.5t6 104l18 94q8 39 5.5 66t-16 45t-39.5 28t-66 15l9 48q45 4 75.5 13.5t50.5 27t32.5 44.5t20.5 67l25 123q12 61 34.5 102.5t60 66.5t93.5 34.5t136 8.5l-7 -38q-47 -6 -79 -16.5t-54.5 -30t-36 -50t-22.5 -77.5l-24 -115
q-10 -47 -26 -79t-39.5 -52.5t-55 -32t-70.5 -17.5l-3 -12q37 -9 63 -22.5t40.5 -35.5t17.5 -54.5t-6 -79.5l-15 -79q-9 -47 -8 -80t14.5 -55.5t40.5 -37t70 -23.5l-8 -37v0z" />
    <glyph glyph-name="braceright" unicode="}" horiz-adv-x="452" 
d="M-93 -155q46 6 78.5 16.5t54.5 30t36 50.5t23 78l24 115q9 47 25.5 79t40 52.5t55 32t70.5 17.5l3 12q-37 9 -63 22.5t-40.5 35.5t-17.5 54.5t6 79.5l15 79q9 47 8 80t-14.5 55.5t-40.5 36.5t-70 24l8 37q76 -6 126 -21.5t77.5 -44t33.5 -71.5t-6 -104l-18 -94
q-8 -39 -6 -66t16 -45t40 -28t66 -15l-9 -48q-45 -5 -75.5 -14.5t-50.5 -27t-32.5 -44.5t-20.5 -66l-25 -123q-13 -62 -35 -103t-59.5 -66t-93.5 -35t-136 -8z" />
    <glyph glyph-name="at" unicode="@" horiz-adv-x="1041" 
d="M536 -199q-95 0 -180 29.5t-149 86t-101.5 139.5t-37.5 190q0 100 40 188.5t110 154t163 103.5t200 38q89 0 164 -29t130 -78t85.5 -114.5t30.5 -137.5q0 -71 -22 -130.5t-59.5 -102t-86.5 -66.5t-102 -24q-58 0 -94.5 22t-47.5 64l-11 2q-37 -41 -70 -61.5t-75 -20.5
q-50 0 -82 33.5t-32 92.5q0 64 27 121.5t68 100.5t90.5 68.5t93.5 25.5q29 0 48 -6.5t41 -17.5l48 44l24 -8l-65 -293q-12 -55 2 -89t56 -34q33 0 64 18t55 51.5t38.5 81.5t14.5 108q0 69 -26.5 129.5t-75 106t-116 71.5t-149.5 26q-83 0 -155.5 -30.5t-126 -86.5
t-84.5 -134.5t-31 -174.5q0 -86 29 -159.5t83.5 -126.5t132 -83t174.5 -30q80 0 145 20.5t125 53.5l18 -24q-60 -48 -142.5 -78t-178.5 -30zM479 131q20 0 41.5 11.5t55.5 40.5l46 212q-17 22 -35 34t-38 12q-27 0 -51 -22.5t-41.5 -56.5t-28 -74t-10.5 -74q0 -45 17 -64
t44 -19z" />
    <glyph glyph-name="copyright" unicode="&#xa9;" horiz-adv-x="875" 
d="M833 351q0 -80 -30.5 -150t-83 -122.5t-122.5 -83t-150 -30.5t-150 30.5t-122.5 83t-83 122.5t-30.5 150t30.5 150t83 122.5t122.5 82.5t150 30t150 -30t122.5 -82.5t83 -122.5t30.5 -150zM793 351q0 72 -27 135.5t-74 111t-110 75t-135 27.5t-135 -27.5t-110 -75
t-74 -111t-27 -135.5t27 -135.5t74 -111.5t110 -75.5t135 -27.5t135 27.5t110 75.5t74 111.5t27 135.5zM348 359q0 -85 37.5 -128t94.5 -43q12 0 20.5 1t17.5 4l68 95l24 -4l-12 -112q-30 -13 -62.5 -20t-72.5 -7q-50 0 -90.5 13.5t-70 39.5t-45.5 64t-16 86q0 43 16 82
t45 67.5t69.5 45.5t89.5 17q25 0 49.5 -5t42.5 -13l17 23h26l8 -157l-29 -2q-29 65 -57.5 89.5t-66.5 24.5q-20 0 -39 -9t-33 -28t-22.5 -50t-8.5 -74z" />
    <glyph glyph-name="published" unicode="&#x2117;" horiz-adv-x="875" 
d="M833 351q0 -80 -30.5 -150t-83 -122.5t-122.5 -83t-150 -30.5t-150 30.5t-122.5 83t-83 122.5t-30.5 150q0 79 30.5 149.5t83 122.5t122.5 82.5t150 30.5t150 -30.5t122.5 -82.5t83 -122.5t30.5 -149.5zM793 351q0 72 -27 135.5t-74 111t-110 75t-135 27.5t-134.5 -27.5
t-109.5 -75t-74 -111t-27 -135.5t27 -136t74 -111.5t109.5 -75t134.5 -27.5t135 27.5t110 75t74 111.5t27 136zM638 432q0 -55 -40 -89t-109 -34q-14 0 -31 1t-30 3v-123l59 -15v-25h-209v25l55 15v322l-55 14v24h202q76 0 117 -32.5t41 -85.5zM541 432q0 42 -22 62t-60 22
h-31v-172q2 -1 14.5 -1h16.5q39 1 60.5 22.5t21.5 66.5z" />
    <glyph glyph-name="registered.alt" horiz-adv-x="875" 
d="M833 352q0 -80 -30.5 -150t-83 -122.5t-122.5 -83t-150 -30.5t-150 30.5t-122.5 83t-83 122.5t-30.5 150q0 79 30.5 149.5t83 122.5t122.5 82.5t150 30.5t150 -30.5t122.5 -82.5t83 -122.5t30.5 -149.5zM793 352q0 72 -27 135.5t-74 111t-110 75t-135 27.5t-135 -27.5
t-110 -75t-74 -111t-27 -135.5t27 -135.5t74 -111.5t110 -75.5t135 -27.5t135 27.5t110 75.5t74 111.5t27 135.5zM621 458q0 -35 -27 -63t-90 -38v-10q39 -7 58.5 -24.5t30.5 -45.5q10 -26 19.5 -43.5t20.5 -28.5q15 -18 40 -21v-24h-78q-18 0 -30 3.5t-21 12t-16 21.5
t-15 32l-24 58q-11 27 -27.5 35.5t-41.5 8.5h-17v-133l54 -14v-24h-202v24l54 14v322l-54 14v25h221q71 0 108 -28t37 -73zM524 445q0 39 -23.5 58.5t-59.5 20.5h-7.5h-12h-12h-6.5v-161l39 2q35 2 58.5 21t23.5 59z" />
    <glyph glyph-name="registered" unicode="&#xae;" horiz-adv-x="476" 
d="M381 590q0 -22 -14.5 -35.5t-47.5 -19.5v-9q23 -3 33.5 -10t15.5 -24q5 -14 9 -23t9 -14q9 -9 26 -10v-16h-47q-21 0 -29 8t-16 30l-12 31q-5 13 -12.5 17.5t-21.5 4.5h-14v-66l34 -9v-16h-120v16l35 9v165l-35 8v17h126q41 0 61 -15t20 -39zM327 583q0 20 -12 28.5
t-34 10.5h-21v-80h24q20 0 31.5 10.5t11.5 30.5zM285 323q-45 0 -83.5 15.5t-66.5 43t-44 66t-16 84.5t16 84.5t44 66.5t66.5 43.5t83.5 15.5q46 0 84.5 -15.5t66.5 -43.5t44 -66.5t16 -84.5t-16 -84.5t-44 -66t-66.5 -43t-84.5 -15.5zM285 347q40 0 74 13.5t58.5 38.5
t38 58.5t13.5 74.5q0 40 -13.5 74.5t-38 59t-58.5 38.5t-74 14t-74 -14t-58.5 -38.5t-38 -59t-13.5 -74.5q0 -41 13.5 -74.5t38 -58.5t58.5 -38.5t74 -13.5z" />
    <glyph glyph-name="servicemark" unicode="&#x2120;" horiz-adv-x="925" 
d="M391 487q0 -24 -10.5 -43.5t-28 -33t-40 -21t-47.5 -7.5q-26 0 -53 6t-48 15l-15 -24h-22l-4 123l24 2q31 -51 59.5 -71.5t57.5 -20.5q26 0 42.5 11.5t16.5 34.5q0 26 -22 37.5t-62 23.5q-20 6 -39.5 13t-34.5 18.5t-24 28t-9 40.5q0 23 10 42t26 32.5t37 21t43 7.5
q48 0 84 -19l15 24h22l6 -112l-24 -2q-32 47 -56 63.5t-47 16.5t-36 -12.5t-13 -29.5q0 -26 22.5 -37.5t62.5 -24.5q22 -7 41.5 -14.5t34 -19t23 -28t8.5 -40.5zM889 432l50 -16v-24h-172v24l41 16v242h-10l-104 -282h-53l-99 282h-12v-239l38 -19v-24h-124v24l43 19v236
l-43 17v25h168l16 -56l59 -174h6l61 177l16 53h169v-25l-50 -14v-242z" />
    <glyph glyph-name="trademark" unicode="&#x2122;" horiz-adv-x="971" 
d="M936 432l49 -16v-24h-171v24l40 16v242h-10l-103 -282h-53l-100 282h-12v-239l38 -19v-24h-123v24l42 19v236l-42 17v25h167l16 -56l59 -174h7l61 177l16 53h168v-25l-49 -14v-242zM434 598l-36 49q-15 21 -24.5 28.5t-27.5 7.5h-22v-251l51 -16v-24h-183v24l51 16v251
h-26q-17 0 -26 -7.5t-25 -28.5l-37 -49l-20 3l15 112h316l14 -112z" />
    <glyph glyph-name="asterisk" unicode="*" horiz-adv-x="495" 
d="M151 686l116 -130l10 2l16 172l72 -15l-55 -164l8 -6l159 72l18 -69l-166 -34l-2 -12l137 -100l-44 -55l-116 130l-10 -2l-17 -173l-71 16l54 164l-8 6l-159 -72l-17 68l166 36l2 11l-137 100z" />
    <glyph glyph-name="dagger" unicode="&#x2020;" horiz-adv-x="539" 
d="M283 444l-202 -5l12 57l201 -5l48 259h61l-59 -259l202 5l-12 -57l-200 5l-109 -537h-62z" />
    <glyph glyph-name="daggerdbl" unicode="&#x2021;" horiz-adv-x="539" 
d="M222 162l-202 -5l12 57l200 -5l52 240l-202 -5l12 57l200 -5l48 254h61l-59 -254l203 5l-12 -57l-201 5l-51 -240l201 5l-11 -57l-200 5l-48 -255h-61z" />
    <glyph glyph-name="asciicircum" unicode="^" horiz-adv-x="359" 
d="M83 604l175 206h55l89 -206l-31 -25l-109 105l-157 -105z" />
    <glyph glyph-name="asciitilde" unicode="~" horiz-adv-x="457" 
d="M59 277q22 84 50.5 122t75.5 38q23 0 45 -8.5t42.5 -19t39 -19t34.5 -8.5t28.5 14.5t32.5 50.5l39 -6q-22 -84 -50.5 -122t-75.5 -38q-23 0 -45 8.5t-42 19t-38.5 19t-34.5 8.5q-17 0 -29 -14.5t-32 -51.5z" />
    <glyph glyph-name="dollar" unicode="$" horiz-adv-x="601" 
d="M173 -125l28 117q-47 6 -91.5 19.5t-86.5 31.5l34 191l32 1q14 -88 45.5 -134t82.5 -60l60 251q-39 21 -69 40t-50.5 41t-31 49t-10.5 62q0 45 19 83.5t53 66t81.5 42.5t104.5 13l24 102l56 -7l-24 -101q42 -6 79 -17t68 -25l-31 -166l-33 -3q-17 65 -42.5 103t-58.5 54
l-57 -236q41 -22 72.5 -42.5t53 -43.5t32.5 -50.5t11 -63.5q0 -49 -20 -88t-55.5 -66.5t-84.5 -41t-108 -11.5l-29 -118zM366 642q-61 6 -101 -24t-40 -89q0 -36 19.5 -60.5t67.5 -52.5zM264 31q69 -5 109.5 28t40.5 90q0 38 -22.5 64t-71.5 55z" />
    <glyph glyph-name="sterling" unicode="&#xa3;" horiz-adv-x="604" 
d="M187 371q-2 17 -4 32.5t-2 32.5q0 55 21 101.5t58.5 80.5t90 53t114.5 19q36 0 61 -7t41.5 -18.5t24 -26.5t7.5 -31q0 -28 -18.5 -47.5t-50.5 -19.5q-39 0 -64 27t-42 75q-54 -13 -80.5 -56.5t-26.5 -113.5q0 -24 3 -49.5t5 -51.5h165l-12 -59h-151v-4q-2 -65 -34 -107.5
t-103 -79.5l2 -13q57 2 107.5 -3.5t95.5 -5.5q22 0 39 5t30.5 17t24.5 33t23 53l39 -3q-9 -53 -23 -94t-36 -69t-52 -43t-71 -15q-49 0 -104 24t-110 63q-24 -41 -56 -63.5t-63 -22.5t-47.5 16t-16.5 42q0 38 39.5 61t119.5 21q34 40 51 74t17 75q0 19 -3 39h-144l12 59h123
v0z" />
    <glyph glyph-name="Euro" unicode="&#x20ac;" horiz-adv-x="654" 
d="M376 -16q-59 0 -105.5 18t-79 50.5t-50.5 78t-21 100.5h-93l11 53h82q3 48 17 93h-83l12 53h89q24 58 62 106t85 82.5t101.5 53.5t111.5 19q40 0 68.5 -8t47.5 -21.5t28 -31t9 -35.5q0 -29 -19.5 -48t-48.5 -19q-40 0 -66 31t-35 83q-35 -5 -68 -20.5t-62.5 -42.5
t-53.5 -64.5t-40 -84.5h266l-11 -53h-269q-8 -41 -10 -93h263l-12 -53h-248q8 -76 52.5 -116t118.5 -40q35 0 69 12.5t79 40.5l22 -20q-42 -60 -97 -92t-122 -32z" />
    <glyph glyph-name="yen" unicode="&#xa5;" horiz-adv-x="717" 
d="M121 35l118 27l21 105h-191l11 49h191l18 84h-191l10 49h168l-100 256l-84 33l7 35h325l-7 -35l-95 -24l87 -243l185 238l-70 29l7 35h233l-6 -35l-87 -33l-216 -256h169l-11 -49h-191l-18 -84h192l-11 -49h-192l-21 -105l107 -27l-7 -35h-358z" />
    <glyph glyph-name="cent" unicode="&#xa2;" horiz-adv-x="542" 
d="M188 -122l23 112q-77 9 -124.5 61.5t-47.5 135.5q0 58 22 111t59 95.5t86.5 71t104.5 37.5l18 94l49 -4l-19 -87h5q76 -2 116.5 -31t40.5 -71q0 -30 -17.5 -47.5t-42.5 -17.5q-39 0 -58 31.5t-17 87.5q-8 2 -18 2.5t-19 -0.5l-44 -214l-33 -177q6 -1 11.5 -1h12.5
q38 0 72 14t72 42l19 -17q-32 -51 -82.5 -83t-118.5 -35l-21 -113zM266 252l37 201q-32 -13 -57.5 -39t-43.5 -60t-28 -73.5t-10 -78.5q0 -95 66 -123z" />
    <glyph glyph-name="baht" unicode="&#xe3f;" horiz-adv-x="657" 
d="M277 43q42 0 74 15.5t53 40.5t31.5 57t10.5 66q0 58 -34 86t-97 29l-46 1l-60 -286q13 -4 30 -6.5t38 -2.5zM328 384q43 1 74 14.5t51 36t29.5 52t9.5 61.5q0 54 -29.5 76t-80.5 23h-25.5t-22.5 -2l-55 -262zM525 833l54 -20l-62 -135q54 -16 80 -48.5t26 -78.5
q0 -75 -54.5 -120.5t-147.5 -59.5l-3 -15q82 -14 124 -51t42 -100q0 -43 -20 -80.5t-58.5 -65t-94 -43.5t-126.5 -16h-52l-64 -156l-53 20l62 136h-213l8 36l107 22l121 577l-97 21l8 36h289q18 0 34.5 -1t30.5 -3z" />
    <glyph glyph-name="colonmonetary" unicode="&#x20a1;" horiz-adv-x="580" 
d="M156 12q-59 27 -92.5 84t-33.5 145q0 90 29 170t78.5 141.5t114 101.5t136.5 49l36 112l50 -16l-30 -93q22 0 40 -3.5t33 -8.5l36 109l49 -15l-37 -119q21 -16 31.5 -36.5t10.5 -43.5q0 -31 -18.5 -51.5t-50.5 -20.5q-15 0 -28 6l-63 -186l-85 -264q32 3 59.5 11t57.5 23
l18 -22q-33 -40 -71.5 -64.5t-90.5 -31.5l-41 -127l-50 16l36 107q-20 0 -39 2.5t-36 7.5l-40 -121l-50 15zM319 349l-84 -258q37 -17 79 -19l92 275l67 204q-13 19 -18.5 47t-0.5 64q-8 1 -15.5 1h-15.5zM277 358l96 294q-45 -17 -84.5 -55.5t-68 -92.5t-45 -119.5
t-16.5 -136.5q0 -50 10 -82.5t27 -52.5z" />
    <glyph glyph-name="florin" unicode="&#x192;" horiz-adv-x="523" 
d="M-20 -204q-46 0 -73 19.5t-26 49.5q0 26 18.5 44.5t50.5 18.5q28 0 56 -18t48 -53q9 9 17 21.5t15.5 32.5t15 48.5t15.5 69.5l60 292h-115l7 33l122 37l3 14q10 43 23.5 79t31.5 65t41 53t52 44q30 21 65.5 33t70.5 12q47 0 75.5 -19.5t27.5 -51.5q-1 -26 -19.5 -45.5
t-49.5 -19.5q-29 0 -57 17.5t-47 62.5q-16 -10 -28.5 -24.5t-24 -38.5t-21 -58.5t-19.5 -84.5l-9 -48h130l-14 -60h-128l-38 -185q-12 -57 -24.5 -100t-29 -77t-37.5 -60.5t-49 -50.5q-30 -25 -66 -38.5t-70 -13.5z" />
    <glyph glyph-name="naira" unicode="&#x20a6;" horiz-adv-x="856" 
d="M234 625l-86 32l7 35h251l64 -200h188l27 131l-89 34l8 35h262l-7 -35l-105 -35l-28 -134h138l-11 -51h-138l-27 -129h138l-11 -51h-138l-54 -262h-128l-83 254h-187l-38 -180l89 -34l-7 -35h-263l8 35l103 35l39 182h-148l11 51h147l28 129h-148l11 51h147zM574 155h14
l61 291h-165zM309 576h-16l-59 -281h164z" />
    <glyph glyph-name="peso" unicode="&#x20b1;" horiz-adv-x="732" 
d="M216 635l-103 21l8 36h290q125 0 184.5 -46t59.5 -136v-7h113l-11 -51h-109q-10 -42 -33.5 -77.5t-59.5 -61.5t-84 -41t-105 -16q-27 0 -49.5 2.5t-44.5 6.5l-44 -208l115 -22l-8 -35h-361l9 36l112 22l82 394h-148l11 51h148zM310 455l-30 -143q7 -2 22 -2h27
q78 2 123 42t59 103h-201zM519 499v21q0 66 -30.5 93.5t-96.5 30.5q-8 0 -22 -0.5t-21 -2.5l-30 -142h200z" />
    <glyph glyph-name="R_p" horiz-adv-x="1238" 
d="M538 0q-29 0 -48 5.5t-31.5 19t-21 36.5t-15.5 58l-24 108q-10 47 -29.5 65t-53.5 18h-49l-52 -253l96 -22l-8 -35h-337l9 36l109 22l121 577l-100 21l8 36h308q113 0 171.5 -39.5t58.5 -114.5q0 -72 -55.5 -125t-159.5 -70l-3 -15q25 -6 42.5 -16t29 -24t19 -34
t13.5 -47q11 -45 21 -80t25 -53q6 -8 14 -14t19 -10.5t26.5 -7.5t37.5 -5l76 349l-65 31l3 25l192 54l14 -11l-28 -93l11 -3q46 51 84.5 76.5t85.5 25.5q27 0 50.5 -11t41 -31t27.5 -49.5t10 -65.5q0 -66 -28 -128t-74 -109t-105.5 -75.5t-122.5 -28.5q-14 0 -29 1.5
t-26 3.5l-29 -129l76 -27l-5 -29h-277l7 30l74 26l29 131h-133zM908 57q32 0 57.5 23t43.5 59t27.5 79t9.5 83q0 52 -20 75t-47 23q-22 0 -48.5 -13.5t-60.5 -45.5l-52 -241q44 -42 90 -42zM341 361q42 1 74 16.5t53.5 39.5t32.5 55.5t11 64.5q0 54 -31 79t-92 26h-12.5
t-15.5 -0.5t-15 -1t-10 -0.5l-60 -281z" />
    <glyph glyph-name="rupee" unicode="&#x20a8;" horiz-adv-x="1130" 
d="M-26 36l109 22l121 577l-100 21l8 36h308q115 0 173.5 -39.5t58.5 -114.5q0 -36 -14.5 -67.5t-42.5 -57.5t-69 -44t-94 -27l-2 -14q23 -7 39 -16.5t27 -24t18 -34t13 -46.5q11 -45 21 -80.5t25 -53.5q13 -16 30 -23t47 -12l-9 -38h-112q-29 0 -48 5.5t-31.5 19t-21 36.5
t-15.5 58l-25 110q-10 46 -28.5 63.5t-53.5 17.5h-40l-52 -253l96 -22l-8 -35h-337zM854 -14q-41 0 -75.5 8t-59.5 22.5t-38.5 34t-13.5 43.5q0 31 19.5 51.5t42.5 20.5q34 0 52.5 -30.5t10.5 -83.5q17 -10 36.5 -15.5t40.5 -5.5q40 0 62.5 19.5t22.5 51.5q0 12 -4 22
t-13 19.5t-24.5 19t-38.5 20.5l-36 18q-51 25 -79.5 53.5t-28.5 76.5q0 31 14 60.5t40.5 51.5t63.5 35.5t83 13.5q41 0 70.5 -8.5t49 -22.5t29 -31.5t9.5 -34.5q0 -26 -16.5 -42t-39.5 -16q-30 1 -52 27.5t-27 72.5q-18 9 -44 9q-36 0 -57.5 -20t-21.5 -47q0 -13 4 -23
t14 -19t25.5 -18.5t38.5 -21.5l34 -17q49 -25 79 -54t30 -77q0 -32 -14 -61t-40 -52t-63.5 -36.5t-84.5 -13.5zM341 361q43 1 75.5 16.5t54 39.5t32.5 55.5t11 64.5q0 54 -31 79t-94 26h-12.5t-15.5 -0.5t-15 -1t-10 -0.5l-60 -281z" />
    <glyph glyph-name="won" unicode="&#x20a9;" horiz-adv-x="1152" 
d="M745 314l14 -207h15l93 207h-122zM887 361l50 110h-202l8 -110h144zM359 314l10 -208h16l112 208h-138zM521 361l60 110h-229l5 -110h164zM44 309l11 51h171l-9 109h-139l11 51h125l-8 110l-87 28l7 34h310l-6 -31l-86 -23l5 -120h250l-10 115l-72 28l6 31h295l-6 -31
l-87 -26l8 -117h225l47 106l-74 37l6 31h233l-7 -34l-89 -38l-48 -100h113l-11 -51h-127l-53 -109h157l-11 -51h-170l-151 -314h-130l-36 407h-7l-219 -407h-129l-23 314h-185z" />
    <glyph glyph-name="sheqel" unicode="&#x20aa;" horiz-adv-x="613" 
d="M107 539h163q88 0 126 -23.5t38 -80.5q0 -38 -19 -94.5t-51 -121.5h-34q8 39 11.5 67t3.5 47q0 23 -5.5 39.5t-21 27.5t-42.5 17t-69 9l-67 1l-90 -427h-58zM476 0h-163q-87 0 -125 24t-38 81q0 37 18.5 93.5t50.5 121.5h35q-16 -76 -16 -114q0 -23 5.5 -39.5t21 -27.5
t42.5 -17t69 -9l67 -1l92 435l53 -20z" />
    <glyph glyph-name="numbersign" unicode="#" horiz-adv-x="707" 
d="M133 35l45 147h-112v56h128l31 105l22 82h-134v56h150l49 175l62 -16l-47 -159h153l49 175l62 -16l-47 -159h113v-56h-130l-29 -93l-25 -94h136v-56h-151l-46 -163l-62 16l45 147h-153l-47 -163zM410 238l32 105l22 82h-154l-28 -93l-26 -94h154z" />
    <glyph glyph-name="paragraph" unicode="&#xb6;" horiz-adv-x="724" 
d="M776 646l-114 -30l-155 -726h-70l156 729h-94l-156 -729h-69l69 320q-134 9 -194 63t-60 139q0 52 21.5 100.5t65.5 85.5t110.5 59t157.5 22h339zM430 620q-52 0 -90 -19t-62.5 -49t-36 -67t-11.5 -73q0 -68 33.5 -99.5t92.5 -41.5z" />
    <glyph glyph-name="section" unicode="&#xa7;" horiz-adv-x="597" 
d="M206 -105q-42 0 -76.5 9.5t-59.5 25.5t-38.5 37.5t-13.5 46.5q0 32 19 51.5t47 19.5q21 0 37 -9t25 -25t10.5 -39.5t-6.5 -51.5q11 -8 31.5 -15t44.5 -7q49 0 87.5 26.5t61.5 74.5q-140 71 -212.5 168.5t-72.5 213.5q0 67 24 125t66 100t99 66t123 24q42 0 76.5 -9.5
t59.5 -25.5t38.5 -37.5t13.5 -46.5q0 -32 -19 -51.5t-47 -19.5q-21 0 -37 9t-25 25t-10.5 39t6.5 51q-11 9 -31.5 15.5t-44.5 6.5q-49 0 -87.5 -26t-61.5 -74q140 -71 212.5 -168.5t72.5 -213.5q0 -68 -24 -125.5t-66 -99.5t-99 -66t-123 -24zM391 75q16 48 16 111
q0 100 -45.5 188.5t-144.5 181.5q-16 -48 -16 -111q0 -100 45.5 -188.5t144.5 -181.5z" />
    <glyph glyph-name="ordfeminine" unicode="&#xaa;" horiz-adv-x="454" 
d="M168 350q-41 0 -68 27.5t-27 76.5q0 54 23 102t58.5 84t77.5 57t80 21q25 0 40.5 -5t33.5 -15l43 37l19 -7l-64 -286q-3 -12 -3 -20t6.5 -12t21 -6t40.5 -2l2 -18q-26 -15 -51 -24.5t-51 -9.5q-33 0 -44.5 17.5t-5.5 49.5l-10 2q-33 -35 -61 -52t-60 -17zM217 418
q20 0 38.5 9.5t44.5 31.5l39 175q-29 36 -61 36q-23 0 -43.5 -18.5t-35.5 -46t-23.5 -60.5t-8.5 -62q0 -35 13.5 -50t36.5 -15z" />
    <glyph glyph-name="ordmasculine" unicode="&#xba;" horiz-adv-x="451" 
d="M230 348q-63 0 -103.5 35.5t-40.5 106.5q0 46 17 87.5t46 72.5t67.5 49.5t82.5 18.5q63 0 103.5 -35.5t40.5 -106.5q0 -46 -17 -87t-46 -72.5t-67.5 -50t-82.5 -18.5zM241 383q24 0 43.5 21.5t33.5 54t21.5 69.5t7.5 68q0 88 -58 88q-24 0 -44 -22t-34 -54t-21.5 -69.5
t-7.5 -67.5q0 -88 59 -88z" />
    <glyph glyph-name="degree" unicode="&#xb0;" horiz-adv-x="421" 
d="M225 378q-61 0 -100 34.5t-39 97.5q0 38 14.5 75t41.5 66.5t64.5 47.5t82.5 18q62 0 100.5 -34.5t38.5 -97.5q0 -38 -14.5 -75t-41 -66t-64 -47.5t-83.5 -18.5zM239 416q25 0 43 20t30 48.5t17.5 59.5t5.5 54q0 38 -15 60t-44 22q-25 0 -43 -20t-30 -48.5t-18 -60
t-6 -54.5q0 -38 15 -59.5t45 -21.5z" />
    <glyph glyph-name="percent" unicode="%" horiz-adv-x="847" 
d="M212 328q-59 0 -97.5 35.5t-38.5 103.5q0 40 15.5 80t43 71.5t65.5 51.5t83 20q58 0 97 -35.5t39 -103.5q0 -40 -15.5 -80t-43 -71.5t-65.5 -51.5t-83 -20zM112 0l302 349l297 356l42 -33l-302 -349l-297 -356zM581 -18q-59 0 -97.5 35.5t-38.5 102.5q0 40 15.5 80
t43 71.5t65.5 51.5t83 20q58 0 97 -35.5t39 -102.5q0 -40 -15.5 -80t-43 -71.5t-65.5 -51.5t-83 -20zM229 366q23 0 41.5 19.5t31 48.5t19 63.5t6.5 64.5q0 42 -14.5 66t-46.5 24q-23 0 -41.5 -19.5t-31 -48.5t-19 -63t-6.5 -64q0 -42 14.5 -66.5t46.5 -24.5zM598 19
q23 0 41.5 19.5t31 48.5t19 63.5t6.5 64.5q0 42 -14.5 66.5t-46.5 24.5q-23 0 -41.5 -19.5t-31 -48.5t-19 -63.5t-6.5 -64.5q0 -42 14.5 -66.5t46.5 -24.5z" />
    <glyph glyph-name="quotedbl" unicode="&#x22;" horiz-adv-x="475" 
d="M93 449l32 103q8 24 14 42.5t10.5 32.5t9 24.5t9.5 20.5q24 45 62 45q26 0 42.5 -16.5t16.5 -34.5q0 -14 -4.5 -25.5t-10.5 -22.5q-12 -18 -31 -41.5t-51 -62.5l-70 -79zM292 449l33 103q8 24 13.5 42.5t10.5 32.5t9.5 24.5t9.5 20.5q24 45 61 45q27 0 43.5 -16.5
t16.5 -34.5q0 -26 -16 -48q-11 -18 -30 -41.5t-51 -62.5l-71 -79z" />
    <glyph glyph-name="quotesingle" unicode="'" horiz-adv-x="273" 
d="M93 449l32 103q8 24 14 42.5t10.5 32.5t9 24.5t9.5 20.5q24 45 62 45q26 0 42.5 -16.5t16.5 -34.5q0 -14 -4.5 -25.5t-10.5 -22.5q-12 -18 -31 -41.5t-51 -62.5l-70 -79z" />
    <glyph glyph-name="plus" unicode="+" horiz-adv-x="580" 
d="M327 306l-42 -203h-66l42 203h-200l13 62h201l43 200h66l-43 -200h199l-13 -62h-200z" />
    <glyph glyph-name="minus" unicode="&#x2212;" horiz-adv-x="580" 
d="M68 304l15 67h447l-14 -67h-448z" />
    <glyph glyph-name="divide" unicode="&#xf7;" horiz-adv-x="580" 
d="M64 307l13 60h459l-12 -60h-460zM336 438q-29 0 -48.5 19.5t-19.5 48.5t19.5 48.5t48.5 19.5t48.5 -19.5t19.5 -48.5t-19.5 -48.5t-48.5 -19.5zM264 100q-29 0 -48.5 19.5t-19.5 48.5t19.5 49t48.5 20t48.5 -20t19.5 -49t-19.5 -48.5t-48.5 -19.5z" />
    <glyph glyph-name="equal" unicode="=" horiz-adv-x="580" 
d="M105 474h446l-13 -64h-447zM60 263h446l-14 -64h-446z" />
    <glyph glyph-name="multiply" unicode="&#xd7;" horiz-adv-x="580" 
d="M456 163l-52 -38l-118 167l-186 -148l-38 46l190 150l-120 167l51 38l118 -167l185 149l38 -46l-189 -150z" />
    <glyph glyph-name="less" unicode="&#x3c;" horiz-adv-x="580" 
d="M82 311l11 53l434 204l2 -65l-372 -170l300 -171l-28 -56z" />
    <glyph glyph-name="greater" unicode="&#x3e;" horiz-adv-x="580" 
d="M68 172l372 169l-300 171l28 56l347 -205l-11 -53l-434 -204z" />
    <glyph glyph-name="plusminus" unicode="&#xb1;" horiz-adv-x="580" 
d="M338 425l-36 -168h-63l37 168h-165l12 60h165l35 165h62l-34 -165h165l-13 -60h-165zM34 116l12 60h416l-13 -60h-415z" />
    <glyph glyph-name="onehalf" unicode="&#xbd;" horiz-adv-x="1160" 
d="M378 211l-3 -21h-347l5 21l125 38l82 379l-104 41l5 20l211 27l13 -10l-98 -459zM611 287l-364 -417l-46 44l370 409l365 416l46 -44zM678 -2q63 42 107.5 73t76.5 59q30 26 50 47t32 39t17.5 34.5t5.5 34.5q0 32 -18 52t-53 20q-37 0 -64.5 -22t-57.5 -65l-26 12
q28 74 75.5 114t113.5 40q33 0 59 -10t44 -27.5t27 -40t9 -47.5q0 -36 -14.5 -68.5t-50 -67t-94.5 -73.5t-147 -88l2 -15l197 3l71 84l18 -4l-52 -166h-315l-13 82v0z" />
    <glyph glyph-name="onethird" unicode="&#x2153;" horiz-adv-x="1160" 
d="M378 211l-3 -21h-347l5 21l125 38l82 379l-104 41l5 20l211 27l13 -10l-98 -459zM612 287l-364 -417l-46 44l370 409l365 416l46 -44zM813 191q49 13 81 26t51 27.5t26.5 30t7.5 33.5q0 26 -17.5 41.5t-49.5 15.5q-37 0 -70 -17t-63 -46l-21 16q27 50 75 84t116 34
q64 0 99.5 -29t35.5 -76q0 -45 -34.5 -79t-110.5 -51l-2 -16q60 -17 89 -46.5t29 -76.5q0 -33 -14.5 -62.5t-41 -52t-64 -35.5t-84.5 -13q-75 0 -119 27.5t-44 69.5q0 23 16 40.5t41 17.5q20 0 32.5 -9.5t17.5 -23.5t3.5 -31.5t-10.5 -33.5q22 -15 67 -15q42 0 69 23t27 67
q0 20 -7 37.5t-24.5 31.5t-46 25.5t-70.5 19.5l10 46v0z" />
    <glyph glyph-name="twothirds" unicode="&#x2154;" horiz-adv-x="1160" 
d="M19 272q63 42 107.5 73t76.5 59q30 26 50 47t32 39t17.5 34.5t5.5 34.5q0 32 -18 52t-53 20q-37 0 -64.5 -22t-57.5 -65l-26 12q28 74 75.5 114t113.5 40q33 0 59 -10t44 -27.5t27 -40t9 -47.5q0 -36 -14.5 -68.5t-50 -67t-94.5 -73.5t-147 -88l2 -15l197 3l71 84l18 -4
l-52 -166h-315l-13 82v0zM605 287l-364 -417l-46 44l370 409l365 416l46 -44zM811 191q49 13 81 26t51 27.5t26.5 30t7.5 33.5q0 26 -17.5 41.5t-49.5 15.5q-37 0 -70 -17t-63 -46l-21 16q27 50 75 84t116 34q64 0 99.5 -29t35.5 -76q0 -45 -34.5 -79t-110.5 -51l-2 -16
q60 -17 89 -46.5t29 -76.5q0 -33 -14.5 -62.5t-41 -52t-64 -35.5t-84.5 -13q-75 0 -119 27.5t-44 69.5q0 23 16 40.5t41 17.5q20 0 32.5 -9.5t17.5 -23.5t3.5 -31.5t-10.5 -33.5q22 -15 67 -15q42 0 69 23t27 67q0 20 -7 37.5t-24.5 31.5t-46 25.5t-70.5 19.5l10 46v0z" />
    <glyph glyph-name="onequarter" unicode="&#xbc;" horiz-adv-x="1160" 
d="M381 211l-3 -21h-347l5 21l125 38l82 379l-104 41l5 20l211 27l13 -10l-98 -459zM633 287l-364 -417l-46 44l370 409l365 416l46 -44zM956 354h-21l-185 -229h157zM957 434l111 -8l-64 -297h81l-14 -65h-80l-20 -90l63 -31l-6 -27h-256l6 28l92 30l20 92h-194l-12 57z
" />
    <glyph glyph-name="threequarters" unicode="&#xbe;" horiz-adv-x="1160" 
d="M630 287l-364 -417l-46 44l370 409l365 416l46 -44zM163 465q49 13 81 26t51 27.5t26.5 30t7.5 33.5q0 26 -17.5 41.5t-49.5 15.5q-37 0 -70 -17t-63 -46l-21 16q27 50 75 84t116 34q64 0 99.5 -29t35.5 -76q0 -45 -34.5 -79t-110.5 -51l-2 -16q60 -17 89 -46.5t29 -76.5
q0 -33 -14.5 -62.5t-41 -52t-64 -35.5t-84.5 -13q-75 0 -119 27.5t-44 69.5q0 23 16 40.5t41 17.5q20 0 32.5 -9.5t17.5 -23.5t3.5 -31.5t-10.5 -33.5q22 -15 67 -15q42 0 69 23t27 67q0 20 -7 37.5t-24.5 31.5t-46 25.5t-70.5 19.5l10 46v0zM947 354h-21l-185 -229h157z
M948 434l111 -8l-64 -297h81l-14 -65h-80l-20 -90l63 -31l-6 -27h-256l6 28l92 30l20 92h-194l-12 57z" />
    <glyph glyph-name="onefifth" unicode="&#x2155;" horiz-adv-x="1160" 
d="M381 211l-3 -21h-347l5 21l125 38l82 379l-104 41l5 20l211 27l13 -10l-98 -459zM618 287l-364 -417l-46 44l370 409l365 416l46 -44zM1067 327h-219l-25 -81q55 -8 97.5 -21.5t72 -34t45 -49t15.5 -67.5q0 -37 -15 -69t-42 -56t-64 -37.5t-82 -13.5q-75 0 -116 28
t-41 68q0 26 15.5 44t39.5 18q21 0 34 -9.5t18.5 -24.5t4 -33t-10.5 -34q22 -16 63 -16q45 0 71 28t26 67q0 56 -49 86t-154 44l77 256h208l44 46l24 -5z" />
    <glyph glyph-name="twofifths" unicode="&#x2156;" horiz-adv-x="1160" 
d="M19 272q63 42 107.5 73t76.5 59q30 26 50 47t32 39t17.5 34.5t5.5 34.5q0 32 -18 52t-53 20q-37 0 -64.5 -22t-57.5 -65l-26 12q28 74 75.5 114t113.5 40q33 0 59 -10t44 -27.5t27 -40t9 -47.5q0 -36 -14.5 -68.5t-50 -67t-94.5 -73.5t-147 -88l2 -15l197 3l71 84l18 -4
l-52 -166h-315l-13 82v0zM609 287l-364 -417l-46 44l370 409l365 416l46 -44zM1067 327h-219l-25 -81q55 -8 97.5 -21.5t72 -34t45 -49t15.5 -67.5q0 -37 -15 -69t-42 -56t-64 -37.5t-82 -13.5q-75 0 -116 28t-41 68q0 26 15.5 44t39.5 18q21 0 34 -9.5t18.5 -24.5t4 -33
t-10.5 -34q22 -16 63 -16q45 0 71 28t26 67q0 56 -49 86t-154 44l77 256h208l44 46l24 -5z" />
    <glyph glyph-name="threefifths" unicode="&#x2157;" horiz-adv-x="1160" 
d="M154 465q49 13 81 26t51 27.5t26.5 30t7.5 33.5q0 26 -17.5 41.5t-49.5 15.5q-37 0 -70 -17t-63 -46l-21 16q27 50 75 84t116 34q64 0 99.5 -29t35.5 -76q0 -45 -34.5 -79t-110.5 -51l-2 -16q60 -17 89 -46.5t29 -76.5q0 -33 -14.5 -62.5t-41 -52t-64 -35.5t-84.5 -13
q-75 0 -119 27.5t-44 69.5q0 23 16 40.5t41 17.5q20 0 32.5 -9.5t17.5 -23.5t3.5 -31.5t-10.5 -33.5q22 -15 67 -15q42 0 69 23t27 67q0 20 -7 37.5t-24.5 31.5t-46 25.5t-70.5 19.5l10 46v0zM601 287l-364 -417l-46 44l370 409l365 416l46 -44zM1067 327h-219l-25 -81
q55 -8 97.5 -21.5t72 -34t45 -49t15.5 -67.5q0 -37 -15 -69t-42 -56t-64 -37.5t-82 -13.5q-75 0 -116 28t-41 68q0 26 15.5 44t39.5 18q21 0 34 -9.5t18.5 -24.5t4 -33t-10.5 -34q22 -16 63 -16q45 0 71 28t26 67q0 56 -49 86t-154 44l77 256h208l44 46l24 -5z" />
    <glyph glyph-name="fourfifths" unicode="&#x2158;" horiz-adv-x="1160" 
d="M299 628h-21l-185 -229h157zM300 708l111 -8l-64 -297h81l-14 -65h-80l-20 -90l63 -31l-6 -27h-256l6 28l92 30l20 92h-194l-12 57zM615 287l-364 -417l-46 44l370 409l365 416l46 -44zM1067 327h-219l-25 -81q55 -8 97.5 -21.5t72 -34t45 -49t15.5 -67.5q0 -37 -15 -69
t-42 -56t-64 -37.5t-82 -13.5q-75 0 -116 28t-41 68q0 26 15.5 44t39.5 18q21 0 34 -9.5t18.5 -24.5t4 -33t-10.5 -34q22 -16 63 -16q45 0 71 28t26 67q0 56 -49 86t-154 44l77 256h208l44 46l24 -5z" />
    <glyph glyph-name="onesixth" unicode="&#x2159;" horiz-adv-x="1160" 
d="M381 211l-3 -21h-347l5 21l125 38l82 379l-104 41l5 20l211 27l13 -10l-98 -459zM633 287l-364 -417l-46 44l370 409l365 416l46 -44zM860 224q17 9 37 14.5t43 5.5q60 0 92.5 -37t32.5 -102q0 -38 -13.5 -74.5t-38.5 -65.5t-61 -47t-81 -18q-73 0 -118.5 45t-45.5 128
q0 69 26.5 130.5t76 111t120 85t157.5 51.5l5 -28q-92 -39 -153.5 -89.5t-87.5 -102.5zM834 186q-12 -31 -17 -67.5t-5 -68.5q0 -60 16 -86t48 -26q20 0 35 14.5t25.5 38t15.5 52.5t5 58q0 49 -18.5 70.5t-56.5 21.5q-27 0 -48 -7z" />
    <glyph glyph-name="fivesixths" unicode="&#x215a;" horiz-adv-x="1160" 
d="M410 601h-219l-25 -81q55 -8 97.5 -21.5t72 -34t45 -49t15.5 -67.5q0 -37 -15 -69t-42 -56t-64 -37.5t-82 -13.5q-75 0 -116 28t-41 68q0 26 15.5 44t39.5 18q21 0 34 -9.5t18.5 -24.5t4 -33t-10.5 -34q22 -16 63 -16q45 0 71 28t26 67q0 56 -49 86t-154 44l77 256h208
l44 46l24 -5zM620 287l-364 -417l-46 44l370 409l365 416l46 -44zM860 224q17 9 37 14.5t43 5.5q60 0 92.5 -37t32.5 -102q0 -38 -13.5 -74.5t-38.5 -65.5t-61 -47t-81 -18q-73 0 -118.5 45t-45.5 128q0 69 26.5 130.5t76 111t120 85t157.5 51.5l5 -28q-92 -39 -153.5 -89.5
t-87.5 -102.5zM834 186q-12 -31 -17 -67.5t-5 -68.5q0 -60 16 -86t48 -26q20 0 35 14.5t25.5 38t15.5 52.5t5 58q0 49 -18.5 70.5t-56.5 21.5q-27 0 -48 -7z" />
    <glyph glyph-name="oneeighth" unicode="&#x215b;" horiz-adv-x="1160" 
d="M381 211l-3 -21h-347l5 21l125 38l82 379l-104 41l5 20l211 27l13 -10l-98 -459zM614 287l-364 -417l-46 44l370 409l365 416l46 -44zM942 204q30 26 45 53.5t15 60.5q0 35 -20 57.5t-56 22.5q-32 0 -53 -24t-21 -62q0 -35 21.5 -60t68.5 -48zM850 145q-27 -20 -45 -51
t-18 -64q0 -45 24 -68.5t64 -23.5q33 0 57 23.5t24 65.5q0 32 -24 61t-82 57zM971 170q39 -22 59.5 -49t20.5 -68q0 -33 -13.5 -61t-38 -48.5t-58 -32t-73.5 -11.5q-39 0 -71 9.5t-54.5 26.5t-34.5 40t-12 49q0 52 32.5 86.5t91.5 52.5l3 14q-67 40 -67 108q0 30 13 57.5
t36 48t54.5 32.5t69.5 12t67.5 -10t50 -26.5t31.5 -39.5t11 -48q0 -45 -30 -78t-86 -50z" />
    <glyph glyph-name="threeeighths" unicode="&#x215c;" horiz-adv-x="1160" 
d="M154 465q49 13 81 26t51 27.5t26.5 30t7.5 33.5q0 26 -17.5 41.5t-49.5 15.5q-37 0 -70 -17t-63 -46l-21 16q27 50 75 84t116 34q64 0 99.5 -29t35.5 -76q0 -45 -34.5 -79t-110.5 -51l-2 -16q60 -17 89 -46.5t29 -76.5q0 -33 -14.5 -62.5t-41 -52t-64 -35.5t-84.5 -13
q-75 0 -119 27.5t-44 69.5q0 23 16 40.5t41 17.5q20 0 32.5 -9.5t17.5 -23.5t3.5 -31.5t-10.5 -33.5q22 -15 67 -15q42 0 69 23t27 67q0 20 -7 37.5t-24.5 31.5t-46 25.5t-70.5 19.5l10 46v0zM591 287l-364 -417l-46 44l370 409l365 416l46 -44zM942 204q30 26 45 53.5
t15 60.5q0 35 -20 57.5t-56 22.5q-32 0 -53 -24t-21 -62q0 -35 21.5 -60t68.5 -48zM850 145q-27 -20 -45 -51t-18 -64q0 -45 24 -68.5t64 -23.5q33 0 57 23.5t24 65.5q0 32 -24 61t-82 57zM971 170q39 -22 59.5 -49t20.5 -68q0 -33 -13.5 -61t-38 -48.5t-58 -32t-73.5 -11.5
q-39 0 -71 9.5t-54.5 26.5t-34.5 40t-12 49q0 52 32.5 86.5t91.5 52.5l3 14q-67 40 -67 108q0 30 13 57.5t36 48t54.5 32.5t69.5 12t67.5 -10t50 -26.5t31.5 -39.5t11 -48q0 -45 -30 -78t-86 -50z" />
    <glyph glyph-name="fiveeighths" unicode="&#x215d;" horiz-adv-x="1160" 
d="M410 601h-219l-25 -81q55 -8 97.5 -21.5t72 -34t45 -49t15.5 -67.5q0 -37 -15 -69t-42 -56t-64 -37.5t-82 -13.5q-75 0 -116 28t-41 68q0 26 15.5 44t39.5 18q21 0 34 -9.5t18.5 -24.5t4 -33t-10.5 -34q22 -16 63 -16q45 0 71 28t26 67q0 56 -49 86t-154 44l77 256h208
l44 46l24 -5zM593 287l-364 -417l-46 44l370 409l365 416l46 -44zM942 204q30 26 45 53.5t15 60.5q0 35 -20 57.5t-56 22.5q-32 0 -53 -24t-21 -62q0 -35 21.5 -60t68.5 -48zM850 145q-27 -20 -45 -51t-18 -64q0 -45 24 -68.5t64 -23.5q33 0 57 23.5t24 65.5q0 32 -24 61
t-82 57zM971 170q39 -22 59.5 -49t20.5 -68q0 -33 -13.5 -61t-38 -48.5t-58 -32t-73.5 -11.5q-39 0 -71 9.5t-54.5 26.5t-34.5 40t-12 49q0 52 32.5 86.5t91.5 52.5l3 14q-67 40 -67 108q0 30 13 57.5t36 48t54.5 32.5t69.5 12t67.5 -10t50 -26.5t31.5 -39.5t11 -48
q0 -45 -30 -78t-86 -50z" />
    <glyph glyph-name="seveneighths" unicode="&#x215e;" horiz-adv-x="1160" 
d="M203 183h-115l4 17l142 176l173 222h-219l-63 -71l-26 5l56 191l27 5l17 -34h268l15 -57zM551 287l-364 -417l-46 44l370 409l365 416l46 -44zM931 204q30 26 45 53.5t15 60.5q0 35 -20 57.5t-56 22.5q-32 0 -53 -24t-21 -62q0 -35 21.5 -60t68.5 -48zM839 145
q-27 -20 -45 -51t-18 -64q0 -45 24 -68.5t64 -23.5q33 0 57 23.5t24 65.5q0 32 -24 61t-82 57zM960 170q39 -22 59.5 -49t20.5 -68q0 -33 -13.5 -61t-38 -48.5t-58 -32t-73.5 -11.5q-39 0 -71 9.5t-54.5 26.5t-34.5 40t-12 49q0 52 32.5 86.5t91.5 52.5l3 14q-67 40 -67 108
q0 30 13 57.5t36 48t54.5 32.5t69.5 12t67.5 -10t50 -26.5t31.5 -39.5t11 -48q0 -45 -30 -78t-86 -50z" />
    <glyph glyph-name="zero.sup" unicode="&#x2070;" horiz-adv-x="435" 
d="M39 464q0 56 15 119t45.5 116t76 88t105.5 35q73 0 112 -47.5t39 -130.5q0 -56 -15.5 -119t-45.5 -116t-75.5 -88t-105.5 -35q-73 0 -112 47.5t-39 130.5zM272 780q-34 0 -59.5 -53.5t-45.5 -145.5q-11 -54 -17 -94t-6 -68q0 -51 14 -71t41 -20q34 0 59.5 53.5
t45.5 145.5q12 54 17.5 94t5.5 68q0 51 -14 71t-41 20z" />
    <glyph glyph-name="one.sup" unicode="&#xb9;" horiz-adv-x="435" 
d="M373 323l-3 -21h-347l5 21l125 38l82 379l-104 41l5 20l211 27l13 -10l-98 -459z" />
    <glyph glyph-name="two.sup" unicode="&#xb2;" horiz-adv-x="435" 
d="M11 384q63 42 107.5 73t76.5 59q30 26 50 47t32 39t17.5 34.5t5.5 34.5q0 32 -18 52t-53 20q-37 0 -64.5 -22t-57.5 -65l-26 12q28 74 75.5 114t113.5 40q33 0 59 -10t44 -27.5t27 -40t9 -47.5q0 -36 -14.5 -68.5t-50 -67t-94.5 -73.5t-147 -88l2 -15l197 3l71 84l18 -4
l-52 -166h-315l-13 82v0z" />
    <glyph glyph-name="three.sup" unicode="&#xb3;" horiz-adv-x="435" 
d="M146 577q49 13 81 26t51 27.5t26.5 30t7.5 33.5q0 26 -17.5 41.5t-49.5 15.5q-37 0 -70 -17t-63 -46l-21 16q27 50 75 84t116 34q64 0 99.5 -29t35.5 -76q0 -45 -34.5 -79t-110.5 -51l-2 -16q60 -17 89 -46.5t29 -76.5q0 -33 -14.5 -62.5t-41 -52t-64 -35.5t-84.5 -13
q-75 0 -119 27.5t-44 69.5q0 23 16 40.5t41 17.5q20 0 32.5 -9.5t17.5 -23.5t3.5 -31.5t-10.5 -33.5q22 -15 67 -15q42 0 69 23t27 67q0 20 -7 37.5t-24.5 31.5t-46 25.5t-70.5 19.5l10 46v0z" />
    <glyph glyph-name="four.sup" unicode="&#x2074;" horiz-adv-x="435" 
d="M291 740h-21l-185 -229h157zM292 820l111 -8l-64 -297h81l-14 -65h-80l-20 -90l63 -31l-6 -27h-256l6 28l92 30l20 92h-194l-12 57z" />
    <glyph glyph-name="five.sup" unicode="&#x2075;" horiz-adv-x="435" 
d="M402 713h-219l-25 -81q55 -8 97.5 -21.5t72 -34t45 -49t15.5 -67.5q0 -37 -15 -69t-42 -56t-64 -37.5t-82 -13.5q-75 0 -116 28t-41 68q0 26 15.5 44t39.5 18q21 0 34 -9.5t18.5 -24.5t4 -33t-10.5 -34q22 -16 63 -16q45 0 71 28t26 67q0 56 -49 86t-154 44l77 256h208
l44 46l24 -5z" />
    <glyph glyph-name="six.sup" unicode="&#x2076;" horiz-adv-x="435" 
d="M195 610q17 9 37 14.5t43 5.5q60 0 92.5 -37t32.5 -102q0 -38 -13.5 -74.5t-38.5 -65.5t-61 -47t-81 -18q-73 0 -118.5 45t-45.5 128q0 69 26.5 130.5t76 111t120 85t157.5 51.5l5 -28q-92 -39 -153.5 -89.5t-87.5 -102.5zM169 572q-12 -31 -17 -67.5t-5 -68.5
q0 -60 16 -86t48 -26q20 0 35 14.5t25.5 38t15.5 52.5t5 58q0 49 -18.5 70.5t-56.5 21.5q-27 0 -48 -7z" />
    <glyph glyph-name="seven.sup" unicode="&#x2077;" horiz-adv-x="435" 
d="M184 295h-115l4 17l142 176l173 222h-219l-63 -71l-26 5l56 191l27 5l17 -34h268l15 -57z" />
    <glyph glyph-name="eight.sup" unicode="&#x2078;" horiz-adv-x="435" 
d="M278 590q30 26 45 53.5t15 60.5q0 35 -20 57.5t-56 22.5q-32 0 -53 -24t-21 -62q0 -35 21.5 -60t68.5 -48zM186 531q-27 -20 -45 -51t-18 -64q0 -45 24 -68.5t64 -23.5q33 0 57 23.5t24 65.5q0 32 -24 61t-82 57zM307 556q39 -22 59.5 -49t20.5 -68q0 -33 -13.5 -61
t-38 -48.5t-58 -32t-73.5 -11.5q-39 0 -71 9.5t-54.5 26.5t-34.5 40t-12 49q0 52 32.5 86.5t91.5 52.5l3 14q-67 40 -67 108q0 30 13 57.5t36 48t54.5 32.5t69.5 12t67.5 -10t50 -26.5t31.5 -39.5t11 -48q0 -45 -30 -78t-86 -50z" />
    <glyph glyph-name="nine.sup" unicode="&#x2079;" horiz-adv-x="435" 
d="M272 495q-17 -10 -36.5 -15.5t-42.5 -5.5q-59 0 -92 37.5t-33 103.5q0 39 13.5 76.5t38.5 66.5t61.5 47t81.5 18q72 0 117.5 -45.5t45.5 -127.5q0 -68 -25.5 -128.5t-75 -110t-121 -84.5t-163.5 -51l-5 29q94 35 156 84t89 98zM298 532q13 33 18 70t5 70q0 60 -16 86.5
t-48 26.5q-20 0 -34.5 -15t-25 -38.5t-15.5 -53t-5 -59.5q0 -50 18.5 -71.5t56.5 -21.5q25 0 46 6z" />
    <glyph glyph-name="zero.inf" unicode="&#x2080;" horiz-adv-x="435" 
d="M-20 -56q0 56 15 119t45.5 116t76 88t105.5 35q73 0 112 -47.5t39 -130.5q0 -56 -15.5 -119t-45.5 -116t-75.5 -88t-105.5 -35q-73 0 -112 47.5t-39 130.5zM213 260q-34 0 -59.5 -53.5t-45.5 -145.5q-11 -54 -17 -94t-6 -68q0 -51 14 -71t41 -20q34 0 59.5 53.5
t45.5 145.5q12 54 17.5 94t5.5 68q0 51 -14 71t-41 20z" />
    <glyph glyph-name="one.inf" unicode="&#x2081;" horiz-adv-x="435" 
d="M315 -197l-3 -21h-347l5 21l125 38l82 379l-104 41l5 20l211 27l13 -10l-98 -459z" />
    <glyph glyph-name="two.inf" unicode="&#x2082;" horiz-adv-x="435" 
d="M-47 -136q63 42 107.5 73t76.5 59q30 26 50 47t32 39t17.5 34.5t5.5 34.5q0 32 -18 52t-53 20q-37 0 -64.5 -22t-57.5 -65l-26 12q28 74 75.5 114t113.5 40q33 0 59 -10t44 -27.5t27 -40t9 -47.5q0 -36 -14.5 -68.5t-50 -67t-94.5 -73.5t-147 -88l2 -15l197 3l71 84
l18 -4l-52 -166h-315l-13 82v0z" />
    <glyph glyph-name="three.inf" unicode="&#x2083;" horiz-adv-x="435" 
d="M88 57q49 13 81 26t51 27.5t26.5 30t7.5 33.5q0 26 -17.5 41.5t-49.5 15.5q-37 0 -70 -17t-63 -46l-21 16q27 50 75 84t116 34q64 0 99.5 -29t35.5 -76q0 -45 -34.5 -79t-110.5 -51l-2 -16q60 -17 89 -46.5t29 -76.5q0 -33 -14.5 -62.5t-41 -52t-64 -35.5t-84.5 -13
q-75 0 -119 27.5t-44 69.5q0 23 16 40.5t41 17.5q20 0 32.5 -9.5t17.5 -23.5t3.5 -31.5t-10.5 -33.5q22 -15 67 -15q42 0 69 23t27 67q0 20 -7 37.5t-24.5 31.5t-46 25.5t-70.5 19.5l10 46v0z" />
    <glyph glyph-name="four.inf" unicode="&#x2084;" horiz-adv-x="435" 
d="M233 220h-21l-185 -229h157zM234 300l111 -8l-64 -297h81l-14 -65h-80l-20 -90l63 -31l-6 -27h-256l6 28l92 30l20 92h-194l-12 57z" />
    <glyph glyph-name="five.inf" unicode="&#x2085;" horiz-adv-x="435" 
d="M344 193h-219l-25 -81q55 -8 97.5 -21.5t72 -34t45 -49t15.5 -67.5q0 -37 -15 -69t-42 -56t-64 -37.5t-82 -13.5q-75 0 -116 28t-41 68q0 26 15.5 44t39.5 18q21 0 34 -9.5t18.5 -24.5t4 -33t-10.5 -34q22 -16 63 -16q45 0 71 28t26 67q0 56 -49 86t-154 44l77 256h208
l44 46l24 -5z" />
    <glyph glyph-name="six.inf" unicode="&#x2086;" horiz-adv-x="435" 
d="M137 90q17 9 37 14.5t43 5.5q60 0 92.5 -37t32.5 -102q0 -38 -13.5 -74.5t-38.5 -65.5t-61 -47t-81 -18q-73 0 -118.5 45t-45.5 128q0 69 26.5 130.5t76 111t120 85t157.5 51.5l5 -28q-92 -39 -153.5 -89.5t-87.5 -102.5zM111 52q-12 -31 -17 -67.5t-5 -68.5
q0 -60 16 -86t48 -26q20 0 35 14.5t25.5 38t15.5 52.5t5 58q0 49 -18.5 70.5t-56.5 21.5q-27 0 -48 -7z" />
    <glyph glyph-name="seven.inf" unicode="&#x2087;" horiz-adv-x="435" 
d="M126 -225h-115l4 17l142 176l173 222h-219l-63 -71l-26 5l56 191l27 5l17 -34h268l15 -57z" />
    <glyph glyph-name="eight.inf" unicode="&#x2088;" horiz-adv-x="435" 
d="M219 70q30 26 45 53.5t15 60.5q0 35 -20 57.5t-56 22.5q-32 0 -53 -24t-21 -62q0 -35 21.5 -60t68.5 -48zM127 11q-27 -20 -45 -51t-18 -64q0 -45 24 -68.5t64 -23.5q33 0 57 23.5t24 65.5q0 32 -24 61t-82 57zM248 36q39 -22 59.5 -49t20.5 -68q0 -33 -13.5 -61
t-38 -48.5t-58 -32t-73.5 -11.5q-39 0 -71 9.5t-54.5 26.5t-34.5 40t-12 49q0 52 32.5 86.5t91.5 52.5l3 14q-67 40 -67 108q0 30 13 57.5t36 48t54.5 32.5t69.5 12t67.5 -10t50 -26.5t31.5 -39.5t11 -48q0 -45 -30 -78t-86 -50z" />
    <glyph glyph-name="nine.inf" unicode="&#x2089;" horiz-adv-x="435" 
d="M214 -25q-17 -10 -36.5 -15.5t-42.5 -5.5q-59 0 -92 37.5t-33 103.5q0 39 13.5 76.5t38.5 66.5t61.5 47t81.5 18q72 0 117.5 -45.5t45.5 -127.5q0 -68 -25.5 -128.5t-75 -110t-121 -84.5t-163.5 -51l-5 29q94 35 156 84t89 98zM240 12q13 33 18 70t5 70q0 60 -16 86.5
t-48 26.5q-20 0 -34.5 -15t-25 -38.5t-15.5 -53t-5 -59.5q0 -50 18.5 -71.5t56.5 -21.5q25 0 46 6z" />
    <glyph glyph-name="zero.tab" horiz-adv-x="580" 
d="M226 -17q-48 0 -85.5 17t-62.5 48.5t-38 75.5t-13 98t9.5 110.5t28.5 110.5t47 102t64 84.5t80.5 57.5t96.5 21q49 0 86 -17t62.5 -48t38.5 -75t13 -98q0 -53 -10 -110t-29 -111t-46.5 -102.5t-64 -85t-81 -57.5t-96.5 -21zM239 35q27 0 51 25t44 66t36 92.5t27.5 104.5
t17.5 101.5t6 84.5q0 81 -19 114.5t-61 33.5q-27 0 -51 -25.5t-44.5 -66t-36.5 -92t-27.5 -104.5t-17.5 -102t-6 -84q0 -81 19.5 -114.5t61.5 -33.5z" />
    <glyph glyph-name="one.tab" horiz-adv-x="580" 
d="M7 27l181 50l109 511l-146 53l5 26l276 35l16 -12l-130 -615l161 -48l-6 -27h-471z" />
    <glyph glyph-name="two.tab" horiz-adv-x="580" 
d="M-12 87q82 60 144.5 109t106.5 87q42 37 70 67t45 57t24.5 51.5t7.5 49.5q0 48 -26.5 76.5t-74.5 28.5q-53 0 -92.5 -32.5t-73.5 -88.5l-33 15q32 93 96 147t155 54q42 0 76 -13.5t58 -37t36.5 -55t12.5 -66.5q0 -47 -18 -90.5t-65.5 -92t-129.5 -106.5t-209 -135l1 -10
l278 4l93 117l24 -5l-69 -218h-424z" />
    <glyph glyph-name="three.tab" horiz-adv-x="580" 
d="M219 -17q-49 0 -89 9.5t-68 26.5t-43 40.5t-15 51.5q0 32 21 54.5t53 22.5q25 0 41.5 -12t23.5 -31t5 -42.5t-13 -45.5q35 -22 88 -22q63 0 103.5 33t40.5 99q0 58 -51.5 99.5t-169.5 58.5l9 44q75 16 124 35.5t77.5 40.5t40 44t11.5 48q0 38 -26 60t-72 22
q-53 0 -97.5 -23.5t-86.5 -65.5l-27 22q19 33 44.5 61.5t57.5 49.5t70 33t82 12q87 0 133.5 -39t46.5 -102q0 -30 -10.5 -57.5t-34.5 -51.5t-62 -42.5t-93 -30.5l-1 -13q80 -26 120.5 -67t40.5 -106q0 -43 -19 -82t-54.5 -69t-86.5 -47.5t-114 -17.5z" />
    <glyph glyph-name="four.tab" horiz-adv-x="580" 
d="M138 34l124 39l28 131h-268l-14 68l382 434l127 -11l-88 -412h110l-17 -79h-110l-28 -132l88 -40l-7 -32h-334zM311 283l65 308h-19l-266 -308h220z" />
    <glyph glyph-name="five.tab" horiz-adv-x="580" 
d="M225 -17q-50 0 -89.5 10t-67 27.5t-42 40.5t-14.5 50q0 35 20.5 58.5t52.5 23.5q27 0 44 -12.5t24 -32t5 -43.5t-14 -47q15 -11 37 -17t51 -6q31 0 57 11t44 30.5t28 45.5t10 56q0 77 -64.5 117t-210.5 58l100 339h284l56 57l28 -6l-44 -166h-300l-37 -122
q73 -9 131 -26.5t98.5 -45.5t61.5 -67.5t21 -91.5t-20.5 -96t-56.5 -76.5t-85.5 -50.5t-107.5 -18z" />
    <glyph glyph-name="six.tab" horiz-adv-x="580" 
d="M254 -17q-49 0 -89 15.5t-69 45.5t-45 73.5t-16 98.5q0 95 37 179t104 150t159 110.5t203 61.5l6 -38q-122 -43 -199.5 -106.5t-125.5 -146.5l7 -6q24 13 53 20.5t62 7.5q82 0 127.5 -50t45.5 -141q0 -50 -18.5 -99t-52.5 -88t-82 -63t-107 -24zM257 31q30 0 53 19.5
t38.5 50.5t23.5 70.5t8 79.5q0 70 -28 101t-85 31q-20 0 -38 -2t-32 -5q-17 -44 -24.5 -90t-7.5 -94q0 -84 25.5 -122.5t66.5 -38.5z" />
    <glyph glyph-name="seven.tab" horiz-adv-x="580" 
d="M271 255l242 320h-309l-86 -96l-30 7l72 242l32 7l21 -43h376l17 -64l-407 -645h-139z" />
    <glyph glyph-name="eight.tab" horiz-adv-x="580" 
d="M341 392q51 36 74.5 73t23.5 86q0 51 -29 81t-79 30q-21 0 -40.5 -8.5t-34 -23t-23 -34.5t-8.5 -43q0 -27 8 -48.5t23 -40.5t36.5 -36.5t48.5 -35.5zM239 321q-104 -65 -104 -170q0 -57 34.5 -89.5t90.5 -32.5q22 0 42.5 8t36 23.5t24.5 37t9 48.5t-8.5 49t-25.5 42.5
t-41.5 40.5t-57.5 43zM382 363q52 -38 83 -79t31 -100q0 -43 -18.5 -79.5t-51.5 -63.5t-77.5 -42.5t-95.5 -15.5q-50 0 -91.5 13t-72 36t-47.5 54.5t-17 68.5q0 136 178 192q-46 35 -71.5 71.5t-25.5 89.5q0 41 16.5 77.5t46.5 63.5t71.5 43t91.5 16q49 0 88.5 -13t67 -35.5
t42 -53t14.5 -64.5q0 -67 -43 -110t-119 -69z" />
    <glyph glyph-name="nine.tab" horiz-adv-x="580" 
d="M21 8q128 43 207.5 106t129.5 146l-7 6q-24 -13 -53 -21t-61 -8q-80 0 -125.5 50.5t-45.5 143.5q0 52 18.5 101.5t52.5 88.5t82 63t107 24q49 0 89 -15.5t69 -45.5t45 -73t16 -98q0 -96 -37.5 -180t-106 -150.5t-164 -112t-210.5 -63.5zM313 302q36 0 68 8q18 45 26 93
t8 97q0 84 -25.5 122.5t-66.5 38.5q-30 0 -53 -19.5t-38.5 -51t-23.5 -71.5t-8 -81q0 -73 28 -104.5t85 -31.5z" />
    <glyph glyph-name="period.tab" horiz-adv-x="290" 
d="M86 -18q-18 0 -33 6.5t-26.5 18t-18 26.5t-6.5 32t6.5 32.5t18 27t26.5 18t33 6.5q34 0 58.5 -24.5t24.5 -59.5q0 -34 -24.5 -58.5t-58.5 -24.5z" />
    <glyph glyph-name="comma.tab" horiz-adv-x="290" 
d="M-66 -163q69 42 103.5 81t45.5 73l-7 7l-4 -1q-4 -2 -13 -2q-25 0 -42.5 16t-17.5 48q0 18 7 34t18.5 28.5t27.5 19.5t34 7q35 0 59.5 -25t24.5 -71q0 -38 -16 -73t-45 -66.5t-69 -57.5t-89 -45z" />
    <glyph glyph-name="colon.tab" horiz-adv-x="290" 
d="M145 295q-35 0 -58.5 24t-23.5 58t23.5 58t58.5 24q34 0 58 -24t24 -58t-24 -58t-58 -24zM88 -18q-35 0 -59 24t-24 58t24 58t59 24q34 0 58 -24t24 -58t-24 -58t-58 -24z" />
    <glyph glyph-name="semicolon.tab" horiz-adv-x="290" 
d="M145 295q-35 0 -58.5 24t-23.5 58t23.5 58t58.5 24q34 0 58 -24t24 -58t-24 -58t-58 -24zM-63 -163q69 42 103.5 81t45.5 73l-8 7l-3 -1q-6 -2 -14 -2q-24 0 -42 16t-18 48q0 18 7 34t19 28.5t27.5 19.5t33.5 7q36 0 60.5 -25t24.5 -71q0 -38 -16 -73t-45 -66.5
t-69.5 -57.5t-88.5 -45z" />
    <glyph glyph-name="twodotleader.tab" horiz-adv-x="580" 
d="M88 149q34 0 58.5 -24.5t24.5 -59.5q0 -34 -24.5 -58.5t-58.5 -24.5q-18 0 -33 6.5t-26.5 18t-18 26.5t-6.5 32t6.5 32.5t18 27t26.5 18t33 6.5zM374 149q34 0 58.5 -24.5t24.5 -59.5q0 -34 -24.5 -58.5t-58.5 -24.5q-18 0 -33 6.5t-26.5 18t-18 26.5t-6.5 32t6.5 32.5
t18 27t26.5 18t33 6.5z" />
    <glyph glyph-name="periodcentered.tab" horiz-adv-x="290" 
d="M145 262q-35 0 -59.5 24t-24.5 59t24.5 59t59.5 24t59 -24t24 -59t-24 -59t-59 -24z" />
    <glyph glyph-name="slash.tab" horiz-adv-x="580" 
d="M-71 -205l302 505l301 515l54 -26l-302 -506l-300 -515z" />
    <glyph glyph-name="bar.tab" horiz-adv-x="290" 
d="M-18 -260l114 519l106 517l67 -10l-115 -519l-105 -517z" />
    <glyph glyph-name="brokenbar.tab" horiz-adv-x="290" 
d="M107 328l52 225l43 223l67 -10l-52 -225l-43 -223zM-18 -260l51 225l43 223l67 -10l-51 -225l-43 -223z" />
    <glyph glyph-name="underscore.tab" horiz-adv-x="580" 
d="M510 0h-576v56h576v-56z" />
    <glyph glyph-name="dollar.tab" horiz-adv-x="580" 
d="M156 -128l27 117q-49 6 -94 20t-87 32l36 194l30 2q13 -91 45 -138t85 -60l57 260q-29 16 -58 33.5t-52 40t-37 52t-14 69.5q0 47 18.5 86.5t52 68t80 44t102.5 15.5l23 101l56 -7l-23 -98q45 -5 81.5 -15.5t68.5 -25.5l-31 -171l-32 -4q-19 75 -45 112.5t-58 51.5
l-55 -249q30 -16 60.5 -33.5t54.5 -40.5t39 -53.5t15 -72.5q0 -52 -19.5 -93t-54.5 -69.5t-83.5 -43t-106.5 -12.5l-27 -119zM341 661q-68 4 -104 -30t-36 -93q0 -39 25 -64.5t62 -46.5zM244 31q38 -1 66 8.5t46.5 26.5t27.5 40.5t9 50.5q0 21 -7.5 38t-20 31t-30 26.5
t-36.5 23.5z" />
    <glyph glyph-name="sterling.tab" horiz-adv-x="580" 
d="M467 380l-13 -60h-147q-3 -68 -35 -114t-104 -83l2 -14q57 3 105.5 -3t90.5 -6q23 0 40 5.5t31 18t25.5 34t23.5 54.5l39 -3q-9 -54 -23.5 -96t-35.5 -71t-50 -44t-67 -15q-51 0 -104.5 23.5t-107.5 63.5q-24 -41 -56.5 -63.5t-61.5 -22.5q-32 0 -48.5 15.5t-16.5 41.5
q0 39 39.5 62.5t118.5 21.5q35 41 52.5 76.5t17.5 77.5q0 20 -3 41h-140l12 60h119l-4 34t-2 34q0 56 21 103.5t57.5 82.5t87.5 54.5t111 19.5q36 0 61 -7t41.5 -19t24 -27.5t7.5 -31.5q0 -28 -19 -48t-50 -20q-38 0 -64 27.5t-43 76.5q-53 -15 -78 -59.5t-25 -114.5
q0 -25 3.5 -51.5t5.5 -53.5h162z" />
    <glyph glyph-name="Euro.tab" horiz-adv-x="580" 
d="M329 -16q-102 0 -164 65.5t-65 187.5h-93l11 53h84q4 50 18 97h-85l12 54h91q25 60 62.5 109.5t83 84.5t96 54.5t101.5 19.5q69 0 100.5 -26t31.5 -59q0 -29 -19 -48t-48 -19q-35 0 -61 26t-39 79q-26 -4 -53 -21t-52.5 -45t-47.5 -67t-38 -88h238l-12 -54h-238
q-10 -43 -12 -97h233l-12 -53h-222q3 -85 41 -123.5t110 -38.5q32 0 60.5 8t61.5 25l17 -22q-38 -48 -85 -75t-106 -27z" />
    <glyph glyph-name="yen.tab" horiz-adv-x="580" 
d="M60 35l112 28l22 110h-167l10 50h168l19 90h-168l11 50h149l-100 265l-82 30l7 34h318l-6 -31l-89 -25l79 -241l177 234l-67 32l7 31h231l-7 -34l-87 -34l-217 -261h155l-10 -50h-170l-19 -90h170l-11 -50h-169l-23 -110l100 -28l-7 -35h-344z" />
    <glyph glyph-name="cent.tab" horiz-adv-x="580" 
d="M233 87q-84 11 -131.5 63.5t-47.5 138.5q0 60 22 114.5t60 97.5t89 71t110 36l18 101l49 -4l-20 -94q80 -3 122.5 -34.5t42.5 -74.5q0 -31 -17.5 -49t-43.5 -18q-42 0 -59 34t-12 89q-6 4 -17 5.5t-25 1.5l-46 -219l-33 -180q6 -1 11 -1h10q42 0 77 13.5t77 43.5l18 -18
q-34 -54 -87.5 -85.5t-120.5 -33.5l-21 -117l-49 3zM326 559q-35 -12 -62.5 -38.5t-46.5 -61.5t-28.5 -75.5t-9.5 -80.5q0 -55 20 -84.5t53 -42.5l36 178z" />
    <glyph glyph-name="florin.tab" horiz-adv-x="580" 
d="M9 -204q-47 0 -73 20t-26 50q0 26 18 44.5t50 18.5q29 0 56.5 -18.5t47.5 -53.5q9 9 16.5 21.5t15 32.5t15.5 48.5t16 69.5l64 312h-118l8 33l124 37l3 13q12 55 27.5 96t34 72.5t42 55t52.5 43.5q28 20 63 32t70 12q48 0 75.5 -20.5t27.5 -53.5q0 -26 -18 -45.5
t-50 -19.5q-30 0 -58.5 21t-46.5 62q-16 -10 -29.5 -25.5t-24.5 -41t-21.5 -62.5t-20.5 -90l-11 -58h153l-14 -61h-151l-43 -205q-12 -56 -25 -99.5t-29.5 -77.5t-37.5 -61t-49 -51q-62 -51 -133 -51z" />
    <glyph glyph-name="numbersign.tab" horiz-adv-x="580" 
d="M71 35l46 153h-92v57h109l32 106l23 84h-113v56h129l50 179l62 -14l-50 -165h133l50 179l62 -14l-50 -165h94v-56h-111l-28 -93l-27 -97h114v-57h-130l-46 -167l-62 14l46 153h-133l-46 -167zM329 245l32 106l23 84h-134l-28 -93l-27 -97h134z" />
    <glyph glyph-name="paragraph.tab" horiz-adv-x="580" 
d="M654 658l-93 -33l-155 -722h-64l156 729h-60l-156 -729h-63l68 314q-51 6 -94 20.5t-74.5 38.5t-49 59.5t-17.5 85.5q0 52 21 101t64 86.5t109.5 60.5t158.5 23h256zM374 632q-49 -2 -84 -22t-58 -51t-34 -68.5t-11 -73.5q0 -63 31.5 -95.5t80.5 -42.5z" />
    <glyph glyph-name="section.tab" horiz-adv-x="580" 
d="M187 -105q-42 0 -77 9.5t-60 25.5t-38.5 37.5t-13.5 46.5q0 32 19 51.5t47 19.5q42 0 62.5 -34t3.5 -91q11 -8 32 -15t44 -7q49 0 87.5 26.5t61.5 74.5q-140 71 -212 168.5t-72 213.5q0 67 24 125t65.5 100t98.5 66t123 24q42 0 77 -9.5t59.5 -25.5t38.5 -37.5t14 -46.5
q0 -32 -19.5 -51.5t-46.5 -19.5q-42 0 -62.5 34t-3.5 90q-11 9 -32 15.5t-45 6.5q-49 0 -87.5 -26t-61.5 -74q140 -71 212.5 -168.5t72.5 -213.5q0 -68 -24 -125.5t-66 -99.5t-98.5 -66t-122.5 -24zM371 75q16 48 16 111q0 100 -45 188.5t-144 181.5q-17 -51 -17 -111
q0 -100 45.5 -188.5t144.5 -181.5z" />
    <glyph glyph-name="degree.tab" horiz-adv-x="580" 
d="M293 378q-66 0 -109 37t-43 104q0 40 15.5 78.5t43.5 69t68 49.5t89 19q66 0 108.5 -37t42.5 -105q0 -40 -15 -78.5t-43 -69t-68 -49t-89 -18.5zM306 417q27 0 46.5 20.5t32 50.5t19 63t6.5 58q0 40 -17 63.5t-49 23.5q-27 0 -46.5 -21t-32.5 -51t-19.5 -63t-6.5 -58
q0 -39 17.5 -62.5t49.5 -23.5z" />
    <glyph glyph-name="percent.tab" horiz-adv-x="580" 
d="M160 386q-54 0 -87.5 32t-33.5 92q0 36 13.5 71t37.5 63t57.5 45.5t72.5 17.5q54 0 87.5 -33t33.5 -93q0 -35 -13.5 -70t-37.5 -63t-57 -45t-73 -17zM-44 8l316 350l307 358l44 -37l-315 -349l-308 -359zM362 -17q-54 0 -87.5 32.5t-33.5 92.5q0 35 13.5 70t37.5 63
t57 45.5t72 17.5q54 0 88 -32.5t34 -92.5q0 -36 -13.5 -71t-37.5 -62.5t-57 -45t-73 -17.5zM175 424q20 0 35 16.5t25.5 41.5t16 54.5t5.5 54.5q0 36 -12.5 57t-38.5 21q-20 0 -35.5 -16.5t-26 -42t-16 -55t-5.5 -54.5q0 -36 12.5 -56.5t39.5 -20.5zM376 21q20 0 35.5 16.5
t26 42t16 54.5t5.5 55q0 35 -12.5 56t-38.5 21q-20 0 -35.5 -16.5t-26 -42t-16 -55t-5.5 -54.5q0 -35 12.5 -56t38.5 -21z" />
    <glyph glyph-name="quotedbl.tab" horiz-adv-x="580" 
d="M338 371l-29 16l59 145q26 63 43 100.5t29 56.5q28 46 62 46q26 0 44.5 -14.5t18.5 -37.5q0 -14 -4.5 -27.5t-18 -34t-39 -52t-66.5 -79.5zM114 371l-30 15l50 146q23 63 37 100.5t25 56.5q27 46 60 46q26 0 46 -15t20 -41q0 -13 -3.5 -25.5t-15.5 -32.5t-35 -51t-62 -80
z" />
    <glyph glyph-name="quotesingle.tab" horiz-adv-x="290" 
d="M112 371l-30 15l50 146q23 63 37 100.5t25 56.5q27 46 60 46q26 0 46 -15t20 -41q0 -13 -3.5 -25.5t-15.5 -32.5t-35 -51t-62 -80z" />
    <glyph glyph-name="plus.tab" horiz-adv-x="580" 
d="M316 314l-42 -203h-66l42 203h-197l13 62h198l43 199h66l-43 -199h196l-13 -62h-197z" />
    <glyph glyph-name="minus.tab" horiz-adv-x="580" 
d="M60 312l13 66h449l-14 -66h-448z" />
    <glyph glyph-name="divide.tab" horiz-adv-x="580" 
d="M53 315l13 60h459l-12 -60h-460zM325 446q-29 0 -48.5 19.5t-19.5 48.5t19.5 48.5t48.5 19.5t48.5 -19.5t19.5 -48.5t-19.5 -48.5t-48.5 -19.5zM253 108q-29 0 -48.5 19.5t-19.5 48.5t19.5 48.5t48.5 19.5t48.5 -19.5t19.5 -48.5t-19.5 -48.5t-48.5 -19.5z" />
    <glyph glyph-name="equal.tab" horiz-adv-x="580" 
d="M98 482h442l-13 -65h-442zM53 271h442l-13 -64h-442z" />
    <glyph glyph-name="multiply.tab" horiz-adv-x="580" 
d="M452 171l-51 -38l-119 167l-185 -149l-38 46l190 151l-121 166l51 38l119 -166l185 149l38 -47l-190 -150z" />
    <glyph glyph-name="less.tab" horiz-adv-x="580" 
d="M74 320l11 52l434 204l3 -65l-372 -169l300 -171l-29 -57z" />
    <glyph glyph-name="greater.tab" horiz-adv-x="580" 
d="M57 180l372 170l-300 171l28 56l347 -205l-11 -53l-434 -204z" />
    <glyph glyph-name="plusminus.tab" horiz-adv-x="580" 
d="M338 425l-36 -168h-63l37 168h-165l12 60h165l35 165h62l-34 -165h165l-13 -60h-165zM34 116l12 60h416l-13 -60h-415z" />
    <glyph glyph-name="box.1" unicode="&#xe000;" horiz-adv-x="834" 
d="M80 673h673v-673h-673v673z" />
    <glyph glyph-name="box.2" unicode="&#xe001;" 
d="M80 673h673v-673h-673v673zM704 44v585h-575v-585h575z" />
    <glyph glyph-name="box.3" unicode="&#xe002;" 
d="M80 673h673v-673h-673v673zM704 44v585h-575v-585h575zM248 131l-37 37l173 169l-173 168l37 37l169 -172l168 172l37 -37l-172 -168l172 -169l-37 -37l-168 173z" />
    <glyph glyph-name="box.4" unicode="&#xe003;" 
d="M80 673h673v-673h-673v673zM704 44v585h-575v-585h575zM272 190l2 147l-2 146l145 -1l144 1l-1 -146l1 -147l-144 1z" />
    <glyph glyph-name="dot.1" unicode="&#xe004;" 
d="M417 691q73 0 137.5 -28t112.5 -76t76 -112.5t28 -137.5t-28 -137.5t-76 -112.5t-112.5 -76t-137.5 -28t-137.5 28t-113 76t-76.5 112.5t-28 137.5t28 137.5t76.5 112.5t113 76t137.5 28z" />
    <glyph glyph-name="dot.2" unicode="&#xe005;" 
d="M417 691q76 0 140.5 -28t112 -76t74.5 -112.5t27 -137.5t-27 -137.5t-74.5 -112.5t-112 -76t-140.5 -28t-141 28t-112.5 76t-74.5 112.5t-27 137.5t27 137.5t74.5 112.5t112.5 76t141 28zM417 647q-67 0 -123 -24.5t-96.5 -67t-63 -99t-22.5 -119.5q0 -64 22.5 -120
t63 -98t96.5 -66.5t123 -24.5q66 0 122 24.5t96.5 66.5t63 98t22.5 120q0 63 -22.5 119.5t-63 99t-96.5 67t-122 24.5z" />
    <glyph glyph-name="dot.3" unicode="&#xe006;" 
d="M417 691q76 0 140.5 -28t112 -76t74.5 -112.5t27 -137.5t-27 -137.5t-74.5 -112.5t-112 -76t-140.5 -28t-141 28t-112.5 76t-74.5 112.5t-27 137.5t27 137.5t74.5 112.5t112.5 76t141 28zM417 647q-67 0 -123 -24.5t-96.5 -67t-63 -99t-22.5 -119.5q0 -64 22.5 -120
t63 -98t96.5 -66.5t123 -24.5q66 0 122 24.5t96.5 66.5t63 98t22.5 120q0 63 -22.5 119.5t-63 99t-96.5 67t-122 24.5zM275 157l-38 38l147 142l-147 142l38 37l142 -146l141 146l38 -37l-146 -142l146 -142l-38 -38l-141 147z" />
    <glyph glyph-name="dot.4" unicode="&#xe007;" 
d="M417 691q76 0 140.5 -28t112 -76t74.5 -112.5t27 -137.5t-27 -137.5t-74.5 -112.5t-112 -76t-140.5 -28t-141 28t-112.5 76t-74.5 112.5t-27 137.5t27 137.5t74.5 112.5t112.5 76t141 28zM417 647q-67 0 -123 -24.5t-96.5 -67t-63 -99t-22.5 -119.5q0 -64 22.5 -120
t63 -98t96.5 -66.5t123 -24.5q66 0 122 24.5t96.5 66.5t63 98t22.5 120q0 63 -22.5 119.5t-63 99t-96.5 67t-122 24.5zM417 492q33 0 61 -12.5t48.5 -33.5t31.5 -49.5t11 -59.5q0 -32 -11 -60t-31.5 -49t-48.5 -33t-61 -12t-61 12t-48.5 33t-32 49t-11.5 60q0 31 11.5 59.5
t32 49.5t48.5 33.5t61 12.5z" />
    <glyph glyph-name="club" unicode="&#x2663;" horiz-adv-x="712" 
d="M316 389q-44 26 -73 64t-29 87q0 30 11.5 56t31 45.5t45 31t54.5 11.5t54.5 -11.5t45 -31t31 -45.5t11.5 -56q0 -49 -29 -87t-73 -64l22 -28l22 20q22 20 46.5 32t54.5 12q28 0 52.5 -10.5t42.5 -29t28.5 -43.5t10.5 -54q0 -30 -10 -55.5t-28 -44t-42.5 -29t-53.5 -10.5
q-52 0 -88.5 32.5t-50.5 96.5l-2 10l-26 -3l5 -51q8 -72 20.5 -126t35.5 -96v-12h-158v12q23 42 35.5 96t20.5 126l5 51l-26 3l-2 -10q-15 -66 -50.5 -97.5t-88.5 -31.5q-29 0 -53.5 10.5t-42.5 29t-28 44t-10 55.5q0 29 10 54t28 43.5t42.5 29t53.5 10.5q30 0 54.5 -12
t46.5 -32l22 -20l22 28v0z" />
    <glyph glyph-name="spade" unicode="&#x2660;" horiz-adv-x="712" 
d="M321 304l-6 -23q-16 -66 -46.5 -96t-78.5 -30q-53 0 -87.5 37t-34.5 97q0 47 20 96.5t57 100.5t89.5 105t117.5 110h8q65 -56 117.5 -110t89.5 -105t57 -100.5t20 -96.5q0 -60 -34 -97t-88 -37q-95 0 -125 126l-6 23l-17 -1l6 -87q3 -36 8 -64.5t11.5 -52.5t15 -45
t20.5 -42v-12h-158v12q12 21 20.5 42t15.5 45t11.5 52.5t7.5 64.5l6 87z" />
    <glyph glyph-name="diamond" unicode="&#x2666;" horiz-adv-x="712" 
d="M360 -21h-8l-283 355v11l283 356h8l283 -356v-11z" />
    <glyph glyph-name="heart" unicode="&#x2665;" horiz-adv-x="712" 
d="M654 499q0 -50 -22.5 -108.5t-62.5 -123.5t-93.5 -137.5t-115.5 -150.5h-8q-62 78 -115.5 150.5t-93.5 137.5t-62.5 123.5t-22.5 108.5q0 41 10.5 75t29 58t44 37.5t55.5 13.5q66 0 102.5 -46t49.5 -130h14q13 84 50 130t103 46q30 0 55.5 -13.5t43.5 -37.5t28.5 -58
t10.5 -75z" />
    <glyph glyph-name="star.1" unicode="&#xe008;" 
d="M787 453l8 -18l-231 -152l100 -264l-16 -12l-231 178l-231 -178l-17 12l100 264l-231 152l8 18l279 -7l82 266h19l82 -266z" />
    <glyph glyph-name="star.1_L" unicode="&#xe009;" horiz-adv-x="503" 
d="M186 7l-17 12l100 264l-231 152l8 18l279 -7l74 266h18v-527z" />
    <glyph glyph-name="fist.1_W" unicode="&#xe00a;" horiz-adv-x="1658" 
d="M1247 56l-36 164l-166 -91l-215 -34l-31 -25l-48 -18l-55 29l-2 36l12 33l-11 8l-23 -25l-41 -22l-49 38v39l12 32l-11 10l-32 -26l-41 -16l-48 33l17 95l115 97l-6 9l-362 -30l-82 5l-38 45l4 63l527 70h15l311 -35l206 -25l62 -14l18 84h270v-529h-272z" />
    <glyph glyph-name="fist.1_E" unicode="&#xe00b;" horiz-adv-x="1658" 
d="M139 585h270l19 -84l61 14l206 25l311 35h16l526 -70l4 -63l-38 -45l-82 -5l-362 30l-6 -9l115 -97l17 -95l-48 -33l-41 16l-32 26l-11 -10l13 -32v-39l-50 -38l-41 22l-23 25l-11 -8l12 -33l-2 -36l-55 -29l-48 18l-31 25l-215 34l-166 91l-36 -164h-272v529z" />
    <glyph glyph-name="fist.2_W" unicode="&#xe00c;" horiz-adv-x="1658" 
d="M1179 515v83l373 5v-612l-373 13v201l-166 -98l-150 5l6 -38l-51 -37l-93 -4l-83 54l-8 119l188 89l4 -16l-151 -96l4 -76l33 -24l24 3l4 31l65 38h199l179 94v224l-218 35l-306 54l-301 -42l-251 -33l-2 -26l30 -35l542 45l2 -16l-199 -107l-3 -76l41 -42l-11 -9l-41 13
l-32 40l3 98l172 66l-3 10l-281 -45l-212 -11l-50 59l4 66l312 45l274 40zM613 133l-35 6l-44 37l6 117l214 93l4 -15l-180 -105l-3 -81l47 -43zM1501 557h-272v-511l272 -7v518z" />
    <glyph glyph-name="fist.2_E" unicode="&#xe00d;" horiz-adv-x="1658" 
d="M429 46v511h-272v-518zM1083 185l-3 81l-179 105l3 15l214 -93l6 -117l-44 -37l-35 -6l-9 9zM1279 562l312 -45l4 -66l-50 -59l-212 11l-281 45l-3 -10l172 -66l3 -98l-32 -40l-41 -13l-11 9l41 42l-3 76l-199 107l2 16l542 -45l30 35l-2 26l-251 33l-300 42l-307 -54
l-218 -35v-224l179 -94h199l65 -38l5 -31l23 -3l33 24l4 76l-151 96l4 16l188 -89l-8 -119l-82 -54l-94 4l-51 37l6 38l-150 -5l-166 98v-201l-373 -13v612l373 -5v-83l526 87z" />
    <glyph glyph-name="wedge.1_N" unicode="&#xe00e;" horiz-adv-x="580" 
d="M302 712l63 -219l148 -468v-25h-446v25l148 468l63 219h24z" />
    <glyph glyph-name="wedge.1_S" unicode="&#xe00f;" horiz-adv-x="580" 
d="M215 180l-148 468v25h446v-25l-148 -468l-63 -219h-24z" />
    <glyph glyph-name="wedge.1_W" unicode="&#xe010;" 
d="M692 602h15v-535h-15l-624 263v9z" />
    <glyph glyph-name="wedge.1_E" unicode="&#xe011;" 
d="M765 330l-623 -263h-16v535h16l623 -263v-9z" />
    <glyph glyph-name="wedge.2_W" unicode="&#xe012;" 
d="M689 602h18v-535h-18l-621 261v13zM661 546h-6l-83 -38l-327 -135l-101 -39l101 -38l327 -135l83 -38h6v423z" />
    <glyph glyph-name="wedge.2_E" unicode="&#xe013;" 
d="M765 328l-621 -261h-18v535h18l621 -261v-13zM178 123l83 38l327 135l101 38l-101 39l-327 135l-83 38h-6v-423h6z" />
    <glyph glyph-name="wedge.3_W" unicode="&#xe014;" horiz-adv-x="668" 
d="M510 752h20v-836h-20l-412 414v9z" />
    <glyph glyph-name="wedge.3_E" unicode="&#xe015;" horiz-adv-x="668" 
d="M571 330l-413 -414h-20v836h20l413 -413v-9z" />
    <glyph glyph-name="wedge.4_W" unicode="&#xe016;" horiz-adv-x="668" 
d="M491 752h39v-836h-39l-412 412v13zM485 685h-8l-45 -51l-298 -300l298 -299l45 -52h8v702z" />
    <glyph glyph-name="wedge.4_E" unicode="&#xe017;" horiz-adv-x="668" 
d="M589 328l-412 -412h-39v836h39l412 -411v-13zM191 -17l45 52l298 299l-298 300l-45 51h-8v-702h8z" />
    <glyph glyph-name="chevron.1_W" unicode="&#xe018;" horiz-adv-x="668" 
d="M518 -59v-7h-67l-330 398v9l330 398h67v-6l-326 -397z" />
    <glyph glyph-name="chevron.1_E" unicode="&#xe019;" horiz-adv-x="668" 
d="M150 733v6h67l330 -398v-9l-330 -398h-67v7l326 395z" />
    <glyph glyph-name="chevron.2_W" unicode="&#xe01a;" horiz-adv-x="668" 
d="M569 -59v-7h-184l-300 402v2l300 401h184v-6l-291 -397z" />
    <glyph glyph-name="chevron.2_E" unicode="&#xe01b;" horiz-adv-x="668" 
d="M99 733v6h184l300 -401v-2l-300 -402h-184v7l291 395z" />
    <glyph glyph-name="arrow.1_N" unicode="&#xe01c;" 
d="M446 530v-530h-59v530l3 75l-37 -47l-214 -227h-6v74l279 297h9l279 -297v-74h-6l-214 230l-37 47z" />
    <glyph glyph-name="arrow.1_W" unicode="&#xe01d;" 
d="M245 363h499v-53h-499l-75 4l47 -38l229 -217v-6h-76l-297 279v9l297 279h76v-6l-232 -217l-47 -37z" />
    <glyph glyph-name="arrow.1_S" unicode="&#xe01e;" 
d="M387 143v530h59v-530l-3 -75l37 48l214 226h6v-74l-279 -297h-9l-279 297v74h6l214 -230l37 -47z" />
    <glyph glyph-name="arrow.1_E" unicode="&#xe01f;" 
d="M588 310h-499v53h499l75 -3l-47 37l-229 217v6h76l297 -279v-9l-297 -279h-76v6l232 217l47 38z" />
    <glyph glyph-name="arrow.2_N" unicode="&#xe020;" 
d="M491 251v-251h-149v251l6 189l-214 -223h-7v182l239 252l46 51h9l46 -51l239 -252v-182h-7l-214 226z" />
    <glyph glyph-name="arrow.2_W" unicode="&#xe021;" 
d="M561 54v-7h-185l-252 239l-51 46v9l51 46l252 239h185v-7l-230 -220l190 8h223v-141h-223l-194 8z" />
    <glyph glyph-name="arrow.2_S" unicode="&#xe022;" 
d="M342 422v251h149v-251l-6 -189l214 224h7v-183l-239 -252l-46 -51h-9l-46 51l-239 252v183h7l214 -227z" />
    <glyph glyph-name="arrow.2_E" unicode="&#xe023;" 
d="M312 266h-223v141h223l190 -8l-230 220v7h185l252 -239l51 -46v-9l-51 -46l-252 -239h-185v7l234 220z" />
    <glyph glyph-name="arrow.3_N" unicode="&#xe024;" 
d="M421 721l370 -405v-20l-260 2l2 -298h-233l2 298l-259 -2v20l369 405h9z" />
    <glyph glyph-name="arrow.3_W" unicode="&#xe025;" 
d="M448 708h20l-2 -259l300 2v-233l-300 2l2 -260h-20l-404 370v9z" />
    <glyph glyph-name="arrow.3_S" unicode="&#xe026;" 
d="M43 376v20l259 -2l-2 298h233l-2 -298l260 2v-20l-370 -405h-9z" />
    <glyph glyph-name="arrow.3_E" unicode="&#xe027;" 
d="M789 330l-404 -370h-20l2 260l-300 -2v233l300 -2l-2 259h20l404 -369v-9z" />
    <glyph glyph-name="arrow.4_N" unicode="&#xe028;" 
d="M423 721l368 -380v-34l-237 1l3 -308h-281l3 308l-236 -1v34l367 380h13zM511 350l211 -1v7l-50 44l-255 263l-256 -263l-50 -44v-7l211 1l-2 -306h193z" />
    <glyph glyph-name="arrow.4_W" unicode="&#xe029;" 
d="M397 708h34l-1 -236l310 3v-281l-310 3l1 -237h-34l-380 368v13zM693 433l-306 -2l1 209h-8l-45 -50l-263 -256l263 -255l45 -50h8l-1 209l306 -3v198z" />
    <glyph glyph-name="arrow.4_S" unicode="&#xe02a;" 
d="M410 -29l-367 380v34l236 -1l-3 308h281l-3 -308l237 1v-34l-368 -380h-13zM322 342l-211 1v-7l50 -44l256 -263l255 263l50 44v7l-211 -1l2 306h-193z" />
    <glyph glyph-name="arrow.4_E" unicode="&#xe02b;" 
d="M789 328l-379 -368h-34l1 237l-310 -3v281l310 -3l-1 236h34l379 -367v-13zM420 238l-1 -209h7l46 50l262 255l-262 256l-46 50h-7l1 -209l-306 2v-198z" />
    <glyph glyph-name="arrow.5_E" unicode="&#xe02c;" horiz-adv-x="998" 
d="M499 -70q-84 0 -158 32t-129.5 87t-87.5 129.5t-32 158.5t32 158t87.5 129.5t129.5 87.5t158 32t158 -32t129.5 -87.5t87.5 -129.5t32 -158t-32 -158.5t-87.5 -129.5t-129.5 -87t-158 -32zM551 259l-130 -124l-28 -23v-9h148l203 193l44 41l-44 40l-203 193h-148v-9
l28 -23l128 -123l31 -27l-156 6h-179v-115h179l159 6z" />
    <glyph glyph-name="arrow.5_NE" unicode="&#xe02d;" horiz-adv-x="998" 
d="M499 -70q-84 0 -158 32t-129.5 87t-87.5 129.5t-32 158.5t32 158t87.5 129.5t129.5 87.5t158 32t158 -32t129.5 -87.5t87.5 -129.5t32 -158t-32 -158.5t-87.5 -129.5t-129.5 -87t-158 -32zM590 319v-170l-1 -37l6 -5l106 104v275l2 59l-59 -2h-273l-99 -100l6 -5h199
l44 2l-106 -96l-148 -147l84 -84l144 146l99 104z" />
    <glyph glyph-name="arrow.5_N" unicode="&#xe02e;" horiz-adv-x="998" 
d="M499 -70q-84 0 -158 32t-129.5 87t-87.5 129.5t-32 158.5t32 158t87.5 129.5t129.5 87.5t158 32t158 -32t129.5 -87.5t87.5 -129.5t32 -158t-32 -158.5t-87.5 -129.5t-129.5 -87t-158 -32zM578 383l122 -128l23 -27h9v144l-192 203l-41 44l-41 -44l-192 -203v-144h9
l23 27l122 126l25 28l-5 -150v-176h118v176l-5 152z" />
    <glyph glyph-name="arrow.5_NW" unicode="&#xe02f;" horiz-adv-x="998" 
d="M499 -70q-84 0 -158 32t-129.5 87t-87.5 129.5t-32 158.5t32 158t87.5 129.5t129.5 87.5t158 32t158 -32t129.5 -87.5t87.5 -129.5t32 -158t-32 -158.5t-87.5 -129.5t-129.5 -87t-158 -32zM503 259l145 -146l83 84l-148 147l-106 96l44 -2h199l6 5l-99 100h-273l-58 2
l1 -59v-275l106 -104l6 5l-1 37v170l-4 44z" />
    <glyph glyph-name="arrow.5_W" unicode="&#xe030;" horiz-adv-x="998" 
d="M499 -70q-84 0 -158 32t-129.5 87t-87.5 129.5t-32 158.5t32 158t87.5 129.5t129.5 87.5t158 32t158 -32t129.5 -87.5t87.5 -129.5t32 -158t-32 -158.5t-87.5 -129.5t-129.5 -87t-158 -32zM574 279h179v115h-179l-156 -6l32 27l127 123l28 23v9h-148l-203 -193l-44 -40
l44 -41l203 -193h148v9l-28 23l-130 124l-32 26z" />
    <glyph glyph-name="arrow.5_SW" unicode="&#xe031;" horiz-adv-x="998" 
d="M499 744q84 0 158 -32t129.5 -87.5t87.5 -129.5t32 -158t-32 -158.5t-87.5 -129.5t-129.5 -87t-158 -32t-158 32t-129.5 87t-87.5 129.5t-32 158.5t32 158t87.5 129.5t129.5 87.5t158 32zM408 354v171l1 36l-6 6l-106 -105v-275l-1 -58l58 1h273l99 100l-6 5h-199l-44 -2
l106 96l148 147l-83 84l-145 -145l-99 -105z" />
    <glyph glyph-name="arrow.5_S" unicode="&#xe032;" horiz-adv-x="998" 
d="M499 744q84 0 158 -32t129.5 -87.5t87.5 -129.5t32 -158t-32 -158.5t-87.5 -129.5t-129.5 -87t-158 -32t-158 32t-129.5 87t-87.5 129.5t-32 158.5t32 158t87.5 129.5t129.5 87.5t158 32zM420 290l-122 128l-23 28h-9v-145l192 -203l41 -44l41 44l192 203v145h-9l-23 -28
l-122 -125l-25 -29l5 151v176h-118v-176l5 -153z" />
    <glyph glyph-name="arrow.5_SE" unicode="&#xe033;" horiz-adv-x="998" 
d="M499 744q84 0 158 -32t129.5 -87.5t87.5 -129.5t32 -158t-32 -158.5t-87.5 -129.5t-129.5 -87t-158 -32t-158 32t-129.5 87t-87.5 129.5t-32 158.5t32 158t87.5 129.5t129.5 87.5t158 32zM495 415l-144 145l-84 -84l148 -147l106 -96l-44 2h-199l-6 -5l99 -100h273l59 -1
l-2 58v275l-106 105l-6 -6l1 -36v-171l4 -44z" />
    <glyph glyph-name="arrowhead.1_W" unicode="&#xe034;" 
d="M564 79h-18l-487 252v11l487 252h18l-3 -231h268v-53h-268z" />
    <glyph glyph-name="arrowhead.1_E" unicode="&#xe035;" 
d="M4 310v53h268l-3 231h18l487 -252v-11l-487 -252h-18l3 231h-268z" />
    <glyph glyph-name="arrowhead.2_W" unicode="&#xe036;" 
d="M613 310q2 -32 17.5 -60.5t38 -51.5t48 -39.5t47.5 -25.5l21 -9l-10 -27l-716 233v13l716 233l10 -27l-21 -9q-22 -9 -47.5 -26t-48 -39.5t-38 -51t-17.5 -60.5h216v-53h-216v0z" />
    <glyph glyph-name="arrowhead.2_E" unicode="&#xe037;" 
d="M4 310v53h216q-2 32 -17.5 60.5t-37.5 51t-48 39.5t-48 26l-21 9l10 27l716 -233v-13l-716 -233l-10 27l21 9q22 9 47.5 26t48 39.5t38 51t17.5 60.5h-216z" />
    <glyph glyph-name="arrowhead.3_W" unicode="&#xe038;" 
d="M829 363v-53h-157q0 -18 8.5 -40.5t23.5 -47t36.5 -48.5t47.5 -44l-18 -25q-54 26 -128.5 56.5t-165.5 60.5t-196.5 56.5t-220.5 46.5v24q115 19 220.5 46t196.5 56.5t165.5 60t128.5 57.5l18 -26q-26 -20 -47.5 -43.5t-36.5 -48t-23.5 -47.5t-8.5 -41h157z" />
    <glyph glyph-name="arrowhead.3_E" unicode="&#xe039;" 
d="M161 363q0 18 -8.5 41t-23.5 47.5t-36.5 48t-47.5 43.5l18 26q54 -27 128.5 -57.5t165.5 -60t196.5 -56.5t220.5 -46v-24q-115 -20 -220.5 -46.5t-196.5 -56.5t-165.5 -60.5t-128.5 -56.5l-18 25q26 20 47.5 44t36.5 48.5t23.5 47t8.5 40.5h-157v53h157v0z" />
    <glyph glyph-name="arrowhead.4_W" unicode="&#xe03a;" 
d="M774 363h55v-53h-55l-223 5q33 -16 62 -42.5t51.5 -57t38.5 -62.5t24 -59l-18 -10q-33 30 -63 57t-66 51.5t-80.5 45t-106 37t-143.5 29.5t-191 21v24q109 8 191 21t143.5 29.5t106 37t80.5 45t66 51.5t63 57l18 -10q-8 -27 -24 -59.5t-38.5 -63t-51.5 -57t-62 -41.5z
" />
    <glyph glyph-name="arrowhead.4_E" unicode="&#xe03b;" 
d="M282 359q-33 15 -62 41.5t-51.5 57t-38.5 63t-24 59.5l18 10q32 -30 62.5 -57t66.5 -51.5t80.5 -45t106 -37t143 -29.5t191.5 -21v-24q-110 -8 -191.5 -21t-143 -29.5t-106 -37t-80.5 -45t-66.5 -51.5t-62.5 -57l-18 10q8 27 24 59t38.5 62.5t51.5 57t62 42.5l-223 -5
h-55v53h55l223 -4v0z" />
    <glyph glyph-name="arrowhead.5_W" unicode="&#xe03c;" 
d="M241 363h588v-53h-588l-75 4l47 -38l254 -190v-7h-81l-326 253v9l326 253h81v-7l-257 -190l-48 -37z" />
    <glyph glyph-name="arrowhead.5_E" unicode="&#xe03d;" 
d="M593 310h-589v53h589l74 -3l-47 37l-254 190v7h81l326 -253v-9l-326 -253h-81v7l257 190l48 38z" />
    <glyph glyph-name="arrowtail.1_W" unicode="&#xe03e;" 
d="M204 355l162 180h62v-11l-120 -121l-53 -48h114l162 180h62v-11l-120 -121l-53 -48h113l163 180h62v-11l-120 -121l-51 -45h26l194 5v-53l-194 6h-26l51 -45l120 -121v-11h-62l-162 179h-114l53 -47l120 -121v-11h-62l-163 179h-113l53 -47l120 -121v-11h-62l-163 179
h-113l53 -47l120 -121v-11h-62l-155 171h-42v53h42l155 172h62v-11l-120 -121l-53 -48h114z" />
    <glyph glyph-name="arrowtail.1_E" unicode="&#xe03f;" 
d="M690 403l-119 121v11h61l155 -172h42v-53h-42l-155 -171h-61v11l119 121l53 47h-113l-163 -179h-61v11l119 121l53 47h-113l-163 -179h-61v11l119 121l53 47h-114l-162 -179h-61v11l119 121l51 45h-26l-194 -6v53l194 -5h26l-51 45l-119 121v11h61l163 -180h113l-53 48
l-119 121v11h61l162 -180h114l-53 48l-119 121v11h61l162 -180h114z" />
    <glyph glyph-name="arrowtail.2_W" unicode="&#xe040;" 
d="M4 363l100 106l25 33h667v-11l-87 -88l-75 -66l75 -66l87 -88v-11h-667l-25 33l-100 105v53z" />
    </font>
</defs>
</svg>
