<?xml version="1.0" standalone="no"?>
<!DOCTYPE svg PUBLIC "-//W3C//DTD SVG 1.1//EN" "http://www.w3.org/Graphics/SVG/1.1/DTD/svg11.dtd" >
<svg xmlns="http://www.w3.org/2000/svg" xmlns:xlink="http://www.w3.org/1999/xlink" version="1.1">
<metadata>
Created by FontForge 20190801 at Thu Mar 15 15:39:53 2018
 By Unknown
Copyright (C) 1996, 2011 Hoefler &#38; Co. http://www.typography.com
</metadata>
<defs>
<font id="Font" horiz-adv-x="833" >
  <font-face 
    font-family="Copyright (C) H&#38;Co | typography.com"
    font-weight="325"
    font-stretch="normal"
    units-per-em="1000"
    panose-1="0 0 0 0 0 0 0 0 0 0"
    ascent="800"
    descent="-200"
    x-height="503"
    cap-height="701"
    bbox="-104 -323 1659 1161.78"
    underline-thickness="50"
    underline-position="-100"
    unicode-range="U+0020-FB04"
  />
<missing-glyph horiz-adv-x="500" 
 />
    <glyph glyph-name="f_b" unicode="fb" horiz-adv-x="985" 
d="M58 0v25l78 21v398h-101v24l101 32v28q0 94 28 155.5t90 103.5q61 42 150 42q30 0 53.5 -7t40.5 -18l52 26l12 -9v-371l11 -2q38 34 73 53t85 19q38 0 74.5 -17t65 -49t46 -80t17.5 -109q0 -55 -20.5 -106t-58.5 -90.5t-91 -63t-119 -23.5q-22 0 -47 3t-49.5 8.5t-47 13
t-40.5 15.5v422h-224v-398l87 -21v-25h-266zM562 76q56 -53 127 -53q28 0 53.5 12t44.5 37.5t30 65t11 93.5q0 106 -44 160.5t-123 54.5q-30 0 -54.5 -9t-44.5 -20v-341zM461 690q-23 8 -39.5 31.5t-24.5 69.5q-75 -2 -117.5 -60t-42.5 -164v-70h224v193z" />
    <glyph glyph-name="f_f" unicode="ff" horiz-adv-x="708" 
d="M694 829q47 0 71.5 -20t24.5 -47q0 -26 -16 -42t-41 -16q-28 0 -49.5 18t-46.5 64q-37 -23 -55.5 -66t-18.5 -125v-98h139v-53h-139v-398l95 -21v-25h-273v25l77 21v398h-225v-398l87 -21v-25h-266v25l78 21v398h-101v24l101 32v18q0 95 29 156t91 101q62 39 145 39
q51 0 83 -18.5t43 -41.5l24 22q64 53 143 53zM462 497v55q0 37 4 67t13 56q-30 1 -53 24t-35 77q-72 -2 -113 -58.5t-41 -162.5v-58h225z" />
    <glyph glyph-name="f_h" unicode="fh" horiz-adv-x="1000" 
d="M562 821v-388l6 -2q19 17 39.5 33t43.5 28.5t49.5 20t56.5 7.5q72 0 107.5 -43t35.5 -112v-319l78 -21v-25h-252v25l73 21v283q0 56 -24 87.5t-78 31.5q-38 0 -69 -12.5t-66 -35.5v-354l72 -21v-25h-250v25l77 21v398h-224v-398l87 -21v-25h-266v25l78 21v398h-101v24
l101 32v28q0 94 28 155.5t90 103.5q61 42 150 42q30 0 53.5 -7t40.5 -18l52 26zM461 690q-23 8 -39.5 31.5t-24.5 69.5q-75 -2 -117.5 -60t-42.5 -164v-70h224v193z" />
    <glyph glyph-name="fi" unicode="fi" horiz-adv-x="671" 
d="M237 46l87 -21v-25h-266v25l78 21v398h-101v24l101 32v28q0 94 28 155.5t90 103.5q61 42 150 42q33 0 58 -8.5t42 -21t26 -28t9 -29.5q0 -26 -14 -41t-39 -15q-33 0 -56 24t-33 81q-75 -2 -117.5 -60t-42.5 -164v-70h215l103 25l7 -5v-471l74 -21v-25h-252v25l77 21v398
h-224v-398z" />
    <glyph glyph-name="f_j" unicode="fj" horiz-adv-x="663" 
d="M237 444v-398l87 -21v-25h-266v25l78 21v398h-101v24l101 32v28q0 94 28 155.5t90 103.5q61 42 150 42q33 0 58 -8.5t42 -21t26 -28t9 -29.5q0 -26 -14 -41t-39 -15q-33 0 -56 24t-33 81q-75 -2 -117.5 -60t-42.5 -164v-70h215l103 25l7 -5v-501q0 -36 -3 -63.5t-10 -50
t-17 -40.5t-25 -35q-28 -32 -62.5 -47t-74.5 -15q-37 0 -58.5 19t-21.5 41q0 24 15 38.5t36 14.5q26 0 44.5 -18t23.5 -56q27 14 39.5 47t12.5 94v499h-224z" />
    <glyph glyph-name="f_k" unicode="fk" horiz-adv-x="950" 
d="M461 690q-23 8 -39.5 31.5t-24.5 69.5q-75 -2 -117.5 -60t-42.5 -164v-70h224v193zM384 0v25l77 21v398h-224v-398l87 -21v-25h-266v25l78 21v398h-101v24l101 32v28q0 94 28 155.5t90 103.5q61 42 150 42q30 0 53.5 -7t40.5 -18l52 26l12 -9v-540h51l144 161l-61 39v22
h214v-26l-74 -29l-162 -151l195 -248l62 -24v-25h-222v25l46 23l-143 191h-50v-193l65 -21v-25h-243z" />
    <glyph glyph-name="fl" unicode="fl" horiz-adv-x="671" 
d="M636 25v-25h-252v25l77 21v398h-224v-398l87 -21v-25h-266v25l78 21v398h-101v24l101 32v28q0 94 28 155.5t90 103.5q61 42 150 42q30 0 53.5 -7t40.5 -18l52 26l12 -9v-775zM461 690q-23 8 -39.5 31.5t-24.5 69.5q-75 -2 -117.5 -60t-42.5 -164v-70h224v193z" />
    <glyph glyph-name="f_f_b" unicode="ffb" horiz-adv-x="1311" 
d="M730 829q29 0 53 -7t41 -18l52 26l12 -9v-371l11 -2q37 34 72.5 53t85.5 19q38 0 74 -17t64.5 -49t46 -80t17.5 -109q0 -55 -20.5 -106t-58 -90.5t-90.5 -63t-119 -23.5q-22 0 -47 3t-49.5 8.5t-47 13t-40.5 15.5v422h-224v-398l86 -21v-25h-264v25l77 21v398h-225v-398
l87 -21v-25h-266v25l78 21v398h-101v24l101 32v18q0 95 29 156t91 101q62 39 145 39q57 0 89.5 -21.5t41.5 -47.5q19 24 48 42q61 42 150 42zM462 497v31q0 88 25 147q-33 -1 -58 20.5t-38 80.5q-72 -2 -113 -58.5t-41 -162.5v-58h225zM1154 231q0 106 -44 160.5t-123 54.5
q-31 0 -55.5 -9t-43.5 -20v-341q56 -53 127 -53q28 0 53.5 12t44.5 37.5t30 65t11 93.5zM722 791q-75 -2 -117 -60t-42 -164v-70h224v193q-23 8 -39.5 31.5t-25.5 69.5z" />
    <glyph glyph-name="f_f_h" unicode="ffh" horiz-adv-x="1326" 
d="M462 497v31q0 88 25 147q-33 -1 -58 20.5t-38 80.5q-72 -2 -113 -58.5t-41 -162.5v-58h225zM787 690q-23 8 -39.5 31.5t-25.5 69.5q-75 -2 -117 -60t-42 -164v-70h224v193zM730 829q29 0 53 -7t41 -18l52 26l12 -9v-388l6 -2q37 35 82.5 62t105.5 27q72 0 108 -43
t36 -112v-319l78 -21v-25h-252v25l73 21v283q0 56 -24 87.5t-78 31.5q-38 0 -69 -12.5t-66 -35.5v-354l72 -21v-25h-250v25l77 21v398h-224v-398l86 -21v-25h-264v25l77 21v398h-225v-398l87 -21v-25h-266v25l78 21v398h-101v24l101 32v18q0 95 29 156t91 101q62 39 145 39
q57 0 89.5 -21.5t41.5 -47.5q19 24 48 42q61 42 150 42z" />
    <glyph glyph-name="f_f_i" unicode="ffi" horiz-adv-x="997" 
d="M462 497v31q0 88 25 147q-34 -1 -58.5 20.5t-37.5 80.5q-72 -2 -113 -58.5t-41 -162.5v-58h225zM730 829q33 0 58 -8.5t42 -21t26 -28t9 -29.5q0 -26 -14 -41t-40 -15q-32 0 -55 24t-34 81q-75 -2 -117 -60t-42 -164v-70h215l103 25l7 -5v-471l74 -21v-25h-252v25l77 21
v398h-224v-398l86 -21v-25h-264v25l77 21v398h-225v-398l87 -21v-25h-266v25l78 21v398h-101v24l101 32v18q0 95 29 156t91 101q62 39 145 39q57 0 89.5 -21.5t41.5 -47.5q19 24 48 42q61 42 150 42z" />
    <glyph glyph-name="f_f_j" unicode="ffj" horiz-adv-x="988" 
d="M462 497v31q0 88 25 147q-34 -1 -58.5 20.5t-37.5 80.5q-72 -2 -113 -58.5t-41 -162.5v-58h225zM730 829q33 0 58 -8.5t42 -21t26 -28t9 -29.5q0 -26 -14 -41t-40 -15q-32 0 -55 24t-34 81q-75 -2 -117 -60t-42 -164v-70h215l103 25l7 -5v-501q0 -36 -3 -63.5t-10 -50
t-17 -40.5t-25 -35q-28 -32 -62.5 -47t-74.5 -15q-38 0 -59 19t-21 41q0 24 14.5 38.5t36.5 14.5q26 0 44 -18t24 -56q26 14 39 47t13 94v499h-224v-398l86 -21v-25h-264v25l77 21v398h-225v-398l87 -21v-25h-266v25l78 21v398h-101v24l101 32v18q0 95 29 156t91 101
q62 39 145 39q57 0 89.5 -21.5t41.5 -47.5q19 24 48 42q61 42 150 42z" />
    <glyph glyph-name="f_f_k" unicode="ffk" horiz-adv-x="1275" 
d="M532 745q19 24 48 42q61 42 150 42q29 0 53 -7t41 -18l52 26l12 -9v-540h51l143 161l-60 39v22h214v-26l-75 -29l-161 -151l195 -248l61 -24v-25h-221v25l46 23l-143 191h-50v-193l65 -21v-25h-243v25l77 21v398h-224v-398l86 -21v-25h-264v25l77 21v398h-225v-398
l87 -21v-25h-266v25l78 21v398h-101v24l101 32v18q0 95 29 156t91 101q62 39 145 39q57 0 89.5 -21.5t41.5 -47.5zM787 690q-23 8 -39.5 31.5t-25.5 69.5q-75 -2 -117 -60t-42 -164v-70h224v193zM462 497v31q0 88 25 147q-33 -1 -58 20.5t-38 80.5q-72 -2 -113 -58.5
t-41 -162.5v-58h225z" />
    <glyph glyph-name="f_f_l" unicode="ffl" horiz-adv-x="997" 
d="M532 745q19 24 48 42q61 42 150 42q29 0 53 -7t41 -18l52 26l12 -9v-775l74 -21v-25h-252v25l77 21v398h-224v-398l86 -21v-25h-264v25l77 21v398h-225v-398l87 -21v-25h-266v25l78 21v398h-101v24l101 32v18q0 95 29 156t91 101q62 39 145 39q57 0 89.5 -21.5
t41.5 -47.5zM787 497v193q-23 8 -39.5 31.5t-25.5 69.5q-75 -2 -117 -60t-42 -164v-70h224zM462 497v31q0 88 25 147q-33 -1 -58 20.5t-38 80.5q-72 -2 -113 -58.5t-41 -162.5v-58h225z" />
    <glyph glyph-name=".notdef" horiz-adv-x="500" 
 />
    <glyph glyph-name="NUL" horiz-adv-x="0" 
 />
    <glyph glyph-name="nonmarkingreturn" horiz-adv-x="251" 
 />
    <glyph glyph-name="space" unicode=" " horiz-adv-x="251" 
 />
    <glyph glyph-name="D" unicode="D" horiz-adv-x="825" 
d="M40 672v29h346q90 0 161.5 -26.5t120.5 -73t75 -110.5t26 -139q0 -76 -28 -140.5t-79.5 -111.5t-123.5 -73.5t-159 -26.5h-339v29l117 21v601zM638 351q0 84 -21.5 142t-58.5 94t-87 52.5t-107 16.5l-93 1v-613l117 1q54 0 100 16t79 52t52 94.5t19 143.5z" />
    <glyph glyph-name="E" unicode="E" horiz-adv-x="722" 
d="M629 509l-17 -8l-78 94q-14 18 -25.5 29t-25 17.5t-31 9t-43.5 2.5l-138 1v-280h66q24 0 41 4t29.5 15t21.5 29.5t17 47.5l11 36h23v-306h-24l-10 34q-8 29 -17 48t-21.5 30t-29.5 15.5t-41 4.5h-66v-284l187 1q24 0 40.5 2t29 7.5t22.5 15.5t21 25l88 120l18 -5
l-29 -214h-608v29l117 21v601l-117 21v29h564z" />
    <glyph glyph-name="F" unicode="F" horiz-adv-x="667" 
d="M612 501l-78 94q-14 17 -25.5 28.5t-25 18t-30.5 9t-43 2.5l-139 1v-286h68q24 0 40.5 4.5t28 16t20 30t16.5 46.5l10 36h24v-306h-24l-10 34q-9 28 -17 47t-19.5 30t-28 15.5t-40.5 4.5h-68v-276l124 -21v-29h-355v29l117 21v601l-117 21v29h565l25 -192z" />
    <glyph glyph-name="G" unicode="G" horiz-adv-x="790" 
d="M635 479q-27 54 -54.5 92t-56.5 61.5t-60 34t-67 10.5q-39 0 -77 -17.5t-67.5 -55.5t-47.5 -97t-18 -143q0 -83 19.5 -145t54 -102.5t81.5 -60.5t103 -20q33 0 63.5 9.5t55.5 21.5v198l-105 20v29h306v-29l-89 -20v-273l-24 -5l-67 53q-40 -26 -87.5 -41.5t-102.5 -15.5
q-75 0 -137.5 26.5t-107.5 73.5t-70 113t-25 146q0 77 28 145t78 119t118.5 81t150.5 30q44 0 86 -8.5t74 -25.5l37 38h26l8 -240z" />
    <glyph glyph-name="H" unicode="H" horiz-adv-x="911" 
d="M640 651l-110 21v29h342v-29l-117 -21v-601l117 -21v-29h-342v29l110 21v289h-369v-289l111 -21v-29h-342v29l117 21v601l-117 21v29h342v-29l-111 -21v-263h369v263z" />
    <glyph glyph-name="I" unicode="I" horiz-adv-x="460" 
d="M407 29v-29h-355v29l120 21v601l-120 21v29h355v-29l-120 -21v-601z" />
    <glyph glyph-name="J" unicode="J" horiz-adv-x="582" 
d="M432 257q0 -37 -2 -66.5t-8 -54.5t-17 -46t-29 -40q-29 -31 -74 -50.5t-110 -19.5q-43 0 -72.5 8.5t-48 22.5t-27 31.5t-8.5 36.5q0 31 21.5 49.5t49.5 18.5q38 0 60.5 -33t21.5 -98q64 5 96.5 49.5t32.5 140.5v445l-118 21v29h347v-29l-115 -21v-394v0z" />
    <glyph glyph-name="K" unicode="K" horiz-adv-x="802" 
d="M697 62l92 -33v-29h-294v26l72 26l-211 283h-85v-285l107 -21v-29h-338v29l117 21v601l-117 21v29h338v-29l-107 -21v-269h93l220 255l-82 36v28h254v-29l-100 -40l-226 -236z" />
    <glyph glyph-name="L" unicode="L" horiz-adv-x="695" 
d="M623 0h-583v29l117 21v601l-117 21v29h353v-29l-122 -21v-603h159q24 0 40.5 4t29 11.5t23 19.5t22.5 28l89 121l18 -4z" />
    <glyph glyph-name="M" unicode="M" horiz-adv-x="1059" 
d="M1020 29v-29h-347v29l115 21v588h-13l-249 -638h-57l-249 638h-13v-578l97 -31v-29h-250v29l98 31v589l-98 23v29h267l40 -114l162 -438h16l162 438l41 114h278v-29l-117 -21v-601z" />
    <glyph glyph-name="N" unicode="N" horiz-adv-x="853" 
d="M152 640l-96 30v31h232l81 -113l277 -390h12v443l-107 31v29h259v-29l-97 -31v-648h-60l-80 113l-352 490h-14v-536l107 -31v-29h-259v29l97 31v580z" />
    <glyph glyph-name="O" unicode="O" horiz-adv-x="800" 
d="M742 351q0 -75 -24 -141.5t-69 -117t-109 -80t-144 -29.5q-84 0 -148 29.5t-107 80t-64.5 117t-21.5 141.5q0 74 24 140.5t69 116.5t109.5 79.5t144.5 29.5q84 0 148 -29.5t106.5 -79.5t64 -116.5t21.5 -140.5zM611 351q0 85 -19.5 147.5t-51.5 103.5t-72 61t-81 20
q-38 0 -73.5 -16t-64 -54.5t-45.5 -102.5t-17 -159t19.5 -159t51.5 -102.5t71.5 -55t80.5 -16.5q37 0 73.5 20t64.5 61.5t45.5 104t17.5 147.5z" />
    <glyph glyph-name="P" unicode="P" horiz-adv-x="676" 
d="M628 503q0 -44 -17.5 -82t-49.5 -66t-76 -44.5t-98 -16.5q-26 0 -58 2.5t-58 7.5v-254l122 -21v-29h-353v29l117 21v601l-117 21v29h331q60 0 107.5 -15t81 -41.5t51 -62.5t17.5 -79zM502 500q0 84 -42.5 122t-114.5 39q-18 0 -38.5 -1.5t-35.5 -4.5v-313
q14 -2 31.5 -3.5t39.5 -1.5q75 0 117.5 38.5t42.5 124.5z" />
    <glyph glyph-name="Q" unicode="Q" horiz-adv-x="800" 
d="M742 351q0 -75 -21.5 -135.5t-58.5 -105.5t-88 -74.5t-109 -42.5q70 -106 130 -145q32 -21 66 -32t81 -16l-3 -25h-109q-60 0 -99 7.5t-67 27.5q-8 6 -16 14.5t-17 20.5t-19.5 29t-23.5 40l-44 74q-68 12 -121.5 42t-90.5 76.5t-57 108t-20 136.5q0 74 24 140.5t69 116.5
t109.5 79.5t144.5 29.5q84 0 148 -29.5t106.5 -79.5t64 -116.5t21.5 -140.5zM611 351q0 85 -19.5 147.5t-51.5 103.5t-72 61t-81 20q-38 0 -73.5 -16t-64 -54.5t-45.5 -102.5t-17 -159t19.5 -159t51.5 -103t71.5 -55.5t80.5 -16.5q37 0 73.5 20.5t64.5 61.5t45.5 104
t17.5 148z" />
    <glyph glyph-name="R" unicode="R" horiz-adv-x="747" 
d="M639 522q0 -67 -53 -111.5t-150 -63.5v-13q48 -14 79.5 -45t50.5 -69q23 -46 43 -86.5t40 -60.5q18 -19 42.5 -29.5t62.5 -15.5v-28h-111q-32 0 -54.5 6t-39 20t-30.5 36t-30 55l-59 124q-11 24 -22.5 39.5t-25 24.5t-31 12.5t-40.5 3.5h-40v-271l112 -21v-29h-343v29
l117 21v601l-117 21v29h335q62 0 111 -13t83 -36t52 -56.5t18 -73.5zM513 515q0 77 -45.5 111t-120.5 34q-20 0 -40.5 -1t-35.5 -4v-292h76q74 1 120 37.5t46 114.5z" />
    <glyph glyph-name="S" unicode="S" horiz-adv-x="600" 
d="M537 207q0 -57 -21.5 -99t-55.5 -69.5t-76 -41.5t-82 -14q-45 0 -88.5 9.5t-75.5 26.5l-33 -38h-29l-13 242l29 2q27 -61 50.5 -101t48 -64t52 -33.5t62.5 -9.5q60 0 98.5 34t38.5 94q0 25 -6 46t-21 38.5t-40.5 33.5t-64.5 33q-26 11 -51.5 21t-51.5 23q-59 29 -90 69.5
t-31 106.5q0 48 18 85t47.5 63t67.5 39.5t78 13.5q43 0 73 -9t56 -25l34 37h28l19 -212l-29 -3q-23 49 -44 83t-43 55t-46.5 30.5t-54.5 9.5q-45 0 -77 -29.5t-32 -83.5q0 -45 23.5 -76.5t83.5 -57.5q29 -12 58 -23.5t59 -26.5q67 -32 99.5 -75t32.5 -104z" />
    <glyph glyph-name="T" unicode="T" horiz-adv-x="754" 
d="M700 480l-65 88q-20 27 -34.5 44t-28 27t-29 14t-36.5 4h-67v-607l124 -21v-29h-363v29l124 21v607h-74q-21 0 -37 -4t-30 -14.5t-28.5 -27.5t-33.5 -43l-64 -88l-19 7l38 214h604l38 -214z" />
    <glyph glyph-name="U" unicode="U" horiz-adv-x="832" 
d="M547 672v29h247v-29l-97 -31v-396q0 -55 -18 -103t-52.5 -83.5t-85.5 -56t-117 -20.5q-137 0 -210 59.5t-73 185.5v424l-107 21v29h340v-29l-117 -21v-405q0 -57 14 -96.5t40 -64t63.5 -36t84.5 -11.5q44 0 78 16t57.5 43.5t35.5 65t12 81.5v397z" />
    <glyph glyph-name="V" unicode="V" horiz-adv-x="761" 
d="M413 -7h-52l-262 653l-96 26v29h333v-29l-112 -21l195 -516l195 504l-88 33v29h236v-29l-90 -33z" />
    <glyph glyph-name="W" unicode="W" horiz-adv-x="1120" 
d="M813 151h3l156 489l-87 32v29h231v-29l-91 -33l-220 -646h-48l-185 510h-3l-200 -510h-47l-216 653l-96 26v29h322v-29l-104 -20l151 -501h2l164 428l-24 67l-88 26v29h305v-29l-99 -21z" />
    <glyph glyph-name="X" unicode="X" horiz-adv-x="806" 
d="M450 378l226 -324l95 -25v-29h-325v26l98 21l-159 254l-182 -248l84 -27v-26h-248v29l95 30l224 276l-215 311l-100 26v29h330v-27l-99 -20l151 -243l173 236l-84 27v27h248v-29l-96 -30z" />
    <glyph glyph-name="Y" unicode="Y" horiz-adv-x="742" 
d="M438 310v-259l124 -22v-29h-363v29l124 22v239l-222 355l-97 27v29h321v-29l-97 -21l185 -307l178 300l-93 28v29h244v-29l-86 -31z" />
    <glyph glyph-name="Z" unicode="Z" horiz-adv-x="722" 
d="M639 0h-585l-4 18l458 638l-203 -1q-24 0 -40.5 -4t-30.5 -12t-26 -21.5t-27 -31.5l-78 -92l-17 7l25 200h540l4 -19l-457 -636h251q22 0 38 3.5t28.5 11t23 19t22.5 28.5l88 122l18 -4z" />
    <glyph glyph-name="a" unicode="a" horiz-adv-x="547" 
d="M449 85q0 -25 18.5 -36.5t73.5 -9.5l2 -19q-18 -11 -52 -21.5t-66 -10.5q-33 0 -50 17.5t-20 61.5l-11 2q-40 -39 -78.5 -60t-80.5 -21q-58 0 -92 32t-34 84q0 37 21.5 68t59.5 54t91.5 38t118.5 21v67q0 65 -28 90t-88 25q-28 0 -47.5 -6.5t-33.5 -14.5q18 -13 29.5 -28
t11.5 -32q0 -25 -16.5 -41t-41.5 -16q-26 0 -43 16.5t-17 42.5q0 28 20 52t52.5 41.5t72.5 27.5t81 10q76 0 111.5 -36t35.5 -113v-285zM350 251q-51 0 -87.5 -9t-60.5 -24t-35 -35.5t-11 -44.5q0 -41 21.5 -62.5t60.5 -21.5q22 0 51.5 11.5t60.5 32.5v153z" />
    <glyph glyph-name="b" unicode="b" horiz-adv-x="614" 
d="M562 265q0 -55 -20.5 -106t-58 -90.5t-91 -63t-118.5 -23.5q-23 0 -47.5 3t-49 8.5t-47 13t-40.5 15.5v702l-86 39v21l175 46l12 -9v-371l10 -2q38 34 73.5 53t85.5 19q38 0 74 -17t64.5 -49t46 -80t17.5 -109zM457 231q0 106 -44 160.5t-123 54.5q-31 0 -55.5 -9
t-43.5 -20v-341q56 -53 127 -53q28 0 53 12t44 37.5t30.5 65t11.5 93.5z" />
    <glyph glyph-name="c" unicode="c" horiz-adv-x="537" 
d="M486 416q0 -30 -18 -50t-45 -20q-32 0 -49.5 22t-17.5 49q0 36 18 59q-10 3 -20 5t-24 2q-33 0 -64.5 -13.5t-56.5 -42t-40.5 -71.5t-15.5 -101q0 -48 14.5 -85.5t40 -63.5t59 -39.5t72.5 -13.5q41 0 73 10.5t73 31.5l11 -17q-43 -48 -93.5 -72t-106.5 -24
q-54 0 -99.5 18.5t-78.5 52t-51.5 80t-18.5 103.5q0 61 20.5 113t57.5 90t88 59.5t113 21.5q75 0 117 -30t42 -74z" />
    <glyph glyph-name="d" unicode="d" horiz-adv-x="637" 
d="M602 43v-19l-160 -42l-13 8l8 83l-11 2l-1 -1q-19 -18 -38 -34.5t-40 -29t-46 -20t-55 -7.5q-36 0 -71 17t-62 48.5t-44 76.5t-17 102q0 64 20.5 118t58 93t90 61t115.5 22q25 0 46 -3.5t41 -8.5v215l-85 39v21l174 46l12 -9v-741zM157 267q0 -100 40 -157t112 -57
q29 0 57.5 13t56.5 36v317q-28 29 -60 45.5t-70 16.5q-58 0 -97 -52t-39 -162z" />
    <glyph glyph-name="e" unicode="e" horiz-adv-x="554" 
d="M155 276q-3 -103 41.5 -161.5t141.5 -58.5q40 0 74.5 12t81.5 38l10 -24q-53 -49 -103.5 -74.5t-105.5 -25.5t-100.5 19t-78 53t-50.5 82t-18 107t19.5 110t53.5 88t79.5 58t97.5 21q54 0 93.5 -20t65.5 -54t38.5 -78t12.5 -92h-353zM397 318q-6 166 -109 166
q-55 0 -91 -48t-41 -126z" />
    <glyph glyph-name="f" unicode="f" horiz-adv-x="382" 
d="M237 444v-398l95 -21v-25h-274v25l78 21v398h-101v24l101 32v52q0 83 22 135t67 89q64 53 144 53q47 0 71 -20t24 -47q0 -26 -15.5 -42t-41.5 -16q-28 0 -49.5 18t-46.5 64q-37 -23 -55.5 -66t-18.5 -125v-98h139v-53h-139z" />
    <glyph glyph-name="g" unicode="g" horiz-adv-x="569" 
d="M467 349q0 -40 -15.5 -71.5t-42.5 -54t-64.5 -34.5t-81.5 -12q-24 0 -42 3t-35 10q-12 -11 -23 -25.5t-11 -31.5q0 -25 19.5 -34.5t61.5 -10.5l133 -2q170 -3 170 -125q0 -36 -19.5 -71t-56.5 -63t-90.5 -45t-121.5 -17q-56 0 -98.5 10t-71 26.5t-42.5 39t-14 46.5
q0 35 30 69.5t81 54.5l-1 10q-33 11 -51 27t-18 42q0 51 91 106v8q-42 22 -67 59.5t-25 85.5q0 39 16.5 71t44.5 54t65.5 34t79.5 12q49 0 82 -13t59 -32l98 44h59v-95h-22l-103 20l-5 -7q14 -17 22.5 -40.5t8.5 -47.5zM365 349q0 64 -26 101.5t-74 37.5q-22 0 -40.5 -7
t-32 -23.5t-21 -43t-7.5 -65.5q0 -41 7 -68.5t20.5 -43.5t33 -22.5t44.5 -6.5q44 0 70 38t26 103zM457 -83q0 45 -30.5 63.5t-87.5 20.5l-176 2q-20 -14 -33 -37t-13 -52q0 -48 43 -79t128 -31q38 0 69 9.5t53.5 25t34.5 36t12 42.5z" />
    <glyph glyph-name="h" unicode="h" horiz-adv-x="656" 
d="M455 329q0 56 -24 87.5t-78 31.5q-38 0 -69 -12.5t-66 -35.5v-354l72 -21v-25h-251v25l78 21v678l-86 39v21l175 46l12 -9v-388l5 -2q38 35 83.5 62t105.5 27q72 0 108 -43t36 -112v-319l78 -21v-25h-253v25l74 21v283v0z" />
    <glyph glyph-name="i" unicode="i" horiz-adv-x="334" 
d="M99 718q0 14 5.5 28t15.5 24.5t23.5 17t30.5 6.5q31 0 50.5 -20t19.5 -49q0 -30 -21 -54t-55 -24q-30 0 -49.5 20.5t-19.5 50.5zM47 460v21l171 41l7 -5v-471l74 -21v-25h-253v25l78 21v376z" />
    <glyph glyph-name="j" unicode="j" horiz-adv-x="329" 
d="M102 718q0 15 6 28.5t16.5 24t24 17t29.5 6.5q30 0 50 -20t20 -49q0 -15 -6 -29.5t-16.5 -25t-24.5 -17t-30 -6.5q-29 0 -49 20t-20 51zM228 16q0 -36 -3 -63.5t-9.5 -50t-16.5 -40.5t-25 -35q-29 -32 -63.5 -47t-74.5 -15q-37 0 -58 19t-21 41q0 24 14.5 38.5t36.5 14.5
q26 0 44 -18t24 -56q26 14 38.5 47t12.5 94v477l-76 38v21l170 41l7 -5v-501z" />
    <glyph glyph-name="k" unicode="k" horiz-adv-x="605" 
d="M525 49l61 -24v-25h-221v25l45 23l-142 191h-50v-193l65 -21v-25h-244v25l78 21v678l-86 39v21l175 46l12 -9v-540h50l144 161l-60 39v22h213v-26l-74 -29l-162 -151z" />
    <glyph glyph-name="l" unicode="l" horiz-adv-x="332" 
d="M297 25v-25h-254v25l79 21v678l-86 39v21l174 46l13 -9v-775z" />
    <glyph glyph-name="m" unicode="m" horiz-adv-x="955" 
d="M755 326q0 60 -21 91t-71 31q-32 0 -63 -15.5t-64 -38.5v-348l76 -21v-25h-248v25l71 21v280q0 59 -21 90t-70 31q-33 0 -62.5 -12.5t-61.5 -34.5v-354l72 -21v-25h-251v25l78 21v376l-77 38v21l164 41l12 -10l-8 -83l11 -3q50 48 92.5 71t87.5 23q28 0 49 -8t36 -21.5
t24.5 -31t15.5 -36.5l10 -2q46 44 90.5 71.5t94.5 27.5q63 0 98 -40.5t35 -114.5v-319l79 -21v-25h-251v25l73 21v280v0z" />
    <glyph glyph-name="n" unicode="n" horiz-adv-x="647" 
d="M546 46l78 -21v-25h-252v25l73 21v283q0 57 -23.5 88t-75.5 31q-33 0 -62.5 -13t-63.5 -35v-354l73 -21v-25h-252v25l78 21v376l-77 38v21l164 41l13 -10l-8 -83l10 -3q51 48 94.5 71t89.5 23q67 0 104 -39.5t37 -115.5v-319z" />
    <glyph glyph-name="o" unicode="o" horiz-adv-x="604" 
d="M556 254q0 -53 -17.5 -102.5t-51 -87t-82 -60t-110.5 -22.5q-60 0 -106 20.5t-77.5 57t-47.5 85.5t-16 106q0 54 18 102.5t51.5 85.5t82 59t110.5 22q60 0 106 -20t77 -56t47 -84.5t16 -105.5zM441 254q0 60 -10.5 103t-29.5 71.5t-45 42t-57 13.5q-58 0 -97 -57
t-39 -179q0 -60 11.5 -103t31 -71t45 -41.5t54.5 -13.5q61 0 98.5 56.5t37.5 178.5z" />
    <glyph glyph-name="p" unicode="p" horiz-adv-x="637" 
d="M585 276q0 -56 -18.5 -109t-54 -94t-86.5 -66t-115 -25q-52 0 -97 12v-177l94 -27v-25h-273v25l78 27v605l-77 38v20l164 42l12 -10l-7 -81l10 -3q42 43 79.5 67.5t87.5 24.5q42 0 79 -18t64.5 -50.5t43.5 -77t16 -98.5zM480 238q0 104 -41.5 156t-111.5 52
q-31 0 -57.5 -13t-55.5 -33v-316q29 -29 59.5 -45t70.5 -16q27 0 51.5 12t43 38t30 66.5t11.5 98.5z" />
    <glyph glyph-name="q" unicode="q" horiz-adv-x="614" 
d="M329 -235v25l94 27v233l-11 3l-1 -1q-38 -34 -73 -52t-78 -18q-39 0 -76.5 16.5t-66.5 48.5t-47 79.5t-18 109.5q0 58 21.5 109.5t59.5 90.5t90 61.5t113 22.5q32 0 63 -6.5t58 -17.5l47 48l20 -3v-724l78 -27v-25h-273zM321 57q62 0 102 31v335q-26 26 -56.5 41.5
t-67.5 15.5q-28 0 -53.5 -12t-45 -37t-31.5 -65t-12 -95q0 -102 43.5 -158t120.5 -56z" />
    <glyph glyph-name="r" unicode="r" horiz-adv-x="473" 
d="M450 447q0 -33 -18.5 -52t-44.5 -19q-32 0 -47.5 22.5t-11.5 50.5q-14 1 -29 -5t-29 -17.5t-27 -27t-23 -32.5v-321l83 -21v-25h-262v25l78 21v376l-77 38v21l164 41l13 -10l-10 -99l12 -4q35 58 70 84.5t77 26.5q37 0 59.5 -20.5t22.5 -52.5z" />
    <glyph glyph-name="s" unicode="s" horiz-adv-x="474" 
d="M425 153q0 -38 -15 -69t-42 -53t-63.5 -33.5t-79.5 -11.5q-48 0 -87.5 7t-81.5 23v143l28 2q31 -77 67.5 -109t91.5 -32q46 0 72.5 22.5t26.5 66.5q0 16 -6.5 29.5t-21 26t-38.5 24t-59 25.5q-35 13 -63.5 27t-48.5 31.5t-31 40t-11 53.5q0 32 13 60t37 49t58 33.5
t76 12.5q46 0 83.5 -7t62.5 -16l4 -126l-26 -5q-17 33 -33 56t-33 37.5t-36 20.5t-41 6q-38 0 -62.5 -21.5t-24.5 -53.5q0 -16 6 -29t19.5 -24t35.5 -22t54 -23q45 -17 77.5 -33t52.5 -34.5t29.5 -41t9.5 -52.5z" />
    <glyph glyph-name="t" unicode="t" horiz-adv-x="396" 
d="M384 41q-36 -22 -77.5 -36.5t-83.5 -14.5q-114 0 -114 130v328h-87v25l98 49l57 132h32v-147h172v-59h-172v-293q0 -32 5.5 -51.5t23.5 -31.5q11 -8 27.5 -11t45.5 -3q14 0 33 1.5t39 4.5l1 -23v0z" />
    <glyph glyph-name="u" unicode="u" horiz-adv-x="641" 
d="M606 45v-22l-165 -40l-12 8l8 83l-11 2q-50 -47 -91.5 -70.5t-90.5 -23.5q-36 0 -62.5 12.5t-44.5 34t-27 50.5t-9 63v287l-77 36v16l166 41l12 -10v-333q0 -63 24 -93t75 -30q33 0 63.5 12.5t62.5 34.5v326l-78 36v16l167 41l12 -10v-445z" />
    <glyph glyph-name="v" unicode="v" horiz-adv-x="575" 
d="M315 123h9l55 142l60 180l-75 33v25h212v-26l-80 -35l-187 -454h-41l-196 465l-69 24v26h257v-25l-73 -24z" />
    <glyph glyph-name="w" unicode="w" horiz-adv-x="893" 
d="M624 120h5l122 325l-69 33v25h205v-26l-81 -35l-195 -454h-34l-120 323l-158 -323h-35l-185 465l-68 24v26h249v-25l-72 -24l127 -343h5l117 253l-33 90l-61 24v25h239v-25l-73 -24z" />
    <glyph glyph-name="x" unicode="x" horiz-adv-x="613" 
d="M434 451l-57 30v22h194v-26l-80 -34l-147 -171l173 -223l68 -24v-25h-257v22l70 23l-114 164l-114 -158l56 -29v-22h-193v25l80 33l148 177l-167 219l-69 23v26h257v-22l-71 -23l109 -159z" />
    <glyph glyph-name="y" unicode="y" horiz-adv-x="567" 
d="M279 -81q-17 -43 -34.5 -72.5t-37 -47.5t-41 -26t-46.5 -8q-42 0 -61 20.5t-19 44.5t17.5 40.5t42.5 16.5q27 0 44.5 -14.5t35.5 -38.5q32 30 58 86l30 68l-197 465l-68 24v26h252v-25l-68 -25l130 -338h5l116 330l-79 33v25h209v-26l-75 -35z" />
    <glyph glyph-name="z" unicode="z" horiz-adv-x="560" 
d="M178 40h198l111 123l22 -7l-18 -156h-444l-4 16l333 446h-183l-102 -122l-21 6l14 157h424l4 -16z" />
    <glyph glyph-name="a.sc" horiz-adv-x="622" 
d="M283 463h-9l-86 -238h182zM126 56l74 -32v-24h-203v25l74 34l198 504h82l197 -514l68 -24v-25h-265v24l85 21l-51 140h-212z" />
    <glyph glyph-name="b.sc" horiz-adv-x="606" 
d="M557 157q0 -33 -14.5 -61.5t-41.5 -50t-65.5 -33.5t-85.5 -12h-305v25l87 19v464l-87 18v27h288q49 0 85.5 -10t61 -26.5t36.5 -39.5t12 -48q0 -51 -34.5 -83t-98.5 -48v-12q81 -11 121.5 -44.5t40.5 -84.5zM305 305q57 1 87 32.5t30 77.5q0 29 -10.5 48.5t-28 31.5
t-39.5 17t-44 5q-15 0 -33.5 -1t-26.5 -3v-208h65zM439 152q0 56 -34 87t-101 31h-64v-230q11 -2 30.5 -3.5t35.5 -1.5q63 0 98 29t35 88z" />
    <glyph glyph-name="c.sc" horiz-adv-x="623" 
d="M546 31q-42 -20 -89 -34t-105 -14q-67 0 -122.5 19t-95.5 55.5t-62.5 89.5t-22.5 121q0 67 24.5 122t66.5 95t98 62t119 22q35 0 71 -8.5t62 -20.5l29 32h23l15 -200l-34 -3q-23 45 -43 76t-41 50.5t-43.5 28t-50.5 8.5q-35 0 -66.5 -15.5t-55.5 -46.5t-38.5 -79
t-14.5 -112q0 -68 16 -116.5t43.5 -79t64.5 -45t78 -14.5q18 0 37.5 4t34.5 12l95 161l27 -8z" />
    <glyph glyph-name="d.sc" horiz-adv-x="680" 
d="M45 526v27h283q72 0 128.5 -20.5t95.5 -56.5t59.5 -86.5t20.5 -110.5q0 -58 -21 -108.5t-61 -88.5t-98 -60t-131 -22h-276v25l87 19v464zM511 276q0 64 -15.5 109t-42.5 73t-63.5 41t-79.5 13h-70v-472h85q39 0 72.5 12t59 40t40 73t14.5 111z" />
    <glyph glyph-name="e.sc" horiz-adv-x="608" 
d="M542 390l-23 -5l-56 75q-20 27 -41.5 38.5t-62.5 11.5h-119v-209h34q35 0 59.5 15t40.5 50l13 30h23v-230h-23l-14 31q-29 66 -99 66h-34v-221l143 1q38 0 56.5 10.5t34.5 32.5l68 96l23 -4l-22 -178h-498v25l87 19v464l-87 18v27h480z" />
    <glyph glyph-name="f.sc" horiz-adv-x="571" 
d="M514 381l-56 79q-18 25 -41 37.5t-63 12.5h-114v-221h39q32 0 55 14.5t39 50.5l14 30h23v-230h-23l-14 30q-29 66 -94 66h-39v-206l95 -19v-25h-290v25l87 19v464l-87 18v27h475l15 -168z" />
    <glyph glyph-name="g.sc" horiz-adv-x="649" 
d="M512 371q-38 81 -78.5 121t-94.5 40q-30 0 -60.5 -13.5t-54.5 -42.5t-39 -75t-15 -112q0 -67 16 -116t42.5 -80.5t60.5 -46.5t71 -15q23 0 46.5 7.5t39.5 19.5v158l-89 19v26h258v-25l-65 -18v-228l-24 -3l-55 50q-30 -24 -68.5 -39t-80.5 -15q-59 0 -109 20.5t-86.5 58
t-57 90t-20.5 116.5t24 119.5t65.5 95.5t97 63t117.5 23q74 0 129 -29l29 32h26l7 -199z" />
    <glyph glyph-name="h.sc" horiz-adv-x="749" 
d="M508 508l-82 18v27h278v-27l-89 -18v-464l89 -19v-25h-278v25l82 19v218h-268v-218l81 -19v-25h-276v25l87 19v464l-87 18v27h276v-27l-81 -18v-201h268v201z" />
    <glyph glyph-name="i.sc" horiz-adv-x="404" 
d="M347 25v-25h-290v25l91 19v464l-91 18v27h290v-27l-91 -18v-464z" />
    <glyph glyph-name="j.sc" horiz-adv-x="502" 
d="M387 224q0 -63 -11.5 -104.5t-41.5 -73.5q-26 -28 -66.5 -45.5t-105.5 -17.5q-60 0 -98 25.5t-38 66.5q0 26 17.5 44t43.5 18q39 0 58 -32.5t17 -87.5q55 5 86 45t31 129v317l-94 18v27h288v-27l-86 -18v-284v0z" />
    <glyph glyph-name="k.sc" horiz-adv-x="670" 
d="M578 52l68 -27v-25h-245v21l59 22l-151 216h-69v-215l77 -19v-25h-272v25l87 19v464l-87 18v27h273v-27l-78 -18v-205h74l162 194l-72 30v26h229v-27l-84 -32l-167 -177z" />
    <glyph glyph-name="l.sc" horiz-adv-x="573" 
d="M510 0h-465v25l87 19v464l-87 18v27h288v-27l-93 -18v-466l95 1q19 0 32.5 3t24 9t19 16t18.5 24l87 118l17 -3z" />
    <glyph glyph-name="m.sc" horiz-adv-x="874" 
d="M829 25v-25h-277v25l82 19v448h-16l-175 -492h-69l-177 492h-16v-440l76 -27v-25h-206v25l78 27v455l-78 19v27h238l31 -92l117 -342h6l112 342l29 92h245v-27l-88 -18v-464z" />
    <glyph glyph-name="n.sc" horiz-adv-x="711" 
d="M129 500l-76 24v29h196l61 -92l223 -311h9v349l-83 27v27h214v-27l-78 -27v-505h-81l-73 107l-249 348h-10v-396l84 -28v-25h-214v25l77 28v447z" />
    <glyph glyph-name="o.sc" horiz-adv-x="666" 
d="M617 276q0 -59 -19.5 -112t-56 -93t-90 -64t-121.5 -24q-71 0 -124 24t-88 64t-52 93t-17 112q0 58 19 111.5t56 93.5t90 64t122 24q71 0 123.5 -24t87.5 -64t52.5 -93.5t17.5 -111.5zM496 276q0 66 -14.5 115t-38 81.5t-54.5 48.5t-64 16q-31 0 -59 -13.5t-49.5 -44
t-34 -80.5t-12.5 -123t14.5 -123t38 -80.5t54.5 -44t64 -13.5q31 0 59 16.5t49.5 49t34 81.5t12.5 114z" />
    <glyph glyph-name="p.sc" horiz-adv-x="575" 
d="M537 390q0 -38 -15.5 -69.5t-43.5 -54.5t-68 -36t-89 -13q-20 0 -42.5 2t-38.5 4v-179l96 -19v-25h-291v25l87 19v464l-87 18v27h260q115 0 173.5 -45t58.5 -118zM418 388q0 66 -32.5 96t-95.5 31q-31 0 -50 -3v-255q8 -2 23.5 -2.5t29.5 -0.5q125 0 125 134z" />
    <glyph glyph-name="q.sc" horiz-adv-x="666" 
d="M617 276q0 -50 -14.5 -96.5t-43 -84.5t-69.5 -65t-93 -38q29 -43 51 -64.5t41 -34.5q23 -16 49.5 -24t65.5 -13l-4 -25h-96q-52 0 -82.5 6.5t-51.5 23.5q-14 10 -25.5 26t-31.5 51l-31 50q-59 8 -102.5 34.5t-72.5 65.5t-43.5 87t-14.5 101q0 58 19 111.5t56 93.5t90 64
t122 24q71 0 123.5 -24t87.5 -64t52.5 -93.5t17.5 -111.5zM496 276q0 66 -14.5 115t-38 81.5t-54.5 48.5t-64 16q-31 0 -59 -13.5t-49.5 -44t-34 -80.5t-12.5 -123t14.5 -123t38 -80.5t54.5 -44t64 -13.5q31 0 59 16.5t49.5 49t34 81.5t12.5 114z" />
    <glyph glyph-name="r.sc" horiz-adv-x="622" 
d="M542 413q0 -54 -45 -92.5t-124 -52.5v-10q48 -8 73 -29t40 -55q16 -37 33 -67.5t32 -45.5q14 -15 29 -23t41 -14v-24h-108q-20 0 -35 4t-27.5 14t-23 28t-21.5 45l-38 95q-14 36 -37 48t-64 12h-27v-202l87 -19v-25h-282v25l87 19v464l-87 18v27h283q106 0 160 -38
t54 -102zM425 402q0 56 -33 84t-90 29q-20 0 -36.5 -0.5t-25.5 -2.5v-229h56q54 1 91.5 31t37.5 88z" />
    <glyph glyph-name="s.sc" horiz-adv-x="532" 
d="M476 161q0 -45 -17.5 -78.5t-46 -55.5t-64.5 -33t-72 -11q-43 0 -83 10t-69 23l-27 -34h-27l-6 203l30 4q25 -48 48.5 -81t46.5 -53.5t47 -29.5t50 -9q47 0 77 26.5t30 71.5q0 42 -26 64.5t-74 42.5q-23 9 -48 17.5t-48 19.5q-23 10 -44 22.5t-36.5 28.5t-24.5 37.5
t-9 49.5q0 42 15 74.5t40.5 54.5t59 33t69.5 11q65 0 118 -32l32 35h26l10 -181l-31 -4q-45 81 -84 115t-77 34q-42 0 -67 -23t-25 -65q0 -20 6 -35t18 -26.5t29 -20.5t39 -18q23 -10 47.5 -18t48.5 -18t45.5 -22.5t38 -30t26 -41.5t9.5 -57z" />
    <glyph glyph-name="t.sc" horiz-adv-x="623" 
d="M559 361l-50 79q-14 22 -25 36t-21.5 22t-22.5 10.5t-30 2.5h-41v-467l93 -19v-25h-294v25l93 19v467h-46q-17 0 -30 -3.5t-24.5 -12t-22 -22t-22.5 -33.5l-47 -79l-28 6l21 186h503l20 -186z" />
    <glyph glyph-name="u.sc" horiz-adv-x="696" 
d="M455 526v27h203v-27l-78 -27v-307q0 -46 -15 -84.5t-43.5 -66t-70 -43t-95.5 -15.5q-114 0 -176 50t-62 154v321l-80 18v27h273v-27l-84 -18v-312q0 -44 11.5 -74t32.5 -49.5t49.5 -28t63.5 -8.5t62 12t45.5 33t28 49.5t9.5 62.5v306z" />
    <glyph glyph-name="v.sc" horiz-adv-x="625" 
d="M354 -11h-68l-202 514l-75 23v27h275v-27l-85 -19l152 -415l146 401l-75 33v27h206v-27l-73 -34z" />
    <glyph glyph-name="w.sc" horiz-adv-x="908" 
d="M411 506l-63 21v26h255v-27l-83 -20l133 -387h3l114 374l-77 33v27h203v-27l-70 -34l-171 -503h-58l-130 361h-3l-147 -361h-58l-166 514l-73 23v27h260v-26l-78 -18l118 -389h3l120 296z" />
    <glyph glyph-name="x.sc" horiz-adv-x="653" 
d="M471 501l-64 28v24h217v-27l-81 -28l-161 -206l174 -246l72 -21v-25h-276v24l78 21l-121 189l-126 -183l64 -28v-23h-216v25l80 29l169 211l-169 241l-75 20v27h279v-25l-78 -21l115 -183z" />
    <glyph glyph-name="y.sc" horiz-adv-x="613" 
d="M365 239v-194l93 -20v-25h-293v25l92 20v180l-170 276l-74 25v27h270v-25l-80 -21l138 -228l127 220l-74 29v25h210v-27l-73 -29z" />
    <glyph glyph-name="z.sc" horiz-adv-x="599" 
d="M527 0h-479l-4 35l372 475h-152q-37 0 -62 -14t-48 -46l-54 -77l-28 6l18 174h450l4 -36l-372 -476l186 1q38 0 58.5 12t39.5 43l61 102l27 -4z" />
    <glyph glyph-name="Aacute" unicode="&#xc1;" horiz-adv-x="758" 
d="M752 29v-29h-315v28l107 21l-71 197h-254l-69 -190l84 -28v-28h-230v29l88 31l249 647h73l249 -652zM350 586h-9l-106 -294h221zM486 1004q18 -12 21 -32t-11 -43q-8 -12 -22 -28t-32.5 -34.5t-39.5 -38.5t-41 -39l-20 15q9 27 19 53.5t19 50t18 43t17 31.5
q14 21 34.5 27.5t37.5 -5.5z" />
    <glyph glyph-name="aacute" unicode="&#xe1;" horiz-adv-x="547" 
d="M449 85q0 -25 18.5 -36.5t73.5 -9.5l2 -19q-18 -11 -52 -21.5t-66 -10.5q-33 0 -50 17.5t-20 61.5l-11 2q-40 -39 -78.5 -60t-80.5 -21q-58 0 -92 32t-34 84q0 37 21.5 68t59.5 54t91.5 38t118.5 21v67q0 65 -28 90t-88 25q-28 0 -47.5 -6.5t-33.5 -14.5q18 -13 29.5 -28
t11.5 -32q0 -25 -16.5 -41t-41.5 -16q-26 0 -43 16.5t-17 42.5q0 28 20 52t52.5 41.5t72.5 27.5t81 10q76 0 111.5 -36t35.5 -113v-285zM350 251q-51 0 -87.5 -9t-60.5 -24t-35 -35.5t-11 -44.5q0 -41 21.5 -62.5t60.5 -21.5q22 0 51.5 11.5t60.5 32.5v153zM386 814
q18 -13 21 -33.5t-11 -43.5q-8 -12 -22.5 -28t-33.5 -35t-40 -39l-42 -40l-19 15q9 27 19 54.5t19 51.5t18 43.5t17 31.5q14 22 35 28.5t39 -5.5z" />
    <glyph glyph-name="aacute.sc" horiz-adv-x="622" 
d="M422 856q18 -13 21 -33.5t-11 -43.5q-8 -12 -22.5 -28t-33.5 -35t-40 -39l-42 -40l-19 15q9 27 19 54.5t19 51.5t18 43.5t17 31.5q14 22 35 28.5t39 -5.5zM283 463h-9l-86 -238h182zM126 56l74 -32v-24h-203v25l74 34l198 504h82l197 -514l68 -24v-25h-265v24l85 21
l-51 140h-212z" />
    <glyph glyph-name="Abreve" unicode="&#x102;" horiz-adv-x="758" 
d="M752 29v-29h-315v28l107 21l-71 197h-254l-69 -190l84 -28v-28h-230v29l88 31l249 647h73l249 -652zM350 586h-9l-106 -294h221zM380 877q47 0 73 24t46 74l30 -9q-7 -78 -45 -122.5t-104 -44.5t-105 44.5t-46 122.5l30 9q19 -50 46 -74t75 -24z" />
    <glyph glyph-name="abreve" unicode="&#x103;" horiz-adv-x="547" 
d="M449 85q0 -25 18.5 -36.5t73.5 -9.5l2 -19q-18 -11 -52 -21.5t-66 -10.5q-33 0 -50 17.5t-20 61.5l-11 2q-40 -39 -78.5 -60t-80.5 -21q-58 0 -92 32t-34 84q0 37 21.5 68t59.5 54t91.5 38t118.5 21v67q0 65 -28 90t-88 25q-28 0 -47.5 -6.5t-33.5 -14.5q18 -13 29.5 -28
t11.5 -32q0 -25 -16.5 -41t-41.5 -16q-26 0 -43 16.5t-17 42.5q0 28 20 52t52.5 41.5t72.5 27.5t81 10q76 0 111.5 -36t35.5 -113v-285zM350 251q-51 0 -87.5 -9t-60.5 -24t-35 -35.5t-11 -44.5q0 -41 21.5 -62.5t60.5 -21.5q22 0 51.5 11.5t60.5 32.5v153zM278 684
q48 0 75 24.5t46 75.5l31 -9q-7 -80 -45.5 -125t-106.5 -45t-107 45t-46 125l30 9q19 -51 47 -75.5t76 -24.5z" />
    <glyph glyph-name="abreve.sc" horiz-adv-x="622" 
d="M283 463h-9l-86 -238h182zM126 56l74 -32v-24h-203v25l74 34l198 504h82l197 -514l68 -24v-25h-265v24l85 21l-51 140h-212zM314 726q48 0 75 24.5t46 75.5l31 -9q-7 -80 -45.5 -125t-106.5 -45t-107 45t-46 125l30 9q19 -51 47 -75.5t76 -24.5z" />
    <glyph glyph-name="Acircumflex" unicode="&#xc2;" horiz-adv-x="758" 
d="M752 29v-29h-315v28l107 21l-71 197h-254l-69 -190l84 -28v-28h-230v29l88 31l249 647h73l249 -652zM350 586h-9l-106 -294h221zM259 783l-22 19l129 195h38l120 -195l-21 -19l-122 117z" />
    <glyph glyph-name="acircumflex" unicode="&#xe2;" horiz-adv-x="547" 
d="M449 85q0 -25 18.5 -36.5t73.5 -9.5l2 -19q-18 -11 -52 -21.5t-66 -10.5q-33 0 -50 17.5t-20 61.5l-11 2q-40 -39 -78.5 -60t-80.5 -21q-58 0 -92 32t-34 84q0 37 21.5 68t59.5 54t91.5 38t118.5 21v67q0 65 -28 90t-88 25q-28 0 -47.5 -6.5t-33.5 -14.5q18 -13 29.5 -28
t11.5 -32q0 -25 -16.5 -41t-41.5 -16q-26 0 -43 16.5t-17 42.5q0 28 20 52t52.5 41.5t72.5 27.5t81 10q76 0 111.5 -36t35.5 -113v-285zM350 251q-51 0 -87.5 -9t-60.5 -24t-35 -35.5t-11 -44.5q0 -41 21.5 -62.5t60.5 -21.5q22 0 51.5 11.5t60.5 32.5v153zM155 588l-22 20
l130 199h40l122 -199l-22 -20l-124 120z" />
    <glyph glyph-name="acircumflex.sc" horiz-adv-x="622" 
d="M191 630l-22 20l130 199h40l122 -199l-22 -20l-124 120zM283 463h-9l-86 -238h182zM126 56l74 -32v-24h-203v25l74 34l198 504h82l197 -514l68 -24v-25h-265v24l85 21l-51 140h-212z" />
    <glyph glyph-name="Adieresis" unicode="&#xc4;" horiz-adv-x="758" 
d="M752 29v-29h-315v28l107 21l-71 197h-254l-69 -190l84 -28v-28h-230v29l88 31l249 647h73l249 -652zM350 586h-9l-106 -294h221zM479 804q-27 0 -44 17.5t-17 45.5q0 26 19.5 47t48.5 21q27 0 44.5 -17.5t17.5 -45.5q0 -27 -19.5 -47.5t-49.5 -20.5zM270 804
q-27 0 -44.5 17.5t-17.5 45.5q0 26 19.5 47t49.5 21q27 0 44.5 -17.5t17.5 -45.5q0 -27 -20 -47.5t-49 -20.5z" />
    <glyph glyph-name="adieresis" unicode="&#xe4;" horiz-adv-x="547" 
d="M449 85q0 -25 18.5 -36.5t73.5 -9.5l2 -19q-18 -11 -52 -21.5t-66 -10.5q-33 0 -50 17.5t-20 61.5l-11 2q-40 -39 -78.5 -60t-80.5 -21q-58 0 -92 32t-34 84q0 37 21.5 68t59.5 54t91.5 38t118.5 21v67q0 65 -28 90t-88 25q-28 0 -47.5 -6.5t-33.5 -14.5q18 -13 29.5 -28
t11.5 -32q0 -25 -16.5 -41t-41.5 -16q-26 0 -43 16.5t-17 42.5q0 28 20 52t52.5 41.5t72.5 27.5t81 10q76 0 111.5 -36t35.5 -113v-285zM350 251q-51 0 -87.5 -9t-60.5 -24t-35 -35.5t-11 -44.5q0 -41 21.5 -62.5t60.5 -21.5q22 0 51.5 11.5t60.5 32.5v153zM378 609
q-27 0 -44.5 18.5t-17.5 46.5q0 27 19.5 48.5t49.5 21.5q28 0 45.5 -18.5t17.5 -46.5q0 -27 -19.5 -48.5t-50.5 -21.5zM165 609q-27 0 -44.5 18.5t-17.5 46.5q0 27 19.5 48.5t49.5 21.5q28 0 45.5 -18.5t17.5 -46.5q0 -27 -20 -48.5t-50 -21.5z" />
    <glyph glyph-name="adieresis.sc" horiz-adv-x="622" 
d="M415 651q-27 0 -44.5 18.5t-17.5 46.5q0 27 19.5 48.5t49.5 21.5q28 0 45.5 -18.5t17.5 -46.5q0 -27 -19.5 -48.5t-50.5 -21.5zM202 651q-27 0 -44.5 18.5t-17.5 46.5q0 27 19.5 48.5t49.5 21.5q28 0 45.5 -18.5t17.5 -46.5q0 -27 -20 -48.5t-50 -21.5zM283 463h-9
l-86 -238h182zM126 56l74 -32v-24h-203v25l74 34l198 504h82l197 -514l68 -24v-25h-265v24l85 21l-51 140h-212z" />
    <glyph glyph-name="AE" unicode="&#xc6;" horiz-adv-x="1080" 
d="M132 56l84 -28v-28h-237v29l88 31l365 583l-112 29v29h642l25 -192l-17 -8l-78 94q-14 18 -25.5 29t-25 17.5t-31 9t-43.5 2.5l-137 1v-280h65q24 0 41.5 4t29.5 15t21 29.5t17 47.5l11 36h23v-306h-23l-11 34q-8 29 -17 48t-21.5 30t-29.5 15.5t-41 4.5h-65v-284l186 1
q24 0 40.5 2t29 7.5t22.5 15.5t21 25l88 120l18 -5l-29 -214h-608v29l117 21v227h-249zM515 654h-19l-204 -332h223v332z" />
    <glyph glyph-name="ae" unicode="&#xe6;" horiz-adv-x="852" 
d="M453 276q-2 -105 42.5 -162.5t141.5 -57.5q39 0 73.5 12t82.5 38l9 -24q-54 -51 -103.5 -75.5t-105.5 -24.5q-134 0 -200 104h-10q-49 -47 -96 -72.5t-101 -25.5q-58 0 -92.5 31.5t-34.5 84.5q0 37 21.5 68t59.5 54t91.5 38t118.5 21v67q0 65 -28 90t-88 25
q-28 0 -47.5 -6.5t-33.5 -14.5q18 -13 29.5 -28t11.5 -32q0 -25 -16.5 -41t-41.5 -16q-26 0 -43 16.5t-17 42.5q0 28 20 52t52 41.5t72 27.5t79 10q57 0 86 -22t44 -61q26 33 66 58.5t97 25.5q54 0 94.5 -20t67 -53.5t39.5 -78t13 -92.5h-353zM586 484q-27 0 -50 -12.5
t-40.5 -35.5t-28 -55t-12.5 -71l241 8q-6 166 -110 166zM375 117q-15 29 -20 62.5t-6 71.5q-51 0 -87.5 -9t-60 -24t-34.5 -35.5t-11 -44.5q0 -40 22 -62t61 -22q32 0 68 17t68 46z" />
    <glyph glyph-name="ae.sc" horiz-adv-x="872" 
d="M807 0h-498v25l88 19v167h-192l-92 -157l83 -30v-24h-223v25l78 33l271 441l-92 28v26h560l17 -163l-23 -5l-56 75q-20 27 -42 38.5t-63 11.5h-119v-209h35q35 0 59 15t40 50l13 30h23v-230h-23l-13 31q-30 66 -99 66h-35v-221l143 1q38 0 57 10.5t35 32.5l67 96l23 -4z
M397 506h-20l-150 -255h170v255z" />
    <glyph glyph-name="AEacute" unicode="&#x1fc;" horiz-adv-x="1080" 
d="M714 1003q18 -12 21 -32t-11 -43q-8 -12 -22 -28t-32.5 -34.5t-39.5 -38.5t-41 -39l-20 15q9 27 19 53.5t19 50t18 43t17 31.5q14 21 34.5 27.5t37.5 -5.5zM132 56l84 -28v-28h-237v29l88 31l365 583l-112 29v29h642l25 -192l-17 -8l-78 94q-14 18 -25.5 29t-25 17.5
t-31 9t-43.5 2.5l-137 1v-280h65q24 0 41.5 4t29.5 15t21 29.5t17 47.5l11 36h23v-306h-23l-11 34q-8 29 -17 48t-21.5 30t-29.5 15.5t-41 4.5h-65v-284l186 1q24 0 40.5 2t29 7.5t22.5 15.5t21 25l88 120l18 -5l-29 -214h-608v29l117 21v227h-249zM515 654h-19l-204 -332
h223v332z" />
    <glyph glyph-name="aeacute" unicode="&#x1fd;" horiz-adv-x="852" 
d="M537 813q18 -13 21 -33.5t-11 -43.5q-8 -12 -22.5 -28t-33.5 -35t-40 -39l-42 -40l-19 15q9 27 19 54.5t19 51.5t18 43.5t17 31.5q14 22 35 28.5t39 -5.5zM453 276q-2 -105 42.5 -162.5t141.5 -57.5q39 0 73.5 12t82.5 38l9 -24q-54 -51 -103.5 -75.5t-105.5 -24.5
q-134 0 -200 104h-10q-49 -47 -96 -72.5t-101 -25.5q-58 0 -92.5 31.5t-34.5 84.5q0 37 21.5 68t59.5 54t91.5 38t118.5 21v67q0 65 -28 90t-88 25q-28 0 -47.5 -6.5t-33.5 -14.5q18 -13 29.5 -28t11.5 -32q0 -25 -16.5 -41t-41.5 -16q-26 0 -43 16.5t-17 42.5q0 28 20 52
t52 41.5t72 27.5t79 10q57 0 86 -22t44 -61q26 33 66 58.5t97 25.5q54 0 94.5 -20t67 -53.5t39.5 -78t13 -92.5h-353zM586 484q-27 0 -50 -12.5t-40.5 -35.5t-28 -55t-12.5 -71l241 8q-6 166 -110 166zM375 117q-15 29 -20 62.5t-6 71.5q-51 0 -87.5 -9t-60 -24t-34.5 -35.5
t-11 -44.5q0 -40 22 -62t61 -22q32 0 68 17t68 46z" />
    <glyph glyph-name="aeacute.sc" horiz-adv-x="872" 
d="M590 854q18 -13 21 -33.5t-11 -43.5q-8 -12 -22.5 -28t-33.5 -35t-40 -39l-42 -40l-19 15q9 27 19 54.5t19 51.5t18 43.5t17 31.5q14 22 35 28.5t39 -5.5zM807 0h-498v25l88 19v167h-192l-92 -157l83 -30v-24h-223v25l78 33l271 441l-92 28v26h560l17 -163l-23 -5l-56 75
q-20 27 -42 38.5t-63 11.5h-119v-209h35q35 0 59 15t40 50l13 30h23v-230h-23l-13 31q-30 66 -99 66h-35v-221l143 1q38 0 57 10.5t35 32.5l67 96l23 -4zM397 506h-20l-150 -255h170v255z" />
    <glyph glyph-name="Agrave" unicode="&#xc0;" horiz-adv-x="758" 
d="M752 29v-29h-315v28l107 21l-71 197h-254l-69 -190l84 -28v-28h-230v29l88 31l249 647h73l249 -652zM350 586h-9l-106 -294h221zM403 789q-20 19 -41 39t-39.5 38.5t-33 34.5t-21.5 28q-14 23 -11 43t21 32t38.5 5t33.5 -27q8 -12 17 -31.5t18 -43t19 -50t19 -53.5z" />
    <glyph glyph-name="agrave" unicode="&#xe0;" horiz-adv-x="547" 
d="M449 85q0 -25 18.5 -36.5t73.5 -9.5l2 -19q-18 -11 -52 -21.5t-66 -10.5q-33 0 -50 17.5t-20 61.5l-11 2q-40 -39 -78.5 -60t-80.5 -21q-58 0 -92 32t-34 84q0 37 21.5 68t59.5 54t91.5 38t118.5 21v67q0 65 -28 90t-88 25q-28 0 -47.5 -6.5t-33.5 -14.5q18 -13 29.5 -28
t11.5 -32q0 -25 -16.5 -41t-41.5 -16q-26 0 -43 16.5t-17 42.5q0 28 20 52t52.5 41.5t72.5 27.5t81 10q76 0 111.5 -36t35.5 -113v-285zM350 251q-51 0 -87.5 -9t-60.5 -24t-35 -35.5t-11 -44.5q0 -41 21.5 -62.5t60.5 -21.5q22 0 51.5 11.5t60.5 32.5v153zM302 595l-42 40
t-39.5 39t-33 35t-22.5 28q-14 23 -11.5 43.5t21.5 33.5q18 12 39 5t35 -28q7 -12 16 -31.5t18.5 -43.5t19.5 -51.5t19 -54.5z" />
    <glyph glyph-name="agrave.sc" horiz-adv-x="622" 
d="M283 463h-9l-86 -238h182zM126 56l74 -32v-24h-203v25l74 34l198 504h82l197 -514l68 -24v-25h-265v24l85 21l-51 140h-212zM338 637l-42 40t-39.5 39t-33 35t-22.5 28q-14 23 -11.5 43.5t21.5 33.5q18 12 39 5t35 -28q7 -12 16 -31.5t18.5 -43.5t19.5 -51.5t19 -54.5z
" />
    <glyph glyph-name="Amacron" unicode="&#x100;" horiz-adv-x="758" 
d="M752 29v-29h-315v28l107 21l-71 197h-254l-69 -190l84 -28v-28h-230v29l88 31l249 647h73l249 -652zM350 586h-9l-106 -294h221zM523 819h-289v68h289v-68z" />
    <glyph glyph-name="amacron" unicode="&#x101;" horiz-adv-x="547" 
d="M449 85q0 -25 18.5 -36.5t73.5 -9.5l2 -19q-18 -11 -52 -21.5t-66 -10.5q-33 0 -50 17.5t-20 61.5l-11 2q-40 -39 -78.5 -60t-80.5 -21q-58 0 -92 32t-34 84q0 37 21.5 68t59.5 54t91.5 38t118.5 21v67q0 65 -28 90t-88 25q-28 0 -47.5 -6.5t-33.5 -14.5q18 -13 29.5 -28
t11.5 -32q0 -25 -16.5 -41t-41.5 -16q-26 0 -43 16.5t-17 42.5q0 28 20 52t52.5 41.5t72.5 27.5t81 10q76 0 111.5 -36t35.5 -113v-285zM350 251q-51 0 -87.5 -9t-60.5 -24t-35 -35.5t-11 -44.5q0 -41 21.5 -62.5t60.5 -21.5q22 0 51.5 11.5t60.5 32.5v153zM422 625h-293v69
h293v-69z" />
    <glyph glyph-name="amacron.sc" horiz-adv-x="622" 
d="M283 463h-9l-86 -238h182zM126 56l74 -32v-24h-203v25l74 34l198 504h82l197 -514l68 -24v-25h-265v24l85 21l-51 140h-212zM459 667h-293v69h293v-69z" />
    <glyph glyph-name="Aogonek" unicode="&#x104;" horiz-adv-x="758" 
d="M752 29v-29h-93q-43 -53 -58.5 -88.5t-15.5 -67.5q0 -38 20 -58.5t51 -20.5q21 0 38.5 8t31.5 17l13 -16q-23 -23 -50 -37.5t-59 -14.5q-23 0 -44 6.5t-36.5 19.5t-24.5 32.5t-9 44.5q0 44 24.5 85t78.5 90h-182v28l107 21l-71 197h-254l-69 -190l84 -28v-28h-230v29
l88 31l249 647h73l249 -652zM350 586h-9l-106 -294h221z" />
    <glyph glyph-name="aogonek" unicode="&#x105;" horiz-adv-x="547" 
d="M350 251q-51 0 -87.5 -9t-60.5 -24t-35 -35.5t-11 -44.5q0 -41 21.5 -62.5t60.5 -21.5q22 0 51.5 11.5t60.5 32.5v153zM437 -12q-41 -3 -60 15.5t-22 63.5l-11 2q-40 -39 -78.5 -60t-80.5 -21q-58 0 -92 32t-34 84q0 37 21.5 68t59.5 54t91.5 38t118.5 21v67q0 65 -28 90
t-88 25q-28 0 -47.5 -6.5t-33.5 -14.5q18 -13 29.5 -28t11.5 -32q0 -25 -16.5 -41t-41.5 -16q-26 0 -43 16.5t-17 42.5q0 28 20 52t52.5 41.5t72.5 27.5t81 10q76 0 111.5 -36t35.5 -113v-285q0 -25 18.5 -36.5t73.5 -9.5l2 -19q-89 -45 -126 -92.5t-37 -87.5t20.5 -59.5
t50.5 -19.5q22 0 39 7.5t31 16.5l14 -15q-20 -22 -47 -37.5t-65 -15.5q-53 0 -83.5 28.5t-30.5 76.5q0 40 32 84.5t96 81.5z" />
    <glyph glyph-name="aogonek.sc" horiz-adv-x="622" 
d="M126 56l74 -32v-24h-203v25l74 34l198 504h82l197 -514l68 -24v-25h-77q-21 -27 -35.5 -49.5t-23 -41t-12 -35t-3.5 -32.5q0 -40 20.5 -60.5t51.5 -20.5q22 0 39.5 7.5t31.5 17.5l13 -16q-23 -24 -50 -38.5t-60 -14.5q-24 0 -45 6.5t-36.5 20t-25 32.5t-9.5 45
q0 45 25 87t80 92h-149v24l85 21l-51 140h-212zM283 463h-9l-86 -238h182z" />
    <glyph glyph-name="Aring" unicode="&#xc5;" horiz-adv-x="758" 
d="M752 29v-29h-315v28l107 21l-71 197h-254l-69 -190l84 -28v-28h-230v29l88 31l242 630q-34 11 -53.5 39t-19.5 65q0 21 8.5 40.5t24 35t37.5 25t48 9.5q51 0 81.5 -31.5t30.5 -78.5q0 -31 -19.5 -59.5t-51.5 -41.5l243 -638zM235 292h221l-106 294h-9zM309 793
q0 -43 20.5 -64t46.5 -21t46 21t20 65t-20.5 64.5t-47.5 20.5q-26 0 -45.5 -21t-19.5 -65z" />
    <glyph glyph-name="aring" unicode="&#xe5;" horiz-adv-x="547" 
d="M449 85q0 -25 18.5 -36.5t73.5 -9.5l2 -19q-18 -11 -52 -21.5t-66 -10.5q-33 0 -50 17.5t-20 61.5l-11 2q-40 -39 -78.5 -60t-80.5 -21q-58 0 -92 32t-34 84q0 37 21.5 68t59.5 54t91.5 38t118.5 21v67q0 65 -28 90t-88 25q-28 0 -47.5 -6.5t-33.5 -14.5q18 -13 29.5 -28
t11.5 -32q0 -25 -16.5 -41t-41.5 -16q-26 0 -43 16.5t-17 42.5q0 28 20 52t52.5 41.5t72.5 27.5t81 10q76 0 111.5 -36t35.5 -113v-285zM350 251q-51 0 -87.5 -9t-60.5 -24t-35 -35.5t-11 -44.5q0 -41 21.5 -62.5t60.5 -21.5q22 0 51.5 11.5t60.5 32.5v153zM393 717
q0 -21 -9 -41t-24.5 -36t-37.5 -25.5t-49 -9.5q-53 0 -83.5 32.5t-30.5 79.5q0 21 9 41.5t24.5 36.5t37.5 25.5t49 9.5q53 0 83.5 -32.5t30.5 -80.5zM343 717q0 45 -20.5 66t-48.5 21q-26 0 -46.5 -21.5t-20.5 -66.5q0 -43 21.5 -65t47.5 -22q27 0 47 22t20 66z" />
    <glyph glyph-name="aring.sc" horiz-adv-x="622" 
d="M283 463h-9l-86 -238h182zM375 652q0 45 -20.5 66t-48.5 21q-26 0 -46 -21.5t-20 -66.5q0 -44 21 -65.5t48 -21.5q26 0 46 21.5t20 66.5zM263 547q-35 12 -53.5 40t-18.5 65q0 21 9 41t24.5 36t37.5 25.5t49 9.5q53 0 83.5 -32t30.5 -80q0 -31 -18.5 -59.5t-50.5 -42.5
l192 -501l68 -24v-25h-265v24l85 21l-51 140h-212l-47 -129l74 -32v-24h-203v25l74 34z" />
    <glyph glyph-name="Aringacute" unicode="&#x1fa;" horiz-adv-x="758" 
d="M752 29v-29h-315v28l107 21l-71 197h-254l-69 -190l84 -28v-28h-230v29l88 31l242 630q-34 11 -53.5 39t-19.5 65q0 21 8.5 40.5t24 35t37.5 25t48 9.5q51 0 81.5 -31.5t30.5 -78.5q0 -31 -19.5 -59.5t-51.5 -41.5l243 -638zM235 292h221l-106 294h-9zM309 793
q0 -43 20.5 -64t46.5 -21t46 21t20 65t-20.5 64.5t-47.5 20.5q-26 0 -45.5 -21t-19.5 -65zM477 1154q18 -12 21 -32t-11 -43q-8 -12 -22 -28t-32.5 -34.5t-39.5 -38.5t-41 -39l-20 15q9 27 19 53.5t19 50t18 43t17 31.5q14 21 34.5 27.5t37.5 -5.5z" />
    <glyph glyph-name="aringacute" unicode="&#x1fb;" horiz-adv-x="547" 
d="M449 85q0 -25 18.5 -36.5t73.5 -9.5l2 -19q-18 -11 -52 -21.5t-66 -10.5q-33 0 -50 17.5t-20 61.5l-11 2q-40 -39 -78.5 -60t-80.5 -21q-58 0 -92 32t-34 84q0 37 21.5 68t59.5 54t91.5 38t118.5 21v67q0 65 -28 90t-88 25q-28 0 -47.5 -6.5t-33.5 -14.5q18 -13 29.5 -28
t11.5 -32q0 -25 -16.5 -41t-41.5 -16q-26 0 -43 16.5t-17 42.5q0 28 20 52t52.5 41.5t72.5 27.5t81 10q76 0 111.5 -36t35.5 -113v-285zM350 251q-51 0 -87.5 -9t-60.5 -24t-35 -35.5t-11 -44.5q0 -41 21.5 -62.5t60.5 -21.5q22 0 51.5 11.5t60.5 32.5v153zM379 1046
q18 -13 21 -33.5t-11 -43.5q-8 -12 -22.5 -28t-33.5 -35t-40 -39l-42 -40l-19 15q9 27 19 54.5t19 51.5t18 43.5t17 31.5q14 22 35 28.5t39 -5.5zM394 677q0 -21 -9 -41t-24.5 -36t-37.5 -25.5t-49 -9.5q-53 0 -83.5 32.5t-30.5 79.5q0 21 9 41.5t24.5 36.5t37.5 25.5
t49 9.5q53 0 83.5 -32.5t30.5 -80.5zM344 677q0 45 -20.5 66t-48.5 21q-26 0 -46.5 -21.5t-20.5 -66.5q0 -43 21.5 -65t47.5 -22q27 0 47 22t20 66z" />
    <glyph glyph-name="aringacute.sc" horiz-adv-x="622" 
d="M419 1015q18 -13 21 -33.5t-11 -43.5q-8 -12 -22.5 -28t-33.5 -35t-40 -39l-42 -40l-19 15q9 27 19 54.5t19 51.5t18 43.5t17 31.5q14 22 35 28.5t39 -5.5zM283 463h-9l-86 -238h182zM375 652q0 45 -20.5 66t-48.5 21q-26 0 -46 -21.5t-20 -66.5q0 -44 21 -65.5t48 -21.5
q26 0 46 21.5t20 66.5zM263 547q-35 12 -53.5 40t-18.5 65q0 21 9 41t24.5 36t37.5 25.5t49 9.5q53 0 83.5 -32t30.5 -80q0 -31 -18.5 -59.5t-50.5 -42.5l192 -501l68 -24v-25h-265v24l85 21l-51 140h-212l-47 -129l74 -32v-24h-203v25l74 34z" />
    <glyph glyph-name="Atilde" unicode="&#xc3;" horiz-adv-x="758" 
d="M752 29v-29h-315v28l107 21l-71 197h-254l-69 -190l84 -28v-28h-230v29l88 31l249 647h73l249 -652zM350 586h-9l-106 -294h221zM226 800q11 70 32.5 102.5t61.5 32.5q21 0 43.5 -8.5t43.5 -18t39.5 -18t32.5 -8.5t23.5 14.5t26.5 51.5l30 -7q-11 -70 -32.5 -102.5
t-61.5 -32.5q-21 0 -43.5 8.5t-43.5 18t-39.5 18t-31.5 8.5q-15 0 -24.5 -14.5t-25.5 -51.5l-31 7v0z" />
    <glyph glyph-name="atilde" unicode="&#xe3;" horiz-adv-x="547" 
d="M449 85q0 -25 18.5 -36.5t73.5 -9.5l2 -19q-18 -11 -52 -21.5t-66 -10.5q-33 0 -50 17.5t-20 61.5l-11 2q-40 -39 -78.5 -60t-80.5 -21q-58 0 -92 32t-34 84q0 37 21.5 68t59.5 54t91.5 38t118.5 21v67q0 65 -28 90t-88 25q-28 0 -47.5 -6.5t-33.5 -14.5q18 -13 29.5 -28
t11.5 -32q0 -25 -16.5 -41t-41.5 -16q-26 0 -43 16.5t-17 42.5q0 28 20 52t52.5 41.5t72.5 27.5t81 10q76 0 111.5 -36t35.5 -113v-285zM350 251q-51 0 -87.5 -9t-60.5 -24t-35 -35.5t-11 -44.5q0 -41 21.5 -62.5t60.5 -21.5q22 0 51.5 11.5t60.5 32.5v153zM122 606
q11 71 32.5 104.5t63.5 33.5q21 0 43.5 -8.5t44 -19t40.5 -19t33 -8.5t24 14.5t26 52.5l31 -6q-11 -72 -32.5 -105t-63.5 -33q-21 0 -43.5 8.5t-44 18.5t-40.5 18.5t-33 8.5t-24 -14.5t-26 -52.5l-31 7v0z" />
    <glyph glyph-name="atilde.sc" horiz-adv-x="622" 
d="M283 463h-9l-86 -238h182zM126 56l74 -32v-24h-203v25l74 34l198 504h82l197 -514l68 -24v-25h-265v24l85 21l-51 140h-212zM158 648q11 71 32.5 104.5t63.5 33.5q21 0 43.5 -8.5t44 -19t40.5 -19t33 -8.5t24 14.5t26 52.5l31 -6q-11 -72 -32.5 -105t-63.5 -33
q-21 0 -43.5 8.5t-44 18.5t-40.5 18.5t-33 8.5t-24 -14.5t-26 -52.5l-31 7v0z" />
    <glyph glyph-name="Cacute" unicode="&#x106;" horiz-adv-x="758" 
d="M663 40q-26 -14 -51.5 -24.5t-52.5 -17.5t-58 -11t-68 -4q-83 0 -152.5 25.5t-119.5 72.5t-78 113.5t-28 148.5t30 151t81 118.5t119 77t145 27.5q43 0 88 -10t80 -24l36 38h25l10 -242l-27 -2q-48 98 -102 150t-130 52q-47 0 -88 -21.5t-71 -62.5t-47 -101.5t-17 -138.5
q0 -83 21 -144.5t58 -102t85.5 -60.5t104.5 -20q46 0 84 15l126 154l19 -5zM522 1004q18 -12 21 -32t-11 -43q-8 -12 -22 -28t-32.5 -34.5t-39.5 -38.5t-41 -39l-20 15q9 27 19 53.5t19 50t18 43t17 31.5q14 21 34.5 27.5t37.5 -5.5z" />
    <glyph glyph-name="cacute" unicode="&#x107;" horiz-adv-x="537" 
d="M420 814q18 -13 21 -33.5t-11 -43.5q-8 -12 -22.5 -28t-33.5 -35t-40 -39l-42 -40l-19 15q9 27 19 54.5t19 51.5t18 43.5t17 31.5q14 22 35 28.5t39 -5.5zM486 416q0 -30 -18 -50t-45 -20q-32 0 -49.5 22t-17.5 49q0 36 18 59q-10 3 -20 5t-24 2q-33 0 -64.5 -13.5
t-56.5 -42t-40.5 -71.5t-15.5 -101q0 -48 14.5 -85.5t40 -63.5t59 -39.5t72.5 -13.5q41 0 73 10.5t73 31.5l11 -17q-43 -48 -93.5 -72t-106.5 -24q-54 0 -99.5 18.5t-78.5 52t-51.5 80t-18.5 103.5q0 61 20.5 113t57.5 90t88 59.5t113 21.5q75 0 117 -30t42 -74z" />
    <glyph glyph-name="cacute.sc" horiz-adv-x="623" 
d="M452 856q18 -13 21 -33.5t-11 -43.5q-8 -12 -22.5 -28t-33.5 -35t-40 -39l-42 -40l-19 15q9 27 19 54.5t19 51.5t18 43.5t17 31.5q14 22 35 28.5t39 -5.5zM546 31q-42 -20 -89 -34t-105 -14q-67 0 -122.5 19t-95.5 55.5t-62.5 89.5t-22.5 121q0 67 24.5 122t66.5 95
t98 62t119 22q35 0 71 -8.5t62 -20.5l29 32h23l15 -200l-34 -3q-23 45 -43 76t-41 50.5t-43.5 28t-50.5 8.5q-35 0 -66.5 -15.5t-55.5 -46.5t-38.5 -79t-14.5 -112q0 -68 16 -116.5t43.5 -79t64.5 -45t78 -14.5q18 0 37.5 4t34.5 12l95 161l27 -8z" />
    <glyph glyph-name="Ccaron" unicode="&#x10c;" horiz-adv-x="758" 
d="M663 40q-26 -14 -51.5 -24.5t-52.5 -17.5t-58 -11t-68 -4q-83 0 -152.5 25.5t-119.5 72.5t-78 113.5t-28 148.5t30 151t81 118.5t119 77t145 27.5q43 0 88 -10t80 -24l36 38h25l10 -242l-27 -2q-48 98 -102 150t-130 52q-47 0 -88 -21.5t-71 -62.5t-47 -101.5t-17 -138.5
q0 -83 21 -144.5t58 -102t85.5 -60.5t104.5 -20q46 0 84 15l126 154l19 -5zM537 1014l21 -19l-128 -195h-39l-120 195l22 19l121 -117z" />
    <glyph glyph-name="ccaron" unicode="&#x10d;" horiz-adv-x="537" 
d="M434 824l22 -20l-131 -199h-39l-122 199l22 20l123 -120zM486 416q0 -30 -18 -50t-45 -20q-32 0 -49.5 22t-17.5 49q0 36 18 59q-10 3 -20 5t-24 2q-33 0 -64.5 -13.5t-56.5 -42t-40.5 -71.5t-15.5 -101q0 -48 14.5 -85.5t40 -63.5t59 -39.5t72.5 -13.5q41 0 73 10.5
t73 31.5l11 -17q-43 -48 -93.5 -72t-106.5 -24q-54 0 -99.5 18.5t-78.5 52t-51.5 80t-18.5 103.5q0 61 20.5 113t57.5 90t88 59.5t113 21.5q75 0 117 -30t42 -74z" />
    <glyph glyph-name="ccaron.sc" horiz-adv-x="623" 
d="M467 866l22 -20l-131 -199h-39l-122 199l22 20l123 -120zM546 31q-42 -20 -89 -34t-105 -14q-67 0 -122.5 19t-95.5 55.5t-62.5 89.5t-22.5 121q0 67 24.5 122t66.5 95t98 62t119 22q35 0 71 -8.5t62 -20.5l29 32h23l15 -200l-34 -3q-23 45 -43 76t-41 50.5t-43.5 28
t-50.5 8.5q-35 0 -66.5 -15.5t-55.5 -46.5t-38.5 -79t-14.5 -112q0 -68 16 -116.5t43.5 -79t64.5 -45t78 -14.5q18 0 37.5 4t34.5 12l95 161l27 -8z" />
    <glyph glyph-name="Ccedilla" unicode="&#xc7;" horiz-adv-x="758" 
d="M187 355q0 -83 21 -144.5t58 -102t85.5 -60.5t104.5 -20q46 0 84 15l126 154l19 -5l-22 -152q-45 -23 -89 -37.5t-102 -17.5l-81 -69q18 -2 35.5 -9t31 -19t22 -29.5t8.5 -39.5q0 -24 -10 -44.5t-27 -34.5t-40 -22t-49 -8q-41 0 -64 14t-23 34q0 15 8 24.5t23 9.5
t23.5 -9.5t8.5 -22.5q0 -8 -1.5 -12.5t-4.5 -9.5q10 -5 32 -5q23 0 43.5 17.5t20.5 50.5q0 32 -21 50t-57 18q-7 0 -11.5 -0.5t-12.5 -2.5l-17 18l120 99q-83 1 -151.5 26.5t-118 72.5t-77 113.5t-27.5 147.5q0 82 30 151t81 118.5t119 77t145 27.5q43 0 88 -10t80 -24
l36 38h25l10 -242l-27 -2q-48 98 -102 150t-130 52q-47 0 -88 -21.5t-71 -62.5t-47 -101.5t-17 -138.5z" />
    <glyph glyph-name="ccedilla" unicode="&#xe7;" horiz-adv-x="537" 
d="M153 255q0 -48 14.5 -85.5t40 -63.5t59 -39.5t72.5 -13.5q41 0 73 10.5t73 31.5l11 -17q-55 -63 -124 -84l-94 -79q18 -2 36 -9.5t32 -19.5t22.5 -29.5t8.5 -40.5q0 -25 -10 -45.5t-27.5 -35.5t-40.5 -23t-50 -8q-42 0 -65.5 15t-23.5 35q0 15 8 24.5t24 9.5
q15 0 24 -9.5t9 -23.5q0 -7 -2 -11.5t-5 -10.5q6 -3 14.5 -4t18.5 -1q24 0 44.5 18t20.5 52q0 32 -21 50.5t-58 18.5q-7 0 -12 -1t-13 -3l-17 19l121 101q-5 -1 -10 -1h-10q-54 0 -99.5 18.5t-78.5 52t-51.5 80t-18.5 103.5q0 61 20.5 113t57.5 90t88 59.5t113 21.5
q75 0 117 -30t42 -74q0 -30 -18 -50t-45 -20q-32 0 -49.5 22t-17.5 49q0 36 18 59q-10 3 -20 5t-24 2q-33 0 -64.5 -13.5t-56.5 -42t-40.5 -71.5t-15.5 -101z" />
    <glyph glyph-name="ccedilla.sc" horiz-adv-x="623" 
d="M350 -17q-66 0 -121.5 19.5t-95.5 55.5t-62 89t-22 121q0 67 24.5 122t66.5 95t98 62t119 22q35 0 71 -8.5t62 -20.5l29 32h23l15 -200l-34 -3q-23 45 -43 76t-41 50.5t-43.5 28t-50.5 8.5q-35 0 -66.5 -15.5t-55.5 -46.5t-38.5 -79t-14.5 -112q0 -68 16 -116.5t43.5 -79
t64.5 -45t78 -14.5q18 0 37.5 4t33.5 12l95 161l27 -8l-20 -162q-32 -16 -67 -28t-77 -17l-83 -71q18 -2 35.5 -9.5t31.5 -19.5t22.5 -29.5t8.5 -40.5q0 -25 -10 -45.5t-27.5 -35.5t-40.5 -23t-50 -8q-42 0 -65.5 15t-23.5 35q0 15 8.5 24.5t23.5 9.5t24 -9.5t9 -23.5
q0 -7 -1.5 -11.5t-4.5 -10.5q10 -5 32 -5q24 0 44.5 18t20.5 52q0 32 -21 50.5t-58 18.5q-7 0 -12 -1t-13 -3l-16 19l120 101h-5z" />
    <glyph glyph-name="Cdotaccent" unicode="&#x10a;" horiz-adv-x="758" 
d="M482 873q0 -28 -20 -49.5t-51 -21.5q-28 0 -46 18.5t-18 46.5t20 49.5t51 21.5q28 0 46 -18.5t18 -46.5zM663 40q-26 -14 -51.5 -24.5t-52.5 -17.5t-58 -11t-68 -4q-83 0 -152.5 25.5t-119.5 72.5t-78 113.5t-28 148.5t30 151t81 118.5t119 77t145 27.5q43 0 88 -10
t80 -24l36 38h25l10 -242l-27 -2q-48 98 -102 150t-130 52q-47 0 -88 -21.5t-71 -62.5t-47 -101.5t-17 -138.5q0 -83 21 -144.5t58 -102t85.5 -60.5t104.5 -20q46 0 84 15l126 154l19 -5z" />
    <glyph glyph-name="cdotaccent" unicode="&#x10b;" horiz-adv-x="537" 
d="M486 416q0 -30 -18 -50t-45 -20q-32 0 -49.5 22t-17.5 49q0 36 18 59q-10 3 -20 5t-24 2q-33 0 -64.5 -13.5t-56.5 -42t-40.5 -71.5t-15.5 -101q0 -48 14.5 -85.5t40 -63.5t59 -39.5t72.5 -13.5q41 0 73 10.5t73 31.5l11 -17q-43 -48 -93.5 -72t-106.5 -24
q-54 0 -99.5 18.5t-78.5 52t-51.5 80t-18.5 103.5q0 61 20.5 113t57.5 90t88 59.5t113 21.5q75 0 117 -30t42 -74zM378 680q0 -29 -20 -51t-52 -22q-29 0 -47 19t-18 48t20.5 50.5t51.5 21.5q29 0 47 -18.5t18 -47.5z" />
    <glyph glyph-name="cdotaccent.sc" horiz-adv-x="623" 
d="M546 31q-42 -20 -89 -34t-105 -14q-67 0 -122.5 19t-95.5 55.5t-62.5 89.5t-22.5 121q0 67 24.5 122t66.5 95t98 62t119 22q35 0 71 -8.5t62 -20.5l29 32h23l15 -200l-34 -3q-23 45 -43 76t-41 50.5t-43.5 28t-50.5 8.5q-35 0 -66.5 -15.5t-55.5 -46.5t-38.5 -79
t-14.5 -112q0 -68 16 -116.5t43.5 -79t64.5 -45t78 -14.5q18 0 37.5 4t34.5 12l95 161l27 -8zM410 722q0 -29 -20 -51t-52 -22q-29 0 -47 19t-18 48t20.5 50.5t51.5 21.5q29 0 47 -18.5t18 -47.5z" />
    <glyph glyph-name="Dcaron" unicode="&#x10e;" horiz-adv-x="825" 
d="M504 1013l21 -19l-128 -195h-39l-120 195l22 19l121 -117zM40 672v29h346q90 0 161.5 -26.5t120.5 -73t75 -110.5t26 -139q0 -76 -28 -140.5t-79.5 -111.5t-123.5 -73.5t-159 -26.5h-339v29l117 21v601zM638 351q0 84 -21.5 142t-58.5 94t-87 52.5t-107 16.5l-93 1v-613
l117 1q54 0 100 16t79 52t52 94.5t19 143.5z" />
    <glyph glyph-name="dcaron" unicode="&#x10f;" horiz-adv-x="637" 
d="M651 829q22 -4 33.5 -20.5t8.5 -42.5q-2 -14 -9 -35t-17.5 -46t-23 -52.5t-25.5 -54.5l-23 6q-1 27 -2 54.5t-1.5 52.5t0 46t2.5 35q4 28 20 44.5t37 12.5zM602 43v-19l-160 -42l-13 8l8 83l-11 2l-1 -1q-19 -18 -38 -34.5t-40 -29t-46 -20t-55 -7.5q-36 0 -71 17
t-62 48.5t-44 76.5t-17 102q0 64 20.5 118t58 93t90 61t115.5 22q25 0 46 -3.5t41 -8.5v215l-85 39v21l174 46l12 -9v-741zM157 267q0 -100 40 -157t112 -57q29 0 57.5 13t56.5 36v317q-28 29 -60 45.5t-70 16.5q-58 0 -97 -52t-39 -162z" />
    <glyph glyph-name="dcaron.sc" horiz-adv-x="680" 
d="M45 526v27h283q72 0 128.5 -20.5t95.5 -56.5t59.5 -86.5t20.5 -110.5q0 -58 -21 -108.5t-61 -88.5t-98 -60t-131 -22h-276v25l87 19v464zM511 276q0 64 -15.5 109t-42.5 73t-63.5 41t-79.5 13h-70v-472h85q39 0 72.5 12t59 40t40 73t14.5 111zM468 864l22 -20l-131 -199
h-39l-122 199l22 20l123 -120z" />
    <glyph glyph-name="Dcroat" unicode="&#x110;" horiz-adv-x="830" 
d="M775 352q0 -76 -28.5 -140.5t-79.5 -111.5t-123 -73.5t-159 -26.5h-340v29l118 21v289h-104v49h104v263l-118 21v29h347q90 0 161.5 -26.5t120.5 -73t75 -110.5t26 -139zM644 351q0 84 -21.5 142t-58.5 94t-87.5 52.5t-107.5 16.5l-93 1v-269h138v-49h-138v-295l117 1
q54 0 100 16t79.5 52t52.5 94.5t19 143.5z" />
    <glyph glyph-name="dcroat" unicode="&#x111;" horiz-adv-x="637" 
d="M602 43v-19l-160 -42l-13 8l8 83l-11 2l-1 -1q-19 -18 -38 -34.5t-40 -29t-46 -20t-55 -7.5q-36 0 -71 17t-62 48.5t-44 76.5t-17 102q0 64 20.5 118t58 93t90 61t115.5 22q25 0 46 -3.5t41 -8.5v106h-194v48h194v62l-85 38v21l174 46l12 -9v-158h89v-48h-89v-535z
M157 267q0 -100 40 -157t112 -57q29 0 57.5 13t56.5 36v317q-28 29 -60 45.5t-70 16.5q-58 0 -97 -52t-39 -162z" />
    <glyph glyph-name="dcroat.sc" horiz-adv-x="685" 
d="M351 308v-44h-107v-224h86q39 0 72.5 12t59 40t40 73t14.5 111q0 64 -15.5 109t-42.5 73t-63.5 41t-79.5 13h-71v-204h107zM59 264v44h80v200l-89 18v27h283q72 0 128.5 -20.5t95.5 -56.5t59.5 -86.5t20.5 -110.5q0 -58 -21 -108.5t-61 -88.5t-98 -60t-131 -22h-276v25
l89 19v220h-80z" />
    <glyph glyph-name="Eacute" unicode="&#xc9;" horiz-adv-x="722" 
d="M447 1003q18 -12 21 -32t-11 -43q-8 -12 -22 -28t-32.5 -34.5t-39.5 -38.5t-41 -39l-20 15q9 27 19 53.5t19 50t18 43t17 31.5q14 21 34.5 27.5t37.5 -5.5zM629 509l-17 -8l-78 94q-14 18 -25.5 29t-25 17.5t-31 9t-43.5 2.5l-138 1v-280h66q24 0 41 4t29.5 15t21.5 29.5
t17 47.5l11 36h23v-306h-24l-10 34q-8 29 -17 48t-21.5 30t-29.5 15.5t-41 4.5h-66v-284l187 1q24 0 40.5 2t29 7.5t22.5 15.5t21 25l88 120l18 -5l-29 -214h-608v29l117 21v601l-117 21v29h564z" />
    <glyph glyph-name="eacute" unicode="&#xe9;" horiz-adv-x="554" 
d="M408 814q18 -13 21 -33.5t-11 -43.5q-8 -12 -22.5 -28t-33.5 -35t-40 -39l-42 -40l-19 15q9 27 19 54.5t19 51.5t18 43.5t17 31.5q14 22 35 28.5t39 -5.5zM155 276q-3 -103 41.5 -161.5t141.5 -58.5q40 0 74.5 12t81.5 38l10 -24q-53 -49 -103.5 -74.5t-105.5 -25.5
t-100.5 19t-78 53t-50.5 82t-18 107t19.5 110t53.5 88t79.5 58t97.5 21q54 0 93.5 -20t65.5 -54t38.5 -78t12.5 -92h-353zM397 318q-6 166 -109 166q-55 0 -91 -48t-41 -126z" />
    <glyph glyph-name="eacute.sc" horiz-adv-x="608" 
d="M410 854q18 -13 21 -33.5t-11 -43.5q-8 -12 -22.5 -28t-33.5 -35t-40 -39l-42 -40l-19 15q9 27 19 54.5t19 51.5t18 43.5t17 31.5q14 22 35 28.5t39 -5.5zM542 390l-23 -5l-56 75q-20 27 -41.5 38.5t-62.5 11.5h-119v-209h34q35 0 59.5 15t40.5 50l13 30h23v-230h-23
l-14 31q-29 66 -99 66h-34v-221l143 1q38 0 56.5 10.5t34.5 32.5l68 96l23 -4l-22 -178h-498v25l87 19v464l-87 18v27h480z" />
    <glyph glyph-name="Ebreve" unicode="&#x114;" horiz-adv-x="722" 
d="M342 876q47 0 73 24t46 74l30 -9q-7 -78 -45 -122.5t-104 -44.5t-105 44.5t-46 122.5l30 9q19 -50 46 -74t75 -24zM629 509l-17 -8l-78 94q-14 18 -25.5 29t-25 17.5t-31 9t-43.5 2.5l-138 1v-280h66q24 0 41 4t29.5 15t21.5 29.5t17 47.5l11 36h23v-306h-24l-10 34
q-8 29 -17 48t-21.5 30t-29.5 15.5t-41 4.5h-66v-284l187 1q24 0 40.5 2t29 7.5t22.5 15.5t21 25l88 120l18 -5l-29 -214h-608v29l117 21v601l-117 21v29h564z" />
    <glyph glyph-name="ebreve" unicode="&#x115;" horiz-adv-x="554" 
d="M155 276q-3 -103 41.5 -161.5t141.5 -58.5q40 0 74.5 12t81.5 38l10 -24q-53 -49 -103.5 -74.5t-105.5 -25.5t-100.5 19t-78 53t-50.5 82t-18 107t19.5 110t53.5 88t79.5 58t97.5 21q54 0 93.5 -20t65.5 -54t38.5 -78t12.5 -92h-353zM397 318q-6 166 -109 166
q-55 0 -91 -48t-41 -126zM300 684q48 0 75 24.5t46 75.5l31 -9q-7 -80 -45.5 -125t-106.5 -45t-107 45t-46 125l30 9q19 -51 47 -75.5t76 -24.5z" />
    <glyph glyph-name="ebreve.sc" horiz-adv-x="608" 
d="M542 390l-23 -5l-56 75q-20 27 -41.5 38.5t-62.5 11.5h-119v-209h34q35 0 59.5 15t40.5 50l13 30h23v-230h-23l-14 31q-29 66 -99 66h-34v-221l143 1q38 0 56.5 10.5t34.5 32.5l68 96l23 -4l-22 -178h-498v25l87 19v464l-87 18v27h480zM302 724q48 0 75 24.5t46 75.5
l31 -9q-7 -80 -45.5 -125t-106.5 -45t-107 45t-46 125l30 9q19 -51 47 -75.5t76 -24.5z" />
    <glyph glyph-name="Ecaron" unicode="&#x11a;" horiz-adv-x="722" 
d="M462 1013l21 -19l-128 -195h-39l-120 195l22 19l121 -117zM629 509l-17 -8l-78 94q-14 18 -25.5 29t-25 17.5t-31 9t-43.5 2.5l-138 1v-280h66q24 0 41 4t29.5 15t21.5 29.5t17 47.5l11 36h23v-306h-24l-10 34q-8 29 -17 48t-21.5 30t-29.5 15.5t-41 4.5h-66v-284l187 1
q24 0 40.5 2t29 7.5t22.5 15.5t21 25l88 120l18 -5l-29 -214h-608v29l117 21v601l-117 21v29h564z" />
    <glyph glyph-name="ecaron" unicode="&#x11b;" horiz-adv-x="554" 
d="M423 824l22 -20l-131 -199h-39l-122 199l22 20l123 -120zM155 276q-3 -103 41.5 -161.5t141.5 -58.5q40 0 74.5 12t81.5 38l10 -24q-53 -49 -103.5 -74.5t-105.5 -25.5t-100.5 19t-78 53t-50.5 82t-18 107t19.5 110t53.5 88t79.5 58t97.5 21q54 0 93.5 -20t65.5 -54
t38.5 -78t12.5 -92h-353zM397 318q-6 166 -109 166q-55 0 -91 -48t-41 -126z" />
    <glyph glyph-name="ecaron.sc" horiz-adv-x="608" 
d="M425 864l22 -20l-131 -199h-39l-122 199l22 20l123 -120zM542 390l-23 -5l-56 75q-20 27 -41.5 38.5t-62.5 11.5h-119v-209h34q35 0 59.5 15t40.5 50l13 30h23v-230h-23l-14 31q-29 66 -99 66h-34v-221l143 1q38 0 56.5 10.5t34.5 32.5l68 96l23 -4l-22 -178h-498v25
l87 19v464l-87 18v27h480z" />
    <glyph glyph-name="Ecircumflex" unicode="&#xca;" horiz-adv-x="722" 
d="M629 509l-17 -8l-78 94q-14 18 -25.5 29t-25 17.5t-31 9t-43.5 2.5l-138 1v-280h66q24 0 41 4t29.5 15t21.5 29.5t17 47.5l11 36h23v-306h-24l-10 34q-8 29 -17 48t-21.5 30t-29.5 15.5t-41 4.5h-66v-284l187 1q24 0 40.5 2t29 7.5t22.5 15.5t21 25l88 120l18 -5
l-29 -214h-608v29l117 21v601l-117 21v29h564zM220 782l-22 19l129 195h38l120 -195l-21 -19l-122 117z" />
    <glyph glyph-name="ecircumflex" unicode="&#xea;" horiz-adv-x="554" 
d="M177 588l-22 20l130 199h40l122 -199l-22 -20l-124 120zM155 276q-3 -103 41.5 -161.5t141.5 -58.5q40 0 74.5 12t81.5 38l10 -24q-53 -49 -103.5 -74.5t-105.5 -25.5t-100.5 19t-78 53t-50.5 82t-18 107t19.5 110t53.5 88t79.5 58t97.5 21q54 0 93.5 -20t65.5 -54
t38.5 -78t12.5 -92h-353zM397 318q-6 166 -109 166q-55 0 -91 -48t-41 -126z" />
    <glyph glyph-name="ecircumflex.sc" horiz-adv-x="608" 
d="M179 628l-22 20l130 199h40l122 -199l-22 -20l-124 120zM542 390l-23 -5l-56 75q-20 27 -41.5 38.5t-62.5 11.5h-119v-209h34q35 0 59.5 15t40.5 50l13 30h23v-230h-23l-14 31q-29 66 -99 66h-34v-221l143 1q38 0 56.5 10.5t34.5 32.5l68 96l23 -4l-22 -178h-498v25
l87 19v464l-87 18v27h480z" />
    <glyph glyph-name="Edieresis" unicode="&#xcb;" horiz-adv-x="722" 
d="M440 803q-27 0 -44 17.5t-17 45.5q0 26 19.5 47t48.5 21q27 0 44.5 -17.5t17.5 -45.5q0 -27 -19.5 -47.5t-49.5 -20.5zM231 803q-27 0 -44.5 17.5t-17.5 45.5q0 26 19.5 47t49.5 21q27 0 44.5 -17.5t17.5 -45.5q0 -27 -20 -47.5t-49 -20.5zM629 509l-17 -8l-78 94
q-14 18 -25.5 29t-25 17.5t-31 9t-43.5 2.5l-138 1v-280h66q24 0 41 4t29.5 15t21.5 29.5t17 47.5l11 36h23v-306h-24l-10 34q-8 29 -17 48t-21.5 30t-29.5 15.5t-41 4.5h-66v-284l187 1q24 0 40.5 2t29 7.5t22.5 15.5t21 25l88 120l18 -5l-29 -214h-608v29l117 21v601
l-117 21v29h564z" />
    <glyph glyph-name="edieresis" unicode="&#xeb;" horiz-adv-x="554" 
d="M401 609q-27 0 -44.5 18.5t-17.5 46.5q0 27 19.5 48.5t49.5 21.5q28 0 45.5 -18.5t17.5 -46.5q0 -27 -19.5 -48.5t-50.5 -21.5zM188 609q-27 0 -44.5 18.5t-17.5 46.5q0 27 19.5 48.5t49.5 21.5q28 0 45.5 -18.5t17.5 -46.5q0 -27 -20 -48.5t-50 -21.5zM155 276
q-3 -103 41.5 -161.5t141.5 -58.5q40 0 74.5 12t81.5 38l10 -24q-53 -49 -103.5 -74.5t-105.5 -25.5t-100.5 19t-78 53t-50.5 82t-18 107t19.5 110t53.5 88t79.5 58t97.5 21q54 0 93.5 -20t65.5 -54t38.5 -78t12.5 -92h-353zM397 318q-6 166 -109 166q-55 0 -91 -48
t-41 -126z" />
    <glyph glyph-name="edieresis.sc" horiz-adv-x="608" 
d="M403 649q-27 0 -44.5 18.5t-17.5 46.5q0 27 19.5 48.5t49.5 21.5q28 0 45.5 -18.5t17.5 -46.5q0 -27 -19.5 -48.5t-50.5 -21.5zM190 649q-27 0 -44.5 18.5t-17.5 46.5q0 27 19.5 48.5t49.5 21.5q28 0 45.5 -18.5t17.5 -46.5q0 -27 -20 -48.5t-50 -21.5zM542 390l-23 -5
l-56 75q-20 27 -41.5 38.5t-62.5 11.5h-119v-209h34q35 0 59.5 15t40.5 50l13 30h23v-230h-23l-14 31q-29 66 -99 66h-34v-221l143 1q38 0 56.5 10.5t34.5 32.5l68 96l23 -4l-22 -178h-498v25l87 19v464l-87 18v27h480z" />
    <glyph glyph-name="Edotaccent" unicode="&#x116;" horiz-adv-x="722" 
d="M407 872q0 -28 -20 -49.5t-51 -21.5q-28 0 -46 18.5t-18 46.5t20 49.5t51 21.5q28 0 46 -18.5t18 -46.5zM629 509l-17 -8l-78 94q-14 18 -25.5 29t-25 17.5t-31 9t-43.5 2.5l-138 1v-280h66q24 0 41 4t29.5 15t21.5 29.5t17 47.5l11 36h23v-306h-24l-10 34q-8 29 -17 48
t-21.5 30t-29.5 15.5t-41 4.5h-66v-284l187 1q24 0 40.5 2t29 7.5t22.5 15.5t21 25l88 120l18 -5l-29 -214h-608v29l117 21v601l-117 21v29h564z" />
    <glyph glyph-name="edotaccent" unicode="&#x117;" horiz-adv-x="554" 
d="M155 276q-3 -103 41.5 -161.5t141.5 -58.5q40 0 74.5 12t81.5 38l10 -24q-53 -49 -103.5 -74.5t-105.5 -25.5t-100.5 19t-78 53t-50.5 82t-18 107t19.5 110t53.5 88t79.5 58t97.5 21q54 0 93.5 -20t65.5 -54t38.5 -78t12.5 -92h-353zM397 318q-6 166 -109 166
q-55 0 -91 -48t-41 -126zM366 680q0 -29 -20 -51t-52 -22q-29 0 -47 19t-18 48t20.5 50.5t51.5 21.5q29 0 47 -18.5t18 -47.5z" />
    <glyph glyph-name="edotaccent.sc" horiz-adv-x="608" 
d="M368 720q0 -29 -20 -51t-52 -22q-29 0 -47 19t-18 48t20.5 50.5t51.5 21.5q29 0 47 -18.5t18 -47.5zM542 390l-23 -5l-56 75q-20 27 -41.5 38.5t-62.5 11.5h-119v-209h34q35 0 59.5 15t40.5 50l13 30h23v-230h-23l-14 31q-29 66 -99 66h-34v-221l143 1q38 0 56.5 10.5
t34.5 32.5l68 96l23 -4l-22 -178h-498v25l87 19v464l-87 18v27h480z" />
    <glyph glyph-name="Egrave" unicode="&#xc8;" horiz-adv-x="722" 
d="M365 788q-20 19 -41 39t-39.5 38.5t-33 34.5t-21.5 28q-14 23 -11 43t21 32t38.5 5t33.5 -27q8 -12 17 -31.5t18 -43t19 -50t19 -53.5zM629 509l-17 -8l-78 94q-14 18 -25.5 29t-25 17.5t-31 9t-43.5 2.5l-138 1v-280h66q24 0 41 4t29.5 15t21.5 29.5t17 47.5l11 36h23
v-306h-24l-10 34q-8 29 -17 48t-21.5 30t-29.5 15.5t-41 4.5h-66v-284l187 1q24 0 40.5 2t29 7.5t22.5 15.5t21 25l88 120l18 -5l-29 -214h-608v29l117 21v601l-117 21v29h564z" />
    <glyph glyph-name="egrave" unicode="&#xe8;" horiz-adv-x="554" 
d="M155 276q-3 -103 41.5 -161.5t141.5 -58.5q40 0 74.5 12t81.5 38l10 -24q-53 -49 -103.5 -74.5t-105.5 -25.5t-100.5 19t-78 53t-50.5 82t-18 107t19.5 110t53.5 88t79.5 58t97.5 21q54 0 93.5 -20t65.5 -54t38.5 -78t12.5 -92h-353zM397 318q-6 166 -109 166
q-55 0 -91 -48t-41 -126zM324 595l-42 40t-39.5 39t-33 35t-22.5 28q-14 23 -11.5 43.5t21.5 33.5q18 12 39 5t35 -28q7 -12 16 -31.5t18.5 -43.5t19.5 -51.5t19 -54.5z" />
    <glyph glyph-name="egrave.sc" horiz-adv-x="608" 
d="M326 635l-42 40t-39.5 39t-33 35t-22.5 28q-14 23 -11.5 43.5t21.5 33.5q18 12 39 5t35 -28q7 -12 16 -31.5t18.5 -43.5t19.5 -51.5t19 -54.5zM542 390l-23 -5l-56 75q-20 27 -41.5 38.5t-62.5 11.5h-119v-209h34q35 0 59.5 15t40.5 50l13 30h23v-230h-23l-14 31
q-29 66 -99 66h-34v-221l143 1q38 0 56.5 10.5t34.5 32.5l68 96l23 -4l-22 -178h-498v25l87 19v464l-87 18v27h480z" />
    <glyph glyph-name="Emacron" unicode="&#x112;" horiz-adv-x="722" 
d="M484 818h-289v68h289v-68zM629 509l-17 -8l-78 94q-14 18 -25.5 29t-25 17.5t-31 9t-43.5 2.5l-138 1v-280h66q24 0 41 4t29.5 15t21.5 29.5t17 47.5l11 36h23v-306h-24l-10 34q-8 29 -17 48t-21.5 30t-29.5 15.5t-41 4.5h-66v-284l187 1q24 0 40.5 2t29 7.5t22.5 15.5
t21 25l88 120l18 -5l-29 -214h-608v29l117 21v601l-117 21v29h564z" />
    <glyph glyph-name="emacron" unicode="&#x113;" horiz-adv-x="554" 
d="M155 276q-3 -103 41.5 -161.5t141.5 -58.5q40 0 74.5 12t81.5 38l10 -24q-53 -49 -103.5 -74.5t-105.5 -25.5t-100.5 19t-78 53t-50.5 82t-18 107t19.5 110t53.5 88t79.5 58t97.5 21q54 0 93.5 -20t65.5 -54t38.5 -78t12.5 -92h-353zM397 318q-6 166 -109 166
q-55 0 -91 -48t-41 -126zM445 625h-293v69h293v-69z" />
    <glyph glyph-name="emacron.sc" horiz-adv-x="608" 
d="M447 665h-293v69h293v-69zM542 390l-23 -5l-56 75q-20 27 -41.5 38.5t-62.5 11.5h-119v-209h34q35 0 59.5 15t40.5 50l13 30h23v-230h-23l-14 31q-29 66 -99 66h-34v-221l143 1q38 0 56.5 10.5t34.5 32.5l68 96l23 -4l-22 -178h-498v25l87 19v464l-87 18v27h480z" />
    <glyph glyph-name="Eogonek" unicode="&#x118;" horiz-adv-x="722" 
d="M629 509l-17 -8l-78 94q-14 18 -25.5 29t-25 17.5t-31 9t-43.5 2.5l-138 1v-280h66q24 0 41 4t29.5 15t21.5 29.5t17 47.5l11 36h23v-306h-24l-10 34q-8 29 -17 48t-21.5 30t-29.5 15.5t-41 4.5h-66v-284l187 1q24 0 40.5 2t29 7.5t22.5 15.5t21 25l88 120l18 -5
l-29 -214h-65q-43 -53 -58.5 -88.5t-15.5 -67.5q0 -38 20 -58.5t51 -20.5q21 0 38.5 8t31.5 17l13 -16q-23 -23 -50 -37.5t-59 -14.5q-23 0 -44 6.5t-36.5 19.5t-24.5 32.5t-9 44.5q0 44 24.5 85t78.5 90h-503v29l117 21v601l-117 21v29h564z" />
    <glyph glyph-name="eogonek" unicode="&#x119;" horiz-adv-x="554" 
d="M155 276q-3 -103 41.5 -161.5t141.5 -58.5q40 0 74.5 12t81.5 38l10 -24l-39 -33q-71 -65 -99 -115.5t-28 -92.5q0 -39 20 -59.5t52 -20.5q22 0 39.5 7.5t31.5 17.5l13 -16q-23 -24 -50 -38.5t-60 -14.5q-24 0 -45 6.5t-36.5 20t-25 32.5t-9.5 45q0 41 22.5 82.5
t73.5 89.5q-35 -11 -69 -11q-55 0 -100.5 19t-78 53t-50.5 82t-18 107t19.5 110t53.5 88t79.5 58t97.5 21q54 0 93.5 -20t65.5 -54t38.5 -78t12.5 -92h-353zM397 318q-6 166 -109 166q-55 0 -91 -48t-41 -126z" />
    <glyph glyph-name="eogonek.sc" horiz-adv-x="608" 
d="M542 390l-23 -5l-56 75q-20 27 -41.5 38.5t-62.5 11.5h-119v-209h34q35 0 59.5 15t40.5 50l13 30h23v-230h-23l-14 31q-29 66 -99 66h-34v-221l143 1q38 0 56.5 10.5t34.5 32.5l68 96l23 -4l-22 -178h-58q-21 -27 -35.5 -49.5t-23 -41t-12 -35t-3.5 -32.5
q0 -40 20.5 -60.5t51.5 -20.5q22 0 39.5 7.5t31.5 17.5l13 -16q-23 -24 -50 -38.5t-60 -14.5q-24 0 -45 6.5t-36.5 20t-25 32.5t-9.5 45q0 45 25 87t80 92h-401v25l87 19v464l-87 18v27h480z" />
    <glyph glyph-name="Eth" unicode="&#xd0;" horiz-adv-x="830" 
d="M775 352q0 -76 -28.5 -140.5t-79.5 -111.5t-123 -73.5t-159 -26.5h-340v29l118 21v289h-104v49h104v263l-118 21v29h347q90 0 161.5 -26.5t120.5 -73t75 -110.5t26 -139zM644 351q0 84 -21.5 142t-58.5 94t-87.5 52.5t-107.5 16.5l-93 1v-269h138v-49h-138v-295l117 1
q54 0 100 16t79.5 52t52.5 94.5t19 143.5z" />
    <glyph glyph-name="eth" unicode="&#xf0;" horiz-adv-x="624" 
d="M569 328q0 -78 -20.5 -142t-56.5 -109t-85 -70t-107 -25q-54 0 -100 18.5t-79.5 53.5t-52.5 85t-19 113q0 54 18 103t50.5 85.5t77.5 58t99 21.5q40 0 70 -10t56 -27l10 5q-14 48 -38 91.5t-57 81.5l-113 -49l-16 42l97 42q-31 31 -67 57t-78 49l12 28
q55 -17 105.5 -43.5t95.5 -60.5l127 55l16 -42l-105 -46q72 -67 116 -158.5t44 -206.5zM457 289q0 43 -4.5 82t-15.5 76q-26 10 -51 15t-55 5q-35 0 -65.5 -15t-53.5 -43.5t-36.5 -70t-13.5 -95.5t13.5 -94.5t35.5 -68.5t49.5 -42t56.5 -14q66 0 103 67.5t37 197.5z" />
    <glyph glyph-name="eth.sc" horiz-adv-x="685" 
d="M351 308v-44h-107v-224h86q39 0 72.5 12t59 40t40 73t14.5 111q0 64 -15.5 109t-42.5 73t-63.5 41t-79.5 13h-71v-204h107zM59 264v44h80v200l-89 18v27h283q72 0 128.5 -20.5t95.5 -56.5t59.5 -86.5t20.5 -110.5q0 -58 -21 -108.5t-61 -88.5t-98 -60t-131 -22h-276v25
l89 19v220h-80z" />
    <glyph glyph-name="Gbreve" unicode="&#x11e;" horiz-adv-x="790" 
d="M409 877q47 0 73 24t46 74l30 -9q-7 -78 -45 -122.5t-104 -44.5t-105 44.5t-46 122.5l30 9q19 -50 46 -74t75 -24zM635 479q-27 54 -54.5 92t-56.5 61.5t-60 34t-67 10.5q-39 0 -77 -17.5t-67.5 -55.5t-47.5 -97t-18 -143q0 -83 19.5 -145t54 -102.5t81.5 -60.5t103 -20
q33 0 63.5 9.5t55.5 21.5v198l-105 20v29h306v-29l-89 -20v-273l-24 -5l-67 53q-40 -26 -87.5 -41.5t-102.5 -15.5q-75 0 -137.5 26.5t-107.5 73.5t-70 113t-25 146q0 77 28 145t78 119t118.5 81t150.5 30q44 0 86 -8.5t74 -25.5l37 38h26l8 -240z" />
    <glyph glyph-name="gbreve" unicode="&#x11f;" horiz-adv-x="569" 
d="M467 349q0 -40 -15.5 -71.5t-42.5 -54t-64.5 -34.5t-81.5 -12q-24 0 -42 3t-35 10q-12 -11 -23 -25.5t-11 -31.5q0 -25 19.5 -34.5t61.5 -10.5l133 -2q170 -3 170 -125q0 -36 -19.5 -71t-56.5 -63t-90.5 -45t-121.5 -17q-56 0 -98.5 10t-71 26.5t-42.5 39t-14 46.5
q0 35 30 69.5t81 54.5l-1 10q-33 11 -51 27t-18 42q0 51 91 106v8q-42 22 -67 59.5t-25 85.5q0 39 16.5 71t44.5 54t65.5 34t79.5 12q49 0 82 -13t59 -32l98 44h59v-95h-22l-103 20l-5 -7q14 -17 22.5 -40.5t8.5 -47.5zM365 349q0 64 -26 101.5t-74 37.5q-22 0 -40.5 -7
t-32 -23.5t-21 -43t-7.5 -65.5q0 -41 7 -68.5t20.5 -43.5t33 -22.5t44.5 -6.5q44 0 70 38t26 103zM457 -83q0 45 -30.5 63.5t-87.5 20.5l-176 2q-20 -14 -33 -37t-13 -52q0 -48 43 -79t128 -31q38 0 69 9.5t53.5 25t34.5 36t12 42.5zM285 684q48 0 75 24.5t46 75.5l31 -9
q-7 -80 -45.5 -125t-106.5 -45t-107 45t-46 125l30 9q19 -51 47 -75.5t76 -24.5z" />
    <glyph glyph-name="gbreve.sc" horiz-adv-x="649" 
d="M512 371q-38 81 -78.5 121t-94.5 40q-30 0 -60.5 -13.5t-54.5 -42.5t-39 -75t-15 -112q0 -67 16 -116t42.5 -80.5t60.5 -46.5t71 -15q23 0 46.5 7.5t39.5 19.5v158l-89 19v26h258v-25l-65 -18v-228l-24 -3l-55 50q-30 -24 -68.5 -39t-80.5 -15q-59 0 -109 20.5t-86.5 58
t-57 90t-20.5 116.5t24 119.5t65.5 95.5t97 63t117.5 23q74 0 129 -29l29 32h26l7 -199zM333 726q48 0 75 24.5t46 75.5l31 -9q-7 -80 -45.5 -125t-106.5 -45t-107 45t-46 125l30 9q19 -51 47 -75.5t76 -24.5z" />
    <glyph glyph-name="Gcommaaccent" unicode="&#x122;" horiz-adv-x="790" 
d="M635 479q-27 54 -54.5 92t-56.5 61.5t-60 34t-67 10.5q-39 0 -77 -17.5t-67.5 -55.5t-47.5 -97t-18 -143q0 -83 19.5 -145t54 -102.5t81.5 -60.5t103 -20q33 0 63.5 9.5t55.5 21.5v198l-105 20v29h306v-29l-89 -20v-273l-24 -5l-67 53q-40 -26 -87.5 -41.5t-102.5 -15.5
q-75 0 -137.5 26.5t-107.5 73.5t-70 113t-25 146q0 77 28 145t78 119t118.5 81t150.5 30q44 0 86 -8.5t74 -25.5l37 38h26l8 -240zM460 -154q0 -55 -38 -98t-98 -66l-10 20q43 25 66.5 52t26.5 60l-6 4l-1 -1q-6 -3 -11 -3.5t-12 -0.5q-19 0 -30.5 14t-11.5 36q0 24 16.5 42
t41.5 18q31 0 49 -21t18 -56z" />
    <glyph glyph-name="gcommaaccent" unicode="&#x123;" horiz-adv-x="569" 
d="M215 682q0 55 38 98t98 66l10 -20q-43 -25 -66.5 -52t-26.5 -60l6 -4l1 1q6 3 11 3.5t12 0.5q19 0 30.5 -14t11.5 -36q0 -24 -16.5 -42t-41.5 -18q-31 0 -49 21t-18 56zM467 349q0 -40 -15.5 -71.5t-42.5 -54t-64.5 -34.5t-81.5 -12q-24 0 -42 3t-35 10
q-12 -11 -23 -25.5t-11 -31.5q0 -25 19.5 -34.5t61.5 -10.5l133 -2q170 -3 170 -125q0 -36 -19.5 -71t-56.5 -63t-90.5 -45t-121.5 -17q-56 0 -98.5 10t-71 26.5t-42.5 39t-14 46.5q0 35 30 69.5t81 54.5l-1 10q-33 11 -51 27t-18 42q0 51 91 106v8q-42 22 -67 59.5
t-25 85.5q0 39 16.5 71t44.5 54t65.5 34t79.5 12q49 0 82 -13t59 -32l98 44h59v-95h-22l-103 20l-5 -7q14 -17 22.5 -40.5t8.5 -47.5zM365 349q0 64 -26 101.5t-74 37.5q-22 0 -40.5 -7t-32 -23.5t-21 -43t-7.5 -65.5q0 -41 7 -68.5t20.5 -43.5t33 -22.5t44.5 -6.5
q44 0 70 38t26 103zM457 -83q0 45 -30.5 63.5t-87.5 20.5l-176 2q-20 -14 -33 -37t-13 -52q0 -48 43 -79t128 -31q38 0 69 9.5t53.5 25t34.5 36t12 42.5z" />
    <glyph glyph-name="gcommaaccent.sc" horiz-adv-x="649" 
d="M387 -157q0 -56 -38 -99.5t-100 -66.5l-10 20q43 25 67.5 52.5t26.5 61.5l-5 4l-2 -2q-5 -3 -10.5 -3.5t-12.5 -0.5q-19 0 -31 14.5t-12 36.5q0 25 17 43t43 18q31 0 49 -21.5t18 -56.5zM512 371q-38 81 -78.5 121t-94.5 40q-30 0 -60.5 -13.5t-54.5 -42.5t-39 -75
t-15 -112q0 -67 16 -116t42.5 -80.5t60.5 -46.5t71 -15q23 0 46.5 7.5t39.5 19.5v158l-89 19v26h258v-25l-65 -18v-228l-24 -3l-55 50q-30 -24 -68.5 -39t-80.5 -15q-59 0 -109 20.5t-86.5 58t-57 90t-20.5 116.5t24 119.5t65.5 95.5t97 63t117.5 23q74 0 129 -29l29 32h26
l7 -199z" />
    <glyph glyph-name="Gdotaccent" unicode="&#x120;" horiz-adv-x="790" 
d="M474 873q0 -28 -20 -49.5t-51 -21.5q-28 0 -46 18.5t-18 46.5t20 49.5t51 21.5q28 0 46 -18.5t18 -46.5zM635 479q-27 54 -54.5 92t-56.5 61.5t-60 34t-67 10.5q-39 0 -77 -17.5t-67.5 -55.5t-47.5 -97t-18 -143q0 -83 19.5 -145t54 -102.5t81.5 -60.5t103 -20
q33 0 63.5 9.5t55.5 21.5v198l-105 20v29h306v-29l-89 -20v-273l-24 -5l-67 53q-40 -26 -87.5 -41.5t-102.5 -15.5q-75 0 -137.5 26.5t-107.5 73.5t-70 113t-25 146q0 77 28 145t78 119t118.5 81t150.5 30q44 0 86 -8.5t74 -25.5l37 38h26l8 -240z" />
    <glyph glyph-name="gdotaccent" unicode="&#x121;" horiz-adv-x="569" 
d="M467 349q0 -40 -15.5 -71.5t-42.5 -54t-64.5 -34.5t-81.5 -12q-24 0 -42 3t-35 10q-12 -11 -23 -25.5t-11 -31.5q0 -25 19.5 -34.5t61.5 -10.5l133 -2q170 -3 170 -125q0 -36 -19.5 -71t-56.5 -63t-90.5 -45t-121.5 -17q-56 0 -98.5 10t-71 26.5t-42.5 39t-14 46.5
q0 35 30 69.5t81 54.5l-1 10q-33 11 -51 27t-18 42q0 51 91 106v8q-42 22 -67 59.5t-25 85.5q0 39 16.5 71t44.5 54t65.5 34t79.5 12q49 0 82 -13t59 -32l98 44h59v-95h-22l-103 20l-5 -7q14 -17 22.5 -40.5t8.5 -47.5zM365 349q0 64 -26 101.5t-74 37.5q-22 0 -40.5 -7
t-32 -23.5t-21 -43t-7.5 -65.5q0 -41 7 -68.5t20.5 -43.5t33 -22.5t44.5 -6.5q44 0 70 38t26 103zM457 -83q0 45 -30.5 63.5t-87.5 20.5l-176 2q-20 -14 -33 -37t-13 -52q0 -48 43 -79t128 -31q38 0 69 9.5t53.5 25t34.5 36t12 42.5zM351 680q0 -29 -20 -51t-52 -22
q-29 0 -47 19t-18 48t20.5 50.5t51.5 21.5q29 0 47 -18.5t18 -47.5z" />
    <glyph glyph-name="gdotaccent.sc" horiz-adv-x="649" 
d="M512 371q-38 81 -78.5 121t-94.5 40q-30 0 -60.5 -13.5t-54.5 -42.5t-39 -75t-15 -112q0 -67 16 -116t42.5 -80.5t60.5 -46.5t71 -15q23 0 46.5 7.5t39.5 19.5v158l-89 19v26h258v-25l-65 -18v-228l-24 -3l-55 50q-30 -24 -68.5 -39t-80.5 -15q-59 0 -109 20.5t-86.5 58
t-57 90t-20.5 116.5t24 119.5t65.5 95.5t97 63t117.5 23q74 0 129 -29l29 32h26l7 -199zM399 722q0 -29 -20 -51t-52 -22q-29 0 -47 19t-18 48t20.5 50.5t51.5 21.5q29 0 47 -18.5t18 -47.5z" />
    <glyph glyph-name="Hbar" unicode="&#x126;" horiz-adv-x="911" 
d="M862 496h-107v-446l117 -21v-29h-342v29l110 21v278h-369v-278l111 -21v-29h-342v29l117 21v446h-107v47h107v108l-117 21v29h342v-29l-111 -21v-108h369v108l-110 21v29h342v-29l-117 -21v-108h107v-47zM640 496h-369v-120h369v120z" />
    <glyph glyph-name="hbar" unicode="&#x127;" horiz-adv-x="656" 
d="M455 329q0 56 -24 87.5t-78 31.5q-38 0 -69 -12.5t-66 -35.5v-354l72 -21v-25h-251v25l78 21v569h-88v48h88v62l-86 38v21l175 46l12 -9v-158h194v-48h-194v-182l5 -2q38 35 83.5 62t105.5 27q72 0 108 -43t36 -112v-319l78 -21v-25h-253v25l74 21v283v0z" />
    <glyph glyph-name="hbar.sc" horiz-adv-x="749" 
d="M693 394h-78v-350l89 -19v-25h-278v25l82 19v218h-268v-218l81 -19v-25h-276v25l87 19v350h-76v42h76v72l-87 18v27h276v-27l-81 -18v-72h268v72l-82 18v27h278v-27l-89 -18v-72h78v-42zM508 394h-268v-88h268v88z" />
    <glyph glyph-name="Iacute" unicode="&#xcd;" horiz-adv-x="460" 
d="M407 29v-29h-355v29l120 21v601l-120 21v29h355v-29l-120 -21v-601zM337 1003q18 -12 21 -32t-11 -43q-8 -12 -22 -28t-32.5 -34.5t-39.5 -38.5t-41 -39l-20 15q9 27 19 53.5t19 50t18 43t17 31.5q14 21 34.5 27.5t37.5 -5.5z" />
    <glyph glyph-name="iacute" unicode="&#xed;" horiz-adv-x="334" 
d="M267 813q18 -13 21 -33.5t-11 -43.5q-8 -12 -22.5 -28t-33.5 -35t-40 -39l-42 -40l-19 15q9 27 19 54.5t19 51.5t18 43.5t17 31.5q14 22 35 28.5t39 -5.5zM124 422l-77 38v21l171 41l7 -5v-471l74 -21v-25h-253v25l78 21v376z" />
    <glyph glyph-name="iacute.sc" horiz-adv-x="404" 
d="M312 854q18 -13 21 -33.5t-11 -43.5q-8 -12 -22.5 -28t-33.5 -35t-40 -39l-42 -40l-19 15q9 27 19 54.5t19 51.5t18 43.5t17 31.5q14 22 35 28.5t39 -5.5zM347 25v-25h-290v25l91 19v464l-91 18v27h290v-27l-91 -18v-464z" />
    <glyph glyph-name="Ibreve" unicode="&#x12c;" horiz-adv-x="460" 
d="M407 29v-29h-355v29l120 21v601l-120 21v29h355v-29l-120 -21v-601zM231 876q47 0 73 24t46 74l30 -9q-7 -78 -45 -122.5t-104 -44.5t-105 44.5t-46 122.5l30 9q19 -50 46 -74t75 -24z" />
    <glyph glyph-name="ibreve" unicode="&#x12d;" horiz-adv-x="334" 
d="M124 422l-77 38v21l171 41l7 -5v-471l74 -21v-25h-253v25l78 21v376zM160 683q48 0 75 24.5t46 75.5l31 -9q-7 -80 -45.5 -125t-106.5 -45t-107 45t-46 125l30 9q19 -51 47 -75.5t76 -24.5z" />
    <glyph glyph-name="ibreve.sc" horiz-adv-x="404" 
d="M347 25v-25h-290v25l91 19v464l-91 18v27h290v-27l-91 -18v-464zM204 724q48 0 75 24.5t46 75.5l31 -9q-7 -80 -45.5 -125t-106.5 -45t-107 45t-46 125l30 9q19 -51 47 -75.5t76 -24.5z" />
    <glyph glyph-name="Icircumflex" unicode="&#xce;" horiz-adv-x="460" 
d="M407 29v-29h-355v29l120 21v601l-120 21v29h355v-29l-120 -21v-601zM110 782l-22 19l129 195h38l120 -195l-21 -19l-122 117z" />
    <glyph glyph-name="icircumflex" unicode="&#xee;" horiz-adv-x="334" 
d="M36 587l-22 20l130 199h40l122 -199l-22 -20l-124 120zM124 422l-77 38v21l171 41l7 -5v-471l74 -21v-25h-253v25l78 21v376z" />
    <glyph glyph-name="icircumflex.sc" horiz-adv-x="404" 
d="M80 628l-22 20l130 199h40l122 -199l-22 -20l-124 120zM347 25v-25h-290v25l91 19v464l-91 18v27h290v-27l-91 -18v-464z" />
    <glyph glyph-name="Idieresis" unicode="&#xcf;" horiz-adv-x="460" 
d="M407 29v-29h-355v29l120 21v601l-120 21v29h355v-29l-120 -21v-601zM330 803q-27 0 -44 17.5t-17 45.5q0 26 19.5 47t48.5 21q27 0 44.5 -17.5t17.5 -45.5q0 -27 -19.5 -47.5t-49.5 -20.5zM121 803q-27 0 -44.5 17.5t-17.5 45.5q0 26 19.5 47t49.5 21q27 0 44.5 -17.5
t17.5 -45.5q0 -27 -20 -47.5t-49 -20.5z" />
    <glyph glyph-name="idieresis" unicode="&#xef;" horiz-adv-x="334" 
d="M260 608q-27 0 -44.5 18.5t-17.5 46.5q0 27 19.5 48.5t49.5 21.5q28 0 45.5 -18.5t17.5 -46.5q0 -27 -19.5 -48.5t-50.5 -21.5zM47 608q-27 0 -44.5 18.5t-17.5 46.5q0 27 19.5 48.5t49.5 21.5q28 0 45.5 -18.5t17.5 -46.5q0 -27 -20 -48.5t-50 -21.5zM124 422l-77 38v21
l171 41l7 -5v-471l74 -21v-25h-253v25l78 21v376z" />
    <glyph glyph-name="idieresis.sc" horiz-adv-x="404" 
d="M304 649q-27 0 -44.5 18.5t-17.5 46.5q0 27 19.5 48.5t49.5 21.5q28 0 45.5 -18.5t17.5 -46.5q0 -27 -19.5 -48.5t-50.5 -21.5zM91 649q-27 0 -44.5 18.5t-17.5 46.5q0 27 19.5 48.5t49.5 21.5q28 0 45.5 -18.5t17.5 -46.5q0 -27 -20 -48.5t-50 -21.5zM347 25v-25h-290
v25l91 19v464l-91 18v27h290v-27l-91 -18v-464z" />
    <glyph glyph-name="Idotaccent" unicode="&#x130;" horiz-adv-x="460" 
d="M407 29v-29h-355v29l120 21v601l-120 21v29h355v-29l-120 -21v-601zM296 872q0 -28 -20 -49.5t-51 -21.5q-28 0 -46 18.5t-18 46.5t20 49.5t51 21.5q28 0 46 -18.5t18 -46.5z" />
    <glyph glyph-name="idotaccent.sc" horiz-adv-x="404" 
d="M347 25v-25h-290v25l91 19v464l-91 18v27h290v-27l-91 -18v-464zM270 720q0 -29 -20 -51t-52 -22q-29 0 -47 19t-18 48t20.5 50.5t51.5 21.5q29 0 47 -18.5t18 -47.5z" />
    <glyph glyph-name="dotlessi" unicode="&#x131;" horiz-adv-x="334" 
d="M124 422l-77 38v21l171 41l7 -5v-471l74 -21v-25h-253v25l78 21v376z" />
    <glyph glyph-name="dotlessi.sc" horiz-adv-x="404" 
d="M347 25v-25h-290v25l91 19v464l-91 18v27h290v-27l-91 -18v-464z" />
    <glyph glyph-name="Igrave" unicode="&#xcc;" horiz-adv-x="460" 
d="M407 29v-29h-355v29l120 21v601l-120 21v29h355v-29l-120 -21v-601zM254 788q-20 19 -41 39t-39.5 38.5t-33 34.5t-21.5 28q-14 23 -11 43t21 32t38.5 5t33.5 -27q8 -12 17 -31.5t18 -43t19 -50t19 -53.5z" />
    <glyph glyph-name="igrave" unicode="&#xec;" horiz-adv-x="334" 
d="M124 422l-77 38v21l171 41l7 -5v-471l74 -21v-25h-253v25l78 21v376zM183 594l-42 40t-39.5 39t-33 35t-22.5 28q-14 23 -11.5 43.5t21.5 33.5q18 12 39 5t35 -28q7 -12 16 -31.5t18.5 -43.5t19.5 -51.5t19 -54.5z" />
    <glyph glyph-name="igrave.sc" horiz-adv-x="404" 
d="M347 25v-25h-290v25l91 19v464l-91 18v27h290v-27l-91 -18v-464zM227 635l-42 40t-39.5 39t-33 35t-22.5 28q-14 23 -11.5 43.5t21.5 33.5q18 12 39 5t35 -28q7 -12 16 -31.5t18.5 -43.5t19.5 -51.5t19 -54.5z" />
    <glyph glyph-name="Imacron" unicode="&#x12a;" horiz-adv-x="460" 
d="M407 29v-29h-355v29l120 21v601l-120 21v29h355v-29l-120 -21v-601zM374 818h-289v68h289v-68z" />
    <glyph glyph-name="imacron" unicode="&#x12b;" horiz-adv-x="334" 
d="M124 422l-77 38v21l171 41l7 -5v-471l74 -21v-25h-253v25l78 21v376zM304 624h-293v69h293v-69z" />
    <glyph glyph-name="imacron.sc" horiz-adv-x="404" 
d="M347 25v-25h-290v25l91 19v464l-91 18v27h290v-27l-91 -18v-464zM348 665h-293v69h293v-69z" />
    <glyph glyph-name="Iogonek" unicode="&#x12e;" horiz-adv-x="460" 
d="M407 29v-29h-150q-43 -53 -58.5 -88.5t-15.5 -67.5q0 -38 20 -58.5t51 -20.5q21 0 38.5 8t31.5 17l13 -16q-23 -23 -50 -37.5t-59 -14.5q-23 0 -44 6.5t-36.5 19.5t-24.5 32.5t-9 44.5q0 44 24.5 85t78.5 90h-165v29l120 21v601l-120 21v29h355v-29l-120 -21v-601z" />
    <glyph glyph-name="iogonek" unicode="&#x12f;" horiz-adv-x="334" 
d="M47 460v21l171 41l7 -5v-471l74 -21v-25h-99q-21 -27 -35.5 -49.5t-23 -41t-12 -35t-3.5 -32.5q0 -40 20.5 -60.5t51.5 -20.5q22 0 39.5 7.5t31.5 17.5l13 -16q-23 -24 -50 -38.5t-60 -14.5q-24 0 -45 6.5t-36.5 20t-25 32.5t-9.5 45q0 45 25 87t80 92h-115v25l78 21v376
zM99 718q0 14 5.5 28t15.5 24.5t23.5 17t30.5 6.5q31 0 50.5 -20t19.5 -49q0 -30 -21 -54t-55 -24q-30 0 -49.5 20.5t-19.5 50.5z" />
    <glyph glyph-name="iogonek.sc" horiz-adv-x="404" 
d="M347 25v-25h-110q-21 -27 -35.5 -49.5t-23 -41t-12 -35t-3.5 -32.5q0 -40 20.5 -60.5t51.5 -20.5q22 0 39.5 7.5t31.5 17.5l13 -16q-23 -24 -50 -38.5t-60 -14.5q-24 0 -45 6.5t-36.5 20t-25 32.5t-9.5 45q0 45 25 87t80 92h-141v25l91 19v464l-91 18v27h290v-27l-91 -18
v-464z" />
    <glyph glyph-name="Kcommaaccent" unicode="&#x136;" horiz-adv-x="802" 
d="M697 62l92 -33v-29h-294v26l72 26l-211 283h-85v-285l107 -21v-29h-338v29l117 21v601l-117 21v29h338v-29l-107 -21v-269h93l220 255l-82 36v28h254v-29l-100 -40l-226 -236zM480 -154q0 -55 -38 -98t-98 -66l-10 20q43 25 66.5 52t26.5 60l-6 4l-1 -1q-6 -3 -11 -3.5
t-12 -0.5q-19 0 -30.5 14t-11.5 36q0 24 16.5 42t41.5 18q31 0 49 -21t18 -56z" />
    <glyph glyph-name="kcommaaccent" unicode="&#x137;" horiz-adv-x="605" 
d="M373 -157q0 -56 -38 -99.5t-100 -66.5l-10 20q43 25 67.5 52.5t26.5 61.5l-5 4l-2 -2q-5 -3 -10.5 -3.5t-12.5 -0.5q-19 0 -31 14.5t-12 36.5q0 25 17 43t43 18q31 0 49 -21.5t18 -56.5zM525 49l61 -24v-25h-221v25l45 23l-142 191h-50v-193l65 -21v-25h-244v25l78 21
v678l-86 39v21l175 46l12 -9v-540h50l144 161l-60 39v22h213v-26l-74 -29l-162 -151z" />
    <glyph glyph-name="kcommaaccent.sc" horiz-adv-x="670" 
d="M402 -157q0 -56 -38 -99.5t-100 -66.5l-10 20q43 25 67.5 52.5t26.5 61.5l-5 4l-2 -2q-5 -3 -10.5 -3.5t-12.5 -0.5q-19 0 -31 14.5t-12 36.5q0 25 17 43t43 18q31 0 49 -21.5t18 -56.5zM578 52l68 -27v-25h-245v21l59 22l-151 216h-69v-215l77 -19v-25h-272v25l87 19
v464l-87 18v27h273v-27l-78 -18v-205h74l162 194l-72 30v26h229v-27l-84 -32l-167 -177z" />
    <glyph glyph-name="Lacute" unicode="&#x139;" horiz-adv-x="695" 
d="M325 1003q18 -12 21 -32t-11 -43q-8 -12 -22 -28t-32.5 -34.5t-39.5 -38.5t-41 -39l-20 15q9 27 19 53.5t19 50t18 43t17 31.5q14 21 34.5 27.5t37.5 -5.5zM623 0h-583v29l117 21v601l-117 21v29h353v-29l-122 -21v-603h159q24 0 40.5 4t29 11.5t23 19.5t22.5 28l89 121
l18 -4z" />
    <glyph glyph-name="lacute" unicode="&#x13a;" horiz-adv-x="332" 
d="M279 1080q18 -13 21 -33.5t-11 -43.5q-8 -12 -22.5 -28t-33.5 -35t-40 -39l-42 -40l-19 15q9 27 19 54.5t19 51.5t18 43.5t17 31.5q14 22 35 28.5t39 -5.5zM297 25v-25h-254v25l79 21v678l-86 39v21l174 46l13 -9v-775z" />
    <glyph glyph-name="lacute.sc" horiz-adv-x="573" 
d="M510 0h-465v25l87 19v464l-87 18v27h288v-27l-93 -18v-466l95 1q19 0 32.5 3t24 9t19 16t18.5 24l87 118l17 -3zM307 847q18 -13 21 -33.5t-11 -43.5q-8 -12 -22.5 -28t-33.5 -35t-40 -39l-42 -40l-19 15q9 27 19 54.5t19 51.5t18 43.5t17 31.5q14 22 35 28.5t39 -5.5z
" />
    <glyph glyph-name="Lcaron" unicode="&#x13d;" horiz-adv-x="695" 
d="M623 0h-583v29l117 21v601l-117 21v29h353v-29l-122 -21v-603h159q24 0 40.5 4t29 11.5t23 19.5t22.5 28l89 121l18 -4zM500 702q21 -4 32 -20t8 -41q-2 -14 -8.5 -35t-16.5 -45.5t-22 -51t-25 -53.5l-23 6q-2 27 -3 53.5t-1.5 51t0.5 45t3 34.5q4 28 19.5 44t36.5 12z
" />
    <glyph glyph-name="lcaron" unicode="&#x13e;" horiz-adv-x="332" 
d="M353 829q22 -4 33.5 -20.5t8.5 -42.5q-2 -14 -9 -35t-17.5 -46t-23 -52.5t-25.5 -54.5l-23 6q-1 27 -2 54.5t-1.5 52.5t0 46t2.5 35q4 28 20 44.5t37 12.5zM297 25v-25h-254v25l79 21v678l-86 39v21l174 46l13 -9v-775z" />
    <glyph glyph-name="lcaron.sc" horiz-adv-x="573" 
d="M510 0h-465v25l87 19v464l-87 18v27h288v-27l-93 -18v-466l95 1q19 0 32.5 3t24 9t19 16t18.5 24l87 118l17 -3zM444 554q22 -4 33.5 -20.5t8.5 -42.5q-2 -14 -9 -35t-17.5 -46t-23 -52.5t-25.5 -54.5l-23 6q-1 27 -2 54.5t-1.5 52.5t0 46t2.5 35q4 28 20 44.5t37 12.5z
" />
    <glyph glyph-name="Lcommaaccent" unicode="&#x13b;" horiz-adv-x="695" 
d="M623 0h-583v29l117 21v601l-117 21v29h353v-29l-122 -21v-603h159q24 0 40.5 4t29 11.5t23 19.5t22.5 28l89 121l18 -4zM412 -154q0 -55 -38 -98t-98 -66l-10 20q43 25 66.5 52t26.5 60l-6 4l-1 -1q-6 -3 -11 -3.5t-12 -0.5q-19 0 -30.5 14t-11.5 36q0 24 16.5 42
t41.5 18q31 0 49 -21t18 -56z" />
    <glyph glyph-name="lcommaaccent" unicode="&#x13c;" horiz-adv-x="332" 
d="M227 -157q0 -56 -38 -99.5t-100 -66.5l-10 20q43 25 67.5 52.5t26.5 61.5l-5 4l-2 -2q-5 -3 -10.5 -3.5t-12.5 -0.5q-19 0 -31 14.5t-12 36.5q0 25 17 43t43 18q31 0 49 -21.5t18 -56.5zM297 25v-25h-254v25l79 21v678l-86 39v21l174 46l13 -9v-775z" />
    <glyph glyph-name="lcommaaccent.sc" horiz-adv-x="573" 
d="M510 0h-465v25l87 19v464l-87 18v27h288v-27l-93 -18v-466l95 1q19 0 32.5 3t24 9t19 16t18.5 24l87 118l17 -3zM356 -157q0 -56 -38 -99.5t-100 -66.5l-10 20q43 25 67.5 52.5t26.5 61.5l-5 4l-2 -2q-5 -3 -10.5 -3.5t-12.5 -0.5q-19 0 -31 14.5t-12 36.5q0 25 17 43
t43 18q31 0 49 -21.5t18 -56.5z" />
    <glyph glyph-name="Ldot" unicode="&#x13f;" horiz-adv-x="695" 
d="M623 0h-583v29l117 21v601l-117 21v29h353v-29l-122 -21v-603h159q24 0 40.5 4t29 11.5t23 19.5t22.5 28l89 121l18 -4zM612 400q0 -28 -20 -49.5t-50 -21.5q-28 0 -45.5 18.5t-17.5 46.5t20 49t50 21q27 0 45 -18.5t18 -45.5z" />
    <glyph glyph-name="ldot" unicode="&#x140;" horiz-adv-x="384" 
d="M297 25v-25h-254v25l79 21v678l-86 39v21l174 46l13 -9v-775zM432 407q0 -28 -20 -49.5t-50 -21.5q-28 0 -45.5 18.5t-17.5 46.5t20 49t50 21q27 0 45 -18.5t18 -45.5z" />
    <glyph glyph-name="ldot.sc" horiz-adv-x="573" 
d="M510 0h-465v25l87 19v464l-87 18v27h288v-27l-93 -18v-466l95 1q38 0 61.5 10.5t45.5 40.5l72 99l17 -3zM531 348q0 -28 -20 -48.5t-50 -20.5q-28 0 -46 18.5t-18 45.5q0 28 20 49t50 21q28 0 46 -18.5t18 -46.5z" />
    <glyph glyph-name="Lslash" unicode="&#x141;" horiz-adv-x="700" 
d="M629 0h-584v29l118 21v253l-85 -23l-13 47l98 26v298l-118 21v29h354v-29l-123 -21v-268l133 36l13 -46l-146 -40v-285h160q24 0 40 4t28.5 11.5t23 19.5t23.5 28l89 121l17 -4z" />
    <glyph glyph-name="lslash" unicode="&#x142;" horiz-adv-x="378" 
d="M245 46l75 -21v-25h-254v25l79 21v316l-94 -26l-13 48l107 28v312l-86 39v21l174 46l12 -9v-381l102 28l13 -47l-115 -31v-344z" />
    <glyph glyph-name="lslash.sc" horiz-adv-x="578" 
d="M73 218l-12 41l77 21v228l-89 18v27h288v-27l-94 -18v-200l109 30l11 -40l-120 -33v-223l96 1q19 0 32.5 3t24 9t19 16t19.5 24l86 118l18 -3l-24 -210h-465v25l89 19v192z" />
    <glyph glyph-name="Nacute" unicode="&#x143;" horiz-adv-x="853" 
d="M532 1003q18 -12 21 -32t-11 -43q-8 -12 -22 -28t-32.5 -34.5t-39.5 -38.5t-41 -39l-20 15q9 27 19 53.5t19 50t18 43t17 31.5q14 21 34.5 27.5t37.5 -5.5zM152 640l-96 30v31h232l81 -113l277 -390h12v443l-107 31v29h259v-29l-97 -31v-648h-60l-80 113l-352 490h-14
v-536l107 -31v-29h-259v29l97 31v580z" />
    <glyph glyph-name="nacute" unicode="&#x144;" horiz-adv-x="647" 
d="M422 814q18 -13 21 -33.5t-11 -43.5q-8 -12 -22.5 -28t-33.5 -35t-40 -39l-42 -40l-19 15q9 27 19 54.5t19 51.5t18 43.5t17 31.5q14 22 35 28.5t39 -5.5zM546 46l78 -21v-25h-252v25l73 21v283q0 57 -23.5 88t-75.5 31q-33 0 -62.5 -13t-63.5 -35v-354l73 -21v-25h-252
v25l78 21v376l-77 38v21l164 41l13 -10l-8 -83l10 -3q51 48 94.5 71t89.5 23q67 0 104 -39.5t37 -115.5v-319z" />
    <glyph glyph-name="nacute.sc" horiz-adv-x="711" 
d="M462 854q18 -13 21 -33.5t-11 -43.5q-8 -12 -22.5 -28t-33.5 -35t-40 -39l-42 -40l-19 15q9 27 19 54.5t19 51.5t18 43.5t17 31.5q14 22 35 28.5t39 -5.5zM129 500l-76 24v29h196l61 -92l223 -311h9v349l-83 27v27h214v-27l-78 -27v-505h-81l-73 107l-249 348h-10v-396
l84 -28v-25h-214v25l77 28v447z" />
    <glyph glyph-name="Ncaron" unicode="&#x147;" horiz-adv-x="853" 
d="M547 1013l21 -19l-128 -195h-39l-120 195l22 19l121 -117zM152 640l-96 30v31h232l81 -113l277 -390h12v443l-107 31v29h259v-29l-97 -31v-648h-60l-80 113l-352 490h-14v-536l107 -31v-29h-259v29l97 31v580z" />
    <glyph glyph-name="ncaron" unicode="&#x148;" horiz-adv-x="647" 
d="M437 824l22 -20l-131 -199h-39l-122 199l22 20l123 -120zM546 46l78 -21v-25h-252v25l73 21v283q0 57 -23.5 88t-75.5 31q-33 0 -62.5 -13t-63.5 -35v-354l73 -21v-25h-252v25l78 21v376l-77 38v21l164 41l13 -10l-8 -83l10 -3q51 48 94.5 71t89.5 23q67 0 104 -39.5
t37 -115.5v-319z" />
    <glyph glyph-name="ncaron.sc" horiz-adv-x="711" 
d="M477 864l22 -20l-131 -199h-39l-122 199l22 20l123 -120zM129 500l-76 24v29h196l61 -92l223 -311h9v349l-83 27v27h214v-27l-78 -27v-505h-81l-73 107l-249 348h-10v-396l84 -28v-25h-214v25l77 28v447z" />
    <glyph glyph-name="Ncommaaccent" unicode="&#x145;" horiz-adv-x="853" 
d="M494 -154q0 -55 -38 -98t-98 -66l-10 20q43 25 66.5 52t26.5 60l-6 4l-1 -1q-6 -3 -11 -3.5t-12 -0.5q-19 0 -30.5 14t-11.5 36q0 24 16.5 42t41.5 18q31 0 49 -21t18 -56zM152 640l-96 30v31h232l81 -113l277 -390h12v443l-107 31v29h259v-29l-97 -31v-648h-60l-80 113
l-352 490h-14v-536l107 -31v-29h-259v29l97 31v580z" />
    <glyph glyph-name="ncommaaccent" unicode="&#x146;" horiz-adv-x="647" 
d="M383 -157q0 -56 -38 -99.5t-100 -66.5l-10 20q43 25 67.5 52.5t26.5 61.5l-5 4l-2 -2q-5 -3 -10.5 -3.5t-12.5 -0.5q-19 0 -31 14.5t-12 36.5q0 25 17 43t43 18q31 0 49 -21.5t18 -56.5zM546 46l78 -21v-25h-252v25l73 21v283q0 57 -23.5 88t-75.5 31q-33 0 -62.5 -13
t-63.5 -35v-354l73 -21v-25h-252v25l78 21v376l-77 38v21l164 41l13 -10l-8 -83l10 -3q51 48 94.5 71t89.5 23q67 0 104 -39.5t37 -115.5v-319z" />
    <glyph glyph-name="ncommaaccent.sc" horiz-adv-x="711" 
d="M420 -157q0 -56 -38 -99.5t-100 -66.5l-10 20q43 25 67.5 52.5t26.5 61.5l-5 4l-2 -2q-5 -3 -10.5 -3.5t-12.5 -0.5q-19 0 -31 14.5t-12 36.5q0 25 17 43t43 18q31 0 49 -21.5t18 -56.5zM129 500l-76 24v29h196l61 -92l223 -311h9v349l-83 27v27h214v-27l-78 -27v-505
h-81l-73 107l-249 348h-10v-396l84 -28v-25h-214v25l77 28v447z" />
    <glyph glyph-name="Ntilde" unicode="&#xd1;" horiz-adv-x="853" 
d="M272 799q11 70 32.5 102.5t61.5 32.5q21 0 43.5 -8.5t43.5 -18t39.5 -18t32.5 -8.5t23.5 14.5t26.5 51.5l30 -7q-11 -70 -32.5 -102.5t-61.5 -32.5q-21 0 -43.5 8.5t-43.5 18t-39.5 18t-31.5 8.5q-15 0 -24.5 -14.5t-25.5 -51.5l-31 7v0zM152 640l-96 30v31h232l81 -113
l277 -390h12v443l-107 31v29h259v-29l-97 -31v-648h-60l-80 113l-352 490h-14v-536l107 -31v-29h-259v29l97 31v580z" />
    <glyph glyph-name="ntilde" unicode="&#xf1;" horiz-adv-x="647" 
d="M546 46l78 -21v-25h-252v25l73 21v283q0 57 -23.5 88t-75.5 31q-33 0 -62.5 -13t-63.5 -35v-354l73 -21v-25h-252v25l78 21v376l-77 38v21l164 41l13 -10l-8 -83l10 -3q51 48 94.5 71t89.5 23q67 0 104 -39.5t37 -115.5v-319zM158 606q11 71 32.5 104.5t63.5 33.5
q21 0 43.5 -8.5t44 -19t40.5 -19t33 -8.5t24 14.5t26 52.5l31 -6q-11 -72 -32.5 -105t-63.5 -33q-21 0 -43.5 8.5t-44 18.5t-40.5 18.5t-33 8.5t-24 -14.5t-26 -52.5l-31 7v0z" />
    <glyph glyph-name="ntilde.sc" horiz-adv-x="711" 
d="M129 500l-76 24v29h196l61 -92l223 -311h9v349l-83 27v27h214v-27l-78 -27v-505h-81l-73 107l-249 348h-10v-396l84 -28v-25h-214v25l77 28v447zM198 646q11 71 32.5 104.5t63.5 33.5q21 0 43.5 -8.5t44 -19t40.5 -19t33 -8.5t24 14.5t26 52.5l31 -6q-11 -72 -32.5 -105
t-63.5 -33q-21 0 -43.5 8.5t-44 18.5t-40.5 18.5t-33 8.5t-24 -14.5t-26 -52.5l-31 7v0z" />
    <glyph glyph-name="Oacute" unicode="&#xd3;" horiz-adv-x="800" 
d="M507 1004q18 -12 21 -32t-11 -43q-8 -12 -22 -28t-32.5 -34.5t-39.5 -38.5t-41 -39l-20 15q9 27 19 53.5t19 50t18 43t17 31.5q14 21 34.5 27.5t37.5 -5.5zM742 351q0 -75 -24 -141.5t-69 -117t-109 -80t-144 -29.5q-84 0 -148 29.5t-107 80t-64.5 117t-21.5 141.5
q0 74 24 140.5t69 116.5t109.5 79.5t144.5 29.5q84 0 148 -29.5t106.5 -79.5t64 -116.5t21.5 -140.5zM611 351q0 85 -19.5 147.5t-51.5 103.5t-72 61t-81 20q-38 0 -73.5 -16t-64 -54.5t-45.5 -102.5t-17 -159t19.5 -159t51.5 -102.5t71.5 -55t80.5 -16.5q37 0 73.5 20
t64.5 61.5t45.5 104t17.5 147.5z" />
    <glyph glyph-name="oacute" unicode="&#xf3;" horiz-adv-x="604" 
d="M412 814q18 -13 21 -33.5t-11 -43.5q-8 -12 -22.5 -28t-33.5 -35t-40 -39l-42 -40l-19 15q9 27 19 54.5t19 51.5t18 43.5t17 31.5q14 22 35 28.5t39 -5.5zM556 254q0 -53 -17.5 -102.5t-51 -87t-82 -60t-110.5 -22.5q-60 0 -106 20.5t-77.5 57t-47.5 85.5t-16 106
q0 54 18 102.5t51.5 85.5t82 59t110.5 22q60 0 106 -20t77 -56t47 -84.5t16 -105.5zM441 254q0 60 -10.5 103t-29.5 71.5t-45 42t-57 13.5q-58 0 -97 -57t-39 -179q0 -60 11.5 -103t31 -71t45 -41.5t54.5 -13.5q61 0 98.5 56.5t37.5 178.5z" />
    <glyph glyph-name="oacute.sc" horiz-adv-x="666" 
d="M617 276q0 -59 -19.5 -112t-56 -93t-90 -64t-121.5 -24q-71 0 -124 24t-88 64t-52 93t-17 112q0 58 19 111.5t56 93.5t90 64t122 24q71 0 123.5 -24t87.5 -64t52.5 -93.5t17.5 -111.5zM496 276q0 66 -14.5 115t-38 81.5t-54.5 48.5t-64 16q-31 0 -59 -13.5t-49.5 -44
t-34 -80.5t-12.5 -123t14.5 -123t38 -80.5t54.5 -44t64 -13.5q31 0 59 16.5t49.5 49t34 81.5t12.5 114zM449 856q18 -13 21 -33.5t-11 -43.5q-8 -12 -22.5 -28t-33.5 -35t-40 -39l-42 -40l-19 15q9 27 19 54.5t19 51.5t18 43.5t17 31.5q14 22 35 28.5t39 -5.5z" />
    <glyph glyph-name="Obreve" unicode="&#x14e;" horiz-adv-x="800" 
d="M402 877q47 0 73 24t46 74l30 -9q-7 -78 -45 -122.5t-104 -44.5t-105 44.5t-46 122.5l30 9q19 -50 46 -74t75 -24zM742 351q0 -75 -24 -141.5t-69 -117t-109 -80t-144 -29.5q-84 0 -148 29.5t-107 80t-64.5 117t-21.5 141.5q0 74 24 140.5t69 116.5t109.5 79.5
t144.5 29.5q84 0 148 -29.5t106.5 -79.5t64 -116.5t21.5 -140.5zM611 351q0 85 -19.5 147.5t-51.5 103.5t-72 61t-81 20q-38 0 -73.5 -16t-64 -54.5t-45.5 -102.5t-17 -159t19.5 -159t51.5 -102.5t71.5 -55t80.5 -16.5q37 0 73.5 20t64.5 61.5t45.5 104t17.5 147.5z" />
    <glyph glyph-name="obreve" unicode="&#x14f;" horiz-adv-x="604" 
d="M556 254q0 -53 -17.5 -102.5t-51 -87t-82 -60t-110.5 -22.5q-60 0 -106 20.5t-77.5 57t-47.5 85.5t-16 106q0 54 18 102.5t51.5 85.5t82 59t110.5 22q60 0 106 -20t77 -56t47 -84.5t16 -105.5zM441 254q0 60 -10.5 103t-29.5 71.5t-45 42t-57 13.5q-58 0 -97 -57
t-39 -179q0 -60 11.5 -103t31 -71t45 -41.5t54.5 -13.5q61 0 98.5 56.5t37.5 178.5zM304 684q48 0 75 24.5t46 75.5l31 -9q-7 -80 -45.5 -125t-106.5 -45t-107 45t-46 125l30 9q19 -51 47 -75.5t76 -24.5z" />
    <glyph glyph-name="obreve.sc" horiz-adv-x="666" 
d="M617 276q0 -59 -19.5 -112t-56 -93t-90 -64t-121.5 -24q-71 0 -124 24t-88 64t-52 93t-17 112q0 58 19 111.5t56 93.5t90 64t122 24q71 0 123.5 -24t87.5 -64t52.5 -93.5t17.5 -111.5zM496 276q0 66 -14.5 115t-38 81.5t-54.5 48.5t-64 16q-31 0 -59 -13.5t-49.5 -44
t-34 -80.5t-12.5 -123t14.5 -123t38 -80.5t54.5 -44t64 -13.5q31 0 59 16.5t49.5 49t34 81.5t12.5 114zM341 726q48 0 75 24.5t46 75.5l31 -9q-7 -80 -45.5 -125t-106.5 -45t-107 45t-46 125l30 9q19 -51 47 -75.5t76 -24.5z" />
    <glyph glyph-name="Ocircumflex" unicode="&#xd4;" horiz-adv-x="800" 
d="M742 351q0 -75 -24 -141.5t-69 -117t-109 -80t-144 -29.5q-84 0 -148 29.5t-107 80t-64.5 117t-21.5 141.5q0 74 24 140.5t69 116.5t109.5 79.5t144.5 29.5q84 0 148 -29.5t106.5 -79.5t64 -116.5t21.5 -140.5zM611 351q0 85 -19.5 147.5t-51.5 103.5t-72 61t-81 20
q-38 0 -73.5 -16t-64 -54.5t-45.5 -102.5t-17 -159t19.5 -159t51.5 -102.5t71.5 -55t80.5 -16.5q37 0 73.5 20t64.5 61.5t45.5 104t17.5 147.5zM280 783l-22 19l129 195h38l120 -195l-21 -19l-122 117z" />
    <glyph glyph-name="ocircumflex" unicode="&#xf4;" horiz-adv-x="604" 
d="M181 588l-22 20l130 199h40l122 -199l-22 -20l-124 120zM556 254q0 -53 -17.5 -102.5t-51 -87t-82 -60t-110.5 -22.5q-60 0 -106 20.5t-77.5 57t-47.5 85.5t-16 106q0 54 18 102.5t51.5 85.5t82 59t110.5 22q60 0 106 -20t77 -56t47 -84.5t16 -105.5zM441 254
q0 60 -10.5 103t-29.5 71.5t-45 42t-57 13.5q-58 0 -97 -57t-39 -179q0 -60 11.5 -103t31 -71t45 -41.5t54.5 -13.5q61 0 98.5 56.5t37.5 178.5z" />
    <glyph glyph-name="ocircumflex.sc" horiz-adv-x="666" 
d="M218 630l-22 20l130 199h40l122 -199l-22 -20l-124 120zM617 276q0 -59 -19.5 -112t-56 -93t-90 -64t-121.5 -24q-71 0 -124 24t-88 64t-52 93t-17 112q0 58 19 111.5t56 93.5t90 64t122 24q71 0 123.5 -24t87.5 -64t52.5 -93.5t17.5 -111.5zM496 276q0 66 -14.5 115
t-38 81.5t-54.5 48.5t-64 16q-31 0 -59 -13.5t-49.5 -44t-34 -80.5t-12.5 -123t14.5 -123t38 -80.5t54.5 -44t64 -13.5q31 0 59 16.5t49.5 49t34 81.5t12.5 114z" />
    <glyph glyph-name="Odieresis" unicode="&#xd6;" horiz-adv-x="800" 
d="M500 804q-27 0 -44 17.5t-17 45.5q0 26 19.5 47t48.5 21q27 0 44.5 -17.5t17.5 -45.5q0 -27 -19.5 -47.5t-49.5 -20.5zM291 804q-27 0 -44.5 17.5t-17.5 45.5q0 26 19.5 47t49.5 21q27 0 44.5 -17.5t17.5 -45.5q0 -27 -20 -47.5t-49 -20.5zM742 351q0 -75 -24 -141.5
t-69 -117t-109 -80t-144 -29.5q-84 0 -148 29.5t-107 80t-64.5 117t-21.5 141.5q0 74 24 140.5t69 116.5t109.5 79.5t144.5 29.5q84 0 148 -29.5t106.5 -79.5t64 -116.5t21.5 -140.5zM611 351q0 85 -19.5 147.5t-51.5 103.5t-72 61t-81 20q-38 0 -73.5 -16t-64 -54.5
t-45.5 -102.5t-17 -159t19.5 -159t51.5 -102.5t71.5 -55t80.5 -16.5q37 0 73.5 20t64.5 61.5t45.5 104t17.5 147.5z" />
    <glyph glyph-name="odieresis" unicode="&#xf6;" horiz-adv-x="604" 
d="M405 609q-27 0 -44.5 18.5t-17.5 46.5q0 27 19.5 48.5t49.5 21.5q28 0 45.5 -18.5t17.5 -46.5q0 -27 -19.5 -48.5t-50.5 -21.5zM192 609q-27 0 -44.5 18.5t-17.5 46.5q0 27 19.5 48.5t49.5 21.5q28 0 45.5 -18.5t17.5 -46.5q0 -27 -20 -48.5t-50 -21.5zM556 254
q0 -53 -17.5 -102.5t-51 -87t-82 -60t-110.5 -22.5q-60 0 -106 20.5t-77.5 57t-47.5 85.5t-16 106q0 54 18 102.5t51.5 85.5t82 59t110.5 22q60 0 106 -20t77 -56t47 -84.5t16 -105.5zM441 254q0 60 -10.5 103t-29.5 71.5t-45 42t-57 13.5q-58 0 -97 -57t-39 -179
q0 -60 11.5 -103t31 -71t45 -41.5t54.5 -13.5q61 0 98.5 56.5t37.5 178.5z" />
    <glyph glyph-name="odieresis.sc" horiz-adv-x="666" 
d="M442 651q-27 0 -44.5 18.5t-17.5 46.5q0 27 19.5 48.5t49.5 21.5q28 0 45.5 -18.5t17.5 -46.5q0 -27 -19.5 -48.5t-50.5 -21.5zM229 651q-27 0 -44.5 18.5t-17.5 46.5q0 27 19.5 48.5t49.5 21.5q28 0 45.5 -18.5t17.5 -46.5q0 -27 -20 -48.5t-50 -21.5zM617 276
q0 -59 -19.5 -112t-56 -93t-90 -64t-121.5 -24q-71 0 -124 24t-88 64t-52 93t-17 112q0 58 19 111.5t56 93.5t90 64t122 24q71 0 123.5 -24t87.5 -64t52.5 -93.5t17.5 -111.5zM496 276q0 66 -14.5 115t-38 81.5t-54.5 48.5t-64 16q-31 0 -59 -13.5t-49.5 -44t-34 -80.5
t-12.5 -123t14.5 -123t38 -80.5t54.5 -44t64 -13.5q31 0 59 16.5t49.5 49t34 81.5t12.5 114z" />
    <glyph glyph-name="OE" unicode="&#x152;" horiz-adv-x="1119" 
d="M1045 0h-606q-90 0 -161.5 26.5t-121 73t-75.5 111t-26 139.5t28.5 139.5t79.5 111.5t123 73.5t159 26.5h556l25 -192l-18 -8l-78 94q-14 18 -25.5 29t-25 17.5t-30.5 9t-43 2.5l-138 1v-280h66q24 0 41 4t29.5 15t21.5 29.5t17 47.5l10 36h24v-306h-24l-10 34
q-9 29 -18 48t-21 30t-29 15.5t-41 4.5h-66v-284l187 1q24 0 40.5 2t29 7.5t22 15.5t20.5 25l88 120l19 -5zM187 351q0 -83 21.5 -140.5t58.5 -93.5t87 -53t108 -17h91v607l-116 -1q-54 0 -100 -16.5t-79 -52.5t-52 -93.5t-19 -139.5z" />
    <glyph glyph-name="oe" unicode="&#x153;" horiz-adv-x="951" 
d="M553 276q-3 -103 41.5 -161.5t140.5 -58.5q40 0 74.5 12t82.5 38l10 -24q-55 -51 -105 -75.5t-102 -24.5q-66 0 -114 28.5t-84 79.5q-36 -48 -85 -78t-123 -30q-56 0 -100.5 20.5t-76 57t-48 85.5t-16.5 106q0 54 18 102.5t51.5 85.5t81 59t106.5 22q37 0 67.5 -9
t55.5 -24t44.5 -34t34.5 -40q34 47 79.5 77t109.5 30q54 0 93.5 -20t65.5 -54t38 -78t12 -92h-352zM795 318q-6 166 -110 166q-27 0 -50 -12.5t-40.5 -35.5t-28 -55t-12.5 -71zM441 254q0 60 -10.5 103t-29.5 71.5t-45 42t-57 13.5q-58 0 -97 -57t-39 -179q0 -60 11.5 -103
t31 -71t45 -41.5t54.5 -13.5q61 0 98.5 56.5t37.5 178.5z" />
    <glyph glyph-name="oe.sc" horiz-adv-x="915" 
d="M851 0h-499q-72 0 -128 20.5t-95 56.5t-59.5 86.5t-20.5 110.5q0 57 21 108t61 89t97.5 60t130.5 22h474l17 -163l-23 -5l-56 75q-20 27 -41.5 38.5t-62.5 11.5h-119v-209h34q35 0 59 15t40 50l14 30h23v-230h-23l-14 31q-30 66 -99 66h-34v-221l142 1q38 0 57 10.5
t35 32.5l68 96l23 -4zM440 511h-85q-39 0 -72.5 -12t-58.5 -39t-39.5 -72t-14.5 -111q0 -64 15.5 -108.5t42.5 -73t63.5 -41.5t78.5 -13h70v470z" />
    <glyph glyph-name="Ograve" unicode="&#xd2;" horiz-adv-x="800" 
d="M425 789q-20 19 -41 39t-39.5 38.5t-33 34.5t-21.5 28q-14 23 -11 43t21 32t38.5 5t33.5 -27q8 -12 17 -31.5t18 -43t19 -50t19 -53.5zM742 351q0 -75 -24 -141.5t-69 -117t-109 -80t-144 -29.5q-84 0 -148 29.5t-107 80t-64.5 117t-21.5 141.5q0 74 24 140.5t69 116.5
t109.5 79.5t144.5 29.5q84 0 148 -29.5t106.5 -79.5t64 -116.5t21.5 -140.5zM611 351q0 85 -19.5 147.5t-51.5 103.5t-72 61t-81 20q-38 0 -73.5 -16t-64 -54.5t-45.5 -102.5t-17 -159t19.5 -159t51.5 -102.5t71.5 -55t80.5 -16.5q37 0 73.5 20t64.5 61.5t45.5 104
t17.5 147.5z" />
    <glyph glyph-name="ograve" unicode="&#xf2;" horiz-adv-x="604" 
d="M556 254q0 -53 -17.5 -102.5t-51 -87t-82 -60t-110.5 -22.5q-60 0 -106 20.5t-77.5 57t-47.5 85.5t-16 106q0 54 18 102.5t51.5 85.5t82 59t110.5 22q60 0 106 -20t77 -56t47 -84.5t16 -105.5zM441 254q0 60 -10.5 103t-29.5 71.5t-45 42t-57 13.5q-58 0 -97 -57
t-39 -179q0 -60 11.5 -103t31 -71t45 -41.5t54.5 -13.5q61 0 98.5 56.5t37.5 178.5zM328 595l-42 40t-39.5 39t-33 35t-22.5 28q-14 23 -11.5 43.5t21.5 33.5q18 12 39 5t35 -28q7 -12 16 -31.5t18.5 -43.5t19.5 -51.5t19 -54.5z" />
    <glyph glyph-name="ograve.sc" horiz-adv-x="666" 
d="M617 276q0 -59 -19.5 -112t-56 -93t-90 -64t-121.5 -24q-71 0 -124 24t-88 64t-52 93t-17 112q0 58 19 111.5t56 93.5t90 64t122 24q71 0 123.5 -24t87.5 -64t52.5 -93.5t17.5 -111.5zM496 276q0 66 -14.5 115t-38 81.5t-54.5 48.5t-64 16q-31 0 -59 -13.5t-49.5 -44
t-34 -80.5t-12.5 -123t14.5 -123t38 -80.5t54.5 -44t64 -13.5q31 0 59 16.5t49.5 49t34 81.5t12.5 114zM365 637l-42 40t-39.5 39t-33 35t-22.5 28q-14 23 -11.5 43.5t21.5 33.5q18 12 39 5t35 -28q7 -12 16 -31.5t18.5 -43.5t19.5 -51.5t19 -54.5z" />
    <glyph glyph-name="Ohungarumlaut" unicode="&#x150;" horiz-adv-x="800" 
d="M742 351q0 -75 -24 -141.5t-69 -117t-109 -80t-144 -29.5q-84 0 -148 29.5t-107 80t-64.5 117t-21.5 141.5q0 74 24 140.5t69 116.5t109.5 79.5t144.5 29.5q84 0 148 -29.5t106.5 -79.5t64 -116.5t21.5 -140.5zM611 351q0 85 -19.5 147.5t-51.5 103.5t-72 61t-81 20
q-38 0 -73.5 -16t-64 -54.5t-45.5 -102.5t-17 -159t19.5 -159t51.5 -102.5t71.5 -55t80.5 -16.5q37 0 73.5 20t64.5 61.5t45.5 104t17.5 147.5zM595 932q-8 -12 -21.5 -28.5t-31.5 -35.5t-38 -40t-39 -41l-19 14q17 54 35 105t33 77q12 20 32.5 27t37.5 -4q18 -11 21.5 -31
t-10.5 -43zM435 932q-8 -12 -22 -28.5t-31.5 -35.5t-37.5 -40t-39 -41l-20 14q17 54 35 105t33 77q12 20 32.5 27t37.5 -4q18 -11 22 -31t-10 -43z" />
    <glyph glyph-name="ohungarumlaut" unicode="&#x151;" horiz-adv-x="604" 
d="M502 740q-8 -12 -22 -29t-32 -36.5t-38.5 -40t-39.5 -41.5l-20 14q9 27 18 54.5t18 52t17 45t16 33.5q13 21 34 28t38 -4q18 -12 21.5 -32.5t-10.5 -43.5zM339 740q-8 -12 -22 -29t-32 -36.5t-38.5 -40t-39.5 -41.5l-20 14q9 27 17.5 54.5t17.5 52t17 45t16 33.5
q13 21 34 28t38 -4q18 -12 22 -32.5t-10 -43.5zM556 254q0 -53 -17.5 -102.5t-51 -87t-82 -60t-110.5 -22.5q-60 0 -106 20.5t-77.5 57t-47.5 85.5t-16 106q0 54 18 102.5t51.5 85.5t82 59t110.5 22q60 0 106 -20t77 -56t47 -84.5t16 -105.5zM441 254q0 60 -10.5 103
t-29.5 71.5t-45 42t-57 13.5q-58 0 -97 -57t-39 -179q0 -60 11.5 -103t31 -71t45 -41.5t54.5 -13.5q61 0 98.5 56.5t37.5 178.5z" />
    <glyph glyph-name="ohungarumlaut.sc" horiz-adv-x="666" 
d="M617 276q0 -59 -19.5 -112t-56 -93t-90 -64t-121.5 -24q-71 0 -124 24t-88 64t-52 93t-17 112q0 58 19 111.5t56 93.5t90 64t122 24q71 0 123.5 -24t87.5 -64t52.5 -93.5t17.5 -111.5zM496 276q0 66 -14.5 115t-38 81.5t-54.5 48.5t-64 16q-31 0 -59 -13.5t-49.5 -44
t-34 -80.5t-12.5 -123t14.5 -123t38 -80.5t54.5 -44t64 -13.5q31 0 59 16.5t49.5 49t34 81.5t12.5 114zM539 782q-8 -12 -22 -29t-32 -36.5t-38.5 -40t-39.5 -41.5l-20 14q9 27 18 54.5t18 52t17 45t16 33.5q13 21 34 28t38 -4q18 -12 21.5 -32.5t-10.5 -43.5zM376 782
q-8 -12 -22 -29t-32 -36.5t-38.5 -40t-39.5 -41.5l-20 14q9 27 17.5 54.5t17.5 52t17 45t16 33.5q13 21 34 28t38 -4q18 -12 22 -32.5t-10 -43.5z" />
    <glyph glyph-name="Omacron" unicode="&#x14c;" horiz-adv-x="800" 
d="M544 819h-289v68h289v-68zM742 351q0 -75 -24 -141.5t-69 -117t-109 -80t-144 -29.5q-84 0 -148 29.5t-107 80t-64.5 117t-21.5 141.5q0 74 24 140.5t69 116.5t109.5 79.5t144.5 29.5q84 0 148 -29.5t106.5 -79.5t64 -116.5t21.5 -140.5zM611 351q0 85 -19.5 147.5
t-51.5 103.5t-72 61t-81 20q-38 0 -73.5 -16t-64 -54.5t-45.5 -102.5t-17 -159t19.5 -159t51.5 -102.5t71.5 -55t80.5 -16.5q37 0 73.5 20t64.5 61.5t45.5 104t17.5 147.5z" />
    <glyph glyph-name="omacron" unicode="&#x14d;" horiz-adv-x="604" 
d="M449 625h-293v69h293v-69zM556 254q0 -53 -17.5 -102.5t-51 -87t-82 -60t-110.5 -22.5q-60 0 -106 20.5t-77.5 57t-47.5 85.5t-16 106q0 54 18 102.5t51.5 85.5t82 59t110.5 22q60 0 106 -20t77 -56t47 -84.5t16 -105.5zM441 254q0 60 -10.5 103t-29.5 71.5t-45 42
t-57 13.5q-58 0 -97 -57t-39 -179q0 -60 11.5 -103t31 -71t45 -41.5t54.5 -13.5q61 0 98.5 56.5t37.5 178.5z" />
    <glyph glyph-name="omacron.sc" horiz-adv-x="666" 
d="M617 276q0 -59 -19.5 -112t-56 -93t-90 -64t-121.5 -24q-71 0 -124 24t-88 64t-52 93t-17 112q0 58 19 111.5t56 93.5t90 64t122 24q71 0 123.5 -24t87.5 -64t52.5 -93.5t17.5 -111.5zM496 276q0 66 -14.5 115t-38 81.5t-54.5 48.5t-64 16q-31 0 -59 -13.5t-49.5 -44
t-34 -80.5t-12.5 -123t14.5 -123t38 -80.5t54.5 -44t64 -13.5q31 0 59 16.5t49.5 49t34 81.5t12.5 114zM486 667h-293v69h293v-69z" />
    <glyph glyph-name="Oslash" unicode="&#xd8;" horiz-adv-x="800" 
d="M742 351q0 -75 -24 -141.5t-69 -117t-109 -80t-144 -29.5q-66 0 -121 21.5t-97 57.5l-84 -97l-30 23l87 101q-46 51 -71 118.5t-25 143.5q0 74 24 140.5t69 116.5t109.5 79.5t144.5 29.5q66 0 120.5 -21t97.5 -58l84 98l29 -25l-86 -100q46 -51 70.5 -118t24.5 -142z
M561 570q-33 58 -79 85.5t-95 27.5q-38 0 -74 -16t-64 -54.5t-45.5 -102.5t-17.5 -159q0 -59 7.5 -105t21.5 -82zM233 125q32 -59 80 -83t97 -24q37 0 73.5 20t65 61.5t46 104t17.5 147.5q0 55 -9 100t-24 81z" />
    <glyph glyph-name="oslash" unicode="&#xf8;" horiz-adv-x="604" 
d="M490 442q32 -35 49 -83t17 -105q0 -53 -17.5 -102.5t-51 -87t-82 -60t-110.5 -22.5q-45 0 -83 13.5t-69 38.5l-55 -64l-29 24l56 66q-32 36 -49.5 85t-17.5 106q0 54 18 102.5t51.5 85.5t82 59t110.5 22q45 0 83 -13t69 -37l53 62l31 -25zM411 411q-18 38 -47.5 55.5
t-64.5 17.5q-29 0 -54 -14t-43.5 -43t-29 -73.5t-10.5 -105.5q0 -34 4 -63t11 -53zM442 254q0 68 -14 116l-235 -278q20 -38 49.5 -55.5t62.5 -17.5q61 0 99 56.5t38 178.5z" />
    <glyph glyph-name="oslash.sc" horiz-adv-x="666" 
d="M125 63q-38 42 -57 96.5t-19 116.5q0 58 19 111.5t56 93.5t90 64t122 24q56 0 99.5 -14.5t77.5 -41.5l59 68l28 -22l-59 -69q38 -42 57 -97t19 -117q0 -59 -19.5 -112t-56 -93t-90 -64t-121.5 -24q-56 0 -100 15t-79 42l-58 -68l-29 21zM458 450q-24 44 -59 65.5
t-74 21.5q-31 0 -59.5 -13.5t-50 -44t-34 -80.5t-12.5 -123q0 -83 20 -140zM204 99q24 -46 60.5 -65t76.5 -19q31 0 59 16.5t49.5 49t34 81.5t12.5 114q0 80 -22 138z" />
    <glyph glyph-name="Oslashacute" unicode="&#x1fe;" horiz-adv-x="800" 
d="M742 351q0 -75 -24 -141.5t-69 -117t-109 -80t-144 -29.5q-66 0 -121 21.5t-97 57.5l-84 -97l-30 23l87 101q-46 51 -71 118.5t-25 143.5q0 74 24 140.5t69 116.5t109.5 79.5t144.5 29.5q66 0 120.5 -21t97.5 -58l84 98l29 -25l-86 -100q46 -51 70.5 -118t24.5 -142z
M561 570q-33 58 -79 85.5t-95 27.5q-38 0 -74 -16t-64 -54.5t-45.5 -102.5t-17.5 -159q0 -59 7.5 -105t21.5 -82zM233 125q32 -59 80 -83t97 -24q37 0 73.5 20t65 61.5t46 104t17.5 147.5q0 55 -9 100t-24 81zM503 1004q18 -12 21 -32t-11 -43q-8 -12 -22 -28t-32.5 -34.5
t-39.5 -38.5t-41 -39l-20 15q9 27 19 53.5t19 50t18 43t17 31.5q14 21 34.5 27.5t37.5 -5.5z" />
    <glyph glyph-name="oslashacute" unicode="&#x1ff;" horiz-adv-x="604" 
d="M490 442q32 -35 49 -83t17 -105q0 -53 -17.5 -102.5t-51 -87t-82 -60t-110.5 -22.5q-45 0 -83 13.5t-69 38.5l-55 -64l-29 24l56 66q-32 36 -49.5 85t-17.5 106q0 54 18 102.5t51.5 85.5t82 59t110.5 22q45 0 83 -13t69 -37l53 62l31 -25zM411 411q-18 38 -47.5 55.5
t-64.5 17.5q-29 0 -54 -14t-43.5 -43t-29 -73.5t-10.5 -105.5q0 -34 4 -63t11 -53zM442 254q0 68 -14 116l-235 -278q20 -38 49.5 -55.5t62.5 -17.5q61 0 99 56.5t38 178.5zM412 814q18 -13 21 -33.5t-11 -43.5q-8 -12 -22.5 -28t-33.5 -35t-40 -39l-42 -40l-19 15
q9 27 19 54.5t19 51.5t18 43.5t17 31.5q14 22 35 28.5t39 -5.5z" />
    <glyph glyph-name="oslashacute.sc" horiz-adv-x="666" 
d="M443 856q18 -13 21 -33.5t-11 -43.5q-8 -12 -22.5 -28t-33.5 -35t-40 -39l-42 -40l-19 15q9 27 19 54.5t19 51.5t18 43.5t17 31.5q14 22 35 28.5t39 -5.5zM125 63q-38 42 -57 96.5t-19 116.5q0 58 19 111.5t56 93.5t90 64t122 24q56 0 99.5 -14.5t77.5 -41.5l59 68
l28 -22l-59 -69q38 -42 57 -97t19 -117q0 -59 -19.5 -112t-56 -93t-90 -64t-121.5 -24q-56 0 -100 15t-79 42l-58 -68l-29 21zM458 450q-24 44 -59 65.5t-74 21.5q-31 0 -59.5 -13.5t-50 -44t-34 -80.5t-12.5 -123q0 -83 20 -140zM204 99q24 -46 60.5 -65t76.5 -19
q31 0 59 16.5t49.5 49t34 81.5t12.5 114q0 80 -22 138z" />
    <glyph glyph-name="Otilde" unicode="&#xd5;" horiz-adv-x="800" 
d="M247 800q11 70 32.5 102.5t61.5 32.5q21 0 43.5 -8.5t43.5 -18t39.5 -18t32.5 -8.5t23.5 14.5t26.5 51.5l30 -7q-11 -70 -32.5 -102.5t-61.5 -32.5q-21 0 -43.5 8.5t-43.5 18t-39.5 18t-31.5 8.5q-15 0 -24.5 -14.5t-25.5 -51.5l-31 7v0zM742 351q0 -75 -24 -141.5
t-69 -117t-109 -80t-144 -29.5q-84 0 -148 29.5t-107 80t-64.5 117t-21.5 141.5q0 74 24 140.5t69 116.5t109.5 79.5t144.5 29.5q84 0 148 -29.5t106.5 -79.5t64 -116.5t21.5 -140.5zM611 351q0 85 -19.5 147.5t-51.5 103.5t-72 61t-81 20q-38 0 -73.5 -16t-64 -54.5
t-45.5 -102.5t-17 -159t19.5 -159t51.5 -102.5t71.5 -55t80.5 -16.5q37 0 73.5 20t64.5 61.5t45.5 104t17.5 147.5z" />
    <glyph glyph-name="otilde" unicode="&#xf5;" horiz-adv-x="604" 
d="M556 254q0 -53 -17.5 -102.5t-51 -87t-82 -60t-110.5 -22.5q-60 0 -106 20.5t-77.5 57t-47.5 85.5t-16 106q0 54 18 102.5t51.5 85.5t82 59t110.5 22q60 0 106 -20t77 -56t47 -84.5t16 -105.5zM441 254q0 60 -10.5 103t-29.5 71.5t-45 42t-57 13.5q-58 0 -97 -57
t-39 -179q0 -60 11.5 -103t31 -71t45 -41.5t54.5 -13.5q61 0 98.5 56.5t37.5 178.5zM148 606q11 71 32.5 104.5t63.5 33.5q21 0 43.5 -8.5t44 -19t40.5 -19t33 -8.5t24 14.5t26 52.5l31 -6q-11 -72 -32.5 -105t-63.5 -33q-21 0 -43.5 8.5t-44 18.5t-40.5 18.5t-33 8.5
t-24 -14.5t-26 -52.5l-31 7v0z" />
    <glyph glyph-name="otilde.sc" horiz-adv-x="666" 
d="M617 276q0 -59 -19.5 -112t-56 -93t-90 -64t-121.5 -24q-71 0 -124 24t-88 64t-52 93t-17 112q0 58 19 111.5t56 93.5t90 64t122 24q71 0 123.5 -24t87.5 -64t52.5 -93.5t17.5 -111.5zM496 276q0 66 -14.5 115t-38 81.5t-54.5 48.5t-64 16q-31 0 -59 -13.5t-49.5 -44
t-34 -80.5t-12.5 -123t14.5 -123t38 -80.5t54.5 -44t64 -13.5q31 0 59 16.5t49.5 49t34 81.5t12.5 114zM185 648q11 71 32.5 104.5t63.5 33.5q21 0 43.5 -8.5t44 -19t40.5 -19t33 -8.5t24 14.5t26 52.5l31 -6q-11 -72 -32.5 -105t-63.5 -33q-21 0 -43.5 8.5t-44 18.5
t-40.5 18.5t-33 8.5t-24 -14.5t-26 -52.5l-31 7v0z" />
    <glyph glyph-name="Racute" unicode="&#x154;" horiz-adv-x="747" 
d="M639 522q0 -67 -53 -111.5t-150 -63.5v-13q48 -14 79.5 -45t50.5 -69q23 -46 43 -86.5t40 -60.5q18 -19 42.5 -29.5t62.5 -15.5v-28h-111q-32 0 -54.5 6t-39 20t-30.5 36t-30 55l-59 124q-11 24 -22.5 39.5t-25 24.5t-31 12.5t-40.5 3.5h-40v-271l112 -21v-29h-343v29
l117 21v601l-117 21v29h335q62 0 111 -13t83 -36t52 -56.5t18 -73.5zM513 515q0 77 -45.5 111t-120.5 34q-20 0 -40.5 -1t-35.5 -4v-292h76q74 1 120 37.5t46 114.5zM471 1003q18 -12 21 -32t-11 -43q-8 -12 -22 -28t-32.5 -34.5t-39.5 -38.5t-41 -39l-20 15q9 27 19 53.5
t19 50t18 43t17 31.5q14 21 34.5 27.5t37.5 -5.5z" />
    <glyph glyph-name="racute" unicode="&#x155;" horiz-adv-x="473" 
d="M370 813q18 -13 21 -33.5t-11 -43.5q-8 -12 -22.5 -28t-33.5 -35t-40 -39l-42 -40l-19 15q9 27 19 54.5t19 51.5t18 43.5t17 31.5q14 22 35 28.5t39 -5.5zM450 447q0 -33 -18.5 -52t-44.5 -19q-32 0 -47.5 22.5t-11.5 50.5q-14 1 -29 -5t-29 -17.5t-27 -27t-23 -32.5
v-321l83 -21v-25h-262v25l78 21v376l-77 38v21l164 41l13 -10l-10 -99l12 -4q35 58 70 84.5t77 26.5q37 0 59.5 -20.5t22.5 -52.5z" />
    <glyph glyph-name="racute.sc" horiz-adv-x="622" 
d="M417 854q18 -13 21 -33.5t-11 -43.5q-8 -12 -22.5 -28t-33.5 -35t-40 -39l-42 -40l-19 15q9 27 19 54.5t19 51.5t18 43.5t17 31.5q14 22 35 28.5t39 -5.5zM542 413q0 -54 -45 -92.5t-124 -52.5v-10q48 -8 73 -29t40 -55q16 -37 33 -67.5t32 -45.5q14 -15 29 -23t41 -14
v-24h-108q-20 0 -35 4t-27.5 14t-23 28t-21.5 45l-38 95q-14 36 -37 48t-64 12h-27v-202l87 -19v-25h-282v25l87 19v464l-87 18v27h283q106 0 160 -38t54 -102zM425 402q0 56 -33 84t-90 29q-20 0 -36.5 -0.5t-25.5 -2.5v-229h56q54 1 91.5 31t37.5 88z" />
    <glyph glyph-name="Rcaron" unicode="&#x158;" horiz-adv-x="747" 
d="M486 1013l21 -19l-128 -195h-39l-120 195l22 19l121 -117zM639 522q0 -67 -53 -111.5t-150 -63.5v-13q48 -14 79.5 -45t50.5 -69q23 -46 43 -86.5t40 -60.5q18 -19 42.5 -29.5t62.5 -15.5v-28h-111q-32 0 -54.5 6t-39 20t-30.5 36t-30 55l-59 124q-11 24 -22.5 39.5
t-25 24.5t-31 12.5t-40.5 3.5h-40v-271l112 -21v-29h-343v29l117 21v601l-117 21v29h335q62 0 111 -13t83 -36t52 -56.5t18 -73.5zM513 515q0 77 -45.5 111t-120.5 34q-20 0 -40.5 -1t-35.5 -4v-292h76q74 1 120 37.5t46 114.5z" />
    <glyph glyph-name="rcaron" unicode="&#x159;" horiz-adv-x="473" 
d="M384 823l22 -20l-131 -199h-39l-122 199l22 20l123 -120zM450 447q0 -33 -18.5 -52t-44.5 -19q-32 0 -47.5 22.5t-11.5 50.5q-14 1 -29 -5t-29 -17.5t-27 -27t-23 -32.5v-321l83 -21v-25h-262v25l78 21v376l-77 38v21l164 41l13 -10l-10 -99l12 -4q35 58 70 84.5t77 26.5
q37 0 59.5 -20.5t22.5 -52.5z" />
    <glyph glyph-name="rcaron.sc" horiz-adv-x="622" 
d="M432 864l22 -20l-131 -199h-39l-122 199l22 20l123 -120zM542 413q0 -54 -45 -92.5t-124 -52.5v-10q48 -8 73 -29t40 -55q16 -37 33 -67.5t32 -45.5q14 -15 29 -23t41 -14v-24h-108q-20 0 -35 4t-27.5 14t-23 28t-21.5 45l-38 95q-14 36 -37 48t-64 12h-27v-202l87 -19
v-25h-282v25l87 19v464l-87 18v27h283q106 0 160 -38t54 -102zM425 402q0 56 -33 84t-90 29q-20 0 -36.5 -0.5t-25.5 -2.5v-229h56q54 1 91.5 31t37.5 88z" />
    <glyph glyph-name="Rcommaaccent" unicode="&#x156;" horiz-adv-x="747" 
d="M639 522q0 -67 -53 -111.5t-150 -63.5v-13q48 -14 79.5 -45t50.5 -69q23 -46 43 -86.5t40 -60.5q18 -19 42.5 -29.5t62.5 -15.5v-28h-111q-32 0 -54.5 6t-39 20t-30.5 36t-30 55l-59 124q-11 24 -22.5 39.5t-25 24.5t-31 12.5t-40.5 3.5h-40v-271l112 -21v-29h-343v29
l117 21v601l-117 21v29h335q62 0 111 -13t83 -36t52 -56.5t18 -73.5zM513 515q0 77 -45.5 111t-120.5 34q-20 0 -40.5 -1t-35.5 -4v-292h76q74 1 120 37.5t46 114.5zM465 -154q0 -55 -38 -98t-98 -66l-10 20q43 25 66.5 52t26.5 60l-6 4l-1 -1q-6 -3 -11 -3.5t-12 -0.5
q-19 0 -30.5 14t-11.5 36q0 24 16.5 42t41.5 18q31 0 49 -21t18 -56z" />
    <glyph glyph-name="rcommaaccent" unicode="&#x157;" horiz-adv-x="473" 
d="M226 -157q0 -56 -38 -99.5t-100 -66.5l-10 20q43 25 67.5 52.5t26.5 61.5l-5 4l-2 -2q-5 -3 -10.5 -3.5t-12.5 -0.5q-19 0 -31 14.5t-12 36.5q0 25 17 43t43 18q31 0 49 -21.5t18 -56.5zM450 447q0 -33 -18.5 -52t-44.5 -19q-32 0 -47.5 22.5t-11.5 50.5q-14 1 -29 -5
t-29 -17.5t-27 -27t-23 -32.5v-321l83 -21v-25h-262v25l78 21v376l-77 38v21l164 41l13 -10l-10 -99l12 -4q35 58 70 84.5t77 26.5q37 0 59.5 -20.5t22.5 -52.5z" />
    <glyph glyph-name="rcommaaccent.sc" horiz-adv-x="622" 
d="M389 -157q0 -56 -38 -99.5t-100 -66.5l-10 20q43 25 67.5 52.5t26.5 61.5l-5 4l-2 -2q-5 -3 -10.5 -3.5t-12.5 -0.5q-19 0 -31 14.5t-12 36.5q0 25 17 43t43 18q31 0 49 -21.5t18 -56.5zM542 413q0 -54 -45 -92.5t-124 -52.5v-10q48 -8 73 -29t40 -55q16 -37 33 -67.5
t32 -45.5q14 -15 29 -23t41 -14v-24h-108q-20 0 -35 4t-27.5 14t-23 28t-21.5 45l-38 95q-14 36 -37 48t-64 12h-27v-202l87 -19v-25h-282v25l87 19v464l-87 18v27h283q106 0 160 -38t54 -102zM425 402q0 56 -33 84t-90 29q-20 0 -36.5 -0.5t-25.5 -2.5v-229h56
q54 1 91.5 31t37.5 88z" />
    <glyph glyph-name="Sacute" unicode="&#x15a;" horiz-adv-x="600" 
d="M537 207q0 -57 -21.5 -99t-55.5 -69.5t-76 -41.5t-82 -14q-45 0 -88.5 9.5t-75.5 26.5l-33 -38h-29l-13 242l29 2q27 -61 50.5 -101t48 -64t52 -33.5t62.5 -9.5q60 0 98.5 34t38.5 94q0 25 -6 46t-21 38.5t-40.5 33.5t-64.5 33q-26 11 -51.5 21t-51.5 23q-59 29 -90 69.5
t-31 106.5q0 48 18 85t47.5 63t67.5 39.5t78 13.5q43 0 73 -9t56 -25l34 37h28l19 -212l-29 -3q-23 49 -44 83t-43 55t-46.5 30.5t-54.5 9.5q-45 0 -77 -29.5t-32 -83.5q0 -45 23.5 -76.5t83.5 -57.5q29 -12 58 -23.5t59 -26.5q67 -32 99.5 -75t32.5 -104zM410 1004
q18 -12 21 -32t-11 -43q-8 -12 -22 -28t-32.5 -34.5t-39.5 -38.5t-41 -39l-20 15q9 27 19 53.5t19 50t18 43t17 31.5q14 21 34.5 27.5t37.5 -5.5z" />
    <glyph glyph-name="sacute" unicode="&#x15b;" horiz-adv-x="474" 
d="M358 814q18 -13 21 -33.5t-11 -43.5q-8 -12 -22.5 -28t-33.5 -35t-40 -39l-42 -40l-19 15q9 27 19 54.5t19 51.5t18 43.5t17 31.5q14 22 35 28.5t39 -5.5zM425 153q0 -38 -15 -69t-42 -53t-63.5 -33.5t-79.5 -11.5q-48 0 -87.5 7t-81.5 23v143l28 2q31 -77 67.5 -109
t91.5 -32q46 0 72.5 22.5t26.5 66.5q0 16 -6.5 29.5t-21 26t-38.5 24t-59 25.5q-35 13 -63.5 27t-48.5 31.5t-31 40t-11 53.5q0 32 13 60t37 49t58 33.5t76 12.5q46 0 83.5 -7t62.5 -16l4 -126l-26 -5q-17 33 -33 56t-33 37.5t-36 20.5t-41 6q-38 0 -62.5 -21.5t-24.5 -53.5
q0 -16 6 -29t19.5 -24t35.5 -22t54 -23q45 -17 77.5 -33t52.5 -34.5t29.5 -41t9.5 -52.5z" />
    <glyph glyph-name="sacute.sc" horiz-adv-x="532" 
d="M388 856q18 -13 21 -33.5t-11 -43.5q-8 -12 -22.5 -28t-33.5 -35t-40 -39l-42 -40l-19 15q9 27 19 54.5t19 51.5t18 43.5t17 31.5q14 22 35 28.5t39 -5.5zM476 161q0 -45 -17.5 -78.5t-46 -55.5t-64.5 -33t-72 -11q-43 0 -83 10t-69 23l-27 -34h-27l-6 203l30 4
q25 -48 48.5 -81t46.5 -53.5t47 -29.5t50 -9q47 0 77 26.5t30 71.5q0 42 -26 64.5t-74 42.5q-23 9 -48 17.5t-48 19.5q-23 10 -44 22.5t-36.5 28.5t-24.5 37.5t-9 49.5q0 42 15 74.5t40.5 54.5t59 33t69.5 11q65 0 118 -32l32 35h26l10 -181l-31 -4q-45 81 -84 115t-77 34
q-42 0 -67 -23t-25 -65q0 -20 6 -35t18 -26.5t29 -20.5t39 -18q23 -10 47.5 -18t48.5 -18t45.5 -22.5t38 -30t26 -41.5t9.5 -57z" />
    <glyph glyph-name="Scaron" unicode="&#x160;" horiz-adv-x="600" 
d="M537 207q0 -57 -21.5 -99t-55.5 -69.5t-76 -41.5t-82 -14q-45 0 -88.5 9.5t-75.5 26.5l-33 -38h-29l-13 242l29 2q27 -61 50.5 -101t48 -64t52 -33.5t62.5 -9.5q60 0 98.5 34t38.5 94q0 25 -6 46t-21 38.5t-40.5 33.5t-64.5 33q-26 11 -51.5 21t-51.5 23q-59 29 -90 69.5
t-31 106.5q0 48 18 85t47.5 63t67.5 39.5t78 13.5q43 0 73 -9t56 -25l34 37h28l19 -212l-29 -3q-23 49 -44 83t-43 55t-46.5 30.5t-54.5 9.5q-45 0 -77 -29.5t-32 -83.5q0 -45 23.5 -76.5t83.5 -57.5q29 -12 58 -23.5t59 -26.5q67 -32 99.5 -75t32.5 -104zM424 1014l21 -19
l-128 -195h-39l-120 195l22 19l121 -117z" />
    <glyph glyph-name="scaron" unicode="&#x161;" horiz-adv-x="474" 
d="M373 824l22 -20l-131 -199h-39l-122 199l22 20l123 -120zM425 153q0 -38 -15 -69t-42 -53t-63.5 -33.5t-79.5 -11.5q-48 0 -87.5 7t-81.5 23v143l28 2q31 -77 67.5 -109t91.5 -32q46 0 72.5 22.5t26.5 66.5q0 16 -6.5 29.5t-21 26t-38.5 24t-59 25.5q-35 13 -63.5 27
t-48.5 31.5t-31 40t-11 53.5q0 32 13 60t37 49t58 33.5t76 12.5q46 0 83.5 -7t62.5 -16l4 -126l-26 -5q-17 33 -33 56t-33 37.5t-36 20.5t-41 6q-38 0 -62.5 -21.5t-24.5 -53.5q0 -16 6 -29t19.5 -24t35.5 -22t54 -23q45 -17 77.5 -33t52.5 -34.5t29.5 -41t9.5 -52.5z" />
    <glyph glyph-name="scaron.sc" horiz-adv-x="532" 
d="M402 866l22 -20l-131 -199h-39l-122 199l22 20l123 -120zM476 161q0 -45 -17.5 -78.5t-46 -55.5t-64.5 -33t-72 -11q-43 0 -83 10t-69 23l-27 -34h-27l-6 203l30 4q25 -48 48.5 -81t46.5 -53.5t47 -29.5t50 -9q47 0 77 26.5t30 71.5q0 42 -26 64.5t-74 42.5
q-23 9 -48 17.5t-48 19.5q-23 10 -44 22.5t-36.5 28.5t-24.5 37.5t-9 49.5q0 42 15 74.5t40.5 54.5t59 33t69.5 11q65 0 118 -32l32 35h26l10 -181l-31 -4q-45 81 -84 115t-77 34q-42 0 -67 -23t-25 -65q0 -20 6 -35t18 -26.5t29 -20.5t39 -18q23 -10 47.5 -18t48.5 -18
t45.5 -22.5t38 -30t26 -41.5t9.5 -57z" />
    <glyph glyph-name="Scedilla" unicode="&#x15e;" horiz-adv-x="600" 
d="M404 -181q0 -24 -10 -44.5t-27 -34.5t-39.5 -22t-48.5 -8q-42 0 -65 14t-23 34q0 15 8 24.5t24 9.5q14 0 22.5 -9.5t8.5 -22.5q0 -8 -1.5 -12.5t-4.5 -9.5q6 -3 14.5 -4t17.5 -1q24 0 44 17.5t20 50.5q0 32 -20.5 50t-56.5 18q-7 0 -12 -0.5t-13 -2.5l-16 18l123 104
q-12 -2 -24 -3.5t-23 -1.5q-45 0 -88.5 9.5t-75.5 26.5l-33 -38h-29l-13 242l29 2q27 -61 50.5 -101t48 -64t52 -33.5t62.5 -9.5q60 0 98.5 34t38.5 94q0 25 -6 46t-21 38.5t-40.5 33.5t-64.5 33q-26 11 -51.5 21t-51.5 23q-59 29 -90 69.5t-31 106.5q0 48 18 85t47.5 63
t67.5 39.5t78 13.5q43 0 73 -9t56 -25l34 37h28l19 -212l-29 -3q-23 49 -44 83t-43 55t-46.5 30.5t-54.5 9.5q-45 0 -77 -29.5t-32 -83.5q0 -45 23.5 -76.5t83.5 -57.5q29 -12 58 -23.5t59 -26.5q67 -32 99.5 -75t32.5 -104q0 -72 -34 -120.5t-83 -74.5l-113 -96
q18 -2 35.5 -9t31 -19t22 -29.5t8.5 -39.5z" />
    <glyph glyph-name="scedilla" unicode="&#x15f;" horiz-adv-x="474" 
d="M323 -184q0 -25 -10 -45.5t-27 -35.5t-40 -23t-50 -8q-42 0 -66 15t-24 35q0 15 8.5 24.5t24.5 9.5q15 0 23.5 -9.5t8.5 -23.5q0 -7 -1.5 -11.5t-4.5 -10.5q6 -3 14.5 -4t17.5 -1q24 0 45 18t21 52q0 32 -21.5 50.5t-57.5 18.5q-8 0 -12.5 -1l-13.5 -3l-16 19l129 108
q-11 -2 -22.5 -3t-23.5 -1q-48 0 -87.5 7t-81.5 23v143l28 2q31 -77 67.5 -109t91.5 -32q46 0 72.5 22.5t26.5 66.5q0 16 -6.5 29.5t-21 26t-38.5 24t-59 25.5q-35 13 -63.5 27t-48.5 31.5t-31 40t-11 53.5q0 32 13 60t37 49t58 33.5t76 12.5q46 0 83.5 -7t62.5 -16l4 -126
l-26 -5q-17 33 -33 56t-33 37.5t-36 20.5t-41 6q-38 0 -62.5 -21.5t-24.5 -53.5q0 -16 6 -29t19.5 -24t35.5 -22t54 -23q45 -17 77.5 -33t52.5 -34.5t29.5 -41t9.5 -52.5q0 -46 -21.5 -81t-58.5 -57l-120 -100q18 -2 35.5 -9.5t31.5 -19.5t22.5 -29.5t8.5 -40.5z" />
    <glyph glyph-name="scedilla.sc" horiz-adv-x="532" 
d="M476 161q0 -67 -36.5 -108t-88.5 -58l-95 -80q18 -2 36 -9.5t32 -19.5t22.5 -29.5t8.5 -40.5q0 -25 -10 -45.5t-27.5 -35.5t-40.5 -23t-50 -8q-42 0 -65.5 15t-23.5 35q0 15 8 24.5t24 9.5q15 0 24 -9.5t9 -23.5q0 -7 -2 -11.5t-5 -10.5q6 -3 14.5 -4t18.5 -1
q24 0 44.5 18t20.5 52q0 32 -21 50.5t-58 18.5q-7 0 -12 -1t-13 -3l-17 19l122 102q-5 0 -9.5 -0.5t-9.5 -0.5q-43 0 -83 10t-69 23l-27 -34h-27l-6 203l30 4q25 -48 48.5 -81t46.5 -53.5t47 -29.5t50 -9q47 0 77 26.5t30 71.5q0 42 -26 64.5t-74 42.5q-23 9 -48 17.5
t-48 19.5q-23 10 -44 22.5t-36.5 28.5t-24.5 37.5t-9 49.5q0 42 15 74.5t40.5 54.5t59 33t69.5 11q65 0 118 -32l32 35h26l10 -181l-31 -4q-45 81 -84 115t-77 34q-42 0 -67 -23t-25 -65q0 -20 6 -35t18 -26.5t29 -20.5t39 -18q23 -10 47.5 -18t48.5 -18t45.5 -22.5t38 -30
t26 -41.5t9.5 -57z" />
    <glyph glyph-name="Scommaaccent" unicode="&#x218;" horiz-adv-x="600" 
d="M537 207q0 -57 -21.5 -99t-55.5 -69.5t-76 -41.5t-82 -14q-45 0 -88.5 9.5t-75.5 26.5l-33 -38h-29l-13 242l29 2q27 -61 50.5 -101t48 -64t52 -33.5t62.5 -9.5q60 0 98.5 34t38.5 94q0 25 -6 46t-21 38.5t-40.5 33.5t-64.5 33q-26 11 -51.5 21t-51.5 23q-59 29 -90 69.5
t-31 106.5q0 48 18 85t47.5 63t67.5 39.5t78 13.5q43 0 73 -9t56 -25l34 37h28l19 -212l-29 -3q-23 49 -44 83t-43 55t-46.5 30.5t-54.5 9.5q-45 0 -77 -29.5t-32 -83.5q0 -45 23.5 -76.5t83.5 -57.5q29 -12 58 -23.5t59 -26.5q67 -32 99.5 -75t32.5 -104zM356 -154
q0 -55 -38 -98t-98 -66l-10 20q43 25 66.5 52t26.5 60l-6 4l-1 -1q-6 -3 -11 -3.5t-12 -0.5q-19 0 -30.5 14t-11.5 36q0 24 16.5 42t41.5 18q31 0 49 -21t18 -56z" />
    <glyph glyph-name="scommaaccent" unicode="&#x219;" horiz-adv-x="474" 
d="M290 -157q0 -56 -38 -99.5t-100 -66.5l-10 20q43 25 67.5 52.5t26.5 61.5l-5 4l-2 -2q-5 -3 -10.5 -3.5t-12.5 -0.5q-19 0 -31 14.5t-12 36.5q0 25 17 43t43 18q31 0 49 -21.5t18 -56.5zM425 153q0 -38 -15 -69t-42 -53t-63.5 -33.5t-79.5 -11.5q-48 0 -87.5 7t-81.5 23
v143l28 2q31 -77 67.5 -109t91.5 -32q46 0 72.5 22.5t26.5 66.5q0 16 -6.5 29.5t-21 26t-38.5 24t-59 25.5q-35 13 -63.5 27t-48.5 31.5t-31 40t-11 53.5q0 32 13 60t37 49t58 33.5t76 12.5q46 0 83.5 -7t62.5 -16l4 -126l-26 -5q-17 33 -33 56t-33 37.5t-36 20.5t-41 6
q-38 0 -62.5 -21.5t-24.5 -53.5q0 -16 6 -29t19.5 -24t35.5 -22t54 -23q45 -17 77.5 -33t52.5 -34.5t29.5 -41t9.5 -52.5z" />
    <glyph glyph-name="scommaaccent.sc" horiz-adv-x="532" 
d="M332 -157q0 -56 -38 -99.5t-100 -66.5l-10 20q43 25 67.5 52.5t26.5 61.5l-5 4l-2 -2q-5 -3 -10.5 -3.5t-12.5 -0.5q-19 0 -31 14.5t-12 36.5q0 25 17 43t43 18q31 0 49 -21.5t18 -56.5zM476 161q0 -45 -17.5 -78.5t-46 -55.5t-64.5 -33t-72 -11q-43 0 -83 10t-69 23
l-27 -34h-27l-6 203l30 4q25 -48 48.5 -81t46.5 -53.5t47 -29.5t50 -9q47 0 77 26.5t30 71.5q0 42 -26 64.5t-74 42.5q-23 9 -48 17.5t-48 19.5q-23 10 -44 22.5t-36.5 28.5t-24.5 37.5t-9 49.5q0 42 15 74.5t40.5 54.5t59 33t69.5 11q65 0 118 -32l32 35h26l10 -181l-31 -4
q-45 81 -84 115t-77 34q-42 0 -67 -23t-25 -65q0 -20 6 -35t18 -26.5t29 -20.5t39 -18q23 -10 47.5 -18t48.5 -18t45.5 -22.5t38 -30t26 -41.5t9.5 -57z" />
    <glyph glyph-name="Tcaron" unicode="&#x164;" horiz-adv-x="754" 
d="M506 1013l21 -19l-128 -195h-39l-120 195l22 19l121 -117zM700 480l-65 88q-20 27 -34.5 44t-28 27t-29 14t-36.5 4h-67v-607l124 -21v-29h-363v29l124 21v607h-74q-21 0 -37 -4t-30 -14.5t-28.5 -27.5t-33.5 -43l-64 -88l-19 7l38 214h604l38 -214z" />
    <glyph glyph-name="tcaron" unicode="&#x165;" horiz-adv-x="396" 
d="M332 823q22 -4 33.5 -20.5t8.5 -42.5q-2 -14 -9 -35t-17.5 -46t-23 -52.5t-25.5 -54.5l-23 6q-1 27 -2 54.5t-1.5 52.5t0 46t2.5 35q4 28 20 44.5t37 12.5zM384 41q-36 -22 -77.5 -36.5t-83.5 -14.5q-114 0 -114 130v328h-87v25l98 49l57 132h32v-147h172v-59h-172v-293
q0 -32 5.5 -51.5t23.5 -31.5q11 -8 27.5 -11t45.5 -3q14 0 33 1.5t39 4.5l1 -23v0z" />
    <glyph glyph-name="tcaron.sc" horiz-adv-x="623" 
d="M559 361l-50 79q-14 22 -25 36t-21.5 22t-22.5 10.5t-30 2.5h-41v-467l93 -19v-25h-294v25l93 19v467h-46q-17 0 -30 -3.5t-24.5 -12t-22 -22t-22.5 -33.5l-47 -79l-28 6l21 186h503l20 -186zM442 864l22 -20l-131 -199h-39l-122 199l22 20l123 -120z" />
    <glyph glyph-name="Tcommaaccent" unicode="&#x162;" horiz-adv-x="754" 
d="M700 480l-65 88q-20 27 -34.5 44t-28 27t-29 14t-36.5 4h-67v-607l124 -21v-29h-363v29l124 21v607h-74q-21 0 -37 -4t-30 -14.5t-28.5 -27.5t-33.5 -43l-64 -88l-19 7l38 214h604l38 -214zM437 -154q0 -55 -38 -98t-98 -66l-10 20q43 25 66.5 52t26.5 60l-6 4l-1 -1
q-6 -3 -11 -3.5t-12 -0.5q-19 0 -30.5 14t-11.5 36q0 24 16.5 42t41.5 18q31 0 49 -21t18 -56z" />
    <glyph glyph-name="Tcommaaccent" unicode="&#x21a;" horiz-adv-x="754" 
d="M700 480l-65 88q-20 27 -34.5 44t-28 27t-29 14t-36.5 4h-67v-607l124 -21v-29h-363v29l124 21v607h-74q-21 0 -37 -4t-30 -14.5t-28.5 -27.5t-33.5 -43l-64 -88l-19 7l38 214h604l38 -214zM437 -154q0 -55 -38 -98t-98 -66l-10 20q43 25 66.5 52t26.5 60l-6 4l-1 -1
q-6 -3 -11 -3.5t-12 -0.5q-19 0 -30.5 14t-11.5 36q0 24 16.5 42t41.5 18q31 0 49 -21t18 -56z" />
    <glyph glyph-name="tcommaaccent" unicode="&#x163;" horiz-adv-x="396" 
d="M269 -157q0 -56 -38 -99.5t-100 -66.5l-10 20q43 25 67.5 52.5t26.5 61.5l-5 4l-2 -2q-5 -3 -10.5 -3.5t-12.5 -0.5q-19 0 -31 14.5t-12 36.5q0 25 17 43t43 18q31 0 49 -21.5t18 -56.5zM384 41q-36 -22 -77.5 -36.5t-83.5 -14.5q-114 0 -114 130v328h-87v25l98 49
l57 132h32v-147h172v-59h-172v-293q0 -32 5.5 -51.5t23.5 -31.5q11 -8 27.5 -11t45.5 -3q14 0 33 1.5t39 4.5l1 -23v0z" />
    <glyph glyph-name="tcommaaccent" unicode="&#x21b;" horiz-adv-x="396" 
d="M269 -157q0 -56 -38 -99.5t-100 -66.5l-10 20q43 25 67.5 52.5t26.5 61.5l-5 4l-2 -2q-5 -3 -10.5 -3.5t-12.5 -0.5q-19 0 -31 14.5t-12 36.5q0 25 17 43t43 18q31 0 49 -21.5t18 -56.5zM384 41q-36 -22 -77.5 -36.5t-83.5 -14.5q-114 0 -114 130v328h-87v25l98 49
l57 132h32v-147h172v-59h-172v-293q0 -32 5.5 -51.5t23.5 -31.5q11 -8 27.5 -11t45.5 -3q14 0 33 1.5t39 4.5l1 -23v0z" />
    <glyph glyph-name="tcommaaccent.sc" horiz-adv-x="623" 
d="M559 361l-50 79q-14 22 -25 36t-21.5 22t-22.5 10.5t-30 2.5h-41v-467l93 -19v-25h-294v25l93 19v467h-46q-17 0 -30 -3.5t-24.5 -12t-22 -22t-22.5 -33.5l-47 -79l-28 6l21 186h503l20 -186zM371 -157q0 -56 -38 -99.5t-100 -66.5l-10 20q43 25 67.5 52.5t26.5 61.5
l-5 4l-2 -2q-5 -3 -10.5 -3.5t-12.5 -0.5q-19 0 -31 14.5t-12 36.5q0 25 17 43t43 18q31 0 49 -21.5t18 -56.5z" />
    <glyph glyph-name="Thorn" unicode="&#xde;" horiz-adv-x="682" 
d="M628 356q0 -44 -17.5 -82t-49.5 -66t-76 -44.5t-98 -16.5q-26 0 -58 2.5t-58 7.5v-107l122 -21v-29h-353v29l117 21v601l-117 21v29h353v-29l-122 -21v-107q22 4 48 7t52 3q60 0 107.5 -15t81 -41.5t51 -62.5t17.5 -79zM502 353q0 84 -42.5 122t-114.5 38q-18 0 -38.5 -1
t-35.5 -4v-313q14 -2 31.5 -3.5t39.5 -1.5q75 0 117.5 38.5t42.5 124.5z" />
    <glyph glyph-name="thorn" unicode="&#xfe;" horiz-adv-x="614" 
d="M562 265q0 -55 -21 -106t-58.5 -90.5t-88.5 -63t-112 -23.5q-26 0 -47 3t-44 9v-177l94 -27v-25h-273v25l78 27v907l-86 39v21l175 46l12 -9v-371l10 -2q38 34 73.5 53t85.5 19q38 0 74 -17t64.5 -49t46 -80t17.5 -109zM457 231q0 106 -44 160.5t-123 54.5
q-31 0 -55.5 -9t-43.5 -20v-341q56 -53 127 -53q28 0 53 12t44 37.5t30.5 65t11.5 93.5z" />
    <glyph glyph-name="thorn.sc" horiz-adv-x="582" 
d="M541 289q0 -37 -16.5 -69t-45 -55.5t-68 -37t-85.5 -13.5q-23 0 -44.5 1.5t-41.5 5.5v-77l96 -19v-25h-291v25l87 19v464l-87 18v27h291v-27l-96 -18v-61q16 4 34 5t35 1q55 0 98 -12t73 -34t45.5 -52t15.5 -66zM422 288q0 65 -34.5 96t-93.5 32q-35 0 -54 -3v-260
q8 -1 23.5 -1.5t29.5 -0.5q60 0 94.5 34.5t34.5 102.5z" />
    <glyph glyph-name="Uacute" unicode="&#xda;" horiz-adv-x="832" 
d="M550 1003q18 -12 21 -32t-11 -43q-8 -12 -22 -28t-32.5 -34.5t-39.5 -38.5t-41 -39l-20 15q9 27 19 53.5t19 50t18 43t17 31.5q14 21 34.5 27.5t37.5 -5.5zM547 672v29h247v-29l-97 -31v-396q0 -55 -18 -103t-52.5 -83.5t-85.5 -56t-117 -20.5q-137 0 -210 59.5
t-73 185.5v424l-107 21v29h340v-29l-117 -21v-405q0 -57 14 -96.5t40 -64t63.5 -36t84.5 -11.5q44 0 78 16t57.5 43.5t35.5 65t12 81.5v397z" />
    <glyph glyph-name="uacute" unicode="&#xfa;" horiz-adv-x="641" 
d="M417 813q18 -13 21 -33.5t-11 -43.5q-8 -12 -22.5 -28t-33.5 -35t-40 -39l-42 -40l-19 15q9 27 19 54.5t19 51.5t18 43.5t17 31.5q14 22 35 28.5t39 -5.5zM606 45v-22l-165 -40l-12 8l8 83l-11 2q-50 -47 -91.5 -70.5t-90.5 -23.5q-36 0 -62.5 12.5t-44.5 34t-27 50.5
t-9 63v287l-77 36v16l166 41l12 -10v-333q0 -63 24 -93t75 -30q33 0 63.5 12.5t62.5 34.5v326l-78 36v16l167 41l12 -10v-445z" />
    <glyph glyph-name="uacute.sc" horiz-adv-x="696" 
d="M474 854q18 -13 21 -33.5t-11 -43.5q-8 -12 -22.5 -28t-33.5 -35t-40 -39l-42 -40l-19 15q9 27 19 54.5t19 51.5t18 43.5t17 31.5q14 22 35 28.5t39 -5.5zM455 526v27h203v-27l-78 -27v-307q0 -46 -15 -84.5t-43.5 -66t-70 -43t-95.5 -15.5q-114 0 -176 50t-62 154v321
l-80 18v27h273v-27l-84 -18v-312q0 -44 11.5 -74t32.5 -49.5t49.5 -28t63.5 -8.5t62 12t45.5 33t28 49.5t9.5 62.5v306z" />
    <glyph glyph-name="Ubreve" unicode="&#x16c;" horiz-adv-x="832" 
d="M445 876q47 0 73 24t46 74l30 -9q-7 -78 -45 -122.5t-104 -44.5t-105 44.5t-46 122.5l30 9q19 -50 46 -74t75 -24zM547 672v29h247v-29l-97 -31v-396q0 -55 -18 -103t-52.5 -83.5t-85.5 -56t-117 -20.5q-137 0 -210 59.5t-73 185.5v424l-107 21v29h340v-29l-117 -21v-405
q0 -57 14 -96.5t40 -64t63.5 -36t84.5 -11.5q44 0 78 16t57.5 43.5t35.5 65t12 81.5v397z" />
    <glyph glyph-name="ubreve" unicode="&#x16d;" horiz-adv-x="641" 
d="M606 45v-22l-165 -40l-12 8l8 83l-11 2q-50 -47 -91.5 -70.5t-90.5 -23.5q-36 0 -62.5 12.5t-44.5 34t-27 50.5t-9 63v287l-77 36v16l166 41l12 -10v-333q0 -63 24 -93t75 -30q33 0 63.5 12.5t62.5 34.5v326l-78 36v16l167 41l12 -10v-445zM309 683q48 0 75 24.5t46 75.5
l31 -9q-7 -80 -45.5 -125t-106.5 -45t-107 45t-46 125l30 9q19 -51 47 -75.5t76 -24.5z" />
    <glyph glyph-name="ubreve.sc" horiz-adv-x="696" 
d="M455 526v27h203v-27l-78 -27v-307q0 -46 -15 -84.5t-43.5 -66t-70 -43t-95.5 -15.5q-114 0 -176 50t-62 154v321l-80 18v27h273v-27l-84 -18v-312q0 -44 11.5 -74t32.5 -49.5t49.5 -28t63.5 -8.5t62 12t45.5 33t28 49.5t9.5 62.5v306zM366 724q48 0 75 24.5t46 75.5
l31 -9q-7 -80 -45.5 -125t-106.5 -45t-107 45t-46 125l30 9q19 -51 47 -75.5t76 -24.5z" />
    <glyph glyph-name="Ucircumflex" unicode="&#xdb;" horiz-adv-x="832" 
d="M547 672v29h247v-29l-97 -31v-396q0 -55 -18 -103t-52.5 -83.5t-85.5 -56t-117 -20.5q-137 0 -210 59.5t-73 185.5v424l-107 21v29h340v-29l-117 -21v-405q0 -57 14 -96.5t40 -64t63.5 -36t84.5 -11.5q44 0 78 16t57.5 43.5t35.5 65t12 81.5v397zM323 782l-22 19l129 195
h38l120 -195l-21 -19l-122 117z" />
    <glyph glyph-name="ucircumflex" unicode="&#xfb;" horiz-adv-x="641" 
d="M186 587l-22 20l130 199h40l122 -199l-22 -20l-124 120zM606 45v-22l-165 -40l-12 8l8 83l-11 2q-50 -47 -91.5 -70.5t-90.5 -23.5q-36 0 -62.5 12.5t-44.5 34t-27 50.5t-9 63v287l-77 36v16l166 41l12 -10v-333q0 -63 24 -93t75 -30q33 0 63.5 12.5t62.5 34.5v326
l-78 36v16l167 41l12 -10v-445z" />
    <glyph glyph-name="ucircumflex.sc" horiz-adv-x="696" 
d="M243 628l-22 20l130 199h40l122 -199l-22 -20l-124 120zM455 526v27h203v-27l-78 -27v-307q0 -46 -15 -84.5t-43.5 -66t-70 -43t-95.5 -15.5q-114 0 -176 50t-62 154v321l-80 18v27h273v-27l-84 -18v-312q0 -44 11.5 -74t32.5 -49.5t49.5 -28t63.5 -8.5t62 12t45.5 33
t28 49.5t9.5 62.5v306z" />
    <glyph glyph-name="Udieresis" unicode="&#xdc;" horiz-adv-x="832" 
d="M543 803q-27 0 -44 17.5t-17 45.5q0 26 19.5 47t48.5 21q27 0 44.5 -17.5t17.5 -45.5q0 -27 -19.5 -47.5t-49.5 -20.5zM334 803q-27 0 -44.5 17.5t-17.5 45.5q0 26 19.5 47t49.5 21q27 0 44.5 -17.5t17.5 -45.5q0 -27 -20 -47.5t-49 -20.5zM547 672v29h247v-29l-97 -31
v-396q0 -55 -18 -103t-52.5 -83.5t-85.5 -56t-117 -20.5q-137 0 -210 59.5t-73 185.5v424l-107 21v29h340v-29l-117 -21v-405q0 -57 14 -96.5t40 -64t63.5 -36t84.5 -11.5q44 0 78 16t57.5 43.5t35.5 65t12 81.5v397z" />
    <glyph glyph-name="udieresis" unicode="&#xfc;" horiz-adv-x="641" 
d="M410 608q-27 0 -44.5 18.5t-17.5 46.5q0 27 19.5 48.5t49.5 21.5q28 0 45.5 -18.5t17.5 -46.5q0 -27 -19.5 -48.5t-50.5 -21.5zM197 608q-27 0 -44.5 18.5t-17.5 46.5q0 27 19.5 48.5t49.5 21.5q28 0 45.5 -18.5t17.5 -46.5q0 -27 -20 -48.5t-50 -21.5zM606 45v-22
l-165 -40l-12 8l8 83l-11 2q-50 -47 -91.5 -70.5t-90.5 -23.5q-36 0 -62.5 12.5t-44.5 34t-27 50.5t-9 63v287l-77 36v16l166 41l12 -10v-333q0 -63 24 -93t75 -30q33 0 63.5 12.5t62.5 34.5v326l-78 36v16l167 41l12 -10v-445z" />
    <glyph glyph-name="udieresis.sc" horiz-adv-x="696" 
d="M467 649q-27 0 -44.5 18.5t-17.5 46.5q0 27 19.5 48.5t49.5 21.5q28 0 45.5 -18.5t17.5 -46.5q0 -27 -19.5 -48.5t-50.5 -21.5zM254 649q-27 0 -44.5 18.5t-17.5 46.5q0 27 19.5 48.5t49.5 21.5q28 0 45.5 -18.5t17.5 -46.5q0 -27 -20 -48.5t-50 -21.5zM455 526v27h203
v-27l-78 -27v-307q0 -46 -15 -84.5t-43.5 -66t-70 -43t-95.5 -15.5q-114 0 -176 50t-62 154v321l-80 18v27h273v-27l-84 -18v-312q0 -44 11.5 -74t32.5 -49.5t49.5 -28t63.5 -8.5t62 12t45.5 33t28 49.5t9.5 62.5v306z" />
    <glyph glyph-name="Ugrave" unicode="&#xd9;" horiz-adv-x="832" 
d="M468 788q-20 19 -41 39t-39.5 38.5t-33 34.5t-21.5 28q-14 23 -11 43t21 32t38.5 5t33.5 -27q8 -12 17 -31.5t18 -43t19 -50t19 -53.5zM547 672v29h247v-29l-97 -31v-396q0 -55 -18 -103t-52.5 -83.5t-85.5 -56t-117 -20.5q-137 0 -210 59.5t-73 185.5v424l-107 21v29
h340v-29l-117 -21v-405q0 -57 14 -96.5t40 -64t63.5 -36t84.5 -11.5q44 0 78 16t57.5 43.5t35.5 65t12 81.5v397z" />
    <glyph glyph-name="ugrave" unicode="&#xf9;" horiz-adv-x="641" 
d="M606 45v-22l-165 -40l-12 8l8 83l-11 2q-50 -47 -91.5 -70.5t-90.5 -23.5q-36 0 -62.5 12.5t-44.5 34t-27 50.5t-9 63v287l-77 36v16l166 41l12 -10v-333q0 -63 24 -93t75 -30q33 0 63.5 12.5t62.5 34.5v326l-78 36v16l167 41l12 -10v-445zM333 594l-42 40t-39.5 39
t-33 35t-22.5 28q-14 23 -11.5 43.5t21.5 33.5q18 12 39 5t35 -28q7 -12 16 -31.5t18.5 -43.5t19.5 -51.5t19 -54.5z" />
    <glyph glyph-name="ugrave.sc" horiz-adv-x="696" 
d="M390 635l-42 40t-39.5 39t-33 35t-22.5 28q-14 23 -11.5 43.5t21.5 33.5q18 12 39 5t35 -28q7 -12 16 -31.5t18.5 -43.5t19.5 -51.5t19 -54.5zM455 526v27h203v-27l-78 -27v-307q0 -46 -15 -84.5t-43.5 -66t-70 -43t-95.5 -15.5q-114 0 -176 50t-62 154v321l-80 18v27
h273v-27l-84 -18v-312q0 -44 11.5 -74t32.5 -49.5t49.5 -28t63.5 -8.5t62 12t45.5 33t28 49.5t9.5 62.5v306z" />
    <glyph glyph-name="Uhungarumlaut" unicode="&#x170;" horiz-adv-x="832" 
d="M547 672v29h247v-29l-97 -31v-396q0 -55 -18 -103t-52.5 -83.5t-85.5 -56t-117 -20.5q-137 0 -210 59.5t-73 185.5v424l-107 21v29h340v-29l-117 -21v-405q0 -57 14 -96.5t40 -64t63.5 -36t84.5 -11.5q44 0 78 16t57.5 43.5t35.5 65t12 81.5v397zM638 931
q-8 -12 -21.5 -28.5t-31.5 -35.5t-38 -40t-39 -41l-19 14q17 54 35 105t33 77q12 20 32.5 27t37.5 -4q18 -11 21.5 -31t-10.5 -43zM478 931q-8 -12 -22 -28.5t-31.5 -35.5t-37.5 -40t-39 -41l-20 14q17 54 35 105t33 77q12 20 32.5 27t37.5 -4q18 -11 22 -31t-10 -43z" />
    <glyph glyph-name="uhungarumlaut" unicode="&#x171;" horiz-adv-x="641" 
d="M606 45v-22l-165 -40l-12 8l8 83l-11 2q-50 -47 -91.5 -70.5t-90.5 -23.5q-36 0 -62.5 12.5t-44.5 34t-27 50.5t-9 63v287l-77 36v16l166 41l12 -10v-333q0 -63 24 -93t75 -30q33 0 63.5 12.5t62.5 34.5v326l-78 36v16l167 41l12 -10v-445zM507 739q-8 -12 -22 -29
t-32 -36.5t-38.5 -40t-39.5 -41.5l-20 14q9 27 18 54.5t18 52t17 45t16 33.5q13 21 34 28t38 -4q18 -12 21.5 -32.5t-10.5 -43.5zM344 739q-8 -12 -22 -29t-32 -36.5t-38.5 -40t-39.5 -41.5l-20 14q9 27 17.5 54.5t17.5 52t17 45t16 33.5q13 21 34 28t38 -4q18 -12 22 -32.5
t-10 -43.5z" />
    <glyph glyph-name="uhungarumlaut.sc" horiz-adv-x="696" 
d="M564 780q-8 -12 -22 -29t-32 -36.5t-38.5 -40t-39.5 -41.5l-20 14q9 27 18 54.5t18 52t17 45t16 33.5q13 21 34 28t38 -4q18 -12 21.5 -32.5t-10.5 -43.5zM401 780q-8 -12 -22 -29t-32 -36.5t-38.5 -40t-39.5 -41.5l-20 14q9 27 17.5 54.5t17.5 52t17 45t16 33.5
q13 21 34 28t38 -4q18 -12 22 -32.5t-10 -43.5zM455 526v27h203v-27l-78 -27v-307q0 -46 -15 -84.5t-43.5 -66t-70 -43t-95.5 -15.5q-114 0 -176 50t-62 154v321l-80 18v27h273v-27l-84 -18v-312q0 -44 11.5 -74t32.5 -49.5t49.5 -28t63.5 -8.5t62 12t45.5 33t28 49.5
t9.5 62.5v306z" />
    <glyph glyph-name="Umacron" unicode="&#x16a;" horiz-adv-x="832" 
d="M587 818h-289v68h289v-68zM547 672v29h247v-29l-97 -31v-396q0 -55 -18 -103t-52.5 -83.5t-85.5 -56t-117 -20.5q-137 0 -210 59.5t-73 185.5v424l-107 21v29h340v-29l-117 -21v-405q0 -57 14 -96.5t40 -64t63.5 -36t84.5 -11.5q44 0 78 16t57.5 43.5t35.5 65t12 81.5
v397z" />
    <glyph glyph-name="umacron" unicode="&#x16b;" horiz-adv-x="641" 
d="M606 45v-22l-165 -40l-12 8l8 83l-11 2q-50 -47 -91.5 -70.5t-90.5 -23.5q-36 0 -62.5 12.5t-44.5 34t-27 50.5t-9 63v287l-77 36v16l166 41l12 -10v-333q0 -63 24 -93t75 -30q33 0 63.5 12.5t62.5 34.5v326l-78 36v16l167 41l12 -10v-445zM454 624h-293v69h293v-69z" />
    <glyph glyph-name="umacron.sc" horiz-adv-x="696" 
d="M511 665h-293v69h293v-69zM455 526v27h203v-27l-78 -27v-307q0 -46 -15 -84.5t-43.5 -66t-70 -43t-95.5 -15.5q-114 0 -176 50t-62 154v321l-80 18v27h273v-27l-84 -18v-312q0 -44 11.5 -74t32.5 -49.5t49.5 -28t63.5 -8.5t62 12t45.5 33t28 49.5t9.5 62.5v306z" />
    <glyph glyph-name="Uogonek" unicode="&#x172;" horiz-adv-x="832" 
d="M547 672v29h247v-29l-97 -31v-396q0 -51 -15.5 -96t-45.5 -79.5t-74 -57t-101 -28.5q-35 -47 -48 -78.5t-13 -61.5q0 -38 20 -58.5t51 -20.5q21 0 38.5 8t31.5 17l13 -16q-23 -23 -50 -37.5t-59 -14.5q-23 0 -44 6.5t-36.5 19.5t-24.5 32.5t-9 44.5q0 40 20 77t64 80
q-132 2 -203 61.5t-71 183.5v424l-107 21v29h340v-29l-117 -21v-405q0 -57 14 -96.5t40 -64t63.5 -36t84.5 -11.5q44 0 78 16t57.5 43.5t35.5 65t12 81.5v397z" />
    <glyph glyph-name="uogonek" unicode="&#x173;" horiz-adv-x="641" 
d="M606 45v-22q-25 -12 -50.5 -30t-45.5 -41t-33 -50.5t-13 -59.5q0 -40 20.5 -60.5t51.5 -20.5q22 0 39.5 8t31.5 18l13 -17q-23 -24 -50 -38.5t-60 -14.5q-24 0 -45 6.5t-36.5 20t-25 32.5t-9.5 45q0 50 31.5 97.5t88.5 82.5l-74 -17l-11 8l8 82l-11 2
q-50 -47 -91.5 -70.5t-90.5 -23.5q-36 0 -62.5 12.5t-44.5 34t-27 50.5t-9 63v287l-77 36v16l166 41l12 -10v-333q0 -63 24 -93t75 -30q33 0 63.5 12.5t62.5 34.5v326l-78 36v16l167 41l12 -10v-445z" />
    <glyph glyph-name="uogonek.sc" horiz-adv-x="696" 
d="M455 526v27h203v-27l-78 -27v-307q0 -86 -49 -142t-142 -65q-36 -48 -49.5 -80.5t-13.5 -62.5q0 -40 20.5 -60.5t51.5 -20.5q22 0 39.5 7.5t31.5 17.5l13 -16q-23 -24 -50 -38.5t-60 -14.5q-24 0 -45 6.5t-36.5 20t-25 32.5t-9.5 45q0 42 21 80t66 82q-108 3 -166.5 53
t-58.5 151v321l-80 18v27h273v-27l-84 -18v-312q0 -44 11.5 -74t32.5 -49.5t49.5 -28t63.5 -8.5t62 12t45.5 33t28 49.5t9.5 62.5v306z" />
    <glyph glyph-name="Uring" unicode="&#x16e;" horiz-adv-x="832" 
d="M547 672v29h247v-29l-97 -31v-396q0 -55 -18 -103t-52.5 -83.5t-85.5 -56t-117 -20.5q-137 0 -210 59.5t-73 185.5v424l-107 21v29h340v-29l-117 -21v-405q0 -57 14 -96.5t40 -64t63.5 -36t84.5 -11.5q44 0 78 16t57.5 43.5t35.5 65t12 81.5v397zM557 909q0 -21 -8.5 -41
t-24 -35.5t-37 -25t-47.5 -9.5q-52 0 -82 32t-30 79q0 21 8.5 40.5t24 35t37 25t47.5 9.5q52 0 82 -32t30 -78zM509 909q0 43 -20.5 64t-47.5 21q-26 0 -46 -21.5t-20 -65.5q0 -42 21 -63.5t47 -21.5t46 21.5t20 65.5z" />
    <glyph glyph-name="uring" unicode="&#x16f;" horiz-adv-x="641" 
d="M425 716q0 -21 -9 -41t-24.5 -36t-37.5 -25.5t-49 -9.5q-53 0 -83.5 32.5t-30.5 79.5q0 21 9 41.5t24.5 36.5t37.5 25.5t49 9.5q53 0 83.5 -32.5t30.5 -80.5zM375 716q0 45 -20.5 66t-48.5 21q-26 0 -46.5 -21.5t-20.5 -66.5q0 -43 21.5 -65t47.5 -22q27 0 47 22t20 66z
M606 45v-22l-165 -40l-12 8l8 83l-11 2q-50 -47 -91.5 -70.5t-90.5 -23.5q-36 0 -62.5 12.5t-44.5 34t-27 50.5t-9 63v287l-77 36v16l166 41l12 -10v-333q0 -63 24 -93t75 -30q33 0 63.5 12.5t62.5 34.5v326l-78 36v16l167 41l12 -10v-445z" />
    <glyph glyph-name="uring.sc" horiz-adv-x="696" 
d="M482 757q0 -21 -9 -41t-24.5 -36t-37.5 -25.5t-49 -9.5q-53 0 -83.5 32.5t-30.5 79.5q0 21 9 41.5t24.5 36.5t37.5 25.5t49 9.5q53 0 83.5 -32.5t30.5 -80.5zM432 757q0 45 -20.5 66t-48.5 21q-26 0 -46.5 -21.5t-20.5 -66.5q0 -43 21.5 -65t47.5 -22q27 0 47 22t20 66z
M455 526v27h203v-27l-78 -27v-307q0 -46 -15 -84.5t-43.5 -66t-70 -43t-95.5 -15.5q-114 0 -176 50t-62 154v321l-80 18v27h273v-27l-84 -18v-312q0 -44 11.5 -74t32.5 -49.5t49.5 -28t63.5 -8.5t62 12t45.5 33t28 49.5t9.5 62.5v306z" />
    <glyph glyph-name="Wacute" unicode="&#x1e82;" horiz-adv-x="1120" 
d="M687 1003q18 -12 21 -32t-11 -43q-8 -12 -22 -28t-32.5 -34.5t-39.5 -38.5t-41 -39l-20 15q9 27 19 53.5t19 50t18 43t17 31.5q14 21 34.5 27.5t37.5 -5.5zM813 151h3l156 489l-87 32v29h231v-29l-91 -33l-220 -646h-48l-185 510h-3l-200 -510h-47l-216 653l-96 26v29
h322v-29l-104 -20l151 -501h2l164 428l-24 67l-88 26v29h305v-29l-99 -21z" />
    <glyph glyph-name="wacute" unicode="&#x1e83;" horiz-adv-x="893" 
d="M572 813q18 -13 21 -33.5t-11 -43.5q-8 -12 -22.5 -28t-33.5 -35t-40 -39l-42 -40l-19 15q9 27 19 54.5t19 51.5t18 43.5t17 31.5q14 22 35 28.5t39 -5.5zM624 120h5l122 325l-69 33v25h205v-26l-81 -35l-195 -454h-34l-120 323l-158 -323h-35l-185 465l-68 24v26h249
v-25l-72 -24l127 -343h5l117 253l-33 90l-61 24v25h239v-25l-73 -24z" />
    <glyph glyph-name="wacute.sc" horiz-adv-x="908" 
d="M411 506l-63 21v26h255v-27l-83 -20l133 -387h3l114 374l-77 33v27h203v-27l-70 -34l-171 -503h-58l-130 361h-3l-147 -361h-58l-166 514l-73 23v27h260v-26l-78 -18l118 -389h3l120 296zM583 854q18 -13 21 -33.5t-11 -43.5q-8 -12 -22.5 -28t-33.5 -35t-40 -39l-42 -40
l-19 15q9 27 19 54.5t19 51.5t18 43.5t17 31.5q14 22 35 28.5t39 -5.5z" />
    <glyph glyph-name="Wcircumflex" unicode="&#x174;" horiz-adv-x="1120" 
d="M813 151h3l156 489l-87 32v29h231v-29l-91 -33l-220 -646h-48l-185 510h-3l-200 -510h-47l-216 653l-96 26v29h322v-29l-104 -20l151 -501h2l164 428l-24 67l-88 26v29h305v-29l-99 -21zM460 782l-22 19l129 195h38l120 -195l-21 -19l-122 117z" />
    <glyph glyph-name="wcircumflex" unicode="&#x175;" horiz-adv-x="893" 
d="M341 587l-22 20l130 199h40l122 -199l-22 -20l-124 120zM624 120h5l122 325l-69 33v25h205v-26l-81 -35l-195 -454h-34l-120 323l-158 -323h-35l-185 465l-68 24v26h249v-25l-72 -24l127 -343h5l117 253l-33 90l-61 24v25h239v-25l-73 -24z" />
    <glyph glyph-name="wcircumflex.sc" horiz-adv-x="908" 
d="M352 628l-22 20l130 199h40l122 -199l-22 -20l-124 120zM411 506l-63 21v26h255v-27l-83 -20l133 -387h3l114 374l-77 33v27h203v-27l-70 -34l-171 -503h-58l-130 361h-3l-147 -361h-58l-166 514l-73 23v27h260v-26l-78 -18l118 -389h3l120 296z" />
    <glyph glyph-name="Wdieresis" unicode="&#x1e84;" horiz-adv-x="1120" 
d="M680 803q-27 0 -44 17.5t-17 45.5q0 26 19.5 47t48.5 21q27 0 44.5 -17.5t17.5 -45.5q0 -27 -19.5 -47.5t-49.5 -20.5zM471 803q-27 0 -44.5 17.5t-17.5 45.5q0 26 19.5 47t49.5 21q27 0 44.5 -17.5t17.5 -45.5q0 -27 -20 -47.5t-49 -20.5zM813 151h3l156 489l-87 32v29
h231v-29l-91 -33l-220 -646h-48l-185 510h-3l-200 -510h-47l-216 653l-96 26v29h322v-29l-104 -20l151 -501h2l164 428l-24 67l-88 26v29h305v-29l-99 -21z" />
    <glyph glyph-name="wdieresis" unicode="&#x1e85;" horiz-adv-x="893" 
d="M565 608q-27 0 -44.5 18.5t-17.5 46.5q0 27 19.5 48.5t49.5 21.5q28 0 45.5 -18.5t17.5 -46.5q0 -27 -19.5 -48.5t-50.5 -21.5zM352 608q-27 0 -44.5 18.5t-17.5 46.5q0 27 19.5 48.5t49.5 21.5q28 0 45.5 -18.5t17.5 -46.5q0 -27 -20 -48.5t-50 -21.5zM624 120h5
l122 325l-69 33v25h205v-26l-81 -35l-195 -454h-34l-120 323l-158 -323h-35l-185 465l-68 24v26h249v-25l-72 -24l127 -343h5l117 253l-33 90l-61 24v25h239v-25l-73 -24z" />
    <glyph glyph-name="wdieresis.sc" horiz-adv-x="908" 
d="M575 649q-27 0 -44.5 18.5t-17.5 46.5q0 27 19.5 48.5t49.5 21.5q28 0 45.5 -18.5t17.5 -46.5q0 -27 -19.5 -48.5t-50.5 -21.5zM362 649q-27 0 -44.5 18.5t-17.5 46.5q0 27 19.5 48.5t49.5 21.5q28 0 45.5 -18.5t17.5 -46.5q0 -27 -20 -48.5t-50 -21.5zM411 506l-63 21
v26h255v-27l-83 -20l133 -387h3l114 374l-77 33v27h203v-27l-70 -34l-171 -503h-58l-130 361h-3l-147 -361h-58l-166 514l-73 23v27h260v-26l-78 -18l118 -389h3l120 296z" />
    <glyph glyph-name="Wgrave" unicode="&#x1e80;" horiz-adv-x="1120" 
d="M605 788q-20 19 -41 39t-39.5 38.5t-33 34.5t-21.5 28q-14 23 -11 43t21 32t38.5 5t33.5 -27q8 -12 17 -31.5t18 -43t19 -50t19 -53.5zM813 151h3l156 489l-87 32v29h231v-29l-91 -33l-220 -646h-48l-185 510h-3l-200 -510h-47l-216 653l-96 26v29h322v-29l-104 -20
l151 -501h2l164 428l-24 67l-88 26v29h305v-29l-99 -21z" />
    <glyph glyph-name="wgrave" unicode="&#x1e81;" horiz-adv-x="893" 
d="M624 120h5l122 325l-69 33v25h205v-26l-81 -35l-195 -454h-34l-120 323l-158 -323h-35l-185 465l-68 24v26h249v-25l-72 -24l127 -343h5l117 253l-33 90l-61 24v25h239v-25l-73 -24zM488 594l-42 40t-39.5 39t-33 35t-22.5 28q-14 23 -11.5 43.5t21.5 33.5q18 12 39 5
t35 -28q7 -12 16 -31.5t18.5 -43.5t19.5 -51.5t19 -54.5z" />
    <glyph glyph-name="wgrave.sc" horiz-adv-x="908" 
d="M411 506l-63 21v26h255v-27l-83 -20l133 -387h3l114 374l-77 33v27h203v-27l-70 -34l-171 -503h-58l-130 361h-3l-147 -361h-58l-166 514l-73 23v27h260v-26l-78 -18l118 -389h3l120 296zM499 635l-42 40t-39.5 39t-33 35t-22.5 28q-14 23 -11.5 43.5t21.5 33.5
q18 12 39 5t35 -28q7 -12 16 -31.5t18.5 -43.5t19.5 -51.5t19 -54.5z" />
    <glyph glyph-name="Yacute" unicode="&#xdd;" horiz-adv-x="742" 
d="M438 310v-259l124 -22v-29h-363v29l124 22v239l-222 355l-97 27v29h321v-29l-97 -21l185 -307l178 300l-93 28v29h244v-29l-86 -31zM505 1003q18 -12 21 -32t-11 -43q-8 -12 -22 -28t-32.5 -34.5t-39.5 -38.5t-41 -39l-20 15q9 27 19 53.5t19 50t18 43t17 31.5
q14 21 34.5 27.5t37.5 -5.5z" />
    <glyph glyph-name="yacute" unicode="&#xfd;" horiz-adv-x="567" 
d="M279 -81q-17 -43 -34.5 -72.5t-37 -47.5t-41 -26t-46.5 -8q-42 0 -61 20.5t-19 44.5t17.5 40.5t42.5 16.5q27 0 44.5 -14.5t35.5 -38.5q32 30 58 86l30 68l-197 465l-68 24v26h252v-25l-68 -25l130 -338h5l116 330l-79 33v25h209v-26l-75 -35zM411 813q18 -13 21 -33.5
t-11 -43.5q-8 -12 -22.5 -28t-33.5 -35t-40 -39l-42 -40l-19 15q9 27 19 54.5t19 51.5t18 43.5t17 31.5q14 22 35 28.5t39 -5.5z" />
    <glyph glyph-name="yacute.sc" horiz-adv-x="613" 
d="M436 854q18 -13 21 -33.5t-11 -43.5q-8 -12 -22.5 -28t-33.5 -35t-40 -39l-42 -40l-19 15q9 27 19 54.5t19 51.5t18 43.5t17 31.5q14 22 35 28.5t39 -5.5zM365 239v-194l93 -20v-25h-293v25l92 20v180l-170 276l-74 25v27h270v-25l-80 -21l138 -228l127 220l-74 29v25
h210v-27l-73 -29z" />
    <glyph glyph-name="Ycircumflex" unicode="&#x176;" horiz-adv-x="742" 
d="M438 310v-259l124 -22v-29h-363v29l124 22v239l-222 355l-97 27v29h321v-29l-97 -21l185 -307l178 300l-93 28v29h244v-29l-86 -31zM277 782l-22 19l129 195h38l120 -195l-21 -19l-122 117z" />
    <glyph glyph-name="ycircumflex" unicode="&#x177;" horiz-adv-x="567" 
d="M279 -81q-17 -43 -34.5 -72.5t-37 -47.5t-41 -26t-46.5 -8q-42 0 -61 20.5t-19 44.5t17.5 40.5t42.5 16.5q27 0 44.5 -14.5t35.5 -38.5q32 30 58 86l30 68l-197 465l-68 24v26h252v-25l-68 -25l130 -338h5l116 330l-79 33v25h209v-26l-75 -35zM180 587l-22 20l130 199h40
l122 -199l-22 -20l-124 120z" />
    <glyph glyph-name="ycircumflex.sc" horiz-adv-x="613" 
d="M205 628l-22 20l130 199h40l122 -199l-22 -20l-124 120zM365 239v-194l93 -20v-25h-293v25l92 20v180l-170 276l-74 25v27h270v-25l-80 -21l138 -228l127 220l-74 29v25h210v-27l-73 -29z" />
    <glyph glyph-name="Ydieresis" unicode="&#x178;" horiz-adv-x="742" 
d="M438 310v-259l124 -22v-29h-363v29l124 22v239l-222 355l-97 27v29h321v-29l-97 -21l185 -307l178 300l-93 28v29h244v-29l-86 -31zM498 803q-27 0 -44 17.5t-17 45.5q0 26 19.5 47t48.5 21q27 0 44.5 -17.5t17.5 -45.5q0 -27 -19.5 -47.5t-49.5 -20.5zM289 803
q-27 0 -44.5 17.5t-17.5 45.5q0 26 19.5 47t49.5 21q27 0 44.5 -17.5t17.5 -45.5q0 -27 -20 -47.5t-49 -20.5z" />
    <glyph glyph-name="ydieresis" unicode="&#xff;" horiz-adv-x="567" 
d="M279 -81q-17 -43 -34.5 -72.5t-37 -47.5t-41 -26t-46.5 -8q-42 0 -61 20.5t-19 44.5t17.5 40.5t42.5 16.5q27 0 44.5 -14.5t35.5 -38.5q32 30 58 86l30 68l-197 465l-68 24v26h252v-25l-68 -25l130 -338h5l116 330l-79 33v25h209v-26l-75 -35zM404 608q-27 0 -44.5 18.5
t-17.5 46.5q0 27 19.5 48.5t49.5 21.5q28 0 45.5 -18.5t17.5 -46.5q0 -27 -19.5 -48.5t-50.5 -21.5zM191 608q-27 0 -44.5 18.5t-17.5 46.5q0 27 19.5 48.5t49.5 21.5q28 0 45.5 -18.5t17.5 -46.5q0 -27 -20 -48.5t-50 -21.5z" />
    <glyph glyph-name="ydieresis.sc" horiz-adv-x="613" 
d="M429 649q-27 0 -44.5 18.5t-17.5 46.5q0 27 19.5 48.5t49.5 21.5q28 0 45.5 -18.5t17.5 -46.5q0 -27 -19.5 -48.5t-50.5 -21.5zM216 649q-27 0 -44.5 18.5t-17.5 46.5q0 27 19.5 48.5t49.5 21.5q28 0 45.5 -18.5t17.5 -46.5q0 -27 -20 -48.5t-50 -21.5zM365 239v-194
l93 -20v-25h-293v25l92 20v180l-170 276l-74 25v27h270v-25l-80 -21l138 -228l127 220l-74 29v25h210v-27l-73 -29z" />
    <glyph glyph-name="Ygrave" unicode="&#x1ef2;" horiz-adv-x="742" 
d="M438 310v-259l124 -22v-29h-363v29l124 22v239l-222 355l-97 27v29h321v-29l-97 -21l185 -307l178 300l-93 28v29h244v-29l-86 -31zM422 788q-20 19 -41 39t-39.5 38.5t-33 34.5t-21.5 28q-14 23 -11 43t21 32t38.5 5t33.5 -27q8 -12 17 -31.5t18 -43t19 -50t19 -53.5z
" />
    <glyph glyph-name="ygrave" unicode="&#x1ef3;" horiz-adv-x="567" 
d="M279 -81q-17 -43 -34.5 -72.5t-37 -47.5t-41 -26t-46.5 -8q-42 0 -61 20.5t-19 44.5t17.5 40.5t42.5 16.5q27 0 44.5 -14.5t35.5 -38.5q32 30 58 86l30 68l-197 465l-68 24v26h252v-25l-68 -25l130 -338h5l116 330l-79 33v25h209v-26l-75 -35zM327 594l-42 40t-39.5 39
t-33 35t-22.5 28q-14 23 -11.5 43.5t21.5 33.5q18 12 39 5t35 -28q7 -12 16 -31.5t18.5 -43.5t19.5 -51.5t19 -54.5z" />
    <glyph glyph-name="ygrave.sc" horiz-adv-x="613" 
d="M365 239v-194l93 -20v-25h-293v25l92 20v180l-170 276l-74 25v27h270v-25l-80 -21l138 -228l127 220l-74 29v25h210v-27l-73 -29zM352 635l-42 40t-39.5 39t-33 35t-22.5 28q-14 23 -11.5 43.5t21.5 33.5q18 12 39 5t35 -28q7 -12 16 -31.5t18.5 -43.5t19.5 -51.5
t19 -54.5z" />
    <glyph glyph-name="Zacute" unicode="&#x179;" horiz-adv-x="722" 
d="M639 0h-585l-4 18l458 638l-203 -1q-24 0 -40.5 -4t-30.5 -12t-26 -21.5t-27 -31.5l-78 -92l-17 7l25 200h540l4 -19l-457 -636h251q22 0 38 3.5t28.5 11t23 19t22.5 28.5l88 122l18 -4zM493 1003q18 -12 21 -32t-11 -43q-8 -12 -22 -28t-32.5 -34.5t-39.5 -38.5t-41 -39
l-20 15q9 27 19 53.5t19 50t18 43t17 31.5q14 21 34.5 27.5t37.5 -5.5z" />
    <glyph glyph-name="zacute" unicode="&#x17a;" horiz-adv-x="560" 
d="M402 813q18 -13 21 -33.5t-11 -43.5q-8 -12 -22.5 -28t-33.5 -35t-40 -39l-42 -40l-19 15q9 27 19 54.5t19 51.5t18 43.5t17 31.5q14 22 35 28.5t39 -5.5zM178 40h198l111 123l22 -7l-18 -156h-444l-4 16l333 446h-183l-102 -122l-21 6l14 157h424l4 -16z" />
    <glyph glyph-name="zacute.sc" horiz-adv-x="599" 
d="M420 854q18 -13 21 -33.5t-11 -43.5q-8 -12 -22.5 -28t-33.5 -35t-40 -39l-42 -40l-19 15q9 27 19 54.5t19 51.5t18 43.5t17 31.5q14 22 35 28.5t39 -5.5zM527 0h-479l-4 35l372 475h-152q-37 0 -62 -14t-48 -46l-54 -77l-28 6l18 174h450l4 -36l-372 -476l186 1
q38 0 58.5 12t39.5 43l61 102l27 -4z" />
    <glyph glyph-name="Zcaron" unicode="&#x17d;" horiz-adv-x="722" 
d="M508 1013l21 -19l-128 -195h-39l-120 195l22 19l121 -117zM639 0h-585l-4 18l458 638l-203 -1q-24 0 -40.5 -4t-30.5 -12t-26 -21.5t-27 -31.5l-78 -92l-17 7l25 200h540l4 -19l-457 -636h251q22 0 38 3.5t28.5 11t23 19t22.5 28.5l88 122l18 -4z" />
    <glyph glyph-name="zcaron" unicode="&#x17e;" horiz-adv-x="560" 
d="M417 823l22 -20l-131 -199h-39l-122 199l22 20l123 -120zM178 40h198l111 123l22 -7l-18 -156h-444l-4 16l333 446h-183l-102 -122l-21 6l14 157h424l4 -16z" />
    <glyph glyph-name="zcaron.sc" horiz-adv-x="599" 
d="M434 864l22 -20l-131 -199h-39l-122 199l22 20l123 -120zM527 0h-479l-4 35l372 475h-152q-37 0 -62 -14t-48 -46l-54 -77l-28 6l18 174h450l4 -36l-372 -476l186 1q38 0 58.5 12t39.5 43l61 102l27 -4z" />
    <glyph glyph-name="Zdotaccent" unicode="&#x17b;" horiz-adv-x="722" 
d="M452 872q0 -28 -20 -49.5t-51 -21.5q-28 0 -46 18.5t-18 46.5t20 49.5t51 21.5q28 0 46 -18.5t18 -46.5zM639 0h-585l-4 18l458 638l-203 -1q-24 0 -40.5 -4t-30.5 -12t-26 -21.5t-27 -31.5l-78 -92l-17 7l25 200h540l4 -19l-457 -636h251q22 0 38 3.5t28.5 11t23 19
t22.5 28.5l88 122l18 -4z" />
    <glyph glyph-name="zdotaccent" unicode="&#x17c;" horiz-adv-x="560" 
d="M178 40h198l111 123l22 -7l-18 -156h-444l-4 16l333 446h-183l-102 -122l-21 6l14 157h424l4 -16zM360 679q0 -29 -20 -51t-52 -22q-29 0 -47 19t-18 48t20.5 50.5t51.5 21.5q29 0 47 -18.5t18 -47.5z" />
    <glyph glyph-name="zdotaccent.sc" horiz-adv-x="599" 
d="M527 0h-479l-4 35l372 475h-152q-37 0 -62 -14t-48 -46l-54 -77l-28 6l18 174h450l4 -36l-372 -476l186 1q38 0 58.5 12t39.5 43l61 102l27 -4zM378 720q0 -29 -20 -51t-52 -22q-29 0 -47 19t-18 48t20.5 50.5t51.5 21.5q29 0 47 -18.5t18 -47.5z" />
    <glyph glyph-name="schwa" unicode="&#x259;" horiz-adv-x="554" 
d="M399 226q2 103 -42 161.5t-141 58.5q-40 0 -74.5 -11.5t-82.5 -37.5l-9 24q52 48 103 73.5t106 25.5t100 -19t77.5 -53t50.5 -82.5t18 -106.5q0 -59 -19.5 -110t-53 -88t-79 -58t-97.5 -21q-54 0 -93.5 20.5t-65.5 54t-38.5 77.5t-12.5 92h353zM156 184q6 -166 110 -166
q27 0 50 12.5t40.5 36t28 55.5t13.5 71z" />
    <glyph glyph-name="germandbls" unicode="&#xdf;" horiz-adv-x="699" 
d="M654 152q0 -36 -12.5 -67t-35 -53.5t-54.5 -35t-72 -12.5q-57 0 -93 22.5t-36 60.5q0 24 15 40t38 16q34 0 48 -25.5t9 -67.5q8 -6 16 -9t23 -3q29 0 50 24t21 67q0 29 -12 57t-40.5 56.5t-76 59t-119.5 65.5v15q45 49 73 85t44 65.5t21.5 56.5t5.5 59q0 31 -9 57.5
t-24.5 45.5t-37.5 30t-48 11q-25 0 -45.5 -8.5t-35 -28t-22.5 -51.5t-8 -78v-561l56 -20v-25h-235v25l78 21v398h-101v24l101 32v32q0 81 24.5 135.5t71.5 95.5q32 28 73.5 47.5t89.5 19.5q37 0 69 -13t55 -36t36 -54.5t13 -68.5q0 -66 -37 -123.5t-111 -119.5v-11
q59 -29 103 -57.5t73 -58.5t43.5 -63.5t14.5 -72.5z" />
    <glyph glyph-name="zero" unicode="0" horiz-adv-x="640" 
d="M584 337q0 -75 -18.5 -139.5t-53 -112.5t-84.5 -75t-113 -27q-66 0 -115 27t-81.5 75t-48.5 112.5t-16 139.5t18.5 139.5t53.5 112.5t84.5 75t112.5 27q66 0 115 -27t81.5 -75t48.5 -112.5t16 -139.5zM467 337q0 84 -13 144.5t-35 99t-50 57t-59 18.5q-27 0 -52 -14.5
t-44.5 -51t-31 -98t-11.5 -155.5t13 -155.5t35 -98t50.5 -51t59.5 -14.5q27 0 51.5 18.5t44 57.5t31 99t11.5 144z" />
    <glyph glyph-name="one" unicode="1" horiz-adv-x="445" 
d="M402 28v-28h-344v28l121 36v520l-122 39v24l213 36l13 -9v-610z" />
    <glyph glyph-name="two" unicode="2" horiz-adv-x="581" 
d="M374 472q0 63 -35 99.5t-92 36.5q-23 0 -42 -5t-36.5 -15.5t-35.5 -27t-40 -38.5l-20 16q39 72 94.5 112.5t121.5 40.5q93 0 143.5 -52.5t50.5 -140.5q0 -40 -13 -77.5t-48 -82.5t-96 -102.5t-158 -138.5l4 -10h234l94 108l18 -8l-43 -187h-439l-7 23q74 63 131.5 118
t105.5 109q29 33 49.5 60t33.5 52.5t19 52t6 57.5z" />
    <glyph glyph-name="three" unicode="3" horiz-adv-x="554" 
d="M488 195q0 -44 -19 -82.5t-51.5 -67.5t-76 -45.5t-93.5 -16.5q-45 0 -81.5 8t-62.5 22.5t-40 34t-14 42.5q0 29 18 47t45 18q37 0 57.5 -28.5t10.5 -79.5q34 -27 80 -27q27 0 50.5 9.5t40.5 27.5t27 42.5t10 54.5q0 69 -54.5 109.5t-175.5 50.5v27q61 22 100.5 44
t63 43.5t32.5 43.5t9 46q0 42 -30 69.5t-85 27.5q-41 0 -78 -18t-80 -52l-18 19q20 25 44 48.5t51.5 40.5t58.5 27.5t64 10.5q43 0 75 -12t53 -32t31 -45t10 -51q0 -62 -40.5 -103.5t-107.5 -72.5v-11q84 -17 130 -58.5t46 -110.5z" />
    <glyph glyph-name="four" unicode="4" horiz-adv-x="627" 
d="M443 202v-139l115 -35v-28h-329v28l116 35v139h-293l-9 34l327 454l73 -7v-418h132v-63h-132zM346 564h-12l-214 -299h226v299z" />
    <glyph glyph-name="five" unicode="5" horiz-adv-x="564" 
d="M499 216q0 -49 -19.5 -91.5t-53 -74t-78 -49.5t-95.5 -18q-43 0 -79 8.5t-61.5 22.5t-40 33.5t-14.5 42.5q0 29 17.5 47t44.5 18q37 0 57.5 -28.5t10.5 -78.5q17 -14 36 -21t42 -7q61 0 99 43t38 118q0 74 -46 115t-124 41q-34 0 -60.5 -5t-58.5 -16l-17 11l38 346h282
l46 53l20 -4l-23 -142h-288l-18 -159l7 -6q20 5 42.5 8t52.5 3q117 0 180 -56t63 -154z" />
    <glyph glyph-name="six" unicode="6" horiz-adv-x="593" 
d="M535 237q0 -54 -18 -100.5t-50 -80.5t-76.5 -53.5t-96.5 -19.5q-49 0 -92 16t-74.5 48t-49.5 80.5t-18 113.5q0 85 32.5 165.5t101.5 146.5q60 57 128 92.5t156 57.5l7 -27q-51 -23 -97 -51t-85 -63q-41 -38 -67.5 -79t-46.5 -89l9 -4q31 23 68.5 36.5t72.5 13.5
q48 0 85 -17t61.5 -45.5t37 -65t12.5 -75.5zM433 190q0 43 -9 78t-27.5 60.5t-47 39.5t-67.5 14q-28 0 -51.5 -7.5t-46.5 -19.5q-7 -22 -12 -51.5t-5 -63.5q0 -47 9.5 -87.5t27.5 -70.5t44 -47t59 -17q28 0 51.5 13t40 36t25.5 54.5t9 68.5z" />
    <glyph glyph-name="seven" unicode="7" horiz-adv-x="540" 
d="M144 580l-60 -81l-22 4l31 204l21 4l25 -38h371l11 -14l-329 -676h-98l159 269l180 328h-289z" />
    <glyph glyph-name="eight" unicode="8" horiz-adv-x="590" 
d="M341 376q37 37 57.5 73t20.5 86q0 54 -31 87.5t-91 33.5q-26 0 -48 -9.5t-37.5 -25t-24 -37t-8.5 -45.5q0 -28 8 -49t26.5 -39.5t49.5 -36t78 -38.5zM253 319q-42 -33 -65.5 -71t-23.5 -89q0 -65 39 -103.5t106 -38.5q26 0 48.5 9.5t39.5 26t26.5 39t9.5 47.5
q0 28 -8.5 50.5t-29.5 43.5t-55.5 42t-86.5 44zM372 363q44 -21 74 -43t48 -45.5t25.5 -48t7.5 -51.5q0 -43 -18 -78t-49 -60.5t-74 -39.5t-92 -14q-54 0 -96 13.5t-71 37t-44 54t-15 64.5q0 63 43 106t117 72q-62 28 -101.5 68t-39.5 105q0 40 17 74.5t47 59.5t69.5 39.5
t84.5 14.5q48 0 86.5 -12.5t64.5 -34t40 -51t14 -62.5q0 -57 -36 -99t-102 -69z" />
    <glyph glyph-name="nine" unicode="9" horiz-adv-x="593" 
d="M533 433q0 -97 -32.5 -171t-98.5 -137q-61 -57 -131 -95t-158 -59l-7 27q51 23 98.5 51t85.5 63q41 38 66 74t45 85l-9 4q-30 -23 -68 -36.5t-73 -13.5q-47 0 -83 17t-60.5 46t-37 66.5t-12.5 78.5q0 56 17 103t48 81.5t75.5 54t98.5 19.5q50 0 93 -17t75 -50t50 -81
t18 -110zM426 434q0 50 -9.5 91t-27.5 70.5t-44.5 45.5t-60.5 16q-57 0 -90.5 -47.5t-33.5 -130.5q0 -90 36 -143.5t112 -53.5q29 0 53.5 8t47.5 20q7 21 12 54.5t5 69.5z" />
    <glyph glyph-name="period" unicode="." horiz-adv-x="269" 
d="M206 53q0 -29 -21 -50t-50 -21q-30 0 -51 21t-21 50q0 30 21 51t51 21q29 0 50 -21t21 -51z" />
    <glyph glyph-name="comma" unicode="," horiz-adv-x="269" 
d="M213 33q0 -67 -45 -124t-117 -101l-18 21q51 39 80.5 81.5t35.5 83.5l-7 4l-3 -1q-10 -5 -26 -5q-23 0 -37 17t-14 43q0 29 20 51t50 22q38 0 59.5 -25t21.5 -67z" />
    <glyph glyph-name="colon" unicode=":" horiz-adv-x="280" 
d="M212 382q0 -29 -21 -50t-50 -21q-30 0 -51 21t-21 50q0 30 21 51t51 21q29 0 50 -21t21 -51zM212 53q0 -29 -21 -50t-50 -21q-30 0 -51 21t-21 50t21 50t51 21q29 0 50 -21t21 -50z" />
    <glyph glyph-name="semicolon" unicode=";" horiz-adv-x="280" 
d="M215 382q0 -29 -21 -50t-50 -21t-50 21t-21 50q0 30 21 51t50 21t50 -21t21 -51zM214 33q0 -67 -45 -124t-117 -101l-18 21q51 39 80.5 81.5t35.5 83.5l-7 4l-3 -1q-10 -5 -26 -5q-23 0 -37.5 17t-14.5 43q0 29 20.5 51t50.5 22q38 0 59.5 -25t21.5 -67z" />
    <glyph glyph-name="ellipsis" unicode="&#x2026;" horiz-adv-x="771" 
d="M709 53q0 -29 -21 -50t-50 -21q-30 0 -51 21t-21 50t21 50t51 21q29 0 50 -21t21 -50zM457 53q0 -29 -21 -50t-50 -21q-30 0 -51 21t-21 50t21 50t51 21q29 0 50 -21t21 -50zM206 53q0 -29 -21 -50t-50 -21q-30 0 -51 21t-21 50t21 50t51 21q29 0 50 -21t21 -50z" />
    <glyph glyph-name="periodcentered" unicode="&#xb7;" horiz-adv-x="269" 
d="M206 356q0 -29 -21 -50t-50 -21q-30 0 -51 21t-21 50t21 50.5t51 21.5q29 0 50 -21.5t21 -50.5z" />
    <glyph glyph-name="bullet" unicode="&#x2022;" horiz-adv-x="548" 
d="M427 351q0 -32 -12 -60t-33 -49t-49 -33t-60 -12t-60 12t-48.5 33t-32.5 49t-12 60q0 31 12 59t32.5 49t48.5 33t60 12t60 -12t49 -33t33 -49t12 -59z" />
    <glyph glyph-name="ampersand" unicode="&#x26;" horiz-adv-x="786" 
d="M765 359l-73 -27l-154 -189q20 -27 36.5 -44t32.5 -27t33.5 -14t41.5 -4q20 0 33.5 0.5t27.5 1.5l5 -19q-32 -23 -67.5 -38.5t-77.5 -15.5q-36 0 -67.5 20t-70.5 73q-54 -50 -101 -71.5t-104 -21.5q-47 0 -87 14t-68.5 39t-44.5 59t-16 74q0 69 40.5 117.5t103.5 80.5
l41 21q-26 34 -44 71t-18 75q0 36 15 65.5t39.5 49.5t57.5 31t69 11q39 0 69.5 -11t51.5 -29.5t32 -42.5t11 -49q0 -43 -28.5 -79.5t-91.5 -76.5l-33 -21l157 -211l102 160l-59 31v21h206v-24zM423 561q0 43 -22 69t-60 26q-36 0 -60 -22t-24 -66q0 -26 11.5 -53t39.5 -65
l34 -44q42 43 61.5 77.5t19.5 77.5zM248 365l-23 -21q-36 -34 -56 -69.5t-20 -80.5q0 -31 12 -56.5t33 -43.5t49.5 -27.5t60.5 -9.5q39 0 70 11t68 36z" />
    <glyph glyph-name="exclam" unicode="!" horiz-adv-x="316" 
d="M225 643q0 -22 -4.5 -65.5t-12 -101t-17 -124.5t-18.5 -136h-27q-9 69 -18.5 136t-17 124.5t-12 101t-4.5 65.5q0 35 18 54.5t47 19.5q30 0 48 -19.5t18 -54.5zM229 53q0 -29 -21 -49.5t-50 -20.5t-49.5 20.5t-20.5 49.5t20.5 48.5t49.5 19.5t50 -19.5t21 -48.5z" />
    <glyph glyph-name="exclamdown" unicode="&#xa1;" horiz-adv-x="316" 
d="M229 376q0 -29 -21 -49t-50 -20t-49.5 20t-20.5 49t20.5 49t49.5 20t50 -20t21 -49zM171 212q9 -69 18.5 -136t17 -124t12 -101t4.5 -66q0 -35 -18 -54.5t-48 -19.5t-47.5 19.5t-17.5 54.5q0 22 4.5 66t12 101t17 124t18.5 136h27z" />
    <glyph glyph-name="question" unicode="?" horiz-adv-x="470" 
d="M432 546q0 -35 -11 -62t-29 -47.5t-40.5 -36t-46.5 -27.5q-36 -21 -56 -36t-28 -31.5t-5.5 -37t10.5 -51.5h-31q-26 37 -35 62.5t-9 43.5q0 21 7.5 37.5t20 30.5t29 25.5t34.5 22.5q19 12 36 24t30.5 28t21.5 35.5t8 46.5q0 52 -29 80t-80 28q-20 0 -35.5 -5t-27.5 -17
q8 -14 11.5 -25.5t3.5 -25.5q0 -29 -17 -48.5t-46 -19.5q-27 0 -46.5 19.5t-19.5 48.5q0 24 13 44t36 34.5t54.5 22.5t69.5 8q45 0 82.5 -12.5t65.5 -35t43.5 -54t15.5 -69.5zM283 53q0 -29 -20.5 -49.5t-49.5 -20.5t-49.5 20.5t-20.5 49.5t20.5 48.5t49.5 19.5t49.5 -19.5
t20.5 -48.5z" />
    <glyph glyph-name="questiondown" unicode="&#xbf;" horiz-adv-x="465" 
d="M37 -118q0 35 11 62t29 48t40.5 36t46.5 27q36 21 56 36.5t28 31.5t5.5 36.5t-10.5 51.5h31q26 -37 35 -62t9 -44q0 -41 -27 -67.5t-64 -48.5q-19 -11 -36 -23.5t-30.5 -28t-21.5 -35t-8 -46.5q0 -52 29.5 -80.5t79.5 -28.5q40 0 63 23q-15 25 -15 50q0 30 17 49t46 19
q27 0 47 -19.5t20 -48.5q0 -24 -13 -44t-36 -34.5t-55 -22.5t-70 -8q-45 0 -82.5 12.5t-65.5 35t-43.5 54t-15.5 69.5zM186 376q0 29 20.5 49t49.5 20t50 -20t21 -49t-21 -49t-50 -20t-49.5 20t-20.5 49z" />
    <glyph glyph-name="quotedblleft" unicode="&#x201c;" horiz-adv-x="499" 
d="M436 494q0 -29 -20 -51t-50 -22q-38 0 -59.5 25t-21.5 67q0 68 45 124.5t117 100.5l18 -20q-51 -40 -80.5 -82.5t-35.5 -83.5l7 -4l3 1q10 5 26 5q23 0 37 -17t14 -43zM207 494q0 -29 -20.5 -51t-50.5 -22q-38 0 -59.5 25t-21.5 67q0 68 45 124.5t117 100.5l18 -20
q-51 -40 -80 -82.5t-36 -83.5l7 -4l3 1q11 5 27 5q23 0 37 -17t14 -43z" />
    <glyph glyph-name="quotedblright" unicode="&#x201d;" horiz-adv-x="499" 
d="M444 638q0 -67 -45 -124t-117 -100l-18 20q51 40 80 82.5t36 82.5l-7 4l-3 -1q-11 -5 -27 -5q-23 0 -37 17.5t-14 43.5q0 29 20.5 50.5t50.5 21.5q38 0 59.5 -25t21.5 -67zM214 638q0 -67 -45 -124t-117 -100l-18 20q51 40 80.5 82.5t35.5 82.5l-7 4l-3 -1q-10 -5 -26 -5
q-23 0 -37.5 17.5t-14.5 43.5q0 29 20.5 50.5t50.5 21.5q38 0 59.5 -25t21.5 -67z" />
    <glyph glyph-name="quoteleft" unicode="&#x2018;" horiz-adv-x="269" 
d="M207 494q0 -29 -20.5 -51t-50.5 -22q-38 0 -59.5 25t-21.5 67q0 68 45 124.5t117 100.5l18 -20q-51 -40 -80 -82.5t-36 -83.5l7 -4l3 1q11 5 27 5q23 0 37 -17t14 -43z" />
    <glyph glyph-name="quoteright" unicode="&#x2019;" horiz-adv-x="269" 
d="M214 638q0 -67 -45 -124t-117 -100l-18 20q51 40 80.5 82.5t35.5 82.5l-7 4l-3 -1q-10 -5 -26 -5q-23 0 -37.5 17.5t-14.5 43.5q0 29 20.5 50.5t50.5 21.5q38 0 59.5 -25t21.5 -67z" />
    <glyph glyph-name="quotedblbase" unicode="&#x201e;" horiz-adv-x="479" 
d="M443 33q0 -67 -45 -124t-117 -101l-18 21q51 39 80.5 81.5t35.5 83.5l-7 4l-3 -1q-10 -5 -26 -5q-23 0 -37.5 17t-14.5 43q0 29 20.5 51t50.5 22q38 0 59.5 -25t21.5 -67zM213 33q0 -67 -45 -124t-117 -101l-18 21q51 39 80.5 81.5t35.5 83.5l-7 4l-3 -1q-10 -5 -26 -5
q-23 0 -37 17t-14 43q0 29 20 51t50 22q38 0 59.5 -25t21.5 -67z" />
    <glyph glyph-name="quotesinglbase" unicode="&#x201a;" horiz-adv-x="269" 
d="M213 33q0 -67 -45 -124t-117 -101l-18 21q51 39 80.5 81.5t35.5 83.5l-7 4l-3 -1q-10 -5 -26 -5q-23 0 -37 17t-14 43q0 29 20 51t50 22q38 0 59.5 -25t21.5 -67z" />
    <glyph glyph-name="guillemotleft" unicode="&#xab;" horiz-adv-x="575" 
d="M516 50l-27 -18l-216 209v20l216 209l27 -20l-129 -199zM289 50l-27 -18l-217 209v20l217 209l27 -20l-130 -199z" />
    <glyph glyph-name="guillemotright" unicode="&#xbb;" horiz-adv-x="575" 
d="M314 32l-28 19l130 200l-130 199l28 20l216 -209v-20zM86 32l-27 19l130 200l-130 199l27 20l216 -209v-20z" />
    <glyph glyph-name="guilsinglleft" unicode="&#x2039;" horiz-adv-x="347" 
d="M289 50l-27 -18l-217 209v20l217 209l27 -20l-130 -199z" />
    <glyph glyph-name="guilsinglright" unicode="&#x203a;" horiz-adv-x="347" 
d="M302 241l-216 -209l-27 19l130 200l-130 199l27 20l216 -209v-20z" />
    <glyph glyph-name="hyphen" unicode="-" horiz-adv-x="416" 
d="M63 223v81h290v-81h-290z" />
    <glyph glyph-name="endash" unicode="&#x2013;" horiz-adv-x="612" 
d="M63 246v61h486v-61h-486z" />
    <glyph glyph-name="emdash" unicode="&#x2014;" horiz-adv-x="892" 
d="M63 246v61h766v-61h-766z" />
    <glyph glyph-name="underscore" unicode="_" horiz-adv-x="501" 
d="M499 0h-497v48h497v-48z" />
    <glyph glyph-name="slash" unicode="/" horiz-adv-x="485" 
d="M279 290l-222 -525l-57 18l233 521l221 526l57 -18z" />
    <glyph glyph-name="backslash" unicode="\" horiz-adv-x="485" 
d="M253 304l232 -521l-57 -18l-221 525l-233 522l57 18z" />
    <glyph glyph-name="bar" unicode="|" horiz-adv-x="338" 
d="M139 -270l5 528l-5 527h61l-6 -527l6 -528h-61z" />
    <glyph glyph-name="brokenbar" unicode="&#xa6;" horiz-adv-x="338" 
d="M139 334l5 225l-5 226h61l-6 -226l6 -225h-61zM139 -270l5 226l-5 226h61l-6 -226l6 -226h-61z" />
    <glyph glyph-name="parenleft" unicode="(" horiz-adv-x="415" 
d="M166 316q0 -90 19 -166.5t54.5 -138t84.5 -108t109 -76.5l-13 -25q-69 28 -132 74.5t-111 111.5t-76 147t-28 181t28 181t76 147t111 111.5t132 74.5l13 -26q-60 -30 -109 -76.5t-84.5 -108t-54.5 -137.5t-19 -166z" />
    <glyph glyph-name="parenright" unicode=")" horiz-adv-x="415" 
d="M341 316q0 -99 -28 -181t-75.5 -147t-110.5 -111.5t-133 -74.5l-13 25q60 30 109.5 76.5t85 108t54.5 138t19 166.5t-19 166t-54.5 137.5t-85 108t-109.5 76.5l13 26q70 -28 133 -74.5t110.5 -111.5t75.5 -147t28 -181z" />
    <glyph glyph-name="bracketleft" unicode="[" horiz-adv-x="377" 
d="M200 790v-947h198v-40h-289v1027h289v-40h-198z" />
    <glyph glyph-name="bracketright" unicode="]" horiz-adv-x="377" 
d="M-21 790v40h289v-1027h-289v40h198v947h-198z" />
    <glyph glyph-name="braceleft" unicode="{" horiz-adv-x="445" 
d="M278 509q0 -49 -9.5 -81t-29 -52t-48 -31.5t-65.5 -19.5v-12q37 -8 65.5 -19.5t48 -31.5t29 -52t9.5 -81v-103q0 -50 8.5 -82t28 -53t52.5 -32.5t82 -19.5v-31q-73 3 -124 15t-83 39t-46.5 71t-14.5 110v106q0 39 -8 65.5t-25.5 44t-46 27t-69.5 14.5v39q41 5 69.5 14.5
t46 27t25.5 44t8 64.5v106q0 66 14.5 110t46.5 71t83 39t124 15v-31q-49 -8 -82 -20t-52.5 -32.5t-28 -53t-8.5 -82.5v-102v0z" />
    <glyph glyph-name="braceright" unicode="}" horiz-adv-x="445" 
d="M264 489q0 -38 8 -64.5t25.5 -44t46 -27t69.5 -14.5v-39q-41 -5 -69.5 -14.5t-46 -27t-25.5 -44t-8 -65.5v-106q0 -66 -14.5 -110t-47 -71t-83.5 -39t-123 -15v31q49 8 82 19.5t52.5 32.5t27.5 53t8 82v103q0 49 10 81t29 52t47.5 31.5t66.5 19.5v12q-38 8 -66.5 19.5
t-47.5 31.5t-29 52t-10 81v102q0 50 -8 82.5t-27.5 53t-52.5 32.5t-82 20v31q72 -3 123 -15t83.5 -39t47 -71t14.5 -110v-106v0z" />
    <glyph glyph-name="at" unicode="@" horiz-adv-x="1042" 
d="M912 361q0 70 -27.5 130t-76.5 104.5t-116 69.5t-146 25q-85 0 -159.5 -32t-130 -88.5t-87.5 -134t-32 -168.5q0 -90 29 -165.5t83 -131t131.5 -86.5t174.5 -31q80 0 144.5 17.5t128.5 52.5l17 -18q-61 -48 -140.5 -76t-176.5 -28q-98 0 -183 30t-147.5 87t-98 139.5
t-35.5 186.5q0 103 39.5 192t108.5 154.5t162.5 102.5t200.5 37q86 0 160 -27t129 -74t86 -111.5t31 -139.5q0 -76 -24 -137.5t-62.5 -105t-87 -67t-96.5 -23.5q-59 0 -92 24t-41 65l-9 3q-37 -41 -69.5 -62.5t-71.5 -21.5q-49 0 -80.5 33t-31.5 93q0 57 26 113t65.5 101
t87 73t91.5 28q31 0 48 -7t34 -18l47 50l19 -6l-69 -312q-12 -52 4 -85t56 -33q36 0 69.5 20t60 56t42 87.5t15.5 114.5zM633 403q-17 20 -36 30.5t-42 10.5q-30 0 -58 -21t-49 -54.5t-34 -75.5t-13 -85q0 -51 20 -72.5t49 -21.5q12 0 23 3.5t24 12t29.5 22t37.5 34.5z" />
    <glyph glyph-name="copyright" unicode="&#xa9;" horiz-adv-x="875" 
d="M823 351q0 -80 -30.5 -150.5t-83 -123t-123 -82.5t-150.5 -30t-150 30t-122 82.5t-82.5 123t-30.5 150.5q0 79 30.5 149t82.5 122.5t122 82.5t150 30t150.5 -30t123 -82.5t83 -122.5t30.5 -149zM789 351q0 73 -27.5 137t-75.5 112t-112.5 76t-137.5 28q-72 0 -136 -28
t-111.5 -76t-75.5 -112t-28 -137q0 -74 28 -138.5t75.5 -112.5t111.5 -76t136 -28q73 0 137.5 28t112.5 76t75.5 112.5t27.5 138.5zM328 357q0 -87 39 -130.5t99 -43.5q13 0 22.5 1t17.5 5l68 91l18 -5l-13 -101q-29 -14 -58.5 -21t-71.5 -7q-47 0 -86 14t-67 40t-43.5 63
t-15.5 83q0 43 16 81t44.5 66.5t67.5 45t86 16.5q23 0 47.5 -5t42.5 -13l15 24h21l8 -150l-23 -2q-27 61 -56 86.5t-71 25.5q-20 0 -39 -8.5t-34 -28t-24.5 -51t-9.5 -76.5z" />
    <glyph glyph-name="published" unicode="&#x2117;" horiz-adv-x="875" 
d="M823 351q0 -80 -30.5 -150.5t-83 -123t-123 -82.5t-150.5 -30t-150 30t-122 82.5t-82.5 123t-30.5 150.5q0 79 30.5 149t82.5 122.5t122 82.5t150 30t150.5 -30t123 -82.5t83 -122.5t30.5 -149zM789 351q0 73 -27.5 137t-75.5 112t-112.5 76t-137.5 28q-72 0 -136 -28
t-111.5 -76t-75.5 -112t-28 -137q0 -74 28 -138.5t75.5 -112.5t111.5 -76t136 -28q73 0 137.5 28t112.5 76t75.5 112.5t27.5 138.5zM618 433q0 -23 -9.5 -45t-27.5 -38.5t-44 -26.5t-59 -10q-14 0 -33 1.5t-33 3.5v-131l59 -14v-22h-194v22l58 14v326l-58 14v20h190
q37 0 65.5 -9t47.5 -24.5t28.5 -36.5t9.5 -44zM535 433q0 42 -22 63.5t-60 22.5h-9h-12.5t-12 -0.5t-7.5 -0.5v-176q1 0 7 -0.5t12.5 -0.5h13h9.5q39 1 60 24t21 68z" />
    <glyph glyph-name="registered.alt" horiz-adv-x="875" 
d="M823 351q0 -80 -30.5 -150.5t-83 -123t-123 -82.5t-150.5 -30t-150 30t-122 82.5t-82.5 123t-30.5 150.5q0 79 30.5 149t82.5 122.5t122 82.5t150 30t150.5 -30t123 -82.5t83 -122.5t30.5 -149zM789 351q0 73 -27.5 137t-75.5 112t-112.5 76t-137.5 28q-72 0 -136 -28
t-111.5 -76t-75.5 -112t-28 -137q0 -74 28 -138.5t75.5 -112.5t111.5 -76t136 -28q73 0 137.5 28t112.5 76t75.5 112.5t27.5 138.5zM602 458q0 -36 -28 -63t-86 -38v-7q35 -8 53 -26t29 -43q12 -28 22.5 -47t21.5 -31q10 -11 20 -15t24 -6v-21h-71q-18 0 -29.5 4t-20 12.5
t-15 21.5t-14.5 31l-28 62q-13 28 -28.5 35.5t-40.5 7.5h-23v-140l56 -13v-21h-189v21l56 13v327l-56 13v22h208q69 0 104 -28.5t35 -70.5zM519 447q0 41 -24 61t-60 21h-10.5h-15t-13.5 -0.5t-8 -0.5v-167l47 2q36 1 60 21.5t24 62.5z" />
    <glyph glyph-name="registered" unicode="&#xae;" horiz-adv-x="476" 
d="M330 589q0 -44 -63 -54v-9q20 -2 30.5 -9t15.5 -22q6 -14 10.5 -24t11.5 -16q8 -10 31 -11v-14h-48q-21 0 -28 8t-15 28l-14 33q-6 14 -13.5 18.5t-21.5 4.5h-13v-69l36 -9v-14h-119v14l37 9v167l-37 8v15h123q38 0 57.5 -15.5t19.5 -38.5zM282 584q0 21 -12.5 30.5
t-34.5 9.5h-23v-84h27q19 0 31 11.5t12 32.5zM238 324q-45 0 -83 16t-66 43.5t-44 65.5t-16 83t16 83t44 66t66 44t83 16t83 -16t66 -44t44 -66t16 -83t-16 -83t-44 -65.5t-66 -43.5t-83 -16zM238 345q40 0 74 14t59 39t38.5 59t13.5 75q0 40 -13.5 74.5t-38.5 60t-59 39.5
t-74 14t-74 -14t-58.5 -39.5t-38.5 -60t-14 -74.5q0 -41 14 -75t38.5 -59t58.5 -39t74 -14z" />
    <glyph glyph-name="servicemark" unicode="&#x2120;" horiz-adv-x="892" 
d="M315 485q0 -23 -10 -42t-26.5 -32.5t-38 -20.5t-45.5 -7q-26 0 -51 6t-44 15l-17 -25h-17l-4 124l16 2q33 -56 60.5 -76t57.5 -20q28 0 46 12t18 38q0 28 -23 41t-61 24q-21 6 -40 13t-33.5 18t-23 27.5t-8.5 40.5q0 21 9.5 38.5t24.5 31t34.5 21t39.5 7.5q45 0 80 -18
l18 25h16l7 -114l-16 -2q-37 50 -61.5 67t-44.5 17q-23 0 -37.5 -13t-14.5 -33q0 -28 24 -40.5t61 -23.5q21 -6 40 -14t33.5 -19t22.5 -27.5t8 -40.5zM794 425l49 -16v-17h-157v17l40 16v249h-10l-108 -282h-34l-109 282h-13v-246l38 -19v-17h-116v17l42 19v251l-42 16v18
h146l18 -56l68 -178h6l67 182l17 52h147v-18l-49 -14v-256z" />
    <glyph glyph-name="trademark" unicode="&#x2122;" horiz-adv-x="937" 
d="M839 425l50 -16v-17h-158v17l40 16v249h-10l-107 -282h-35l-109 282h-12v-246l38 -19v-17h-117v17l43 19v251l-43 16v18h146l18 -56l68 -178h7l66 182l17 52h148v-18l-50 -14v-256zM367 605l-36 47q-15 20 -24.5 27.5t-26.5 7.5h-30v-262l51 -16v-17h-170v17l52 16v262
h-34q-17 0 -26.5 -7.5t-24.5 -27.5l-36 -47l-13 2l14 106h303l15 -106z" />
    <glyph glyph-name="asterisk" unicode="*" horiz-adv-x="486" 
d="M78 652l147 -109l8 3l-23 181h66l-23 -181l8 -3l147 109l28 -56l-165 -71v-10l165 -71l-28 -56l-147 110l-8 -4l23 -181h-66l23 181l-8 4l-147 -110l-28 56l165 71v10l-165 71z" />
    <glyph glyph-name="dagger" unicode="&#x2020;" horiz-adv-x="539" 
d="M291 448l6 -541h-55l6 541l-201 -6v51l201 -6l-6 263h55l-6 -263l200 6v-51z" />
    <glyph glyph-name="daggerdbl" unicode="&#x2021;" horiz-adv-x="539" 
d="M291 166l6 -259h-55l6 259l-201 -6v50l201 -5v248l-201 -6v51l201 -6l-6 258h55l-6 -258l200 6v-51l-200 6v-248l200 5v-50z" />
    <glyph glyph-name="asciicircum" unicode="^" horiz-adv-x="346" 
d="M49 587l-22 19l131 199h38l123 -199l-22 -19l-124 112z" />
    <glyph glyph-name="asciitilde" unicode="~" horiz-adv-x="432" 
d="M144 420q21 0 44 -8.5t44 -18.5t40 -18.5t33 -8.5q7 0 13 3.5t11.5 11.5t12 20.5t14.5 31.5l31 -7q-11 -72 -33 -105t-63 -33q-21 0 -44 8.5t-44 18.5t-40 18.5t-33 8.5q-15 0 -25 -15t-26 -52l-31 7q12 72 33.5 105t62.5 33z" />
    <glyph glyph-name="dollar" unicode="$" horiz-adv-x="614" 
d="M536 192q0 -45 -17 -82t-47.5 -64t-74 -43t-96.5 -18l-9 -116l-44 4l9 111q-52 2 -94 12t-84 28l-11 189l22 2q32 -87 70.5 -133.5t101.5 -60.5l22 284q-51 18 -88 36.5t-61 40.5t-35.5 49t-11.5 62q0 40 16 75t45 61.5t70.5 43t92.5 18.5l8 100l44 -6l-7 -95
q42 -2 78 -10t68 -17l4 -167l-21 -4q-29 61 -58 102t-77 55l-19 -258q56 -19 95 -39.5t63 -44.5t35 -52.5t11 -62.5zM312 656q-26 1 -50.5 -6t-44.5 -23t-32 -39.5t-12 -53.5q0 -49 28 -78t92 -52zM450 152q0 53 -29.5 84.5t-98.5 55.5l-21 -274q30 -1 57 7.5t47.5 26
t32.5 43t12 57.5z" />
    <glyph glyph-name="sterling" unicode="&#xa3;" horiz-adv-x="625" 
d="M475 317h-159q1 -7 1.5 -13.5t0.5 -14.5q0 -29 -6 -52t-19 -43.5t-33.5 -40.5t-49.5 -41l7 -13q27 3 56 0t57.5 -7.5t56.5 -8.5t53 -4q43 0 66 28t38 94l35 -2q-4 -44 -15 -83t-30 -68.5t-46 -47t-63 -17.5q-21 0 -49 7t-59.5 18.5t-65 26.5t-64.5 31
q-17 -38 -42.5 -60.5t-52.5 -22.5q-28 0 -42.5 13.5t-14.5 36.5q0 29 30.5 52t98.5 25q26 34 39 71.5t13 67.5q0 18 -4 34.5t-10 33.5h-144v47h123q-9 22 -16 46t-7 53q0 48 21.5 90t57 72.5t81.5 48t94 17.5q41 0 68 -8.5t42.5 -21t22 -26.5t6.5 -25q0 -26 -16.5 -45
t-44.5 -19q-32 0 -60 25.5t-39 78.5q-59 -9 -92 -50t-33 -99q0 -43 13 -74.5t24 -62.5h172v-47z" />
    <glyph glyph-name="Euro" unicode="&#x20ac;" horiz-adv-x="666" 
d="M34 386v44h108q15 56 45 104t71 83t91.5 54.5t108.5 19.5q77 0 114 -24t37 -60q0 -27 -17.5 -45t-43.5 -18q-15 0 -30.5 6t-29 19.5t-23.5 33.5t-14 49q-1 1 -5 1q-32 -2 -64 -17t-59 -43t-48 -68.5t-31 -94.5h295v-44h-301q-1 -11 -1.5 -22.5t-0.5 -23.5q0 -15 1 -30.5
t3 -29.5h299v-44h-291q11 -47 32.5 -81.5t50.5 -57t64 -33.5t73 -11t71 8t66 22l12 -19q-35 -38 -86.5 -59.5t-107.5 -21.5q-57 0 -105.5 16.5t-86 49t-63 79.5t-35.5 108h-99v44h94q-1 8 -1 17v19q0 35 6 70h-99z" />
    <glyph glyph-name="yen" unicode="&#xa5;" horiz-adv-x="728" 
d="M291 345l-172 272l-90 27v29h311v-29l-96 -21l151 -263l154 256l-80 28v29h229v-29l-86 -31l-181 -268h171v-41h-186v-83h186v-40h-186v-130l113 -22v-29h-332v29l112 22v130h-185v40h185v83h-185v41h167z" />
    <glyph glyph-name="cent" unicode="&#xa2;" horiz-adv-x="540" 
d="M287 53q17 -4 42 -4q38 0 73 13.5t72 32.5l13 -19q-90 -93 -204 -92l-8 -108l-41 4l9 109q-44 7 -79.5 28.5t-60.5 53t-38.5 71.5t-13.5 86q0 49 17 94t47.5 81t73.5 60t94 31l7 100l40 -5l-7 -93q34 0 65.5 -9t55.5 -24t38 -34.5t14 -41.5q0 -23 -15 -38.5t-40 -15.5
q-30 0 -48 31t-11 82q-11 8 -28 13t-34 6l-20 -231zM147 245q0 -69 28.5 -114t75.5 -66l14 172l16 223q-31 -7 -56 -26.5t-42 -48t-26.5 -64.5t-9.5 -76z" />
    <glyph glyph-name="baht" unicode="&#xe3f;" horiz-adv-x="657" 
d="M410 829l49 -8l-25 -138q69 -14 104 -54t35 -92q0 -124 -149 -164v-12q97 -14 141.5 -57t44.5 -107q0 -41 -15.5 -76.5t-45 -62.5t-72.5 -42.5t-97 -15.5h-54l-22 -152l-49 8l26 144h-239v29l112 19v595l-112 20v29h314q9 0 17.5 -0.5t16.5 -1.5zM493 190q0 70 -39.5 110
t-121.5 41h-73v-297q13 -3 35.5 -5.5t42.5 -2.5q75 0 115.5 39.5t40.5 114.5zM337 380q62 1 95.5 37t33.5 106q0 37 -12 62.5t-31 40.5t-44 21.5t-50 6.5q-20 0 -39.5 -1t-30.5 -3v-270h78z" />
    <glyph glyph-name="colonmonetary" unicode="&#x20a1;" horiz-adv-x="580" 
d="M222 4q-74 31 -119.5 108t-45.5 206q0 83 23 150.5t61 117t88.5 80t104.5 39.5l16 108l43 -7l-15 -99q26 1 46.5 -2t39.5 -9l16 105l44 -7l-18 -114q23 -13 33 -31t10 -38q0 -26 -19 -45.5t-48 -15.5l-36 -223l-41 -267q29 6 61 20.5t65 40.5l17 -16q-25 -42 -65.5 -70.5
t-86.5 -41.5l-19 -130l-44 7l18 114q-5 0 -9 -0.5t-8 -0.5q-35 0 -69 8l-19 -116l-43 7zM315 339l-40 -263q18 -8 41.5 -13.5t49.5 -5.5l44 276l36 232q-17 13 -31 39t-20 67q-5 1 -12 0.5t-14 -1.5zM280 345l49 320q-32 -9 -61.5 -34.5t-52 -68t-36 -101.5t-13.5 -133
q0 -106 20.5 -163.5t52.5 -79.5z" />
    <glyph glyph-name="florin" unicode="&#x192;" horiz-adv-x="584" 
d="M563 624q0 -23 -17.5 -39t-44.5 -16q-14 0 -28 4t-26.5 13t-22 24t-15.5 38q-21 -11 -37.5 -27t-30.5 -42.5t-25.5 -66.5t-22.5 -97l-7 -34h126l-12 -53h-124l-41 -195q-12 -60 -23.5 -102.5t-25 -75t-32 -58t-43.5 -49.5q-27 -25 -60.5 -38.5t-65.5 -13.5
q-44 0 -66.5 16.5t-22.5 42.5q0 23 17.5 39.5t45.5 16.5q53 0 94 -62q22 20 37 56.5t29 107.5l65 315h-117l6 27l122 33l4 16q10 49 22 85t28 64t36 49.5t47 41.5q29 22 65.5 34.5t68.5 12.5q42 0 69.5 -18t27.5 -49z" />
    <glyph glyph-name="naira" unicode="&#x20a6;" horiz-adv-x="856" 
d="M636 476v156l-107 31v29h258v-29l-97 -31v-159h141v-44h-141v-113h141v-43h-141v-277h-119l-140 270h-197v-206l107 -31v-29h-259v29l98 31v209h-149v43h149v113h-149v43h149v163l-97 30v31h245l111 -216h197zM349 433h-115v-127h180zM519 311h117v125h-180zM636 121v149
h-96l76 -149h20zM234 472h95l-69 135h-26v-135z" />
    <glyph glyph-name="peso" unicode="&#x20b1;" horiz-adv-x="732" 
d="M277 459v-154q13 -2 34 -3.5t42 -1.5q70 1 110.5 37t44.5 122h-231zM507 498q-5 84 -45 118.5t-108 35.5q-18 0 -40.5 -1.5t-36.5 -3.5v-149h230zM171 642l-117 21v29h324q106 0 170 -51.5t72 -140.5h120v-43h-120q-4 -44 -22.5 -80t-48 -62.5t-69 -41t-84.5 -14.5
q-27 0 -59.5 2.5t-58.5 6.5v-219l125 -20v-29h-349v29l117 21v407h-156v43h156v142z" />
    <glyph glyph-name="R_p" horiz-adv-x="1238" 
d="M630 0q-30 0 -51 6t-37 20t-30 35.5t-29 53.5l-61 122q-11 23 -23 38t-26.5 24t-33 12.5t-43.5 3.5h-37v-266l106 -21v-28h-323v28l112 20v595l-112 20v29h320q118 0 182 -48.5t64 -127.5q0 -68 -49.5 -112.5t-136.5 -63.5v-12q50 -13 81 -42.5t55 -77.5
q26 -51 45.5 -85.5t36.5 -51.5q9 -9 17.5 -15.5t20 -12t26.5 -9t37 -6.5v367l-73 34v23l156 40l12 -9l-8 -76l11 -3q38 41 75 64t82 23q38 0 72.5 -17t60 -47t40.5 -72t15 -91q0 -51 -18 -99.5t-51.5 -86.5t-81.5 -61t-108 -23q-23 0 -45.5 3t-42.5 7v-139l90 -25v-27h-261
v27l75 25v135h-111zM493 508q0 76 -43 109.5t-115 33.5q-20 0 -41 -1t-35 -3v-290h73q72 0 116.5 37.5t44.5 113.5zM1083 232q0 91 -39 138.5t-101 47.5q-27 0 -52.5 -12t-53.5 -31v-288q26 -26 54 -40t63 -14q25 0 48 11t41 35t29 61.5t11 91.5z" />
    <glyph glyph-name="rupee" unicode="&#x20a8;" horiz-adv-x="1130" 
d="M615 0q-32 0 -53 6t-36.5 20t-28 36.5t-27.5 54.5l-58 123q-11 23 -21.5 38t-24 23.5t-30 12t-39.5 3.5h-38v-268l106 -21v-28h-323v28l112 20v595l-112 20v29h321q119 0 184.5 -48t65.5 -128q0 -67 -50 -111.5t-138 -62.5v-12q44 -11 73 -42t50 -76q17 -34 29.5 -58
t21.5 -40t16 -26.5t13 -17.5q14 -17 32 -26.5t49 -14.5v-29h-94zM1098 150q0 -36 -14.5 -66.5t-40.5 -52t-62 -33.5t-80 -12q-46 0 -84.5 7t-81.5 24l-1 145l29 3q31 -79 66.5 -111.5t86.5 -32.5q49 0 73.5 23t24.5 60q0 35 -33.5 54.5t-93.5 39.5q-29 10 -56.5 21.5t-50 28
t-36 39t-13.5 53.5q0 32 13 60t37 48.5t58 32t76 11.5q48 0 86.5 -7.5t63.5 -16.5l4 -129l-26 -6q-35 68 -67.5 97t-76.5 29q-45 0 -67 -22t-22 -54q0 -17 8.5 -29t25 -22t39.5 -18.5t53 -18.5t59.5 -22t52 -28.5t36.5 -39.5t14 -55zM497 508q0 76 -43.5 109.5t-118.5 33.5
q-20 0 -39.5 -1t-36.5 -3v-288h71q76 0 121.5 36.5t45.5 112.5z" />
    <glyph glyph-name="won" unicode="&#x20a9;" horiz-adv-x="1152" 
d="M411 95h13l79 220h-150zM796 96h12l60 219h-134zM923 517l32 114l-90 32v29h230v-29l-88 -33l-33 -112h125v-43h-138l-34 -118h172v-43h-185l-94 -320h-94l-130 436h-6l-157 -436h-93l-92 320h-196v43h183l-34 118h-149v43h137l-35 120l-93 25v29h295v-28l-90 -20
l34 -127h271l-36 121l-84 26v28h288v-29l-94 -21l35 -125h243zM691 475l32 -118h156l32 118h-220zM311 475l31 -118h176l42 118h-249z" />
    <glyph glyph-name="sheqel" unicode="&#x20aa;" horiz-adv-x="613" 
d="M540 0h-164q-50 0 -83.5 8t-54.5 26t-30 45.5t-9 66.5q0 79 30 184h25q-1 -48 1.5 -82t7.5 -58t13.5 -39.5t20.5 -26.5q16 -14 45 -22t83 -9h71v448l44 -6v-535zM73 539h164q49 0 83 -8t55 -26t30 -45.5t9 -66.5q0 -79 -30 -184h-25q1 48 -1.5 82t-7.5 58t-13.5 39.5
t-20.5 26.5q-16 14 -45 22t-83 9h-71v-446h-44v539z" />
    <glyph glyph-name="numbersign" unicode="#" horiz-adv-x="694" 
d="M505 427l-29 -96l-24 -94h138v-46h-149l-46 -165l-55 12l47 153h-158l-46 -165l-54 12l46 153h-117v46h130l31 104l22 86h-137v46h150l48 174l53 -12l-48 -162h158l49 174l53 -12l-48 -162h117v-46h-131zM293 427l-28 -96l-25 -94h159l31 104l22 86h-159z" />
    <glyph glyph-name="paragraph" unicode="&#xb6;" horiz-adv-x="704" 
d="M345 224q-60 1 -112.5 15t-91.5 42t-61 70t-22 100q0 54 20.5 96.5t58 72t91 44.5t120.5 15h325v-26l-118 -24v-739h-57v741h-96v-741h-57v334zM345 631q-83 0 -127 -45t-44 -129q0 -83 42 -130t129 -55v359z" />
    <glyph glyph-name="section" unicode="&#xa7;" horiz-adv-x="590" 
d="M517 204q0 -68 -20.5 -125t-57.5 -98.5t-88 -65t-111 -23.5q-70 0 -115 26t-45 69q0 28 19 46t45 18q31 0 49.5 -17.5t18.5 -44.5q0 -14 -8 -35q13 -9 30.5 -15t37.5 -6q53 0 92.5 33.5t59.5 86.5q-89 21 -155.5 60t-110 89t-65 108t-21.5 116q0 68 20.5 125t57.5 98.5
t88 65t111 23.5q35 0 64.5 -7t50.5 -19t33 -29.5t12 -38.5q0 -28 -19 -46.5t-45 -18.5q-31 0 -49.5 17.5t-18.5 44.5q0 14 8 35q-27 21 -68 21q-53 0 -92.5 -33t-59.5 -87q89 -21 155.5 -60t110 -89t65 -108t21.5 -116zM149 486q0 -54 16.5 -108t51.5 -105.5t88.5 -99
t128.5 -88.5q6 28 6 59q0 54 -16.5 108.5t-51.5 105.5t-88.5 98.5t-128.5 88.5q-6 -29 -6 -59z" />
    <glyph glyph-name="ordfeminine" unicode="&#xaa;" horiz-adv-x="460" 
d="M81 623q0 20 15.5 37.5t40 30t54.5 19.5t59 7q107 0 107 -105v-194q0 -18 14 -27t49 -7l2 -17q-16 -8 -37.5 -14t-43.5 -6q-23 0 -36.5 12t-15.5 41l-9 1q-29 -25 -58 -39.5t-63 -14.5q-43 0 -67.5 24t-24.5 59q0 54 54 85.5t159 36.5v53q0 36 -19 53t-64 17
q-11 0 -27 -2t-30 -7q26 -20 26 -44q0 -16 -11.5 -28t-30.5 -12q-20 0 -31.5 12.5t-11.5 28.5zM145 450q0 -26 14 -40t44 -14q17 0 38 7t39 18v105q-73 -3 -104 -24t-31 -52z" />
    <glyph glyph-name="ordmasculine" unicode="&#xba;" horiz-adv-x="470" 
d="M419 534q0 -37 -13 -71t-37 -59.5t-59 -41t-80 -15.5q-44 0 -77.5 14.5t-56 39t-34 58.5t-11.5 73q0 37 13 70.5t37.5 59t59.5 40.5t79 15t77.5 -14t56 -38.5t34 -58t11.5 -72.5zM329 534q0 77 -25.5 115.5t-70.5 38.5q-42 0 -67 -39.5t-25 -117.5t27 -116.5t69 -38.5
q43 0 67.5 39.5t24.5 118.5z" />
    <glyph glyph-name="degree" unicode="&#xb0;" horiz-adv-x="444" 
d="M393 552q0 -30 -11.5 -60t-34 -54t-54.5 -38.5t-74 -14.5q-41 0 -72.5 14t-52.5 37t-32 53t-11 62q0 30 12 60t34.5 53.5t55 38t73.5 14.5t72 -13.5t52 -36.5t32 -53t11 -62zM316 552q0 61 -26 97t-69 36q-42 0 -67.5 -36.5t-25.5 -98.5t27 -97.5t68 -35.5q43 0 68 36
t25 99z" />
    <glyph glyph-name="percent" unicode="%" horiz-adv-x="900" 
d="M395 518q0 -33 -12.5 -65.5t-36 -57.5t-56.5 -40.5t-73 -15.5q-39 0 -70.5 13.5t-53 37t-33 55t-11.5 67.5q0 34 13 66t36 57t56 40t74 15q39 0 70 -13.5t52.5 -37t33 -54.5t11.5 -67zM851 161q0 -33 -12.5 -65.5t-36 -57.5t-56.5 -40.5t-73 -15.5q-39 0 -70.5 13.5
t-53 37t-33 55t-11.5 67.5q0 34 12.5 66t36 57t56.5 40t74 15q39 0 70 -13.5t52.5 -37t33 -54.5t11.5 -67zM588 156q0 -72 26.5 -108t65.5 -36q41 0 64 36.5t23 110.5q0 72 -25 108t-66 36q-39 0 -63.5 -37t-24.5 -110zM311 516q0 72 -25 108t-66 36q-38 0 -63.5 -37
t-25.5 -110q0 -72 27 -108t65 -36q42 0 65 36.5t23 110.5zM432 345l255 362l44 -28l-263 -352l-255 -362l-44 27z" />
    <glyph glyph-name="quotedbl" unicode="&#x22;" horiz-adv-x="427" 
d="M388 671q0 -5 -1 -12t-4 -15q-3 -7 -7.5 -16t-12 -21.5t-19 -30.5t-28.5 -44l-50 -77l-24 11l19 90q6 30 10.5 50.5t7.5 34.5t5.5 23t5.5 17q16 36 48 36q17 0 33.5 -13t16.5 -33zM208 671q0 -5 -1 -12t-4 -15q-3 -7 -7.5 -16t-12 -21.5t-19 -30.5t-28.5 -44l-50 -77
l-24 11l19 90q6 30 10.5 50.5t7.5 34.5t5.5 23t5.5 17q16 36 48 36q17 0 33.5 -13t16.5 -33z" />
    <glyph glyph-name="quotesingle" unicode="'" horiz-adv-x="247" 
d="M208 671q0 -5 -1 -12t-4 -15q-3 -7 -7.5 -16t-12 -21.5t-19 -30.5t-28.5 -44l-50 -77l-24 11l19 90q6 30 10.5 50.5t7.5 34.5t5.5 23t5.5 17q16 36 48 36q17 0 33.5 -13t16.5 -33z" />
    <glyph glyph-name="plus" unicode="+" horiz-adv-x="580" 
d="M321 309v-206h-60v206h-203v56h203v203h60v-203h202v-56h-202z" />
    <glyph glyph-name="minus" unicode="&#x2212;" horiz-adv-x="580" 
d="M65 308v59h450v-59h-450z" />
    <glyph glyph-name="divide" unicode="&#xf7;" horiz-adv-x="580" 
d="M57 310v54h464v-54h-464zM289 568q26 0 44.5 -18.5t18.5 -44.5t-18.5 -44.5t-44.5 -18.5t-44.5 18.5t-18.5 44.5t18.5 44.5t44.5 18.5zM289 232q26 0 44.5 -18.5t18.5 -44.5t-18.5 -44.5t-44.5 -18.5t-44.5 18.5t-18.5 44.5t18.5 44.5t44.5 18.5z" />
    <glyph glyph-name="equal" unicode="=" horiz-adv-x="580" 
d="M513 412h-446v56h446v-56zM67 205v56h446v-56h-446z" />
    <glyph glyph-name="multiply" unicode="&#xd7;" horiz-adv-x="580" 
d="M482 177l-41 -38l-151 157l-151 -157l-41 38l154 159l-154 158l41 38l151 -157l151 157l41 -38l-154 -158z" />
    <glyph glyph-name="less" unicode="&#x3c;" horiz-adv-x="580" 
d="M474 105l-391 206v52l391 206l14 -51l-347 -181l347 -181z" />
    <glyph glyph-name="greater" unicode="&#x3e;" horiz-adv-x="580" 
d="M90 518l14 51l391 -206v-52l-391 -206l-14 51l348 181z" />
    <glyph glyph-name="plusminus" unicode="&#xb1;" horiz-adv-x="580" 
d="M318 427v-173h-56v173h-170v54h170v170h56v-170h170v-54h-170zM80 120v53h420v-53h-420z" />
    <glyph glyph-name="onehalf" unicode="&#xbd;" horiz-adv-x="1160" 
d="M396 212v-22h-319v22l115 35v390l-112 32v21l191 24l13 -7v-460zM614 291l-279 -418l-43 31l285 412l279 419l43 -31zM819 -11h204l56 88l19 -6l-25 -155h-314l-12 72q48 38 86.5 73t67.5 67q24 26 40.5 46.5t26.5 38.5t14.5 35t4.5 35q0 37 -22.5 60t-60.5 23
q-45 0 -72 -26.5t-44 -74.5l-28 10q12 73 57.5 117.5t114.5 44.5q35 0 62 -11t46 -30t28.5 -44.5t9.5 -54.5q0 -33 -13 -63.5t-44 -64.5t-81 -74.5t-125 -93.5z" />
    <glyph glyph-name="onethird" unicode="&#x2153;" horiz-adv-x="1160" 
d="M396 212v-22h-319v22l115 35v390l-112 32v21l191 24l13 -7v-460zM615 291l-279 -418l-43 31l285 412l279 419l43 -31zM840 183q45 15 74 28.5t45.5 28t22.5 30.5t6 36q0 26 -20.5 46t-58.5 20q-37 0 -66.5 -20t-55.5 -57l-26 15q24 57 71.5 92t110.5 35q60 0 96 -31
t36 -79q0 -45 -26 -76t-86 -49v-15q68 -11 100.5 -44t32.5 -84q0 -35 -14.5 -64t-39.5 -50t-59 -33t-73 -12q-36 0 -65.5 7t-50.5 19t-33 28.5t-12 34.5q0 23 15 38.5t36 15.5q32 0 47.5 -24.5t7.5 -64.5q27 -19 60 -19q39 0 66.5 24.5t27.5 69.5q0 47 -40 76t-129 37v41z
" />
    <glyph glyph-name="twothirds" unicode="&#x2154;" horiz-adv-x="1160" 
d="M126 263h204l56 88l19 -6l-25 -155h-314l-12 72q48 38 86.5 73t67.5 67q24 26 40.5 46.5t26.5 38.5t14.5 35t4.5 35q0 37 -22.5 60t-60.5 23q-45 0 -72 -26.5t-44 -74.5l-28 10q12 73 57.5 117.5t114.5 44.5q35 0 62 -11t46 -30t28.5 -44.5t9.5 -54.5q0 -33 -13 -63.5
t-44 -64.5t-81 -74.5t-125 -93.5zM625 291l-279 -418l-43 31l285 412l279 419l43 -31zM840 183q45 15 74 28.5t45.5 28t22.5 30.5t6 36q0 26 -20.5 46t-58.5 20q-37 0 -66.5 -20t-55.5 -57l-26 15q24 57 71.5 92t110.5 35q60 0 96 -31t36 -79q0 -45 -26 -76t-86 -49v-15
q68 -11 100.5 -44t32.5 -84q0 -35 -14.5 -64t-39.5 -50t-59 -33t-73 -12q-36 0 -65.5 7t-50.5 19t-33 28.5t-12 34.5q0 23 15 38.5t36 15.5q32 0 47.5 -24.5t7.5 -64.5q27 -19 60 -19q39 0 66.5 24.5t27.5 69.5q0 47 -40 76t-129 37v41z" />
    <glyph glyph-name="onequarter" unicode="&#xbc;" horiz-adv-x="1160" 
d="M396 212v-22h-319v22l115 35v390l-112 32v21l191 24l13 -7v-460zM619 291l-279 -418l-43 31l285 412l279 419l43 -31zM928 363h-19l-150 -239h169v239zM915 435l95 -6v-302h82v-59h-82v-101l71 -26v-25h-245v26l89 25v103h-209l-16 48z" />
    <glyph glyph-name="threequarters" unicode="&#xbe;" horiz-adv-x="1160" 
d="M169 457q45 15 74 28.5t45.5 28t22.5 30.5t6 36q0 26 -20.5 46t-58.5 20q-37 0 -66.5 -20t-55.5 -57l-26 15q24 57 71.5 92t110.5 35q60 0 96 -31t36 -79q0 -45 -26 -76t-86 -49v-15q68 -11 100.5 -44t32.5 -84q0 -35 -14.5 -64t-39.5 -50t-59 -33t-73 -12q-36 0 -65.5 7
t-50.5 19t-33 28.5t-12 34.5q0 23 15 38.5t36 15.5q32 0 47.5 -24.5t7.5 -64.5q27 -19 60 -19q39 0 66.5 24.5t27.5 69.5q0 47 -40 76t-129 37v41zM625 291l-279 -418l-43 31l285 412l279 419l43 -31zM928 363h-19l-150 -239h169v239zM915 435l95 -6v-302h82v-59h-82v-101
l71 -26v-25h-245v26l89 25v103h-209l-16 48z" />
    <glyph glyph-name="onefifth" unicode="&#x2155;" horiz-adv-x="1160" 
d="M396 212v-22h-319v22l115 35v390l-112 32v21l191 24l13 -7v-460zM615 291l-279 -418l-43 31l285 412l279 419l43 -31zM1094 73q0 -39 -14.5 -71t-39.5 -54.5t-58.5 -35t-71.5 -12.5q-75 0 -115 27t-40 62q0 25 14 41t36 16q35 0 48 -28t3 -66q9 -8 25 -13t36 -5
q40 0 67 28t27 87q0 54 -30.5 81t-81.5 27q-26 0 -47 -4t-39 -10l-31 15l29 262h213l32 45l21 -4l-13 -122h-220l-12 -115l11 -7q34 14 78 14q78 0 125.5 -42t47.5 -116z" />
    <glyph glyph-name="twofifths" unicode="&#x2156;" horiz-adv-x="1160" 
d="M126 263h204l56 88l19 -6l-25 -155h-314l-12 72q48 38 86.5 73t67.5 67q24 26 40.5 46.5t26.5 38.5t14.5 35t4.5 35q0 37 -22.5 60t-60.5 23q-45 0 -72 -26.5t-44 -74.5l-28 10q12 73 57.5 117.5t114.5 44.5q35 0 62 -11t46 -30t28.5 -44.5t9.5 -54.5q0 -33 -13 -63.5
t-44 -64.5t-81 -74.5t-125 -93.5zM617 291l-279 -418l-43 31l285 412l279 419l43 -31zM1094 73q0 -39 -14.5 -71t-39.5 -54.5t-58.5 -35t-71.5 -12.5q-75 0 -115 27t-40 62q0 25 14 41t36 16q35 0 48 -28t3 -66q9 -8 25 -13t36 -5q40 0 67 28t27 87q0 54 -30.5 81t-81.5 27
q-26 0 -47 -4t-39 -10l-31 15l29 262h213l32 45l21 -4l-13 -122h-220l-12 -115l11 -7q34 14 78 14q78 0 125.5 -42t47.5 -116z" />
    <glyph glyph-name="threefifths" unicode="&#x2157;" horiz-adv-x="1160" 
d="M147 457q45 15 74 28.5t45.5 28t22.5 30.5t6 36q0 26 -20.5 46t-58.5 20q-37 0 -66.5 -20t-55.5 -57l-26 15q24 57 71.5 92t110.5 35q60 0 96 -31t36 -79q0 -45 -26 -76t-86 -49v-15q68 -11 100.5 -44t32.5 -84q0 -35 -14.5 -64t-39.5 -50t-59 -33t-73 -12q-36 0 -65.5 7
t-50.5 19t-33 28.5t-12 34.5q0 23 15 38.5t36 15.5q32 0 47.5 -24.5t7.5 -64.5q27 -19 60 -19q39 0 66.5 24.5t27.5 69.5q0 47 -40 76t-129 37v41zM597 291l-279 -418l-43 31l285 412l279 419l43 -31zM1094 73q0 -39 -14.5 -71t-39.5 -54.5t-58.5 -35t-71.5 -12.5
q-75 0 -115 27t-40 62q0 25 14 41t36 16q35 0 48 -28t3 -66q9 -8 25 -13t36 -5q40 0 67 28t27 87q0 54 -30.5 81t-81.5 27q-26 0 -47 -4t-39 -10l-31 15l29 262h213l32 45l21 -4l-13 -122h-220l-12 -115l11 -7q34 14 78 14q78 0 125.5 -42t47.5 -116z" />
    <glyph glyph-name="fourfifths" unicode="&#x2158;" horiz-adv-x="1160" 
d="M252 637h-19l-150 -239h169v239zM239 709l95 -6v-302h82v-59h-82v-101l71 -26v-25h-245v26l89 25v103h-209l-16 48zM616 291l-279 -418l-43 31l285 412l279 419l43 -31zM1094 73q0 -39 -14.5 -71t-39.5 -54.5t-58.5 -35t-71.5 -12.5q-75 0 -115 27t-40 62q0 25 14 41
t36 16q35 0 48 -28t3 -66q9 -8 25 -13t36 -5q40 0 67 28t27 87q0 54 -30.5 81t-81.5 27q-26 0 -47 -4t-39 -10l-31 15l29 262h213l32 45l21 -4l-13 -122h-220l-12 -115l11 -7q34 14 78 14q78 0 125.5 -42t47.5 -116z" />
    <glyph glyph-name="onesixth" unicode="&#x2159;" horiz-adv-x="1160" 
d="M396 212v-22h-319v22l115 35v390l-112 32v21l191 24l13 -7v-460zM626 291l-279 -418l-43 31l285 412l279 419l43 -31zM865 210q17 14 41.5 23.5t49.5 9.5q33 0 58.5 -12.5t43 -34t26.5 -49.5t9 -58q0 -42 -13 -76.5t-37 -59.5t-56.5 -39t-71.5 -14q-36 0 -67.5 12
t-55.5 36t-37.5 61t-13.5 87q0 66 23.5 127t73.5 112q42 42 91.5 71t115.5 45l7 -27q-71 -34 -123 -86q-29 -29 -46 -59t-29 -63zM845 174q-5 -17 -7.5 -38t-2.5 -44q0 -76 25.5 -118t63.5 -42q34 0 56 31.5t22 93.5q0 64 -22.5 99.5t-69.5 35.5q-20 0 -35.5 -5t-29.5 -13z
" />
    <glyph glyph-name="fivesixths" unicode="&#x215a;" horiz-adv-x="1160" 
d="M401 347q0 -39 -14.5 -71t-39.5 -54.5t-58.5 -35t-71.5 -12.5q-75 0 -115 27t-40 62q0 25 14 41t36 16q35 0 48 -28t3 -66q9 -8 25 -13t36 -5q40 0 67 28t27 87q0 54 -30.5 81t-81.5 27q-26 0 -47 -4t-39 -10l-31 15l29 262h213l32 45l21 -4l-13 -122h-220l-12 -115
l11 -7q34 14 78 14q78 0 125.5 -42t47.5 -116zM614 291l-279 -418l-43 31l285 412l279 419l43 -31zM865 210q17 14 41.5 23.5t49.5 9.5q33 0 58.5 -12.5t43 -34t26.5 -49.5t9 -58q0 -42 -13 -76.5t-37 -59.5t-56.5 -39t-71.5 -14q-36 0 -67.5 12t-55.5 36t-37.5 61t-13.5 87
q0 66 23.5 127t73.5 112q42 42 91.5 71t115.5 45l7 -27q-71 -34 -123 -86q-29 -29 -46 -59t-29 -63zM845 174q-5 -17 -7.5 -38t-2.5 -44q0 -76 25.5 -118t63.5 -42q34 0 56 31.5t22 93.5q0 64 -22.5 99.5t-69.5 35.5q-20 0 -35.5 -5t-29.5 -13z" />
    <glyph glyph-name="oneeighth" unicode="&#x215b;" horiz-adv-x="1160" 
d="M396 212v-22h-319v22l115 35v390l-112 32v21l191 24l13 -7v-460zM614 291l-279 -418l-43 31l285 412l279 419l43 -31zM979 181q48 -15 79 -45.5t31 -84.5q0 -35 -14 -62.5t-38 -47.5t-56.5 -30.5t-69.5 -10.5q-39 0 -71 10t-54.5 27.5t-34.5 41t-12 51.5q0 36 21 67.5
t77 55.5v14q-35 15 -57 44.5t-22 74.5q0 32 12.5 59.5t34.5 48t51.5 32t63.5 11.5q35 0 63 -9.5t47.5 -26.5t30 -40t10.5 -49q0 -32 -20.5 -64t-71.5 -54v-13zM953 202q19 20 30.5 51t11.5 61q0 40 -21 64.5t-59 24.5q-34 0 -54.5 -25t-20.5 -65q0 -23 5.5 -40.5t18.5 -31
t34.5 -23t54.5 -16.5zM862 144q-17 -20 -29 -49.5t-12 -58.5q0 -48 27 -76t72 -28q36 0 60 25.5t24 67.5q0 24 -7 43t-23.5 33.5t-43.5 25t-68 17.5z" />
    <glyph glyph-name="threeeighths" unicode="&#x215c;" horiz-adv-x="1160" 
d="M147 457q45 15 74 28.5t45.5 28t22.5 30.5t6 36q0 26 -20.5 46t-58.5 20q-37 0 -66.5 -20t-55.5 -57l-26 15q24 57 71.5 92t110.5 35q60 0 96 -31t36 -79q0 -45 -26 -76t-86 -49v-15q68 -11 100.5 -44t32.5 -84q0 -35 -14.5 -64t-39.5 -50t-59 -33t-73 -12q-36 0 -65.5 7
t-50.5 19t-33 28.5t-12 34.5q0 23 15 38.5t36 15.5q32 0 47.5 -24.5t7.5 -64.5q27 -19 60 -19q39 0 66.5 24.5t27.5 69.5q0 47 -40 76t-129 37v41zM608 291l-279 -418l-43 31l285 412l279 419l43 -31zM979 181q48 -15 79 -45.5t31 -84.5q0 -35 -14 -62.5t-38 -47.5
t-56.5 -30.5t-69.5 -10.5q-39 0 -71 10t-54.5 27.5t-34.5 41t-12 51.5q0 36 21 67.5t77 55.5v14q-35 15 -57 44.5t-22 74.5q0 32 12.5 59.5t34.5 48t51.5 32t63.5 11.5q35 0 63 -9.5t47.5 -26.5t30 -40t10.5 -49q0 -32 -20.5 -64t-71.5 -54v-13zM953 202q19 20 30.5 51
t11.5 61q0 40 -21 64.5t-59 24.5q-34 0 -54.5 -25t-20.5 -65q0 -23 5.5 -40.5t18.5 -31t34.5 -23t54.5 -16.5zM862 144q-17 -20 -29 -49.5t-12 -58.5q0 -48 27 -76t72 -28q36 0 60 25.5t24 67.5q0 24 -7 43t-23.5 33.5t-43.5 25t-68 17.5z" />
    <glyph glyph-name="fiveeighths" unicode="&#x215d;" horiz-adv-x="1160" 
d="M412 347q0 -39 -14.5 -71t-39.5 -54.5t-58.5 -35t-71.5 -12.5q-75 0 -115 27t-40 62q0 25 14 41t36 16q35 0 48 -28t3 -66q9 -8 25 -13t36 -5q40 0 67 28t27 87q0 54 -30.5 81t-81.5 27q-26 0 -47 -4t-39 -10l-31 15l29 262h213l32 45l21 -4l-13 -122h-220l-12 -115
l11 -7q34 14 78 14q78 0 125.5 -42t47.5 -116zM608 291l-279 -418l-43 31l285 412l279 419l43 -31zM979 181q48 -15 79 -45.5t31 -84.5q0 -35 -14 -62.5t-38 -47.5t-56.5 -30.5t-69.5 -10.5q-39 0 -71 10t-54.5 27.5t-34.5 41t-12 51.5q0 36 21 67.5t77 55.5v14
q-35 15 -57 44.5t-22 74.5q0 32 12.5 59.5t34.5 48t51.5 32t63.5 11.5q35 0 63 -9.5t47.5 -26.5t30 -40t10.5 -49q0 -32 -20.5 -64t-71.5 -54v-13zM953 202q19 20 30.5 51t11.5 61q0 40 -21 64.5t-59 24.5q-34 0 -54.5 -25t-20.5 -65q0 -23 5.5 -40.5t18.5 -31t34.5 -23
t54.5 -16.5zM862 144q-17 -20 -29 -49.5t-12 -58.5q0 -48 27 -76t72 -28q36 0 60 25.5t24 67.5q0 24 -7 43t-23.5 33.5t-43.5 25t-68 17.5z" />
    <glyph glyph-name="seveneighths" unicode="&#x215e;" horiz-adv-x="1160" 
d="M169 613l-49 -81l-25 5l23 187l23 4l19 -34h264l17 -58l-218 -453h-90v14l118 188l134 228h-216zM570 291l-279 -418l-43 31l285 412l279 419l43 -31zM979 181q48 -15 79 -45.5t31 -84.5q0 -35 -14 -62.5t-38 -47.5t-56.5 -30.5t-69.5 -10.5q-39 0 -71 10t-54.5 27.5
t-34.5 41t-12 51.5q0 36 21 67.5t77 55.5v14q-35 15 -57 44.5t-22 74.5q0 32 12.5 59.5t34.5 48t51.5 32t63.5 11.5q35 0 63 -9.5t47.5 -26.5t30 -40t10.5 -49q0 -32 -20.5 -64t-71.5 -54v-13zM953 202q19 20 30.5 51t11.5 61q0 40 -21 64.5t-59 24.5q-34 0 -54.5 -25
t-20.5 -65q0 -23 5.5 -40.5t18.5 -31t34.5 -23t54.5 -16.5zM862 144q-17 -20 -29 -49.5t-12 -58.5q0 -48 27 -76t72 -28q36 0 60 25.5t24 67.5q0 24 -7 43t-23.5 33.5t-43.5 25t-68 17.5z" />
    <glyph glyph-name="zero.sup" unicode="&#x2070;" horiz-adv-x="435" 
d="M398 553q0 -62 -12.5 -111.5t-36 -84t-57 -53t-75.5 -18.5q-91 0 -136 71.5t-45 195.5q0 62 12.5 112t36 85t57 54t75.5 19q91 0 136 -72.5t45 -197.5zM298 554q0 66 -6 111.5t-17 73t-26 39.5t-34 12t-33.5 -9.5t-24.5 -36t-15.5 -72.5t-5.5 -118t6 -118t17 -71.5
t26.5 -35t33.5 -9.5q19 0 34 12t25 39.5t15 72t5 110.5z" />
    <glyph glyph-name="one.sup" unicode="&#xb9;" horiz-adv-x="435" 
d="M391 324v-22h-319v22l115 35v390l-112 32v21l191 24l13 -7v-460z" />
    <glyph glyph-name="two.sup" unicode="&#xb2;" horiz-adv-x="435" 
d="M110 375h204l56 88l19 -6l-25 -155h-314l-12 72q48 38 86.5 73t67.5 67q24 26 40.5 46.5t26.5 38.5t14.5 35t4.5 35q0 37 -22.5 60t-60.5 23q-45 0 -72 -26.5t-44 -74.5l-28 10q12 73 57.5 117.5t114.5 44.5q35 0 62 -11t46 -30t28.5 -44.5t9.5 -54.5q0 -33 -13 -63.5
t-44 -64.5t-81 -74.5t-125 -93.5z" />
    <glyph glyph-name="three.sup" unicode="&#xb3;" horiz-adv-x="435" 
d="M131 569q45 15 74 28.5t45.5 28t22.5 30.5t6 36q0 26 -20.5 46t-58.5 20q-37 0 -66.5 -20t-55.5 -57l-26 15q24 57 71.5 92t110.5 35q60 0 96 -31t36 -79q0 -45 -26 -76t-86 -49v-15q68 -11 100.5 -44t32.5 -84q0 -35 -14.5 -64t-39.5 -50t-59 -33t-73 -12q-36 0 -65.5 7
t-50.5 19t-33 28.5t-12 34.5q0 23 15 38.5t36 15.5q32 0 47.5 -24.5t7.5 -64.5q27 -19 60 -19q39 0 66.5 24.5t27.5 69.5q0 47 -40 76t-129 37v41z" />
    <glyph glyph-name="four.sup" unicode="&#x2074;" horiz-adv-x="435" 
d="M241 749h-19l-150 -239h169v239zM228 821l95 -6v-302h82v-59h-82v-101l71 -26v-25h-245v26l89 25v103h-209l-16 48z" />
    <glyph glyph-name="five.sup" unicode="&#x2075;" horiz-adv-x="435" 
d="M385 459q0 -39 -14.5 -71t-39.5 -54.5t-58.5 -35t-71.5 -12.5q-75 0 -115 27t-40 62q0 25 14 41t36 16q35 0 48 -28t3 -66q9 -8 25 -13t36 -5q40 0 67 28t27 87q0 54 -30.5 81t-81.5 27q-26 0 -47 -4t-39 -10l-31 15l29 262h213l32 45l21 -4l-13 -122h-220l-12 -115
l11 -7q34 14 78 14q78 0 125.5 -42t47.5 -116z" />
    <glyph glyph-name="six.sup" unicode="&#x2076;" horiz-adv-x="435" 
d="M167 596q17 14 41.5 23.5t49.5 9.5q33 0 58.5 -12.5t43 -34t26.5 -49.5t9 -58q0 -42 -13 -76.5t-37 -59.5t-56.5 -39t-71.5 -14q-36 0 -67.5 12t-55.5 36t-37.5 61t-13.5 87q0 66 23.5 127t73.5 112q42 42 91.5 71t115.5 45l7 -27q-71 -34 -123 -86q-29 -29 -46 -59
t-29 -63zM147 560q-5 -17 -7.5 -38t-2.5 -44q0 -76 25.5 -118t63.5 -42q34 0 56 31.5t22 93.5q0 64 -22.5 99.5t-69.5 35.5q-20 0 -35.5 -5t-29.5 -13z" />
    <glyph glyph-name="seven.sup" unicode="&#x2077;" horiz-adv-x="435" 
d="M131 725l-49 -81l-25 5l23 187l23 4l19 -34h264l17 -58l-218 -453h-90v14l118 188l134 228h-216z" />
    <glyph glyph-name="eight.sup" unicode="&#x2078;" horiz-adv-x="435" 
d="M281 567q48 -15 79 -45.5t31 -84.5q0 -35 -14 -62.5t-38 -47.5t-56.5 -30.5t-69.5 -10.5q-39 0 -71 10t-54.5 27.5t-34.5 41t-12 51.5q0 36 21 67.5t77 55.5v14q-35 15 -57 44.5t-22 74.5q0 32 12.5 59.5t34.5 48t51.5 32t63.5 11.5q35 0 63 -9.5t47.5 -26.5t30 -40
t10.5 -49q0 -32 -20.5 -64t-71.5 -54v-13zM255 588q19 20 30.5 51t11.5 61q0 40 -21 64.5t-59 24.5q-34 0 -54.5 -25t-20.5 -65q0 -23 5.5 -40.5t18.5 -31t34.5 -23t54.5 -16.5zM164 530q-17 -20 -29 -49.5t-12 -58.5q0 -48 27 -76t72 -28q36 0 60 25.5t24 67.5q0 24 -7 43
t-23.5 33.5t-43.5 25t-68 17.5z" />
    <glyph glyph-name="nine.sup" unicode="&#x2079;" horiz-adv-x="435" 
d="M266 507q-17 -15 -41 -24.5t-50 -9.5q-33 0 -58.5 12.5t-43 34.5t-26.5 50t-9 60q0 44 13 79.5t36.5 61t56 39t72.5 13.5q36 0 68 -12.5t56 -37.5t38 -61.5t14 -84.5q0 -68 -24 -129.5t-72 -110.5q-43 -43 -92.5 -71.5t-116.5 -44.5l-7 27q74 35 124 87q28 27 44.5 54.5
t28.5 60.5zM287 542q4 17 7 40.5t3 47.5q0 80 -25.5 120t-63.5 40q-35 0 -56 -31t-21 -97t22 -102t67 -36q38 0 67 18z" />
    </font>
</defs>
</svg>
