<?xml version="1.0" standalone="no"?>
<!DOCTYPE svg PUBLIC "-//W3C//DTD SVG 1.1//EN" "http://www.w3.org/Graphics/SVG/1.1/DTD/svg11.dtd" >
<svg xmlns="http://www.w3.org/2000/svg" xmlns:xlink="http://www.w3.org/1999/xlink" version="1.1">
<metadata>
Created by FontForge 20190801 at Thu Mar 15 15:40:04 2018
 By Unknown
Copyright (C) 1996, 2011 Hoefler &#38; Co. http://www.typography.com
</metadata>
<defs>
<font id="Font" horiz-adv-x="833" >
  <font-face 
    font-family="Copyright (C) H&#38;Co | typography.com"
    font-weight="350"
    font-stretch="normal"
    units-per-em="1000"
    panose-1="0 0 0 0 0 0 0 0 0 0"
    ascent="800"
    descent="-200"
    x-height="505"
    cap-height="701"
    bbox="-122 -343 1717 1177.71"
    underline-thickness="50"
    underline-position="-100"
    unicode-range="U+0020-FB04"
  />
<missing-glyph horiz-adv-x="500" 
 />
    <glyph glyph-name="f_b" unicode="fb" horiz-adv-x="1009" 
d="M51 0v31l73 23v383h-100v29l100 40v18q0 85 27 145.5t87 104.5q38 29 82 42t98 13q56 0 94 -22l61 23l18 -11v-364l13 -2q36 32 72 50.5t85 18.5q39 0 75.5 -17.5t64 -50t44.5 -80t17 -107.5q0 -56 -20.5 -107.5t-58.5 -91t-92 -63t-122 -23.5q-24 0 -51.5 3t-55 8
t-54.5 11.5t-50 14.5v418h-200v-383l74 -23v-31h-281zM591 85q23 -27 50 -41t61 -14q24 0 45.5 11.5t38 36t26 63t9.5 91.5q0 102 -38 152t-108 50q-23 0 -44 -6.5t-40 -14.5v-328zM458 671q-44 24 -56 111q-70 -6 -107 -62.5t-37 -156.5v-61h200v169z" />
    <glyph glyph-name="f_f" unicode="ff" horiz-adv-x="739" 
d="M717 829q56 0 85.5 -24.5t29.5 -56.5q0 -30 -18 -47.5t-47 -17.5q-32 0 -57 21.5t-47 72.5q-35 -22 -52 -64t-17 -124v-87h140v-65h-140v-383l90 -23v-31h-292v31l68 23v383h-202v-383l75 -23v-31h-282v31l73 23v383h-100v29l100 40v27q0 90 30 148.5t92 96.5
q71 43 161 43q52 0 85 -18.5t45 -43.5q7 5 12.5 10t12.5 10q35 26 74 38t81 12zM460 502v50q0 35 4.5 63t12.5 53q-32 2 -57.5 26t-39.5 77q-59 -8 -90.5 -58.5t-31.5 -146.5v-64h202z" />
    <glyph glyph-name="f_h" unicode="fh" horiz-adv-x="1018" 
d="M591 819v-379l11 -3q38 35 83 60t100 25q72 0 108 -42.5t36 -111.5v-314l73 -23v-31h-271v31l64 23v269q0 51 -21 80t-69 29q-33 0 -58 -8.5t-56 -27.5v-342l64 -23v-31h-265v31l68 23v383h-200v-383l74 -23v-31h-281v31l73 23v383h-100v29l100 40v18q0 85 27 145.5
t87 104.5q38 29 82 42t98 13q56 0 94 -22l61 23zM458 671q-44 24 -56 111q-70 -6 -107 -62.5t-37 -156.5v-61h200v169z" />
    <glyph glyph-name="fi" unicode="fi" horiz-adv-x="690" 
d="M258 54l74 -23v-31h-281v31l73 23v383h-100v29l100 40v18q0 85 27 145.5t87 104.5q38 29 82 42t98 13q36 0 64 -9t47 -23.5t29 -32.5t10 -36q0 -33 -19 -51.5t-49 -18.5q-83 0 -98 124q-70 -6 -107 -62.5t-37 -156.5v-61h221l97 23l15 -9v-462l72 -23v-31h-273v31l68 23
v383h-200v-383z" />
    <glyph glyph-name="f_j" unicode="fj" horiz-adv-x="682" 
d="M258 437v-383l74 -23v-31h-281v31l73 23v383h-100v29l100 40v18q0 85 27 145.5t87 104.5q38 29 82 42t98 13q36 0 64 -9t47 -23.5t29 -32.5t10 -36q0 -33 -19 -51.5t-49 -18.5q-83 0 -98 124q-70 -6 -107 -62.5t-37 -156.5v-61h221l97 23l15 -9v-487q0 -39 -3 -68.5
t-9.5 -52.5t-16.5 -41t-25 -34q-32 -35 -73 -50.5t-92 -15.5q-25 0 -44.5 6.5t-32.5 17t-20 23.5t-7 26q0 27 17 44t43 17q32 0 52.5 -22.5t28.5 -64.5q28 15 38.5 46.5t10.5 91.5v485h-200z" />
    <glyph glyph-name="f_k" unicode="fk" horiz-adv-x="980" 
d="M458 671q-44 24 -56 111q-70 -6 -107 -62.5t-37 -156.5v-61h200v169zM390 0v31l68 23v383h-200v-383l74 -23v-31h-281v31l73 23v383h-100v29l100 40v18q0 85 27 145.5t87 104.5q38 29 82 42t98 13q56 0 94 -22l61 23l18 -11v-534h45l139 156l-61 38v26h230v-31l-71 -28
l-156 -141l194 -251l56 -23v-31h-242v28l42 22l-133 181h-43v-177l59 -23v-31h-260z" />
    <glyph glyph-name="fl" unicode="fl" horiz-adv-x="690" 
d="M663 31v-31h-273v31l68 23v383h-200v-383l74 -23v-31h-281v31l73 23v383h-100v29l100 40v18q0 85 27 145.5t87 104.5q38 29 82 42t98 13q56 0 94 -22l61 23l18 -11v-765zM458 671q-44 24 -56 111q-70 -6 -107 -62.5t-37 -156.5v-61h200v169z" />
    <glyph glyph-name="f_f_b" unicode="ffb" horiz-adv-x="1345" 
d="M754 829q56 0 94 -22l61 23l18 -11v-364l13 -2q36 32 72 50.5t85 18.5q39 0 75.5 -17.5t64 -50t44.5 -80t17 -107.5q0 -56 -20.5 -107.5t-58.5 -91t-92 -63t-122 -23.5q-24 0 -51.5 3t-55 8t-54.5 11.5t-50 14.5v418h-200v-383l74 -23v-31h-276v31l68 23v383h-202v-383
l75 -23v-31h-282v31l73 23v383h-100v29l100 40v27q0 90 30 148.5t92 96.5q71 43 161 43q58 0 92.5 -22t43.5 -51q12 13 31 26q38 29 82 42t98 13zM460 502v22q0 84 26 143q-35 1 -63 24t-43 80q-59 -8 -90.5 -58.5t-31.5 -146.5v-64h202zM1157 232q0 102 -38 152t-108 50
q-23 0 -44 -6.5t-40 -14.5v-328q23 -27 50 -41t61 -14q24 0 45.5 11.5t38 36t26 63t9.5 91.5zM738 782q-70 -6 -107 -62.5t-37 -156.5v-61h200v169q-44 24 -56 111z" />
    <glyph glyph-name="f_f_h" unicode="ffh" horiz-adv-x="1354" 
d="M460 502v22q0 84 26 143q-35 1 -63 24t-43 80q-59 -8 -90.5 -58.5t-31.5 -146.5v-64h202zM794 671q-44 24 -56 111q-70 -6 -107 -62.5t-37 -156.5v-61h200v169zM754 829q56 0 94 -22l61 23l18 -11v-379l11 -3q38 35 83 60t100 25q72 0 108 -42.5t36 -111.5v-314l73 -23
v-31h-271v31l64 23v269q0 51 -21 80t-69 29q-33 0 -58 -8.5t-56 -27.5v-342l64 -23v-31h-265v31l68 23v383h-200v-383l74 -23v-31h-276v31l68 23v383h-202v-383l75 -23v-31h-282v31l73 23v383h-100v29l100 40v27q0 90 30 148.5t92 96.5q71 43 161 43q58 0 92.5 -22t43.5 -51
q12 13 31 26q38 29 82 42t98 13z" />
    <glyph glyph-name="f_f_i" unicode="ffi" horiz-adv-x="1026" 
d="M460 502v22q0 84 26 143q-36 1 -63.5 24t-42.5 80q-59 -8 -90.5 -58.5t-31.5 -146.5v-64h202zM754 829q36 0 64 -9t47 -23.5t29 -32.5t10 -36q0 -33 -19 -51.5t-49 -18.5q-83 0 -98 124q-70 -6 -107 -62.5t-37 -156.5v-61h221l97 23l15 -9v-462l72 -23v-31h-273v31l68 23
v383h-200v-383l74 -23v-31h-276v31l68 23v383h-202v-383l75 -23v-31h-282v31l73 23v383h-100v29l100 40v27q0 90 30 148.5t92 96.5q71 43 161 43q58 0 92.5 -22t43.5 -51q12 13 31 26q38 29 82 42t98 13z" />
    <glyph glyph-name="f_f_j" unicode="ffj" horiz-adv-x="1018" 
d="M460 502v22q0 84 26 143q-36 1 -63.5 24t-42.5 80q-59 -8 -90.5 -58.5t-31.5 -146.5v-64h202zM754 829q36 0 64 -9t47 -23.5t29 -32.5t10 -36q0 -33 -19 -51.5t-49 -18.5q-83 0 -98 124q-70 -6 -107 -62.5t-37 -156.5v-61h221l97 23l15 -9v-487q0 -39 -3 -68.5
t-9.5 -52.5t-16.5 -41t-25 -34q-32 -35 -73 -50.5t-92 -15.5q-25 0 -44.5 6.5t-32.5 17t-20 23.5t-7 26q0 27 17 44t43 17q32 0 52.5 -22.5t28.5 -64.5q28 15 38.5 46.5t10.5 91.5v485h-200v-383l74 -23v-31h-276v31l68 23v383h-202v-383l75 -23v-31h-282v31l73 23v383h-100
v29l100 40v27q0 90 30 148.5t92 96.5q71 43 161 43q58 0 92.5 -22t43.5 -51q12 13 31 26q38 29 82 42t98 13z" />
    <glyph glyph-name="f_f_k" unicode="ffk" horiz-adv-x="1316" 
d="M543 748q12 13 31 26q38 29 82 42t98 13q56 0 94 -22l61 23l18 -11v-534h45l139 156l-61 38v26h230v-31l-71 -28l-156 -141l194 -251l56 -23v-31h-242v28l42 22l-133 181h-43v-177l59 -23v-31h-260v31l68 23v383h-200v-383l74 -23v-31h-276v31l68 23v383h-202v-383
l75 -23v-31h-282v31l73 23v383h-100v29l100 40v27q0 90 30 148.5t92 96.5q71 43 161 43q58 0 92.5 -22t43.5 -51zM794 671q-44 24 -56 111q-70 -6 -107 -62.5t-37 -156.5v-61h200v169zM460 502v22q0 84 26 143q-35 1 -63 24t-43 80q-59 -8 -90.5 -58.5t-31.5 -146.5v-64h202
z" />
    <glyph glyph-name="f_f_l" unicode="ffl" horiz-adv-x="1026" 
d="M543 748q12 13 31 26q38 29 82 42t98 13q56 0 94 -22l61 23l18 -11v-765l72 -23v-31h-273v31l68 23v383h-200v-383l74 -23v-31h-276v31l68 23v383h-202v-383l75 -23v-31h-282v31l73 23v383h-100v29l100 40v27q0 90 30 148.5t92 96.5q71 43 161 43q58 0 92.5 -22t43.5 -51
zM794 502v169q-44 24 -56 111q-70 -6 -107 -62.5t-37 -156.5v-61h200zM460 502v22q0 84 26 143q-35 1 -63 24t-43 80q-59 -8 -90.5 -58.5t-31.5 -146.5v-64h202z" />
    <glyph glyph-name=".notdef" horiz-adv-x="500" 
 />
    <glyph glyph-name="NUL" horiz-adv-x="0" 
 />
    <glyph glyph-name="nonmarkingreturn" horiz-adv-x="247" 
 />
    <glyph glyph-name="space" unicode=" " horiz-adv-x="247" 
 />
    <glyph glyph-name="D" unicode="D" horiz-adv-x="837" 
d="M38 667v34h350q91 0 164 -25t124 -71t78.5 -109.5t27.5 -140.5q0 -79 -29 -144t-81.5 -112t-126.5 -73t-164 -26h-343v34l107 23v587zM615 351q0 81 -19 137t-52.5 91.5t-79.5 51.5t-99 17l-69 2v-598l92 1q50 1 92 17t72 50.5t46.5 91t16.5 139.5z" />
    <glyph glyph-name="E" unicode="E" horiz-adv-x="733" 
d="M651 490l-24 -7l-77 96q-15 19 -28 32t-27 20.5t-32 11t-45 3.5l-122 2v-272h55q22 0 37.5 3.5t27 13.5t20 28t17.5 47l12 35h28v-302h-29l-11 33q-9 28 -18 46t-20 28t-26.5 14t-37.5 4h-55v-273l165 4q24 0 41.5 3.5t31 10.5t25 18.5t23.5 27.5l84 107l24 -4l-25 -220
h-627v34l107 23v587l-107 23v34h592z" />
    <glyph glyph-name="F" unicode="F" horiz-adv-x="688" 
d="M628 483l-78 96q-16 19 -28.5 32t-26 20.5t-31 11t-43.5 3.5l-125 2v-282h54q24 0 40 4.5t27.5 15t19.5 28t17 44.5l11 35h29v-302h-29l-11 33q-9 27 -17.5 44.5t-20 28t-27 15t-39.5 4.5h-54v-259l114 -23v-34h-372v34l107 23v587l-107 23v34h593l21 -211z" />
    <glyph glyph-name="G" unicode="G" horiz-adv-x="797" 
d="M644 468q-28 53 -54.5 90.5t-54 61.5t-56.5 35.5t-62 11.5q-40 0 -75.5 -17.5t-62 -54t-42 -92.5t-15.5 -132q0 -81 18 -141.5t50 -100.5t77.5 -60t100.5 -20q23 0 45 6t39 14v198l-100 23v34h321v-34l-79 -23v-274l-31 -5l-76 52q-43 -26 -90 -41.5t-105 -15.5
q-74 0 -136 26.5t-106.5 74t-69.5 113.5t-25 146q0 77 28.5 145t79 119t120 80.5t152.5 29.5q49 0 91 -9t74 -25l37 38h34l10 -251z" />
    <glyph glyph-name="H" unicode="H" horiz-adv-x="909" 
d="M613 644l-98 23v34h356v-34l-107 -23v-587l107 -23v-34h-356v34l98 23v277h-317v-277l98 -23v-34h-356v34l107 23v587l-107 23v34h356v-34l-98 -23v-251h317v251z" />
    <glyph glyph-name="I" unicode="I" horiz-adv-x="469" 
d="M419 34v-34h-370v34l110 23v587l-110 23v34h370v-34l-109 -23v-587z" />
    <glyph glyph-name="J" unicode="J" horiz-adv-x="602" 
d="M465 261q0 -39 -3.5 -69.5t-11.5 -56t-21.5 -46.5t-32.5 -39q-33 -32 -81 -51t-117 -19q-86 0 -128.5 32t-42.5 80q0 36 24.5 58.5t57.5 22.5q45 0 69.5 -35.5t23.5 -111.5q55 6 84 45.5t29 126.5v446l-109 23v34h365v-34l-106 -23v-383v0z" />
    <glyph glyph-name="K" unicode="K" horiz-adv-x="817" 
d="M716 69l91 -35v-34h-318v28l64 26l-188 271h-69v-268l96 -23v-34h-354v34l107 23v587l-107 23v34h354v-34l-96 -23v-262h78l203 249l-81 41v29h279v-34l-103 -40l-208 -221z" />
    <glyph glyph-name="L" unicode="L" horiz-adv-x="700" 
d="M634 0h-596v34l107 23v587l-107 23v34h369v-34l-111 -23v-591l125 3q24 0 42 4.5t32.5 13.5t28 23t28.5 34l86 115l23 -4z" />
    <glyph glyph-name="M" unicode="M" horiz-adv-x="1079" 
d="M1041 34v-34h-357v34l102 23v552h-15l-224 -609h-88l-231 609h-13v-542l95 -33v-34h-264v34l97 33v575l-97 25v34h306l40 -115l143 -405h15l144 405l39 115h308v-34l-107 -23v-587z" />
    <glyph glyph-name="N" unicode="N" horiz-adv-x="866" 
d="M145 633l-92 33v35h265l79 -114l251 -359h12v404l-101 35v34h269v-34l-96 -35v-639h-100l-79 114l-322 452h-14v-490l102 -35v-34h-269v34l95 35v564z" />
    <glyph glyph-name="O" unicode="O" horiz-adv-x="820" 
d="M764 351q0 -75 -24 -141.5t-70 -117t-112.5 -80t-151.5 -29.5q-88 0 -154 29.5t-109.5 80t-65.5 117t-22 141.5q0 74 24 140.5t70 116.5t112.5 79.5t151.5 29.5q88 0 154 -29.5t110 -79.5t65.5 -116.5t21.5 -140.5zM597 351q0 81 -16 141.5t-43.5 100.5t-63.5 60t-75 20
q-36 0 -68.5 -16t-56.5 -53.5t-38.5 -99.5t-14.5 -153q0 -92 16.5 -154t43.5 -99.5t63 -53.5t75 -16q36 0 68.5 20t57 60t38.5 100.5t14 142.5z" />
    <glyph glyph-name="P" unicode="P" horiz-adv-x="702" 
d="M659 499q0 -48 -19 -87t-52.5 -66t-81 -42t-104.5 -15q-25 0 -54 2t-52 5v-239l116 -23v-34h-374v34l107 23v587l-107 23v34h350q63 0 113 -14.5t85 -40.5t54 -63.5t19 -83.5zM499 498q0 80 -40 116t-108 38h-13h-16t-15 -0.5t-11 -1.5v-306q8 -2 24 -2.5t28 -0.5
q72 0 111.5 36.5t39.5 120.5z" />
    <glyph glyph-name="Q" unicode="Q" horiz-adv-x="820" 
d="M764 351q0 -69 -19.5 -128t-54.5 -104.5t-85 -76.5t-110 -45q30 -48 58.5 -78t56.5 -49q31 -21 64 -32t78 -16l-6 -32h-129q-60 0 -99.5 7.5t-66.5 28.5q-8 6 -15.5 14.5t-16 20.5t-19 28.5t-23.5 40.5l-34 61q-70 11 -124 42t-90.5 78t-55 108t-18.5 132q0 74 24 140.5
t70 116.5t112.5 79.5t151.5 29.5q88 0 154 -29.5t110 -79.5t65.5 -116.5t21.5 -140.5zM597 351q0 81 -16 141.5t-43.5 100.5t-63.5 60t-75 20q-36 0 -68.5 -16t-56.5 -53.5t-38.5 -99.5t-14.5 -153q0 -92 16.5 -154t43.5 -99.5t63 -53.5t75 -16q36 0 68.5 20t57 60
t38.5 100.5t14 142.5z" />
    <glyph glyph-name="R" unicode="R" horiz-adv-x="766" 
d="M670 525q0 -66 -51.5 -112.5t-154.5 -64.5v-14q60 -13 94 -44t52 -75q20 -49 37.5 -82.5t36.5 -54.5q17 -18 38.5 -28.5t50.5 -15.5v-34h-128q-32 0 -54.5 6t-39 20.5t-29.5 37.5t-28 56l-52 114q-20 47 -46.5 63.5t-71.5 16.5h-28v-257l105 -23v-34h-363v34l107 23v587
l-107 23v34h374q121 0 189.5 -47t68.5 -129zM514 510q0 73 -42.5 106t-112.5 35h-15t-18.5 -0.5t-17.5 -1t-12 -1.5v-284l66 1q34 0 62 9t48 27t31 45t11 64z" />
    <glyph glyph-name="S" unicode="S" horiz-adv-x="617" 
d="M560 212q0 -55 -20.5 -97.5t-55 -72t-79.5 -44.5t-94 -15q-50 0 -94 11t-76 27l-31 -38h-36l-14 245l39 2q25 -60 49.5 -98.5t49.5 -61t52 -31.5t59 -9q58 0 93 31.5t35 83.5q0 24 -6 42.5t-21 34.5t-40 30.5t-63 30.5q-27 11 -53.5 21.5t-52.5 23.5q-59 29 -90.5 72
t-31.5 109q0 47 18 85.5t49 65.5t71.5 42t85.5 15q47 0 79.5 -10t59.5 -26l33 38h35l19 -216l-38 -3q-23 47 -44 79.5t-42.5 52.5t-45.5 29t-52 9q-45 0 -74 -26.5t-29 -74.5q0 -41 23 -69t81 -54q29 -13 59.5 -24.5t61.5 -26.5q67 -32 99 -77t32 -106z" />
    <glyph glyph-name="T" unicode="T" horiz-adv-x="771" 
d="M712 458l-73 99q-20 27 -35 45t-29.5 28.5t-29.5 15t-36 5.5h-45v-594l113 -23v-34h-377v34l113 23v594h-50q-20 -1 -35.5 -6t-30 -16t-29.5 -28.5t-34 -43.5l-73 -99l-26 6l35 237h633l35 -237z" />
    <glyph glyph-name="U" unicode="U" horiz-adv-x="837" 
d="M551 667v34h254v-34l-92 -33v-388q0 -58 -18.5 -106.5t-54.5 -83.5t-88.5 -54.5t-119.5 -19.5q-146 0 -223 63t-77 196v403l-102 23v34h361v-34l-108 -23v-395q0 -104 49 -150t136 -46q42 0 74 14.5t53.5 40t33 60.5t11.5 77v389z" />
    <glyph glyph-name="V" unicode="V" horiz-adv-x="784" 
d="M440 -7h-82l-260 645l-93 29v34h364v-34l-106 -23l180 -482l178 468l-87 37v34h249v-34l-84 -40z" />
    <glyph glyph-name="W" unicode="W" horiz-adv-x="1131" 
d="M827 186h5l135 447l-79 36v32h240v-34l-87 -39l-216 -635h-77l-170 481h-5l-186 -481h-77l-206 645l-96 29v34h344v-32l-90 -23l133 -462h3l146 388l-24 69l-79 28v32h322v-32l-88 -25z" />
    <glyph glyph-name="X" unicode="X" horiz-adv-x="815" 
d="M474 382l226 -323l88 -25v-34h-351v30l91 22l-147 233l-162 -227l78 -28v-30h-262v34l93 30l217 265l-217 312l-90 26v34h356v-31l-93 -20l138 -224l155 216l-78 28v31h263v-34l-95 -30z" />
    <glyph glyph-name="Y" unicode="Y" horiz-adv-x="775" 
d="M473 308v-247l113 -27v-34h-376v34l112 27v224l-212 350l-96 32v34h347v-32l-86 -26l167 -285l157 278l-78 33v32h247v-34l-87 -33z" />
    <glyph glyph-name="Z" unicode="Z" horiz-adv-x="727" 
d="M652 0h-605l-4 25l444 621l-178 -2q-23 0 -40 -4t-32 -13t-29 -24t-31 -37l-72 -89l-25 6l22 218h565l5 -25l-442 -622l220 2q22 0 38 4.5t29.5 13t25.5 22t25 32.5l84 120l23 -4z" />
    <glyph glyph-name="a" unicode="a" horiz-adv-x="565" 
d="M473 100q0 -28 17.5 -42.5t67.5 -15.5l3 -26q-23 -10 -57 -19t-67 -9q-37 0 -57.5 17.5t-26.5 58.5l-13 2q-38 -37 -75.5 -57t-82.5 -20q-60 0 -97 31.5t-37 88.5q0 73 76 119t222 57v64q0 63 -27 87.5t-90 24.5q-20 0 -36 -4t-28 -9q16 -13 25 -27.5t9 -32.5
q0 -26 -17.5 -44t-47.5 -18q-29 0 -48 19t-19 46q0 29 20.5 53t54.5 41.5t76 27t86 9.5q88 0 128.5 -36.5t40.5 -117.5v-268zM346 250q-47 -2 -79.5 -10.5t-53 -22.5t-30 -32.5t-9.5 -40.5q0 -39 21 -59.5t60 -20.5q19 0 42.5 8.5t48.5 24.5v153z" />
    <glyph glyph-name="b" unicode="b" horiz-adv-x="635" 
d="M588 267q0 -56 -20.5 -107.5t-58.5 -91t-92 -63t-122 -23.5q-24 0 -51.5 3t-55 8t-54.5 11.5t-50 14.5v688l-80 45v27l195 51l19 -11v-364l13 -2q35 32 71.5 50.5t85.5 18.5q39 0 75 -17.5t64 -50t44.5 -80t16.5 -107.5zM448 232q0 102 -38.5 152t-107.5 50
q-23 0 -44 -6.5t-40 -14.5v-328q23 -27 49.5 -41t60.5 -14q24 0 45.5 11.5t38 36t26.5 63t10 91.5z" />
    <glyph glyph-name="c" unicode="c" horiz-adv-x="546" 
d="M504 407q0 -34 -20 -56t-52 -22q-35 0 -55.5 24t-20.5 59q0 17 4 31.5t10 27.5q-6 2 -12 3t-15 1q-32 -1 -61 -15t-51 -41t-35.5 -67t-13.5 -93q0 -47 14 -83t38 -60t57 -36.5t71 -12.5q37 0 66 8t68 25l12 -24q-91 -94 -208 -94q-54 0 -101 18.5t-81.5 52.5t-54 81.5
t-19.5 104.5q0 60 21.5 111.5t59.5 89.5t90.5 60t114.5 22q40 0 72.5 -9t55 -25t34.5 -36.5t12 -44.5z" />
    <glyph glyph-name="d" unicode="d" horiz-adv-x="651" 
d="M624 50v-25l-182 -45l-19 12l8 74l-13 2l-1 -1q-35 -34 -77 -59t-97 -25q-38 0 -73.5 17.5t-62.5 50t-43.5 78.5t-16.5 103q0 61 20.5 114t58.5 92.5t92 62t120 22.5q21 0 40.5 -2.5t38.5 -7.5v194l-80 45v27l196 51l18 -11v-725zM188 270q0 -99 35.5 -150t101.5 -51
q23 0 46 8.5t46 22.5v316q-23 29 -50 44t-62 15q-24 0 -45.5 -12t-37.5 -36.5t-25 -63.5t-9 -93z" />
    <glyph glyph-name="e" unicode="e" horiz-adv-x="569" 
d="M179 264q0 -95 42 -147t130 -52q39 0 75 9t85 30l12 -26q-53 -45 -109.5 -70.5t-112.5 -25.5q-59 0 -106 19t-81 53t-52 82t-18 107q0 60 21 111t57 88.5t83.5 58.5t99.5 21q61 0 104 -21t70 -56.5t38.5 -82t10.5 -98.5h-349zM394 312q-3 167 -98 167q-49 0 -80.5 -47
t-35.5 -130z" />
    <glyph glyph-name="f" unicode="f" horiz-adv-x="403" 
d="M258 437v-383l90 -23v-31h-297v31l73 23v383h-100v29l100 40v46q0 83 25.5 136.5t76.5 90.5q35 26 74 38t81 12q56 0 85.5 -24.5t29.5 -56.5q0 -30 -18 -47.5t-47 -17.5q-32 0 -57 21.5t-47 72.5q-35 -22 -52 -64t-17 -124v-87h140v-65h-140z" />
    <glyph glyph-name="g" unicode="g" horiz-adv-x="585" 
d="M488 350q0 -37 -15.5 -67.5t-43.5 -52.5t-67.5 -34.5t-88.5 -12.5q-28 0 -46.5 2.5t-34.5 8.5q-9 -11 -16.5 -25.5t-7.5 -26.5q0 -22 17 -32t58 -11l136 -3q175 -3 175 -128q0 -40 -21 -76.5t-59.5 -64.5t-94 -44.5t-124.5 -16.5q-122 0 -180.5 34t-58.5 82
q0 33 27.5 62.5t81.5 50.5l-1 11q-66 22 -66 72q0 28 23.5 57.5t72.5 65.5v7q-45 22 -72 59t-27 86q0 39 17 70.5t47 53t70 33.5t87 12q56 0 91 -13.5t64 -33.5l89 47h63v-97h-22l-96 19l-3 -8q12 -18 19 -39t7 -47zM362 356q0 63 -23.5 96t-67.5 33q-40 0 -65.5 -29.5
t-25.5 -102.5q0 -39 6.5 -64.5t19 -41t30 -21.5t40.5 -6q39 0 62.5 35t23.5 101zM462 -86q0 39 -30 56t-93 18l-179 2q-14 -14 -22.5 -33.5t-8.5 -43.5q0 -46 39.5 -74t126.5 -28q36 0 66.5 8.5t53 22.5t35 32.5t12.5 39.5z" />
    <glyph glyph-name="h" unicode="h" horiz-adv-x="664" 
d="M441 323q0 51 -20.5 80t-69.5 29q-32 0 -57 -8.5t-56 -27.5v-342l63 -23v-31h-270v31l73 23v653l-80 45v27l196 51l18 -11v-379l10 -3q38 35 83.5 60t100.5 25q71 0 107 -42.5t36 -111.5v-314l74 -23v-31h-271v31l63 23v269v0z" />
    <glyph glyph-name="i" unicode="i" horiz-adv-x="343" 
d="M89 717q0 18 6.5 34.5t18.5 29t28.5 20.5t36.5 8q38 0 61.5 -24.5t23.5 -60.5q0 -18 -7 -34.5t-19 -29t-28.5 -20t-36.5 -7.5q-36 0 -60 24t-24 60zM39 455v26l190 44l16 -9v-462l71 -23v-31h-280v31l75 23v356z" />
    <glyph glyph-name="j" unicode="j" horiz-adv-x="334" 
d="M88 717q0 18 7 34.5t19 29.5t28.5 20.5t35.5 7.5q37 0 61 -24.5t24 -60.5t-25.5 -63.5t-64.5 -27.5q-37 0 -61 24t-24 60zM244 29q0 -39 -3 -68.5t-9.5 -52.5t-17 -41t-25.5 -34q-32 -35 -72.5 -50.5t-91.5 -15.5q-25 0 -44.5 6.5t-32.5 17t-20 23.5t-7 26q0 27 17 44
t43 17q31 0 51.5 -22.5t29.5 -64.5q28 15 38 46.5t10 91.5v458l-72 45v26l191 44l15 -9v-487z" />
    <glyph glyph-name="k" unicode="k" horiz-adv-x="627" 
d="M558 54l56 -23v-31h-243v28l42 22l-132 181h-43v-177l58 -23v-31h-265v31l73 23v653l-80 45v27l196 51l18 -11v-534h45l138 156l-61 38v26h231v-31l-71 -28l-156 -141z" />
    <glyph glyph-name="l" unicode="l" horiz-adv-x="339" 
d="M312 31v-31h-280v31l75 23v653l-79 45v27l194 51l19 -11v-765z" />
    <glyph glyph-name="m" unicode="m" horiz-adv-x="973" 
d="M752 321q0 54 -18.5 82.5t-64.5 28.5q-30 0 -54 -10.5t-53 -28.5v-339l65 -23v-31h-258v31l60 23v267q0 53 -18.5 82t-64.5 29q-30 0 -53 -9.5t-52 -26.5v-342l63 -23v-31h-269v31l73 23v356l-73 45v26l183 44l19 -12l-8 -82l13 -2q51 48 94 70.5t90 22.5q28 0 49.5 -7.5
t36.5 -20t24.5 -29.5t15.5 -35l12 -3q48 45 92 70t92 25q66 0 101 -41t35 -113v-314l74 -23v-31h-267v31l61 23v267v0z" />
    <glyph glyph-name="n" unicode="n" horiz-adv-x="662" 
d="M572 54l74 -23v-31h-271v31l64 23v269q0 51 -20.5 80t-68.5 29q-30 0 -54 -9.5t-54 -26.5v-342l63 -23v-31h-270v31l73 23v356l-73 45v26l185 44l18 -12l-8 -82l13 -2q51 48 96 70.5t91 22.5q69 0 105.5 -40.5t36.5 -113.5v-314z" />
    <glyph glyph-name="o" unicode="o" horiz-adv-x="622" 
d="M579 254q0 -52 -18 -101t-53 -87t-86.5 -61t-117.5 -23q-65 0 -113.5 21.5t-81 58t-49 86t-16.5 105.5q0 52 18 100.5t53.5 86t86.5 60t117 22.5q65 0 114 -21t81.5 -57t48.5 -85t16 -105zM433 254q0 109 -33 166t-91 57q-55 0 -87.5 -57.5t-32.5 -168.5
q0 -109 34 -165.5t90 -56.5q57 0 88.5 57t31.5 168z" />
    <glyph glyph-name="p" unicode="p" horiz-adv-x="651" 
d="M604 273q0 -56 -19.5 -108.5t-56 -93t-89.5 -65t-120 -24.5q-46 0 -85 10v-168l87 -27v-31h-295v31l74 27v586l-73 44v26l184 45l19 -12l-8 -74l13 -2q37 37 77.5 61t90.5 24q42 0 78.5 -18t63.5 -51t43 -79t16 -101zM463 236q0 101 -36.5 149.5t-101.5 48.5
q-23 0 -45 -8t-46 -22v-315q23 -29 49 -44t63 -15q23 0 44 11.5t37.5 36t26 63.5t9.5 95z" />
    <glyph glyph-name="q" unicode="q" horiz-adv-x="635" 
d="M330 -234v31l87 27v224l-13 2l-1 -1q-36 -31 -71.5 -49t-80.5 -18q-40 0 -76.5 17t-65 50t-45.5 80.5t-17 107.5q0 57 21 109t59 91t92 62t119 23q66 0 133 -23l52 50l28 -6v-719l73 -27v-31h-294zM332 71q47 0 85 21v326q-22 27 -48 41.5t-60 14.5q-24 0 -45.5 -11
t-38.5 -35.5t-27 -63t-10 -92.5q0 -100 37.5 -150.5t106.5 -50.5z" />
    <glyph glyph-name="r" unicode="r" horiz-adv-x="504" 
d="M483 438q0 -36 -22 -60t-54 -24t-50.5 21.5t-20.5 50.5q-27 -4 -51 -23t-43 -46v-303l80 -23v-31h-287v31l73 23v356l-73 45v26l185 44l18 -12l-12 -106l14 -3q35 57 70.5 88t83.5 31q39 0 64 -23.5t25 -61.5z" />
    <glyph glyph-name="s" unicode="s" horiz-adv-x="488" 
d="M444 157q0 -40 -16 -72t-44.5 -54.5t-67 -34.5t-83.5 -12q-54 0 -96 7.5t-83 23.5l-2 147l33 2q21 -39 40 -65.5t38 -42.5t39.5 -23t44.5 -7q41 0 65 20t24 58q0 33 -28 54t-97 48q-33 13 -61.5 26.5t-49 31.5t-32 42t-11.5 57t14 62t40 50.5t63.5 34.5t84.5 13
q50 0 87 -6.5t63 -15.5l4 -131l-32 -5q-38 65 -69 90.5t-71 25.5q-36 0 -58 -20t-22 -48q0 -16 6 -28t19 -22.5t34 -20.5t52 -22q44 -16 76.5 -31.5t53.5 -34.5t31.5 -42.5t10.5 -54.5z" />
    <glyph glyph-name="t" unicode="t" horiz-adv-x="424" 
d="M411 38q-17 -10 -38 -19.5t-45 -16.5t-48.5 -11t-48.5 -4q-64 0 -96 32t-32 100v318h-87v29l106 68l75 128h39v-154h171v-71h-171v-270q0 -34 6.5 -54.5t23.5 -31.5q14 -10 31 -13.5t45 -3.5q14 0 31.5 1.5t35.5 3.5l2 -31v0z" />
    <glyph glyph-name="u" unicode="u" horiz-adv-x="656" 
d="M627 52v-27l-185 -43l-18 11l8 81l-13 2q-51 -48 -94.5 -70.5t-92.5 -22.5q-35 0 -61.5 11.5t-44.5 32.5t-27 49.5t-9 62.5v275l-73 44v23l188 44l19 -12v-328q0 -54 20 -83t68 -29q30 0 54.5 9.5t53.5 26.5v305l-73 44v23l188 44l19 -12v-426z" />
    <glyph glyph-name="v" unicode="v" horiz-adv-x="600" 
d="M337 141h7l53 135l56 165l-69 35v29h219v-31l-76 -37l-191 -449h-71l-197 460l-68 26v31h288v-29l-70 -26z" />
    <glyph glyph-name="w" unicode="w" horiz-adv-x="908" 
d="M640 140h5l111 302l-64 35v28h216v-31l-77 -37l-196 -449h-55l-116 305l-151 -305h-56l-182 460l-68 26v31h271v-28l-62 -26l111 -318h5l105 227l-34 91l-57 26v28h259v-28l-68 -26z" />
    <glyph glyph-name="x" unicode="x" horiz-adv-x="616" 
d="M432 451l-54 28v26h205v-31l-76 -32l-144 -170l169 -218l64 -23v-31h-282v26l67 24l-102 152l-105 -148l55 -28v-26h-204v31l74 32l147 174l-162 214l-66 23v31h281v-26l-65 -23l97 -150z" />
    <glyph glyph-name="y" unicode="y" horiz-adv-x="593" 
d="M318 -60q-20 -48 -40 -81t-42.5 -54t-47.5 -30t-55 -9q-47 0 -70.5 22.5t-23.5 51.5q0 28 20 46.5t49 18.5t48.5 -16t36.5 -44q34 31 60 82l22 48l-207 473l-68 26v31h286v-29l-68 -28l120 -311h6l107 304l-71 35v29h216v-31l-72 -37z" />
    <glyph glyph-name="z" unicode="z" horiz-adv-x="564" 
d="M199 51h184l107 132l31 -7l-16 -176h-466l-6 23l328 431h-172l-98 -131l-30 6l12 176h448l7 -22z" />
    <glyph glyph-name="a.sc" horiz-adv-x="641" 
d="M285 444h-12l-79 -224h170zM138 61l72 -32v-29h-216v31l76 36l193 496h114l188 -506l67 -26v-31h-285v29l75 24l-41 118h-204z" />
    <glyph glyph-name="b.sc" horiz-adv-x="631" 
d="M586 154q0 -34 -14.5 -62.5t-41.5 -48.5t-65 -31.5t-85 -11.5h-338v31l82 22v448l-82 21v32h320q102 0 150.5 -35.5t48.5 -87.5q0 -53 -38.5 -84.5t-109.5 -46.5v-13q83 -10 128 -43t45 -90zM314 311q54 1 82.5 30t28.5 72q0 27 -9 45t-24 29t-35.5 16.5t-43.5 5.5h-12
t-14.5 -0.5t-13.5 -1t-9 -0.5v-196h50zM440 153q0 56 -33 84t-94 30h-49v-218q10 -2 25.5 -3.5t29.5 -1.5q121 0 121 109z" />
    <glyph glyph-name="c.sc" horiz-adv-x="639" 
d="M563 26q-42 -18 -92 -30.5t-106 -12.5q-69 0 -127 18.5t-100 54.5t-65.5 89.5t-23.5 123.5q0 67 24 123t66 95.5t99.5 61.5t125.5 22q37 0 74 -9t63 -21l28 33h31l14 -214l-47 -2q-22 47 -42 79t-40.5 51t-42 27t-46.5 8q-31 0 -59 -14t-49 -43.5t-33.5 -75t-12.5 -108.5
q0 -66 15.5 -113t41 -76.5t59 -43.5t69.5 -14q16 0 32.5 3t29.5 8l94 159l38 -7z" />
    <glyph glyph-name="d.sc" horiz-adv-x="698" 
d="M42 522v32h294q73 0 131.5 -19.5t99.5 -55t62.5 -86t21.5 -112.5q0 -61 -22.5 -112.5t-64 -89t-101.5 -58.5t-135 -21h-286v31l82 21v449zM497 277q0 60 -13.5 103t-37 71t-56.5 41.5t-72 14.5h-54v-460l67 1q36 1 66.5 13.5t52.5 40t34.5 70.5t12.5 105z" />
    <glyph glyph-name="e.sc" horiz-adv-x="621" 
d="M559 376l-29 -5l-59 79q-20 28 -43.5 40.5t-64.5 13.5l-99 1v-200h30q34 0 56.5 15t37.5 50l10 23h32v-226h-32l-11 25q-14 32 -36.5 48.5t-56.5 16.5h-30v-208l123 1q35 1 57.5 12.5t39.5 34.5l70 93l28 -5l-20 -185h-520v31l82 22v448l-82 21v32h502z" />
    <glyph glyph-name="f.sc" horiz-adv-x="592" 
d="M532 363l-60 84q-20 29 -44.5 42.5t-64.5 14.5l-99 1v-213h31q32 0 54 15t37 51l11 23h31v-226h-31l-11 24q-29 65 -91 65h-31v-191l89 -22v-31h-311v31l82 22v448l-82 21v32h504l13 -186z" />
    <glyph glyph-name="g.sc" horiz-adv-x="664" 
d="M520 364q-44 85 -83.5 122t-85.5 37q-28 0 -54.5 -12.5t-47.5 -39.5t-34 -70.5t-13 -105.5q0 -70 15.5 -118t41 -77.5t57 -42.5t63.5 -13q17 0 34.5 5t30.5 13v152l-88 20v32h274v-29l-57 -21v-225l-31 -2l-64 47q-29 -23 -69 -38t-82 -15q-60 0 -111 20.5t-88 58
t-58 89.5t-21 116q0 68 24.5 124t66.5 96t98 62t119 22q38 0 73.5 -7.5t62.5 -21.5l28 32h35l10 -207z" />
    <glyph glyph-name="h.sc" horiz-adv-x="761" 
d="M496 502l-73 20v32h296v-32l-83 -21v-448l83 -22v-31h-296v31l73 21v207h-232v-207l73 -21v-31h-295v31l82 22v448l-82 21v32h295v-32l-73 -20v-189h232v189z" />
    <glyph glyph-name="i.sc" horiz-adv-x="420" 
d="M366 31v-31h-312v31l86 22v448l-86 21v32h312v-32l-86 -21v-448z" />
    <glyph glyph-name="j.sc" horiz-adv-x="525" 
d="M417 226q0 -67 -14.5 -109.5t-47.5 -73.5q-30 -28 -74 -44.5t-110 -16.5q-69 0 -111.5 27.5t-42.5 75.5q0 32 21 53.5t53 21.5q88 0 85 -134q48 7 75.5 43t27.5 112v320l-92 21v32h310v-32l-80 -21v-275v0z" />
    <glyph glyph-name="k.sc" horiz-adv-x="695" 
d="M612 58l68 -27v-31h-275v25l55 23l-136 206h-60v-203l70 -20v-31h-292v31l82 22v448l-82 21v32h293v-31l-71 -20v-196h68l144 182l-68 34v31h250v-32l-91 -36l-149 -156z" />
    <glyph glyph-name="l.sc" horiz-adv-x="587" 
d="M528 0h-486v31l82 22v448l-82 21v32h308v-32l-86 -21v-452l73 1q19 1 33.5 4.5t26.5 11.5t23.5 20t25.5 30l79 105l25 -4z" />
    <glyph glyph-name="m.sc" horiz-adv-x="900" 
d="M858 31v-31h-287v31l70 22v423h-17l-157 -476h-95l-168 475h-16v-413l76 -31v-31h-219v31l77 31v439l-77 21v32h280l30 -93l99 -300h9l92 300l28 93h275v-32l-80 -21v-448z" />
    <glyph glyph-name="n.sc" horiz-adv-x="726" 
d="M124 493l-74 28v33h230l60 -94l199 -294h9v324l-83 32v32h228v-32l-79 -32v-496h-122l-70 107l-220 322h-12v-359l84 -33v-31h-228v31l78 33v429z" />
    <glyph glyph-name="o.sc" horiz-adv-x="687" 
d="M640 277q0 -58 -19 -111.5t-56.5 -94t-93.5 -64.5t-129 -24q-77 0 -132.5 24t-91.5 64.5t-53 94t-17 111.5t19 111.5t57 94t93.5 64.5t129.5 24q76 0 131 -24t91 -64.5t53.5 -94t17.5 -111.5zM486 277q0 64 -12 111t-32 78t-47 46.5t-58 15.5q-28 0 -53 -13t-43.5 -42
t-29 -77.5t-10.5 -118.5q0 -71 12 -119t32.5 -77.5t48 -42t57.5 -12.5q28 0 52.5 15.5t43 47t29 78.5t10.5 110z" />
    <glyph glyph-name="p.sc" horiz-adv-x="606" 
d="M571 386q0 -42 -16 -74.5t-45.5 -55.5t-71 -35t-92.5 -12q-21 0 -43 1.5t-39 3.5v-162l93 -21v-31h-315v31l82 21v449l-82 21v32h295q112 0 173 -44t61 -124zM422 384q0 63 -30 92t-87 31h-21.5t-19.5 -1v-250q5 -1 18 -1h21q58 0 88.5 31.5t30.5 97.5z" />
    <glyph glyph-name="q.sc" horiz-adv-x="687" 
d="M640 277q0 -49 -14 -94.5t-41.5 -83t-68 -64.5t-93.5 -39q24 -35 43 -53.5t38 -31.5q23 -16 49.5 -24.5t68.5 -13.5l-6 -32h-118q-54 0 -85.5 6.5t-51.5 23.5q-13 10 -24.5 25.5t-28.5 46.5l-27 48q-60 9 -104 35.5t-72.5 65t-42.5 86t-14 99.5q0 58 19 111.5t57 94
t93.5 64.5t129.5 24q76 0 131 -24t91 -64.5t53.5 -94t17.5 -111.5zM486 277q0 64 -12 111t-32 78t-47 46.5t-58 15.5q-28 0 -53 -13t-43.5 -42t-29 -77.5t-10.5 -118.5q0 -71 12 -119t32.5 -77.5t48 -42t57.5 -12.5q28 0 52.5 15.5t43 47t29 78.5t10.5 110z" />
    <glyph glyph-name="r.sc" horiz-adv-x="653" 
d="M576 416q0 -54 -42 -93t-129 -53v-12q53 -8 81 -28t44 -60q16 -39 29 -64t27 -42q13 -14 27.5 -21t35.5 -13v-30h-124q-41 0 -64.5 19.5t-44.5 72.5l-34 88q-14 36 -35 47.5t-63 11.5h-20v-189l82 -21v-29h-304v31l82 22v448l-82 21v32h327q104 0 155.5 -36.5
t51.5 -101.5zM430 400q0 53 -30 79t-85 27h-28.5t-22.5 -1v-219l47 1q51 1 85 28.5t34 84.5z" />
    <glyph glyph-name="s.sc" horiz-adv-x="551" 
d="M500 167q0 -46 -18 -80.5t-48 -57.5t-68 -34.5t-77 -11.5q-44 0 -87.5 10t-76.5 24l-25 -33h-35l-8 204l44 3q48 -91 93.5 -127.5t96.5 -36.5q43 0 70.5 23.5t27.5 62.5q0 38 -24.5 58t-73.5 38q-24 9 -49.5 17t-50.5 19q-24 10 -45.5 23.5t-37.5 31t-25.5 40.5t-9.5 53
q0 43 16.5 76t44 55.5t63 34.5t72.5 12q38 0 71 -8.5t62 -23.5l26 34h34l13 -182l-44 -5q-43 79 -82 109.5t-79 30.5q-39 0 -61.5 -21t-22.5 -55q0 -36 21.5 -55t63.5 -35q23 -10 50 -18t53 -19q25 -10 47.5 -23t40 -31t28 -43t10.5 -59z" />
    <glyph glyph-name="t.sc" horiz-adv-x="644" 
d="M577 341l-55 85q-15 22 -26 37t-22 24t-23 13t-28 5h-29v-452l87 -22v-31h-314v31l87 22v452h-33q-15 -1 -27 -5.5t-23.5 -13.5t-22.5 -24t-25 -36l-54 -85l-31 6l19 207h533l18 -207z" />
    <glyph glyph-name="u.sc" horiz-adv-x="700" 
d="M456 522v32h216v-32l-75 -31v-289q0 -102 -59.5 -160.5t-175.5 -58.5q-121 0 -187 52.5t-66 166.5v299l-77 21v32h298v-32l-80 -21v-293q0 -43 10.5 -73t29 -49t45 -27.5t59.5 -8.5q66 0 102 41.5t36 110.5v289z" />
    <glyph glyph-name="v.sc" horiz-adv-x="651" 
d="M381 -9h-97l-202 505l-74 26v32h303v-32l-79 -21l142 -392l132 374l-75 39v32h226v-32l-78 -40z" />
    <glyph glyph-name="w.sc" horiz-adv-x="930" 
d="M420 500l-56 22v32h268v-33l-69 -21l112 -361h5l105 346l-75 37v32h221v-32l-75 -41l-169 -490h-92l-115 333h-5l-135 -333h-90l-160 505l-71 26v32h281v-32l-69 -20l105 -363h5l109 273z" />
    <glyph glyph-name="x.sc" horiz-adv-x="662" 
d="M469 494l-61 32v28h229v-32l-80 -29l-155 -196l173 -244l69 -22v-31h-301v29l69 22l-108 176l-113 -168l61 -31v-28h-228v31l79 29l163 202l-169 239l-70 21v32h302v-29l-69 -22l103 -169z" />
    <glyph glyph-name="y.sc" horiz-adv-x="643" 
d="M397 237v-184l87 -22v-31h-313v31l86 22v165l-165 274l-75 30v32h297v-29l-73 -24l125 -216l117 209l-68 31v29h218v-32l-73 -30z" />
    <glyph glyph-name="z.sc" horiz-adv-x="611" 
d="M545 0h-500l-5 40l357 462h-126q-39 -1 -64.5 -15.5t-53.5 -54.5l-56 -80l-31 5l18 197h473l5 -40l-356 -462l156 1q38 0 61 15t45 50l62 102l31 -5z" />
    <glyph glyph-name="Aacute" unicode="&#xc1;" horiz-adv-x="781" 
d="M775 34v-34h-338v31l96 23l-64 179h-245l-61 -172l77 -30v-31h-237v34l86 33l249 640h105l245 -644zM351 565h-10l-99 -280h209zM503 1015q23 -16 26 -42t-16 -53q-16 -24 -55 -60.5t-86 -75.5l-26 18q18 63 34.5 111.5t30.5 71.5q17 27 43 35.5t49 -5.5z" />
    <glyph glyph-name="aacute" unicode="&#xe1;" horiz-adv-x="565" 
d="M473 100q0 -28 17.5 -42.5t67.5 -15.5l3 -26q-23 -10 -57 -19t-67 -9q-37 0 -57.5 17.5t-26.5 58.5l-13 2q-38 -37 -75.5 -57t-82.5 -20q-60 0 -97 31.5t-37 88.5q0 73 76 119t222 57v64q0 63 -27 87.5t-90 24.5q-20 0 -36 -4t-28 -9q16 -13 25 -27.5t9 -32.5
q0 -26 -17.5 -44t-47.5 -18q-29 0 -48 19t-19 46q0 29 20.5 53t54.5 41.5t76 27t86 9.5q88 0 128.5 -36.5t40.5 -117.5v-268zM346 250q-47 -2 -79.5 -10.5t-53 -22.5t-30 -32.5t-9.5 -40.5q0 -39 21 -59.5t60 -20.5q19 0 42.5 8.5t48.5 24.5v153zM395 825q24 -16 27 -42
t-16 -55q-17 -24 -56.5 -61t-87.5 -76l-26 18q18 63 35 112.5t31 73.5q17 28 43.5 36.5t49.5 -6.5z" />
    <glyph glyph-name="aacute.sc" horiz-adv-x="641" 
d="M433 866q24 -16 27 -42t-16 -55q-17 -24 -56.5 -61t-87.5 -76l-26 18q18 63 35 112.5t31 73.5q17 28 43.5 36.5t49.5 -6.5zM285 444h-12l-79 -224h170zM138 61l72 -32v-29h-216v31l76 36l193 496h114l188 -506l67 -26v-31h-285v29l75 24l-41 118h-204z" />
    <glyph glyph-name="Abreve" unicode="&#x102;" horiz-adv-x="781" 
d="M775 34v-34h-338v31l96 23l-64 179h-245l-61 -172l77 -30v-31h-237v34l86 33l249 640h105l245 -644zM351 565h-10l-99 -280h209zM394 890q48 0 76 26t48 76l36 -11q-9 -94 -50 -141.5t-110 -47.5t-110.5 47.5t-49.5 141.5l37 11q17 -50 46 -76t77 -26z" />
    <glyph glyph-name="abreve" unicode="&#x103;" horiz-adv-x="565" 
d="M473 100q0 -28 17.5 -42.5t67.5 -15.5l3 -26q-23 -10 -57 -19t-67 -9q-37 0 -57.5 17.5t-26.5 58.5l-13 2q-38 -37 -75.5 -57t-82.5 -20q-60 0 -97 31.5t-37 88.5q0 73 76 119t222 57v64q0 63 -27 87.5t-90 24.5q-20 0 -36 -4t-28 -9q16 -13 25 -27.5t9 -32.5
q0 -26 -17.5 -44t-47.5 -18q-29 0 -48 19t-19 46q0 29 20.5 53t54.5 41.5t76 27t86 9.5q88 0 128.5 -36.5t40.5 -117.5v-268zM346 250q-47 -2 -79.5 -10.5t-53 -22.5t-30 -32.5t-9.5 -40.5q0 -39 21 -59.5t60 -20.5q19 0 42.5 8.5t48.5 24.5v153zM284 698q48 0 77 26.5
t49 77.5l38 -11q-10 -95 -51.5 -143.5t-112.5 -48.5q-70 0 -112.5 48.5t-50.5 143.5l38 11q18 -51 47.5 -77.5t77.5 -26.5z" />
    <glyph glyph-name="abreve.sc" horiz-adv-x="641" 
d="M285 444h-12l-79 -224h170zM138 61l72 -32v-29h-216v31l76 36l193 496h114l188 -506l67 -26v-31h-285v29l75 24l-41 118h-204zM322 739q48 0 77 26.5t49 77.5l38 -11q-10 -95 -51.5 -143.5t-112.5 -48.5q-70 0 -112.5 48.5t-50.5 143.5l38 11q18 -51 47.5 -77.5
t77.5 -26.5z" />
    <glyph glyph-name="Acircumflex" unicode="&#xc2;" horiz-adv-x="781" 
d="M775 34v-34h-338v31l96 23l-64 179h-245l-61 -172l77 -30v-31h-237v34l86 33l249 640h105l245 -644zM351 565h-10l-99 -280h209zM263 781l-27 24l131 205h60l122 -205l-26 -24l-130 114z" />
    <glyph glyph-name="acircumflex" unicode="&#xe2;" horiz-adv-x="565" 
d="M473 100q0 -28 17.5 -42.5t67.5 -15.5l3 -26q-23 -10 -57 -19t-67 -9q-37 0 -57.5 17.5t-26.5 58.5l-13 2q-38 -37 -75.5 -57t-82.5 -20q-60 0 -97 31.5t-37 88.5q0 73 76 119t222 57v64q0 63 -27 87.5t-90 24.5q-20 0 -36 -4t-28 -9q16 -13 25 -27.5t9 -32.5
q0 -26 -17.5 -44t-47.5 -18q-29 0 -48 19t-19 46q0 29 20.5 53t54.5 41.5t76 27t86 9.5q88 0 128.5 -36.5t40.5 -117.5v-268zM346 250q-47 -2 -79.5 -10.5t-53 -22.5t-30 -32.5t-9.5 -40.5q0 -39 21 -59.5t60 -20.5q19 0 42.5 8.5t48.5 24.5v153zM150 587l-27 25l133 209h62
l124 -209l-27 -25l-132 116z" />
    <glyph glyph-name="acircumflex.sc" horiz-adv-x="641" 
d="M188 628l-27 25l133 209h62l124 -209l-27 -25l-132 116zM285 444h-12l-79 -224h170zM138 61l72 -32v-29h-216v31l76 36l193 496h114l188 -506l67 -26v-31h-285v29l75 24l-41 118h-204z" />
    <glyph glyph-name="Adieresis" unicode="&#xc4;" horiz-adv-x="781" 
d="M775 34v-34h-338v31l96 23l-64 179h-245l-61 -172l77 -30v-31h-237v34l86 33l249 640h105l245 -644zM351 565h-10l-99 -280h209zM500 798q-32 0 -52.5 21t-20.5 53t22.5 56.5t57.5 24.5q32 0 52.5 -21t20.5 -53t-22.5 -56.5t-57.5 -24.5zM276 798q-32 0 -52.5 21
t-20.5 53t22.5 56.5t57.5 24.5q32 0 52.5 -21t20.5 -53t-22.5 -56.5t-57.5 -24.5z" />
    <glyph glyph-name="adieresis" unicode="&#xe4;" horiz-adv-x="565" 
d="M473 100q0 -28 17.5 -42.5t67.5 -15.5l3 -26q-23 -10 -57 -19t-67 -9q-37 0 -57.5 17.5t-26.5 58.5l-13 2q-38 -37 -75.5 -57t-82.5 -20q-60 0 -97 31.5t-37 88.5q0 73 76 119t222 57v64q0 63 -27 87.5t-90 24.5q-20 0 -36 -4t-28 -9q16 -13 25 -27.5t9 -32.5
q0 -26 -17.5 -44t-47.5 -18q-29 0 -48 19t-19 46q0 29 20.5 53t54.5 41.5t76 27t86 9.5q88 0 128.5 -36.5t40.5 -117.5v-268zM346 250q-47 -2 -79.5 -10.5t-53 -22.5t-30 -32.5t-9.5 -40.5q0 -39 21 -59.5t60 -20.5q19 0 42.5 8.5t48.5 24.5v153zM392 605q-32 0 -53 21.5
t-21 53.5q0 16 6 31t17 26.5t26 18.5t33 7q32 0 53 -21.5t21 -54.5q0 -16 -6 -31t-17 -26t-26 -18t-33 -7zM164 605q-33 0 -53.5 21.5t-20.5 53.5q0 16 6 31t17 26.5t26 18.5t32 7q33 0 53.5 -21.5t20.5 -54.5q0 -32 -23 -57t-58 -25z" />
    <glyph glyph-name="adieresis.sc" horiz-adv-x="641" 
d="M430 646q-32 0 -53 21.5t-21 53.5q0 16 6 31t17 26.5t26 18.5t33 7q32 0 53 -21.5t21 -54.5q0 -16 -6 -31t-17 -26t-26 -18t-33 -7zM202 646q-33 0 -53.5 21.5t-20.5 53.5q0 16 6 31t17 26.5t26 18.5t32 7q33 0 53.5 -21.5t20.5 -54.5q0 -32 -23 -57t-58 -25zM285 444
h-12l-79 -224h170zM138 61l72 -32v-29h-216v31l76 36l193 496h114l188 -506l67 -26v-31h-285v29l75 24l-41 118h-204z" />
    <glyph glyph-name="AE" unicode="&#xc6;" horiz-adv-x="1096" 
d="M147 64l80 -33v-31h-251v34l85 33l352 572l-110 28v34h690l21 -211l-23 -7l-78 96q-15 19 -27.5 32t-27 20.5t-32.5 11t-45 3.5l-121 2v-272h54q23 0 38.5 3.5t26.5 13.5t20 28t18 47l11 35h29v-302h-29l-11 33q-9 28 -18 46t-20.5 28t-27 14t-37.5 4h-54v-273l164 4
q25 0 42 3.5t30.5 10.5t25 18.5t24.5 27.5l84 107l24 -4l-25 -220h-628v34l108 23v205h-245zM509 646h-20l-196 -332h216v332z" />
    <glyph glyph-name="ae" unicode="&#xe6;" horiz-adv-x="869" 
d="M479 264q0 -96 42 -147.5t130 -51.5q39 0 75 9t86 30l11 -26q-54 -45 -110 -70.5t-111 -25.5q-68 0 -119.5 24.5t-85.5 69.5h-12q-48 -41 -94 -64t-102 -23q-63 0 -102 31.5t-39 88.5q0 73 76 119t222 57v64q0 63 -27 87.5t-90 24.5q-20 0 -36 -4t-28 -9q16 -13 25 -27.5
t9 -32.5q0 -26 -17.5 -44t-47.5 -18q-29 0 -48 19t-19 46q0 29 20.5 53t54 41.5t75.5 27t86 9.5q57 0 90 -19t50 -57q29 32 68 54t92 22q60 0 103.5 -21t71 -56t39.5 -82t11 -99h-349zM596 479q-48 0 -79.5 -47t-35.5 -130l213 10q-3 167 -98 167zM375 110q-17 31 -23 65
t-7 75q-46 -2 -78.5 -10.5t-53 -22.5t-30 -32.5t-9.5 -40.5q0 -38 23 -59t63 -21q27 0 57 12.5t58 33.5z" />
    <glyph glyph-name="ae.sc" horiz-adv-x="899" 
d="M840 0h-520v31l83 22v150h-191l-81 -144l76 -30v-29h-231v30l77 33l261 431l-90 30v30h599l14 -178l-28 -5l-60 79q-20 28 -43.5 40.5t-64.5 13.5l-98 1v-200h29q35 0 57 15t37 50l10 23h32v-226h-32l-11 25q-14 32 -36 48.5t-57 16.5h-29v-208l122 1q35 1 58 12.5
t40 34.5l69 93l29 -5zM403 500h-24l-140 -248h164v248z" />
    <glyph glyph-name="AEacute" unicode="&#x1fc;" horiz-adv-x="1096" 
d="M727 1010q23 -16 26 -42t-16 -53q-16 -24 -55 -60.5t-86 -75.5l-26 18q18 63 34.5 111.5t30.5 71.5q17 27 43 35.5t49 -5.5zM147 64l80 -33v-31h-251v34l85 33l352 572l-110 28v34h690l21 -211l-23 -7l-78 96q-15 19 -27.5 32t-27 20.5t-32.5 11t-45 3.5l-121 2v-272h54
q23 0 38.5 3.5t26.5 13.5t20 28t18 47l11 35h29v-302h-29l-11 33q-9 28 -18 46t-20.5 28t-27 14t-37.5 4h-54v-273l164 4q25 0 42 3.5t30.5 10.5t25 18.5t24.5 27.5l84 107l24 -4l-25 -220h-628v34l108 23v205h-245zM509 646h-20l-196 -332h216v332z" />
    <glyph glyph-name="aeacute" unicode="&#x1fd;" horiz-adv-x="869" 
d="M551 819q24 -16 27 -42t-16 -55q-17 -24 -56.5 -61t-87.5 -76l-26 18q18 63 35 112.5t31 73.5q17 28 43.5 36.5t49.5 -6.5zM479 264q0 -96 42 -147.5t130 -51.5q39 0 75 9t86 30l11 -26q-54 -45 -110 -70.5t-111 -25.5q-68 0 -119.5 24.5t-85.5 69.5h-12q-48 -41 -94 -64
t-102 -23q-63 0 -102 31.5t-39 88.5q0 73 76 119t222 57v64q0 63 -27 87.5t-90 24.5q-20 0 -36 -4t-28 -9q16 -13 25 -27.5t9 -32.5q0 -26 -17.5 -44t-47.5 -18q-29 0 -48 19t-19 46q0 29 20.5 53t54 41.5t75.5 27t86 9.5q57 0 90 -19t50 -57q29 32 68 54t92 22
q60 0 103.5 -21t71 -56t39.5 -82t11 -99h-349zM596 479q-48 0 -79.5 -47t-35.5 -130l213 10q-3 167 -98 167zM375 110q-17 31 -23 65t-7 75q-46 -2 -78.5 -10.5t-53 -22.5t-30 -32.5t-9.5 -40.5q0 -38 23 -59t63 -21q27 0 57 12.5t58 33.5z" />
    <glyph glyph-name="aeacute.sc" horiz-adv-x="899" 
d="M613 860q24 -16 27 -42t-16 -55q-17 -24 -56.5 -61t-87.5 -76l-26 18q18 63 35 112.5t31 73.5q17 28 43.5 36.5t49.5 -6.5zM840 0h-520v31l83 22v150h-191l-81 -144l76 -30v-29h-231v30l77 33l261 431l-90 30v30h599l14 -178l-28 -5l-60 79q-20 28 -43.5 40.5t-64.5 13.5
l-98 1v-200h29q35 0 57 15t37 50l10 23h32v-226h-32l-11 25q-14 32 -36 48.5t-57 16.5h-29v-208l122 1q35 1 58 12.5t40 34.5l69 93l29 -5zM403 500h-24l-140 -248h164v248z" />
    <glyph glyph-name="Agrave" unicode="&#xc0;" horiz-adv-x="781" 
d="M775 34v-34h-338v31l96 23l-64 179h-245l-61 -172l77 -30v-31h-237v34l86 33l249 640h105l245 -644zM351 565h-10l-99 -280h209zM415 784q-47 39 -85.5 75.5t-55.5 60.5q-19 27 -16 53t27 42q23 14 48.5 5.5t42.5 -35.5q14 -23 30.5 -71.5t34.5 -111.5z" />
    <glyph glyph-name="agrave" unicode="&#xe0;" horiz-adv-x="565" 
d="M473 100q0 -28 17.5 -42.5t67.5 -15.5l3 -26q-23 -10 -57 -19t-67 -9q-37 0 -57.5 17.5t-26.5 58.5l-13 2q-38 -37 -75.5 -57t-82.5 -20q-60 0 -97 31.5t-37 88.5q0 73 76 119t222 57v64q0 63 -27 87.5t-90 24.5q-20 0 -36 -4t-28 -9q16 -13 25 -27.5t9 -32.5
q0 -26 -17.5 -44t-47.5 -18q-29 0 -48 19t-19 46q0 29 20.5 53t54.5 41.5t76 27t86 9.5q88 0 128.5 -36.5t40.5 -117.5v-268zM346 250q-47 -2 -79.5 -10.5t-53 -22.5t-30 -32.5t-9.5 -40.5q0 -39 21 -59.5t60 -20.5q19 0 42.5 8.5t48.5 24.5v153zM306 591q-47 39 -86.5 76
t-56.5 61q-19 29 -16 55.5t27 41.5q23 15 49.5 6t43.5 -36q14 -24 31 -73.5t35 -112.5z" />
    <glyph glyph-name="agrave.sc" horiz-adv-x="641" 
d="M285 444h-12l-79 -224h170zM138 61l72 -32v-29h-216v31l76 36l193 496h114l188 -506l67 -26v-31h-285v29l75 24l-41 118h-204zM344 632q-47 39 -86.5 76t-56.5 61q-19 29 -16 55.5t27 41.5q23 15 49.5 6t43.5 -36q14 -24 31 -73.5t35 -112.5z" />
    <glyph glyph-name="Amacron" unicode="&#x100;" horiz-adv-x="781" 
d="M775 34v-34h-338v31l96 23l-64 179h-245l-61 -172l77 -30v-31h-237v34l86 33l249 640h105l245 -644zM351 565h-10l-99 -280h209zM554 818h-326v83h326v-83z" />
    <glyph glyph-name="amacron" unicode="&#x101;" horiz-adv-x="565" 
d="M473 100q0 -28 17.5 -42.5t67.5 -15.5l3 -26q-23 -10 -57 -19t-67 -9q-37 0 -57.5 17.5t-26.5 58.5l-13 2q-38 -37 -75.5 -57t-82.5 -20q-60 0 -97 31.5t-37 88.5q0 73 76 119t222 57v64q0 63 -27 87.5t-90 24.5q-20 0 -36 -4t-28 -9q16 -13 25 -27.5t9 -32.5
q0 -26 -17.5 -44t-47.5 -18q-29 0 -48 19t-19 46q0 29 20.5 53t54.5 41.5t76 27t86 9.5q88 0 128.5 -36.5t40.5 -117.5v-268zM346 250q-47 -2 -79.5 -10.5t-53 -22.5t-30 -32.5t-9.5 -40.5q0 -39 21 -59.5t60 -20.5q19 0 42.5 8.5t48.5 24.5v153zM448 625h-333v85h333v-85z
" />
    <glyph glyph-name="amacron.sc" horiz-adv-x="641" 
d="M285 444h-12l-79 -224h170zM138 61l72 -32v-29h-216v31l76 36l193 496h114l188 -506l67 -26v-31h-285v29l75 24l-41 118h-204zM486 666h-333v85h333v-85z" />
    <glyph glyph-name="Aogonek" unicode="&#x104;" horiz-adv-x="781" 
d="M775 34v-34h-84q-44 -51 -59.5 -85t-15.5 -62q0 -38 20.5 -58t50.5 -20q23 0 40 7.5t29 15.5l14 -21q-25 -25 -54.5 -40t-64.5 -15q-48 0 -82.5 25.5t-34.5 78.5q0 51 29 92.5t79 81.5h-205v31l96 23l-64 179h-245l-61 -172l77 -30v-31h-237v34l86 33l249 640h105
l245 -644zM351 565h-10l-99 -280h209z" />
    <glyph glyph-name="aogonek" unicode="&#x105;" horiz-adv-x="565" 
d="M346 250q-47 -2 -79.5 -10.5t-53 -22.5t-30 -32.5t-9.5 -40.5q0 -39 21 -59.5t60 -20.5q19 0 42.5 8.5t48.5 24.5v153zM451 -11q-86 -8 -98 75l-13 2q-38 -37 -75.5 -57t-82.5 -20q-60 0 -97 31.5t-37 88.5q0 73 76 119t222 57v64q0 63 -27 87.5t-90 24.5q-20 0 -36 -4
t-28 -9q16 -13 25 -27.5t9 -32.5q0 -26 -17.5 -44t-47.5 -18q-29 0 -48 19t-19 46q0 29 20.5 53t54.5 41.5t76 27t86 9.5q88 0 128.5 -36.5t40.5 -117.5v-268q0 -28 17.5 -42.5t67.5 -15.5l3 -26q-84 -42 -118.5 -86t-34.5 -81q0 -38 20.5 -58t51.5 -20q23 0 40 7.5t29 15.5
l16 -21q-24 -24 -54.5 -40t-68.5 -16q-52 0 -85 27.5t-33 79.5q0 41 33.5 86.5t93.5 78.5z" />
    <glyph glyph-name="aogonek.sc" horiz-adv-x="641" 
d="M138 61l72 -32v-29h-216v31l76 36l193 496h114l188 -506l67 -26v-31h-66q-45 -52 -60.5 -86.5t-15.5 -63.5q0 -38 20.5 -58.5t52.5 -20.5q23 0 40 7.5t29 15.5l15 -21q-25 -26 -55.5 -41t-65.5 -15q-24 0 -46 6.5t-38.5 20t-26 33t-9.5 46.5q0 52 29.5 94.5t80.5 82.5
h-169v29l75 24l-41 118h-204zM285 444h-12l-79 -224h170z" />
    <glyph glyph-name="Aring" unicode="&#xc5;" horiz-adv-x="781" 
d="M775 34v-34h-338v31l96 23l-64 179h-245l-61 -172l77 -30v-31h-237v34l86 33l241 619q-31 13 -48.5 41t-17.5 63q0 22 9.5 43t26 36.5t40 25t51.5 9.5q56 0 89 -32t33 -82q0 -30 -17 -57.5t-46 -41.5l238 -628zM242 285h209l-100 280h-10zM326 789q0 -42 19 -63t44 -21
q26 0 43.5 21.5t17.5 63.5t-18.5 63t-44.5 21q-25 0 -43 -21.5t-18 -63.5z" />
    <glyph glyph-name="aring" unicode="&#xe5;" horiz-adv-x="565" 
d="M473 100q0 -28 17.5 -42.5t67.5 -15.5l3 -26q-23 -10 -57 -19t-67 -9q-37 0 -57.5 17.5t-26.5 58.5l-13 2q-38 -37 -75.5 -57t-82.5 -20q-60 0 -97 31.5t-37 88.5q0 73 76 119t222 57v64q0 63 -27 87.5t-90 24.5q-20 0 -36 -4t-28 -9q16 -13 25 -27.5t9 -32.5
q0 -26 -17.5 -44t-47.5 -18q-29 0 -48 19t-19 46q0 29 20.5 53t54.5 41.5t76 27t86 9.5q88 0 128.5 -36.5t40.5 -117.5v-268zM346 250q-47 -2 -79.5 -10.5t-53 -22.5t-30 -32.5t-9.5 -40.5q0 -39 21 -59.5t60 -20.5q19 0 42.5 8.5t48.5 24.5v153zM408 714q0 -23 -9.5 -44
t-26.5 -37.5t-41 -26t-52 -9.5q-57 0 -91 33t-34 84q0 23 9.5 44t27 37t41 25.5t52.5 9.5q57 0 90.5 -32.5t33.5 -83.5zM344 714q0 43 -19 64.5t-45 21.5t-44 -22t-18 -65q0 -42 19 -63.5t45 -21.5t44 21.5t18 64.5z" />
    <glyph glyph-name="aring.sc" horiz-adv-x="641" 
d="M285 444h-12l-79 -224h170zM381 649q0 43 -19 64t-45 21t-44 -22t-18 -65q0 -42 19.5 -63.5t44.5 -21.5q26 0 44 22t18 65zM256 545q-31 14 -47.5 41t-16.5 62q0 23 9.5 44.5t26.5 37.5t41 25.5t53 9.5q57 0 90 -32.5t33 -83.5q0 -31 -16.5 -58.5t-45.5 -42.5l182 -491
l67 -26v-31h-285v29l75 24l-41 118h-204l-39 -110l72 -32v-29h-216v31l76 36z" />
    <glyph glyph-name="Aringacute" unicode="&#x1fa;" horiz-adv-x="781" 
d="M775 34v-34h-338v31l96 23l-64 179h-245l-61 -172l77 -30v-31h-237v34l86 33l241 619q-31 13 -48.5 41t-17.5 63q0 22 9.5 43t26 36.5t40 25t51.5 9.5q56 0 89 -32t33 -82q0 -30 -17 -57.5t-46 -41.5l238 -628zM242 285h209l-100 280h-10zM326 789q0 -42 19 -63t44 -21
q26 0 43.5 21.5t17.5 63.5t-18.5 63t-44.5 21q-25 0 -43 -21.5t-18 -63.5zM504 1169q23 -16 26 -42t-16 -53q-16 -24 -55 -60.5t-86 -75.5l-26 18q18 63 34.5 111.5t30.5 71.5q17 27 43 35.5t49 -5.5z" />
    <glyph glyph-name="aringacute" unicode="&#x1fb;" horiz-adv-x="565" 
d="M473 100q0 -28 17.5 -42.5t67.5 -15.5l3 -26q-23 -10 -57 -19t-67 -9q-37 0 -57.5 17.5t-26.5 58.5l-13 2q-38 -37 -75.5 -57t-82.5 -20q-60 0 -97 31.5t-37 88.5q0 73 76 119t222 57v64q0 63 -27 87.5t-90 24.5q-20 0 -36 -4t-28 -9q16 -13 25 -27.5t9 -32.5
q0 -26 -17.5 -44t-47.5 -18q-29 0 -48 19t-19 46q0 29 20.5 53t54.5 41.5t76 27t86 9.5q88 0 128.5 -36.5t40.5 -117.5v-268zM346 250q-47 -2 -79.5 -10.5t-53 -22.5t-30 -32.5t-9.5 -40.5q0 -39 21 -59.5t60 -20.5q19 0 42.5 8.5t48.5 24.5v153zM398 1066q24 -16 27 -42
t-16 -55q-17 -24 -56.5 -61t-87.5 -76l-26 18q18 63 35 112.5t31 73.5q17 28 43.5 36.5t49.5 -6.5zM411 680q0 -23 -9.5 -44t-26.5 -37.5t-41 -26t-52 -9.5q-57 0 -91 33t-34 84q0 23 9.5 44t27 37t41 25.5t52.5 9.5q57 0 90.5 -32.5t33.5 -83.5zM347 680q0 43 -19 64.5
t-45 21.5t-44 -22t-18 -65q0 -42 19 -63.5t45 -21.5t44 21.5t18 64.5z" />
    <glyph glyph-name="aringacute.sc" horiz-adv-x="641" 
d="M436 1032q24 -16 27 -42t-16 -55q-17 -24 -56.5 -61t-87.5 -76l-26 18q18 63 35 112.5t31 73.5q17 28 43.5 36.5t49.5 -6.5zM285 444h-12l-79 -224h170zM381 649q0 43 -19 64t-45 21t-44 -22t-18 -65q0 -42 19.5 -63.5t44.5 -21.5q26 0 44 22t18 65zM256 545
q-31 14 -47.5 41t-16.5 62q0 23 9.5 44.5t26.5 37.5t41 25.5t53 9.5q57 0 90 -32.5t33 -83.5q0 -31 -16.5 -58.5t-45.5 -42.5l182 -491l67 -26v-31h-285v29l75 24l-41 118h-204l-39 -110l72 -32v-29h-216v31l76 36z" />
    <glyph glyph-name="Atilde" unicode="&#xc3;" horiz-adv-x="781" 
d="M775 34v-34h-338v31l96 23l-64 179h-245l-61 -172l77 -30v-31h-237v34l86 33l249 640h105l245 -644zM351 565h-10l-99 -280h209zM225 796q11 83 34 120t70 37q22 0 44.5 -8.5t44 -18.5t41 -18.5t34.5 -8.5q17 0 27 14.5t24 50.5l40 -7q-11 -83 -34 -120t-69 -37
q-23 0 -45.5 8.5t-44 18.5t-41 18.5t-34.5 8.5q-16 0 -26.5 -14.5t-24.5 -49.5l-40 6v0z" />
    <glyph glyph-name="atilde" unicode="&#xe3;" horiz-adv-x="565" 
d="M473 100q0 -28 17.5 -42.5t67.5 -15.5l3 -26q-23 -10 -57 -19t-67 -9q-37 0 -57.5 17.5t-26.5 58.5l-13 2q-38 -37 -75.5 -57t-82.5 -20q-60 0 -97 31.5t-37 88.5q0 73 76 119t222 57v64q0 63 -27 87.5t-90 24.5q-20 0 -36 -4t-28 -9q16 -13 25 -27.5t9 -32.5
q0 -26 -17.5 -44t-47.5 -18q-29 0 -48 19t-19 46q0 29 20.5 53t54.5 41.5t76 27t86 9.5q88 0 128.5 -36.5t40.5 -117.5v-268zM346 250q-47 -2 -79.5 -10.5t-53 -22.5t-30 -32.5t-9.5 -40.5q0 -39 21 -59.5t60 -20.5q19 0 42.5 8.5t48.5 24.5v153zM114 603q11 84 34 122
t71 38q22 0 45 -8.5t45 -19t41.5 -19t35.5 -8.5q17 0 27.5 14.5t24.5 50.5l41 -7q-11 -84 -34.5 -121.5t-71.5 -37.5q-23 0 -46 8.5t-44.5 19t-41 19t-35.5 8.5q-17 0 -27.5 -15t-24.5 -51l-40 7v0z" />
    <glyph glyph-name="atilde.sc" horiz-adv-x="641" 
d="M285 444h-12l-79 -224h170zM138 61l72 -32v-29h-216v31l76 36l193 496h114l188 -506l67 -26v-31h-285v29l75 24l-41 118h-204zM152 644q11 84 34 122t71 38q22 0 45 -8.5t45 -19t41.5 -19t35.5 -8.5q17 0 27.5 14.5t24.5 50.5l41 -7q-11 -84 -34.5 -121.5t-71.5 -37.5
q-23 0 -46 8.5t-44.5 19t-41 19t-35.5 8.5q-17 0 -27.5 -15t-24.5 -51l-40 7v0z" />
    <glyph glyph-name="Cacute" unicode="&#x106;" horiz-adv-x="769" 
d="M679 35q-53 -25 -109 -38.5t-131 -13.5q-84 0 -154.5 24.5t-121.5 71t-79.5 113t-28.5 151.5q0 80 29 148.5t80 118.5t121 78.5t152 28.5q45 0 90 -9.5t80 -24.5l37 38h30l13 -262l-37 -2q-26 55 -52 95t-53 66t-57 38t-65 12q-43 0 -79.5 -20t-63.5 -59t-42.5 -97
t-15.5 -134q0 -80 19 -139.5t52.5 -99.5t78.5 -60t97 -20q23 0 40 2.5t37 10.5l128 162l27 -4zM538 1015q23 -16 26 -42t-16 -53q-16 -24 -55 -60.5t-86 -75.5l-26 18q18 63 34.5 111.5t30.5 71.5q17 27 43 35.5t49 -5.5z" />
    <glyph glyph-name="cacute" unicode="&#x107;" horiz-adv-x="546" 
d="M427 825q24 -16 27 -42t-16 -55q-17 -24 -56.5 -61t-87.5 -76l-26 18q18 63 35 112.5t31 73.5q17 28 43.5 36.5t49.5 -6.5zM504 407q0 -34 -20 -56t-52 -22q-35 0 -55.5 24t-20.5 59q0 17 4 31.5t10 27.5q-6 2 -12 3t-15 1q-32 -1 -61 -15t-51 -41t-35.5 -67t-13.5 -93
q0 -47 14 -83t38 -60t57 -36.5t71 -12.5q37 0 66 8t68 25l12 -24q-91 -94 -208 -94q-54 0 -101 18.5t-81.5 52.5t-54 81.5t-19.5 104.5q0 60 21.5 111.5t59.5 89.5t90.5 60t114.5 22q40 0 72.5 -9t55 -25t34.5 -36.5t12 -44.5z" />
    <glyph glyph-name="cacute.sc" horiz-adv-x="639" 
d="M462 866q24 -16 27 -42t-16 -55q-17 -24 -56.5 -61t-87.5 -76l-26 18q18 63 35 112.5t31 73.5q17 28 43.5 36.5t49.5 -6.5zM563 26q-42 -18 -92 -30.5t-106 -12.5q-69 0 -127 18.5t-100 54.5t-65.5 89.5t-23.5 123.5q0 67 24 123t66 95.5t99.5 61.5t125.5 22q37 0 74 -9
t63 -21l28 33h31l14 -214l-47 -2q-22 47 -42 79t-40.5 51t-42 27t-46.5 8q-31 0 -59 -14t-49 -43.5t-33.5 -75t-12.5 -108.5q0 -66 15.5 -113t41 -76.5t59 -43.5t69.5 -14q16 0 32.5 3t29.5 8l94 159l38 -7z" />
    <glyph glyph-name="Ccaron" unicode="&#x10c;" horiz-adv-x="769" 
d="M679 35q-53 -25 -109 -38.5t-131 -13.5q-84 0 -154.5 24.5t-121.5 71t-79.5 113t-28.5 151.5q0 80 29 148.5t80 118.5t121 78.5t152 28.5q45 0 90 -9.5t80 -24.5l37 38h30l13 -262l-37 -2q-26 55 -52 95t-53 66t-57 38t-65 12q-43 0 -79.5 -20t-63.5 -59t-42.5 -97
t-15.5 -134q0 -80 19 -139.5t52.5 -99.5t78.5 -60t97 -20q23 0 40 2.5t37 10.5l128 162l27 -4zM555 1021l27 -24l-131 -205h-60l-122 205l26 24l130 -114z" />
    <glyph glyph-name="ccaron" unicode="&#x10d;" horiz-adv-x="546" 
d="M446 832l27 -25l-133 -209h-62l-124 209l27 25l132 -116zM504 407q0 -34 -20 -56t-52 -22q-35 0 -55.5 24t-20.5 59q0 17 4 31.5t10 27.5q-6 2 -12 3t-15 1q-32 -1 -61 -15t-51 -41t-35.5 -67t-13.5 -93q0 -47 14 -83t38 -60t57 -36.5t71 -12.5q37 0 66 8t68 25l12 -24
q-91 -94 -208 -94q-54 0 -101 18.5t-81.5 52.5t-54 81.5t-19.5 104.5q0 60 21.5 111.5t59.5 89.5t90.5 60t114.5 22q40 0 72.5 -9t55 -25t34.5 -36.5t12 -44.5z" />
    <glyph glyph-name="ccaron.sc" horiz-adv-x="639" 
d="M481 873l27 -25l-133 -209h-62l-124 209l27 25l132 -116zM563 26q-42 -18 -92 -30.5t-106 -12.5q-69 0 -127 18.5t-100 54.5t-65.5 89.5t-23.5 123.5q0 67 24 123t66 95.5t99.5 61.5t125.5 22q37 0 74 -9t63 -21l28 33h31l14 -214l-47 -2q-22 47 -42 79t-40.5 51t-42 27
t-46.5 8q-31 0 -59 -14t-49 -43.5t-33.5 -75t-12.5 -108.5q0 -66 15.5 -113t41 -76.5t59 -43.5t69.5 -14q16 0 32.5 3t29.5 8l94 159l38 -7z" />
    <glyph glyph-name="Ccedilla" unicode="&#xc7;" horiz-adv-x="769" 
d="M222 358q0 -80 19 -139.5t52.5 -99.5t78.5 -60t97 -20q23 0 40 2.5t37 10.5l128 162l27 -4l-22 -175q-46 -21 -92 -34t-106 -16l-77 -65q40 -5 70 -30t30 -70q0 -25 -10 -46t-28 -36t-42 -23t-52 -8q-46 0 -73.5 15t-27.5 39q0 16 9 27t26 11t26 -11.5t9 -25.5
q0 -12 -5 -22q11 -5 32 -5q23 0 42.5 15.5t19.5 48.5q0 32 -20.5 49t-55.5 17q-8 0 -13.5 -0.5t-13.5 -2.5l-19 20l123 101q-83 1 -152 26.5t-118.5 71.5t-77.5 112t-28 150q0 80 29 148.5t80 118.5t121 78.5t152 28.5q45 0 90 -9.5t80 -24.5l37 38h30l13 -262l-37 -2
q-26 55 -52 95t-53 66t-57 38t-65 12q-43 0 -79.5 -20t-63.5 -59t-42.5 -97t-15.5 -134z" />
    <glyph glyph-name="ccedilla" unicode="&#xe7;" horiz-adv-x="546" 
d="M182 259q0 -47 14 -83t38 -60t57 -36.5t71 -12.5q37 0 66 8t68 25l12 -24q-58 -61 -131 -83l-89 -74q20 -3 38.5 -11t32.5 -20.5t22.5 -30.5t8.5 -40q0 -26 -10.5 -47t-28.5 -36t-42.5 -23.5t-53.5 -8.5q-46 0 -74.5 15t-28.5 40q0 16 9.5 27t26.5 11t26.5 -11.5
t9.5 -25.5q0 -7 -1.5 -12t-3.5 -11q11 -5 33 -5q23 0 43 16t20 50q0 32 -21.5 49.5t-56.5 17.5q-8 0 -13.5 -1t-13.5 -3l-20 21l124 103q-4 -1 -14 -1q-54 0 -101 18.5t-81.5 52.5t-54 81.5t-19.5 104.5q0 60 21.5 111.5t59.5 89.5t90.5 60t114.5 22q40 0 72.5 -9t55 -25
t34.5 -36.5t12 -44.5q0 -34 -20 -56t-52 -22q-35 0 -55.5 24t-20.5 59q0 17 4 31.5t10 27.5q-6 2 -12 3t-15 1q-32 -1 -61 -15t-51 -41t-35.5 -67t-13.5 -93z" />
    <glyph glyph-name="ccedilla.sc" horiz-adv-x="639" 
d="M358 -17q-68 1 -124.5 19.5t-97.5 54.5t-64 89.5t-23 122.5q0 67 24 123t66 95.5t99.5 61.5t125.5 22q37 0 74 -9t63 -21l28 33h31l14 -214l-47 -2q-22 47 -42 79t-40.5 51t-42 27t-46.5 8q-31 0 -59 -14t-49 -43.5t-33.5 -75t-12.5 -108.5q0 -66 15.5 -113t41 -76.5
t59 -43.5t69.5 -14q34 0 59 11l95 159l38 -7l-18 -172q-32 -14 -68.5 -24.5t-77.5 -15.5l-80 -67q20 -3 38.5 -11t32.5 -20.5t22.5 -30.5t8.5 -40q0 -26 -10.5 -47t-28.5 -36t-42.5 -23.5t-53.5 -8.5q-46 0 -74.5 15t-28.5 40q0 16 9.5 27t26.5 11t26.5 -11.5t9.5 -25.5
q0 -7 -1.5 -12t-3.5 -11q11 -5 33 -5q23 0 43 16t20 50q0 32 -21.5 49.5t-56.5 17.5q-8 0 -13.5 -1t-13.5 -3l-19 21l124 103h-4z" />
    <glyph glyph-name="Cdotaccent" unicode="&#x10a;" horiz-adv-x="769" 
d="M504 880q0 -16 -6 -31t-17.5 -26.5t-26.5 -18.5t-33 -7q-33 0 -54 22t-21 55q0 16 6 31t17.5 26.5t26.5 18.5t33 7q33 0 54 -21.5t21 -55.5zM679 35q-53 -25 -109 -38.5t-131 -13.5q-84 0 -154.5 24.5t-121.5 71t-79.5 113t-28.5 151.5q0 80 29 148.5t80 118.5t121 78.5
t152 28.5q45 0 90 -9.5t80 -24.5l37 38h30l13 -262l-37 -2q-26 55 -52 95t-53 66t-57 38t-65 12q-43 0 -79.5 -20t-63.5 -59t-42.5 -97t-15.5 -134q0 -80 19 -139.5t52.5 -99.5t78.5 -60t97 -20q23 0 40 2.5t37 10.5l128 162l27 -4z" />
    <glyph glyph-name="cdotaccent" unicode="&#x10b;" horiz-adv-x="546" 
d="M504 407q0 -34 -20 -56t-52 -22q-35 0 -55.5 24t-20.5 59q0 17 4 31.5t10 27.5q-6 2 -12 3t-15 1q-32 -1 -61 -15t-51 -41t-35.5 -67t-13.5 -93q0 -47 14 -83t38 -60t57 -36.5t71 -12.5q37 0 66 8t68 25l12 -24q-91 -94 -208 -94q-54 0 -101 18.5t-81.5 52.5t-54 81.5
t-19.5 104.5q0 60 21.5 111.5t59.5 89.5t90.5 60t114.5 22q40 0 72.5 -9t55 -25t34.5 -36.5t12 -44.5zM394 689q0 -34 -24 -59.5t-61 -25.5q-34 0 -55.5 22t-21.5 56q0 16 6.5 31.5t17.5 27.5t27 19t34 7q34 0 55.5 -22t21.5 -56z" />
    <glyph glyph-name="cdotaccent.sc" horiz-adv-x="639" 
d="M563 26q-42 -18 -92 -30.5t-106 -12.5q-69 0 -127 18.5t-100 54.5t-65.5 89.5t-23.5 123.5q0 67 24 123t66 95.5t99.5 61.5t125.5 22q37 0 74 -9t63 -21l28 33h31l14 -214l-47 -2q-22 47 -42 79t-40.5 51t-42 27t-46.5 8q-31 0 -59 -14t-49 -43.5t-33.5 -75t-12.5 -108.5
q0 -66 15.5 -113t41 -76.5t59 -43.5t69.5 -14q16 0 32.5 3t29.5 8l94 159l38 -7zM429 730q0 -34 -24 -59.5t-61 -25.5q-34 0 -55.5 22t-21.5 56q0 16 6.5 31.5t17.5 27.5t27 19t34 7q34 0 55.5 -22t21.5 -56z" />
    <glyph glyph-name="Dcaron" unicode="&#x10e;" horiz-adv-x="837" 
d="M523 1016l27 -24l-131 -205h-60l-122 205l26 24l130 -114zM38 667v34h350q91 0 164 -25t124 -71t78.5 -109.5t27.5 -140.5q0 -79 -29 -144t-81.5 -112t-126.5 -73t-164 -26h-343v34l107 23v587zM615 351q0 81 -19 137t-52.5 91.5t-79.5 51.5t-99 17l-69 2v-598l92 1
q50 1 92 17t72 50.5t46.5 91t16.5 139.5z" />
    <glyph glyph-name="dcaron" unicode="&#x10f;" horiz-adv-x="651" 
d="M685 830q26 -2 41.5 -21t13.5 -47q-2 -31 -26.5 -82.5t-66.5 -116.5l-26 9q-2 48 -3.5 91.5t0.5 70.5q2 46 19.5 72t47.5 24zM624 50v-25l-182 -45l-19 12l8 74l-13 2l-1 -1q-35 -34 -77 -59t-97 -25q-38 0 -73.5 17.5t-62.5 50t-43.5 78.5t-16.5 103q0 61 20.5 114
t58.5 92.5t92 62t120 22.5q21 0 40.5 -2.5t38.5 -7.5v194l-80 45v27l196 51l18 -11v-725zM188 270q0 -99 35.5 -150t101.5 -51q23 0 46 8.5t46 22.5v316q-23 29 -50 44t-62 15q-24 0 -45.5 -12t-37.5 -36.5t-25 -63.5t-9 -93z" />
    <glyph glyph-name="dcaron.sc" horiz-adv-x="698" 
d="M42 522v32h294q73 0 131.5 -19.5t99.5 -55t62.5 -86t21.5 -112.5q0 -61 -22.5 -112.5t-64 -89t-101.5 -58.5t-135 -21h-286v31l82 21v449zM497 277q0 60 -13.5 103t-37 71t-56.5 41.5t-72 14.5h-54v-460l67 1q36 1 66.5 13.5t52.5 40t34.5 70.5t12.5 105zM479 867l27 -25
l-133 -209h-62l-124 209l27 25l132 -116z" />
    <glyph glyph-name="Dcroat" unicode="&#x110;" horiz-adv-x="842" 
d="M788 355q0 -79 -29 -144t-81.5 -112t-127 -73t-164.5 -26h-343v34l110 23v277h-101v59h101v251l-110 23v34h350q92 0 165 -25t124 -71t78.5 -109.5t27.5 -140.5zM621 351q0 81 -19.5 137t-53 91.5t-79.5 51.5t-99 17l-70 2v-257h135v-59h-135v-282l93 1q50 1 92 17
t72 50.5t47 91t17 139.5z" />
    <glyph glyph-name="dcroat" unicode="&#x111;" horiz-adv-x="651" 
d="M624 50v-25l-182 -45l-19 12l8 74l-13 2l-1 -1q-35 -34 -77 -59t-97 -25q-38 0 -73.5 17.5t-62.5 50t-43.5 78.5t-16.5 103q0 61 20.5 114t58.5 92.5t92 62t120 22.5q21 0 40.5 -2.5t38.5 -7.5v87h-177v57h177v56l-80 39v27l196 51l18 -11v-162h85v-57h-85v-506zM188 270
q0 -99 35.5 -150t101.5 -51q23 0 46 8.5t46 22.5v316q-23 29 -50 44t-62 15q-24 0 -45.5 -12t-37.5 -36.5t-25 -63.5t-9 -93z" />
    <glyph glyph-name="dcroat.sc" horiz-adv-x="705" 
d="M369 311v-50h-100v-214l69 1q36 1 66.5 13.5t52.5 40t34.5 70.5t12.5 105q0 60 -13.5 103t-37 71t-56.5 41.5t-72 14.5h-56v-196h100zM58 261v50h75v190l-83 21v32h293q73 0 131.5 -19.5t99 -55t62.5 -86t22 -112.5q0 -61 -22.5 -112.5t-64.5 -89t-102 -58.5t-135 -21
h-284v31l83 21v209h-75z" />
    <glyph glyph-name="Eacute" unicode="&#xc9;" horiz-adv-x="733" 
d="M462 1010q23 -16 26 -42t-16 -53q-16 -24 -55 -60.5t-86 -75.5l-26 18q18 63 34.5 111.5t30.5 71.5q17 27 43 35.5t49 -5.5zM651 490l-24 -7l-77 96q-15 19 -28 32t-27 20.5t-32 11t-45 3.5l-122 2v-272h55q22 0 37.5 3.5t27 13.5t20 28t17.5 47l12 35h28v-302h-29
l-11 33q-9 28 -18 46t-20 28t-26.5 14t-37.5 4h-55v-273l165 4q24 0 41.5 3.5t31 10.5t25 18.5t23.5 27.5l84 107l24 -4l-25 -220h-627v34l107 23v587l-107 23v34h592z" />
    <glyph glyph-name="eacute" unicode="&#xe9;" horiz-adv-x="569" 
d="M420 825q24 -16 27 -42t-16 -55q-17 -24 -56.5 -61t-87.5 -76l-26 18q18 63 35 112.5t31 73.5q17 28 43.5 36.5t49.5 -6.5zM179 264q0 -95 42 -147t130 -52q39 0 75 9t85 30l12 -26q-53 -45 -109.5 -70.5t-112.5 -25.5q-59 0 -106 19t-81 53t-52 82t-18 107q0 60 21 111
t57 88.5t83.5 58.5t99.5 21q61 0 104 -21t70 -56.5t38.5 -82t10.5 -98.5h-349zM394 312q-3 167 -98 167q-49 0 -80.5 -47t-35.5 -130z" />
    <glyph glyph-name="eacute.sc" horiz-adv-x="621" 
d="M422 860q24 -16 27 -42t-16 -55q-17 -24 -56.5 -61t-87.5 -76l-26 18q18 63 35 112.5t31 73.5q17 28 43.5 36.5t49.5 -6.5zM559 376l-29 -5l-59 79q-20 28 -43.5 40.5t-64.5 13.5l-99 1v-200h30q34 0 56.5 15t37.5 50l10 23h32v-226h-32l-11 25q-14 32 -36.5 48.5
t-56.5 16.5h-30v-208l123 1q35 1 57.5 12.5t39.5 34.5l70 93l28 -5l-20 -185h-520v31l82 22v448l-82 21v32h502z" />
    <glyph glyph-name="Ebreve" unicode="&#x114;" horiz-adv-x="733" 
d="M352 885q48 0 76 26t48 76l36 -11q-9 -94 -50 -141.5t-110 -47.5t-110.5 47.5t-49.5 141.5l37 11q17 -50 46 -76t77 -26zM651 490l-24 -7l-77 96q-15 19 -28 32t-27 20.5t-32 11t-45 3.5l-122 2v-272h55q22 0 37.5 3.5t27 13.5t20 28t17.5 47l12 35h28v-302h-29l-11 33
q-9 28 -18 46t-20 28t-26.5 14t-37.5 4h-55v-273l165 4q24 0 41.5 3.5t31 10.5t25 18.5t23.5 27.5l84 107l24 -4l-25 -220h-627v34l107 23v587l-107 23v34h592z" />
    <glyph glyph-name="ebreve" unicode="&#x115;" horiz-adv-x="569" 
d="M179 264q0 -95 42 -147t130 -52q39 0 75 9t85 30l12 -26q-53 -45 -109.5 -70.5t-112.5 -25.5q-59 0 -106 19t-81 53t-52 82t-18 107q0 60 21 111t57 88.5t83.5 58.5t99.5 21q61 0 104 -21t70 -56.5t38.5 -82t10.5 -98.5h-349zM394 312q-3 167 -98 167q-49 0 -80.5 -47
t-35.5 -130zM308 698q48 0 77 26.5t49 77.5l38 -11q-10 -95 -51.5 -143.5t-112.5 -48.5q-70 0 -112.5 48.5t-50.5 143.5l38 11q18 -51 47.5 -77.5t77.5 -26.5z" />
    <glyph glyph-name="ebreve.sc" horiz-adv-x="621" 
d="M559 376l-29 -5l-59 79q-20 28 -43.5 40.5t-64.5 13.5l-99 1v-200h30q34 0 56.5 15t37.5 50l10 23h32v-226h-32l-11 25q-14 32 -36.5 48.5t-56.5 16.5h-30v-208l123 1q35 1 57.5 12.5t39.5 34.5l70 93l28 -5l-20 -185h-520v31l82 22v448l-82 21v32h502zM311 733
q48 0 77 26.5t49 77.5l38 -11q-10 -95 -51.5 -143.5t-112.5 -48.5q-70 0 -112.5 48.5t-50.5 143.5l38 11q18 -51 47.5 -77.5t77.5 -26.5z" />
    <glyph glyph-name="Ecaron" unicode="&#x11a;" horiz-adv-x="733" 
d="M479 1016l27 -24l-131 -205h-60l-122 205l26 24l130 -114zM651 490l-24 -7l-77 96q-15 19 -28 32t-27 20.5t-32 11t-45 3.5l-122 2v-272h55q22 0 37.5 3.5t27 13.5t20 28t17.5 47l12 35h28v-302h-29l-11 33q-9 28 -18 46t-20 28t-26.5 14t-37.5 4h-55v-273l165 4
q24 0 41.5 3.5t31 10.5t25 18.5t23.5 27.5l84 107l24 -4l-25 -220h-627v34l107 23v587l-107 23v34h592z" />
    <glyph glyph-name="ecaron" unicode="&#x11b;" horiz-adv-x="569" 
d="M439 832l27 -25l-133 -209h-62l-124 209l27 25l132 -116zM179 264q0 -95 42 -147t130 -52q39 0 75 9t85 30l12 -26q-53 -45 -109.5 -70.5t-112.5 -25.5q-59 0 -106 19t-81 53t-52 82t-18 107q0 60 21 111t57 88.5t83.5 58.5t99.5 21q61 0 104 -21t70 -56.5t38.5 -82
t10.5 -98.5h-349zM394 312q-3 167 -98 167q-49 0 -80.5 -47t-35.5 -130z" />
    <glyph glyph-name="ecaron.sc" horiz-adv-x="621" 
d="M441 867l27 -25l-133 -209h-62l-124 209l27 25l132 -116zM559 376l-29 -5l-59 79q-20 28 -43.5 40.5t-64.5 13.5l-99 1v-200h30q34 0 56.5 15t37.5 50l10 23h32v-226h-32l-11 25q-14 32 -36.5 48.5t-56.5 16.5h-30v-208l123 1q35 1 57.5 12.5t39.5 34.5l70 93l28 -5
l-20 -185h-520v31l82 22v448l-82 21v32h502z" />
    <glyph glyph-name="Ecircumflex" unicode="&#xca;" horiz-adv-x="733" 
d="M651 490l-24 -7l-77 96q-15 19 -28 32t-27 20.5t-32 11t-45 3.5l-122 2v-272h55q22 0 37.5 3.5t27 13.5t20 28t17.5 47l12 35h28v-302h-29l-11 33q-9 28 -18 46t-20 28t-26.5 14t-37.5 4h-55v-273l165 4q24 0 41.5 3.5t31 10.5t25 18.5t23.5 27.5l84 107l24 -4l-25 -220
h-627v34l107 23v587l-107 23v34h592zM222 776l-27 24l131 205h60l122 -205l-26 -24l-130 114z" />
    <glyph glyph-name="ecircumflex" unicode="&#xea;" horiz-adv-x="569" 
d="M175 587l-27 25l133 209h62l124 -209l-27 -25l-132 116zM179 264q0 -95 42 -147t130 -52q39 0 75 9t85 30l12 -26q-53 -45 -109.5 -70.5t-112.5 -25.5q-59 0 -106 19t-81 53t-52 82t-18 107q0 60 21 111t57 88.5t83.5 58.5t99.5 21q61 0 104 -21t70 -56.5t38.5 -82
t10.5 -98.5h-349zM394 312q-3 167 -98 167q-49 0 -80.5 -47t-35.5 -130z" />
    <glyph glyph-name="ecircumflex.sc" horiz-adv-x="621" 
d="M177 622l-27 25l133 209h62l124 -209l-27 -25l-132 116zM559 376l-29 -5l-59 79q-20 28 -43.5 40.5t-64.5 13.5l-99 1v-200h30q34 0 56.5 15t37.5 50l10 23h32v-226h-32l-11 25q-14 32 -36.5 48.5t-56.5 16.5h-30v-208l123 1q35 1 57.5 12.5t39.5 34.5l70 93l28 -5
l-20 -185h-520v31l82 22v448l-82 21v32h502z" />
    <glyph glyph-name="Edieresis" unicode="&#xcb;" horiz-adv-x="733" 
d="M459 793q-32 0 -52.5 21t-20.5 53t22.5 56.5t57.5 24.5q32 0 52.5 -21t20.5 -53t-22.5 -56.5t-57.5 -24.5zM235 793q-32 0 -52.5 21t-20.5 53t22.5 56.5t57.5 24.5q32 0 52.5 -21t20.5 -53t-22.5 -56.5t-57.5 -24.5zM651 490l-24 -7l-77 96q-15 19 -28 32t-27 20.5
t-32 11t-45 3.5l-122 2v-272h55q22 0 37.5 3.5t27 13.5t20 28t17.5 47l12 35h28v-302h-29l-11 33q-9 28 -18 46t-20 28t-26.5 14t-37.5 4h-55v-273l165 4q24 0 41.5 3.5t31 10.5t25 18.5t23.5 27.5l84 107l24 -4l-25 -220h-627v34l107 23v587l-107 23v34h592z" />
    <glyph glyph-name="edieresis" unicode="&#xeb;" horiz-adv-x="569" 
d="M417 605q-32 0 -53 21.5t-21 53.5q0 16 6 31t17 26.5t26 18.5t33 7q32 0 53 -21.5t21 -54.5q0 -16 -6 -31t-17 -26t-26 -18t-33 -7zM189 605q-33 0 -53.5 21.5t-20.5 53.5q0 16 6 31t17 26.5t26 18.5t32 7q33 0 53.5 -21.5t20.5 -54.5q0 -32 -23 -57t-58 -25zM179 264
q0 -95 42 -147t130 -52q39 0 75 9t85 30l12 -26q-53 -45 -109.5 -70.5t-112.5 -25.5q-59 0 -106 19t-81 53t-52 82t-18 107q0 60 21 111t57 88.5t83.5 58.5t99.5 21q61 0 104 -21t70 -56.5t38.5 -82t10.5 -98.5h-349zM394 312q-3 167 -98 167q-49 0 -80.5 -47t-35.5 -130z
" />
    <glyph glyph-name="edieresis.sc" horiz-adv-x="621" 
d="M419 640q-32 0 -53 21.5t-21 53.5q0 16 6 31t17 26.5t26 18.5t33 7q32 0 53 -21.5t21 -54.5q0 -16 -6 -31t-17 -26t-26 -18t-33 -7zM191 640q-33 0 -53.5 21.5t-20.5 53.5q0 16 6 31t17 26.5t26 18.5t32 7q33 0 53.5 -21.5t20.5 -54.5q0 -32 -23 -57t-58 -25zM559 376
l-29 -5l-59 79q-20 28 -43.5 40.5t-64.5 13.5l-99 1v-200h30q34 0 56.5 15t37.5 50l10 23h32v-226h-32l-11 25q-14 32 -36.5 48.5t-56.5 16.5h-30v-208l123 1q35 1 57.5 12.5t39.5 34.5l70 93l28 -5l-20 -185h-520v31l82 22v448l-82 21v32h502z" />
    <glyph glyph-name="Edotaccent" unicode="&#x116;" horiz-adv-x="733" 
d="M428 875q0 -16 -6 -31t-17.5 -26.5t-26.5 -18.5t-33 -7q-33 0 -54 22t-21 55q0 16 6 31t17.5 26.5t26.5 18.5t33 7q33 0 54 -21.5t21 -55.5zM651 490l-24 -7l-77 96q-15 19 -28 32t-27 20.5t-32 11t-45 3.5l-122 2v-272h55q22 0 37.5 3.5t27 13.5t20 28t17.5 47l12 35h28
v-302h-29l-11 33q-9 28 -18 46t-20 28t-26.5 14t-37.5 4h-55v-273l165 4q24 0 41.5 3.5t31 10.5t25 18.5t23.5 27.5l84 107l24 -4l-25 -220h-627v34l107 23v587l-107 23v34h592z" />
    <glyph glyph-name="edotaccent" unicode="&#x117;" horiz-adv-x="569" 
d="M179 264q0 -95 42 -147t130 -52q39 0 75 9t85 30l12 -26q-53 -45 -109.5 -70.5t-112.5 -25.5q-59 0 -106 19t-81 53t-52 82t-18 107q0 60 21 111t57 88.5t83.5 58.5t99.5 21q61 0 104 -21t70 -56.5t38.5 -82t10.5 -98.5h-349zM394 312q-3 167 -98 167q-49 0 -80.5 -47
t-35.5 -130zM387 689q0 -34 -24 -59.5t-61 -25.5q-34 0 -55.5 22t-21.5 56q0 16 6.5 31.5t17.5 27.5t27 19t34 7q34 0 55.5 -22t21.5 -56z" />
    <glyph glyph-name="edotaccent.sc" horiz-adv-x="621" 
d="M389 724q0 -34 -24 -59.5t-61 -25.5q-34 0 -55.5 22t-21.5 56q0 16 6.5 31.5t17.5 27.5t27 19t34 7q34 0 55.5 -22t21.5 -56zM559 376l-29 -5l-59 79q-20 28 -43.5 40.5t-64.5 13.5l-99 1v-200h30q34 0 56.5 15t37.5 50l10 23h32v-226h-32l-11 25q-14 32 -36.5 48.5
t-56.5 16.5h-30v-208l123 1q35 1 57.5 12.5t39.5 34.5l70 93l28 -5l-20 -185h-520v31l82 22v448l-82 21v32h502z" />
    <glyph glyph-name="Egrave" unicode="&#xc8;" horiz-adv-x="733" 
d="M374 779q-47 39 -85.5 75.5t-55.5 60.5q-19 27 -16 53t27 42q23 14 48.5 5.5t42.5 -35.5q14 -23 30.5 -71.5t34.5 -111.5zM651 490l-24 -7l-77 96q-15 19 -28 32t-27 20.5t-32 11t-45 3.5l-122 2v-272h55q22 0 37.5 3.5t27 13.5t20 28t17.5 47l12 35h28v-302h-29l-11 33
q-9 28 -18 46t-20 28t-26.5 14t-37.5 4h-55v-273l165 4q24 0 41.5 3.5t31 10.5t25 18.5t23.5 27.5l84 107l24 -4l-25 -220h-627v34l107 23v587l-107 23v34h592z" />
    <glyph glyph-name="egrave" unicode="&#xe8;" horiz-adv-x="569" 
d="M179 264q0 -95 42 -147t130 -52q39 0 75 9t85 30l12 -26q-53 -45 -109.5 -70.5t-112.5 -25.5q-59 0 -106 19t-81 53t-52 82t-18 107q0 60 21 111t57 88.5t83.5 58.5t99.5 21q61 0 104 -21t70 -56.5t38.5 -82t10.5 -98.5h-349zM394 312q-3 167 -98 167q-49 0 -80.5 -47
t-35.5 -130zM330 591q-47 39 -86.5 76t-56.5 61q-19 29 -16 55.5t27 41.5q23 15 49.5 6t43.5 -36q14 -24 31 -73.5t35 -112.5z" />
    <glyph glyph-name="egrave.sc" horiz-adv-x="621" 
d="M332 626q-47 39 -86.5 76t-56.5 61q-19 29 -16 55.5t27 41.5q23 15 49.5 6t43.5 -36q14 -24 31 -73.5t35 -112.5zM559 376l-29 -5l-59 79q-20 28 -43.5 40.5t-64.5 13.5l-99 1v-200h30q34 0 56.5 15t37.5 50l10 23h32v-226h-32l-11 25q-14 32 -36.5 48.5t-56.5 16.5h-30
v-208l123 1q35 1 57.5 12.5t39.5 34.5l70 93l28 -5l-20 -185h-520v31l82 22v448l-82 21v32h502z" />
    <glyph glyph-name="Emacron" unicode="&#x112;" horiz-adv-x="733" 
d="M512 813h-326v83h326v-83zM651 490l-24 -7l-77 96q-15 19 -28 32t-27 20.5t-32 11t-45 3.5l-122 2v-272h55q22 0 37.5 3.5t27 13.5t20 28t17.5 47l12 35h28v-302h-29l-11 33q-9 28 -18 46t-20 28t-26.5 14t-37.5 4h-55v-273l165 4q24 0 41.5 3.5t31 10.5t25 18.5
t23.5 27.5l84 107l24 -4l-25 -220h-627v34l107 23v587l-107 23v34h592z" />
    <glyph glyph-name="emacron" unicode="&#x113;" horiz-adv-x="569" 
d="M179 264q0 -95 42 -147t130 -52q39 0 75 9t85 30l12 -26q-53 -45 -109.5 -70.5t-112.5 -25.5q-59 0 -106 19t-81 53t-52 82t-18 107q0 60 21 111t57 88.5t83.5 58.5t99.5 21q61 0 104 -21t70 -56.5t38.5 -82t10.5 -98.5h-349zM394 312q-3 167 -98 167q-49 0 -80.5 -47
t-35.5 -130zM473 625h-333v85h333v-85z" />
    <glyph glyph-name="emacron.sc" horiz-adv-x="621" 
d="M475 660h-333v85h333v-85zM559 376l-29 -5l-59 79q-20 28 -43.5 40.5t-64.5 13.5l-99 1v-200h30q34 0 56.5 15t37.5 50l10 23h32v-226h-32l-11 25q-14 32 -36.5 48.5t-56.5 16.5h-30v-208l123 1q35 1 57.5 12.5t39.5 34.5l70 93l28 -5l-20 -185h-520v31l82 22v448l-82 21
v32h502z" />
    <glyph glyph-name="Eogonek" unicode="&#x118;" horiz-adv-x="733" 
d="M651 490l-24 -7l-77 96q-15 19 -28 32t-27 20.5t-32 11t-45 3.5l-122 2v-272h55q22 0 37.5 3.5t27 13.5t20 28t17.5 47l12 35h28v-302h-29l-11 33q-9 28 -18 46t-20 28t-26.5 14t-37.5 4h-55v-273l165 4q24 0 41.5 3.5t31 10.5t25 18.5t23.5 27.5l84 107l24 -4l-25 -220
h-72q-44 -51 -59.5 -85t-15.5 -62q0 -38 20.5 -58t50.5 -20q23 0 40 7.5t29 15.5l14 -21q-25 -25 -54.5 -40t-64.5 -15q-48 0 -82.5 25.5t-34.5 78.5q0 51 29 92.5t79 81.5h-506v34l107 23v587l-107 23v34h592z" />
    <glyph glyph-name="eogonek" unicode="&#x119;" horiz-adv-x="569" 
d="M179 264q0 -95 42 -147t130 -52q39 0 75 9t85 30l12 -26q-11 -8 -24.5 -18t-29.5 -23q-63 -54 -87.5 -102t-24.5 -86q0 -39 20.5 -58.5t51.5 -19.5q23 0 40 7.5t29 15.5l16 -21q-26 -26 -56.5 -41t-65.5 -15q-24 0 -46 6.5t-38 20t-25.5 33t-9.5 46.5q0 47 25 88t72 81
q-33 -10 -69 -10q-59 0 -106 19t-81 53t-52 82t-18 107q0 60 21 111t57 88.5t83.5 58.5t99.5 21q61 0 104 -21t70 -56.5t38.5 -82t10.5 -98.5h-349zM394 312q-3 167 -98 167q-49 0 -80.5 -47t-35.5 -130z" />
    <glyph glyph-name="eogonek.sc" horiz-adv-x="621" 
d="M559 376l-29 -5l-59 79q-20 28 -43.5 40.5t-64.5 13.5l-99 1v-200h30q34 0 56.5 15t37.5 50l10 23h32v-226h-32l-11 25q-14 32 -36.5 48.5t-56.5 16.5h-30v-208l123 1q35 1 57.5 12.5t39.5 34.5l70 93l28 -5l-20 -185h-65q-45 -52 -60.5 -86.5t-15.5 -63.5
q0 -38 20.5 -58.5t52.5 -20.5q23 0 40 7.5t29 15.5l15 -21q-25 -26 -55.5 -41t-65.5 -15q-24 0 -46 6.5t-38.5 20t-26 33t-9.5 46.5q0 52 29.5 94.5t80.5 82.5h-405v31l82 22v448l-82 21v32h502z" />
    <glyph glyph-name="Eth" unicode="&#xd0;" horiz-adv-x="842" 
d="M788 355q0 -79 -29 -144t-81.5 -112t-127 -73t-164.5 -26h-343v34l110 23v277h-101v59h101v251l-110 23v34h350q92 0 165 -25t124 -71t78.5 -109.5t27.5 -140.5zM621 351q0 81 -19.5 137t-53 91.5t-79.5 51.5t-99 17l-70 2v-257h135v-59h-135v-282l93 1q50 1 92 17
t72 50.5t47 91t17 139.5z" />
    <glyph glyph-name="eth" unicode="&#xf0;" horiz-adv-x="631" 
d="M579 326q0 -80 -21 -143.5t-58.5 -108t-89 -68t-111.5 -23.5q-54 0 -100.5 18.5t-80.5 54t-53 86t-19 114.5q0 55 17.5 104t48.5 85.5t74 57.5t95 21q38 0 65.5 -11t56.5 -29l10 5q-12 46 -34 86.5t-53 77.5l-111 -48l-20 50l92 39q-57 56 -142 102l16 36
q57 -19 109.5 -44.5t97.5 -58.5l128 55l20 -49l-100 -43q75 -67 119 -158t44 -208zM437 291q0 38 -3.5 75t-11.5 69q-23 11 -44.5 15.5t-47.5 4.5q-63 0 -103 -53.5t-40 -157.5q0 -53 10.5 -93t28 -66.5t40.5 -39.5t48 -13q59 0 91 66.5t32 192.5z" />
    <glyph glyph-name="eth.sc" horiz-adv-x="705" 
d="M369 311v-50h-100v-214l69 1q36 1 66.5 13.5t52.5 40t34.5 70.5t12.5 105q0 60 -13.5 103t-37 71t-56.5 41.5t-72 14.5h-56v-196h100zM58 261v50h75v190l-83 21v32h293q73 0 131.5 -19.5t99 -55t62.5 -86t22 -112.5q0 -61 -22.5 -112.5t-64.5 -89t-102 -58.5t-135 -21
h-284v31l83 21v209h-75z" />
    <glyph glyph-name="Gbreve" unicode="&#x11e;" horiz-adv-x="797" 
d="M410 890q48 0 76 26t48 76l36 -11q-9 -94 -50 -141.5t-110 -47.5t-110.5 47.5t-49.5 141.5l37 11q17 -50 46 -76t77 -26zM644 468q-28 53 -54.5 90.5t-54 61.5t-56.5 35.5t-62 11.5q-40 0 -75.5 -17.5t-62 -54t-42 -92.5t-15.5 -132q0 -81 18 -141.5t50 -100.5t77.5 -60
t100.5 -20q23 0 45 6t39 14v198l-100 23v34h321v-34l-79 -23v-274l-31 -5l-76 52q-43 -26 -90 -41.5t-105 -15.5q-74 0 -136 26.5t-106.5 74t-69.5 113.5t-25 146q0 77 28.5 145t79 119t120 80.5t152.5 29.5q49 0 91 -9t74 -25l37 38h34l10 -251z" />
    <glyph glyph-name="gbreve" unicode="&#x11f;" horiz-adv-x="585" 
d="M488 350q0 -37 -15.5 -67.5t-43.5 -52.5t-67.5 -34.5t-88.5 -12.5q-28 0 -46.5 2.5t-34.5 8.5q-9 -11 -16.5 -25.5t-7.5 -26.5q0 -22 17 -32t58 -11l136 -3q175 -3 175 -128q0 -40 -21 -76.5t-59.5 -64.5t-94 -44.5t-124.5 -16.5q-122 0 -180.5 34t-58.5 82
q0 33 27.5 62.5t81.5 50.5l-1 11q-66 22 -66 72q0 28 23.5 57.5t72.5 65.5v7q-45 22 -72 59t-27 86q0 39 17 70.5t47 53t70 33.5t87 12q56 0 91 -13.5t64 -33.5l89 47h63v-97h-22l-96 19l-3 -8q12 -18 19 -39t7 -47zM362 356q0 63 -23.5 96t-67.5 33q-40 0 -65.5 -29.5
t-25.5 -102.5q0 -39 6.5 -64.5t19 -41t30 -21.5t40.5 -6q39 0 62.5 35t23.5 101zM462 -86q0 39 -30 56t-93 18l-179 2q-14 -14 -22.5 -33.5t-8.5 -43.5q0 -46 39.5 -74t126.5 -28q36 0 66.5 8.5t53 22.5t35 32.5t12.5 39.5zM288 698q48 0 77 26.5t49 77.5l38 -11
q-10 -95 -51.5 -143.5t-112.5 -48.5q-70 0 -112.5 48.5t-50.5 143.5l38 11q18 -51 47.5 -77.5t77.5 -26.5z" />
    <glyph glyph-name="gbreve.sc" horiz-adv-x="664" 
d="M520 364q-44 85 -83.5 122t-85.5 37q-28 0 -54.5 -12.5t-47.5 -39.5t-34 -70.5t-13 -105.5q0 -70 15.5 -118t41 -77.5t57 -42.5t63.5 -13q17 0 34.5 5t30.5 13v152l-88 20v32h274v-29l-57 -21v-225l-31 -2l-64 47q-29 -23 -69 -38t-82 -15q-60 0 -111 20.5t-88 58
t-58 89.5t-21 116q0 68 24.5 124t66.5 96t98 62t119 22q38 0 73.5 -7.5t62.5 -21.5l28 32h35l10 -207zM337 739q48 0 77 26.5t49 77.5l38 -11q-10 -95 -51.5 -143.5t-112.5 -48.5q-70 0 -112.5 48.5t-50.5 143.5l38 11q18 -51 47.5 -77.5t77.5 -26.5z" />
    <glyph glyph-name="Gcommaaccent" unicode="&#x122;" horiz-adv-x="797" 
d="M644 468q-28 53 -54.5 90.5t-54 61.5t-56.5 35.5t-62 11.5q-40 0 -75.5 -17.5t-62 -54t-42 -92.5t-15.5 -132q0 -81 18 -141.5t50 -100.5t77.5 -60t100.5 -20q23 0 45 6t39 14v198l-100 23v34h321v-34l-79 -23v-274l-31 -5l-76 52q-43 -26 -90 -41.5t-105 -15.5
q-74 0 -136 26.5t-106.5 74t-69.5 113.5t-25 146q0 77 28.5 145t79 119t120 80.5t152.5 29.5q49 0 91 -9t74 -25l37 38h34l10 -251zM469 -158q0 -56 -40 -103.5t-106 -75.5l-11 22q85 56 93 116l-6 4l-2 -1q-5 -2 -9 -2.5t-11 -0.5q-20 0 -33.5 17t-13.5 42q0 27 18.5 47.5
t46.5 20.5q34 0 54 -22.5t20 -63.5z" />
    <glyph glyph-name="gcommaaccent" unicode="&#x123;" horiz-adv-x="585" 
d="M211 677q0 56 40 103.5t106 75.5l11 -22q-85 -56 -93 -116l6 -4l2 1q5 2 9 2.5t11 0.5q20 0 33.5 -17t13.5 -42q0 -27 -18.5 -47.5t-46.5 -20.5q-34 0 -54 22.5t-20 63.5zM488 350q0 -37 -15.5 -67.5t-43.5 -52.5t-67.5 -34.5t-88.5 -12.5q-28 0 -46.5 2.5t-34.5 8.5
q-9 -11 -16.5 -25.5t-7.5 -26.5q0 -22 17 -32t58 -11l136 -3q175 -3 175 -128q0 -40 -21 -76.5t-59.5 -64.5t-94 -44.5t-124.5 -16.5q-122 0 -180.5 34t-58.5 82q0 33 27.5 62.5t81.5 50.5l-1 11q-66 22 -66 72q0 28 23.5 57.5t72.5 65.5v7q-45 22 -72 59t-27 86
q0 39 17 70.5t47 53t70 33.5t87 12q56 0 91 -13.5t64 -33.5l89 47h63v-97h-22l-96 19l-3 -8q12 -18 19 -39t7 -47zM362 356q0 63 -23.5 96t-67.5 33q-40 0 -65.5 -29.5t-25.5 -102.5q0 -39 6.5 -64.5t19 -41t30 -21.5t40.5 -6q39 0 62.5 35t23.5 101zM462 -86q0 39 -30 56
t-93 18l-179 2q-14 -14 -22.5 -33.5t-8.5 -43.5q0 -46 39.5 -74t126.5 -28q36 0 66.5 8.5t53 22.5t35 32.5t12.5 39.5z" />
    <glyph glyph-name="gcommaaccent.sc" horiz-adv-x="664" 
d="M405 -161q0 -57 -40.5 -105.5t-108.5 -76.5l-11 22q88 59 94 118l-5 5l-3 -1q-5 -2 -9 -2.5t-11 -0.5q-21 0 -34.5 17t-13.5 42q0 28 19 49t47 21q35 0 55.5 -23t20.5 -65zM520 364q-44 85 -83.5 122t-85.5 37q-28 0 -54.5 -12.5t-47.5 -39.5t-34 -70.5t-13 -105.5
q0 -70 15.5 -118t41 -77.5t57 -42.5t63.5 -13q17 0 34.5 5t30.5 13v152l-88 20v32h274v-29l-57 -21v-225l-31 -2l-64 47q-29 -23 -69 -38t-82 -15q-60 0 -111 20.5t-88 58t-58 89.5t-21 116q0 68 24.5 124t66.5 96t98 62t119 22q38 0 73.5 -7.5t62.5 -21.5l28 32h35l10 -207
z" />
    <glyph glyph-name="Gdotaccent" unicode="&#x120;" horiz-adv-x="797" 
d="M486 880q0 -16 -6 -31t-17.5 -26.5t-26.5 -18.5t-33 -7q-33 0 -54 22t-21 55q0 16 6 31t17.5 26.5t26.5 18.5t33 7q33 0 54 -21.5t21 -55.5zM644 468q-28 53 -54.5 90.5t-54 61.5t-56.5 35.5t-62 11.5q-40 0 -75.5 -17.5t-62 -54t-42 -92.5t-15.5 -132q0 -81 18 -141.5
t50 -100.5t77.5 -60t100.5 -20q23 0 45 6t39 14v198l-100 23v34h321v-34l-79 -23v-274l-31 -5l-76 52q-43 -26 -90 -41.5t-105 -15.5q-74 0 -136 26.5t-106.5 74t-69.5 113.5t-25 146q0 77 28.5 145t79 119t120 80.5t152.5 29.5q49 0 91 -9t74 -25l37 38h34l10 -251z" />
    <glyph glyph-name="gdotaccent" unicode="&#x121;" horiz-adv-x="585" 
d="M488 350q0 -37 -15.5 -67.5t-43.5 -52.5t-67.5 -34.5t-88.5 -12.5q-28 0 -46.5 2.5t-34.5 8.5q-9 -11 -16.5 -25.5t-7.5 -26.5q0 -22 17 -32t58 -11l136 -3q175 -3 175 -128q0 -40 -21 -76.5t-59.5 -64.5t-94 -44.5t-124.5 -16.5q-122 0 -180.5 34t-58.5 82
q0 33 27.5 62.5t81.5 50.5l-1 11q-66 22 -66 72q0 28 23.5 57.5t72.5 65.5v7q-45 22 -72 59t-27 86q0 39 17 70.5t47 53t70 33.5t87 12q56 0 91 -13.5t64 -33.5l89 47h63v-97h-22l-96 19l-3 -8q12 -18 19 -39t7 -47zM362 356q0 63 -23.5 96t-67.5 33q-40 0 -65.5 -29.5
t-25.5 -102.5q0 -39 6.5 -64.5t19 -41t30 -21.5t40.5 -6q39 0 62.5 35t23.5 101zM462 -86q0 39 -30 56t-93 18l-179 2q-14 -14 -22.5 -33.5t-8.5 -43.5q0 -46 39.5 -74t126.5 -28q36 0 66.5 8.5t53 22.5t35 32.5t12.5 39.5zM366 689q0 -34 -24 -59.5t-61 -25.5
q-34 0 -55.5 22t-21.5 56q0 16 6.5 31.5t17.5 27.5t27 19t34 7q34 0 55.5 -22t21.5 -56z" />
    <glyph glyph-name="gdotaccent.sc" horiz-adv-x="664" 
d="M520 364q-44 85 -83.5 122t-85.5 37q-28 0 -54.5 -12.5t-47.5 -39.5t-34 -70.5t-13 -105.5q0 -70 15.5 -118t41 -77.5t57 -42.5t63.5 -13q17 0 34.5 5t30.5 13v152l-88 20v32h274v-29l-57 -21v-225l-31 -2l-64 47q-29 -23 -69 -38t-82 -15q-60 0 -111 20.5t-88 58
t-58 89.5t-21 116q0 68 24.5 124t66.5 96t98 62t119 22q38 0 73.5 -7.5t62.5 -21.5l28 32h35l10 -207zM415 730q0 -34 -24 -59.5t-61 -25.5q-34 0 -55.5 22t-21.5 56q0 16 6.5 31.5t17.5 27.5t27 19t34 7q34 0 55.5 -22t21.5 -56z" />
    <glyph glyph-name="Hbar" unicode="&#x126;" horiz-adv-x="909" 
d="M862 488h-98v-431l107 -23v-34h-356v34l98 23v263h-317v-263l98 -23v-34h-356v34l107 23v431h-95v55h95v101l-107 23v34h356v-34l-98 -23v-101h317v101l-98 23v34h356v-34l-107 -23v-101h98v-55zM613 488h-317v-110h317v110z" />
    <glyph glyph-name="hbar" unicode="&#x127;" horiz-adv-x="664" 
d="M441 323q0 51 -20.5 80t-69.5 29q-32 0 -57 -8.5t-56 -27.5v-342l63 -23v-31h-270v31l73 23v546h-82v57h82v56l-80 39v27l196 51l18 -11v-162h180v-57h-180v-160l10 -3q38 35 83.5 60t100.5 25q71 0 107 -42.5t36 -111.5v-314l74 -23v-31h-271v31l63 23v269v0z" />
    <glyph glyph-name="hbar.sc" horiz-adv-x="761" 
d="M706 388h-70v-335l83 -22v-31h-296v31l73 21v206h-232v-206l73 -21v-31h-295v31l82 22v335h-68v49h68v64l-82 21v32h295v-32l-73 -20v-65h232v65l-73 20v32h296v-32l-83 -21v-64h70v-49zM496 388h-232v-77h232v77z" />
    <glyph glyph-name="Iacute" unicode="&#xcd;" horiz-adv-x="469" 
d="M419 34v-34h-370v34l110 23v587l-110 23v34h370v-34l-109 -23v-587zM346 1010q23 -16 26 -42t-16 -53q-16 -24 -55 -60.5t-86 -75.5l-26 18q18 63 34.5 111.5t30.5 71.5q17 27 43 35.5t49 -5.5z" />
    <glyph glyph-name="iacute" unicode="&#xed;" horiz-adv-x="343" 
d="M275 819q24 -16 27 -42t-16 -55q-17 -24 -56.5 -61t-87.5 -76l-26 18q18 63 35 112.5t31 73.5q17 28 43.5 36.5t49.5 -6.5zM111 410l-72 45v26l190 44l16 -9v-462l71 -23v-31h-280v31l75 23v356z" />
    <glyph glyph-name="iacute.sc" horiz-adv-x="420" 
d="M324 860q24 -16 27 -42t-16 -55q-17 -24 -56.5 -61t-87.5 -76l-26 18q18 63 35 112.5t31 73.5q17 28 43.5 36.5t49.5 -6.5zM366 31v-31h-312v31l86 22v448l-86 21v32h312v-32l-86 -21v-448z" />
    <glyph glyph-name="Ibreve" unicode="&#x12c;" horiz-adv-x="469" 
d="M419 34v-34h-370v34l110 23v587l-110 23v34h370v-34l-109 -23v-587zM236 885q48 0 76 26t48 76l36 -11q-9 -94 -50 -141.5t-110 -47.5t-110.5 47.5t-49.5 141.5l37 11q17 -50 46 -76t77 -26z" />
    <glyph glyph-name="ibreve" unicode="&#x12d;" horiz-adv-x="343" 
d="M111 410l-72 45v26l190 44l16 -9v-462l71 -23v-31h-280v31l75 23v356zM164 692q48 0 77 26.5t49 77.5l38 -11q-10 -95 -51.5 -143.5t-112.5 -48.5q-70 0 -112.5 48.5t-50.5 143.5l38 11q18 -51 47.5 -77.5t77.5 -26.5z" />
    <glyph glyph-name="ibreve.sc" horiz-adv-x="420" 
d="M366 31v-31h-312v31l86 22v448l-86 21v32h312v-32l-86 -21v-448zM212 733q48 0 77 26.5t49 77.5l38 -11q-10 -95 -51.5 -143.5t-112.5 -48.5q-70 0 -112.5 48.5t-50.5 143.5l38 11q18 -51 47.5 -77.5t77.5 -26.5z" />
    <glyph glyph-name="Icircumflex" unicode="&#xce;" horiz-adv-x="469" 
d="M419 34v-34h-370v34l110 23v587l-110 23v34h370v-34l-109 -23v-587zM106 776l-27 24l131 205h60l122 -205l-26 -24l-130 114z" />
    <glyph glyph-name="icircumflex" unicode="&#xee;" horiz-adv-x="343" 
d="M31 581l-27 25l133 209h62l124 -209l-27 -25l-132 116zM111 410l-72 45v26l190 44l16 -9v-462l71 -23v-31h-280v31l75 23v356z" />
    <glyph glyph-name="icircumflex.sc" horiz-adv-x="420" 
d="M79 622l-27 25l133 209h62l124 -209l-27 -25l-132 116zM366 31v-31h-312v31l86 22v448l-86 21v32h312v-32l-86 -21v-448z" />
    <glyph glyph-name="Idieresis" unicode="&#xcf;" horiz-adv-x="469" 
d="M419 34v-34h-370v34l110 23v587l-110 23v34h370v-34l-109 -23v-587zM343 793q-32 0 -52.5 21t-20.5 53t22.5 56.5t57.5 24.5q32 0 52.5 -21t20.5 -53t-22.5 -56.5t-57.5 -24.5zM119 793q-32 0 -52.5 21t-20.5 53t22.5 56.5t57.5 24.5q32 0 52.5 -21t20.5 -53t-22.5 -56.5
t-57.5 -24.5z" />
    <glyph glyph-name="idieresis" unicode="&#xef;" horiz-adv-x="343" 
d="M273 599q-32 0 -53 21.5t-21 53.5q0 16 6 31t17 26.5t26 18.5t33 7q32 0 53 -21.5t21 -54.5q0 -16 -6 -31t-17 -26t-26 -18t-33 -7zM45 599q-33 0 -53.5 21.5t-20.5 53.5q0 16 6 31t17 26.5t26 18.5t32 7q33 0 53.5 -21.5t20.5 -54.5q0 -32 -23 -57t-58 -25zM111 410
l-72 45v26l190 44l16 -9v-462l71 -23v-31h-280v31l75 23v356z" />
    <glyph glyph-name="idieresis.sc" horiz-adv-x="420" 
d="M320 640q-32 0 -53 21.5t-21 53.5q0 16 6 31t17 26.5t26 18.5t33 7q32 0 53 -21.5t21 -54.5q0 -16 -6 -31t-17 -26t-26 -18t-33 -7zM92 640q-33 0 -53.5 21.5t-20.5 53.5q0 16 6 31t17 26.5t26 18.5t32 7q33 0 53.5 -21.5t20.5 -54.5q0 -32 -23 -57t-58 -25zM366 31v-31
h-312v31l86 22v448l-86 21v32h312v-32l-86 -21v-448z" />
    <glyph glyph-name="Idotaccent" unicode="&#x130;" horiz-adv-x="469" 
d="M419 34v-34h-370v34l110 23v587l-110 23v34h370v-34l-109 -23v-587zM312 875q0 -16 -6 -31t-17.5 -26.5t-26.5 -18.5t-33 -7q-33 0 -54 22t-21 55q0 16 6 31t17.5 26.5t26.5 18.5t33 7q33 0 54 -21.5t21 -55.5z" />
    <glyph glyph-name="idotaccent.sc" horiz-adv-x="420" 
d="M366 31v-31h-312v31l86 22v448l-86 21v32h312v-32l-86 -21v-448zM291 724q0 -34 -24 -59.5t-61 -25.5q-34 0 -55.5 22t-21.5 56q0 16 6.5 31.5t17.5 27.5t27 19t34 7q34 0 55.5 -22t21.5 -56z" />
    <glyph glyph-name="dotlessi" unicode="&#x131;" horiz-adv-x="343" 
d="M111 410l-72 45v26l190 44l16 -9v-462l71 -23v-31h-280v31l75 23v356z" />
    <glyph glyph-name="dotlessi.sc" horiz-adv-x="420" 
d="M366 31v-31h-312v31l86 22v448l-86 21v32h312v-32l-86 -21v-448z" />
    <glyph glyph-name="Igrave" unicode="&#xcc;" horiz-adv-x="469" 
d="M419 34v-34h-370v34l110 23v587l-110 23v34h370v-34l-109 -23v-587zM258 779q-47 39 -85.5 75.5t-55.5 60.5q-19 27 -16 53t27 42q23 14 48.5 5.5t42.5 -35.5q14 -23 30.5 -71.5t34.5 -111.5z" />
    <glyph glyph-name="igrave" unicode="&#xec;" horiz-adv-x="343" 
d="M111 410l-72 45v26l190 44l16 -9v-462l71 -23v-31h-280v31l75 23v356zM186 585q-47 39 -86.5 76t-56.5 61q-19 29 -16 55.5t27 41.5q23 15 49.5 6t43.5 -36q14 -24 31 -73.5t35 -112.5z" />
    <glyph glyph-name="igrave.sc" horiz-adv-x="420" 
d="M366 31v-31h-312v31l86 22v448l-86 21v32h312v-32l-86 -21v-448zM234 626q-47 39 -86.5 76t-56.5 61q-19 29 -16 55.5t27 41.5q23 15 49.5 6t43.5 -36q14 -24 31 -73.5t35 -112.5z" />
    <glyph glyph-name="Imacron" unicode="&#x12a;" horiz-adv-x="469" 
d="M419 34v-34h-370v34l110 23v587l-110 23v34h370v-34l-109 -23v-587zM396 813h-326v83h326v-83z" />
    <glyph glyph-name="imacron" unicode="&#x12b;" horiz-adv-x="343" 
d="M111 410l-72 45v26l190 44l16 -9v-462l71 -23v-31h-280v31l75 23v356zM329 619h-333v85h333v-85z" />
    <glyph glyph-name="imacron.sc" horiz-adv-x="420" 
d="M366 31v-31h-312v31l86 22v448l-86 21v32h312v-32l-86 -21v-448zM376 660h-333v85h333v-85z" />
    <glyph glyph-name="Iogonek" unicode="&#x12e;" horiz-adv-x="469" 
d="M419 34v-34h-145q-44 -51 -59.5 -85t-15.5 -62q0 -38 20.5 -58t50.5 -20q23 0 40 7.5t29 15.5l14 -21q-25 -25 -54.5 -40t-64.5 -15q-48 0 -82.5 25.5t-34.5 78.5q0 51 29 92.5t79 81.5h-176v34l110 23v587l-110 23v34h370v-34l-109 -23v-587z" />
    <glyph glyph-name="iogonek" unicode="&#x12f;" horiz-adv-x="343" 
d="M39 455v26l190 44l16 -9v-462l71 -23v-31h-102q-45 -52 -60.5 -86.5t-15.5 -63.5q0 -38 20.5 -58.5t52.5 -20.5q23 0 40 7.5t29 15.5l15 -21q-25 -26 -55.5 -41t-65.5 -15q-24 0 -46 6.5t-38.5 20t-26 33t-9.5 46.5q0 52 29.5 94.5t80.5 82.5h-128v31l75 23v356zM89 717
q0 18 6.5 34.5t18.5 29t28.5 20.5t36.5 8q38 0 61.5 -24.5t23.5 -60.5q0 -18 -7 -34.5t-19 -29t-28.5 -20t-36.5 -7.5q-36 0 -60 24t-24 60z" />
    <glyph glyph-name="iogonek.sc" horiz-adv-x="420" 
d="M366 31v-31h-111q-45 -52 -60.5 -86.5t-15.5 -63.5q0 -38 20.5 -58.5t52.5 -20.5q23 0 40 7.5t29 15.5l15 -21q-25 -26 -55.5 -41t-65.5 -15q-24 0 -46 6.5t-38.5 20t-26 33t-9.5 46.5q0 52 29.5 94.5t80.5 82.5h-151v31l86 22v448l-86 21v32h312v-32l-86 -21v-448z" />
    <glyph glyph-name="Kcommaaccent" unicode="&#x136;" horiz-adv-x="817" 
d="M716 69l91 -35v-34h-318v28l64 26l-188 271h-69v-268l96 -23v-34h-354v34l107 23v587l-107 23v34h354v-34l-96 -23v-262h78l203 249l-81 41v29h279v-34l-103 -40l-208 -221zM494 -158q0 -56 -40 -103.5t-106 -75.5l-11 22q85 56 93 116l-6 4l-2 -1q-5 -2 -9 -2.5
t-11 -0.5q-20 0 -33.5 17t-13.5 42q0 27 18.5 47.5t46.5 20.5q34 0 54 -22.5t20 -63.5z" />
    <glyph glyph-name="kcommaaccent" unicode="&#x137;" horiz-adv-x="627" 
d="M390 -161q0 -57 -40.5 -105.5t-108.5 -76.5l-11 22q88 59 94 118l-5 5l-3 -1q-5 -2 -9 -2.5t-11 -0.5q-21 0 -34.5 17t-13.5 42q0 28 19 49t47 21q35 0 55.5 -23t20.5 -65zM558 54l56 -23v-31h-243v28l42 22l-132 181h-43v-177l58 -23v-31h-265v31l73 23v653l-80 45v27
l196 51l18 -11v-534h45l138 156l-61 38v26h231v-31l-71 -28l-156 -141z" />
    <glyph glyph-name="kcommaaccent.sc" horiz-adv-x="695" 
d="M426 -161q0 -57 -40.5 -105.5t-108.5 -76.5l-11 22q88 59 94 118l-5 5l-3 -1q-5 -2 -9 -2.5t-11 -0.5q-21 0 -34.5 17t-13.5 42q0 28 19 49t47 21q35 0 55.5 -23t20.5 -65zM612 58l68 -27v-31h-275v25l55 23l-136 206h-60v-203l70 -20v-31h-292v31l82 22v448l-82 21v32
h293v-31l-71 -20v-196h68l144 182l-68 34v31h250v-32l-91 -36l-149 -156z" />
    <glyph glyph-name="Lacute" unicode="&#x139;" horiz-adv-x="700" 
d="M339 1010q23 -16 26 -42t-16 -53q-16 -24 -55 -60.5t-86 -75.5l-26 18q18 63 34.5 111.5t30.5 71.5q17 27 43 35.5t49 -5.5zM634 0h-596v34l107 23v587l-107 23v34h369v-34l-111 -23v-591l125 3q24 0 42 4.5t32.5 13.5t28 23t28.5 34l86 115l23 -4z" />
    <glyph glyph-name="lacute" unicode="&#x13a;" horiz-adv-x="339" 
d="M285 1096q24 -16 27 -42t-16 -55q-17 -24 -56.5 -61t-87.5 -76l-26 18q18 63 35 112.5t31 73.5q17 28 43.5 36.5t49.5 -6.5zM312 31v-31h-280v31l75 23v653l-79 45v27l194 51l19 -11v-765z" />
    <glyph glyph-name="lacute.sc" horiz-adv-x="587" 
d="M528 0h-486v31l82 22v448l-82 21v32h308v-32l-86 -21v-452l73 1q19 1 33.5 4.5t26.5 11.5t23.5 20t25.5 30l79 105l25 -4zM318 853q24 -16 27 -42t-16 -55q-17 -24 -56.5 -61t-87.5 -76l-26 18q18 63 35 112.5t31 73.5q17 28 43.5 36.5t49.5 -6.5z" />
    <glyph glyph-name="Lcaron" unicode="&#x13d;" horiz-adv-x="700" 
d="M634 0h-596v34l107 23v587l-107 23v34h369v-34l-111 -23v-591l125 3q24 0 42 4.5t32.5 13.5t28 23t28.5 34l86 115l23 -4zM526 702q25 -2 40.5 -20.5t13.5 -46.5q-2 -30 -26 -81t-65 -114l-26 9q-2 48 -3.5 90.5t0.5 68.5q2 45 19 70.5t47 23.5z" />
    <glyph glyph-name="lcaron" unicode="&#x13e;" horiz-adv-x="339" 
d="M376 830q26 -2 41.5 -21t13.5 -47q-2 -31 -26.5 -82.5t-66.5 -116.5l-26 9q-2 48 -3.5 91.5t0.5 70.5q2 46 19.5 72t47.5 24zM312 31v-31h-280v31l75 23v653l-79 45v27l194 51l19 -11v-765z" />
    <glyph glyph-name="lcaron.sc" horiz-adv-x="587" 
d="M528 0h-486v31l82 22v448l-82 21v32h308v-32l-86 -21v-452l73 1q19 1 33.5 4.5t26.5 11.5t23.5 20t25.5 30l79 105l25 -4zM468 556q26 -2 41.5 -21t13.5 -47q-2 -31 -26.5 -82.5t-66.5 -116.5l-26 9q-2 48 -3.5 91.5t0.5 70.5q2 46 19.5 72t47.5 24z" />
    <glyph glyph-name="Lcommaaccent" unicode="&#x13b;" horiz-adv-x="700" 
d="M634 0h-596v34l107 23v587l-107 23v34h369v-34l-111 -23v-591l125 3q24 0 42 4.5t32.5 13.5t28 23t28.5 34l86 115l23 -4zM425 -158q0 -56 -40 -103.5t-106 -75.5l-11 22q85 56 93 116l-6 4l-2 -1q-5 -2 -9 -2.5t-11 -0.5q-20 0 -33.5 17t-13.5 42q0 27 18.5 47.5
t46.5 20.5q34 0 54 -22.5t20 -63.5z" />
    <glyph glyph-name="lcommaaccent" unicode="&#x13c;" horiz-adv-x="339" 
d="M240 -161q0 -57 -40.5 -105.5t-108.5 -76.5l-11 22q88 59 94 118l-5 5l-3 -1q-5 -2 -9 -2.5t-11 -0.5q-21 0 -34.5 17t-13.5 42q0 28 19 49t47 21q35 0 55.5 -23t20.5 -65zM312 31v-31h-280v31l75 23v653l-79 45v27l194 51l19 -11v-765z" />
    <glyph glyph-name="lcommaaccent.sc" horiz-adv-x="587" 
d="M528 0h-486v31l82 22v448l-82 21v32h308v-32l-86 -21v-452l73 1q19 1 33.5 4.5t26.5 11.5t23.5 20t25.5 30l79 105l25 -4zM373 -161q0 -57 -40.5 -105.5t-108.5 -76.5l-11 22q88 59 94 118l-5 5l-3 -1q-5 -2 -9 -2.5t-11 -0.5q-21 0 -34.5 17t-13.5 42q0 28 19 49t47 21
q35 0 55.5 -23t20.5 -65z" />
    <glyph glyph-name="Ldot" unicode="&#x13f;" horiz-adv-x="700" 
d="M634 0h-596v34l107 23v587l-107 23v34h369v-34l-111 -23v-591l125 3q24 0 42 4.5t32.5 13.5t28 23t28.5 34l86 115l23 -4zM632 419q0 -34 -24 -59.5t-61 -25.5q-34 0 -55.5 22t-21.5 56q0 16 6.5 31.5t17.5 27.5t27 19t34 7q34 0 55.5 -22t21.5 -56z" />
    <glyph glyph-name="ldot" unicode="&#x140;" horiz-adv-x="430" 
d="M312 31v-31h-280v31l75 23v653l-79 45v27l194 51l19 -11v-765zM466 399q0 -32 -22.5 -56t-57.5 -24q-32 0 -52 20.5t-20 52.5t22.5 56t57.5 24q32 0 52 -20.5t20 -52.5z" />
    <glyph glyph-name="ldot.sc" horiz-adv-x="587" 
d="M528 0h-486v31l82 22v448l-82 21v32h308v-32l-86 -21v-452l73 1q19 0 34.5 2t29 8t26 17t26.5 29l70 93l25 -3zM553 363q0 -30 -21.5 -52.5t-53.5 -22.5q-31 0 -51.5 21t-20.5 51t21.5 52.5t53.5 22.5q30 0 51 -21t21 -51z" />
    <glyph glyph-name="Lslash" unicode="&#x141;" horiz-adv-x="705" 
d="M639 0h-596v34l110 23v243l-79 -21l-16 55l95 25v285l-110 23v34h369v-34l-112 -23v-245l134 36l16 -54l-150 -41v-287l127 3q24 0 41.5 4.5t32 13.5t28 23t28.5 34l87 115l22 -4z" />
    <glyph glyph-name="lslash" unicode="&#x142;" horiz-adv-x="389" 
d="M265 54l72 -23v-31h-280v31l76 23v297l-87 -25l-16 56l103 28v297l-80 45v27l193 51l19 -11v-370l97 28l16 -55l-113 -33v-335z" />
    <glyph glyph-name="lslash.sc" horiz-adv-x="590" 
d="M67 212l-13 46l75 21v222l-82 21v32h306v-32l-87 -21v-184l115 32l14 -47l-129 -35v-218l73 1q19 1 34 4.5t27.5 11.5t24 20t25.5 30l78 105l25 -4l-22 -217h-484v31l82 22v176z" />
    <glyph glyph-name="Nacute" unicode="&#x143;" horiz-adv-x="866" 
d="M542 1010q23 -16 26 -42t-16 -53q-16 -24 -55 -60.5t-86 -75.5l-26 18q18 63 34.5 111.5t30.5 71.5q17 27 43 35.5t49 -5.5zM145 633l-92 33v35h265l79 -114l251 -359h12v404l-101 35v34h269v-34l-96 -35v-639h-100l-79 114l-322 452h-14v-490l102 -35v-34h-269v34l95 35
v564z" />
    <glyph glyph-name="nacute" unicode="&#x144;" horiz-adv-x="662" 
d="M436 825q24 -16 27 -42t-16 -55q-17 -24 -56.5 -61t-87.5 -76l-26 18q18 63 35 112.5t31 73.5q17 28 43.5 36.5t49.5 -6.5zM572 54l74 -23v-31h-271v31l64 23v269q0 51 -20.5 80t-68.5 29q-30 0 -54 -9.5t-54 -26.5v-342l63 -23v-31h-270v31l73 23v356l-73 45v26l185 44
l18 -12l-8 -82l13 -2q51 48 96 70.5t91 22.5q69 0 105.5 -40.5t36.5 -113.5v-314z" />
    <glyph glyph-name="nacute.sc" horiz-adv-x="726" 
d="M475 860q24 -16 27 -42t-16 -55q-17 -24 -56.5 -61t-87.5 -76l-26 18q18 63 35 112.5t31 73.5q17 28 43.5 36.5t49.5 -6.5zM124 493l-74 28v33h230l60 -94l199 -294h9v324l-83 32v32h228v-32l-79 -32v-496h-122l-70 107l-220 322h-12v-359l84 -33v-31h-228v31l78 33v429z
" />
    <glyph glyph-name="Ncaron" unicode="&#x147;" horiz-adv-x="866" 
d="M560 1016l27 -24l-131 -205h-60l-122 205l26 24l130 -114zM145 633l-92 33v35h265l79 -114l251 -359h12v404l-101 35v34h269v-34l-96 -35v-639h-100l-79 114l-322 452h-14v-490l102 -35v-34h-269v34l95 35v564z" />
    <glyph glyph-name="ncaron" unicode="&#x148;" horiz-adv-x="662" 
d="M455 832l27 -25l-133 -209h-62l-124 209l27 25l132 -116zM572 54l74 -23v-31h-271v31l64 23v269q0 51 -20.5 80t-68.5 29q-30 0 -54 -9.5t-54 -26.5v-342l63 -23v-31h-270v31l73 23v356l-73 45v26l185 44l18 -12l-8 -82l13 -2q51 48 96 70.5t91 22.5q69 0 105.5 -40.5
t36.5 -113.5v-314z" />
    <glyph glyph-name="ncaron.sc" horiz-adv-x="726" 
d="M494 867l27 -25l-133 -209h-62l-124 209l27 25l132 -116zM124 493l-74 28v33h230l60 -94l199 -294h9v324l-83 32v32h228v-32l-79 -32v-496h-122l-70 107l-220 322h-12v-359l84 -33v-31h-228v31l78 33v429z" />
    <glyph glyph-name="Ncommaaccent" unicode="&#x145;" horiz-adv-x="866" 
d="M507 -158q0 -56 -40 -103.5t-106 -75.5l-11 22q85 56 93 116l-6 4l-2 -1q-5 -2 -9 -2.5t-11 -0.5q-20 0 -33.5 17t-13.5 42q0 27 18.5 47.5t46.5 20.5q34 0 54 -22.5t20 -63.5zM145 633l-92 33v35h265l79 -114l251 -359h12v404l-101 35v34h269v-34l-96 -35v-639h-100
l-79 114l-322 452h-14v-490l102 -35v-34h-269v34l95 35v564z" />
    <glyph glyph-name="ncommaaccent" unicode="&#x146;" horiz-adv-x="662" 
d="M401 -161q0 -57 -40.5 -105.5t-108.5 -76.5l-11 22q88 59 94 118l-5 5l-3 -1q-5 -2 -9 -2.5t-11 -0.5q-21 0 -34.5 17t-13.5 42q0 28 19 49t47 21q35 0 55.5 -23t20.5 -65zM572 54l74 -23v-31h-271v31l64 23v269q0 51 -20.5 80t-68.5 29q-30 0 -54 -9.5t-54 -26.5v-342
l63 -23v-31h-270v31l73 23v356l-73 45v26l185 44l18 -12l-8 -82l13 -2q51 48 96 70.5t91 22.5q69 0 105.5 -40.5t36.5 -113.5v-314z" />
    <glyph glyph-name="ncommaaccent.sc" horiz-adv-x="726" 
d="M431 -161q0 -57 -40.5 -105.5t-108.5 -76.5l-11 22q88 59 94 118l-5 5l-3 -1q-5 -2 -9 -2.5t-11 -0.5q-21 0 -34.5 17t-13.5 42q0 28 19 49t47 21q35 0 55.5 -23t20.5 -65zM124 493l-74 28v33h230l60 -94l199 -294h9v324l-83 32v32h228v-32l-79 -32v-496h-122l-70 107
l-220 322h-12v-359l84 -33v-31h-228v31l78 33v429z" />
    <glyph glyph-name="Ntilde" unicode="&#xd1;" horiz-adv-x="866" 
d="M264 791q11 83 34 120t70 37q22 0 44.5 -8.5t44 -18.5t41 -18.5t34.5 -8.5q17 0 27 14.5t24 50.5l40 -7q-11 -83 -34 -120t-69 -37q-23 0 -45.5 8.5t-44 18.5t-41 18.5t-34.5 8.5q-16 0 -26.5 -14.5t-24.5 -49.5l-40 6v0zM145 633l-92 33v35h265l79 -114l251 -359h12v404
l-101 35v34h269v-34l-96 -35v-639h-100l-79 114l-322 452h-14v-490l102 -35v-34h-269v34l95 35v564z" />
    <glyph glyph-name="ntilde" unicode="&#xf1;" horiz-adv-x="662" 
d="M572 54l74 -23v-31h-271v31l64 23v269q0 51 -20.5 80t-68.5 29q-30 0 -54 -9.5t-54 -26.5v-342l63 -23v-31h-270v31l73 23v356l-73 45v26l185 44l18 -12l-8 -82l13 -2q51 48 96 70.5t91 22.5q69 0 105.5 -40.5t36.5 -113.5v-314zM155 603q11 84 34 122t71 38
q22 0 45 -8.5t45 -19t41.5 -19t35.5 -8.5q17 0 27.5 14.5t24.5 50.5l41 -7q-11 -84 -34.5 -121.5t-71.5 -37.5q-23 0 -46 8.5t-44.5 19t-41 19t-35.5 8.5q-17 0 -27.5 -15t-24.5 -51l-40 7v0z" />
    <glyph glyph-name="ntilde.sc" horiz-adv-x="726" 
d="M124 493l-74 28v33h230l60 -94l199 -294h9v324l-83 32v32h228v-32l-79 -32v-496h-122l-70 107l-220 322h-12v-359l84 -33v-31h-228v31l78 33v429zM193 638q11 84 34 122t71 38q22 0 45 -8.5t45 -19t41.5 -19t35.5 -8.5q17 0 27.5 14.5t24.5 50.5l41 -7
q-11 -84 -34.5 -121.5t-71.5 -37.5q-23 0 -46 8.5t-44.5 19t-41 19t-35.5 8.5q-17 0 -27.5 -15t-24.5 -51l-40 7v0z" />
    <glyph glyph-name="Oacute" unicode="&#xd3;" horiz-adv-x="820" 
d="M522 1015q23 -16 26 -42t-16 -53q-16 -24 -55 -60.5t-86 -75.5l-26 18q18 63 34.5 111.5t30.5 71.5q17 27 43 35.5t49 -5.5zM764 351q0 -75 -24 -141.5t-70 -117t-112.5 -80t-151.5 -29.5q-88 0 -154 29.5t-109.5 80t-65.5 117t-22 141.5q0 74 24 140.5t70 116.5
t112.5 79.5t151.5 29.5q88 0 154 -29.5t110 -79.5t65.5 -116.5t21.5 -140.5zM597 351q0 81 -16 141.5t-43.5 100.5t-63.5 60t-75 20q-36 0 -68.5 -16t-56.5 -53.5t-38.5 -99.5t-14.5 -153q0 -92 16.5 -154t43.5 -99.5t63 -53.5t75 -16q36 0 68.5 20t57 60t38.5 100.5
t14 142.5z" />
    <glyph glyph-name="oacute" unicode="&#xf3;" horiz-adv-x="622" 
d="M427 825q24 -16 27 -42t-16 -55q-17 -24 -56.5 -61t-87.5 -76l-26 18q18 63 35 112.5t31 73.5q17 28 43.5 36.5t49.5 -6.5zM579 254q0 -52 -18 -101t-53 -87t-86.5 -61t-117.5 -23q-65 0 -113.5 21.5t-81 58t-49 86t-16.5 105.5q0 52 18 100.5t53.5 86t86.5 60t117 22.5
q65 0 114 -21t81.5 -57t48.5 -85t16 -105zM433 254q0 109 -33 166t-91 57q-55 0 -87.5 -57.5t-32.5 -168.5q0 -109 34 -165.5t90 -56.5q57 0 88.5 57t31.5 168z" />
    <glyph glyph-name="oacute.sc" horiz-adv-x="687" 
d="M640 277q0 -58 -19 -111.5t-56.5 -94t-93.5 -64.5t-129 -24q-77 0 -132.5 24t-91.5 64.5t-53 94t-17 111.5t19 111.5t57 94t93.5 64.5t129.5 24q76 0 131 -24t91 -64.5t53.5 -94t17.5 -111.5zM486 277q0 64 -12 111t-32 78t-47 46.5t-58 15.5q-28 0 -53 -13t-43.5 -42
t-29 -77.5t-10.5 -118.5q0 -71 12 -119t32.5 -77.5t48 -42t57.5 -12.5q28 0 52.5 15.5t43 47t29 78.5t10.5 110zM463 866q24 -16 27 -42t-16 -55q-17 -24 -56.5 -61t-87.5 -76l-26 18q18 63 35 112.5t31 73.5q17 28 43.5 36.5t49.5 -6.5z" />
    <glyph glyph-name="Obreve" unicode="&#x14e;" horiz-adv-x="820" 
d="M412 890q48 0 76 26t48 76l36 -11q-9 -94 -50 -141.5t-110 -47.5t-110.5 47.5t-49.5 141.5l37 11q17 -50 46 -76t77 -26zM764 351q0 -75 -24 -141.5t-70 -117t-112.5 -80t-151.5 -29.5q-88 0 -154 29.5t-109.5 80t-65.5 117t-22 141.5q0 74 24 140.5t70 116.5t112.5 79.5
t151.5 29.5q88 0 154 -29.5t110 -79.5t65.5 -116.5t21.5 -140.5zM597 351q0 81 -16 141.5t-43.5 100.5t-63.5 60t-75 20q-36 0 -68.5 -16t-56.5 -53.5t-38.5 -99.5t-14.5 -153q0 -92 16.5 -154t43.5 -99.5t63 -53.5t75 -16q36 0 68.5 20t57 60t38.5 100.5t14 142.5z" />
    <glyph glyph-name="obreve" unicode="&#x14f;" horiz-adv-x="622" 
d="M579 254q0 -52 -18 -101t-53 -87t-86.5 -61t-117.5 -23q-65 0 -113.5 21.5t-81 58t-49 86t-16.5 105.5q0 52 18 100.5t53.5 86t86.5 60t117 22.5q65 0 114 -21t81.5 -57t48.5 -85t16 -105zM433 254q0 109 -33 166t-91 57q-55 0 -87.5 -57.5t-32.5 -168.5
q0 -109 34 -165.5t90 -56.5q57 0 88.5 57t31.5 168zM316 698q48 0 77 26.5t49 77.5l38 -11q-10 -95 -51.5 -143.5t-112.5 -48.5q-70 0 -112.5 48.5t-50.5 143.5l38 11q18 -51 47.5 -77.5t77.5 -26.5z" />
    <glyph glyph-name="obreve.sc" horiz-adv-x="687" 
d="M640 277q0 -58 -19 -111.5t-56.5 -94t-93.5 -64.5t-129 -24q-77 0 -132.5 24t-91.5 64.5t-53 94t-17 111.5t19 111.5t57 94t93.5 64.5t129.5 24q76 0 131 -24t91 -64.5t53.5 -94t17.5 -111.5zM486 277q0 64 -12 111t-32 78t-47 46.5t-58 15.5q-28 0 -53 -13t-43.5 -42
t-29 -77.5t-10.5 -118.5q0 -71 12 -119t32.5 -77.5t48 -42t57.5 -12.5q28 0 52.5 15.5t43 47t29 78.5t10.5 110zM352 739q48 0 77 26.5t49 77.5l38 -11q-10 -95 -51.5 -143.5t-112.5 -48.5q-70 0 -112.5 48.5t-50.5 143.5l38 11q18 -51 47.5 -77.5t77.5 -26.5z" />
    <glyph glyph-name="Ocircumflex" unicode="&#xd4;" horiz-adv-x="820" 
d="M764 351q0 -75 -24 -141.5t-70 -117t-112.5 -80t-151.5 -29.5q-88 0 -154 29.5t-109.5 80t-65.5 117t-22 141.5q0 74 24 140.5t70 116.5t112.5 79.5t151.5 29.5q88 0 154 -29.5t110 -79.5t65.5 -116.5t21.5 -140.5zM597 351q0 81 -16 141.5t-43.5 100.5t-63.5 60t-75 20
q-36 0 -68.5 -16t-56.5 -53.5t-38.5 -99.5t-14.5 -153q0 -92 16.5 -154t43.5 -99.5t63 -53.5t75 -16q36 0 68.5 20t57 60t38.5 100.5t14 142.5zM282 781l-27 24l131 205h60l122 -205l-26 -24l-130 114z" />
    <glyph glyph-name="ocircumflex" unicode="&#xf4;" horiz-adv-x="622" 
d="M182 587l-27 25l133 209h62l124 -209l-27 -25l-132 116zM579 254q0 -52 -18 -101t-53 -87t-86.5 -61t-117.5 -23q-65 0 -113.5 21.5t-81 58t-49 86t-16.5 105.5q0 52 18 100.5t53.5 86t86.5 60t117 22.5q65 0 114 -21t81.5 -57t48.5 -85t16 -105zM433 254q0 109 -33 166
t-91 57q-55 0 -87.5 -57.5t-32.5 -168.5q0 -109 34 -165.5t90 -56.5q57 0 88.5 57t31.5 168z" />
    <glyph glyph-name="ocircumflex.sc" horiz-adv-x="687" 
d="M218 628l-27 25l133 209h62l124 -209l-27 -25l-132 116zM640 277q0 -58 -19 -111.5t-56.5 -94t-93.5 -64.5t-129 -24q-77 0 -132.5 24t-91.5 64.5t-53 94t-17 111.5t19 111.5t57 94t93.5 64.5t129.5 24q76 0 131 -24t91 -64.5t53.5 -94t17.5 -111.5zM486 277
q0 64 -12 111t-32 78t-47 46.5t-58 15.5q-28 0 -53 -13t-43.5 -42t-29 -77.5t-10.5 -118.5q0 -71 12 -119t32.5 -77.5t48 -42t57.5 -12.5q28 0 52.5 15.5t43 47t29 78.5t10.5 110z" />
    <glyph glyph-name="Odieresis" unicode="&#xd6;" horiz-adv-x="820" 
d="M519 798q-32 0 -52.5 21t-20.5 53t22.5 56.5t57.5 24.5q32 0 52.5 -21t20.5 -53t-22.5 -56.5t-57.5 -24.5zM295 798q-32 0 -52.5 21t-20.5 53t22.5 56.5t57.5 24.5q32 0 52.5 -21t20.5 -53t-22.5 -56.5t-57.5 -24.5zM764 351q0 -75 -24 -141.5t-70 -117t-112.5 -80
t-151.5 -29.5q-88 0 -154 29.5t-109.5 80t-65.5 117t-22 141.5q0 74 24 140.5t70 116.5t112.5 79.5t151.5 29.5q88 0 154 -29.5t110 -79.5t65.5 -116.5t21.5 -140.5zM597 351q0 81 -16 141.5t-43.5 100.5t-63.5 60t-75 20q-36 0 -68.5 -16t-56.5 -53.5t-38.5 -99.5
t-14.5 -153q0 -92 16.5 -154t43.5 -99.5t63 -53.5t75 -16q36 0 68.5 20t57 60t38.5 100.5t14 142.5z" />
    <glyph glyph-name="odieresis" unicode="&#xf6;" horiz-adv-x="622" 
d="M424 605q-32 0 -53 21.5t-21 53.5q0 16 6 31t17 26.5t26 18.5t33 7q32 0 53 -21.5t21 -54.5q0 -16 -6 -31t-17 -26t-26 -18t-33 -7zM196 605q-33 0 -53.5 21.5t-20.5 53.5q0 16 6 31t17 26.5t26 18.5t32 7q33 0 53.5 -21.5t20.5 -54.5q0 -32 -23 -57t-58 -25zM579 254
q0 -52 -18 -101t-53 -87t-86.5 -61t-117.5 -23q-65 0 -113.5 21.5t-81 58t-49 86t-16.5 105.5q0 52 18 100.5t53.5 86t86.5 60t117 22.5q65 0 114 -21t81.5 -57t48.5 -85t16 -105zM433 254q0 109 -33 166t-91 57q-55 0 -87.5 -57.5t-32.5 -168.5q0 -109 34 -165.5t90 -56.5
q57 0 88.5 57t31.5 168z" />
    <glyph glyph-name="odieresis.sc" horiz-adv-x="687" 
d="M460 646q-32 0 -53 21.5t-21 53.5q0 16 6 31t17 26.5t26 18.5t33 7q32 0 53 -21.5t21 -54.5q0 -16 -6 -31t-17 -26t-26 -18t-33 -7zM232 646q-33 0 -53.5 21.5t-20.5 53.5q0 16 6 31t17 26.5t26 18.5t32 7q33 0 53.5 -21.5t20.5 -54.5q0 -32 -23 -57t-58 -25zM640 277
q0 -58 -19 -111.5t-56.5 -94t-93.5 -64.5t-129 -24q-77 0 -132.5 24t-91.5 64.5t-53 94t-17 111.5t19 111.5t57 94t93.5 64.5t129.5 24q76 0 131 -24t91 -64.5t53.5 -94t17.5 -111.5zM486 277q0 64 -12 111t-32 78t-47 46.5t-58 15.5q-28 0 -53 -13t-43.5 -42t-29 -77.5
t-10.5 -118.5q0 -71 12 -119t32.5 -77.5t48 -42t57.5 -12.5q28 0 52.5 15.5t43 47t29 78.5t10.5 110z" />
    <glyph glyph-name="OE" unicode="&#x152;" horiz-adv-x="1128" 
d="M1061 0h-612q-92 0 -165 25t-124 71t-78 109.5t-27 140.5q0 79 29 144t81.5 112t126.5 73t164 26h569l21 -211l-23 -7l-78 96q-15 19 -27.5 32t-27 20.5t-32.5 11t-45 3.5l-121 2v-272h54q22 0 37.5 3.5t27 13.5t20.5 28t18 47l11 35h28v-302h-28l-11 33q-9 28 -18 46
t-20.5 28t-27 14t-37.5 4h-54v-273l164 4q24 0 41.5 3.5t31 10.5t25 18.5t24.5 27.5l84 107l24 -4zM222 350q0 -80 19 -135.5t53 -90.5t79.5 -52t99.5 -18l68 -1v594l-92 -1q-50 -2 -92 -17.5t-72 -50.5t-46.5 -91t-16.5 -137z" />
    <glyph glyph-name="oe" unicode="&#x153;" horiz-adv-x="960" 
d="M570 264q0 -95 41.5 -147t129.5 -52q20 0 38.5 2t37.5 7t39.5 12t45.5 18l11 -26q-54 -45 -108.5 -70.5t-108.5 -25.5q-65 0 -112.5 24.5t-82.5 69.5q-37 -43 -84 -68.5t-118 -25.5q-62 0 -110 21.5t-80 58t-48.5 86t-16.5 105.5q0 52 18.5 100.5t53 86t84.5 60t113 22.5
q71 0 119.5 -27.5t81.5 -67.5q35 43 79.5 69t105.5 26q59 0 101.5 -21t69 -56.5t38.5 -82t10 -98.5h-348zM785 312q-3 167 -98 167q-49 0 -80.5 -47t-35.5 -130zM433 254q0 109 -33 166t-91 57q-55 0 -87.5 -57.5t-32.5 -168.5q0 -109 34 -165.5t90 -56.5q57 0 88.5 57
t31.5 168z" />
    <glyph glyph-name="oe.sc" horiz-adv-x="930" 
d="M871 0h-509q-73 0 -131.5 19.5t-99 55.5t-62 86t-21.5 112q0 61 22.5 112.5t64 89t101.5 58.5t135 21h483l15 -178l-29 -5l-59 79q-21 28 -44 40.5t-64 13.5l-99 1v-200h29q35 0 57.5 15t36.5 50l10 23h32v-226h-32l-10 25q-14 32 -36.5 48.5t-57.5 16.5h-29v-208l123 1
q35 1 57.5 12.5t39.5 34.5l70 93l28 -5zM434 507l-67 -1q-36 -1 -66.5 -14t-52.5 -40t-34.5 -70.5t-12.5 -104.5q0 -60 13.5 -103t37 -70.5t56.5 -41t72 -14.5h54v459z" />
    <glyph glyph-name="Ograve" unicode="&#xd2;" horiz-adv-x="820" 
d="M434 784q-47 39 -85.5 75.5t-55.5 60.5q-19 27 -16 53t27 42q23 14 48.5 5.5t42.5 -35.5q14 -23 30.5 -71.5t34.5 -111.5zM764 351q0 -75 -24 -141.5t-70 -117t-112.5 -80t-151.5 -29.5q-88 0 -154 29.5t-109.5 80t-65.5 117t-22 141.5q0 74 24 140.5t70 116.5
t112.5 79.5t151.5 29.5q88 0 154 -29.5t110 -79.5t65.5 -116.5t21.5 -140.5zM597 351q0 81 -16 141.5t-43.5 100.5t-63.5 60t-75 20q-36 0 -68.5 -16t-56.5 -53.5t-38.5 -99.5t-14.5 -153q0 -92 16.5 -154t43.5 -99.5t63 -53.5t75 -16q36 0 68.5 20t57 60t38.5 100.5
t14 142.5z" />
    <glyph glyph-name="ograve" unicode="&#xf2;" horiz-adv-x="622" 
d="M579 254q0 -52 -18 -101t-53 -87t-86.5 -61t-117.5 -23q-65 0 -113.5 21.5t-81 58t-49 86t-16.5 105.5q0 52 18 100.5t53.5 86t86.5 60t117 22.5q65 0 114 -21t81.5 -57t48.5 -85t16 -105zM433 254q0 109 -33 166t-91 57q-55 0 -87.5 -57.5t-32.5 -168.5
q0 -109 34 -165.5t90 -56.5q57 0 88.5 57t31.5 168zM337 591q-47 39 -86.5 76t-56.5 61q-19 29 -16 55.5t27 41.5q23 15 49.5 6t43.5 -36q14 -24 31 -73.5t35 -112.5z" />
    <glyph glyph-name="ograve.sc" horiz-adv-x="687" 
d="M640 277q0 -58 -19 -111.5t-56.5 -94t-93.5 -64.5t-129 -24q-77 0 -132.5 24t-91.5 64.5t-53 94t-17 111.5t19 111.5t57 94t93.5 64.5t129.5 24q76 0 131 -24t91 -64.5t53.5 -94t17.5 -111.5zM486 277q0 64 -12 111t-32 78t-47 46.5t-58 15.5q-28 0 -53 -13t-43.5 -42
t-29 -77.5t-10.5 -118.5q0 -71 12 -119t32.5 -77.5t48 -42t57.5 -12.5q28 0 52.5 15.5t43 47t29 78.5t10.5 110zM373 632q-47 39 -86.5 76t-56.5 61q-19 29 -16 55.5t27 41.5q23 15 49.5 6t43.5 -36q14 -24 31 -73.5t35 -112.5z" />
    <glyph glyph-name="Ohungarumlaut" unicode="&#x150;" horiz-adv-x="820" 
d="M764 351q0 -75 -24 -141.5t-70 -117t-112.5 -80t-151.5 -29.5q-88 0 -154 29.5t-109.5 80t-65.5 117t-22 141.5q0 74 24 140.5t70 116.5t112.5 79.5t151.5 29.5q88 0 154 -29.5t110 -79.5t65.5 -116.5t21.5 -140.5zM597 351q0 81 -16 141.5t-43.5 100.5t-63.5 60t-75 20
q-36 0 -68.5 -16t-56.5 -53.5t-38.5 -99.5t-14.5 -153q0 -92 16.5 -154t43.5 -99.5t63 -53.5t75 -16q36 0 68.5 20t57 60t38.5 100.5t14 142.5zM620 927q-17 -27 -55.5 -66t-82.5 -78l-22 16q16 58 33.5 109.5t33.5 78.5q15 26 38.5 34.5t44.5 -5.5q23 -14 25.5 -38.5
t-15.5 -50.5zM442 927q-18 -27 -55.5 -66t-81.5 -78l-23 16q17 58 33.5 109.5t32.5 78.5q15 26 39 34.5t45 -5.5q23 -14 25 -38.5t-15 -50.5z" />
    <glyph glyph-name="ohungarumlaut" unicode="&#x151;" horiz-adv-x="622" 
d="M528 736q-18 -27 -57 -66.5t-84 -79.5l-23 15q17 60 34.5 112t34.5 80q15 26 39 35t46 -5q23 -15 25.5 -39.5t-15.5 -51.5zM346 736q-18 -27 -56.5 -66.5t-83.5 -79.5l-23 15q17 60 34 112t34 80q15 26 39 35t46 -5q23 -15 25.5 -39.5t-15.5 -51.5zM579 254
q0 -52 -18 -101t-53 -87t-86.5 -61t-117.5 -23q-65 0 -113.5 21.5t-81 58t-49 86t-16.5 105.5q0 52 18 100.5t53.5 86t86.5 60t117 22.5q65 0 114 -21t81.5 -57t48.5 -85t16 -105zM433 254q0 109 -33 166t-91 57q-55 0 -87.5 -57.5t-32.5 -168.5q0 -109 34 -165.5t90 -56.5
q57 0 88.5 57t31.5 168z" />
    <glyph glyph-name="ohungarumlaut.sc" horiz-adv-x="687" 
d="M640 277q0 -58 -19 -111.5t-56.5 -94t-93.5 -64.5t-129 -24q-77 0 -132.5 24t-91.5 64.5t-53 94t-17 111.5t19 111.5t57 94t93.5 64.5t129.5 24q76 0 131 -24t91 -64.5t53.5 -94t17.5 -111.5zM486 277q0 64 -12 111t-32 78t-47 46.5t-58 15.5q-28 0 -53 -13t-43.5 -42
t-29 -77.5t-10.5 -118.5q0 -71 12 -119t32.5 -77.5t48 -42t57.5 -12.5q28 0 52.5 15.5t43 47t29 78.5t10.5 110zM564 777q-18 -27 -57 -66.5t-84 -79.5l-23 15q17 60 34.5 112t34.5 80q15 26 39 35t46 -5q23 -15 25.5 -39.5t-15.5 -51.5zM382 777q-18 -27 -56.5 -66.5
t-83.5 -79.5l-23 15q17 60 34 112t34 80q15 26 39 35t46 -5q23 -15 25.5 -39.5t-15.5 -51.5z" />
    <glyph glyph-name="Omacron" unicode="&#x14c;" horiz-adv-x="820" 
d="M572 818h-326v83h326v-83zM764 351q0 -75 -24 -141.5t-70 -117t-112.5 -80t-151.5 -29.5q-88 0 -154 29.5t-109.5 80t-65.5 117t-22 141.5q0 74 24 140.5t70 116.5t112.5 79.5t151.5 29.5q88 0 154 -29.5t110 -79.5t65.5 -116.5t21.5 -140.5zM597 351q0 81 -16 141.5
t-43.5 100.5t-63.5 60t-75 20q-36 0 -68.5 -16t-56.5 -53.5t-38.5 -99.5t-14.5 -153q0 -92 16.5 -154t43.5 -99.5t63 -53.5t75 -16q36 0 68.5 20t57 60t38.5 100.5t14 142.5z" />
    <glyph glyph-name="omacron" unicode="&#x14d;" horiz-adv-x="622" 
d="M480 625h-333v85h333v-85zM579 254q0 -52 -18 -101t-53 -87t-86.5 -61t-117.5 -23q-65 0 -113.5 21.5t-81 58t-49 86t-16.5 105.5q0 52 18 100.5t53.5 86t86.5 60t117 22.5q65 0 114 -21t81.5 -57t48.5 -85t16 -105zM433 254q0 109 -33 166t-91 57q-55 0 -87.5 -57.5
t-32.5 -168.5q0 -109 34 -165.5t90 -56.5q57 0 88.5 57t31.5 168z" />
    <glyph glyph-name="omacron.sc" horiz-adv-x="687" 
d="M640 277q0 -58 -19 -111.5t-56.5 -94t-93.5 -64.5t-129 -24q-77 0 -132.5 24t-91.5 64.5t-53 94t-17 111.5t19 111.5t57 94t93.5 64.5t129.5 24q76 0 131 -24t91 -64.5t53.5 -94t17.5 -111.5zM486 277q0 64 -12 111t-32 78t-47 46.5t-58 15.5q-28 0 -53 -13t-43.5 -42
t-29 -77.5t-10.5 -118.5q0 -71 12 -119t32.5 -77.5t48 -42t57.5 -12.5q28 0 52.5 15.5t43 47t29 78.5t10.5 110zM516 666h-333v85h333v-85z" />
    <glyph glyph-name="Oslash" unicode="&#xd8;" horiz-adv-x="820" 
d="M764 351q0 -75 -24 -141.5t-70 -117t-112.5 -80t-151.5 -29.5q-66 0 -121.5 20t-98.5 54l-81 -92l-37 28l83 96q-47 51 -71.5 118.5t-24.5 143.5q0 74 24 140.5t70 116.5t112.5 79.5t151.5 29.5q66 0 121.5 -19.5t98.5 -54.5l81 93l37 -29l-83 -96q47 -51 71.5 -118
t24.5 -142zM557 560q-28 57 -69 85t-89 28q-36 0 -68.5 -16t-57 -53.5t-39 -99.5t-14.5 -153q0 -99 21 -165zM258 135q28 -59 70.5 -83t90.5 -24q36 0 69 20t57.5 60t39 100.5t14.5 142.5q0 48 -6 87t-17 72z" />
    <glyph glyph-name="oslash" unicode="&#xf8;" horiz-adv-x="622" 
d="M511 441q32 -36 50 -83.5t18 -103.5q0 -52 -18 -101t-53 -87t-86.5 -61t-117.5 -23q-47 0 -86 13t-70 36l-55 -61l-35 28l56 64q-34 36 -52 85t-18 106q0 52 18 100.5t53.5 86t86.5 60t117 22.5q92 0 157 -48l51 58l38 -30zM410 403q-16 37 -42 56t-59 19
q-56 0 -89 -57.5t-33 -169.5q0 -58 10 -98zM436 254q0 28 -2.5 51.5t-7.5 43.5l-213 -248q17 -37 42.5 -55.5t57.5 -18.5q58 0 90.5 57.5t32.5 169.5z" />
    <glyph glyph-name="oslash.sc" horiz-adv-x="687" 
d="M126 63q-40 42 -59 97t-19 117q0 58 19 111.5t57 94t93.5 64.5t129.5 24q57 0 101.5 -13.5t78.5 -38.5l58 67l36 -28l-59 -68q40 -42 59 -97t19 -116q0 -58 -19 -111.5t-56.5 -94t-93.5 -64.5t-129 -24q-57 0 -101.5 13.5t-79.5 38.5l-57 -67l-37 27zM458 443
q-21 44 -52.5 64.5t-68.5 20.5q-29 0 -54 -13t-44 -42t-29.5 -77.5t-10.5 -118.5t14 -120zM228 107q20 -45 52.5 -63t70.5 -18q28 0 53 15.5t44 47t29.5 78.5t10.5 110q0 69 -15 117z" />
    <glyph glyph-name="Oslashacute" unicode="&#x1fe;" horiz-adv-x="820" 
d="M764 351q0 -75 -24 -141.5t-70 -117t-112.5 -80t-151.5 -29.5q-66 0 -121.5 20t-98.5 54l-81 -92l-37 28l83 96q-47 51 -71.5 118.5t-24.5 143.5q0 74 24 140.5t70 116.5t112.5 79.5t151.5 29.5q66 0 121.5 -19.5t98.5 -54.5l81 93l37 -29l-83 -96q47 -51 71.5 -118
t24.5 -142zM557 560q-28 57 -69 85t-89 28q-36 0 -68.5 -16t-57 -53.5t-39 -99.5t-14.5 -153q0 -99 21 -165zM258 135q28 -59 70.5 -83t90.5 -24q36 0 69 20t57.5 60t39 100.5t14.5 142.5q0 48 -6 87t-17 72zM520 1015q23 -16 26 -42t-16 -53q-16 -24 -55 -60.5t-86 -75.5
l-26 18q18 63 34.5 111.5t30.5 71.5q17 27 43 35.5t49 -5.5z" />
    <glyph glyph-name="oslashacute" unicode="&#x1ff;" horiz-adv-x="622" 
d="M511 441q32 -36 50 -83.5t18 -103.5q0 -52 -18 -101t-53 -87t-86.5 -61t-117.5 -23q-47 0 -86 13t-70 36l-55 -61l-35 28l56 64q-34 36 -52 85t-18 106q0 52 18 100.5t53.5 86t86.5 60t117 22.5q92 0 157 -48l51 58l38 -30zM410 403q-16 37 -42 56t-59 19
q-56 0 -89 -57.5t-33 -169.5q0 -58 10 -98zM436 254q0 28 -2.5 51.5t-7.5 43.5l-213 -248q17 -37 42.5 -55.5t57.5 -18.5q58 0 90.5 57.5t32.5 169.5zM427 825q24 -16 27 -42t-16 -55q-17 -24 -56.5 -61t-87.5 -76l-26 18q18 63 35 112.5t31 73.5q17 28 43.5 36.5t49.5 -6.5
z" />
    <glyph glyph-name="oslashacute.sc" horiz-adv-x="687" 
d="M460 866q24 -16 27 -42t-16 -55q-17 -24 -56.5 -61t-87.5 -76l-26 18q18 63 35 112.5t31 73.5q17 28 43.5 36.5t49.5 -6.5zM126 63q-40 42 -59 97t-19 117q0 58 19 111.5t57 94t93.5 64.5t129.5 24q57 0 101.5 -13.5t78.5 -38.5l58 67l36 -28l-59 -68q40 -42 59 -97
t19 -116q0 -58 -19 -111.5t-56.5 -94t-93.5 -64.5t-129 -24q-57 0 -101.5 13.5t-79.5 38.5l-57 -67l-37 27zM458 443q-21 44 -52.5 64.5t-68.5 20.5q-29 0 -54 -13t-44 -42t-29.5 -77.5t-10.5 -118.5t14 -120zM228 107q20 -45 52.5 -63t70.5 -18q28 0 53 15.5t44 47
t29.5 78.5t10.5 110q0 69 -15 117z" />
    <glyph glyph-name="Otilde" unicode="&#xd5;" horiz-adv-x="820" 
d="M244 796q11 83 34 120t70 37q22 0 44.5 -8.5t44 -18.5t41 -18.5t34.5 -8.5q17 0 27 14.5t24 50.5l40 -7q-11 -83 -34 -120t-69 -37q-23 0 -45.5 8.5t-44 18.5t-41 18.5t-34.5 8.5q-16 0 -26.5 -14.5t-24.5 -49.5l-40 6v0zM764 351q0 -75 -24 -141.5t-70 -117t-112.5 -80
t-151.5 -29.5q-88 0 -154 29.5t-109.5 80t-65.5 117t-22 141.5q0 74 24 140.5t70 116.5t112.5 79.5t151.5 29.5q88 0 154 -29.5t110 -79.5t65.5 -116.5t21.5 -140.5zM597 351q0 81 -16 141.5t-43.5 100.5t-63.5 60t-75 20q-36 0 -68.5 -16t-56.5 -53.5t-38.5 -99.5
t-14.5 -153q0 -92 16.5 -154t43.5 -99.5t63 -53.5t75 -16q36 0 68.5 20t57 60t38.5 100.5t14 142.5z" />
    <glyph glyph-name="otilde" unicode="&#xf5;" horiz-adv-x="622" 
d="M579 254q0 -52 -18 -101t-53 -87t-86.5 -61t-117.5 -23q-65 0 -113.5 21.5t-81 58t-49 86t-16.5 105.5q0 52 18 100.5t53.5 86t86.5 60t117 22.5q65 0 114 -21t81.5 -57t48.5 -85t16 -105zM433 254q0 109 -33 166t-91 57q-55 0 -87.5 -57.5t-32.5 -168.5
q0 -109 34 -165.5t90 -56.5q57 0 88.5 57t31.5 168zM146 603q11 84 34 122t71 38q22 0 45 -8.5t45 -19t41.5 -19t35.5 -8.5q17 0 27.5 14.5t24.5 50.5l41 -7q-11 -84 -34.5 -121.5t-71.5 -37.5q-23 0 -46 8.5t-44.5 19t-41 19t-35.5 8.5q-17 0 -27.5 -15t-24.5 -51l-40 7v0z
" />
    <glyph glyph-name="otilde.sc" horiz-adv-x="687" 
d="M640 277q0 -58 -19 -111.5t-56.5 -94t-93.5 -64.5t-129 -24q-77 0 -132.5 24t-91.5 64.5t-53 94t-17 111.5t19 111.5t57 94t93.5 64.5t129.5 24q76 0 131 -24t91 -64.5t53.5 -94t17.5 -111.5zM486 277q0 64 -12 111t-32 78t-47 46.5t-58 15.5q-28 0 -53 -13t-43.5 -42
t-29 -77.5t-10.5 -118.5q0 -71 12 -119t32.5 -77.5t48 -42t57.5 -12.5q28 0 52.5 15.5t43 47t29 78.5t10.5 110zM181 644q11 84 34 122t71 38q22 0 45 -8.5t45 -19t41.5 -19t35.5 -8.5q17 0 27.5 14.5t24.5 50.5l41 -7q-11 -84 -34.5 -121.5t-71.5 -37.5q-23 0 -46 8.5
t-44.5 19t-41 19t-35.5 8.5q-17 0 -27.5 -15t-24.5 -51l-40 7v0z" />
    <glyph glyph-name="Racute" unicode="&#x154;" horiz-adv-x="766" 
d="M670 525q0 -66 -51.5 -112.5t-154.5 -64.5v-14q60 -13 94 -44t52 -75q20 -49 37.5 -82.5t36.5 -54.5q17 -18 38.5 -28.5t50.5 -15.5v-34h-128q-32 0 -54.5 6t-39 20.5t-29.5 37.5t-28 56l-52 114q-20 47 -46.5 63.5t-71.5 16.5h-28v-257l105 -23v-34h-363v34l107 23v587
l-107 23v34h374q121 0 189.5 -47t68.5 -129zM514 510q0 73 -42.5 106t-112.5 35h-15t-18.5 -0.5t-17.5 -1t-12 -1.5v-284l66 1q34 0 62 9t48 27t31 45t11 64zM483 1010q23 -16 26 -42t-16 -53q-16 -24 -55 -60.5t-86 -75.5l-26 18q18 63 34.5 111.5t30.5 71.5q17 27 43 35.5
t49 -5.5z" />
    <glyph glyph-name="racute" unicode="&#x155;" horiz-adv-x="504" 
d="M385 819q24 -16 27 -42t-16 -55q-17 -24 -56.5 -61t-87.5 -76l-26 18q18 63 35 112.5t31 73.5q17 28 43.5 36.5t49.5 -6.5zM483 438q0 -36 -22 -60t-54 -24t-50.5 21.5t-20.5 50.5q-27 -4 -51 -23t-43 -46v-303l80 -23v-31h-287v31l73 23v356l-73 45v26l185 44l18 -12
l-12 -106l14 -3q35 57 70.5 88t83.5 31q39 0 64 -23.5t25 -61.5z" />
    <glyph glyph-name="racute.sc" horiz-adv-x="653" 
d="M437 860q24 -16 27 -42t-16 -55q-17 -24 -56.5 -61t-87.5 -76l-26 18q18 63 35 112.5t31 73.5q17 28 43.5 36.5t49.5 -6.5zM576 416q0 -54 -42 -93t-129 -53v-12q53 -8 81 -28t44 -60q16 -39 29 -64t27 -42q13 -14 27.5 -21t35.5 -13v-30h-124q-41 0 -64.5 19.5
t-44.5 72.5l-34 88q-14 36 -35 47.5t-63 11.5h-20v-189l82 -21v-29h-304v31l82 22v448l-82 21v32h327q104 0 155.5 -36.5t51.5 -101.5zM430 400q0 53 -30 79t-85 27h-28.5t-22.5 -1v-219l47 1q51 1 85 28.5t34 84.5z" />
    <glyph glyph-name="Rcaron" unicode="&#x158;" horiz-adv-x="766" 
d="M500 1016l27 -24l-131 -205h-60l-122 205l26 24l130 -114zM670 525q0 -66 -51.5 -112.5t-154.5 -64.5v-14q60 -13 94 -44t52 -75q20 -49 37.5 -82.5t36.5 -54.5q17 -18 38.5 -28.5t50.5 -15.5v-34h-128q-32 0 -54.5 6t-39 20.5t-29.5 37.5t-28 56l-52 114
q-20 47 -46.5 63.5t-71.5 16.5h-28v-257l105 -23v-34h-363v34l107 23v587l-107 23v34h374q121 0 189.5 -47t68.5 -129zM514 510q0 73 -42.5 106t-112.5 35h-15t-18.5 -0.5t-17.5 -1t-12 -1.5v-284l66 1q34 0 62 9t48 27t31 45t11 64z" />
    <glyph glyph-name="rcaron" unicode="&#x159;" horiz-adv-x="504" 
d="M404 826l27 -25l-133 -209h-62l-124 209l27 25l132 -116zM483 438q0 -36 -22 -60t-54 -24t-50.5 21.5t-20.5 50.5q-27 -4 -51 -23t-43 -46v-303l80 -23v-31h-287v31l73 23v356l-73 45v26l185 44l18 -12l-12 -106l14 -3q35 57 70.5 88t83.5 31q39 0 64 -23.5t25 -61.5z
" />
    <glyph glyph-name="rcaron.sc" horiz-adv-x="653" 
d="M456 867l27 -25l-133 -209h-62l-124 209l27 25l132 -116zM576 416q0 -54 -42 -93t-129 -53v-12q53 -8 81 -28t44 -60q16 -39 29 -64t27 -42q13 -14 27.5 -21t35.5 -13v-30h-124q-41 0 -64.5 19.5t-44.5 72.5l-34 88q-14 36 -35 47.5t-63 11.5h-20v-189l82 -21v-29h-304
v31l82 22v448l-82 21v32h327q104 0 155.5 -36.5t51.5 -101.5zM430 400q0 53 -30 79t-85 27h-28.5t-22.5 -1v-219l47 1q51 1 85 28.5t34 84.5z" />
    <glyph glyph-name="Rcommaaccent" unicode="&#x156;" horiz-adv-x="766" 
d="M670 525q0 -66 -51.5 -112.5t-154.5 -64.5v-14q60 -13 94 -44t52 -75q20 -49 37.5 -82.5t36.5 -54.5q17 -18 38.5 -28.5t50.5 -15.5v-34h-128q-32 0 -54.5 6t-39 20.5t-29.5 37.5t-28 56l-52 114q-20 47 -46.5 63.5t-71.5 16.5h-28v-257l105 -23v-34h-363v34l107 23v587
l-107 23v34h374q121 0 189.5 -47t68.5 -129zM514 510q0 73 -42.5 106t-112.5 35h-15t-18.5 -0.5t-17.5 -1t-12 -1.5v-284l66 1q34 0 62 9t48 27t31 45t11 64zM480 -158q0 -56 -40 -103.5t-106 -75.5l-11 22q85 56 93 116l-6 4l-2 -1q-5 -2 -9 -2.5t-11 -0.5q-20 0 -33.5 17
t-13.5 42q0 27 18.5 47.5t46.5 20.5q34 0 54 -22.5t20 -63.5z" />
    <glyph glyph-name="rcommaaccent" unicode="&#x157;" horiz-adv-x="504" 
d="M239 -161q0 -57 -40.5 -105.5t-108.5 -76.5l-11 22q88 59 94 118l-5 5l-3 -1q-5 -2 -9 -2.5t-11 -0.5q-21 0 -34.5 17t-13.5 42q0 28 19 49t47 21q35 0 55.5 -23t20.5 -65zM483 438q0 -36 -22 -60t-54 -24t-50.5 21.5t-20.5 50.5q-27 -4 -51 -23t-43 -46v-303l80 -23v-31
h-287v31l73 23v356l-73 45v26l185 44l18 -12l-12 -106l14 -3q35 57 70.5 88t83.5 31q39 0 64 -23.5t25 -61.5z" />
    <glyph glyph-name="rcommaaccent.sc" horiz-adv-x="653" 
d="M412 -161q0 -57 -40.5 -105.5t-108.5 -76.5l-11 22q88 59 94 118l-5 5l-3 -1q-5 -2 -9 -2.5t-11 -0.5q-21 0 -34.5 17t-13.5 42q0 28 19 49t47 21q35 0 55.5 -23t20.5 -65zM576 416q0 -54 -42 -93t-129 -53v-12q53 -8 81 -28t44 -60q16 -39 29 -64t27 -42
q13 -14 27.5 -21t35.5 -13v-30h-124q-41 0 -64.5 19.5t-44.5 72.5l-34 88q-14 36 -35 47.5t-63 11.5h-20v-189l82 -21v-29h-304v31l82 22v448l-82 21v32h327q104 0 155.5 -36.5t51.5 -101.5zM430 400q0 53 -30 79t-85 27h-28.5t-22.5 -1v-219l47 1q51 1 85 28.5t34 84.5z
" />
    <glyph glyph-name="Sacute" unicode="&#x15a;" horiz-adv-x="617" 
d="M560 212q0 -55 -20.5 -97.5t-55 -72t-79.5 -44.5t-94 -15q-50 0 -94 11t-76 27l-31 -38h-36l-14 245l39 2q25 -60 49.5 -98.5t49.5 -61t52 -31.5t59 -9q58 0 93 31.5t35 83.5q0 24 -6 42.5t-21 34.5t-40 30.5t-63 30.5q-27 11 -53.5 21.5t-52.5 23.5q-59 29 -90.5 72
t-31.5 109q0 47 18 85.5t49 65.5t71.5 42t85.5 15q47 0 79.5 -10t59.5 -26l33 38h35l19 -216l-38 -3q-23 47 -44 79.5t-42.5 52.5t-45.5 29t-52 9q-45 0 -74 -26.5t-29 -74.5q0 -41 23 -69t81 -54q29 -13 59.5 -24.5t61.5 -26.5q67 -32 99 -77t32 -106zM423 1015
q23 -16 26 -42t-16 -53q-16 -24 -55 -60.5t-86 -75.5l-26 18q18 63 34.5 111.5t30.5 71.5q17 27 43 35.5t49 -5.5z" />
    <glyph glyph-name="sacute" unicode="&#x15b;" horiz-adv-x="488" 
d="M368 825q24 -16 27 -42t-16 -55q-17 -24 -56.5 -61t-87.5 -76l-26 18q18 63 35 112.5t31 73.5q17 28 43.5 36.5t49.5 -6.5zM444 157q0 -40 -16 -72t-44.5 -54.5t-67 -34.5t-83.5 -12q-54 0 -96 7.5t-83 23.5l-2 147l33 2q21 -39 40 -65.5t38 -42.5t39.5 -23t44.5 -7
q41 0 65 20t24 58q0 33 -28 54t-97 48q-33 13 -61.5 26.5t-49 31.5t-32 42t-11.5 57t14 62t40 50.5t63.5 34.5t84.5 13q50 0 87 -6.5t63 -15.5l4 -131l-32 -5q-38 65 -69 90.5t-71 25.5q-36 0 -58 -20t-22 -48q0 -16 6 -28t19 -22.5t34 -20.5t52 -22q44 -16 76.5 -31.5
t53.5 -34.5t31.5 -42.5t10.5 -54.5z" />
    <glyph glyph-name="sacute.sc" horiz-adv-x="551" 
d="M400 866q24 -16 27 -42t-16 -55q-17 -24 -56.5 -61t-87.5 -76l-26 18q18 63 35 112.5t31 73.5q17 28 43.5 36.5t49.5 -6.5zM500 167q0 -46 -18 -80.5t-48 -57.5t-68 -34.5t-77 -11.5q-44 0 -87.5 10t-76.5 24l-25 -33h-35l-8 204l44 3q48 -91 93.5 -127.5t96.5 -36.5
q43 0 70.5 23.5t27.5 62.5q0 38 -24.5 58t-73.5 38q-24 9 -49.5 17t-50.5 19q-24 10 -45.5 23.5t-37.5 31t-25.5 40.5t-9.5 53q0 43 16.5 76t44 55.5t63 34.5t72.5 12q38 0 71 -8.5t62 -23.5l26 34h34l13 -182l-44 -5q-43 79 -82 109.5t-79 30.5q-39 0 -61.5 -21t-22.5 -55
q0 -36 21.5 -55t63.5 -35q23 -10 50 -18t53 -19q25 -10 47.5 -23t40 -31t28 -43t10.5 -59z" />
    <glyph glyph-name="Scaron" unicode="&#x160;" horiz-adv-x="617" 
d="M560 212q0 -55 -20.5 -97.5t-55 -72t-79.5 -44.5t-94 -15q-50 0 -94 11t-76 27l-31 -38h-36l-14 245l39 2q25 -60 49.5 -98.5t49.5 -61t52 -31.5t59 -9q58 0 93 31.5t35 83.5q0 24 -6 42.5t-21 34.5t-40 30.5t-63 30.5q-27 11 -53.5 21.5t-52.5 23.5q-59 29 -90.5 72
t-31.5 109q0 47 18 85.5t49 65.5t71.5 42t85.5 15q47 0 79.5 -10t59.5 -26l33 38h35l19 -216l-38 -3q-23 47 -44 79.5t-42.5 52.5t-45.5 29t-52 9q-45 0 -74 -26.5t-29 -74.5q0 -41 23 -69t81 -54q29 -13 59.5 -24.5t61.5 -26.5q67 -32 99 -77t32 -106zM440 1021l27 -24
l-131 -205h-60l-122 205l26 24l130 -114z" />
    <glyph glyph-name="scaron" unicode="&#x161;" horiz-adv-x="488" 
d="M387 832l27 -25l-133 -209h-62l-124 209l27 25l132 -116zM444 157q0 -40 -16 -72t-44.5 -54.5t-67 -34.5t-83.5 -12q-54 0 -96 7.5t-83 23.5l-2 147l33 2q21 -39 40 -65.5t38 -42.5t39.5 -23t44.5 -7q41 0 65 20t24 58q0 33 -28 54t-97 48q-33 13 -61.5 26.5t-49 31.5
t-32 42t-11.5 57t14 62t40 50.5t63.5 34.5t84.5 13q50 0 87 -6.5t63 -15.5l4 -131l-32 -5q-38 65 -69 90.5t-71 25.5q-36 0 -58 -20t-22 -48q0 -16 6 -28t19 -22.5t34 -20.5t52 -22q44 -16 76.5 -31.5t53.5 -34.5t31.5 -42.5t10.5 -54.5z" />
    <glyph glyph-name="scaron.sc" horiz-adv-x="551" 
d="M419 873l27 -25l-133 -209h-62l-124 209l27 25l132 -116zM500 167q0 -46 -18 -80.5t-48 -57.5t-68 -34.5t-77 -11.5q-44 0 -87.5 10t-76.5 24l-25 -33h-35l-8 204l44 3q48 -91 93.5 -127.5t96.5 -36.5q43 0 70.5 23.5t27.5 62.5q0 38 -24.5 58t-73.5 38q-24 9 -49.5 17
t-50.5 19q-24 10 -45.5 23.5t-37.5 31t-25.5 40.5t-9.5 53q0 43 16.5 76t44 55.5t63 34.5t72.5 12q38 0 71 -8.5t62 -23.5l26 34h34l13 -182l-44 -5q-43 79 -82 109.5t-79 30.5q-39 0 -61.5 -21t-22.5 -55q0 -36 21.5 -55t63.5 -35q23 -10 50 -18t53 -19q25 -10 47.5 -23
t40 -31t28 -43t10.5 -59z" />
    <glyph glyph-name="Scedilla" unicode="&#x15e;" horiz-adv-x="617" 
d="M414 -180q0 -25 -10 -46t-28 -36t-42 -23t-52 -8q-46 0 -74 15t-28 39q0 16 9.5 27t26.5 11t26 -11.5t9 -25.5q0 -7 -1.5 -11.5l-3.5 -10.5q11 -5 32 -5q23 0 42.5 15.5t19.5 48.5q0 32 -20.5 49t-55.5 17q-8 0 -13.5 -0.5t-13.5 -2.5l-19 20l122 103q-7 -1 -14 -1.5
t-15 -0.5q-50 0 -94 11t-76 27l-31 -38h-36l-14 245l39 2q25 -60 49.5 -98.5t49.5 -61t52 -31.5t59 -9q58 0 93 31.5t35 83.5q0 24 -6 42.5t-21 34.5t-40 30.5t-63 30.5q-27 11 -53.5 21.5t-52.5 23.5q-59 29 -90.5 72t-31.5 109q0 47 18 85.5t49 65.5t71.5 42t85.5 15
q47 0 79.5 -10t59.5 -26l33 38h35l19 -216l-38 -3q-23 47 -44 79.5t-42.5 52.5t-45.5 29t-52 9q-45 0 -74 -26.5t-29 -74.5q0 -41 23 -69t81 -54q29 -13 59.5 -24.5t61.5 -26.5q67 -32 99 -77t32 -106q0 -41 -11.5 -74.5t-32 -60.5t-48 -46.5t-60.5 -30.5l-94 -80
q39 -5 69.5 -30t30.5 -70z" />
    <glyph glyph-name="scedilla" unicode="&#x15f;" horiz-adv-x="488" 
d="M338 -183q0 -26 -10.5 -47t-28.5 -36t-42.5 -23.5t-52.5 -8.5q-47 0 -75 15t-28 40q0 16 9.5 27t26.5 11t26.5 -11.5t9.5 -25.5q0 -11 -6 -23q11 -5 33 -5q23 0 43 16t20 50q0 32 -21.5 49.5t-56.5 17.5q-8 0 -13 -1t-14 -3l-19 21l126 106q-8 -1 -16 -1.5t-16 -0.5
q-54 0 -96 7.5t-83 23.5l-2 147l33 2q21 -39 40 -65.5t38 -42.5t39.5 -23t44.5 -7q41 0 65 20t24 58q0 33 -28 54t-97 48q-33 13 -61.5 26.5t-49 31.5t-32 42t-11.5 57t14 62t40 50.5t63.5 34.5t84.5 13q50 0 87 -6.5t63 -15.5l4 -131l-32 -5q-38 65 -69 90.5t-71 25.5
q-36 0 -58 -20t-22 -48q0 -16 6 -28t19 -22.5t34 -20.5t52 -22q44 -16 76.5 -31.5t53.5 -34.5t31.5 -42.5t10.5 -54.5q0 -54 -28.5 -93t-76.5 -59l-103 -86q20 -3 38.5 -11t32.5 -20.5t22.5 -30.5t8.5 -40z" />
    <glyph glyph-name="scedilla.sc" horiz-adv-x="551" 
d="M500 167q0 -35 -11 -64t-30 -50.5t-44.5 -36.5t-54.5 -23l-89 -74q20 -3 38.5 -11t32.5 -20.5t22.5 -30.5t8.5 -40q0 -26 -10.5 -47t-28.5 -36t-42.5 -23.5t-52.5 -8.5q-47 0 -75 15t-28 40q0 16 9 27t26 11t26.5 -11.5t9.5 -25.5q0 -13 -5 -23q11 -5 33 -5q23 0 43 16
t20 50q0 32 -21.5 49.5t-56.5 17.5q-8 0 -13.5 -1t-13.5 -3l-19 21l123 103h-8q-44 0 -87.5 10t-76.5 24l-25 -33h-35l-8 204l44 3q48 -91 93.5 -127.5t96.5 -36.5q43 0 70.5 23.5t27.5 62.5q0 38 -24.5 58t-73.5 38q-24 9 -49.5 17t-50.5 19q-24 10 -45.5 23.5t-37.5 31
t-25.5 40.5t-9.5 53q0 43 16.5 76t44 55.5t63 34.5t72.5 12q38 0 71 -8.5t62 -23.5l26 34h34l13 -182l-44 -5q-43 79 -82 109.5t-79 30.5q-39 0 -61.5 -21t-22.5 -55q0 -36 21.5 -55t63.5 -35q23 -10 50 -18t53 -19q25 -10 47.5 -23t40 -31t28 -43t10.5 -59z" />
    <glyph glyph-name="Scommaaccent" unicode="&#x218;" horiz-adv-x="617" 
d="M560 212q0 -55 -20.5 -97.5t-55 -72t-79.5 -44.5t-94 -15q-50 0 -94 11t-76 27l-31 -38h-36l-14 245l39 2q25 -60 49.5 -98.5t49.5 -61t52 -31.5t59 -9q58 0 93 31.5t35 83.5q0 24 -6 42.5t-21 34.5t-40 30.5t-63 30.5q-27 11 -53.5 21.5t-52.5 23.5q-59 29 -90.5 72
t-31.5 109q0 47 18 85.5t49 65.5t71.5 42t85.5 15q47 0 79.5 -10t59.5 -26l33 38h35l19 -216l-38 -3q-23 47 -44 79.5t-42.5 52.5t-45.5 29t-52 9q-45 0 -74 -26.5t-29 -74.5q0 -41 23 -69t81 -54q29 -13 59.5 -24.5t61.5 -26.5q67 -32 99 -77t32 -106zM377 -158
q0 -56 -40 -103.5t-106 -75.5l-11 22q85 56 93 116l-6 4l-2 -1q-5 -2 -9 -2.5t-11 -0.5q-20 0 -33.5 17t-13.5 42q0 27 18.5 47.5t46.5 20.5q34 0 54 -22.5t20 -63.5z" />
    <glyph glyph-name="scommaaccent" unicode="&#x219;" horiz-adv-x="488" 
d="M310 -161q0 -57 -40.5 -105.5t-108.5 -76.5l-11 22q88 59 94 118l-5 5l-3 -1q-5 -2 -9 -2.5t-11 -0.5q-21 0 -34.5 17t-13.5 42q0 28 19 49t47 21q35 0 55.5 -23t20.5 -65zM444 157q0 -40 -16 -72t-44.5 -54.5t-67 -34.5t-83.5 -12q-54 0 -96 7.5t-83 23.5l-2 147l33 2
q21 -39 40 -65.5t38 -42.5t39.5 -23t44.5 -7q41 0 65 20t24 58q0 33 -28 54t-97 48q-33 13 -61.5 26.5t-49 31.5t-32 42t-11.5 57t14 62t40 50.5t63.5 34.5t84.5 13q50 0 87 -6.5t63 -15.5l4 -131l-32 -5q-38 65 -69 90.5t-71 25.5q-36 0 -58 -20t-22 -48q0 -16 6 -28
t19 -22.5t34 -20.5t52 -22q44 -16 76.5 -31.5t53.5 -34.5t31.5 -42.5t10.5 -54.5z" />
    <glyph glyph-name="scommaaccent.sc" horiz-adv-x="551" 
d="M349 -161q0 -57 -40.5 -105.5t-108.5 -76.5l-11 22q88 59 94 118l-5 5l-3 -1q-5 -2 -9 -2.5t-11 -0.5q-21 0 -34.5 17t-13.5 42q0 28 19 49t47 21q35 0 55.5 -23t20.5 -65zM500 167q0 -46 -18 -80.5t-48 -57.5t-68 -34.5t-77 -11.5q-44 0 -87.5 10t-76.5 24l-25 -33h-35
l-8 204l44 3q48 -91 93.5 -127.5t96.5 -36.5q43 0 70.5 23.5t27.5 62.5q0 38 -24.5 58t-73.5 38q-24 9 -49.5 17t-50.5 19q-24 10 -45.5 23.5t-37.5 31t-25.5 40.5t-9.5 53q0 43 16.5 76t44 55.5t63 34.5t72.5 12q38 0 71 -8.5t62 -23.5l26 34h34l13 -182l-44 -5
q-43 79 -82 109.5t-79 30.5q-39 0 -61.5 -21t-22.5 -55q0 -36 21.5 -55t63.5 -35q23 -10 50 -18t53 -19q25 -10 47.5 -23t40 -31t28 -43t10.5 -59z" />
    <glyph glyph-name="Tcaron" unicode="&#x164;" horiz-adv-x="771" 
d="M519 1016l27 -24l-131 -205h-60l-122 205l26 24l130 -114zM712 458l-73 99q-20 27 -35 45t-29.5 28.5t-29.5 15t-36 5.5h-45v-594l113 -23v-34h-377v34l113 23v594h-50q-20 -1 -35.5 -6t-30 -16t-29.5 -28.5t-34 -43.5l-73 -99l-26 6l35 237h633l35 -237z" />
    <glyph glyph-name="tcaron" unicode="&#x165;" horiz-adv-x="424" 
d="M366 837q26 -2 41.5 -21t13.5 -47q-2 -31 -26.5 -82.5t-66.5 -116.5l-26 9q-2 48 -3.5 91.5t0.5 70.5q2 46 19.5 72t47.5 24zM411 38q-17 -10 -38 -19.5t-45 -16.5t-48.5 -11t-48.5 -4q-64 0 -96 32t-32 100v318h-87v29l106 68l75 128h39v-154h171v-71h-171v-270
q0 -34 6.5 -54.5t23.5 -31.5q14 -10 31 -13.5t45 -3.5q14 0 31.5 1.5t35.5 3.5l2 -31v0z" />
    <glyph glyph-name="tcaron.sc" horiz-adv-x="644" 
d="M577 341l-55 85q-15 22 -26 37t-22 24t-23 13t-28 5h-29v-452l87 -22v-31h-314v31l87 22v452h-33q-15 -1 -27 -5.5t-23.5 -13.5t-22.5 -24t-25 -36l-54 -85l-31 6l19 207h533l18 -207zM458 867l27 -25l-133 -209h-62l-124 209l27 25l132 -116z" />
    <glyph glyph-name="Tcommaaccent" unicode="&#x162;" horiz-adv-x="771" 
d="M712 458l-73 99q-20 27 -35 45t-29.5 28.5t-29.5 15t-36 5.5h-45v-594l113 -23v-34h-377v34l113 23v594h-50q-20 -1 -35.5 -6t-30 -16t-29.5 -28.5t-34 -43.5l-73 -99l-26 6l35 237h633l35 -237zM450 -158q0 -56 -40 -103.5t-106 -75.5l-11 22q85 56 93 116l-6 4l-2 -1
q-5 -2 -9 -2.5t-11 -0.5q-20 0 -33.5 17t-13.5 42q0 27 18.5 47.5t46.5 20.5q34 0 54 -22.5t20 -63.5z" />
    <glyph glyph-name="Tcommaaccent" unicode="&#x21a;" horiz-adv-x="771" 
d="M712 458l-73 99q-20 27 -35 45t-29.5 28.5t-29.5 15t-36 5.5h-45v-594l113 -23v-34h-377v34l113 23v594h-50q-20 -1 -35.5 -6t-30 -16t-29.5 -28.5t-34 -43.5l-73 -99l-26 6l35 237h633l35 -237zM450 -158q0 -56 -40 -103.5t-106 -75.5l-11 22q85 56 93 116l-6 4l-2 -1
q-5 -2 -9 -2.5t-11 -0.5q-20 0 -33.5 17t-13.5 42q0 27 18.5 47.5t46.5 20.5q34 0 54 -22.5t20 -63.5z" />
    <glyph glyph-name="tcommaaccent" unicode="&#x163;" horiz-adv-x="424" 
d="M290 -161q0 -57 -40.5 -105.5t-108.5 -76.5l-11 22q88 59 94 118l-5 5l-3 -1q-5 -2 -9 -2.5t-11 -0.5q-21 0 -34.5 17t-13.5 42q0 28 19 49t47 21q35 0 55.5 -23t20.5 -65zM411 38q-17 -10 -38 -19.5t-45 -16.5t-48.5 -11t-48.5 -4q-64 0 -96 32t-32 100v318h-87v29
l106 68l75 128h39v-154h171v-71h-171v-270q0 -34 6.5 -54.5t23.5 -31.5q14 -10 31 -13.5t45 -3.5q14 0 31.5 1.5t35.5 3.5l2 -31v0z" />
    <glyph glyph-name="tcommaaccent" unicode="&#x21b;" horiz-adv-x="424" 
d="M290 -161q0 -57 -40.5 -105.5t-108.5 -76.5l-11 22q88 59 94 118l-5 5l-3 -1q-5 -2 -9 -2.5t-11 -0.5q-21 0 -34.5 17t-13.5 42q0 28 19 49t47 21q35 0 55.5 -23t20.5 -65zM411 38q-17 -10 -38 -19.5t-45 -16.5t-48.5 -11t-48.5 -4q-64 0 -96 32t-32 100v318h-87v29
l106 68l75 128h39v-154h171v-71h-171v-270q0 -34 6.5 -54.5t23.5 -31.5q14 -10 31 -13.5t45 -3.5q14 0 31.5 1.5t35.5 3.5l2 -31v0z" />
    <glyph glyph-name="tcommaaccent.sc" horiz-adv-x="644" 
d="M577 341l-55 85q-15 22 -26 37t-22 24t-23 13t-28 5h-29v-452l87 -22v-31h-314v31l87 22v452h-33q-15 -1 -27 -5.5t-23.5 -13.5t-22.5 -24t-25 -36l-54 -85l-31 6l19 207h533l18 -207zM388 -161q0 -57 -40.5 -105.5t-108.5 -76.5l-11 22q88 59 94 118l-5 5l-3 -1
q-5 -2 -9 -2.5t-11 -0.5q-21 0 -34.5 17t-13.5 42q0 28 19 49t47 21q35 0 55.5 -23t20.5 -65z" />
    <glyph glyph-name="Thorn" unicode="&#xde;" horiz-adv-x="707" 
d="M659 357q0 -48 -19 -87t-52.5 -66.5t-81 -42.5t-104.5 -15q-25 0 -54 2.5t-52 5.5v-97l116 -23v-34h-374v34l107 23v587l-107 23v34h374v-34l-116 -23v-93q18 2 43.5 4.5t48.5 2.5q63 0 113 -14t85 -40.5t54 -63.5t19 -83zM499 355q0 80 -40 116t-108 38h-13h-16
t-15 -0.5t-11 -1.5v-306q8 -1 24 -1.5t28 -0.5q72 0 111.5 36.5t39.5 119.5z" />
    <glyph glyph-name="thorn" unicode="&#xfe;" horiz-adv-x="635" 
d="M588 267q0 -56 -20.5 -107.5t-58 -91t-91 -63t-118.5 -23.5q-43 0 -82 10v-168l87 -27v-31h-294v31l73 27v883l-80 45v27l195 51l19 -11v-364l13 -2q35 32 71.5 50.5t85.5 18.5q39 0 75 -17.5t64 -50t44.5 -80t16.5 -107.5zM448 232q0 102 -38.5 152t-107.5 50
q-23 0 -44 -6.5t-40 -14.5v-328q23 -27 49.5 -41t60.5 -14q24 0 45.5 11.5t38 36t26.5 63t10 91.5z" />
    <glyph glyph-name="thorn.sc" horiz-adv-x="614" 
d="M576 290q0 -41 -16.5 -73t-46.5 -55t-71 -35t-90 -12q-24 0 -46 1t-42 4v-68l93 -21v-31h-315v31l82 21v450l-82 20v32h315v-32l-93 -20v-53q17 2 37 3.5t40 1.5q54 0 97.5 -11.5t74 -33t47 -52t16.5 -67.5zM427 287q0 62 -32.5 91.5t-86.5 30.5h-24.5t-19.5 -1v-248
q5 0 19.5 -0.5t22.5 -0.5q54 0 87.5 32t33.5 96z" />
    <glyph glyph-name="Uacute" unicode="&#xda;" horiz-adv-x="837" 
d="M555 1010q23 -16 26 -42t-16 -53q-16 -24 -55 -60.5t-86 -75.5l-26 18q18 63 34.5 111.5t30.5 71.5q17 27 43 35.5t49 -5.5zM551 667v34h254v-34l-92 -33v-388q0 -58 -18.5 -106.5t-54.5 -83.5t-88.5 -54.5t-119.5 -19.5q-146 0 -223 63t-77 196v403l-102 23v34h361v-34
l-108 -23v-395q0 -104 49 -150t136 -46q42 0 74 14.5t53.5 40t33 60.5t11.5 77v389z" />
    <glyph glyph-name="uacute" unicode="&#xfa;" horiz-adv-x="656" 
d="M430 819q24 -16 27 -42t-16 -55q-17 -24 -56.5 -61t-87.5 -76l-26 18q18 63 35 112.5t31 73.5q17 28 43.5 36.5t49.5 -6.5zM627 52v-27l-185 -43l-18 11l8 81l-13 2q-51 -48 -94.5 -70.5t-92.5 -22.5q-35 0 -61.5 11.5t-44.5 32.5t-27 49.5t-9 62.5v275l-73 44v23l188 44
l19 -12v-328q0 -54 20 -83t68 -29q30 0 54.5 9.5t53.5 26.5v305l-73 44v23l188 44l19 -12v-426z" />
    <glyph glyph-name="uacute.sc" horiz-adv-x="700" 
d="M483 860q24 -16 27 -42t-16 -55q-17 -24 -56.5 -61t-87.5 -76l-26 18q18 63 35 112.5t31 73.5q17 28 43.5 36.5t49.5 -6.5zM456 522v32h216v-32l-75 -31v-289q0 -102 -59.5 -160.5t-175.5 -58.5q-121 0 -187 52.5t-66 166.5v299l-77 21v32h298v-32l-80 -21v-293
q0 -43 10.5 -73t29 -49t45 -27.5t59.5 -8.5q66 0 102 41.5t36 110.5v289z" />
    <glyph glyph-name="Ubreve" unicode="&#x16c;" horiz-adv-x="837" 
d="M445 885q48 0 76 26t48 76l36 -11q-9 -94 -50 -141.5t-110 -47.5t-110.5 47.5t-49.5 141.5l37 11q17 -50 46 -76t77 -26zM551 667v34h254v-34l-92 -33v-388q0 -58 -18.5 -106.5t-54.5 -83.5t-88.5 -54.5t-119.5 -19.5q-146 0 -223 63t-77 196v403l-102 23v34h361v-34
l-108 -23v-395q0 -104 49 -150t136 -46q42 0 74 14.5t53.5 40t33 60.5t11.5 77v389z" />
    <glyph glyph-name="ubreve" unicode="&#x16d;" horiz-adv-x="656" 
d="M627 52v-27l-185 -43l-18 11l8 81l-13 2q-51 -48 -94.5 -70.5t-92.5 -22.5q-35 0 -61.5 11.5t-44.5 32.5t-27 49.5t-9 62.5v275l-73 44v23l188 44l19 -12v-328q0 -54 20 -83t68 -29q30 0 54.5 9.5t53.5 26.5v305l-73 44v23l188 44l19 -12v-426zM319 692q48 0 77 26.5
t49 77.5l38 -11q-10 -95 -51.5 -143.5t-112.5 -48.5q-70 0 -112.5 48.5t-50.5 143.5l38 11q18 -51 47.5 -77.5t77.5 -26.5z" />
    <glyph glyph-name="ubreve.sc" horiz-adv-x="700" 
d="M456 522v32h216v-32l-75 -31v-289q0 -102 -59.5 -160.5t-175.5 -58.5q-121 0 -187 52.5t-66 166.5v299l-77 21v32h298v-32l-80 -21v-293q0 -43 10.5 -73t29 -49t45 -27.5t59.5 -8.5q66 0 102 41.5t36 110.5v289zM371 733q48 0 77 26.5t49 77.5l38 -11
q-10 -95 -51.5 -143.5t-112.5 -48.5q-70 0 -112.5 48.5t-50.5 143.5l38 11q18 -51 47.5 -77.5t77.5 -26.5z" />
    <glyph glyph-name="Ucircumflex" unicode="&#xdb;" horiz-adv-x="837" 
d="M551 667v34h254v-34l-92 -33v-388q0 -58 -18.5 -106.5t-54.5 -83.5t-88.5 -54.5t-119.5 -19.5q-146 0 -223 63t-77 196v403l-102 23v34h361v-34l-108 -23v-395q0 -104 49 -150t136 -46q42 0 74 14.5t53.5 40t33 60.5t11.5 77v389zM315 776l-27 24l131 205h60l122 -205
l-26 -24l-130 114z" />
    <glyph glyph-name="ucircumflex" unicode="&#xfb;" horiz-adv-x="656" 
d="M185 581l-27 25l133 209h62l124 -209l-27 -25l-132 116zM627 52v-27l-185 -43l-18 11l8 81l-13 2q-51 -48 -94.5 -70.5t-92.5 -22.5q-35 0 -61.5 11.5t-44.5 32.5t-27 49.5t-9 62.5v275l-73 44v23l188 44l19 -12v-328q0 -54 20 -83t68 -29q30 0 54.5 9.5t53.5 26.5v305
l-73 44v23l188 44l19 -12v-426z" />
    <glyph glyph-name="ucircumflex.sc" horiz-adv-x="700" 
d="M238 622l-27 25l133 209h62l124 -209l-27 -25l-132 116zM456 522v32h216v-32l-75 -31v-289q0 -102 -59.5 -160.5t-175.5 -58.5q-121 0 -187 52.5t-66 166.5v299l-77 21v32h298v-32l-80 -21v-293q0 -43 10.5 -73t29 -49t45 -27.5t59.5 -8.5q66 0 102 41.5t36 110.5v289z
" />
    <glyph glyph-name="Udieresis" unicode="&#xdc;" horiz-adv-x="837" 
d="M552 793q-32 0 -52.5 21t-20.5 53t22.5 56.5t57.5 24.5q32 0 52.5 -21t20.5 -53t-22.5 -56.5t-57.5 -24.5zM328 793q-32 0 -52.5 21t-20.5 53t22.5 56.5t57.5 24.5q32 0 52.5 -21t20.5 -53t-22.5 -56.5t-57.5 -24.5zM551 667v34h254v-34l-92 -33v-388q0 -58 -18.5 -106.5
t-54.5 -83.5t-88.5 -54.5t-119.5 -19.5q-146 0 -223 63t-77 196v403l-102 23v34h361v-34l-108 -23v-395q0 -104 49 -150t136 -46q42 0 74 14.5t53.5 40t33 60.5t11.5 77v389z" />
    <glyph glyph-name="udieresis" unicode="&#xfc;" horiz-adv-x="656" 
d="M427 599q-32 0 -53 21.5t-21 53.5q0 16 6 31t17 26.5t26 18.5t33 7q32 0 53 -21.5t21 -54.5q0 -16 -6 -31t-17 -26t-26 -18t-33 -7zM199 599q-33 0 -53.5 21.5t-20.5 53.5q0 16 6 31t17 26.5t26 18.5t32 7q33 0 53.5 -21.5t20.5 -54.5q0 -32 -23 -57t-58 -25zM627 52v-27
l-185 -43l-18 11l8 81l-13 2q-51 -48 -94.5 -70.5t-92.5 -22.5q-35 0 -61.5 11.5t-44.5 32.5t-27 49.5t-9 62.5v275l-73 44v23l188 44l19 -12v-328q0 -54 20 -83t68 -29q30 0 54.5 9.5t53.5 26.5v305l-73 44v23l188 44l19 -12v-426z" />
    <glyph glyph-name="udieresis.sc" horiz-adv-x="700" 
d="M479 640q-32 0 -53 21.5t-21 53.5q0 16 6 31t17 26.5t26 18.5t33 7q32 0 53 -21.5t21 -54.5q0 -16 -6 -31t-17 -26t-26 -18t-33 -7zM251 640q-33 0 -53.5 21.5t-20.5 53.5q0 16 6 31t17 26.5t26 18.5t32 7q33 0 53.5 -21.5t20.5 -54.5q0 -32 -23 -57t-58 -25zM456 522v32
h216v-32l-75 -31v-289q0 -102 -59.5 -160.5t-175.5 -58.5q-121 0 -187 52.5t-66 166.5v299l-77 21v32h298v-32l-80 -21v-293q0 -43 10.5 -73t29 -49t45 -27.5t59.5 -8.5q66 0 102 41.5t36 110.5v289z" />
    <glyph glyph-name="Ugrave" unicode="&#xd9;" horiz-adv-x="837" 
d="M467 779q-47 39 -85.5 75.5t-55.5 60.5q-19 27 -16 53t27 42q23 14 48.5 5.5t42.5 -35.5q14 -23 30.5 -71.5t34.5 -111.5zM551 667v34h254v-34l-92 -33v-388q0 -58 -18.5 -106.5t-54.5 -83.5t-88.5 -54.5t-119.5 -19.5q-146 0 -223 63t-77 196v403l-102 23v34h361v-34
l-108 -23v-395q0 -104 49 -150t136 -46q42 0 74 14.5t53.5 40t33 60.5t11.5 77v389z" />
    <glyph glyph-name="ugrave" unicode="&#xf9;" horiz-adv-x="656" 
d="M627 52v-27l-185 -43l-18 11l8 81l-13 2q-51 -48 -94.5 -70.5t-92.5 -22.5q-35 0 -61.5 11.5t-44.5 32.5t-27 49.5t-9 62.5v275l-73 44v23l188 44l19 -12v-328q0 -54 20 -83t68 -29q30 0 54.5 9.5t53.5 26.5v305l-73 44v23l188 44l19 -12v-426zM340 585q-47 39 -86.5 76
t-56.5 61q-19 29 -16 55.5t27 41.5q23 15 49.5 6t43.5 -36q14 -24 31 -73.5t35 -112.5z" />
    <glyph glyph-name="ugrave.sc" horiz-adv-x="700" 
d="M393 626q-47 39 -86.5 76t-56.5 61q-19 29 -16 55.5t27 41.5q23 15 49.5 6t43.5 -36q14 -24 31 -73.5t35 -112.5zM456 522v32h216v-32l-75 -31v-289q0 -102 -59.5 -160.5t-175.5 -58.5q-121 0 -187 52.5t-66 166.5v299l-77 21v32h298v-32l-80 -21v-293q0 -43 10.5 -73
t29 -49t45 -27.5t59.5 -8.5q66 0 102 41.5t36 110.5v289z" />
    <glyph glyph-name="Uhungarumlaut" unicode="&#x170;" horiz-adv-x="837" 
d="M551 667v34h254v-34l-92 -33v-388q0 -58 -18.5 -106.5t-54.5 -83.5t-88.5 -54.5t-119.5 -19.5q-146 0 -223 63t-77 196v403l-102 23v34h361v-34l-108 -23v-395q0 -104 49 -150t136 -46q42 0 74 14.5t53.5 40t33 60.5t11.5 77v389zM653 922q-17 -27 -55.5 -66t-82.5 -78
l-22 16q16 58 33.5 109.5t33.5 78.5q15 26 38.5 34.5t44.5 -5.5q23 -14 25.5 -38.5t-15.5 -50.5zM475 922q-18 -27 -55.5 -66t-81.5 -78l-23 16q17 58 33.5 109.5t32.5 78.5q15 26 39 34.5t45 -5.5q23 -14 25 -38.5t-15 -50.5z" />
    <glyph glyph-name="uhungarumlaut" unicode="&#x171;" horiz-adv-x="656" 
d="M627 52v-27l-185 -43l-18 11l8 81l-13 2q-51 -48 -94.5 -70.5t-92.5 -22.5q-35 0 -61.5 11.5t-44.5 32.5t-27 49.5t-9 62.5v275l-73 44v23l188 44l19 -12v-328q0 -54 20 -83t68 -29q30 0 54.5 9.5t53.5 26.5v305l-73 44v23l188 44l19 -12v-426zM531 730
q-18 -27 -57 -66.5t-84 -79.5l-23 15q17 60 34.5 112t34.5 80q15 26 39 35t46 -5q23 -15 25.5 -39.5t-15.5 -51.5zM349 730q-18 -27 -56.5 -66.5t-83.5 -79.5l-23 15q17 60 34 112t34 80q15 26 39 35t46 -5q23 -15 25.5 -39.5t-15.5 -51.5z" />
    <glyph glyph-name="uhungarumlaut.sc" horiz-adv-x="700" 
d="M583 771q-18 -27 -57 -66.5t-84 -79.5l-23 15q17 60 34.5 112t34.5 80q15 26 39 35t46 -5q23 -15 25.5 -39.5t-15.5 -51.5zM401 771q-18 -27 -56.5 -66.5t-83.5 -79.5l-23 15q17 60 34 112t34 80q15 26 39 35t46 -5q23 -15 25.5 -39.5t-15.5 -51.5zM456 522v32h216v-32
l-75 -31v-289q0 -102 -59.5 -160.5t-175.5 -58.5q-121 0 -187 52.5t-66 166.5v299l-77 21v32h298v-32l-80 -21v-293q0 -43 10.5 -73t29 -49t45 -27.5t59.5 -8.5q66 0 102 41.5t36 110.5v289z" />
    <glyph glyph-name="Umacron" unicode="&#x16a;" horiz-adv-x="837" 
d="M605 813h-326v83h326v-83zM551 667v34h254v-34l-92 -33v-388q0 -58 -18.5 -106.5t-54.5 -83.5t-88.5 -54.5t-119.5 -19.5q-146 0 -223 63t-77 196v403l-102 23v34h361v-34l-108 -23v-395q0 -104 49 -150t136 -46q42 0 74 14.5t53.5 40t33 60.5t11.5 77v389z" />
    <glyph glyph-name="umacron" unicode="&#x16b;" horiz-adv-x="656" 
d="M627 52v-27l-185 -43l-18 11l8 81l-13 2q-51 -48 -94.5 -70.5t-92.5 -22.5q-35 0 -61.5 11.5t-44.5 32.5t-27 49.5t-9 62.5v275l-73 44v23l188 44l19 -12v-328q0 -54 20 -83t68 -29q30 0 54.5 9.5t53.5 26.5v305l-73 44v23l188 44l19 -12v-426zM483 619h-333v85h333v-85z
" />
    <glyph glyph-name="umacron.sc" horiz-adv-x="700" 
d="M535 660h-333v85h333v-85zM456 522v32h216v-32l-75 -31v-289q0 -102 -59.5 -160.5t-175.5 -58.5q-121 0 -187 52.5t-66 166.5v299l-77 21v32h298v-32l-80 -21v-293q0 -43 10.5 -73t29 -49t45 -27.5t59.5 -8.5q66 0 102 41.5t36 110.5v289z" />
    <glyph glyph-name="Uogonek" unicode="&#x172;" horiz-adv-x="837" 
d="M551 667v34h254v-34l-92 -33v-388q0 -53 -15.5 -97.5t-45.5 -79t-73.5 -56.5t-99.5 -28q-36 -45 -49 -75.5t-13 -56.5q0 -38 20.5 -58t50.5 -20q23 0 40 7.5t29 15.5l14 -21q-25 -25 -54.5 -40t-64.5 -15q-48 0 -82.5 25.5t-34.5 78.5q0 45 23 83t64 73q-142 2 -216 65
t-74 194v403l-102 23v34h361v-34l-108 -23v-395q0 -104 49 -150t136 -46q42 0 74 14.5t53.5 40t33 60.5t11.5 77v389z" />
    <glyph glyph-name="uogonek" unicode="&#x173;" horiz-adv-x="656" 
d="M627 52v-27q-29 -9 -56.5 -27t-48.5 -41.5t-33.5 -50.5t-12.5 -55q0 -38 20 -58.5t52 -20.5q23 0 40 7.5t29 15.5l15 -22q-25 -25 -55.5 -40.5t-65.5 -15.5q-49 0 -84 26.5t-35 80.5q0 25 9.5 50t25.5 48t37.5 42.5t46.5 34.5l-72 -14l-16 10l7 79l-11 2
q-51 -48 -94.5 -70.5t-92.5 -22.5q-35 0 -61.5 11.5t-44.5 32.5t-27 49.5t-9 62.5v275l-73 44v23l188 44l19 -12v-328q0 -54 20 -83t68 -29q30 0 54.5 9.5t53.5 26.5v305l-73 44v23l188 44l19 -12v-426z" />
    <glyph glyph-name="uogonek.sc" horiz-adv-x="700" 
d="M456 522v32h216v-32l-75 -31v-289q0 -92 -48.5 -148.5t-142.5 -67.5q-38 -46 -51 -77.5t-13 -58.5q0 -38 20.5 -58.5t52.5 -20.5q23 0 40 7.5t29 15.5l15 -21q-25 -26 -55.5 -41t-65.5 -15q-24 0 -46 6.5t-38.5 20t-26 33t-9.5 46.5q0 46 24 85t66 75q-115 3 -177 55.5
t-62 163.5v299l-77 21v32h298v-32l-80 -21v-293q0 -43 10.5 -73t29 -49t45 -27.5t59.5 -8.5q66 0 102 41.5t36 110.5v289z" />
    <glyph glyph-name="Uring" unicode="&#x16e;" horiz-adv-x="837" 
d="M551 667v34h254v-34l-92 -33v-388q0 -58 -18.5 -106.5t-54.5 -83.5t-88.5 -54.5t-119.5 -19.5q-146 0 -223 63t-77 196v403l-102 23v34h361v-34l-108 -23v-395q0 -104 49 -150t136 -46q42 0 74 14.5t53.5 40t33 60.5t11.5 77v389zM567 901q0 -23 -9 -44t-26 -37
t-40.5 -25.5t-51.5 -9.5q-56 0 -89 33t-33 82q0 23 9.5 44t26 36.5t40 25t52.5 9.5q56 0 88.5 -32.5t32.5 -81.5zM505 901q0 42 -19 62.5t-45 20.5q-25 0 -43 -21.5t-18 -63.5t19 -62.5t44 -20.5q26 0 44 21.5t18 63.5z" />
    <glyph glyph-name="uring" unicode="&#x16f;" horiz-adv-x="656" 
d="M443 708q0 -23 -9.5 -44t-26.5 -37.5t-41 -26t-52 -9.5q-57 0 -91 33t-34 84q0 23 9.5 44t27 37t41 25.5t52.5 9.5q57 0 90.5 -32.5t33.5 -83.5zM379 708q0 43 -19 64.5t-45 21.5t-44 -22t-18 -65q0 -42 19 -63.5t45 -21.5t44 21.5t18 64.5zM627 52v-27l-185 -43l-18 11
l8 81l-13 2q-51 -48 -94.5 -70.5t-92.5 -22.5q-35 0 -61.5 11.5t-44.5 32.5t-27 49.5t-9 62.5v275l-73 44v23l188 44l19 -12v-328q0 -54 20 -83t68 -29q30 0 54.5 9.5t53.5 26.5v305l-73 44v23l188 44l19 -12v-426z" />
    <glyph glyph-name="uring.sc" horiz-adv-x="700" 
d="M496 749q0 -23 -9.5 -44t-26.5 -37.5t-41 -26t-52 -9.5q-57 0 -91 33t-34 84q0 23 9.5 44t27 37t41 25.5t52.5 9.5q57 0 90.5 -32.5t33.5 -83.5zM432 749q0 43 -19 64.5t-45 21.5t-44 -22t-18 -65q0 -42 19 -63.5t45 -21.5t44 21.5t18 64.5zM456 522v32h216v-32l-75 -31
v-289q0 -102 -59.5 -160.5t-175.5 -58.5q-121 0 -187 52.5t-66 166.5v299l-77 21v32h298v-32l-80 -21v-293q0 -43 10.5 -73t29 -49t45 -27.5t59.5 -8.5q66 0 102 41.5t36 110.5v289z" />
    <glyph glyph-name="Wacute" unicode="&#x1e82;" horiz-adv-x="1131" 
d="M692 1010q23 -16 26 -42t-16 -53q-16 -24 -55 -60.5t-86 -75.5l-26 18q18 63 34.5 111.5t30.5 71.5q17 27 43 35.5t49 -5.5zM827 186h5l135 447l-79 36v32h240v-34l-87 -39l-216 -635h-77l-170 481h-5l-186 -481h-77l-206 645l-96 29v34h344v-32l-90 -23l133 -462h3
l146 388l-24 69l-79 28v32h322v-32l-88 -25z" />
    <glyph glyph-name="wacute" unicode="&#x1e83;" horiz-adv-x="908" 
d="M582 819q24 -16 27 -42t-16 -55q-17 -24 -56.5 -61t-87.5 -76l-26 18q18 63 35 112.5t31 73.5q17 28 43.5 36.5t49.5 -6.5zM640 140h5l111 302l-64 35v28h216v-31l-77 -37l-196 -449h-55l-116 305l-151 -305h-56l-182 460l-68 26v31h271v-28l-62 -26l111 -318h5l105 227
l-34 91l-57 26v28h259v-28l-68 -26z" />
    <glyph glyph-name="wacute.sc" horiz-adv-x="930" 
d="M420 500l-56 22v32h268v-33l-69 -21l112 -361h5l105 346l-75 37v32h221v-32l-75 -41l-169 -490h-92l-115 333h-5l-135 -333h-90l-160 505l-71 26v32h281v-32l-69 -20l105 -363h5l109 273zM602 860q24 -16 27 -42t-16 -55q-17 -24 -56.5 -61t-87.5 -76l-26 18
q18 63 35 112.5t31 73.5q17 28 43.5 36.5t49.5 -6.5z" />
    <glyph glyph-name="Wcircumflex" unicode="&#x174;" horiz-adv-x="1131" 
d="M827 186h5l135 447l-79 36v32h240v-34l-87 -39l-216 -635h-77l-170 481h-5l-186 -481h-77l-206 645l-96 29v34h344v-32l-90 -23l133 -462h3l146 388l-24 69l-79 28v32h322v-32l-88 -25zM452 776l-27 24l131 205h60l122 -205l-26 -24l-130 114z" />
    <glyph glyph-name="wcircumflex" unicode="&#x175;" horiz-adv-x="908" 
d="M337 581l-27 25l133 209h62l124 -209l-27 -25l-132 116zM640 140h5l111 302l-64 35v28h216v-31l-77 -37l-196 -449h-55l-116 305l-151 -305h-56l-182 460l-68 26v31h271v-28l-62 -26l111 -318h5l105 227l-34 91l-57 26v28h259v-28l-68 -26z" />
    <glyph glyph-name="wcircumflex.sc" horiz-adv-x="930" 
d="M358 622l-27 25l133 209h62l124 -209l-27 -25l-132 116zM420 500l-56 22v32h268v-33l-69 -21l112 -361h5l105 346l-75 37v32h221v-32l-75 -41l-169 -490h-92l-115 333h-5l-135 -333h-90l-160 505l-71 26v32h281v-32l-69 -20l105 -363h5l109 273z" />
    <glyph glyph-name="Wdieresis" unicode="&#x1e84;" horiz-adv-x="1131" 
d="M689 793q-32 0 -52.5 21t-20.5 53t22.5 56.5t57.5 24.5q32 0 52.5 -21t20.5 -53t-22.5 -56.5t-57.5 -24.5zM465 793q-32 0 -52.5 21t-20.5 53t22.5 56.5t57.5 24.5q32 0 52.5 -21t20.5 -53t-22.5 -56.5t-57.5 -24.5zM827 186h5l135 447l-79 36v32h240v-34l-87 -39
l-216 -635h-77l-170 481h-5l-186 -481h-77l-206 645l-96 29v34h344v-32l-90 -23l133 -462h3l146 388l-24 69l-79 28v32h322v-32l-88 -25z" />
    <glyph glyph-name="wdieresis" unicode="&#x1e85;" horiz-adv-x="908" 
d="M579 599q-32 0 -53 21.5t-21 53.5q0 16 6 31t17 26.5t26 18.5t33 7q32 0 53 -21.5t21 -54.5q0 -16 -6 -31t-17 -26t-26 -18t-33 -7zM351 599q-33 0 -53.5 21.5t-20.5 53.5q0 16 6 31t17 26.5t26 18.5t32 7q33 0 53.5 -21.5t20.5 -54.5q0 -32 -23 -57t-58 -25zM640 140h5
l111 302l-64 35v28h216v-31l-77 -37l-196 -449h-55l-116 305l-151 -305h-56l-182 460l-68 26v31h271v-28l-62 -26l111 -318h5l105 227l-34 91l-57 26v28h259v-28l-68 -26z" />
    <glyph glyph-name="wdieresis.sc" horiz-adv-x="930" 
d="M599 640q-32 0 -53 21.5t-21 53.5q0 16 6 31t17 26.5t26 18.5t33 7q32 0 53 -21.5t21 -54.5q0 -16 -6 -31t-17 -26t-26 -18t-33 -7zM371 640q-33 0 -53.5 21.5t-20.5 53.5q0 16 6 31t17 26.5t26 18.5t32 7q33 0 53.5 -21.5t20.5 -54.5q0 -32 -23 -57t-58 -25zM420 500
l-56 22v32h268v-33l-69 -21l112 -361h5l105 346l-75 37v32h221v-32l-75 -41l-169 -490h-92l-115 333h-5l-135 -333h-90l-160 505l-71 26v32h281v-32l-69 -20l105 -363h5l109 273z" />
    <glyph glyph-name="Wgrave" unicode="&#x1e80;" horiz-adv-x="1131" 
d="M604 779q-47 39 -85.5 75.5t-55.5 60.5q-19 27 -16 53t27 42q23 14 48.5 5.5t42.5 -35.5q14 -23 30.5 -71.5t34.5 -111.5zM827 186h5l135 447l-79 36v32h240v-34l-87 -39l-216 -635h-77l-170 481h-5l-186 -481h-77l-206 645l-96 29v34h344v-32l-90 -23l133 -462h3
l146 388l-24 69l-79 28v32h322v-32l-88 -25z" />
    <glyph glyph-name="wgrave" unicode="&#x1e81;" horiz-adv-x="908" 
d="M640 140h5l111 302l-64 35v28h216v-31l-77 -37l-196 -449h-55l-116 305l-151 -305h-56l-182 460l-68 26v31h271v-28l-62 -26l111 -318h5l105 227l-34 91l-57 26v28h259v-28l-68 -26zM492 585q-47 39 -86.5 76t-56.5 61q-19 29 -16 55.5t27 41.5q23 15 49.5 6t43.5 -36
q14 -24 31 -73.5t35 -112.5z" />
    <glyph glyph-name="wgrave.sc" horiz-adv-x="930" 
d="M420 500l-56 22v32h268v-33l-69 -21l112 -361h5l105 346l-75 37v32h221v-32l-75 -41l-169 -490h-92l-115 333h-5l-135 -333h-90l-160 505l-71 26v32h281v-32l-69 -20l105 -363h5l109 273zM513 626q-47 39 -86.5 76t-56.5 61q-19 29 -16 55.5t27 41.5q23 15 49.5 6
t43.5 -36q14 -24 31 -73.5t35 -112.5z" />
    <glyph glyph-name="Yacute" unicode="&#xdd;" horiz-adv-x="775" 
d="M473 308v-247l113 -27v-34h-376v34l112 27v224l-212 350l-96 32v34h347v-32l-86 -26l167 -285l157 278l-78 33v32h247v-34l-87 -33zM526 1010q23 -16 26 -42t-16 -53q-16 -24 -55 -60.5t-86 -75.5l-26 18q18 63 34.5 111.5t30.5 71.5q17 27 43 35.5t49 -5.5z" />
    <glyph glyph-name="yacute" unicode="&#xfd;" horiz-adv-x="593" 
d="M318 -60q-20 -48 -40 -81t-42.5 -54t-47.5 -30t-55 -9q-47 0 -70.5 22.5t-23.5 51.5q0 28 20 46.5t49 18.5t48.5 -16t36.5 -44q34 31 60 82l22 48l-207 473l-68 26v31h286v-29l-68 -28l120 -311h6l107 304l-71 35v29h216v-31l-72 -37zM431 819q24 -16 27 -42t-16 -55
q-17 -24 -56.5 -61t-87.5 -76l-26 18q18 63 35 112.5t31 73.5q17 28 43.5 36.5t49.5 -6.5z" />
    <glyph glyph-name="yacute.sc" horiz-adv-x="643" 
d="M455 860q24 -16 27 -42t-16 -55q-17 -24 -56.5 -61t-87.5 -76l-26 18q18 63 35 112.5t31 73.5q17 28 43.5 36.5t49.5 -6.5zM397 237v-184l87 -22v-31h-313v31l86 22v165l-165 274l-75 30v32h297v-29l-73 -24l125 -216l117 209l-68 31v29h218v-32l-73 -30z" />
    <glyph glyph-name="Ycircumflex" unicode="&#x176;" horiz-adv-x="775" 
d="M473 308v-247l113 -27v-34h-376v34l112 27v224l-212 350l-96 32v34h347v-32l-86 -26l167 -285l157 278l-78 33v32h247v-34l-87 -33zM285 776l-27 24l131 205h60l122 -205l-26 -24l-130 114z" />
    <glyph glyph-name="ycircumflex" unicode="&#x177;" horiz-adv-x="593" 
d="M318 -60q-20 -48 -40 -81t-42.5 -54t-47.5 -30t-55 -9q-47 0 -70.5 22.5t-23.5 51.5q0 28 20 46.5t49 18.5t48.5 -16t36.5 -44q34 31 60 82l22 48l-207 473l-68 26v31h286v-29l-68 -28l120 -311h6l107 304l-71 35v29h216v-31l-72 -37zM186 581l-27 25l133 209h62
l124 -209l-27 -25l-132 116z" />
    <glyph glyph-name="ycircumflex.sc" horiz-adv-x="643" 
d="M210 622l-27 25l133 209h62l124 -209l-27 -25l-132 116zM397 237v-184l87 -22v-31h-313v31l86 22v165l-165 274l-75 30v32h297v-29l-73 -24l125 -216l117 209l-68 31v29h218v-32l-73 -30z" />
    <glyph glyph-name="Ydieresis" unicode="&#x178;" horiz-adv-x="775" 
d="M473 308v-247l113 -27v-34h-376v34l112 27v224l-212 350l-96 32v34h347v-32l-86 -26l167 -285l157 278l-78 33v32h247v-34l-87 -33zM522 793q-32 0 -52.5 21t-20.5 53t22.5 56.5t57.5 24.5q32 0 52.5 -21t20.5 -53t-22.5 -56.5t-57.5 -24.5zM298 793q-32 0 -52.5 21
t-20.5 53t22.5 56.5t57.5 24.5q32 0 52.5 -21t20.5 -53t-22.5 -56.5t-57.5 -24.5z" />
    <glyph glyph-name="ydieresis" unicode="&#xff;" horiz-adv-x="593" 
d="M318 -60q-20 -48 -40 -81t-42.5 -54t-47.5 -30t-55 -9q-47 0 -70.5 22.5t-23.5 51.5q0 28 20 46.5t49 18.5t48.5 -16t36.5 -44q34 31 60 82l22 48l-207 473l-68 26v31h286v-29l-68 -28l120 -311h6l107 304l-71 35v29h216v-31l-72 -37zM427 599q-32 0 -53 21.5t-21 53.5
q0 16 6 31t17 26.5t26 18.5t33 7q32 0 53 -21.5t21 -54.5q0 -16 -6 -31t-17 -26t-26 -18t-33 -7zM199 599q-33 0 -53.5 21.5t-20.5 53.5q0 16 6 31t17 26.5t26 18.5t32 7q33 0 53.5 -21.5t20.5 -54.5q0 -32 -23 -57t-58 -25z" />
    <glyph glyph-name="ydieresis.sc" horiz-adv-x="643" 
d="M452 640q-32 0 -53 21.5t-21 53.5q0 16 6 31t17 26.5t26 18.5t33 7q32 0 53 -21.5t21 -54.5q0 -16 -6 -31t-17 -26t-26 -18t-33 -7zM224 640q-33 0 -53.5 21.5t-20.5 53.5q0 16 6 31t17 26.5t26 18.5t32 7q33 0 53.5 -21.5t20.5 -54.5q0 -32 -23 -57t-58 -25zM397 237
v-184l87 -22v-31h-313v31l86 22v165l-165 274l-75 30v32h297v-29l-73 -24l125 -216l117 209l-68 31v29h218v-32l-73 -30z" />
    <glyph glyph-name="Ygrave" unicode="&#x1ef2;" horiz-adv-x="775" 
d="M473 308v-247l113 -27v-34h-376v34l112 27v224l-212 350l-96 32v34h347v-32l-86 -26l167 -285l157 278l-78 33v32h247v-34l-87 -33zM438 779q-47 39 -85.5 75.5t-55.5 60.5q-19 27 -16 53t27 42q23 14 48.5 5.5t42.5 -35.5q14 -23 30.5 -71.5t34.5 -111.5z" />
    <glyph glyph-name="ygrave" unicode="&#x1ef3;" horiz-adv-x="593" 
d="M318 -60q-20 -48 -40 -81t-42.5 -54t-47.5 -30t-55 -9q-47 0 -70.5 22.5t-23.5 51.5q0 28 20 46.5t49 18.5t48.5 -16t36.5 -44q34 31 60 82l22 48l-207 473l-68 26v31h286v-29l-68 -28l120 -311h6l107 304l-71 35v29h216v-31l-72 -37zM341 585q-47 39 -86.5 76t-56.5 61
q-19 29 -16 55.5t27 41.5q23 15 49.5 6t43.5 -36q14 -24 31 -73.5t35 -112.5z" />
    <glyph glyph-name="ygrave.sc" horiz-adv-x="643" 
d="M397 237v-184l87 -22v-31h-313v31l86 22v165l-165 274l-75 30v32h297v-29l-73 -24l125 -216l117 209l-68 31v29h218v-32l-73 -30zM365 626q-47 39 -86.5 76t-56.5 61q-19 29 -16 55.5t27 41.5q23 15 49.5 6t43.5 -36q14 -24 31 -73.5t35 -112.5z" />
    <glyph glyph-name="Zacute" unicode="&#x179;" horiz-adv-x="727" 
d="M652 0h-605l-4 25l444 621l-178 -2q-23 0 -40 -4t-32 -13t-29 -24t-31 -37l-72 -89l-25 6l22 218h565l5 -25l-442 -622l220 2q22 0 38 4.5t29.5 13t25.5 22t25 32.5l84 120l23 -4zM501 1010q23 -16 26 -42t-16 -53q-16 -24 -55 -60.5t-86 -75.5l-26 18q18 63 34.5 111.5
t30.5 71.5q17 27 43 35.5t49 -5.5z" />
    <glyph glyph-name="zacute" unicode="&#x17a;" horiz-adv-x="564" 
d="M413 819q24 -16 27 -42t-16 -55q-17 -24 -56.5 -61t-87.5 -76l-26 18q18 63 35 112.5t31 73.5q17 28 43.5 36.5t49.5 -6.5zM199 51h184l107 132l31 -7l-16 -176h-466l-6 23l328 431h-172l-98 -131l-30 6l12 176h448l7 -22z" />
    <glyph glyph-name="zacute.sc" horiz-adv-x="611" 
d="M432 860q24 -16 27 -42t-16 -55q-17 -24 -56.5 -61t-87.5 -76l-26 18q18 63 35 112.5t31 73.5q17 28 43.5 36.5t49.5 -6.5zM545 0h-500l-5 40l357 462h-126q-39 -1 -64.5 -15.5t-53.5 -54.5l-56 -80l-31 5l18 197h473l5 -40l-356 -462l156 1q38 0 61 15t45 50l62 102
l31 -5z" />
    <glyph glyph-name="Zcaron" unicode="&#x17d;" horiz-adv-x="727" 
d="M519 1016l27 -24l-131 -205h-60l-122 205l26 24l130 -114zM652 0h-605l-4 25l444 621l-178 -2q-23 0 -40 -4t-32 -13t-29 -24t-31 -37l-72 -89l-25 6l22 218h565l5 -25l-442 -622l220 2q22 0 38 4.5t29.5 13t25.5 22t25 32.5l84 120l23 -4z" />
    <glyph glyph-name="zcaron" unicode="&#x17e;" horiz-adv-x="564" 
d="M432 826l27 -25l-133 -209h-62l-124 209l27 25l132 -116zM199 51h184l107 132l31 -7l-16 -176h-466l-6 23l328 431h-172l-98 -131l-30 6l12 176h448l7 -22z" />
    <glyph glyph-name="zcaron.sc" horiz-adv-x="611" 
d="M451 867l27 -25l-133 -209h-62l-124 209l27 25l132 -116zM545 0h-500l-5 40l357 462h-126q-39 -1 -64.5 -15.5t-53.5 -54.5l-56 -80l-31 5l18 197h473l5 -40l-356 -462l156 1q38 0 61 15t45 50l62 102l31 -5z" />
    <glyph glyph-name="Zdotaccent" unicode="&#x17b;" horiz-adv-x="727" 
d="M467 875q0 -16 -6 -31t-17.5 -26.5t-26.5 -18.5t-33 -7q-33 0 -54 22t-21 55q0 16 6 31t17.5 26.5t26.5 18.5t33 7q33 0 54 -21.5t21 -55.5zM652 0h-605l-4 25l444 621l-178 -2q-23 0 -40 -4t-32 -13t-29 -24t-31 -37l-72 -89l-25 6l22 218h565l5 -25l-442 -622l220 2
q22 0 38 4.5t29.5 13t25.5 22t25 32.5l84 120l23 -4z" />
    <glyph glyph-name="zdotaccent" unicode="&#x17c;" horiz-adv-x="564" 
d="M199 51h184l107 132l31 -7l-16 -176h-466l-6 23l328 431h-172l-98 -131l-30 6l12 176h448l7 -22zM380 683q0 -34 -24 -59.5t-61 -25.5q-34 0 -55.5 22t-21.5 56q0 16 6.5 31.5t17.5 27.5t27 19t34 7q34 0 55.5 -22t21.5 -56z" />
    <glyph glyph-name="zdotaccent.sc" horiz-adv-x="611" 
d="M545 0h-500l-5 40l357 462h-126q-39 -1 -64.5 -15.5t-53.5 -54.5l-56 -80l-31 5l18 197h473l5 -40l-356 -462l156 1q38 0 61 15t45 50l62 102l31 -5zM399 724q0 -34 -24 -59.5t-61 -25.5q-34 0 -55.5 22t-21.5 56q0 16 6.5 31.5t17.5 27.5t27 19t34 7q34 0 55.5 -22
t21.5 -56z" />
    <glyph glyph-name="schwa" unicode="&#x259;" horiz-adv-x="569" 
d="M390 241q0 95 -41.5 147t-130.5 52q-39 0 -75 -9.5t-85 -30.5l-11 26q52 45 108.5 70.5t112.5 25.5q58 0 105.5 -19t81.5 -53t52 -82t18 -106q0 -60 -21 -111.5t-57 -89t-83.5 -58.5t-99.5 -21q-60 0 -103 21t-70 56.5t-39 82.5t-10 99h348zM175 193q3 -168 98 -168
q49 0 80.5 47.5t35.5 130.5z" />
    <glyph glyph-name="germandbls" unicode="&#xdf;" horiz-adv-x="732" 
d="M689 167q0 -39 -13.5 -72.5t-38.5 -58t-59.5 -38.5t-76.5 -14q-67 0 -103 26.5t-36 67.5q0 27 16.5 45.5t42.5 18.5q21 0 35 -9t21 -24t7 -35t-7 -42q8 -4 15.5 -6t19.5 -2q30 0 51 24t21 67q0 30 -13.5 58t-43 55t-75.5 55t-111 59v19q39 45 63.5 80t38.5 65t19 58.5
t5 60.5q0 63 -29.5 101t-77.5 38q-46 0 -74 -36t-28 -119v-556l52 -25v-28h-259v31l73 23v383h-100v29l100 40v20q0 79 26.5 135.5t76.5 99.5q37 31 82.5 50t99.5 19q42 0 77 -13t60.5 -36.5t39.5 -55.5t14 -70q0 -65 -36.5 -117.5t-101.5 -107.5v-11q113 -56 170 -114
t57 -138z" />
    <glyph glyph-name="zero" unicode="0" horiz-adv-x="648" 
d="M601 337q0 -77 -20 -142t-57 -112t-89 -73.5t-116 -26.5q-67 0 -118 26.5t-85.5 73.5t-52 112t-17.5 142t20 142t56.5 112t88.5 73.5t116 26.5q67 0 118.5 -26.5t86 -73.5t52 -112t17.5 -142zM454 337q0 82 -11 140.5t-30.5 96t-45 55t-53.5 17.5q-25 0 -47 -14
t-38.5 -49t-26.5 -95t-10 -151q0 -92 11.5 -151.5t30.5 -94.5t44.5 -49t53.5 -14q25 0 47 17.5t38.5 55t26.5 96t10 140.5z" />
    <glyph glyph-name="one" unicode="1" horiz-adv-x="455" 
d="M420 33v-33h-370v33l119 42v496l-120 47v29l235 36l19 -11v-597z" />
    <glyph glyph-name="two" unicode="2" horiz-adv-x="574" 
d="M352 463q0 59 -33 93t-87 34q-41 0 -72 -18t-72 -55l-26 19q38 72 93.5 113.5t126.5 41.5q48 0 86 -15t63.5 -41t39 -61.5t13.5 -77.5t-14 -80.5t-48.5 -82t-93 -96.5t-147.5 -123l5 -11l221 3l89 102l22 -7l-40 -201h-450l-6 39q72 59 125.5 108.5t96.5 97.5
q29 31 49.5 58t33.5 52.5t19 51.5t6 56z" />
    <glyph glyph-name="three" unicode="3" horiz-adv-x="565" 
d="M504 196q0 -46 -19 -85t-53 -67.5t-79.5 -44.5t-97.5 -16q-49 0 -88.5 8.5t-67.5 24t-43.5 36.5t-15.5 45q0 33 21 53t50 20q43 0 63.5 -32.5t9.5 -84.5q16 -11 33.5 -16.5t38.5 -5.5q54 0 89 32t35 91q0 64 -54 105t-180 55v34q60 21 100 40.5t64 39.5t34 40.5t10 44.5
q0 38 -27.5 63.5t-84.5 25.5q-41 0 -76 -15.5t-79 -46.5l-21 23q42 54 99.5 91t131.5 37q44 0 77.5 -11.5t56.5 -31t35 -45.5t12 -54q0 -60 -39.5 -99t-111.5 -68v-12q81 -17 129 -58.5t48 -115.5z" />
    <glyph glyph-name="four" unicode="4" horiz-adv-x="634" 
d="M465 191v-119l114 -39v-33h-356v33l117 39v119h-298l-10 42l323 457l110 -7v-413h120v-79h-120zM341 553h-15l-199 -283h214v283z" />
    <glyph glyph-name="five" unicode="5" horiz-adv-x="573" 
d="M512 215q0 -49 -19.5 -91.5t-53.5 -73.5t-80 -49t-100 -18q-46 0 -84 8.5t-65.5 24t-43 36.5t-15.5 46q0 32 19 52t48 20q42 0 62 -31.5t12 -82.5q17 -12 34.5 -18.5t40.5 -6.5q56 0 93 37.5t37 105.5q0 71 -45 108.5t-124 37.5q-32 0 -58 -4.5t-58 -14.5l-24 13l38 359
h292l46 56l28 -7l-20 -164h-301l-15 -134l6 -4q21 5 44 7t52 2q64 0 112 -15t79.5 -43t47 -67.5t15.5 -88.5z" />
    <glyph glyph-name="six" unicode="6" horiz-adv-x="610" 
d="M557 237q0 -57 -19 -104t-53 -80t-80.5 -51.5t-101.5 -18.5q-52 0 -97.5 16t-79 49t-53 82.5t-19.5 115.5q0 85 32.5 163.5t101.5 144.5q60 59 130.5 93.5t160.5 55.5l9 -36q-51 -23 -90 -47.5t-76 -58.5q-39 -37 -63.5 -73.5t-46.5 -85.5l10 -4q29 20 65 32t72 12
q49 0 86 -16.5t62 -44.5t37.5 -65t12.5 -79zM424 194q0 85 -33.5 132t-99.5 47q-25 0 -45 -6t-41 -17q-7 -22 -11 -49.5t-4 -57.5q0 -46 8.5 -85t24.5 -68t39.5 -45.5t52.5 -16.5q51 0 80 45.5t29 120.5z" />
    <glyph glyph-name="seven" unicode="7" horiz-adv-x="546" 
d="M143 557l-60 -76l-27 6l30 219l26 7l27 -40h377l14 -17l-313 -673h-124l160 269l171 305h-281z" />
    <glyph glyph-name="eight" unicode="8" horiz-adv-x="599" 
d="M347 388q33 34 51.5 67.5t18.5 78.5q0 51 -29.5 82.5t-84.5 31.5q-48 0 -77.5 -30.5t-29.5 -75.5q0 -25 8 -45t25.5 -38t46.5 -35t71 -36zM247 313q-35 -32 -54.5 -68.5t-19.5 -82.5q0 -63 37 -100t97 -37q25 0 45.5 8.5t35.5 24t23.5 36t8.5 44.5q0 27 -8.5 49t-28.5 43
t-53.5 41t-82.5 42zM388 370q85 -41 119.5 -87t34.5 -105q0 -43 -19 -79t-52 -61.5t-78 -40t-97 -14.5q-53 0 -96.5 13.5t-74.5 36.5t-47.5 54t-16.5 66q0 62 41.5 105t109.5 70q-58 28 -95 68t-37 105q0 40 17 74.5t48 60t72.5 40.5t91.5 15t90 -12t67.5 -33t42 -49.5
t14.5 -61.5q0 -54 -35.5 -96t-99.5 -69z" />
    <glyph glyph-name="nine" unicode="9" horiz-adv-x="610" 
d="M557 428q0 -92 -33 -167t-100 -139q-62 -60 -136 -95.5t-162 -55.5l-9 36q51 23 93.5 48.5t77.5 57.5q20 18 35.5 35.5t28 35.5t23 38t21.5 45l-9 4q-29 -20 -65.5 -32t-71.5 -12q-49 0 -85.5 16.5t-61 45t-37 66t-12.5 80.5q0 58 18.5 105.5t51.5 81t79.5 51.5t102.5 18
q52 0 98 -17t80 -50t53.5 -82t19.5 -114zM420 432q0 47 -8.5 86.5t-24.5 68t-39.5 44t-53.5 15.5q-51 0 -79 -44.5t-28 -124.5q0 -87 32.5 -134.5t98.5 -47.5q25 0 45.5 6t42.5 17q6 23 10 52.5t4 61.5z" />
    <glyph glyph-name="period" unicode="." horiz-adv-x="277" 
d="M224 67q0 -18 -7 -33.5t-18.5 -27t-27 -18t-32.5 -6.5q-35 0 -60 25t-25 60q0 17 6.5 32.5t18 27t27 18t33.5 6.5q35 0 60 -24.5t25 -59.5z" />
    <glyph glyph-name="comma" unicode="," horiz-adv-x="277" 
d="M227 45q0 -72 -47.5 -134.5t-131.5 -110.5l-22 25q54 45 84.5 87.5t37.5 80.5l-8 6l-4 -1q-11 -4 -22 -4q-27 0 -44 21t-17 50q0 34 23.5 60t57.5 26q44 0 68.5 -28t24.5 -78z" />
    <glyph glyph-name="colon" unicode=":" horiz-adv-x="289" 
d="M228 384q0 -35 -24.5 -59t-58.5 -24q-18 0 -33 6.5t-26.5 17.5t-18 26.5t-6.5 32.5t6.5 32.5t18 27t26.5 18t33 6.5q34 0 58.5 -24.5t24.5 -59.5zM228 66q0 -35 -24.5 -59.5t-58.5 -24.5q-18 0 -33 6.5t-26.5 18t-18 27t-6.5 32.5t6.5 32t18 26.5t26.5 18t33 6.5
q34 0 58.5 -24.5t24.5 -58.5z" />
    <glyph glyph-name="semicolon" unicode=";" horiz-adv-x="289" 
d="M230 384q0 -35 -24.5 -59t-59.5 -24t-59 24t-24 59t24 59.5t59 24.5t59.5 -24.5t24.5 -59.5zM230 45q0 -72 -48 -134.5t-131 -110.5l-22 25q54 45 84.5 87.5t37.5 80.5l-8 6l-5 -1q-9 -4 -21 -4q-27 0 -44 21t-17 50q0 34 23 60t58 26q43 0 68 -28t25 -78z" />
    <glyph glyph-name="ellipsis" unicode="&#x2026;" horiz-adv-x="802" 
d="M748 65q0 -34 -24.5 -58.5t-58.5 -24.5q-35 0 -59.5 24.5t-24.5 58.5t24.5 58.5t59.5 24.5q34 0 58.5 -24.5t24.5 -58.5zM484 65q0 -34 -24.5 -58.5t-58.5 -24.5q-35 0 -59 24.5t-24 58.5t24 58.5t59 24.5q34 0 58.5 -24.5t24.5 -58.5zM220 65q0 -34 -24 -58.5t-59 -24.5
t-59 24.5t-24 58.5t24 58.5t59 24.5t59 -24.5t24 -58.5z" />
    <glyph glyph-name="periodcentered" unicode="&#xb7;" horiz-adv-x="277" 
d="M224 356q0 -35 -25 -59.5t-60 -24.5q-18 0 -33.5 6.5t-27 18t-18 27t-6.5 32.5q0 35 25 60t60 25q17 0 32.5 -6.5t27 -18t18.5 -27t7 -33.5z" />
    <glyph glyph-name="bullet" unicode="&#x2022;" horiz-adv-x="553" 
d="M446 351q0 -36 -13.5 -67t-36.5 -54.5t-54 -37t-67 -13.5q-35 0 -66.5 13.5t-54.5 37t-36.5 54.5t-13.5 67q0 35 13.5 66t36.5 54t54.5 36.5t66.5 13.5q36 0 67 -13.5t54 -36.5t36.5 -54t13.5 -66z" />
    <glyph glyph-name="ampersand" unicode="&#x26;" horiz-adv-x="793" 
d="M777 358l-70 -27l-158 -182q22 -28 39 -46t34 -28t35 -14t42 -4q18 0 30.5 0.5t24.5 1.5l4 -28q-32 -20 -70.5 -34t-81.5 -14q-24 0 -44 4.5t-38.5 15t-36.5 27.5t-37 42q-51 -45 -96.5 -67t-103.5 -22q-45 0 -84 14t-68 38.5t-45.5 58.5t-16.5 75q0 70 40 115.5
t104 76.5l34 16q-28 38 -44 74.5t-16 72.5q0 37 15.5 68t42 53t63 34t78.5 12t75 -11t55 -29.5t33.5 -43t11.5 -52.5q0 -46 -31 -83.5t-94 -74.5l-29 -17l148 -195l94 144l-62 31v26h223v-28zM421 556q0 42 -19.5 67t-54.5 25q-32 0 -53.5 -21.5t-21.5 -61.5q0 -26 12 -53.5
t41 -65.5l28 -37q35 38 51.5 72.5t16.5 74.5zM239 347l-18 -16q-29 -28 -44.5 -58t-15.5 -66q0 -30 11.5 -55.5t31.5 -43.5t47 -28.5t59 -10.5t57.5 8.5t54.5 28.5z" />
    <glyph glyph-name="exclam" unicode="!" horiz-adv-x="325" 
d="M245 628q0 -23 -5.5 -65.5t-14.5 -96.5t-20.5 -116.5t-22.5 -126.5h-38q-11 64 -22 126.5t-20 116.5t-15 96.5t-6 65.5q0 42 21.5 65.5t60.5 23.5q40 0 61 -23.5t21 -65.5zM247 62q0 -34 -25 -56.5t-60 -22.5q-34 0 -59 22.5t-25 56.5q0 35 25 56.5t59 21.5
q35 0 60 -21.5t25 -56.5z" />
    <glyph glyph-name="exclamdown" unicode="&#xa1;" horiz-adv-x="325" 
d="M247 379q0 -35 -25 -56.5t-60 -21.5q-34 0 -59 21.5t-25 56.5t25 57t59 22q35 0 60 -22t25 -57zM181 218q11 -64 22 -126.5t20 -116.5t15 -96.5t6 -65.5q0 -41 -21.5 -65t-60.5 -24q-40 0 -61 24t-21 65q0 23 5.5 65.5t14.5 96.5t20.5 116.5t22.5 126.5h38z" />
    <glyph glyph-name="question" unicode="?" horiz-adv-x="505" 
d="M467 534q0 -34 -10 -60t-28 -46.5t-41.5 -37t-50.5 -30.5q-35 -20 -55.5 -35t-29.5 -29.5t-9.5 -31.5t4.5 -41h-49q-23 38 -32 63t-9 45q0 37 25.5 64t67.5 53q43 26 67 51.5t24 69.5q0 46 -28.5 72.5t-75.5 26.5q-20 0 -34 -4.5t-25 -12.5q14 -26 14 -56
q0 -33 -20.5 -55.5t-52.5 -22.5t-54.5 22t-22.5 55q0 25 14 47.5t40 39.5t63 26.5t83 9.5q48 0 89 -13.5t71 -38t47.5 -58t17.5 -73.5zM308 62q0 -34 -25 -56.5t-60 -22.5q-34 0 -59 22.5t-25 56.5q0 35 25 56.5t59 21.5q35 0 60 -21.5t25 -56.5z" />
    <glyph glyph-name="questiondown" unicode="&#xbf;" horiz-adv-x="485" 
d="M35 -93q0 34 10 60t27.5 46.5t41.5 37t51 30.5q35 20 55.5 35t29.5 29.5t9 31.5t-4 41h49q23 -38 31.5 -63t8.5 -44q0 -38 -25.5 -64.5t-67.5 -53.5q-42 -26 -66 -51.5t-24 -69.5q0 -46 28 -72.5t75 -26.5q20 0 34 4.5t25 12.5q-13 28 -13 56q0 33 20 55.5t52 22.5
t54.5 -22t22.5 -55q0 -26 -14 -48t-40 -39t-62.5 -26.5t-82.5 -9.5q-48 0 -89 13.5t-71.5 38t-47.5 58t-17 73.5zM194 379q0 35 24.5 57t59.5 22t59.5 -22t24.5 -57t-24.5 -56.5t-59.5 -21.5t-59.5 21.5t-24.5 56.5z" />
    <glyph glyph-name="quotedblleft" unicode="&#x201c;" horiz-adv-x="522" 
d="M465 473q0 -34 -23 -60t-58 -26q-43 0 -68 28t-25 78q0 72 48 134.5t131 110.5l22 -25q-53 -45 -83.5 -87.5t-37.5 -80.5l8 -6l4 1q9 4 21 4q28 0 44.5 -21t16.5 -50zM221 473q0 -34 -23 -60t-58 -26q-43 0 -68 28t-25 78q0 72 48 134.5t131 110.5l22 -25
q-53 -45 -83.5 -87.5t-37.5 -80.5l7 -6l5 1q9 4 21 4q28 0 44.5 -21t16.5 -50z" />
    <glyph glyph-name="quotedblright" unicode="&#x201d;" horiz-adv-x="522" 
d="M474 624q0 -72 -47.5 -134.5t-131.5 -110.5l-22 25q54 45 84.5 87.5t37.5 80.5l-8 6l-4 -1q-11 -4 -22 -4q-27 0 -44 21t-17 50q0 34 23.5 60t57.5 26q44 0 68.5 -28t24.5 -78zM230 624q0 -72 -48 -134.5t-131 -110.5l-22 25q54 45 84.5 87.5t37.5 80.5l-8 6l-5 -1
q-9 -4 -21 -4q-27 0 -44 21t-17 50q0 34 23 60t58 26q43 0 68 -28t25 -78z" />
    <glyph glyph-name="quoteleft" unicode="&#x2018;" horiz-adv-x="277" 
d="M221 473q0 -34 -23 -60t-58 -26q-43 0 -68 28t-25 78q0 72 48 134.5t131 110.5l22 -25q-53 -45 -83.5 -87.5t-37.5 -80.5l7 -6l5 1q9 4 21 4q28 0 44.5 -21t16.5 -50z" />
    <glyph glyph-name="quoteright" unicode="&#x2019;" horiz-adv-x="277" 
d="M230 624q0 -72 -48 -134.5t-131 -110.5l-22 25q54 45 84.5 87.5t37.5 80.5l-8 6l-5 -1q-9 -4 -21 -4q-27 0 -44 21t-17 50q0 34 23 60t58 26q43 0 68 -28t25 -78z" />
    <glyph glyph-name="quotedblbase" unicode="&#x201e;" horiz-adv-x="508" 
d="M472 45q0 -72 -48 -134.5t-132 -110.5l-21 25q53 45 83.5 87.5t37.5 80.5l-8 6l-4 -1q-11 -4 -22 -4q-27 0 -44 21t-17 50q0 34 23.5 60t58.5 26q43 0 68 -28t25 -78zM227 45q0 -72 -47.5 -134.5t-131.5 -110.5l-22 25q54 45 84.5 87.5t37.5 80.5l-8 6l-4 -1
q-11 -4 -22 -4q-27 0 -44 21t-17 50q0 34 23.5 60t57.5 26q44 0 68.5 -28t24.5 -78z" />
    <glyph glyph-name="quotesinglbase" unicode="&#x201a;" horiz-adv-x="277" 
d="M227 45q0 -72 -47.5 -134.5t-131.5 -110.5l-22 25q54 45 84.5 87.5t37.5 80.5l-8 6l-4 -1q-11 -4 -22 -4q-27 0 -44 21t-17 50q0 34 23.5 60t57.5 26q44 0 68.5 -28t24.5 -78z" />
    <glyph glyph-name="guillemotleft" unicode="&#xab;" horiz-adv-x="598" 
d="M535 50l-31 -22l-223 210v26l223 210l31 -24l-118 -199zM296 50l-31 -22l-223 210v26l223 210l31 -24l-118 -199z" />
    <glyph glyph-name="guillemotright" unicode="&#xbb;" horiz-adv-x="598" 
d="M333 28l-32 23l119 200l-119 200l32 23l223 -210v-26zM94 28l-32 23l119 200l-119 200l32 23l222 -210v-26z" />
    <glyph glyph-name="guilsinglleft" unicode="&#x2039;" horiz-adv-x="359" 
d="M296 50l-31 -22l-223 210v26l223 210l31 -24l-118 -199z" />
    <glyph glyph-name="guilsinglright" unicode="&#x203a;" horiz-adv-x="359" 
d="M316 238l-222 -210l-32 23l119 200l-119 200l32 23l222 -210v-26z" />
    <glyph glyph-name="hyphen" unicode="-" horiz-adv-x="412" 
d="M56 215v102h300v-102h-300z" />
    <glyph glyph-name="endash" unicode="&#x2013;" horiz-adv-x="609" 
d="M56 243v73h497v-73h-497z" />
    <glyph glyph-name="emdash" unicode="&#x2014;" horiz-adv-x="889" 
d="M56 243v73h777v-73h-777z" />
    <glyph glyph-name="underscore" unicode="_" horiz-adv-x="501" 
d="M499 0h-497v57h497v-57z" />
    <glyph glyph-name="slash" unicode="/" horiz-adv-x="469" 
d="M255 288l-221 -524l-62 24l229 518l221 524l63 -24z" />
    <glyph glyph-name="backslash" unicode="\" horiz-adv-x="469" 
d="M268 306l229 -518l-62 -24l-222 524l-229 518l63 24z" />
    <glyph glyph-name="bar" unicode="|" horiz-adv-x="341" 
d="M136 -270l4 528l-4 527h69l-4 -527l4 -528h-69z" />
    <glyph glyph-name="brokenbar" unicode="&#xa6;" horiz-adv-x="341" 
d="M136 329l4 228l-4 228h69l-4 -228l4 -228h-69zM136 -270l4 228l-4 228h69l-4 -228l4 -228h-69z" />
    <glyph glyph-name="parenleft" unicode="(" horiz-adv-x="422" 
d="M190 316q0 -177 64 -299.5t181 -182.5l-15 -32q-71 27 -135 73t-113 110.5t-77.5 147.5t-28.5 183t28.5 183t77.5 147.5t113 110.5t135 73l15 -33q-117 -59 -181 -181.5t-64 -299.5z" />
    <glyph glyph-name="parenright" unicode=")" horiz-adv-x="422" 
d="M356 316q0 -100 -29 -183t-77.5 -147.5t-113 -110.5t-134.5 -73l-15 32q117 60 181 182.5t64 299.5t-64 299.5t-181 181.5l15 33q70 -27 134.5 -73t113 -110.5t77.5 -147.5t29 -183z" />
    <glyph glyph-name="bracketleft" unicode="[" horiz-adv-x="402" 
d="M229 783v-933h193v-47h-309v1027h309v-47h-193z" />
    <glyph glyph-name="bracketright" unicode="]" horiz-adv-x="402" 
d="M-20 783v47h309v-1027h-309v47h193v933h-193z" />
    <glyph glyph-name="braceleft" unicode="{" horiz-adv-x="452" 
d="M300 512q0 -47 -9.5 -79.5t-29 -53.5t-48.5 -33.5t-67 -20.5v-12q38 -8 67 -20t48.5 -33t29 -53.5t9.5 -79.5v-102q0 -47 7.5 -78t25.5 -51.5t48 -32t75 -20.5v-37q-77 3 -130.5 16t-87 39t-48.5 67.5t-15 102.5v111q0 40 -7.5 67t-25 45t-45.5 27.5t-69 14.5v47
q41 5 69 14.5t45.5 27.5t25 45t7.5 67v108q0 61 15 102t48.5 67.5t87 39t130.5 16.5v-38q-45 -8 -75 -20t-48 -32t-25.5 -51.5t-7.5 -78.5v-98v0z" />
    <glyph glyph-name="braceright" unicode="}" horiz-adv-x="452" 
d="M277 497q0 -40 7.5 -67t25 -45t46 -27.5t69.5 -14.5v-47q-41 -5 -69.5 -14.5t-46 -27.5t-25 -45t-7.5 -67v-111q0 -61 -15 -102.5t-48.5 -67.5t-87 -39t-130.5 -16v37q45 9 75 20.5t48 32t25.5 51.5t7.5 78v102q0 47 9.5 79.5t29 53.5t48.5 33t67 20v12q-38 8 -67 20.5
t-48.5 33.5t-29 53.5t-9.5 79.5v98q0 47 -7.5 78.5t-25.5 51.5t-48 32t-75 20v38q77 -4 130.5 -16.5t87 -39t48.5 -67.5t15 -102v-108v0z" />
    <glyph glyph-name="at" unicode="@" horiz-adv-x="1041" 
d="M906 351q0 69 -26.5 129.5t-75 106t-116 71.5t-149.5 26q-83 0 -155.5 -30.5t-126.5 -86.5t-85 -134.5t-31 -174.5q0 -86 29 -159.5t83.5 -126.5t132.5 -83t175 -30q79 0 144.5 20.5t125.5 53.5l17 -24q-60 -48 -142 -78t-178 -30q-95 0 -180.5 29.5t-149.5 86
t-101.5 139.5t-37.5 190q0 100 40 188.5t110 154t163 103.5t200 38q89 0 164 -29t130 -78t85.5 -114.5t30.5 -137.5q0 -71 -22 -130.5t-59 -102t-86 -66.5t-102 -24q-59 0 -95 22t-47 64l-11 2q-38 -41 -71 -61.5t-74 -20.5q-50 0 -82 33.5t-32 92.5q0 64 27 121.5t68 100.5
t90.5 68.5t93.5 25.5q29 0 48 -6.5t40 -17.5l49 44l23 -8l-64 -293q-13 -55 1 -89t56 -34q33 0 64.5 18t55.5 51.5t38.5 81.5t14.5 108zM614 395q-17 22 -35.5 34t-38.5 12q-27 0 -50.5 -22.5t-41.5 -56.5t-28.5 -74t-10.5 -74q0 -45 17.5 -64t43.5 -19q20 0 42 11.5
t55 40.5z" />
    <glyph glyph-name="copyright" unicode="&#xa9;" horiz-adv-x="875" 
d="M823 351q0 -80 -30.5 -150t-83 -122.5t-122.5 -83t-150 -30.5t-150 30.5t-122.5 83t-83 122.5t-30.5 150t30.5 150t83 122.5t122.5 82.5t150 30t150 -30t122.5 -82.5t83 -122.5t30.5 -150zM783 351q0 72 -27 135.5t-74 111t-110 75t-135 27.5q-71 0 -134 -27.5t-110 -75
t-74.5 -111t-27.5 -135.5t27.5 -135.5t74.5 -111.5t110 -75.5t134 -27.5q72 0 135 27.5t110 75.5t74 111.5t27 135.5zM338 359q0 -85 37.5 -128t94.5 -43q12 0 20.5 1t17.5 4l69 95l23 -4l-12 -112q-30 -13 -62.5 -20t-72.5 -7q-50 0 -90.5 13.5t-70 39.5t-45.5 64t-16 86
q0 43 16 82t45 67.5t69.5 45.5t89.5 17q25 0 49.5 -5t43.5 -13l16 23h26l8 -157l-29 -2q-29 65 -57.5 89.5t-66.5 24.5q-20 0 -39 -9t-33 -28t-22.5 -50t-8.5 -74z" />
    <glyph glyph-name="published" unicode="&#x2117;" horiz-adv-x="875" 
d="M823 351q0 -80 -30.5 -150t-83 -122.5t-122.5 -83t-150 -30.5t-150 30.5t-122.5 83t-83 122.5t-30.5 150t30.5 150t83 122.5t122.5 82.5t150 30t150 -30t122.5 -82.5t83 -122.5t30.5 -150zM783 351q0 72 -27 135.5t-74 111t-110 75t-135 27.5q-71 0 -134 -27.5t-110 -75
t-74.5 -111t-27.5 -135.5t27.5 -135.5t74.5 -111.5t110 -75.5t134 -27.5q72 0 135 27.5t110 75.5t74 111.5t27 135.5zM628 432q0 -55 -40 -89t-109 -34q-14 0 -31 1t-30 3v-123l59 -15v-25h-208v25l55 15v322l-55 14v24h201q76 0 117 -32.5t41 -85.5zM529 432q0 42 -21.5 62
t-58.5 22h-31v-172q2 -1 14 -1h16q39 1 60 22.5t21 66.5z" />
    <glyph glyph-name="registered.alt" horiz-adv-x="875" 
d="M823 351q0 -80 -30.5 -150t-83 -122.5t-122.5 -83t-150 -30.5t-150 30.5t-122.5 83t-83 122.5t-30.5 150t30.5 150t83 122.5t122.5 82.5t150 30t150 -30t122.5 -82.5t83 -122.5t30.5 -150zM783 351q0 72 -27 135.5t-74 111t-110 75t-135 27.5q-71 0 -134 -27.5t-110 -75
t-74.5 -111t-27.5 -135.5t27.5 -135.5t74.5 -111.5t110 -75.5t134 -27.5q72 0 135 27.5t110 75.5t74 111.5t27 135.5zM611 458q0 -35 -27 -63t-90 -38v-10q39 -7 58.5 -24.5t30.5 -45.5q10 -26 19.5 -43.5t20.5 -28.5q15 -18 40 -21v-24h-78q-18 0 -30 3.5t-21 12t-16 21.5
t-15 32l-24 58q-11 27 -27.5 35.5t-41.5 8.5h-17v-133l54 -14v-24h-202v24l54 14v322l-54 14v25h222q70 0 107 -28t37 -73zM514 445q0 39 -23.5 58.5t-59.5 20.5h-7.5h-12h-12h-6.5v-161l39 2q35 2 58.5 21t23.5 59z" />
    <glyph glyph-name="registered" unicode="&#xae;" horiz-adv-x="476" 
d="M334 590q0 -22 -14.5 -35.5t-47.5 -19.5v-9q23 -3 33.5 -10t15.5 -24q5 -14 9 -23t9 -14q9 -9 26 -10v-16h-47q-21 0 -29 8t-16 30l-12 31q-5 13 -12.5 17.5t-21.5 4.5h-14v-66l34 -9v-16h-120v16l35 9v165l-35 8v17h126q41 0 61 -15t20 -39zM280 583q0 20 -12 28.5
t-34 10.5h-21v-80h24q20 0 31.5 10.5t11.5 30.5zM238 323q-45 0 -83.5 15.5t-66.5 43t-44 66t-16 84.5t16 84.5t44 66.5t66.5 43.5t83.5 15.5q46 0 84.5 -15.5t66.5 -43.5t44 -66.5t16 -84.5t-16 -84.5t-44 -66t-66.5 -43t-84.5 -15.5zM238 347q40 0 74 13.5t58.5 38.5
t38 58.5t13.5 74.5q0 40 -13.5 74.5t-38 59t-58.5 38.5t-74 14t-74 -14t-58.5 -38.5t-38 -59t-13.5 -74.5q0 -41 13.5 -74.5t38 -58.5t58.5 -38.5t74 -13.5z" />
    <glyph glyph-name="servicemark" unicode="&#x2120;" horiz-adv-x="924" 
d="M329 487q0 -24 -10.5 -43.5t-28 -33t-40 -21t-47.5 -7.5q-26 0 -53.5 6t-47.5 15l-15 -24h-22l-4 123l24 2q31 -51 59 -71.5t58 -20.5q26 0 42.5 11.5t16.5 34.5q0 26 -22 37.5t-62 23.5q-20 6 -39.5 13t-34.5 18.5t-24 28t-9 40.5q0 23 10 42t26 32.5t36.5 21t42.5 7.5
q47 0 85 -19l15 24h21l7 -112l-24 -2q-32 47 -56 63.5t-47 16.5t-36 -12.5t-13 -29.5q0 -26 22.5 -37.5t62.5 -24.5q22 -7 41.5 -14.5t34 -19t23 -28t8.5 -40.5zM827 432l49 -16v-24h-171v24l40 16v242h-10l-103 -282h-53l-100 282h-11v-239l38 -19v-24h-124v24l43 19v236
l-43 17v25h167l17 -56l58 -174h7l61 177l16 53h168v-25l-49 -14v-242z" />
    <glyph glyph-name="trademark" unicode="&#x2122;" horiz-adv-x="971" 
d="M874 432l50 -16v-24h-172v24l40 16v242h-10l-103 -282h-53l-100 282h-11v-239l38 -19v-24h-124v24l43 19v236l-43 17v25h167l17 -56l59 -174h6l61 177l16 53h169v-25l-50 -14v-242zM372 598l-36 49q-15 21 -24.5 28.5t-26.5 7.5h-23v-251l52 -16v-24h-184v24l52 16v251
h-26q-18 0 -27 -7.5t-25 -28.5l-36 -49l-20 3l14 112h316l15 -112z" />
    <glyph glyph-name="asterisk" unicode="*" horiz-adv-x="495" 
d="M81 654l140 -103l10 5l-20 171h74l-21 -171l10 -5l140 103l32 -63l-155 -69v-11l155 -69l-32 -63l-140 103l-10 -4l21 -172h-74l20 172l-10 4l-140 -103l-32 63l155 69v11l-155 69z" />
    <glyph glyph-name="dagger" unicode="&#x2020;" horiz-adv-x="539" 
d="M295 444l6 -537h-63l6 537l-201 -6v59l201 -6l-6 259h63l-6 -259l201 6v-59z" />
    <glyph glyph-name="daggerdbl" unicode="&#x2021;" horiz-adv-x="539" 
d="M295 161l6 -254h-63l6 254l-201 -5v57l201 -6v243l-201 -5v57l201 -6l-6 254h63l-6 -254l201 6v-57l-201 5v-243l201 6v-57z" />
    <glyph glyph-name="asciicircum" unicode="^" horiz-adv-x="354" 
d="M44 578l-27 25l136 206h56l127 -206l-27 -25l-132 105z" />
    <glyph glyph-name="asciitilde" unicode="~" horiz-adv-x="457" 
d="M152 435q23 0 46 -8.5t45 -19t41.5 -19t35.5 -8.5q17 0 27 14.5t25 50.5l40 -7q-11 -84 -34 -121.5t-71 -37.5q-23 0 -46 8.5t-44.5 19t-41 19t-35.5 8.5q-17 0 -27.5 -15t-25.5 -51l-40 7q11 84 34.5 122t70.5 38z" />
    <glyph glyph-name="dollar" unicode="$" horiz-adv-x="630" 
d="M560 196q0 -45 -17 -82.5t-49 -65.5t-78 -44t-103 -19l-10 -116l-57 4l9 112q-51 5 -93 14.5t-87 26.5l-10 192l31 3q17 -40 34.5 -71t37 -54.5t43 -38.5t53.5 -24l21 259q-53 18 -91 37t-63.5 41.5t-37.5 51t-12 66.5q0 42 17 78.5t48 63.5t75 43t98 18l8 100l57 -6
l-8 -96q44 -3 80.5 -10.5t70.5 -17.5l4 -170l-31 -5q-28 61 -56.5 99.5t-75.5 53.5l-18 -236q57 -20 97 -40.5t65 -45t36.5 -54.5t11.5 -67zM319 646q-53 -2 -89.5 -31t-36.5 -80q0 -42 25.5 -69t82.5 -47zM447 151q0 48 -27 76.5t-88 48.5l-19 -247q57 1 95.5 33.5
t38.5 88.5z" />
    <glyph glyph-name="sterling" unicode="&#xa3;" horiz-adv-x="635" 
d="M491 312h-153q1 -5 1.5 -10.5t0.5 -11.5q0 -28 -6.5 -50.5t-20.5 -42t-35.5 -37.5t-51.5 -37l5 -12q27 3 54.5 1t55 -5t54 -6t50.5 -3q44 0 66 25.5t36 84.5l39 -1q-3 -50 -13.5 -91t-30 -70.5t-48 -46t-65.5 -16.5q-49 0 -107.5 25t-116.5 61q-20 -39 -48 -62.5
t-60 -23.5t-49.5 16.5t-17.5 42.5q0 35 34.5 60t105.5 23q20 29 29.5 60t9.5 59q0 18 -4 34.5t-10 33.5h-145v59h122q-9 23 -15.5 46.5t-6.5 50.5q0 49 22 90t58 70.5t83 46t97 16.5q44 0 73.5 -9t47.5 -22.5t26 -29.5t8 -29q0 -27 -17.5 -48.5t-49.5 -21.5
q-38 0 -66.5 29.5t-40.5 82.5q-49 -8 -76 -45t-27 -88q0 -43 12.5 -75t23.5 -64h167v-59z" />
    <glyph glyph-name="Euro" unicode="&#x20ac;" horiz-adv-x="675" 
d="M32 377v53h102q15 57 44.5 105t70.5 82.5t93 54t112 19.5q81 0 125.5 -27.5t44.5 -74.5q0 -30 -20.5 -49t-47.5 -19q-18 0 -34.5 6.5t-30 20.5t-22.5 37.5t-11 56.5q-5 2 -15 2q-27 -1 -56 -14t-54.5 -39t-45 -66t-27.5 -95h278v-53h-283q0 -7 -0.5 -13.5t-0.5 -14.5
q0 -12 1.5 -30.5t3.5 -34.5h279v-53h-267q25 -83 81 -121t127 -38q37 0 69.5 8t66.5 22l13 -24q-36 -42 -90.5 -68.5t-117.5 -26.5q-58 0 -107 17t-86.5 49t-63 78t-36.5 104h-95v53h89q-1 8 -1 15.5v15.5q0 16 1 31t3 31h-92z" />
    <glyph glyph-name="yen" unicode="&#xa5;" horiz-adv-x="731" 
d="M275 349l-166 258l-86 32v34h337v-34l-94 -25l136 -243l140 236l-79 32v34h244v-34l-86 -36l-172 -254h171v-49h-188v-84h188v-49h-188v-106l113 -27v-34h-361v34l112 27v106h-187v49h187v84h-187v49h166z" />
    <glyph glyph-name="cent" unicode="&#xa2;" horiz-adv-x="553" 
d="M299 67q24 -6 52 -6q33 0 67.5 11.5t70.5 28.5l14 -24q-44 -44 -94 -68t-112 -26l-8 -108l-48 4l8 108q-43 8 -80 29t-64 52.5t-42 72.5t-15 89q0 49 17 94.5t48.5 81.5t74.5 60.5t96 31.5l7 98l47 -4l-6 -91q37 -1 69.5 -11t56.5 -26t37.5 -37t13.5 -43q0 -29 -17 -47.5
t-45 -18.5q-39 0 -57 35t-9 93q-10 5 -26 8t-29 3l-16 -212zM171 250q0 -63 23.5 -104.5t63.5 -62.5l12 165l13 200q-55 -17 -83.5 -71t-28.5 -127z" />
    <glyph glyph-name="baht" unicode="&#xe3f;" horiz-adv-x="657" 
d="M403 829l59 -9l-25 -135q77 -14 112.5 -55t35.5 -92q0 -63 -39 -104t-120 -60v-14q95 -13 143 -55.5t48 -111.5q0 -41 -15.5 -76.5t-44.5 -61.5t-72 -40.5t-97 -14.5h-57l-20 -151l-58 9l25 142h-243v34l105 22v579l-105 23v34h326q6 0 12 -0.5t12 -0.5zM474 189
q0 145 -151 148l-52 1v-288q11 -2 29.5 -4.5t34.5 -2.5q66 0 102.5 35.5t36.5 110.5zM329 383q60 2 92.5 35.5t32.5 100.5q0 36 -10.5 60.5t-28 39.5t-41 21.5t-49.5 6.5q-11 0 -29 -0.5t-25 -1.5v-263z" />
    <glyph glyph-name="colonmonetary" unicode="&#x20a1;" horiz-adv-x="580" 
d="M223 1q-80 28 -128 107.5t-48 212.5q0 83 23 150.5t62 117t90.5 79.5t109.5 38l16 107l52 -7l-14 -99q22 0 40 -3t35 -8l15 106l53 -8l-17 -120q23 -14 33.5 -35t10.5 -44q0 -29 -20 -51t-52 -19l-30 -186l-37 -261q29 6 58.5 20t58.5 37l21 -20q-26 -44 -65 -73.5
t-84 -44.5l-19 -134l-53 8l17 114q-6 -1 -12 -1.5t-12 -0.5q-14 0 -27 1.5t-25 3.5l-17 -113l-53 7zM326 351l-38 -263q34 -15 82 -14l42 271l29 198q-17 15 -29 44.5t-15 75.5q-10 3 -23 1zM283 356l44 303q-33 -9 -60.5 -37.5t-47 -72t-30.5 -99.5t-11 -122
q0 -102 18.5 -156t47.5 -74z" />
    <glyph glyph-name="florin" unicode="&#x192;" horiz-adv-x="581" 
d="M578 620q0 -26 -19 -45.5t-50 -19.5q-29 0 -57 17.5t-46 62.5q-16 -10 -29 -24.5t-24 -38.5t-21 -58.5t-19 -84.5l-10 -48h131l-15 -60h-127l-39 -185q-12 -57 -24.5 -100t-29 -77t-37.5 -60.5t-49 -50.5q-30 -25 -65.5 -38.5t-69.5 -13.5q-47 0 -73.5 19t-26.5 49
q0 26 18.5 45t50.5 19q29 0 56.5 -18t47.5 -53q9 9 17 21.5t15.5 32.5t15.5 48.5t16 69.5l59 292h-115l8 33l121 37l4 14q10 43 23.5 79t31 65t40.5 53t52 44q31 21 66 33t70 12q48 0 75.5 -19.5t27.5 -51.5z" />
    <glyph glyph-name="naira" unicode="&#x20a6;" horiz-adv-x="856" 
d="M627 492v132l-99 34v34h263v-34l-95 -34v-136h137v-51h-137v-129h137v-51h-137v-262h-137l-133 254h-182v-181l100 -34v-34h-264v34l95 34v184h-148v51h148v129h-148v51h148v142l-92 32v35h261l103 -200h180zM261 576h-17v-281h161zM614 157h13v289h-159z" />
    <glyph glyph-name="peso" unicode="&#x20b1;" horiz-adv-x="732" 
d="M288 455v-145q8 -2 27 -2.5t31 -0.5q64 1 101 34.5t41 113.5h-200zM487 499q-5 78 -41.5 110.5t-99.5 34.5h-13.5h-17t-16 -0.5t-11.5 -1.5v-143h199zM155 635l-107 23v34h323q112 0 179.5 -48.5t75.5 -140.5h114v-51h-114q-4 -45 -23 -81.5t-49.5 -62t-71.5 -39
t-90 -13.5q-25 0 -50.5 2t-50.5 5v-207l117 -22v-34h-360v34l107 23v395h-149v51h149v132z" />
    <glyph glyph-name="R_p" horiz-adv-x="1238" 
d="M605 0q-30 0 -51.5 7t-37.5 21.5t-28.5 37t-25.5 52.5l-49 112q-20 48 -45 63t-69 15h-28v-252l99 -22v-34h-336v34l106 22v579l-106 23v34h345q112 0 173 -46.5t61 -127.5q0 -65 -46 -111t-137 -65v-14q56 -12 87.5 -42t51.5 -80q20 -47 37 -79.5t33 -50.5
q16 -17 35 -26.5t55 -14.5v349l-63 36v29l167 45l17 -11l-7 -70l12 -3q34 37 71 59.5t82 22.5q37 0 70 -16.5t58 -46t39 -70.5t14 -90q0 -53 -17.5 -102.5t-51 -88t-82 -61.5t-109.5 -23q-20 0 -39 2.5t-36 5.5v-132l82 -26v-31h-276v31l69 26v130h-124zM472 503
q0 73 -38 105t-102 34h-14.5t-17.5 -0.5t-17 -1t-12 -0.5v-282h61q62 1 101 36t39 109zM1061 231q0 88 -33.5 131t-90.5 43q-21 0 -41.5 -8t-41.5 -20v-288q20 -23 44 -35.5t53 -12.5q22 0 42 10.5t35 33t24 59t9 87.5z" />
    <glyph glyph-name="rupee" unicode="&#x20a8;" horiz-adv-x="1130" 
d="M595 0q-32 0 -53 7t-36.5 21.5t-27.5 37t-25 53.5l-47 113q-10 24 -20.5 39t-23 24t-28 12t-36.5 3h-26v-254l96 -22v-34h-333v34l105 22v579l-105 23v34h347q114 0 175.5 -46.5t61.5 -126.5q0 -65 -46 -111.5t-140 -63.5v-15q51 -13 81 -43t48 -78q25 -56 39.5 -84.5
t27.5 -45.5q13 -18 30.5 -28t43.5 -15v-35h-108zM1102 151q0 -38 -15 -68.5t-42 -52t-64 -33.5t-81 -12q-51 0 -91 7t-80 22l-1 147l32 2q20 -38 38 -64t36.5 -42t38.5 -22.5t44 -6.5q41 0 61 19.5t20 50.5q0 34 -30.5 52.5t-92.5 40.5q-29 10 -56 22.5t-48 29.5t-33.5 40
t-12.5 55q0 31 13.5 59.5t38.5 49.5t61 33.5t82 12.5q50 0 86.5 -7t62.5 -15l3 -132l-30 -5q-19 32 -35.5 54.5t-32.5 36.5t-33.5 20.5t-37.5 6.5q-38 0 -57.5 -20t-19.5 -48q0 -32 28.5 -48t85.5 -36q34 -12 63.5 -25t51.5 -30t34.5 -40t12.5 -54zM478 504q0 72 -39.5 104
t-106.5 34h-30.5t-29.5 -2v-281l59 1q66 1 106.5 36t40.5 108z" />
    <glyph glyph-name="won" unicode="&#x20a9;" horiz-adv-x="1152" 
d="M418 106h13l71 208h-136zM802 107h13l52 207h-119zM918 518l27 106l-81 37v31h233v-34l-85 -39l-29 -99h119v-51h-133l-31 -109h164v-51h-178l-89 -314h-129l-113 405h-7l-138 -405h-127l-85 314h-190v51h176l-30 109h-146v51h132l-30 110l-93 28v34h313v-31l-81 -23
l30 -120h244l-32 115l-77 28v31h298v-31l-82 -26l30 -117h220zM709 471l28 -110h142l27 110h-197zM328 471l27 -110h163l37 110h-227z" />
    <glyph glyph-name="sheqel" unicode="&#x20aa;" horiz-adv-x="613" 
d="M548 0h-166q-54 0 -90 8t-57 26t-30 46.5t-9 69.5q0 38 7 81.5t20 88.5h35q0 -43 3 -72t7.5 -49t12 -32t16.5 -21q8 -8 19.5 -13t28.5 -9t41.5 -6.5t58.5 -4.5l46 -1v430l57 -8v-534zM65 539h166q54 0 90 -8t57 -26t30 -46.5t9 -69.5q0 -38 -7 -81.5t-20 -88.5h-35
q0 43 -3 72t-7.5 49t-12 32t-16.5 21q-15 15 -48 22t-100 11l-46 1v-427h-57v539z" />
    <glyph glyph-name="numbersign" unicode="#" horiz-adv-x="703" 
d="M517 425l-28 -93l-26 -94h136v-56h-151l-46 -163l-62 16l45 147h-153l-46 -163l-63 16l45 147h-112v56h128l31 105l22 82h-133v56h149l49 175l62 -16l-47 -159h153l49 175l62 -16l-47 -159h113v-56h-130zM300 425l-28 -93l-25 -94h154l31 105l22 82h-154z" />
    <glyph glyph-name="paragraph" unicode="&#xb6;" horiz-adv-x="724" 
d="M353 211q-64 1 -119 16t-95.5 43.5t-63.5 72t-23 102.5q0 55 21 98.5t60.5 73.5t96 46t127.5 16h336v-33l-108 -30v-726h-69v729h-94v-729h-69v321zM353 619q-78 0 -118.5 -43.5t-40.5 -123.5q0 -81 39 -126.5t120 -52.5v346z" />
    <glyph glyph-name="section" unicode="&#xa7;" horiz-adv-x="606" 
d="M540 199q0 -67 -21.5 -123.5t-59.5 -97t-92 -63.5t-118 -23q-87 0 -134 29.5t-47 74.5q0 30 20 49t46 19q33 0 53.5 -19.5t20.5 -52.5q0 -9 -2 -17t-5 -17q30 -20 73 -20q51 0 89 31.5t57 83.5q-85 23 -152 60t-113 86t-70.5 107.5t-24.5 124.5q0 67 21.5 123.5t59.5 97
t91.5 63.5t118.5 23q87 0 134 -29t47 -75q0 -30 -20 -48.5t-47 -18.5q-33 0 -53 19t-20 52q0 9 2 17.5t5 17.5q-31 19 -73 19q-51 0 -89 -31.5t-57 -83.5q85 -23 152 -60.5t113 -86t70.5 -107t24.5 -124.5zM165 486q0 -52 14.5 -103.5t46 -101t82 -97t122.5 -92.5q5 28 5 52
q0 52 -14.5 103.5t-46 101t-82 97t-122.5 92.5q-2 -13 -3.5 -25.5t-1.5 -26.5z" />
    <glyph glyph-name="ordfeminine" unicode="&#xaa;" horiz-adv-x="465" 
d="M74 622q0 22 17 39.5t43 30t58 19t61 6.5q55 0 84 -26.5t29 -78.5v-185q0 -20 11.5 -31t48.5 -12l2 -22q-20 -7 -42 -12.5t-45 -5.5q-24 0 -39.5 10.5t-20.5 39.5l-9 1q-26 -23 -54.5 -36.5t-62.5 -13.5q-45 0 -71 25t-26 60q0 54 54 85.5t162 33.5v51q0 35 -18 53
t-68 18q-20 0 -43 -5q22 -21 22 -46q0 -17 -12.5 -30t-33.5 -13q-23 0 -35 13.5t-12 31.5zM154 450q0 -26 14.5 -39t40.5 -13q14 0 32 5.5t33 14.5v103q-63 -2 -91.5 -20.5t-28.5 -50.5z" />
    <glyph glyph-name="ordmasculine" unicode="&#xba;" horiz-adv-x="470" 
d="M425 532q0 -38 -13.5 -72t-39 -59.5t-61.5 -40.5t-81 -15q-44 0 -78.5 14t-58 39t-36 59t-12.5 74q0 38 13.5 71.5t39 59t61.5 40.5t81 15q44 0 78.5 -14t58 -38.5t36 -58.5t12.5 -74zM319 532q0 72 -21.5 111t-63.5 39q-41 0 -62.5 -39.5t-21.5 -111.5t22 -111t64 -39
t62.5 39t20.5 112z" />
    <glyph glyph-name="degree" unicode="&#xb0;" horiz-adv-x="452" 
d="M404 548q0 -32 -12 -62.5t-35 -55t-56.5 -39.5t-77.5 -15q-43 0 -75.5 14t-54.5 38t-33 55t-11 64q0 31 12 61.5t35 54.5t57 39t78 15q43 0 75.5 -14t54 -37.5t32.5 -54t11 -63.5zM311 548q0 61 -23 96t-63 35q-38 0 -60.5 -35.5t-22.5 -97.5t23.5 -97t61.5 -35
q41 0 62.5 35.5t21.5 98.5z" />
    <glyph glyph-name="percent" unicode="%" horiz-adv-x="902" 
d="M402 514q0 -35 -13 -67.5t-37 -58t-58 -40.5t-75 -15t-73 13.5t-54.5 37.5t-34.5 56.5t-12 69.5q0 35 13.5 67.5t38 57.5t58.5 40t75 15q40 0 72 -13.5t54 -37.5t34 -56t12 -69zM857 162q0 -35 -13.5 -67.5t-37.5 -57.5t-58 -40t-75 -15q-40 0 -72 13.5t-54 37.5t-34 56
t-12 69q0 35 13 67.5t37 57.5t58 40t75 15q40 0 72.5 -13.5t54.5 -37.5t34 -56t12 -69zM597 158q0 -69 23.5 -103.5t60.5 -34.5t58 35.5t21 106.5q0 69 -23 103.5t-60 34.5t-58.5 -35.5t-21.5 -106.5zM305 513q0 69 -22.5 103.5t-60.5 34.5q-36 0 -58 -35.5t-22 -105.5
t23.5 -104t59.5 -34q38 0 59 35t21 106zM428 345l259 360l50 -33l-262 -345l-260 -360l-50 32z" />
    <glyph glyph-name="quotedbl" unicode="&#x22;" horiz-adv-x="460" 
d="M423 659q0 -9 -2 -18.5t-7 -20.5q-9 -19 -24 -42t-42 -63l-58 -80l-31 14l16 100q9 48 13.5 74.5t12.5 45.5q19 48 61 48q23 0 42 -16.5t19 -41.5zM223 659q0 -20 -8 -39q-10 -19 -25 -42t-42 -63l-58 -80l-31 14l17 100q9 48 13 74.5t12 45.5q19 48 61 48q23 0 42 -16.5
t19 -41.5z" />
    <glyph glyph-name="quotesingle" unicode="'" horiz-adv-x="260" 
d="M223 659q0 -20 -8 -39q-10 -19 -25 -42t-42 -63l-58 -80l-31 14l17 100q9 48 13 74.5t12 45.5q19 48 61 48q23 0 42 -16.5t19 -41.5z" />
    <glyph glyph-name="plus" unicode="+" horiz-adv-x="580" 
d="M324 306v-203h-66v203h-201v62h201v200h66v-200h199v-62h-199z" />
    <glyph glyph-name="minus" unicode="&#x2212;" horiz-adv-x="580" 
d="M66 304v67h448v-67h-448z" />
    <glyph glyph-name="divide" unicode="&#xf7;" horiz-adv-x="580" 
d="M60 307v60h459v-60h-459zM289 574q29 0 49 -19.5t20 -48.5t-20 -48.5t-49 -19.5q-28 0 -48 19.5t-20 48.5t20 48.5t48 19.5zM289 237q29 0 49 -20t20 -49t-20 -48.5t-49 -19.5q-28 0 -48 19.5t-20 48.5t20 49t48 20z" />
    <glyph glyph-name="equal" unicode="=" horiz-adv-x="580" 
d="M511 410h-442v64h442v-64zM69 199v64h442v-64h-442z" />
    <glyph glyph-name="multiply" unicode="&#xd7;" horiz-adv-x="580" 
d="M486 179l-46 -44l-150 156l-150 -156l-46 44l154 157l-154 156l46 44l150 -156l150 156l46 -44l-154 -156z" />
    <glyph glyph-name="less" unicode="&#x3c;" horiz-adv-x="580" 
d="M471 106l-391 205v53l391 204l16 -60l-336 -170l336 -171z" />
    <glyph glyph-name="greater" unicode="&#x3e;" horiz-adv-x="580" 
d="M92 508l16 61l390 -205v-53l-390 -204l-16 61l336 169z" />
    <glyph glyph-name="plusminus" unicode="&#xb1;" horiz-adv-x="580" 
d="M321 425v-168h-62v168h-165v60h165v165h62v-165h165v-60h-165zM82 116v60h415v-60h-415z" />
    <glyph glyph-name="onehalf" unicode="&#xbd;" horiz-adv-x="1160" 
d="M401 215v-25h-330v25l110 36v378l-106 38v23l199 26l19 -11v-454zM617 288l-278 -418l-51 37l285 411l278 418l51 -37zM826 0l197 2l56 82l22 -5l-25 -163h-317l-13 86q88 69 143 127q25 25 41 45.5t25.5 38.5t13.5 34t4 33q0 33 -20.5 54t-55.5 21q-38 0 -66.5 -24
t-48.5 -68l-29 12q20 72 65.5 117t117.5 45q35 0 62 -11.5t45.5 -30.5t28 -44t9.5 -52q0 -35 -14 -66.5t-44.5 -64.5t-80 -70t-120.5 -83z" />
    <glyph glyph-name="onethird" unicode="&#x2153;" horiz-adv-x="1160" 
d="M401 215v-25h-330v25l110 36v378l-106 38v23l199 26l19 -11v-454zM623 288l-278 -418l-51 37l285 411l278 418l51 -37zM836 187q44 15 71 28t42 26.5t20.5 28t5.5 32.5q0 25 -19 43.5t-55 18.5q-34 0 -62.5 -17.5t-54.5 -51.5l-27 18q26 57 73.5 90.5t110.5 33.5
q65 0 102.5 -31t37.5 -79q0 -44 -26 -73.5t-86 -47.5v-15q65 -13 98.5 -45t33.5 -86q0 -36 -15 -65.5t-40.5 -50.5t-60 -32.5t-74.5 -11.5q-78 0 -123 25.5t-45 65.5q0 26 17.5 42t40.5 16q35 0 50 -26t7 -67q24 -15 52 -15q38 0 62 23.5t24 64.5q0 44 -36.5 72.5
t-123.5 39.5v46z" />
    <glyph glyph-name="twothirds" unicode="&#x2154;" horiz-adv-x="1160" 
d="M133 274l197 2l56 82l22 -5l-25 -163h-317l-13 86q88 69 143 127q25 25 41 45.5t25.5 38.5t13.5 34t4 33q0 33 -20.5 54t-55.5 21q-38 0 -66.5 -24t-48.5 -68l-29 12q20 72 65.5 117t117.5 45q35 0 62 -11.5t45.5 -30.5t28 -44t9.5 -52q0 -35 -14 -66.5t-44.5 -64.5
t-80 -70t-120.5 -83zM628 288l-278 -418l-51 37l285 411l278 418l51 -37zM836 187q44 15 71 28t42 26.5t20.5 28t5.5 32.5q0 25 -19 43.5t-55 18.5q-34 0 -62.5 -17.5t-54.5 -51.5l-27 18q26 57 73.5 90.5t110.5 33.5q65 0 102.5 -31t37.5 -79q0 -44 -26 -73.5t-86 -47.5
v-15q65 -13 98.5 -45t33.5 -86q0 -36 -15 -65.5t-40.5 -50.5t-60 -32.5t-74.5 -11.5q-78 0 -123 25.5t-45 65.5q0 26 17.5 42t40.5 16q35 0 50 -26t7 -67q24 -15 52 -15q38 0 62 23.5t24 64.5q0 44 -36.5 72.5t-123.5 39.5v46z" />
    <glyph glyph-name="onequarter" unicode="&#xbc;" horiz-adv-x="1160" 
d="M401 215v-25h-330v25l110 36v378l-106 38v23l199 26l19 -11v-454zM623 288l-278 -418l-51 37l285 411l278 418l51 -37zM917 351h-21l-133 -225h154v225zM901 434l116 -7v-297h81v-67h-81v-90l67 -29v-28h-258v29l86 28v92h-196l-17 59z" />
    <glyph glyph-name="threequarters" unicode="&#xbe;" horiz-adv-x="1160" 
d="M165 461q44 15 71 28t42 26.5t20.5 28t5.5 32.5q0 25 -19 43.5t-55 18.5q-34 0 -62.5 -17.5t-54.5 -51.5l-27 18q26 57 73.5 90.5t110.5 33.5q65 0 102.5 -31t37.5 -79q0 -44 -26 -73.5t-86 -47.5v-15q65 -13 98.5 -45t33.5 -86q0 -36 -15 -65.5t-40.5 -50.5t-60 -32.5
t-74.5 -11.5q-78 0 -123 25.5t-45 65.5q0 26 17.5 42t40.5 16q35 0 50 -26t7 -67q24 -15 52 -15q38 0 62 23.5t24 64.5q0 44 -36.5 72.5t-123.5 39.5v46zM628 288l-278 -418l-51 37l285 411l278 418l51 -37zM917 351h-21l-133 -225h154v225zM901 434l116 -7v-297h81v-67h-81
v-90l67 -29v-28h-258v29l86 28v92h-196l-17 59z" />
    <glyph glyph-name="onefifth" unicode="&#x2155;" horiz-adv-x="1160" 
d="M401 215v-25h-330v25l110 36v378l-106 38v23l199 26l19 -11v-454zM622 288l-278 -418l-51 37l285 411l278 418l51 -37zM1096 73q0 -40 -14.5 -72t-40 -54.5t-59 -34.5t-70.5 -12q-78 0 -119.5 26.5t-41.5 62.5q0 26 15.5 43t37.5 17q33 0 48.5 -25.5t9.5 -68.5
q9 -6 23.5 -10t31.5 -4q37 0 62 25t25 77q0 49 -29.5 73.5t-77.5 24.5q-26 0 -45.5 -3t-36.5 -8l-36 20l27 270h215l32 46l26 -5l-13 -137h-221l-10 -96l11 -9q35 11 75 11q80 0 127.5 -41.5t47.5 -115.5z" />
    <glyph glyph-name="twofifths" unicode="&#x2156;" horiz-adv-x="1160" 
d="M133 274l197 2l56 82l22 -5l-25 -163h-317l-13 86q88 69 143 127q25 25 41 45.5t25.5 38.5t13.5 34t4 33q0 33 -20.5 54t-55.5 21q-38 0 -66.5 -24t-48.5 -68l-29 12q20 72 65.5 117t117.5 45q35 0 62 -11.5t45.5 -30.5t28 -44t9.5 -52q0 -35 -14 -66.5t-44.5 -64.5
t-80 -70t-120.5 -83zM618 288l-278 -418l-51 37l285 411l278 418l51 -37zM1096 73q0 -40 -14.5 -72t-40 -54.5t-59 -34.5t-70.5 -12q-78 0 -119.5 26.5t-41.5 62.5q0 26 15.5 43t37.5 17q33 0 48.5 -25.5t9.5 -68.5q9 -6 23.5 -10t31.5 -4q37 0 62 25t25 77q0 49 -29.5 73.5
t-77.5 24.5q-26 0 -45.5 -3t-36.5 -8l-36 20l27 270h215l32 46l26 -5l-13 -137h-221l-10 -96l11 -9q35 11 75 11q80 0 127.5 -41.5t47.5 -115.5z" />
    <glyph glyph-name="threefifths" unicode="&#x2157;" horiz-adv-x="1160" 
d="M143 461q44 15 71 28t42 26.5t20.5 28t5.5 32.5q0 25 -19 43.5t-55 18.5q-34 0 -62.5 -17.5t-54.5 -51.5l-27 18q26 57 73.5 90.5t110.5 33.5q65 0 102.5 -31t37.5 -79q0 -44 -26 -73.5t-86 -47.5v-15q65 -13 98.5 -45t33.5 -86q0 -36 -15 -65.5t-40.5 -50.5t-60 -32.5
t-74.5 -11.5q-78 0 -123 25.5t-45 65.5q0 26 17.5 42t40.5 16q35 0 50 -26t7 -67q24 -15 52 -15q38 0 62 23.5t24 64.5q0 44 -36.5 72.5t-123.5 39.5v46zM601 288l-278 -418l-51 37l285 411l278 418l51 -37zM1096 73q0 -40 -14.5 -72t-40 -54.5t-59 -34.5t-70.5 -12
q-78 0 -119.5 26.5t-41.5 62.5q0 26 15.5 43t37.5 17q33 0 48.5 -25.5t9.5 -68.5q9 -6 23.5 -10t31.5 -4q37 0 62 25t25 77q0 49 -29.5 73.5t-77.5 24.5q-26 0 -45.5 -3t-36.5 -8l-36 20l27 270h215l32 46l26 -5l-13 -137h-221l-10 -96l11 -9q35 11 75 11q80 0 127.5 -41.5
t47.5 -115.5z" />
    <glyph glyph-name="fourfifths" unicode="&#x2158;" horiz-adv-x="1160" 
d="M240 625h-21l-133 -225h154v225zM224 708l116 -7v-297h81v-67h-81v-90l67 -29v-28h-258v29l86 28v92h-196l-17 59zM624 288l-278 -418l-51 37l285 411l278 418l51 -37zM1096 73q0 -40 -14.5 -72t-40 -54.5t-59 -34.5t-70.5 -12q-78 0 -119.5 26.5t-41.5 62.5
q0 26 15.5 43t37.5 17q33 0 48.5 -25.5t9.5 -68.5q9 -6 23.5 -10t31.5 -4q37 0 62 25t25 77q0 49 -29.5 73.5t-77.5 24.5q-26 0 -45.5 -3t-36.5 -8l-36 20l27 270h215l32 46l26 -5l-13 -137h-221l-10 -96l11 -9q35 11 75 11q80 0 127.5 -41.5t47.5 -115.5z" />
    <glyph glyph-name="onesixth" unicode="&#x2159;" horiz-adv-x="1160" 
d="M401 215v-25h-330v25l110 36v378l-106 38v23l199 26l19 -11v-454zM634 288l-278 -418l-51 37l285 411l278 418l51 -37zM878 212q15 14 38 23t48 9q32 0 57 -12.5t42 -33.5t26 -49.5t9 -59.5q0 -44 -13.5 -78.5t-37.5 -59.5t-57.5 -38t-72.5 -13q-36 0 -69 12.5t-57.5 37
t-39 62t-14.5 87.5q0 65 22.5 125.5t71.5 110.5q40 40 91.5 68t120.5 44l10 -33q-69 -31 -117 -79q-26 -27 -42 -56t-27 -61zM857 170q-8 -37 -8 -78q0 -82 22 -118t54 -36q29 0 46.5 27t17.5 93q0 128 -77 128q-31 0 -55 -16z" />
    <glyph glyph-name="fivesixths" unicode="&#x215a;" horiz-adv-x="1160" 
d="M403 347q0 -40 -14.5 -72t-40 -54.5t-59 -34.5t-70.5 -12q-78 0 -119.5 26.5t-41.5 62.5q0 26 15.5 43t37.5 17q33 0 48.5 -25.5t9.5 -68.5q9 -6 23.5 -10t31.5 -4q37 0 62 25t25 77q0 49 -29.5 73.5t-77.5 24.5q-26 0 -45.5 -3t-36.5 -8l-36 20l27 270h215l32 46l26 -5
l-13 -137h-221l-10 -96l11 -9q35 11 75 11q80 0 127.5 -41.5t47.5 -115.5zM617 288l-278 -418l-51 37l285 411l278 418l51 -37zM878 212q15 14 38 23t48 9q32 0 57 -12.5t42 -33.5t26 -49.5t9 -59.5q0 -44 -13.5 -78.5t-37.5 -59.5t-57.5 -38t-72.5 -13q-36 0 -69 12.5
t-57.5 37t-39 62t-14.5 87.5q0 65 22.5 125.5t71.5 110.5q40 40 91.5 68t120.5 44l10 -33q-69 -31 -117 -79q-26 -27 -42 -56t-27 -61zM857 170q-8 -37 -8 -78q0 -82 22 -118t54 -36q29 0 46.5 27t17.5 93q0 128 -77 128q-31 0 -55 -16z" />
    <glyph glyph-name="oneeighth" unicode="&#x215b;" horiz-adv-x="1160" 
d="M401 215v-25h-330v25l110 36v378l-106 38v23l199 26l19 -11v-454zM617 288l-278 -418l-51 37l285 411l278 418l51 -37zM987 185q46 -16 75.5 -45.5t29.5 -85.5q0 -36 -14 -65t-39 -48.5t-58 -30t-71 -10.5q-80 0 -127.5 35.5t-47.5 92.5q0 38 20.5 68t75.5 52v14
q-38 17 -59 46.5t-21 74.5q0 34 13 62.5t36 49t53.5 31.5t65.5 11q36 0 65.5 -9.5t50 -26t32 -39.5t11.5 -49q0 -35 -21 -65t-70 -49v-14zM953 211q17 20 26 47t9 53q0 41 -20.5 63t-53.5 22q-29 0 -48 -21t-19 -59q0 -42 23 -66.5t83 -38.5zM863 135q-16 -20 -25 -46
t-9 -53q0 -48 24 -72.5t65 -24.5q32 0 54 21.5t22 61.5q0 43 -28.5 71.5t-102.5 41.5z" />
    <glyph glyph-name="threeeighths" unicode="&#x215c;" horiz-adv-x="1160" 
d="M143 461q44 15 71 28t42 26.5t20.5 28t5.5 32.5q0 25 -19 43.5t-55 18.5q-34 0 -62.5 -17.5t-54.5 -51.5l-27 18q26 57 73.5 90.5t110.5 33.5q65 0 102.5 -31t37.5 -79q0 -44 -26 -73.5t-86 -47.5v-15q65 -13 98.5 -45t33.5 -86q0 -36 -15 -65.5t-40.5 -50.5t-60 -32.5
t-74.5 -11.5q-78 0 -123 25.5t-45 65.5q0 26 17.5 42t40.5 16q35 0 50 -26t7 -67q24 -15 52 -15q38 0 62 23.5t24 64.5q0 44 -36.5 72.5t-123.5 39.5v46zM609 288l-278 -418l-51 37l285 411l278 418l51 -37zM987 185q46 -16 75.5 -45.5t29.5 -85.5q0 -36 -14 -65t-39 -48.5
t-58 -30t-71 -10.5q-80 0 -127.5 35.5t-47.5 92.5q0 38 20.5 68t75.5 52v14q-38 17 -59 46.5t-21 74.5q0 34 13 62.5t36 49t53.5 31.5t65.5 11q36 0 65.5 -9.5t50 -26t32 -39.5t11.5 -49q0 -35 -21 -65t-70 -49v-14zM953 211q17 20 26 47t9 53q0 41 -20.5 63t-53.5 22
q-29 0 -48 -21t-19 -59q0 -42 23 -66.5t83 -38.5zM863 135q-16 -20 -25 -46t-9 -53q0 -48 24 -72.5t65 -24.5q32 0 54 21.5t22 61.5q0 43 -28.5 71.5t-102.5 41.5z" />
    <glyph glyph-name="fiveeighths" unicode="&#x215d;" horiz-adv-x="1160" 
d="M414 347q0 -40 -14.5 -72t-40 -54.5t-59 -34.5t-70.5 -12q-78 0 -119.5 26.5t-41.5 62.5q0 26 15.5 43t37.5 17q33 0 48.5 -25.5t9.5 -68.5q9 -6 23.5 -10t31.5 -4q37 0 62 25t25 77q0 49 -29.5 73.5t-77.5 24.5q-26 0 -45.5 -3t-36.5 -8l-36 20l27 270h215l32 46l26 -5
l-13 -137h-221l-10 -96l11 -9q35 11 75 11q80 0 127.5 -41.5t47.5 -115.5zM609 288l-278 -418l-51 37l285 411l278 418l51 -37zM987 185q46 -16 75.5 -45.5t29.5 -85.5q0 -36 -14 -65t-39 -48.5t-58 -30t-71 -10.5q-80 0 -127.5 35.5t-47.5 92.5q0 38 20.5 68t75.5 52v14
q-38 17 -59 46.5t-21 74.5q0 34 13 62.5t36 49t53.5 31.5t65.5 11q36 0 65.5 -9.5t50 -26t32 -39.5t11.5 -49q0 -35 -21 -65t-70 -49v-14zM953 211q17 20 26 47t9 53q0 41 -20.5 63t-53.5 22q-29 0 -48 -21t-19 -59q0 -42 23 -66.5t83 -38.5zM863 135q-16 -20 -25 -46
t-9 -53q0 -48 24 -72.5t65 -24.5q32 0 54 21.5t22 61.5q0 43 -28.5 71.5t-102.5 41.5z" />
    <glyph glyph-name="seveneighths" unicode="&#x215e;" horiz-adv-x="1160" 
d="M169 596l-49 -75l-29 5l22 197l28 6l20 -35h263l19 -63l-203 -448h-115v17l118 182l131 214h-205zM575 288l-278 -418l-51 37l285 411l278 418l51 -37zM987 185q46 -16 75.5 -45.5t29.5 -85.5q0 -36 -14 -65t-39 -48.5t-58 -30t-71 -10.5q-80 0 -127.5 35.5t-47.5 92.5
q0 38 20.5 68t75.5 52v14q-38 17 -59 46.5t-21 74.5q0 34 13 62.5t36 49t53.5 31.5t65.5 11q36 0 65.5 -9.5t50 -26t32 -39.5t11.5 -49q0 -35 -21 -65t-70 -49v-14zM953 211q17 20 26 47t9 53q0 41 -20.5 63t-53.5 22q-29 0 -48 -21t-19 -59q0 -42 23 -66.5t83 -38.5z
M863 135q-16 -20 -25 -46t-9 -53q0 -48 24 -72.5t65 -24.5q32 0 54 21.5t22 61.5q0 43 -28.5 71.5t-102.5 41.5z" />
    <glyph glyph-name="zero.sup" unicode="&#x2070;" horiz-adv-x="435" 
d="M403 554q0 -130 -50.5 -199t-135.5 -69q-91 0 -138 68t-47 200q0 130 50 199.5t135 69.5q91 0 138.5 -68.5t47.5 -200.5zM286 554q0 70 -5 114.5t-14 70t-22 35.5t-29 10q-17 0 -29.5 -8.5t-21 -33.5t-12.5 -70t-4 -118t5 -118t14 -69.5t22 -33t29 -8.5q17 0 29.5 10
t21 35.5t12.5 70t4 113.5z" />
    <glyph glyph-name="one.sup" unicode="&#xb9;" horiz-adv-x="435" 
d="M396 327v-25h-330v25l110 36v378l-106 38v23l199 26l19 -11v-454z" />
    <glyph glyph-name="two.sup" unicode="&#xb2;" horiz-adv-x="435" 
d="M117 386l197 2l56 82l22 -5l-25 -163h-317l-13 86q88 69 143 127q25 25 41 45.5t25.5 38.5t13.5 34t4 33q0 33 -20.5 54t-55.5 21q-38 0 -66.5 -24t-48.5 -68l-29 12q20 72 65.5 117t117.5 45q35 0 62 -11.5t45.5 -30.5t28 -44t9.5 -52q0 -35 -14 -66.5t-44.5 -64.5
t-80 -70t-120.5 -83z" />
    <glyph glyph-name="three.sup" unicode="&#xb3;" horiz-adv-x="435" 
d="M127 573q44 15 71 28t42 26.5t20.5 28t5.5 32.5q0 25 -19 43.5t-55 18.5q-34 0 -62.5 -17.5t-54.5 -51.5l-27 18q26 57 73.5 90.5t110.5 33.5q65 0 102.5 -31t37.5 -79q0 -44 -26 -73.5t-86 -47.5v-15q65 -13 98.5 -45t33.5 -86q0 -36 -15 -65.5t-40.5 -50.5t-60 -32.5
t-74.5 -11.5q-78 0 -123 25.5t-45 65.5q0 26 17.5 42t40.5 16q35 0 50 -26t7 -67q24 -15 52 -15q38 0 62 23.5t24 64.5q0 44 -36.5 72.5t-123.5 39.5v46z" />
    <glyph glyph-name="four.sup" unicode="&#x2074;" horiz-adv-x="435" 
d="M230 737h-21l-133 -225h154v225zM214 820l116 -7v-297h81v-67h-81v-90l67 -29v-28h-258v29l86 28v92h-196l-17 59z" />
    <glyph glyph-name="five.sup" unicode="&#x2075;" horiz-adv-x="435" 
d="M387 459q0 -40 -14.5 -72t-40 -54.5t-59 -34.5t-70.5 -12q-78 0 -119.5 26.5t-41.5 62.5q0 26 15.5 43t37.5 17q33 0 48.5 -25.5t9.5 -68.5q9 -6 23.5 -10t31.5 -4q37 0 62 25t25 77q0 49 -29.5 73.5t-77.5 24.5q-26 0 -45.5 -3t-36.5 -8l-36 20l27 270h215l32 46l26 -5
l-13 -137h-221l-10 -96l11 -9q35 11 75 11q80 0 127.5 -41.5t47.5 -115.5z" />
    <glyph glyph-name="six.sup" unicode="&#x2076;" horiz-adv-x="435" 
d="M180 598q15 14 38 23t48 9q32 0 57 -12.5t42 -33.5t26 -49.5t9 -59.5q0 -44 -13.5 -78.5t-37.5 -59.5t-57.5 -38t-72.5 -13q-36 0 -69 12.5t-57.5 37t-39 62t-14.5 87.5q0 65 22.5 125.5t71.5 110.5q40 40 91.5 68t120.5 44l10 -33q-69 -31 -117 -79q-26 -27 -42 -56
t-27 -61zM159 556q-8 -37 -8 -78q0 -82 22 -118t54 -36q29 0 46.5 27t17.5 93q0 128 -77 128q-31 0 -55 -16z" />
    <glyph glyph-name="seven.sup" unicode="&#x2077;" horiz-adv-x="435" 
d="M131 708l-49 -75l-29 5l22 197l28 6l20 -35h263l19 -63l-203 -448h-115v17l118 182l131 214h-205z" />
    <glyph glyph-name="eight.sup" unicode="&#x2078;" horiz-adv-x="435" 
d="M289 571q46 -16 75.5 -45.5t29.5 -85.5q0 -36 -14 -65t-39 -48.5t-58 -30t-71 -10.5q-80 0 -127.5 35.5t-47.5 92.5q0 38 20.5 68t75.5 52v14q-38 17 -59 46.5t-21 74.5q0 34 13 62.5t36 49t53.5 31.5t65.5 11q36 0 65.5 -9.5t50 -26t32 -39.5t11.5 -49q0 -35 -21 -65
t-70 -49v-14zM255 597q17 20 26 47t9 53q0 41 -20.5 63t-53.5 22q-29 0 -48 -21t-19 -59q0 -42 23 -66.5t83 -38.5zM165 521q-16 -20 -25 -46t-9 -53q0 -48 24 -72.5t65 -24.5q32 0 54 21.5t22 61.5q0 43 -28.5 71.5t-102.5 41.5z" />
    <glyph glyph-name="nine.sup" unicode="&#x2079;" horiz-adv-x="435" 
d="M254 506q-15 -14 -38 -23t-49 -9q-32 0 -56.5 12.5t-41.5 34t-25.5 50t-8.5 60.5q0 45 13 80.5t37 60.5t57 38t73 13q36 0 69 -13t58 -38t39.5 -62t14.5 -86q0 -66 -22.5 -127t-71.5 -109q-40 -41 -92 -69t-125 -45l-10 33q38 16 68.5 37t53.5 44q26 26 41.5 53t26.5 59z
M276 548q8 37 8 82q0 84 -22.5 119t-53.5 35q-28 0 -46 -26.5t-18 -94.5q0 -132 76 -132q33 0 56 17z" />
    <glyph glyph-name="zero.inf" unicode="&#x2080;" horiz-adv-x="435" 
d="M403 34q0 -130 -50.5 -199t-135.5 -69q-91 0 -138 68t-47 200q0 130 50 199.5t135 69.5q91 0 138.5 -68.5t47.5 -200.5zM286 34q0 70 -5 114.5t-14 70t-22 35.5t-29 10q-17 0 -29.5 -8.5t-21 -33.5t-12.5 -70t-4 -118t5 -118t14 -69.5t22 -33t29 -8.5q17 0 29.5 10
t21 35.5t12.5 70t4 113.5z" />
    <glyph glyph-name="one.inf" unicode="&#x2081;" horiz-adv-x="435" 
d="M396 -193v-25h-330v25l110 36v378l-106 38v23l199 26l19 -11v-454z" />
    <glyph glyph-name="two.inf" unicode="&#x2082;" horiz-adv-x="435" 
d="M117 -134l197 2l56 82l22 -5l-25 -163h-317l-13 86q88 69 143 127q25 25 41 45.5t25.5 38.5t13.5 34t4 33q0 33 -20.5 54t-55.5 21q-38 0 -66.5 -24t-48.5 -68l-29 12q20 72 65.5 117t117.5 45q35 0 62 -11.5t45.5 -30.5t28 -44t9.5 -52q0 -35 -14 -66.5t-44.5 -64.5
t-80 -70t-120.5 -83z" />
    <glyph glyph-name="three.inf" unicode="&#x2083;" horiz-adv-x="435" 
d="M127 53q44 15 71 28t42 26.5t20.5 28t5.5 32.5q0 25 -19 43.5t-55 18.5q-34 0 -62.5 -17.5t-54.5 -51.5l-27 18q26 57 73.5 90.5t110.5 33.5q65 0 102.5 -31t37.5 -79q0 -44 -26 -73.5t-86 -47.5v-15q65 -13 98.5 -45t33.5 -86q0 -36 -15 -65.5t-40.5 -50.5t-60 -32.5
t-74.5 -11.5q-78 0 -123 25.5t-45 65.5q0 26 17.5 42t40.5 16q35 0 50 -26t7 -67q24 -15 52 -15q38 0 62 23.5t24 64.5q0 44 -36.5 72.5t-123.5 39.5v46z" />
    <glyph glyph-name="four.inf" unicode="&#x2084;" horiz-adv-x="435" 
d="M230 217h-21l-133 -225h154v225zM214 300l116 -7v-297h81v-67h-81v-90l67 -29v-28h-258v29l86 28v92h-196l-17 59z" />
    <glyph glyph-name="five.inf" unicode="&#x2085;" horiz-adv-x="435" 
d="M387 -61q0 -40 -14.5 -72t-40 -54.5t-59 -34.5t-70.5 -12q-78 0 -119.5 26.5t-41.5 62.5q0 26 15.5 43t37.5 17q33 0 48.5 -25.5t9.5 -68.5q9 -6 23.5 -10t31.5 -4q37 0 62 25t25 77q0 49 -29.5 73.5t-77.5 24.5q-26 0 -45.5 -3t-36.5 -8l-36 20l27 270h215l32 46l26 -5
l-13 -137h-221l-10 -96l11 -9q35 11 75 11q80 0 127.5 -41.5t47.5 -115.5z" />
    <glyph glyph-name="six.inf" unicode="&#x2086;" horiz-adv-x="435" 
d="M180 78q15 14 38 23t48 9q32 0 57 -12.5t42 -33.5t26 -49.5t9 -59.5q0 -44 -13.5 -78.5t-37.5 -59.5t-57.5 -38t-72.5 -13q-36 0 -69 12.5t-57.5 37t-39 62t-14.5 87.5q0 65 22.5 125.5t71.5 110.5q40 40 91.5 68t120.5 44l10 -33q-69 -31 -117 -79q-26 -27 -42 -56
t-27 -61zM159 36q-8 -37 -8 -78q0 -82 22 -118t54 -36q29 0 46.5 27t17.5 93q0 128 -77 128q-31 0 -55 -16z" />
    <glyph glyph-name="seven.inf" unicode="&#x2087;" horiz-adv-x="435" 
d="M131 188l-49 -75l-29 5l22 197l28 6l20 -35h263l19 -63l-203 -448h-115v17l118 182l131 214h-205z" />
    <glyph glyph-name="eight.inf" unicode="&#x2088;" horiz-adv-x="435" 
d="M289 51q46 -16 75.5 -45.5t29.5 -85.5q0 -36 -14 -65t-39 -48.5t-58 -30t-71 -10.5q-80 0 -127.5 35.5t-47.5 92.5q0 38 20.5 68t75.5 52v14q-38 17 -59 46.5t-21 74.5q0 34 13 62.5t36 49t53.5 31.5t65.5 11q36 0 65.5 -9.5t50 -26t32 -39.5t11.5 -49q0 -35 -21 -65
t-70 -49v-14zM255 77q17 20 26 47t9 53q0 41 -20.5 63t-53.5 22q-29 0 -48 -21t-19 -59q0 -42 23 -66.5t83 -38.5zM165 1q-16 -20 -25 -46t-9 -53q0 -48 24 -72.5t65 -24.5q32 0 54 21.5t22 61.5q0 43 -28.5 71.5t-102.5 41.5z" />
    <glyph glyph-name="nine.inf" unicode="&#x2089;" horiz-adv-x="435" 
d="M254 -14q-15 -14 -38 -23t-49 -9q-32 0 -56.5 12.5t-41.5 34t-25.5 50t-8.5 60.5q0 45 13 80.5t37 60.5t57 38t73 13q36 0 69 -13t58 -38t39.5 -62t14.5 -86q0 -66 -22.5 -127t-71.5 -109q-40 -41 -92 -69t-125 -45l-10 33q38 16 68.5 37t53.5 44q26 26 41.5 53t26.5 59z
M276 28q8 37 8 82q0 84 -22.5 119t-53.5 35q-28 0 -46 -26.5t-18 -94.5q0 -132 76 -132q33 0 56 17z" />
    </font>
</defs>
</svg>
