<?xml version="1.0" standalone="no"?>
<!DOCTYPE svg PUBLIC "-//W3C//DTD SVG 1.1//EN" "http://www.w3.org/Graphics/SVG/1.1/DTD/svg11.dtd" >
<svg xmlns="http://www.w3.org/2000/svg" xmlns:xlink="http://www.w3.org/1999/xlink" version="1.1">
<metadata>
Created by FontForge 20190801 at Thu Mar 15 15:39:50 2018
 By Unknown
Copyright (C) 1996, 2011 Hoefler &#38; Co. http://www.typography.com
</metadata>
<defs>
<font id="Font" horiz-adv-x="833" >
  <font-face 
    font-family="Copyright (C) H&#38;Co | typography.com"
    font-weight="400"
    font-style="italic"
    font-stretch="normal"
    units-per-em="1000"
    panose-1="0 0 0 0 0 0 0 0 0 0"
    ascent="800"
    descent="-200"
    x-height="525"
    cap-height="701"
    bbox="-193 -366 1595 1196.38"
    underline-thickness="50"
    underline-position="-100"
    slope="-12"
    unicode-range="U+0020-FB04"
  />
<missing-glyph horiz-adv-x="500" 
 />
    <glyph glyph-name="f_b" unicode="fb" horiz-adv-x="999" 
d="M491 422h-184l-52 -302q-21 -117 -56.5 -189.5t-92.5 -116.5q-42 -33 -86 -47t-83 -14q-51 0 -81.5 23.5t-30.5 60.5q0 14 5.5 28t15 25t23 17.5t30.5 6.5q35 0 69.5 -22.5t58.5 -64.5q7 7 14 20.5t14 35.5t14 55.5t15 81.5l69 402h-122l10 42l127 45l2 7q40 170 164 253
q46 30 93.5 45.5t106.5 15.5q27 0 49.5 -6t39.5 -17l87 23l21 -14l-81 -375l12 -2q36 39 75.5 62.5t88.5 23.5q30 0 55.5 -12t44.5 -34t30 -53.5t11 -69.5q0 -78 -30 -145.5t-80 -117.5t-116.5 -78.5t-139.5 -28.5q-56 0 -104.5 12t-90.5 30zM675 59q31 0 54 28t38.5 68
t23 85t7.5 78q0 47 -16.5 70.5t-52.5 23.5q-23 0 -46.5 -9t-44.5 -23l-57 -267q42 -54 94 -54zM506 495l38 178q-21 13 -39 35.5t-32 57.5q-24 -6 -46.5 -21.5t-42 -43t-34.5 -68.5t-24 -97l-7 -41h187z" />
    <glyph glyph-name="f_f" unicode="ff" horiz-adv-x="760" 
d="M684 779q5 3 9.5 7t9.5 6q70 42 149 42q56 0 86.5 -23t30.5 -61q0 -32 -20.5 -55t-58.5 -23q-30 0 -66.5 21t-65.5 69q-12 -8 -22.5 -23.5t-21 -43t-20.5 -69t-21 -102.5l-5 -29h144l-16 -73h-140l-51 -302q-11 -62 -24.5 -109t-31 -84t-40 -64.5t-50.5 -50.5
q-41 -33 -77 -46.5t-76 -13.5q-41 0 -69 22t-27 55q1 29 21 51t51 22q32 0 62 -19t49 -52q7 15 15.5 48.5t19.5 101.5l74 441h-195l-52 -302q-21 -117 -56.5 -189.5t-92.5 -116.5q-42 -33 -86 -47t-83 -14q-51 0 -81.5 23.5t-30.5 60.5q0 14 5.5 28t15 25t23 17.5t30.5 6.5
q35 0 69.5 -22.5t58.5 -64.5q7 7 14 20.5t14 35.5t14 55.5t15 81.5l69 402h-122l10 42l127 45l1 5q21 85 61.5 145.5t100.5 100.5q47 32 96 48t114 16q49 0 86 -12t57 -33zM517 510q21 88 57 152q-23 12 -42.5 37t-33.5 66q-29 -3 -55.5 -17.5t-49.5 -42t-40.5 -70.5
t-27.5 -103l-6 -37h195z" />
    <glyph glyph-name="f_h" unicode="fh" horiz-adv-x="1023" 
d="M491 422h-184l-52 -302q-21 -117 -56.5 -189.5t-92.5 -116.5q-42 -33 -86 -47t-83 -14q-51 0 -81.5 23.5t-30.5 60.5q0 14 5.5 28t15 25t23 17.5t30.5 6.5q35 0 69.5 -22.5t58.5 -64.5q7 7 14 20.5t14 35.5t14 55.5t15 81.5l69 402h-122l10 42l127 45l2 7q40 170 164 253
q46 30 93.5 45.5t106.5 15.5q27 0 49.5 -6t39.5 -17l87 23l22 -14l-82 -384l11 -2q52 45 95 70t91 25q39 0 64 -16.5t37 -44t12.5 -64.5t-9.5 -79l-46 -190q-5 -21 -5.5 -33t8 -19t27.5 -9.5t52 -4.5l6 -27q-40 -24 -80.5 -38t-80.5 -14q-50 0 -71.5 20.5t-21.5 58.5
q0 12 2 25t5 27l46 194q12 51 1.5 76t-47.5 25q-44 0 -110 -44l-79 -368h-156zM506 495l38 178q-21 13 -39 35.5t-32 57.5q-24 -6 -46.5 -21.5t-42 -43t-34.5 -68.5t-24 -97l-7 -41h187z" />
    <glyph glyph-name="fi" unicode="fi" horiz-adv-x="724" 
d="M-63 -247q-51 0 -81.5 23.5t-30.5 60.5q0 14 5.5 28t15 25t23 17.5t30.5 6.5q35 0 69.5 -22.5t58.5 -64.5q7 7 14 20.5t14 35.5t14 55.5t15 81.5l69 402h-122l10 42l127 45l2 7q20 87 61 148t102 102q47 31 95.5 47.5t113.5 16.5q78 0 123.5 -28.5t45.5 -73.5
q0 -31 -22 -54.5t-57 -23.5q-17 0 -35.5 6t-36.5 20t-33.5 37t-27.5 58q-29 -3 -55.5 -17.5t-49 -42t-40 -70.5t-27.5 -103l-8 -43h189l145 33l22 -14l-93 -383q-5 -21 -5.5 -33t8.5 -19t29.5 -9.5t57.5 -4.5l5 -27q-47 -26 -87 -39t-82 -13q-33 0 -53.5 9t-30 25.5t-10 40
t6.5 53.5l74 308h-188l-52 -302q-21 -117 -56.5 -189.5t-92.5 -116.5q-43 -33 -86.5 -47t-82.5 -14z" />
    <glyph glyph-name="f_j" unicode="fj" horiz-adv-x="711" 
d="M602 120q-11 -62 -25 -109.5t-31.5 -84t-39.5 -64.5t-50 -50q-41 -33 -77 -46.5t-76 -13.5q-41 0 -69 22t-27 55q1 29 21 51t51 22q32 0 62 -19t49 -52q7 14 15.5 47.5t20.5 101.5l75 442h-194l-52 -302q-21 -117 -56.5 -189.5t-92.5 -116.5q-43 -33 -86.5 -47t-82.5 -14
q-51 0 -81.5 23.5t-30.5 60.5q0 14 5.5 28t15 25t23 17.5t30.5 6.5q35 0 69.5 -22.5t58.5 -64.5q7 7 14 20.5t14 35.5t14 55.5t15 81.5l69 402h-122l10 42l127 45l2 7q20 87 61 148t102 102q47 31 95.5 47.5t113.5 16.5q78 0 123.5 -28.5t45.5 -73.5q0 -31 -22 -54.5
t-57 -23.5q-17 0 -35.5 6t-36.5 20t-33.5 37t-27.5 58q-29 -3 -55.5 -17.5t-49 -42t-40 -70.5t-27.5 -103l-8 -43h189l145 33l22 -14z" />
    <glyph glyph-name="f_k" unicode="fk" horiz-adv-x="964" 
d="M491 422h-184l-52 -302q-21 -117 -56.5 -189.5t-92.5 -116.5q-42 -33 -86 -47t-83 -14q-51 0 -81.5 23.5t-30.5 60.5q0 14 5.5 28t15 25t23 17.5t30.5 6.5q35 0 69.5 -22.5t58.5 -64.5q7 7 14 20.5t14 35.5t14 55.5t15 81.5l69 402h-122l10 42l127 45l2 7q40 170 164 253
q46 30 93.5 45.5t106.5 15.5q27 0 49.5 -6t39.5 -17l87 23l22 -14l-114 -530q50 9 91.5 29t76.5 47q-24 32 -24 70q0 18 6.5 35.5t18.5 30.5t29 21t37 8q22 0 39.5 -7.5t28.5 -19.5t17 -27.5t6 -31.5q0 -23 -9.5 -45.5t-33.5 -43t-66 -39t-108 -34.5l-1 -10q45 -8 65 -22.5
t31 -41.5q11 -29 15 -49.5t11 -46.5q4 -15 9 -24t14.5 -13.5t25.5 -5.5t42 0l6 -27q-14 -11 -33 -20.5t-40 -16.5t-42.5 -11.5t-40.5 -4.5q-42 0 -62 20t-28 71q-8 50 -15 80.5t-17 48t-24 24.5t-35 11l-51 -241h-156zM506 495l38 178q-21 13 -39 35.5t-32 57.5
q-24 -6 -46.5 -21.5t-42 -43t-34.5 -68.5t-24 -97l-7 -41h187z" />
    <glyph glyph-name="fl" unicode="fl" horiz-adv-x="724" 
d="M-63 -247q-51 0 -81.5 23.5t-30.5 60.5q0 14 5.5 28t15 25t23 17.5t30.5 6.5q35 0 69.5 -22.5t58.5 -64.5q7 7 14 20.5t14 35.5t14 55.5t15 81.5l69 402h-122l10 42l127 45l2 7q40 170 164 253q46 30 93.5 45.5t106.5 15.5q27 0 49.5 -6t39.5 -17l87 23l22 -14l-147 -685
q-5 -21 -5.5 -33t8.5 -18.5t28.5 -9.5t55.5 -5l5 -27q-42 -24 -83 -38t-81 -14q-65 0 -83 34.5t-5 93.5l66 308h-184l-52 -302q-21 -117 -56.5 -189.5t-92.5 -116.5q-42 -33 -86 -47t-83 -14zM506 495l38 178q-21 13 -39 35.5t-32 57.5q-24 -6 -46.5 -21.5t-42 -43
t-34.5 -68.5t-24 -97l-7 -41h187z" />
    <glyph glyph-name="f_f_b" unicode="ffb" horiz-adv-x="1348" 
d="M855 495l39 182q-21 13 -39 35.5t-32 57.5q-48 -11 -88.5 -65t-58.5 -165l-8 -45h187zM576 660q-24 12 -44 37.5t-34 67.5q-29 -3 -55.5 -17.5t-49.5 -42t-40.5 -70.5t-27.5 -103l-6 -37h195l3 13q23 94 59 152zM656 422l-51 -302q-11 -62 -24.5 -109t-31 -84t-40 -64.5
t-50.5 -50.5q-41 -33 -77 -46.5t-76 -13.5q-42 0 -70 22t-27 55q1 29 21 51t51 22q32 0 62.5 -19t49.5 -52q7 15 15.5 48.5t19.5 101.5l74 441h-195l-52 -302q-21 -117 -56.5 -189.5t-92.5 -116.5q-42 -33 -86 -47t-83 -14q-51 0 -81.5 23.5t-30.5 60.5q0 14 5.5 28t15 25
t23 17.5t30.5 6.5q35 0 69.5 -22.5t58.5 -64.5q7 7 14 20.5t14 35.5t14 55.5t15 81.5l69 402h-122l10 42l127 45l1 5q21 85 61.5 145.5t100.5 100.5q47 32 96 48t114 16q52 0 89.5 -13t57.5 -36q2 2 5.5 4.5t7.5 4.5q82 50 183 50q29 0 52.5 -7t40.5 -18l82 21l21 -14
l-81 -375l12 -2q36 39 75.5 62.5t88.5 23.5q30 0 55.5 -12t44.5 -34t30 -53.5t11 -69.5q0 -78 -30 -145.5t-80 -117.5t-116.5 -78.5t-139.5 -28.5q-56 0 -104.5 12t-90.5 30l85 394h-184zM1024 59q31 0 54 28t38.5 68t23 85t7.5 78q0 47 -16.5 70.5t-52.5 23.5
q-23 0 -46.5 -9t-44.5 -23l-57 -267q42 -54 94 -54z" />
    <glyph glyph-name="f_f_h" unicode="ffh" horiz-adv-x="1372" 
d="M855 495l39 182q-21 13 -39 35.5t-32 57.5q-48 -11 -88.5 -65t-58.5 -165l-8 -45h187zM750 0l90 422h-184l-51 -302q-11 -62 -24.5 -109t-31 -84t-40 -64.5t-50.5 -50.5q-41 -33 -77 -46.5t-76 -13.5q-42 0 -70 22t-27 55q1 29 21 51t51 22q32 0 62.5 -19t49.5 -52
q7 15 15.5 48.5t19.5 101.5l74 441h-195l-52 -302q-21 -117 -56.5 -189.5t-92.5 -116.5q-42 -33 -86 -47t-83 -14q-51 0 -81.5 23.5t-30.5 60.5q0 14 5.5 28t15 25t23 17.5t30.5 6.5q35 0 69.5 -22.5t58.5 -64.5q7 7 14 20.5t14 35.5t14 55.5t15 81.5l69 402h-122l10 42
l127 45l1 5q21 85 61.5 145.5t100.5 100.5q47 32 96 48t114 16q52 0 89.5 -13t57.5 -36q2 2 5.5 4.5t7.5 4.5q82 50 183 50q29 0 52.5 -7t40.5 -18l82 21l22 -14l-82 -384l11 -2q52 45 95 70t91 25q39 0 64 -16.5t37 -44t12.5 -64.5t-9.5 -79l-46 -190q-5 -21 -5.5 -33
t8 -19t27.5 -9.5t52 -4.5l6 -27q-40 -24 -80.5 -38t-80.5 -14q-50 0 -71.5 20.5t-21.5 58.5q0 12 2 25t5 27l46 194q12 51 1.5 76t-47.5 25q-44 0 -110 -44l-79 -368h-156zM576 660q-24 12 -44 37.5t-34 67.5q-29 -3 -55.5 -17.5t-49.5 -42t-40.5 -70.5t-27.5 -103l-6 -37
h195l3 13q23 94 59 152z" />
    <glyph glyph-name="f_f_i" unicode="ffi" horiz-adv-x="1073" 
d="M307 422l-52 -302q-21 -117 -56.5 -189.5t-92.5 -116.5q-42 -33 -86 -47t-83 -14q-51 0 -81.5 23.5t-30.5 60.5q0 14 5.5 28t15 25t23 17.5t30.5 6.5q35 0 69.5 -22.5t58.5 -64.5q7 7 14 20.5t14 35.5t14 55.5t15 81.5l69 402h-122l10 42l127 45l1 5q21 85 61.5 145.5
t100.5 100.5q47 32 96 48t114 16q53 0 90.5 -14t57.5 -37q3 3 6 5t7 4q42 25 87 38.5t103 13.5q78 0 123.5 -28.5t45.5 -73.5q0 -31 -22 -54t-57 -23q-17 0 -35.5 6t-36.5 19.5t-33.5 36.5t-27.5 58q-29 -3 -55.5 -17t-49 -41.5t-40 -71.5t-28.5 -107l-8 -43h189l145 33
l22 -14l-93 -383q-5 -21 -5.5 -33t8.5 -19t29.5 -9.5t57.5 -4.5l5 -27q-47 -26 -87 -39t-82 -13q-33 0 -53.5 9t-30 25.5t-10 40t6.5 53.5l74 308h-188l-51 -302q-11 -62 -24.5 -109t-31 -84t-40 -64.5t-50.5 -50.5q-41 -33 -77 -46.5t-76 -13.5q-42 0 -70 22t-27 55
q1 29 21 51t51 22q32 0 62.5 -19t49.5 -52q7 15 15.5 48.5t19.5 101.5l74 441h-195zM576 660q-23 12 -43.5 37.5t-34.5 67.5q-29 -3 -55.5 -17.5t-49.5 -42t-40.5 -70.5t-27.5 -103l-6 -37h195l3 13q23 94 59 152z" />
    <glyph glyph-name="f_f_j" unicode="ffj" horiz-adv-x="1061" 
d="M997 528l22 -14l-73 -394q-11 -62 -25 -109.5t-31.5 -84t-39.5 -64.5t-50 -50q-41 -33 -77 -46.5t-76 -13.5q-41 0 -69 22t-27 55q1 29 21 51t50 22q32 0 62.5 -19t49.5 -52q7 14 15.5 47.5t20.5 101.5l75 442h-189l-51 -302q-11 -62 -24.5 -109t-31 -84t-40 -64.5
t-50.5 -50.5q-41 -33 -77 -46.5t-76 -13.5q-42 0 -70 22t-27 55q1 29 21 51t51 22q32 0 62.5 -19t49.5 -52q7 15 15.5 48.5t19.5 101.5l74 441h-195l-52 -302q-21 -117 -56.5 -189.5t-92.5 -116.5q-42 -33 -86 -47t-83 -14q-51 0 -81.5 23.5t-30.5 60.5q0 14 5.5 28t15 25
t23 17.5t30.5 6.5q35 0 69.5 -22.5t58.5 -64.5q7 7 14 20.5t14 35.5t14 55.5t15 81.5l69 402h-122l10 42l127 45l1 5q21 85 61.5 145.5t100.5 100.5q47 32 96 48t114 16q53 0 90.5 -14t57.5 -37q3 3 6 5t7 4q42 25 87 38.5t103 13.5q78 0 123.5 -28.5t45.5 -73.5
q0 -31 -22 -54t-57 -23q-17 0 -35.5 6t-36.5 19.5t-33.5 36.5t-27.5 58q-29 -3 -55.5 -17t-49 -41.5t-40 -71.5t-28.5 -107l-8 -43h184zM576 660q-23 12 -43.5 37.5t-34.5 67.5q-29 -3 -55.5 -17.5t-49.5 -42t-40.5 -70.5t-27.5 -103l-6 -37h195l3 13q23 94 59 152z" />
    <glyph glyph-name="f_f_k" unicode="ffk" horiz-adv-x="1313" 
d="M855 495l39 182q-21 13 -39 35.5t-32 57.5q-48 -11 -88.5 -65t-58.5 -165l-8 -45h187zM576 660q-24 12 -44 37.5t-34 67.5q-29 -3 -55.5 -17.5t-49.5 -42t-40.5 -70.5t-27.5 -103l-6 -37h195l3 13q23 94 59 152zM840 422h-184l-51 -302q-11 -62 -24.5 -109t-31 -84
t-40 -64.5t-50.5 -50.5q-41 -33 -77 -46.5t-76 -13.5q-42 0 -70 22t-27 55q1 29 21 51t51 22q32 0 62.5 -19t49.5 -52q7 15 15.5 48.5t19.5 101.5l74 441h-195l-52 -302q-21 -117 -56.5 -189.5t-92.5 -116.5q-42 -33 -86 -47t-83 -14q-51 0 -81.5 23.5t-30.5 60.5
q0 14 5.5 28t15 25t23 17.5t30.5 6.5q35 0 69.5 -22.5t58.5 -64.5q7 7 14 20.5t14 35.5t14 55.5t15 81.5l69 402h-122l10 42l127 45l1 5q21 85 61.5 145.5t100.5 100.5q47 32 96 48t114 16q52 0 89.5 -13t57.5 -36q2 2 5.5 4.5t7.5 4.5q82 50 183 50q29 0 52.5 -7t40.5 -18
l82 21l22 -14l-114 -530q50 9 91.5 29t76.5 47q-24 32 -24 70q0 18 6.5 35.5t18.5 30.5t29 21t37 8q22 0 39.5 -7.5t28.5 -19.5t17 -27.5t6 -31.5q0 -23 -9.5 -45.5t-33.5 -43t-66 -39t-108 -34.5l-1 -10q45 -8 65 -22.5t31 -41.5q11 -29 15 -49.5t11 -46.5q4 -15 9 -24
t14.5 -13.5t25.5 -5.5t42 0l6 -27q-14 -11 -33 -20.5t-40 -16.5t-42.5 -11.5t-40.5 -4.5q-42 0 -62 20t-28 71q-8 50 -15 80.5t-17 48t-24 24.5t-35 11l-51 -241h-156z" />
    <glyph glyph-name="f_f_l" unicode="ffl" horiz-adv-x="1073" 
d="M855 495l39 182q-21 13 -39 35.5t-32 57.5q-48 -11 -88.5 -65t-58.5 -165l-8 -45h187zM307 422l-52 -302q-21 -117 -56.5 -189.5t-92.5 -116.5q-42 -33 -86 -47t-83 -14q-51 0 -81.5 23.5t-30.5 60.5q0 14 5.5 28t15 25t23 17.5t30.5 6.5q35 0 69.5 -22.5t58.5 -64.5
q7 7 14 20.5t14 35.5t14 55.5t15 81.5l69 402h-122l10 42l127 45l1 5q21 85 61.5 145.5t100.5 100.5q47 32 96 48t114 16q52 0 89.5 -13t57.5 -36q2 2 5.5 4.5t7.5 4.5q82 50 183 50q29 0 52.5 -7t40.5 -18l82 21l22 -14l-147 -685q-5 -21 -5.5 -33t8.5 -18.5t28.5 -9.5
t55.5 -5l5 -27q-42 -24 -83 -38t-81 -14q-65 0 -83 34.5t-5 93.5l66 308h-184l-51 -302q-11 -62 -24.5 -109t-31 -84t-40 -64.5t-50.5 -50.5q-41 -33 -77 -46.5t-76 -13.5q-42 0 -70 22t-27 55q1 29 21 51t51 22q32 0 62.5 -19t49.5 -52q7 15 15.5 48.5t19.5 101.5l74 441
h-195zM576 660q-24 12 -44 37.5t-34 67.5q-29 -3 -55.5 -17.5t-49.5 -42t-40.5 -70.5t-27.5 -103l-6 -37h195l3 13q23 94 59 152z" />
    <glyph glyph-name=".notdef" horiz-adv-x="500" 
 />
    <glyph glyph-name="NUL" horiz-adv-x="0" 
 />
    <glyph glyph-name="nonmarkingreturn" horiz-adv-x="242" 
 />
    <glyph glyph-name="space" unicode=" " horiz-adv-x="242" 
 />
    <glyph glyph-name="D" unicode="D" horiz-adv-x="816" 
d="M-17 40l105 26l121 570l-94 25l8 40h283q196 0 289.5 -69t93.5 -209q0 -85 -29 -161.5t-90.5 -134.5t-156 -92.5t-225.5 -34.5h-314zM327 60q71 4 122.5 42.5t85.5 94.5t50 121.5t16 123.5q0 88 -39 138t-127 59l-42 4l-125 -586z" />
    <glyph glyph-name="E" unicode="E" horiz-adv-x="723" 
d="M-17 40l105 26l121 570l-94 25l8 40h612l-44 -232l-32 -6l-45 99q-10 22 -19.5 36.5t-23 23t-31.5 12.5t-44 5l-103 4l-56 -264h32q25 0 41.5 3t29 12t23 25t23.5 41l18 34h36l-62 -293h-32l-5 33q-5 27 -9.5 44t-13 26.5t-23 13t-38.5 3.5h-33l-55 -262l124 6
q25 1 44.5 5.5t37 13t34.5 21.5t36 30l101 96l28 -5l-59 -226h-641z" />
    <glyph glyph-name="F" unicode="F" horiz-adv-x="685" 
d="M-17 40l105 26l121 570l-94 25l8 40h614l-45 -232l-32 -6l-45 99q-10 21 -19.5 35.5t-22.5 23.5t-31 13t-45 5l-104 4l-59 -280h38q22 0 39 4t30 13.5t24 25t23 38.5l19 36h35l-62 -294h-32l-6 32q-5 25 -10 41.5t-14 26.5t-22.5 14t-35.5 4h-39l-50 -240l100 -24l-8 -40
h-389z" />
    <glyph glyph-name="G" unicode="G" horiz-adv-x="780" 
d="M346 -17q-63 0 -115 22t-89.5 61t-58 94t-20.5 121q0 87 32 165.5t89.5 138.5t136.5 95.5t174 35.5q51 0 98.5 -9.5t82.5 -25.5l47 40h42l-44 -264l-48 -2q-29 96 -68.5 147.5t-100.5 51.5q-37 0 -69.5 -17.5t-59.5 -47t-48 -68.5t-35 -82t-21.5 -87.5t-7.5 -84.5
q0 -55 14 -93t38 -62t54.5 -34.5t63.5 -10.5q26 0 48 7l43 195l-92 26l9 39h336l-8 -39l-77 -26l-59 -275l-38 -4l-70 48q-38 -26 -83 -40.5t-96 -14.5z" />
    <glyph glyph-name="H" unicode="H" horiz-adv-x="879" 
d="M-17 40l105 26l121 570l-94 25l8 40h369l-9 -40l-92 -27l-50 -237h252l51 239l-80 25l8 40h369l-9 -40l-106 -27l-121 -570l95 -24l-8 -40h-369l8 40l92 26l56 264h-253l-55 -266l80 -24l-8 -40h-369z" />
    <glyph glyph-name="I" unicode="I" horiz-adv-x="468" 
d="M-6 40l106 26l120 570l-94 25l8 40h383l-9 -40l-106 -27l-120 -570l94 -24l-8 -40h-383z" />
    <glyph glyph-name="J" unicode="J" horiz-adv-x="598" 
d="M177 -19q-52 0 -89 11t-61 29.5t-35 42.5t-11 49q0 45 26 75t70 30q27 0 47.5 -14t31 -38.5t10.5 -57.5t-15 -71q49 -3 79.5 27.5t47.5 110.5l97 461l-94 25l8 40h381l-9 -40l-103 -27l-85 -398q-14 -63 -35.5 -106t-56.5 -75q-42 -39 -93 -56.5t-111 -17.5z" />
    <glyph glyph-name="K" unicode="K" horiz-adv-x="806" 
d="M-17 40l105 26l121 570l-94 25l8 40h368l-8 -40l-92 -27l-53 -252h55l235 244l-68 45l6 30h297l-9 -40l-115 -45l-224 -206l159 -333l80 -37l-9 -40h-329l6 30l63 26l-107 256h-55l-52 -248l80 -24l-9 -40h-368z" />
    <glyph glyph-name="L" unicode="L" horiz-adv-x="684" 
d="M-17 40l105 26l121 570l-94 25l8 40h383l-9 -40l-106 -27l-121 -575l86 4q23 1 43 6.5t39 16.5t38 27.5t40 39.5l100 107l29 -4l-70 -256h-601z" />
    <glyph glyph-name="M" unicode="M" horiz-adv-x="1070" 
d="M-15 40l105 36l119 560l-92 25l9 40h334l13 -114l41 -377h14l205 379l58 112h341l-9 -40l-106 -27l-121 -570l95 -24l-8 -40h-366l9 40l92 26l111 522h-16l-320 -588h-110l-83 588h-14l-108 -514l87 -34l-9 -40h-280z" />
    <glyph glyph-name="N" unicode="N" horiz-adv-x="855" 
d="M493 115l-201 423h-12l-97 -461l86 -37l-8 -40h-278l8 40l104 39l116 548l-82 34l9 40h281l53 -121l154 -336h13l80 379l-87 38l9 40h278l-9 -40l-104 -39l-133 -629h-126z" />
    <glyph glyph-name="O" unicode="O" horiz-adv-x="811" 
d="M375 -16q-81 0 -139.5 22.5t-96.5 62t-56.5 94t-18.5 118.5q0 79 29.5 157t83 140t128.5 100.5t167 38.5q81 0 139.5 -22.5t96.5 -62t56.5 -94.5t18.5 -119q0 -79 -29.5 -157t-83.5 -139.5t-129 -100t-166 -38.5zM372 43q37 0 67.5 21.5t55 57.5t43 82.5t31 96.5
t18.5 99.5t6 92.5q0 82 -32 123t-86 41q-37 0 -67.5 -21.5t-55 -57.5t-43 -82.5t-31 -96t-18.5 -99.5t-6 -92q0 -82 32 -123.5t86 -41.5z" />
    <glyph glyph-name="P" unicode="P" horiz-adv-x="709" 
d="M-17 40l105 26l121 570l-94 25l8 40h330q144 0 207.5 -48t63.5 -135q0 -47 -20 -90t-59 -75t-97 -51t-135 -19q-25 0 -50 2t-45 4l-47 -225l106 -24l-8 -40h-395zM362 346q47 0 80.5 16.5t54.5 43t31 60t10 67.5q0 55 -25.5 80t-89.5 30q-2 0 -15 0.5t-15 0.5l-63 -298
h32z" />
    <glyph glyph-name="Q" unicode="Q" horiz-adv-x="811" 
d="M486 -193q-59 0 -95 7t-57 29q-13 12 -23.5 34t-24.5 69l-17 53q-53 13 -91 40t-63.5 64t-37.5 83t-12 99q0 78 29.5 155t82.5 138.5t128 100t167 38.5q81 0 139.5 -22.5t96.5 -62t56.5 -94.5t18.5 -119q0 -69 -23.5 -138t-66 -127t-103 -100t-135.5 -58q15 -39 31.5 -63
t36.5 -41q25 -20 53.5 -30t69.5 -17l-17 -38h-143zM372 43q37 0 67.5 21.5t55 57.5t43 82.5t31 96.5t18.5 99.5t6 92.5q0 82 -32 123t-86 41q-37 0 -67.5 -21.5t-55 -57.5t-43 -82.5t-31 -96t-18.5 -99.5t-6 -92q0 -82 32 -123.5t86 -41.5z" />
    <glyph glyph-name="R" unicode="R" horiz-adv-x="765" 
d="M-17 40l105 26l121 570l-94 25l8 40h366q128 0 189.5 -41.5t61.5 -120.5q0 -34 -12.5 -65.5t-40.5 -57.5t-74.5 -44.5t-113.5 -24.5l-5 -16q34 -9 57 -20.5t37.5 -27t22 -37t12.5 -50.5q8 -42 15.5 -69.5t19.5 -44.5q11 -16 28 -25.5t43 -16.5l-8 -40h-144q-31 0 -51 6.5
t-32.5 20.5t-20 37.5t-13.5 58.5l-19 104q-9 46 -31 63t-72 17h-16l-51 -243l93 -24l-8 -40h-382zM386 366q44 2 75.5 18.5t52 41t30 55t9.5 59.5q0 52 -28 76t-99 26h-33l-60 -278z" />
    <glyph glyph-name="S" unicode="S" horiz-adv-x="621" 
d="M50 246l48 2q26 -112 76 -158.5t118 -46.5q54 0 84 31.5t30 76.5q0 23 -8 40.5t-24 33.5t-41 31t-59 34q-30 16 -58.5 34.5t-50.5 42t-35.5 55t-13.5 74.5q0 46 19 86t52.5 70t80 47t101.5 17q49 0 89 -11.5t75 -32.5l42 43l40 -1l-31 -229l-48 -4q-27 91 -65 132t-96 41
q-45 0 -72.5 -27.5t-27.5 -74.5q0 -22 7 -37.5t22.5 -29.5t40.5 -29t61 -34q31 -17 59 -34.5t49.5 -40.5t34 -53t12.5 -71q0 -53 -20 -97t-55.5 -75.5t-84.5 -48.5t-107 -17q-60 0 -114 13.5t-92 33.5l-39 -43h-41z" />
    <glyph glyph-name="T" unicode="T" horiz-adv-x="763" 
d="M135 40l113 26l122 579l-30 -1q-14 0 -25 -3t-26 -13.5t-35.5 -30t-52.5 -52.5l-105 -110l-31 5l77 261h651l-19 -261l-32 -5l-59 110q-16 30 -28.5 49t-24 30t-24.5 15t-29 5l-25 1l-122 -581l102 -24l-9 -40h-396z" />
    <glyph glyph-name="U" unicode="U" horiz-adv-x="817" 
d="M389 -17q-169 0 -231.5 83t-28.5 238l70 332l-94 25l9 40h383l-9 -40l-106 -27l-81 -376q-18 -88 14 -138.5t115 -50.5q42 0 73.5 15t54 40.5t37 57.5t21.5 67l80 377l-75 35l9 40h261l-8 -40l-98 -37l-88 -410q-11 -50 -35.5 -92t-63 -73t-91 -48.5t-118.5 -17.5z" />
    <glyph glyph-name="V" unicode="V" horiz-adv-x="782" 
d="M172 631l-87 30l8 40h391l-9 -40l-112 -27l73 -459l240 443l-80 43l9 40h272l-9 -40l-95 -46l-370 -622h-109z" />
    <glyph glyph-name="W" unicode="W" horiz-adv-x="1108" 
d="M177 630l-88 31l8 40h355l-6 -35l-76 -26l16 -439l205 364l-9 70l-64 31l7 35h326l-6 -35l-76 -31l34 -436l202 424l-65 43l6 35h246l-7 -40l-86 -44l-334 -624h-107l-54 460l-264 -460h-106z" />
    <glyph glyph-name="X" unicode="X" horiz-adv-x="800" 
d="M-13 40l87 29l265 260l-148 307l-81 25l9 40h362l-8 -35l-82 -21l80 -205l175 197l-69 29l8 35h274l-9 -40l-90 -30l-255 -249l153 -317l81 -25l-9 -40h-357l8 34l77 23l-86 215l-183 -208l67 -30l-7 -34h-271z" />
    <glyph glyph-name="Y" unicode="Y" horiz-adv-x="768" 
d="M158 40l102 32l47 219l-114 333l-84 37l8 40h363l-8 -35l-87 -32l82 -260l181 254l-68 38l8 35h252l-8 -40l-88 -41l-258 -322l-48 -226l90 -32l-8 -40h-370z" />
    <glyph glyph-name="Z" unicode="Z" horiz-adv-x="713" 
d="M-18 31l541 604l-143 -3q-21 0 -39 -4t-36 -14t-37.5 -26.5t-44.5 -42.5l-81 -85l-30 6l68 235h574l-2 -32l-535 -605l167 3q22 0 40.5 5t36 15t35 26t37.5 39l100 113l28 -4l-74 -261h-606z" />
    <glyph glyph-name="a" unicode="a" horiz-adv-x="629" 
d="M164 -14q-29 0 -53.5 11t-43 31t-29 48.5t-10.5 63.5q0 58 16 109t43 94t63 76.5t75 57t79 36t76 12.5q34 0 59 -7t57 -21l63 48l34 -13l-86 -399q-5 -22 -5.5 -34.5t7.5 -19.5t26.5 -9.5t52.5 -4.5l5 -27q-40 -24 -80 -38t-81 -14q-53 0 -70.5 26t-13.5 66l-11 3
q-48 -47 -87 -71t-86 -24zM258 103q23 0 47 9.5t47 23.5l54 253q-20 30 -42 46.5t-42 16.5q-29 0 -52.5 -29t-40.5 -70t-26 -86t-9 -77q0 -48 17 -67.5t47 -19.5z" />
    <glyph glyph-name="b" unicode="b" horiz-adv-x="627" 
d="M229 -14q-56 0 -104 12t-90 30l143 672l-83 46l4 33l239 51l22 -14l-81 -375l11 -2q37 39 76 62.5t88 23.5q30 0 56 -12t44.5 -34t29.5 -53.5t11 -69.5q0 -78 -30 -145.5t-80 -117.5t-116.5 -78.5t-139.5 -28.5zM303 59q31 0 54.5 28t39 68t23 85t7.5 78q0 94 -70 94
q-23 0 -46.5 -9t-44.5 -23l-56 -267q42 -54 93 -54z" />
    <glyph glyph-name="c" unicode="c" horiz-adv-x="529" 
d="M251 -15q-47 0 -86.5 14t-68 41t-44.5 66.5t-16 91.5q0 62 25.5 121t69.5 104.5t103 73.5t127 28q38 0 67 -9.5t48.5 -26t29.5 -38.5t10 -47q0 -36 -22.5 -60t-54.5 -24q-42 0 -63 27.5t-21 71.5q0 30 7 57q-30 -4 -58 -25t-50.5 -56t-36 -81t-13.5 -99q0 -62 31.5 -95
t85.5 -33q16 0 30 2.5t28.5 8t30.5 14t36 21.5l20 -20q-33 -57 -86 -92.5t-129 -35.5z" />
    <glyph glyph-name="d" unicode="d" horiz-adv-x="653" 
d="M169 -14q-30 0 -55.5 12t-44.5 34t-30 53t-11 70q0 77 30 144.5t80.5 117.5t116.5 79t139 29q14 0 25.5 -1t21.5 -2l37 178l-83 46l5 33l238 51l22 -14l-146 -683q-5 -22 -5.5 -34.5t7.5 -19.5t26.5 -9.5t52.5 -4.5l5 -27q-39 -24 -79.5 -38t-81.5 -14q-53 0 -70 26
t-14 66l-11 3q-46 -48 -85.5 -71.5t-89.5 -23.5zM265 103q24 0 47.5 10t46.5 24l55 259q-43 56 -93 56q-31 0 -54.5 -28t-39 -68.5t-23 -85.5t-7.5 -78q0 -47 18 -68t50 -21z" />
    <glyph glyph-name="e" unicode="e" horiz-adv-x="544" 
d="M188 272q56 5 94.5 18.5t62 33t33.5 44.5t10 52q0 23 -11 36.5t-34 13.5q-21 0 -45.5 -15t-46 -42t-39 -63t-24.5 -78zM184 223q0 -70 35.5 -102.5t103.5 -32.5q33 0 67 11.5t67 31.5l20 -20q-38 -59 -93.5 -92t-130.5 -33q-54 0 -94.5 15.5t-68 42.5t-41.5 63.5
t-14 78.5q0 70 26.5 132t71 108t102.5 72.5t122 26.5q81 0 125 -35.5t44 -89.5q0 -46 -26.5 -80t-73 -56.5t-108.5 -32.5t-134 -8z" />
    <glyph glyph-name="f" unicode="f" horiz-adv-x="411" 
d="M-63 -247q-51 0 -81.5 23.5t-30.5 60.5q0 14 5.5 28t15 25t23 17.5t30.5 6.5q35 0 69.5 -22.5t58.5 -64.5q7 7 14 20.5t14 35.5t14 55.5t15 81.5l69 402h-122l10 42l127 45l3 12q21 87 60 149.5t102 105.5q41 27 81.5 40.5t87.5 13.5q56 0 86.5 -23t30.5 -61
q0 -32 -20.5 -55t-58.5 -23q-30 0 -66.5 21t-65.5 69q-12 -8 -22.5 -23.5t-21 -42.5t-20.5 -67.5t-20 -100.5l-5 -29h144l-16 -73h-140l-52 -302q-21 -117 -56.5 -189.5t-92.5 -116.5q-43 -33 -86.5 -47t-82.5 -14z" />
    <glyph glyph-name="g" unicode="g" horiz-adv-x="582" 
d="M120 7q-33 -35 -33 -78q0 -27 13 -49.5t36 -38.5t54.5 -24.5t69.5 -8.5q44 0 68.5 18.5t24.5 50.5q0 18 -10 34.5t-36 32.5t-71.5 31.5t-115.5 31.5zM297 474q-28 0 -51 -23q-25 -25 -37.5 -66t-12.5 -82q0 -98 64 -98q15 0 27.5 6t23.5 17q24 25 37 66t13 82
q0 98 -64 98zM167 172q-57 17 -88.5 55t-31.5 90q0 43 20 81t55 66t82.5 44.5t103.5 16.5q48 0 86.5 -13t64.5 -36l101 56h76l-23 -112h-31l-81 27l-7 -11q17 -31 17 -69q0 -43 -20 -80.5t-55 -65.5t-82.5 -44.5t-103.5 -16.5h-15t-15 2q-2 -18 -1 -29.5t8 -19t20.5 -12
t36.5 -10.5q59 -14 98.5 -30t63.5 -35t34 -40t10 -44q0 -35 -16.5 -68.5t-51.5 -60t-90.5 -43t-133.5 -16.5q-65 0 -112.5 11t-78.5 30t-46 44t-15 54q0 48 43 90t131 64z" />
    <glyph glyph-name="h" unicode="h" horiz-adv-x="651" 
d="M460 -14q-50 0 -71.5 20.5t-21.5 58.5q0 12 2 25t5 27l46 194q12 51 1.5 76t-47.5 25q-44 0 -110 -44l-78 -368h-157l149 700l-83 46l4 33l239 51l22 -14l-82 -384l11 -2q53 45 95.5 70t90.5 25q39 0 64 -16.5t37 -44t12.5 -64.5t-9.5 -79l-45 -190q-5 -21 -5.5 -33
t8 -19t27 -9.5t52.5 -4.5l5 -27q-40 -24 -80.5 -38t-80.5 -14z" />
    <glyph glyph-name="i" unicode="i" horiz-adv-x="368" 
d="M256 616q-33 0 -54.5 21.5t-21.5 62.5q0 22 8 44.5t23 41t36 30t46 11.5q32 0 53.5 -21.5t21.5 -62.5q0 -22 -8 -44.5t-23 -41t-35.5 -30t-45.5 -11.5zM152 -14q-33 0 -53.5 9t-30.5 25.5t-10 40t7 53.5l69 284l-85 47l4 32l244 51l22 -14l-93 -383q-5 -21 -5.5 -33
t8.5 -19t29.5 -9.5t57.5 -4.5l5 -27q-48 -26 -87.5 -39t-81.5 -13z" />
    <glyph glyph-name="j" unicode="j" horiz-adv-x="350" 
d="M255 616q-32 0 -53.5 21.5t-21.5 62.5q0 22 8 44.5t23 41t35.5 30t45.5 11.5q33 0 54.5 -21.5t21.5 -62.5q0 -22 -8 -44.5t-23 -41t-36 -30t-46 -11.5zM-77 -247q-51 0 -81 22.5t-30 60.5q0 29 20.5 52t53.5 23q35 0 69 -21t55 -61q6 7 12.5 19.5t13.5 34.5t15 55.5
t17 81.5l71 378l-90 47l4 32l239 51l22 -14l-74 -394q-12 -62 -26.5 -108.5t-32.5 -82.5t-40.5 -63.5t-50.5 -49.5q-42 -33 -84.5 -48t-82.5 -15z" />
    <glyph glyph-name="k" unicode="k" horiz-adv-x="593" 
d="M417 -14q-42 0 -62 20t-28 71q-8 50 -14.5 80.5t-16.5 48t-24 24.5t-35 11l-51 -241h-157l149 700l-83 46l4 33l239 51l22 -14l-114 -530q50 9 91.5 29t77.5 47q-25 31 -25 70q0 18 6.5 35.5t18.5 30.5t29 21t37 8q22 0 39.5 -7.5t28.5 -19.5t17 -27.5t6 -31.5
q0 -23 -9 -45.5t-33.5 -43t-66.5 -39t-108 -34.5l-1 -10q45 -8 65 -22.5t31 -41.5q11 -29 15 -49.5t11 -46.5q4 -15 9 -24t15 -13.5t26 -5.5t42 0l6 -27q-15 -11 -34 -20.5t-40 -16.5t-42.5 -11.5t-40.5 -4.5z" />
    <glyph glyph-name="l" unicode="l" horiz-adv-x="357" 
d="M146 -14q-65 0 -83.5 34.5t-4.5 93.5l125 586l-83 46l4 33l238 51l22 -14l-146 -685q-5 -21 -5.5 -33t8.5 -18.5t28.5 -9.5t55.5 -5l5 -27q-42 -24 -83 -38t-81 -14z" />
    <glyph glyph-name="m" unicode="m" horiz-adv-x="970" 
d="M778 -14q-50 0 -71.5 20.5t-21.5 58.5q1 12 2.5 25t4.5 27l46 194q24 101 -42 101q-18 0 -45.5 -11t-59.5 -33l-79 -368h-157l68 319q18 93 -44 93q-18 0 -45.5 -11t-60.5 -33l-78 -368h-157l85 398l-77 47l4 32l229 51l22 -14l-32 -98l11 -2q57 51 104 81t98 30
q49 0 75.5 -30.5t31.5 -75.5l11 -2q55 49 102 78.5t97 29.5q38 0 61.5 -17t35 -45.5t11 -65.5t-9.5 -76l-45 -190q-5 -21 -5.5 -33t8 -19t27 -9.5t52.5 -4.5l5 -27q-40 -24 -80.5 -38t-80.5 -14z" />
    <glyph glyph-name="n" unicode="n" horiz-adv-x="660" 
d="M469 -14q-50 0 -71.5 20.5t-20.5 58.5q0 25 7 52l45 194q12 51 1.5 76t-47.5 25q-44 0 -110 -44l-78 -368h-157l85 398l-77 47l4 32l229 51l22 -14l-32 -98l11 -2q57 51 105 81t99 30q39 0 64 -16.5t37 -44t12.5 -64.5t-9.5 -79l-45 -190q-5 -21 -5.5 -33t8 -19t27 -9.5
t52.5 -4.5l5 -27q-40 -24 -80.5 -38t-80.5 -14z" />
    <glyph glyph-name="o" unicode="o" horiz-adv-x="608" 
d="M249 -14q-46 0 -85 13.5t-67.5 39.5t-44.5 65.5t-16 90.5q0 64 24.5 123.5t68 105.5t103 73.5t128.5 27.5q46 0 84.5 -13.5t67 -40t44.5 -66t16 -90.5q0 -64 -24.5 -123.5t-67.5 -105t-102.5 -73t-128.5 -27.5zM271 42q22 0 41 16t34 42.5t26.5 60t19.5 68.5t12 68t4 59
q0 53 -17.5 82.5t-52.5 29.5q-33 0 -59 -34.5t-43 -84t-26 -103t-9 -92.5q0 -52 17 -82t53 -30z" />
    <glyph glyph-name="p" unicode="p" horiz-adv-x="636" 
d="M-72 -196l75 31l120 563l-77 47l4 32l229 51l22 -14l-30 -91l11 -2q21 23 42 42.5t42.5 33t45.5 21t52 7.5q30 0 55.5 -12t44.5 -34t30 -53.5t11 -69.5q0 -78 -30 -145.5t-80.5 -117.5t-116.5 -78.5t-139 -28.5q-28 0 -47 3l-33 -154l74 -32l-7 -35h-306zM312 59
q31 0 54.5 28t39 68t23 85t7.5 78q0 47 -18 68t-50 21q-24 0 -47.5 -9.5t-46.5 -24.5l-55 -260q42 -54 93 -54z" />
    <glyph glyph-name="q" unicode="q" horiz-adv-x="631" 
d="M218 -197l77 32l51 236l-11 3q-36 -40 -75.5 -64t-90.5 -24q-30 0 -55.5 12t-44.5 34t-30 53t-11 70q0 77 30 144.5t80 117.5t115 79t134 29q33 0 59 -6t58 -20l62 46l34 -13l-148 -697l72 -31l-8 -36h-305zM266 98q23 0 46 10t46 24l56 265q-43 55 -93 55
q-31 0 -54.5 -28t-39 -68.5t-23 -85.5t-7.5 -78q0 -47 16.5 -70.5t52.5 -23.5z" />
    <glyph glyph-name="r" unicode="r" horiz-adv-x="508" 
d="M123 398l-77 47l4 32l222 51l22 -14l-34 -121l12 -2q25 37 45 62.5t38.5 41.5t37 23t40.5 7q44 0 66 -26.5t22 -61.5q0 -44 -25.5 -71.5t-63.5 -27.5q-63 0 -89 62q-14 -8 -37 -27t-40 -40l-73 -333h-155z" />
    <glyph glyph-name="s" unicode="s" horiz-adv-x="509" 
d="M229 -14q-47 0 -87.5 8.5t-70 24.5t-46 38.5t-16.5 50.5q0 33 21 56t50 23q35 0 61.5 -32.5t27.5 -91.5q23 -12 42 -17.5t40 -5.5q31 0 48.5 18.5t17.5 49.5q0 25 -17 42.5t-64 39.5l-46 21q-52 22 -83.5 52.5t-31.5 83.5q0 33 15 65t44 57t72 40.5t100 15.5
q42 0 75 -9.5t56.5 -24.5t35.5 -35t12 -41q0 -34 -19 -52t-47 -18q-38 0 -65 32t-33 82q-21 9 -46 9q-29 0 -47 -19.5t-18 -43.5t17 -40t61 -37l46 -22q56 -27 86.5 -57t30.5 -84q0 -32 -13.5 -64t-40.5 -57.5t-69 -41.5t-99 -16z" />
    <glyph glyph-name="t" unicode="t" horiz-adv-x="442" 
d="M178 -14q-44 0 -66.5 16.5t-30.5 42t-5 56.5t9 60l56 261h-98l8 40l131 70l118 135l48 -8l-34 -162h152l-16 -75h-152l-50 -232q-10 -45 -9 -64.5t11 -28.5q9 -9 29 -15t65 -6q28 0 54 3v-38q-57 -24 -110 -39.5t-110 -15.5z" />
    <glyph glyph-name="u" unicode="u" horiz-adv-x="663" 
d="M176 -14q-39 0 -64 16.5t-37 44t-12.5 64.5t9.5 79l49 211l-72 44l4 32l229 51l22 -14l-73 -315q-12 -51 -1.5 -76t47.5 -25q42 0 110 44l55 258l-71 45v32l231 51l22 -14l-83 -381q-5 -22 -5.5 -34.5t7.5 -19.5t27 -9.5t52 -4.5l5 -27q-39 -24 -79.5 -38t-81.5 -14
q-28 0 -45.5 8t-26.5 22t-11.5 32.5t0.5 38.5l-11 3q-51 -46 -98 -75t-98 -29z" />
    <glyph glyph-name="v" unicode="v" horiz-adv-x="622" 
d="M188 -5l14 41q-10 115 -24.5 194.5t-28.5 124.5q-9 27 -18.5 37t-27.5 10q-11 0 -29 -4t-39 -11l-15 24q45 49 89.5 81.5t92.5 32.5q33 0 52.5 -14t31.5 -45q17 -40 31 -122t20 -205l9 -2q38 41 68 82t53 86q-24 27 -35 59t-11 59q0 49 25.5 76.5t63.5 27.5
q39 0 62.5 -26t23.5 -69q0 -45 -19.5 -92.5t-63.5 -102t-114 -119.5t-170 -146z" />
    <glyph glyph-name="w" unicode="w" horiz-adv-x="870" 
d="M172 -8l19 51q-3 59 -7.5 104.5t-9.5 82.5t-11.5 67t-14.5 58q-8 27 -17.5 37t-27.5 10q-11 0 -29 -4t-39 -11l-15 24q45 49 90 81.5t91 32.5q31 0 49.5 -13.5t30.5 -45.5q16 -40 28 -120t17 -195l10 -3q29 34 54 68t45 70l-16 86t-16 87l133 65h12q11 -89 25 -184.5
t30 -195.5l9 -2q35 38 60 78t45 85q-26 29 -36.5 60.5t-10.5 57.5q0 49 25.5 76.5t63.5 27.5q40 0 63 -26t23 -70q0 -45 -20 -93t-61.5 -103t-106 -120t-154.5 -145l-38 20l16 49q-8 38 -15 79t-15 83q-39 -48 -96 -103.5t-145 -125.5z" />
    <glyph glyph-name="x" unicode="x" horiz-adv-x="583" 
d="M78 -13q-39 0 -65 23.5t-26 60.5q0 35 19.5 60t59.5 25q43 0 78 -35q15 8 37 33.5t42 66.5q-11 42 -23.5 83.5t-24.5 70.5q-8 18 -16.5 28t-21 14.5t-31 3.5t-46.5 -4l-10 26q44 38 82 60t80 22q27 0 45.5 -9t31 -30t22 -54t19.5 -81l9 -1q31 85 69.5 130t92.5 45
q39 0 65 -23.5t26 -60.5q0 -35 -20 -59.5t-59 -24.5q-21 0 -41 9t-37 26q-15 -8 -36 -33t-41 -63q11 -42 24 -85.5t26 -73.5q7 -18 15.5 -28t21 -14t31 -3t46.5 4l10 -27q-44 -38 -81.5 -59.5t-80.5 -21.5q-28 0 -46.5 9.5t-31 31t-22 55.5t-18.5 83l-10 2
q-31 -87 -70 -134.5t-94 -47.5z" />
    <glyph glyph-name="y" unicode="y" horiz-adv-x="600" 
d="M80 -245q-24 0 -45.5 6t-37.5 18.5t-25.5 31.5t-9.5 45q0 11 4.5 25t14 27t25.5 21.5t40 8.5q30 0 54 -24.5t32 -78.5q27 18 57 53t52 71q-27 148 -48.5 242t-39.5 146q-12 34 -23.5 43t-27.5 9q-14 0 -31 -4.5t-37 -12.5l-15 24q46 53 90.5 86t91.5 33q34 0 53.5 -14
t32.5 -47q8 -21 17.5 -57t19 -83t18 -101.5t14.5 -111.5h11q13 42 25 85.5t23 94t22 109t23 130.5h13l134 -62q-44 -93 -86 -181.5t-87 -169t-94 -152t-107 -132.5q-42 -45 -81.5 -61.5t-71.5 -16.5z" />
    <glyph glyph-name="z" unicode="z" horiz-adv-x="541" 
d="M364 -16q-19 0 -44 4t-67 16l-144 39l-101 -60l-29 33l397 363q-86 9 -136 13.5t-82 4.5q-9 0 -17 -0.5t-16 -1.5l-1 -11q30 -9 44 -30t14 -44q0 -26 -18 -47.5t-52 -21.5q-33 0 -54 19.5t-21 51.5q0 24 13 54t41 73q18 28 34 45.5t31 27.5t30 13t31 3q44 0 86 -9t87 -26
l67 -25l96 55l29 -33l-381 -348l138 -11q21 -2 36 0t29 9.5t29.5 22.5t37.5 41l26 -12q-23 -65 -40.5 -105.5t-32.5 -63.5t-29.5 -31t-30.5 -8z" />
    <glyph glyph-name="Aacute" unicode="&#xc1;" horiz-adv-x="781" 
d="M-45 40l92 33l360 634h137l100 -639l83 -28l-9 -40h-354l8 35l92 28l-22 161h-226l-81 -155l70 -34l-7 -35h-252zM435 284l-36 271h-11l-141 -271h188zM439 802q31 70 55.5 120.5t45.5 76.5q11 13 25.5 22.5t30.5 13t31 0.5t27 -13q25 -21 22 -52.5t-28 -58.5t-69 -57.5
t-113 -73.5z" />
    <glyph glyph-name="aacute" unicode="&#xe1;" horiz-adv-x="629" 
d="M164 -14q-29 0 -53.5 11t-43 31t-29 48.5t-10.5 63.5q0 58 16 109t43 94t63 76.5t75 57t79 36t76 12.5q34 0 59 -7t57 -21l63 48l34 -13l-86 -399q-5 -22 -5.5 -34.5t7.5 -19.5t26.5 -9.5t52.5 -4.5l5 -27q-40 -24 -80 -38t-81 -14q-53 0 -70.5 26t-13.5 66l-11 3
q-48 -47 -87 -71t-86 -24zM258 103q23 0 47 9.5t47 23.5l54 253q-20 30 -42 46.5t-42 16.5q-29 0 -52.5 -29t-40.5 -70t-26 -86t-9 -77q0 -48 17 -67.5t47 -19.5zM338 607q32 72 56.5 123t46.5 78q11 14 26 23.5t31 13t31.5 0.5t27.5 -13q26 -22 23 -54t-29 -59
q-26 -28 -70 -59t-115 -75z" />
    <glyph glyph-name="Abreve" unicode="&#x102;" horiz-adv-x="781" 
d="M-45 40l92 33l360 634h137l100 -639l83 -28l-9 -40h-354l8 35l92 28l-22 161h-226l-81 -155l70 -34l-7 -35h-252zM435 284l-36 271h-11l-141 -271h188zM503 787q-80 0 -116.5 54.5t-22.5 155.5l45 14q9 -51 36 -79t81 -28q42 0 76.5 27.5t60.5 79.5l44 -14
q-33 -114 -82.5 -162t-121.5 -48z" />
    <glyph glyph-name="abreve" unicode="&#x103;" horiz-adv-x="629" 
d="M164 -14q-29 0 -53.5 11t-43 31t-29 48.5t-10.5 63.5q0 58 16 109t43 94t63 76.5t75 57t79 36t76 12.5q34 0 59 -7t57 -21l63 48l34 -13l-86 -399q-5 -22 -5.5 -34.5t7.5 -19.5t26.5 -9.5t52.5 -4.5l5 -27q-40 -24 -80 -38t-81 -14q-53 0 -70.5 26t-13.5 66l-11 3
q-48 -47 -87 -71t-86 -24zM258 103q23 0 47 9.5t47 23.5l54 253q-20 30 -42 46.5t-42 16.5q-29 0 -52.5 -29t-40.5 -70t-26 -86t-9 -77q0 -48 17 -67.5t47 -19.5zM404 593q-81 0 -118.5 55.5t-23.5 158.5l46 14q10 -52 37 -80.5t82 -28.5q85 0 140 109l44 -14
q-34 -116 -84 -165t-123 -49z" />
    <glyph glyph-name="Acircumflex" unicode="&#xc2;" horiz-adv-x="781" 
d="M-45 40l92 33l360 634h137l100 -639l83 -28l-9 -40h-354l8 35l92 28l-22 161h-226l-81 -155l70 -34l-7 -35h-252zM435 284l-36 271h-11l-141 -271h188zM323 809l173 216h83l84 -216l-37 -29l-109 110l-169 -110z" />
    <glyph glyph-name="acircumflex" unicode="&#xe2;" horiz-adv-x="629" 
d="M164 -14q-29 0 -53.5 11t-43 31t-29 48.5t-10.5 63.5q0 58 16 109t43 94t63 76.5t75 57t79 36t76 12.5q34 0 59 -7t57 -21l63 48l34 -13l-86 -399q-5 -22 -5.5 -34.5t7.5 -19.5t26.5 -9.5t52.5 -4.5l5 -27q-40 -24 -80 -38t-81 -14q-53 0 -70.5 26t-13.5 66l-11 3
q-48 -47 -87 -71t-86 -24zM258 103q23 0 47 9.5t47 23.5l54 253q-20 30 -42 46.5t-42 16.5q-29 0 -52.5 -29t-40.5 -70t-26 -86t-9 -77q0 -48 17 -67.5t47 -19.5zM220 615l176 219h85l86 -219l-39 -30l-110 112l-172 -112z" />
    <glyph glyph-name="Adieresis" unicode="&#xc4;" horiz-adv-x="781" 
d="M-45 40l92 33l360 634h137l100 -639l83 -28l-9 -40h-354l8 35l92 28l-22 161h-226l-81 -155l70 -34l-7 -35h-252zM435 284l-36 271h-11l-141 -271h188zM626 793q-37 0 -60.5 24.5t-23.5 61.5q0 18 7 35t19.5 30t29.5 21t37 8q37 0 60.5 -24.5t23.5 -62.5q0 -18 -7 -35
t-19.5 -29.5t-29.5 -20.5t-37 -8zM387 793q-38 0 -61 24.5t-23 61.5q0 18 7 35t19 30t28.5 21t36.5 8q38 0 61 -24.5t23 -62.5q0 -18 -7 -35t-19 -29.5t-29 -20.5t-36 -8z" />
    <glyph glyph-name="adieresis" unicode="&#xe4;" horiz-adv-x="629" 
d="M164 -14q-29 0 -53.5 11t-43 31t-29 48.5t-10.5 63.5q0 58 16 109t43 94t63 76.5t75 57t79 36t76 12.5q34 0 59 -7t57 -21l63 48l34 -13l-86 -399q-5 -22 -5.5 -34.5t7.5 -19.5t26.5 -9.5t52.5 -4.5l5 -27q-40 -24 -80 -38t-81 -14q-53 0 -70.5 26t-13.5 66l-11 3
q-48 -47 -87 -71t-86 -24zM258 103q23 0 47 9.5t47 23.5l54 253q-20 30 -42 46.5t-42 16.5q-29 0 -52.5 -29t-40.5 -70t-26 -86t-9 -77q0 -48 17 -67.5t47 -19.5zM528 598q-38 0 -61.5 25t-23.5 63q0 18 7 35.5t19.5 30.5t30 21t37.5 8q38 0 62 -24.5t24 -62.5
q0 -18 -7 -35.5t-20 -31t-30 -21.5t-38 -8zM285 598q-38 0 -62 25t-24 63q0 18 7 35.5t19.5 30.5t29.5 21t37 8q38 0 62 -24.5t24 -62.5q0 -18 -7 -35.5t-19.5 -31t-29.5 -21.5t-37 -8z" />
    <glyph glyph-name="AE" unicode="&#xc6;" horiz-adv-x="1097" 
d="M-60 40l89 32l449 562l-108 27l9 40h731l-45 -232l-31 -6l-45 99q-10 22 -20 36.5t-23 23t-31 12.5t-44 5l-103 4l-57 -264h33q25 0 41.5 3t29 12t23 25t23.5 41l18 34h35l-62 -293h-31l-6 33q-4 28 -8.5 45t-13 26.5t-23 12.5t-38.5 3h-34l-54 -262l124 6q25 1 44.5 5.5
t37 13t34 21.5t35.5 30l101 96l29 -5l-59 -226h-641l8 40l106 26l39 180h-237l-136 -178l77 -33l-8 -35h-267zM514 306l71 332h-19l-255 -332h203z" />
    <glyph glyph-name="ae" unicode="&#xe6;" horiz-adv-x="863" 
d="M508 272q56 5 94 18.5t61.5 33t33.5 44.5t10 52q0 23 -11 36.5t-33 13.5t-46 -15t-46 -42t-39 -63t-24 -78zM366 93q-30 -30 -54 -50.5t-46.5 -33t-45 -18t-49.5 -5.5q-63 0 -103.5 42t-40.5 117q0 56 16.5 106t44.5 92.5t64.5 76t76 57t79.5 36t76 12.5q18 0 37 -3
t37 -9t34 -14.5t27 -18.5q35 22 75 33.5t82 11.5q40 0 72 -9.5t53.5 -26.5t33 -39.5t11.5 -49.5q0 -46 -26.5 -80t-73 -56.5t-109 -32.5t-134.5 -8q0 -70 36 -102.5t104 -32.5q32 0 66 11.5t67 31.5l20 -20q-38 -59 -93.5 -92t-130.5 -33t-124.5 29.5t-73.5 77.5h-8z
M418 385q-22 32 -45 49.5t-47 17.5q-29 0 -53.5 -29t-42 -69.5t-27.5 -84.5t-10 -74q0 -52 17 -72t47 -20q44 0 101 38q-4 20 -4 45q0 56 17 106.5t47 92.5z" />
    <glyph glyph-name="AEacute" unicode="&#x1fc;" horiz-adv-x="1097" 
d="M671 792q31 70 55.5 120.5t45.5 76.5q11 13 25.5 22.5t30.5 13t31 0.5t27 -13q25 -21 22 -52.5t-28 -58.5t-69 -57.5t-113 -73.5zM-60 40l89 32l449 562l-108 27l9 40h731l-45 -232l-31 -6l-45 99q-10 22 -20 36.5t-23 23t-31 12.5t-44 5l-103 4l-57 -264h33q25 0 41.5 3
t29 12t23 25t23.5 41l18 34h35l-62 -293h-31l-6 33q-4 28 -8.5 45t-13 26.5t-23 12.5t-38.5 3h-34l-54 -262l124 6q25 1 44.5 5.5t37 13t34 21.5t35.5 30l101 96l29 -5l-59 -226h-641l8 40l106 26l39 180h-237l-136 -178l77 -33l-8 -35h-267zM514 306l71 332h-19l-255 -332
h203z" />
    <glyph glyph-name="aeacute" unicode="&#x1fd;" horiz-adv-x="863" 
d="M458 597q32 72 56.5 123t46.5 78q11 14 26 23.5t31 13t31.5 0.5t27.5 -13q26 -22 23 -54t-29 -59q-26 -28 -70 -59t-115 -75zM508 272q56 5 94 18.5t61.5 33t33.5 44.5t10 52q0 23 -11 36.5t-33 13.5t-46 -15t-46 -42t-39 -63t-24 -78zM366 93q-30 -30 -54 -50.5
t-46.5 -33t-45 -18t-49.5 -5.5q-63 0 -103.5 42t-40.5 117q0 56 16.5 106t44.5 92.5t64.5 76t76 57t79.5 36t76 12.5q18 0 37 -3t37 -9t34 -14.5t27 -18.5q35 22 75 33.5t82 11.5q40 0 72 -9.5t53.5 -26.5t33 -39.5t11.5 -49.5q0 -46 -26.5 -80t-73 -56.5t-109 -32.5
t-134.5 -8q0 -70 36 -102.5t104 -32.5q32 0 66 11.5t67 31.5l20 -20q-38 -59 -93.5 -92t-130.5 -33t-124.5 29.5t-73.5 77.5h-8zM418 385q-22 32 -45 49.5t-47 17.5q-29 0 -53.5 -29t-42 -69.5t-27.5 -84.5t-10 -74q0 -52 17 -72t47 -20q44 0 101 38q-4 20 -4 45
q0 56 17 106.5t47 92.5z" />
    <glyph glyph-name="Agrave" unicode="&#xc0;" horiz-adv-x="781" 
d="M-45 40l92 33l360 634h137l100 -639l83 -28l-9 -40h-354l8 35l92 28l-22 161h-226l-81 -155l70 -34l-7 -35h-252zM435 284l-36 271h-11l-141 -271h188zM495 779q-44 39 -77 76t-47 64q-16 31 -9 61.5t39 46.5t61 4.5t43 -44.5q11 -27 17.5 -71.5t11.5 -113.5l-39 -23v0z
" />
    <glyph glyph-name="agrave" unicode="&#xe0;" horiz-adv-x="629" 
d="M164 -14q-29 0 -53.5 11t-43 31t-29 48.5t-10.5 63.5q0 58 16 109t43 94t63 76.5t75 57t79 36t76 12.5q34 0 59 -7t57 -21l63 48l34 -13l-86 -399q-5 -22 -5.5 -34.5t7.5 -19.5t26.5 -9.5t52.5 -4.5l5 -27q-40 -24 -80 -38t-81 -14q-53 0 -70.5 26t-13.5 66l-11 3
q-48 -47 -87 -71t-86 -24zM258 103q23 0 47 9.5t47 23.5l54 253q-20 30 -42 46.5t-42 16.5q-29 0 -52.5 -29t-40.5 -70t-26 -86t-9 -77q0 -48 17 -67.5t47 -19.5zM396 584q-45 41 -79 78t-48 65q-16 32 -8.5 63t39.5 47t62 4.5t44 -45.5q11 -27 18 -73t12 -115l-40 -24v0z
" />
    <glyph glyph-name="Amacron" unicode="&#x100;" horiz-adv-x="781" 
d="M-45 40l92 33l360 634h137l100 -639l83 -28l-9 -40h-354l8 35l92 28l-22 161h-226l-81 -155l70 -34l-7 -35h-252zM435 284l-36 271h-11l-141 -271h188zM339 917h358l-22 -102h-359z" />
    <glyph glyph-name="amacron" unicode="&#x101;" horiz-adv-x="629" 
d="M164 -14q-29 0 -53.5 11t-43 31t-29 48.5t-10.5 63.5q0 58 16 109t43 94t63 76.5t75 57t79 36t76 12.5q34 0 59 -7t57 -21l63 48l34 -13l-86 -399q-5 -22 -5.5 -34.5t7.5 -19.5t26.5 -9.5t52.5 -4.5l5 -27q-40 -24 -80 -38t-81 -14q-53 0 -70.5 26t-13.5 66l-11 3
q-48 -47 -87 -71t-86 -24zM258 103q23 0 47 9.5t47 23.5l54 253q-20 30 -42 46.5t-42 16.5q-29 0 -52.5 -29t-40.5 -70t-26 -86t-9 -77q0 -48 17 -67.5t47 -19.5zM236 725h366l-23 -104h-365z" />
    <glyph glyph-name="Aogonek" unicode="&#x104;" horiz-adv-x="781" 
d="M-45 40l92 33l360 634h137l100 -639l83 -28l-9 -40h-71q-31 -26 -51.5 -48.5t-32.5 -42t-17 -36.5t-5 -33q0 -25 17.5 -40.5t43.5 -15.5q23 0 40 7t29 15l21 -22q-30 -29 -67 -45.5t-85 -16.5q-43 0 -71.5 22.5t-28.5 60.5q0 29 12.5 57t33 52.5t47 46.5t55.5 39h-224
l8 35l92 28l-22 161h-226l-81 -155l70 -34l-7 -35h-252zM435 284l-36 271h-11l-141 -271h188z" />
    <glyph glyph-name="aogonek" unicode="&#x105;" horiz-adv-x="629" 
d="M302 -199q0 52 41 98t101 87q-31 -2 -50.5 5t-30.5 19.5t-14 30t-1 37.5l-11 3q-48 -47 -87 -71t-86 -24q-29 0 -53.5 11t-43 31t-29 48.5t-10.5 63.5q0 58 16 109t43 94t63 76.5t75 57t79 36t76 12.5q34 0 59 -7t57 -21l63 48l34 -13l-86 -399q-5 -22 -5.5 -34.5
t7.5 -19.5t26.5 -9.5t52.5 -4.5l5 -27q-37 -20 -71 -44t-59.5 -50t-41 -53.5t-15.5 -53.5t17 -41.5t44 -15.5q23 0 40.5 7.5t29.5 15.5l21 -23q-31 -29 -68.5 -46t-85.5 -17q-43 0 -72.5 22.5t-29.5 61.5zM258 103q23 0 47 9.5t47 23.5l54 253q-20 30 -42 46.5t-42 16.5
q-29 0 -52.5 -29t-40.5 -70t-26 -86t-9 -77q0 -48 17 -67.5t47 -19.5z" />
    <glyph glyph-name="Aring" unicode="&#xc5;" horiz-adv-x="781" 
d="M-45 40l92 33l350 615q-44 28 -44 83q0 27 10.5 51.5t29 42.5t45 28.5t58.5 10.5q60 0 94 -28.5t34 -76.5q0 -39 -20.5 -71t-55.5 -48l96 -612l83 -28l-9 -40h-354l8 35l92 28l-22 161h-226l-81 -155l70 -34l-7 -35h-252zM478 701q17 0 30 11t22 27.5t13.5 35.5t4.5 36
q0 27 -13 42t-37 15q-17 0 -29.5 -11t-21.5 -27t-13.5 -35.5t-4.5 -35.5q0 -58 49 -58zM435 284l-36 271h-11l-141 -271h188z" />
    <glyph glyph-name="aring" unicode="&#xe5;" horiz-adv-x="629" 
d="M164 -14q-29 0 -53.5 11t-43 31t-29 48.5t-10.5 63.5q0 58 16 109t43 94t63 76.5t75 57t79 36t76 12.5q34 0 59 -7t57 -21l63 48l34 -13l-86 -399q-5 -22 -5.5 -34.5t7.5 -19.5t26.5 -9.5t52.5 -4.5l5 -27q-40 -24 -80 -38t-81 -14q-53 0 -70.5 26t-13.5 66l-11 3
q-48 -47 -87 -71t-86 -24zM258 103q23 0 47 9.5t47 23.5l54 253q-20 30 -42 46.5t-42 16.5q-29 0 -52.5 -29t-40.5 -70t-26 -86t-9 -77q0 -48 17 -67.5t47 -19.5zM407 587q-60 0 -95 29.5t-35 77.5q0 28 10.5 53t29.5 43.5t46 29t59 10.5q61 0 96 -29.5t35 -77.5
q0 -28 -10.5 -53t-30 -43.5t-46 -29t-59.5 -10.5zM405 623q17 0 30 11t22 28t14 36.5t5 36.5q0 28 -13.5 43t-37.5 15q-17 0 -30 -11t-22 -27.5t-14 -36t-5 -36.5q0 -28 13.5 -43.5t37.5 -15.5z" />
    <glyph glyph-name="Aringacute" unicode="&#x1fa;" horiz-adv-x="781" 
d="M-45 40l92 33l350 615q-44 28 -44 83q0 27 10.5 51.5t29 42.5t45 28.5t58.5 10.5q60 0 94 -28.5t34 -76.5q0 -39 -20.5 -71t-55.5 -48l96 -612l83 -28l-9 -40h-354l8 35l92 28l-22 161h-226l-81 -155l70 -34l-7 -35h-252zM478 701q17 0 30 11t22 27.5t13.5 35.5t4.5 36
q0 27 -13 42t-37 15q-17 0 -29.5 -11t-21.5 -27t-13.5 -35.5t-4.5 -35.5q0 -58 49 -58zM435 284l-36 271h-11l-141 -271h188zM476 962q31 70 55.5 120.5t45.5 76.5q11 13 25.5 22.5t30.5 13t31 0.5t27 -13q25 -21 22 -52.5t-28 -58.5t-69 -57.5t-113 -73.5z" />
    <glyph glyph-name="aringacute" unicode="&#x1fb;" horiz-adv-x="629" 
d="M164 -14q-29 0 -53.5 11t-43 31t-29 48.5t-10.5 63.5q0 58 16 109t43 94t63 76.5t75 57t79 36t76 12.5q34 0 59 -7t57 -21l63 48l34 -13l-86 -399q-5 -22 -5.5 -34.5t7.5 -19.5t26.5 -9.5t52.5 -4.5l5 -27q-40 -24 -80 -38t-81 -14q-53 0 -70.5 26t-13.5 66l-11 3
q-48 -47 -87 -71t-86 -24zM258 103q23 0 47 9.5t47 23.5l54 253q-20 30 -42 46.5t-42 16.5q-29 0 -52.5 -29t-40.5 -70t-26 -86t-9 -77q0 -48 17 -67.5t47 -19.5zM418 863q32 72 56.5 123t46.5 78q11 14 26 23.5t31 13t31.5 0.5t27.5 -13q26 -22 23 -54t-29 -59
q-26 -28 -70 -59t-115 -75zM402 564q-60 0 -95 29.5t-35 77.5q0 28 10.5 53t29.5 43.5t46 29t59 10.5q61 0 96 -29.5t35 -77.5q0 -28 -10.5 -53t-30 -43.5t-46 -29t-59.5 -10.5zM400 600q17 0 30 11t22 28t14 36.5t5 36.5q0 28 -13.5 43t-37.5 15q-17 0 -30 -11t-22 -27.5
t-14 -36t-5 -36.5q0 -28 13.5 -43.5t37.5 -15.5z" />
    <glyph glyph-name="Atilde" unicode="&#xc3;" horiz-adv-x="781" 
d="M-45 40l92 33l360 634h137l100 -639l83 -28l-9 -40h-354l8 35l92 28l-22 161h-226l-81 -155l70 -34l-7 -35h-252zM435 284l-36 271h-11l-141 -271h188zM314 793q21 95 51.5 137.5t83.5 42.5q24 0 46 -8.5t42.5 -19t39.5 -19t36 -8.5q18 0 31 14t30 49l48 -7
q-21 -95 -51.5 -137t-83.5 -42q-24 0 -46 8.5t-42.5 19t-39.5 19t-36 8.5q-18 0 -31 -14.5t-30 -48.5z" />
    <glyph glyph-name="atilde" unicode="&#xe3;" horiz-adv-x="629" 
d="M164 -14q-29 0 -53.5 11t-43 31t-29 48.5t-10.5 63.5q0 58 16 109t43 94t63 76.5t75 57t79 36t76 12.5q34 0 59 -7t57 -21l63 48l34 -13l-86 -399q-5 -22 -5.5 -34.5t7.5 -19.5t26.5 -9.5t52.5 -4.5l5 -27q-40 -24 -80 -38t-81 -14q-53 0 -70.5 26t-13.5 66l-11 3
q-48 -47 -87 -71t-86 -24zM258 103q23 0 47 9.5t47 23.5l54 253q-20 30 -42 46.5t-42 16.5q-29 0 -52.5 -29t-40.5 -70t-26 -86t-9 -77q0 -48 17 -67.5t47 -19.5zM211 599q21 97 52.5 139.5t85.5 42.5q24 0 46.5 -8.5t43.5 -19t40 -19t37 -8.5t31 14.5t30 49.5l49 -7
q-21 -97 -52 -139.5t-85 -42.5q-24 0 -46.5 8.5t-43.5 19t-40 19t-37 8.5t-31 -14.5t-30 -49.5z" />
    <glyph glyph-name="Cacute" unicode="&#x106;" horiz-adv-x="743" 
d="M421 -17q-74 0 -139 17t-113.5 53.5t-77 93.5t-28.5 137q0 85 32.5 163t90 138t137 95.5t173.5 35.5q55 0 103 -9.5t83 -25.5l48 39h37l-48 -281l-45 -2q-15 58 -30.5 99.5t-35.5 67.5t-46 38t-60 12q-57 0 -101 -37t-75 -93.5t-47 -124t-16 -127.5q0 -64 15.5 -106.5
t40.5 -68.5t55.5 -37t60.5 -11q17 0 34 2.5t32 8.5l142 178l35 -14l-45 -201q-45 -18 -102 -29t-110 -11zM468 802q31 70 55.5 120.5t45.5 76.5q11 13 25.5 22.5t30.5 13t31 0.5t27 -13q25 -21 22 -52.5t-28 -58.5t-69 -57.5t-113 -73.5z" />
    <glyph glyph-name="cacute" unicode="&#x107;" horiz-adv-x="529" 
d="M332 607q32 72 56.5 123t46.5 78q11 14 26 23.5t31 13t31.5 0.5t27.5 -13q26 -22 23 -54t-29 -59q-26 -28 -70 -59t-115 -75zM251 -15q-47 0 -86.5 14t-68 41t-44.5 66.5t-16 91.5q0 62 25.5 121t69.5 104.5t103 73.5t127 28q38 0 67 -9.5t48.5 -26t29.5 -38.5t10 -47
q0 -36 -22.5 -60t-54.5 -24q-42 0 -63 27.5t-21 71.5q0 30 7 57q-30 -4 -58 -25t-50.5 -56t-36 -81t-13.5 -99q0 -62 31.5 -95t85.5 -33q16 0 30 2.5t28.5 8t30.5 14t36 21.5l20 -20q-33 -57 -86 -92.5t-129 -35.5z" />
    <glyph glyph-name="Ccaron" unicode="&#x10c;" horiz-adv-x="743" 
d="M421 -17q-74 0 -139 17t-113.5 53.5t-77 93.5t-28.5 137q0 85 32.5 163t90 138t137 95.5t173.5 35.5q55 0 103 -9.5t83 -25.5l48 39h37l-48 -281l-45 -2q-15 58 -30.5 99.5t-35.5 67.5t-46 38t-60 12q-57 0 -101 -37t-75 -93.5t-47 -124t-16 -127.5q0 -64 15.5 -106.5
t40.5 -68.5t55.5 -37t60.5 -11q17 0 34 2.5t32 8.5l142 178l35 -14l-45 -201q-45 -18 -102 -29t-110 -11zM372 1005l38 29l108 -110l170 110l25 -29l-173 -215h-83z" />
    <glyph glyph-name="ccaron" unicode="&#x10d;" horiz-adv-x="529" 
d="M236 814l39 30l110 -112l172 112l26 -30l-176 -219h-85zM251 -15q-47 0 -86.5 14t-68 41t-44.5 66.5t-16 91.5q0 62 25.5 121t69.5 104.5t103 73.5t127 28q38 0 67 -9.5t48.5 -26t29.5 -38.5t10 -47q0 -36 -22.5 -60t-54.5 -24q-42 0 -63 27.5t-21 71.5q0 30 7 57
q-30 -4 -58 -25t-50.5 -56t-36 -81t-13.5 -99q0 -62 31.5 -95t85.5 -33q16 0 30 2.5t28.5 8t30.5 14t36 21.5l20 -20q-33 -57 -86 -92.5t-129 -35.5z" />
    <glyph glyph-name="Ccedilla" unicode="&#xc7;" horiz-adv-x="743" 
d="M290 -285q-51 0 -80.5 16t-29.5 45q0 17 10.5 29t28.5 12q19 0 29 -13t10 -29q0 -6 -1 -11t-3 -11q11 -5 26 -5q25 0 46 17t21 52q0 24 -17 39.5t-47 15.5q-8 0 -15.5 -1t-15.5 -3l-15 26l120 91q-62 6 -116 26.5t-93.5 57.5t-62 90.5t-22.5 124.5q0 85 32.5 163t90 138
t137 95.5t173.5 35.5q55 0 103 -9.5t83 -25.5l48 39h37l-48 -281l-45 -2q-15 58 -30.5 99.5t-35.5 67.5t-46 38t-60 12q-57 0 -101 -37t-75 -93.5t-47 -124t-16 -127.5q0 -64 15.5 -106.5t40.5 -68.5t55.5 -37t60.5 -11q17 0 34 2.5t32 8.5l142 178l35 -14l-45 -201
q-48 -20 -105.5 -30.5t-115.5 -9.5l-65 -49q41 -6 66.5 -29t25.5 -60q0 -29 -12 -52.5t-32.5 -41t-47.5 -27t-57 -9.5z" />
    <glyph glyph-name="ccedilla" unicode="&#xe7;" horiz-adv-x="529" 
d="M164 -290q-52 0 -81.5 16t-29.5 46q0 17 10.5 29.5t28.5 12.5q19 0 29 -13.5t10 -29.5q0 -10 -3 -22q10 -6 26 -6q26 0 47 17.5t21 53.5q0 24 -17 39.5t-48 15.5q-16 0 -32 -3l-15 26l124 94q-2 0 -4.5 0.5t-4.5 0.5q-42 4 -77 20t-59.5 42.5t-38.5 64t-14 84.5
q0 62 25.5 121t69.5 104.5t103 73.5t127 28q38 0 67 -9.5t48.5 -26t29.5 -38.5t10 -47q0 -36 -22.5 -60t-54.5 -24q-42 0 -63 27.5t-21 71.5q0 30 7 57q-30 -4 -58 -25t-50.5 -56t-36 -81t-13.5 -99q0 -62 31.5 -95t85.5 -33q16 0 30 2.5t28.5 8t30.5 14t36 21.5l20 -20
q-29 -49 -70 -82.5t-100 -43.5l-73 -54q41 -7 67.5 -30t26.5 -61q0 -29 -12.5 -53t-33.5 -41.5t-48.5 -27.5t-58.5 -10z" />
    <glyph glyph-name="Cdotaccent" unicode="&#x10a;" horiz-adv-x="743" 
d="M532 793q-38 0 -62.5 25.5t-24.5 63.5q0 19 7 36.5t20 31t30.5 21.5t38.5 8q38 0 62.5 -25.5t24.5 -64.5q0 -19 -7.5 -36t-20 -30.5t-30 -21.5t-38.5 -8zM421 -17q-74 0 -139 17t-113.5 53.5t-77 93.5t-28.5 137q0 85 32.5 163t90 138t137 95.5t173.5 35.5q55 0 103 -9.5
t83 -25.5l48 39h37l-48 -281l-45 -2q-15 58 -30.5 99.5t-35.5 67.5t-46 38t-60 12q-57 0 -101 -37t-75 -93.5t-47 -124t-16 -127.5q0 -64 15.5 -106.5t40.5 -68.5t55.5 -37t60.5 -11q17 0 34 2.5t32 8.5l142 178l35 -14l-45 -201q-45 -18 -102 -29t-110 -11z" />
    <glyph glyph-name="cdotaccent" unicode="&#x10b;" horiz-adv-x="529" 
d="M251 -15q-47 0 -86.5 14t-68 41t-44.5 66.5t-16 91.5q0 62 25.5 121t69.5 104.5t103 73.5t127 28q38 0 67 -9.5t48.5 -26t29.5 -38.5t10 -47q0 -36 -22.5 -60t-54.5 -24q-42 0 -63 27.5t-21 71.5q0 30 7 57q-30 -4 -58 -25t-50.5 -56t-36 -81t-13.5 -99q0 -62 31.5 -95
t85.5 -33q16 0 30 2.5t28.5 8t30.5 14t36 21.5l20 -20q-33 -57 -86 -92.5t-129 -35.5zM398 598q-39 0 -64 26t-25 65q0 19 7.5 37t20 31.5t30.5 22t39 8.5q39 0 64 -25.5t25 -65.5q0 -19 -7.5 -37t-20 -31.5t-30.5 -22t-39 -8.5z" />
    <glyph glyph-name="Dcaron" unicode="&#x10e;" horiz-adv-x="816" 
d="M362 995l38 29l108 -110l170 110l25 -29l-173 -215h-83zM-17 40l105 26l121 570l-94 25l8 40h283q196 0 289.5 -69t93.5 -209q0 -85 -29 -161.5t-90.5 -134.5t-156 -92.5t-225.5 -34.5h-314zM327 60q71 4 122.5 42.5t85.5 94.5t50 121.5t16 123.5q0 88 -39 138t-127 59
l-42 4l-125 -586z" />
    <glyph glyph-name="dcaron" unicode="&#x10f;" horiz-adv-x="653" 
d="M660 545q9 78 21 136t26 90q7 16 18 29.5t25 21.5t29.5 9.5t30.5 -4.5t23.5 -18.5t10.5 -27.5t-1 -31.5t-10 -30.5q-19 -38 -55 -82t-90 -103zM169 -14q-30 0 -55.5 12t-44.5 34t-30 53t-11 70q0 77 30 144.5t80.5 117.5t116.5 79t139 29q14 0 25.5 -1t21.5 -2l37 178
l-83 46l5 33l238 51l22 -14l-146 -683q-5 -22 -5.5 -34.5t7.5 -19.5t26.5 -9.5t52.5 -4.5l5 -27q-39 -24 -79.5 -38t-81.5 -14q-53 0 -70 26t-14 66l-11 3q-46 -48 -85.5 -71.5t-89.5 -23.5zM265 103q24 0 47.5 10t46.5 24l55 259q-43 56 -93 56q-31 0 -54.5 -28t-39 -68.5
t-23 -85.5t-7.5 -78q0 -47 18 -68t50 -21z" />
    <glyph glyph-name="Dcroat" unicode="&#x110;" horiz-adv-x="819" 
d="M-14 40l106 26l55 263h-96l14 69h97l50 238l-94 25l9 40h282q196 0 289.5 -69.5t93.5 -208.5q0 -85 -29 -161.5t-90 -134.5t-155.5 -92.5t-225.5 -34.5h-315zM330 60q71 4 122.5 42.5t85.5 94.5t50 121.5t16 123.5q0 87 -39 137.5t-126 59.5l-43 4l-52 -245h131l-14 -69
h-132l-57 -272z" />
    <glyph glyph-name="dcroat" unicode="&#x111;" horiz-adv-x="653" 
d="M169 -14q-30 0 -55.5 12t-44.5 34t-30 53t-11 70q0 77 30 144.5t80.5 117.5t116.5 79t139 29q14 0 25.5 -1t21.5 -2l15 69h-180l14 66h180l12 54l-87 35l5 33l238 51l22 -14l-34 -159h70l-14 -66h-70l-98 -458q-5 -22 -5.5 -34.5t7.5 -19.5t26.5 -9.5t52.5 -4.5l5 -27
q-39 -24 -79.5 -38t-81.5 -14q-53 0 -70 26t-14 66l-11 3q-46 -48 -85.5 -71.5t-89.5 -23.5zM265 103q24 0 47.5 10t46.5 24l55 259q-43 56 -93 56q-31 0 -54.5 -28t-39 -68.5t-23 -85.5t-7.5 -78q0 -47 18 -68t50 -21z" />
    <glyph glyph-name="Eacute" unicode="&#xc9;" horiz-adv-x="723" 
d="M407 792q31 70 55.5 120.5t45.5 76.5q11 13 25.5 22.5t30.5 13t31 0.5t27 -13q25 -21 22 -52.5t-28 -58.5t-69 -57.5t-113 -73.5zM-17 40l105 26l121 570l-94 25l8 40h612l-44 -232l-32 -6l-45 99q-10 22 -19.5 36.5t-23 23t-31.5 12.5t-44 5l-103 4l-56 -264h32
q25 0 41.5 3t29 12t23 25t23.5 41l18 34h36l-62 -293h-32l-5 33q-5 27 -9.5 44t-13 26.5t-23 13t-38.5 3.5h-33l-55 -262l124 6q25 1 44.5 5.5t37 13t34.5 21.5t36 30l101 96l28 -5l-59 -226h-641z" />
    <glyph glyph-name="eacute" unicode="&#xe9;" horiz-adv-x="544" 
d="M320 607q32 72 56.5 123t46.5 78q11 14 26 23.5t31 13t31.5 0.5t27.5 -13q26 -22 23 -54t-29 -59q-26 -28 -70 -59t-115 -75zM188 272q56 5 94.5 18.5t62 33t33.5 44.5t10 52q0 23 -11 36.5t-34 13.5q-21 0 -45.5 -15t-46 -42t-39 -63t-24.5 -78zM184 223
q0 -70 35.5 -102.5t103.5 -32.5q33 0 67 11.5t67 31.5l20 -20q-38 -59 -93.5 -92t-130.5 -33q-54 0 -94.5 15.5t-68 42.5t-41.5 63.5t-14 78.5q0 70 26.5 132t71 108t102.5 72.5t122 26.5q81 0 125 -35.5t44 -89.5q0 -46 -26.5 -80t-73 -56.5t-108.5 -32.5t-134 -8z" />
    <glyph glyph-name="Ebreve" unicode="&#x114;" horiz-adv-x="723" 
d="M471 777q-80 0 -116.5 54.5t-22.5 155.5l45 14q9 -51 36 -79t81 -28q42 0 76.5 27.5t60.5 79.5l44 -14q-33 -114 -82.5 -162t-121.5 -48zM-17 40l105 26l121 570l-94 25l8 40h612l-44 -232l-32 -6l-45 99q-10 22 -19.5 36.5t-23 23t-31.5 12.5t-44 5l-103 4l-56 -264h32
q25 0 41.5 3t29 12t23 25t23.5 41l18 34h36l-62 -293h-32l-5 33q-5 27 -9.5 44t-13 26.5t-23 13t-38.5 3.5h-33l-55 -262l124 6q25 1 44.5 5.5t37 13t34.5 21.5t36 30l101 96l28 -5l-59 -226h-641z" />
    <glyph glyph-name="ebreve" unicode="&#x115;" horiz-adv-x="544" 
d="M188 272q56 5 94.5 18.5t62 33t33.5 44.5t10 52q0 23 -11 36.5t-34 13.5q-21 0 -45.5 -15t-46 -42t-39 -63t-24.5 -78zM184 223q0 -70 35.5 -102.5t103.5 -32.5q33 0 67 11.5t67 31.5l20 -20q-38 -59 -93.5 -92t-130.5 -33q-54 0 -94.5 15.5t-68 42.5t-41.5 63.5
t-14 78.5q0 70 26.5 132t71 108t102.5 72.5t122 26.5q81 0 125 -35.5t44 -89.5q0 -46 -26.5 -80t-73 -56.5t-108.5 -32.5t-134 -8zM385 593q-81 0 -118.5 55.5t-23.5 158.5l46 14q10 -52 37 -80.5t82 -28.5q85 0 140 109l44 -14q-34 -116 -84 -165t-123 -49z" />
    <glyph glyph-name="Ecaron" unicode="&#x11a;" horiz-adv-x="723" 
d="M311 995l38 29l108 -110l170 110l25 -29l-173 -215h-83zM-17 40l105 26l121 570l-94 25l8 40h612l-44 -232l-32 -6l-45 99q-10 22 -19.5 36.5t-23 23t-31.5 12.5t-44 5l-103 4l-56 -264h32q25 0 41.5 3t29 12t23 25t23.5 41l18 34h36l-62 -293h-32l-5 33q-5 27 -9.5 44
t-13 26.5t-23 13t-38.5 3.5h-33l-55 -262l124 6q25 1 44.5 5.5t37 13t34.5 21.5t36 30l101 96l28 -5l-59 -226h-641z" />
    <glyph glyph-name="ecaron" unicode="&#x11b;" horiz-adv-x="544" 
d="M222 814l39 30l110 -112l172 112l26 -30l-176 -219h-85zM188 272q56 5 94.5 18.5t62 33t33.5 44.5t10 52q0 23 -11 36.5t-34 13.5q-21 0 -45.5 -15t-46 -42t-39 -63t-24.5 -78zM184 223q0 -70 35.5 -102.5t103.5 -32.5q33 0 67 11.5t67 31.5l20 -20q-38 -59 -93.5 -92
t-130.5 -33q-54 0 -94.5 15.5t-68 42.5t-41.5 63.5t-14 78.5q0 70 26.5 132t71 108t102.5 72.5t122 26.5q81 0 125 -35.5t44 -89.5q0 -46 -26.5 -80t-73 -56.5t-108.5 -32.5t-134 -8z" />
    <glyph glyph-name="Ecircumflex" unicode="&#xca;" horiz-adv-x="723" 
d="M-17 40l105 26l121 570l-94 25l8 40h612l-44 -232l-32 -6l-45 99q-10 22 -19.5 36.5t-23 23t-31.5 12.5t-44 5l-103 4l-56 -264h32q25 0 41.5 3t29 12t23 25t23.5 41l18 34h36l-62 -293h-32l-5 33q-5 27 -9.5 44t-13 26.5t-23 13t-38.5 3.5h-33l-55 -262l124 6
q25 1 44.5 5.5t37 13t34.5 21.5t36 30l101 96l28 -5l-59 -226h-641zM291 799l173 216h83l84 -216l-37 -29l-109 110l-169 -110z" />
    <glyph glyph-name="ecircumflex" unicode="&#xea;" horiz-adv-x="544" 
d="M201 615l176 219h85l86 -219l-39 -30l-110 112l-172 -112zM188 272q56 5 94.5 18.5t62 33t33.5 44.5t10 52q0 23 -11 36.5t-34 13.5q-21 0 -45.5 -15t-46 -42t-39 -63t-24.5 -78zM184 223q0 -70 35.5 -102.5t103.5 -32.5q33 0 67 11.5t67 31.5l20 -20q-38 -59 -93.5 -92
t-130.5 -33q-54 0 -94.5 15.5t-68 42.5t-41.5 63.5t-14 78.5q0 70 26.5 132t71 108t102.5 72.5t122 26.5q81 0 125 -35.5t44 -89.5q0 -46 -26.5 -80t-73 -56.5t-108.5 -32.5t-134 -8z" />
    <glyph glyph-name="Edieresis" unicode="&#xcb;" horiz-adv-x="723" 
d="M593 783q-37 0 -60.5 24.5t-23.5 61.5q0 18 7 35t19.5 30t29.5 21t37 8q37 0 60.5 -24.5t23.5 -62.5q0 -18 -7 -35t-19.5 -29.5t-29.5 -20.5t-37 -8zM354 783q-38 0 -61 24.5t-23 61.5q0 18 7 35t19 30t28.5 21t36.5 8q38 0 61 -24.5t23 -62.5q0 -18 -7 -35t-19 -29.5
t-29 -20.5t-36 -8zM-17 40l105 26l121 570l-94 25l8 40h612l-44 -232l-32 -6l-45 99q-10 22 -19.5 36.5t-23 23t-31.5 12.5t-44 5l-103 4l-56 -264h32q25 0 41.5 3t29 12t23 25t23.5 41l18 34h36l-62 -293h-32l-5 33q-5 27 -9.5 44t-13 26.5t-23 13t-38.5 3.5h-33l-55 -262
l124 6q25 1 44.5 5.5t37 13t34.5 21.5t36 30l101 96l28 -5l-59 -226h-641z" />
    <glyph glyph-name="edieresis" unicode="&#xeb;" horiz-adv-x="544" 
d="M509 598q-38 0 -61.5 25t-23.5 63q0 18 7 35.5t19.5 30.5t30 21t37.5 8q38 0 62 -24.5t24 -62.5q0 -18 -7 -35.5t-20 -31t-30 -21.5t-38 -8zM266 598q-38 0 -62 25t-24 63q0 18 7 35.5t19.5 30.5t29.5 21t37 8q38 0 62 -24.5t24 -62.5q0 -18 -7 -35.5t-19.5 -31
t-29.5 -21.5t-37 -8zM188 272q56 5 94.5 18.5t62 33t33.5 44.5t10 52q0 23 -11 36.5t-34 13.5q-21 0 -45.5 -15t-46 -42t-39 -63t-24.5 -78zM184 223q0 -70 35.5 -102.5t103.5 -32.5q33 0 67 11.5t67 31.5l20 -20q-38 -59 -93.5 -92t-130.5 -33q-54 0 -94.5 15.5t-68 42.5
t-41.5 63.5t-14 78.5q0 70 26.5 132t71 108t102.5 72.5t122 26.5q81 0 125 -35.5t44 -89.5q0 -46 -26.5 -80t-73 -56.5t-108.5 -32.5t-134 -8z" />
    <glyph glyph-name="Edotaccent" unicode="&#x116;" horiz-adv-x="723" 
d="M471 783q-38 0 -62.5 25.5t-24.5 63.5q0 19 7 36.5t20 31t30.5 21.5t38.5 8q38 0 62.5 -25.5t24.5 -64.5q0 -19 -7.5 -36t-20 -30.5t-30 -21.5t-38.5 -8zM-17 40l105 26l121 570l-94 25l8 40h612l-44 -232l-32 -6l-45 99q-10 22 -19.5 36.5t-23 23t-31.5 12.5t-44 5
l-103 4l-56 -264h32q25 0 41.5 3t29 12t23 25t23.5 41l18 34h36l-62 -293h-32l-5 33q-5 27 -9.5 44t-13 26.5t-23 13t-38.5 3.5h-33l-55 -262l124 6q25 1 44.5 5.5t37 13t34.5 21.5t36 30l101 96l28 -5l-59 -226h-641z" />
    <glyph glyph-name="edotaccent" unicode="&#x117;" horiz-adv-x="544" 
d="M188 272q56 5 94.5 18.5t62 33t33.5 44.5t10 52q0 23 -11 36.5t-34 13.5q-21 0 -45.5 -15t-46 -42t-39 -63t-24.5 -78zM184 223q0 -70 35.5 -102.5t103.5 -32.5q33 0 67 11.5t67 31.5l20 -20q-38 -59 -93.5 -92t-130.5 -33q-54 0 -94.5 15.5t-68 42.5t-41.5 63.5
t-14 78.5q0 70 26.5 132t71 108t102.5 72.5t122 26.5q81 0 125 -35.5t44 -89.5q0 -46 -26.5 -80t-73 -56.5t-108.5 -32.5t-134 -8zM386 598q-39 0 -64 26t-25 65q0 19 7.5 37t20 31.5t30.5 22t39 8.5q39 0 64 -25.5t25 -65.5q0 -19 -7.5 -37t-20 -31.5t-30.5 -22t-39 -8.5z
" />
    <glyph glyph-name="Egrave" unicode="&#xc8;" horiz-adv-x="723" 
d="M463 769q-44 39 -77 76t-47 64q-16 31 -9 61.5t39 46.5t61 4.5t43 -44.5q11 -27 17.5 -71.5t11.5 -113.5l-39 -23v0zM-17 40l105 26l121 570l-94 25l8 40h612l-44 -232l-32 -6l-45 99q-10 22 -19.5 36.5t-23 23t-31.5 12.5t-44 5l-103 4l-56 -264h32q25 0 41.5 3t29 12
t23 25t23.5 41l18 34h36l-62 -293h-32l-5 33q-5 27 -9.5 44t-13 26.5t-23 13t-38.5 3.5h-33l-55 -262l124 6q25 1 44.5 5.5t37 13t34.5 21.5t36 30l101 96l28 -5l-59 -226h-641z" />
    <glyph glyph-name="egrave" unicode="&#xe8;" horiz-adv-x="544" 
d="M188 272q56 5 94.5 18.5t62 33t33.5 44.5t10 52q0 23 -11 36.5t-34 13.5q-21 0 -45.5 -15t-46 -42t-39 -63t-24.5 -78zM184 223q0 -70 35.5 -102.5t103.5 -32.5q33 0 67 11.5t67 31.5l20 -20q-38 -59 -93.5 -92t-130.5 -33q-54 0 -94.5 15.5t-68 42.5t-41.5 63.5
t-14 78.5q0 70 26.5 132t71 108t102.5 72.5t122 26.5q81 0 125 -35.5t44 -89.5q0 -46 -26.5 -80t-73 -56.5t-108.5 -32.5t-134 -8zM377 584q-45 41 -79 78t-48 65q-16 32 -8.5 63t39.5 47t62 4.5t44 -45.5q11 -27 18 -73t12 -115l-40 -24v0z" />
    <glyph glyph-name="Emacron" unicode="&#x112;" horiz-adv-x="723" 
d="M307 907h358l-22 -102h-359zM-17 40l105 26l121 570l-94 25l8 40h612l-44 -232l-32 -6l-45 99q-10 22 -19.5 36.5t-23 23t-31.5 12.5t-44 5l-103 4l-56 -264h32q25 0 41.5 3t29 12t23 25t23.5 41l18 34h36l-62 -293h-32l-5 33q-5 27 -9.5 44t-13 26.5t-23 13t-38.5 3.5
h-33l-55 -262l124 6q25 1 44.5 5.5t37 13t34.5 21.5t36 30l101 96l28 -5l-59 -226h-641z" />
    <glyph glyph-name="emacron" unicode="&#x113;" horiz-adv-x="544" 
d="M188 272q56 5 94.5 18.5t62 33t33.5 44.5t10 52q0 23 -11 36.5t-34 13.5q-21 0 -45.5 -15t-46 -42t-39 -63t-24.5 -78zM184 223q0 -70 35.5 -102.5t103.5 -32.5q33 0 67 11.5t67 31.5l20 -20q-38 -59 -93.5 -92t-130.5 -33q-54 0 -94.5 15.5t-68 42.5t-41.5 63.5
t-14 78.5q0 70 26.5 132t71 108t102.5 72.5t122 26.5q81 0 125 -35.5t44 -89.5q0 -46 -26.5 -80t-73 -56.5t-108.5 -32.5t-134 -8zM217 725h366l-23 -104h-365z" />
    <glyph glyph-name="Eogonek" unicode="&#x118;" horiz-adv-x="723" 
d="M-17 40l105 26l121 570l-94 25l8 40h612l-44 -232l-32 -6l-45 99q-10 22 -19.5 36.5t-23 23t-31.5 12.5t-44 5l-103 4l-56 -264h32q25 0 41.5 3t29 12t23 25t23.5 41l18 34h36l-62 -293h-32l-5 33q-5 27 -9.5 44t-13 26.5t-23 13t-38.5 3.5h-33l-55 -262l124 6
q25 1 44.5 5.5t37 13t34.5 21.5t36 30l101 96l28 -5l-59 -226h-69q-31 -26 -51.5 -48.5t-32.5 -42t-17 -36.5t-5 -33q0 -25 17.5 -40.5t43.5 -15.5q23 0 40 7t29 15l21 -22q-30 -29 -67 -45.5t-85 -16.5q-43 0 -71.5 22.5t-28.5 60.5q0 29 12.5 57t33 52.5t47 46.5t55.5 39
h-513z" />
    <glyph glyph-name="eogonek" unicode="&#x119;" horiz-adv-x="544" 
d="M184 223q0 -70 35.5 -102.5t103.5 -32.5q33 0 67 11.5t67 31.5l20 -20q-30 -46 -75 -82q-66 -54 -101.5 -100.5t-35.5 -91.5q0 -26 17 -41.5t44 -15.5q23 0 40.5 7.5t30.5 15.5l21 -23q-31 -29 -68.5 -46t-85.5 -17q-45 0 -74 23t-29 62q0 27 11 53t30 50t43.5 45
t51.5 39q-23 -3 -44 -3q-54 0 -94.5 15.5t-68 42.5t-41.5 63.5t-14 78.5q0 70 26.5 132t71 108t102.5 72.5t122 26.5q81 0 125 -35.5t44 -89.5q0 -46 -26.5 -80t-73 -56.5t-108.5 -32.5t-134 -8zM188 272q56 5 94.5 18.5t62 33t33.5 44.5t10 52q0 23 -11 36.5t-34 13.5
q-21 0 -45.5 -15t-46 -42t-39 -63t-24.5 -78z" />
    <glyph glyph-name="Eth" unicode="&#xd0;" horiz-adv-x="819" 
d="M-14 40l106 26l55 263h-96l14 69h97l50 238l-94 25l9 40h282q196 0 289.5 -69.5t93.5 -208.5q0 -85 -29 -161.5t-90 -134.5t-155.5 -92.5t-225.5 -34.5h-315zM330 60q71 4 122.5 42.5t85.5 94.5t50 121.5t16 123.5q0 87 -39 137.5t-126 59.5l-43 4l-52 -245h131l-14 -69
h-132l-57 -272z" />
    <glyph glyph-name="eth" unicode="&#xf0;" horiz-adv-x="599" 
d="M243 -14q-98 0 -154 51t-56 147q0 69 26.5 129.5t72.5 106t108.5 72t135.5 28.5q-19 58 -71 117l-106 -70l-34 52l97 63q-30 29 -67 55.5t-78 50.5l19 43q61 -19 113.5 -43t97.5 -52l102 67l33 -51l-81 -54q165 -132 165 -335q0 -81 -27 -155.5t-81 -129.5
q-42 -43 -97 -67.5t-118 -24.5zM259 44q31 0 57 34t45.5 84t30.5 105.5t11 99.5q0 48 -14.5 72t-47.5 24q-21 0 -39.5 -16t-35 -42t-29.5 -59.5t-22 -69.5t-14 -71t-5 -64q0 -97 63 -97z" />
    <glyph glyph-name="Gbreve" unicode="&#x11e;" horiz-adv-x="780" 
d="M507 787q-80 0 -116.5 54.5t-22.5 155.5l45 14q9 -51 36 -79t81 -28q42 0 76.5 27.5t60.5 79.5l44 -14q-33 -114 -82.5 -162t-121.5 -48zM346 -17q-63 0 -115 22t-89.5 61t-58 94t-20.5 121q0 87 32 165.5t89.5 138.5t136.5 95.5t174 35.5q51 0 98.5 -9.5t82.5 -25.5
l47 40h42l-44 -264l-48 -2q-29 96 -68.5 147.5t-100.5 51.5q-37 0 -69.5 -17.5t-59.5 -47t-48 -68.5t-35 -82t-21.5 -87.5t-7.5 -84.5q0 -55 14 -93t38 -62t54.5 -34.5t63.5 -10.5q26 0 48 7l43 195l-92 26l9 39h336l-8 -39l-77 -26l-59 -275l-38 -4l-70 48
q-38 -26 -83 -40.5t-96 -14.5z" />
    <glyph glyph-name="gbreve" unicode="&#x11f;" horiz-adv-x="582" 
d="M120 7q-33 -35 -33 -78q0 -27 13 -49.5t36 -38.5t54.5 -24.5t69.5 -8.5q44 0 68.5 18.5t24.5 50.5q0 18 -10 34.5t-36 32.5t-71.5 31.5t-115.5 31.5zM297 474q-28 0 -51 -23q-25 -25 -37.5 -66t-12.5 -82q0 -98 64 -98q15 0 27.5 6t23.5 17q24 25 37 66t13 82
q0 98 -64 98zM167 172q-57 17 -88.5 55t-31.5 90q0 43 20 81t55 66t82.5 44.5t103.5 16.5q48 0 86.5 -13t64.5 -36l101 56h76l-23 -112h-31l-81 27l-7 -11q17 -31 17 -69q0 -43 -20 -80.5t-55 -65.5t-82.5 -44.5t-103.5 -16.5h-15t-15 2q-2 -18 -1 -29.5t8 -19t20.5 -12
t36.5 -10.5q59 -14 98.5 -30t63.5 -35t34 -40t10 -44q0 -35 -16.5 -68.5t-51.5 -60t-90.5 -43t-133.5 -16.5q-65 0 -112.5 11t-78.5 30t-46 44t-15 54q0 48 43 90t131 64zM367 593q-81 0 -118.5 55.5t-23.5 158.5l46 14q10 -52 37 -80.5t82 -28.5q85 0 140 109l44 -14
q-34 -116 -84 -165t-123 -49z" />
    <glyph glyph-name="Gcommaaccent" unicode="&#x122;" horiz-adv-x="780" 
d="M346 -17q-63 0 -115 22t-89.5 61t-58 94t-20.5 121q0 87 32 165.5t89.5 138.5t136.5 95.5t174 35.5q51 0 98.5 -9.5t82.5 -25.5l47 40h42l-44 -264l-48 -2q-29 96 -68.5 147.5t-100.5 51.5q-37 0 -69.5 -17.5t-59.5 -47t-48 -68.5t-35 -82t-21.5 -87.5t-7.5 -84.5
q0 -55 14 -93t38 -62t54.5 -34.5t63.5 -10.5q26 0 48 7l43 195l-92 26l9 39h336l-8 -39l-77 -26l-59 -275l-38 -4l-70 48q-38 -26 -83 -40.5t-96 -14.5zM182 -333q54 32 83 62.5t41 58.5l-7 7q-4 -2 -13 -2q-21 0 -38 14t-17 43q0 34 23 59t58 25q34 0 54.5 -22t20.5 -64
q0 -31 -13 -61t-37.5 -57t-59.5 -50t-80 -39l-15 26v0z" />
    <glyph glyph-name="gcommaaccent" unicode="&#x123;" horiz-adv-x="582" 
d="M489 863q-54 -32 -83 -62.5t-41 -58.5l7 -7q4 2 13 2q21 0 38 -14t17 -43q0 -34 -23 -59t-58 -25q-34 0 -54.5 22t-20.5 64q0 31 13 61t37.5 57t59.5 50t80 39zM120 7q-33 -35 -33 -78q0 -27 13 -49.5t36 -38.5t54.5 -24.5t69.5 -8.5q44 0 68.5 18.5t24.5 50.5
q0 18 -10 34.5t-36 32.5t-71.5 31.5t-115.5 31.5zM297 474q-28 0 -51 -23q-25 -25 -37.5 -66t-12.5 -82q0 -98 64 -98q15 0 27.5 6t23.5 17q24 25 37 66t13 82q0 98 -64 98zM167 172q-57 17 -88.5 55t-31.5 90q0 43 20 81t55 66t82.5 44.5t103.5 16.5q48 0 86.5 -13
t64.5 -36l101 56h76l-23 -112h-31l-81 27l-7 -11q17 -31 17 -69q0 -43 -20 -80.5t-55 -65.5t-82.5 -44.5t-103.5 -16.5h-15t-15 2q-2 -18 -1 -29.5t8 -19t20.5 -12t36.5 -10.5q59 -14 98.5 -30t63.5 -35t34 -40t10 -44q0 -35 -16.5 -68.5t-51.5 -60t-90.5 -43t-133.5 -16.5
q-65 0 -112.5 11t-78.5 30t-46 44t-15 54q0 48 43 90t131 64z" />
    <glyph glyph-name="Gdotaccent" unicode="&#x120;" horiz-adv-x="780" 
d="M508 793q-38 0 -62.5 25.5t-24.5 63.5q0 19 7 36.5t20 31t30.5 21.5t38.5 8q38 0 62.5 -25.5t24.5 -64.5q0 -19 -7.5 -36t-20 -30.5t-30 -21.5t-38.5 -8zM346 -17q-63 0 -115 22t-89.5 61t-58 94t-20.5 121q0 87 32 165.5t89.5 138.5t136.5 95.5t174 35.5q51 0 98.5 -9.5
t82.5 -25.5l47 40h42l-44 -264l-48 -2q-29 96 -68.5 147.5t-100.5 51.5q-37 0 -69.5 -17.5t-59.5 -47t-48 -68.5t-35 -82t-21.5 -87.5t-7.5 -84.5q0 -55 14 -93t38 -62t54.5 -34.5t63.5 -10.5q26 0 48 7l43 195l-92 26l9 39h336l-8 -39l-77 -26l-59 -275l-38 -4l-70 48
q-38 -26 -83 -40.5t-96 -14.5z" />
    <glyph glyph-name="gdotaccent" unicode="&#x121;" horiz-adv-x="582" 
d="M120 7q-33 -35 -33 -78q0 -27 13 -49.5t36 -38.5t54.5 -24.5t69.5 -8.5q44 0 68.5 18.5t24.5 50.5q0 18 -10 34.5t-36 32.5t-71.5 31.5t-115.5 31.5zM297 474q-28 0 -51 -23q-25 -25 -37.5 -66t-12.5 -82q0 -98 64 -98q15 0 27.5 6t23.5 17q24 25 37 66t13 82
q0 98 -64 98zM167 172q-57 17 -88.5 55t-31.5 90q0 43 20 81t55 66t82.5 44.5t103.5 16.5q48 0 86.5 -13t64.5 -36l101 56h76l-23 -112h-31l-81 27l-7 -11q17 -31 17 -69q0 -43 -20 -80.5t-55 -65.5t-82.5 -44.5t-103.5 -16.5h-15t-15 2q-2 -18 -1 -29.5t8 -19t20.5 -12
t36.5 -10.5q59 -14 98.5 -30t63.5 -35t34 -40t10 -44q0 -35 -16.5 -68.5t-51.5 -60t-90.5 -43t-133.5 -16.5q-65 0 -112.5 11t-78.5 30t-46 44t-15 54q0 48 43 90t131 64zM367 598q-39 0 -64 26t-25 65q0 19 7.5 37t20 31.5t30.5 22t39 8.5q39 0 64 -25.5t25 -65.5
q0 -19 -7.5 -37t-20 -31.5t-30.5 -22t-39 -8.5z" />
    <glyph glyph-name="Hbar" unicode="&#x126;" horiz-adv-x="879" 
d="M-17 40l105 26l89 420h-97l14 64h96l19 86l-94 25l8 40h369l-9 -40l-92 -27l-18 -84h252l19 86l-80 25l8 40h369l-9 -40l-106 -27l-18 -84h96l-14 -64h-96l-89 -422l95 -24l-8 -40h-369l8 40l92 26l55 263h-252l-55 -265l80 -24l-8 -40h-369zM593 396l19 90h-252l-19 -90
h252z" />
    <glyph glyph-name="hbar" unicode="&#x127;" horiz-adv-x="651" 
d="M460 -14q-50 0 -71.5 20.5t-21.5 58.5q0 12 2 25t5 27l46 194q12 51 1.5 76t-47.5 25q-44 0 -110 -44l-78 -368h-157l126 591h-72l14 66h72l12 53l-86 36l4 33l239 51l22 -14l-34 -159h177l-14 -66h-177l-34 -159l11 -2q53 45 95.5 70t90.5 25q39 0 64 -16.5t37 -44
t12.5 -64.5t-9.5 -79l-45 -190q-5 -21 -5.5 -33t8 -19t27 -9.5t52.5 -4.5l5 -27q-40 -24 -80.5 -38t-80.5 -14z" />
    <glyph glyph-name="Iacute" unicode="&#xcd;" horiz-adv-x="468" 
d="M-6 40l106 26l120 570l-94 25l8 40h383l-9 -40l-106 -27l-120 -570l94 -24l-8 -40h-383zM289 792q31 70 55.5 120.5t45.5 76.5q11 13 25.5 22.5t30.5 13t31 0.5t27 -13q25 -21 22 -52.5t-28 -58.5t-69 -57.5t-113 -73.5z" />
    <glyph glyph-name="iacute" unicode="&#xed;" horiz-adv-x="368" 
d="M160 597q32 72 56.5 123t46.5 78q11 14 26 23.5t31 13t31.5 0.5t27.5 -13q26 -22 23 -54t-29 -59q-26 -28 -70 -59t-115 -75zM152 -14q-33 0 -53.5 9t-30.5 25.5t-10 40t7 53.5l69 284l-85 47l4 32l244 51l22 -14l-93 -383q-5 -21 -5.5 -33t8.5 -19t29.5 -9.5t57.5 -4.5
l5 -27q-48 -26 -87.5 -39t-81.5 -13z" />
    <glyph glyph-name="Ibreve" unicode="&#x12c;" horiz-adv-x="468" 
d="M-6 40l106 26l120 570l-94 25l8 40h383l-9 -40l-106 -27l-120 -570l94 -24l-8 -40h-383zM353 777q-80 0 -116.5 54.5t-22.5 155.5l45 14q9 -51 36 -79t81 -28q42 0 76.5 27.5t60.5 79.5l44 -14q-33 -114 -82.5 -162t-121.5 -48z" />
    <glyph glyph-name="ibreve" unicode="&#x12d;" horiz-adv-x="368" 
d="M152 -14q-33 0 -53.5 9t-30.5 25.5t-10 40t7 53.5l69 284l-85 47l4 32l244 51l22 -14l-93 -383q-5 -21 -5.5 -33t8.5 -19t29.5 -9.5t57.5 -4.5l5 -27q-48 -26 -87.5 -39t-81.5 -13zM227 583q-81 0 -118.5 55.5t-23.5 158.5l46 14q10 -52 37 -80.5t82 -28.5q85 0 140 109
l44 -14q-34 -116 -84 -165t-123 -49z" />
    <glyph glyph-name="Icircumflex" unicode="&#xce;" horiz-adv-x="468" 
d="M-6 40l106 26l120 570l-94 25l8 40h383l-9 -40l-106 -27l-120 -570l94 -24l-8 -40h-383zM173 799l173 216h83l84 -216l-37 -29l-109 110l-169 -110z" />
    <glyph glyph-name="icircumflex" unicode="&#xee;" horiz-adv-x="368" 
d="M41 605l176 219h85l86 -219l-39 -30l-110 112l-172 -112zM152 -14q-33 0 -53.5 9t-30.5 25.5t-10 40t7 53.5l69 284l-85 47l4 32l244 51l22 -14l-93 -383q-5 -21 -5.5 -33t8.5 -19t29.5 -9.5t57.5 -4.5l5 -27q-48 -26 -87.5 -39t-81.5 -13z" />
    <glyph glyph-name="Idieresis" unicode="&#xcf;" horiz-adv-x="468" 
d="M-6 40l106 26l120 570l-94 25l8 40h383l-9 -40l-106 -27l-120 -570l94 -24l-8 -40h-383zM476 783q-37 0 -60.5 24.5t-23.5 61.5q0 18 7 35t19.5 30t29.5 21t37 8q37 0 60.5 -24.5t23.5 -62.5q0 -18 -7 -35t-19.5 -29.5t-29.5 -20.5t-37 -8zM237 783q-38 0 -61 24.5
t-23 61.5q0 18 7 35t19 30t28.5 21t36.5 8q38 0 61 -24.5t23 -62.5q0 -18 -7 -35t-19 -29.5t-29 -20.5t-36 -8z" />
    <glyph glyph-name="idieresis" unicode="&#xef;" horiz-adv-x="368" 
d="M351 588q-38 0 -61.5 25t-23.5 63q0 18 7 35.5t19.5 30.5t30 21t37.5 8q38 0 62 -24.5t24 -62.5q0 -18 -7 -35.5t-20 -31t-30 -21.5t-38 -8zM108 588q-38 0 -62 25t-24 63q0 18 7 35.5t19.5 30.5t29.5 21t37 8q38 0 62 -24.5t24 -62.5q0 -18 -7 -35.5t-19.5 -31
t-29.5 -21.5t-37 -8zM152 -14q-33 0 -53.5 9t-30.5 25.5t-10 40t7 53.5l69 284l-85 47l4 32l244 51l22 -14l-93 -383q-5 -21 -5.5 -33t8.5 -19t29.5 -9.5t57.5 -4.5l5 -27q-48 -26 -87.5 -39t-81.5 -13z" />
    <glyph glyph-name="Idotaccent" unicode="&#x130;" horiz-adv-x="468" 
d="M-6 40l106 26l120 570l-94 25l8 40h383l-9 -40l-106 -27l-120 -570l94 -24l-8 -40h-383zM354 783q-38 0 -62.5 25.5t-24.5 63.5q0 19 7 36.5t20 31t30.5 21.5t38.5 8q38 0 62.5 -25.5t24.5 -64.5q0 -19 -7.5 -36t-20 -30.5t-30 -21.5t-38.5 -8z" />
    <glyph glyph-name="dotlessi" unicode="&#x131;" horiz-adv-x="368" 
d="M152 -14q-33 0 -53.5 9t-30.5 25.5t-10 40t7 53.5l69 284l-85 47l4 32l244 51l22 -14l-93 -383q-5 -21 -5.5 -33t8.5 -19t29.5 -9.5t57.5 -4.5l5 -27q-48 -26 -87.5 -39t-81.5 -13z" />
    <glyph glyph-name="Igrave" unicode="&#xcc;" horiz-adv-x="468" 
d="M-6 40l106 26l120 570l-94 25l8 40h383l-9 -40l-106 -27l-120 -570l94 -24l-8 -40h-383zM346 769q-44 39 -77 76t-47 64q-16 31 -9 61.5t39 46.5t61 4.5t43 -44.5q11 -27 17.5 -71.5t11.5 -113.5l-39 -23v0z" />
    <glyph glyph-name="igrave" unicode="&#xec;" horiz-adv-x="368" 
d="M152 -14q-33 0 -53.5 9t-30.5 25.5t-10 40t7 53.5l69 284l-85 47l4 32l244 51l22 -14l-93 -383q-5 -21 -5.5 -33t8.5 -19t29.5 -9.5t57.5 -4.5l5 -27q-48 -26 -87.5 -39t-81.5 -13zM218 574q-45 41 -79 78t-48 65q-16 32 -8.5 63t39.5 47t62 4.5t44 -45.5q11 -27 18 -73
t12 -115l-40 -24v0z" />
    <glyph glyph-name="Imacron" unicode="&#x12a;" horiz-adv-x="468" 
d="M-6 40l106 26l120 570l-94 25l8 40h383l-9 -40l-106 -27l-120 -570l94 -24l-8 -40h-383zM190 907h358l-22 -102h-359z" />
    <glyph glyph-name="imacron" unicode="&#x12b;" horiz-adv-x="368" 
d="M152 -14q-33 0 -53.5 9t-30.5 25.5t-10 40t7 53.5l69 284l-85 47l4 32l244 51l22 -14l-93 -383q-5 -21 -5.5 -33t8.5 -19t29.5 -9.5t57.5 -4.5l5 -27q-48 -26 -87.5 -39t-81.5 -13zM58 715h366l-23 -104h-365z" />
    <glyph glyph-name="Iogonek" unicode="&#x12e;" horiz-adv-x="468" 
d="M-6 40l106 26l120 570l-94 25l8 40h383l-9 -40l-106 -27l-120 -570l94 -24l-8 -40h-137q-31 -26 -51.5 -48.5t-32.5 -42t-17 -36.5t-5 -33q0 -25 17.5 -40.5t43.5 -15.5q23 0 40 7t29 15l21 -22q-30 -29 -67 -45.5t-85 -16.5q-43 0 -71.5 22.5t-28.5 60.5q0 29 12.5 57
t33 52.5t47 46.5t55.5 39h-187z" />
    <glyph glyph-name="iogonek" unicode="&#x12f;" horiz-adv-x="368" 
d="M256 616q-33 0 -54.5 21.5t-21.5 62.5q0 22 8 44.5t23 41t36 30t46 11.5q32 0 53.5 -21.5t21.5 -62.5q0 -22 -8 -44.5t-23 -41t-35.5 -30t-45.5 -11.5zM158 -14q-36 -1 -57.5 8t-32 25.5t-10.5 40.5t7 54l69 284l-85 47l4 32l244 51l22 -14l-93 -383q-5 -21 -5.5 -33
t8.5 -19t29.5 -9.5t57.5 -4.5l5 -27q-40 -20 -76.5 -44t-64 -50t-44 -53.5t-16.5 -53.5t17.5 -41.5t44.5 -15.5q23 0 40.5 7.5t29.5 15.5l21 -23q-31 -29 -68.5 -46t-85.5 -17q-43 0 -72.5 22.5t-29.5 61.5q0 52 40.5 98t100.5 87z" />
    <glyph glyph-name="Kcommaaccent" unicode="&#x136;" horiz-adv-x="806" 
d="M-17 40l105 26l121 570l-94 25l8 40h368l-8 -40l-92 -27l-53 -252h55l235 244l-68 45l6 30h297l-9 -40l-115 -45l-224 -206l159 -333l80 -37l-9 -40h-329l6 30l63 26l-107 256h-55l-52 -248l80 -24l-9 -40h-368zM221 -333q54 32 83 62.5t41 58.5l-7 7q-4 -2 -13 -2
q-21 0 -38 14t-17 43q0 34 23 59t58 25q34 0 54.5 -22t20.5 -64q0 -31 -13 -61t-37.5 -57t-59.5 -50t-80 -39l-15 26v0z" />
    <glyph glyph-name="kcommaaccent" unicode="&#x137;" horiz-adv-x="593" 
d="M113 -339q55 32 84.5 63.5t40.5 59.5l-6 7q-6 -2 -13 -2q-22 0 -39 14.5t-17 43.5q0 35 23 60t59 25q35 0 55.5 -22.5t20.5 -64.5q0 -63 -51 -120t-143 -91l-14 27v0zM417 -14q-42 0 -62 20t-28 71q-8 50 -14.5 80.5t-16.5 48t-24 24.5t-35 11l-51 -241h-157l149 700
l-83 46l4 33l239 51l22 -14l-114 -530q50 9 91.5 29t77.5 47q-25 31 -25 70q0 18 6.5 35.5t18.5 30.5t29 21t37 8q22 0 39.5 -7.5t28.5 -19.5t17 -27.5t6 -31.5q0 -23 -9 -45.5t-33.5 -43t-66.5 -39t-108 -34.5l-1 -10q45 -8 65 -22.5t31 -41.5q11 -29 15 -49.5t11 -46.5
q4 -15 9 -24t15 -13.5t26 -5.5t42 0l6 -27q-15 -11 -34 -20.5t-40 -16.5t-42.5 -11.5t-40.5 -4.5z" />
    <glyph glyph-name="Lacute" unicode="&#x139;" horiz-adv-x="684" 
d="M284 792q31 70 55.5 120.5t45.5 76.5q11 13 25.5 22.5t30.5 13t31 0.5t27 -13q25 -21 22 -52.5t-28 -58.5t-69 -57.5t-113 -73.5zM-17 40l105 26l121 570l-94 25l8 40h383l-9 -40l-106 -27l-121 -575l86 4q23 1 43 6.5t39 16.5t38 27.5t40 39.5l100 107l29 -4l-70 -256
h-601z" />
    <glyph glyph-name="lacute" unicode="&#x13a;" horiz-adv-x="357" 
d="M220 879q32 72 56.5 123t46.5 78q11 14 26 23.5t31 13t31.5 0.5t27.5 -13q26 -22 23 -54t-29 -59q-26 -28 -70 -59t-115 -75zM146 -14q-65 0 -83.5 34.5t-4.5 93.5l125 586l-83 46l4 33l238 51l22 -14l-146 -685q-5 -21 -5.5 -33t8.5 -18.5t28.5 -9.5t55.5 -5l5 -27
q-42 -24 -83 -38t-81 -14z" />
    <glyph glyph-name="Lcaron" unicode="&#x13d;" horiz-adv-x="684" 
d="M-17 40l105 26l121 570l-94 25l8 40h383l-9 -40l-106 -27l-121 -575l86 4q23 1 43 6.5t39 16.5t38 27.5t40 39.5l100 107l29 -4l-70 -256h-601zM516 420q8 77 20 133.5t26 88.5q7 16 18 29t24.5 21t28.5 9.5t30 -4.5t23 -18t10.5 -26.5t-0.5 -30.5t-10 -30
q-19 -38 -54 -81.5t-88 -101.5z" />
    <glyph glyph-name="lcaron" unicode="&#x13e;" horiz-adv-x="357" 
d="M364 545q9 78 21 136t26 90q7 16 18 29.5t25 21.5t29.5 9.5t30.5 -4.5t23.5 -18.5t10.5 -27.5t-1 -31.5t-10 -30.5q-19 -38 -55 -82t-90 -103zM146 -14q-65 0 -83.5 34.5t-4.5 93.5l125 586l-83 46l4 33l238 51l22 -14l-146 -685q-5 -21 -5.5 -33t8.5 -18.5t28.5 -9.5
t55.5 -5l5 -27q-42 -24 -83 -38t-81 -14z" />
    <glyph glyph-name="Lcommaaccent" unicode="&#x13b;" horiz-adv-x="684" 
d="M-17 40l105 26l121 570l-94 25l8 40h383l-9 -40l-106 -27l-121 -575l86 4q23 1 43 6.5t39 16.5t38 27.5t40 39.5l100 107l29 -4l-70 -256h-601zM162 -333q54 32 83 62.5t41 58.5l-7 7q-4 -2 -13 -2q-21 0 -38 14t-17 43q0 34 23 59t58 25q34 0 54.5 -22t20.5 -64
q0 -31 -13 -61t-37.5 -57t-59.5 -50t-80 -39l-15 26v0z" />
    <glyph glyph-name="lcommaaccent" unicode="&#x13c;" horiz-adv-x="357" 
d="M-17 -339q55 32 84.5 63.5t40.5 59.5l-6 7q-6 -2 -13 -2q-22 0 -39 14.5t-17 43.5q0 35 23 60t59 25q35 0 55.5 -22.5t20.5 -64.5q0 -63 -51 -120t-143 -91l-14 27v0zM146 -14q-65 0 -83.5 34.5t-4.5 93.5l125 586l-83 46l4 33l238 51l22 -14l-146 -685q-5 -21 -5.5 -33
t8.5 -18.5t28.5 -9.5t55.5 -5l5 -27q-42 -24 -83 -38t-81 -14z" />
    <glyph glyph-name="Ldot" unicode="&#x13f;" horiz-adv-x="679" 
d="M591 355q-34 0 -58 24t-24 58t24 58.5t59 24.5q34 0 58 -24t24 -58t-24.5 -58.5t-58.5 -24.5zM-17 40l105 26l121 570l-94 25l8 40h383l-9 -40l-106 -27l-121 -575l86 4q23 1 43 6.5t39 16.5t38 27.5t40 39.5l100 107l29 -4l-70 -256h-601z" />
    <glyph glyph-name="ldot" unicode="&#x140;" horiz-adv-x="470" 
d="M426 308q-35 0 -59.5 24.5t-24.5 59.5t24.5 59.5t59.5 24.5t59.5 -24.5t24.5 -59.5q0 -34 -24.5 -59t-59.5 -25zM146 -14q-65 0 -83.5 34.5t-4.5 93.5l125 586l-83 46l4 33l238 51l22 -14l-146 -685q-5 -21 -5.5 -33t8.5 -18.5t28.5 -9.5t55.5 -5l5 -27q-42 -24 -83 -38
t-81 -14z" />
    <glyph glyph-name="Lslash" unicode="&#x141;" horiz-adv-x="685" 
d="M-17 40l106 26l49 231l-76 -19l-4 63l94 25l57 270l-94 25l9 40h382l-8 -40l-107 -27l-46 -219l144 37l5 -63l-164 -43l-60 -287l91 4q23 1 42.5 6t38 15.5t37.5 27t41 40.5l99 107l26 -3l-70 -256h-600z" />
    <glyph glyph-name="lslash" unicode="&#x142;" horiz-adv-x="394" 
d="M164 -14q-65 0 -83.5 34.5t-4.5 93.5l48 226l-86 -24l-4 65l106 29l61 290l-83 46l4 33l239 51l22 -14l-76 -358l99 28l5 -65l-119 -33l-55 -257q-5 -21 -5.5 -33t8 -18.5t28 -9.5t55.5 -5l6 -27q-42 -24 -83 -38t-82 -14z" />
    <glyph glyph-name="Nacute" unicode="&#x143;" horiz-adv-x="855" 
d="M478 792q31 70 55.5 120.5t45.5 76.5q11 13 25.5 22.5t30.5 13t31 0.5t27 -13q25 -21 22 -52.5t-28 -58.5t-69 -57.5t-113 -73.5zM493 115l-201 423h-12l-97 -461l86 -37l-8 -40h-278l8 40l104 39l116 548l-82 34l9 40h281l53 -121l154 -336h13l80 379l-87 38l9 40h278
l-9 -40l-104 -39l-133 -629h-126z" />
    <glyph glyph-name="nacute" unicode="&#x144;" horiz-adv-x="660" 
d="M329 607q32 72 56.5 123t46.5 78q11 14 26 23.5t31 13t31.5 0.5t27.5 -13q26 -22 23 -54t-29 -59q-26 -28 -70 -59t-115 -75zM469 -14q-50 0 -71.5 20.5t-20.5 58.5q0 25 7 52l45 194q12 51 1.5 76t-47.5 25q-44 0 -110 -44l-78 -368h-157l85 398l-77 47l4 32l229 51
l22 -14l-32 -98l11 -2q57 51 105 81t99 30q39 0 64 -16.5t37 -44t12.5 -64.5t-9.5 -79l-45 -190q-5 -21 -5.5 -33t8 -19t27 -9.5t52.5 -4.5l5 -27q-40 -24 -80.5 -38t-80.5 -14z" />
    <glyph glyph-name="Ncaron" unicode="&#x147;" horiz-adv-x="855" 
d="M382 995l38 29l108 -110l170 110l25 -29l-173 -215h-83zM493 115l-201 423h-12l-97 -461l86 -37l-8 -40h-278l8 40l104 39l116 548l-82 34l9 40h281l53 -121l154 -336h13l80 379l-87 38l9 40h278l-9 -40l-104 -39l-133 -629h-126z" />
    <glyph glyph-name="ncaron" unicode="&#x148;" horiz-adv-x="660" 
d="M232 814l39 30l110 -112l172 112l26 -30l-176 -219h-85zM469 -14q-50 0 -71.5 20.5t-20.5 58.5q0 25 7 52l45 194q12 51 1.5 76t-47.5 25q-44 0 -110 -44l-78 -368h-157l85 398l-77 47l4 32l229 51l22 -14l-32 -98l11 -2q57 51 105 81t99 30q39 0 64 -16.5t37 -44
t12.5 -64.5t-9.5 -79l-45 -190q-5 -21 -5.5 -33t8 -19t27 -9.5t52.5 -4.5l5 -27q-40 -24 -80.5 -38t-80.5 -14z" />
    <glyph glyph-name="Ncommaaccent" unicode="&#x145;" horiz-adv-x="855" 
d="M241 -333q54 32 83 62.5t41 58.5l-7 7q-4 -2 -13 -2q-21 0 -38 14t-17 43q0 34 23 59t58 25q34 0 54.5 -22t20.5 -64q0 -31 -13 -61t-37.5 -57t-59.5 -50t-80 -39l-15 26v0zM493 115l-201 423h-12l-97 -461l86 -37l-8 -40h-278l8 40l104 39l116 548l-82 34l9 40h281
l53 -121l154 -336h13l80 379l-87 38l9 40h278l-9 -40l-104 -39l-133 -629h-126z" />
    <glyph glyph-name="ncommaaccent" unicode="&#x146;" horiz-adv-x="660" 
d="M135 -339q55 32 84.5 63.5t40.5 59.5l-6 7q-6 -2 -13 -2q-22 0 -39 14.5t-17 43.5q0 35 23 60t59 25q35 0 55.5 -22.5t20.5 -64.5q0 -63 -51 -120t-143 -91l-14 27v0zM469 -14q-50 0 -71.5 20.5t-20.5 58.5q0 25 7 52l45 194q12 51 1.5 76t-47.5 25q-44 0 -110 -44
l-78 -368h-157l85 398l-77 47l4 32l229 51l22 -14l-32 -98l11 -2q57 51 105 81t99 30q39 0 64 -16.5t37 -44t12.5 -64.5t-9.5 -79l-45 -190q-5 -21 -5.5 -33t8 -19t27 -9.5t52.5 -4.5l5 -27q-40 -24 -80.5 -38t-80.5 -14z" />
    <glyph glyph-name="Ntilde" unicode="&#xd1;" horiz-adv-x="855" 
d="M352 783q21 95 51.5 137.5t83.5 42.5q24 0 46 -8.5t42.5 -19t39.5 -19t36 -8.5q18 0 31 14t30 49l48 -7q-21 -95 -51.5 -137t-83.5 -42q-24 0 -46 8.5t-42.5 19t-39.5 19t-36 8.5q-18 0 -31 -14.5t-30 -48.5zM493 115l-201 423h-12l-97 -461l86 -37l-8 -40h-278l8 40
l104 39l116 548l-82 34l9 40h281l53 -121l154 -336h13l80 379l-87 38l9 40h278l-9 -40l-104 -39l-133 -629h-126z" />
    <glyph glyph-name="ntilde" unicode="&#xf1;" horiz-adv-x="660" 
d="M469 -14q-50 0 -71.5 20.5t-20.5 58.5q0 25 7 52l45 194q12 51 1.5 76t-47.5 25q-44 0 -110 -44l-78 -368h-157l85 398l-77 47l4 32l229 51l22 -14l-32 -98l11 -2q57 51 105 81t99 30q39 0 64 -16.5t37 -44t12.5 -64.5t-9.5 -79l-45 -190q-5 -21 -5.5 -33t8 -19t27 -9.5
t52.5 -4.5l5 -27q-40 -24 -80.5 -38t-80.5 -14zM201 599q21 97 52.5 139.5t85.5 42.5q24 0 46.5 -8.5t43.5 -19t40 -19t37 -8.5t31 14.5t30 49.5l49 -7q-21 -97 -52 -139.5t-85 -42.5q-24 0 -46.5 8.5t-43.5 19t-40 19t-37 8.5t-31 -14.5t-30 -49.5z" />
    <glyph glyph-name="Oacute" unicode="&#xd3;" horiz-adv-x="811" 
d="M464 802q31 70 55.5 120.5t45.5 76.5q11 13 25.5 22.5t30.5 13t31 0.5t27 -13q25 -21 22 -52.5t-28 -58.5t-69 -57.5t-113 -73.5zM375 -16q-81 0 -139.5 22.5t-96.5 62t-56.5 94t-18.5 118.5q0 79 29.5 157t83 140t128.5 100.5t167 38.5q81 0 139.5 -22.5t96.5 -62
t56.5 -94.5t18.5 -119q0 -79 -29.5 -157t-83.5 -139.5t-129 -100t-166 -38.5zM372 43q37 0 67.5 21.5t55 57.5t43 82.5t31 96.5t18.5 99.5t6 92.5q0 82 -32 123t-86 41q-37 0 -67.5 -21.5t-55 -57.5t-43 -82.5t-31 -96t-18.5 -99.5t-6 -92q0 -82 32 -123.5t86 -41.5z" />
    <glyph glyph-name="oacute" unicode="&#xf3;" horiz-adv-x="608" 
d="M326 607q32 72 56.5 123t46.5 78q11 14 26 23.5t31 13t31.5 0.5t27.5 -13q26 -22 23 -54t-29 -59q-26 -28 -70 -59t-115 -75zM249 -14q-46 0 -85 13.5t-67.5 39.5t-44.5 65.5t-16 90.5q0 64 24.5 123.5t68 105.5t103 73.5t128.5 27.5q46 0 84.5 -13.5t67 -40t44.5 -66
t16 -90.5q0 -64 -24.5 -123.5t-67.5 -105t-102.5 -73t-128.5 -27.5zM271 42q22 0 41 16t34 42.5t26.5 60t19.5 68.5t12 68t4 59q0 53 -17.5 82.5t-52.5 29.5q-33 0 -59 -34.5t-43 -84t-26 -103t-9 -92.5q0 -52 17 -82t53 -30z" />
    <glyph glyph-name="Obreve" unicode="&#x14e;" horiz-adv-x="811" 
d="M528 787q-80 0 -116.5 54.5t-22.5 155.5l45 14q9 -51 36 -79t81 -28q42 0 76.5 27.5t60.5 79.5l44 -14q-33 -114 -82.5 -162t-121.5 -48zM375 -16q-81 0 -139.5 22.5t-96.5 62t-56.5 94t-18.5 118.5q0 79 29.5 157t83 140t128.5 100.5t167 38.5q81 0 139.5 -22.5
t96.5 -62t56.5 -94.5t18.5 -119q0 -79 -29.5 -157t-83.5 -139.5t-129 -100t-166 -38.5zM372 43q37 0 67.5 21.5t55 57.5t43 82.5t31 96.5t18.5 99.5t6 92.5q0 82 -32 123t-86 41q-37 0 -67.5 -21.5t-55 -57.5t-43 -82.5t-31 -96t-18.5 -99.5t-6 -92q0 -82 32 -123.5
t86 -41.5z" />
    <glyph glyph-name="obreve" unicode="&#x14f;" horiz-adv-x="608" 
d="M249 -14q-46 0 -85 13.5t-67.5 39.5t-44.5 65.5t-16 90.5q0 64 24.5 123.5t68 105.5t103 73.5t128.5 27.5q46 0 84.5 -13.5t67 -40t44.5 -66t16 -90.5q0 -64 -24.5 -123.5t-67.5 -105t-102.5 -73t-128.5 -27.5zM271 42q22 0 41 16t34 42.5t26.5 60t19.5 68.5t12 68t4 59
q0 53 -17.5 82.5t-52.5 29.5q-33 0 -59 -34.5t-43 -84t-26 -103t-9 -92.5q0 -52 17 -82t53 -30zM391 593q-81 0 -118.5 55.5t-23.5 158.5l46 14q10 -52 37 -80.5t82 -28.5q85 0 140 109l44 -14q-34 -116 -84 -165t-123 -49z" />
    <glyph glyph-name="Ocircumflex" unicode="&#xd4;" horiz-adv-x="811" 
d="M375 -16q-81 0 -139.5 22.5t-96.5 62t-56.5 94t-18.5 118.5q0 79 29.5 157t83 140t128.5 100.5t167 38.5q81 0 139.5 -22.5t96.5 -62t56.5 -94.5t18.5 -119q0 -79 -29.5 -157t-83.5 -139.5t-129 -100t-166 -38.5zM372 43q37 0 67.5 21.5t55 57.5t43 82.5t31 96.5
t18.5 99.5t6 92.5q0 82 -32 123t-86 41q-37 0 -67.5 -21.5t-55 -57.5t-43 -82.5t-31 -96t-18.5 -99.5t-6 -92q0 -82 32 -123.5t86 -41.5zM347 809l173 216h83l84 -216l-37 -29l-109 110l-169 -110z" />
    <glyph glyph-name="ocircumflex" unicode="&#xf4;" horiz-adv-x="608" 
d="M207 615l176 219h85l86 -219l-39 -30l-110 112l-172 -112zM249 -14q-46 0 -85 13.5t-67.5 39.5t-44.5 65.5t-16 90.5q0 64 24.5 123.5t68 105.5t103 73.5t128.5 27.5q46 0 84.5 -13.5t67 -40t44.5 -66t16 -90.5q0 -64 -24.5 -123.5t-67.5 -105t-102.5 -73t-128.5 -27.5z
M271 42q22 0 41 16t34 42.5t26.5 60t19.5 68.5t12 68t4 59q0 53 -17.5 82.5t-52.5 29.5q-33 0 -59 -34.5t-43 -84t-26 -103t-9 -92.5q0 -52 17 -82t53 -30z" />
    <glyph glyph-name="Odieresis" unicode="&#xd6;" horiz-adv-x="811" 
d="M650 793q-37 0 -60.5 24.5t-23.5 61.5q0 18 7 35t19.5 30t29.5 21t37 8q37 0 60.5 -24.5t23.5 -62.5q0 -18 -7 -35t-19.5 -29.5t-29.5 -20.5t-37 -8zM411 793q-38 0 -61 24.5t-23 61.5q0 18 7 35t19 30t28.5 21t36.5 8q38 0 61 -24.5t23 -62.5q0 -18 -7 -35t-19 -29.5
t-29 -20.5t-36 -8zM375 -16q-81 0 -139.5 22.5t-96.5 62t-56.5 94t-18.5 118.5q0 79 29.5 157t83 140t128.5 100.5t167 38.5q81 0 139.5 -22.5t96.5 -62t56.5 -94.5t18.5 -119q0 -79 -29.5 -157t-83.5 -139.5t-129 -100t-166 -38.5zM372 43q37 0 67.5 21.5t55 57.5t43 82.5
t31 96.5t18.5 99.5t6 92.5q0 82 -32 123t-86 41q-37 0 -67.5 -21.5t-55 -57.5t-43 -82.5t-31 -96t-18.5 -99.5t-6 -92q0 -82 32 -123.5t86 -41.5z" />
    <glyph glyph-name="odieresis" unicode="&#xf6;" horiz-adv-x="608" 
d="M515 598q-38 0 -61.5 25t-23.5 63q0 18 7 35.5t19.5 30.5t30 21t37.5 8q38 0 62 -24.5t24 -62.5q0 -18 -7 -35.5t-20 -31t-30 -21.5t-38 -8zM272 598q-38 0 -62 25t-24 63q0 18 7 35.5t19.5 30.5t29.5 21t37 8q38 0 62 -24.5t24 -62.5q0 -18 -7 -35.5t-19.5 -31
t-29.5 -21.5t-37 -8zM249 -14q-46 0 -85 13.5t-67.5 39.5t-44.5 65.5t-16 90.5q0 64 24.5 123.5t68 105.5t103 73.5t128.5 27.5q46 0 84.5 -13.5t67 -40t44.5 -66t16 -90.5q0 -64 -24.5 -123.5t-67.5 -105t-102.5 -73t-128.5 -27.5zM271 42q22 0 41 16t34 42.5t26.5 60
t19.5 68.5t12 68t4 59q0 53 -17.5 82.5t-52.5 29.5q-33 0 -59 -34.5t-43 -84t-26 -103t-9 -92.5q0 -52 17 -82t53 -30z" />
    <glyph glyph-name="OE" unicode="&#x152;" horiz-adv-x="1096" 
d="M447 0q-196 0 -289.5 69t-93.5 209q0 84 29 161t90.5 135t156 92.5t225.5 34.5h544l-45 -232l-31 -6l-45 99q-10 22 -20 36.5t-23 23t-31 12.5t-44 5l-103 4l-57 -264h33q25 0 41.5 3t29 12t23 25t23.5 41l18 34h35l-62 -293h-31l-6 33q-4 27 -8.5 44t-13 26.5t-23 13
t-38.5 3.5h-34l-54 -262l124 6q25 1 44.5 5.5t37 13t34 21.5t35.5 30l101 96l29 -5l-59 -226h-542zM460 58l124 586l-58 -3q-71 -4 -122.5 -42.5t-85.5 -94.5t-50 -121.5t-16 -123.5q0 -88 38.5 -138.5t126.5 -58.5z" />
    <glyph glyph-name="oe" unicode="&#x153;" horiz-adv-x="902" 
d="M271 42q22 0 41 16t34 42.5t26.5 60t19.5 68.5t12 68t4 59q0 53 -17.5 82.5t-52.5 29.5q-33 0 -59 -34.5t-43 -84t-26 -103t-9 -92.5q0 -52 17 -82t53 -30zM547 272q56 5 94 18.5t61.5 33t33.5 44.5t10 52q0 23 -11 36.5t-34 13.5q-21 0 -45.5 -15t-46 -42t-38.5 -63
t-24 -78zM515 435q45 42 99 66t111 24q74 0 116.5 -35.5t42.5 -89.5q0 -46 -26.5 -80t-73 -56.5t-108.5 -32.5t-134 -8q0 -70 35.5 -102.5t103.5 -32.5q33 0 67 11.5t67 31.5l20 -20q-38 -59 -93 -92t-126 -33q-63 0 -107.5 22t-70.5 60q-39 -39 -88 -60.5t-103 -21.5
q-45 0 -84 13.5t-67 39.5t-44 65.5t-16 90.5q0 66 26 126t69.5 105t100 72t118.5 27q51 0 95 -22t70 -68z" />
    <glyph glyph-name="Ograve" unicode="&#xd2;" horiz-adv-x="811" 
d="M520 779q-44 39 -77 76t-47 64q-16 31 -9 61.5t39 46.5t61 4.5t43 -44.5q11 -27 17.5 -71.5t11.5 -113.5l-39 -23v0zM375 -16q-81 0 -139.5 22.5t-96.5 62t-56.5 94t-18.5 118.5q0 79 29.5 157t83 140t128.5 100.5t167 38.5q81 0 139.5 -22.5t96.5 -62t56.5 -94.5
t18.5 -119q0 -79 -29.5 -157t-83.5 -139.5t-129 -100t-166 -38.5zM372 43q37 0 67.5 21.5t55 57.5t43 82.5t31 96.5t18.5 99.5t6 92.5q0 82 -32 123t-86 41q-37 0 -67.5 -21.5t-55 -57.5t-43 -82.5t-31 -96t-18.5 -99.5t-6 -92q0 -82 32 -123.5t86 -41.5z" />
    <glyph glyph-name="ograve" unicode="&#xf2;" horiz-adv-x="608" 
d="M249 -14q-46 0 -85 13.5t-67.5 39.5t-44.5 65.5t-16 90.5q0 64 24.5 123.5t68 105.5t103 73.5t128.5 27.5q46 0 84.5 -13.5t67 -40t44.5 -66t16 -90.5q0 -64 -24.5 -123.5t-67.5 -105t-102.5 -73t-128.5 -27.5zM271 42q22 0 41 16t34 42.5t26.5 60t19.5 68.5t12 68t4 59
q0 53 -17.5 82.5t-52.5 29.5q-33 0 -59 -34.5t-43 -84t-26 -103t-9 -92.5q0 -52 17 -82t53 -30zM383 584q-45 41 -79 78t-48 65q-16 32 -8.5 63t39.5 47t62 4.5t44 -45.5q11 -27 18 -73t12 -115l-40 -24v0z" />
    <glyph glyph-name="Ohungarumlaut" unicode="&#x150;" horiz-adv-x="811" 
d="M375 -16q-81 0 -139.5 22.5t-96.5 62t-56.5 94t-18.5 118.5q0 79 29.5 157t83 140t128.5 100.5t167 38.5q81 0 139.5 -22.5t96.5 -62t56.5 -94.5t18.5 -119q0 -79 -29.5 -157t-83.5 -139.5t-129 -100t-166 -38.5zM372 43q37 0 67.5 21.5t55 57.5t43 82.5t31 96.5
t18.5 99.5t6 92.5q0 82 -32 123t-86 41q-37 0 -67.5 -21.5t-55 -57.5t-43 -82.5t-31 -96t-18.5 -99.5t-6 -92q0 -82 32 -123.5t86 -41.5zM585 801q32 70 59.5 122.5t48.5 78.5q11 13 25 21.5t29 11.5t29 0.5t25 -12.5q23 -21 21.5 -50t-27.5 -56t-70.5 -59.5t-114.5 -77.5z
M376 801q29 70 54 122.5t45 78.5q21 26 52 33.5t55 -12.5q25 -21 24 -50t-25 -56t-67 -59.5t-112 -77.5z" />
    <glyph glyph-name="ohungarumlaut" unicode="&#x151;" horiz-adv-x="608" 
d="M450 607q33 72 60.5 125t48.5 79q23 27 55.5 34t55.5 -13q24 -21 21.5 -50.5t-28.5 -56.5q-49 -52 -188 -139zM237 607q29 72 54.5 125t46.5 79q21 27 52.5 34t56.5 -13q25 -21 24 -50.5t-25 -56.5q-25 -27 -69 -60.5t-114 -78.5zM249 -14q-46 0 -85 13.5t-67.5 39.5
t-44.5 65.5t-16 90.5q0 64 24.5 123.5t68 105.5t103 73.5t128.5 27.5q46 0 84.5 -13.5t67 -40t44.5 -66t16 -90.5q0 -64 -24.5 -123.5t-67.5 -105t-102.5 -73t-128.5 -27.5zM271 42q22 0 41 16t34 42.5t26.5 60t19.5 68.5t12 68t4 59q0 53 -17.5 82.5t-52.5 29.5
q-33 0 -59 -34.5t-43 -84t-26 -103t-9 -92.5q0 -52 17 -82t53 -30z" />
    <glyph glyph-name="Omacron" unicode="&#x14c;" horiz-adv-x="811" 
d="M364 917h358l-22 -102h-359zM375 -16q-81 0 -139.5 22.5t-96.5 62t-56.5 94t-18.5 118.5q0 79 29.5 157t83 140t128.5 100.5t167 38.5q81 0 139.5 -22.5t96.5 -62t56.5 -94.5t18.5 -119q0 -79 -29.5 -157t-83.5 -139.5t-129 -100t-166 -38.5zM372 43q37 0 67.5 21.5
t55 57.5t43 82.5t31 96.5t18.5 99.5t6 92.5q0 82 -32 123t-86 41q-37 0 -67.5 -21.5t-55 -57.5t-43 -82.5t-31 -96t-18.5 -99.5t-6 -92q0 -82 32 -123.5t86 -41.5z" />
    <glyph glyph-name="omacron" unicode="&#x14d;" horiz-adv-x="608" 
d="M223 725h366l-23 -104h-365zM249 -14q-46 0 -85 13.5t-67.5 39.5t-44.5 65.5t-16 90.5q0 64 24.5 123.5t68 105.5t103 73.5t128.5 27.5q46 0 84.5 -13.5t67 -40t44.5 -66t16 -90.5q0 -64 -24.5 -123.5t-67.5 -105t-102.5 -73t-128.5 -27.5zM271 42q22 0 41 16t34 42.5
t26.5 60t19.5 68.5t12 68t4 59q0 53 -17.5 82.5t-52.5 29.5q-33 0 -59 -34.5t-43 -84t-26 -103t-9 -92.5q0 -52 17 -82t53 -30z" />
    <glyph glyph-name="Oslash" unicode="&#xd8;" horiz-adv-x="811" 
d="M52 -2l78 85q-33 40 -49.5 92t-16.5 111q0 77 29.5 154t83 138.5t128.5 100t167 38.5q64 0 114.5 -15.5t87.5 -43.5l74 81l41 -37l-74 -82q34 -41 51 -93.5t17 -112.5q0 -77 -29.5 -154t-83 -138.5t-129 -99.5t-166.5 -38q-66 0 -117 16t-89 45l-76 -84zM587 571
q-14 44 -42.5 65t-69.5 21q-38 0 -69.5 -21.5t-56.5 -57t-44 -81.5t-31.5 -94.5t-18.5 -96.5t-6 -88q0 -4 0.5 -7.5t1.5 -8.5zM372 43q38 0 69.5 21.5t56.5 57t43.5 82t31 96t18.5 98.5t6 90q0 10 -1 15l-336 -369q12 -47 41 -69t71 -22z" />
    <glyph glyph-name="oslash" unicode="&#xf8;" horiz-adv-x="608" 
d="M20 0l59 63q-20 26 -31.5 60.5t-11.5 76.5q0 62 24.5 120.5t67.5 104t101 73t126 27.5q38 0 72.5 -10.5t62.5 -30.5l56 60l42 -34l-59 -63q43 -52 43 -137q0 -62 -24.5 -120.5t-67 -103.5t-101 -72.5t-125.5 -27.5q-79 0 -136 40l-56 -59zM408 403q-8 37 -25 52t-45 15
q-24 0 -44 -15.5t-36 -40.5t-27.5 -56.5t-19.5 -62.5t-12.5 -59t-4.5 -47q0 -8 1 -13zM271 40q24 0 44 15.5t36 40.5t27.5 56.5t19.5 62.5t12 59t5 47q0 4 -0.5 7.5t-0.5 6.5q-87 -93 -214 -228q8 -37 25.5 -52t45.5 -15z" />
    <glyph glyph-name="Oslashacute" unicode="&#x1fe;" horiz-adv-x="811" 
d="M52 -2l78 85q-33 40 -49.5 92t-16.5 111q0 77 29.5 154t83 138.5t128.5 100t167 38.5q64 0 114.5 -15.5t87.5 -43.5l74 81l41 -37l-74 -82q34 -41 51 -93.5t17 -112.5q0 -77 -29.5 -154t-83 -138.5t-129 -99.5t-166.5 -38q-66 0 -117 16t-89 45l-76 -84zM587 571
q-14 44 -42.5 65t-69.5 21q-38 0 -69.5 -21.5t-56.5 -57t-44 -81.5t-31.5 -94.5t-18.5 -96.5t-6 -88q0 -4 0.5 -7.5t1.5 -8.5zM372 43q38 0 69.5 21.5t56.5 57t43.5 82t31 96t18.5 98.5t6 90q0 10 -1 15l-336 -369q12 -47 41 -69t71 -22zM453 802q31 70 55.5 120.5
t45.5 76.5q11 13 25.5 22.5t30.5 13t31 0.5t27 -13q25 -21 22 -52.5t-28 -58.5t-69 -57.5t-113 -73.5z" />
    <glyph glyph-name="oslashacute" unicode="&#x1ff;" horiz-adv-x="608" 
d="M20 0l59 63q-20 26 -31.5 60.5t-11.5 76.5q0 62 24.5 120.5t67.5 104t101 73t126 27.5q38 0 72.5 -10.5t62.5 -30.5l56 60l42 -34l-59 -63q43 -52 43 -137q0 -62 -24.5 -120.5t-67 -103.5t-101 -72.5t-125.5 -27.5q-79 0 -136 40l-56 -59zM408 403q-8 37 -25 52t-45 15
q-24 0 -44 -15.5t-36 -40.5t-27.5 -56.5t-19.5 -62.5t-12.5 -59t-4.5 -47q0 -8 1 -13zM271 40q24 0 44 15.5t36 40.5t27.5 56.5t19.5 62.5t12 59t5 47q0 4 -0.5 7.5t-0.5 6.5q-87 -93 -214 -228q8 -37 25.5 -52t45.5 -15zM316 607q32 72 56.5 123t46.5 78q11 14 26 23.5
t31 13t31.5 0.5t27.5 -13q26 -22 23 -54t-29 -59q-26 -28 -70 -59t-115 -75z" />
    <glyph glyph-name="Otilde" unicode="&#xd5;" horiz-adv-x="811" 
d="M338 793q21 95 51.5 137.5t83.5 42.5q24 0 46 -8.5t42.5 -19t39.5 -19t36 -8.5q18 0 31 14t30 49l48 -7q-21 -95 -51.5 -137t-83.5 -42q-24 0 -46 8.5t-42.5 19t-39.5 19t-36 8.5q-18 0 -31 -14.5t-30 -48.5zM375 -16q-81 0 -139.5 22.5t-96.5 62t-56.5 94t-18.5 118.5
q0 79 29.5 157t83 140t128.5 100.5t167 38.5q81 0 139.5 -22.5t96.5 -62t56.5 -94.5t18.5 -119q0 -79 -29.5 -157t-83.5 -139.5t-129 -100t-166 -38.5zM372 43q37 0 67.5 21.5t55 57.5t43 82.5t31 96.5t18.5 99.5t6 92.5q0 82 -32 123t-86 41q-37 0 -67.5 -21.5t-55 -57.5
t-43 -82.5t-31 -96t-18.5 -99.5t-6 -92q0 -82 32 -123.5t86 -41.5z" />
    <glyph glyph-name="otilde" unicode="&#xf5;" horiz-adv-x="608" 
d="M249 -14q-46 0 -85 13.5t-67.5 39.5t-44.5 65.5t-16 90.5q0 64 24.5 123.5t68 105.5t103 73.5t128.5 27.5q46 0 84.5 -13.5t67 -40t44.5 -66t16 -90.5q0 -64 -24.5 -123.5t-67.5 -105t-102.5 -73t-128.5 -27.5zM271 42q22 0 41 16t34 42.5t26.5 60t19.5 68.5t12 68t4 59
q0 53 -17.5 82.5t-52.5 29.5q-33 0 -59 -34.5t-43 -84t-26 -103t-9 -92.5q0 -52 17 -82t53 -30zM197 599q21 97 52.5 139.5t85.5 42.5q24 0 46.5 -8.5t43.5 -19t40 -19t37 -8.5t31 14.5t30 49.5l49 -7q-21 -97 -52 -139.5t-85 -42.5q-24 0 -46.5 8.5t-43.5 19t-40 19
t-37 8.5t-31 -14.5t-30 -49.5z" />
    <glyph glyph-name="Racute" unicode="&#x154;" horiz-adv-x="765" 
d="M-17 40l105 26l121 570l-94 25l8 40h366q128 0 189.5 -41.5t61.5 -120.5q0 -34 -12.5 -65.5t-40.5 -57.5t-74.5 -44.5t-113.5 -24.5l-5 -16q34 -9 57 -20.5t37.5 -27t22 -37t12.5 -50.5q8 -42 15.5 -69.5t19.5 -44.5q11 -16 28 -25.5t43 -16.5l-8 -40h-144q-31 0 -51 6.5
t-32.5 20.5t-20 37.5t-13.5 58.5l-19 104q-9 46 -31 63t-72 17h-16l-51 -243l93 -24l-8 -40h-382zM386 366q44 2 75.5 18.5t52 41t30 55t9.5 59.5q0 52 -28 76t-99 26h-33l-60 -278zM400 792q31 70 55.5 120.5t45.5 76.5q11 13 25.5 22.5t30.5 13t31 0.5t27 -13
q25 -21 22 -52.5t-28 -58.5t-69 -57.5t-113 -73.5z" />
    <glyph glyph-name="racute" unicode="&#x155;" horiz-adv-x="508" 
d="M285 597q32 72 56.5 123t46.5 78q11 14 26 23.5t31 13t31.5 0.5t27.5 -13q26 -22 23 -54t-29 -59q-26 -28 -70 -59t-115 -75zM123 398l-77 47l4 32l222 51l22 -14l-34 -121l12 -2q25 37 45 62.5t38.5 41.5t37 23t40.5 7q44 0 66 -26.5t22 -61.5q0 -44 -25.5 -71.5
t-63.5 -27.5q-63 0 -89 62q-14 -8 -37 -27t-40 -40l-73 -333h-155z" />
    <glyph glyph-name="Rcaron" unicode="&#x158;" horiz-adv-x="765" 
d="M304 995l38 29l108 -110l170 110l25 -29l-173 -215h-83zM-17 40l105 26l121 570l-94 25l8 40h366q128 0 189.5 -41.5t61.5 -120.5q0 -34 -12.5 -65.5t-40.5 -57.5t-74.5 -44.5t-113.5 -24.5l-5 -16q34 -9 57 -20.5t37.5 -27t22 -37t12.5 -50.5q8 -42 15.5 -69.5
t19.5 -44.5q11 -16 28 -25.5t43 -16.5l-8 -40h-144q-31 0 -51 6.5t-32.5 20.5t-20 37.5t-13.5 58.5l-19 104q-9 46 -31 63t-72 17h-16l-51 -243l93 -24l-8 -40h-382zM386 366q44 2 75.5 18.5t52 41t30 55t9.5 59.5q0 52 -28 76t-99 26h-33l-60 -278z" />
    <glyph glyph-name="rcaron" unicode="&#x159;" horiz-adv-x="508" 
d="M188 804l39 30l110 -112l172 112l26 -30l-176 -219h-85zM123 398l-77 47l4 32l222 51l22 -14l-34 -121l12 -2q25 37 45 62.5t38.5 41.5t37 23t40.5 7q44 0 66 -26.5t22 -61.5q0 -44 -25.5 -71.5t-63.5 -27.5q-63 0 -89 62q-14 -8 -37 -27t-40 -40l-73 -333h-155z" />
    <glyph glyph-name="Rcommaaccent" unicode="&#x156;" horiz-adv-x="765" 
d="M-17 40l105 26l121 570l-94 25l8 40h366q128 0 189.5 -41.5t61.5 -120.5q0 -34 -12.5 -65.5t-40.5 -57.5t-74.5 -44.5t-113.5 -24.5l-5 -16q34 -9 57 -20.5t37.5 -27t22 -37t12.5 -50.5q8 -42 15.5 -69.5t19.5 -44.5q11 -16 28 -25.5t43 -16.5l-8 -40h-144q-31 0 -51 6.5
t-32.5 20.5t-20 37.5t-13.5 58.5l-19 104q-9 46 -31 63t-72 17h-16l-51 -243l93 -24l-8 -40h-382zM386 366q44 2 75.5 18.5t52 41t30 55t9.5 59.5q0 52 -28 76t-99 26h-33l-60 -278zM145 -333q54 32 83 62.5t41 58.5l-7 7q-4 -2 -13 -2q-21 0 -38 14t-17 43q0 34 23 59
t58 25q34 0 54.5 -22t20.5 -64q0 -31 -13 -61t-37.5 -57t-59.5 -50t-80 -39l-15 26v0z" />
    <glyph glyph-name="rcommaaccent" unicode="&#x157;" horiz-adv-x="508" 
d="M-34 -339q55 32 84.5 63.5t40.5 59.5l-6 7q-6 -2 -13 -2q-22 0 -39 14.5t-17 43.5q0 35 23 60t59 25q35 0 55.5 -22.5t20.5 -64.5q0 -63 -51 -120t-143 -91l-14 27v0zM123 398l-77 47l4 32l222 51l22 -14l-34 -121l12 -2q25 37 45 62.5t38.5 41.5t37 23t40.5 7
q44 0 66 -26.5t22 -61.5q0 -44 -25.5 -71.5t-63.5 -27.5q-63 0 -89 62q-14 -8 -37 -27t-40 -40l-73 -333h-155z" />
    <glyph glyph-name="Sacute" unicode="&#x15a;" horiz-adv-x="621" 
d="M50 246l48 2q26 -112 76 -158.5t118 -46.5q54 0 84 31.5t30 76.5q0 23 -8 40.5t-24 33.5t-41 31t-59 34q-30 16 -58.5 34.5t-50.5 42t-35.5 55t-13.5 74.5q0 46 19 86t52.5 70t80 47t101.5 17q49 0 89 -11.5t75 -32.5l42 43l40 -1l-31 -229l-48 -4q-27 91 -65 132t-96 41
q-45 0 -72.5 -27.5t-27.5 -74.5q0 -22 7 -37.5t22.5 -29.5t40.5 -29t61 -34q31 -17 59 -34.5t49.5 -40.5t34 -53t12.5 -71q0 -53 -20 -97t-55.5 -75.5t-84.5 -48.5t-107 -17q-60 0 -114 13.5t-92 33.5l-39 -43h-41zM375 802q31 70 55.5 120.5t45.5 76.5q11 13 25.5 22.5
t30.5 13t31 0.5t27 -13q25 -21 22 -52.5t-28 -58.5t-69 -57.5t-113 -73.5z" />
    <glyph glyph-name="sacute" unicode="&#x15b;" horiz-adv-x="509" 
d="M297 607q32 72 56.5 123t46.5 78q11 14 26 23.5t31 13t31.5 0.5t27.5 -13q26 -22 23 -54t-29 -59q-26 -28 -70 -59t-115 -75zM229 -14q-47 0 -87.5 8.5t-70 24.5t-46 38.5t-16.5 50.5q0 33 21 56t50 23q35 0 61.5 -32.5t27.5 -91.5q23 -12 42 -17.5t40 -5.5
q31 0 48.5 18.5t17.5 49.5q0 25 -17 42.5t-64 39.5l-46 21q-52 22 -83.5 52.5t-31.5 83.5q0 33 15 65t44 57t72 40.5t100 15.5q42 0 75 -9.5t56.5 -24.5t35.5 -35t12 -41q0 -34 -19 -52t-47 -18q-38 0 -65 32t-33 82q-21 9 -46 9q-29 0 -47 -19.5t-18 -43.5t17 -40t61 -37
l46 -22q56 -27 86.5 -57t30.5 -84q0 -32 -13.5 -64t-40.5 -57.5t-69 -41.5t-99 -16z" />
    <glyph glyph-name="Scaron" unicode="&#x160;" horiz-adv-x="621" 
d="M50 246l48 2q26 -112 76 -158.5t118 -46.5q54 0 84 31.5t30 76.5q0 23 -8 40.5t-24 33.5t-41 31t-59 34q-30 16 -58.5 34.5t-50.5 42t-35.5 55t-13.5 74.5q0 46 19 86t52.5 70t80 47t101.5 17q49 0 89 -11.5t75 -32.5l42 43l40 -1l-31 -229l-48 -4q-27 91 -65 132t-96 41
q-45 0 -72.5 -27.5t-27.5 -74.5q0 -22 7 -37.5t22.5 -29.5t40.5 -29t61 -34q31 -17 59 -34.5t49.5 -40.5t34 -53t12.5 -71q0 -53 -20 -97t-55.5 -75.5t-84.5 -48.5t-107 -17q-60 0 -114 13.5t-92 33.5l-39 -43h-41zM281 1005l38 29l108 -110l170 110l25 -29l-173 -215h-83z
" />
    <glyph glyph-name="scaron" unicode="&#x161;" horiz-adv-x="509" 
d="M199 814l39 30l110 -112l172 112l26 -30l-176 -219h-85zM229 -14q-47 0 -87.5 8.5t-70 24.5t-46 38.5t-16.5 50.5q0 33 21 56t50 23q35 0 61.5 -32.5t27.5 -91.5q23 -12 42 -17.5t40 -5.5q31 0 48.5 18.5t17.5 49.5q0 25 -17 42.5t-64 39.5l-46 21q-52 22 -83.5 52.5
t-31.5 83.5q0 33 15 65t44 57t72 40.5t100 15.5q42 0 75 -9.5t56.5 -24.5t35.5 -35t12 -41q0 -34 -19 -52t-47 -18q-38 0 -65 32t-33 82q-21 9 -46 9q-29 0 -47 -19.5t-18 -43.5t17 -40t61 -37l46 -22q56 -27 86.5 -57t30.5 -84q0 -32 -13.5 -64t-40.5 -57.5t-69 -41.5
t-99 -16z" />
    <glyph glyph-name="Scedilla" unicode="&#x15e;" horiz-adv-x="621" 
d="M196 -285q-51 0 -80.5 16t-29.5 45q0 17 10.5 29t28.5 12q19 0 29 -13t10 -29q0 -11 -4 -22q11 -5 26 -5q25 0 46 17t21 52q0 24 -17 39.5t-47 15.5q-8 0 -15.5 -1t-15.5 -3l-15 26l121 92q-52 3 -97.5 15.5t-78.5 30.5l-39 -43h-41l42 257l48 2q26 -112 76 -158.5
t118 -46.5q54 0 84 31.5t30 76.5q0 23 -8 40.5t-24 33.5t-41 31t-59 34q-30 16 -58.5 34.5t-50.5 42t-35.5 55t-13.5 74.5q0 46 19 86t52.5 70t80 47t101.5 17q49 0 89 -11.5t75 -32.5l42 43l40 -1l-31 -229l-48 -4q-27 91 -65 132t-96 41q-45 0 -72.5 -27.5t-27.5 -74.5
q0 -22 7 -37.5t22.5 -29.5t40.5 -29t61 -34q31 -17 59 -34.5t49.5 -40.5t34 -53t12.5 -71q0 -50 -17.5 -91.5t-49.5 -72.5t-76 -50t-96 -23l-68 -52q40 -6 66 -29t26 -60q0 -29 -12 -52.5t-33 -41t-48 -27t-57 -9.5z" />
    <glyph glyph-name="scedilla" unicode="&#x15f;" horiz-adv-x="509" 
d="M142 -290q-53 0 -82.5 16t-29.5 46q0 17 10.5 29.5t28.5 12.5q19 0 29.5 -13.5t10.5 -29.5q0 -6 -1 -11t-3 -11q7 -4 12.5 -5t14.5 -1q25 0 46 17.5t21 53.5q0 24 -17 39.5t-48 15.5q-15 0 -31 -3l-16 26l126 95q-44 1 -81.5 10.5t-64.5 25t-42.5 37t-15.5 48.5
q0 33 21 56t50 23q35 0 61.5 -32.5t27.5 -91.5q23 -12 42 -17.5t40 -5.5q31 0 48.5 18.5t17.5 49.5q0 25 -17 42.5t-64 39.5l-46 21q-52 22 -83.5 52.5t-31.5 83.5q0 33 15 65t44 57t72 40.5t100 15.5q42 0 75 -9.5t56.5 -24.5t35.5 -35t12 -41q0 -34 -19 -52t-47 -18
q-38 0 -65 32t-33 82q-21 9 -46 9q-29 0 -47 -19.5t-18 -43.5t17 -40t61 -37l46 -22q56 -27 86.5 -57t30.5 -84q0 -29 -10.5 -57.5t-32.5 -52.5t-55 -42t-78 -24l-75 -56q41 -7 67.5 -30t26.5 -61q0 -29 -12.5 -53t-33.5 -41.5t-48.5 -27.5t-57.5 -10z" />
    <glyph glyph-name="Scommaaccent" unicode="&#x218;" horiz-adv-x="621" 
d="M50 246l48 2q26 -112 76 -158.5t118 -46.5q54 0 84 31.5t30 76.5q0 23 -8 40.5t-24 33.5t-41 31t-59 34q-30 16 -58.5 34.5t-50.5 42t-35.5 55t-13.5 74.5q0 46 19 86t52.5 70t80 47t101.5 17q49 0 89 -11.5t75 -32.5l42 43l40 -1l-31 -229l-48 -4q-27 91 -65 132t-96 41
q-45 0 -72.5 -27.5t-27.5 -74.5q0 -22 7 -37.5t22.5 -29.5t40.5 -29t61 -34q31 -17 59 -34.5t49.5 -40.5t34 -53t12.5 -71q0 -53 -20 -97t-55.5 -75.5t-84.5 -48.5t-107 -17q-60 0 -114 13.5t-92 33.5l-39 -43h-41zM114 -333q54 32 83 62.5t41 58.5l-7 7q-4 -2 -13 -2
q-21 0 -38 14t-17 43q0 34 23 59t58 25q34 0 54.5 -22t20.5 -64q0 -31 -13 -61t-37.5 -57t-59.5 -50t-80 -39l-15 26v0z" />
    <glyph glyph-name="scommaaccent" unicode="&#x219;" horiz-adv-x="509" 
d="M42 -339q55 32 84.5 63.5t40.5 59.5l-6 7q-6 -2 -13 -2q-22 0 -39 14.5t-17 43.5q0 35 23 60t59 25q35 0 55.5 -22.5t20.5 -64.5q0 -63 -51 -120t-143 -91l-14 27v0zM229 -14q-47 0 -87.5 8.5t-70 24.5t-46 38.5t-16.5 50.5q0 33 21 56t50 23q35 0 61.5 -32.5t27.5 -91.5
q23 -12 42 -17.5t40 -5.5q31 0 48.5 18.5t17.5 49.5q0 25 -17 42.5t-64 39.5l-46 21q-52 22 -83.5 52.5t-31.5 83.5q0 33 15 65t44 57t72 40.5t100 15.5q42 0 75 -9.5t56.5 -24.5t35.5 -35t12 -41q0 -34 -19 -52t-47 -18q-38 0 -65 32t-33 82q-21 9 -46 9q-29 0 -47 -19.5
t-18 -43.5t17 -40t61 -37l46 -22q56 -27 86.5 -57t30.5 -84q0 -32 -13.5 -64t-40.5 -57.5t-69 -41.5t-99 -16z" />
    <glyph glyph-name="Tcaron" unicode="&#x164;" horiz-adv-x="763" 
d="M350 995l38 29l108 -110l170 110l25 -29l-173 -215h-83zM135 40l113 26l122 579l-30 -1q-14 0 -25 -3t-26 -13.5t-35.5 -30t-52.5 -52.5l-105 -110l-31 5l77 261h651l-19 -261l-32 -5l-59 110q-16 30 -28.5 49t-24 30t-24.5 15t-29 5l-25 1l-122 -581l102 -24l-9 -40
h-396z" />
    <glyph glyph-name="tcaron" unicode="&#x165;" horiz-adv-x="442" 
d="M390 558q9 78 21 136t26 90q7 16 18 29.5t25 21.5t29.5 9.5t30.5 -4.5t23.5 -18.5t10.5 -27.5t-1 -31.5t-10 -30.5q-19 -38 -55 -82t-90 -103zM178 -14q-44 0 -66.5 16.5t-30.5 42t-5 56.5t9 60l56 261h-98l8 40l131 70l118 135l48 -8l-34 -162h152l-16 -75h-152
l-50 -232q-10 -45 -9 -64.5t11 -28.5q9 -9 29 -15t65 -6q28 0 54 3v-38q-57 -24 -110 -39.5t-110 -15.5z" />
    <glyph glyph-name="Tcommaaccent" unicode="&#x162;" horiz-adv-x="763" 
d="M135 40l113 26l122 579l-30 -1q-14 0 -25 -3t-26 -13.5t-35.5 -30t-52.5 -52.5l-105 -110l-31 5l77 261h651l-19 -261l-32 -5l-59 110q-16 30 -28.5 49t-24 30t-24.5 15t-29 5l-25 1l-122 -581l102 -24l-9 -40h-396zM186 -333q54 32 83 62.5t41 58.5l-7 7q-4 -2 -13 -2
q-21 0 -38 14t-17 43q0 34 23 59t58 25q34 0 54.5 -22t20.5 -64q0 -31 -13 -61t-37.5 -57t-59.5 -50t-80 -39l-15 26v0z" />
    <glyph glyph-name="Tcommaaccent" unicode="&#x21a;" horiz-adv-x="763" 
d="M135 40l113 26l122 579l-30 -1q-14 0 -25 -3t-26 -13.5t-35.5 -30t-52.5 -52.5l-105 -110l-31 5l77 261h651l-19 -261l-32 -5l-59 110q-16 30 -28.5 49t-24 30t-24.5 15t-29 5l-25 1l-122 -581l102 -24l-9 -40h-396zM186 -333q54 32 83 62.5t41 58.5l-7 7q-4 -2 -13 -2
q-21 0 -38 14t-17 43q0 34 23 59t58 25q34 0 54.5 -22t20.5 -64q0 -31 -13 -61t-37.5 -57t-59.5 -50t-80 -39l-15 26v0z" />
    <glyph glyph-name="tcommaaccent" unicode="&#x163;" horiz-adv-x="442" 
d="M35 -339q55 32 84.5 63.5t40.5 59.5l-6 7q-6 -2 -13 -2q-22 0 -39 14.5t-17 43.5q0 35 23 60t59 25q35 0 55.5 -22.5t20.5 -64.5q0 -63 -51 -120t-143 -91l-14 27v0zM178 -14q-44 0 -66.5 16.5t-30.5 42t-5 56.5t9 60l56 261h-98l8 40l131 70l118 135l48 -8l-34 -162h152
l-16 -75h-152l-50 -232q-10 -45 -9 -64.5t11 -28.5q9 -9 29 -15t65 -6q28 0 54 3v-38q-57 -24 -110 -39.5t-110 -15.5z" />
    <glyph glyph-name="tcommaaccent" unicode="&#x21b;" horiz-adv-x="442" 
d="M35 -339q55 32 84.5 63.5t40.5 59.5l-6 7q-6 -2 -13 -2q-22 0 -39 14.5t-17 43.5q0 35 23 60t59 25q35 0 55.5 -22.5t20.5 -64.5q0 -63 -51 -120t-143 -91l-14 27v0zM178 -14q-44 0 -66.5 16.5t-30.5 42t-5 56.5t9 60l56 261h-98l8 40l131 70l118 135l48 -8l-34 -162h152
l-16 -75h-152l-50 -232q-10 -45 -9 -64.5t11 -28.5q9 -9 29 -15t65 -6q28 0 54 3v-38q-57 -24 -110 -39.5t-110 -15.5z" />
    <glyph glyph-name="Thorn" unicode="&#xde;" horiz-adv-x="715" 
d="M-17 40l105 26l121 570l-94 25l8 40h394l-9 -40l-117 -27l-16 -77q14 2 35 3.5t37 1.5q122 0 185 -47t63 -135q0 -47 -20 -90t-59 -75t-97 -51t-134 -19q-26 0 -51 2t-45 5l-18 -88l106 -24l-8 -40h-395zM333 208q47 0 80 17t53.5 44.5t30 61.5t9.5 68q0 54 -25.5 77.5
t-86.5 28.5q-2 0 -15 0.5t-15 0.5l-63 -297q1 0 5.5 -0.5t10 -0.5h10.5h6z" />
    <glyph glyph-name="thorn" unicode="&#xfe;" horiz-adv-x="627" 
d="M-82 -196l75 31l185 865l-83 46l4 33l239 51l22 -14l-81 -375l11 -2q37 39 76 62.5t88 23.5q30 0 56 -12t44.5 -34t29.5 -53.5t11 -69.5q0 -78 -30 -145.5t-80 -117.5t-116.5 -78.5t-139.5 -28.5q-28 0 -46 3l-33 -154l74 -32l-8 -35h-305zM303 59q31 0 54.5 28t39 68
t23 85t7.5 78q0 94 -70 94q-23 0 -46.5 -9t-44.5 -23l-56 -267q42 -54 93 -54z" />
    <glyph glyph-name="Uacute" unicode="&#xda;" horiz-adv-x="817" 
d="M472 792q31 70 55.5 120.5t45.5 76.5q11 13 25.5 22.5t30.5 13t31 0.5t27 -13q25 -21 22 -52.5t-28 -58.5t-69 -57.5t-113 -73.5zM389 -17q-169 0 -231.5 83t-28.5 238l70 332l-94 25l9 40h383l-9 -40l-106 -27l-81 -376q-18 -88 14 -138.5t115 -50.5q42 0 73.5 15
t54 40.5t37 57.5t21.5 67l80 377l-75 35l9 40h261l-8 -40l-98 -37l-88 -410q-11 -50 -35.5 -92t-63 -73t-91 -48.5t-118.5 -17.5z" />
    <glyph glyph-name="uacute" unicode="&#xfa;" horiz-adv-x="663" 
d="M330 597q32 72 56.5 123t46.5 78q11 14 26 23.5t31 13t31.5 0.5t27.5 -13q26 -22 23 -54t-29 -59q-26 -28 -70 -59t-115 -75zM176 -14q-39 0 -64 16.5t-37 44t-12.5 64.5t9.5 79l49 211l-72 44l4 32l229 51l22 -14l-73 -315q-12 -51 -1.5 -76t47.5 -25q42 0 110 44
l55 258l-71 45v32l231 51l22 -14l-83 -381q-5 -22 -5.5 -34.5t7.5 -19.5t27 -9.5t52 -4.5l5 -27q-39 -24 -79.5 -38t-81.5 -14q-28 0 -45.5 8t-26.5 22t-11.5 32.5t0.5 38.5l-11 3q-51 -46 -98 -75t-98 -29z" />
    <glyph glyph-name="Ubreve" unicode="&#x16c;" horiz-adv-x="817" 
d="M536 777q-80 0 -116.5 54.5t-22.5 155.5l45 14q9 -51 36 -79t81 -28q42 0 76.5 27.5t60.5 79.5l44 -14q-33 -114 -82.5 -162t-121.5 -48zM389 -17q-169 0 -231.5 83t-28.5 238l70 332l-94 25l9 40h383l-9 -40l-106 -27l-81 -376q-18 -88 14 -138.5t115 -50.5
q42 0 73.5 15t54 40.5t37 57.5t21.5 67l80 377l-75 35l9 40h261l-8 -40l-98 -37l-88 -410q-11 -50 -35.5 -92t-63 -73t-91 -48.5t-118.5 -17.5z" />
    <glyph glyph-name="ubreve" unicode="&#x16d;" horiz-adv-x="663" 
d="M176 -14q-39 0 -64 16.5t-37 44t-12.5 64.5t9.5 79l49 211l-72 44l4 32l229 51l22 -14l-73 -315q-12 -51 -1.5 -76t47.5 -25q42 0 110 44l55 258l-71 45v32l231 51l22 -14l-83 -381q-5 -22 -5.5 -34.5t7.5 -19.5t27 -9.5t52 -4.5l5 -27q-39 -24 -79.5 -38t-81.5 -14
q-28 0 -45.5 8t-26.5 22t-11.5 32.5t0.5 38.5l-11 3q-51 -46 -98 -75t-98 -29zM395 583q-81 0 -118.5 55.5t-23.5 158.5l46 14q10 -52 37 -80.5t82 -28.5q85 0 140 109l44 -14q-34 -116 -84 -165t-123 -49z" />
    <glyph glyph-name="Ucircumflex" unicode="&#xdb;" horiz-adv-x="817" 
d="M389 -17q-169 0 -231.5 83t-28.5 238l70 332l-94 25l9 40h383l-9 -40l-106 -27l-81 -376q-18 -88 14 -138.5t115 -50.5q42 0 73.5 15t54 40.5t37 57.5t21.5 67l80 377l-75 35l9 40h261l-8 -40l-98 -37l-88 -410q-11 -50 -35.5 -92t-63 -73t-91 -48.5t-118.5 -17.5z
M355 799l173 216h83l84 -216l-37 -29l-109 110l-169 -110z" />
    <glyph glyph-name="ucircumflex" unicode="&#xfb;" horiz-adv-x="663" 
d="M210 605l176 219h85l86 -219l-39 -30l-110 112l-172 -112zM176 -14q-39 0 -64 16.5t-37 44t-12.5 64.5t9.5 79l49 211l-72 44l4 32l229 51l22 -14l-73 -315q-12 -51 -1.5 -76t47.5 -25q42 0 110 44l55 258l-71 45v32l231 51l22 -14l-83 -381q-5 -22 -5.5 -34.5t7.5 -19.5
t27 -9.5t52 -4.5l5 -27q-39 -24 -79.5 -38t-81.5 -14q-28 0 -45.5 8t-26.5 22t-11.5 32.5t0.5 38.5l-11 3q-51 -46 -98 -75t-98 -29z" />
    <glyph glyph-name="Udieresis" unicode="&#xdc;" horiz-adv-x="817" 
d="M659 783q-37 0 -60.5 24.5t-23.5 61.5q0 18 7 35t19.5 30t29.5 21t37 8q37 0 60.5 -24.5t23.5 -62.5q0 -18 -7 -35t-19.5 -29.5t-29.5 -20.5t-37 -8zM420 783q-38 0 -61 24.5t-23 61.5q0 18 7 35t19 30t28.5 21t36.5 8q38 0 61 -24.5t23 -62.5q0 -18 -7 -35t-19 -29.5
t-29 -20.5t-36 -8zM389 -17q-169 0 -231.5 83t-28.5 238l70 332l-94 25l9 40h383l-9 -40l-106 -27l-81 -376q-18 -88 14 -138.5t115 -50.5q42 0 73.5 15t54 40.5t37 57.5t21.5 67l80 377l-75 35l9 40h261l-8 -40l-98 -37l-88 -410q-11 -50 -35.5 -92t-63 -73t-91 -48.5
t-118.5 -17.5z" />
    <glyph glyph-name="udieresis" unicode="&#xfc;" horiz-adv-x="663" 
d="M519 588q-38 0 -61.5 25t-23.5 63q0 18 7 35.5t19.5 30.5t30 21t37.5 8q38 0 62 -24.5t24 -62.5q0 -18 -7 -35.5t-20 -31t-30 -21.5t-38 -8zM276 588q-38 0 -62 25t-24 63q0 18 7 35.5t19.5 30.5t29.5 21t37 8q38 0 62 -24.5t24 -62.5q0 -18 -7 -35.5t-19.5 -31
t-29.5 -21.5t-37 -8zM176 -14q-39 0 -64 16.5t-37 44t-12.5 64.5t9.5 79l49 211l-72 44l4 32l229 51l22 -14l-73 -315q-12 -51 -1.5 -76t47.5 -25q42 0 110 44l55 258l-71 45v32l231 51l22 -14l-83 -381q-5 -22 -5.5 -34.5t7.5 -19.5t27 -9.5t52 -4.5l5 -27
q-39 -24 -79.5 -38t-81.5 -14q-28 0 -45.5 8t-26.5 22t-11.5 32.5t0.5 38.5l-11 3q-51 -46 -98 -75t-98 -29z" />
    <glyph glyph-name="Ugrave" unicode="&#xd9;" horiz-adv-x="817" 
d="M528 769q-44 39 -77 76t-47 64q-16 31 -9 61.5t39 46.5t61 4.5t43 -44.5q11 -27 17.5 -71.5t11.5 -113.5l-39 -23v0zM389 -17q-169 0 -231.5 83t-28.5 238l70 332l-94 25l9 40h383l-9 -40l-106 -27l-81 -376q-18 -88 14 -138.5t115 -50.5q42 0 73.5 15t54 40.5t37 57.5
t21.5 67l80 377l-75 35l9 40h261l-8 -40l-98 -37l-88 -410q-11 -50 -35.5 -92t-63 -73t-91 -48.5t-118.5 -17.5z" />
    <glyph glyph-name="ugrave" unicode="&#xf9;" horiz-adv-x="663" 
d="M176 -14q-39 0 -64 16.5t-37 44t-12.5 64.5t9.5 79l49 211l-72 44l4 32l229 51l22 -14l-73 -315q-12 -51 -1.5 -76t47.5 -25q42 0 110 44l55 258l-71 45v32l231 51l22 -14l-83 -381q-5 -22 -5.5 -34.5t7.5 -19.5t27 -9.5t52 -4.5l5 -27q-39 -24 -79.5 -38t-81.5 -14
q-28 0 -45.5 8t-26.5 22t-11.5 32.5t0.5 38.5l-11 3q-51 -46 -98 -75t-98 -29zM387 574q-45 41 -79 78t-48 65q-16 32 -8.5 63t39.5 47t62 4.5t44 -45.5q11 -27 18 -73t12 -115l-40 -24v0z" />
    <glyph glyph-name="Uhungarumlaut" unicode="&#x170;" horiz-adv-x="817" 
d="M389 -17q-169 0 -231.5 83t-28.5 238l70 332l-94 25l9 40h383l-9 -40l-106 -27l-81 -376q-18 -88 14 -138.5t115 -50.5q42 0 73.5 15t54 40.5t37 57.5t21.5 67l80 377l-75 35l9 40h261l-8 -40l-98 -37l-88 -410q-11 -50 -35.5 -92t-63 -73t-91 -48.5t-118.5 -17.5z
M593 791q32 70 59.5 122.5t48.5 78.5q11 13 25 21.5t29 11.5t29 0.5t25 -12.5q23 -21 21.5 -50t-27.5 -56t-70.5 -59.5t-114.5 -77.5zM384 791q29 70 54 122.5t45 78.5q21 26 52 33.5t55 -12.5q25 -21 24 -50t-25 -56t-67 -59.5t-112 -77.5z" />
    <glyph glyph-name="uhungarumlaut" unicode="&#x171;" horiz-adv-x="663" 
d="M176 -14q-39 0 -64 16.5t-37 44t-12.5 64.5t9.5 79l49 211l-72 44l4 32l229 51l22 -14l-73 -315q-12 -51 -1.5 -76t47.5 -25q42 0 110 44l55 258l-71 45v32l231 51l22 -14l-83 -381q-5 -22 -5.5 -34.5t7.5 -19.5t27 -9.5t52 -4.5l5 -27q-39 -24 -79.5 -38t-81.5 -14
q-28 0 -45.5 8t-26.5 22t-11.5 32.5t0.5 38.5l-11 3q-51 -46 -98 -75t-98 -29zM454 597q33 72 60.5 125t48.5 79q23 27 55.5 34t55.5 -13q24 -21 21.5 -50.5t-28.5 -56.5q-49 -52 -188 -139zM241 597q29 72 54.5 125t46.5 79q21 27 52.5 34t56.5 -13q25 -21 24 -50.5
t-25 -56.5q-25 -27 -69 -60.5t-114 -78.5z" />
    <glyph glyph-name="Umacron" unicode="&#x16a;" horiz-adv-x="817" 
d="M372 907h358l-22 -102h-359zM389 -17q-169 0 -231.5 83t-28.5 238l70 332l-94 25l9 40h383l-9 -40l-106 -27l-81 -376q-18 -88 14 -138.5t115 -50.5q42 0 73.5 15t54 40.5t37 57.5t21.5 67l80 377l-75 35l9 40h261l-8 -40l-98 -37l-88 -410q-11 -50 -35.5 -92t-63 -73
t-91 -48.5t-118.5 -17.5z" />
    <glyph glyph-name="umacron" unicode="&#x16b;" horiz-adv-x="663" 
d="M176 -14q-39 0 -64 16.5t-37 44t-12.5 64.5t9.5 79l49 211l-72 44l4 32l229 51l22 -14l-73 -315q-12 -51 -1.5 -76t47.5 -25q42 0 110 44l55 258l-71 45v32l231 51l22 -14l-83 -381q-5 -22 -5.5 -34.5t7.5 -19.5t27 -9.5t52 -4.5l5 -27q-39 -24 -79.5 -38t-81.5 -14
q-28 0 -45.5 8t-26.5 22t-11.5 32.5t0.5 38.5l-11 3q-51 -46 -98 -75t-98 -29zM227 715h366l-23 -104h-365z" />
    <glyph glyph-name="Uogonek" unicode="&#x172;" horiz-adv-x="817" 
d="M237 -195q0 26 10 51t27 47.5t39 43t47 37.5q-153 8 -208 89.5t-23 230.5l70 332l-94 25l9 40h383l-9 -40l-106 -27l-81 -376q-18 -88 14 -138.5t115 -50.5q42 0 73.5 15t54 40.5t37 57.5t21.5 67l80 377l-75 35l9 40h261l-8 -40l-98 -37l-88 -410q-10 -46 -31.5 -85.5
t-55.5 -70t-79.5 -49.5t-103.5 -24q-51 -46 -70 -81t-19 -64q0 -25 17.5 -40.5t43.5 -15.5q23 0 40 7t29 15l21 -22q-30 -29 -67 -45.5t-85 -16.5q-43 0 -71.5 22.5t-28.5 60.5z" />
    <glyph glyph-name="uogonek" unicode="&#x173;" horiz-adv-x="663" 
d="M478 -14q-30 -2 -50 5t-31 20.5t-14 33t0 42.5l-11 3q-51 -46 -98 -75t-98 -29q-39 0 -64 16.5t-37 44t-12.5 64.5t9.5 79l49 211l-72 44l4 32l229 51l22 -14l-73 -315q-12 -51 -1.5 -76t47.5 -25q42 0 110 44l55 258l-71 45v32l231 51l22 -14l-83 -381
q-5 -22 -5.5 -34.5t7.5 -19.5t27 -9.5t52 -4.5l5 -27q-37 -20 -71 -44t-59.5 -50t-41 -53.5t-15.5 -53.5t17 -41.5t44 -15.5q23 0 40.5 7.5t29.5 15.5l22 -23q-32 -29 -69.5 -46t-85.5 -17q-43 0 -72.5 22.5t-29.5 61.5q0 52 41 98t101 87z" />
    <glyph glyph-name="Uring" unicode="&#x16e;" horiz-adv-x="817" 
d="M389 -17q-169 0 -231.5 83t-28.5 238l70 332l-94 25l9 40h383l-9 -40l-106 -27l-81 -376q-18 -88 14 -138.5t115 -50.5q42 0 73.5 15t54 40.5t37 57.5t21.5 67l80 377l-75 35l9 40h261l-8 -40l-98 -37l-88 -410q-11 -50 -35.5 -92t-63 -73t-91 -48.5t-118.5 -17.5z
M540 772q-60 0 -94 28.5t-34 76.5q0 27 10.5 51.5t29 42.5t45 28.5t58.5 10.5q60 0 94 -28.5t34 -76.5q0 -28 -10.5 -52t-29 -42t-45 -28.5t-58.5 -10.5zM538 807q16 0 29 11t22 27.5t13.5 35.5t4.5 36q0 27 -13 42t-36 15q-17 0 -30 -11t-22 -27t-13.5 -35.5t-4.5 -35.5
q0 -58 50 -58z" />
    <glyph glyph-name="uring" unicode="&#x16f;" horiz-adv-x="663" 
d="M398 577q-60 0 -95 29.5t-35 77.5q0 28 10.5 53t29.5 43.5t46 29t59 10.5q61 0 96 -29.5t35 -77.5q0 -28 -10.5 -53t-30 -43.5t-46 -29t-59.5 -10.5zM396 613q17 0 30 11t22 28t14 36.5t5 36.5q0 28 -13.5 43t-37.5 15q-17 0 -30 -11t-22 -27.5t-14 -36t-5 -36.5
q0 -28 13.5 -43.5t37.5 -15.5zM176 -14q-39 0 -64 16.5t-37 44t-12.5 64.5t9.5 79l49 211l-72 44l4 32l229 51l22 -14l-73 -315q-12 -51 -1.5 -76t47.5 -25q42 0 110 44l55 258l-71 45v32l231 51l22 -14l-83 -381q-5 -22 -5.5 -34.5t7.5 -19.5t27 -9.5t52 -4.5l5 -27
q-39 -24 -79.5 -38t-81.5 -14q-28 0 -45.5 8t-26.5 22t-11.5 32.5t0.5 38.5l-11 3q-51 -46 -98 -75t-98 -29z" />
    <glyph glyph-name="Wacute" unicode="&#x1e82;" horiz-adv-x="1108" 
d="M624 792q31 70 55.5 120.5t45.5 76.5q11 13 25.5 22.5t30.5 13t31 0.5t27 -13q25 -21 22 -52.5t-28 -58.5t-69 -57.5t-113 -73.5zM177 630l-88 31l8 40h355l-6 -35l-76 -26l16 -439l205 364l-9 70l-64 31l7 35h326l-6 -35l-76 -31l34 -436l202 424l-65 43l6 35h246
l-7 -40l-86 -44l-334 -624h-107l-54 460l-264 -460h-106z" />
    <glyph glyph-name="wacute" unicode="&#x1e83;" horiz-adv-x="870" 
d="M437 597q32 72 56.5 123t46.5 78q11 14 26 23.5t31 13t31.5 0.5t27.5 -13q26 -22 23 -54t-29 -59q-26 -28 -70 -59t-115 -75zM172 -8l19 51q-3 59 -7.5 104.5t-9.5 82.5t-11.5 67t-14.5 58q-8 27 -17.5 37t-27.5 10q-11 0 -29 -4t-39 -11l-15 24q45 49 90 81.5t91 32.5
q31 0 49.5 -13.5t30.5 -45.5q16 -40 28 -120t17 -195l10 -3q29 34 54 68t45 70l-16 86t-16 87l133 65h12q11 -89 25 -184.5t30 -195.5l9 -2q35 38 60 78t45 85q-26 29 -36.5 60.5t-10.5 57.5q0 49 25.5 76.5t63.5 27.5q40 0 63 -26t23 -70q0 -45 -20 -93t-61.5 -103
t-106 -120t-154.5 -145l-38 20l16 49q-8 38 -15 79t-15 83q-39 -48 -96 -103.5t-145 -125.5z" />
    <glyph glyph-name="Wcircumflex" unicode="&#x174;" horiz-adv-x="1108" 
d="M177 630l-88 31l8 40h355l-6 -35l-76 -26l16 -439l205 364l-9 70l-64 31l7 35h326l-6 -35l-76 -31l34 -436l202 424l-65 43l6 35h246l-7 -40l-86 -44l-334 -624h-107l-54 460l-264 -460h-106zM507 799l173 216h83l84 -216l-37 -29l-109 110l-169 -110z" />
    <glyph glyph-name="wcircumflex" unicode="&#x175;" horiz-adv-x="870" 
d="M318 605l176 219h85l86 -219l-39 -30l-110 112l-172 -112zM172 -8l19 51q-3 59 -7.5 104.5t-9.5 82.5t-11.5 67t-14.5 58q-8 27 -17.5 37t-27.5 10q-11 0 -29 -4t-39 -11l-15 24q45 49 90 81.5t91 32.5q31 0 49.5 -13.5t30.5 -45.5q16 -40 28 -120t17 -195l10 -3
q29 34 54 68t45 70l-16 86t-16 87l133 65h12q11 -89 25 -184.5t30 -195.5l9 -2q35 38 60 78t45 85q-26 29 -36.5 60.5t-10.5 57.5q0 49 25.5 76.5t63.5 27.5q40 0 63 -26t23 -70q0 -45 -20 -93t-61.5 -103t-106 -120t-154.5 -145l-38 20l16 49q-8 38 -15 79t-15 83
q-39 -48 -96 -103.5t-145 -125.5z" />
    <glyph glyph-name="Wdieresis" unicode="&#x1e84;" horiz-adv-x="1108" 
d="M810 783q-37 0 -60.5 24.5t-23.5 61.5q0 18 7 35t19.5 30t29.5 21t37 8q37 0 60.5 -24.5t23.5 -62.5q0 -18 -7 -35t-19.5 -29.5t-29.5 -20.5t-37 -8zM571 783q-38 0 -61 24.5t-23 61.5q0 18 7 35t19 30t28.5 21t36.5 8q38 0 61 -24.5t23 -62.5q0 -18 -7 -35t-19 -29.5
t-29 -20.5t-36 -8zM177 630l-88 31l8 40h355l-6 -35l-76 -26l16 -439l205 364l-9 70l-64 31l7 35h326l-6 -35l-76 -31l34 -436l202 424l-65 43l6 35h246l-7 -40l-86 -44l-334 -624h-107l-54 460l-264 -460h-106z" />
    <glyph glyph-name="wdieresis" unicode="&#x1e85;" horiz-adv-x="870" 
d="M627 588q-38 0 -61.5 25t-23.5 63q0 18 7 35.5t19.5 30.5t30 21t37.5 8q38 0 62 -24.5t24 -62.5q0 -18 -7 -35.5t-20 -31t-30 -21.5t-38 -8zM384 588q-38 0 -62 25t-24 63q0 18 7 35.5t19.5 30.5t29.5 21t37 8q38 0 62 -24.5t24 -62.5q0 -18 -7 -35.5t-19.5 -31
t-29.5 -21.5t-37 -8zM172 -8l19 51q-3 59 -7.5 104.5t-9.5 82.5t-11.5 67t-14.5 58q-8 27 -17.5 37t-27.5 10q-11 0 -29 -4t-39 -11l-15 24q45 49 90 81.5t91 32.5q31 0 49.5 -13.5t30.5 -45.5q16 -40 28 -120t17 -195l10 -3q29 34 54 68t45 70l-16 86t-16 87l133 65h12
q11 -89 25 -184.5t30 -195.5l9 -2q35 38 60 78t45 85q-26 29 -36.5 60.5t-10.5 57.5q0 49 25.5 76.5t63.5 27.5q40 0 63 -26t23 -70q0 -45 -20 -93t-61.5 -103t-106 -120t-154.5 -145l-38 20l16 49q-8 38 -15 79t-15 83q-39 -48 -96 -103.5t-145 -125.5z" />
    <glyph glyph-name="Wgrave" unicode="&#x1e80;" horiz-adv-x="1108" 
d="M679 769q-44 39 -77 76t-47 64q-16 31 -9 61.5t39 46.5t61 4.5t43 -44.5q11 -27 17.5 -71.5t11.5 -113.5l-39 -23v0zM177 630l-88 31l8 40h355l-6 -35l-76 -26l16 -439l205 364l-9 70l-64 31l7 35h326l-6 -35l-76 -31l34 -436l202 424l-65 43l6 35h246l-7 -40l-86 -44
l-334 -624h-107l-54 460l-264 -460h-106z" />
    <glyph glyph-name="wgrave" unicode="&#x1e81;" horiz-adv-x="870" 
d="M172 -8l19 51q-3 59 -7.5 104.5t-9.5 82.5t-11.5 67t-14.5 58q-8 27 -17.5 37t-27.5 10q-11 0 -29 -4t-39 -11l-15 24q45 49 90 81.5t91 32.5q31 0 49.5 -13.5t30.5 -45.5q16 -40 28 -120t17 -195l10 -3q29 34 54 68t45 70l-16 86t-16 87l133 65h12q11 -89 25 -184.5
t30 -195.5l9 -2q35 38 60 78t45 85q-26 29 -36.5 60.5t-10.5 57.5q0 49 25.5 76.5t63.5 27.5q40 0 63 -26t23 -70q0 -45 -20 -93t-61.5 -103t-106 -120t-154.5 -145l-38 20l16 49q-8 38 -15 79t-15 83q-39 -48 -96 -103.5t-145 -125.5zM495 574q-45 41 -79 78t-48 65
q-16 32 -8.5 63t39.5 47t62 4.5t44 -45.5q11 -27 18 -73t12 -115l-40 -24v0z" />
    <glyph glyph-name="Yacute" unicode="&#xdd;" horiz-adv-x="768" 
d="M158 40l102 32l47 219l-114 333l-84 37l8 40h363l-8 -35l-87 -32l82 -260l181 254l-68 38l8 35h252l-8 -40l-88 -41l-258 -322l-48 -226l90 -32l-8 -40h-370zM447 792q31 70 55.5 120.5t45.5 76.5q11 13 25.5 22.5t30.5 13t31 0.5t27 -13q25 -21 22 -52.5t-28 -58.5
t-69 -57.5t-113 -73.5z" />
    <glyph glyph-name="yacute" unicode="&#xfd;" horiz-adv-x="600" 
d="M80 -245q-24 0 -45.5 6t-37.5 18.5t-25.5 31.5t-9.5 45q0 11 4.5 25t14 27t25.5 21.5t40 8.5q30 0 54 -24.5t32 -78.5q27 18 57 53t52 71q-27 148 -48.5 242t-39.5 146q-12 34 -23.5 43t-27.5 9q-14 0 -31 -4.5t-37 -12.5l-15 24q46 53 90.5 86t91.5 33q34 0 53.5 -14
t32.5 -47q8 -21 17.5 -57t19 -83t18 -101.5t14.5 -111.5h11q13 42 25 85.5t23 94t22 109t23 130.5h13l134 -62q-44 -93 -86 -181.5t-87 -169t-94 -152t-107 -132.5q-42 -45 -81.5 -61.5t-71.5 -16.5zM305 597q32 72 56.5 123t46.5 78q11 14 26 23.5t31 13t31.5 0.5t27.5 -13
q26 -22 23 -54t-29 -59q-26 -28 -70 -59t-115 -75z" />
    <glyph glyph-name="Ycircumflex" unicode="&#x176;" horiz-adv-x="768" 
d="M158 40l102 32l47 219l-114 333l-84 37l8 40h363l-8 -35l-87 -32l82 -260l181 254l-68 38l8 35h252l-8 -40l-88 -41l-258 -322l-48 -226l90 -32l-8 -40h-370zM331 799l173 216h83l84 -216l-37 -29l-109 110l-169 -110z" />
    <glyph glyph-name="ycircumflex" unicode="&#x177;" horiz-adv-x="600" 
d="M80 -245q-24 0 -45.5 6t-37.5 18.5t-25.5 31.5t-9.5 45q0 11 4.5 25t14 27t25.5 21.5t40 8.5q30 0 54 -24.5t32 -78.5q27 18 57 53t52 71q-27 148 -48.5 242t-39.5 146q-12 34 -23.5 43t-27.5 9q-14 0 -31 -4.5t-37 -12.5l-15 24q46 53 90.5 86t91.5 33q34 0 53.5 -14
t32.5 -47q8 -21 17.5 -57t19 -83t18 -101.5t14.5 -111.5h11q13 42 25 85.5t23 94t22 109t23 130.5h13l134 -62q-44 -93 -86 -181.5t-87 -169t-94 -152t-107 -132.5q-42 -45 -81.5 -61.5t-71.5 -16.5zM186 605l176 219h85l86 -219l-39 -30l-110 112l-172 -112z" />
    <glyph glyph-name="Ydieresis" unicode="&#x178;" horiz-adv-x="768" 
d="M158 40l102 32l47 219l-114 333l-84 37l8 40h363l-8 -35l-87 -32l82 -260l181 254l-68 38l8 35h252l-8 -40l-88 -41l-258 -322l-48 -226l90 -32l-8 -40h-370zM634 783q-37 0 -60.5 24.5t-23.5 61.5q0 18 7 35t19.5 30t29.5 21t37 8q37 0 60.5 -24.5t23.5 -62.5
q0 -18 -7 -35t-19.5 -29.5t-29.5 -20.5t-37 -8zM395 783q-38 0 -61 24.5t-23 61.5q0 18 7 35t19 30t28.5 21t36.5 8q38 0 61 -24.5t23 -62.5q0 -18 -7 -35t-19 -29.5t-29 -20.5t-36 -8z" />
    <glyph glyph-name="ydieresis" unicode="&#xff;" horiz-adv-x="600" 
d="M80 -245q-24 0 -45.5 6t-37.5 18.5t-25.5 31.5t-9.5 45q0 11 4.5 25t14 27t25.5 21.5t40 8.5q30 0 54 -24.5t32 -78.5q27 18 57 53t52 71q-27 148 -48.5 242t-39.5 146q-12 34 -23.5 43t-27.5 9q-14 0 -31 -4.5t-37 -12.5l-15 24q46 53 90.5 86t91.5 33q34 0 53.5 -14
t32.5 -47q8 -21 17.5 -57t19 -83t18 -101.5t14.5 -111.5h11q13 42 25 85.5t23 94t22 109t23 130.5h13l134 -62q-44 -93 -86 -181.5t-87 -169t-94 -152t-107 -132.5q-42 -45 -81.5 -61.5t-71.5 -16.5zM494 588q-38 0 -61.5 25t-23.5 63q0 18 7 35.5t19.5 30.5t30 21t37.5 8
q38 0 62 -24.5t24 -62.5q0 -18 -7 -35.5t-20 -31t-30 -21.5t-38 -8zM251 588q-38 0 -62 25t-24 63q0 18 7 35.5t19.5 30.5t29.5 21t37 8q38 0 62 -24.5t24 -62.5q0 -18 -7 -35.5t-19.5 -31t-29.5 -21.5t-37 -8z" />
    <glyph glyph-name="Ygrave" unicode="&#x1ef2;" horiz-adv-x="768" 
d="M158 40l102 32l47 219l-114 333l-84 37l8 40h363l-8 -35l-87 -32l82 -260l181 254l-68 38l8 35h252l-8 -40l-88 -41l-258 -322l-48 -226l90 -32l-8 -40h-370zM504 769q-44 39 -77 76t-47 64q-16 31 -9 61.5t39 46.5t61 4.5t43 -44.5q11 -27 17.5 -71.5t11.5 -113.5
l-39 -23v0z" />
    <glyph glyph-name="ygrave" unicode="&#x1ef3;" horiz-adv-x="600" 
d="M80 -245q-24 0 -45.5 6t-37.5 18.5t-25.5 31.5t-9.5 45q0 11 4.5 25t14 27t25.5 21.5t40 8.5q30 0 54 -24.5t32 -78.5q27 18 57 53t52 71q-27 148 -48.5 242t-39.5 146q-12 34 -23.5 43t-27.5 9q-14 0 -31 -4.5t-37 -12.5l-15 24q46 53 90.5 86t91.5 33q34 0 53.5 -14
t32.5 -47q8 -21 17.5 -57t19 -83t18 -101.5t14.5 -111.5h11q13 42 25 85.5t23 94t22 109t23 130.5h13l134 -62q-44 -93 -86 -181.5t-87 -169t-94 -152t-107 -132.5q-42 -45 -81.5 -61.5t-71.5 -16.5zM362 574q-45 41 -79 78t-48 65q-16 32 -8.5 63t39.5 47t62 4.5t44 -45.5
q11 -27 18 -73t12 -115l-40 -24v0z" />
    <glyph glyph-name="Zacute" unicode="&#x179;" horiz-adv-x="713" 
d="M-18 31l541 604l-143 -3q-21 0 -39 -4t-36 -14t-37.5 -26.5t-44.5 -42.5l-81 -85l-30 6l68 235h574l-2 -32l-535 -605l167 3q22 0 40.5 5t36 15t35 26t37.5 39l100 113l28 -4l-74 -261h-606zM426 792q31 70 55.5 120.5t45.5 76.5q11 13 25.5 22.5t30.5 13t31 0.5t27 -13
q25 -21 22 -52.5t-28 -58.5t-69 -57.5t-113 -73.5z" />
    <glyph glyph-name="zacute" unicode="&#x17a;" horiz-adv-x="541" 
d="M307 597q32 72 56.5 123t46.5 78q11 14 26 23.5t31 13t31.5 0.5t27.5 -13q26 -22 23 -54t-29 -59q-26 -28 -70 -59t-115 -75zM364 -16q-19 0 -44 4t-67 16l-144 39l-101 -60l-29 33l397 363q-86 9 -136 13.5t-82 4.5q-9 0 -17 -0.5t-16 -1.5l-1 -11q30 -9 44 -30t14 -44
q0 -26 -18 -47.5t-52 -21.5q-33 0 -54 19.5t-21 51.5q0 24 13 54t41 73q18 28 34 45.5t31 27.5t30 13t31 3q44 0 86 -9t87 -26l67 -25l96 55l29 -33l-381 -348l138 -11q21 -2 36 0t29 9.5t29.5 22.5t37.5 41l26 -12q-23 -65 -40.5 -105.5t-32.5 -63.5t-29.5 -31t-30.5 -8z
" />
    <glyph glyph-name="Zcaron" unicode="&#x17d;" horiz-adv-x="713" 
d="M331 995l38 29l108 -110l170 110l25 -29l-173 -215h-83zM-18 31l541 604l-143 -3q-21 0 -39 -4t-36 -14t-37.5 -26.5t-44.5 -42.5l-81 -85l-30 6l68 235h574l-2 -32l-535 -605l167 3q22 0 40.5 5t36 15t35 26t37.5 39l100 113l28 -4l-74 -261h-606z" />
    <glyph glyph-name="zcaron" unicode="&#x17e;" horiz-adv-x="541" 
d="M209 804l39 30l110 -112l172 112l26 -30l-176 -219h-85zM364 -16q-19 0 -44 4t-67 16l-144 39l-101 -60l-29 33l397 363q-86 9 -136 13.5t-82 4.5q-9 0 -17 -0.5t-16 -1.5l-1 -11q30 -9 44 -30t14 -44q0 -26 -18 -47.5t-52 -21.5q-33 0 -54 19.5t-21 51.5q0 24 13 54
t41 73q18 28 34 45.5t31 27.5t30 13t31 3q44 0 86 -9t87 -26l67 -25l96 55l29 -33l-381 -348l138 -11q21 -2 36 0t29 9.5t29.5 22.5t37.5 41l26 -12q-23 -65 -40.5 -105.5t-32.5 -63.5t-29.5 -31t-30.5 -8z" />
    <glyph glyph-name="Zdotaccent" unicode="&#x17b;" horiz-adv-x="713" 
d="M491 783q-38 0 -62.5 25.5t-24.5 63.5q0 19 7 36.5t20 31t30.5 21.5t38.5 8q38 0 62.5 -25.5t24.5 -64.5q0 -19 -7.5 -36t-20 -30.5t-30 -21.5t-38.5 -8zM-18 31l541 604l-143 -3q-21 0 -39 -4t-36 -14t-37.5 -26.5t-44.5 -42.5l-81 -85l-30 6l68 235h574l-2 -32
l-535 -605l167 3q22 0 40.5 5t36 15t35 26t37.5 39l100 113l28 -4l-74 -261h-606z" />
    <glyph glyph-name="zdotaccent" unicode="&#x17c;" horiz-adv-x="541" 
d="M364 -16q-19 0 -44 4t-67 16l-144 39l-101 -60l-29 33l397 363q-86 9 -136 13.5t-82 4.5q-9 0 -17 -0.5t-16 -1.5l-1 -11q30 -9 44 -30t14 -44q0 -26 -18 -47.5t-52 -21.5q-33 0 -54 19.5t-21 51.5q0 24 13 54t41 73q18 28 34 45.5t31 27.5t30 13t31 3q44 0 86 -9t87 -26
l67 -25l96 55l29 -33l-381 -348l138 -11q21 -2 36 0t29 9.5t29.5 22.5t37.5 41l26 -12q-23 -65 -40.5 -105.5t-32.5 -63.5t-29.5 -31t-30.5 -8zM373 588q-39 0 -64 26t-25 65q0 19 7.5 37t20 31.5t30.5 22t39 8.5q39 0 64 -25.5t25 -65.5q0 -19 -7.5 -37t-20 -31.5
t-30.5 -22t-39 -8.5z" />
    <glyph glyph-name="schwa" unicode="&#x259;" horiz-adv-x="544" 
d="M357 238q-56 -5 -94.5 -18t-62 -32.5t-33.5 -44.5t-10 -53q0 -23 11.5 -36.5t33.5 -13.5q21 0 45.5 15.5t46 42t38.5 62.5t25 78zM361 288q1 70 -35 102.5t-104 32.5q-33 0 -67 -12t-67 -32l-20 21q38 58 93.5 91.5t130.5 33.5q54 0 94.5 -15.5t68 -42.5t41.5 -63.5
t14 -78.5q0 -71 -26.5 -133t-71 -107.5t-102.5 -72t-122 -26.5q-81 0 -125 35.5t-44 89.5q0 45 26.5 79t73 56.5t108.5 33t134 8.5z" />
    <glyph glyph-name="germandbls" unicode="&#xdf;" horiz-adv-x="678" 
d="M-90 -247q-46 0 -74.5 22t-28.5 56q0 28 20.5 50.5t51.5 22.5q32 0 63.5 -19.5t52.5 -55.5q5 7 10 19.5t10.5 32.5t11.5 49t13 70l77 453q13 75 34.5 129t47 91.5t53 62t51.5 41.5q37 25 79.5 39t93.5 14q100 0 149.5 -43.5t49.5 -110.5q0 -74 -51 -131t-143 -108
q78 -54 122 -112t44 -123q0 -49 -18.5 -89t-49.5 -68t-72 -43.5t-86 -15.5q-33 0 -62 7t-51 20t-34.5 32t-12.5 44q0 32 20 54.5t55 22.5q39 0 61 -30.5t19 -82.5q16 -6 32 -6q30 0 46.5 20t16.5 53q0 56 -44 112.5t-129 113.5l4 24q51 55 84 97.5t52.5 78.5t27 68t7.5 66
q0 42 -18 64.5t-55 22.5q-63 0 -101 -66.5t-60 -193.5l-66 -387q-10 -60 -23.5 -107t-31.5 -83.5t-40.5 -65t-49.5 -51.5q-41 -34 -80 -47t-78 -13z" />
    <glyph glyph-name="zero" unicode="0" horiz-adv-x="637" 
d="M279 -18q-53 0 -96.5 16.5t-74 49t-47 82t-16.5 115.5q0 78 23 157.5t66.5 143.5t107.5 104.5t146 40.5q54 0 97 -16.5t74 -49.5t47.5 -82.5t16.5 -115.5q0 -52 -10 -105t-30 -102.5t-49.5 -93t-67.5 -75.5t-85 -50.5t-102 -18.5zM285 38q28 0 52.5 25t44 65t34.5 90.5
t25 101t15 96.5t5 77q0 75 -21 108t-57 33q-28 0 -52.5 -25t-44 -65t-34.5 -90.5t-25 -101t-15 -96.5t-5 -77q0 -75 20.5 -108t57.5 -33z" />
    <glyph glyph-name="one" unicode="1" horiz-adv-x="463" 
d="M-5 39l130 49l100 468l-109 57l8 34l263 36l21 -14l-124 -583l110 -47l-8 -39h-400z" />
    <glyph glyph-name="two" unicode="2" horiz-adv-x="549" 
d="M-30 55q93 66 162.5 125.5t115.5 106.5q30 30 51 55t34 47.5t18.5 43.5t5.5 43q0 42 -24 68.5t-69 26.5q-18 0 -35 -3.5t-34 -11.5t-37 -21t-44 -31l-26 22q43 77 105.5 121t142.5 44q42 0 76.5 -13t59 -36t38 -54.5t13.5 -68.5q0 -52 -23 -95.5t-68 -87.5t-112.5 -93
t-157.5 -112l2 -11l211 5l92 97l26 -6l-71 -216h-445z" />
    <glyph glyph-name="three" unicode="3" horiz-adv-x="558" 
d="M224 -17q-51 0 -91 10.5t-68 28.5t-43 42t-15 52q0 35 23 60.5t59 25.5q28 0 46 -13.5t25 -34t4 -44.5t-16 -45q15 -10 33.5 -15.5t47.5 -5.5q48 0 79 31t31 87t-45.5 95t-151.5 56l8 41q74 20 119.5 40.5t70 40.5t32.5 40t8 39q0 32 -22.5 51.5t-63.5 19.5
q-77 0 -171 -69l-24 26q18 30 43.5 57t56.5 47t67.5 32t77.5 12q94 0 141.5 -40t47.5 -100q0 -56 -42.5 -100t-144.5 -72v-14q33 -11 60 -26.5t46 -36.5t29.5 -48.5t10.5 -63.5q0 -39 -18.5 -76t-53 -66t-84.5 -46.5t-112 -17.5z" />
    <glyph glyph-name="four" unicode="4" horiz-adv-x="623" 
d="M160 39l125 44l21 98h-292v50l406 459l144 -7l-87 -409h106l-20 -93h-106l-21 -100l107 -42l-8 -39h-383zM332 274l56 266h-18l-231 -266h193z" />
    <glyph glyph-name="five" unicode="5" horiz-adv-x="560" 
d="M231 -17q-50 0 -88.5 10t-65 28t-40.5 42t-14 52q0 36 21.5 62t56.5 26q30 0 48.5 -13.5t26 -34.5t5 -45.5t-13.5 -45.5q14 -9 31.5 -14t41.5 -5q53 0 87 32.5t34 83.5q0 70 -68.5 108.5t-198.5 61.5l105 342h279l54 59l34 -9l-48 -187h-295l-28 -89q153 -26 229 -79.5
t76 -152.5q0 -47 -19 -89t-54.5 -74t-85 -50.5t-110.5 -18.5z" />
    <glyph glyph-name="six" unicode="6" horiz-adv-x="598" 
d="M286 -15q-54 0 -98.5 15t-76.5 44t-50 73t-18 103q0 99 40.5 181t111 143.5t165 102t201.5 56.5l7 -46q-106 -39 -180.5 -95.5t-131.5 -140.5l8 -6q25 12 53 19.5t57 7.5q82 0 130.5 -50t48.5 -138q0 -50 -17.5 -98.5t-51.5 -86.5t-84 -61t-114 -23zM285 41q28 0 48.5 21
t33.5 53t19 70.5t6 73.5q0 58 -24.5 83t-78.5 25q-14 0 -29 -1.5t-29 -6.5q-17 -41 -24 -86t-7 -88q0 -40 6.5 -67.5t17.5 -44.5t27 -24.5t34 -7.5z" />
    <glyph glyph-name="seven" unicode="7" horiz-adv-x="534" 
d="M240 252l216 281h-258l-74 -72l-31 9l71 236l35 9l20 -42h373l12 -21l-426 -669h-150z" />
    <glyph glyph-name="eight" unicode="8" horiz-adv-x="589" 
d="M372 393q45 37 62.5 71.5t17.5 72.5q0 48 -26.5 76t-74.5 28q-41 0 -66.5 -29t-25.5 -71q0 -26 9 -46.5t24.5 -38t36 -33t43.5 -30.5zM245 312q-44 -33 -64 -75.5t-20 -90.5q0 -53 31.5 -83t81.5 -30q45 0 73.5 31.5t28.5 84.5q0 27 -10.5 48.5t-28.5 41t-42 37.5t-50 36
zM420 362q23 -17 43.5 -34.5t35.5 -39t24 -47t9 -57.5q0 -41 -18.5 -77.5t-52 -64t-81.5 -44t-107 -16.5q-54 0 -98.5 12t-75.5 34t-48 52.5t-17 68.5q0 66 42.5 114.5t131.5 74.5q-42 31 -69.5 67t-27.5 87q0 39 16.5 75.5t47 64.5t75 44.5t100.5 16.5q53 0 94.5 -13.5
t70 -35.5t43 -51.5t14.5 -60.5q0 -64 -38.5 -105.5t-113.5 -64.5z" />
    <glyph glyph-name="nine" unicode="9" horiz-adv-x="598" 
d="M52 17q110 39 188 96.5t135 141.5l-8 7q-25 -13 -53.5 -20.5t-57.5 -7.5q-82 0 -130.5 50t-48.5 139q0 50 17.5 98t51.5 85.5t83.5 60.5t114.5 23q54 0 98.5 -15t76.5 -44t50 -73.5t18 -102.5q0 -101 -41 -182.5t-112.5 -143t-167.5 -101.5t-206 -57zM342 310
q14 0 29 1.5t29 5.5q17 42 23.5 86.5t6.5 86.5q0 79 -24 112t-61 33q-28 0 -48.5 -21t-33.5 -53.5t-19 -70.5t-6 -72q0 -60 25 -84t79 -24z" />
    <glyph glyph-name="period" unicode="." horiz-adv-x="286" 
d="M108 -18q-42 0 -70.5 28.5t-28.5 70.5q0 41 28.5 69.5t70.5 28.5q41 0 69.5 -28.5t28.5 -69.5q0 -42 -28.5 -70.5t-69.5 -28.5z" />
    <glyph glyph-name="comma" unicode="," horiz-adv-x="286" 
d="M-57 -169q75 47 110 85.5t50 73.5l-8 10l-4 -1q-3 -3 -13 -3q-28 0 -49 18.5t-21 56.5q0 22 8 41.5t22 34.5t32.5 23.5t39.5 8.5q43 0 69.5 -29t26.5 -83q0 -41 -16.5 -80t-47.5 -74t-76 -64.5t-103 -51.5z" />
    <glyph glyph-name="colon" unicode=":" horiz-adv-x="297" 
d="M169 290q-40 0 -68 28t-28 68t28 68t68 28q20 0 37.5 -7.5t31 -20.5t21 -30.5t7.5 -37.5t-7.5 -37.5t-21 -30.5t-31 -20.5t-37.5 -7.5zM114 -18q-41 0 -69 28t-28 69q0 40 28 68t69 28q40 0 68 -28t28 -68q0 -41 -28 -69t-68 -28z" />
    <glyph glyph-name="semicolon" unicode=";" horiz-adv-x="297" 
d="M169 290q-40 0 -68 28t-28 68t28 68t68 28q20 0 37.5 -7.5t31 -20.5t21 -30.5t7.5 -37.5t-7.5 -37.5t-21 -30.5t-31 -20.5t-37.5 -7.5zM-51 -169q75 47 110.5 85.5t49.5 73.5l-8 10l-3 -1q-5 -3 -14 -3q-28 0 -48.5 18.5t-20.5 56.5q0 22 8 41.5t21.5 34.5t32 23.5
t39.5 8.5q43 0 69.5 -29t26.5 -83q0 -41 -16 -80t-47 -74t-76.5 -64.5t-103.5 -51.5z" />
    <glyph glyph-name="ellipsis" unicode="&#x2026;" 
d="M658 -18q-20 0 -37 7.5t-30 20.5t-20.5 30.5t-7.5 37.5q0 19 7.5 36.5t20.5 30.5t30 20.5t37 7.5q19 0 36.5 -7.5t31 -20.5t21 -30.5t7.5 -36.5q0 -20 -7.5 -37.5t-21 -30.5t-31 -20.5t-36.5 -7.5zM381 -18q-20 0 -37 7.5t-30 20.5t-20.5 30.5t-7.5 37.5q0 19 7.5 36.5
t20.5 30.5t30 20.5t37 7.5q19 0 36.5 -7.5t31 -20.5t21 -30.5t7.5 -36.5q0 -20 -7.5 -37.5t-21 -30.5t-31 -20.5t-36.5 -7.5zM105 -18q-40 0 -68 28t-28 68q0 19 7.5 36.5t20.5 30.5t30.5 20.5t37.5 7.5q19 0 36.5 -7.5t30.5 -20.5t20.5 -30.5t7.5 -36.5q0 -20 -7.5 -37.5
t-20.5 -30.5t-30.5 -20.5t-36.5 -7.5z" />
    <glyph glyph-name="periodcentered" unicode="&#xb7;" horiz-adv-x="286" 
d="M161 258q-41 0 -69.5 28.5t-28.5 69.5q0 20 7.5 38t21 31.5t31.5 21.5t38 8t38 -8t31.5 -21.5t21.5 -31.5t8 -38t-8 -38t-21.5 -31.5t-31.5 -21t-38 -7.5z" />
    <glyph glyph-name="bullet" unicode="&#x2022;" horiz-adv-x="558" 
d="M298 161q-40 0 -74.5 15t-60 40.5t-40.5 60.5t-15 74t15 73.5t40.5 60t60 40.5t74.5 15q39 0 73.5 -15t60 -40.5t40.5 -60t15 -73.5t-15 -74t-40.5 -60.5t-60 -40.5t-73.5 -15z" />
    <glyph glyph-name="ampersand" unicode="&#x26;" horiz-adv-x="770" 
d="M199 -12q-44 0 -79.5 10.5t-61.5 30.5t-40 48t-14 63q0 79 58 131t167 69l5 16q-57 17 -86.5 51.5t-29.5 82.5q0 43 23 81t62 66t91 44t111 16q71 0 102.5 -24t31.5 -56q0 -31 -21 -52.5t-60 -21.5q-34 0 -64 24t-44 80q-29 -22 -48.5 -59.5t-19.5 -85.5q0 -38 20.5 -68
t65.5 -42l146 48l110 118l41 -8l-37 -142h140l-15 -71h-143l-41 -160q-11 -42 -10.5 -60t9.5 -27q8 -8 26 -13t60 -5q14 0 26.5 0.5t25.5 1.5l-2 -35q-54 -23 -104 -37.5t-103 -14.5q-43 0 -66 19.5t-25 53.5l-10 2q-42 -33 -89.5 -53.5t-107.5 -20.5zM317 98q20 0 45 5.5
t45 14.5l56 219h-132q-70 -13 -107.5 -49t-37.5 -90q0 -46 29.5 -73t101.5 -27z" />
    <glyph glyph-name="exclam" unicode="!" horiz-adv-x="334" 
d="M134 232q-2 61 -2.5 122t0.5 114.5t3 95t7 62.5q9 42 34.5 66.5t63.5 24.5q54 0 80.5 -31t15.5 -87q-5 -26 -20 -66.5t-36.5 -90.5t-47 -105.5t-51.5 -110.5zM129 -17q-43 0 -72 25t-29 63q0 19 8 35.5t21.5 28.5t31 18.5t36.5 6.5q43 0 72 -25t29 -63q0 -19 -8 -35.5
t-21.5 -28.5t-31 -18.5t-36.5 -6.5z" />
    <glyph glyph-name="exclamdown" unicode="&#xa1;" horiz-adv-x="334" 
d="M194 294q-43 0 -72 25t-29 63q0 19 8 35.5t21.5 28.5t31 18.5t36.5 6.5q43 0 71.5 -25t28.5 -63q0 -19 -8 -35.5t-21 -28.5t-30.5 -18.5t-36.5 -6.5zM78 -263q-54 0 -80 31.5t-15 86.5q5 25 20 66t36 91t47 105.5t52 110.5l47 -6l2 -122t0 -114.5t-3.5 -95t-7.5 -62.5
q-8 -41 -33.5 -66t-64.5 -25z" />
    <glyph glyph-name="question" unicode="?" horiz-adv-x="528" 
d="M177 233q-16 49 -16 98q0 46 32 73.5t87 50.5q60 26 83 50.5t23 60.5q0 20 -8 36.5t-21.5 28t-31 17.5t-36.5 6q-9 0 -19.5 -1.5t-19.5 -3.5q2 -7 3.5 -17t1.5 -18q0 -21 -6 -40t-18 -33.5t-29.5 -23.5t-39.5 -9q-32 0 -54 22.5t-22 56.5q0 32 15.5 56t42.5 40.5
t62.5 24.5t75.5 8q55 0 101 -14t79 -39.5t51.5 -60.5t18.5 -77t-11.5 -71.5t-33.5 -50.5t-53 -36.5t-71 -30.5q-37 -14 -60 -23.5t-36 -21t-18.5 -26.5t-7.5 -39zM178 -17q-43 0 -72 25t-29 63q0 19 8 35.5t21.5 28.5t31 18.5t36.5 6.5q43 0 71.5 -25t28.5 -63
q0 -19 -8 -35.5t-21 -28.5t-30.5 -18.5t-36.5 -6.5z" />
    <glyph glyph-name="questiondown" unicode="&#xbf;" horiz-adv-x="526" 
d="M334 221q8 -26 12 -49.5t4 -47.5q0 -47 -32.5 -74.5t-87.5 -50.5q-59 -26 -82.5 -50.5t-23.5 -60.5q0 -20 8 -36t21.5 -27.5t31 -17.5t36.5 -6q18 0 40 5q-5 15 -5 34q0 21 6 40t18 33.5t29 23.5t39 9q32 0 54.5 -22t22.5 -57q0 -32 -15.5 -56t-42.5 -40.5t-62.5 -24.5
t-75.5 -8q-55 0 -101 14t-79 39.5t-51.5 61t-18.5 77.5t11.5 71t33 50.5t53 37t71.5 30.5q37 14 60 23.5t36 21t18.5 26.5t7.5 39zM333 471q43 0 72 -25t29 -63q0 -19 -8 -35.5t-21.5 -28.5t-31 -18.5t-36.5 -6.5q-43 0 -72 25t-29 63q0 19 8 35.5t21.5 28.5t31 18.5
t36.5 6.5z" />
    <glyph glyph-name="quotedblleft" unicode="&#x201c;" horiz-adv-x="545" 
d="M435 351q-43 0 -69.5 29t-26.5 83q0 40 16.5 79.5t47.5 74.5t76 64.5t103 51.5l20 -33q-75 -48 -110 -86.5t-50 -73.5l8 -9l4 1q2 1 6 1.5t7 0.5q28 0 49 -18.5t21 -56.5q0 -22 -8 -41.5t-22 -34.5t-32.5 -23.5t-39.5 -8.5zM175 351q-42 0 -69 29t-27 83q0 40 16.5 79.5
t47.5 74.5t76.5 64.5t103.5 51.5l19 -33q-75 -47 -110 -86.5t-49 -73.5l8 -9l3 1q6 2 14 2q28 0 48.5 -18.5t20.5 -56.5q0 -22 -8 -41.5t-21.5 -34.5t-32.5 -23.5t-40 -8.5z" />
    <glyph glyph-name="quotedblright" unicode="&#x201d;" horiz-adv-x="545" 
d="M317 382q75 47 110 86t49 74l-7 9l-4 -1q-2 -1 -6 -1.5t-7 -0.5q-28 0 -49 18.5t-21 55.5q0 22 8 41.5t22 34.5t32.5 23.5t39.5 8.5q42 0 69 -29t27 -83q0 -41 -16.5 -79.5t-47.5 -73.5t-76 -64.5t-103 -51.5zM58 382q75 47 110 86t49 74l-8 9l-3 -1q-6 -2 -14 -2
q-28 0 -48.5 18.5t-20.5 55.5q0 22 8 41.5t21.5 34.5t32.5 23.5t40 8.5q42 0 69 -29t27 -83q0 -41 -16.5 -79.5t-47.5 -73.5t-76.5 -64.5t-103.5 -51.5z" />
    <glyph glyph-name="quoteleft" unicode="&#x2018;" horiz-adv-x="286" 
d="M175 351q-42 0 -69 29t-27 83q0 40 16.5 79.5t47.5 74.5t76.5 64.5t103.5 51.5l19 -33q-75 -47 -110 -86.5t-49 -73.5l8 -9l3 1q6 2 14 2q28 0 48.5 -18.5t20.5 -56.5q0 -22 -8 -41.5t-21.5 -34.5t-32.5 -23.5t-40 -8.5z" />
    <glyph glyph-name="quoteright" unicode="&#x2019;" horiz-adv-x="286" 
d="M58 382q75 47 110 86t49 74l-8 9l-3 -1q-6 -2 -14 -2q-28 0 -48.5 18.5t-20.5 55.5q0 22 8 41.5t21.5 34.5t32.5 23.5t40 8.5q42 0 69 -29t27 -83q0 -41 -16.5 -79.5t-47.5 -73.5t-76.5 -64.5t-103.5 -51.5z" />
    <glyph glyph-name="quotedblbase" unicode="&#x201e;" horiz-adv-x="545" 
d="M203 -169q75 47 110 85.5t49 73.5l-8 10l-3 -1q-2 -2 -6 -2.5t-8 -0.5q-28 0 -48.5 18.5t-20.5 56.5q0 22 8 41.5t21.5 34.5t32.5 23.5t40 8.5q42 0 69 -29t27 -83q0 -41 -16.5 -80t-47.5 -74t-76.5 -64.5t-103.5 -51.5zM-57 -169q75 47 110 85.5t50 73.5l-8 10l-4 -1
q-3 -3 -13 -3q-28 0 -49 18.5t-21 56.5q0 22 8 41.5t22 34.5t32.5 23.5t39.5 8.5q43 0 69.5 -29t26.5 -83q0 -41 -16.5 -80t-47.5 -74t-76 -64.5t-103 -51.5z" />
    <glyph glyph-name="quotesinglbase" unicode="&#x201a;" horiz-adv-x="286" 
d="M-57 -169q75 47 110 85.5t50 73.5l-8 10l-4 -1q-3 -3 -13 -3q-28 0 -49 18.5t-21 56.5q0 22 8 41.5t22 34.5t32.5 23.5t39.5 8.5q43 0 69.5 -29t26.5 -83q0 -41 -16.5 -80t-47.5 -74t-76 -64.5t-103 -51.5z" />
    <glyph glyph-name="guillemotleft" unicode="&#xab;" horiz-adv-x="617" 
d="M278 235l5 32l276 211l29 -28l-150 -209l65 -191l-41 -26zM31 235l4 32l276 211l30 -28l-150 -209l65 -191l-41 -26z" />
    <glyph glyph-name="guillemotright" unicode="&#xbb;" horiz-adv-x="617" 
d="M272 52l150 209l-65 190l41 27l184 -211l-4 -32l-276 -211zM25 52l150 209l-65 190l41 27l184 -211l-4 -32l-276 -211z" />
    <glyph glyph-name="guilsinglleft" unicode="&#x2039;" horiz-adv-x="370" 
d="M31 235l4 32l276 211l30 -28l-150 -209l65 -191l-41 -26z" />
    <glyph glyph-name="guilsinglright" unicode="&#x203a;" horiz-adv-x="370" 
d="M25 52l150 209l-65 190l41 27l184 -211l-4 -32l-276 -211z" />
    <glyph glyph-name="hyphen" unicode="-" horiz-adv-x="407" 
d="M60 330h310l-25 -123h-309z" />
    <glyph glyph-name="endash" unicode="&#x2013;" horiz-adv-x="606" 
d="M61 325h507l-18 -86h-507z" />
    <glyph glyph-name="emdash" unicode="&#x2014;" horiz-adv-x="886" 
d="M61 325h787l-18 -86h-787z" />
    <glyph glyph-name="underscore" unicode="_" horiz-adv-x="501" 
d="M-42 65h498v-65h-498v65z" />
    <glyph glyph-name="slash" unicode="/" horiz-adv-x="450" 
d="M-99 -206l308 514l304 522l65 -31l-308 -514l-303 -521z" />
    <glyph glyph-name="backslash" unicode="\" horiz-adv-x="454" 
d="M186 285l-182 518l70 25l175 -520l183 -518l-71 -25z" />
    <glyph glyph-name="bar" unicode="|" horiz-adv-x="343" 
d="M136 258l-4 527h79l-4 -527l4 -528h-79z" />
    <glyph glyph-name="brokenbar" unicode="&#xa6;" horiz-adv-x="343" 
d="M132 325l4 230l-4 230h79l-4 -230l4 -230h-79zM132 -270l4 230l-4 230h79l-4 -230l4 -230h-79z" />
    <glyph glyph-name="parenleft" unicode="(" horiz-adv-x="429" 
d="M347 -198q-59 30 -110 74t-89 100.5t-59.5 124.5t-21.5 146q0 103 31.5 197t91 171t144.5 132.5t193 82.5l9 -42q-82 -31 -141.5 -94.5t-98.5 -146t-58 -176.5t-19 -187q0 -115 37.5 -202.5t115.5 -141.5l-25 -38v0z" />
    <glyph glyph-name="parenright" unicode=")" horiz-adv-x="429" 
d="M-87 -156q82 31 141.5 94.5t98.5 146t58 176.5t19 187q0 115 -37.5 202t-115.5 142l25 38q59 -30 110 -74t89 -100.5t59.5 -124.5t21.5 -146q0 -103 -31.5 -197t-91 -171t-144.5 -132.5t-193 -82.5z" />
    <glyph glyph-name="bracketleft" unicode="[" horiz-adv-x="427" 
d="M236 830h330l-12 -54h-188l-195 -919h188l-11 -54h-330z" />
    <glyph glyph-name="bracketright" unicode="]" horiz-adv-x="424" 
d="M-104 -132h188l195 919h-188l11 54h330l-218 -1027h-330z" />
    <glyph glyph-name="braceleft" unicode="{" horiz-adv-x="460" 
d="M362 -197q-81 7 -133.5 23t-81.5 42.5t-35.5 66t4.5 94.5l21 103q16 78 -9 113.5t-104 44.5l12 57q46 4 76.5 13.5t50.5 27t31.5 45t20.5 68.5l26 125q12 56 34 95.5t60.5 64t97.5 35t146 9.5l-9 -44q-42 -7 -72 -18t-50.5 -30.5t-33.5 -49.5t-22 -74l-25 -116
q-19 -90 -67 -129.5t-127 -48.5l-3 -13q37 -10 62.5 -25.5t40 -38.5t17.5 -56t-6 -78l-14 -78q-9 -44 -8.5 -74.5t12.5 -51.5t36 -34t62 -23l-10 -45v0z" />
    <glyph glyph-name="braceright" unicode="}" horiz-adv-x="460" 
d="M-88 -148q42 7 72 18t50 30.5t33.5 49.5t22.5 74l25 115q9 45 26 77t41 53t55.5 32.5t71.5 16.5l3 13q-37 10 -63 25t-40 38.5t-17 56.5t6 78l14 77q9 44 8.5 74.5t-12.5 51.5t-36 34.5t-62 23.5l10 44q81 -7 133.5 -22.5t81.5 -42t35.5 -66.5t-4.5 -95l-21 -103
q-8 -39 -6 -66.5t15 -46.5t38.5 -29.5t65.5 -15.5l-12 -57q-46 -4 -76.5 -13.5t-50.5 -27t-31.5 -45.5t-20.5 -68l-26 -125q-12 -56 -34 -95.5t-60.5 -64t-97.5 -35.5t-146 -9z" />
    <glyph glyph-name="at" unicode="@" horiz-adv-x="1040" 
d="M538 -199q-92 0 -177.5 28.5t-151 85t-105 140.5t-39.5 194q0 97 41 184t111 153t164 105t200 39q91 0 167 -31t131 -82.5t85 -117.5t30 -136q0 -65 -20 -122t-56 -99t-85.5 -66.5t-107.5 -24.5t-97.5 20t-54.5 62l-13 3q-38 -42 -71.5 -61t-76.5 -19q-51 0 -84 34.5
t-33 91.5q0 71 28.5 129t71.5 99.5t93.5 64t94.5 22.5q29 0 49.5 -5t46.5 -17l51 39l28 -10l-60 -274q-13 -58 -1 -92.5t55 -34.5q30 0 58.5 15.5t50.5 46t35 74.5t13 101q0 68 -25.5 129t-73 107.5t-115.5 73.5t-153 27q-81 0 -151.5 -29.5t-122.5 -84.5t-82 -135t-30 -180
q0 -83 29.5 -153t84.5 -121t133 -79.5t175 -28.5q79 0 145 22.5t121 54.5l19 -29q-60 -49 -145 -81t-180 -32zM482 149q17 0 36 7t42 23l44 207q-16 25 -33.5 38.5t-34.5 13.5q-24 0 -43.5 -24.5t-33.5 -59t-22 -71.5t-8 -63q0 -39 14 -55t39 -16z" />
    <glyph glyph-name="copyright" unicode="&#xa9;" horiz-adv-x="875" 
d="M455 -34q-80 0 -150 30t-122.5 82.5t-83 123t-30.5 150.5q0 79 30.5 149.5t83 122.5t122.5 82.5t150 30.5t150.5 -30.5t123 -82.5t82.5 -122.5t30 -149.5q0 -80 -30 -150.5t-82.5 -123t-123 -82.5t-150.5 -30zM455 6q70 0 132 27.5t108.5 74.5t73 110t26.5 134
t-26.5 133.5t-73 109.5t-108.5 74t-132 27q-71 0 -132.5 -27t-107.5 -74t-72.5 -109.5t-26.5 -133.5t26.5 -134t72.5 -110t107.5 -74.5t132.5 -27.5zM474 143q-51 0 -93.5 13.5t-73.5 39.5t-48 64.5t-17 89.5q0 45 16 84t46 68.5t71.5 46.5t92.5 17q26 0 51 -5t45 -13l18 22
h31l9 -165l-37 -2q-15 34 -29.5 56.5t-28.5 35.5t-29 18.5t-32 5.5q-41 0 -70 -38t-29 -120q0 -83 35.5 -126t89.5 -43q11 0 18.5 1t16.5 4l70 99l30 -3l-11 -123q-32 -13 -68 -20t-74 -7z" />
    <glyph glyph-name="published" unicode="&#x2117;" horiz-adv-x="875" 
d="M455 -34q-80 0 -150 30t-122.5 82.5t-83 123t-30.5 150.5q0 79 30.5 149.5t83 122.5t122.5 82.5t150 30.5t150.5 -30.5t123 -82.5t82.5 -122.5t30 -149.5q0 -80 -30 -150.5t-82.5 -123t-123 -82.5t-150.5 -30zM455 6q70 0 132 27.5t108.5 74.5t73 110t26.5 134
t-26.5 133.5t-73 109.5t-108.5 74t-132 27q-71 0 -132.5 -27t-107.5 -74t-72.5 -109.5t-26.5 -133.5t26.5 -134t72.5 -110t107.5 -74.5t132.5 -27.5zM277 178l52 15v317l-52 15v28h215q76 0 120.5 -31.5t44.5 -91.5q0 -63 -44 -94.5t-116 -31.5q-14 0 -29 1t-26 2v-114
l59 -15v-28h-224v28zM461 345q40 0 61.5 20.5t21.5 64.5q0 42 -21.5 61t-58.5 21h-22v-167h19z" />
    <glyph glyph-name="registered.alt" horiz-adv-x="875" 
d="M455 -34q-80 0 -150 30.5t-122.5 83t-83 122.5t-30.5 150q0 79 30.5 149.5t83 122.5t122.5 82.5t150 30.5t150.5 -30.5t123 -82.5t82.5 -122.5t30 -149.5q0 -80 -30 -150t-82.5 -122.5t-123 -83t-150.5 -30.5zM455 6q70 0 132 27.5t108.5 74.5t73 110t26.5 134
t-26.5 133.5t-73 109.5t-108.5 74t-132 27q-71 0 -132.5 -27t-107.5 -74t-72.5 -109.5t-26.5 -133.5t26.5 -134t72.5 -110t107.5 -74.5t132.5 -27.5zM252 185l52 16v317l-52 15v28h236q72 0 111.5 -27.5t39.5 -74.5q0 -36 -27 -64.5t-94 -37.5v-14q44 -6 65 -22.5t32 -48.5
q7 -23 15.5 -39t19.5 -27q8 -8 16 -13.5t20 -7.5v-27h-85q-35 0 -52 15t-32 54l-21 54q-10 26 -26.5 35.5t-42.5 9.5h-10v-125l52 -16v-27h-217v27zM447 367q35 2 57 20t22 56t-22 56t-59 20h-28v-154z" />
    <glyph glyph-name="registered" unicode="&#xae;" horiz-adv-x="476" 
d="M386 590q0 -21 -14 -34.5t-48 -19.5v-10q26 -3 36.5 -11t15.5 -26q4 -12 7 -20.5t7 -12.5q8 -8 22 -9v-19h-47q-22 0 -30.5 8.5t-16.5 31.5l-9 28q-9 23 -34 23h-14v-65l31 -7v-19h-121v19l33 7v164l-33 8v19h129q43 0 64.5 -15t21.5 -40zM325 582q0 20 -11.5 27.5
t-33.5 9.5l-20 1v-77h22q21 0 32 11t11 28zM285 322q-47 0 -85.5 15.5t-67 43t-44 66t-15.5 85.5q0 46 15.5 85t44 67t67 43.5t85.5 15.5q46 0 85 -15.5t67.5 -43.5t44 -67t15.5 -85q0 -47 -15.5 -85.5t-44 -66t-67.5 -43t-85 -15.5zM285 349q40 0 73.5 13.5t57.5 37.5
t37.5 57.5t13.5 74.5q0 40 -13.5 74t-37.5 58.5t-57.5 38t-73.5 13.5t-73.5 -13.5t-57.5 -38t-37.5 -58.5t-13.5 -74q0 -41 13.5 -74.5t37.5 -57.5t57.5 -37.5t73.5 -13.5z" />
    <glyph glyph-name="servicemark" unicode="&#x2120;" horiz-adv-x="959" 
d="M407 490q0 -26 -11 -46.5t-29 -34.5t-42 -21t-50 -7q-27 0 -56 6.5t-51 14.5l-13 -22h-28l-3 122l32 1q28 -48 57 -68t58 -20q26 0 40.5 11t14.5 30q0 23 -21 34t-63 23q-20 6 -40 13.5t-35.5 19.5t-25 29t-9.5 41q0 25 10.5 45t27.5 33.5t39 20.5t46 7t48 -5t42 -13
l13 22h26l7 -109l-33 -3q-26 42 -50.5 59t-49.5 17q-22 0 -34 -12t-12 -26q0 -23 20.5 -34.5t64.5 -24.5q22 -7 42 -15t35 -20t24 -28t9 -40zM926 439l49 -15v-32h-186v32l41 15v235h-11l-98 -282h-73l-89 282h-12v-231l38 -19v-32h-131v32l43 19v221l-43 17v32h190l14 -56
l50 -169h6l56 172l14 53h191v-32l-49 -15v-227z" />
    <glyph glyph-name="trademark" unicode="&#x2122;" horiz-adv-x="1007" 
d="M502 424l42 19v221l-42 17v32h190l14 -56l50 -169h6l55 172l15 53h191v-32l-50 -15v-227l50 -15v-32h-186v32l40 15v235h-10l-98 -282h-73l-90 282h-11v-231l38 -19v-32h-131v32zM191 424l52 15v240h-18q-18 0 -27 -7t-25 -29l-36 -52l-28 3l15 119h329l15 -119l-28 -3
l-36 52q-16 22 -25 29t-27 7h-14v-240l51 -15v-32h-198v32z" />
    <glyph glyph-name="asterisk" unicode="*" horiz-adv-x="505" 
d="M167 688l111 -122l12 4l16 161l81 -17l-50 -155l9 -7l151 66l20 -76l-155 -35l-2 -13l127 -96l-49 -62l-112 122l-11 -2l-17 -163l-81 18l51 155l-10 7l-151 -66l-19 76l155 36l3 12l-127 95z" />
    <glyph glyph-name="dagger" unicode="&#x2020;" horiz-adv-x="539" 
d="M279 440l-203 -5l13 65l201 -5l47 255h69l-57 -255l201 5l-13 -65l-200 5l-109 -533h-69z" />
    <glyph glyph-name="daggerdbl" unicode="&#x2021;" horiz-adv-x="539" 
d="M217 158l-203 -5l14 65l201 -5l50 232l-202 -5l13 64l200 -4l47 250h69l-57 -250l203 4l-14 -64l-201 5l-50 -232l202 5l-13 -65l-201 5l-46 -251h-69z" />
    <glyph glyph-name="asciicircum" unicode="^" horiz-adv-x="364" 
d="M79 600l180 214h75l92 -214l-39 -30l-115 96l-167 -96z" />
    <glyph glyph-name="asciitilde" unicode="~" horiz-adv-x="484" 
d="M56 268q21 97 52.5 139.5t85.5 42.5q24 0 46.5 -9t43.5 -19.5t40 -19t37 -8.5t31 15t30 50l49 -7q-21 -97 -52 -140t-85 -43q-24 0 -46.5 8.5t-43.5 19t-40 19.5t-37 9t-31 -14.5t-31 -49.5z" />
    <glyph glyph-name="dollar" unicode="$" horiz-adv-x="618" 
d="M164 -125l33 122q-45 8 -86.5 21.5t-80.5 31.5l31 199l44 2q18 -84 45.5 -129t67.5 -62l60 218q-38 19 -68.5 37.5t-52.5 40.5t-34 50t-12 67q0 45 19 85t54.5 69.5t87 45.5t117.5 14l29 105l69 -10l-29 -102q43 -7 79 -17.5t65 -24.5l-32 -177l-44 -3q-20 65 -41 101.5
t-50 52.5l-57 -206q40 -21 72.5 -40t55.5 -41.5t35.5 -51t12.5 -68.5q0 -54 -21 -96t-59 -70.5t-92 -41.5t-120 -9l-33 -121zM380 629q-28 3 -52 -1.5t-42 -16.5t-28.5 -31.5t-10.5 -46.5q0 -17 4 -30t13 -24.5t24 -22.5t38 -23zM272 45q71 -8 108.5 20t37.5 78q0 36 -20 59
t-69 50z" />
    <glyph glyph-name="sterling" unicode="&#xa3;" horiz-adv-x="606" 
d="M172 379q-2 12 -3 25t-1 26q0 55 21.5 103t61 83t95 55t123.5 20q42 0 71 -8t47 -21.5t26.5 -30.5t8.5 -35q0 -30 -20.5 -53.5t-55.5 -23.5q-45 0 -72.5 31t-43.5 88q-45 -8 -69 -47t-24 -102q0 -28 3 -55t5 -55h164l-15 -71h-148v-6q-2 -26 -10 -49.5t-23.5 -44.5
t-40.5 -39.5t-61 -34.5l1 -12q57 5 105.5 1t92.5 -4q24 0 41 5t30.5 16t24.5 30t22 47l44 -3q-8 -54 -21 -97t-34 -72.5t-52.5 -45.5t-76.5 -16q-57 0 -109.5 23t-105.5 69q-26 -44 -59.5 -67.5t-68.5 -23.5t-55.5 19.5t-20.5 50.5q0 45 42 68.5t132 15.5q24 36 33.5 66.5
t9.5 61.5q0 21 -3 42h-144l15 71h118v0z" />
    <glyph glyph-name="Euro" unicode="&#x20ac;" horiz-adv-x="654" 
d="M390 -16q-66 0 -115.5 19t-84 52t-53.5 77t-23 94h-87l14 63h73q2 20 5 39.5t8 38.5h-75l14 63h83q24 58 62 106.5t86 82.5t103 53t112 19q45 0 79 -10t56 -26t33 -36.5t11 -42.5q0 -32 -22 -53t-54 -21q-45 0 -74.5 37t-32.5 101q-69 -13 -124.5 -66t-83.5 -144h243
l-14 -63h-244q-3 -19 -4.5 -38t-2.5 -40h240l-14 -63h-223q10 -68 52.5 -100.5t112.5 -32.5q35 0 68.5 11.5t78.5 37.5l25 -24q-90 -134 -228 -134z" />
    <glyph glyph-name="yen" unicode="&#xa5;" horiz-adv-x="737" 
d="M118 40l120 32l16 81h-190l12 58h191l18 85h-191l13 58h165l-89 240l-79 40l8 39h347l-7 -39l-90 -27l73 -224l163 219l-67 32l8 39h239l-7 -39l-82 -36l-201 -244h165l-12 -58h-190l-19 -85h191l-13 -58h-190l-17 -81l106 -32l-8 -40h-391z" />
    <glyph glyph-name="cent" unicode="&#xa2;" horiz-adv-x="566" 
d="M206 -122l23 110q-86 11 -137.5 65t-51.5 141q0 61 23 115.5t62.5 96.5t92.5 69t113 35l16 89l57 -4l-18 -81h4q81 -4 123.5 -37.5t42.5 -79.5q0 -34 -21 -55t-50 -21q-48 0 -68.5 38t-16.5 100q-4 1 -11 1h-15l-43 -208l-30 -171q5 -1 11.5 -1h12.5q38 0 72.5 12.5
t79.5 42.5l19 -20q-35 -60 -88 -93.5t-124 -36.5l-21 -110zM287 263l35 191q-31 -14 -55 -41.5t-40 -61.5t-24.5 -72t-8.5 -72q0 -83 58 -112z" />
    <glyph glyph-name="baht" unicode="&#xe3f;" horiz-adv-x="657" 
d="M286 51q37 0 63.5 16.5t43.5 42t25 56.5t8 60q0 53 -28 79t-85 28l-31 1l-58 -274q24 -9 62 -9zM332 388q41 2 69 16.5t45.5 36t25.5 49t8 55.5q0 50 -26 71t-73 23h-6h-11h-11h-6l-53 -253zM525 833l63 -24l-61 -132q55 -17 82 -50t27 -81q0 -77 -55.5 -122t-157.5 -53
l-4 -16q171 -27 171 -153q0 -40 -16 -76.5t-52 -64.5t-93.5 -44.5t-140.5 -16.5h-42l-63 -156l-63 23l61 133h-216l9 42l92 23l119 564l-82 22l10 41h289q17 0 33.5 -1t31.5 -3z" />
    <glyph glyph-name="colonmonetary" unicode="&#x20a1;" horiz-adv-x="580" 
d="M163 5q-67 26 -104.5 84t-37.5 152q0 85 28 164.5t77 142t115.5 103.5t144.5 51l34 112l59 -18l-27 -92q36 -2 63 -12l34 111l60 -18l-38 -124q20 -18 29 -40.5t9 -45.5q0 -35 -19 -58.5t-54 -23.5q-14 0 -25 4l-47 -149l-78 -258q51 8 101 28l21 -26q-34 -42 -69 -66.5
t-83 -33.5l-39 -130l-60 19l32 104q-17 -1 -34 0t-32 4l-35 -115l-61 18zM336 359l-80 -259q17 -5 36 -8t38 -5l85 274l52 170q-27 44 -12 126q-7 1 -13.5 1h-13.5zM287 372l82 271q-45 -20 -80.5 -62.5t-60.5 -96.5t-38.5 -114.5t-13.5 -116.5q0 -54 9 -85t24 -48z" />
    <glyph glyph-name="florin" unicode="&#x192;" horiz-adv-x="526" 
d="M-30 -204q-49 0 -79.5 21t-30.5 56q0 29 19.5 51t54.5 22q30 0 63 -21t53 -59q7 7 13.5 19t14 32.5t15.5 52t17 76.5l54 267h-113l9 39l121 42l4 13q20 75 58.5 138t103.5 103q32 20 66.5 32t72.5 12q51 0 80 -20.5t29 -55.5q-1 -30 -22 -53t-56 -23q-29 0 -58.5 18.5
t-55.5 63.5q-11 -9 -20 -22.5t-17.5 -34t-16 -50t-15.5 -71.5l-13 -62h136l-17 -69h-132l-35 -173q-22 -107 -59 -177t-97 -115q-34 -26 -72 -39t-75 -13z" />
    <glyph glyph-name="naira" unicode="&#x20a6;" horiz-adv-x="856" 
d="M228 618l-82 34l9 40h266l60 -184h171l22 107l-86 37l8 40h276l-8 -40l-105 -39l-23 -108h134l-12 -59h-134l-31 -147h134l-13 -59h-134l-52 -246h-143l-79 237h-175l-32 -154l86 -37l-8 -40h-275l8 40l104 39l33 155h-148l13 60h147l32 146h-148l13 60h146zM568 231h26
l48 225h-144zM315 503h-26l-46 -220h145z" />
    <glyph glyph-name="peso" unicode="&#x20b1;" horiz-adv-x="732" 
d="M199 629l-92 22l9 41h298q131 0 190.5 -47t59.5 -135v-5h106l-13 -59h-101q-11 -41 -34.5 -76t-60 -60.5t-85.5 -40.5t-109 -16q-24 0 -41.5 1t-40.5 5l-41 -195l108 -24l-9 -40h-375l10 42l101 23l81 381h-139l13 59h139zM322 450l-29 -135h31q70 3 111 42t57 93h-170z
M502 501q1 7 1 12.5v12.5q0 56 -24.5 80t-87.5 29h-5.5t-9.5 0.5t-9.5 0.5h-4.5l-29 -135h169z" />
    <glyph glyph-name="R_p" horiz-adv-x="1238" 
d="M515 0q-31 0 -50.5 6t-32 20.5t-19.5 37.5t-13 58l-17 101q-8 47 -28 63t-52 16h-26l-51 -239l80 -23l-8 -40h-333l9 42l92 23l120 564l-83 22l10 41h298q123 0 183.5 -40.5t60.5 -118.5q0 -33 -12.5 -63.5t-39 -56t-66.5 -43.5t-95 -25l-3 -16q28 -8 47 -18.5t31.5 -26
t19 -36.5t11.5 -50q7 -41 14.5 -70.5t18.5 -45.5t29.5 -24.5t56.5 -13.5l71 330l-57 38l3 29l207 53l21 -13l-29 -85l11 -2q42 45 80 71t88 26q27 0 50.5 -11t41 -31.5t27.5 -49.5t10 -65q0 -71 -27.5 -133.5t-74 -108.5t-107.5 -72.5t-128 -26.5q-12 0 -23 0.5t-20 1.5
l-26 -119l68 -29l-6 -34h-293l7 34l70 29l27 124h-143zM915 62q28 0 48.5 25.5t34.5 62.5t21 78t7 72q0 43 -16 62t-39 19q-19 0 -41 -8t-43 -22l-51 -240q20 -26 41 -37.5t38 -11.5zM338 363q39 2 67 18.5t47 40.5t28 53t9 58q0 51 -25.5 74.5t-81.5 25.5h-34l-59 -273z
" />
    <glyph glyph-name="rupee" unicode="&#x20a8;" horiz-adv-x="1130" 
d="M-26 42l92 23l120 564l-83 22l10 41h298q126 0 187 -40.5t61 -118.5q0 -33 -13 -63.5t-39.5 -56t-67.5 -43.5t-97 -25l-3 -16q26 -8 44 -18.5t29.5 -26t18 -36.5t11.5 -50q6 -41 13.5 -70.5t18.5 -45.5t26.5 -24t44.5 -13l-9 -45h-128q-30 0 -49.5 6t-32 20.5t-19.5 37.5
t-13 58l-17 102q-8 46 -28 62t-52 16h-20l-51 -239l80 -23l-8 -40h-333zM859 -14q-43 0 -79.5 8t-63.5 23t-42 36t-15 47q0 31 20.5 52t46.5 21q33 0 58 -29.5t25 -85.5q19 -11 35 -16t35 -5q29 0 45.5 17.5t16.5 46.5q0 23 -15.5 39t-57.5 36l-42 19q-48 23 -76.5 50.5
t-28.5 76.5q0 32 13.5 62.5t40.5 54.5t66.5 38.5t90.5 14.5q39 0 69.5 -9t52 -23.5t32.5 -33.5t11 -38q0 -31 -18.5 -48t-44.5 -17q-35 0 -60.5 30t-30.5 77q-17 9 -39 9q-27 -1 -43.5 -19t-16.5 -41t15.5 -37t55.5 -34l41 -21q25 -12 44.5 -24.5t33.5 -27.5t21.5 -34
t7.5 -44q0 -30 -12.5 -60.5t-38 -55t-63.5 -40t-90 -15.5zM338 363q40 2 69.5 18.5t48.5 40.5t28 53t9 58q0 51 -26 74.5t-85 25.5h-34l-59 -273z" />
    <glyph glyph-name="won" unicode="&#x20a9;" horiz-adv-x="1152" 
d="M759 313l6 -195h18l83 195h-107zM887 364l44 103h-178l4 -103h130zM375 313l6 -195h18l98 195h-122zM522 364l52 103h-203l3 -103h148zM41 303l13 59h162l-7 101h-134l13 60h118l-5 98l-86 32l7 39h327l-6 -34l-77 -26l3 -113h222l-6 107l-66 32l7 34h303l-6 -35l-75 -30
l4 -108h200l42 97l-65 41l6 35h237l-8 -39l-85 -44l-41 -86h105l-13 -60h-120l-48 -101h147l-13 -59h-162l-144 -307h-168l-22 378h-8l-190 -378h-166l-17 307h-178z" />
    <glyph glyph-name="sheqel" unicode="&#x20aa;" horiz-adv-x="613" 
d="M98 539h153q99 0 142.5 -24.5t43.5 -84.5q0 -18 -5 -42t-13.5 -50.5t-20.5 -54t-26 -54.5h-44q9 61 9 88q0 23 -6 38t-24 24.5t-50 15t-83 10.5l-32 2l-87 -407h-71zM484 0h-152q-99 0 -142 24.5t-43 84.5q0 37 18 92t47 109h43q-9 -62 -9 -88q0 -23 6 -38t23.5 -24.5
t49.5 -15.5t84 -10l32 -2l88 416l66 -25z" />
    <glyph glyph-name="numbersign" unicode="#" horiz-adv-x="713" 
d="M132 31l42 142h-107v66h127l32 107l22 77h-131v67h150l49 174l72 -20l-47 -154h148l49 174l72 -20l-47 -154h110v-67h-130l-27 -91l-27 -93h134v-66h-152l-47 -162l-70 20l42 142h-147l-47 -162zM416 239l32 107l22 77h-149l-27 -91l-27 -93h149z" />
    <glyph glyph-name="paragraph" unicode="&#xb6;" horiz-adv-x="745" 
d="M795 640l-104 -38l-152 -712h-82l152 716h-92l-152 -716h-83l66 308q-82 2 -133.5 20t-81 46.5t-40.5 63.5t-11 72q0 45 19 94.5t62.5 90.5t115 67.5t176.5 26.5h349zM435 607q-55 0 -91 -22t-57 -54t-29.5 -68t-8.5 -63q0 -62 29 -89.5t86 -37.5z" />
    <glyph glyph-name="section" unicode="&#xa7;" horiz-adv-x="605" 
d="M219 -104q-47 0 -83.5 10t-61.5 27.5t-38.5 41t-13.5 50.5q0 34 20.5 55.5t49.5 21.5q40 0 64.5 -36t14.5 -106q10 -5 26.5 -9t33.5 -4q45 0 81.5 23t59.5 66q-65 36 -117.5 78t-90.5 90t-58.5 103t-20.5 118q0 65 23.5 121.5t66 98.5t101.5 66t131 24q46 0 83 -10
t62 -27.5t38.5 -41t13.5 -49.5q0 -35 -20.5 -56.5t-49.5 -21.5q-20 0 -36.5 9t-28 27t-15.5 45t1 62q-10 5 -26.5 8.5t-33.5 3.5q-45 0 -81.5 -23t-59.5 -66q65 -36 118 -77.5t90.5 -90t58 -103.5t20.5 -118q0 -65 -23.5 -121.5t-66 -98.5t-101.5 -66t-131 -24zM391 78
q8 24 12 50.5t4 57.5q0 48 -9 92.5t-29 89t-53 90t-81 95.5q-8 -23 -12 -50t-4 -58q0 -48 9 -92.5t29 -89t53 -90t81 -95.5z" />
    <glyph glyph-name="ordfeminine" unicode="&#xaa;" horiz-adv-x="447" 
d="M160 349q-40 0 -67 28.5t-27 76.5q0 60 24 109t60 83.5t78.5 53.5t80.5 19q24 0 41 -4.5t39 -14.5l44 33l22 -8l-58 -275q-3 -15 -3.5 -23.5t4.5 -13t18 -6.5t37 -3l3 -19q-56 -36 -111 -36q-37 0 -48.5 18t-9.5 46l-8 1q-33 -33 -60 -49t-59 -16zM224 430q17 0 33 6.5
t32 16.5l38 173q-30 42 -58 42q-20 0 -36.5 -20t-28 -48t-18 -58.5t-6.5 -52.5q0 -32 11.5 -45.5t32.5 -13.5z" />
    <glyph glyph-name="ordmasculine" unicode="&#xba;" horiz-adv-x="435" 
d="M223 349q-64 0 -105.5 36t-41.5 108q0 45 17 86t46.5 72t70 49.5t87.5 18.5q32 0 59.5 -9t47.5 -27t31 -45t11 -63q0 -45 -17 -86t-47 -72t-70.5 -49.5t-88.5 -18.5zM239 387q22 0 39 24t29 58t18 71.5t6 64.5q0 36 -11 56t-37 20q-23 0 -40.5 -24t-29.5 -58t-18 -71.5
t-6 -64.5q0 -36 12 -56t38 -20z" />
    <glyph glyph-name="degree" unicode="&#xb0;" horiz-adv-x="404" 
d="M221 370q-31 0 -58 9t-46.5 26.5t-30.5 42.5t-11 58q0 40 16 78t44.5 67.5t67.5 47.5t85 18q31 0 57.5 -9t46 -26.5t30.5 -42.5t11 -58q0 -40 -16 -78t-44 -67.5t-67 -47.5t-85 -18zM236 414q22 0 38.5 20.5t27.5 50t16.5 61.5t5.5 56q0 33 -12.5 52.5t-38.5 19.5
q-22 0 -38.5 -20.5t-28 -50t-17 -62t-5.5 -56.5q0 -34 13 -52.5t39 -18.5z" />
    <glyph glyph-name="percent" unicode="%" horiz-adv-x="842" 
d="M215 325q-31 0 -57 9t-45.5 27t-30.5 44.5t-11 61.5q0 42 16.5 82t45 71.5t68 50.5t86.5 19q30 0 56.5 -9.5t45.5 -27.5t30 -44.5t11 -60.5q0 -42 -16.5 -82t-45 -71.5t-68 -50.5t-85.5 -19zM103 7l312 344l308 351l47 -38l-313 -344l-308 -351zM585 -19
q-62 0 -102.5 36.5t-40.5 105.5q0 42 16.5 82.5t45 71.5t68 50t85.5 19q31 0 57 -9t45.5 -27t30.5 -44.5t11 -60.5q0 -42 -16.5 -82.5t-45.5 -72t-68.5 -50.5t-85.5 -19zM231 369q22 0 38.5 21.5t28 53t17.5 66.5t6 62q0 34 -12.5 54t-38.5 20q-22 0 -38.5 -21.5t-28 -53
t-17.5 -66.5t-6 -62q0 -34 12.5 -54t38.5 -20zM602 25q22 0 38.5 21.5t28 53t17.5 66.5t6 62q0 34 -12.5 54t-38.5 20q-22 0 -39 -21.5t-28 -53t-17 -66.5t-6 -62q0 -34 12.5 -54t38.5 -20z" />
    <glyph glyph-name="quotedbl" unicode="&#x22;" horiz-adv-x="497" 
d="M96 431l33 118q10 34 18 61.5t20 50.5q27 56 72 56q35 0 55 -20.5t20 -43.5q0 -20 -7 -35t-15 -27q-16 -22 -37 -46t-44 -49l-79 -83zM316 431l34 118q10 34 18 61.5t19 50.5q29 56 73 56q35 0 54.5 -20.5t19.5 -43.5q0 -20 -6.5 -35t-15.5 -27q-15 -22 -36 -46t-44 -49
l-79 -83z" />
    <glyph glyph-name="quotesingle" unicode="'" horiz-adv-x="273" 
d="M96 431l33 118q10 34 18 61.5t20 50.5q27 56 72 56q35 0 55 -20.5t20 -43.5q0 -20 -7 -35t-15 -27q-16 -22 -37 -46t-44 -49l-79 -83z" />
    <glyph glyph-name="plus" unicode="+" horiz-adv-x="580" 
d="M335 303l-42 -200h-73l42 200h-196l15 68h196l42 197h73l-42 -197h196l-15 -68h-196z" />
    <glyph glyph-name="minus" unicode="&#x2212;" horiz-adv-x="580" 
d="M75 300l16 75h445l-16 -75h-445z" />
    <glyph glyph-name="divide" unicode="&#xf7;" horiz-adv-x="580" 
d="M71 304l14 66h455l-14 -66h-455zM341 433q-31 0 -52 21.5t-21 52.5t21 52t52 21q32 0 53 -21t21 -52t-21 -52.5t-53 -21.5zM269 94q-31 0 -52 21t-21 52t21 52.5t52 21.5t52 -21.5t21 -52.5t-21 -52t-52 -21z" />
    <glyph glyph-name="equal" unicode="=" horiz-adv-x="580" 
d="M117 480h439l-15 -72h-439zM71 266h439l-15 -73h-439z" />
    <glyph glyph-name="multiply" unicode="&#xd7;" horiz-adv-x="580" 
d="M460 162l-56 -42l-119 167l-186 -148l-42 50l190 151l-121 168l56 42l120 -167l186 148l42 -50l-191 -151z" />
    <glyph glyph-name="less" unicode="&#x3c;" horiz-adv-x="580" 
d="M86 311l11 54l434 203l1 -78l-357 -157l290 -161l-31 -65z" />
    <glyph glyph-name="greater" unicode="&#x3e;" horiz-adv-x="580" 
d="M78 185l357 157l-289 161l31 65l347 -204l-11 -54l-433 -203z" />
    <glyph glyph-name="plusminus" unicode="&#xb1;" horiz-adv-x="580" 
d="M340 422l-35 -162h-68l35 162h-160l14 67h160l33 159h68l-33 -159h160l-14 -67h-160zM35 112l14 67h410l-14 -67h-410z" />
    <glyph glyph-name="onehalf" unicode="&#xbd;" horiz-adv-x="1160" 
d="M385 213l-4 -23h-362l5 23l124 40l80 370l-100 45l5 22l225 27l15 -11l-98 -455zM614 283l-361 -414l-53 51l368 407l361 414l53 -51zM680 14q63 38 105.5 66.5t73.5 54.5q28 23 47 42.5t30.5 36.5t16.5 33t5 33q0 29 -17 47.5t-49 18.5t-59 -20t-59 -62l-26 14
q60 158 192 158q36 0 63 -10.5t44.5 -28t26.5 -40.5t9 -48q0 -37 -15.5 -69.5t-51 -65.5t-93.5 -69t-143 -78l3 -17l195 5l70 78l20 -5l-54 -172h-319l-15 98v0z" />
    <glyph glyph-name="onethird" unicode="&#x2153;" horiz-adv-x="1160" 
d="M385 213l-4 -23h-362l5 23l124 40l80 370l-100 45l5 22l225 27l15 -11l-98 -455zM614 283l-361 -414l-53 51l368 407l361 414l53 -51zM814 192q46 14 75.5 27.5t47 27t24 27.5t6.5 30q0 25 -15.5 39t-46.5 14q-34 0 -66 -16t-63 -44l-21 17q26 52 75 87t121 35
q65 0 102.5 -29t37.5 -77q0 -44 -35 -77t-115 -51l-1 -15q59 -15 90 -46t31 -79q0 -33 -14.5 -62.5t-41 -52t-64.5 -35.5t-86 -13q-80 0 -124.5 28.5t-44.5 70.5q0 26 17.5 45t44.5 19q21 0 34.5 -10t19 -25.5t3 -33.5t-11.5 -33q11 -8 26.5 -11.5t39.5 -3.5q35 0 57.5 21.5
t22.5 59.5q0 19 -6.5 36t-22 31t-41.5 26t-66 22l11 51v0z" />
    <glyph glyph-name="twothirds" unicode="&#x2154;" horiz-adv-x="1160" 
d="M18 288q63 38 105.5 66.5t73.5 54.5q28 23 47 42.5t30.5 36.5t16.5 33t5 33q0 29 -17 47.5t-49 18.5t-59 -20t-59 -62l-26 14q60 158 192 158q36 0 63 -10.5t44.5 -28t26.5 -40.5t9 -48q0 -37 -15.5 -69.5t-51 -65.5t-93.5 -69t-143 -78l3 -17l195 5l70 78l20 -5
l-54 -172h-319l-15 98v0zM605 283l-361 -414l-53 51l368 407l361 414l53 -51zM809 192q46 14 75.5 27.5t47 27t24 27.5t6.5 30q0 25 -15.5 39t-46.5 14q-34 0 -66 -16t-63 -44l-21 17q26 52 75 87t121 35q65 0 102.5 -29t37.5 -77q0 -44 -35 -77t-115 -51l-1 -15
q59 -15 90 -46t31 -79q0 -33 -14.5 -62.5t-41 -52t-64.5 -35.5t-86 -13q-80 0 -124.5 28.5t-44.5 70.5q0 26 17.5 45t44.5 19q21 0 34.5 -10t19 -25.5t3 -33.5t-11.5 -33q11 -8 26.5 -11.5t39.5 -3.5q35 0 57.5 21.5t22.5 59.5q0 19 -6.5 36t-22 31t-41.5 26t-66 22l11 51v0
z" />
    <glyph glyph-name="onequarter" unicode="&#xbc;" horiz-adv-x="1160" 
d="M389 213l-4 -23h-362l5 23l124 40l80 370l-100 45l5 22l225 27l15 -11l-98 -455zM638 283l-361 -414l-53 51l368 407l361 414l53 -51zM943 344h-22l-168 -217h143zM942 434l132 -8l-63 -295h79l-15 -72h-79l-17 -79l56 -32l-6 -32h-267l7 32l90 32l17 82h-180l-13 66z
" />
    <glyph glyph-name="threequarters" unicode="&#xbe;" horiz-adv-x="1160" 
d="M159 466q46 14 75.5 27.5t47 27t24 27.5t6.5 30q0 25 -15.5 39t-46.5 14q-34 0 -66 -16t-63 -44l-21 17q26 52 75 87t121 35q65 0 102.5 -29t37.5 -77q0 -44 -35 -77t-115 -51l-1 -15q59 -15 90 -46t31 -79q0 -33 -14.5 -62.5t-41 -52t-64.5 -35.5t-86 -13
q-80 0 -124.5 28.5t-44.5 70.5q0 26 17.5 45t44.5 19q21 0 34.5 -10t19 -25.5t3 -33.5t-11.5 -33q11 -8 26.5 -11.5t39.5 -3.5q35 0 57.5 21.5t22.5 59.5q0 19 -6.5 36t-22 31t-41.5 26t-66 22l11 51v0zM632 283l-361 -414l-53 51l368 407l361 414l53 -51zM937 344h-22
l-168 -217h143zM936 434l132 -8l-63 -295h79l-15 -72h-79l-17 -79l56 -32l-6 -32h-267l7 32l90 32l17 82h-180l-13 66z" />
    <glyph glyph-name="onefifth" unicode="&#x2155;" horiz-adv-x="1160" 
d="M389 213l-4 -23h-362l5 23l124 40l80 370l-100 45l5 22l225 27l15 -11l-98 -455zM625 283l-361 -414l-53 51l368 407l361 414l53 -51zM1063 313h-216l-22 -65q114 -19 172 -58.5t58 -114.5q0 -36 -14.5 -68t-41.5 -56t-65 -38.5t-85 -14.5q-79 0 -118.5 29t-39.5 71
q0 27 16 46.5t42 19.5q23 0 36.5 -10.5t19.5 -26t4 -33.5t-11 -34q22 -14 60 -14q42 0 64 23.5t22 56.5q0 26 -11 46t-35.5 35.5t-63 27t-92.5 20.5l82 265h208l44 47l30 -6z" />
    <glyph glyph-name="twofifths" unicode="&#x2156;" horiz-adv-x="1160" 
d="M18 288q63 38 105.5 66.5t73.5 54.5q28 23 47 42.5t30.5 36.5t16.5 33t5 33q0 29 -17 47.5t-49 18.5t-59 -20t-59 -62l-26 14q60 158 192 158q36 0 63 -10.5t44.5 -28t26.5 -40.5t9 -48q0 -37 -15.5 -69.5t-51 -65.5t-93.5 -69t-143 -78l3 -17l195 5l70 78l20 -5
l-54 -172h-319l-15 98v0zM614 283l-361 -414l-53 51l368 407l361 414l53 -51zM1063 313h-216l-22 -65q114 -19 172 -58.5t58 -114.5q0 -36 -14.5 -68t-41.5 -56t-65 -38.5t-85 -14.5q-79 0 -118.5 29t-39.5 71q0 27 16 46.5t42 19.5q23 0 36.5 -10.5t19.5 -26t4 -33.5
t-11 -34q22 -14 60 -14q42 0 64 23.5t22 56.5q0 26 -11 46t-35.5 35.5t-63 27t-92.5 20.5l82 265h208l44 47l30 -6z" />
    <glyph glyph-name="threefifths" unicode="&#x2157;" horiz-adv-x="1160" 
d="M153 466q46 14 75.5 27.5t47 27t24 27.5t6.5 30q0 25 -15.5 39t-46.5 14q-34 0 -66 -16t-63 -44l-21 17q26 52 75 87t121 35q65 0 102.5 -29t37.5 -77q0 -44 -35 -77t-115 -51l-1 -15q59 -15 90 -46t31 -79q0 -33 -14.5 -62.5t-41 -52t-64.5 -35.5t-86 -13
q-80 0 -124.5 28.5t-44.5 70.5q0 26 17.5 45t44.5 19q21 0 34.5 -10t19 -25.5t3 -33.5t-11.5 -33q11 -8 26.5 -11.5t39.5 -3.5q35 0 57.5 21.5t22.5 59.5q0 19 -6.5 36t-22 31t-41.5 26t-66 22l11 51v0zM604 283l-361 -414l-53 51l368 407l361 414l53 -51zM1063 313h-216
l-22 -65q114 -19 172 -58.5t58 -114.5q0 -36 -14.5 -68t-41.5 -56t-65 -38.5t-85 -14.5q-79 0 -118.5 29t-39.5 71q0 27 16 46.5t42 19.5q23 0 36.5 -10.5t19.5 -26t4 -33.5t-11 -34q22 -14 60 -14q42 0 64 23.5t22 56.5q0 26 -11 46t-35.5 35.5t-63 27t-92.5 20.5l82 265
h208l44 47l30 -6z" />
    <glyph glyph-name="fourfifths" unicode="&#x2158;" horiz-adv-x="1160" 
d="M286 618h-22l-168 -217h143zM285 708l132 -8l-63 -295h79l-15 -72h-79l-17 -79l56 -32l-6 -32h-267l7 32l90 32l17 82h-180l-13 66zM618 283l-361 -414l-53 51l368 407l361 414l53 -51zM1063 313h-216l-22 -65q114 -19 172 -58.5t58 -114.5q0 -36 -14.5 -68t-41.5 -56
t-65 -38.5t-85 -14.5q-79 0 -118.5 29t-39.5 71q0 27 16 46.5t42 19.5q23 0 36.5 -10.5t19.5 -26t4 -33.5t-11 -34q22 -14 60 -14q42 0 64 23.5t22 56.5q0 26 -11 46t-35.5 35.5t-63 27t-92.5 20.5l82 265h208l44 47l30 -6z" />
    <glyph glyph-name="onesixth" unicode="&#x2159;" horiz-adv-x="1160" 
d="M389 213l-4 -23h-362l5 23l124 40l80 370l-100 45l5 22l225 27l15 -11l-98 -455zM637 283l-361 -414l-53 51l368 407l361 414l53 -51zM876 228q16 8 33.5 12.5t39.5 4.5q58 0 89.5 -37.5t31.5 -100.5q0 -39 -13 -76t-38.5 -66t-62.5 -47t-85 -18q-74 0 -120 44.5
t-46 128.5q0 68 26.5 129.5t76 111t121 85t161.5 53.5l5 -32q-87 -40 -146 -89.5t-82 -95.5zM847 182q-11 -31 -16.5 -69.5t-5.5 -69.5q0 -56 11 -78t38 -22q18 0 31.5 16t21.5 40t12 53t4 55q0 42 -13.5 61.5t-46.5 19.5q-17 0 -36 -6z" />
    <glyph glyph-name="fivesixths" unicode="&#x215a;" horiz-adv-x="1160" 
d="M407 587h-216l-22 -65q114 -19 172 -58.5t58 -114.5q0 -36 -14.5 -68t-41.5 -56t-65 -38.5t-85 -14.5q-79 0 -118.5 29t-39.5 71q0 27 16 46.5t42 19.5q23 0 36.5 -10.5t19.5 -26t4 -33.5t-11 -34q22 -14 60 -14q42 0 64 23.5t22 56.5q0 26 -11 46t-35.5 35.5t-63 27
t-92.5 20.5l82 265h208l44 47l30 -6zM624 283l-361 -414l-53 51l368 407l361 414l53 -51zM876 228q16 8 33.5 12.5t39.5 4.5q58 0 89.5 -37.5t31.5 -100.5q0 -39 -13 -76t-38.5 -66t-62.5 -47t-85 -18q-74 0 -120 44.5t-46 128.5q0 68 26.5 129.5t76 111t121 85t161.5 53.5
l5 -32q-87 -40 -146 -89.5t-82 -95.5zM847 182q-11 -31 -16.5 -69.5t-5.5 -69.5q0 -56 11 -78t38 -22q18 0 31.5 16t21.5 40t12 53t4 55q0 42 -13.5 61.5t-46.5 19.5q-17 0 -36 -6z" />
    <glyph glyph-name="oneeighth" unicode="&#x215b;" horiz-adv-x="1160" 
d="M389 213l-4 -23h-362l5 23l124 40l80 370l-100 45l5 22l225 27l15 -11l-98 -455zM622 283l-361 -414l-53 51l368 407l361 414l53 -51zM948 211q26 24 37 50.5t11 55.5q0 33 -18 54t-51 21q-30 0 -48 -22t-18 -55q0 -64 87 -104zM843 137q-23 -20 -36 -49t-13 -55
q0 -44 22.5 -67t57.5 -23q30 0 51 22.5t21 60.5q0 29 -25.5 58.5t-77.5 52.5zM980 171q36 -22 56.5 -47.5t20.5 -66.5q0 -32 -13 -60.5t-38 -50t-60 -34t-79 -12.5q-42 0 -74.5 9.5t-55 26t-34 39t-11.5 47.5q0 54 32.5 88.5t86.5 51.5l3 14q-32 21 -48 47t-16 63
q0 30 13 57t36.5 48t57 33t74.5 12q39 0 70 -10t52 -27t32 -39.5t11 -47.5q0 -43 -28.5 -76.5t-85.5 -50.5z" />
    <glyph glyph-name="threeeighths" unicode="&#x215c;" horiz-adv-x="1160" 
d="M153 466q46 14 75.5 27.5t47 27t24 27.5t6.5 30q0 25 -15.5 39t-46.5 14q-34 0 -66 -16t-63 -44l-21 17q26 52 75 87t121 35q65 0 102.5 -29t37.5 -77q0 -44 -35 -77t-115 -51l-1 -15q59 -15 90 -46t31 -79q0 -33 -14.5 -62.5t-41 -52t-64.5 -35.5t-86 -13
q-80 0 -124.5 28.5t-44.5 70.5q0 26 17.5 45t44.5 19q21 0 34.5 -10t19 -25.5t3 -33.5t-11.5 -33q11 -8 26.5 -11.5t39.5 -3.5q35 0 57.5 21.5t22.5 59.5q0 19 -6.5 36t-22 31t-41.5 26t-66 22l11 51v0zM593 283l-361 -414l-53 51l368 407l361 414l53 -51zM948 211
q26 24 37 50.5t11 55.5q0 33 -18 54t-51 21q-30 0 -48 -22t-18 -55q0 -64 87 -104zM843 137q-23 -20 -36 -49t-13 -55q0 -44 22.5 -67t57.5 -23q30 0 51 22.5t21 60.5q0 29 -25.5 58.5t-77.5 52.5zM980 171q36 -22 56.5 -47.5t20.5 -66.5q0 -32 -13 -60.5t-38 -50t-60 -34
t-79 -12.5q-42 0 -74.5 9.5t-55 26t-34 39t-11.5 47.5q0 54 32.5 88.5t86.5 51.5l3 14q-32 21 -48 47t-16 63q0 30 13 57t36.5 48t57 33t74.5 12q39 0 70 -10t52 -27t32 -39.5t11 -47.5q0 -43 -28.5 -76.5t-85.5 -50.5z" />
    <glyph glyph-name="fiveeighths" unicode="&#x215d;" horiz-adv-x="1160" 
d="M407 587h-216l-22 -65q114 -19 172 -58.5t58 -114.5q0 -36 -14.5 -68t-41.5 -56t-65 -38.5t-85 -14.5q-79 0 -118.5 29t-39.5 71q0 27 16 46.5t42 19.5q23 0 36.5 -10.5t19.5 -26t4 -33.5t-11 -34q22 -14 60 -14q42 0 64 23.5t22 56.5q0 26 -11 46t-35.5 35.5t-63 27
t-92.5 20.5l82 265h208l44 47l30 -6zM595 283l-361 -414l-53 51l368 407l361 414l53 -51zM948 211q26 24 37 50.5t11 55.5q0 33 -18 54t-51 21q-30 0 -48 -22t-18 -55q0 -64 87 -104zM843 137q-23 -20 -36 -49t-13 -55q0 -44 22.5 -67t57.5 -23q30 0 51 22.5t21 60.5
q0 29 -25.5 58.5t-77.5 52.5zM980 171q36 -22 56.5 -47.5t20.5 -66.5q0 -32 -13 -60.5t-38 -50t-60 -34t-79 -12.5q-42 0 -74.5 9.5t-55 26t-34 39t-11.5 47.5q0 54 32.5 88.5t86.5 51.5l3 14q-32 21 -48 47t-16 63q0 30 13 57t36.5 48t57 33t74.5 12q39 0 70 -10t52 -27
t32 -39.5t11 -47.5q0 -43 -28.5 -76.5t-85.5 -50.5z" />
    <glyph glyph-name="seveneighths" unicode="&#x215e;" horiz-adv-x="1160" 
d="M216 183h-141l4 21l149 174l167 204h-206l-64 -69l-30 5l60 205l32 6l18 -35h263l17 -63zM558 283l-361 -414l-53 51l368 407l361 414l53 -51zM937 211q26 24 37 50.5t11 55.5q0 33 -18 54t-51 21q-30 0 -48 -22t-18 -55q0 -64 87 -104zM832 137q-23 -20 -36 -49t-13 -55
q0 -44 22.5 -67t57.5 -23q30 0 51 22.5t21 60.5q0 29 -25.5 58.5t-77.5 52.5zM969 171q36 -22 56.5 -47.5t20.5 -66.5q0 -32 -13 -60.5t-38 -50t-60 -34t-79 -12.5q-42 0 -74.5 9.5t-55 26t-34 39t-11.5 47.5q0 54 32.5 88.5t86.5 51.5l3 14q-32 21 -48 47t-16 63
q0 30 13 57t36.5 48t57 33t74.5 12q39 0 70 -10t52 -27t32 -39.5t11 -47.5q0 -43 -28.5 -76.5t-85.5 -50.5z" />
    <glyph glyph-name="zero.sup" unicode="&#x2070;" horiz-adv-x="435" 
d="M35 468q0 33 6 72t18 78t31.5 76t46.5 65.5t61.5 45.5t78.5 17q75 0 117 -46.5t42 -134.5q0 -33 -6 -72t-18 -78.5t-31.5 -76.5t-46.5 -65.5t-62 -45.5t-78 -17q-75 0 -117 46.5t-42 135.5zM272 776q-28 0 -48 -44t-41 -145q-15 -72 -22 -117t-7 -73q0 -39 12.5 -52
t32.5 -13q28 0 48 44t41 145q15 72 22 117t7 73q0 40 -12.5 52.5t-32.5 12.5z" />
    <glyph glyph-name="one.sup" unicode="&#xb9;" horiz-adv-x="435" 
d="M381 325l-4 -23h-362l5 23l124 40l80 370l-100 45l5 22l225 27l15 -11l-98 -455z" />
    <glyph glyph-name="two.sup" unicode="&#xb2;" horiz-adv-x="435" 
d="M10 400q63 38 105.5 66.5t73.5 54.5q28 23 47 42.5t30.5 36.5t16.5 33t5 33q0 29 -17 47.5t-49 18.5t-59 -20t-59 -62l-26 14q60 158 192 158q36 0 63 -10.5t44.5 -28t26.5 -40.5t9 -48q0 -37 -15.5 -69.5t-51 -65.5t-93.5 -69t-143 -78l3 -17l195 5l70 78l20 -5
l-54 -172h-319l-15 98v0z" />
    <glyph glyph-name="three.sup" unicode="&#xb3;" horiz-adv-x="435" 
d="M145 578q46 14 75.5 27.5t47 27t24 27.5t6.5 30q0 25 -15.5 39t-46.5 14q-34 0 -66 -16t-63 -44l-21 17q26 52 75 87t121 35q65 0 102.5 -29t37.5 -77q0 -44 -35 -77t-115 -51l-1 -15q59 -15 90 -46t31 -79q0 -33 -14.5 -62.5t-41 -52t-64.5 -35.5t-86 -13
q-80 0 -124.5 28.5t-44.5 70.5q0 26 17.5 45t44.5 19q21 0 34.5 -10t19 -25.5t3 -33.5t-11.5 -33q11 -8 26.5 -11.5t39.5 -3.5q35 0 57.5 21.5t22.5 59.5q0 19 -6.5 36t-22 31t-41.5 26t-66 22l11 51v0z" />
    <glyph glyph-name="four.sup" unicode="&#x2074;" horiz-adv-x="435" 
d="M278 730h-22l-168 -217h143zM277 820l132 -8l-63 -295h79l-15 -72h-79l-17 -79l56 -32l-6 -32h-267l7 32l90 32l17 82h-180l-13 66z" />
    <glyph glyph-name="five.sup" unicode="&#x2075;" horiz-adv-x="435" 
d="M399 699h-216l-22 -65q114 -19 172 -58.5t58 -114.5q0 -36 -14.5 -68t-41.5 -56t-65 -38.5t-85 -14.5q-79 0 -118.5 29t-39.5 71q0 27 16 46.5t42 19.5q23 0 36.5 -10.5t19.5 -26t4 -33.5t-11 -34q22 -14 60 -14q42 0 64 23.5t22 56.5q0 26 -11 46t-35.5 35.5t-63 27
t-92.5 20.5l82 265h208l44 47l30 -6z" />
    <glyph glyph-name="six.sup" unicode="&#x2076;" horiz-adv-x="435" 
d="M211 614q16 8 33.5 12.5t39.5 4.5q58 0 89.5 -37.5t31.5 -100.5q0 -39 -13 -76t-38.5 -66t-62.5 -47t-85 -18q-74 0 -120 44.5t-46 128.5q0 68 26.5 129.5t76 111t121 85t161.5 53.5l5 -32q-87 -40 -146 -89.5t-82 -95.5zM182 568q-11 -31 -16.5 -69.5t-5.5 -69.5
q0 -56 11 -78t38 -22q18 0 31.5 16t21.5 40t12 53t4 55q0 42 -13.5 61.5t-46.5 19.5q-17 0 -36 -6z" />
    <glyph glyph-name="seven.sup" unicode="&#x2077;" horiz-adv-x="435" 
d="M197 295h-141l4 21l149 174l167 204h-206l-64 -69l-30 5l60 205l32 6l18 -35h263l17 -63z" />
    <glyph glyph-name="eight.sup" unicode="&#x2078;" horiz-adv-x="435" 
d="M283 597q26 24 37 50.5t11 55.5q0 33 -18 54t-51 21q-30 0 -48 -22t-18 -55q0 -64 87 -104zM178 523q-23 -20 -36 -49t-13 -55q0 -44 22.5 -67t57.5 -23q30 0 51 22.5t21 60.5q0 29 -25.5 58.5t-77.5 52.5zM315 557q36 -22 56.5 -47.5t20.5 -66.5q0 -32 -13 -60.5
t-38 -50t-60 -34t-79 -12.5q-42 0 -74.5 9.5t-55 26t-34 39t-11.5 47.5q0 54 32.5 88.5t86.5 51.5l3 14q-32 21 -48 47t-16 63q0 30 13 57t36.5 48t57 33t74.5 12q39 0 70 -10t52 -27t32 -39.5t11 -47.5q0 -43 -28.5 -76.5t-85.5 -50.5z" />
    <glyph glyph-name="nine.sup" unicode="&#x2079;" horiz-adv-x="435" 
d="M259 494q-17 -8 -34.5 -12.5t-38.5 -4.5q-59 0 -90 37t-31 101q0 39 13 76t38.5 66.5t62.5 47.5t85 18q73 0 119 -44.5t46 -128.5q0 -68 -25.5 -128.5t-75 -109.5t-122.5 -84t-167 -52l-5 32q87 35 148.5 83t84.5 96zM288 540q11 31 16.5 69.5t5.5 69.5q0 57 -11 79
t-39 22q-18 0 -31 -16t-21.5 -40.5t-12.5 -53.5t-4 -55q0 -43 13.5 -62t46.5 -19q16 0 37 6z" />
    <glyph glyph-name="zero.inf" unicode="&#x2080;" horiz-adv-x="435" 
d="M-23 -52q0 33 6 72t18 78t31.5 76t46.5 65.5t61.5 45.5t78.5 17q75 0 117 -46.5t42 -134.5q0 -33 -6 -72t-18 -78.5t-31.5 -76.5t-46.5 -65.5t-62 -45.5t-78 -17q-75 0 -117 46.5t-42 135.5zM214 256q-28 0 -48 -44t-41 -145q-15 -72 -22 -117t-7 -73q0 -39 12.5 -52
t32.5 -13q28 0 48 44t41 145q15 72 22 117t7 73q0 40 -12.5 52.5t-32.5 12.5z" />
    <glyph glyph-name="one.inf" unicode="&#x2081;" horiz-adv-x="435" 
d="M323 -195l-4 -23h-362l5 23l124 40l80 370l-100 45l5 22l225 27l15 -11l-98 -455z" />
    <glyph glyph-name="two.inf" unicode="&#x2082;" horiz-adv-x="435" 
d="M-48 -120q63 38 105.5 66.5t73.5 54.5q28 23 47 42.5t30.5 36.5t16.5 33t5 33q0 29 -17 47.5t-49 18.5t-59 -20t-59 -62l-26 14q60 158 192 158q36 0 63 -10.5t44.5 -28t26.5 -40.5t9 -48q0 -37 -15.5 -69.5t-51 -65.5t-93.5 -69t-143 -78l3 -17l195 5l70 78l20 -5
l-54 -172h-319l-15 98v0z" />
    <glyph glyph-name="three.inf" unicode="&#x2083;" horiz-adv-x="435" 
d="M86 58q46 14 75.5 27.5t47 27t24 27.5t6.5 30q0 25 -15.5 39t-46.5 14q-34 0 -66 -16t-63 -44l-21 17q26 52 75 87t121 35q65 0 102.5 -29t37.5 -77q0 -44 -35 -77t-115 -51l-1 -15q59 -15 90 -46t31 -79q0 -33 -14.5 -62.5t-41 -52t-64.5 -35.5t-86 -13
q-80 0 -124.5 28.5t-44.5 70.5q0 26 17.5 45t44.5 19q21 0 34.5 -10t19 -25.5t3 -33.5t-11.5 -33q11 -8 26.5 -11.5t39.5 -3.5q35 0 57.5 21.5t22.5 59.5q0 19 -6.5 36t-22 31t-41.5 26t-66 22l11 51v0z" />
    <glyph glyph-name="four.inf" unicode="&#x2084;" horiz-adv-x="435" 
d="M220 210h-22l-168 -217h143zM219 300l132 -8l-63 -295h79l-15 -72h-79l-17 -79l56 -32l-6 -32h-267l7 32l90 32l17 82h-180l-13 66z" />
    <glyph glyph-name="five.inf" unicode="&#x2085;" horiz-adv-x="435" 
d="M340 179h-216l-22 -65q114 -19 172 -58.5t58 -114.5q0 -36 -14.5 -68t-41.5 -56t-65 -38.5t-85 -14.5q-79 0 -118.5 29t-39.5 71q0 27 16 46.5t42 19.5q23 0 36.5 -10.5t19.5 -26t4 -33.5t-11 -34q22 -14 60 -14q42 0 64 23.5t22 56.5q0 26 -11 46t-35.5 35.5t-63 27
t-92.5 20.5l82 265h208l44 47l30 -6z" />
    <glyph glyph-name="six.inf" unicode="&#x2086;" horiz-adv-x="435" 
d="M153 94q16 8 33.5 12.5t39.5 4.5q58 0 89.5 -37.5t31.5 -100.5q0 -39 -13 -76t-38.5 -66t-62.5 -47t-85 -18q-74 0 -120 44.5t-46 128.5q0 68 26.5 129.5t76 111t121 85t161.5 53.5l5 -32q-87 -40 -146 -89.5t-82 -95.5zM124 48q-11 -31 -16.5 -69.5t-5.5 -69.5
q0 -56 11 -78t38 -22q18 0 31.5 16t21.5 40t12 53t4 55q0 42 -13.5 61.5t-46.5 19.5q-17 0 -36 -6z" />
    <glyph glyph-name="seven.inf" unicode="&#x2087;" horiz-adv-x="435" 
d="M138 -225h-141l4 21l149 174l167 204h-206l-64 -69l-30 5l60 205l32 6l18 -35h263l17 -63z" />
    <glyph glyph-name="eight.inf" unicode="&#x2088;" horiz-adv-x="435" 
d="M225 77q26 24 37 50.5t11 55.5q0 33 -18 54t-51 21q-30 0 -48 -22t-18 -55q0 -64 87 -104zM120 3q-23 -20 -36 -49t-13 -55q0 -44 22.5 -67t57.5 -23q30 0 51 22.5t21 60.5q0 29 -25.5 58.5t-77.5 52.5zM257 37q36 -22 56.5 -47.5t20.5 -66.5q0 -32 -13 -60.5t-38 -50
t-60 -34t-79 -12.5q-42 0 -74.5 9.5t-55 26t-34 39t-11.5 47.5q0 54 32.5 88.5t86.5 51.5l3 14q-32 21 -48 47t-16 63q0 30 13 57t36.5 48t57 33t74.5 12q39 0 70 -10t52 -27t32 -39.5t11 -47.5q0 -43 -28.5 -76.5t-85.5 -50.5z" />
    <glyph glyph-name="nine.inf" unicode="&#x2089;" horiz-adv-x="435" 
d="M201 -26q-17 -8 -34.5 -12.5t-38.5 -4.5q-59 0 -90 37t-31 101q0 39 13 76t38.5 66.5t62.5 47.5t85 18q73 0 119 -44.5t46 -128.5q0 -68 -25.5 -128.5t-75 -109.5t-122.5 -84t-167 -52l-5 32q87 35 148.5 83t84.5 96zM230 20q11 31 16.5 69.5t5.5 69.5q0 57 -11 79
t-39 22q-18 0 -31 -16t-21.5 -40.5t-12.5 -53.5t-4 -55q0 -43 13.5 -62t46.5 -19q16 0 37 6z" />
    <glyph glyph-name="zero.tab" horiz-adv-x="580" 
d="M232 -17q-100 0 -155.5 63.5t-55.5 181.5q0 45 8 98t25 106.5t43 103t62.5 88t83 61.5t104.5 23q100 0 155.5 -63t55.5 -181q0 -45 -8 -98.5t-25 -107t-43 -103t-62.5 -88t-83 -61.5t-104.5 -23zM237 40q26 0 49 31.5t41.5 80t33 108t24 115t14.5 100.5t5 66
q0 64 -14 87.5t-48 23.5q-26 0 -49 -31.5t-41.5 -80t-33 -108t-24 -115t-14.5 -100.5t-5 -66q0 -32 3.5 -53.5t11 -34.5t19 -18t28.5 -5z" />
    <glyph glyph-name="one.tab" horiz-adv-x="580" 
d="M-4 31l177 53l105 492l-134 61l7 30l290 36l20 -14l-129 -607l159 -51l-7 -31h-495z" />
    <glyph glyph-name="two.tab" horiz-adv-x="580" 
d="M-14 98q78 54 138.5 99.5t102.5 81.5q74 64 105.5 114.5t31.5 102.5q0 46 -25 74t-70 28q-44 0 -81 -29.5t-69 -82.5l-38 17q35 97 99.5 151t155.5 54q45 0 79.5 -15t58.5 -40t36.5 -57.5t12.5 -68.5q0 -51 -20.5 -96.5t-68 -92t-126 -97t-194.5 -111.5l1 -12l271 7
l90 109l26 -6l-73 -228h-431z" />
    <glyph glyph-name="three.tab" horiz-adv-x="580" 
d="M220 -17q-53 0 -95 10.5t-70.5 28.5t-43.5 42t-15 52q0 35 23 60.5t60 25.5q28 0 46 -13.5t25 -34t4 -44.5t-16 -45q14 -9 36.5 -15t47.5 -6q55 0 87 29.5t32 91.5q0 27 -10.5 52t-35 45t-64.5 36t-98 25l9 43q76 19 123 38.5t73.5 40t36 41t9.5 41.5q0 36 -23.5 57
t-68.5 21q-48 0 -91.5 -22.5t-84.5 -61.5l-30 25q19 35 44.5 64.5t58.5 51.5t72.5 34t87.5 12q88 0 138 -40t50 -103q0 -30 -10.5 -57t-33.5 -49.5t-61 -40.5t-93 -29v-14q75 -24 115.5 -66.5t40.5 -112.5q0 -42 -18 -80.5t-53 -68t-86 -47t-118 -17.5z" />
    <glyph glyph-name="four.tab" horiz-adv-x="580" 
d="M131 38l118 43l24 109h-257l-14 82l369 432l160 -11l-87 -409h97l-20 -94h-97l-24 -110l79 -43l-8 -37h-348zM299 284l60 289h-21l-240 -289h201z" />
    <glyph glyph-name="five.tab" horiz-adv-x="580" 
d="M221 -17q-106 0 -159.5 38t-53.5 95q0 35 21.5 61.5t57.5 26.5q30 0 48.5 -13.5t26 -34.5t5 -45.5t-13.5 -46.5q28 -19 80 -19q28 0 50.5 9t38 24.5t23.5 36t8 44.5q0 36 -14.5 64t-47 49t-84 37t-125.5 29l108 354h288l55 59l34 -9l-49 -187h-304l-30 -97
q154 -26 234.5 -80t80.5 -155q0 -49 -19.5 -92.5t-56 -76.5t-88 -52t-114.5 -19z" />
    <glyph glyph-name="six.tab" horiz-adv-x="580" 
d="M256 -17q-50 0 -91 15t-70.5 44.5t-46 72t-16.5 98.5q0 102 41 188.5t111 152t163.5 107.5t197.5 55l7 -45q-54 -19 -98.5 -43.5t-81.5 -54.5t-68 -66.5t-58 -78.5l7 -6q25 12 51 20t57 8q78 0 120.5 -51t42.5 -141q0 -50 -18 -99.5t-52 -88.5t-84 -63t-114 -24zM257 41
q27 0 46.5 21.5t33 54t20 71.5t6.5 74q0 58 -21 85t-69 27q-28 0 -53 -6q-17 -44 -24.5 -92t-7.5 -95q0 -77 20 -108.5t49 -31.5z" />
    <glyph glyph-name="seven.tab" horiz-adv-x="580" 
d="M265 259l232 293h-293l-86 -95l-37 9l78 259l39 9l21 -42h370l20 -75l-396 -634h-174z" />
    <glyph glyph-name="eight.tab" horiz-adv-x="580" 
d="M353 402q42 35 59.5 71t17.5 78q0 48 -25.5 77t-69.5 29q-38 0 -63.5 -27t-25.5 -69q0 -27 8.5 -49t23 -41t34 -36t41.5 -33zM229 314q-42 -34 -61.5 -75t-19.5 -92t30 -82t75 -31q44 0 70.5 29t26.5 80q0 29 -9.5 52.5t-26 43.5t-38.5 38.5t-47 36.5zM399 368
q22 -17 41 -35t33.5 -39.5t23 -47t8.5 -56.5q0 -41 -18 -78.5t-51 -66t-79.5 -45.5t-103.5 -17q-52 0 -94.5 12.5t-73 35t-47.5 53t-17 67.5q0 69 42 117.5t129 74.5q-40 31 -67.5 68t-27.5 90q0 41 16.5 78.5t47 66t74.5 45.5t100 17q51 0 91 -13.5t67.5 -36t42 -52
t14.5 -61.5q0 -69 -38 -111.5t-113 -65.5z" />
    <glyph glyph-name="nine.tab" horiz-adv-x="580" 
d="M13 14q59 21 106 46.5t85.5 56t70 67t59.5 78.5l-8 7q-25 -13 -51 -20.5t-56 -7.5q-78 0 -120.5 50.5t-42.5 141.5q0 51 18 100t52 88t84 63t114 24q49 0 90.5 -15t71 -44t46 -72t16.5 -98q0 -103 -41.5 -189.5t-113 -152.5t-167.5 -109t-205 -58zM307 316q12 0 25.5 2
t26.5 5q18 44 25.5 92.5t7.5 95.5q0 39 -5.5 65.5t-15 43t-22 24t-26.5 7.5q-27 0 -46.5 -21.5t-33 -54.5t-20 -72t-6.5 -74q0 -58 21 -85.5t69 -27.5z" />
    <glyph glyph-name="period.tab" horiz-adv-x="290" 
d="M88 -18q-20 0 -37.5 7.5t-31 21t-21 31t-7.5 37.5t7.5 37.5t21 31t31 21t37.5 7.5t37.5 -7.5t31 -21t21 -31t7.5 -37.5t-7.5 -37.5t-21 -31t-31 -21t-37.5 -7.5z" />
    <glyph glyph-name="comma.tab" horiz-adv-x="290" 
d="M-73 -166q73 46 107.5 84t48.5 72l-7 10l-4 -1q-3 -3 -13 -3q-27 0 -47.5 18.5t-20.5 55.5q0 21 8 40.5t21.5 34t31.5 23t39 8.5q42 0 68 -28.5t26 -81.5q0 -80 -62 -151t-177 -114z" />
    <glyph glyph-name="colon.tab" horiz-adv-x="290" 
d="M143 284q-20 0 -37 7.5t-30 20.5t-20.5 30t-7.5 37q0 19 7.5 36.5t20.5 30.5t30 20.5t37 7.5q19 0 36.5 -7.5t30.5 -20.5t20.5 -30.5t7.5 -36.5q0 -20 -7.5 -37t-20.5 -30t-30.5 -20.5t-36.5 -7.5zM89 -18q-20 0 -37.5 7.5t-30 20.5t-20 30t-7.5 37q0 19 7.5 36.5
t20 30.5t30 20.5t37.5 7.5q19 0 36.5 -7.5t30 -20.5t20 -30.5t7.5 -36.5q0 -20 -7.5 -37t-20 -30t-30 -20.5t-36.5 -7.5z" />
    <glyph glyph-name="semicolon.tab" horiz-adv-x="290" 
d="M143 284q-20 0 -37 7.5t-30 20.5t-20.5 30t-7.5 37q0 19 7.5 36.5t20.5 30.5t30 20.5t37 7.5q19 0 36.5 -7.5t30.5 -20.5t20.5 -30.5t7.5 -36.5q0 -20 -7.5 -37t-20.5 -30t-30.5 -20.5t-36.5 -7.5zM-73 -166q74 46 108.5 84t48.5 72l-8 10l-3 -1q-2 -2 -6 -2.5t-7 -0.5
q-28 0 -48.5 18.5t-20.5 55.5q0 21 8 40.5t21.5 34t31.5 23t39 8.5q42 0 68.5 -28.5t26.5 -81.5q0 -80 -62.5 -151t-176.5 -114z" />
    <glyph glyph-name="twodotleader.tab" horiz-adv-x="580" 
d="M90 176q20 0 37.5 -7.5t31 -21t21 -31t7.5 -37.5t-7.5 -37.5t-21 -31t-31 -21t-37.5 -7.5t-37.5 7.5t-31 21t-21 31t-7.5 37.5t7.5 37.5t21 31t31 21t37.5 7.5zM376 176q20 0 37.5 -7.5t31 -21t21 -31t7.5 -37.5t-7.5 -37.5t-21 -31t-31 -21t-37.5 -7.5t-37.5 7.5t-31 21
t-21 31t-7.5 37.5t7.5 37.5t21 31t31 21t37.5 7.5z" />
    <glyph glyph-name="periodcentered.tab" horiz-adv-x="290" 
d="M145 249q-20 0 -37.5 7.5t-31 20.5t-21 30.5t-7.5 37.5t7.5 37.5t21 31t31 21t37.5 7.5t37.5 -7.5t31 -21t21 -31t7.5 -37.5t-7.5 -37.5t-21 -30.5t-31 -20.5t-37.5 -7.5z" />
    <glyph glyph-name="slash.tab" horiz-adv-x="580" 
d="M-75 -202l302 504l299 513l64 -30l-303 -505l-298 -512z" />
    <glyph glyph-name="bar.tab" horiz-adv-x="290" 
d="M-23 -259l114 519l107 517l76 -12l-115 -519l-106 -517z" />
    <glyph glyph-name="brokenbar.tab" horiz-adv-x="290" 
d="M102 325l52 227l44 225l76 -12l-52 -227l-44 -225zM-23 -259l52 227l43 225l76 -12l-52 -227l-43 -225z" />
    <glyph glyph-name="underscore.tab" horiz-adv-x="580" 
d="M510 0h-576v64h576v-64z" />
    <glyph glyph-name="dollar.tab" horiz-adv-x="580" 
d="M143 -127l28 120q-46 7 -87 20.5t-79 31.5l33 207l42 2q17 -88 43.5 -134.5t67.5 -63.5l54 229q-30 15 -58.5 32t-51 40t-36.5 53t-14 71q0 47 18.5 88t52.5 71.5t82.5 48.5t108.5 19l24 100l68 -8l-23 -97q45 -5 82 -16t66 -25l-34 -184l-42 -5q-20 74 -41 111.5
t-52 51.5l-53 -217q31 -15 62 -32.5t56 -40.5t40.5 -54t15.5 -74q0 -57 -20.5 -101.5t-57.5 -74.5t-88.5 -44.5t-113.5 -12.5l-28 -118zM339 649q-55 4 -88.5 -23.5t-33.5 -84.5q0 -32 20.5 -54.5t52.5 -40.5zM245 44q67 -5 103.5 26.5t36.5 83.5q0 37 -25.5 60.5
t-62.5 43.5z" />
    <glyph glyph-name="sterling.tab" horiz-adv-x="580" 
d="M477 387l-15 -72h-141q-2 -27 -9 -52t-22.5 -47.5t-40 -42t-61.5 -36.5l1 -13q58 6 101 1.5t81 -4.5q23 0 40 5t30 17t24 31t23 47l43 -2q-8 -56 -20.5 -99.5t-32.5 -74t-49 -46.5t-71 -16q-57 0 -103.5 22t-96.5 70q-26 -44 -60.5 -67.5t-66.5 -23.5q-35 0 -56 19
t-21 49q0 48 42.5 72t130.5 17q23 36 32.5 67t9.5 62q0 22 -3 45h-133l15 72h105q-3 25 -3 55q0 56 20.5 104.5t58 84t90.5 56t117 20.5q39 0 67 -8.5t46 -22t26 -31t8 -35.5q0 -31 -21 -54.5t-56 -23.5q-42 0 -71 31.5t-45 90.5q-79 -29 -79 -153q0 -29 3.5 -57t5.5 -57
h157z" />
    <glyph glyph-name="Euro.tab" horiz-adv-x="580" 
d="M326 -16q-47 0 -87.5 14.5t-71 45t-48.5 77t-20 110.5h-87l14 64h75q2 22 6 42.5t9 40.5h-78l14 63h84q24 60 61.5 109t82.5 84.5t96 55t102 19.5q75 0 109.5 -28.5t34.5 -66.5q0 -32 -21 -52.5t-53 -20.5q-37 0 -66.5 28.5t-38.5 91.5q-44 -10 -89 -68t-73 -152h207
l-14 -63h-207q-3 -20 -5 -40.5t-3 -42.5h203l-14 -64h-189q5 -75 39 -106.5t103 -31.5q26 0 53 7.5t54 19.5l20 -26q-41 -51 -91 -80.5t-111 -29.5z" />
    <glyph glyph-name="yen.tab" horiz-adv-x="580" 
d="M51 40l109 33l18 87h-166l13 59h165l19 89h-166l13 59h145l-89 253l-77 35l9 37h333l-7 -32l-79 -29l65 -223l154 216l-62 36l7 32h235l-9 -37l-81 -38l-203 -250h153l-12 -59h-166l-19 -89h166l-13 -59h-166l-17 -87l94 -33l-8 -40h-365z" />
    <glyph glyph-name="cent.tab" horiz-adv-x="580" 
d="M233 82q-88 11 -140 64.5t-52 141.5q0 61 23 116t62.5 97t93 69.5t114.5 35.5l18 99l56 -3l-19 -93q83 -3 127 -37t44 -81q0 -35 -21 -56t-50 -21q-48 0 -69 38.5t-16 100.5q-8 2 -27 2l-44 -209l-30 -171q7 -1 12.5 -1h12.5q38 0 72.5 12t80.5 43l19 -20
q-36 -60 -89.5 -94t-124.5 -36l-20 -116l-57 3zM324 549q-32 -14 -55.5 -41.5t-40 -61.5t-24.5 -72t-8 -73q0 -86 59 -113l35 169z" />
    <glyph glyph-name="florin.tab" horiz-adv-x="580" 
d="M1 -204q-50 0 -80.5 21.5t-30.5 56.5q0 29 19.5 50.5t54.5 21.5q31 0 63 -20.5t51 -59.5q7 7 13.5 19t14 32.5t16 52t17.5 76.5l58 288h-114l10 39l121 42l2 9q13 53 30 94.5t38.5 73.5t47.5 56.5t58 44.5q28 17 62 29.5t71 12.5q54 0 81.5 -21t27.5 -56q0 -30 -21 -52.5
t-56 -22.5q-29 0 -60 19t-55 63q-11 -9 -20 -22.5t-17.5 -34.5t-16 -51t-15.5 -72l-17 -83h149l-17 -68h-145l-40 -194q-22 -107 -59.5 -177.5t-99.5 -117.5q-34 -26 -68.5 -37.5t-72.5 -11.5z" />
    <glyph glyph-name="numbersign.tab" horiz-adv-x="580" 
d="M63 37l43 143h-85v67h105l32 107l22 77h-109v67h128l50 175l71 -19l-47 -156h127l50 175l71 -19l-47 -156h88v-67h-108l-28 -91l-26 -93h111v-67h-130l-46 -163l-71 20l43 143h-127l-46 -163zM327 247l32 107l22 77h-128l-28 -91l-26 -93h128z" />
    <glyph glyph-name="paragraph.tab" horiz-adv-x="580" 
d="M649 651l-85 -43l-150 -705h-73l153 716h-53l-153 -716h-72l64 297q-54 6 -97.5 20t-74 38.5t-47 61t-16.5 86.5q0 46 17.5 96.5t60.5 92.5t115 69.5t181 27.5h239zM368 618q-50 -3 -82.5 -27.5t-51 -58.5t-25.5 -70.5t-7 -62.5q0 -54 25 -83.5t68 -38.5z" />
    <glyph glyph-name="section.tab" horiz-adv-x="580" 
d="M190 -104q-47 0 -83.5 10t-61.5 27.5t-38.5 41t-13.5 50.5q0 34 21 55.5t50 21.5q20 0 36.5 -9t27.5 -27t15.5 -44.5t-0.5 -61.5q9 -5 26 -9t34 -4q45 0 81.5 23t59.5 66q-65 36 -118 78t-91 90t-58.5 103t-20.5 118q0 65 23.5 121.5t66 98.5t102 66t131.5 24
q46 0 82.5 -10t62 -27.5t39 -41t13.5 -49.5q0 -35 -21 -56.5t-50 -21.5q-20 0 -36.5 9t-27.5 27t-15.5 45t0.5 62q-9 5 -26 8.5t-34 3.5q-45 0 -81.5 -23t-59.5 -66q65 -36 118 -77.5t91 -90t58.5 -103.5t20.5 -118q0 -65 -23.5 -121.5t-66 -98.5t-102 -66t-131.5 -24z
M362 78q16 47 16 108q0 48 -8.5 92.5t-29 89t-53.5 90t-81 95.5q-15 -47 -15 -108q0 -48 8.5 -92.5t29 -89t53 -90t80.5 -95.5z" />
    <glyph glyph-name="degree.tab" horiz-adv-x="580" 
d="M290 370q-33 0 -61 9.5t-48.5 27.5t-32.5 44.5t-12 61.5q0 42 17 82t47 71t71 50t90 19q32 0 60 -9.5t48.5 -28t32 -45.5t11.5 -61q0 -42 -16.5 -82t-46 -70.5t-70.5 -49.5t-90 -19zM306 416q23 0 40.5 21.5t29 52.5t17 65t5.5 59q0 35 -13.5 55t-39.5 20
q-24 0 -41.5 -21.5t-29 -52.5t-17.5 -65.5t-6 -59.5q0 -35 14.5 -54.5t40.5 -19.5z" />
    <glyph glyph-name="percent.tab" horiz-adv-x="580" 
d="M162 386q-58 0 -92 34t-34 95q0 37 13.5 72t38 61.5t58.5 42.5t74 16q57 0 91.5 -34t34.5 -95q0 -38 -14 -72.5t-38.5 -61t-58 -42.5t-73.5 -16zM-50 17l321 344l307 350l49 -41l-318 -343l-310 -350zM362 -17q-57 0 -91.5 34t-34.5 95q0 37 14 72t38.5 62t58 43t73.5 16
q58 0 92.5 -34t34.5 -95q0 -38 -14 -72.5t-38.5 -61.5t-58.5 -43t-74 -16zM174 430q18 0 32 18.5t23.5 44.5t14 55.5t4.5 52.5q0 63 -40 63q-18 0 -32 -18.5t-23.5 -45t-14.5 -56.5t-5 -52q0 -62 41 -62zM374 27q19 0 33 18.5t23.5 45t14 56t4.5 52.5q0 62 -40 62
q-19 0 -33 -18.5t-23.5 -45t-14 -56.5t-4.5 -52q0 -62 40 -62z" />
    <glyph glyph-name="quotedbl.tab" horiz-adv-x="580" 
d="M344 353l-36 20l57 150q22 57 38 96t30 62q34 54 75 54q31 0 53.5 -17.5t22.5 -45.5q0 -17 -4.5 -32.5t-19.5 -38t-42 -54.5t-72 -81zM105 353l-37 20l47 150q17 57 31 96t27 62q29 54 72 54q32 0 56 -19t24 -51q0 -15 -4 -29.5t-17 -35.5t-37.5 -53t-66.5 -81z" />
    <glyph glyph-name="quotesingle.tab" horiz-adv-x="290" 
d="M103 353l-37 20l47 150q17 57 31 96t27 62q29 54 72 54q32 0 56 -19t24 -51q0 -15 -4 -29.5t-17 -35.5t-37.5 -53t-66.5 -81z" />
    <glyph glyph-name="plus.tab" horiz-adv-x="580" 
d="M319 311l-42 -200h-73l42 200h-192l15 68h192l42 196h73l-42 -196h191l-15 -68h-191z" />
    <glyph glyph-name="minus.tab" horiz-adv-x="580" 
d="M60 308l15 75h446l-15 -75h-446z" />
    <glyph glyph-name="divide.tab" horiz-adv-x="580" 
d="M54 312l14 66h456l-14 -66h-456zM325 441q-31 0 -52 21.5t-21 52.5t21 52t52 21t52.5 -21t21.5 -52t-21.5 -52.5t-52.5 -21.5zM253 102q-31 0 -52.5 21t-21.5 52t21.5 52.5t52.5 21.5t52 -21.5t21 -52.5t-21 -52t-52 -21z" />
    <glyph glyph-name="equal.tab" horiz-adv-x="580" 
d="M101 488h439l-15 -73h-439zM55 273h439l-15 -72h-439z" />
    <glyph glyph-name="multiply.tab" horiz-adv-x="580" 
d="M457 170l-56 -42l-120 167l-185 -149l-42 51l190 151l-121 168l56 41l120 -166l185 148l42 -51l-190 -150z" />
    <glyph glyph-name="less.tab" horiz-adv-x="580" 
d="M71 319l11 54l433 203l2 -78l-357 -157l290 -161l-32 -65z" />
    <glyph glyph-name="greater.tab" horiz-adv-x="580" 
d="M62 193l357 157l-290 161l31 65l348 -204l-11 -54l-434 -203z" />
    <glyph glyph-name="plusminus.tab" horiz-adv-x="580" 
d="M340 422l-35 -162h-68l35 162h-160l14 67h160l33 159h68l-33 -159h160l-14 -67h-160zM35 112l14 67h410l-14 -67h-410z" />
    <glyph glyph-name="box.1" unicode="&#xe000;" horiz-adv-x="834" 
d="M80 673h673v-673h-673v673z" />
    <glyph glyph-name="box.2" unicode="&#xe001;" 
d="M80 673h673v-673h-673v673zM704 44v585h-575v-585h575z" />
    <glyph glyph-name="box.3" unicode="&#xe002;" 
d="M80 673h673v-673h-673v673zM704 44v585h-575v-585h575zM248 131l-37 37l173 169l-173 168l37 37l169 -172l168 172l37 -37l-172 -168l172 -169l-37 -37l-168 173z" />
    <glyph glyph-name="box.4" unicode="&#xe003;" 
d="M80 673h673v-673h-673v673zM704 44v585h-575v-585h575zM272 190l2 147l-2 146l145 -1l144 1l-1 -146l1 -147l-144 1z" />
    <glyph glyph-name="dot.1" unicode="&#xe004;" 
d="M417 691q73 0 137.5 -28t112.5 -76t76 -112.5t28 -137.5t-28 -137.5t-76 -112.5t-112.5 -76t-137.5 -28t-137.5 28t-113 76t-76.5 112.5t-28 137.5t28 137.5t76.5 112.5t113 76t137.5 28z" />
    <glyph glyph-name="dot.2" unicode="&#xe005;" 
d="M417 691q76 0 140.5 -28t112 -76t74.5 -112.5t27 -137.5t-27 -137.5t-74.5 -112.5t-112 -76t-140.5 -28t-141 28t-112.5 76t-74.5 112.5t-27 137.5t27 137.5t74.5 112.5t112.5 76t141 28zM417 647q-67 0 -123 -24.5t-96.5 -67t-63 -99t-22.5 -119.5q0 -64 22.5 -120
t63 -98t96.5 -66.5t123 -24.5q66 0 122 24.5t96.5 66.5t63 98t22.5 120q0 63 -22.5 119.5t-63 99t-96.5 67t-122 24.5z" />
    <glyph glyph-name="dot.3" unicode="&#xe006;" 
d="M417 691q76 0 140.5 -28t112 -76t74.5 -112.5t27 -137.5t-27 -137.5t-74.5 -112.5t-112 -76t-140.5 -28t-141 28t-112.5 76t-74.5 112.5t-27 137.5t27 137.5t74.5 112.5t112.5 76t141 28zM417 647q-67 0 -123 -24.5t-96.5 -67t-63 -99t-22.5 -119.5q0 -64 22.5 -120
t63 -98t96.5 -66.5t123 -24.5q66 0 122 24.5t96.5 66.5t63 98t22.5 120q0 63 -22.5 119.5t-63 99t-96.5 67t-122 24.5zM275 157l-38 38l147 142l-147 142l38 37l142 -146l141 146l38 -37l-146 -142l146 -142l-38 -38l-141 147z" />
    <glyph glyph-name="dot.4" unicode="&#xe007;" 
d="M417 691q76 0 140.5 -28t112 -76t74.5 -112.5t27 -137.5t-27 -137.5t-74.5 -112.5t-112 -76t-140.5 -28t-141 28t-112.5 76t-74.5 112.5t-27 137.5t27 137.5t74.5 112.5t112.5 76t141 28zM417 647q-67 0 -123 -24.5t-96.5 -67t-63 -99t-22.5 -119.5q0 -64 22.5 -120
t63 -98t96.5 -66.5t123 -24.5q66 0 122 24.5t96.5 66.5t63 98t22.5 120q0 63 -22.5 119.5t-63 99t-96.5 67t-122 24.5zM417 492q33 0 61 -12.5t48.5 -33.5t31.5 -49.5t11 -59.5q0 -32 -11 -60t-31.5 -49t-48.5 -33t-61 -12t-61 12t-48.5 33t-32 49t-11.5 60q0 31 11.5 59.5
t32 49.5t48.5 33.5t61 12.5z" />
    <glyph glyph-name="club" unicode="&#x2663;" horiz-adv-x="712" 
d="M316 389q-44 26 -73 64t-29 87q0 30 11.5 56t31 45.5t45 31t54.5 11.5t54.5 -11.5t45 -31t31 -45.5t11.5 -56q0 -49 -29 -87t-73 -64l22 -28l22 20q22 20 46.5 32t54.5 12q28 0 52.5 -10.5t42.5 -29t28.5 -43.5t10.5 -54q0 -30 -10 -55.5t-28 -44t-42.5 -29t-53.5 -10.5
q-52 0 -88.5 32.5t-50.5 96.5l-2 10l-26 -3l5 -51q8 -72 20.5 -126t35.5 -96v-12h-158v12q23 42 35.5 96t20.5 126l5 51l-26 3l-2 -10q-15 -66 -50.5 -97.5t-88.5 -31.5q-29 0 -53.5 10.5t-42.5 29t-28 44t-10 55.5q0 29 10 54t28 43.5t42.5 29t53.5 10.5q30 0 54.5 -12
t46.5 -32l22 -20l22 28v0z" />
    <glyph glyph-name="spade" unicode="&#x2660;" horiz-adv-x="712" 
d="M321 304l-6 -23q-16 -66 -46.5 -96t-78.5 -30q-53 0 -87.5 37t-34.5 97q0 47 20 96.5t57 100.5t89.5 105t117.5 110h8q65 -56 117.5 -110t89.5 -105t57 -100.5t20 -96.5q0 -60 -34 -97t-88 -37q-95 0 -125 126l-6 23l-17 -1l6 -87q3 -36 8 -64.5t11.5 -52.5t15 -45
t20.5 -42v-12h-158v12q12 21 20.5 42t15.5 45t11.5 52.5t7.5 64.5l6 87z" />
    <glyph glyph-name="diamond" unicode="&#x2666;" horiz-adv-x="712" 
d="M360 -21h-8l-283 355v11l283 356h8l283 -356v-11z" />
    <glyph glyph-name="heart" unicode="&#x2665;" horiz-adv-x="712" 
d="M654 499q0 -50 -22.5 -108.5t-62.5 -123.5t-93.5 -137.5t-115.5 -150.5h-8q-62 78 -115.5 150.5t-93.5 137.5t-62.5 123.5t-22.5 108.5q0 41 10.5 75t29 58t44 37.5t55.5 13.5q66 0 102.5 -46t49.5 -130h14q13 84 50 130t103 46q30 0 55.5 -13.5t43.5 -37.5t28.5 -58
t10.5 -75z" />
    <glyph glyph-name="star.1" unicode="&#xe008;" 
d="M787 453l8 -18l-231 -152l100 -264l-16 -12l-231 178l-231 -178l-17 12l100 264l-231 152l8 18l279 -7l82 266h19l82 -266z" />
    <glyph glyph-name="star.1_L" unicode="&#xe009;" horiz-adv-x="503" 
d="M186 7l-17 12l100 264l-231 152l8 18l279 -7l74 266h18v-527z" />
    <glyph glyph-name="fist.1_W" unicode="&#xe00a;" horiz-adv-x="1658" 
d="M1247 56l-36 164l-166 -91l-215 -34l-31 -25l-48 -18l-55 29l-2 36l12 33l-11 8l-23 -25l-41 -22l-49 38v39l12 32l-11 10l-32 -26l-41 -16l-48 33l17 95l115 97l-6 9l-362 -30l-82 5l-38 45l4 63l527 70h15l311 -35l206 -25l62 -14l18 84h270v-529h-272z" />
    <glyph glyph-name="fist.1_E" unicode="&#xe00b;" horiz-adv-x="1658" 
d="M139 585h270l19 -84l61 14l206 25l311 35h16l526 -70l4 -63l-38 -45l-82 -5l-362 30l-6 -9l115 -97l17 -95l-48 -33l-41 16l-32 26l-11 -10l13 -32v-39l-50 -38l-41 22l-23 25l-11 -8l12 -33l-2 -36l-55 -29l-48 18l-31 25l-215 34l-166 91l-36 -164h-272v529z" />
    <glyph glyph-name="fist.2_W" unicode="&#xe00c;" horiz-adv-x="1658" 
d="M1179 515v83l373 5v-612l-373 13v201l-166 -98l-150 5l6 -38l-51 -37l-93 -4l-83 54l-8 119l188 89l4 -16l-151 -96l4 -76l33 -24l24 3l4 31l65 38h199l179 94v224l-218 35l-306 54l-301 -42l-251 -33l-2 -26l30 -35l542 45l2 -16l-199 -107l-3 -76l41 -42l-11 -9l-41 13
l-32 40l3 98l172 66l-3 10l-281 -45l-212 -11l-50 59l4 66l312 45l274 40zM613 133l-35 6l-44 37l6 117l214 93l4 -15l-180 -105l-3 -81l47 -43zM1501 557h-272v-511l272 -7v518z" />
    <glyph glyph-name="fist.2_E" unicode="&#xe00d;" horiz-adv-x="1658" 
d="M429 46v511h-272v-518zM1083 185l-3 81l-179 105l3 15l214 -93l6 -117l-44 -37l-35 -6l-9 9zM1279 562l312 -45l4 -66l-50 -59l-212 11l-281 45l-3 -10l172 -66l3 -98l-32 -40l-41 -13l-11 9l41 42l-3 76l-199 107l2 16l542 -45l30 35l-2 26l-251 33l-300 42l-307 -54
l-218 -35v-224l179 -94h199l65 -38l5 -31l23 -3l33 24l4 76l-151 96l4 16l188 -89l-8 -119l-82 -54l-94 4l-51 37l6 38l-150 -5l-166 98v-201l-373 -13v612l373 -5v-83l526 87z" />
    <glyph glyph-name="wedge.1_N" unicode="&#xe00e;" horiz-adv-x="580" 
d="M302 712l63 -219l148 -468v-25h-446v25l148 468l63 219h24z" />
    <glyph glyph-name="wedge.1_S" unicode="&#xe00f;" horiz-adv-x="580" 
d="M215 180l-148 468v25h446v-25l-148 -468l-63 -219h-24z" />
    <glyph glyph-name="wedge.1_W" unicode="&#xe010;" 
d="M692 602h15v-535h-15l-624 263v9z" />
    <glyph glyph-name="wedge.1_E" unicode="&#xe011;" 
d="M765 330l-623 -263h-16v535h16l623 -263v-9z" />
    <glyph glyph-name="wedge.2_W" unicode="&#xe012;" 
d="M689 602h18v-535h-18l-621 261v13zM661 546h-6l-83 -38l-327 -135l-101 -39l101 -38l327 -135l83 -38h6v423z" />
    <glyph glyph-name="wedge.2_E" unicode="&#xe013;" 
d="M765 328l-621 -261h-18v535h18l621 -261v-13zM178 123l83 38l327 135l101 38l-101 39l-327 135l-83 38h-6v-423h6z" />
    <glyph glyph-name="wedge.3_W" unicode="&#xe014;" horiz-adv-x="668" 
d="M510 752h20v-836h-20l-412 414v9z" />
    <glyph glyph-name="wedge.3_E" unicode="&#xe015;" horiz-adv-x="668" 
d="M571 330l-413 -414h-20v836h20l413 -413v-9z" />
    <glyph glyph-name="wedge.4_W" unicode="&#xe016;" horiz-adv-x="668" 
d="M491 752h39v-836h-39l-412 412v13zM485 685h-8l-45 -51l-298 -300l298 -299l45 -52h8v702z" />
    <glyph glyph-name="wedge.4_E" unicode="&#xe017;" horiz-adv-x="668" 
d="M589 328l-412 -412h-39v836h39l412 -411v-13zM191 -17l45 52l298 299l-298 300l-45 51h-8v-702h8z" />
    <glyph glyph-name="chevron.1_W" unicode="&#xe018;" horiz-adv-x="668" 
d="M518 -59v-7h-67l-330 398v9l330 398h67v-6l-326 -397z" />
    <glyph glyph-name="chevron.1_E" unicode="&#xe019;" horiz-adv-x="668" 
d="M150 733v6h67l330 -398v-9l-330 -398h-67v7l326 395z" />
    <glyph glyph-name="chevron.2_W" unicode="&#xe01a;" horiz-adv-x="668" 
d="M569 -59v-7h-184l-300 402v2l300 401h184v-6l-291 -397z" />
    <glyph glyph-name="chevron.2_E" unicode="&#xe01b;" horiz-adv-x="668" 
d="M99 733v6h184l300 -401v-2l-300 -402h-184v7l291 395z" />
    <glyph glyph-name="arrow.1_N" unicode="&#xe01c;" 
d="M446 530v-530h-59v530l3 75l-37 -47l-214 -227h-6v74l279 297h9l279 -297v-74h-6l-214 230l-37 47z" />
    <glyph glyph-name="arrow.1_W" unicode="&#xe01d;" 
d="M245 363h499v-53h-499l-75 4l47 -38l229 -217v-6h-76l-297 279v9l297 279h76v-6l-232 -217l-47 -37z" />
    <glyph glyph-name="arrow.1_S" unicode="&#xe01e;" 
d="M387 143v530h59v-530l-3 -75l37 48l214 226h6v-74l-279 -297h-9l-279 297v74h6l214 -230l37 -47z" />
    <glyph glyph-name="arrow.1_E" unicode="&#xe01f;" 
d="M588 310h-499v53h499l75 -3l-47 37l-229 217v6h76l297 -279v-9l-297 -279h-76v6l232 217l47 38z" />
    <glyph glyph-name="arrow.2_N" unicode="&#xe020;" 
d="M491 251v-251h-149v251l6 189l-214 -223h-7v182l239 252l46 51h9l46 -51l239 -252v-182h-7l-214 226z" />
    <glyph glyph-name="arrow.2_W" unicode="&#xe021;" 
d="M561 54v-7h-185l-252 239l-51 46v9l51 46l252 239h185v-7l-230 -220l190 8h223v-141h-223l-194 8z" />
    <glyph glyph-name="arrow.2_S" unicode="&#xe022;" 
d="M342 422v251h149v-251l-6 -189l214 224h7v-183l-239 -252l-46 -51h-9l-46 51l-239 252v183h7l214 -227z" />
    <glyph glyph-name="arrow.2_E" unicode="&#xe023;" 
d="M312 266h-223v141h223l190 -8l-230 220v7h185l252 -239l51 -46v-9l-51 -46l-252 -239h-185v7l234 220z" />
    <glyph glyph-name="arrow.3_N" unicode="&#xe024;" 
d="M421 721l370 -405v-20l-260 2l2 -298h-233l2 298l-259 -2v20l369 405h9z" />
    <glyph glyph-name="arrow.3_W" unicode="&#xe025;" 
d="M448 708h20l-2 -259l300 2v-233l-300 2l2 -260h-20l-404 370v9z" />
    <glyph glyph-name="arrow.3_S" unicode="&#xe026;" 
d="M43 376v20l259 -2l-2 298h233l-2 -298l260 2v-20l-370 -405h-9z" />
    <glyph glyph-name="arrow.3_E" unicode="&#xe027;" 
d="M789 330l-404 -370h-20l2 260l-300 -2v233l300 -2l-2 259h20l404 -369v-9z" />
    <glyph glyph-name="arrow.4_N" unicode="&#xe028;" 
d="M423 721l368 -380v-34l-237 1l3 -308h-281l3 308l-236 -1v34l367 380h13zM511 350l211 -1v7l-50 44l-255 263l-256 -263l-50 -44v-7l211 1l-2 -306h193z" />
    <glyph glyph-name="arrow.4_W" unicode="&#xe029;" 
d="M397 708h34l-1 -236l310 3v-281l-310 3l1 -237h-34l-380 368v13zM693 433l-306 -2l1 209h-8l-45 -50l-263 -256l263 -255l45 -50h8l-1 209l306 -3v198z" />
    <glyph glyph-name="arrow.4_S" unicode="&#xe02a;" 
d="M410 -29l-367 380v34l236 -1l-3 308h281l-3 -308l237 1v-34l-368 -380h-13zM322 342l-211 1v-7l50 -44l256 -263l255 263l50 44v7l-211 -1l2 306h-193z" />
    <glyph glyph-name="arrow.4_E" unicode="&#xe02b;" 
d="M789 328l-379 -368h-34l1 237l-310 -3v281l310 -3l-1 236h34l379 -367v-13zM420 238l-1 -209h7l46 50l262 255l-262 256l-46 50h-7l1 -209l-306 2v-198z" />
    <glyph glyph-name="arrow.5_E" unicode="&#xe02c;" horiz-adv-x="998" 
d="M499 -70q-84 0 -158 32t-129.5 87t-87.5 129.5t-32 158.5t32 158t87.5 129.5t129.5 87.5t158 32t158 -32t129.5 -87.5t87.5 -129.5t32 -158t-32 -158.5t-87.5 -129.5t-129.5 -87t-158 -32zM551 259l-130 -124l-28 -23v-9h148l203 193l44 41l-44 40l-203 193h-148v-9
l28 -23l128 -123l31 -27l-156 6h-179v-115h179l159 6z" />
    <glyph glyph-name="arrow.5_NE" unicode="&#xe02d;" horiz-adv-x="998" 
d="M499 -70q-84 0 -158 32t-129.5 87t-87.5 129.5t-32 158.5t32 158t87.5 129.5t129.5 87.5t158 32t158 -32t129.5 -87.5t87.5 -129.5t32 -158t-32 -158.5t-87.5 -129.5t-129.5 -87t-158 -32zM590 319v-170l-1 -37l6 -5l106 104v275l2 59l-59 -2h-273l-99 -100l6 -5h199
l44 2l-106 -96l-148 -147l84 -84l144 146l99 104z" />
    <glyph glyph-name="arrow.5_N" unicode="&#xe02e;" horiz-adv-x="998" 
d="M499 -70q-84 0 -158 32t-129.5 87t-87.5 129.5t-32 158.5t32 158t87.5 129.5t129.5 87.5t158 32t158 -32t129.5 -87.5t87.5 -129.5t32 -158t-32 -158.5t-87.5 -129.5t-129.5 -87t-158 -32zM578 383l122 -128l23 -27h9v144l-192 203l-41 44l-41 -44l-192 -203v-144h9
l23 27l122 126l25 28l-5 -150v-176h118v176l-5 152z" />
    <glyph glyph-name="arrow.5_NW" unicode="&#xe02f;" horiz-adv-x="998" 
d="M499 -70q-84 0 -158 32t-129.5 87t-87.5 129.5t-32 158.5t32 158t87.5 129.5t129.5 87.5t158 32t158 -32t129.5 -87.5t87.5 -129.5t32 -158t-32 -158.5t-87.5 -129.5t-129.5 -87t-158 -32zM503 259l145 -146l83 84l-148 147l-106 96l44 -2h199l6 5l-99 100h-273l-58 2
l1 -59v-275l106 -104l6 5l-1 37v170l-4 44z" />
    <glyph glyph-name="arrow.5_W" unicode="&#xe030;" horiz-adv-x="998" 
d="M499 -70q-84 0 -158 32t-129.5 87t-87.5 129.5t-32 158.5t32 158t87.5 129.5t129.5 87.5t158 32t158 -32t129.5 -87.5t87.5 -129.5t32 -158t-32 -158.5t-87.5 -129.5t-129.5 -87t-158 -32zM574 279h179v115h-179l-156 -6l32 27l127 123l28 23v9h-148l-203 -193l-44 -40
l44 -41l203 -193h148v9l-28 23l-130 124l-32 26z" />
    <glyph glyph-name="arrow.5_SW" unicode="&#xe031;" horiz-adv-x="998" 
d="M499 744q84 0 158 -32t129.5 -87.5t87.5 -129.5t32 -158t-32 -158.5t-87.5 -129.5t-129.5 -87t-158 -32t-158 32t-129.5 87t-87.5 129.5t-32 158.5t32 158t87.5 129.5t129.5 87.5t158 32zM408 354v171l1 36l-6 6l-106 -105v-275l-1 -58l58 1h273l99 100l-6 5h-199l-44 -2
l106 96l148 147l-83 84l-145 -145l-99 -105z" />
    <glyph glyph-name="arrow.5_S" unicode="&#xe032;" horiz-adv-x="998" 
d="M499 744q84 0 158 -32t129.5 -87.5t87.5 -129.5t32 -158t-32 -158.5t-87.5 -129.5t-129.5 -87t-158 -32t-158 32t-129.5 87t-87.5 129.5t-32 158.5t32 158t87.5 129.5t129.5 87.5t158 32zM420 290l-122 128l-23 28h-9v-145l192 -203l41 -44l41 44l192 203v145h-9l-23 -28
l-122 -125l-25 -29l5 151v176h-118v-176l5 -153z" />
    <glyph glyph-name="arrow.5_SE" unicode="&#xe033;" horiz-adv-x="998" 
d="M499 744q84 0 158 -32t129.5 -87.5t87.5 -129.5t32 -158t-32 -158.5t-87.5 -129.5t-129.5 -87t-158 -32t-158 32t-129.5 87t-87.5 129.5t-32 158.5t32 158t87.5 129.5t129.5 87.5t158 32zM495 415l-144 145l-84 -84l148 -147l106 -96l-44 2h-199l-6 -5l99 -100h273l59 -1
l-2 58v275l-106 105l-6 -6l1 -36v-171l4 -44z" />
    </font>
</defs>
</svg>
